<?xml version="1.0" encoding="UTF-8" standalone="no"?>
<svg xmlns:rdf="http://www.w3.org/1999/02/22-rdf-syntax-ns#" xmlns="http://www.w3.org/2000/svg" enable-background="new 0 0 352.597 129.87" xml:space="preserve" height="64.56" viewBox="0 0 171.7002 64.559573" width="171.7" version="1.1" y="0px" x="0px" xmlns:cc="http://creativecommons.org/ns#" xmlns:dc="http://purl.org/dc/elements/1.1/"><path fill="#231f20" d="m83.423 1.1372v6.4248h1.9932v-3.0928h8.0742v21.269h-4.7002v2.0576h13.639v-2.0576h-4.7139v-21.269h8.0957v3.0928h2.0488v-6.4248h-2.0488v1.1074h-20.395v-1.1074h-1.9932zm-9.831 0.29492v1.3896c-1.6-0.8895-3.1986-1.2793-5.0186-1.2793-4.4125 0-7.8975 3.1636-7.8975 7.1426 0 3.2605 1.6616 5.1945 6.5186 7.626 4.5775 2.321 6.0664 3.7584 6.0664 5.8584 0 2.155-1.9857 3.7021-4.7432 3.7021-1.875 0-3.419-0.49674-5.627-1.8232v-2.874h-2.0488v6.9189h2.0488v-1.4463c2.1525 1.223 4.1384 1.835 6.2344 1.835 4.5775 0 8.0107-3.1626 8.0107-7.3076 0-3.592-1.329-5.3597-6.081-8.0127-1.1585-0.663-2.482-1.4376-3.916-2.2666-1.8755-1.105-2.4814-1.8784-2.4814-3.3154 0-2.2655 1.7093-3.7021 4.3018-3.7021 1.489 0 2.4818 0.27602 4.6328 1.4365v2.7637h2.0488v-6.6455h-2.0488zm-31.897 0.125c-7.0995 0-13.181 6.1999-13.181 13.38 0 7.29 6.0812 13.546 13.181 13.546 6.9885 0 13.069-6.3109 13.069-13.546 0-7.1245-6.0813-13.38-13.069-13.38zm82.451 0c-7.099 0-13.18 6.1999-13.18 13.38-0.0005 7.29 6.0802 13.546 13.18 13.546 6.9885 0 13.069-6.3109 13.069-13.546 0-7.1245-6.0808-13.38-13.069-13.38zm-123.28 0.6875v2.0576h4.1533v21.436h-4.1533v2.0576h14.301c5.252 0 8.293-2.4459 8.293-6.7139 0-4.157-3.0411-6.6558-8.3486-6.8223 4.037 0 6.9648-2.3739 6.9648-5.6709 0-3.8465-2.9831-6.3438-7.6846-6.3438h-13.525zm140.11 0v2.2236h3.876l1.1074 1.4365v19.833h-4.1524v2.0576h11.12v-2.0576h-4.1992v-16.297l16.027 18.798h1.6602v-23.77h4.1533v-2.2246h-11.121v2.2246h4.1992v15.799l-15.527-18.023h-7.1436zm-99.342 1.6465c4.659 0 8.4307 4.9161 8.4307 11.102 0 6.2405-3.7162 11.155-8.4307 11.155-4.6585 0-8.375-4.9704-8.375-11.211 0.0005-6.1305 3.7165-11.046 8.375-11.046zm82.452 0c4.659 0 8.4297 4.9161 8.4297 11.102 0 6.2405-3.7152 11.155-8.4297 11.155-4.6585 0-8.375-4.9704-8.375-11.211 0-6.1305 3.7165-11.046 8.375-11.046zm-114.85 0.5771h3.9307c2.7125 0 4.1524 1.5377 4.1524 4.2852 0 2.8025-1.772 4.6162-4.54 4.6162h-3.543v-8.9014zm0 11.126h3.9863c3.654 0 5.4775 1.773 5.4775 5.21 0 3.1595-1.8792 4.7676-5.5332 4.7676h-3.9307v-9.9775zm104.38 24.732v0.94434h-14.819v1.7529h3.541v18.293h-3.541v1.7549h16.896v-4.3877h-1.7471v2.4922h-8.0195v-8.2295h6.0488v2.3516h1.7344v-6.5605l-1.7344 0.04687v2.2666h-6.0488v-7.8848h7.7363v2.4551h1.6992v-5.2949h-1.7461zm51.325 0v0.94434h-14.82v1.7529h3.542v18.293h-3.542v1.7549h16.896v-4.3877h-1.7471v2.4922h-8.0195v-8.2295h6.0498v2.3516h1.7344v-6.5605l-1.7344 0.04687v2.2666h-6.0498v-7.8848h7.7373v2.4551h1.6992v-5.2949h-1.7461zm-144.14 0.25586v1.4697c-2.167-1.042-3.487-1.4219-5.5615-1.4219-7.355 0-12.5 4.7771-12.5 11.58 0 6.6615 5.1456 11.486 12.265 11.486 3.0175 0 4.9029-0.42745 7.4844-1.5644v-4.3945h-1.6875l-0.0469 2.4092c-2.2145 1.1805-3.3462 1.5586-4.9492 1.5586-5.139 0-9.0049-4.2515-9.0049-9.873 0-5.2915 3.5367-9.2129 8.3457-9.2129 2.122 0 3.6298 0.51938 5.6553 1.9844v1.6064h1.6875v-5.6279h-1.6875zm119.33 0v1.2803c-2.69-0.9005-4.1053-1.1846-5.9463-1.1846-6.8895 0-12.178 4.9741-12.178 11.558 0 6.6545 5.1465 11.461 12.272 11.461 2.6892 0 4.6723-0.3802 8.0088-1.5644v-6.249h3.5879v-1.7539h-10.7v1.7539h3.5869v5.4482c-1.51 0.3755-2.1703 0.46972-3.1143 0.46972-5.6155 0-9.5801-4.1337-9.5801-9.9922 0-5.305 3.6807-9.2832 8.6357-9.2832 1.84 0 3.3028 0.42612 5.4268 1.5156v2.1787h1.7344v-5.6377h-1.7344zm-101.98 0.125c-6.0405 0-11.233 5.2913-11.233 11.424 0 6.2265 5.1929 11.565 11.233 11.565 5.946 0 11.14-5.3859 11.14-11.565 0-6.085-5.1936-11.424-11.14-11.424zm16.075 0.56348v1.8955h3.542v18.15h-3.542v1.7549h16.788v-4.7715h-1.6875v2.876h-7.9697v-18.01h3.5596v-1.8955h-10.69zm22.286 0v1.8955h3.542v18.15h-3.542v1.7549h16.788v-4.7715h-1.6875v2.876h-7.9697v-18.01h3.5596v-1.8955h-10.69zm-38.408 1.4268c3.964 0 7.1728 4.1979 7.1728 9.4814 0 5.33-3.1618 9.5273-7.1728 9.5273-3.964 0-7.126-4.2442-7.126-9.5742 0-5.236 3.162-9.4346 7.126-9.4346z"/></svg>
