<?xml version="1.0" encoding="UTF-8" standalone="no"?>
<!-- Created with Inkscape (http://www.inkscape.org/) -->

<svg
   version="1.1"
   id="svg1829"
   width="1209.0575"
   height="523.38776"
   viewBox="0 0 1209.0575 523.38776"
   sodipodi:docname="Colorado_State_University_logo.png"
   xmlns:inkscape="http://www.inkscape.org/namespaces/inkscape"
   xmlns:sodipodi="http://sodipodi.sourceforge.net/DTD/sodipodi-0.dtd"
   xmlns="http://www.w3.org/2000/svg"
   xmlns:svg="http://www.w3.org/2000/svg">
  <defs
     id="defs1833" />
  <sodipodi:namedview
     id="namedview1831"
     pagecolor="#ffffff"
     bordercolor="#000000"
     borderopacity="0.25"
     inkscape:showpageshadow="2"
     inkscape:pageopacity="0.0"
     inkscape:pagecheckerboard="0"
     inkscape:deskcolor="#d1d1d1"
     showgrid="false" />
  <g
     inkscape:groupmode="layer"
     inkscape:label="Image"
     id="g1835"
     transform="translate(-6.7795525,-559.08539)">
    <path
       style="fill:#16674e;fill-opacity:1"
       d="m 1126.9529,1081.7384 c -6.4143,-3.1979 -6.3216,-12.5723 0.1396,-14.1246 2.5615,-0.6154 4.4693,0.6633 7.4343,4.983 1.3335,1.9426 1.4096,1.9452 3.4286,0.1181 1.1356,-1.0277 2.314,-2.654 2.6187,-3.6139 0.7276,-2.2925 -20.7917,-49.9272 -23.6002,-52.241 -1.7061,-1.4054 -4.0711,-1.75 -12.0135,-1.75 h -9.8892 v 20.4275 20.4274 l 2.6349,2.0726 c 3.446,2.7107 6.897,2.602 12.1151,-0.3815 5.4828,-3.1349 5.8009,-0.9709 0.5,3.4018 -8.4956,7.008 -20.4082,6.7518 -26.1617,-0.5626 -1.9697,-2.5041 -2.0883,-3.868 -2.0883,-24.02 V 1015.11 h -3.2292 c -3.2144,0 -3.1884,-0.041 5.7292,-9 4.9271,-4.95 9.3052,-8.99995 9.7292,-8.99995 0.4239,0 0.7708,2.7 0.7708,5.99995 v 6 h 22.5 c 14.3333,0 22.5,0.363 22.5,1 0,0.55 -1.0929,1 -2.4286,1 -2.8233,0 -5.5865,2.4061 -5.537,4.8215 0.019,0.9232 3.3582,9.7785 7.4208,19.6785 6.6002,16.0841 7.4912,17.7339 8.3709,15.5 10.9164,-27.7216 13.1739,-33.6745 13.1739,-34.7379 0,-2.2974 -3.9439,-5.2621 -7,-5.2621 -1.65,0 -3,-0.45 -3,-1 0,-0.6087 4.5,-1 11.5,-1 7,0 11.5,0.3913 11.5,1 0,0.55 -0.6679,1 -1.4842,1 -0.8163,0 -2.8566,1.2375 -4.534,2.75 -2.3152,2.0877 -5.7954,9.2944 -14.4493,29.9212 -6.2698,14.9442 -12.0954,28.4442 -12.9457,30 -3.92,7.1724 -9.1678,10.2193 -13.7051,7.9572 z m -397.22294,-13.67 c -11.33341,-1.7641 -18.4011,-7.9289 -21.11606,-18.4185 -1.19574,-4.6198 -1.54263,-11.7448 -1.54263,-31.6849 0,-14.1486 -0.43496,-26.86878 -0.96658,-28.26704 -0.72093,-1.89619 -2.11868,-2.83239 -5.5,-3.68381 -2.63892,-0.66449 -4.53342,-1.71876 -4.53342,-2.52281 0,-1.12528 3.42888,-1.38129 18.5,-1.38129 15.26598,0 18.5,0.24685 18.5,1.4121 0,0.87422 -1.56393,1.67633 -4.10577,2.10577 -8.08204,1.36545 -7.89423,0.53825 -7.89423,34.77028 0,29.4211 0.0644,30.4158 2.25,34.75 3.02309,5.9949 8.91898,8.9871 18.01382,9.1421 5.40512,0.092 7.35217,-0.3512 11.04371,-2.5146 5.23599,-3.0685 9.26935,-7.5591 11.82513,-13.1657 1.61666,-3.5464 1.82591,-7.0178 1.84538,-30.6151 0.0206,-24.97526 -0.0993,-26.76929 -1.94606,-29.11707 -1.26325,-1.60596 -3.41193,-2.73283 -6,-3.14668 -2.61426,-0.41803 -4.03198,-1.16801 -4.03198,-2.13292 0,-1.24708 2.28004,-1.48818 14.07332,-1.48818 12.86284,0 14.0448,0.15052 13.74169,1.75 -0.23124,1.2202 -1.45643,1.84348 -4.047,2.0588 -2.56515,0.21319 -4.34266,1.10629 -5.74168,2.88485 -1.91948,2.44023 -2.02662,3.97955 -2.03191,29.1912 -0.003,15.5002 -0.44402,28.194 -1.05544,30.3957 -1.611,5.8012 -8.69981,13.7948 -15.00152,16.9163 -6.30259,3.122 -15.35114,4.1512 -24.27877,2.7615 z M 877.11955,1040.86 c -11.5852,-24.8501 -13.15839,-27.5588 -17.67972,-30.4411 -1.49858,-0.9554 0.89354,-1.2029 12.08144,-1.25 8.33289,-0.035 13.56747,0.3047 13,0.8441 -0.5225,0.4966 -1.85,1.0628 -2.95,1.2582 -4.03295,0.7163 -3.08841,5.9104 4.07274,22.3962 3.6894,8.4935 7.00897,15.4426 7.37682,15.4426 1.13017,0 13.0742,-30.328 13.06195,-33.1665 -0.007,-1.7364 -0.97089,-3.3824 -2.76151,-4.7184 l -2.75,-2.0517 9.25,-0.032 c 5.52112,-0.019 9.25,0.3714 9.25,0.9683 0,0.55 -0.86,1 -1.91111,1 -3.57118,0 -6.70711,5.6821 -17.03078,30.8583 -5.67023,13.828 -10.41357,25.1417 -10.54076,25.1417 -0.12719,0 -5.73827,-11.8125 -12.46907,-26.25 z m 139.45175,25.2339 c -2.2,-0.4383 -5.9125,-1.5628 -8.25,-2.499 l -4.25,-1.702 v -6.8914 c 0,-3.7903 -0.024,-7.229 -0.053,-7.6415 -0.029,-0.4125 0.6298,-0.8924 1.4643,-1.0664 0.9646,-0.2012 1.7638,0.7092 2.1947,2.5 1.1189,4.6506 4.1741,9.9985 6.9673,12.1956 5.1734,4.0694 15.1849,3.9708 17.8663,-0.1759 4.4933,-6.9486 1.8764,-11.3565 -10.5941,-17.8443 -8.8206,-4.589 -13.4305,-8.6209 -15.4886,-13.5466 -1.7525,-4.1943 -1.719,-7.7118 0.107,-11.2429 4.9271,-9.5281 18.9534,-12.3307 32.3345,-6.4608 l 5.2986,2.3243 -0.2986,6.2735 c -0.2398,5.0371 -0.6435,6.3392 -2.0486,6.6068 -1.3088,0.2493 -1.75,-0.3319 -1.75,-2.3057 0,-3.2256 -1.434,-6.1386 -4.7973,-9.7451 -5.1309,-5.5018 -15.3629,-4.594 -18.7319,1.6619 -2.9556,5.4882 -1.385,7.3926 12.134,14.713 9.8672,5.343 12.2026,7.0751 14.5728,10.8084 9.4476,14.8816 -5.4158,28.2744 -26.6776,24.0381 z M 774.07127,1065.11 c 0,-0.55 0.88963,-1 1.97695,-1 4.25994,0 5.08301,-3.5445 5.13709,-22.1229 0.0278,-9.5574 0.0135,-18.186 -0.0317,-19.1748 -0.0453,-0.9888 -1.15035,-2.7888 -2.45572,-4 l -2.37342,-2.2023 8.37342,-4.1631 8.37341,-4.1631 0.0634,6.6631 c 0.0444,4.6729 0.31647,6.0372 0.91066,4.5675 1.26643,-3.1323 8.68422,-9.086 12.19527,-9.7882 5.38407,-1.0768 11.83113,-0.6673 14.95912,0.9503 5.44044,2.8133 6.28436,6.5329 6.85697,30.2218 0.57386,23.7402 0.38464,23.1696 7.69316,23.1964 7.31371,0.027 7.39775,-0.2611 7.09105,-24.2969 -0.26613,-20.857 -0.29903,-21.1449 -2.54453,-22.2636 -2.17926,-1.0858 -2.08637,-1.2054 2.20959,-2.8461 2.46647,-0.9419 6.04361,-2.7706 7.9492,-4.0638 2.89513,-1.9647 3.55934,-2.1046 4.04041,-0.851 0.31664,0.8252 0.57571,12.9347 0.57571,26.9101 0,24.3267 0.0852,25.4629 2,26.6587 1.1,0.687 2,1.5908 2,2.0085 0,0.4177 -10.575,0.7594 -23.5,0.7594 -15,0 -23.5,-0.3617 -23.5,-1 0,-0.55 0.65917,-1 1.46482,-1 2.89588,0 3.53518,-3.8934 3.53518,-21.5299 0,-19.1345 -0.63838,-21.8682 -5.74498,-24.6012 -3.23088,-1.7291 -9.56134,-1.3695 -12.75749,0.7247 -4.89732,3.2088 -5.49757,5.8683 -5.49757,24.3568 0,15.7163 0.15641,17.2061 2,19.0496 1.1,1.1 3.125,2 4.5,2 1.375,0 2.5,0.45 2.5,1 0,0.6191 -5.33333,1 -14,1 -8.66667,0 -14,-0.3809 -14,-1 z m 156.71348,-0.3628 c -6.37823,-1.7943 -11.61375,-6.206 -14.96348,-12.6089 -2.3222,-4.4389 -2.75,-6.4817 -2.75,-13.1317 0,-21.4091 14.03516,-33.9374 33.49371,-29.8979 8.61984,1.7895 16.50629,10.1323 16.50629,17.4615 v 2.5398 h -20.13691 -20.13691 l 0.5166,6.4358 c 0.65588,8.1709 3.89254,14.9253 8.88508,18.5419 4.92644,3.5687 9.60735,4.4267 16.42672,3.011 4.32873,-0.8986 6.33657,-2.0377 9.93526,-5.6364 4.58297,-4.583 5.65214,-4.4283 3.09258,0.4474 -1.59311,3.0347 -7.68012,8.9762 -11.8184,11.5358 -3.73274,2.3088 -13.1765,2.9541 -19.05054,1.3017 z m 18.28652,-41.1309 c 0,-3.3427 -1.76646,-7.6147 -4.24093,-10.2563 -2.65711,-2.8365 -8.97878,-3.0232 -13.29241,-0.3927 -3.35982,2.0489 -8.10232,10.0407 -7.26241,12.2382 0.42947,1.1236 2.96287,1.3428 12.6663,1.0957 12.01611,-0.3059 12.12945,-0.331 12.12945,-2.6849 z m 15.5,41.4937 c -0.35698,-0.5776 0.58962,-1 2.24098,-1 5.0988,0 5.25902,-0.7226 5.25902,-23.7214 v -21.3214 l -2.51957,-1.148 c -2.42191,-1.1035 -2.20372,-1.2965 5.62983,-4.9786 4.48217,-2.1068 8.31597,-3.8306 8.51957,-3.8306 0.20359,0 0.39663,2.1375 0.42898,4.75 0.0511,4.1266 0.21515,4.4907 1.25,2.7741 0.65515,-1.0868 2.60869,-3.4493 4.34119,-5.25 3.56578,-3.7062 8.3257,-4.3802 12.12753,-1.7174 2.606,1.8254 2.9688,6.873 0.7086,9.86 -1.8185,2.4032 -6.70307,2.5093 -9.01661,0.1957 -2.40676,-2.4067 -6.63238,-1.6901 -8.18161,1.3876 -1.58373,3.1463 -1.79931,38.176 -0.25273,41.0658 0.66611,1.2446 2.09223,1.9342 4,1.9342 1.63065,0 2.96482,0.45 2.96482,1 0,0.6171 -5.14699,1 -13.44098,1 -7.88197,0 -13.6966,-0.4135 -14.05902,-1 z m 83.50003,0 c 0,-0.55 1.0553,-1 2.345,-1 5.2196,0 5.655,-1.877 5.655,-24.377 v -20.7195 l -3.25,-1.4126 c -1.7875,-0.7769 -2.6747,-1.4302 -1.9715,-1.4517 0.7031,-0.021 4.5974,-1.6142 8.654,-3.5392 4.0565,-1.925 7.6362,-3.5 7.9551,-3.5 0.3188,0 0.6995,12.0375 0.846,26.75 0.2654,26.6634 0.2736,26.7532 2.5163,27.7372 4.418,1.9383 2.0743,2.5128 -10.2499,2.5128 -7.6667,0 -12.5,-0.3866 -12.5,-1 z m -447.00003,-60.0684 c -8.56183,-2.2356 -19.78774,-7.31391 -26.74414,-12.09841 -10.46248,-7.19594 -29.25586,-27.7285 -29.25586,-31.96327 0,-0.49623 1.58381,-1.65749 3.51958,-2.5806 3.45008,-1.64523 3.55197,-1.63212 5.15986,0.66345 3.72307,5.31543 8.23633,9.71675 15.48103,15.09704 22.49857,16.70861 49.39888,18.09005 65.6628,3.37205 11.16784,-10.10631 16.82077,-26.20851 14.32022,-40.79064 -1.46478,-8.54188 -4.9137,-16.42439 -9.79025,-22.37557 -1.97585,-2.41127 -18.05156,-16.2208 -35.72378,-30.68783 -17.67223,-14.46703 -34.05473,-28.39035 -36.40557,-30.9407 -10.15952,-11.02178 -15.22389,-23.81872 -15.22389,-38.46859 0,-10.60623 1.86428,-18.20474 6.74558,-27.49387 7.40099,-14.0841 22.18552,-26.01534 38.72039,-31.24767 11.63401,-3.6815 14.19923,-5.55045 16.01625,-11.66901 1.2766,-4.2988 1.51429,-13.70251 1.49582,-59.17943 -0.0206,-50.65203 -0.14011,-54.32867 -1.89179,-58.186 -2.93997,-6.47404 -7.82551,-8.96004 -18.83606,-9.58467 -5.19935,-0.29497 -5.24981,-0.32918 -5.25,-3.56015 l -1.9e-4,-3.26232 36.75,0.26232 36.75,0.26232 0.27159,19.25 c 0.14938,10.5875 0.59938,19.21967 1,19.18259 0.40063,-0.0371 7.64973,-8.38294 16.10912,-18.54636 15.90767,-19.11206 18.69727,-21.49373 26.74398,-22.83312 8.04433,-1.33899 21.4697,2.71004 29.82943,8.99642 1.93612,1.45594 1.93419,1.57295 -0.20983,12.70997 -1.19017,6.18227 -3.59388,18.77635 -5.34157,27.98684 l -3.17763,16.74633 -6.14657,-6.2997 c -11.77137,-12.06463 -21.01723,-16.90222 -32.57852,-17.04562 -6.40771,-0.0795 -8.23054,0.30812 -12.51612,2.66144 -5.39823,2.96431 -10.7734,9.72713 -12.49083,15.71544 -0.56621,1.97427 -0.99305,17.46413 -0.99305,36.03767 0,37.86385 0.51338,41.2933 6.79297,45.3778 2.03887,1.32617 5.73203,2.91365 8.20703,3.52775 2.475,0.61409 7.9875,2.30052 12.25,3.74762 l 7.75,2.63109 v 31.27589 31.2759 l 3.75,-1.54957 c 7.18608,-2.96943 19.50742,-10.88164 24.33346,-15.62586 6.78611,-6.67106 12.59003,-16.95008 16.46485,-29.16005 4.91492,-15.48739 4.90456,-15.6829 -1.04831,-19.78869 -10.42212,-7.18832 -15.70846,-17.77416 -15.88972,-31.81903 -0.10317,-7.99402 0.13619,-9.04437 3.71051,-16.2827 2.90623,-5.88539 5.04392,-8.70428 8.93073,-11.77663 7.51156,-5.93754 10.77654,-7.33569 31.4626,-13.47307 46.50094,-13.79643 45.68737,-13.40094 45.65083,-22.1915 -0.0381,-9.17267 -6.47479,-17.12708 -17.36495,-21.45953 -4.56088,-1.81446 -7.56186,-2.19518 -17.57539,-2.2297 l -12.07539,-0.0416 -8.70597,4.31398 c -6.71015,3.32501 -10.63033,6.19127 -17.10019,12.50291 -9.27551,9.04866 -9.25128,9.06225 -5.86102,-3.28679 7.10938,-25.89594 33.04921,-42.95415 65.408,-43.01273 24.7065,-0.0447 47.73367,12.37694 56.41896,30.4344 l 3.491,7.25809 v 44.19473 c 0,37.93613 0.2192,44.61862 1.5479,47.18803 1.93794,3.74756 5.71701,5.23848 11.2021,4.41945 2.3375,-0.34904 4.25,-0.24514 4.25,0.23088 0,1.86404 -5.87608,9.94763 -9.78699,13.46374 -7.47112,6.71692 -11.56787,8.27897 -21.71301,8.27897 -7.27966,0 -9.7659,-0.40889 -13.00684,-2.13911 -5.10649,-2.72616 -14.12923,-12.23129 -16.10952,-16.9708 l -1.52315,-3.64541 -3.68025,3.49169 c -7.32855,6.95309 -20.09441,14.18511 -30.73252,17.41037 -4.26487,1.29302 -9.27227,1.80695 -17.69772,1.81637 l -11.75,0.0131 v 30.24916 30.24915 l 21.25,0.26989 21.25,0.26989 v 6.5 6.5 l -21.25,0.26989 -21.25,0.26989 0.0307,44.23011 c 0.0301,43.34506 0.0751,44.3393 2.25,49.68687 3.11072,7.64863 8.29303,11.22991 16.36025,11.3059 3.2369,0.0305 8.21815,-0.71943 11.06945,-1.66648 l 5.18418,-1.7219 -0.0846,-8.96703 c -0.0792,-8.39045 0.15071,-9.44316 3.57504,-16.37182 4.31669,-8.73424 10.32168,-14.55834 19.11496,-18.53919 3.3,-1.49396 17.475,-6.18361 31.5,-10.42145 14.025,-4.23785 26.85,-8.48462 28.5,-9.43727 4.16157,-2.40275 6.1223,-8.22853 4.62212,-13.7334 -1.8474,-6.77896 -6.27559,-11.86596 -13.31132,-15.29171 -11.78363,-5.73754 -26.56237,-6.1365 -38.50001,-1.03932 -6.5433,2.79388 -18.44828,12.05732 -23.25657,18.09628 l -3.94954,4.96041 0.56523,-3.81489 c 0.86141,-5.81396 5.10913,-18.08172 7.92382,-22.88462 1.38258,-2.35919 5.71784,-7.31198 9.63391,-11.0062 8.03388,-7.57876 18.88067,-13.29734 30.37994,-16.01674 9.17891,-2.17068 25.99817,-2.20376 34.18901,-0.0673 19.27011,5.02643 34.59951,17.12476 40.11528,31.65992 2.00065,5.27213 2.08714,7.31466 2.08763,49.29966 5.5e-4,48.17277 0.036,48.47125 5.99829,50.54973 1.68221,0.58642 3.60838,0.89779 4.28039,0.69194 0.672,-0.20586 2.43694,-0.63983 3.92209,-0.96438 2.63661,-0.57618 2.67492,-0.51737 1.62497,2.49453 -1.71468,4.91872 -11.30973,14.52921 -17.55792,17.58616 -6.90054,3.37612 -16.29315,3.7972 -23.41269,1.04961 -5.33424,-2.0586 -13.48848,-10.10904 -16.78561,-16.57195 l -2.15183,-4.21795 -5.0423,4.41088 c -6.09134,5.32856 -18.29607,12.44917 -25.5151,14.8863 -19.65649,6.63599 -37.01603,3.4487 -48.4107,-8.88842 l -5.5509,-6.01002 -4.72262,4.27566 c -10.32181,9.34494 -25.02975,13.99566 -41.71975,13.19198 -8.06669,-0.38844 -10.79657,-0.96037 -15.44939,-3.23678 -8.08374,-3.95501 -12.93742,-9.0241 -16.88192,-17.63113 -6.31835,-13.78683 -6.62449,-16.83062 -6.62449,-65.86314 v -44.05259 h -8 -8 v -5.88953 c 0,-7.67533 -2.46348,-20.48401 -5.66602,-29.46006 -10.97417,-30.7583 -32.11812,-46.17655 -55.21137,-40.26033 -14.1508,3.62526 -24.04681,11.13044 -30.47176,23.10992 -2.84692,5.30814 -3.11349,21.24171 -0.43716,26.13012 3.36851,6.15273 7.33872,9.62728 43.37693,37.96158 20.07785,15.7858 38.45344,30.99799 40.83465,33.80487 16.00122,18.8617 22.67888,44.06385 18.08788,68.26546 -4.20997,22.19297 -20.54308,39.09338 -47.61709,49.271 -16.86516,6.3399 -37.85304,7.9264 -52.89606,3.9985 z M 865.6216,945.56592 c 2.67065,-1.5206 4.96991,-3.99574 6.75,-7.26634 l 2.69967,-4.96019 v -22.61467 c 0,-12.43807 -0.35739,-22.61467 -0.7942,-22.61467 -1.48741,0 -33.46546,15.04871 -36.36427,17.11284 -5.0284,3.58054 -7.30455,9.29471 -7.32422,18.38716 -0.0152,7.02841 0.34538,8.65488 2.96902,13.39221 1.65653,2.99109 4.58905,6.45283 6.58557,7.77407 7.00461,4.63543 18.11895,4.97987 25.47843,0.78959 z m -60.38567,-205.5972 c 3.11234,-1.71243 5.12997,-3.86436 7.15217,-7.62827 l 2.81682,-5.24295 -0.0953,-22.18891 c -0.0524,-12.2039 -0.24072,-22.33429 -0.4184,-22.51198 -0.53071,-0.53071 -33.85467,14.6581 -37.31661,17.00863 -5.08444,3.45215 -7.59599,8.95454 -8.05902,17.65592 -0.36013,6.76773 -0.10898,8.11285 2.42702,12.99875 3.15097,6.07073 8.45876,10.83522 13.4984,12.11675 5.74442,1.46074 15.23109,0.41318 19.99497,-2.20794 z m 41.07721,261.08248 c -4.94312,-1.93234 -5.40525,-9.47754 -0.76663,-12.51688 3.18994,-2.09013 8.06405,-1.05704 10.16888,2.15534 3.78566,5.77765 -2.73789,12.96684 -9.40225,10.36154 z m 213.75816,0.3394 c -4.8341,-1.74521 -6.5582,-7.63507 -3.4418,-11.75782 2.0523,-2.71499 9.0694,-2.75241 11.0389,-0.0589 1.9457,2.66086 1.7589,7.91348 -0.3472,9.76287 -2.1575,1.89455 -5.2581,2.77295 -7.2499,2.05385 z m 12.092,-32.80937 c -15.0342,-3.884 -31.4079,-12.6423 -39.7985,-21.28815 l -3.8056,-3.92149 -2.494,3.98941 c -3.9217,6.27338 -13.8034,14.67618 -21.743,18.48903 -21.15924,10.16124 -49.45752,1.35915 -60.15477,-18.71094 -5.90893,-11.0863 -6.09616,-13.012 -6.09616,-62.70161 V 839.1851 l -9.25,-0.28752 -9.25,-0.28753 v -5.46778 -5.46778 l 8.06881,-3.03222 c 14.94959,-5.61798 25.60102,-13.13946 33.96881,-23.98697 8.40332,-10.89358 15.23423,-25.09384 16.90536,-35.14329 l 0.68147,-4.09804 -24.31223,-0.58253 c -27.7434,-0.66474 -37.22781,-2.38838 -50.88205,-9.24702 -10.64431,-5.34672 -15.30405,-8.97347 -20.98621,-16.33389 -10.16292,-13.16458 -13.88986,-24.77868 -14.66401,-45.6969 -0.60734,-16.41099 1.11377,-25.41243 7.16404,-37.468 10.12951,-20.18372 23.56436,-32.82068 41.55601,-39.08799 8.71392,-3.03546 28.33457,-3.79929 38.25002,-1.48906 6.66626,1.55318 16.59922,5.98308 22.05756,9.83722 1.54416,1.09034 2.99621,1.7938 3.22676,1.56324 0.90036,-0.90036 0.53872,-47.79396 -0.38184,-49.51405 -2.06487,-3.85824 -4.75595,-5.14276 -13.1525,-6.27799 -9.35031,-1.26419 -11.0436,-2.12894 -9.36854,-4.78447 0.99431,-1.5763 4.04757,-1.72248 35.97753,-1.72248 h 34.89104 l 0.2347,43.5 c 0.1292,23.925 0.2417,64.73251 0.25,90.68335 l 0.015,47.18334 4.8345,4.96338 c 3.6067,3.70292 6.2856,5.4208 10.5486,6.7646 5.4429,1.71572 5.6999,1.94608 5.4155,4.85327 l -0.2983,3.05206 -31.75,0.26405 -31.75003,0.26404 v 30.98596 30.98595 h 21.50003 21.5 v 7.5 7.5 h -21.5 -21.50003 v 45.32069 45.32068 l 2.75,5.42828 c 3.64385,7.19266 7.80184,9.93035 15.08223,9.93035 5.8072,0 11.3359,-2.09435 16.4798,-6.24278 l 2.812,-2.26779 -3.056,-6.53032 c -5.4711,-11.69154 -7.4223,-21.78142 -6.7605,-34.95911 1.0947,-21.7982 6.4685,-34.75259 20.1742,-48.63361 7.8608,-7.96136 10.2687,-9.73112 18.7611,-13.78906 14.5178,-6.93723 22.4128,-8.73834 40.7571,-9.29813 12.0826,-0.36871 17.0222,-0.11621 22.404,1.14522 17.7884,4.16942 30.0195,13.60374 37.9444,29.26811 3.4812,6.88088 7.5256,21.04416 7.8729,27.57035 l 0.2787,5.23712 -50.3882,0.25933 -50.388,0.25932 0.5261,8.74068 c 1.2528,20.81355 14.2717,42.89718 29.9827,50.85856 9.1761,4.64986 28.0576,4.92699 39.4925,0.57965 10.0953,-3.83802 21.412,-13.60568 30.9349,-26.70034 2.1345,-2.9351 2.1846,-2.94782 4.25,-1.07868 2.8276,2.55896 2.6747,3.74891 -1.5906,12.38121 -3.8879,7.8686 -15.6486,21.38438 -23.1017,26.54943 -5.7943,4.01541 -18.8072,9.21283 -27.6397,11.03943 -12.0252,2.48687 -29.833,2.09307 -41.4859,-0.91741 z m 43.0477,-97.72118 c 0.7653,-6.84432 -2.5415,-18.83772 -6.9548,-25.22396 -1.5104,-2.18568 -4.6839,-5.33568 -7.0521,-7 -3.7457,-2.63242 -5.1361,-3.01663 -10.6884,-2.95366 -5.5511,0.0629 -7.0438,0.5189 -11.4582,3.5 -8.0329,5.42481 -14.5159,16.71401 -16.4684,28.67762 l -0.6936,4.25 h 26.5878 c 20.5291,0 26.6198,-0.28485 26.7277,-1.25 z M 974.83471,747.45332 c 1.50511,-1.11494 3.74906,-3.51484 4.98656,-5.3331 l 2.25,-3.30594 -0.01,-47.60211 -0.01,-47.60212 -2.38262,-5.11703 c -4.23105,-9.0868 -12.55544,-13.41343 -26.20563,-13.62046 -8.78725,-0.13327 -12.3559,0.8863 -19.15028,5.47126 -13.12209,8.855 -22.19661,32.83849 -20.91082,55.26623 0.73724,12.85957 2.57427,19.56583 8.90263,32.5 10.0819,20.60579 26.72356,32.5766 44.0297,31.67177 3.85302,-0.20145 6.67053,-0.97328 8.5,-2.3285 z M 87.168148,762.99448 C 69.543349,759.2953 52.584247,751.64511 40.553258,741.96668 23.399902,728.16751 13.962505,712.28652 8.3853082,687.83535 c -1.175106,-5.15182 -1.635493,-11.81689 -1.604276,-23.2253 0.03824,-13.97695 0.375443,-17.26143 2.666864,-25.97651 3.3347428,-12.68321 10.9103628,-28.15108 17.9291988,-36.60778 15.758644,-18.98693 44.376753,-34.48622 71.194166,-38.55807 19.166199,-2.91013 39.209259,-1.24909 61.999999,5.13815 16.7112,4.68342 19.09758,5.05755 22.07965,3.46159 1.4741,-0.78892 3.39034,-2.9236 4.2583,-4.74373 1.34217,-2.81455 2.03293,-3.2648 4.62009,-3.01149 l 3.04197,0.29784 0.26268,35.14776 0.26268,35.14775 -3.17484,1.10676 c -1.74616,0.60871 -3.3024,0.97918 -3.45831,0.82327 -0.15592,-0.15591 -1.01584,-3.82902 -1.91093,-8.16246 -3.16916,-15.34288 -10.45662,-30.52032 -17.98735,-37.46191 -12.00451,-11.06536 -21.96646,-14.56754 -41.49394,-14.58742 -11.48831,-0.0117 -14.48477,0.32667 -20.10856,2.27071 -12.672126,4.38053 -23.558438,12.83667 -30.87644,23.98384 -10.471466,15.95068 -15.014999,32.76718 -15.014999,55.57341 0,15.38692 1.399185,23.50097 6.304446,36.56024 9.157612,24.38031 23.913482,39.64422 44.195553,45.7172 8.89441,2.66321 24.73653,2.40293 34.5,-0.56683 13.45962,-4.09402 31.25318,-14.53528 39.89585,-23.4109 l 4.39583,-4.51431 -2.39583,-7.31356 c -2.08138,-6.35362 -2.39584,-9.21674 -2.39584,-21.81355 0,-13.71969 0.1687,-14.97148 3.13474,-23.26121 4.41911,-12.35092 8.54291,-18.75119 18.86526,-29.27953 12.2036,-12.44713 26.40015,-20.43829 44.5,-25.04881 10.69616,-2.7246 37.30384,-2.7246 48,0 18.09985,4.61052 32.2964,12.60168 44.5,25.04881 10.36314,10.56995 14.49209,16.99654 18.81144,29.27953 2.5602,7.28044 3.15103,10.67903 3.49575,20.10828 0.48039,13.14055 -0.72452,20.6161 -4.97611,30.87299 -4.24041,10.22992 -9.49447,17.91107 -18.21991,26.63652 -23.8539,23.85389 -63.52303,32.71232 -98.11117,21.90899 -12.6543,-3.95246 -23.56837,-10.15434 -35.36662,-20.09694 -5.19255,-4.37585 -12.49686,-12.77806 -13.38042,-15.39161 -0.26009,-0.76934 -3.86551,1.96902 -9.0691,6.88809 -8.65685,8.1835 -21.14041,17.69072 -29.82003,22.71032 -6.43313,3.72041 -19.94885,8.52986 -28.70181,10.21328 -10.62905,2.04425 -30.559568,1.71056 -42.065142,-0.70428 z M 289.50761,746.685 c 8.69642,-4.25477 16.3943,-12.5868 21.83178,-23.6303 6.21169,-12.61592 8.71183,-22.04312 9.40012,-35.44465 1.2351,-24.04834 -6.77542,-47.66708 -20.6577,-60.90854 -8.24905,-7.86826 -15.37623,-11.0144 -25.01631,-11.04293 -6.26592,-0.0185 -8.47656,0.45275 -13.38273,2.85312 -12.59028,6.15985 -22.65842,20.01718 -28.77046,39.59835 -2.08403,6.67662 -2.33901,9.42121 -2.32258,25 0.0181,17.1571 0.0827,17.68615 3.29897,27 7.37751,21.36445 19.42142,35.35288 33.68257,39.12071 5.77479,1.52571 16.05243,0.33297 21.93634,-2.54576 z m 215.06366,16.51198 c -10.41919,-1.35646 -21.45741,-4.98383 -32.91035,-10.81495 -9.82214,-5.00083 -12.23786,-6.79632 -21.13551,-15.70907 -11.05697,-11.07574 -16.21942,-19.48513 -20.60396,-33.56291 -3.036,-9.74792 -3.30801,-28.02955 -0.56493,-37.96835 4.14518,-15.01892 14.33858,-30.51937 26.93136,-40.95279 7.71393,-6.39117 25.53108,-15.31974 36.28339,-18.1824 12.02365,-3.20114 33.89356,-3.72773 46.51003,-1.11988 18.03155,3.72716 34.98712,12.53493 46.90288,24.36427 9.87202,9.80042 15.98436,19.36208 20.12169,31.47675 3.11449,9.11968 3.37737,10.84714 3.40604,22.3824 0.0257,10.35109 -0.36998,13.78501 -2.30184,19.97478 -4.56131,14.61465 -11.60903,25.59735 -23.63029,36.82389 -6.067,5.6659 -10.08609,8.32793 -19.80984,13.12099 -6.81265,3.3581 -15.84018,6.92003 -20.44623,8.06733 -9.21378,2.29502 -29.013,3.36791 -38.75244,2.09994 z m 27.2207,-16.4454 c 11.96752,-6.0644 21.12006,-18.27636 27.46187,-36.64153 3.21623,-9.31385 3.28087,-9.8429 3.29897,-27 0.0164,-15.58544 -0.23735,-18.31457 -2.31973,-24.94557 -6.10074,-19.42682 -16.38801,-33.59322 -28.80667,-39.6691 -8.12424,-3.97482 -18.23959,-4.02413 -26.66045,-0.12996 -9.15438,4.23338 -17.54624,13.02022 -23.07669,24.16282 -7.16603,14.43793 -8.91782,22.23032 -9.01075,40.08181 -0.0665,12.78263 0.25998,16.1826 2.20881,23 2.62967,9.1991 8.65513,22.12619 13.10853,28.12318 4.1583,5.5996 13.11989,12.33888 19.39945,14.58874 7.15275,2.56272 17.56271,1.89264 24.39666,-1.57039 z m 572.91203,15.8634 c -10.2435,-2.12121 -16.1181,-4.2401 -26.6328,-9.60614 -11.8471,-6.046 -19.9735,-12.58162 -27.9077,-22.44443 -10.8032,-13.42917 -15.9998,-26.71059 -16.8426,-43.0463 -1.1609,-22.50045 6.9858,-41.75797 24.9685,-59.0221 6.6552,-6.38941 10.5133,-9.10056 19.4701,-13.68205 6.5551,-3.35302 15.2277,-6.81869 20.9909,-8.38823 8.6603,-2.35851 11.6524,-2.67581 25.3208,-2.6851 19.9741,-0.0136 28.5847,1.96291 46,10.55892 11.5136,5.68302 13.2496,6.92519 22,15.74178 5.225,5.26454 11.0096,12.14573 12.8546,15.29152 13.4308,22.89952 14.493,47.95253 3.0174,71.17117 -4.212,8.52229 -8.7931,14.36708 -18.3548,23.418 -6.9004,6.53177 -10.516,9.02157 -19.7328,13.5885 -15.9826,7.91936 -23.7552,9.77002 -42.7844,10.18692 -10.7251,0.23498 -17.6155,-0.0985 -22.3672,-1.08246 z m 34.5517,-16.20188 c 9.9754,-5.42929 19.1951,-17.55168 24.8558,-32.68133 6.6789,-17.85089 6.6789,-43.39255 0,-61.24344 -5.7367,-15.33289 -14.8157,-27.16521 -25.3027,-32.97607 -4.7495,-2.63173 -6.123,-2.90221 -14.7376,-2.90221 -11.4482,0 -16.0412,1.86619 -24.9951,10.15593 -9.016,8.34726 -17.4091,26.14893 -19.9643,42.34407 -3.0377,19.25355 0.1037,37.51247 9.6729,56.2232 6.9877,13.66307 18.2394,22.90004 30.018,24.64289 6.5621,0.97097 14.7401,-0.45369 20.453,-3.56304 z m -789.51776,16.03028 c -0.36667,-0.36666 -0.66667,-1.87514 -0.66667,-3.35217 0,-2.53689 0.37156,-2.74708 6.71434,-3.79811 7.47204,-1.23815 10.81835,-3.24987 13.78566,-8.28758 1.94975,-3.31016 2.00685,-5.4508 2.27269,-85.19997 0.26573,-79.71951 0.22212,-81.9188 -1.71102,-86.28898 -2.32642,-5.25926 -7.18916,-7.93391 -16.39071,-9.01537 -5.64263,-0.66318 -5.67096,-0.68337 -5.67096,-4.04115 v -3.37464 l 36.75,0.26232 36.75,0.26232 0.5,91.5 0.5,91.5 2.26346,4.23654 c 2.66363,4.98556 7.67838,7.91431 15.45351,9.02528 5.04356,0.72067 5.29723,0.90182 5.59639,3.99653 l 0.31336,3.24165 H 398.3013 c -26.34319,0 -48.1967,-0.3 -48.56336,-0.66667 z"
       id="path1839" />
  </g>
</svg>
