<?xml version="1.0" encoding="UTF-8"?>
<svg xmlns="http://www.w3.org/2000/svg" xmlns:xlink="http://www.w3.org/1999/xlink" width="200.757507" height="87.715622" viewBox="0 0 200.757507 87.715622" version="1.1">
<g id="surface1">
<path style=" stroke:none;fill-rule:nonzero;fill:rgb(0%,10.196079%,34.117648%);fill-opacity:1;" d="M 131.0625 1.296875 C 130.792969 1.296875 130.527344 1.363281 130.257812 1.492188 L 123.425781 4.089844 C 122.695312 4.359375 122.160156 4.574219 121.828125 4.742188 C 121.492188 4.90625 121.328125 5.15625 121.328125 5.492188 C 121.328125 5.957031 121.578125 6.261719 122.078125 6.394531 C 122.574219 6.523438 123.144531 6.707031 123.777344 6.941406 C 124.410156 7.175781 124.976562 7.578125 125.476562 8.144531 C 125.980469 8.710938 126.226562 9.660156 126.226562 10.996094 L 126.226562 61.21875 C 126.226562 62.285156 126.109375 63.085938 125.875 63.621094 C 125.644531 64.152344 125.292969 64.554688 124.828125 64.824219 C 124.359375 65.085938 123.824219 65.289062 123.226562 65.421875 C 122.625 65.554688 121.996094 65.71875 121.328125 65.921875 C 120.796875 66.054688 120.363281 66.203125 120.027344 66.371094 C 119.695312 66.535156 119.527344 66.855469 119.527344 67.324219 C 119.527344 67.789062 119.84375 68.070312 120.476562 68.171875 C 121.109375 68.269531 121.59375 68.320312 121.925781 68.320312 C 122.796875 68.320312 123.914062 68.257812 125.28125 68.128906 C 126.652344 68 127.941406 67.9375 129.148438 67.9375 C 130.289062 67.9375 131.394531 68 132.464844 68.128906 C 133.539062 68.257812 134.671875 68.320312 135.875 68.320312 C 136.410156 68.320312 136.925781 68.253906 137.425781 68.121094 C 137.925781 67.988281 138.175781 67.722656 138.175781 67.324219 C 138.175781 66.855469 137.890625 66.574219 137.324219 66.476562 C 136.761719 66.378906 136.074219 66.191406 135.273438 65.925781 C 134.804688 65.792969 134.324219 65.511719 133.820312 65.082031 C 133.324219 64.648438 133.074219 63.867188 133.074219 62.734375 L 133.074219 48.570312 C 133.074219 48.238281 133.308594 48.070312 133.773438 48.070312 C 133.976562 48.070312 134.277344 48.269531 134.675781 48.667969 L 149.777344 62.933594 C 150.511719 63.664062 150.875 64.199219 150.875 64.527344 C 150.875 64.863281 150.691406 65.164062 150.328125 65.425781 C 149.957031 65.695312 149.511719 65.859375 148.976562 65.921875 C 148.109375 66.058594 147.410156 66.210938 146.875 66.375 C 146.34375 66.542969 146.078125 66.855469 146.078125 67.324219 C 146.078125 67.789062 146.308594 68.070312 146.777344 68.167969 C 147.242188 68.265625 148.011719 68.320312 149.078125 68.320312 C 150.273438 68.320312 151.476562 68.257812 152.675781 68.128906 C 153.875 68 155.144531 67.933594 156.476562 67.933594 C 158.011719 67.933594 159.410156 68 160.679688 68.128906 C 161.945312 68.257812 163.113281 68.320312 164.179688 68.320312 C 165.910156 68.320312 166.777344 67.988281 166.777344 67.320312 C 166.777344 66.988281 166.5625 66.722656 166.128906 66.519531 C 165.695312 66.324219 165.113281 66.074219 164.378906 65.773438 C 163.644531 65.472656 162.792969 65.089844 161.828125 64.621094 C 160.859375 64.152344 159.878906 63.457031 158.878906 62.523438 L 141.574219 46.828125 C 141.441406 46.699219 141.273438 46.515625 141.074219 46.28125 C 140.875 46.046875 140.773438 45.765625 140.773438 45.429688 C 140.773438 45.164062 141.640625 44.449219 143.375 43.28125 C 145.105469 42.117188 147.09375 40.867188 149.324219 39.535156 C 151.558594 38.203125 153.726562 36.953125 155.824219 35.785156 C 157.925781 34.621094 159.34375 33.871094 160.078125 33.535156 C 160.410156 33.40625 160.859375 33.253906 161.425781 33.085938 C 161.992188 32.921875 162.542969 32.738281 163.078125 32.539062 C 163.609375 32.339844 164.058594 32.121094 164.425781 31.886719 C 164.792969 31.65625 164.976562 31.40625 164.976562 31.136719 C 164.976562 30.605469 164.777344 30.269531 164.378906 30.136719 C 163.976562 30.007812 163.546875 29.9375 163.078125 29.9375 C 162.078125 29.9375 160.894531 29.972656 159.527344 30.035156 C 158.160156 30.097656 156.839844 30.132812 155.574219 30.132812 C 154.238281 30.132812 152.890625 30.097656 151.523438 30.035156 C 150.160156 29.972656 148.941406 29.9375 147.875 29.9375 C 147.542969 29.9375 147.226562 30.039062 146.925781 30.238281 C 146.625 30.4375 146.476562 30.671875 146.476562 30.9375 C 146.476562 31.339844 146.671875 31.65625 147.074219 31.890625 C 147.476562 32.125 147.910156 32.355469 148.375 32.589844 C 148.84375 32.824219 149.273438 33.125 149.675781 33.492188 C 150.074219 33.859375 150.273438 34.378906 150.273438 35.042969 C 150.273438 35.378906 149.890625 35.859375 149.125 36.492188 C 148.359375 37.125 147.410156 37.84375 146.273438 38.644531 C 145.144531 39.445312 143.894531 40.28125 142.523438 41.148438 C 141.15625 42.015625 139.875 42.796875 138.675781 43.5 C 137.476562 44.199219 136.425781 44.765625 135.523438 45.199219 C 134.625 45.632812 134.109375 45.851562 133.972656 45.851562 C 133.375 45.851562 133.074219 45.316406 133.074219 44.25 L 133.074219 3.097656 C 133.074219 2.363281 132.960938 1.878906 132.722656 1.648438 C 132.488281 1.414062 132.238281 1.292969 131.96875 1.292969 L 131.0625 1.292969 Z M 29.972656 6.121094 C 26.765625 6.121094 23.914062 6.214844 21.410156 6.40625 C 18.90625 6.601562 16.417969 6.699219 13.949219 6.699219 L 4.84375 6.699219 C 4.511719 6.699219 4.128906 6.710938 3.691406 6.746094 C 3.257812 6.777344 2.84375 6.847656 2.445312 6.949219 C 2.046875 7.046875 1.695312 7.21875 1.394531 7.449219 C 1.09375 7.683594 0.945312 8 0.945312 8.398438 C 0.945312 8.933594 1.160156 9.25 1.59375 9.351562 C 2.027344 9.449219 2.8125 9.566406 3.945312 9.699219 C 4.609375 9.765625 5.324219 9.816406 6.09375 9.851562 C 6.859375 9.882812 7.59375 9.953125 8.292969 10.050781 C 8.992188 10.152344 9.578125 10.316406 10.042969 10.554688 C 10.511719 10.785156 10.742188 11.132812 10.742188 11.601562 L 10.742188 58.652344 C 10.742188 60.117188 10.609375 61.25 10.34375 62.050781 C 10.078125 62.851562 9.726562 63.46875 9.292969 63.902344 C 8.859375 64.335938 8.378906 64.636719 7.84375 64.804688 C 7.3125 64.972656 6.777344 65.089844 6.242188 65.15625 C 4.710938 65.421875 3.710938 65.757812 3.242188 66.15625 C 2.777344 66.554688 2.542969 66.957031 2.542969 67.355469 C 2.542969 67.871094 2.777344 68.160156 3.242188 68.222656 C 3.710938 68.289062 4.074219 68.320312 4.34375 68.320312 C 5.542969 68.320312 6.976562 68.257812 8.640625 68.128906 C 10.308594 68 11.878906 67.9375 13.347656 67.9375 L 36.984375 67.9375 C 41.253906 67.9375 45.277344 67.21875 49.050781 65.785156 C 52.824219 64.351562 56.113281 62.402344 58.917969 59.933594 C 61.71875 57.464844 63.9375 54.566406 65.574219 51.230469 C 67.210938 47.898438 68.03125 44.363281 68.03125 40.628906 C 68.03125 34.625 67.027344 29.441406 65.027344 25.074219 C 63.023438 20.707031 60.300781 17.121094 56.863281 14.320312 C 53.421875 11.519531 49.398438 9.453125 44.796875 8.121094 C 40.1875 6.785156 35.246094 6.121094 29.972656 6.121094 Z M 27.757812 9.109375 C 29.832031 9.109375 32.039062 9.359375 34.382812 9.859375 C 36.722656 10.359375 39.035156 11.144531 41.308594 12.210938 C 43.582031 13.277344 45.773438 14.609375 47.882812 16.210938 C 49.988281 17.808594 51.847656 19.710938 53.453125 21.914062 C 55.0625 24.113281 56.332031 26.613281 57.265625 29.414062 C 58.203125 32.214844 58.671875 35.316406 58.671875 38.714844 C 58.671875 42.117188 58.203125 45.136719 57.265625 47.769531 C 56.332031 50.402344 55.09375 52.703125 53.554688 54.671875 C 52.015625 56.640625 50.277344 58.320312 48.335938 59.722656 C 46.394531 61.125 44.453125 62.242188 42.511719 63.074219 C 40.574219 63.90625 38.699219 64.523438 36.890625 64.925781 C 35.085938 65.328125 33.511719 65.527344 32.175781 65.527344 C 30.566406 65.527344 28.996094 65.328125 27.457031 64.925781 C 25.917969 64.523438 24.546875 63.90625 23.339844 63.074219 C 22.136719 62.242188 21.167969 61.191406 20.429688 59.925781 C 19.695312 58.65625 19.328125 57.15625 19.328125 55.421875 L 19.328125 12.308594 C 19.328125 11.976562 19.378906 11.609375 19.476562 11.210938 C 19.578125 10.808594 19.894531 10.460938 20.429688 10.160156 C 20.964844 9.859375 21.804688 9.609375 22.941406 9.40625 C 24.078125 9.207031 25.683594 9.109375 27.757812 9.109375 Z M 184.320312 28.296875 C 181.191406 28.296875 178.492188 28.96875 176.226562 30.300781 C 173.964844 31.636719 172.082031 33.324219 170.582031 35.359375 C 169.085938 37.398438 167.972656 39.667969 167.238281 42.171875 C 166.507812 44.675781 166.140625 47.097656 166.140625 49.433594 C 166.140625 55.710938 167.644531 60.667969 170.660156 64.308594 C 173.671875 67.945312 177.949219 69.765625 183.484375 69.765625 C 186.082031 69.765625 188.300781 69.382812 190.132812 68.613281 C 191.964844 67.84375 193.480469 66.972656 194.683594 66 C 195.882812 65.03125 196.75 64.128906 197.28125 63.292969 C 197.816406 62.460938 198.085938 61.945312 198.085938 61.742188 C 198.085938 61.210938 197.78125 60.945312 197.183594 60.945312 C 196.78125 60.945312 196.414062 61.164062 196.082031 61.597656 C 195.746094 62.03125 195.28125 62.496094 194.683594 62.996094 C 194.082031 63.496094 193.25 63.945312 192.183594 64.347656 C 191.113281 64.746094 189.617188 64.945312 187.683594 64.945312 C 184.613281 64.945312 182.128906 64.464844 180.230469 63.492188 C 178.328125 62.523438 176.863281 61.269531 175.832031 59.730469 C 174.796875 58.195312 174.097656 56.425781 173.730469 54.417969 C 173.363281 52.414062 173.183594 50.34375 173.183594 48.203125 L 173.183594 46.097656 C 173.183594 45.496094 173.246094 45.027344 173.375 44.691406 L 197.707031 44.691406 C 198.570312 44.691406 199.121094 44.542969 199.351562 44.242188 C 199.582031 43.945312 199.703125 43.328125 199.703125 42.394531 C 199.703125 41.328125 199.433594 39.996094 198.902344 38.398438 C 198.367188 36.796875 197.503906 35.246094 196.304688 33.746094 C 195.105469 32.246094 193.523438 30.964844 191.558594 29.898438 C 189.59375 28.832031 187.183594 28.296875 184.320312 28.296875 Z M 73.167969 29.9375 C 72.433594 29.9375 71.832031 29.972656 71.367188 30.039062 C 70.898438 30.105469 70.667969 30.371094 70.667969 30.839844 C 70.667969 31.171875 70.863281 31.425781 71.265625 31.589844 C 71.664062 31.757812 72.46875 32.007812 73.667969 32.339844 C 74.265625 32.472656 74.902344 32.640625 75.566406 32.839844 C 76.234375 33.039062 76.566406 33.507812 76.566406 34.242188 C 76.566406 35.710938 76.550781 37.363281 76.519531 39.195312 C 76.484375 41.027344 76.472656 42.914062 76.472656 44.847656 C 76.472656 46.71875 76.453125 48.585938 76.421875 50.453125 C 76.390625 52.324219 76.375 54.023438 76.375 55.554688 C 76.375 57.691406 76.554688 59.628906 76.925781 61.363281 C 77.292969 63.097656 77.921875 64.597656 78.824219 65.867188 C 79.726562 67.132812 80.960938 68.097656 82.527344 68.765625 C 84.09375 69.433594 86.046875 69.765625 88.378906 69.765625 C 90.382812 69.765625 92.164062 69.453125 93.734375 68.832031 C 95.300781 68.210938 96.667969 67.515625 97.835938 66.75 C 99 65.984375 99.953125 65.300781 100.683594 64.699219 C 101.417969 64.101562 101.984375 63.796875 102.386719 63.796875 C 102.855469 63.796875 103.085938 64.199219 103.085938 64.996094 L 103.085938 67.296875 C 103.085938 67.765625 103.117188 68.148438 103.183594 68.449219 C 103.246094 68.75 103.472656 68.898438 103.859375 68.898438 C 104.332031 68.898438 105.578125 68.703125 107.597656 68.308594 C 109.617188 67.914062 112.394531 67.453125 115.929688 66.925781 C 116.660156 66.792969 117.179688 66.664062 117.480469 66.53125 C 117.777344 66.398438 117.929688 66.136719 117.929688 65.742188 C 117.929688 65.214844 117.542969 64.917969 116.777344 64.855469 C 116.011719 64.785156 114.660156 64.753906 112.726562 64.753906 C 112.261719 64.753906 111.707031 64.621094 111.078125 64.355469 C 110.441406 64.085938 110.128906 63.421875 110.128906 62.351562 C 110.128906 57.28125 110.191406 52.230469 110.320312 47.199219 C 110.449219 42.160156 110.515625 37.109375 110.515625 32.039062 C 110.515625 31.105469 110.246094 30.523438 109.707031 30.289062 C 109.171875 30.054688 108.738281 29.9375 108.40625 29.9375 C 107.398438 29.9375 106.410156 29.972656 105.441406 30.035156 C 104.46875 30.097656 103.480469 30.132812 102.480469 30.132812 C 101.613281 30.132812 100.761719 30.097656 99.929688 30.035156 C 99.09375 29.972656 98.246094 29.9375 97.382812 29.9375 C 96.847656 29.9375 96.347656 29.988281 95.878906 30.089844 C 95.414062 30.191406 95.179688 30.40625 95.179688 30.738281 C 95.179688 31.136719 95.5625 31.472656 96.328125 31.738281 C 97.097656 32.003906 97.679688 32.207031 98.078125 32.339844 C 99.28125 32.671875 100.214844 32.921875 100.878906 33.089844 C 101.546875 33.257812 102.0625 33.40625 102.429688 33.539062 C 102.796875 33.671875 103.03125 33.839844 103.132812 34.042969 C 103.230469 34.238281 103.28125 34.472656 103.28125 34.742188 C 103.28125 38.339844 103.246094 41.90625 103.183594 45.441406 C 103.117188 48.972656 103.085938 52.539062 103.085938 56.144531 C 103.085938 57.144531 102.96875 58.179688 102.738281 59.246094 C 102.503906 60.3125 101.988281 61.261719 101.191406 62.097656 C 100.390625 62.929688 99.207031 63.609375 97.644531 64.144531 C 96.082031 64.679688 93.902344 64.949219 91.109375 64.949219 C 88.644531 64.949219 86.714844 64.394531 85.316406 63.296875 C 83.917969 62.195312 83.222656 60.613281 83.222656 58.546875 C 83.222656 54.078125 83.253906 49.628906 83.320312 45.195312 C 83.382812 40.757812 83.414062 36.308594 83.414062 31.839844 C 83.414062 31.109375 83.328125 30.609375 83.164062 30.339844 C 82.992188 30.074219 82.574219 29.9375 81.902344 29.9375 C 81.164062 29.9375 80.425781 29.972656 79.6875 30.035156 C 78.949219 30.101562 78.210938 30.132812 77.472656 30.132812 C 76.734375 30.132812 76.015625 30.101562 75.316406 30.035156 C 74.617188 29.972656 73.898438 29.9375 73.167969 29.9375 Z M 185.742188 30.707031 C 187.875 30.707031 189.640625 31.292969 191.042969 32.457031 C 192.441406 33.625 193.144531 35.074219 193.144531 36.804688 C 193.144531 37.742188 193.027344 38.503906 192.792969 39.105469 C 192.558594 39.707031 192.078125 40.203125 191.34375 40.601562 C 190.609375 41.003906 189.574219 41.289062 188.242188 41.453125 C 186.910156 41.621094 185.140625 41.703125 182.941406 41.703125 C 180.808594 41.703125 179.15625 41.6875 177.992188 41.652344 C 176.824219 41.621094 175.957031 41.570312 175.390625 41.503906 C 174.824219 41.4375 174.488281 41.355469 174.390625 41.253906 C 174.292969 41.15625 174.242188 41.003906 174.242188 40.804688 C 174.242188 40.003906 174.507812 39.039062 175.042969 37.90625 C 175.574219 36.773438 176.324219 35.671875 177.292969 34.605469 C 178.257812 33.542969 179.460938 32.625 180.894531 31.859375 C 182.324219 31.09375 183.941406 30.707031 185.742188 30.707031 Z M 134.484375 75.78125 C 132.476562 75.78125 130.894531 76.933594 130.894531 78.816406 C 130.894531 80.761719 131.996094 81.335938 134.296875 82.019531 C 136.117188 82.5625 136.753906 82.984375 136.753906 83.824219 C 136.753906 84.882812 136.023438 85.410156 134.5 85.410156 C 133.472656 85.410156 132.398438 84.914062 131.667969 84.117188 L 130.503906 85.253906 C 131.417969 86.328125 132.789062 87.011719 134.375 87.011719 C 137.160156 87.011719 138.402344 85.671875 138.402344 83.714844 C 138.402344 81.769531 137.066406 81.085938 134.917969 80.433594 C 133.035156 79.875 132.539062 79.5 132.539062 78.738281 C 132.539062 78.007812 133.082031 77.382812 134.359375 77.382812 C 135.433594 77.382812 136.207031 77.726562 136.894531 78.425781 L 138.046875 77.257812 C 137.082031 76.328125 135.957031 75.78125 134.484375 75.78125 Z M 7.984375 75.953125 L 7.984375 82.269531 C 7.984375 85.269531 9.382812 87.011719 12.074219 87.011719 C 14.777344 87.011719 16.257812 85.347656 16.257812 82.300781 L 16.257812 75.953125 L 14.621094 75.953125 L 14.621094 82.332031 C 14.621094 84.320312 13.8125 85.375 12.105469 85.375 C 10.46875 85.375 9.617188 84.273438 9.617188 82.21875 L 9.617188 75.953125 Z M 51.960938 75.953125 L 51.960938 86.839844 L 53.59375 86.839844 L 53.59375 75.953125 Z M 151.800781 75.953125 L 151.800781 86.839844 L 153.433594 86.839844 L 153.433594 75.953125 Z M 186.773438 75.953125 L 190.679688 82.53125 L 190.679688 86.839844 L 192.3125 86.839844 L 192.3125 82.53125 L 196.214844 75.953125 L 194.332031 75.953125 L 192.621094 78.96875 C 192.234375 79.671875 191.691406 80.714844 191.503906 81.117188 C 191.316406 80.714844 190.757812 79.625 190.382812 78.957031 L 188.6875 75.953125 Z M 29.898438 75.953125 L 29.898438 86.839844 L 31.484375 86.839844 L 31.484375 81.195312 C 31.484375 80.589844 31.46875 79.078125 31.46875 78.675781 C 31.640625 78.957031 32.015625 79.609375 32.277344 80.011719 L 36.617188 86.839844 L 38.171875 86.839844 L 38.171875 75.953125 L 36.585938 75.953125 L 36.585938 81.566406 C 36.585938 82.175781 36.601562 83.730469 36.601562 84.132812 C 36.445312 83.855469 35.980469 83.046875 35.699219 82.59375 L 31.5625 75.953125 Z M 66.710938 75.953125 L 70.488281 86.839844 L 72.214844 86.839844 L 75.945312 75.953125 L 74.207031 75.953125 L 71.964844 82.875 C 71.761719 83.511719 71.449219 84.492188 71.359375 84.882812 C 71.265625 84.492188 70.953125 83.527344 70.753906 82.890625 L 68.480469 75.953125 Z M 88.976562 75.953125 L 88.976562 86.839844 L 96.226562 86.839844 L 96.226562 85.253906 L 90.613281 85.253906 L 90.613281 81.816406 L 93.738281 81.816406 L 93.738281 80.230469 L 90.613281 80.230469 L 90.613281 77.539062 L 95.992188 77.539062 L 95.992188 75.953125 Z M 109.429688 75.953125 L 109.429688 86.839844 L 111.03125 86.839844 L 111.03125 82.53125 L 113.488281 82.53125 L 115.648438 86.839844 L 117.53125 86.839844 L 115.308594 82.390625 C 116.785156 82.019531 117.703125 80.945312 117.703125 79.203125 C 117.703125 76.964844 116.101562 75.953125 114.203125 75.953125 Z M 166.550781 75.953125 L 166.550781 77.554688 L 169.722656 77.554688 L 169.722656 86.839844 L 171.355469 86.839844 L 171.355469 77.554688 L 174.527344 77.554688 L 174.527344 75.953125 Z M 111.03125 77.492188 L 114.203125 77.492188 C 115.308594 77.492188 116.054688 78.117188 116.054688 79.25 C 116.054688 80.433594 115.292969 80.992188 114.203125 80.992188 L 111.03125 80.992188 Z M 111.03125 77.492188 "/>
</g>
</svg>
