<svg xmlns="http://www.w3.org/2000/svg" width="360" height="170" viewBox="0 0 360 170"><defs><style>.cls-1{fill:#01427f;}</style></defs><g id="Layer_2" data-name="Layer 2"><g id="Layer_1-2" data-name="Layer 1"><polygon class="cls-1" points="0 0 119.95 0 119.95 50.77 87.27 50.77 87.27 32.77 50.88 32.77 50.88 68.57 85.12 68.57 85.12 101.83 51.08 101.83 51.08 136.85 67.9 136.85 67.9 170 0 170 0 136.66 18.01 136.66 18.01 32.96 0 32.96 0 0"/><path class="cls-1" d="M248.18,28.38,219.79,0H128.23V33.29h18V137.64h-18v32.2h92.44l27.51-27.51V96.16L231.53,85l16.65-10.49ZM211.71,137.64H176.23V102.16h35.48Zm0-68.87H176.23V33.29h35.48Z"/><rect class="cls-1" x="257.88" width="33.39" height="27.86"/><rect class="cls-1" x="326.61" width="33.39" height="27.86"/><polygon class="cls-1" points="257.88 38.77 291.27 38.77 291.27 137.64 326.61 137.64 326.61 38.77 360 38.77 360 142.59 332.8 169.79 285.27 169.79 258.24 142.76 257.88 38.77"/></g></g></svg>