<?xml version="1.0" encoding="utf-8"?>
<svg xmlns="http://www.w3.org/2000/svg" xmlns:xlink="http://www.w3.org/1999/xlink" width="126pt" height="126pt" viewBox="0 0 146 146" version="1.1">
<style type="text/css">
	.st0{fill-rule:evenodd;clip-rule:evenodd;fill:#C30D23;}
</style>
<g>
	<path class="st0" d="M74.5,50.8c0,0.3,0,0.6,0,0.9v9.8V76v10.7v4.5h8.9v-2.8c10.4-0.5,18.8-9.1,18.8-19.6c0-9.6-7-17.7-16.1-19.3
		l0,9.1c4.2,1.4,7.3,5.5,7.3,10.2c0,5.6-4.4,10.3-9.9,10.7V58v-6.3c0-1,0.2-1.8,0.6-2.5c1.3-2.3,4.1-2.8,5.3-2.8v-8.9
		C82.2,37.5,75,42.4,74.5,50.8z M71.5,50.8c0,0.3,0,0.6,0,0.9v9.8V76v10.7v4.5h-8.9v-2.8c-10.4-0.5-18.8-9.1-18.8-19.6
		c0-9.6,7-17.7,16.1-19.3l0,9.1c-4.2,1.4-7.3,5.5-7.3,10.2c0,5.6,4.4,10.3,9.9,10.7V58v-6.3c0-1-0.2-1.8-0.6-2.5
		c-1.3-2.3-4.1-2.8-5.3-2.8v-8.9C63.8,37.5,71,42.4,71.5,50.8z M98.7,95v0.2c-2.2,0.5-2.2,4.3,0,4.8v0.2H76.1
		c-0.8,0-1.7-1.3-1.7-2.7c0-1.3,0.9-2.5,1.7-2.5H98.7z M47.3,95v0.2c2.2,0.5,2.2,4.3,0,4.8v0.2h22.6c0.8,0,1.7-1.3,1.7-2.7
		c0-1.3-0.9-2.5-1.7-2.5H47.3z M44.2,104.1h57.3v5H44.2V104.1z M110.7,129.1l0.2,0l0.1,0l0.1-0.7l0.1-0.7l0-0.7l0.1-0.7l0-0.7v-0.7
		l-0.1-0.7l-0.1-0.7l0.8-0.9h0.1l0.2,0l0.2,0.1l0.1,0.3l-0.1,0.1l-0.1,0.1l-0.2,0.3l-0.1,0.1l0,0.2l0.1,0.1h0.2l0.2-0.1l0.1-0.1
		l0.2-0.2l0.1-0.2l0.2-0.1l0.4-0.3l0.1-0.2l0.1-0.2v-0.2l-0.1-0.2l-0.1,0l-0.1-0.1l-0.3-0.1l-0.2-0.1l-0.3,0l-0.1,0l-0.3,0.1
		l-1.3,0.5l-0.1-0.1l2.3-2l1.3-0.9v-0.2l-0.1-0.1v-0.1l-0.1-0.3l-0.1-0.3l-0.1,0h-0.1l-0.1,0l-0.1,0l-0.2,0.1l-0.2-0.1l0.8-1.1
		l1.5-2.2l0.2-0.1l0.2-0.2l0.1-0.2l0.2-0.1l0.3-0.3l0-0.3l0.1-0.2v-0.2l0.1-0.3V113l0-0.2h-0.3l-0.2-0.1l-0.2-0.1l-0.1-0.1l-0.2,0
		l-0.2-0.1l-0.2,0l-1.6,0.9l-0.1,0.1l-0.1,0.2l-1.1,0.9l-0.3,0.2l-0.3,0h-0.3l-0.2-0.1l-0.3-0.1l-0.2-0.1l-0.2-0.1l-0.1-0.1l0.7-1.3
		l0.2-0.1l0.2-0.2l0.1-0.3l0.2-0.3l0.1-0.2l0.1-0.3l0.2-0.2l0.3-0.2l0.1-0.1l0.1-0.1l0.1-0.3l0-0.2l-0.1-0.2L113,110l-0.2-0.1
		l-0.1-0.2l-0.1-0.2l-0.1-0.2l-0.3,0l-0.2-0.1h-0.1l-0.1,0l-0.2,0.3l0,0.3l0,0.2v0.3l0.1,0.2l-0.1,0.2v0.2l0,0.3l0,0.2l-1.4,2.4
		L110,114l-0.1,0.2l-0.2,0.1l-0.1,0l-0.2,0.1h-0.2l-0.2,0.1l-0.2,0l-0.3,0.1l-0.1,0.1v0.1l0,0.2l0.2,0.1h0.2l0.3-0.1l0.2,0l-0.1,0.2
		l0,0.2l-0.1,0.2l-0.1,0.1l-0.1,0h-0.1l-0.2-0.2l-0.1-0.2l-0.1-0.1l-0.1-0.2L108,115l0-0.2v-0.1l0-0.2l-0.1-0.1l0-0.1l-0.1-0.1
		l-0.2-0.2l-0.2-0.2l-0.2-0.1l-0.3-0.1l-0.4,0l-0.1,0.2v0.1l0.1,0.2l0.2,0.2l0.1,0.2l0.1,0.2l0,0.2l1,1.7l0.5,1.3l-0.1,0.1l-0.2,0.1
		h-0.1l-1.1-1.2h-0.2l-0.2,0l-0.1,0h-0.1l-0.1,0.1l0.2,0.3l0.2,0.3l0.2,0.3l0.2,0.3l0.2,0.4l0.1,0.3l0.1,0.4l0.1,0.3l0.1,0l0.1,0
		l0.1-0.1l0.2-0.1l0-0.1l0-0.2v-0.2l0.1-0.2l0.2-0.2l0.3-0.2l0.2-0.2l0.3-0.2l0.2-0.1l0.3-0.2l0.3-0.1l0.3-0.1l0.1,0.1l0.1,0.3
		l-0.1,0.2l-0.2,0.2l-0.1,0.3l-0.1,0.2l-0.1,0.2l0,0.2l0.3,0.1l1.1-1.4h0.2l0.2,0l0.2,0l0.2,0l-0.6,1l0.2,0.1l0.1-0.1l1.3-1.4l0-0.2
		l0.1-0.2l0.1-0.2l0.1-0.2l0-0.1l0-0.2l-0.1-0.2l-0.1-0.2h-0.1l-0.1-0.1v-0.2l0.8-0.6l0.3-0.1l0.2-0.1l0.2-0.2l0.2-0.1l0.1,0
		l0.2-0.1l0.2,0h0.3l0,0.1l0.1,0.1l-0.5,1.1l-0.3,0.4l-0.3,0.4l-0.3,0.5l-0.2,0.4l-0.3,0.5l-0.3,0.4l-0.3,0.4l-0.3,0.3l-4.1,2
		l-0.1,0.3l0,0.2l0.1,0l4-1.6v0.2l-0.1,0.2l-1,1.4l-0.1,0.1l-0.1,0l-0.9,1l0,0.2v0.2l0,0.2v0.1l-0.2,0.1l-0.3,0.2l-0.2,0.2l-0.2,0.2
		l-0.1,0.2l-0.2,0.1l-0.2,0.1l-0.1,0.1l-0.2,0.2l-0.1,0.1l-0.2,0l-0.2,0l-0.1,0.1l-0.1,0.1l-2.3,0.7l-0.1,0.3l0.2,0.1l0.2,0.1l0.1,0
		h0.1l0.1,0l0.2,0.1h0.3l0.2,0l0.2-0.1l0.2-0.1l0.2-0.1l0.2-0.1l0.2-0.1l0.3-0.1l0.4-0.2l0.3-0.2l0.4-0.2l0.3-0.2l0.3-0.2l0.3-0.1
		l0.3-0.2l0,0.4l0,0.4v0.5v0.4l0,0.4v0.4l0,0.4v0.4l-0.3,0.3l-0.3,0.1l-0.3,0l-0.3,0H109h-0.3l-0.3,0l-0.2,0.1v0.2v0.1l0.3,0.1h0.2
		h0.2l0.2,0l0.2,0L110.7,129.1L110.7,129.1z M32.7,128.3l1.8-3.4l1.3-2.2l1-1.8c0.1,0,0.1,0,0.1,0c0-0.1,0-0.1,0.1-0.2
		c0-0.1,0.1-0.2,0.1-0.2c0.1-0.1,0.2-0.1,0.2-0.1c0.1,0.1,0.1,0.1,0.1,0.1c0.1,0,0.1,0,0.1,0.1c0.1,0.1,0.2,0.2,0.3,0.2
		c0.1,0.1,0.1,0.2,0.2,0.2l0.2,0.1c0.3,0.1,0.4,0.1,0.6,0c0.5-0.3,1.1-0.7,1.6-1l-0.3,0.4c-0.1,0.1-0.2,0.3-0.3,0.4
		c-0.1,0.1-0.1,0.3-0.3,0.4c0,0.1-0.1,0.3-0.2,0.4c0,0.1-0.1,0.3-0.1,0.5c0,0.3,0,0.6,0,0.9l0.1,0.5c0,0,0,0.1,0,0.1
		c0,0,0,0.1,0,0.2l0.1,0.2l0.2,0.2l0.3,0.1v0.2v0.2l-0.1,0.1l-0.1,0.1l-2.4,1.5l-0.1,0.3l0.1,0.2l0.2,0.2l0.1,0.1l0.1,0.1H38l0.1,0
		l0.3-0.3l0.4-0.2l0.3-0.2l0.3-0.3l0.3-0.2l0.3-0.3l0.3-0.3l0.3-0.3l-1.1,0.6l-0.1,0.1l-0.3,0.2l-0.3,0.1l-0.1,0l-0.3,0l0-0.2
		l0.1-0.2l1.1-0.7l0.2-0.1l0.8-0.6l1.9-1.4l-0.2-0.1l-0.1-0.1l-0.1-0.5l0.1-0.3l0.2-0.2l0.3-0.2l0.3-0.2l0.3-0.1l0.3-0.2l0.1-0.3
		l-0.2-0.1l-0.2-0.1v-0.3l1.2-0.5l0.1,0.2l-1.6,3.5l1.6-1.8l0.1-0.1l0.1-0.2l0.1-0.2l0.1-0.2l0.1-0.2l0.1-0.2l0.1-0.1l0.3-0.2
		l0.1-0.2l-0.1-0.1l-0.1-0.2l-0.1-0.2l-0.1-0.1l-2.3,0.4l0-0.1v-0.1v-0.1v-0.2l-0.2-0.3l-0.1-0.1l-0.1-0.1l0.1-0.1l1.1-0.4l0.2-0.1
		l0.2-0.1l0.2,0l0.3-0.1l2.1-1l-0.1,0l-0.1-0.1l-0.1-0.1l-0.1,0l-1.9,0.6l-0.9,0.3l0.6-1.3l0.9-1.2l0.2,0l0.2-0.1l0.2-0.2l-0.1-0.2
		l-0.3-0.2l-0.1-0.1l-0.2,0l-0.1-0.1l-0.2-0.1l-0.6,1.3l-0.3,0.2l-0.3,0.1L43,116l-0.3,0.1l-0.3,0.1l-0.3,0.1l-0.3,0.1h-0.3
		l-0.1-0.2l0.1-0.2l0.1-0.2v-0.2l-0.2-0.1l-0.2,0l-0.1-0.1l-0.2,0.2v1l0,0.3l-2,1.2h-0.2l-0.1,0l0.5-0.7l0.5-0.7l0.4-0.7l0.5-0.7
		l0.5-0.6l0.6-0.6l0.6-0.5l0.8-0.3l0.1-0.1l0.1-0.1l0.1-0.1l0.1-0.1l-0.1-0.1l0-0.1l0-0.2v-0.1v-0.1l-0.1,0l-0.1-0.1l-0.1,0l-0.2,0
		l-0.6,0.2l-0.5,0.2l-0.5,0.2l-0.4,0.1l-0.5,0.2l-0.5,0.1l-0.5,0.1h-0.5l-1.9,0.5v0.3l0.1,0.1h0.1l0.1,0h0.2l0.1,0.2l0.2,0l0.2,0
		l0.2,0.1l0.2,0h0.2l0.5-0.3l0.4-0.2l0.4-0.3l0.4-0.2l0.3-0.2l0.4-0.2l0.4-0.1l0.4-0.1v0.1v0.1l-2.6,3.2l-0.3,0.4l-0.2,0.4l-0.3,0.4
		l-0.3,0.4l-0.3,0.4l-0.3,0.4l-0.3,0.3l-0.4,0.2l0.1,0.1l0,0.1c0,0.4-0.2,0.7-0.4,1c-0.1,0.1-0.1,0.2-0.1,0.2
		c-0.1,0.1-0.1,0.1-0.2,0.2c-0.1,0.1-0.1,0.1-0.2,0.1l-0.6,0.8l-0.5,0.8l-0.5,0.8l-0.5,0.7l-0.5,0.8l-0.5,0.7l-0.5,0.7l-0.5,0.7
		l-0.1,0.2v0.3l0.1,0.2l0.1,0.2l0.1,0.2l0.2,0l0.1,0H32.7z M77.7,128.1l0.2-0.1l0.2-0.2l0.2-0.3l0.2-0.3l0.1-0.2l0.1-0.3l0.2-0.3
		l0.3-0.2l1-0.8l0.3,0l0.2,0.1l0.2,0.1l0.2,0.1l0.3,0l0.2,0.1l0.2,0l0.1,0.2l0.1,0.1l0.3,0l0.1-3.5l0.2-0.1l0.2-0.1l0.2,0l0.2-0.1
		v-0.2l-0.1-0.1l-0.1-0.2l0-0.1l0.3-0.1v-0.2l0-0.2l-0.1-0.1l-0.1-0.1l-0.2-0.1l0-0.1l0.1-0.2l0.2-0.1l0.2-0.1l0.2-0.1l0.1-0.3
		l-0.2-0.1l-0.1-0.1v-0.1v-0.2l0.2-0.2l0.1-0.1c0-0.1,0.3-0.3,0.9-1.2l-0.2,0l-0.3-0.1l-0.1,0l-0.2,0h-0.2l-0.1,0H83l-1.6,1.1h-0.1
		l-0.1-0.2v-0.2v-0.1l0-0.2l2.7-1.4l0.3-0.2l0.4-0.1l0.4-0.1l0.4,0l0.4,0.1l0.4,0l0.4,0.1l0.4,0.1l-0.7-1l-1.7,0.4l-0.1-0.1l0.1-0.6
		l0.1-0.6l0.1-0.6l0.2-0.6l0.1-0.6l0.2-0.6l0.1-0.6v-0.7l-0.3,0l-0.2,0l-0.3,0.1h-0.2l-0.1,0.2v0.1v0.1l0,0.3l0.1,0.2l0.1,0.1
		l-0.7,4.3l-1.7,0.8l-0.1-0.3v-0.2l0-0.3v-0.2l0-0.2l0.1-0.1l0.1-0.2h0.1h0.1l0.2,0l1-2l-0.5,0.6l-0.2,0.1H83l-0.2-0.2l-0.1,0
		l-0.1,0.2v0.1v0.2l0.1,0.1l-0.1,0.2l-0.1,0.3l-0.3,0.2l-0.2-0.2l0-0.3v-0.3l0.1-0.4l0-0.3l0.1-0.3l-0.1-0.3l-0.1-0.3l-0.1-0.1
		l-0.3-0.2l-0.1-0.1l-0.1,0l-0.2-0.1l-0.1,1l0,1.4L81,115l-0.2,0.2l-0.3,0.1l-0.3,0.1l-0.1,0l-0.2,0l-0.1,0l-0.2-0.1l-0.1-0.2
		l-0.2,0.1l0,0.3l0.1,0.1l0,0.2l0.1,0.3l0.2,0.2h0.2h0.1l0.2-0.1l0.2-0.1l0.2-0.1l0.3-0.3h0.2l0,0.2v0.1l0,0.3v0.2l0.1,0l0.2,0.1
		l0.1,0.1l0.1,0.1l-2.2,1.1l-0.3,0.1l-0.3,0.1l-0.3,0.1l-0.3,0l-0.3,0.1H78h-0.3h-0.3l-0.3,0.1H77h-0.2h-0.2h-0.2h-0.2h-0.2
		l-0.1,0.2l0,0.2l0.2,0.1l0.2,0.2l0.2,0.1l0.3,0.1l0.2,0.1l0.3,0.1h0.2h0.3l0.3-0.1l1.3-0.9l1.1-0.4v0.1l0,0.1l0,0.2l-0.1,0.3v0.1
		l-0.1,0.3l0.4,0.1l0.3,0l0.3-0.2l0.3-0.2l0.2-0.2l0.3-0.3l0.2-0.3l0.3-0.2h0.2c0.1,0.1,0.2,0.2,0.3,0.3v0.4l0,0.2l-0.1,0.2
		l-0.1,0.1l-0.2,0.2l-0.2,0.1l-0.2,0.1l-0.2,0.1l-0.3,0.3l-0.3,0.2l-0.3,0.1l-0.3,0.1l-0.3,0.2l-0.3,0.2l-0.2,0.2l-0.1,0.2l0.2-0.1
		l0.2-0.1l0.1,0h0.1h0.2h0.2v0.2l0,0.2l-0.1,0.1l-0.1,0.1l-0.1,0.2v0.2l-1.1,0.9v0.2v0.2l0.1,0.1l0.1,0H80l0.1,0l0.2,0l0.2-0.1
		l0.2-0.1l0.1-0.1l0-0.1l0.4-0.1v0.3l0,0.2l-0.1,0.2l-0.1,0.2l-0.1,0.3l-0.1,0.1l-0.1,0.1l-1.2,0.9l-0.3,0.2l-0.3,0.1l-0.3,0.2
		l-0.3,0.2l-0.3,0.2l-0.3,0.2l-0.3,0.2l-0.3,0.1l-0.1,0.2v0.1v0.2v0.3l0.2,0.2L77.7,128.1z M49.7,126.8l0.2,0l0.2-0.1l0.2-0.1
		l0.1-0.3l0.3-0.3l0.3-0.3l0.3-0.3l0.3-0.3l0.3-0.3l0.2-0.3l0.2-0.3L52,124l-0.2,0.3l-0.1,0.2l-0.2,0.2l-0.2,0.2l-0.2,0.2l-0.2,0.1
		l-0.2,0.1l-0.2,0.1l-0.2,0.1l-0.2,0.1l-0.2,0.1l-0.2,0l-0.2,0.1h-0.2l-0.3-0.1l-0.1-0.1l-0.1,0.3v0.1l0.1,0.1l0.2,0.1l0.1,0.2
		l0.2,0.2l0.1,0H49.7L49.7,126.8z M102.3,126.6l0.2-0.1l0.1-0.1l0-0.3v-0.3l-0.1-0.4l-0.2-0.3l-0.2-0.4l-0.2-0.3l-0.2-0.4l-0.1-0.4
		h-0.2h-0.2l0.1,2.6l0.3,0.1l0.2,0.1l0.1,0.1L102.3,126.6L102.3,126.6z M55.8,126.3h0.1l0.1-0.1l0.1-0.7l-0.1-0.7l-0.1-0.7l-0.1-0.8
		l-0.1-0.7l0-0.7l0-0.7l0.1-0.7l0.6-0.6l0.1-0.3l0.1-0.3v-0.2v-0.1l0-0.1v-0.2h-0.2v0.1l0.1,0.2l-0.1,0.1l-0.2,0.2l0,0.1l-0.2,0.2
		l-0.2,0.1l0-1.3l0.9-0.9l1.1-0.9l1.2-1.1l-0.1-0.2l0-0.3l-0.2-0.2l-0.1-0.1l-0.4,0h-0.3l-0.3,0.2l-0.3,0.1l-0.3,0.2l-0.2,0.2
		l-0.3,0.2l-0.3,0.1l-0.1,0v-0.1v-0.2v-0.1l0.1-0.2l1.7-1.4l0.2,0l0.2,0l0.2,0l0.2,0l0.1-0.1l-0.1,0l-0.2-0.1l-0.1-0.1l-1.8,0.7
		l-0.2-0.1l0.1-0.1v-0.1l0-0.2v-0.2l0-0.3l0.1-0.3l0.1-0.2l0.1-0.3v-0.3l0-0.3v-0.2l0-0.3l-1.1-0.8l-0.2,0l0.1,0.6l0.1,0.5l0,0.5
		l0.1,0.5v0.6v0.5l-0.1,0.6l0,0.5l-2.6,1.1l-1.5,0.6l0,0.1l0.1,0.1l0.1,0.1l0.1,0l0.1,0h0.2l0.3,0l0.3,0l0.3,0l0.3-0.1l0.3-0.1
		l0.1-0.1l0.2-0.1l0.2-0.2l0.2-0.2l1-0.7l0.1,0.2v0.2l0,0.2l0,0.1l-1.1,0.9l1-0.3l0.1,0.2l0,0.3l-0.1,0.2l-0.2,0.1l-0.7,0.7
		l-0.2,0.1l-0.1,0.1l-0.2,0.1l-0.1,0.2l-0.2,0.1l-0.1,0.1l-0.1,0.1h-0.1l-0.1-0.1l0.1-0.1l0-0.2l0-0.2l-0.1,0.2l0,0.1l-0.1,0.1
		l-0.2,0.3l-0.1,0.2l-0.1,0.3l-0.1,0.1l-0.1,0.2l0,0.2l0,0.2l0.1,0.2l0.2,0.1h0.1l0.4-0.3l0.3-0.4l0.2-0.3l0.3-0.4l0.2-0.3l0.3-0.4
		l0.3-0.3l0.4-0.3l0.2,0l0.1,0.3l0.1,0.2l-0.1,0.2v0.2l-0.2,0.1l-0.1,0.1v0.1l0,0.1l0.4,0.1l-0.2,1.7l-0.1,0l-0.1,0.1l-0.2,0.1
		l-0.1,0.1l-0.2,0.1v0.1l0.1,0.1l0.1,0.1l0.2,0.1l0.1,0l0,3.6l-0.1,0.1l-0.2,0h-0.1h-0.2l-0.2,0h-0.2h-0.1h-0.2h-0.2l0,0.1l0.3,0.1
		l0.4,0.1l0.3,0.2l0.4,0.1l0.3,0.2l0.3,0.2l0.3,0.2L55.8,126.3L55.8,126.3z M92.2,126.1l1-0.3l0.1-0.1l0.1,0l0.2,0l1.2-0.7l0.3,0
		l0.3-0.1l0.2-0.1l0.2-0.2l0.2-0.2l0.2-0.2l0.1-0.2l0.2-0.2l0.7-1.5l0.6-1.8l0.1-0.1l0.2-0.1l0.2-0.1l0.2,0l0.1-0.1l0.1-0.1l0.2,0
		l0.2,0l3.3-1.5l-0.1-0.1l-0.3-0.1l-0.1-0.1l-0.3-0.1l-0.2-0.1l-0.4,0.4l-0.4,0.3l-0.4,0.3l-0.4,0.3l-0.5,0.2l-0.4,0.2l-0.5,0.1
		l-0.5,0.1l-0.2-0.1l0.8-4.5c0-0.2,0-0.3,0-0.4c-0.1-0.3-0.1-0.4-0.3-0.7l-0.2-0.3l-0.3-0.3l-0.4-0.3l-0.3-0.3l-0.3-0.3H97l-0.1-0.1
		c-0.1,0.1-0.1,0-0.2,0l0.2,0.4l0.2,0.4l0.1,0.3l0.1,0.3c0,0.2,0,0.4,0.1,0.7c0.1,0.6,0.3,0.6,0.2,1.3v0.6v0.6l0.1,0.6l-0.1,0.6
		l-0.1,0.6l-0.2,0.6l-0.3,0.5l-2,0.4l-1.7,0.6l-0.6,0.1l-0.5,0.2l-0.6,0.2l-0.5,0.2l-0.6,0.3l-0.6,0.2l-0.6,0.2l-0.6,0.1l1.3,0.9
		l0.1,0.1h0.2l0.3,0l0.3-0.1l0.2-0.2l1.2-0.6l0.6-0.2l0.5-0.2l0.6-0.3l0.6-0.3l0.5-0.2l0.5-0.3l0.6-0.1l0.5-0.1l0,0.2l0.1,0.2
		l-0.2,0.6l-0.2,0.6l-0.3,0.6l-0.3,0.4l-0.4,0.5l-0.4,0.4l-0.5,0.4l-0.5,0.3l-0.3,0.2l-0.3,0.1l-0.3,0.1l-0.3,0.1l-0.3,0.2l-0.3,0.1
		l-0.2,0.1l-0.1,0.2H92.2z M44.9,125.9l0.2-0.1l0.1-0.1l0.1-0.1l0.2-0.1l-0.1-0.1l0-0.1l-0.2-0.3l-0.2-0.2l-0.2-0.1l-0.3-0.2
		l-0.3-0.1l-0.3-0.1l-0.3-0.1l-0.2-0.1l-0.2,0.1l0.1,0.3l0.2,0.1l0.1,0.2l0.1,0.2l0,0.2l0.1,0.2v0.2l0.1,0.2l0,0.1l0.1,0.1h0.1H44.9
		z M85.3,125.5l0.2-0.1l0.1-0.1l0.1-0.2l0-0.1v-0.2v-0.2l-0.2-0.2l-0.1-0.2l-0.2-0.1l-0.2-0.1l-0.3-0.1l-0.2,0l-0.2,0l-0.2,0l-0.2,0
		H84l-0.2,0l-0.1,0.3l0.2,0.1l0.3,0.1l0.2,0.1l0.3,0.1l0.1,0.2l0.2,0.2l0.2,0.2L85.3,125.5L85.3,125.5z M81.1,125.3l0.2,0l0.2-0.1
		l-0.1-0.2v-0.1l0-0.2v-0.1l-0.2,0.1l-0.1,0.2l-0.2,0.1l-0.1,0.2l0.1,0.1L81.1,125.3L81.1,125.3z M64.5,125.1h0.1l0.2,0L65,125
		l0.2-0.1l0.2-0.1l0.1-0.1l0.1-0.1l0.2-0.1l0.1,0c0.1,0,0.2,0,0.4,0c0.1,0,0.1-0.1,0.2-0.1l0.3,0l0.3-0.1c0.1,0,0.1-0.1,0.2-0.1
		l0.2-0.1c0.1-0.1,0.2-0.1,0.3-0.1l0.2-0.1h0.1l0.1,0l0.2-0.1l0.1-0.1l3-0.9l0.1-0.1l0.1,0l0.1,0l0-0.1v-0.2l-0.1-0.2l-0.1-0.2
		l-0.3,0l-0.3,0.1l-0.3,0.1l-0.3,0.1l-0.3,0.1l-0.3,0.1l-0.3,0l-0.3-0.1l-0.1-0.2l1-1.6l0.3-0.1l0.3-0.2l0.2-0.2l0.3-0.3l0.2-0.2
		l0.3-0.3l0.2-0.3l0.3-0.3l0.1-0.1l0.2-0.2l0.2-0.2l0.1-0.2v-0.1v-0.2l0-0.2v-0.2l-0.1-0.1l-0.1-0.1l-0.1-0.1l-0.1-0.1l-1.5,0.1
		l-2.8,0.1h-0.2l-0.2,0h-0.2l-0.1,0h-0.1l-0.2,0l-0.1,0l-0.2,0l-0.1,0.2l-0.1,0.3l0.1,0.2l0.1,0.1l0.2,0.2l0.2,0.1l0.1,0.1h0.2H68
		h0.4l0.4,0l0.3,0l0.4-0.1l0.4,0l0.3-0.1l0.4-0.1l0.4-0.2h0.1h0.1h0.3l0.3,0.1l0.2,0.1l-0.2,0.3l-0.2,0.3l-0.2,0.3l-0.2,0.2
		l-0.3,0.3l-0.3,0.3l-0.3,0.2l-0.2,0.3l-0.2,0.1l-0.2,0.1l-0.1,0.2l-0.2,0.2L68,122l-0.4,0.4l-0.5,0.3l-0.6,0.3l-0.5,0.1l-0.6,0.2
		l-0.5,0.1l-0.6,0.1l-0.5,0l-0.2,0l-0.2,0l-0.1,0.1l-0.2,0l-0.2,0l-0.2,0l-0.2,0l-0.2,0.1l-0.1,0.1l0,0.1l0,0.1l2.1,1H64.5z
		 M40.4,124.2l0.2,0l0.3-0.2l0.2-0.2l0.1-0.1l0.1-0.2v-0.1c0.1-0.2,0.1-0.2,0.1-0.2c0-0.1,0-0.2,0-0.2l0-0.3c-0.1,0-0.1,0-0.1,0
		c-0.1,0-0.2,0-0.2,0c-0.1,0-0.2,0-0.2,0.1h-0.2c0-0.1,0-0.1-0.1-0.2c0.1-0.1,0.1-0.1,0.1-0.2l0.1-0.1l0.2,0
		c0.2-0.2,0.2-0.2,0.3-0.2c0.1-0.1,0.1-0.1,0.2-0.1c0-0.1,0-0.1,0-0.1l0.1-0.2l0.1-0.1l0.1-0.2l-1.1,0.4c-0.1,0-0.1,0-0.1,0v-0.1
		c0-0.1,0.1-0.2,0.1-0.3l0.2,0l0.3-0.1l0.2-0.1l0.3-0.1l0.2-0.1l0.2-0.1l0.2-0.2l0.2-0.2l0-0.1l-0.1-0.3v-0.1l-0.1-0.2l-0.1-0.1
		l-0.3-0.1l-0.9,1l0,0.3l0,0.2l-0.2,0.2l-0.3,0.3c0,0-0.1,0.1-0.1,0.1l-0.2,0.1c0,0-0.1,0.1-0.1,0.1c0,0.1,0,0.3-0.1,0.4
		c0,0.1,0,0.2,0,0.3c0,0.1,0,0.2,0,0.3c0,0.1,0,0.2,0,0.3v0.3c0,0.1,0.1,0.2,0.1,0.3c0,0.1,0.1,0.2,0.1,0.3l0.2,0.3L40.4,124.2z
		 M58.4,123.6l0.1-0.2l0.2-0.1l0.3-0.1l0.2-0.1l0.2-0.1v-0.3l-0.3-0.2l-0.3-0.1l-0.3-0.1l-0.3-0.2l-0.3-0.1l-0.3-0.1l-0.3-0.1
		l-0.3-0.1l0.1,0.1l0.1,0.1l0.1,0l0.2,0.2l0.2,0.3l0.1,0.2l0,0.2v0.3v0.2L58.4,123.6L58.4,123.6z M39.4,119.8
		c0.2-0.1,0.4-0.1,0.6-0.2l0.6-0.3l0.6-0.3l0.6-0.4l0.5-0.4l0.4-0.5l0.4-0.5l0.3-0.6l-1.8,0.8l0,0.2v0.1l0,0.2v0.1h-0.3l-0.1-0.1
		l-0.2-0.1l-0.1,0l-0.2,0.1l-1.8,1l-0.2,0.2l-0.3,0.1l-0.2,0.1l-0.2,0.1l-0.3,0.2l-0.1,0.1c0,0.1-0.1,0.1-0.1,0.2c0,0.1,0,0.1,0,0.2
		c0.1,0,0.2,0.1,0.3,0.1L39.4,119.8z M56,117.8l0.1,0l0.2-0.2l0.2-0.1l0.2-0.2l0.1-0.2l0.3-0.3l0.2-0.2l0.3-0.3l0.1-0.2l0.2-0.3
		l0.1-0.3l0.1-0.3l-0.2-0.1l-1.9,1.2l-0.2,1.7H56z M108.9,117.2l0.2-0.1l0.2-0.2l0.1-0.1l-0.1-0.1l-0.1-0.1l-0.1-0.1l-0.2-0.1
		l-0.1,0.1v0.1v0.2l0,0.2l0,0.2L108.9,117.2z M111.9,117.2l0.2-0.3l0-0.1l0-0.2v-0.2v-0.2l-0.1-0.1l0-0.2l-0.3-0.1l-0.3,0l0,0.1v0.2
		v0.3l0,0.2l0,0.2l0.1,0.1l0.1,0.1L111.9,117.2L111.9,117.2z M110.3,116.2l0.1,0l0.2-0.1l0.2-0.1l0-0.2l-0.1-0.1l-0.1-0.2l-0.1-0.1
		l-0.1-0.1l-0.1,0l-0.2,0l-0.1,0.1l-0.1,0.1l-0.1,0.1v0.2l0.1,0.1l0.2,0.1l0.2,0.1L110.3,116.2L110.3,116.2z M56.3,114.7l0.2,0
		l0.1-0.1l0.3-0.2l0.2-0.3l0.2-0.3l-1,0.4v0.1v0.2L56.3,114.7L56.3,114.7z M109.3,114.3 M40.3,112l0.3,0H41h0.3h0.3l0.3,0l0.3-0.1
		l0.2-0.3l0-0.2l-0.1-0.2l-0.1-0.2l-0.1-0.2l-0.4-0.2l-0.4-0.3l-0.4-0.2l-0.4-0.2l-0.4-0.1l-0.4-0.1l-0.4,0h-0.4l-0.1,0.2v0.1l1,0.7
		l0,0.2l0,0.1l0.1,0.1l0.2,0.1v0.2l-0.1,0.2l0,0.1l0,0.1H40.3z M32.2,100.4l1.2-0.9l0.9,1.3c0.3,0.4,0.4,0.9,0.3,1.2
		c-0.1,0.4-0.5,0.7-1.1,1.1c-0.6,0.4-1.1,0.6-1.5,0.6c-0.4,0-0.8-0.2-1.1-0.7l-1.6-2.4l-0.9,0.6l1.6,2.4c0.6,0.9,1.2,1.3,2,1.4
		c0.7,0.1,1.5-0.1,2.4-0.8c0.5-0.3,0.9-0.7,1.1-1c0.3-0.4,0.4-0.8,0.4-1.2c0-0.3,0-0.6-0.1-0.9c-0.1-0.3-0.3-0.7-0.6-1.1l-1.6-2.4
		l-3.1,2.1l1.8,2.6l0.9-0.6L32.2,100.4z M27.3,99.7l3.4-1.7c0.4-0.2,0.7-0.4,0.9-0.6c0.2-0.2,0.4-0.4,0.4-0.5
		c0.1-0.4,0.2-0.8,0.1-1.2c0-0.4-0.2-0.9-0.5-1.4c-0.3-0.5-0.5-0.9-0.8-1.1c-0.3-0.3-0.7-0.5-1-0.6c-0.2-0.1-0.4,0-0.7,0
		c-0.3,0-0.6,0.2-1,0.4l-3.4,1.7l0.6,1.2l3.4-1.7c0.5-0.3,1-0.4,1.3-0.3c0.3,0.1,0.6,0.3,0.8,0.8c0.2,0.4,0.3,0.8,0.2,1.1
		c-0.1,0.3-0.4,0.6-1,0.9l-3.4,1.7L27.3,99.7z M24.5,90.2l2.6,0.1l-0.6-1.8L24.5,90.2z M30.3,91.7l-0.4-1.3l-1.6,0l-0.9-2.6l1.2-1
		l-0.5-1.4L23,89.9l0.4,1.4L30.3,91.7z M27.9,84.9l-0.2-1.3l-4.7,0.9l4.3-3.5l-0.3-1.5l-6.2,1.1l0.3,1.3l4.5-0.8l-4.1,3.3l0.3,1.7
		L27.9,84.9z M23.9,74h1.5l0,1.5c0,0.5-0.2,0.9-0.4,1.1c-0.3,0.3-0.8,0.4-1.5,0.4c-0.7,0-1.3-0.1-1.6-0.3c-0.3-0.3-0.5-0.6-0.6-1.1
		l0-2.8h-1.1l0,2.9c0,1,0.3,1.7,0.8,2.2c0.5,0.5,1.4,0.7,2.5,0.7c0.6,0,1.1-0.1,1.5-0.3c0.4-0.1,0.7-0.4,1-0.7
		c0.2-0.2,0.3-0.5,0.4-0.8c0.1-0.3,0.1-0.7,0.1-1.2l-0.1-2.9l-3.8,0.1l0.1,3.1h1.1L23.9,74z M21.6,68.3l-0.1,1.5l4.1,0.3l0.1-1.5
		c0-0.6-0.1-1-0.4-1.2c-0.3-0.3-0.8-0.4-1.6-0.4c-0.8-0.1-1.3,0-1.6,0.2C21.8,67.3,21.7,67.8,21.6,68.3z M26.6,71.6l0.2-2.9
		c0-0.5,0-0.9,0-1.2c-0.1-0.3-0.2-0.6-0.4-0.8c-0.3-0.4-0.6-0.6-1-0.8c-0.4-0.2-0.9-0.3-1.5-0.3c-1.1-0.1-2,0.1-2.5,0.5
		c-0.6,0.4-0.9,1.1-1,2.2l-0.2,2.9L26.6,71.6z M26.8,64.2c0.6-0.4,1.1-1.1,1.3-2.1c0.2-1,0.1-1.9-0.3-2.5c-0.4-0.6-1.2-1.1-2.3-1.3
		c-1.1-0.3-2-0.2-2.6,0.2c-0.6,0.4-1.1,1.1-1.3,2.1c-0.2,1-0.1,1.8,0.3,2.5c0.4,0.6,1.1,1.1,2.2,1.3C25.2,64.6,26.1,64.6,26.8,64.2z
		 M22.7,60.8c-0.1,0.6,0,1,0.2,1.4c0.3,0.4,0.8,0.6,1.5,0.8c0.7,0.2,1.3,0.2,1.7,0c0.4-0.2,0.7-0.6,0.9-1.1c0.1-0.6,0-1-0.3-1.4
		c-0.3-0.4-0.8-0.6-1.5-0.8c-0.7-0.2-1.3-0.2-1.7,0C23.1,59.9,22.9,60.3,22.7,60.8z M29.2,58.1l0.5-1.3l-4.5-1.7l5.5-0.7l0.6-1.4
		l-5.9-2.4l-0.5,1.3l4.3,1.6l-5.2,0.7l-0.6,1.6L29.2,58.1z M31.7,47l1.3,0.7L32.2,49c-0.3,0.4-0.6,0.7-1,0.7c-0.4,0-0.9-0.1-1.5-0.5
		c-0.7-0.4-1-0.7-1.2-1.1c-0.2-0.4-0.1-0.8,0.1-1.3l1.5-2.4l-0.9-0.6l-1.5,2.5c-0.5,0.8-0.7,1.7-0.5,2.3c0.2,0.7,0.8,1.3,1.7,1.9
		c0.5,0.3,1,0.5,1.4,0.6c0.4,0.1,0.8,0,1.3-0.1c0.3-0.1,0.6-0.3,0.8-0.5c0.2-0.2,0.5-0.5,0.7-1l1.5-2.4l-3.2-2l-1.6,2.7l1,0.6
		L31.7,47z M35.4,36.4l2.6,2.8c0.3,0.3,0.6,0.6,0.8,0.7c0.2,0.1,0.4,0.3,0.6,0.3c0.4,0,0.8,0,1.2-0.1c0.4-0.2,0.8-0.4,1.2-0.9
		c0.4-0.4,0.7-0.7,0.9-1.1c0.2-0.4,0.3-0.7,0.3-1.1c0-0.2-0.1-0.4-0.2-0.7c-0.1-0.2-0.4-0.5-0.7-0.8l-2.6-2.8l-1,0.9l2.6,2.8
		c0.4,0.4,0.6,0.8,0.6,1.1c0,0.3-0.2,0.6-0.6,1c-0.4,0.4-0.7,0.5-1,0.5c-0.3,0-0.7-0.3-1.1-0.7l-2.6-2.8L35.4,36.4z M44.7,36.5
		l1.1-0.8L43,31.8l5,2.4l1.3-0.9l-3.7-5.2l-1.1,0.8l2.7,3.7l-4.7-2.2l-1.4,1L44.7,36.5z M48.4,26.7l-1.2,0.7l3.3,5.4l1.2-0.7
		L48.4,26.7z M55.7,30.1l-0.3-6.8l-1.3,0.6l0.2,5.1l-3.7-3.5l-1.4,0.6l5.2,4.6L55.7,30.1z M61.7,22.8l-0.3-1.1l-2.1,0.6
		c-1,0.3-1.6,0.7-2,1.4c-0.3,0.7-0.3,1.5,0,2.6c0.1,0.6,0.4,1,0.6,1.4c0.3,0.3,0.6,0.6,1,0.8c0.3,0.1,0.6,0.2,0.9,0.2
		c0.3,0,0.7-0.1,1.1-0.2l2.2-0.6l-0.3-1.1l-2.1,0.6c-0.5,0.1-0.9,0.1-1.2,0c-0.3-0.2-0.5-0.5-0.7-1l3.6-1l-0.3-1.1l-3.6,1
		c-0.1-0.5-0.1-0.9,0.1-1.1c0.2-0.3,0.5-0.5,1-0.7L61.7,22.8z M66.6,22L65,22.2l0.2,1.6l1.6-0.2c0.4-0.1,0.7-0.2,0.9-0.3
		c0.1-0.1,0.2-0.3,0.1-0.6c0-0.3-0.1-0.5-0.3-0.6C67.3,21.9,67,21.9,66.6,22L66.6,22z M64.4,27.5l1.3-0.2l-0.3-2.4l1.6-0.2l1.7,2.3
		l1.5-0.2l-1.9-2.4c0.4-0.1,0.7-0.4,0.9-0.7c0.2-0.3,0.2-0.7,0.1-1.2c-0.1-0.6-0.3-1.1-0.7-1.3c-0.4-0.3-1-0.3-1.7-0.2l-3.3,0.4
		L64.4,27.5z M76.5,20.6L73,20.5c-0.8,0-1.4,0.1-1.7,0.4c-0.4,0.3-0.6,0.8-0.6,1.5c0,0.6,0.1,1.1,0.5,1.4c0.3,0.3,0.9,0.5,1.6,0.5
		l1.5,0c0.4,0,0.6,0,0.7,0.2c0.1,0.1,0.2,0.3,0.2,0.6c0,0.3-0.1,0.4-0.3,0.6c-0.1,0.1-0.4,0.1-0.8,0.1l-3.3-0.1l0,1.1l3.6,0
		c0.7,0,1.3-0.1,1.7-0.4c0.4-0.3,0.6-0.8,0.6-1.4c0-0.6-0.1-1.1-0.4-1.4c-0.3-0.3-0.8-0.4-1.5-0.4l-1.8,0c-0.3,0-0.5-0.1-0.6-0.2
		c-0.1-0.1-0.2-0.3-0.2-0.5c0-0.3,0.1-0.5,0.3-0.6c0.2-0.1,0.4-0.2,0.8-0.2l3.3,0.1V20.6z M79.9,20.9l-1.4-0.2L77.7,27l1.4,0.2
		L79.9,20.9z M81.8,27.7l1.4,0.3l0.9-5.1l2,0.3l0.2-1.1l-5.4-1l-0.2,1.1l2,0.3L81.8,27.7z M88,26.4L87.1,29l1.3,0.4l0.9-2.7l3.4-2.6
		l-1.4-0.5L89,25.5l-0.7-2.8l-1.4-0.5L88,26.4z M97.7,33.1c0.1,0.7,0.6,1.4,1.5,2c0.9,0.6,1.7,0.8,2.4,0.7c0.7-0.1,1.4-0.7,2-1.6
		c0.6-0.9,0.9-1.8,0.7-2.5c-0.1-0.7-0.6-1.4-1.5-2c-0.9-0.6-1.7-0.8-2.4-0.7c-0.7,0.1-1.4,0.7-2,1.6C97.8,31.5,97.6,32.3,97.7,33.1z
		 M102.3,30.5c-0.5-0.3-0.9-0.4-1.4-0.3c-0.4,0.1-0.8,0.5-1.3,1.1C99.2,32,99,32.6,99.1,33c0,0.4,0.3,0.8,0.8,1.2
		c0.5,0.3,0.9,0.4,1.4,0.3c0.4-0.1,0.8-0.5,1.3-1.1c0.4-0.6,0.6-1.1,0.6-1.6C103,31.2,102.8,30.9,102.3,30.5z M102.5,37.4l1,0.9
		l1.7-2l2.9,2.5l0.7-0.8l-2.8-2.5c0.3-0.4,0.7-0.6,1.1-0.6c0.3,0,0.7,0.2,1.2,0.6l1.6,1.4l0.7-0.8l-1.5-1.3
		c-0.4-0.4-0.9-0.7-1.3-0.9c-0.4-0.2-0.7-0.3-1.1-0.2c-0.3,0-0.7,0.1-1,0.4c-0.3,0.2-0.7,0.6-1.3,1.2L102.5,37.4z M112,47.9l0.7,1.1
		l4.4-2.7l1.1,1.7l0.9-0.6l-2.9-4.7l-0.9,0.6l1.1,1.7L112,47.9z M121.1,53.5l1-0.5l-1-2c-0.4-0.9-1-1.5-1.7-1.7
		c-0.7-0.2-1.6-0.1-2.5,0.4c-0.6,0.3-1,0.6-1.3,0.8c-0.3,0.3-0.5,0.7-0.6,1.1c-0.1,0.3-0.1,0.6,0,0.9c0,0.3,0.2,0.7,0.4,1.1l1,2.1
		l1-0.5l-0.9-2c-0.2-0.5-0.3-0.9-0.2-1.2c0.1-0.3,0.4-0.6,0.9-0.8l1.6,3.3l1-0.4l-1.6-3.4c0.5-0.2,0.8-0.2,1.2-0.1
		c0.3,0.1,0.6,0.4,0.8,0.8L121.1,53.5z M123.2,59.8l1-0.3l-0.7-2.1c-0.3-1-0.8-1.6-1.4-1.9c-0.7-0.3-1.5-0.3-2.6,0.1
		c-0.6,0.2-1,0.4-1.4,0.7c-0.3,0.3-0.6,0.6-0.7,1c-0.2,0.3-0.2,0.6-0.2,0.9c0,0.3,0.1,0.7,0.3,1.2l0.7,2.1l1-0.3l-0.7-2.1
		c-0.2-0.6-0.2-1,0-1.3c0.2-0.3,0.6-0.6,1.3-0.8c0.7-0.3,1.3-0.3,1.7-0.2c0.4,0.1,0.7,0.4,0.9,1L123.2,59.8z M124.8,61.2l-6.2,1.1
		l0.3,1.3l2.6-0.4l0.4,2.4l-2.6,0.4l0.2,1.3l6.3-1.1l-0.3-1.3l-2.5,0.4l-0.4-2.4l2.5-0.4L124.8,61.2z M119.8,68.7v1.4l4.8-0.1
		l-4.7,2.8v1.6l6.4-0.1l0-1.4l-4.5,0.1l4.5-2.7l0-1.7L119.8,68.7z M120.3,75.8c-0.6,0.4-1,1.2-1.1,2.3c-0.1,1.1,0,1.9,0.5,2.4
		c0.5,0.6,1.3,1,2.4,1.1c1.1,0.2,2,0,2.6-0.4c0.6-0.4,1-1.2,1.1-2.3c0.1-1,0-1.8-0.5-2.4c-0.4-0.6-1.2-0.9-2.3-1.1
		C121.8,75.3,121,75.4,120.3,75.8z M124.7,78.8c0.1-0.6-0.1-1-0.4-1.3c-0.3-0.3-0.9-0.6-1.6-0.6c-0.8-0.1-1.3,0-1.7,0.2
		c-0.4,0.3-0.6,0.7-0.7,1.2c-0.1,0.6,0,1,0.4,1.4c0.3,0.3,0.9,0.5,1.6,0.6c0.7,0.1,1.3,0,1.7-0.2C124.4,79.8,124.7,79.4,124.7,78.8z
		 M117.9,86.4l1,0.2l0.3-1.5c0.1-0.3,0.2-0.6,0.3-0.7c0.1-0.1,0.3-0.3,0.4-0.4c0.1-0.1,0.2-0.1,0.4-0.1c0.2,0,0.4,0,0.8,0.1l3.7,0.9
		l0.3-1.3l-3.7-0.9c-0.5-0.1-0.8-0.2-1.1-0.1c-0.3,0-0.6,0.1-0.8,0.3c-0.3,0.2-0.5,0.4-0.7,0.6c-0.1,0.3-0.3,0.7-0.4,1.3L117.9,86.4
		z M118.4,87.3c-0.7,0.3-1.3,0.9-1.7,1.9c-0.4,1-0.4,1.8-0.1,2.5c0.3,0.7,1,1.3,2,1.7c1,0.4,1.9,0.5,2.6,0.2
		c0.7-0.3,1.3-0.9,1.7-1.9c0.4-1,0.5-1.8,0.2-2.5c-0.3-0.7-1-1.2-2-1.6C120,87.2,119.1,87,118.4,87.3z M121.9,91.3
		c0.2-0.5,0.2-1,0-1.4c-0.2-0.4-0.7-0.7-1.4-1c-0.7-0.3-1.3-0.4-1.7-0.3c-0.4,0.1-0.8,0.4-1,1c-0.2,0.5-0.2,1,0,1.4
		c0.2,0.4,0.7,0.7,1.4,1c0.7,0.3,1.3,0.3,1.7,0.2C121.3,92.2,121.6,91.9,121.9,91.3z M115.5,98l-1.3-0.8l0.8-1.3
		c0.3-0.4,0.6-0.7,1-0.7c0.4,0,0.9,0.1,1.5,0.5c0.6,0.4,1,0.8,1.2,1.1c0.2,0.4,0.1,0.8-0.1,1.3l-1.5,2.4l0.9,0.6l1.5-2.4
		c0.6-0.9,0.7-1.7,0.5-2.4c-0.2-0.7-0.8-1.3-1.7-1.9c-0.5-0.3-1-0.5-1.4-0.6c-0.4-0.1-0.8,0-1.3,0.1c-0.3,0.1-0.6,0.3-0.8,0.4
		c-0.2,0.2-0.4,0.5-0.7,1l-1.5,2.4l3.3,1.9l1.6-2.7l-1-0.6L115.5,98z M117.6,101.7l-0.9,1.2l-2.9-0.1l1,2.7l-0.9,1.3l-1.4-4.1
		l-2.3-1.6l0.8-1.1l2.3,1.7L117.6,101.7z M73,128.2c-2.3,13.3-27.6,4.1-42.4,3.1c-5.5-13.8-22.1-35-10.1-41.3
		C7.1,92,8.1,65.1,4.4,50.7C15.8,41.2,30.8,19,40.5,28.4c-6-12.1,20-19.6,32.5-27.6c12.5,7.9,38.5,15.4,32.5,27.5
		c9.6-9.4,24.7,12.9,36.2,22.4c-3.7,14.4-2.7,41.3-16.1,39.4c11.9,6.3-4.7,27.5-10.1,41.3C100.6,132.3,75.3,141.5,73,128.2z
		 M145.6,73c0,40.1-32.5,72.6-72.6,72.6c-40.1,0-72.6-32.5-72.6-72.6C0.4,32.9,32.9,0.4,73,0.4C113.1,0.4,145.6,32.9,145.6,73z"/>
</g>
<g>
</g>
<g>
</g>
<g>
</g>
<g>
</g>
<g>
</g>
<g>
</g>
<g>
</g>
<g>
</g>
<g>
</g>
<g>
</g>
<g>
</g>
<g>
</g>
<g>
</g>
<g>
</g>
<g>
</g>
</svg>
