<?xml version="1.0" encoding="UTF-8"?>
<svg xmlns="http://www.w3.org/2000/svg" xmlns:xlink="http://www.w3.org/1999/xlink" width="302" height="302" viewBox="0 0 302 302" version="1.1">
<g id="surface1">
<path style=" stroke:none;fill-rule:evenodd;fill:rgb(100%,100%,100%);fill-opacity:1;" d="M 151 3.539062 C 232.441406 3.539062 298.460938 69.558594 298.460938 151 C 298.460938 232.441406 232.441406 298.464844 151 298.464844 C 69.558594 298.464844 3.535156 232.441406 3.535156 151 C 3.535156 69.558594 69.558594 3.539062 151 3.539062 "/>
<path style=" stroke:none;fill-rule:nonzero;fill:rgb(7.843138%,38.431373%,67.843139%);fill-opacity:1;" d="M 57.71875 214.242188 L 57.917969 214.261719 C 58.421875 215.085938 59.253906 216.324219 60.410156 217.976562 C 61.558594 219.621094 62.4375 220.820312 63.039062 221.578125 L 62.992188 221.769531 L 62.199219 222.328125 L 62 222.289062 C 61.386719 221.515625 61.023438 221.082031 60.90625 220.988281 C 60.6875 220.800781 60.445312 220.765625 60.1875 220.890625 C 59.546875 221.1875 58.289062 221.992188 56.40625 223.308594 L 50.132812 227.703125 C 48.25 229.019531 47.0625 229.929688 46.566406 230.429688 C 46.363281 230.628906 46.3125 230.867188 46.40625 231.140625 C 46.464844 231.28125 46.742188 231.769531 47.257812 232.609375 L 47.226562 232.8125 L 46.421875 233.375 L 46.226562 233.332031 C 45.746094 232.539062 44.917969 231.304688 43.746094 229.628906 C 42.574219 227.960938 41.703125 226.761719 41.121094 226.039062 L 41.148438 225.84375 L 41.957031 225.28125 L 42.15625 225.320312 C 42.769531 226.089844 43.132812 226.523438 43.246094 226.621094 C 43.472656 226.804688 43.710938 226.835938 43.96875 226.714844 C 44.605469 226.421875 45.871094 225.613281 47.75 224.296875 L 54.023438 219.902344 C 55.90625 218.585938 57.089844 217.679688 57.589844 217.175781 C 57.792969 216.976562 57.847656 216.738281 57.746094 216.46875 C 57.695312 216.324219 57.414062 215.835938 56.898438 214.996094 L 56.929688 214.792969 L 57.726562 214.238281 Z M 28.589844 201.417969 L 28.789062 201.496094 C 29.289062 202.347656 29.589844 202.824219 29.683594 202.9375 C 29.882812 203.152344 30.117188 203.21875 30.390625 203.132812 C 31.0625 202.929688 32.421875 202.308594 34.472656 201.261719 L 39.707031 198.597656 C 43.566406 196.632812 46.054688 195.289062 47.164062 194.585938 L 47.367188 194.691406 C 47.703125 195.75 47.957031 196.546875 48.144531 197.074219 C 46.730469 200.695312 44.011719 207.039062 39.996094 216.09375 L 48.429688 211.796875 C 50.476562 210.753906 51.777344 210.019531 52.34375 209.59375 C 52.570312 209.417969 52.65625 209.195312 52.59375 208.910156 C 52.566406 208.765625 52.351562 208.234375 51.957031 207.332031 L 52.019531 207.140625 L 52.894531 206.695312 L 53.078125 206.761719 C 53.53125 207.777344 53.972656 208.710938 54.40625 209.5625 C 54.910156 210.550781 55.441406 211.527344 56.003906 212.5 L 55.949219 212.6875 L 55.070312 213.132812 L 54.878906 213.074219 C 54.378906 212.222656 54.078125 211.738281 53.976562 211.628906 C 53.785156 211.414062 53.550781 211.347656 53.277344 211.429688 C 52.601562 211.640625 51.242188 212.257812 49.195312 213.300781 L 42.375 216.777344 C 40.324219 217.820312 39.023438 218.558594 38.460938 218.980469 C 38.234375 219.152344 38.148438 219.378906 38.207031 219.667969 C 38.238281 219.808594 38.453125 220.339844 38.847656 221.242188 L 38.785156 221.433594 L 37.910156 221.882812 L 37.726562 221.8125 C 37.359375 220.964844 36.992188 220.179688 36.617188 219.4375 C 36.023438 218.277344 35.507812 217.328125 35.0625 216.589844 C 37.613281 211.390625 40.1875 205.496094 42.777344 198.917969 L 35.234375 202.761719 C 33.183594 203.804688 31.878906 204.542969 31.320312 204.964844 C 31.089844 205.136719 31.003906 205.363281 31.0625 205.648438 C 31.097656 205.792969 31.308594 206.316406 31.703125 207.222656 L 31.640625 207.417969 L 30.765625 207.863281 L 30.582031 207.792969 C 30.144531 206.804688 29.703125 205.878906 29.261719 205.003906 C 28.695312 203.898438 28.160156 202.914062 27.660156 202.054688 L 27.707031 201.863281 L 28.585938 201.417969 Z M 34.640625 177.898438 C 36.179688 177.488281 37.65625 177.5625 39.066406 178.125 C 40.304688 178.613281 41.339844 179.410156 42.175781 180.515625 C 42.945312 181.527344 43.542969 182.820312 43.96875 184.394531 C 44.488281 186.347656 44.554688 188.390625 44.167969 190.511719 L 43.902344 190.761719 C 42.761719 190.789062 41.199219 191.066406 39.226562 191.59375 L 39.050781 191.496094 L 38.8125 190.601562 L 38.917969 190.4375 L 39.238281 190.351562 C 39.761719 190.210938 40.433594 189.976562 41.261719 189.628906 C 41.769531 189.132812 42.121094 188.394531 42.316406 187.414062 C 42.523438 186.390625 42.492188 185.386719 42.230469 184.40625 C 41.738281 182.566406 40.75 181.457031 39.277344 181.097656 C 38.515625 180.90625 37.785156 180.910156 37.074219 181.097656 C 35.878906 181.417969 35.160156 182.148438 34.914062 183.28125 C 34.796875 183.84375 34.800781 184.695312 34.925781 185.839844 C 35.210938 188.429688 35.167969 190.195312 34.800781 191.132812 C 34.242188 192.554688 33.046875 193.507812 31.210938 194 C 29.296875 194.511719 27.597656 194.273438 26.121094 193.296875 C 24.5625 192.257812 23.457031 190.523438 22.808594 188.097656 C 22.222656 185.917969 22.101562 184.0625 22.445312 182.535156 L 22.753906 182.347656 C 23.917969 182.269531 25.292969 182.050781 26.859375 181.675781 L 27.039062 181.796875 L 27.273438 182.675781 L 27.171875 182.855469 C 26.058594 183.179688 25.347656 183.421875 25.03125 183.578125 C 24.667969 183.980469 24.429688 184.589844 24.3125 185.386719 C 24.203125 186.234375 24.257812 187.074219 24.480469 187.90625 C 24.816406 189.15625 25.410156 190.054688 26.269531 190.601562 C 27.078125 191.117188 27.972656 191.242188 28.960938 190.976562 C 30.03125 190.6875 30.714844 190.09375 31.011719 189.183594 C 31.203125 188.59375 31.195312 187.324219 30.996094 185.367188 C 30.972656 185.164062 30.917969 184.59375 30.839844 183.65625 C 30.78125 183.082031 30.78125 182.542969 30.835938 182.023438 C 30.9375 180.988281 31.285156 180.132812 31.886719 179.46875 C 32.539062 178.738281 33.457031 178.21875 34.640625 177.898438 Z M 17.847656 158.414062 C 18.566406 158.445312 19.3125 158.414062 20.066406 158.328125 L 22.46875 158.066406 L 22.632812 158.1875 L 22.746094 159.09375 L 22.632812 159.269531 C 21.410156 159.46875 20.703125 159.613281 20.5 159.691406 C 20.128906 159.855469 19.941406 160.1875 19.933594 160.699219 C 19.929688 160.890625 20.023438 161.796875 20.222656 163.402344 L 20.457031 165.324219 C 20.800781 165.304688 22.128906 165.148438 24.457031 164.863281 L 32.617188 163.863281 C 34.898438 163.582031 36.371094 163.335938 37.046875 163.128906 C 37.320312 163.046875 37.480469 162.863281 37.515625 162.574219 C 37.539062 162.425781 37.519531 161.863281 37.457031 160.878906 L 37.582031 160.714844 L 38.542969 160.597656 L 38.707031 160.726562 C 38.765625 161.679688 38.917969 163.15625 39.164062 165.160156 C 39.414062 167.210938 39.625 168.679688 39.796875 169.570312 L 39.675781 169.71875 L 38.703125 169.839844 L 38.542969 169.710938 C 38.363281 168.742188 38.246094 168.1875 38.1875 168.050781 C 38.082031 167.78125 37.886719 167.640625 37.601562 167.625 C 36.894531 167.585938 35.40625 167.707031 33.125 167.988281 L 24.964844 168.988281 C 22.597656 169.28125 21.269531 169.457031 20.972656 169.523438 L 21.226562 171.578125 C 21.433594 173.289062 21.613281 174.28125 21.753906 174.558594 C 21.828125 174.703125 21.914062 174.804688 22.003906 174.847656 C 22.175781 174.914062 22.484375 174.953125 22.953125 174.949219 C 23.464844 174.953125 23.996094 174.9375 24.535156 174.890625 L 24.699219 175.015625 L 24.8125 175.921875 L 24.683594 176.097656 L 22.230469 176.429688 C 21.542969 176.523438 20.835938 176.664062 20.113281 176.859375 L 19.949219 176.75 C 19.976562 176.171875 19.777344 174.105469 19.339844 170.554688 L 18.621094 164.734375 C 18.222656 161.460938 17.921875 159.40625 17.71875 158.574219 Z M 38.207031 145.34375 L 38.347656 145.480469 C 38.253906 146.441406 38.175781 147.933594 38.105469 149.945312 C 38.035156 151.949219 38.011719 153.4375 38.035156 154.40625 L 37.882812 154.53125 L 36.917969 154.496094 L 36.777344 154.34375 C 36.757812 153.363281 36.722656 152.796875 36.691406 152.652344 C 36.625 152.367188 36.453125 152.199219 36.171875 152.140625 C 35.480469 151.992188 33.992188 151.875 31.695312 151.792969 L 24.042969 151.527344 C 21.746094 151.449219 20.25 151.460938 19.554688 151.5625 C 19.269531 151.601562 19.085938 151.757812 19 152.035156 C 18.960938 152.179688 18.890625 152.738281 18.796875 153.71875 L 18.648438 153.863281 L 17.667969 153.828125 L 17.539062 153.675781 C 17.628906 152.753906 17.710938 151.269531 17.78125 149.226562 C 17.855469 147.191406 17.875 145.707031 17.847656 144.78125 L 17.988281 144.636719 L 18.96875 144.671875 L 19.105469 144.824219 C 19.132812 145.808594 19.160156 146.375 19.191406 146.519531 C 19.261719 146.804688 19.433594 146.972656 19.714844 147.03125 C 20.398438 147.175781 21.894531 147.296875 24.1875 147.375 L 31.84375 147.640625 C 34.136719 147.722656 35.628906 147.710938 36.332031 147.613281 C 36.613281 147.574219 36.796875 147.417969 36.882812 147.136719 C 36.925781 146.996094 36.996094 146.433594 37.089844 145.453125 L 37.238281 145.308594 Z M 20.699219 122.617188 C 21.390625 122.832031 22.113281 122.996094 22.867188 123.109375 L 25.253906 123.476562 L 25.382812 123.640625 L 25.253906 124.542969 L 25.101562 124.679688 C 23.871094 124.558594 23.148438 124.511719 22.933594 124.535156 C 22.535156 124.601562 22.265625 124.871094 22.125 125.363281 C 22.070312 125.546875 21.929688 126.445312 21.703125 128.050781 L 21.433594 129.96875 C 21.769531 130.035156 23.09375 130.230469 25.417969 130.558594 L 33.558594 131.703125 C 35.832031 132.023438 37.320312 132.167969 38.027344 132.140625 C 38.3125 132.128906 38.511719 131.996094 38.625 131.726562 C 38.683594 131.589844 38.808594 131.039062 39.007812 130.074219 L 39.167969 129.945312 L 40.128906 130.082031 L 40.253906 130.25 C 40.0625 131.183594 39.828125 132.652344 39.546875 134.648438 C 39.257812 136.695312 39.082031 138.171875 39.011719 139.074219 L 38.863281 139.1875 L 37.886719 139.050781 L 37.769531 138.886719 C 37.847656 137.902344 37.875 137.339844 37.855469 137.191406 C 37.820312 136.902344 37.667969 136.71875 37.394531 136.628906 C 36.722656 136.410156 35.253906 136.136719 32.980469 135.816406 L 24.839844 134.671875 C 22.476562 134.34375 21.148438 134.171875 20.847656 134.15625 L 20.558594 136.207031 C 20.316406 137.914062 20.230469 138.921875 20.292969 139.222656 C 20.332031 139.382812 20.386719 139.5 20.464844 139.566406 C 20.609375 139.675781 20.902344 139.792969 21.355469 139.910156 C 21.847656 140.050781 22.363281 140.167969 22.894531 140.261719 L 23.023438 140.425781 L 22.894531 141.328125 L 22.726562 141.464844 L 20.269531 141.148438 C 19.585938 141.0625 18.863281 141.015625 18.113281 141.023438 L 17.984375 140.875 C 18.164062 140.320312 18.5 138.273438 19 134.730469 L 19.816406 128.925781 C 20.273438 125.65625 20.515625 123.59375 20.535156 122.738281 Z M 29.746094 97.808594 L 29.832031 97.996094 C 29.460938 99.070312 29.542969 99.777344 30.070312 100.109375 C 30.363281 100.292969 31.035156 100.589844 32.09375 100.988281 C 32.878906 101.289062 34.015625 101.699219 35.511719 102.214844 L 39.730469 103.664062 C 42.441406 104.597656 44.191406 105.796875 44.980469 107.265625 C 46.027344 109.210938 46.097656 111.488281 45.195312 114.105469 C 44.375 116.5 43.335938 118.226562 42.078125 119.292969 C 41.015625 120.191406 39.804688 120.601562 38.441406 120.523438 C 37.574219 120.46875 35.464844 119.863281 32.117188 118.710938 L 28.582031 117.496094 C 26.410156 116.746094 24.976562 116.320312 24.28125 116.210938 C 24 116.167969 23.777344 116.261719 23.609375 116.503906 C 23.53125 116.628906 23.300781 117.144531 22.925781 118.054688 L 22.742188 118.148438 L 21.820312 117.828125 L 21.734375 117.644531 C 22.089844 116.789062 22.605469 115.394531 23.269531 113.460938 C 23.949219 111.488281 24.402344 110.078125 24.632812 109.230469 L 24.816406 109.136719 L 25.734375 109.457031 L 25.824219 109.640625 C 25.558594 110.589844 25.421875 111.136719 25.40625 111.289062 C 25.390625 111.578125 25.503906 111.789062 25.757812 111.925781 C 26.367188 112.273438 27.765625 112.816406 29.9375 113.566406 L 32.753906 114.535156 C 36.207031 115.726562 38.371094 116.296875 39.25 116.257812 C 40.996094 116.160156 42.292969 114.898438 43.128906 112.460938 C 43.679688 110.863281 43.714844 109.484375 43.238281 108.316406 C 43.011719 107.769531 42.730469 107.347656 42.40625 107.054688 C 42.078125 106.757812 41.53125 106.421875 40.757812 106.054688 C 40.039062 105.714844 39.296875 105.414062 38.53125 105.148438 L 35.679688 104.167969 C 33.292969 103.34375 31.65625 102.792969 30.773438 102.511719 C 29.945312 102.246094 29.394531 102.117188 29.117188 102.125 C 28.910156 102.132812 28.714844 102.246094 28.527344 102.457031 C 28.371094 102.640625 28.113281 103.175781 27.742188 104.070312 L 27.558594 104.164062 L 26.636719 103.84375 L 26.550781 103.65625 C 26.878906 102.882812 27.1875 102.078125 27.476562 101.238281 C 27.695312 100.605469 28.085938 99.390625 28.640625 97.585938 L 28.824219 97.492188 Z M 40.359375 76.753906 C 40.917969 77.214844 41.53125 77.636719 42.183594 78.023438 L 44.261719 79.257812 L 44.316406 79.457031 L 43.859375 80.25 L 43.664062 80.316406 C 42.570312 79.742188 41.917969 79.429688 41.710938 79.371094 C 41.316406 79.277344 40.964844 79.429688 40.652344 79.835938 C 40.53125 79.984375 40.066406 80.765625 39.253906 82.167969 L 38.285156 83.84375 C 38.570312 84.035156 39.726562 84.710938 41.757812 85.882812 L 48.878906 89.996094 C 50.867188 91.144531 52.191406 91.835938 52.855469 92.074219 C 53.125 92.175781 53.363281 92.121094 53.566406 91.914062 C 53.671875 91.8125 53.996094 91.347656 54.539062 90.527344 L 54.738281 90.46875 L 55.574219 90.953125 L 55.628906 91.15625 C 55.101562 91.953125 54.335938 93.222656 53.324219 94.972656 C 52.292969 96.757812 51.574219 98.0625 51.175781 98.875 L 50.992188 98.921875 L 50.140625 98.433594 L 50.089844 98.230469 C 50.53125 97.351562 50.769531 96.835938 50.808594 96.695312 C 50.886719 96.414062 50.8125 96.183594 50.59375 96 C 50.050781 95.542969 48.792969 94.742188 46.800781 93.59375 L 39.683594 89.484375 C 37.617188 88.289062 36.449219 87.632812 36.175781 87.507812 L 35.136719 89.300781 C 34.277344 90.792969 33.820312 91.695312 33.761719 92 C 33.734375 92.160156 33.746094 92.292969 33.792969 92.382812 C 33.886719 92.539062 34.113281 92.753906 34.488281 93.03125 C 34.894531 93.347656 35.328125 93.652344 35.785156 93.9375 L 35.84375 94.132812 L 35.386719 94.925781 L 35.175781 94.988281 L 33.019531 93.777344 C 32.417969 93.441406 31.765625 93.125 31.066406 92.851562 L 31.003906 92.664062 C 31.375 92.21875 32.457031 90.445312 34.246094 87.347656 L 37.175781 82.269531 C 38.828125 79.410156 39.820312 77.589844 40.164062 76.804688 Z M 60.914062 52.785156 C 61.34375 53.363281 61.835938 53.921875 62.378906 54.457031 L 64.09375 56.15625 L 64.097656 56.363281 L 63.464844 57.019531 L 63.257812 57.042969 C 62.335938 56.222656 61.777344 55.757812 61.589844 55.652344 C 61.230469 55.46875 60.855469 55.53125 60.453125 55.847656 C 60.296875 55.964844 59.65625 56.609375 58.53125 57.769531 L 57.183594 59.167969 C 57.414062 59.414062 58.371094 60.351562 60.0625 61.984375 L 65.972656 67.695312 C 67.625 69.292969 68.742188 70.28125 69.332031 70.675781 C 69.566406 70.835938 69.808594 70.84375 70.058594 70.691406 C 70.1875 70.617188 70.613281 70.246094 71.339844 69.578125 L 71.542969 69.574219 L 72.242188 70.246094 L 72.242188 70.457031 C 71.539062 71.097656 70.484375 72.148438 69.085938 73.601562 C 67.648438 75.085938 66.636719 76.175781 66.054688 76.867188 L 65.863281 76.871094 L 65.15625 76.1875 L 65.15625 75.980469 C 65.796875 75.234375 66.152344 74.792969 66.222656 74.664062 C 66.367188 74.410156 66.351562 74.167969 66.1875 73.9375 C 65.769531 73.363281 64.742188 72.28125 63.089844 70.683594 L 57.175781 64.976562 C 55.460938 63.316406 54.484375 62.398438 54.25 62.210938 L 52.8125 63.699219 C 51.613281 64.941406 50.953125 65.703125 50.824219 65.984375 C 50.757812 66.136719 50.738281 66.265625 50.757812 66.363281 C 50.816406 66.535156 50.980469 66.800781 51.277344 67.164062 C 51.59375 67.566406 51.945312 67.964844 52.320312 68.355469 L 52.324219 68.558594 L 51.6875 69.21875 L 51.472656 69.230469 L 49.671875 67.53125 C 49.167969 67.058594 48.609375 66.59375 48.003906 66.160156 L 47.984375 65.964844 C 48.457031 65.621094 49.929688 64.160156 52.417969 61.585938 L 56.492188 57.371094 C 58.785156 54.996094 60.1875 53.46875 60.707031 52.789062 L 60.914062 52.789062 Z M 86.367188 52.285156 C 87.070312 53.53125 87.96875 54.847656 89.0625 56.246094 L 89.035156 56.453125 L 80.6875 62.863281 C 79.304688 63.941406 78.347656 64.730469 77.8125 65.21875 L 77.605469 65.191406 L 77.359375 64.875 L 77.308594 64.691406 C 77.589844 63.894531 77.722656 63.433594 77.691406 63.304688 C 77.652344 63.109375 77.296875 62.570312 76.636719 61.695312 L 74.671875 59.109375 L 70.152344 53.328125 C 68.738281 51.519531 67.773438 50.375 67.246094 49.90625 C 67.03125 49.71875 66.792969 49.675781 66.527344 49.785156 C 66.390625 49.851562 65.914062 50.15625 65.105469 50.714844 L 64.902344 50.6875 L 64.296875 49.914062 L 64.328125 49.722656 C 65.132812 49.167969 66.339844 48.265625 67.945312 47.011719 C 69.371094 45.894531 72.070312 43.746094 76.042969 40.570312 L 76.242188 40.566406 L 77.082031 41.945312 C 77.351562 42.382812 77.582031 42.753906 77.78125 43.054688 L 78.53125 44.175781 L 78.511719 44.386719 L 77.851562 44.902344 L 77.644531 44.882812 C 76.832031 43.851562 76.3125 43.308594 76.082031 43.257812 C 75.917969 43.210938 75.441406 43.449219 74.664062 43.957031 C 73.878906 44.476562 73.214844 44.945312 72.660156 45.378906 C 71.996094 45.898438 71.347656 46.449219 70.710938 47.027344 C 71.25 47.890625 72.074219 49.03125 73.179688 50.445312 L 75.023438 52.804688 C 75.652344 52.375 76.15625 52.015625 76.527344 51.722656 L 78.015625 50.542969 C 78.707031 49.988281 79.058594 49.628906 79.066406 49.445312 C 79.085938 49.214844 78.757812 48.640625 78.105469 47.722656 L 78.125 47.515625 L 78.832031 46.960938 L 79.039062 46.988281 C 79.671875 47.859375 80.269531 48.65625 80.820312 49.359375 C 81.421875 50.128906 82.09375 50.953125 82.835938 51.847656 L 82.800781 52.035156 L 82.039062 52.632812 L 81.835938 52.609375 C 81.148438 51.734375 80.6875 51.261719 80.4375 51.191406 C 80.183594 51.125 79.734375 51.304688 79.074219 51.730469 C 78.582031 52.058594 78.074219 52.425781 77.550781 52.832031 C 76.996094 53.269531 76.492188 53.691406 76.042969 54.101562 L 78.757812 57.582031 C 79.539062 58.578125 80.3125 59.527344 81.082031 60.433594 L 82.632812 59.222656 C 84.851562 57.488281 86.144531 56.339844 86.507812 55.773438 C 86.570312 55.675781 86.597656 55.585938 86.59375 55.5 C 86.582031 55.335938 86.480469 55.050781 86.277344 54.648438 L 85.445312 53.015625 L 85.457031 52.804688 L 86.152344 52.261719 L 86.367188 52.277344 Z M 109.804688 45.285156 L 109.742188 45.484375 C 108.304688 46.148438 107.316406 46.621094 106.773438 46.894531 C 106.292969 47.144531 105.546875 47.554688 104.53125 48.136719 C 104.113281 47.808594 103.363281 47.425781 102.277344 46.992188 L 96.214844 44.574219 C 94.902344 44.050781 93.5625 43.640625 92.199219 43.34375 L 93.757812 46.414062 C 94.800781 48.460938 95.535156 49.761719 95.964844 50.324219 C 96.136719 50.554688 96.363281 50.636719 96.644531 50.578125 C 96.792969 50.550781 97.316406 50.335938 98.222656 49.9375 L 98.414062 50 L 98.855469 50.863281 L 98.800781 51.054688 C 97.917969 51.441406 96.578125 52.089844 94.789062 53 C 92.941406 53.941406 91.628906 54.644531 90.859375 55.101562 L 90.671875 55.046875 L 90.226562 54.171875 L 90.289062 53.980469 C 91.136719 53.480469 91.617188 53.179688 91.730469 53.078125 C 91.945312 52.886719 92.007812 52.65625 91.921875 52.382812 C 91.722656 51.703125 91.097656 50.34375 90.054688 48.300781 L 86.578125 41.476562 C 85.535156 39.429688 84.800781 38.121094 84.375 37.5625 C 84.203125 37.335938 83.976562 37.25 83.695312 37.304688 C 83.546875 37.34375 83.023438 37.554688 82.121094 37.949219 L 81.925781 37.886719 L 81.480469 37.007812 L 81.546875 36.824219 C 82.398438 36.460938 83.738281 35.8125 85.558594 34.882812 C 87.425781 33.929688 88.738281 33.230469 89.488281 32.78125 L 89.667969 32.835938 L 90.121094 33.726562 L 90.050781 33.90625 C 89.199219 34.40625 88.71875 34.707031 88.605469 34.804688 C 88.390625 35 88.328125 35.234375 88.410156 35.507812 C 88.617188 36.179688 89.238281 37.542969 90.28125 39.589844 L 91.914062 42.789062 C 92.753906 40.476562 93.34375 38.777344 93.671875 37.703125 L 94.535156 34.871094 C 94.832031 33.898438 95.179688 32.59375 95.582031 30.960938 L 95.125 30.066406 L 95.203125 29.867188 C 95.894531 29.582031 96.554688 29.277344 97.191406 28.953125 C 97.941406 28.574219 98.804688 28.097656 99.78125 27.535156 L 99.980469 27.597656 L 100.386719 28.398438 L 100.320312 28.589844 C 99.324219 29.097656 98.667969 29.636719 98.34375 30.199219 C 97.886719 31.019531 97.152344 32.84375 96.148438 35.671875 L 94.804688 39.476562 C 95.429688 39.789062 96.40625 40.214844 97.730469 40.761719 L 102.332031 42.640625 C 105.738281 44.039062 107.648438 44.726562 108.0625 44.714844 C 108.316406 44.703125 108.683594 44.582031 109.164062 44.347656 L 109.359375 44.421875 L 109.800781 45.285156 Z M 127.9375 20.339844 L 127.816406 20.519531 C 126.882812 20.832031 126.351562 21.027344 126.222656 21.097656 C 125.96875 21.246094 125.859375 21.460938 125.882812 21.746094 C 125.945312 22.445312 126.269531 23.910156 126.863281 26.128906 L 128.382812 31.800781 C 129.503906 35.984375 130.296875 38.699219 130.757812 39.933594 L 130.609375 40.109375 C 129.507812 40.214844 128.675781 40.300781 128.121094 40.375 C 124.871094 38.234375 119.234375 34.257812 111.210938 28.449219 L 113.660156 37.59375 C 114.253906 39.8125 114.703125 41.238281 115.003906 41.878906 C 115.121094 42.136719 115.328125 42.265625 115.617188 42.265625 C 115.765625 42.265625 116.328125 42.167969 117.292969 41.972656 L 117.46875 42.070312 L 117.726562 43.019531 L 117.621094 43.1875 C 116.53125 43.417969 115.527344 43.65625 114.605469 43.902344 C 113.53125 44.191406 112.464844 44.507812 111.398438 44.855469 L 111.222656 44.761719 L 110.96875 43.8125 L 111.070312 43.636719 C 112.003906 43.324219 112.542969 43.128906 112.667969 43.054688 C 112.921875 42.914062 113.035156 42.699219 113.007812 42.414062 C 112.949219 41.707031 112.621094 40.25 112.027344 38.03125 L 110.046875 30.632812 C 109.453125 28.414062 109.003906 26.984375 108.703125 26.347656 C 108.582031 26.089844 108.378906 25.960938 108.089844 25.957031 C 107.9375 25.960938 107.378906 26.058594 106.414062 26.257812 L 106.238281 26.15625 L 105.984375 25.207031 L 106.085938 25.039062 C 106.988281 24.859375 107.839844 24.664062 108.640625 24.449219 C 109.902344 24.113281 110.9375 23.800781 111.753906 23.523438 C 116.304688 27.101562 121.53125 30.839844 127.433594 34.742188 L 125.242188 26.5625 C 124.648438 24.34375 124.195312 22.914062 123.898438 22.277344 C 123.777344 22.019531 123.574219 21.890625 123.285156 21.886719 C 123.132812 21.890625 122.578125 21.988281 121.613281 22.183594 L 121.433594 22.085938 L 121.179688 21.136719 L 121.289062 20.96875 C 122.34375 20.746094 123.34375 20.511719 124.289062 20.253906 C 125.488281 19.933594 126.5625 19.617188 127.503906 19.300781 L 127.683594 19.390625 Z M 156.648438 27.511719 C 156.710938 31.074219 155.722656 33.882812 153.683594 35.945312 C 151.703125 37.949219 148.964844 38.980469 145.472656 39.042969 C 142.171875 39.101562 139.566406 38.214844 137.652344 36.390625 C 135.738281 34.566406 134.75 32 134.691406 28.691406 C 134.613281 24.050781 136.328125 20.804688 139.839844 18.960938 C 141.433594 18.121094 143.410156 17.683594 145.765625 17.640625 C 149.128906 17.582031 151.769531 18.421875 153.671875 20.152344 C 155.597656 21.914062 156.59375 24.363281 156.648438 27.511719 Z M 152.203125 28.339844 C 152.152344 25.542969 151.558594 23.332031 150.402344 21.707031 C 149.246094 20.082031 147.585938 19.289062 145.417969 19.328125 C 142.546875 19.378906 140.671875 20.695312 139.78125 23.289062 C 139.324219 24.617188 139.109375 26.105469 139.136719 27.742188 C 139.1875 30.726562 139.777344 33.070312 140.910156 34.777344 C 142.078125 36.542969 143.796875 37.40625 146.066406 37.367188 C 148.816406 37.316406 150.640625 35.933594 151.535156 33.203125 C 152.015625 31.757812 152.234375 30.140625 152.203125 28.339844 Z M 175.222656 35.570312 C 174.839844 36.949219 174.542969 38.515625 174.328125 40.273438 L 174.164062 40.402344 L 163.730469 39.035156 C 161.984375 38.820312 160.753906 38.699219 160.027344 38.667969 L 159.902344 38.503906 L 159.953125 38.101562 L 160.046875 37.941406 C 160.808594 37.574219 161.230469 37.34375 161.296875 37.230469 C 161.40625 37.070312 161.539062 36.4375 161.6875 35.34375 L 162.125 32.125 L 163.023438 24.84375 C 163.300781 22.566406 163.425781 21.070312 163.382812 20.371094 C 163.371094 20.085938 163.226562 19.886719 162.960938 19.777344 C 162.820312 19.726562 162.265625 19.605469 161.296875 19.425781 L 161.171875 19.269531 L 161.292969 18.289062 L 161.453125 18.175781 C 162.429688 18.355469 163.875 18.5625 165.78125 18.796875 C 167.75 19.039062 169.253906 19.195312 170.289062 19.261719 L 170.414062 19.410156 L 170.292969 20.402344 L 170.132812 20.511719 C 169.148438 20.449219 168.578125 20.429688 168.433594 20.449219 C 168.148438 20.492188 167.964844 20.648438 167.878906 20.921875 C 167.671875 21.59375 167.425781 23.070312 167.148438 25.351562 L 166.089844 33.941406 C 165.9375 35.195312 165.8125 36.417969 165.71875 37.601562 L 167.667969 37.839844 C 170.464844 38.183594 172.191406 38.285156 172.851562 38.140625 C 172.960938 38.113281 173.046875 38.074219 173.105469 38.007812 C 173.210938 37.886719 173.339844 37.617188 173.480469 37.183594 L 174.046875 35.441406 L 174.207031 35.304688 L 175.085938 35.410156 Z M 201.058594 37.429688 C 199.953125 40.816406 198.105469 43.152344 195.507812 44.4375 C 192.980469 45.6875 190.054688 45.773438 186.734375 44.691406 C 183.59375 43.675781 181.417969 41.988281 180.203125 39.640625 C 178.984375 37.292969 178.890625 34.546875 179.910156 31.398438 C 181.34375 26.984375 184.027344 24.472656 187.945312 23.871094 C 189.726562 23.597656 191.738281 23.828125 193.976562 24.554688 C 197.179688 25.59375 199.402344 27.246094 200.636719 29.5 C 201.886719 31.792969 202.027344 34.4375 201.058594 37.429688 Z M 196.582031 36.769531 C 197.449219 34.105469 197.601562 31.820312 197.039062 29.90625 C 196.476562 27.996094 195.164062 26.707031 193.101562 26.035156 C 190.371094 25.148438 188.171875 25.785156 186.480469 27.945312 C 185.617188 29.054688 184.929688 30.386719 184.421875 31.949219 C 183.5 34.785156 183.296875 37.191406 183.808594 39.175781 C 184.339844 41.222656 185.683594 42.601562 187.839844 43.300781 C 190.457031 44.152344 192.632812 43.433594 194.367188 41.148438 C 195.292969 39.9375 196.023438 38.476562 196.582031 36.769531 Z M 222.371094 53.582031 L 222.164062 53.65625 C 221.574219 53.488281 221.167969 53.496094 220.964844 53.671875 C 220.753906 53.847656 220.234375 54.679688 219.410156 56.164062 C 219.015625 56.882812 218.65625 57.613281 218.335938 58.347656 C 214.929688 57.851562 212.078125 56.964844 209.777344 55.691406 C 206.757812 54.015625 204.78125 51.8125 203.855469 49.085938 C 202.917969 46.355469 203.265625 43.535156 204.882812 40.609375 C 206.992188 36.808594 210.148438 35.011719 214.34375 35.21875 C 216.265625 35.3125 218.390625 36.007812 220.722656 37.296875 C 222.074219 38.046875 223.355469 38.949219 224.582031 40.011719 C 225.582031 40.886719 226.328125 41.664062 226.8125 42.34375 L 226.800781 42.632812 C 226.171875 43.253906 225.273438 44.445312 224.113281 46.207031 L 223.902344 46.253906 L 223.140625 45.832031 L 223.085938 45.636719 C 223.171875 45.476562 223.34375 45.136719 223.585938 44.617188 C 223.828125 44.09375 223.980469 43.71875 224.046875 43.488281 C 223.953125 42.777344 223.558594 41.996094 222.863281 41.140625 C 222.105469 40.242188 221.167969 39.480469 220.054688 38.863281 C 217.066406 37.207031 214.339844 37.269531 211.859375 39.050781 C 210.71875 39.871094 209.738281 41.019531 208.925781 42.488281 C 207.625 44.835938 207.171875 47.125 207.5625 49.367188 C 207.976562 51.691406 209.222656 53.425781 211.308594 54.582031 C 212.410156 55.191406 213.613281 55.554688 214.902344 55.648438 C 215.289062 55.085938 215.769531 54.296875 216.335938 53.269531 C 216.804688 52.429688 217.050781 51.90625 217.09375 51.699219 C 217.117188 51.535156 217.011719 51.347656 216.769531 51.140625 C 216.574219 50.964844 215.894531 50.503906 214.738281 49.765625 L 214.671875 49.558594 L 215.109375 48.765625 L 215.316406 48.714844 C 216.53125 49.425781 217.800781 50.148438 219.148438 50.882812 C 219.933594 51.304688 221.097656 51.933594 222.652344 52.777344 L 222.707031 52.976562 L 222.375 53.578125 Z M 227.28125 67.757812 L 227.085938 67.785156 C 226.382812 67.125 225.261719 66.140625 223.714844 64.84375 C 222.179688 63.554688 221.019531 62.621094 220.246094 62.046875 L 220.238281 61.847656 L 220.859375 61.109375 L 221.066406 61.089844 C 221.859375 61.679688 222.320312 62.003906 222.457031 62.0625 C 222.71875 62.1875 222.957031 62.15625 223.175781 61.972656 C 223.71875 61.519531 224.726562 60.417969 226.207031 58.65625 L 231.128906 52.789062 C 232.601562 51.03125 233.515625 49.84375 233.867188 49.234375 C 234.011719 48.988281 234 48.746094 233.832031 48.503906 C 233.746094 48.386719 233.347656 47.984375 232.632812 47.308594 L 232.609375 47.101562 L 233.242188 46.351562 L 233.441406 46.34375 C 234.113281 46.984375 235.230469 47.964844 236.800781 49.277344 C 238.359375 50.585938 239.511719 51.515625 240.257812 52.066406 L 240.285156 52.261719 L 239.652344 53.015625 L 239.445312 53.027344 C 238.65625 52.441406 238.195312 52.117188 238.0625 52.050781 C 237.796875 51.933594 237.554688 51.964844 237.335938 52.144531 C 236.796875 52.597656 235.785156 53.703125 234.308594 55.460938 L 229.386719 61.328125 C 227.910156 63.089844 227 64.273438 226.648438 64.882812 C 226.503906 65.132812 226.515625 65.375 226.679688 65.613281 C 226.765625 65.734375 227.164062 66.132812 227.878906 66.8125 L 227.902344 67.015625 Z M 249.546875 83.398438 C 247.664062 84.921875 245.46875 85.195312 242.957031 84.207031 C 241.71875 83.722656 240.523438 82.773438 239.375 81.355469 C 239.011719 80.90625 238.714844 80.527344 238.484375 80.230469 L 236.367188 77.496094 C 235.589844 76.539062 234.964844 75.8125 234.492188 75.324219 L 234.515625 75.117188 L 234.832031 74.863281 L 235.011719 74.8125 C 235.8125 75.082031 236.277344 75.207031 236.402344 75.175781 C 236.59375 75.136719 237.128906 74.773438 237.996094 74.089844 L 240.546875 72.078125 L 246.25 67.464844 C 248.03125 66.015625 249.160156 65.027344 249.617188 64.492188 C 249.804688 64.277344 249.839844 64.039062 249.726562 63.773438 C 249.660156 63.640625 249.34375 63.167969 248.773438 62.367188 L 248.792969 62.164062 L 249.558594 61.546875 L 249.75 61.574219 C 250.246094 62.277344 251.148438 63.441406 252.46875 65.070312 C 253.308594 66.105469 254.082031 67.023438 254.796875 67.828125 C 255.363281 68.460938 255.828125 69.007812 256.199219 69.460938 C 257.890625 71.554688 258.527344 73.316406 258.105469 74.738281 C 257.878906 75.488281 257.441406 76.128906 256.785156 76.660156 C 255.722656 77.519531 254.5 77.824219 253.109375 77.570312 C 252.453125 77.449219 251.867188 77.234375 251.359375 76.941406 C 250.769531 76.601562 250.167969 76.1875 249.5625 75.714844 C 251.929688 78.914062 251.921875 81.476562 249.546875 83.402344 Z M 253.488281 73.710938 C 255.144531 72.367188 255.273438 70.832031 253.875 69.109375 C 253.414062 68.535156 252.992188 68.078125 252.613281 67.730469 C 251.800781 68.335938 251.0625 68.910156 250.390625 69.453125 L 247.289062 71.964844 C 247.414062 72.152344 247.6875 72.5 248.105469 73.019531 C 249.203125 74.375 250.363281 74.917969 251.578125 74.636719 C 252.28125 74.476562 252.917969 74.171875 253.488281 73.710938 Z M 246.410156 80.242188 C 248.660156 78.421875 248.828125 76.324219 246.914062 73.964844 C 246.671875 73.667969 246.382812 73.335938 246.054688 72.964844 L 240.84375 77.183594 C 240.28125 77.636719 239.742188 78.101562 239.226562 78.570312 C 239.425781 78.917969 239.746094 79.371094 240.199219 79.925781 C 241.046875 80.976562 242.03125 81.519531 243.15625 81.554688 C 244.214844 81.570312 245.300781 81.140625 246.410156 80.242188 Z M 256.214844 108.414062 L 256.023438 108.367188 C 255.066406 106.449219 254.488281 105.292969 254.28125 104.902344 C 253.445312 103.335938 252.644531 101.894531 251.875 100.574219 L 251.949219 100.390625 L 252.75 99.964844 L 252.960938 100.015625 L 253.613281 101.09375 C 253.886719 101.546875 254.179688 101.695312 254.484375 101.53125 C 254.664062 101.4375 255.003906 101.105469 255.5 100.535156 L 257.644531 98.066406 C 257.035156 96.878906 256.40625 95.675781 255.753906 94.445312 C 255.398438 93.78125 254.867188 92.800781 254.152344 91.496094 L 252.292969 91.761719 C 250.882812 91.96875 250.027344 92.148438 249.730469 92.304688 C 249.40625 92.476562 249.320312 92.78125 249.472656 93.214844 C 249.554688 93.453125 249.75 93.90625 250.066406 94.570312 L 250.003906 94.765625 L 249.1875 95.199219 L 248.988281 95.144531 C 248.203125 93.542969 247.691406 92.511719 247.449219 92.0625 C 247.265625 91.714844 246.777344 90.859375 245.992188 89.507812 L 246.042969 89.320312 L 246.871094 88.878906 L 247.078125 88.949219 C 247.589844 89.800781 248.050781 90.242188 248.457031 90.285156 C 248.859375 90.328125 251.039062 90.136719 254.980469 89.707031 L 265.101562 88.605469 C 265.882812 88.511719 267.054688 88.367188 268.625 88.175781 L 269.59375 89.988281 L 257.257812 105.238281 C 256.792969 105.820312 256.578125 106.242188 256.617188 106.496094 C 256.660156 106.832031 256.824219 107.265625 257.105469 107.792969 L 257.027344 107.980469 L 256.210938 108.414062 Z M 258.78125 96.65625 L 264.023438 90.363281 L 255.933594 91.296875 C 256.277344 92.015625 256.75 92.929688 257.339844 94.046875 C 257.917969 95.128906 258.398438 96 258.78125 96.65625 Z M 281.375 126.367188 L 281.195312 126.25 C 280.863281 125.320312 280.664062 124.792969 280.589844 124.664062 C 280.4375 124.414062 280.21875 124.308594 279.9375 124.335938 C 279.238281 124.40625 277.78125 124.761719 275.570312 125.394531 L 269.921875 127.011719 C 265.757812 128.207031 263.0625 129.046875 261.835938 129.527344 L 261.65625 129.382812 C 261.53125 128.285156 261.433594 127.453125 261.351562 126.898438 C 263.429688 123.609375 267.308594 117.90625 272.976562 109.78125 L 263.878906 112.390625 C 261.667969 113.023438 260.253906 113.5 259.617188 113.808594 C 259.359375 113.933594 259.230469 114.140625 259.238281 114.429688 C 259.242188 114.578125 259.347656 115.140625 259.5625 116.101562 L 259.464844 116.277344 L 258.519531 116.550781 L 258.351562 116.449219 C 258.105469 115.363281 257.847656 114.363281 257.582031 113.445312 C 257.277344 112.378906 256.941406 111.316406 256.578125 110.253906 L 256.667969 110.082031 L 257.613281 109.808594 L 257.789062 109.910156 C 258.117188 110.835938 258.320312 111.371094 258.398438 111.496094 C 258.546875 111.746094 258.761719 111.855469 259.046875 111.824219 C 259.75 111.75 261.203125 111.402344 263.410156 110.769531 L 270.773438 108.65625 C 272.980469 108.023438 274.402344 107.550781 275.03125 107.242188 C 275.289062 107.117188 275.414062 106.910156 275.414062 106.617188 C 275.410156 106.46875 275.296875 105.910156 275.082031 104.949219 L 275.183594 104.773438 L 276.128906 104.5 L 276.296875 104.601562 C 276.492188 105.5 276.703125 106.34375 276.933594 107.144531 C 277.292969 108.398438 277.617188 109.429688 277.910156 110.238281 C 274.414062 114.855469 270.765625 120.144531 266.96875 126.113281 L 275.109375 123.777344 C 277.316406 123.144531 278.738281 122.671875 279.371094 122.363281 C 279.625 122.238281 279.75 122.03125 279.75 121.738281 C 279.746094 121.589844 279.636719 121.035156 279.421875 120.074219 L 279.519531 119.890625 L 280.464844 119.621094 L 280.632812 119.726562 C 280.875 120.78125 281.128906 121.773438 281.398438 122.714844 C 281.742188 123.914062 282.078125 124.976562 282.40625 125.914062 L 282.320312 126.09375 Z M 275.945312 154.777344 C 272.6875 155.0625 269.890625 154.234375 267.558594 152.296875 C 266.421875 151.355469 265.496094 150.167969 264.792969 148.734375 C 264.03125 147.203125 263.578125 145.378906 263.425781 143.261719 L 263.070312 138.164062 C 262.96875 136.78125 262.839844 135.632812 262.679688 134.742188 L 262.816406 134.582031 L 263.21875 134.546875 L 263.398438 134.605469 C 263.914062 135.277344 264.226562 135.640625 264.351562 135.683594 C 264.53125 135.757812 265.175781 135.753906 266.277344 135.671875 L 269.515625 135.433594 L 276.824219 134.796875 C 279.113281 134.597656 280.597656 134.40625 281.277344 134.21875 C 281.554688 134.144531 281.714844 133.964844 281.773438 133.683594 C 281.792969 133.535156 281.792969 132.96875 281.765625 131.980469 L 281.894531 131.828125 L 282.875 131.742188 L 283.023438 131.871094 C 283.050781 132.894531 283.105469 133.867188 283.1875 134.792969 C 283.386719 137.03125 283.589844 139.046875 283.808594 140.839844 C 283.914062 141.734375 284.007812 142.628906 284.085938 143.535156 C 284.304688 146.035156 284.1875 147.972656 283.738281 149.363281 C 283.238281 150.878906 282.363281 152.105469 281.097656 153.050781 C 279.796875 154.015625 278.078125 154.59375 275.945312 154.777344 Z M 274.863281 150.414062 C 277.527344 150.179688 279.515625 149.355469 280.835938 147.941406 C 281.53125 147.199219 281.984375 146.3125 282.199219 145.277344 C 282.40625 144.292969 282.433594 142.9375 282.28125 141.21875 C 282.203125 140.320312 282.070312 139.472656 281.867188 138.667969 C 280.785156 138.667969 278.175781 138.84375 274.042969 139.207031 L 267.746094 139.789062 C 266.34375 139.921875 265.410156 140.042969 264.960938 140.144531 C 264.894531 141.003906 264.902344 141.875 264.988281 142.761719 C 265.152344 144.671875 265.558594 146.160156 266.21875 147.214844 C 266.929688 148.355469 268.039062 149.210938 269.554688 149.785156 C 271.113281 150.375 272.886719 150.585938 274.867188 150.414062 "/>
<path style=" stroke:none;fill-rule:nonzero;fill:rgb(7.843138%,38.431373%,67.843139%);fill-opacity:1;" d="M 279.527344 182.195312 L 279.410156 182.023438 C 279.609375 180.90625 279.421875 180.21875 278.847656 179.972656 C 278.53125 179.835938 277.816406 179.652344 276.710938 179.421875 C 275.886719 179.246094 274.699219 179.019531 273.140625 178.746094 L 268.75 177.972656 C 265.925781 177.472656 264.007812 176.5625 263 175.238281 C 261.664062 173.484375 261.234375 171.242188 261.71875 168.515625 C 262.15625 166.023438 262.910156 164.15625 263.984375 162.902344 C 264.894531 161.851562 266.027344 161.257812 267.382812 161.121094 C 268.253906 161.039062 270.425781 161.304688 273.917969 161.921875 L 277.59375 162.570312 C 279.855469 162.96875 281.34375 163.167969 282.046875 163.164062 C 282.332031 163.164062 282.535156 163.035156 282.660156 162.773438 C 282.71875 162.636719 282.867188 162.089844 283.09375 161.132812 L 283.265625 161.011719 L 284.222656 161.179688 L 284.335938 161.351562 C 284.117188 162.25 283.832031 163.710938 283.476562 165.722656 C 283.113281 167.777344 282.886719 169.242188 282.792969 170.113281 L 282.625 170.234375 L 281.664062 170.066406 L 281.550781 169.894531 C 281.664062 168.917969 281.710938 168.351562 281.703125 168.199219 C 281.675781 167.914062 281.527344 167.722656 281.257812 167.625 C 280.601562 167.378906 279.136719 167.0625 276.875 166.660156 L 273.941406 166.144531 C 270.34375 165.511719 268.117188 165.285156 267.253906 165.460938 C 265.542969 165.828125 264.460938 167.277344 264.015625 169.820312 C 263.722656 171.480469 263.902344 172.847656 264.554688 173.925781 C 264.867188 174.433594 265.210938 174.804688 265.578125 175.042969 C 265.945312 175.285156 266.539062 175.53125 267.359375 175.769531 C 268.125 175.996094 268.902344 176.179688 269.703125 176.320312 L 272.671875 176.84375 C 275.15625 177.28125 276.863281 177.570312 277.773438 177.710938 C 278.632812 177.84375 279.199219 177.882812 279.472656 177.835938 C 279.675781 177.792969 279.851562 177.652344 280.003906 177.414062 C 280.128906 177.210938 280.300781 176.636719 280.527344 175.699219 L 280.695312 175.578125 L 281.652344 175.746094 L 281.769531 175.917969 C 281.5625 176.734375 281.382812 177.578125 281.230469 178.453125 C 281.117188 179.109375 280.921875 180.375 280.652344 182.242188 L 280.484375 182.363281 Z M 270.273438 208.5 L 270.199219 208.296875 C 270.496094 207.355469 270.652344 206.8125 270.671875 206.667969 C 270.699219 206.375 270.589844 206.160156 270.347656 206.011719 C 269.746094 205.648438 268.371094 205.054688 266.226562 204.230469 L 260.742188 202.125 C 256.699219 200.574219 254.035156 199.621094 252.769531 199.265625 L 252.710938 199.042969 C 253.273438 198.089844 253.691406 197.367188 253.960938 196.871094 C 257.601562 195.5 264.132812 193.277344 273.546875 190.203125 L 264.710938 186.8125 C 262.566406 185.988281 261.148438 185.511719 260.453125 185.378906 C 260.175781 185.320312 259.953125 185.410156 259.777344 185.648438 C 259.691406 185.765625 259.441406 186.28125 259.035156 187.175781 L 258.847656 187.257812 L 257.929688 186.90625 L 257.855469 186.726562 C 258.3125 185.707031 258.707031 184.753906 259.050781 183.863281 C 259.449219 182.824219 259.820312 181.777344 260.167969 180.710938 L 260.34375 180.625 L 261.261719 180.976562 L 261.34375 181.160156 C 261.046875 182.101562 260.886719 182.648438 260.871094 182.796875 C 260.839844 183.085938 260.949219 183.300781 261.195312 183.449219 C 261.800781 183.816406 263.171875 184.410156 265.316406 185.230469 L 272.464844 187.976562 C 274.609375 188.800781 276.027344 189.273438 276.722656 189.410156 C 277 189.464844 277.226562 189.375 277.398438 189.140625 C 277.484375 189.019531 277.730469 188.503906 278.140625 187.609375 L 278.324219 187.527344 L 279.246094 187.878906 L 279.316406 188.058594 C 278.933594 188.898438 278.59375 189.699219 278.296875 190.472656 C 277.828125 191.691406 277.46875 192.710938 277.214844 193.535156 C 271.644531 195.117188 265.546875 197.148438 258.921875 199.628906 L 266.828125 202.664062 C 268.972656 203.484375 270.394531 203.960938 271.082031 204.09375 C 271.363281 204.148438 271.585938 204.058594 271.761719 203.824219 C 271.847656 203.703125 272.09375 203.195312 272.503906 202.300781 L 272.6875 202.214844 L 273.605469 202.566406 L 273.679688 202.753906 C 273.238281 203.734375 272.839844 204.683594 272.492188 205.597656 C 272.042969 206.761719 271.671875 207.8125 271.371094 208.761719 L 271.191406 208.851562 Z M 245.816406 225.855469 L 245.753906 225.648438 C 245.949219 225.066406 245.960938 224.660156 245.800781 224.449219 C 245.636719 224.226562 244.832031 223.667969 243.390625 222.765625 C 242.695312 222.332031 241.988281 221.9375 241.269531 221.578125 C 241.945312 218.203125 242.980469 215.398438 244.371094 213.171875 C 246.199219 210.242188 248.503906 208.382812 251.277344 207.601562 C 254.050781 206.8125 256.855469 207.304688 259.683594 209.074219 C 263.371094 211.375 265.003906 214.621094 264.578125 218.800781 C 264.378906 220.714844 263.578125 222.800781 262.167969 225.0625 C 261.347656 226.371094 260.378906 227.609375 259.253906 228.773438 C 258.324219 229.726562 257.511719 230.433594 256.808594 230.878906 L 256.519531 230.851562 C 255.933594 230.1875 254.789062 229.230469 253.09375 227.976562 L 253.054688 227.765625 L 253.515625 227.027344 L 253.714844 226.984375 C 253.867188 227.082031 254.199219 227.265625 254.707031 227.535156 C 255.214844 227.804688 255.582031 227.980469 255.808594 228.054688 C 256.527344 228 257.324219 227.644531 258.214844 226.996094 C 259.152344 226.289062 259.964844 225.390625 260.636719 224.308594 C 262.449219 221.414062 262.527344 218.683594 260.882812 216.117188 C 260.117188 214.9375 259.023438 213.898438 257.597656 213.007812 C 255.324219 211.585938 253.058594 211.015625 250.800781 211.289062 C 248.460938 211.578125 246.660156 212.734375 245.398438 214.757812 C 244.730469 215.824219 244.304688 217.003906 244.144531 218.289062 C 244.683594 218.703125 245.449219 219.222656 246.445312 219.847656 C 247.257812 220.351562 247.765625 220.628906 247.972656 220.683594 C 248.132812 220.714844 248.328125 220.617188 248.550781 220.390625 C 248.734375 220.203125 249.230469 219.550781 250.027344 218.429688 L 250.238281 218.375 L 251.007812 218.855469 L 251.046875 219.066406 C 250.273438 220.238281 249.488281 221.46875 248.679688 222.777344 C 248.21875 223.535156 247.53125 224.667969 246.605469 226.179688 L 246.40625 226.222656 L 245.820312 225.855469 Z M 245.816406 225.855469 "/>
<path style=" stroke:none;fill-rule:nonzero;fill:rgb(7.843138%,38.431373%,67.843139%);fill-opacity:1;" d="M 151 1 L 151.011719 1 C 192.316406 1.003906 229.816406 17.851562 256.988281 45.019531 C 284.148438 72.1875 300.992188 109.679688 301 150.976562 L 301 151.011719 C 300.996094 192.316406 284.148438 229.816406 256.980469 256.988281 C 229.8125 284.148438 192.320312 300.992188 151.023438 301 L 150.988281 301 C 109.683594 300.996094 72.183594 284.148438 45.011719 256.980469 C 17.847656 229.8125 1.007812 192.320312 1 151.023438 L 1 150.988281 C 1.003906 109.683594 17.847656 72.183594 45.019531 45.011719 C 72.1875 17.851562 109.679688 1.007812 150.976562 1 Z M 151.011719 6.335938 L 150.976562 6.335938 C 111.152344 6.339844 74.996094 22.589844 48.792969 48.789062 C 22.589844 74.988281 6.339844 111.15625 6.335938 150.988281 L 6.335938 151.023438 C 6.339844 190.847656 22.589844 227.007812 48.789062 253.207031 C 74.988281 279.410156 111.15625 295.660156 150.992188 295.664062 L 151.023438 295.664062 C 190.84375 295.660156 227.007812 279.414062 253.207031 253.214844 C 279.410156 227.011719 295.660156 190.84375 295.664062 151.011719 L 295.664062 150.976562 C 295.65625 111.152344 279.414062 74.996094 253.214844 48.796875 C 227.011719 22.589844 190.84375 6.339844 151.011719 6.335938 Z M 151 49.492188 C 206.910156 49.492188 252.507812 95.089844 252.507812 151 C 252.507812 206.910156 206.910156 252.511719 151 252.511719 C 95.089844 252.511719 49.488281 206.910156 49.488281 151 C 49.488281 95.089844 95.089844 49.492188 151 49.492188 "/>
<path style=" stroke:none;fill-rule:evenodd;fill:rgb(7.843138%,38.431373%,67.843139%);fill-opacity:1;" d="M 73.851562 240 C 76.773438 240 79.140625 242.367188 79.140625 245.289062 C 79.140625 248.210938 76.773438 250.582031 73.851562 250.582031 C 70.929688 250.582031 68.558594 248.210938 68.558594 245.289062 C 68.558594 242.367188 70.929688 240 73.851562 240 "/>
<path style=" stroke:none;fill-rule:evenodd;fill:rgb(7.843138%,38.431373%,67.843139%);fill-opacity:1;" d="M 228.148438 240 C 231.070312 240 233.4375 242.367188 233.4375 245.289062 C 233.4375 248.210938 231.070312 250.582031 228.148438 250.582031 C 225.226562 250.582031 222.855469 248.210938 222.855469 245.289062 C 222.855469 242.367188 225.226562 240 228.148438 240 "/>
<path style=" stroke:none;fill-rule:evenodd;fill:rgb(100%,100%,100%);fill-opacity:1;" d="M 180.117188 72.800781 C 185.226562 72.800781 189.476562 75.449219 192.554688 78.894531 C 195.730469 82.222656 197.390625 88.042969 196.222656 93.03125 C 192.832031 89.953125 188.398438 89.738281 184.179688 91.214844 L 186.027344 93.863281 L 189.382812 91.613281 C 190.152344 92.9375 191.386719 93.648438 191.109375 95.433594 C 193.511719 94.480469 196.160156 96.757812 194.929688 98.511719 C 197.667969 97.621094 198.347656 99.929688 198.070312 100.851562 C 199.578125 100.761719 200.964844 101.960938 200.5625 103.65625 C 202.316406 103.285156 202.808594 104.855469 202.535156 106.578125 C 200.839844 110.738281 198.808594 114.21875 193.078125 115.695312 L 196.222656 117.234375 C 194.433594 122.039062 191.234375 126.167969 187.660156 127.519531 C 194.898438 134.355469 199.300781 142.886719 199.609375 156.960938 C 199.699219 162.042969 198.253906 171.496094 193.449219 175.21875 C 199.085938 176.789062 204.78125 182.765625 204.597656 190.679688 C 204.535156 193.203125 203.886719 195.851562 202.65625 198.839844 C 199.363281 206.691406 191.046875 207.339844 184.488281 206.136719 C 177.46875 204.90625 171.863281 201.027344 165.089844 203.890625 C 162.59375 205.335938 159.574219 208.078125 156.1875 206.078125 C 153.171875 203.984375 152.460938 202.660156 151.230469 199.425781 C 149.96875 202.535156 149.136719 203.675781 146.394531 205.738281 C 143.222656 208.171875 139.160156 205.859375 137.25 203.890625 C 129.921875 198.472656 122.097656 206.078125 115.046875 206.507812 C 101.992188 208.140625 97.339844 199.761719 97.402344 191.265625 C 97.433594 183.84375 101.035156 176.207031 108.550781 176.144531 C 106.300781 173.527344 103.683594 169.800781 102.820312 164.351562 C 100.390625 149.507812 101.992188 140.238281 115.386719 126.6875 C 112.492188 125.425781 108.855469 122.808594 106.179688 116.835938 C 110.859375 114.003906 111.472656 112.523438 111.566406 112.183594 C 107.253906 108.273438 105.132812 102.207031 106.453125 96.171875 C 106.824219 94.539062 107.5625 93.523438 108.671875 92.476562 C 109.472656 92.105469 111.011719 91.675781 111.566406 92.878906 C 112.800781 91.367188 114.953125 91.308594 115.910156 92.785156 C 117.109375 91.308594 118.988281 91.460938 120.160156 93.09375 C 120.683594 91.460938 124.285156 91.058594 124.347656 94.972656 C 125.207031 92.847656 128.257812 92.230469 129.921875 92.445312 C 129.582031 93.308594 129.121094 93.863281 129.183594 95.277344 C 129.304688 97.773438 129.148438 100.113281 129.273438 102.421875 L 131.152344 102.421875 C 131.398438 95.125 133.492188 88.996094 143.253906 84.53125 C 145.808594 83.390625 148.582031 82.929688 151.476562 81.082031 C 154.25 82.808594 157.050781 83.207031 159.574219 84.53125 C 170.261719 90.230469 171.429688 94.570312 171.707031 102.300781 L 178.238281 102.945312 C 177.867188 100.820312 178.730469 100.082031 181.191406 97.925781 L 170.691406 85.054688 L 175.34375 81.144531 L 179.378906 85.363281 C 181.039062 83.453125 182.148438 79.359375 181.378906 76.527344 C 181.191406 75.417969 181.285156 74.152344 180.117188 72.800781 Z M 131.828125 148.859375 C 133.03125 148.859375 134.015625 147.875 134.015625 146.675781 C 134.015625 145.472656 133.03125 144.457031 131.828125 144.457031 C 130.628906 144.457031 129.613281 145.472656 129.613281 146.675781 C 129.613281 147.875 130.628906 148.859375 131.828125 148.859375 Z M 145.347656 110.582031 C 146.734375 110.890625 147.628906 112.984375 147.503906 114.246094 C 145.101562 114.402344 142.390625 114.402344 140.757812 113.601562 C 139.804688 112.925781 139.097656 111.414062 139.128906 110.367188 C 140.757812 110.367188 144.394531 110.277344 145.347656 110.582031 Z M 157.757812 110.582031 C 156.375 110.890625 155.449219 112.984375 155.601562 114.246094 C 157.972656 114.402344 160.714844 114.402344 162.347656 113.601562 C 163.300781 112.925781 164.011719 111.414062 163.949219 110.367188 C 162.347656 110.367188 158.683594 110.277344 157.757812 110.582031 Z M 169.613281 143.378906 C 169.089844 144.550781 165.886719 147.074219 164.71875 147.90625 C 163.054688 147.597656 162.285156 147.503906 160.898438 146.675781 C 162.964844 145.75 164.71875 143.839844 165.640625 142.242188 C 166.628906 142.949219 168.257812 143.226562 169.613281 143.378906 Z M 164.042969 141.5625 C 162.59375 143.53125 160.589844 144.917969 158.992188 145.84375 C 154.957031 143.78125 157.050781 135.25 157.140625 133.832031 C 159.234375 137.652344 161.976562 140.117188 164.042969 141.5625 Z M 161.144531 129.027344 C 163.394531 133.648438 165.734375 137.898438 168.691406 141.933594 C 164.472656 141.6875 159.390625 134.941406 158.28125 131.738281 C 158.003906 130.847656 159.757812 128.96875 161.144531 129.027344 Z M 142.328125 131.339844 L 138.265625 135.710938 L 136.140625 134.296875 L 139.992188 127.613281 C 141.097656 128.136719 142.328125 129.429688 142.328125 131.339844 Z M 197.082031 152.25 C 197.761719 164.933594 195.265625 174.140625 183.75 178.699219 C 178.605469 180.703125 172.046875 176.730469 170.507812 172.480469 C 171.1875 172.355469 172.507812 172.453125 173.125 171.433594 C 174.757812 173.3125 176.574219 173.375 178.484375 171.679688 C 181.164062 173.648438 183.195312 172.632812 184.058594 171.679688 C 185.226562 172.726562 187.289062 173.3125 188.953125 172.265625 C 190.984375 171.433594 192.371094 167.308594 189.816406 165.367188 C 191.539062 164.195312 190.984375 161.269531 191.507812 159.824219 L 180.640625 159.761719 C 180.640625 152.308594 181.253906 143.316406 178.574219 140.117188 L 178.050781 157.945312 C 176.914062 152.402344 172.015625 149.355469 167.582031 148.460938 C 171.769531 145.996094 179.070312 132.449219 178.945312 125.054688 C 191.476562 131.09375 196.527344 142.085938 197.082031 152.25 Z M 176.542969 124.503906 C 177.34375 130.96875 172.292969 139.191406 170.539062 142.148438 C 169.832031 141.40625 168.84375 139.867188 168.230469 138.421875 C 171 134.851562 173.308594 129 173.679688 123.734375 Z M 168.042969 122.53125 L 171.121094 123.269531 C 171.121094 127.089844 169.277344 133.863281 167.089844 136.757812 C 165.917969 134.140625 163.484375 130.414062 162.808594 127.335938 L 167.980469 122.53125 C 167.980469 122.53125 168.042969 122.53125 168.042969 122.53125 Z M 134.632812 122.164062 C 136.046875 124.007812 136.910156 124.472656 138.265625 125.488281 L 133.308594 134.816406 L 138.574219 137.929688 L 142.667969 133.804688 C 142.761719 146.582031 143.933594 149.539062 147.136719 152.09375 C 140.207031 154.988281 133.339844 160.871094 128.320312 166.875 L 128.503906 153.570312 C 127.117188 153.078125 124.714844 153.664062 124.007812 154.867188 L 124.253906 139.746094 C 121.234375 144.027344 121.882812 150.617188 121.699219 153.910156 L 113.628906 153.945312 L 113.628906 158.4375 C 112.460938 158.808594 111.230469 158.40625 110.394531 159.640625 C 108.796875 161.550781 109.378906 163.367188 110.765625 164.105469 C 108.425781 164.90625 109.347656 168.261719 110.644531 168.601562 C 108.671875 168.816406 109.503906 171.066406 109.871094 172.113281 C 105.375 166.445312 104.882812 159.054688 104.914062 151.417969 C 105.808594 142.550781 111.136719 133.3125 119.636719 127.367188 C 124.777344 124.351562 128.8125 123.027344 134.632812 122.164062 Z M 180.484375 108.121094 C 184.089844 112.183594 189.078125 115.972656 192.585938 117.390625 C 195.234375 119.484375 189.96875 123.484375 185.320312 125.242188 C 179.746094 122.410156 176.511719 121.117188 170.230469 119.328125 C 172.167969 115.542969 172.449219 110.554688 171.984375 105.5625 C 175.25 105.503906 178.113281 105.441406 180.484375 108.121094 Z M 130.875 105.75 C 131.335938 109.78125 130.382812 114.648438 133.0625 119.328125 C 126.902344 120.992188 122.039062 122.007812 118.1875 125.121094 C 115.136719 125.121094 107.316406 118.28125 109.660156 117.019531 C 113.691406 115.140625 117.601562 110.152344 121.605469 107.996094 C 125.609375 105.8125 127.671875 105.6875 130.875 105.75 Z M 151.476562 101.40625 L 153.785156 103.71875 L 151.476562 106.085938 L 149.136719 103.71875 Z M 200.070312 107.65625 C 199.332031 109.074219 198.5625 109.476562 197.144531 110.183594 C 195.757812 110.738281 194.710938 109.382812 195.574219 108.613281 L 199.117188 105.75 C 200.378906 104.855469 201.238281 105.78125 200.070312 107.65625 Z M 198.097656 104.792969 L 194.496094 107.597656 C 193.296875 108.582031 191.847656 106.917969 192.988281 105.902344 L 196.835938 102.855469 C 198.097656 102.175781 199.300781 103.5625 198.097656 104.792969 Z M 192.894531 99.191406 L 189.292969 101.992188 C 188.058594 103.007812 186.613281 101.316406 187.785156 100.296875 L 191.632812 97.28125 C 192.894531 96.574219 194.09375 97.988281 192.894531 99.191406 Z M 195.574219 101.992188 L 191.972656 104.824219 C 190.738281 105.78125 189.292969 104.117188 190.460938 103.101562 L 194.3125 100.082031 C 195.574219 99.40625 196.773438 100.792969 195.574219 101.992188 Z M 185.378906 101.34375 C 185.042969 102.855469 186.058594 104.609375 188.183594 103.960938 C 187.136719 106.242188 190 107.410156 190.984375 106.949219 C 190.402344 108.488281 192.03125 110.582031 193.695312 109.628906 C 193.386719 111.476562 194.742188 111.355469 195.976562 111.660156 C 195.019531 112.707031 191.664062 113.570312 190.246094 113.171875 C 187.136719 111.601562 184.734375 107.75 182.363281 105.75 C 181.53125 104.484375 181.253906 102.855469 181.839844 101.46875 C 184.179688 99.25 185.964844 97.066406 188.398438 95.496094 C 189.324219 98.453125 185.933594 98.914062 185.378906 101.34375 Z M 126.070312 95.554688 L 126.535156 102.421875 C 122.4375 102.421875 116.308594 107.78125 113.628906 110.246094 C 110.152344 108.519531 108.640625 103.71875 108.425781 101.285156 C 109.164062 102.363281 109.472656 101.839844 109.964844 101.960938 C 111.042969 101.59375 111.351562 101.34375 111.8125 100.390625 C 112.089844 101.34375 112.152344 101.839844 113.628906 101.960938 C 114.429688 101.683594 115.507812 101.683594 115.753906 100.484375 C 116.0625 101.625 116.246094 101.839844 117.570312 101.898438 C 118.433594 101.808594 119.265625 101.53125 119.542969 100.269531 C 119.972656 101.316406 120.496094 101.777344 121.945312 101.898438 C 122.777344 101.652344 123.699219 101.039062 123.882812 100.113281 C 124.253906 98.082031 124.347656 96.695312 126.007812 95.496094 C 126.007812 95.496094 126.070312 95.554688 126.070312 95.554688 Z M 122.929688 95.433594 L 122.898438 99.160156 C 122.527344 101.007812 120.773438 101.070312 120.3125 99.007812 L 120.3125 95.464844 C 120.402344 93.492188 122.679688 93.675781 122.929688 95.4375 Z M 118.988281 95.433594 L 118.988281 99.160156 C 118.585938 101.007812 116.863281 101.070312 116.371094 99.007812 L 116.371094 95.464844 C 116.492188 93.492188 118.773438 93.675781 118.988281 95.4375 Z M 115.015625 95.433594 L 114.984375 99.160156 C 114.582031 101.007812 112.859375 101.070312 112.367188 99.007812 L 112.367188 95.464844 C 112.488281 93.492188 114.765625 93.675781 115.015625 95.4375 Z M 110.890625 95.371094 L 110.890625 99.5 C 110.488281 100.914062 108.949219 100.667969 108.519531 99.3125 C 108.363281 97.375 108.578125 97.433594 108.886719 95.710938 C 109.195312 94.109375 110.394531 93.675781 110.890625 95.371094 Z M 159.484375 87.578125 C 163.546875 92.078125 163.640625 95.710938 163.609375 102.421875 L 168.753906 102.421875 C 168.351562 93.738281 167.335938 91.335938 159.484375 87.578125 Z M 143.777344 87.578125 C 139.683594 92.078125 139.589844 95.710938 139.652344 102.421875 L 134.507812 102.421875 C 134.910156 93.738281 135.894531 91.335938 143.777344 87.578125 Z M 153.171875 84.933594 C 153.171875 93.152344 152.894531 98.144531 154.464844 100.882812 C 155.234375 101.808594 155.941406 102.117188 157.203125 102.421875 L 160.46875 102.421875 C 160.28125 91.277344 158.21875 88.105469 153.171875 84.933594 Z M 150.058594 84.933594 C 150.058594 93.152344 150.335938 98.144531 148.796875 100.882812 C 147.996094 101.808594 147.320312 102.117188 146.058594 102.421875 L 142.792969 102.421875 C 142.976562 91.277344 145.039062 88.105469 150.058594 84.933594 Z M 194.464844 89.179688 C 191.941406 87.703125 185.8125 86.59375 180.609375 90.476562 L 184.089844 95.15625 L 182.609375 96.542969 L 173.679688 85.425781 L 175.21875 84.195312 L 179.128906 88.628906 C 183.316406 85.179688 184.332031 81.328125 183.902344 76.433594 C 187.535156 77.542969 193.601562 80.835938 194.464844 89.179688 Z M 151.351562 224.675781 C 148.675781 221.441406 146.394531 220.394531 139.621094 219.71875 C 133.121094 219.070312 121.019531 219.410156 113.074219 219.164062 C 107.378906 218.980469 103.683594 217.039062 103.066406 211.003906 C 107.410156 214.453125 117.171875 212.695312 126.65625 212.667969 C 137.496094 212.605469 148.582031 211.773438 151.351562 217.347656 C 154.09375 211.773438 165.179688 212.605469 176.019531 212.667969 C 185.503906 212.699219 195.296875 214.453125 199.640625 211.003906 C 199.023438 217.039062 195.296875 218.980469 189.597656 219.164062 C 181.65625 219.410156 169.550781 219.070312 163.054688 219.71875 C 156.28125 220.394531 154 221.441406 151.351562 224.675781 Z M 151.351562 229.203125 C 147.597656 218.546875 120.4375 224.859375 112.089844 222.765625 C 100.265625 219.777344 101.46875 212.726562 99.835938 205.644531 C 107.132812 213.3125 118.035156 209.339844 129.027344 209.339844 C 137.125 209.339844 147.628906 208.109375 151.351562 212.667969 C 155.046875 208.109375 165.550781 209.339844 173.648438 209.339844 C 184.640625 209.339844 194.003906 213.34375 202.195312 205.644531 C 201.457031 212.082031 202.132812 221.164062 190.585938 222.765625 C 182.054688 223.9375 155.078125 218.546875 151.351562 229.203125 Z M 155.757812 181.902344 C 155.449219 182.980469 155.355469 184.152344 156.402344 185.011719 C 154.957031 186.460938 155.355469 188.460938 156.527344 189.941406 C 155.140625 191.265625 155.234375 193.972656 156.558594 195.144531 C 155.234375 196.316406 155.082031 198.5625 156.710938 200.164062 C 155.972656 200.871094 155.851562 201.796875 155.851562 202.75 C 153.203125 199.425781 153.019531 193.972656 153.019531 192.125 C 153.019531 190.957031 152.925781 184.796875 155.757812 181.902344 Z M 146.425781 181.933594 C 146.734375 183.011719 146.796875 184.152344 145.78125 185.015625 C 147.195312 186.460938 146.796875 188.464844 145.625 189.941406 C 147.011719 191.265625 146.949219 193.976562 145.59375 195.144531 C 146.945312 196.316406 147.101562 198.566406 145.46875 200.164062 C 146.207031 200.875 146.578125 201.765625 146.578125 202.722656 C 149.226562 199.394531 149.164062 193.976562 149.164062 192.128906 C 149.164062 190.988281 149.257812 184.859375 146.421875 181.933594 Z M 187.230469 170.941406 C 188.429688 170.941406 189.414062 169.957031 189.414062 168.753906 C 189.414062 167.554688 188.429688 166.539062 187.230469 166.539062 C 186.027344 166.539062 185.011719 167.554688 185.011719 168.753906 C 185.011719 169.957031 186.027344 170.941406 187.230469 170.941406 Z M 181.53125 170.941406 C 182.734375 170.941406 183.75 169.957031 183.75 168.753906 C 183.75 167.554688 182.734375 166.539062 181.53125 166.539062 C 180.332031 166.539062 179.34375 167.554688 179.34375 168.753906 C 179.34375 169.957031 180.332031 170.941406 181.53125 170.941406 Z M 175.898438 170.941406 C 177.097656 170.941406 178.082031 169.957031 178.082031 168.753906 C 178.082031 167.554688 177.097656 166.539062 175.898438 166.539062 C 174.695312 166.539062 173.679688 167.554688 173.679688 168.753906 C 173.679688 169.957031 174.695312 170.941406 175.898438 170.941406 Z M 170.042969 170.941406 C 171.246094 170.941406 172.261719 169.957031 172.261719 168.753906 C 172.261719 167.554688 171.246094 166.539062 170.042969 166.539062 C 168.84375 166.539062 167.859375 167.554688 167.859375 168.753906 C 167.859375 169.957031 168.84375 170.941406 170.042969 170.941406 Z M 151.476562 172.359375 C 152.675781 172.359375 153.695312 171.375 153.695312 170.171875 C 153.695312 168.972656 152.675781 167.953125 151.476562 167.953125 C 150.277344 167.953125 149.289062 168.972656 149.289062 170.171875 C 149.289062 171.375 150.277344 172.359375 151.476562 172.359375 Z M 142.949219 184.367188 C 144.148438 184.367188 145.164062 183.382812 145.164062 182.183594 C 145.164062 180.980469 144.148438 179.996094 142.949219 179.996094 C 141.746094 179.996094 140.789062 180.980469 140.789062 182.183594 C 140.789062 183.382812 141.746094 184.367188 142.949219 184.367188 Z M 159.605469 184.429688 C 160.804688 184.429688 161.792969 183.445312 161.792969 182.242188 C 161.792969 181.042969 160.804688 180.054688 159.605469 180.054688 C 158.40625 180.054688 157.421875 181.042969 157.421875 182.242188 C 157.421875 183.445312 158.40625 184.429688 159.605469 184.429688 Z M 142.949219 189.355469 C 144.148438 189.355469 145.164062 188.402344 145.164062 187.199219 C 145.164062 186 144.148438 185.015625 142.949219 185.015625 C 141.746094 185.015625 140.789062 186 140.789062 187.199219 C 140.789062 188.402344 141.746094 189.355469 142.949219 189.355469 Z M 159.605469 189.542969 C 160.804688 189.542969 161.792969 188.554688 161.792969 187.355469 C 161.792969 186.152344 160.804688 185.167969 159.605469 185.167969 C 158.40625 185.167969 157.421875 186.152344 157.421875 187.355469 C 157.421875 188.554688 158.40625 189.542969 159.605469 189.542969 Z M 142.949219 194.746094 C 144.148438 194.746094 145.164062 193.730469 145.164062 192.527344 C 145.164062 191.328125 144.148438 190.375 142.949219 190.375 C 141.746094 190.375 140.789062 191.328125 140.789062 192.527344 C 140.789062 193.730469 141.746094 194.746094 142.949219 194.746094 Z M 159.605469 194.652344 C 160.804688 194.652344 161.792969 193.667969 161.792969 192.46875 C 161.792969 191.265625 160.804688 190.28125 159.605469 190.28125 C 158.40625 190.28125 157.421875 191.265625 157.421875 192.46875 C 157.421875 193.667969 158.40625 194.652344 159.605469 194.652344 Z M 142.949219 199.949219 C 144.148438 199.949219 145.164062 198.964844 145.164062 197.761719 C 145.164062 196.5625 144.148438 195.578125 142.949219 195.578125 C 141.746094 195.578125 140.789062 196.5625 140.789062 197.761719 C 140.789062 198.964844 141.746094 199.949219 142.949219 199.949219 Z M 159.605469 199.828125 C 160.804688 199.828125 161.792969 198.839844 161.792969 197.640625 C 161.792969 196.441406 160.804688 195.453125 159.605469 195.453125 C 158.40625 195.453125 157.421875 196.441406 157.421875 197.640625 C 157.421875 198.839844 158.40625 199.828125 159.605469 199.828125 Z M 142.976562 204.691406 C 144.023438 204.691406 144.886719 203.800781 144.886719 202.753906 C 144.886719 201.707031 144.023438 200.8125 142.976562 200.8125 C 141.929688 200.8125 141.039062 201.707031 141.039062 202.753906 C 141.039062 203.800781 141.929688 204.691406 142.976562 204.691406 Z M 159.574219 204.570312 C 160.652344 204.570312 161.515625 203.707031 161.515625 202.628906 C 161.515625 201.550781 160.652344 200.71875 159.574219 200.71875 C 158.496094 200.71875 157.636719 201.550781 157.636719 202.628906 C 157.636719 203.707031 158.496094 204.570312 159.574219 204.570312 Z M 129.765625 91.371094 C 130.96875 91.371094 131.984375 90.382812 131.984375 89.183594 C 131.984375 87.984375 130.96875 86.964844 129.765625 86.964844 C 128.566406 86.964844 127.582031 87.984375 127.582031 89.183594 C 127.582031 90.382812 128.566406 91.371094 129.765625 91.371094 Z M 129.488281 85.796875 C 130.691406 85.796875 131.675781 84.78125 131.675781 83.578125 C 131.675781 82.378906 130.691406 81.390625 129.488281 81.390625 C 128.289062 81.390625 127.273438 82.378906 127.273438 83.578125 C 127.273438 84.78125 128.289062 85.796875 129.488281 85.796875 Z M 126.59375 80.46875 C 127.796875 80.46875 128.8125 79.484375 128.8125 78.28125 C 128.8125 77.082031 127.796875 76.066406 126.59375 76.066406 C 125.394531 76.066406 124.410156 77.082031 124.410156 78.28125 C 124.410156 79.484375 125.394531 80.46875 126.59375 80.46875 Z M 121.453125 78.003906 C 122.652344 78.003906 123.667969 76.988281 123.667969 75.789062 C 123.667969 74.585938 122.652344 73.601562 121.453125 73.601562 C 120.25 73.601562 119.265625 74.585938 119.265625 75.789062 C 119.265625 76.988281 120.25 78.003906 121.453125 78.003906 Z M 115.078125 77.757812 C 116.277344 77.757812 117.292969 76.773438 117.292969 75.574219 C 117.292969 74.371094 116.277344 73.355469 115.078125 73.355469 C 113.875 73.355469 112.890625 74.371094 112.890625 75.574219 C 112.890625 76.773438 113.875 77.757812 115.078125 77.757812 Z M 109.871094 81.117188 C 111.074219 81.117188 112.058594 80.101562 112.058594 78.898438 C 112.058594 77.699219 111.074219 76.710938 109.871094 76.710938 C 108.671875 76.710938 107.65625 77.699219 107.65625 78.898438 C 107.65625 80.101562 108.671875 81.117188 109.871094 81.117188 Z M 106.609375 86.105469 C 107.808594 86.105469 108.824219 85.085938 108.824219 83.886719 C 108.824219 82.6875 107.808594 81.703125 106.609375 81.703125 C 105.40625 81.703125 104.421875 82.6875 104.421875 83.886719 C 104.421875 85.085938 105.40625 86.105469 106.609375 86.105469 Z M 106.945312 91.925781 C 108.148438 91.925781 109.136719 90.9375 109.136719 89.738281 C 109.136719 88.535156 108.148438 87.519531 106.945312 87.519531 C 105.746094 87.519531 104.730469 88.535156 104.730469 89.738281 C 104.730469 90.9375 105.746094 91.925781 106.945312 91.925781 Z M 119.726562 179.410156 L 119.726562 184.523438 C 117.511719 182.675781 117.203125 181.933594 116.773438 179.472656 Z M 191.476562 177.191406 C 204.320312 178.792969 205.582031 200.71875 191.632812 203.828125 C 182.085938 205.308594 173.21875 195.730469 163.238281 202.042969 C 163.457031 201.398438 162.714844 200.597656 162.164062 200.320312 C 163.792969 198.75 163.855469 196.53125 162.378906 195.144531 C 163.886719 194.070312 164.042969 191.171875 162.472656 189.789062 C 164.011719 188.464844 163.855469 186 162.5625 184.859375 C 162.992188 184.554688 163.640625 184.308594 163.792969 183.320312 C 166.535156 186.769531 174.019531 186.585938 181.039062 181.628906 C 185.78125 181.503906 189.632812 179.441406 191.476562 177.191406 Z M 113.816406 179.101562 C 114.769531 183.167969 118.15625 186.644531 121.945312 187.878906 L 121.972656 182.214844 C 126.285156 184.800781 133.734375 186.460938 138.726562 183.261719 C 138.785156 183.96875 139.339844 184.492188 140.050781 184.832031 C 138.324219 186.308594 138.601562 188.339844 140.050781 189.789062 C 138.511719 190.867188 138.632812 193.882812 140.140625 194.960938 C 138.632812 196.222656 138.078125 198.902344 140.324219 200.472656 C 139.679688 200.628906 139.0625 201.152344 139.09375 202.351562 C 128.53125 192.621094 117.078125 207.25 105.929688 202.597656 C 95.984375 196.960938 100.386719 173.898438 113.8125 179.101562 Z M 119.050781 173.589844 C 121.851562 173.25 121.175781 176.824219 119.171875 176.484375 L 113.566406 176.484375 C 111.351562 176.730469 110.457031 173.46875 113.351562 173.589844 Z M 119.265625 169.246094 C 122.066406 168.941406 121.390625 172.511719 119.390625 172.171875 L 113.785156 172.171875 C 111.566406 172.390625 110.675781 169.15625 113.566406 169.246094 Z M 119.265625 165 C 122.066406 164.691406 121.390625 168.261719 119.390625 167.925781 L 113.785156 167.925781 C 111.566406 168.140625 110.675781 164.90625 113.566406 165 Z M 119.265625 160.65625 C 122.066406 160.347656 121.390625 163.890625 119.390625 163.582031 L 113.785156 163.582031 C 111.566406 163.796875 110.675781 160.566406 113.566406 160.65625 Z M 188.09375 162.75 C 188.335938 163.152344 188 164.042969 187.691406 164.476562 C 186.214844 164.320312 185.042969 164.382812 184.273438 165.859375 C 183.566406 164.476562 179.835938 164.320312 178.667969 165.859375 C 177.003906 164.261719 174.355469 164.105469 173.1875 166.136719 C 172.507812 165.308594 171.648438 164.691406 170.601562 164.660156 C 169.984375 164.320312 169.859375 163.367188 169.832031 162.75 Z M 156.003906 155.699219 C 158.375 156.992188 166.351562 158.039062 166.996094 160.78125 L 167.457031 164.84375 C 166.628906 165.675781 165.734375 167.121094 165.734375 168.726562 C 166.535156 174.144531 171.554688 178.855469 175.464844 180.917969 C 173.03125 182.550781 168.167969 183.90625 165.304688 180.917969 C 163.394531 178.300781 158.898438 177.164062 156.617188 178.792969 C 152.863281 181.441406 152.308594 182.121094 151.230469 185.90625 C 150.460938 183.167969 149.011719 179.257812 146.027344 178.703125 C 143.902344 177.4375 140.699219 177.871094 137.464844 180.640625 C 135.125 182.644531 133.183594 182.304688 131.089844 181.84375 C 131.304688 179.839844 131.859375 174.605469 133.121094 172.605469 C 137.835938 164.535156 147.84375 159.703125 156.003906 155.699219 Z M 126.070312 157.390625 C 125.421875 163.488281 128.566406 169.554688 122.53125 176.421875 C 123.453125 174.515625 122.714844 173.191406 121.605469 172.820312 C 123.207031 171.710938 123.699219 169.679688 122.039062 168.476562 C 123.328125 167.617188 123.390625 164.96875 121.976562 164.199219 C 123.824219 162.65625 122.375 159.886719 124.347656 158.53125 C 124.929688 157.855469 125.394531 157.515625 126.007812 157.390625 C 126.007812 157.390625 126.070312 157.390625 126.070312 157.390625 Z M 149.199219 153.421875 L 152.402344 154.835938 C 147.628906 157.421875 142.855469 159.734375 138.789062 163.273438 C 133 167.554688 128.71875 177.746094 127.796875 181.503906 C 126.625 181.597656 125.792969 181.042969 124.746094 180.148438 C 125.023438 170.292969 134.878906 160.625 141.039062 157.238281 C 143.683594 155.730469 146.148438 154.4375 149.199219 153.421875 Z M 116 155.761719 L 119.695312 155.761719 L 119.695312 158.101562 L 116 158.101562 Z M 143.933594 105.78125 C 149.597656 105.78125 151.476562 108.523438 151.476562 110.125 C 151.476562 108.523438 153.570312 105.78125 159.390625 105.78125 L 168.628906 105.78125 C 169.277344 109.199219 168.875 113.324219 167.644531 117.207031 C 165.304688 121.765625 160.46875 123.917969 156.957031 127.800781 C 153.570312 132.601562 154.15625 142.242188 155.171875 144.765625 C 156.617188 148.402344 162.007812 150.371094 165.332031 150.402344 C 168.660156 150.429688 176.140625 152.527344 176.113281 159.761719 L 169.492188 159.734375 C 167.765625 154.039062 153.355469 155.949219 146.671875 147.292969 C 143.871094 141.566406 146.734375 134.269531 144.671875 128.355469 C 142.023438 123.398438 139.34375 124.96875 135.710938 117.238281 C 134.355469 114.5 133.800781 110.464844 134.355469 105.785156 L 143.933594 105.785156 Z M 143.933594 105.78125 "/>
<path style=" stroke:none;fill-rule:nonzero;fill:rgb(7.843138%,38.431373%,67.843139%);fill-opacity:1;" d="M 120.15625 282.417969 L 119.945312 282.546875 C 118.597656 282.070312 116.933594 281.542969 114.949219 280.976562 C 113.019531 280.421875 110.972656 279.882812 108.8125 279.355469 L 108.695312 279.148438 L 108.953125 278.25 L 109.171875 278.15625 C 109.691406 278.238281 110.191406 278.332031 110.667969 278.429688 C 111.53125 278.597656 112.097656 278.671875 112.363281 278.640625 C 112.550781 278.609375 112.742188 278.46875 112.945312 278.21875 C 113.261719 277.8125 113.886719 275.976562 114.824219 272.707031 L 115.875 269.050781 C 116.1875 267.949219 116.566406 266.554688 117.007812 264.859375 L 117.300781 263.746094 C 117.441406 263.253906 117.40625 262.980469 117.199219 262.921875 C 117.113281 262.894531 116.789062 262.925781 116.234375 263.011719 C 114.714844 263.246094 113.40625 263.453125 112.3125 263.652344 L 112.167969 263.5 C 112.269531 262.921875 112.339844 262.269531 112.390625 261.542969 L 112.441406 261.429688 C 115.363281 261.4375 118.683594 261.285156 122.394531 260.960938 L 122.640625 261.265625 C 122.433594 261.835938 122.136719 262.675781 121.738281 263.796875 C 121.589844 264.214844 121.226562 265.367188 120.65625 267.238281 L 118.957031 273.003906 C 117.773438 277.136719 117.199219 279.382812 117.253906 279.722656 C 117.28125 279.976562 117.390625 280.160156 117.574219 280.257812 C 117.902344 280.464844 118.792969 280.816406 120.261719 281.320312 L 120.410156 281.519531 L 120.152344 282.417969 Z M 146.277344 273.589844 C 146.042969 276.285156 145.367188 278.46875 144.242188 280.15625 C 143.066406 281.929688 141.589844 283.289062 139.820312 284.238281 C 137.992188 285.214844 136.050781 285.613281 133.984375 285.429688 L 132.871094 284.332031 L 133.285156 283.773438 C 133.582031 283.914062 133.953125 283.996094 134.402344 284.035156 C 135.984375 284.175781 137.421875 283.710938 138.71875 282.636719 C 139.230469 282.210938 139.726562 281.621094 140.203125 280.859375 C 140.960938 279.667969 141.570312 277.882812 142.023438 275.507812 C 140.390625 276.765625 139.484375 277.398438 139.308594 277.40625 C 138.617188 277.589844 137.886719 277.648438 137.117188 277.582031 C 135.761719 277.460938 134.703125 276.867188 133.9375 275.800781 C 133.113281 274.652344 132.789062 273.15625 132.953125 271.304688 C 133.210938 268.339844 134.445312 266.234375 136.648438 264.996094 C 137.695312 264.414062 138.9375 264.179688 140.375 264.308594 C 143.101562 264.546875 144.929688 265.980469 145.855469 268.613281 C 146.3125 269.910156 146.457031 271.570312 146.277344 273.589844 Z M 142.4375 271.675781 C 142.601562 269.796875 142.449219 268.378906 141.980469 267.429688 C 141.507812 266.476562 140.804688 265.957031 139.859375 265.875 C 138.6875 265.773438 137.84375 266.339844 137.3125 267.574219 C 137.03125 268.234375 136.851562 269.027344 136.773438 269.949219 C 136.632812 271.527344 136.816406 272.761719 137.320312 273.652344 C 137.796875 274.496094 138.507812 274.957031 139.4375 275.039062 C 140.640625 275.140625 141.488281 274.679688 141.988281 273.644531 C 142.210938 273.171875 142.363281 272.515625 142.4375 271.675781 Z M 170.265625 281.328125 C 170.25 282.523438 170.335938 283.65625 170.515625 284.714844 L 170.351562 284.941406 C 167.550781 285.078125 165.261719 285.21875 163.480469 285.378906 C 161.617188 285.539062 159.421875 285.785156 156.878906 286.105469 L 156.664062 285.941406 L 156.546875 284.554688 L 159.378906 281.113281 C 161.496094 278.542969 162.855469 276.609375 163.464844 275.320312 C 163.816406 274.558594 164.054688 273.878906 164.171875 273.273438 C 164.292969 272.65625 164.324219 272.019531 164.269531 271.351562 C 164.054688 268.921875 162.835938 267.808594 160.609375 268 C 159.371094 268.109375 158.425781 268.667969 157.777344 269.675781 C 157.703125 270.121094 157.574219 270.902344 157.378906 272.015625 L 157.226562 272.179688 L 156.359375 272.257812 L 156.195312 272.121094 L 156.3125 266.976562 C 157.480469 265.589844 159.207031 264.789062 161.496094 264.589844 C 163.535156 264.414062 165.160156 264.808594 166.359375 265.78125 C 167.46875 266.660156 168.097656 267.910156 168.238281 269.53125 C 168.296875 270.191406 168.273438 270.804688 168.167969 271.375 C 167.949219 272.542969 167.410156 273.75 166.535156 274.988281 C 165.804688 276.027344 164.6875 277.402344 163.183594 279.125 C 162.628906 279.765625 161.800781 280.710938 160.679688 281.96875 L 160.726562 282.164062 L 163.429688 281.929688 C 164.207031 281.859375 164.953125 281.78125 165.644531 281.703125 L 168.277344 281.390625 C 168.945312 281.3125 169.527344 281.238281 170.023438 281.148438 L 170.269531 281.328125 Z M 191.617188 268.222656 C 192.71875 272.066406 193.023438 274.949219 192.535156 276.882812 C 191.945312 279.25 190.457031 280.773438 188.074219 281.460938 C 185.769531 282.117188 183.832031 281.710938 182.261719 280.230469 C 180.96875 279.007812 179.832031 276.691406 178.851562 273.285156 C 178.082031 270.597656 177.742188 268.414062 177.835938 266.730469 C 177.910156 265.183594 178.375 263.859375 179.210938 262.773438 C 180.019531 261.730469 181.128906 261.011719 182.542969 260.605469 C 184.742188 259.976562 186.527344 260.1875 187.875 261.238281 C 189.363281 262.390625 190.613281 264.722656 191.617188 268.222656 Z M 188.671875 271.671875 C 187.574219 267.84375 186.511719 265.171875 185.484375 263.664062 C 184.660156 262.453125 183.710938 262.003906 182.632812 262.3125 C 181.632812 262.601562 181.066406 263.316406 180.9375 264.457031 C 180.796875 265.664062 181.097656 267.570312 181.847656 270.179688 C 182.785156 273.453125 183.699219 275.898438 184.582031 277.511719 C 185.011719 278.28125 185.375 278.816406 185.683594 279.117188 C 186.40625 279.828125 187.183594 280.058594 188.015625 279.820312 C 189.425781 279.414062 189.960938 278.082031 189.625 275.824219 C 189.445312 274.644531 189.128906 273.261719 188.671875 271.671875 "/>
</g>
</svg>
