<?xml version="1.0" encoding="UTF-8"?>
<svg xmlns="http://www.w3.org/2000/svg" xmlns:xlink="http://www.w3.org/1999/xlink" width="216.036453" height="302.010437" viewBox="0 0 216.036453 302.010437" version="1.1">
<g id="surface1">
<path style=" stroke:none;fill-rule:nonzero;fill:rgb(0%,14.901961%,32.941177%);fill-opacity:1;" d="M 103.917969 17.972656 L 105.28125 17.972656 C 105.53125 17.945312 105.65625 18.113281 105.691406 18.464844 L 105.925781 34.792969 C 105.925781 35.144531 105.828125 35.324219 105.558594 35.359375 L 104.21875 35.359375 C 104.042969 35.363281 104.015625 35.449219 104.015625 35.582031 L 104.042969 36.519531 C 104.042969 36.660156 104.109375 36.738281 104.21875 36.738281 L 111.121094 36.640625 C 111.265625 36.640625 111.359375 36.519531 111.359375 36.425781 L 111.34375 35.449219 C 111.34375 35.324219 111.214844 35.207031 111.121094 35.207031 L 109.777344 35.28125 C 109.464844 35.28125 109.375 35.121094 109.375 34.75 L 109.019531 18.410156 C 109.019531 18.058594 109.171875 17.890625 109.464844 17.890625 L 110.8125 17.890625 C 110.957031 17.890625 111.035156 17.78125 111.035156 17.597656 L 110.988281 16.699219 C 110.988281 16.566406 110.90625 16.46875 110.78125 16.46875 L 103.910156 16.605469 C 103.722656 16.605469 103.691406 16.699219 103.691406 16.824219 L 103.722656 17.78125 C 103.722656 17.894531 103.753906 17.972656 103.917969 17.972656 "/>
<path style=" stroke:none;fill-rule:nonzero;fill:rgb(0%,14.901961%,32.941177%);fill-opacity:1;" d="M 114.8125 36.519531 L 120.910156 38.441406 C 121.078125 38.484375 121.136719 38.414062 121.15625 38.316406 L 121.457031 37.371094 C 121.496094 37.261719 121.496094 37.152344 121.324219 37.121094 L 120.53125 36.859375 C 120.21875 36.738281 120.175781 36.574219 120.253906 36.261719 L 122.03125 30.378906 L 123.558594 29.371094 L 125.425781 37.84375 C 125.511719 38.171875 125.34375 38.34375 125.019531 38.253906 L 124.207031 37.96875 C 124.105469 37.957031 124.058594 38.007812 124.011719 38.171875 L 123.703125 39.078125 C 123.6875 39.175781 123.703125 39.308594 123.796875 39.339844 L 130 41.261719 C 130.152344 41.300781 130.238281 41.261719 130.265625 41.097656 L 130.515625 40.15625 C 130.589844 40.066406 130.5625 39.9375 130.449219 39.9375 L 129.875 39.769531 C 129.46875 39.628906 129.28125 39.308594 129.167969 38.796875 L 126.542969 27.488281 L 133.332031 23.0625 C 133.628906 22.859375 133.808594 22.800781 134.140625 22.886719 L 135.125 23.238281 C 135.246094 23.25 135.339844 23.183594 135.371094 23.0625 L 135.644531 22.125 C 135.675781 22.03125 135.644531 21.886719 135.527344 21.886719 L 130.152344 20.207031 C 130 20.160156 129.925781 20.21875 129.875 20.386719 L 129.621094 21.238281 C 129.589844 21.386719 129.621094 21.519531 129.699219 21.527344 L 130.949219 21.886719 C 131.214844 21.996094 131.214844 22.261719 130.953125 22.375 L 122.769531 27.890625 L 124.988281 20.597656 C 125.089844 20.292969 125.230469 20.160156 125.542969 20.21875 L 126.816406 20.660156 C 126.972656 20.699219 127.058594 20.597656 127.097656 20.503906 L 127.359375 19.558594 C 127.421875 19.453125 127.359375 19.339844 127.234375 19.3125 L 120.640625 17.261719 C 120.515625 17.214844 120.441406 17.289062 120.386719 17.425781 L 120.125 18.328125 C 120.074219 18.464844 120.089844 18.5625 120.21875 18.613281 L 121.496094 19.015625 C 121.800781 19.066406 121.886719 19.261719 121.800781 19.605469 L 117.035156 35.25 C 116.949219 35.578125 116.761719 35.675781 116.53125 35.613281 L 115.238281 35.207031 C 115.09375 35.160156 114.972656 35.207031 114.957031 35.363281 L 114.667969 36.261719 C 114.621094 36.425781 114.667969 36.519531 114.8125 36.519531 "/>
<path style=" stroke:none;fill-rule:nonzero;fill:rgb(0%,14.901961%,32.941177%);fill-opacity:1;" d="M 79.796875 23.65625 L 81.125 23.246094 C 81.34375 23.160156 81.515625 23.285156 81.628906 23.613281 L 86.394531 39.253906 C 86.464844 39.59375 86.394531 39.769531 86.140625 39.894531 L 84.839844 40.246094 C 84.707031 40.308594 84.675781 40.394531 84.707031 40.535156 L 84.980469 41.421875 C 85.003906 41.574219 85.113281 41.644531 85.246094 41.597656 L 90.488281 39.980469 C 90.621094 39.9375 90.621094 39.816406 90.59375 39.714844 L 90.375 38.796875 C 90.28125 38.644531 90.207031 38.613281 90.0625 38.625 L 88.828125 39.027344 C 88.511719 39.125 88.347656 39 88.253906 38.671875 L 84.300781 25.578125 L 91.378906 33.109375 C 92.972656 34.75 94.480469 36.457031 95.96875 38.09375 C 96.003906 38.171875 96.144531 38.234375 96.199219 38.171875 L 99.324219 37.261719 C 99.5 37.203125 99.5 37.121094 99.46875 36.972656 L 94.246094 19.71875 C 94.171875 19.386719 94.246094 19.199219 94.503906 19.105469 L 95.8125 18.699219 C 95.9375 18.652344 95.96875 18.5625 95.90625 18.410156 L 95.621094 17.546875 C 95.566406 17.375 95.519531 17.339844 95.390625 17.375 L 90.09375 19 C 90.058594 19.015625 90.019531 19.105469 90.058594 19.25 L 90.296875 20.160156 C 90.375 20.292969 90.449219 20.386719 90.558594 20.339844 L 91.832031 19.933594 C 92.140625 19.828125 92.3125 19.933594 92.441406 20.292969 L 96.390625 33.347656 L 89.160156 25.730469 C 87.640625 24.097656 86.078125 22.375 84.769531 20.890625 C 84.675781 20.761719 84.582031 20.699219 84.5 20.75 L 79.402344 22.308594 C 79.28125 22.347656 79.214844 22.453125 79.28125 22.5625 L 79.542969 23.480469 C 79.589844 23.613281 79.691406 23.699219 79.796875 23.65625 "/>
<path style=" stroke:none;fill-rule:nonzero;fill:rgb(0%,14.901961%,32.941177%);fill-opacity:1;" d="M 107.449219 15.015625 C 108.3125 15.015625 108.894531 14.265625 108.875 13.277344 C 108.800781 12.34375 108.167969 11.65625 107.285156 11.65625 C 106.441406 11.65625 105.824219 12.417969 105.863281 13.347656 C 105.925781 14.328125 106.625 15.066406 107.449219 15.015625 "/>
<path style=" stroke:none;fill-rule:nonzero;fill:rgb(0%,14.901961%,32.941177%);fill-opacity:1;" d="M 19.464844 115.5 L 20.378906 115.683594 C 20.5625 115.730469 20.640625 115.683594 20.644531 115.550781 L 20.96875 114.238281 C 21.027344 113.933594 21.21875 113.816406 21.515625 113.90625 L 32.792969 116.542969 C 37.847656 117.699219 39.847656 115.988281 40.753906 111.894531 C 41.65625 107.902344 40.394531 105.355469 35.402344 104.21875 L 24.347656 101.625 C 24.003906 101.535156 23.84375 101.378906 23.933594 101.105469 L 24.207031 99.875 C 24.28125 99.753906 24.207031 99.703125 24.058594 99.667969 L 23.15625 99.449219 C 23.003906 99.410156 22.925781 99.449219 22.878906 99.582031 L 21.707031 104.871094 C 21.644531 104.953125 21.722656 105.003906 21.871094 105.042969 L 22.78125 105.261719 C 22.925781 105.300781 23.003906 105.261719 23.03125 105.125 L 23.324219 103.902344 C 23.390625 103.640625 23.542969 103.542969 23.933594 103.59375 L 35.011719 106.21875 C 38.238281 106.964844 39.609375 108.300781 39.078125 110.855469 C 38.472656 113.480469 36.703125 113.957031 33.453125 113.21875 L 22.3125 110.640625 C 21.941406 110.550781 21.871094 110.347656 21.917969 110.0625 L 22.171875 108.75 C 22.207031 108.644531 22.171875 108.503906 22.03125 108.480469 L 21.109375 108.265625 C 21.011719 108.214844 20.941406 108.304688 20.871094 108.425781 L 19.347656 115.25 C 19.285156 115.363281 19.355469 115.4375 19.464844 115.5 "/>
<path style=" stroke:none;fill-rule:nonzero;fill:rgb(0%,14.901961%,32.941177%);fill-opacity:1;" d="M 58.828125 37.84375 C 58.90625 37.96875 58.996094 38.003906 59.113281 37.921875 L 60.199219 37.121094 C 60.390625 36.941406 60.625 36.980469 60.847656 37.261719 L 70.578125 50.3125 C 70.75 50.582031 70.75 50.824219 70.546875 50.96875 L 69.46875 51.792969 C 69.339844 51.90625 69.347656 51.972656 69.449219 52.089844 L 69.980469 52.855469 C 70.078125 52.96875 70.160156 53 70.246094 52.921875 L 75.375 49.042969 C 75.496094 48.921875 75.496094 48.859375 75.40625 48.75 L 74.847656 47.949219 C 74.765625 47.859375 74.636719 47.808594 74.5625 47.894531 L 73.902344 48.421875 C 73.652344 48.574219 73.425781 48.535156 73.222656 48.261719 L 69.582031 43.394531 L 69.675781 41.511719 L 77.574219 45.035156 C 77.878906 45.113281 77.910156 45.355469 77.640625 45.535156 L 76.972656 46.09375 C 76.875 46.125 76.875 46.214844 76.972656 46.347656 L 77.519531 47.105469 C 77.613281 47.203125 77.699219 47.238281 77.8125 47.167969 L 83.015625 43.234375 C 83.09375 43.152344 83.050781 43.078125 83.015625 42.933594 L 82.433594 42.203125 C 82.386719 42.078125 82.277344 42.03125 82.15625 42.113281 L 81.722656 42.46875 C 81.34375 42.714844 80.972656 42.714844 80.546875 42.542969 L 69.921875 37.96875 L 70.394531 29.796875 C 70.394531 29.515625 70.449219 29.300781 70.6875 29.078125 L 71.558594 28.4375 C 71.640625 28.347656 71.640625 28.25 71.558594 28.160156 L 71.011719 27.386719 C 70.921875 27.296875 70.839844 27.253906 70.707031 27.332031 L 66.175781 30.800781 C 66.082031 30.84375 66.128906 30.933594 66.175781 31.0625 L 66.746094 31.824219 C 66.824219 31.941406 66.9375 31.941406 67.019531 31.894531 L 68.0625 31.113281 C 68.261719 30.933594 68.484375 31.101562 68.40625 31.363281 L 68.0625 41.300781 L 63.519531 35.207031 C 63.296875 34.925781 63.296875 34.707031 63.535156 34.527344 L 64.644531 33.707031 C 64.722656 33.613281 64.722656 33.527344 64.667969 33.390625 L 64.082031 32.644531 C 63.984375 32.582031 63.886719 32.542969 63.78125 32.628906 L 58.269531 36.808594 C 58.152344 36.890625 58.152344 36.980469 58.269531 37.121094 Z M 58.828125 37.84375 "/>
<path style=" stroke:none;fill-rule:nonzero;fill:rgb(0%,14.901961%,32.941177%);fill-opacity:1;" d="M 25.089844 96.253906 C 25.25 96.300781 25.359375 96.296875 25.410156 96.167969 L 25.832031 94.855469 C 25.894531 94.578125 26.097656 94.488281 26.4375 94.589844 L 41.734375 99.921875 C 42.058594 100.035156 42.136719 100.222656 42.078125 100.480469 L 41.605469 101.792969 C 41.566406 101.9375 41.640625 102.003906 41.800781 102.0625 L 42.671875 102.402344 C 42.796875 102.402344 42.925781 102.402344 42.925781 102.238281 L 47.167969 89.75 L 40.890625 87.152344 C 40.761719 87.09375 40.667969 87.113281 40.59375 87.238281 L 39.957031 89.222656 C 39.902344 89.339844 39.957031 89.4375 40.09375 89.484375 L 42.988281 90.613281 C 44.339844 91.160156 44.859375 91.417969 43.828125 94.328125 L 43.003906 96.796875 L 27.511719 91.417969 C 27.183594 91.300781 27.113281 91.113281 27.183594 90.816406 L 27.988281 88.472656 C 28.027344 88.34375 27.988281 88.253906 27.859375 88.183594 L 26.964844 87.890625 C 26.84375 87.84375 26.703125 87.890625 26.667969 88.03125 L 24.078125 95.652344 C 24.003906 95.808594 24.078125 95.902344 24.214844 95.941406 Z M 25.089844 96.253906 "/>
<path style=" stroke:none;fill-rule:nonzero;fill:rgb(0%,14.901961%,32.941177%);fill-opacity:1;" d="M 154.394531 52.578125 L 162.261719 44.332031 C 162.519531 44.125 162.730469 44.074219 162.902344 44.285156 L 163.828125 45.125 C 163.902344 45.234375 164 45.191406 164.097656 45.125 L 164.777344 44.386719 C 164.828125 44.300781 164.828125 44.21875 164.796875 44.125 L 160.921875 40.371094 C 160.824219 40.308594 160.777344 40.316406 160.644531 40.390625 L 160.019531 41.125 C 159.894531 41.214844 159.894531 41.304688 159.953125 41.382812 L 160.878906 42.257812 C 161.089844 42.476562 161.089844 42.714844 160.824219 42.933594 L 152.894531 51.21875 C 150.613281 53.664062 148.769531 54.140625 146.875 52.355469 C 144.972656 50.484375 145.453125 48.6875 147.769531 46.261719 L 155.71875 37.933594 C 155.972656 37.6875 156.15625 37.664062 156.386719 37.886719 L 157.316406 38.796875 C 157.433594 38.921875 157.605469 38.921875 157.671875 38.796875 L 158.296875 38.109375 C 158.394531 38.007812 158.394531 37.921875 158.296875 37.828125 L 153.316406 32.976562 C 153.25 32.875 153.144531 32.890625 153.027344 32.976562 L 152.394531 33.652344 C 152.308594 33.785156 152.308594 33.839844 152.394531 33.992188 L 153.316406 34.929688 C 153.527344 35.121094 153.527344 35.359375 153.308594 35.578125 L 145.261719 43.953125 C 141.671875 47.765625 142.089844 50.359375 145.121094 53.308594 C 148.03125 56.140625 150.855469 56.304688 154.394531 52.578125 "/>
<path style=" stroke:none;fill-rule:nonzero;fill:rgb(0%,14.901961%,32.941177%);fill-opacity:1;" d="M 44.574219 54.59375 C 44.734375 54.675781 44.808594 54.675781 44.890625 54.59375 L 45.746094 53.53125 C 45.894531 53.308594 46.144531 53.261719 46.378906 53.53125 L 58.996094 63.824219 C 59.261719 63.996094 59.292969 64.261719 59.109375 64.464844 L 58.269531 65.53125 C 58.183594 65.628906 58.183594 65.738281 58.285156 65.824219 L 59.042969 66.421875 C 59.136719 66.480469 59.261719 66.511719 59.347656 66.421875 L 67.691406 55.96875 C 67.753906 55.871094 67.753906 55.730469 67.660156 55.671875 L 63.738281 52.355469 C 63.613281 52.277344 63.519531 52.28125 63.417969 52.40625 L 61.972656 54.175781 C 61.9375 54.277344 61.9375 54.359375 62.019531 54.453125 L 63.324219 55.503906 C 64.464844 56.40625 64.515625 57.167969 63.78125 58.136719 L 61.21875 61.269531 L 55.238281 56.355469 L 56.449219 54.855469 C 56.859375 54.359375 57.199219 54.34375 57.765625 54.8125 L 58.652344 55.503906 C 58.746094 55.589844 58.828125 55.589844 58.90625 55.503906 L 60.019531 54.089844 C 60.113281 53.988281 60.074219 53.875 59.9375 53.824219 C 58.421875 52.628906 56.902344 51.375 55.417969 50.0625 C 55.285156 49.9375 55.160156 49.9375 55.136719 50.039062 L 53.984375 51.5 C 53.902344 51.585938 53.984375 51.675781 54.015625 51.773438 L 54.933594 52.457031 C 55.472656 52.945312 55.546875 53.257812 55.136719 53.785156 L 53.902344 55.308594 L 48.402344 50.757812 L 50.894531 47.582031 C 51.734375 46.558594 52.421875 46.558594 53.5 47.492188 L 54.8125 48.535156 C 54.933594 48.621094 54.988281 48.621094 55.074219 48.535156 L 56.519531 46.742188 C 56.589844 46.636719 56.589844 46.523438 56.488281 46.441406 L 52.355469 43.222656 C 52.253906 43.132812 52.171875 43.144531 52.074219 43.253906 C 50.730469 44.933594 49.886719 46.179688 48.660156 47.632812 L 43.828125 53.695312 C 43.734375 53.820312 43.761719 53.914062 43.859375 53.992188 Z M 44.574219 54.59375 "/>
<path style=" stroke:none;fill-rule:nonzero;fill:rgb(0%,14.901961%,32.941177%);fill-opacity:1;" d="M 38.3125 73.949219 C 38.441406 74.011719 38.46875 74.011719 38.589844 73.921875 L 39.691406 71.933594 C 39.75 71.8125 39.75 71.730469 39.609375 71.652344 L 37.988281 70.71875 C 36.738281 69.96875 36.480469 69.285156 37.125 68.183594 L 37.910156 66.871094 L 52.078125 75.140625 C 52.355469 75.28125 52.425781 75.511719 52.253906 75.785156 L 51.082031 77.910156 C 51.015625 78.011719 51.082031 78.078125 51.175781 78.140625 L 51.996094 78.625 C 52.128906 78.691406 52.234375 78.691406 52.253906 78.609375 L 56.753906 70.71875 C 56.855469 70.609375 56.828125 70.515625 56.683594 70.417969 L 55.886719 69.941406 C 55.753906 69.894531 55.625 69.894531 55.574219 70.015625 L 54.402344 72.109375 C 54.207031 72.378906 54.015625 72.378906 53.78125 72.238281 L 39.535156 63.964844 L 40.285156 62.625 C 40.925781 61.558594 41.640625 61.402344 42.925781 62.152344 L 44.484375 63.058594 C 44.636719 63.128906 44.734375 63.128906 44.78125 63.003906 L 45.894531 61.046875 C 45.96875 60.90625 45.96875 60.828125 45.828125 60.730469 L 41.0625 58.097656 C 40.941406 58.058594 40.847656 58.058594 40.761719 58.183594 C 39.75 60.105469 39.253906 61.046875 38.3125 62.71875 L 36.238281 66.421875 C 35.253906 68.058594 34.808594 68.8125 33.542969 70.824219 C 33.496094 70.964844 33.496094 71.050781 33.613281 71.097656 Z M 38.3125 73.949219 "/>
<path style=" stroke:none;fill-rule:nonzero;fill:rgb(0%,14.901961%,32.941177%);fill-opacity:1;" d="M 185.707031 82.203125 L 186.386719 83.984375 C 186.402344 84.113281 186.542969 84.113281 186.671875 84.066406 L 187.59375 83.746094 C 187.6875 83.683594 187.765625 83.605469 187.6875 83.46875 L 185.144531 76.808594 C 185.097656 76.6875 185.027344 76.652344 184.886719 76.691406 L 183.984375 77.027344 C 183.863281 77.105469 183.816406 77.1875 183.863281 77.285156 L 184.140625 78.046875 C 184.261719 78.296875 184.113281 78.488281 183.863281 78.699219 L 172 87.78125 C 171.09375 88.433594 170.011719 89.292969 168.953125 89.917969 C 168.808594 89.964844 168.808594 90.027344 168.839844 90.125 L 169.9375 92.996094 C 169.953125 93.128906 170.09375 93.160156 170.191406 93.136719 C 172.546875 92.703125 174.269531 92.613281 176.347656 92.4375 L 188.722656 91.421875 C 189.03125 91.378906 189.222656 91.421875 189.332031 91.707031 L 189.609375 92.511719 C 189.699219 92.652344 189.769531 92.660156 189.886719 92.613281 L 190.769531 92.261719 C 190.933594 92.207031 190.980469 92.148438 190.933594 92.011719 L 189.089844 87.152344 C 189.03125 87.023438 188.910156 87.011719 188.8125 87.023438 L 187.933594 87.390625 C 187.765625 87.4375 187.765625 87.527344 187.765625 87.664062 L 188.324219 88.996094 C 188.417969 89.292969 188.285156 89.4375 187.933594 89.484375 L 173.203125 91.078125 L 185.125 82.058594 C 185.386719 81.84375 185.625 81.882812 185.707031 82.203125 "/>
<path style=" stroke:none;fill-rule:nonzero;fill:rgb(0%,14.901961%,32.941177%);fill-opacity:1;" d="M 190.84375 96.574219 L 191.152344 97.90625 C 191.246094 98.167969 191.105469 98.355469 190.769531 98.441406 L 175.078125 102.402344 C 174.730469 102.472656 174.558594 102.402344 174.511719 102.082031 L 174.152344 100.777344 C 174.152344 100.628906 174.035156 100.574219 173.910156 100.628906 L 172.988281 100.855469 C 172.863281 100.90625 172.8125 100.957031 172.816406 101.105469 L 176.019531 114.136719 C 176.082031 114.269531 176.152344 114.328125 176.324219 114.269531 L 181.261719 113.125 C 181.402344 113.046875 181.433594 112.964844 181.421875 112.828125 L 180.890625 110.597656 C 180.839844 110.5 180.777344 110.464844 180.605469 110.5 L 179.019531 110.855469 C 177.628906 111.226562 176.984375 110.855469 176.652344 109.671875 L 175.71875 105.746094 L 183.207031 103.839844 L 183.671875 105.746094 C 183.816406 106.371094 183.640625 106.628906 182.90625 106.8125 L 181.875 107.066406 C 181.707031 107.128906 181.667969 107.171875 181.707031 107.304688 L 182.136719 109.054688 C 182.167969 109.234375 182.292969 109.242188 182.386719 109.234375 C 184.261719 108.644531 186.144531 108.175781 188.058594 107.773438 C 188.203125 107.746094 188.285156 107.6875 188.265625 107.539062 L 187.765625 105.742188 C 187.765625 105.691406 187.6875 105.613281 187.59375 105.691406 L 186.480469 105.910156 C 185.746094 106.097656 185.46875 105.9375 185.332031 105.335938 L 184.839844 103.40625 L 191.769531 101.675781 L 192.765625 105.640625 C 193.042969 106.898438 192.625 107.445312 191.246094 107.816406 L 189.691406 108.210938 C 189.519531 108.210938 189.464844 108.300781 189.488281 108.425781 L 190.03125 110.648438 C 190.121094 110.796875 190.183594 110.855469 190.269531 110.820312 L 195.296875 109.457031 C 195.46875 109.410156 195.535156 109.324219 195.503906 109.1875 C 194.957031 107.066406 194.488281 105.640625 194.066406 103.757812 L 192.152344 96.242188 C 192.152344 96.082031 192.050781 96.023438 191.941406 96.082031 L 190.980469 96.300781 C 190.878906 96.34375 190.8125 96.453125 190.84375 96.570312 "/>
<path style=" stroke:none;fill-rule:nonzero;fill:rgb(0%,14.901961%,32.941177%);fill-opacity:1;" d="M 195.082031 114.1875 L 195.261719 115.550781 C 195.296875 115.824219 195.160156 115.984375 194.855469 116.042969 L 178.84375 118.589844 C 178.535156 118.644531 178.355469 118.550781 178.324219 118.28125 L 178.066406 116.921875 C 178.058594 116.78125 178.015625 116.734375 177.84375 116.75 L 176.910156 116.863281 C 176.75 116.921875 176.703125 117 176.730469 117.136719 L 177.828125 124.011719 C 177.828125 124.144531 177.9375 124.234375 178.058594 124.1875 L 178.988281 124.046875 C 179.136719 124.046875 179.191406 123.957031 179.183594 123.832031 L 178.988281 122.464844 C 178.894531 122.1875 179.0625 121.980469 179.371094 121.96875 L 186.75 120.777344 L 186.996094 122.277344 C 184.386719 124.269531 181.355469 126.152344 178.5 127.59375 C 178.425781 127.644531 178.394531 127.734375 178.394531 127.863281 L 179.019531 131.90625 C 179.0625 132.058594 179.183594 132.082031 179.296875 132.082031 L 180.199219 131.90625 C 180.386719 131.90625 180.453125 131.808594 180.421875 131.6875 L 180.28125 131.015625 C 180.261719 130.6875 180.386719 130.511719 180.636719 130.378906 C 183.207031 128.933594 185.878906 127.003906 187.761719 125.410156 C 188.527344 127.144531 190.34375 128.84375 193.511719 128.300781 C 198.207031 127.5625 198.144531 124.917969 197.582031 121.0625 L 196.4375 113.957031 C 196.402344 113.816406 196.34375 113.816406 196.207031 113.816406 L 195.234375 113.957031 C 195.160156 114.019531 195.019531 114.058594 195.082031 114.1875 M 195.761719 119.777344 L 195.9375 120.917969 C 196.34375 123.191406 195.984375 124.34375 192.941406 124.832031 C 189.574219 125.371094 188.722656 123.390625 188.441406 121.738281 L 188.285156 120.527344 L 195.191406 119.40625 C 195.5625 119.34375 195.722656 119.453125 195.761719 119.777344 "/>
<path style=" stroke:none;fill-rule:nonzero;fill:rgb(0%,14.901961%,32.941177%);fill-opacity:1;" d="M 198.566406 149.183594 C 198.4375 149.183594 198.296875 149.261719 198.296875 149.390625 L 198.296875 150.761719 C 198.296875 151.035156 198.144531 151.199219 197.824219 151.199219 L 181.644531 151.199219 C 181.328125 151.199219 181.191406 151.035156 181.191406 150.761719 L 181.191406 149.390625 C 181.191406 149.261719 181.066406 149.183594 180.921875 149.183594 L 179.953125 149.183594 C 179.824219 149.183594 179.761719 149.261719 179.761719 149.390625 L 179.761719 156.402344 C 179.761719 156.496094 179.824219 156.578125 179.953125 156.578125 L 180.921875 156.578125 C 181.066406 156.578125 181.191406 156.496094 181.191406 156.402344 L 181.191406 155.046875 C 181.191406 154.71875 181.328125 154.582031 181.644531 154.582031 L 197.824219 154.582031 C 198.144531 154.582031 198.296875 154.71875 198.296875 155.046875 L 198.296875 156.402344 C 198.296875 156.496094 198.4375 156.578125 198.566406 156.578125 L 199.449219 156.578125 C 199.597656 156.578125 199.71875 156.496094 199.71875 156.402344 L 199.71875 149.390625 C 199.71875 149.261719 199.597656 149.183594 199.449219 149.183594 Z M 198.566406 149.183594 "/>
<path style=" stroke:none;fill-rule:nonzero;fill:rgb(0%,14.901961%,32.941177%);fill-opacity:1;" d="M 187.980469 139.613281 C 186.910156 142.394531 186.027344 143.074219 184.140625 143.160156 C 182.535156 143.25 180.808594 142.78125 180.691406 140.4375 C 180.5625 138.035156 182.214844 137.09375 184.921875 137.253906 C 185.046875 137.292969 185.125 137.207031 185.125 137.0625 L 184.953125 134.324219 C 184.953125 134.238281 184.886719 134.15625 184.738281 134.15625 C 180.46875 133.925781 178.988281 136.292969 179.183594 140.332031 C 179.46875 145.121094 181.738281 146.800781 185.386719 146.578125 C 188.417969 146.417969 190.121094 144.667969 191.527344 140.511719 C 192.511719 137.886719 193.277344 137.519531 195.058594 137.433594 C 197 137.34375 197.96875 138.160156 198.109375 139.871094 C 198.207031 142.066406 196.519531 142.707031 194.160156 142.609375 C 194 142.570312 193.910156 142.65625 193.910156 142.808594 L 194.066406 145.511719 C 194.066406 145.589844 194.199219 145.667969 194.324219 145.6875 C 198.515625 145.933594 199.777344 143.722656 199.582031 139.832031 C 199.40625 136.238281 197.582031 133.839844 194.011719 134.019531 C 190.671875 134.191406 189.378906 135.589844 187.980469 139.613281 "/>
<path style=" stroke:none;fill-rule:nonzero;fill:rgb(0%,14.901961%,32.941177%);fill-opacity:1;" d="M 164.34375 39.332031 C 164.953125 38.644531 164.988281 37.6875 164.425781 37.121094 C 163.796875 36.519531 162.871094 36.609375 162.183594 37.28125 C 161.542969 37.96875 161.488281 38.9375 162.089844 39.59375 C 162.691406 40.121094 163.667969 40.03125 164.34375 39.332031 "/>
<path style=" stroke:none;fill-rule:nonzero;fill:rgb(0%,14.901961%,32.941177%);fill-opacity:1;" d="M 160.46875 35.535156 C 161.089844 34.84375 161.121094 33.910156 160.542969 33.308594 C 159.894531 32.71875 158.957031 32.808594 158.296875 33.484375 C 157.609375 34.140625 157.605469 35.121094 158.21875 35.707031 C 158.847656 36.3125 159.734375 36.261719 160.46875 35.535156 "/>
<path style=" stroke:none;fill-rule:nonzero;fill:rgb(0%,14.901961%,32.941177%);fill-opacity:1;" d="M 154.765625 60.644531 C 154.496094 60.796875 154.269531 60.785156 154.121094 60.535156 L 153.316406 59.417969 C 153.285156 59.324219 153.15625 59.324219 153.027344 59.386719 L 152.246094 59.964844 C 152.144531 60.058594 152.144531 60.105469 152.175781 60.234375 L 155.347656 64.773438 C 155.417969 64.890625 155.535156 64.882812 155.636719 64.835938 L 156.386719 64.289062 C 156.535156 64.203125 156.574219 64.089844 156.496094 63.992188 L 155.71875 62.871094 C 155.558594 62.625 155.636719 62.414062 155.894531 62.242188 L 166.980469 54.359375 L 162.089844 63.511719 C 161.019531 65.570312 159.894531 67.542969 158.785156 69.460938 C 158.703125 69.554688 158.703125 69.652344 158.785156 69.734375 L 160.644531 72.453125 C 160.777344 72.554688 160.824219 72.554688 160.96875 72.464844 L 175.582031 62.152344 C 175.808594 61.9375 176.082031 61.9375 176.25 62.242188 L 176.984375 63.289062 C 177.082031 63.414062 177.171875 63.414062 177.25 63.320312 L 178.058594 62.78125 C 178.1875 62.714844 178.207031 62.601562 178.152344 62.496094 L 175.003906 57.953125 C 174.910156 57.871094 174.816406 57.871094 174.71875 57.953125 L 173.933594 58.515625 C 173.84375 58.570312 173.75 58.6875 173.84375 58.75 L 174.652344 59.898438 C 174.816406 60.140625 174.730469 60.371094 174.480469 60.527344 L 163.402344 68.386719 L 168.339844 59.136719 C 169.40625 57.152344 170.53125 55.101562 171.546875 53.390625 C 171.628906 53.261719 171.65625 53.144531 171.621094 53.046875 L 168.566406 48.625 C 168.484375 48.539062 168.363281 48.539062 168.246094 48.625 L 167.480469 49.171875 C 167.355469 49.25 167.332031 49.351562 167.386719 49.453125 L 168.1875 50.585938 C 168.339844 50.824219 168.285156 51.046875 168.027344 51.21875 Z M 154.765625 60.644531 "/>
<path style=" stroke:none;fill-rule:nonzero;fill:rgb(0%,14.901961%,32.941177%);fill-opacity:1;" d="M 179.824219 69.285156 C 179.953125 69.535156 179.863281 69.738281 179.535156 69.894531 L 164.996094 77.027344 C 164.730469 77.1875 164.472656 77.152344 164.355469 76.875 L 163.796875 75.644531 C 163.730469 75.5625 163.628906 75.511719 163.488281 75.578125 L 162.621094 76.003906 C 162.519531 76.046875 162.472656 76.160156 162.546875 76.296875 L 165.550781 82.542969 C 165.59375 82.683594 165.761719 82.703125 165.859375 82.683594 L 166.707031 82.238281 C 166.839844 82.199219 166.878906 82.058594 166.832031 81.925781 L 166.238281 80.730469 C 166.066406 80.441406 166.191406 80.238281 166.453125 80.097656 L 181.019531 72.921875 C 181.328125 72.785156 181.53125 72.839844 181.667969 73.09375 L 182.292969 74.339844 C 182.308594 74.449219 182.433594 74.496094 182.535156 74.402344 L 183.378906 73.984375 C 183.515625 73.945312 183.53125 73.828125 183.5 73.691406 L 180.46875 67.46875 C 180.421875 67.3125 180.296875 67.3125 180.160156 67.378906 L 179.328125 67.765625 C 179.191406 67.839844 179.183594 67.921875 179.214844 68.058594 Z M 179.824219 69.285156 "/>
<path style=" stroke:none;fill-rule:nonzero;fill:rgb(0%,14.901961%,32.941177%);fill-opacity:1;" d="M 185.644531 70.824219 C 186.511719 70.417969 186.855469 69.535156 186.511719 68.78125 C 186.144531 67.953125 185.222656 67.71875 184.386719 68.144531 C 183.53125 68.609375 183.183594 69.511719 183.53125 70.308594 C 183.921875 71.050781 184.839844 71.285156 185.644531 70.824219 "/>
<path style=" stroke:none;fill-rule:nonzero;fill:rgb(0%,14.901961%,32.941177%);fill-opacity:1;" d="M 197.828125 177.5 L 196.910156 177.328125 C 196.777344 177.300781 196.683594 177.339844 196.683594 177.5 L 196.441406 178.832031 C 196.402344 179.125 196.230469 179.222656 195.921875 179.1875 L 179.90625 176.621094 C 179.5625 176.558594 179.46875 176.410156 179.488281 176.136719 L 179.683594 174.765625 C 179.746094 174.644531 179.660156 174.550781 179.488281 174.511719 L 178.535156 174.390625 C 178.457031 174.378906 178.347656 174.421875 178.347656 174.550781 L 176.25 187.84375 C 176.25 187.9375 176.324219 188.015625 176.441406 188.015625 L 181.433594 188.921875 C 181.597656 188.921875 181.707031 188.882812 181.707031 188.746094 L 182.082031 186.472656 C 182.082031 186.386719 182.03125 186.277344 181.875 186.261719 L 180.261719 186.019531 C 178.828125 185.753906 178.394531 185.191406 178.535156 183.9375 L 179.191406 179.910156 L 186.792969 181.167969 L 186.542969 183.09375 C 186.402344 183.75 186.144531 183.917969 185.386719 183.78125 L 184.308594 183.621094 C 184.21875 183.609375 184.113281 183.660156 184.097656 183.75 L 183.816406 185.558594 C 183.785156 185.707031 183.859375 185.746094 183.984375 185.792969 C 185.953125 186.019531 187.863281 186.332031 189.8125 186.699219 C 189.933594 186.738281 190.03125 186.699219 190.03125 186.5625 L 190.316406 184.777344 C 190.316406 184.652344 190.238281 184.558594 190.152344 184.558594 L 189.046875 184.375 C 188.328125 184.238281 188.058594 183.988281 188.191406 183.363281 L 188.527344 181.421875 L 195.558594 182.550781 L 194.9375 186.5625 C 194.699219 187.90625 194.128906 188.21875 192.671875 187.988281 L 191.105469 187.753906 C 190.980469 187.753906 190.84375 187.765625 190.84375 187.886719 L 190.457031 190.15625 C 190.457031 190.277344 190.488281 190.371094 190.65625 190.371094 L 195.828125 191.109375 C 195.9375 191.109375 196.066406 191.0625 196.066406 190.9375 C 196.402344 188.785156 196.535156 187.292969 196.84375 185.417969 L 198.015625 177.683594 C 198.0625 177.605469 197.96875 177.5 197.828125 177.5 "/>
<path style=" stroke:none;fill-rule:nonzero;fill:rgb(0%,14.901961%,32.941177%);fill-opacity:1;" d="M 129.3125 272.199219 C 131.003906 271.714844 132.175781 270.222656 132.175781 268.035156 C 132.175781 264.921875 130.578125 263.347656 127.425781 263.347656 C 124.109375 263.347656 122.042969 264.863281 122.464844 268.84375 C 122.488281 268.9375 122.558594 269.019531 122.609375 269.019531 L 125.230469 269.019531 C 125.34375 269.019531 125.378906 268.9375 125.378906 268.84375 C 125.1875 266.347656 125.816406 264.703125 127.234375 264.703125 C 128.453125 264.703125 129.019531 265.847656 129.019531 268.105469 C 129.019531 270.625 127.761719 271.496094 126.484375 271.496094 L 125.800781 271.496094 C 125.6875 271.496094 125.640625 271.5625 125.640625 271.699219 L 125.640625 272.921875 C 125.640625 273.066406 125.6875 273.125 125.800781 273.125 L 126.660156 273.125 C 128.074219 273.125 129.484375 273.558594 129.484375 276.9375 C 129.484375 279.449219 128.546875 280.722656 127.3125 280.722656 C 125.769531 280.722656 125.1875 279.21875 125.378906 277.003906 C 125.378906 276.878906 125.34375 276.800781 125.230469 276.800781 L 122.609375 276.800781 C 122.558594 276.800781 122.488281 276.878906 122.464844 277.003906 C 122.042969 280.902344 124.183594 282.089844 127.265625 282.089844 C 130.296875 282.089844 132.699219 280.457031 132.699219 276.582031 C 132.699219 273.722656 131.097656 272.40625 129.3125 272.199219 "/>
<path style=" stroke:none;fill-rule:nonzero;fill:rgb(0%,14.901961%,32.941177%);fill-opacity:1;" d="M 199.582031 159.816406 L 194.160156 159.21875 C 194.011719 159.160156 193.910156 159.234375 193.910156 159.386719 L 193.703125 161.625 C 193.703125 161.792969 193.796875 161.863281 193.910156 161.863281 L 195.796875 162.019531 C 197.214844 162.125 197.730469 162.683594 197.609375 163.953125 L 197.515625 165.457031 L 181.191406 164.011719 C 180.839844 163.972656 180.691406 163.796875 180.75 163.535156 L 180.921875 161.097656 C 180.921875 160.984375 180.875 160.894531 180.75 160.894531 L 179.796875 160.8125 C 179.660156 160.8125 179.535156 160.851562 179.535156 160.984375 L 178.730469 170.035156 C 178.730469 170.191406 178.828125 170.253906 178.988281 170.285156 L 179.863281 170.339844 C 180.0625 170.367188 180.089844 170.335938 180.160156 170.191406 L 180.386719 167.722656 C 180.386719 167.46875 180.5625 167.308594 180.890625 167.359375 L 197.207031 168.824219 L 197.066406 170.332031 C 196.972656 171.59375 196.363281 172 194.9375 171.875 L 193.042969 171.78125 C 192.941406 171.730469 192.863281 171.78125 192.832031 171.859375 L 192.625 174.140625 C 192.625 174.28125 192.71875 174.390625 192.832031 174.390625 L 198.277344 174.761719 C 198.4375 174.765625 198.5 174.722656 198.515625 174.597656 C 198.636719 172.417969 198.683594 171.324219 198.84375 169.386719 L 199.207031 165.1875 C 199.390625 163.230469 199.449219 162.378906 199.777344 160.011719 C 199.777344 159.863281 199.71875 159.816406 199.582031 159.816406 "/>
<path style=" stroke:none;fill-rule:nonzero;fill:rgb(0%,14.901961%,32.941177%);fill-opacity:1;" d="M 119.109375 269.453125 L 113.59375 269.453125 C 112.21875 269.453125 110.78125 269.410156 108.964844 269.386719 C 108.875 269.386719 108.808594 269.410156 108.808594 269.550781 L 108.765625 274.96875 C 108.765625 275.089844 108.765625 275.15625 108.875 275.15625 L 110.78125 275.15625 C 110.847656 275.15625 110.90625 275.089844 110.90625 274.96875 L 110.90625 273.464844 C 110.90625 271.890625 111.542969 271.753906 112.394531 271.753906 L 117.277344 271.753906 C 114.667969 277.359375 112.714844 282.050781 110.78125 287.480469 C 110.703125 287.65625 110.847656 287.777344 110.90625 287.777344 L 113.886719 287.777344 C 113.984375 287.777344 114.03125 287.722656 114.03125 287.613281 C 115.144531 282.511719 116.808594 277.296875 119.277344 270.671875 L 119.277344 269.671875 C 119.277344 269.53125 119.238281 269.453125 119.109375 269.453125 "/>
<path style=" stroke:none;fill-rule:nonzero;fill:rgb(0%,14.901961%,32.941177%);fill-opacity:1;" d="M 105.078125 269.453125 L 99.609375 269.453125 C 98.175781 269.453125 96.765625 269.410156 94.941406 269.386719 C 94.847656 269.386719 94.808594 269.410156 94.808594 269.550781 L 94.6875 274.96875 C 94.6875 275.089844 94.765625 275.15625 94.847656 275.15625 L 96.734375 275.15625 C 96.8125 275.15625 96.894531 275.089844 96.894531 274.96875 L 96.894531 273.464844 C 96.894531 271.890625 97.53125 271.753906 98.371094 271.753906 L 103.285156 271.753906 C 100.65625 277.359375 98.699219 282.050781 96.734375 287.480469 C 96.675781 287.65625 96.8125 287.777344 96.894531 287.777344 L 99.84375 287.777344 C 99.957031 287.777344 100 287.722656 100.015625 287.613281 C 101.128906 282.511719 102.765625 277.296875 105.28125 270.671875 L 105.28125 269.671875 C 105.28125 269.53125 105.203125 269.453125 105.078125 269.453125 "/>
<path style=" stroke:none;fill-rule:nonzero;fill:rgb(0%,14.901961%,32.941177%);fill-opacity:1;" d="M 188.722656 212.25 C 188.605469 212.207031 188.527344 212.238281 188.441406 212.359375 L 188 213.621094 C 187.894531 213.90625 187.6875 213.980469 187.363281 213.859375 L 172.171875 208.261719 C 171.863281 208.160156 171.785156 207.964844 171.839844 207.703125 L 172.308594 206.4375 C 172.378906 206.292969 172.308594 206.222656 172.171875 206.171875 L 171.296875 205.847656 C 171.191406 205.792969 171.058594 205.847656 171.027344 205.933594 L 168.671875 212.496094 C 168.609375 212.621094 168.671875 212.738281 168.808594 212.785156 L 169.675781 213.128906 C 169.816406 213.183594 169.941406 213.128906 169.953125 212.996094 L 170.410156 211.714844 C 170.53125 211.386719 170.722656 211.34375 171.058594 211.464844 L 186.238281 217.0625 C 186.542969 217.167969 186.671875 217.363281 186.605469 217.675781 L 186.09375 218.902344 C 186.058594 219.035156 186.09375 219.167969 186.238281 219.199219 L 187.125 219.546875 C 187.238281 219.585938 187.363281 219.546875 187.433594 219.378906 L 189.769531 212.832031 C 189.832031 212.703125 189.769531 212.621094 189.609375 212.582031 Z M 188.722656 212.25 "/>
<path style=" stroke:none;fill-rule:nonzero;fill:rgb(0%,14.901961%,32.941177%);fill-opacity:1;" d="M 189.519531 196.019531 C 186.308594 195.121094 184.644531 195.972656 182.03125 199.328125 C 180.160156 201.605469 179.105469 201.9375 177.308594 201.457031 C 175.71875 200.96875 174.230469 199.941406 174.875 197.703125 C 175.511719 195.425781 177.421875 195.0625 179.871094 196.0625 C 180 196.167969 180.089844 196.101562 180.160156 195.972656 L 180.921875 193.347656 C 180.921875 193.234375 180.875 193.152344 180.777344 193.109375 C 176.78125 191.484375 174.59375 193.203125 173.503906 197.125 C 172.171875 201.722656 173.84375 204.03125 177.324219 205.0625 C 180.28125 205.917969 182.386719 204.8125 185.097656 201.355469 C 186.855469 199.183594 187.6875 199.125 189.410156 199.605469 C 191.316406 200.113281 191.980469 201.25 191.480469 202.925781 C 190.878906 205.011719 189.089844 205.0625 186.855469 204.207031 C 186.796875 204.121094 186.691406 204.167969 186.660156 204.300781 L 185.886719 206.894531 C 185.878906 206.980469 185.953125 207.097656 186.058594 207.15625 C 190.011719 208.761719 191.863281 207.097656 192.941406 203.34375 C 193.875 199.878906 192.941406 197.019531 189.519531 196.019531 "/>
<path style=" stroke:none;fill-rule:nonzero;fill:rgb(0%,14.901961%,32.941177%);fill-opacity:1;" d="M 108.019531 46.472656 C 73.75 46.472656 46.003906 93.265625 46.003906 150.984375 C 46.003906 208.734375 73.75 255.53125 108.019531 255.53125 C 142.3125 255.53125 170.09375 208.734375 170.09375 150.984375 C 170.09375 93.265625 142.3125 46.472656 108.019531 46.472656 M 108.019531 251.761719 C 77.285156 251.761719 49.722656 208.5625 49.722656 150.984375 C 49.722656 93.425781 77.285156 50.230469 108.019531 50.230469 C 138.765625 50.230469 166.355469 93.425781 166.355469 150.984375 C 166.355469 208.5625 138.765625 251.761719 108.019531 251.761719 "/>
<path style=" stroke:none;fill-rule:nonzero;fill:rgb(0%,14.901961%,32.941177%);fill-opacity:1;" d="M 93.011719 280.605469 L 90.214844 280.605469 C 89.925781 280.605469 89.796875 280.464844 89.796875 280.15625 L 89.796875 269.371094 C 89.796875 267.3125 89.863281 265.828125 90.09375 263.761719 C 90.09375 263.621094 90.058594 263.578125 89.925781 263.578125 L 88.058594 263.578125 C 87.984375 263.578125 87.839844 263.675781 87.800781 263.761719 C 86.984375 264.621094 85.316406 265.46875 83.519531 266.074219 C 83.386719 266.113281 83.359375 266.191406 83.359375 266.261719 L 83.359375 267.21875 C 83.359375 267.355469 83.386719 267.4375 83.519531 267.394531 L 86.78125 266.703125 L 86.78125 280.15625 C 86.78125 280.464844 86.671875 280.605469 86.371094 280.605469 L 83.5625 280.605469 C 83.4375 280.605469 83.386719 280.722656 83.386719 280.808594 L 83.386719 281.667969 C 83.386719 281.816406 83.4375 281.90625 83.5625 281.90625 L 93.011719 281.90625 C 93.121094 281.90625 93.171875 281.816406 93.171875 281.667969 L 93.171875 280.808594 C 93.171875 280.722656 93.121094 280.605469 93.011719 280.605469 "/>
<path style=" stroke:none;fill-rule:nonzero;fill:rgb(0%,14.901961%,32.941177%);fill-opacity:1;" d="M 192.050781 216.328125 C 191.105469 216.027344 190.183594 216.394531 189.878906 217.230469 C 189.609375 217.988281 190.03125 218.863281 190.980469 219.121094 C 191.828125 219.441406 192.765625 219.121094 193.035156 218.296875 C 193.363281 217.5 192.910156 216.628906 192.050781 216.328125 "/>
<path style=" stroke:none;fill-rule:nonzero;fill:rgb(0%,14.901961%,32.941177%);fill-opacity:1;" d="M 24.003906 215.566406 C 23.15625 215.90625 22.6875 216.714844 22.957031 217.589844 C 23.21875 218.410156 24.15625 218.734375 24.996094 218.410156 C 25.894531 218.035156 26.363281 217.167969 26.097656 216.328125 C 25.761719 215.542969 24.894531 215.230469 24.003906 215.566406 "/>
<path style=" stroke:none;fill-rule:nonzero;fill:rgb(0%,14.901961%,32.941177%);fill-opacity:1;" d="M 203.097656 151.808594 C 202.078125 151.835938 201.339844 152.503906 201.339844 153.375 C 201.339844 154.261719 202.03125 154.855469 203.027344 154.828125 C 203.933594 154.828125 204.691406 154.167969 204.691406 153.324219 C 204.691406 152.4375 204.027344 151.808594 203.097656 151.808594 "/>
<path style=" stroke:none;fill-rule:nonzero;fill:rgb(0%,14.901961%,32.941177%);fill-opacity:1;" d="M 17.582031 155.167969 L 17.625 153.800781 C 17.625 153.535156 17.777344 153.375 18.128906 153.40625 L 34.339844 153.671875 C 34.65625 153.671875 34.824219 153.855469 34.808594 154.136719 L 34.808594 155.496094 C 34.808594 155.625 34.871094 155.671875 34.984375 155.671875 L 35.933594 155.71875 C 36.097656 155.71875 36.171875 155.644531 36.171875 155.511719 L 36.277344 149.96875 C 36.277344 149.832031 36.171875 149.753906 36.03125 149.753906 L 35.109375 149.753906 C 34.984375 149.753906 34.890625 149.816406 34.890625 149.9375 L 34.832031 151.28125 C 34.832031 151.578125 34.691406 151.738281 34.363281 151.738281 L 20.800781 151.488281 L 30.035156 146.964844 C 32.128906 145.933594 34.175781 145.019531 36.238281 144.140625 C 36.324219 144.0625 36.347656 143.984375 36.347656 143.921875 L 36.433594 140.597656 C 36.433594 140.46875 36.324219 140.40625 36.238281 140.40625 L 18.363281 140.082031 C 18.03125 140.070312 17.886719 139.921875 17.886719 139.644531 L 17.902344 138.285156 C 17.902344 138.160156 17.808594 138.066406 17.691406 138.066406 L 16.746094 138.039062 C 16.613281 138.039062 16.496094 138.164062 16.496094 138.277344 L 16.433594 143.796875 C 16.433594 143.933594 16.496094 143.984375 16.628906 143.984375 L 17.582031 143.984375 C 17.691406 143.984375 17.777344 143.984375 17.777344 143.84375 L 17.808594 142.484375 C 17.808594 142.171875 17.984375 142.015625 18.339844 142.015625 L 31.828125 142.257812 L 22.472656 146.824219 C 20.449219 147.8125 18.363281 148.792969 16.546875 149.570312 C 16.371094 149.621094 16.328125 149.6875 16.328125 149.835938 L 16.191406 155.167969 C 16.191406 155.292969 16.328125 155.351562 16.4375 155.351562 L 17.386719 155.390625 C 17.5 155.390625 17.582031 155.328125 17.582031 155.167969 "/>
<path style=" stroke:none;fill-rule:nonzero;fill:rgb(0%,14.901961%,32.941177%);fill-opacity:1;" d="M 44.761719 205.847656 L 43.859375 206.171875 C 43.734375 206.222656 43.667969 206.300781 43.734375 206.4375 L 44.160156 207.703125 C 44.277344 208.042969 44.160156 208.160156 43.859375 208.316406 L 28.667969 213.894531 C 28.34375 214.035156 28.152344 213.949219 28.066406 213.621094 L 27.566406 212.402344 C 27.511719 212.25 27.4375 212.207031 27.332031 212.25 L 26.394531 212.582031 C 26.261719 212.621094 26.21875 212.746094 26.261719 212.886719 L 28.605469 219.421875 C 28.71875 219.5625 28.796875 219.582031 28.910156 219.546875 L 29.777344 219.199219 C 29.941406 219.167969 30 219.078125 29.972656 218.941406 L 29.527344 217.675781 C 29.375 217.375 29.527344 217.230469 29.777344 217.074219 L 45.035156 211.472656 C 45.339844 211.386719 45.546875 211.445312 45.644531 211.714844 L 46.074219 213.042969 C 46.144531 213.140625 46.25 213.183594 46.386719 213.128906 L 47.25 212.785156 C 47.390625 212.746094 47.441406 212.671875 47.390625 212.535156 L 45.035156 205.996094 C 44.984375 205.847656 44.890625 205.792969 44.761719 205.847656 "/>
<path style=" stroke:none;fill-rule:nonzero;fill:rgb(0%,14.901961%,32.941177%);fill-opacity:1;" d="M 17.140625 134.40625 L 18.0625 134.5625 C 18.207031 134.5625 18.339844 134.523438 18.339844 134.394531 L 18.511719 133.019531 C 18.511719 132.71875 18.703125 132.605469 19 132.652344 L 35.066406 134.644531 C 35.421875 134.691406 35.59375 134.832031 35.515625 135.136719 L 35.347656 136.484375 C 35.347656 136.621094 35.421875 136.671875 35.59375 136.699219 L 36.480469 136.828125 C 36.628906 136.828125 36.738281 136.789062 36.738281 136.652344 L 37.636719 129.328125 C 38.046875 125.863281 37.558594 122.5625 33.222656 122.003906 C 29.917969 121.59375 28.3125 123.144531 27.636719 125.550781 C 27.496094 123.253906 26.019531 121.78125 23.484375 121.503906 C 19.402344 120.953125 18.207031 123.667969 17.777344 127.144531 L 16.933594 134.1875 C 16.933594 134.324219 16.988281 134.40625 17.140625 134.40625 M 28.183594 128.925781 C 28.503906 126.417969 29.597656 125.140625 32.753906 125.550781 C 35.144531 125.847656 36.324219 127.078125 36.078125 129.425781 L 35.875 130.890625 C 35.808594 131.1875 35.660156 131.285156 35.347656 131.238281 L 28.027344 130.355469 Z M 19.347656 127.511719 C 19.578125 125.605469 20.378906 124.691406 23.03125 125 C 26.097656 125.394531 26.84375 127.003906 26.621094 128.878906 L 26.496094 130.15625 L 19.609375 129.269531 C 19.285156 129.234375 19.097656 129.09375 19.171875 128.84375 Z M 19.347656 127.511719 "/>
<path style=" stroke:none;fill-rule:nonzero;fill:rgb(0%,14.901961%,32.941177%);fill-opacity:1;" d="M 35.5 172.175781 C 35.808594 172.277344 35.96875 172.332031 35.96875 172.640625 L 36.03125 173.40625 C 36.078125 173.542969 36.15625 173.59375 36.277344 173.59375 L 37.21875 173.5 C 37.378906 173.5 37.4375 173.453125 37.4375 173.316406 L 37.078125 168.371094 C 37.078125 168.203125 36.996094 168.160156 36.839844 168.160156 L 35.875 168.203125 C 35.792969 168.230469 35.675781 168.296875 35.675781 168.425781 L 35.808594 169.730469 C 35.808594 169.988281 35.660156 170.128906 35.300781 170.035156 L 30.359375 169.050781 L 30 163.582031 L 34.734375 161.8125 C 35.042969 161.660156 35.253906 161.792969 35.253906 162.125 L 35.347656 163.363281 C 35.347656 163.488281 35.421875 163.535156 35.59375 163.535156 L 36.527344 163.453125 C 36.671875 163.453125 36.738281 163.402344 36.738281 163.230469 L 36.277344 156.828125 C 36.277344 156.667969 36.171875 156.628906 36.03125 156.628906 L 35.109375 156.738281 C 34.984375 156.738281 34.894531 156.742188 34.894531 156.917969 L 34.984375 157.671875 C 34.984375 157.988281 34.824219 158.058594 34.511719 158.230469 L 20.5625 163.488281 C 19.496094 163.925781 18.199219 164.332031 17.019531 164.683594 C 16.890625 164.683594 16.824219 164.765625 16.824219 164.828125 L 17.0625 167.996094 C 17.0625 168.0625 17.125 168.160156 17.261719 168.160156 C 19.644531 168.484375 21.277344 168.824219 23.328125 169.3125 Z M 28.34375 164.21875 L 28.667969 168.660156 L 20.941406 167.027344 Z M 28.34375 164.21875 "/>
<path style=" stroke:none;fill-rule:nonzero;fill:rgb(0%,14.901961%,32.941177%);fill-opacity:1;" d="M 29.644531 207.15625 C 32.902344 206.246094 33.824219 204.578125 34.339844 200.34375 C 34.734375 197.421875 35.421875 196.5625 37.21875 196.019531 C 38.839844 195.566406 40.59375 195.65625 41.21875 197.890625 C 41.859375 200.199219 40.496094 201.46875 37.832031 201.9375 C 37.6875 201.9375 37.605469 202.03125 37.671875 202.15625 L 38.441406 204.8125 C 38.441406 204.941406 38.53125 204.941406 38.675781 204.941406 C 42.863281 204.183594 43.828125 201.542969 42.714844 197.667969 C 41.425781 193.019531 38.839844 191.949219 35.300781 192.980469 C 32.339844 193.816406 31.121094 195.863281 30.644531 200.246094 C 30.246094 203.066406 29.605469 203.574219 27.941406 204.09375 C 26.058594 204.625 24.894531 204.066406 24.378906 202.375 C 23.785156 200.28125 25.285156 199.277344 27.636719 198.839844 C 27.765625 198.792969 27.839844 198.746094 27.808594 198.605469 L 27.058594 195.972656 C 27.019531 195.917969 26.90625 195.863281 26.8125 195.863281 C 22.621094 196.609375 21.871094 199.035156 22.957031 202.777344 C 23.933594 206.246094 26.25 208.160156 29.644531 207.15625 "/>
<path style=" stroke:none;fill-rule:nonzero;fill:rgb(0%,14.901961%,32.941177%);fill-opacity:1;" d="M 184.6875 45.308594 C 164.53125 16.699219 137.386719 0.5 108.019531 0.5 C 78.660156 0.5 51.46875 16.699219 31.402344 45.308594 C 11.363281 73.746094 0.5 111.285156 0.5 150.984375 C 0.5 190.707031 11.363281 228.230469 31.402344 256.667969 C 51.46875 285.28125 78.660156 301.511719 108.019531 301.511719 C 137.386719 301.511719 164.53125 285.28125 184.6875 256.667969 C 204.691406 228.230469 215.535156 190.707031 215.535156 150.984375 C 215.535156 111.285156 204.691406 73.746094 184.6875 45.308594 M 181.667969 254.484375 C 162.089844 282.355469 135.917969 297.769531 108.019531 297.769531 C 80.105469 297.769531 53.984375 282.355469 34.363281 254.484375 C 14.917969 226.808594 4.207031 190.066406 4.207031 150.984375 C 4.207031 111.964844 14.917969 75.1875 34.363281 47.496094 C 53.984375 19.628906 80.105469 4.234375 108.019531 4.234375 C 135.917969 4.234375 162.089844 19.628906 181.667969 47.496094 C 201.144531 75.1875 211.859375 111.964844 211.859375 150.984375 C 211.859375 190.066406 201.144531 226.808594 181.667969 254.484375 "/>
<path style=" stroke:none;fill-rule:nonzero;fill:rgb(0%,14.901961%,32.941177%);fill-opacity:1;" d="M 26.261719 191.6875 L 25.894531 189.453125 C 25.890625 189.300781 25.761719 189.285156 25.636719 189.285156 L 23.816406 189.609375 C 22.394531 189.890625 21.78125 189.515625 21.515625 188.238281 L 21.277344 186.738281 L 37.4375 183.828125 C 37.75 183.78125 37.949219 183.917969 37.984375 184.234375 L 38.441406 186.613281 C 38.441406 186.722656 38.53125 186.738281 38.683594 186.738281 L 39.609375 186.5625 C 39.75 186.5625 39.78125 186.472656 39.75 186.386719 L 38.21875 177.417969 C 38.183594 177.28125 38.109375 177.238281 37.949219 177.28125 L 37.03125 177.417969 C 36.886719 177.433594 36.839844 177.5 36.839844 177.636719 L 37.25 180.050781 C 37.3125 180.328125 37.160156 180.503906 36.839844 180.550781 L 20.675781 183.410156 L 20.464844 181.921875 C 20.238281 180.707031 20.675781 180.109375 22.109375 179.84375 L 23.933594 179.511719 C 24.078125 179.464844 24.15625 179.425781 24.15625 179.339844 L 23.765625 177.078125 C 23.75 176.9375 23.625 176.871094 23.488281 176.925781 L 18.15625 177.957031 C 18.03125 178.011719 17.949219 178.058594 17.949219 178.175781 C 18.417969 180.308594 18.675781 181.421875 18.996094 183.285156 L 19.703125 187.457031 C 20.042969 189.375 20.171875 190.21875 20.464844 192.625 C 20.511719 192.753906 20.597656 192.792969 20.738281 192.753906 L 26.097656 191.90625 C 26.21875 191.878906 26.328125 191.816406 26.261719 191.6875 "/>
<path style=" stroke:none;fill-rule:nonzero;fill:rgb(0%,14.901961%,32.941177%);fill-opacity:1;" d="M 145.328125 133.46875 C 147.265625 128.84375 149.191406 123.363281 149.707031 116.542969 C 150.855469 101.457031 147.191406 88.472656 141.109375 87.933594 C 140.542969 87.890625 139.988281 87.980469 139.386719 88.375 C 135.390625 90.941406 133.386719 92.074219 129.3125 95.378906 C 128.074219 90.050781 126.921875 85.3125 126.121094 82.269531 C 125.6875 81.246094 125.074219 80.519531 124.214844 80.394531 C 123.6875 80.285156 123.15625 80.480469 122.558594 80.902344 C 114.683594 86.957031 92.246094 106.996094 91.574219 138.796875 C 91.550781 140.15625 91.574219 141.390625 91.574219 142.527344 C 90.402344 142.707031 89.796875 142.9375 89.796875 142.980469 C 90.296875 139.015625 88.949219 135.417969 85.832031 133.707031 C 83.84375 132.652344 81.453125 132.511719 79.058594 133.089844 C 77.644531 133.386719 76.511719 133.878906 76.167969 134.019531 C 75.332031 134.238281 74.503906 133.386719 74.714844 131.203125 C 74.878906 129.046875 73.738281 129.046875 73.050781 129.269531 C 72.332031 129.558594 70.371094 131.6875 69.511719 132.296875 C 68.597656 132.875 67.511719 132.6875 67.402344 131.566406 C 67.300781 130.425781 65.535156 131.15625 64.582031 132.105469 C 63.675781 133.089844 57.667969 137.886719 57.667969 137.886719 L 58.269531 138.964844 L 65.644531 133.792969 L 66.628906 135.074219 L 62.050781 138.707031 L 62.839844 139.59375 L 68.066406 136.578125 L 69.753906 138.480469 L 69.46875 139.53125 C 68.871094 140.386719 68.484375 141.621094 68.261719 142.980469 C 66.0625 148.300781 67.128906 153.671875 71.21875 155.894531 C 74.203125 157.503906 78.105469 157.035156 81.597656 154.988281 L 81.453125 156.097656 L 81.277344 157.203125 C 81.277344 157.203125 75.832031 160.636719 74.332031 161.902344 C 72.878906 163.15625 72.65625 163.859375 72.65625 163.859375 C 72.65625 163.859375 71.3125 171.160156 70.6875 173.566406 C 70.078125 175.957031 68.515625 179.84375 69.046875 180.828125 C 69.542969 181.769531 71.253906 182.683594 72.042969 182.160156 C 72.703125 181.660156 72.222656 180.828125 72.535156 179.265625 C 72.972656 177.683594 74.925781 168.621094 75.457031 166.703125 C 75.996094 164.816406 78.78125 162.378906 80.246094 161.359375 C 81.277344 160.671875 81.980469 159.941406 82.5625 159.738281 C 82.871094 160.046875 83.167969 160.300781 83.527344 160.578125 C 83.386719 160.894531 83.015625 161.105469 83.015625 161.105469 C 83.015625 161.105469 80.628906 163.183594 79.652344 163.765625 C 78.621094 164.332031 77.878906 166.097656 77.878906 166.097656 C 77.878906 166.097656 76.71875 172.175781 76.359375 174.722656 C 75.996094 177.324219 74.136719 181.894531 74.136719 183.65625 C 74.136719 185.417969 76.359375 186.238281 76.9375 186.613281 C 77.519531 186.953125 77.613281 183.75 78.40625 182.082031 C 79.105469 180.417969 81.3125 170.90625 81.65625 168.582031 C 82.015625 166.277344 82.746094 166.277344 83.730469 165.1875 C 84.644531 164.066406 87.386719 162.378906 87.386719 162.378906 C 87.386719 162.378906 88.828125 162.988281 89.589844 162.988281 C 90.402344 162.988281 90.28125 164.480469 90.28125 164.480469 L 87.253906 166.640625 C 86.25 167.308594 87.386719 169.386719 87.800781 170.832031 C 88.253906 172.277344 88.949219 181.421875 89.121094 184.828125 C 89.238281 188.238281 91.121094 187.90625 92.003906 188.0625 C 92.894531 188.199219 92.421875 187.109375 92.375 184.484375 C 92.421875 181.816406 91.574219 173.207031 91.234375 171.140625 C 90.875 169.089844 90.972656 167.859375 91.6875 167.230469 C 92.441406 166.574219 95.214844 164.390625 95.761719 164.246094 C 96.292969 164.089844 96.9375 165.082031 96.9375 165.082031 C 96.9375 165.082031 95.621094 166.730469 94.089844 167.71875 C 92.488281 168.734375 93.234375 170.722656 93.4375 172.113281 C 93.589844 173.542969 94.191406 184.535156 94.089844 186.875 C 94.042969 189.269531 95.453125 189.253906 96.519531 189.566406 C 97.699219 189.890625 97.433594 188.785156 97.566406 187.199219 C 97.667969 185.578125 96.503906 172.277344 96.675781 171.269531 C 96.8125 170.285156 98.722656 167.859375 100.269531 166.230469 C 101.808594 164.605469 102.816406 164.246094 103.777344 164.734375 C 104.75 165.269531 104.316406 166.40625 104.316406 166.40625 C 104.316406 166.40625 102.0625 171.046875 101.535156 172.09375 C 100.996094 173.09375 100.082031 174.597656 100.324219 175.777344 C 100.609375 176.9375 102.339844 182.605469 102.824219 187.550781 C 103.394531 192.519531 104.269531 206.550781 104.144531 208.9375 C 104.109375 211.3125 105.363281 213.894531 106.441406 214.671875 C 107.449219 215.496094 110.171875 218.433594 111.421875 217.871094 C 112.636719 217.3125 110.957031 214.800781 110.347656 214.214844 C 109.832031 213.621094 108.183594 211.589844 107.875 210.027344 C 107.574219 208.484375 107.328125 200.234375 107.285156 195.480469 C 107.214844 190.707031 105.734375 181.386719 105.28125 179.339844 C 104.78125 177.238281 104.558594 172.671875 106.15625 170.578125 C 107.78125 168.453125 108.125 170.285156 108.125 170.285156 L 107.285156 176.011719 C 107.035156 177.84375 108.089844 183.019531 108.6875 186.636719 C 109.375 190.234375 110.203125 205.65625 110.011719 207.886719 C 109.832031 210.105469 110.347656 211.589844 111.160156 212.441406 C 111.925781 213.347656 113.59375 217.871094 114.613281 219.769531 C 115.613281 221.691406 117.542969 221.988281 118.949219 221.222656 C 120.324219 220.449219 116.746094 215.738281 115.453125 214.035156 C 114.167969 212.324219 113.722656 208.621094 113.386719 203.792969 C 113.128906 200.542969 113.355469 196.996094 113.261719 194.800781 C 114.28125 196.519531 115.890625 197.84375 117.738281 198.46875 C 117.5625 199.292969 117.582031 200.160156 117.785156 201.042969 C 118.308594 203.261719 119.871094 205.046875 121.800781 205.917969 C 121.457031 206.847656 121.324219 207.886719 121.496094 208.984375 C 121.800781 211.121094 123.300781 212.800781 125.1875 213.582031 C 127.3125 214.421875 130.050781 214.5 132.527344 214.214844 C 134.917969 213.894531 137.542969 213.128906 139.328125 211.78125 C 140.890625 210.574219 141.800781 208.5625 141.433594 206.4375 C 141.28125 205.402344 140.863281 204.527344 140.25 203.730469 C 140.863281 203.378906 141.433594 203.011719 141.859375 202.59375 C 143.667969 201.097656 144.519531 198.699219 143.988281 196.308594 C 143.703125 194.84375 142.953125 193.609375 141.957031 192.671875 C 142.910156 191.984375 143.714844 191.21875 144.390625 190.449219 C 146.191406 188.433594 146.875 185.503906 145.953125 182.730469 C 145.25 180.644531 143.703125 178.964844 141.816406 178.011719 L 142.472656 177.191406 C 144.152344 174.996094 144.613281 171.949219 143.363281 169.25 C 141.96875 166.277344 139.0625 164.390625 136.175781 163.859375 C 137.175781 161.5625 137.015625 158.761719 135.339844 156.527344 C 133.292969 153.671875 128.378906 151.738281 124.6875 152.667969 C 135.566406 147.566406 142.953125 139.066406 145.328125 133.46875 M 94.171875 138.917969 C 94.746094 111.027344 112.675781 92.480469 121.675781 84.890625 L 123.847656 83.0625 L 124.542969 85.839844 C 125.230469 88.871094 126.1875 92.824219 127.171875 97.171875 C 116.808594 106.03125 104.417969 120.761719 101.292969 141.96875 L 101.203125 142.890625 C 98.300781 142.34375 95.96875 142.253906 94.171875 142.269531 Z M 70.316406 133.792969 C 71.3125 133.199219 73.558594 132.9375 73.222656 134.40625 C 72.847656 135.839844 72.878906 136.339844 72.878906 136.339844 L 70.910156 136.015625 C 70.910156 136.015625 69.339844 134.394531 70.316406 133.792969 M 73.65625 151.578125 C 69.9375 149.527344 69.300781 144.839844 72.28125 140.296875 C 75.234375 135.765625 80.753906 133.707031 84.5 135.75 C 88.253906 137.792969 88.847656 143.121094 85.847656 147.65625 C 82.871094 152.207031 77.425781 153.625 73.65625 151.578125 M 112.71875 187.886719 L 112.582031 186.152344 L 113.328125 186.652344 C 113.113281 187.019531 112.886719 187.417969 112.71875 187.886719 M 136.855469 208.808594 C 135.886719 209.589844 134.011719 210.222656 131.90625 210.441406 C 129.777344 210.734375 127.78125 210.574219 126.582031 210.105469 C 125.894531 209.855469 125.425781 209.253906 125.300781 208.484375 C 125.167969 207.394531 125.894531 206.375 127.625 206.246094 C 128.589844 206.375 129.875 206.390625 131.214844 206.222656 C 132.5625 206.023438 133.761719 205.695312 134.65625 205.351562 L 135.246094 205.164062 C 136.363281 205.046875 137.417969 205.847656 137.636719 206.910156 C 137.738281 207.660156 137.417969 208.351562 136.855469 208.804688 M 139.296875 199.726562 C 137.859375 200.972656 135.046875 202.09375 131.761719 202.664062 C 128.453125 203.296875 125.425781 203.210938 123.558594 202.578125 C 122.609375 202.242188 121.800781 201.425781 121.5625 200.34375 C 121.222656 198.742188 122.296875 197.207031 123.878906 196.929688 C 124.214844 196.859375 124.503906 196.859375 124.769531 196.859375 C 126.347656 197.019531 128.328125 196.929688 130.441406 196.558594 C 132.5625 196.167969 134.464844 195.566406 135.816406 194.886719 C 136.066406 194.753906 136.363281 194.667969 136.652344 194.601562 C 138.253906 194.292969 139.886719 195.355469 140.214844 196.976562 C 140.464844 198.011719 140.035156 199.070312 139.296875 199.726562 M 142.269531 183.824219 C 142.777344 185.324219 142.394531 186.871094 141.449219 187.933594 C 139.578125 190.027344 135.800781 192.207031 131.140625 193.695312 C 126.542969 195.199219 122.136719 195.652344 119.363281 195.023438 C 117.980469 194.722656 116.761719 193.683594 116.253906 192.207031 C 115.484375 189.976562 116.667969 187.636719 118.871094 186.925781 C 119.277344 186.785156 119.675781 186.738281 120.074219 186.695312 C 122.410156 186.648438 125.261719 186.148438 128.28125 185.191406 C 131.28125 184.21875 133.917969 182.941406 135.816406 181.648438 C 136.175781 181.421875 136.5 181.230469 136.886719 181.09375 C 139.105469 180.414062 141.542969 181.625 142.269531 183.828125 M 139.796875 170.675781 C 140.464844 172.113281 140.214844 173.753906 139.363281 174.898438 C 137.636719 177.191406 133.839844 179.742188 129.167969 181.660156 C 124.503906 183.554688 119.933594 184.378906 117.027344 183.996094 C 115.546875 183.824219 114.136719 182.875 113.5 181.417969 C 112.472656 179.226562 113.519531 176.707031 115.730469 175.800781 C 116.066406 175.640625 116.53125 175.523438 116.90625 175.503906 C 119.347656 175.226562 122.328125 174.464844 125.34375 173.226562 C 128.40625 171.945312 131.003906 170.488281 132.90625 168.945312 C 133.214844 168.730469 133.597656 168.519531 133.980469 168.367188 C 136.207031 167.457031 138.816406 168.480469 139.796875 170.675781 M 126.261719 158.410156 C 126.472656 158.144531 126.683594 157.882812 126.972656 157.710938 C 128.683594 156.574219 131.003906 156.996094 132.222656 158.667969 C 133.003906 159.738281 133.09375 161.132812 132.597656 162.257812 C 131.597656 164.378906 129.019531 167.089844 125.542969 169.457031 C 122.136719 171.785156 118.589844 173.226562 116.199219 173.402344 C 114.871094 173.492188 113.59375 172.957031 112.488281 171.386719 C 112.050781 170.191406 111.984375 168.914062 112.71875 167.714844 C 112.953125 167.378906 113.261719 167.089844 113.644531 166.808594 C 113.917969 166.636719 114.28125 166.441406 114.59375 166.347656 C 116.457031 165.714844 118.675781 164.601562 120.933594 163.082031 C 123.15625 161.574219 125.003906 159.941406 126.261719 158.410156 M 109.910156 166.097656 C 108.765625 166.511719 108.21875 165.035156 108.019531 164.007812 C 108.183594 163.261719 108.089844 162.679688 107.488281 162.894531 C 107.011719 163.082031 105.925781 163.535156 104.925781 162.539062 C 104.042969 161.726562 103.65625 160.574219 104.109375 159.574219 C 101.984375 160.300781 97.597656 162.105469 93.519531 160.527344 C 92.375 160.128906 92.203125 158.570312 92.644531 157.582031 C 90.558594 158.304688 88.652344 158.710938 87.113281 158.667969 C 85.832031 158.667969 82.699219 158.398438 84.003906 154.355469 C 85.453125 149.832031 87.613281 146.871094 92.203125 145.472656 C 95.050781 144.644531 98.5 145.542969 99.957031 145.707031 C 99.019531 153.988281 99.324219 156.300781 106.558594 157.429688 C 113.019531 158.480469 119.394531 154.824219 124.28125 155.847656 C 127.511719 157.152344 117.542969 163.261719 109.910156 166.097656 M 105.558594 154.289062 C 105.363281 152.855469 105.734375 150.433594 107.011719 146.148438 C 113.859375 122.597656 133.933594 114.132812 143.683594 111.324219 L 144.488281 111.078125 L 143.605469 111.285156 C 133.671875 113.503906 112.886719 120.726562 104.675781 143.621094 C 104.015625 145.519531 103.542969 147.035156 103.269531 148.300781 C 103.300781 146.800781 103.484375 144.917969 103.910156 142.394531 C 107.925781 114.910156 128.097656 98.675781 138.027344 92.257812 L 141.042969 90.417969 C 142.3125 90.550781 144.066406 92.257812 145.566406 97.441406 C 146.953125 102.175781 147.707031 108.945312 147.167969 116.308594 C 146.660156 122.960938 145.519531 126.457031 142.730469 132.378906 C 138.378906 141.632812 121.65625 155.582031 105.558594 154.289062 "/>
<path style=" stroke:none;fill-rule:nonzero;fill:rgb(0%,14.901961%,32.941177%);fill-opacity:1;" d="M 79.859375 138.234375 C 77.3125 137.933594 75.089844 139.496094 74.878906 141.753906 C 74.707031 143.984375 76.550781 146.019531 79.089844 146.300781 C 81.597656 146.582031 83.847656 144.988281 84.078125 142.777344 C 84.238281 140.519531 82.386719 138.480469 79.859375 138.234375 M 78.78125 143.25 C 77.878906 143.160156 77.175781 142.394531 77.246094 141.53125 C 77.3125 140.667969 78.144531 140.125 79.105469 140.207031 C 80.066406 140.296875 80.785156 141.0625 80.75 141.921875 C 80.628906 142.777344 79.792969 143.339844 78.78125 143.25 "/>
</g>
</svg>
