<?xml version="1.0" encoding="UTF-8"?>
<svg xmlns="http://www.w3.org/2000/svg" xmlns:xlink="http://www.w3.org/1999/xlink" width="466.085449" height="214.552933" viewBox="0 0 466.085449 214.552933" version="1.1">
<g id="surface1">
<path style=" stroke:none;fill-rule:nonzero;fill:rgb(43.921569%,38.431373%,34.901962%);fill-opacity:1;" d="M 124.871094 87.894531 C 126.839844 87 128.980469 87 130.945312 87.714844 L 132.734375 85.390625 C 128.445312 85.390625 127.015625 83.25 127.910156 81.820312 C 128.804688 80.390625 130.589844 81.460938 132.019531 82.355469 L 133.804688 80.210938 C 132.019531 78.605469 129.160156 78.78125 127.375 80.570312 C 127.195312 80.746094 127.015625 80.925781 127.015625 81.105469 C 125.945312 82.355469 126.125 84.140625 127.195312 85.214844 C 125.945312 85.570312 124.871094 86.105469 123.980469 87 Z M 124.871094 87.894531 "/>
<path style=" stroke:none;fill-rule:nonzero;fill:rgb(43.921569%,38.431373%,34.901962%);fill-opacity:1;" d="M 197.761719 78.605469 L 197.761719 103.078125 C 199.902344 103.078125 201.15625 101.292969 201.15625 98.253906 L 201.15625 78.605469 Z M 197.761719 78.605469 "/>
<path style=" stroke:none;fill-rule:nonzero;fill:rgb(43.921569%,38.431373%,34.901962%);fill-opacity:1;" d="M 177.394531 112.726562 L 177.394531 137.019531 C 179.539062 137.019531 180.789062 135.234375 180.789062 132.199219 L 180.789062 112.546875 L 177.394531 112.546875 Z M 177.394531 112.726562 "/>
<path style=" stroke:none;fill-rule:nonzero;fill:rgb(43.921569%,38.431373%,34.901962%);fill-opacity:1;" d="M 144.34375 97.539062 C 145.058594 99.328125 146.667969 100.398438 148.453125 100.21875 L 157.207031 100.21875 L 157.207031 97.539062 C 157.921875 99.328125 159.53125 100.398438 161.316406 100.21875 L 163.28125 100.21875 C 164.355469 100.398438 165.425781 100.042969 166.320312 99.328125 C 167.210938 98.433594 167.746094 97.183594 168.105469 96.109375 C 167.746094 98.96875 173.105469 100.042969 176.144531 100.21875 C 179.003906 100.578125 179.179688 98.613281 179.179688 97.539062 C 179.894531 99.328125 181.503906 100.398438 183.289062 100.21875 L 191.863281 100.21875 L 191.863281 78.605469 L 188.472656 78.605469 L 188.472656 97.539062 L 182.933594 97.539062 C 180.96875 97.71875 179.359375 96.289062 179.179688 94.324219 C 179.179688 94.144531 179.179688 93.789062 179.179688 93.609375 C 179.179688 89.144531 178.289062 85.214844 174.179688 85.214844 C 167.746094 85.214844 166.855469 92.359375 164.710938 95.933594 C 164.175781 97.003906 163.101562 97.71875 162.03125 97.539062 L 160.960938 97.539062 C 158.996094 97.71875 157.386719 96.289062 157.207031 94.503906 C 157.207031 94.324219 157.207031 93.96875 157.207031 93.789062 L 157.207031 78.605469 L 153.8125 78.605469 L 153.8125 97.539062 L 148.097656 97.539062 C 146.132812 97.71875 144.523438 96.289062 144.34375 94.324219 C 144.34375 94.144531 144.34375 93.789062 144.34375 93.609375 L 144.34375 78.605469 L 140.949219 78.605469 L 140.949219 97.539062 L 123.621094 97.539062 C 118.621094 97.539062 119.335938 93.429688 121.835938 90.574219 L 120.941406 89.679688 C 117.191406 92.894531 115.046875 97.183594 118.085938 99.503906 C 118.976562 100.21875 120.226562 100.398438 121.300781 100.21875 L 144.34375 100.21875 Z M 175.609375 91.464844 L 175.609375 97.183594 C 173.105469 97.003906 170.605469 95.933594 168.640625 94.144531 C 169 92.894531 169.355469 92.003906 169.714844 90.75 C 170.425781 88.429688 171.5 86.285156 173.464844 86.820312 C 175.074219 87.179688 175.609375 89.144531 175.609375 91.464844 "/>
<path style=" stroke:none;fill-rule:nonzero;fill:rgb(43.921569%,38.431373%,34.901962%);fill-opacity:1;" d="M 40.730469 78.605469 L 40.730469 103.078125 C 42.875 103.078125 44.125 101.292969 44.125 98.253906 L 44.125 78.605469 Z M 40.730469 78.605469 "/>
<path style=" stroke:none;fill-rule:nonzero;fill:rgb(43.921569%,38.431373%,34.901962%);fill-opacity:1;" d="M 246.351562 131.484375 L 244.207031 131.484375 C 239.027344 131.484375 239.742188 126.480469 242.601562 124.335938 C 245.101562 122.371094 246.53125 125.585938 246.53125 129.695312 Z M 272.613281 125.230469 L 274.21875 122.730469 C 279.042969 123.265625 278.152344 127.015625 276.007812 129.519531 C 275.648438 127.730469 274.398438 126.125 272.613281 125.230469 M 299.589844 112.726562 L 299.589844 131.484375 L 293.871094 131.484375 C 291.90625 131.660156 290.296875 130.230469 290.121094 128.265625 C 290.121094 128.089844 290.121094 127.730469 290.121094 127.550781 L 290.121094 112.546875 L 286.726562 112.546875 L 286.726562 131.304688 L 277.4375 131.304688 C 279.578125 129.339844 282.257812 124.515625 280.117188 122.015625 C 277.972656 119.511719 274.757812 119.871094 272.433594 119.691406 L 268.859375 125.050781 C 271.539062 126.125 273.683594 128.445312 274.398438 131.484375 L 262.789062 131.484375 C 260.820312 131.660156 259.214844 130.230469 259.035156 128.265625 C 259.035156 128.089844 259.035156 127.730469 259.035156 127.550781 L 259.035156 112.546875 L 255.640625 112.546875 L 255.640625 131.304688 L 250.101562 131.304688 L 250.101562 129.875 C 250.101562 124.160156 246.351562 119.511719 241.351562 123.265625 C 237.777344 125.945312 235.632812 130.945312 238.671875 133.269531 C 239.5625 133.984375 240.8125 134.164062 241.886719 133.984375 L 245.996094 133.984375 C 245.28125 138.449219 244.207031 142.738281 237.957031 145.597656 L 238.3125 146.667969 C 243.492188 145.058594 248.496094 142.917969 249.746094 133.984375 L 259.214844 133.984375 L 259.214844 131.304688 C 259.929688 133.089844 261.535156 134.164062 263.324219 133.984375 L 271.898438 133.984375 C 273.148438 134.164062 274.398438 133.804688 275.292969 133.089844 C 276.1875 133.804688 277.4375 134.164062 278.6875 133.984375 L 290.121094 133.984375 L 290.121094 130.769531 C 290.121094 131.660156 290.65625 132.734375 291.371094 133.269531 C 292.261719 133.984375 293.515625 134.164062 294.585938 133.984375 L 302.980469 133.984375 L 302.980469 112.726562 Z M 299.589844 112.726562 "/>
<path style=" stroke:none;fill-rule:nonzero;fill:rgb(43.921569%,38.431373%,34.901962%);fill-opacity:1;" d="M 194.722656 131.484375 L 192.578125 131.484375 C 187.398438 131.484375 188.113281 126.480469 190.972656 124.335938 C 193.472656 122.371094 194.902344 125.585938 194.902344 129.695312 Z M 198.476562 130.054688 C 198.476562 124.335938 194.722656 119.691406 189.722656 123.445312 C 186.148438 126.125 184.003906 130.945312 187.042969 133.449219 C 187.933594 134.164062 189.183594 134.339844 190.257812 134.164062 L 194.367188 134.164062 C 193.652344 138.628906 192.578125 142.917969 186.328125 145.773438 L 186.683594 146.847656 C 191.863281 145.238281 196.867188 142.917969 198.117188 134.164062 C 198.296875 132.910156 198.476562 131.484375 198.476562 130.054688 "/>
<path style=" stroke:none;fill-rule:nonzero;fill:rgb(43.921569%,38.431373%,34.901962%);fill-opacity:1;" d="M 22.152344 100.21875 L 22.152344 97.539062 C 22.867188 99.328125 24.472656 100.398438 26.261719 100.21875 L 35.015625 100.21875 L 35.015625 78.605469 L 31.621094 78.605469 L 31.621094 97.539062 L 25.902344 97.539062 C 23.9375 97.71875 22.332031 96.289062 22.152344 94.324219 C 22.152344 94.144531 22.152344 93.789062 22.152344 93.609375 L 22.152344 78.605469 L 18.757812 78.605469 L 18.757812 97.539062 L 12.863281 97.539062 L 12.863281 96.109375 C 12.863281 90.394531 9.109375 85.75 4.109375 89.5 C 0.535156 92.179688 -1.609375 97.183594 1.429688 99.328125 C 2.5 100.042969 3.574219 100.398438 4.644531 100.21875 Z M 9.109375 97.539062 L 6.96875 97.539062 C 1.785156 97.539062 2.5 92.539062 5.359375 90.394531 C 7.859375 88.429688 9.289062 91.644531 9.289062 95.753906 Z M 9.109375 97.539062 "/>
<path style=" stroke:none;fill-rule:nonzero;fill:rgb(43.921569%,38.431373%,34.901962%);fill-opacity:1;" d="M 263.859375 97.183594 C 261.179688 97.003906 258.855469 96.109375 256.890625 94.144531 C 257.25 92.894531 257.605469 92.003906 257.964844 90.75 C 258.679688 88.429688 259.75 86.285156 261.714844 86.820312 C 263.144531 87.179688 263.859375 89.144531 263.859375 91.464844 Z M 238.3125 91.109375 L 239.921875 88.609375 C 244.742188 88.964844 243.851562 92.894531 241.707031 95.398438 C 241.351562 93.609375 240.097656 92.003906 238.3125 91.109375 M 224.914062 97.363281 L 222.769531 97.363281 C 217.589844 97.363281 218.304688 92.359375 221.164062 90.214844 C 223.664062 88.25 225.09375 91.464844 225.09375 95.574219 Z M 262.429688 85.214844 C 256 85.214844 255.105469 92.359375 252.960938 95.933594 C 252.425781 97.003906 251.355469 97.71875 250.28125 97.539062 L 243.316406 97.539062 C 245.457031 95.574219 248.136719 90.75 245.996094 88.25 C 243.851562 85.75 240.636719 86.105469 238.3125 85.929688 L 234.738281 91.289062 C 237.417969 92.359375 239.5625 94.683594 240.277344 97.539062 L 228.664062 97.539062 L 228.664062 96.109375 C 228.664062 90.394531 224.914062 85.75 219.914062 89.5 C 216.339844 92.179688 214.195312 97.183594 217.234375 99.503906 C 218.125 100.042969 219.375 100.398438 220.449219 100.21875 L 237.597656 100.21875 C 238.847656 100.398438 240.097656 100.042969 240.992188 99.328125 C 241.886719 100.042969 243.136719 100.398438 244.386719 100.21875 L 251.355469 100.21875 C 252.425781 100.398438 253.496094 100.042969 254.390625 99.328125 C 255.285156 98.433594 255.820312 97.183594 256.175781 96.109375 C 255.820312 98.96875 261.179688 100.042969 264.214844 100.21875 C 267.074219 100.578125 267.074219 98.613281 267.074219 97.539062 L 267.074219 93.609375 C 267.253906 89.324219 266.359375 85.214844 262.429688 85.214844 "/>
<path style=" stroke:none;fill-rule:nonzero;fill:rgb(43.921569%,38.431373%,34.901962%);fill-opacity:1;" d="M 96.824219 97.539062 C 92.539062 97.539062 90.929688 94.503906 90.929688 91.289062 C 90.75 87.714844 94.324219 86.464844 99.863281 88.070312 L 100.21875 87 C 98.253906 86.105469 96.289062 85.570312 94.144531 85.390625 C 89.324219 85.390625 87 87.714844 87 91.644531 C 86.820312 93.96875 87.894531 96.109375 89.679688 97.363281 L 82.175781 97.363281 C 80.210938 97.539062 78.605469 95.933594 78.605469 94.144531 C 78.605469 93.96875 78.605469 93.789062 78.605469 93.609375 L 78.605469 90.214844 L 75.03125 90.214844 L 75.03125 97.539062 L 67.347656 97.539062 C 65.382812 97.71875 63.777344 96.289062 63.597656 94.324219 C 63.597656 94.144531 63.597656 93.789062 63.597656 93.609375 L 63.597656 85.570312 L 60.023438 85.570312 L 60.023438 97.539062 L 53.773438 97.539062 C 51.984375 97.539062 52.164062 96.46875 52.878906 95.574219 L 51.984375 95.039062 C 49.84375 97.363281 50.199219 100.398438 54.128906 100.398438 L 63.417969 100.398438 L 63.417969 97.539062 C 64.132812 99.328125 65.742188 100.398438 67.527344 100.21875 L 78.246094 100.21875 L 78.246094 97.539062 C 78.960938 99.328125 80.570312 100.398438 82.355469 100.21875 L 100.578125 100.21875 L 100.578125 97.539062 Z M 96.824219 97.539062 "/>
<path style=" stroke:none;fill-rule:nonzero;fill:rgb(43.921569%,38.431373%,34.901962%);fill-opacity:1;" d="M 296.550781 91.824219 C 294.585938 88.429688 292.261719 85.929688 287.796875 85.929688 L 287.617188 87.179688 C 294.585938 88.429688 291.191406 92.71875 297.085938 97.539062 L 278.152344 97.539062 L 278.152344 78.605469 L 274.757812 78.605469 L 274.757812 95.398438 C 274.757812 98.433594 276.1875 100.21875 278.152344 100.21875 L 303.695312 100.21875 L 303.695312 97.539062 C 300.480469 96.824219 297.980469 94.859375 296.550781 91.824219 "/>
<path style=" stroke:none;fill-rule:nonzero;fill:rgb(43.921569%,38.431373%,34.901962%);fill-opacity:1;" d="M 103.972656 131.484375 L 103.972656 130.054688 C 103.972656 124.335938 100.398438 119.691406 95.21875 123.445312 C 91.644531 126.125 89.5 130.945312 92.539062 133.449219 C 93.429688 134.164062 94.683594 134.339844 95.753906 134.164062 L 113.796875 134.164062 L 113.796875 131.484375 C 114.511719 133.269531 116.121094 134.339844 117.90625 134.164062 L 126.839844 134.164062 L 126.839844 131.484375 C 127.550781 133.269531 129.160156 134.339844 130.945312 134.164062 L 142.203125 134.164062 C 144.882812 134.164062 145.238281 132.554688 145.238281 131.484375 C 145.773438 133.269531 147.5625 134.339844 149.347656 134.164062 L 158.457031 134.164062 L 158.457031 131.484375 C 158.996094 133.269531 160.78125 134.339844 162.566406 134.164062 L 171.140625 134.164062 L 171.140625 112.726562 L 167.746094 112.726562 L 167.746094 131.484375 L 162.210938 131.484375 C 160.246094 131.660156 158.636719 130.230469 158.457031 128.265625 C 158.457031 128.089844 158.457031 127.730469 158.457031 127.550781 L 158.457031 124.160156 L 154.886719 124.160156 L 154.886719 131.484375 L 148.8125 131.484375 C 146.847656 131.484375 145.058594 129.875 145.058594 127.730469 C 144.703125 125.050781 143.453125 120.941406 139.699219 120.941406 C 137.558594 120.941406 134.339844 122.371094 135.054688 125.945312 C 135.769531 128.265625 137.378906 130.230469 139.699219 131.484375 L 130.410156 131.484375 C 128.445312 131.660156 126.839844 130.230469 126.660156 128.265625 C 126.660156 128.089844 126.660156 127.730469 126.660156 127.550781 L 126.660156 124.160156 L 123.265625 124.160156 L 123.265625 131.484375 L 117.371094 131.484375 C 115.40625 131.660156 113.796875 130.230469 113.617188 128.265625 C 113.617188 128.089844 113.617188 127.730469 113.617188 127.550781 L 113.617188 124.160156 L 110.222656 124.160156 L 110.222656 131.484375 Z M 138.09375 124.335938 C 141.664062 122.191406 142.738281 129.339844 142.738281 131.484375 C 138.09375 128.980469 136.128906 125.585938 138.09375 124.335938 M 100.21875 131.484375 L 98.078125 131.484375 C 93.074219 131.484375 93.609375 126.480469 96.46875 124.335938 C 98.96875 122.371094 100.398438 125.585938 100.398438 129.695312 Z M 100.21875 131.484375 "/>
<path style=" stroke:none;fill-rule:nonzero;fill:rgb(43.921569%,38.431373%,34.901962%);fill-opacity:1;" d="M 74.316406 103.4375 L 77.710938 103.4375 L 77.710938 106.652344 L 74.316406 106.652344 Z M 74.316406 103.4375 "/>
<path style=" stroke:none;fill-rule:nonzero;fill:rgb(43.921569%,38.431373%,34.901962%);fill-opacity:1;" d="M 223.484375 80.925781 L 226.878906 80.925781 L 226.878906 83.964844 L 223.484375 83.964844 Z M 223.484375 80.925781 "/>
<path style=" stroke:none;fill-rule:nonzero;fill:rgb(43.921569%,38.431373%,34.901962%);fill-opacity:1;" d="M 218.304688 80.925781 L 221.699219 80.925781 L 221.699219 83.964844 L 218.304688 83.964844 Z M 218.304688 80.925781 "/>
<path style=" stroke:none;fill-rule:nonzero;fill:rgb(43.921569%,38.431373%,34.901962%);fill-opacity:1;" d="M 98.96875 115.046875 L 102.363281 115.046875 L 102.363281 118.085938 L 98.96875 118.085938 Z M 98.96875 115.046875 "/>
<path style=" stroke:none;fill-rule:nonzero;fill:rgb(43.921569%,38.431373%,34.901962%);fill-opacity:1;" d="M 123.445312 118.085938 L 126.839844 118.085938 L 126.839844 121.300781 L 123.445312 121.300781 Z M 123.445312 118.085938 "/>
<path style=" stroke:none;fill-rule:nonzero;fill:rgb(43.921569%,38.431373%,34.901962%);fill-opacity:1;" d="M 93.789062 115.046875 L 97.183594 115.046875 L 97.183594 118.085938 L 93.789062 118.085938 Z M 93.789062 115.046875 "/>
<path style=" stroke:none;fill-rule:nonzero;fill:rgb(43.921569%,38.431373%,34.901962%);fill-opacity:1;" d="M 140.414062 115.046875 L 143.808594 115.046875 L 143.808594 118.085938 L 140.414062 118.085938 Z M 140.414062 115.046875 "/>
<path style=" stroke:none;fill-rule:nonzero;fill:rgb(43.921569%,38.431373%,34.901962%);fill-opacity:1;" d="M 135.234375 115.046875 L 138.628906 115.046875 L 138.628906 118.085938 L 135.234375 118.085938 Z M 135.234375 115.046875 "/>
<path style=" stroke:none;fill-rule:nonzero;fill:rgb(43.921569%,38.431373%,34.901962%);fill-opacity:1;" d="M 157.566406 118.085938 L 160.960938 118.085938 L 160.960938 121.300781 L 157.566406 121.300781 Z M 157.566406 118.085938 "/>
<path style=" stroke:none;fill-rule:nonzero;fill:rgb(43.921569%,38.431373%,34.901962%);fill-opacity:1;" d="M 152.382812 118.085938 L 155.777344 118.085938 L 155.777344 121.300781 L 152.382812 121.300781 Z M 152.382812 118.085938 "/>
<path style=" stroke:none;fill-rule:nonzero;fill:rgb(43.921569%,38.431373%,34.901962%);fill-opacity:1;" d="M 113.082031 137.558594 L 116.476562 137.558594 L 116.476562 140.59375 L 113.082031 140.59375 Z M 113.082031 137.558594 "/>
<path style=" stroke:none;fill-rule:nonzero;fill:rgb(43.921569%,38.431373%,34.901962%);fill-opacity:1;" d="M 107.902344 137.558594 L 111.296875 137.558594 L 111.296875 140.59375 L 107.902344 140.59375 Z M 107.902344 137.558594 "/>
<path style=" stroke:none;fill-rule:nonzero;fill:rgb(43.921569%,38.431373%,34.901962%);fill-opacity:1;" d="M 291.191406 103.4375 L 294.585938 103.4375 L 294.585938 106.652344 L 291.191406 106.652344 Z M 291.191406 103.4375 "/>
<path style=" stroke:none;fill-rule:nonzero;fill:rgb(43.921569%,38.431373%,34.901962%);fill-opacity:1;" d="M 228.308594 131.125 L 228.308594 125.410156 C 228.308594 123.085938 227.59375 121.121094 226.164062 120.585938 C 224.199219 120.050781 223.128906 122.191406 222.414062 124.515625 C 222.054688 125.585938 221.519531 127.375 221.164062 128.625 C 223.484375 129.339844 225.984375 130.054688 228.308594 131.125 M 226.878906 119.15625 C 230.808594 119.15625 231.882812 123.265625 231.882812 127.550781 L 231.882812 131.484375 C 231.882812 132.734375 231.523438 135.234375 229.023438 134.164062 C 225.984375 132.910156 221.519531 130.589844 219.734375 131.839844 C 218.484375 132.734375 218.660156 133.984375 218.660156 136.84375 L 218.660156 143.453125 C 218.660156 146.488281 217.234375 148.277344 215.265625 148.277344 L 215.265625 134.878906 C 215.089844 132.734375 215.980469 130.589844 217.769531 129.339844 L 217.945312 129.160156 C 219.554688 125.410156 220.984375 119.15625 226.878906 119.15625 "/>
<path style=" stroke:none;fill-rule:nonzero;fill:rgb(43.921569%,38.431373%,34.901962%);fill-opacity:1;" d="M 0.355469 158.457031 L 3.394531 158.457031 L 3.394531 166.675781 L 9.46875 158.457031 L 12.328125 158.457031 L 5.894531 166.855469 L 13.042969 176.859375 L 9.648438 176.859375 L 3.394531 167.925781 L 3.394531 176.859375 L 0.355469 176.859375 Z M 0.355469 158.457031 "/>
<path style=" stroke:none;fill-rule:nonzero;fill:rgb(43.921569%,38.431373%,34.901962%);fill-opacity:1;" d="M 15.363281 176.859375 L 18.042969 176.859375 L 18.042969 164.175781 L 15.363281 164.175781 Z M 15.183594 161.136719 L 18.042969 161.136719 L 18.042969 158.457031 L 15.183594 158.457031 Z M 15.183594 161.136719 "/>
<path style=" stroke:none;fill-rule:nonzero;fill:rgb(43.921569%,38.431373%,34.901962%);fill-opacity:1;" d="M 22.332031 164.175781 L 25.011719 164.175781 L 25.011719 167.210938 C 25.726562 165.246094 27.511719 163.996094 29.476562 163.996094 C 31.261719 163.996094 32.691406 165.605469 32.691406 167.390625 C 32.691406 167.570312 32.691406 167.570312 32.691406 167.746094 L 32.691406 176.859375 L 30.011719 176.859375 L 30.011719 169 C 30.011719 167.390625 29.832031 165.960938 28.40625 165.960938 C 25.726562 165.960938 25.011719 170.070312 25.011719 171.679688 L 25.011719 176.859375 L 22.332031 176.859375 Z M 22.332031 164.175781 "/>
<path style=" stroke:none;fill-rule:nonzero;fill:rgb(43.921569%,38.431373%,34.901962%);fill-opacity:1;" d="M 46.804688 176.5 C 46.804688 180.074219 45.734375 182.933594 40.550781 182.933594 C 39.300781 182.933594 38.230469 182.753906 36.980469 182.398438 L 36.980469 179.71875 C 38.230469 180.609375 39.660156 181.144531 41.089844 181.324219 C 43.945312 181.324219 44.304688 179.359375 44.304688 176.5 L 44.304688 175.074219 C 43.589844 176.324219 42.339844 177.039062 41.089844 176.859375 C 37.695312 176.859375 36.265625 174.179688 36.265625 170.425781 C 36.265625 166.675781 37.335938 163.996094 41.089844 163.996094 C 42.519531 163.996094 43.945312 164.890625 44.304688 166.320312 L 44.304688 164.175781 L 46.984375 164.175781 Z M 41.445312 175.25 C 43.769531 175.25 43.945312 172.570312 43.945312 170.425781 C 43.945312 168.285156 43.589844 165.425781 41.445312 165.425781 C 39.300781 165.425781 38.945312 168.105469 38.945312 170.25 C 38.945312 172.394531 39.300781 175.25 41.445312 175.25 "/>
<path style=" stroke:none;fill-rule:nonzero;fill:rgb(43.921569%,38.431373%,34.901962%);fill-opacity:1;" d="M 62.882812 158.457031 L 65.921875 158.457031 L 71.992188 176.859375 L 68.957031 176.859375 L 67.347656 171.320312 L 60.917969 171.320312 L 59.308594 176.859375 L 56.628906 176.859375 Z M 61.632812 169.714844 L 66.8125 169.714844 L 64.3125 161.136719 Z M 61.632812 169.714844 "/>
<path style=" stroke:none;fill-rule:nonzero;fill:rgb(43.921569%,38.431373%,34.901962%);fill-opacity:1;" d="M 76.816406 165.960938 C 77.53125 164.710938 78.960938 163.816406 80.390625 163.996094 C 83.785156 163.996094 85.214844 166.855469 85.214844 170.605469 C 85.214844 175.25 82.890625 177.214844 79.496094 177.214844 C 74.496094 177.214844 74.136719 173.820312 74.136719 170.605469 L 74.136719 158.457031 L 76.816406 158.457031 Z M 79.496094 176.144531 C 81.640625 176.144531 82.175781 173.285156 82.175781 170.605469 C 82.175781 168.460938 81.640625 165.425781 79.496094 165.425781 C 77.351562 165.425781 76.816406 168.105469 76.816406 170.605469 C 76.996094 173.820312 77.351562 175.964844 79.496094 176.144531 "/>
<path style=" stroke:none;fill-rule:nonzero;fill:rgb(43.921569%,38.431373%,34.901962%);fill-opacity:1;" d="M 95.574219 174.714844 C 95.039062 176.144531 93.789062 177.039062 92.359375 177.039062 C 88.785156 177.039062 87.535156 174 87.535156 170.425781 C 87.535156 166.855469 88.964844 163.816406 92.359375 163.816406 C 93.789062 163.816406 95.039062 164.53125 95.574219 165.78125 L 95.574219 158.28125 L 98.253906 158.28125 L 98.253906 176.859375 L 95.574219 176.859375 Z M 93.074219 175.429688 C 95.21875 175.429688 95.574219 172.570312 95.574219 170.425781 C 95.574219 168.285156 95.398438 165.246094 93.074219 165.246094 C 90.75 165.246094 90.574219 168.105469 90.574219 170.425781 C 90.574219 172.75 90.929688 175.429688 93.074219 175.429688 "/>
<path style=" stroke:none;fill-rule:nonzero;fill:rgb(43.921569%,38.431373%,34.901962%);fill-opacity:1;" d="M 110.222656 173.820312 C 109.507812 175.785156 107.722656 177.039062 105.757812 177.214844 C 103.972656 177.214844 102.542969 175.609375 102.542969 173.820312 C 102.542969 173.644531 102.542969 173.644531 102.542969 173.464844 L 102.542969 164.175781 L 105.222656 164.175781 L 105.222656 172.035156 C 105.222656 173.644531 105.402344 175.074219 106.828125 175.074219 C 109.507812 175.074219 110.222656 170.964844 110.222656 169.355469 L 110.222656 164.175781 L 112.902344 164.175781 L 112.902344 176.859375 L 110.222656 176.859375 Z M 110.222656 173.820312 "/>
<path style=" stroke:none;fill-rule:nonzero;fill:rgb(43.921569%,38.431373%,34.901962%);fill-opacity:1;" d="M 117.191406 158.457031 L 119.871094 158.457031 L 119.871094 176.859375 L 117.191406 176.859375 Z M 117.191406 158.457031 "/>
<path style=" stroke:none;fill-rule:nonzero;fill:rgb(43.921569%,38.431373%,34.901962%);fill-opacity:1;" d="M 124.160156 158.457031 L 126.839844 158.457031 L 126.839844 176.859375 L 124.160156 176.859375 Z M 124.160156 158.457031 "/>
<path style=" stroke:none;fill-rule:nonzero;fill:rgb(43.921569%,38.431373%,34.901962%);fill-opacity:1;" d="M 137.558594 175.074219 C 136.84375 176.324219 135.414062 177.214844 133.984375 177.214844 C 132.199219 177.394531 130.589844 176.144531 130.410156 174.179688 C 130.410156 174.179688 130.410156 174 130.410156 174 C 130.410156 170.070312 135.769531 169.890625 137.558594 169.890625 L 137.558594 168.820312 C 137.558594 167.390625 137.558594 165.066406 135.769531 165.066406 C 133.984375 165.066406 133.804688 166.320312 133.804688 167.925781 L 130.945312 167.925781 C 131.125 165.960938 131.839844 163.996094 135.769531 163.996094 C 139.699219 163.996094 140.238281 166.320312 140.238281 168.820312 L 140.238281 176.859375 L 137.558594 176.859375 Z M 137.558594 170.964844 C 136.484375 170.964844 133.449219 171.320312 133.449219 173.644531 C 133.449219 174.714844 134.164062 175.609375 135.054688 175.609375 C 136.664062 175.429688 137.734375 174.179688 137.734375 172.570312 L 137.734375 170.964844 Z M 137.558594 170.964844 "/>
<path style=" stroke:none;fill-rule:nonzero;fill:rgb(43.921569%,38.431373%,34.901962%);fill-opacity:1;" d="M 144.167969 158.457031 L 146.847656 158.457031 L 146.847656 167.210938 C 147.5625 165.246094 149.347656 163.996094 151.3125 163.996094 C 153.097656 163.996094 154.527344 165.605469 154.527344 167.390625 C 154.527344 167.570312 154.527344 167.570312 154.527344 167.746094 L 154.527344 176.859375 L 151.847656 176.859375 L 151.847656 169 C 151.847656 167.390625 151.667969 165.960938 150.242188 165.960938 C 147.5625 165.960938 146.847656 170.070312 146.847656 171.679688 L 146.847656 176.859375 L 144.167969 176.859375 Z M 144.167969 158.457031 "/>
<path style=" stroke:none;fill-rule:nonzero;fill:rgb(43.921569%,38.431373%,34.901962%);fill-opacity:1;" d="M 178.824219 170.25 C 178.824219 173.644531 178.289062 177.039062 172.570312 177.039062 C 166.855469 177.039062 166.320312 173.644531 166.320312 170.25 L 166.320312 158.457031 L 169.175781 158.457031 L 169.175781 170.25 C 169.175781 173.105469 169.355469 175.429688 172.394531 175.429688 C 175.429688 175.429688 175.609375 173.105469 175.609375 170.25 L 175.609375 158.457031 L 178.464844 158.457031 L 178.464844 170.25 Z M 178.824219 170.25 "/>
<path style=" stroke:none;fill-rule:nonzero;fill:rgb(43.921569%,38.431373%,34.901962%);fill-opacity:1;" d="M 182.933594 164.175781 L 185.613281 164.175781 L 185.613281 167.210938 C 186.328125 165.246094 188.113281 163.996094 190.078125 163.996094 C 191.863281 163.996094 193.292969 165.605469 193.292969 167.390625 C 193.292969 167.570312 193.292969 167.570312 193.292969 167.746094 L 193.292969 176.859375 L 190.613281 176.859375 L 190.613281 169 C 190.613281 167.390625 190.4375 165.960938 189.007812 165.960938 C 186.328125 165.960938 185.613281 170.070312 185.613281 171.679688 L 185.613281 176.859375 L 182.933594 176.859375 Z M 182.933594 164.175781 "/>
<path style=" stroke:none;fill-rule:nonzero;fill:rgb(43.921569%,38.431373%,34.901962%);fill-opacity:1;" d="M 197.582031 176.859375 L 200.261719 176.859375 L 200.261719 164.175781 L 197.582031 164.175781 Z M 197.402344 161.136719 L 200.261719 161.136719 L 200.261719 158.457031 L 197.402344 158.457031 Z M 197.402344 161.136719 "/>
<path style=" stroke:none;fill-rule:nonzero;fill:rgb(43.921569%,38.431373%,34.901962%);fill-opacity:1;" d="M 202.582031 164.175781 L 205.441406 164.175781 L 208.65625 173.285156 L 208.835938 173.285156 L 211.875 164.175781 L 214.195312 164.175781 L 209.730469 176.859375 L 207.40625 176.859375 Z M 202.582031 164.175781 "/>
<path style=" stroke:none;fill-rule:nonzero;fill:rgb(43.921569%,38.431373%,34.901962%);fill-opacity:1;" d="M 225.628906 176.5 C 224.378906 177.039062 223.128906 177.214844 221.878906 177.214844 C 218.304688 177.214844 215.625 175.074219 215.625 170.070312 C 215.625 166.496094 217.054688 163.996094 220.984375 163.996094 C 224.914062 163.996094 225.808594 166.675781 225.808594 169.175781 L 218.304688 169.175781 C 218.304688 171.679688 219.375 175.785156 223.304688 175.785156 C 224.199219 175.785156 224.914062 175.609375 225.808594 175.25 Z M 223.304688 167.925781 C 223.304688 166.855469 222.949219 165.066406 220.984375 165.066406 C 219.019531 165.066406 218.484375 167.210938 218.484375 167.925781 Z M 223.304688 167.925781 "/>
<path style=" stroke:none;fill-rule:nonzero;fill:rgb(43.921569%,38.431373%,34.901962%);fill-opacity:1;" d="M 229.023438 164.175781 L 231.703125 164.175781 L 231.703125 167.390625 C 232.597656 165.78125 233.488281 163.996094 235.8125 163.816406 L 235.8125 166.675781 C 233.3125 166.855469 231.703125 167.570312 231.703125 170.964844 L 231.703125 176.859375 L 229.023438 176.859375 Z M 229.023438 164.175781 "/>
<path style=" stroke:none;fill-rule:nonzero;fill:rgb(43.921569%,38.431373%,34.901962%);fill-opacity:1;" d="M 244.921875 166.675781 C 244.03125 165.960938 242.957031 165.425781 241.707031 165.425781 C 240.8125 165.425781 239.921875 165.78125 239.921875 166.855469 C 239.921875 169.175781 245.636719 169.355469 245.636719 173.464844 C 245.636719 176.144531 243.492188 177.394531 240.8125 177.394531 C 239.742188 177.394531 238.492188 177.214844 237.417969 176.859375 L 237.417969 174.359375 C 238.492188 175.074219 239.742188 175.609375 240.992188 175.785156 C 242.601562 175.785156 243.136719 175.074219 243.136719 174.179688 C 243.136719 172.035156 237.417969 171.5 237.417969 167.925781 C 237.417969 165.960938 238.671875 164.355469 241.886719 164.355469 C 242.957031 164.355469 243.851562 164.53125 244.921875 164.890625 Z M 244.921875 166.675781 "/>
<path style=" stroke:none;fill-rule:nonzero;fill:rgb(43.921569%,38.431373%,34.901962%);fill-opacity:1;" d="M 248.675781 176.859375 L 251.355469 176.859375 L 251.355469 164.175781 L 248.675781 164.175781 Z M 248.675781 161.136719 L 251.53125 161.136719 L 251.53125 158.457031 L 248.675781 158.457031 Z M 248.675781 161.136719 "/>
<path style=" stroke:none;fill-rule:nonzero;fill:rgb(43.921569%,38.431373%,34.901962%);fill-opacity:1;" d="M 262.429688 177.039062 C 261.894531 177.214844 261.179688 177.214844 260.644531 177.214844 C 258.140625 177.214844 256.714844 176.5 256.714844 174 L 256.714844 165.605469 L 254.75 165.605469 L 254.75 164.175781 L 256.714844 164.175781 L 256.714844 161.136719 L 259.394531 159.53125 L 259.394531 164.175781 L 262.964844 164.175781 L 262.964844 165.605469 L 259.394531 165.605469 L 259.394531 172.929688 C 259.394531 174.714844 259.570312 175.785156 261.359375 175.785156 C 261.714844 175.785156 262.25 175.785156 262.609375 175.609375 Z M 262.429688 177.039062 "/>
<path style=" stroke:none;fill-rule:nonzero;fill:rgb(43.921569%,38.431373%,34.901962%);fill-opacity:1;" d="M 268.148438 177.039062 L 263.324219 164.175781 L 266.179688 164.175781 L 269.398438 173.285156 L 269.574219 173.285156 L 272.433594 164.175781 L 275.113281 164.175781 L 268.503906 182.574219 L 266.359375 182.574219 Z M 268.148438 177.039062 "/>
<path style=" stroke:none;fill-rule:nonzero;fill:rgb(43.921569%,38.431373%,34.901962%);fill-opacity:1;" d="M 281.367188 170.605469 C 281.367188 166.320312 283.152344 163.996094 286.902344 163.996094 C 290.65625 163.996094 292.441406 166.320312 292.441406 170.605469 C 292.441406 174.894531 290.476562 177.214844 286.902344 177.214844 C 283.332031 177.214844 281.367188 174.894531 281.367188 170.605469 M 286.902344 175.964844 C 289.40625 175.964844 289.582031 172.75 289.582031 170.425781 C 289.582031 168.105469 289.226562 164.890625 286.902344 164.890625 C 284.582031 164.890625 284.222656 168.105469 284.222656 170.425781 C 284.222656 172.75 284.582031 175.964844 286.902344 175.964844 "/>
<path style=" stroke:none;fill-rule:nonzero;fill:rgb(43.921569%,38.431373%,34.901962%);fill-opacity:1;" d="M 296.730469 165.605469 L 294.585938 165.605469 L 294.585938 164.175781 L 296.730469 164.175781 L 296.730469 162.925781 C 296.730469 160.601562 297.265625 158.101562 301.554688 158.101562 C 302.445312 158.101562 303.339844 158.28125 304.234375 158.457031 L 304.234375 160.246094 C 303.519531 159.886719 302.625 159.707031 301.910156 159.707031 C 299.765625 159.707031 299.410156 161.316406 299.410156 162.566406 L 299.410156 163.996094 L 302.980469 163.996094 L 302.980469 165.425781 L 299.410156 165.425781 L 299.410156 176.859375 L 296.730469 176.859375 Z M 296.730469 165.605469 "/>
<path style=" stroke:none;fill-rule:nonzero;fill:rgb(43.921569%,38.431373%,34.901962%);fill-opacity:1;" d="M 50.554688 192.757812 C 49.128906 192.042969 47.519531 191.507812 46.089844 191.507812 C 44.484375 191.507812 43.410156 192.402344 43.410156 193.832031 C 43.410156 197.761719 52.164062 197.582031 52.164062 203.296875 C 52.164062 207.226562 49.128906 208.65625 45.554688 208.65625 C 43.945312 208.65625 42.339844 208.480469 40.910156 207.941406 L 40.910156 205.085938 C 42.519531 205.976562 44.304688 206.515625 46.089844 206.691406 C 48.054688 206.691406 49.484375 205.976562 49.484375 204.011719 C 49.484375 199.726562 40.730469 200.082031 40.730469 194.367188 C 40.730469 191.328125 42.875 189.722656 46.804688 189.722656 C 48.234375 189.722656 49.664062 189.898438 51.09375 190.257812 Z M 50.554688 192.757812 "/>
<path style=" stroke:none;fill-rule:nonzero;fill:rgb(43.921569%,38.431373%,34.901962%);fill-opacity:1;" d="M 63.417969 208.121094 C 62.347656 208.480469 61.097656 208.65625 60.023438 208.65625 C 56.09375 208.65625 53.59375 206.335938 53.59375 201.511719 C 53.59375 197.761719 55.378906 195.4375 58.953125 195.4375 C 62.527344 195.4375 63.417969 197.222656 63.417969 199.902344 L 60.5625 199.902344 C 60.5625 198.476562 60.382812 196.6875 58.773438 196.6875 C 57.167969 196.6875 56.453125 198.476562 56.453125 200.796875 C 56.453125 203.835938 57.703125 207.40625 60.917969 207.40625 C 61.632812 207.40625 62.527344 207.226562 63.242188 206.871094 Z M 63.417969 208.121094 "/>
<path style=" stroke:none;fill-rule:nonzero;fill:rgb(43.921569%,38.431373%,34.901962%);fill-opacity:1;" d="M 66.457031 208.480469 L 69.136719 208.480469 L 69.136719 195.796875 L 66.457031 195.796875 Z M 66.277344 192.757812 L 69.136719 192.757812 L 69.136719 190.078125 L 66.277344 190.078125 Z M 66.277344 192.757812 "/>
<path style=" stroke:none;fill-rule:nonzero;fill:rgb(43.921569%,38.431373%,34.901962%);fill-opacity:1;" d="M 82.535156 208.121094 C 81.285156 208.65625 80.03125 208.835938 78.78125 208.835938 C 75.210938 208.835938 72.53125 206.691406 72.53125 201.691406 C 72.53125 198.117188 73.960938 195.617188 77.890625 195.617188 C 81.820312 195.617188 82.710938 198.296875 82.710938 200.796875 L 75.03125 200.796875 C 75.03125 203.296875 76.101562 207.40625 80.03125 207.40625 C 80.925781 207.40625 81.640625 207.226562 82.535156 206.871094 Z M 80.03125 199.546875 C 80.03125 198.476562 79.675781 196.6875 77.710938 196.6875 C 75.746094 196.6875 75.210938 198.832031 75.210938 199.546875 Z M 80.03125 199.546875 "/>
<path style=" stroke:none;fill-rule:nonzero;fill:rgb(43.921569%,38.431373%,34.901962%);fill-opacity:1;" d="M 85.75 195.796875 L 88.429688 195.796875 L 88.429688 198.832031 C 89.144531 196.867188 90.929688 195.617188 92.894531 195.617188 C 94.683594 195.617188 96.109375 197.222656 96.109375 199.011719 C 96.109375 199.1875 96.109375 199.1875 96.109375 199.367188 L 96.109375 208.65625 L 93.429688 208.65625 L 93.429688 200.796875 C 93.429688 199.1875 93.253906 197.761719 91.824219 197.761719 C 89.144531 197.761719 88.429688 201.867188 88.429688 203.476562 L 88.429688 208.65625 L 85.75 208.65625 Z M 85.75 195.796875 "/>
<path style=" stroke:none;fill-rule:nonzero;fill:rgb(43.921569%,38.431373%,34.901962%);fill-opacity:1;" d="M 109.152344 208.121094 C 108.082031 208.480469 107.007812 208.65625 105.757812 208.65625 C 101.828125 208.65625 99.328125 206.335938 99.328125 201.511719 C 99.328125 197.761719 101.113281 195.4375 104.6875 195.4375 C 108.257812 195.4375 109.152344 197.222656 109.152344 199.902344 L 106.292969 199.902344 C 106.292969 198.476562 106.117188 196.6875 104.507812 196.6875 C 102.898438 196.6875 102.183594 198.476562 102.183594 200.796875 C 102.183594 203.835938 103.4375 207.40625 106.828125 207.40625 C 107.542969 207.40625 108.4375 207.226562 109.152344 206.871094 Z M 109.152344 208.121094 "/>
<path style=" stroke:none;fill-rule:nonzero;fill:rgb(43.921569%,38.431373%,34.901962%);fill-opacity:1;" d="M 120.941406 208.121094 C 119.691406 208.65625 118.441406 208.835938 117.191406 208.835938 C 113.617188 208.835938 110.9375 206.691406 110.9375 201.691406 C 110.9375 198.117188 112.367188 195.617188 116.296875 195.617188 C 120.226562 195.617188 121.121094 198.296875 121.121094 200.796875 L 113.617188 200.796875 C 113.617188 203.296875 114.691406 207.40625 118.621094 207.40625 C 119.515625 207.40625 120.226562 207.226562 120.941406 206.871094 Z M 118.621094 199.546875 C 118.621094 198.476562 118.261719 196.6875 116.296875 196.6875 C 114.332031 196.6875 113.796875 198.832031 113.796875 199.546875 Z M 118.621094 199.546875 "/>
<path style=" stroke:none;fill-rule:nonzero;fill:rgb(43.921569%,38.431373%,34.901962%);fill-opacity:1;" d="M 138.269531 206.691406 C 137.558594 207.941406 136.128906 208.65625 134.699219 208.65625 C 132.910156 208.835938 131.304688 207.40625 131.304688 205.621094 C 131.304688 205.621094 131.304688 205.621094 131.304688 205.441406 C 131.304688 201.511719 136.664062 201.332031 138.449219 201.332031 L 138.449219 200.261719 C 138.449219 198.832031 138.449219 196.511719 136.664062 196.511719 C 134.878906 196.511719 134.699219 197.761719 134.519531 199.367188 L 131.660156 199.367188 C 131.839844 197.402344 132.554688 195.4375 136.484375 195.4375 C 140.414062 195.4375 140.949219 197.761719 140.949219 200.261719 L 140.949219 208.480469 L 138.269531 208.480469 Z M 138.269531 202.582031 C 137.199219 202.582031 134.164062 202.941406 134.164062 205.261719 C 134.164062 206.515625 134.878906 207.226562 135.769531 207.226562 C 137.378906 207.050781 138.449219 205.800781 138.269531 204.191406 Z M 138.269531 202.582031 "/>
<path style=" stroke:none;fill-rule:nonzero;fill:rgb(43.921569%,38.431373%,34.901962%);fill-opacity:1;" d="M 145.058594 195.796875 L 147.738281 195.796875 L 147.738281 198.832031 C 148.453125 196.867188 150.242188 195.617188 152.207031 195.617188 C 153.992188 195.617188 155.421875 197.222656 155.421875 199.011719 C 155.421875 199.1875 155.421875 199.1875 155.421875 199.367188 L 155.421875 208.65625 L 152.742188 208.65625 L 152.742188 200.796875 C 152.742188 199.1875 152.5625 197.761719 151.132812 197.761719 C 148.453125 197.761719 147.738281 201.867188 147.738281 203.476562 L 147.738281 208.65625 L 145.058594 208.65625 Z M 145.058594 195.796875 "/>
<path style=" stroke:none;fill-rule:nonzero;fill:rgb(43.921569%,38.431373%,34.901962%);fill-opacity:1;" d="M 166.855469 206.515625 C 166.320312 207.941406 165.066406 208.835938 163.640625 208.835938 C 160.066406 208.835938 158.816406 205.800781 158.816406 202.226562 C 158.816406 198.652344 160.246094 195.617188 163.640625 195.617188 C 165.066406 195.617188 166.320312 196.332031 166.855469 197.761719 L 166.855469 190.257812 L 169.535156 190.257812 L 169.535156 208.65625 L 166.855469 208.65625 Z M 164.175781 207.050781 C 166.320312 207.050781 166.675781 204.191406 166.675781 202.046875 C 166.675781 199.902344 166.496094 197.046875 164.175781 197.046875 C 161.851562 197.046875 161.675781 199.902344 161.675781 202.046875 C 161.675781 204.191406 162.03125 207.050781 164.175781 207.050781 "/>
<path style=" stroke:none;fill-rule:nonzero;fill:rgb(43.921569%,38.431373%,34.901962%);fill-opacity:1;" d="M 183.648438 191.863281 L 179.179688 191.863281 L 179.179688 190.078125 L 190.972656 190.078125 L 190.972656 191.863281 L 186.503906 191.863281 L 186.503906 208.480469 L 183.648438 208.480469 Z M 183.648438 191.863281 "/>
<path style=" stroke:none;fill-rule:nonzero;fill:rgb(43.921569%,38.431373%,34.901962%);fill-opacity:1;" d="M 201.332031 208.121094 C 200.082031 208.65625 198.832031 208.835938 197.582031 208.835938 C 194.007812 208.835938 191.328125 206.691406 191.328125 201.691406 C 191.328125 198.117188 192.757812 195.617188 196.6875 195.617188 C 200.617188 195.617188 201.511719 198.296875 201.511719 200.796875 L 194.007812 200.796875 C 194.007812 203.296875 195.082031 207.40625 199.011719 207.40625 C 199.902344 207.40625 200.617188 207.226562 201.511719 206.871094 Z M 198.832031 199.546875 C 198.832031 198.476562 198.476562 196.6875 196.511719 196.6875 C 194.542969 196.6875 194.007812 198.832031 194.007812 199.546875 Z M 198.832031 199.546875 "/>
<path style=" stroke:none;fill-rule:nonzero;fill:rgb(43.921569%,38.431373%,34.901962%);fill-opacity:1;" d="M 213.480469 208.121094 C 212.410156 208.480469 211.335938 208.65625 210.085938 208.65625 C 206.15625 208.65625 203.65625 206.335938 203.65625 201.511719 C 203.65625 197.761719 205.441406 195.4375 209.015625 195.4375 C 212.585938 195.4375 213.660156 197.222656 213.660156 199.902344 L 210.800781 199.902344 C 210.800781 198.476562 210.621094 196.6875 209.015625 196.6875 C 207.40625 196.6875 206.691406 198.476562 206.691406 200.796875 C 206.691406 203.835938 207.941406 207.40625 211.335938 207.40625 C 212.050781 207.40625 212.945312 207.226562 213.660156 206.871094 Z M 213.480469 208.121094 "/>
<path style=" stroke:none;fill-rule:nonzero;fill:rgb(43.921569%,38.431373%,34.901962%);fill-opacity:1;" d="M 216.160156 190.078125 L 218.839844 190.078125 L 218.839844 198.832031 C 219.554688 196.867188 221.339844 195.617188 223.304688 195.617188 C 225.09375 195.617188 226.523438 197.222656 226.523438 199.011719 C 226.523438 199.1875 226.523438 199.1875 226.523438 199.367188 L 226.523438 208.65625 L 223.84375 208.65625 L 223.84375 200.796875 C 223.84375 199.1875 223.664062 197.761719 222.234375 197.761719 C 219.554688 197.761719 218.839844 201.867188 218.839844 203.476562 L 218.839844 208.65625 L 216.160156 208.65625 Z M 216.160156 190.078125 "/>
<path style=" stroke:none;fill-rule:nonzero;fill:rgb(43.921569%,38.431373%,34.901962%);fill-opacity:1;" d="M 230.808594 195.796875 L 233.488281 195.796875 L 233.488281 198.832031 C 234.203125 196.867188 235.992188 195.617188 237.957031 195.617188 C 239.742188 195.617188 241.171875 197.222656 241.171875 199.011719 C 241.171875 199.1875 241.171875 199.1875 241.171875 199.367188 L 241.171875 208.65625 L 238.492188 208.65625 L 238.492188 200.796875 C 238.492188 199.1875 238.3125 197.761719 236.882812 197.761719 C 234.203125 197.761719 233.488281 201.867188 233.488281 203.476562 L 233.488281 208.65625 L 230.808594 208.65625 Z M 230.808594 195.796875 "/>
<path style=" stroke:none;fill-rule:nonzero;fill:rgb(43.921569%,38.431373%,34.901962%);fill-opacity:1;" d="M 244.386719 202.226562 C 244.386719 197.9375 246.171875 195.617188 249.925781 195.617188 C 253.675781 195.617188 255.460938 197.9375 255.460938 202.226562 C 255.460938 206.515625 253.496094 208.835938 249.925781 208.835938 C 246.351562 208.835938 244.386719 206.515625 244.386719 202.226562 M 249.925781 207.765625 C 252.425781 207.765625 252.605469 204.546875 252.605469 202.226562 C 252.605469 199.902344 252.246094 196.6875 249.925781 196.6875 C 247.601562 196.6875 247.246094 199.902344 247.246094 202.226562 C 247.246094 204.546875 247.601562 207.765625 249.925781 207.765625 "/>
<path style=" stroke:none;fill-rule:nonzero;fill:rgb(43.921569%,38.431373%,34.901962%);fill-opacity:1;" d="M 258.855469 190.078125 L 261.535156 190.078125 L 261.535156 208.480469 L 258.855469 208.480469 Z M 258.855469 190.078125 "/>
<path style=" stroke:none;fill-rule:nonzero;fill:rgb(43.921569%,38.431373%,34.901962%);fill-opacity:1;" d="M 265.109375 202.226562 C 265.109375 197.9375 266.894531 195.617188 270.648438 195.617188 C 274.398438 195.617188 276.1875 197.9375 276.1875 202.226562 C 276.1875 206.515625 274.21875 208.835938 270.648438 208.835938 C 267.074219 208.835938 265.109375 206.515625 265.109375 202.226562 M 270.648438 207.765625 C 272.96875 207.765625 273.328125 204.546875 273.328125 202.226562 C 273.328125 199.902344 272.96875 196.6875 270.648438 196.6875 C 268.324219 196.6875 267.96875 199.902344 267.96875 202.226562 C 267.96875 204.546875 268.148438 207.765625 270.648438 207.765625 "/>
<path style=" stroke:none;fill-rule:nonzero;fill:rgb(43.921569%,38.431373%,34.901962%);fill-opacity:1;" d="M 289.40625 208.121094 C 289.40625 211.695312 288.332031 214.554688 283.152344 214.554688 C 281.902344 214.554688 280.832031 214.375 279.578125 214.015625 L 279.578125 211.335938 C 280.832031 212.230469 282.257812 212.765625 283.6875 212.945312 C 286.546875 212.945312 286.902344 210.980469 286.902344 208.121094 L 286.902344 206.691406 C 286.191406 207.941406 284.9375 208.65625 283.511719 208.480469 C 280.117188 208.480469 278.6875 205.800781 278.6875 202.046875 C 278.6875 198.296875 279.757812 195.617188 283.511719 195.617188 C 284.9375 195.617188 286.367188 196.511719 286.902344 197.9375 L 286.902344 195.796875 L 289.582031 195.796875 L 289.582031 208.121094 Z M 284.046875 207.050781 C 286.367188 207.050781 286.546875 204.371094 286.546875 202.226562 C 286.546875 200.082031 286.191406 197.222656 284.046875 197.222656 C 281.902344 197.222656 281.542969 199.902344 281.542969 202.046875 C 281.542969 204.191406 281.902344 207.050781 284.046875 207.050781 "/>
<path style=" stroke:none;fill-rule:nonzero;fill:rgb(43.921569%,38.431373%,34.901962%);fill-opacity:1;" d="M 296.371094 208.65625 L 291.550781 195.796875 L 294.40625 195.796875 L 297.621094 204.90625 L 297.800781 204.90625 L 300.660156 195.796875 L 303.339844 195.796875 L 296.730469 214.195312 L 294.585938 214.195312 Z M 296.371094 208.65625 "/>
<path style=" stroke:none;fill-rule:nonzero;fill:rgb(94.117647%,56.470591%,12.941177%);fill-opacity:1;" d="M 410.527344 94.324219 C 413.027344 90.574219 414.277344 85.929688 414.101562 81.285156 C 414.101562 78.425781 413.742188 75.566406 412.847656 72.707031 C 409.992188 75.210938 408.382812 78.78125 408.382812 82.535156 C 408.5625 86.644531 409.277344 90.574219 410.527344 94.324219 "/>
<path style=" stroke:none;fill-rule:nonzero;fill:rgb(94.117647%,56.470591%,12.941177%);fill-opacity:1;" d="M 441.253906 63.777344 C 442.148438 68.421875 442.503906 73.066406 442.503906 77.710938 C 442.503906 95.039062 439.109375 107.367188 433.929688 116.296875 C 434.824219 116.476562 435.714844 116.476562 436.609375 116.476562 C 460.90625 116.476562 466.085938 93.96875 466.085938 84.140625 C 466.085938 68.242188 450.007812 64.132812 441.253906 63.777344 "/>
<path style=" stroke:none;fill-rule:nonzero;fill:rgb(94.117647%,56.470591%,12.941177%);fill-opacity:1;" d="M 416.78125 81.460938 C 416.957031 87.179688 415.171875 92.71875 411.597656 97.183594 C 412.492188 99.503906 413.742188 101.648438 414.992188 103.792969 C 419.816406 98.253906 422.140625 90.394531 422.140625 80.210938 C 422.140625 76.101562 421.425781 71.992188 420.171875 68.242188 C 418.386719 69.136719 416.78125 70.027344 415.171875 71.28125 C 416.242188 74.316406 416.78125 77.890625 416.78125 81.460938 "/>
<path style=" stroke:none;fill-rule:nonzero;fill:rgb(94.117647%,56.470591%,12.941177%);fill-opacity:1;" d="M 425.175781 80.210938 C 425.175781 92.71875 421.78125 100.933594 416.78125 106.292969 C 418.03125 107.902344 419.636719 109.332031 421.246094 110.761719 C 426.605469 103.972656 430.179688 93.96875 430.179688 78.960938 C 430.179688 74.316406 429.640625 69.851562 428.390625 65.382812 C 426.605469 65.921875 424.820312 66.457031 423.210938 66.992188 C 424.460938 71.101562 425.355469 75.566406 425.175781 80.210938 "/>
<path style=" stroke:none;fill-rule:nonzero;fill:rgb(94.117647%,56.470591%,12.941177%);fill-opacity:1;" d="M 433.929688 78.960938 C 433.929688 95.039062 430 105.757812 424.28125 113.082031 C 425.890625 114.15625 427.675781 114.867188 429.464844 115.40625 C 434.644531 107.007812 438.039062 94.859375 438.039062 77.710938 C 438.039062 73.066406 437.503906 68.421875 436.609375 63.777344 C 435.179688 63.953125 433.570312 64.132812 431.785156 64.492188 C 433.214844 69.136719 433.929688 73.960938 433.929688 78.960938 "/>
<path style=" stroke:none;fill-rule:nonzero;fill:rgb(93.725491%,71.372551%,11.372549%);fill-opacity:1;" d="M 385.335938 42.515625 C 398.734375 42.515625 409.8125 47.699219 416.957031 56.09375 C 418.386719 54.128906 419.636719 51.984375 420.710938 49.84375 C 414.277344 41.804688 404.453125 36.445312 391.054688 36.445312 C 380.15625 36.800781 369.4375 38.765625 359.078125 42.515625 C 359.253906 43.945312 359.792969 45.375 360.507812 46.625 C 368.546875 43.945312 376.941406 42.515625 385.335938 42.515625 "/>
<path style=" stroke:none;fill-rule:nonzero;fill:rgb(93.725491%,71.372551%,11.372549%);fill-opacity:1;" d="M 424.28125 32.15625 C 423.390625 20.007812 416.957031 0 394.628906 0 C 377.296875 0 366.9375 16.257812 362.113281 28.761719 C 373.367188 25.1875 384.980469 23.222656 396.59375 23.046875 C 406.597656 22.6875 416.421875 25.902344 424.28125 32.15625 "/>
<path style=" stroke:none;fill-rule:nonzero;fill:rgb(93.725491%,71.372551%,11.372549%);fill-opacity:1;" d="M 366.042969 53.59375 C 370.511719 52.523438 375.15625 52.164062 379.800781 52.164062 C 387.304688 52.164062 401.773438 53.59375 410.167969 62.703125 C 411.957031 61.453125 413.5625 60.203125 414.992188 58.59375 C 408.5625 50.554688 398.023438 45.554688 385.335938 45.554688 C 377.476562 45.554688 369.617188 46.804688 361.933594 49.304688 C 363.1875 50.914062 364.613281 52.34375 366.042969 53.59375 "/>
<path style=" stroke:none;fill-rule:nonzero;fill:rgb(93.725491%,71.372551%,11.372549%);fill-opacity:1;" d="M 407.847656 63.953125 C 399.988281 55.914062 386.765625 54.664062 379.976562 54.664062 C 376.226562 54.664062 372.476562 55.023438 368.902344 55.558594 C 377.476562 61.8125 389.804688 66.277344 397.84375 66.277344 C 401.058594 66.457031 404.632812 65.742188 407.847656 63.953125 "/>
<path style=" stroke:none;fill-rule:nonzero;fill:rgb(93.725491%,71.372551%,11.372549%);fill-opacity:1;" d="M 391.054688 32.691406 C 404.988281 32.691406 415.351562 38.050781 422.316406 46.089844 C 423.210938 43.410156 423.925781 40.730469 424.28125 37.871094 C 418.207031 31.621094 409.277344 27.332031 396.59375 27.332031 C 384.265625 27.691406 371.9375 30.011719 360.328125 33.941406 C 359.96875 35.371094 359.613281 36.980469 359.253906 38.410156 C 369.4375 34.835938 380.15625 32.871094 391.054688 32.691406 "/>
<path style=" stroke:none;fill-rule:nonzero;fill:rgb(80.000001%,80.392158%,16.862746%);fill-opacity:1;" d="M 332.636719 66.457031 C 332.636719 56.273438 339.070312 48.949219 348 43.589844 C 346.75 42.695312 345.320312 41.980469 343.890625 41.625 C 335.496094 46.984375 329.777344 54.308594 329.777344 63.597656 C 329.777344 71.992188 332.816406 82.710938 338.355469 93.074219 C 339.246094 93.074219 340.140625 92.894531 341.035156 92.539062 C 335.675781 83.425781 332.636719 73.78125 332.636719 66.457031 "/>
<path style=" stroke:none;fill-rule:nonzero;fill:rgb(80.000001%,80.392158%,16.862746%);fill-opacity:1;" d="M 339.785156 69.3125 C 339.785156 60.5625 345.5 54.308594 353.183594 50.019531 C 352.644531 48.769531 351.753906 47.519531 350.859375 46.449219 C 342.464844 51.09375 336.390625 57.523438 336.390625 66.632812 C 336.390625 73.601562 339.246094 82.535156 344.25 91.289062 C 345.144531 90.574219 345.855469 90.039062 346.570312 89.144531 C 342.285156 82 339.960938 74.851562 339.785156 69.3125 "/>
<path style=" stroke:none;fill-rule:nonzero;fill:rgb(80.000001%,80.392158%,16.862746%);fill-opacity:1;" d="M 337.996094 40.375 C 336.925781 40.195312 335.851562 40.195312 334.78125 40.195312 C 324.597656 40.195312 302.804688 48.589844 302.804688 64.132812 C 302.804688 80.746094 321.203125 90.929688 333.171875 92.894531 C 327.992188 82.355469 325.132812 71.816406 325.132812 63.597656 C 325.3125 53.949219 330.316406 46.269531 337.996094 40.375 "/>
<path style=" stroke:none;fill-rule:nonzero;fill:rgb(80.000001%,80.392158%,16.862746%);fill-opacity:1;" d="M 346.75 71.992188 C 346.75 66.277344 349.789062 61.273438 355.148438 57.882812 C 355.148438 56.09375 354.789062 54.308594 354.253906 52.699219 C 347.464844 56.453125 342.820312 61.8125 342.820312 69.136719 C 343.175781 75.210938 345.144531 81.105469 348.359375 86.464844 C 349.074219 85.390625 349.609375 84.140625 350.144531 83.070312 C 348.179688 79.675781 346.929688 75.925781 346.75 71.992188 "/>
<path style=" stroke:none;fill-rule:nonzero;fill:rgb(80.000001%,80.392158%,16.862746%);fill-opacity:1;" d="M 349.429688 71.992188 C 349.609375 74.851562 350.324219 77.53125 351.574219 80.03125 C 353.71875 73.960938 354.96875 67.527344 355.324219 61.097656 C 351.574219 63.597656 349.429688 67.707031 349.429688 71.992188 "/>
<path style=" stroke:none;fill-rule:nonzero;fill:rgb(2.745098%,65.098041%,66.666669%);fill-opacity:1;" d="M 388.195312 105.402344 C 377.121094 105.222656 366.578125 100.933594 358.71875 93.429688 C 357.289062 93.96875 356.039062 94.503906 354.789062 95.21875 C 363.1875 105.042969 375.511719 113.082031 390.339844 113.082031 C 396.59375 113.261719 402.667969 112.011719 408.203125 109.332031 C 407.3125 106.828125 406.0625 104.507812 404.453125 102.542969 C 399.09375 104.507812 393.734375 105.578125 388.195312 105.402344 "/>
<path style=" stroke:none;fill-rule:nonzero;fill:rgb(2.745098%,65.098041%,66.666669%);fill-opacity:1;" d="M 340.675781 105.042969 C 335.496094 110.222656 332.28125 115.941406 332.28125 121.835938 C 332.28125 144.34375 367.292969 157.027344 380.871094 157.027344 C 396.949219 157.027344 404.453125 146.847656 407.667969 136.128906 C 403.203125 137.199219 398.558594 137.734375 393.914062 137.734375 C 371.402344 137.558594 352.824219 122.730469 340.675781 105.042969 "/>
<path style=" stroke:none;fill-rule:nonzero;fill:rgb(2.745098%,65.098041%,66.666669%);fill-opacity:1;" d="M 375.332031 89.859375 C 370.511719 89.859375 365.867188 90.75 361.398438 92.359375 C 368.722656 98.96875 378.371094 102.722656 388.195312 102.722656 C 393.019531 102.898438 397.84375 102.007812 402.308594 100.398438 C 393.734375 91.644531 380.335938 89.859375 375.332031 89.859375 "/>
<path style=" stroke:none;fill-rule:nonzero;fill:rgb(2.745098%,65.098041%,66.666669%);fill-opacity:1;" d="M 390.160156 116.121094 C 374.261719 116.121094 360.863281 107.1875 351.929688 96.648438 C 350.859375 97.183594 349.964844 97.71875 348.894531 98.433594 C 358.71875 111.832031 373.90625 123.085938 391.949219 123.085938 C 398.023438 123.265625 404.09375 122.015625 409.632812 119.691406 C 409.632812 117.191406 409.277344 114.691406 408.742188 112.367188 C 402.84375 114.867188 396.59375 116.296875 390.160156 116.121094 "/>
<path style=" stroke:none;fill-rule:nonzero;fill:rgb(2.745098%,65.098041%,66.666669%);fill-opacity:1;" d="M 391.949219 126.839844 C 372.652344 126.839844 356.398438 114.691406 345.855469 100.398438 C 345.144531 100.933594 344.429688 101.648438 343.714844 102.183594 C 355.148438 118.976562 372.652344 133.089844 393.914062 133.089844 C 398.914062 133.089844 403.917969 132.375 408.742188 130.945312 C 409.277344 128.445312 409.453125 125.945312 409.632812 123.445312 C 404.09375 125.765625 398.023438 126.839844 391.949219 126.839844 "/>
</g>
</svg>
