<svg xmlns="http://www.w3.org/2000/svg" viewBox="0 0 479.95 150.05">
  <defs>
    <style>
      .cls-1 {
        fill: #1c1c1a;
      }

      .cls-2 {
        fill: #003d72;
      }

      .cls-3 {
        fill: #fff;
      }
    </style>
  </defs>
  <g id="Layer_2" data-name="Layer 2">
    <g id="Layer_1-2" data-name="Layer 1">
      <g>
        <path class="cls-1" d="M202.52,85.62a1.49,1.49,0,0,1,.43-1.06,1.53,1.53,0,0,1,1.09-.42,1.5,1.5,0,0,1,1.07.42,1.48,1.48,0,0,1,.42,1.06A1.45,1.45,0,0,1,204,87.14a1.54,1.54,0,0,1-1.09-.43,1.53,1.53,0,0,1-.43-1.09m-5.43,0a1.45,1.45,0,0,1,1.48-1.48,1.52,1.52,0,0,1,1.1.42,1.45,1.45,0,0,1,.43,1.06,1.49,1.49,0,0,1-.43,1.09,1.53,1.53,0,0,1-1.1.43,1.47,1.47,0,0,1-1-.43,1.49,1.49,0,0,1-.43-1.09m12.06,17.82a16.36,16.36,0,0,1-.46,4.12,7.06,7.06,0,0,1-1.49,3,6.46,6.46,0,0,1-2.68,1.79,11.39,11.39,0,0,1-4,.61,15.08,15.08,0,0,1-3.85-.43,6.55,6.55,0,0,1-2.76-1.43,5.94,5.94,0,0,1-1.63-2.6,12.39,12.39,0,0,1-.54-3.93V96.7c0-1.46,0-2.6-.12-3.39a3,3,0,0,0-.6-1.76,1.82,1.82,0,0,0-1-.51,8,8,0,0,0-1.63-.13V89.77h10.2v1.14A9.19,9.19,0,0,0,197,91a1.48,1.48,0,0,0-1,.59,3.34,3.34,0,0,0-.54,1.71,32.36,32.36,0,0,0-.12,3.37v8.06a10.34,10.34,0,0,0,.32,2.69,4.73,4.73,0,0,0,1,2,4.2,4.2,0,0,0,1.87,1.23,8.43,8.43,0,0,0,2.82.42,5.8,5.8,0,0,0,4.48-1.65,7,7,0,0,0,1.49-4.85V97.44a26.94,26.94,0,0,0-.21-4,3.51,3.51,0,0,0-.77-1.93,2,2,0,0,0-1-.49,10,10,0,0,0-1.56-.1V89.77h8.66v1.14a7.6,7.6,0,0,0-1.57.14,1.64,1.64,0,0,0-1,.65,4,4,0,0,0-.6,2,35.56,35.56,0,0,0-.16,3.79Z"/>
        <path class="cls-1" d="M238.68,112.93l-14.2-18.59h-.11V107a20.77,20.77,0,0,0,.1,2.35,3.06,3.06,0,0,0,.42,1.33,1.49,1.49,0,0,0,.89.63,8.17,8.17,0,0,0,1.55.17v1.13h-8V111.5a8.78,8.78,0,0,0,1.68-.18,1.78,1.78,0,0,0,1-.62,2.43,2.43,0,0,0,.48-1.26,15.91,15.91,0,0,0,.12-2.21v-12a16.61,16.61,0,0,0-.1-2.06,2.88,2.88,0,0,0-.43-1.29,1.55,1.55,0,0,0-.9-.67,6.51,6.51,0,0,0-1.56-.25V89.77h5.92l13.06,17.32h.12V95.39a20.56,20.56,0,0,0-.11-2.34,3.22,3.22,0,0,0-.41-1.35,1.57,1.57,0,0,0-.9-.62,7.43,7.43,0,0,0-1.55-.17V89.77h8v1.14a8,8,0,0,0-1.69.18,1.88,1.88,0,0,0-1,.61A2.55,2.55,0,0,0,240.6,93a15.64,15.64,0,0,0-.13,2.19v17.75Z"/>
        <path class="cls-1" d="M254.15,85.79a1.65,1.65,0,0,1,.47-1.15,1.49,1.49,0,0,1,1.09-.47,1.64,1.64,0,0,1,1.17.47,1.58,1.58,0,0,1,.48,1.15,1.49,1.49,0,0,1-.48,1.1,1.67,1.67,0,0,1-1.17.46,1.52,1.52,0,0,1-1.09-.46,1.55,1.55,0,0,1-.47-1.1M257.3,107a18,18,0,0,0,.12,2.35,2.92,2.92,0,0,0,.46,1.33,1.66,1.66,0,0,0,1,.63,9.7,9.7,0,0,0,1.68.17v1.13h-9.68V111.5a8.71,8.71,0,0,0,1.69-.18,1.81,1.81,0,0,0,1-.62,2.52,2.52,0,0,0,.48-1.26,18,18,0,0,0,.11-2.21v-12a14.64,14.64,0,0,0-.11-2.06,2.77,2.77,0,0,0-.41-1.29,1.61,1.61,0,0,0-.91-.67,6.33,6.33,0,0,0-1.55-.25V89.77h9.09v1.14a4.52,4.52,0,0,0-1.54.24,1.67,1.67,0,0,0-.91.69,3.42,3.42,0,0,0-.41,1.35,21.62,21.62,0,0,0-.1,2.2Z"/>
        <path class="cls-1" d="M279.23,108.09l5.26-12.88c.3-.73.5-1.31.62-1.71a3.88,3.88,0,0,0,.18-1.14,1.23,1.23,0,0,0-.49-1.12,3.56,3.56,0,0,0-1.83-.33V89.77h7.25v1.14a5.59,5.59,0,0,0-1.17.24,2.73,2.73,0,0,0-.88.4,3,3,0,0,0-.65.71,6,6,0,0,0-.55,1l-8.11,19.62h-1l-7.7-18.5a16.67,16.67,0,0,0-.77-1.53,3.87,3.87,0,0,0-.82-1.07,3,3,0,0,0-1-.63,5.28,5.28,0,0,0-1.34-.27V89.77h9.74v1.16a9.82,9.82,0,0,0-1.36.08,2.28,2.28,0,0,0-.82.24.89.89,0,0,0-.42.39,1.25,1.25,0,0,0-.12.54,4.43,4.43,0,0,0,.15,1,13.08,13.08,0,0,0,.57,1.59Z"/>
        <path class="cls-1" d="M302.39,100.08a15.6,15.6,0,0,0,2.7-.2,4.72,4.72,0,0,0,1.74-.6,2.39,2.39,0,0,0,.93-1.07,3.9,3.9,0,0,0,.27-1.55h1.06v8.1H308a4.08,4.08,0,0,0-.25-1.54,2.23,2.23,0,0,0-.9-1.08,4.73,4.73,0,0,0-1.74-.65,13.7,13.7,0,0,0-2.75-.23V108a4.61,4.61,0,0,0,.24,1.62,2.2,2.2,0,0,0,.82,1,4.13,4.13,0,0,0,1.54.57,14.24,14.24,0,0,0,2.36.16,13,13,0,0,0,2.69-.23,5,5,0,0,0,1.86-.75,3.87,3.87,0,0,0,1.19-1.42,9.69,9.69,0,0,0,.74-2.18H315l-.46,5.85H296V111.5a10,10,0,0,0,1.69-.17,2.14,2.14,0,0,0,1-.5,1.94,1.94,0,0,0,.47-1,8.58,8.58,0,0,0,.13-1.69V94.28a10.48,10.48,0,0,0-.11-1.66,2,2,0,0,0-.43-1,1.57,1.57,0,0,0-.9-.51,12.35,12.35,0,0,0-1.55-.18V89.77h17.27l.27,5.24h-1.05a6.31,6.31,0,0,0-.59-2,3,3,0,0,0-1.1-1.19,4.31,4.31,0,0,0-1.78-.62,16,16,0,0,0-2.6-.19h-3.8a.45.45,0,0,0-.5.5Z"/>
        <path class="cls-1" d="M328.71,100.31h2.13a7.4,7.4,0,0,0,4.43-1.07,4.17,4.17,0,0,0,1.46-3.59,4.46,4.46,0,0,0-1.16-3.44,5.21,5.21,0,0,0-3.6-1h-2.74a.46.46,0,0,0-.52.5Zm11.9-4.8a5.68,5.68,0,0,1-1.43,3.94,7.83,7.83,0,0,1-4.58,2.12l6.61,7.88a4.81,4.81,0,0,0,1.78,1.42,9.64,9.64,0,0,0,2.31.63v1.13h-5.77l-7.32-9.31a5,5,0,0,0-.73-.81,3.25,3.25,0,0,0-.72-.46,2.78,2.78,0,0,0-.87-.21c-.33,0-.73,0-1.18,0V108a9.72,9.72,0,0,0,.14,1.8,1.85,1.85,0,0,0,.57,1.08,2.29,2.29,0,0,0,1.26.52,15.11,15.11,0,0,0,2.15.13v1.13H322.29V111.5a9.83,9.83,0,0,0,1.69-.17,2,2,0,0,0,1-.51,1.8,1.8,0,0,0,.47-1,8.58,8.58,0,0,0,.13-1.69V94.28a10.48,10.48,0,0,0-.11-1.66,2.11,2.11,0,0,0-.41-1,1.66,1.66,0,0,0-.92-.51,11.69,11.69,0,0,0-1.55-.18V89.77H332a11.46,11.46,0,0,1,6.38,1.51,4.84,4.84,0,0,1,2.26,4.23"/>
        <path class="cls-1" d="M350.85,105.66H352a7.39,7.39,0,0,0,.79,2.39,6.18,6.18,0,0,0,1.47,1.83,6,6,0,0,0,2,1.13,7.23,7.23,0,0,0,2.49.4,5.41,5.41,0,0,0,3.5-1,3.39,3.39,0,0,0,1.29-2.81,3.41,3.41,0,0,0-1.11-2.57,8.4,8.4,0,0,0-1.59-1.14c-.68-.37-1.52-.78-2.53-1.22a29,29,0,0,1-3.11-1.55,8.39,8.39,0,0,1-2-1.54,4.82,4.82,0,0,1-1.06-1.69,7,7,0,0,1,.17-4.6,6,6,0,0,1,1.4-2,6.16,6.16,0,0,1,2.11-1.31,7.79,7.79,0,0,1,2.69-.46,7,7,0,0,1,2.45.42,8,8,0,0,1,2.3,1.34L364,89.9h.68l.34,5.89h-1.12a7.41,7.41,0,0,0-2.08-3.61A4.79,4.79,0,0,0,358.59,91a4.39,4.39,0,0,0-2.9.89,3,3,0,0,0-1.07,2.4,3.14,3.14,0,0,0,1,2.4,7.69,7.69,0,0,0,1.41,1,19.53,19.53,0,0,0,2.16,1.09,37.86,37.86,0,0,1,3.67,1.83,11.34,11.34,0,0,1,2.33,1.7,5,5,0,0,1,1.23,1.77,6,6,0,0,1,.35,2.1,6.27,6.27,0,0,1-.6,2.73,6.09,6.09,0,0,1-1.68,2.13,7.21,7.21,0,0,1-2.56,1.37,10.1,10.1,0,0,1-3.29.5,8.55,8.55,0,0,1-5.82-2.08l-.84,1.46h-.68Z"/>
        <path class="cls-1" d="M377.66,85.79a1.64,1.64,0,0,1,.46-1.15,1.51,1.51,0,0,1,1.1-.47,1.64,1.64,0,0,1,1.17.47,1.57,1.57,0,0,1,.47,1.15,1.48,1.48,0,0,1-.47,1.1,1.67,1.67,0,0,1-1.17.46,1.57,1.57,0,0,1-1.56-1.56M380.8,107a14.85,14.85,0,0,0,.13,2.35,2.93,2.93,0,0,0,.45,1.33,1.66,1.66,0,0,0,1,.63,9.83,9.83,0,0,0,1.69.17v1.13h-9.68V111.5a8.69,8.69,0,0,0,1.68-.18,1.84,1.84,0,0,0,1-.62,2.62,2.62,0,0,0,.47-1.26,15.91,15.91,0,0,0,.12-2.21v-12a14.64,14.64,0,0,0-.11-2.06,3,3,0,0,0-.41-1.29,1.54,1.54,0,0,0-.91-.67,6.69,6.69,0,0,0-1.56-.25V89.77h9.09v1.14a4.71,4.71,0,0,0-1.55.24,1.6,1.6,0,0,0-.88.69,3.11,3.11,0,0,0-.43,1.35,19.05,19.05,0,0,0-.1,2.2Z"/>
        <path class="cls-1" d="M413.54,95.44h-1.22a7.52,7.52,0,0,0-.41-2.13A3.15,3.15,0,0,0,411,92a3.58,3.58,0,0,0-1.55-.7,10.14,10.14,0,0,0-2.2-.21c-.74,0-1.34,0-1.78,0a5.44,5.44,0,0,0-1,.17,1,1,0,0,0-.47.28.82.82,0,0,0-.1.44v15.87a8.72,8.72,0,0,0,.13,1.64,2.26,2.26,0,0,0,.53,1.11,2.52,2.52,0,0,0,1.19.65,7.86,7.86,0,0,0,2,.25v1.13H396.39V111.5a8.16,8.16,0,0,0,2-.25,2.3,2.3,0,0,0,1.18-.65,2.12,2.12,0,0,0,.55-1.11,8.72,8.72,0,0,0,.13-1.64V92a.74.74,0,0,0-.11-.44.77.77,0,0,0-.41-.28,4.42,4.42,0,0,0-.88-.17c-.38,0-.89,0-1.53,0a20.76,20.76,0,0,0-2.16.1,3.83,3.83,0,0,0-1.73.51A3,3,0,0,0,392.27,93a6.1,6.1,0,0,0-.48,2.45h-1.1V89.77h22.56Z"/>
        <path class="cls-1" d="M426.46,100.08a15.69,15.69,0,0,0,2.7-.2,4.72,4.72,0,0,0,1.74-.6,2.37,2.37,0,0,0,.92-1.07,3.9,3.9,0,0,0,.28-1.55h1v8.1h-1a4.29,4.29,0,0,0-.25-1.54,2.28,2.28,0,0,0-.9-1.08,4.74,4.74,0,0,0-1.73-.65,14,14,0,0,0-2.76-.23V108a4.39,4.39,0,0,0,.24,1.62,2.14,2.14,0,0,0,.82,1,4.08,4.08,0,0,0,1.53.57,14.24,14.24,0,0,0,2.36.16,13.16,13.16,0,0,0,2.71-.23,5,5,0,0,0,1.84-.75,3.6,3.6,0,0,0,1.19-1.42,9.67,9.67,0,0,0,.75-2.18H439l-.45,5.85H420V111.5a9.59,9.59,0,0,0,1.68-.17,2.13,2.13,0,0,0,1-.5,1.94,1.94,0,0,0,.47-1,9.56,9.56,0,0,0,.12-1.69V94.28a12.06,12.06,0,0,0-.1-1.66,2.12,2.12,0,0,0-.42-1,1.63,1.63,0,0,0-.91-.51,12.08,12.08,0,0,0-1.56-.18V89.77h17.28l.26,5.24h-1a6.91,6.91,0,0,0-.58-2,3.16,3.16,0,0,0-1.1-1.19,4.47,4.47,0,0,0-1.78-.62,16.14,16.14,0,0,0-2.61-.19H427a.45.45,0,0,0-.5.5Z"/>
        <path class="cls-1" d="M446.76,105.66h1.1a6.74,6.74,0,0,0,.79,2.39,6,6,0,0,0,3.5,3,7.15,7.15,0,0,0,2.49.4,5.38,5.38,0,0,0,3.49-1,3.39,3.39,0,0,0,1.29-2.81,3.3,3.3,0,0,0-.26-1.36,3.35,3.35,0,0,0-.85-1.21,8.5,8.5,0,0,0-1.6-1.14,26.69,26.69,0,0,0-2.53-1.22,28.73,28.73,0,0,1-3.1-1.55,8.6,8.6,0,0,1-2-1.54A4.82,4.82,0,0,1,448,97.85a6.9,6.9,0,0,1,.18-4.6,6,6,0,0,1,1.39-2,6.21,6.21,0,0,1,2.12-1.31,7.77,7.77,0,0,1,2.68-.46,6.93,6.93,0,0,1,2.45.42,7.89,7.89,0,0,1,2.31,1.34l.77-1.34h.69l.33,5.89h-1.1a7.57,7.57,0,0,0-2.08-3.61A4.81,4.81,0,0,0,454.48,91a4.36,4.36,0,0,0-2.89.89,3,3,0,0,0-1.08,2.4,3.38,3.38,0,0,0,.24,1.3,3.55,3.55,0,0,0,.77,1.1,7.69,7.69,0,0,0,1.41,1,18.67,18.67,0,0,0,2.16,1.09,36.74,36.74,0,0,1,3.67,1.83,11.43,11.43,0,0,1,2.34,1.7,5,5,0,0,1,1.22,1.77,6,6,0,0,1,.36,2.1,6.41,6.41,0,0,1-.6,2.73,6.21,6.21,0,0,1-1.68,2.13,7.57,7.57,0,0,1-2.56,1.37,10.18,10.18,0,0,1-3.29.5,8.55,8.55,0,0,1-5.83-2.08l-.84,1.46h-.68Z"/>
        <path class="cls-1" d="M473.55,85.79a1.61,1.61,0,0,1,.47-1.15,1.51,1.51,0,0,1,1.09-.47,1.62,1.62,0,0,1,1.64,1.62,1.49,1.49,0,0,1-.48,1.1,1.62,1.62,0,0,1-1.16.46,1.54,1.54,0,0,1-1.09-.46,1.51,1.51,0,0,1-.47-1.1M476.67,107a19.64,19.64,0,0,0,.13,2.35,3,3,0,0,0,.47,1.33,1.66,1.66,0,0,0,1,.63,9.83,9.83,0,0,0,1.69.17v1.13h-9.69V111.5a9,9,0,0,0,1.7-.18,1.85,1.85,0,0,0,1-.62,2.43,2.43,0,0,0,.46-1.26,14.27,14.27,0,0,0,.13-2.21v-12a16.34,16.34,0,0,0-.11-2.06,2.89,2.89,0,0,0-.41-1.29,1.64,1.64,0,0,0-.91-.67,6.51,6.51,0,0,0-1.56-.25V89.77h9.09v1.14a4.6,4.6,0,0,0-1.54.24,1.65,1.65,0,0,0-.9.69,3.26,3.26,0,0,0-.42,1.35,20.86,20.86,0,0,0-.12,2.2Z"/>
        <path class="cls-1" d="M213.44,66.28l12.63-28.53H237v1.57a6.61,6.61,0,0,0-2.54.58A3.09,3.09,0,0,0,233,41.11a5.19,5.19,0,0,0-.68,2.19,29.42,29.42,0,0,0-.17,3.58V65.8a31.27,31.27,0,0,0,.18,3.81,4.8,4.8,0,0,0,.76,2.17,3.07,3.07,0,0,0,1.51,1.13,10.84,10.84,0,0,0,2.85.45v1.56H221.7V73.36a10.81,10.81,0,0,0,2.6-.37,3.7,3.7,0,0,0,1.77-1.21,4,4,0,0,0,.78-2,24.28,24.28,0,0,0,.21-3.6V43.75h-.49L212.38,75.41H211.3L197.36,43.75h-.2v22a28.74,28.74,0,0,0,.2,3.81,4.8,4.8,0,0,0,.74,2.17A3,3,0,0,0,199.72,73a13.44,13.44,0,0,0,2.74.37v1.56H188.91V73.36a10,10,0,0,0,2.5-.37,3.88,3.88,0,0,0,1.86-1.21,4,4,0,0,0,.78-2,26.26,26.26,0,0,0,.19-3.6V46.54a26,26,0,0,0-.17-3.36,4.72,4.72,0,0,0-.67-2.09,3.88,3.88,0,0,0-1.65-1.26,6.86,6.86,0,0,0-2.36-.51V37.75H201l12.25,28.53Z"/>
        <path class="cls-1" d="M377.65,59h11.09l-5.4-14.24Zm12,2.41h-13c-.56,1.32-1,2.5-1.42,3.5s-.7,1.9-.95,2.64a15.76,15.76,0,0,0-.51,1.89,7.59,7.59,0,0,0-.15,1.24,2.22,2.22,0,0,0,.93,2,5.67,5.67,0,0,0,2.87.66v1.56H365.65V73.36a6.7,6.7,0,0,0,1.58-.4A7.18,7.18,0,0,0,369,72,3.84,3.84,0,0,0,370,70.89a11.11,11.11,0,0,0,.91-1.71l12.63-31.43h2.09l11,27.24c.74,1.79,1.39,3.23,1.93,4.3a10.78,10.78,0,0,0,1.61,2.45,4.41,4.41,0,0,0,1.51,1.08,5.91,5.91,0,0,0,2.32.54v1.56H388.25V73.33a7.68,7.68,0,0,0,3.45-.63A1.93,1.93,0,0,0,392.77,71a6.34,6.34,0,0,0,0-.9,6.88,6.88,0,0,0-.17-.89c-.08-.33-.2-.69-.34-1.09s-.33-.88-.56-1.42Z"/>
        <path class="cls-1" d="M416.09,54.89h3.45c3.25,0,5.64-.59,7.22-1.77s2.35-3.1,2.35-5.8-.62-4.49-1.86-5.61S424,40,421.38,40h-4.47a.73.73,0,0,0-.82.83Zm19.34-7.81a9.13,9.13,0,0,1-2.33,6.41c-1.56,1.7-4,2.84-7.44,3.42l10.75,12.85a13,13,0,0,0,2.94,2.51,5.9,5.9,0,0,0,3.71,1.09v1.56h-9.38l-11.9-15.16a9.23,9.23,0,0,0-1.19-1.3,4.19,4.19,0,0,0-1.17-.74,4.23,4.23,0,0,0-1.41-.34,18.09,18.09,0,0,0-1.92-.07v10a16.6,16.6,0,0,0,.21,2.92,3,3,0,0,0,.94,1.76,4.43,4.43,0,0,0,2,.94,14.84,14.84,0,0,0,3.55.4v1.56H405.65V73.36a10,10,0,0,0,2.75-.4A4.13,4.13,0,0,0,410,72a2.9,2.9,0,0,0,.77-1.64,14.86,14.86,0,0,0,.2-2.76V45.08a16.69,16.69,0,0,0-.17-2.72,3.25,3.25,0,0,0-.68-1.63,3.38,3.38,0,0,0-1.55-.95,9.91,9.91,0,0,0-2.46-.44V37.75h15.25c4.48,0,7.93.82,10.38,2.46a7.83,7.83,0,0,1,3.67,6.87"/>
        <path class="cls-1" d="M453.46,59h11.09L459.14,44.8Zm12,2.41h-13c-.55,1.32-1,2.5-1.41,3.5s-.7,1.9-.95,2.64a13.85,13.85,0,0,0-.5,1.89,6.62,6.62,0,0,0-.15,1.24,2.27,2.27,0,0,0,.88,2,5.06,5.06,0,0,0,2.91.66v1.59H441.46V73.36a4.1,4.1,0,0,0,2-.32,5.57,5.57,0,0,0,1.28-.8,6.58,6.58,0,0,0,1.13-1.35,13.3,13.3,0,0,0,.89-1.71l12.63-31.43h2.1l11,27.24c.75,1.79,1.4,3.23,1.95,4.3a10.46,10.46,0,0,0,1.6,2.45,5.07,5.07,0,0,0,1.62,1.17,5.84,5.84,0,0,0,2.21.42v1.59H464.06V73.36a6.76,6.76,0,0,0,3.43-.66A2,2,0,0,0,468.57,71a6.34,6.34,0,0,0-.05-.9,6.74,6.74,0,0,0-.16-.89c-.09-.33-.19-.69-.34-1.09s-.34-.88-.56-1.42Z"/>
        <path class="cls-1" d="M248.81,59H259.9L254.5,44.8Zm12,2.41h-13c-.55,1.32-1,2.5-1.41,3.5s-.7,1.9-1,2.64a15.76,15.76,0,0,0-.51,1.89,6.49,6.49,0,0,0-.14,1.24,2.21,2.21,0,0,0,.92,2,5.62,5.62,0,0,0,2.86.66v1.56h-11.8V73.36a6.93,6.93,0,0,0,1.59-.4,7.5,7.5,0,0,0,1.74-.94,4.31,4.31,0,0,0,1.07-1.13,12.1,12.1,0,0,0,.9-1.71l12.63-31.43h2.1l11,27.24c.75,1.79,1.4,3.23,1.95,4.3a10.46,10.46,0,0,0,1.6,2.45,4.38,4.38,0,0,0,1.5,1.08,6,6,0,0,0,2.34.54v1.56H259.4V73.33a7.7,7.7,0,0,0,3.46-.63A1.92,1.92,0,0,0,263.92,71a8.4,8.4,0,0,0,0-.9c0-.27-.09-.57-.17-.89s-.2-.69-.34-1.09-.33-.88-.56-1.42Z"/>
        <path class="cls-1" d="M287.33,54.89h3.45c3.24,0,5.64-.59,7.22-1.77s2.35-3.1,2.35-5.8-.63-4.49-1.87-5.61S295.28,40,292.62,40h-4.47a.73.73,0,0,0-.82.83Zm19.34-7.81a9.14,9.14,0,0,1-2.34,6.41c-1.54,1.7-4,2.84-7.43,3.42l10.73,12.85a13.27,13.27,0,0,0,3,2.51,5.86,5.86,0,0,0,3.71,1.09v1.56h-9.38L293,59.76a8.66,8.66,0,0,0-1.19-1.3,4.45,4.45,0,0,0-1.16-.74,4.29,4.29,0,0,0-1.41-.34,18.2,18.2,0,0,0-1.92-.07v10a15.57,15.57,0,0,0,.22,2.92,3,3,0,0,0,.92,1.76,4.51,4.51,0,0,0,2,.94,15.2,15.2,0,0,0,3.58.4v1.56H276.89V73.36a10,10,0,0,0,2.75-.4,4.08,4.08,0,0,0,1.61-1,3,3,0,0,0,.77-1.64,15,15,0,0,0,.19-2.76V45.08a18.3,18.3,0,0,0-.15-2.72,3.34,3.34,0,0,0-.68-1.63,3.78,3.78,0,0,0-1.6-.92,9.65,9.65,0,0,0-2.43-.44V37.75h15.26q6.7,0,10.38,2.46a7.83,7.83,0,0,1,3.67,6.87"/>
        <path class="cls-1" d="M339.68,66.28l12.64-28.53H363.2v1.57a6.47,6.47,0,0,0-2.53.58,3.07,3.07,0,0,0-1.42,1.21,5.05,5.05,0,0,0-.68,2.19,29.15,29.15,0,0,0-.18,3.58V65.8a28.74,28.74,0,0,0,.2,3.81,4.68,4.68,0,0,0,.75,2.17,3.07,3.07,0,0,0,1.51,1.13,10.82,10.82,0,0,0,2.84.45v1.56H348V73.36a10.79,10.79,0,0,0,2.59-.37,3.78,3.78,0,0,0,1.78-1.21,4.16,4.16,0,0,0,.78-2,26,26,0,0,0,.2-3.6V43.75h-.5L338.62,75.41h-1.08L323.6,43.75h-.19v22a29,29,0,0,0,.19,3.81,4.93,4.93,0,0,0,.74,2.17A3,3,0,0,0,326,73a13.44,13.44,0,0,0,2.74.37v1.56H315.15V73.36a10.14,10.14,0,0,0,2.51-.37,3.9,3.9,0,0,0,1.85-1.21,4.16,4.16,0,0,0,.79-2,28,28,0,0,0,.19-3.6V46.54a26,26,0,0,0-.17-3.36,5,5,0,0,0-.67-2.09A4,4,0,0,0,318,39.83a7,7,0,0,0-2.38-.51V37.75h11.61l12.25,28.53Z"/>
        <path class="cls-2" d="M75,150.05a75,75,0,1,1,75-75,75.11,75.11,0,0,1-75,75"/>
        <path class="cls-3" d="M75,123.85A48.83,48.83,0,1,1,123.85,75,48.89,48.89,0,0,1,75,123.85"/>
        <path class="cls-3" d="M90,142.43a.47.47,0,0,1-.43-.39,19.64,19.64,0,0,1-.49-2.2c0-.22,0-.35.1-.38s.18.07.21.2a2.49,2.49,0,0,0,3.26,1.56,2.91,2.91,0,0,0,2.28-3.84A3.57,3.57,0,0,0,91,134.92c-.47,0-.59,0-.63-.14s.07-.23.23-.32a3.32,3.32,0,0,0,1.85-3.73,2.25,2.25,0,0,0-2.9-1.47c-1.36.39-2.17,1.49-1.9,2.51.07.2,0,.27-.06.29s-.14,0-.21-.19a16.4,16.4,0,0,1-.61-1.69c0-.16,0-.24.14-.39a7.69,7.69,0,0,1,2.88-1.5c3.32-.94,4.43.63,4.65,1.44.48,1.7-1,3.39-1.64,3.83l0,0a3.8,3.8,0,0,1,4,2.55c.69,2.41-.83,5-4.2,6a6.7,6.7,0,0,1-2.73.31"/>
        <path class="cls-3" d="M81.19,143.27a2.55,2.55,0,0,0,2.29-2.93c-.17-1.79-1.68-2.5-3.35-3.28a3.92,3.92,0,0,0-1.8,3.65,2.68,2.68,0,0,0,2.86,2.56m-1-12.44a2,2,0,0,0-2,2.3c.11,1.11.94,1.77,2.64,2.54a2.84,2.84,0,0,0,1.51-2.9,2,2,0,0,0-2.16-1.94M76.31,141c-.17-2,1.27-3.44,3-4.29-1.56-.64-2.76-1.52-2.89-3s.9-3.35,3.94-3.62c2.19-.19,3.76.67,3.92,2.41A3.82,3.82,0,0,1,81.89,136c1.34.57,3.42,1.51,3.62,3.72s-1.39,4.12-4.39,4.39c-2.65.25-4.61-.9-4.81-3.11"/>
        <path class="cls-3" d="M69.66,130.8a2.06,2.06,0,0,0-2.4,1.91c-.09,1.1.6,1.92,2.13,3a2.83,2.83,0,0,0,2-2.56,2,2,0,0,0-1.76-2.32m-1.32,12.42a2.53,2.53,0,0,0,2.79-2.46C71.3,139,70,138,68.45,136.92A4,4,0,0,0,66,140.17a2.7,2.7,0,0,0,2.34,3.05M64,140.09c.2-2,1.89-3.16,3.69-3.69-1.41-.91-2.42-2-2.29-3.53s1.51-3.12,4.56-2.81c2.18.22,3.57,1.36,3.4,3.09a3.75,3.75,0,0,1-2.94,3c1.19.81,3.08,2.11,2.84,4.34s-2.11,3.8-5.11,3.5c-2.65-.26-4.36-1.74-4.15-3.94"/>
        <path class="cls-3" d="M58.08,133.41c.26-.94.46-1.68.62-2.27.12-.41.17-.61-.08-.68a12.29,12.29,0,0,0-2.24.27.56.56,0,0,1-.26,0,.19.19,0,0,1-.09-.22c0-.1.15-.16.24-.2s4-1.28,4.74-1.56a.88.88,0,0,1,.5-.1c.17,0,.16.25.11.41s-.61,1.83-1.34,4.47l-.88,3.22c-.46,1.65-.86,3.13-1,3.91-.1.56-.08.85.44,1.13.25.12,1,.37,1.11.41a.17.17,0,0,1,.12.21c-.05.12-.14.13-.33.09-1.31-.36-2.41-.72-2.88-.86s-1.86-.46-3-.76c-.17,0-.27-.12-.24-.24a.16.16,0,0,1,.18-.13,10.72,10.72,0,0,0,1.42.26c.59,0,.74-.19,1-.73.28-.74.72-2.2,1.16-3.87Z"/>
        <path class="cls-3" d="M19.77,115.6c-.29.12-.48.12-.56,0s-.05-.25.23-.71l5.94-9.4L14.22,106.6c-.32,0-.5,0-.58-.1s0-.33.31-.57l8.51-7.14c.88-.73,1.23-1.16,1.08-1.7a3.37,3.37,0,0,0-.43-1c-.08-.13-.13-.26,0-.3s.28.07.42.28c.23.38,1.5,2.51,1.82,3.15.19.37.21.5.11.56s-.16,0-.28-.08-.31,0-.7.33l-6.09,5,0,.06,8.87-.85c.93-.08,1.12-.09,1.21,0s-.14.49-.44,1c-.48.8-2.08,3.45-2.39,3.9s-1.49,2.36-2.3,3.6l0,.07,6.45-2.88a7.59,7.59,0,0,0,.75-.4.56.56,0,0,0,.2-.75,4.39,4.39,0,0,0-.31-.69c-.08-.12-.11-.25,0-.29s.26,0,.39.26c.4.63.77,1.36.94,1.63s.68,1,1,1.49c.09.15.13.29,0,.37s-.17,0-.27-.17a1.82,1.82,0,0,0-.33-.44c-.35-.37-1-.12-1.6.12Z"/>
        <path class="cls-3" d="M16.11,88.53c0-.09-.08-.09-.13-.06L12.07,91.1c-.06,0-.14.07-.12.12s.09.06.18.06l4.67.56c.06,0,.11,0,.1-.1Zm1.75,3.34c0,.08.06.12.17.12l2.63.35a3.19,3.19,0,0,0,1.13,0c.31-.07.5-.28.36-.83l-.06-.26c-.05-.21,0-.27.07-.29s.2.05.26.26c.12.55.26,1.31.4,1.85.05.2.33,1.13.56,2.05.05.21,0,.34-.1.37s-.15,0-.19-.18-.11-.4-.17-.53c-.3-.78-1-1-1.93-1.09L9.1,92c-.56-.09-.78-.14-.83-.32s.1-.3.46-.57c.85-.66,7.14-5.17,9.52-6.94,1.4-1,1.52-1.61,1.52-2a3.92,3.92,0,0,0-.12-.75c0-.14,0-.23.09-.26s.22.11.37.76.48,1.89.78,3.3c.06.32.11.53,0,.55s-.16,0-.22-.2a.3.3,0,0,0-.43-.06L17,87.78c-.08.06-.12.12-.08.2Z"/>
        <path class="cls-3" d="M13.12,76.42c.2,0,.27,0,.32-.17a4.2,4.2,0,0,0,.19-1.35,1.77,1.77,0,0,0-.31-1.28,3.15,3.15,0,0,0-2.69-1.07c-2.54,0-3.29,1.68-3.29,2.74a4.16,4.16,0,0,0,.07.95c0,.13.1.16.25.16Zm-1.43,2.11c-2.73,0-3.23,0-3.8,0s-.91.19-1,.78a3.36,3.36,0,0,0,0,.69c0,.21,0,.32-.16.32s-.17-.13-.17-.41c0-.94.06-2.07.07-2.46,0-.61,0-2,0-2.52a5.67,5.67,0,0,1,.78-3.31,3.12,3.12,0,0,1,2.46-1.22c1.33,0,2.55.57,4,2.4,2-1.6,3.62-2.84,4.73-3.9a3.48,3.48,0,0,0,1.23-2,3.83,3.83,0,0,0,.06-.51c0-.13.06-.21.14-.2s.19.12.18.33v1.71a3.7,3.7,0,0,1-.36,1.92,8.74,8.74,0,0,1-2.64,2.46c-1,.71-2.22,1.53-2.49,1.76a.38.38,0,0,0-.12.33l-.05,1.57c0,.09,0,.14.15.14h.25c1.67,0,3.1,0,3.85-.08.52-.06.91-.16,1-.71,0-.26.07-.65.07-.86s.05-.24.15-.24.17.14.17.37c0,1-.06,2.37-.06,2.64s0,1.47,0,2.2c0,.23-.06.35-.17.35s-.15-.08-.15-.28a2.73,2.73,0,0,0-.07-.65c-.08-.35-.47-.45-1-.52-.76-.1-2.17-.1-3.82-.11Z"/>
        <path class="cls-3" d="M8.39,58.83c-.27-.16-.38-.29-.35-.44s.17-.21.69-.28l11-1.49-8-7.84c-.22-.23-.32-.36-.28-.51s.26-.2.64-.13L23,50.07c1.12.2,1.67.2,2-.26a3.93,3.93,0,0,0,.53-1c0-.15.11-.26.2-.23s.12.26,0,.5c-.12.42-1,2.77-1.22,3.44-.17.38-.25.46-.36.43s-.12-.12-.12-.25-.2-.25-.71-.34L15.6,50.91l0,.07,6.36,6.25c.67.66.79.8.74,1s-.45.21-1.05.31c-.92.15-4,.63-4.53.67s-2.75.39-4.23.56l0,.07,6.35,3.1c.29.13.52.22.79.32a.59.59,0,0,0,.72-.33A3.45,3.45,0,0,0,21,62.2c.05-.15.12-.25.21-.23s.13.23,0,.48c-.23.71-.54,1.45-.64,1.77s-.33,1.16-.52,1.7c-.05.18-.13.3-.3.25s-.07-.15,0-.31a2.62,2.62,0,0,0,.12-.54c0-.51-.57-.86-1.11-1.14Z"/>
        <path class="cls-3" d="M26.77,38.62c.05-.07,0-.12,0-.13l-4.52-1.3c-.07,0-.15-.07-.18,0s0,.12.06.18l2.59,3.91c0,.07.09.08.14,0Zm-1.44,3.49c0,.06,0,.11,0,.21l1.42,2.23a3.25,3.25,0,0,0,.73.86c.25.19.55.2.87-.24l.16-.23c.12-.17.18-.18.27-.13s.08.19,0,.36c-.35.45-.85,1-1.18,1.5-.1.16-.65,1-1.19,1.74-.14.2-.24.25-.35.17s-.07-.15,0-.26l.29-.46c.4-.74.1-1.36-.41-2.19L19.63,35.48c-.31-.48-.4-.68-.29-.82s.29-.14.72,0c1.05.23,8.56,2.13,11.44,2.81,1.71.4,2.21.14,2.51-.12a3.48,3.48,0,0,0,.5-.56c.09-.12.15-.19.26-.11s0,.24-.34.77-1.16,1.59-2,2.72c-.21.25-.33.43-.43.35s-.08-.14,0-.3a.28.28,0,0,0-.25-.36l-3.84-1a.17.17,0,0,0-.2.07Z"/>
        <path class="cls-3" d="M34.11,28.54c.13.15.2.18.33.13A4.68,4.68,0,0,0,35.61,28a1.85,1.85,0,0,0,.78-1.06,3.18,3.18,0,0,0-.92-2.75c-1.62-2-3.39-1.44-4.2-.77a3.65,3.65,0,0,0-.69.67c-.08.12-.06.18,0,.3Zm-2.55.26c-1.73-2.1-2.06-2.49-2.45-2.9s-.71-.57-1.25-.29a3,3,0,0,0-.57.41c-.15.12-.26.16-.35.06s0-.2.21-.37c.73-.61,1.64-1.29,1.92-1.53.48-.4,1.48-1.31,1.91-1.66A5.63,5.63,0,0,1,34,21a3.11,3.11,0,0,1,2.52,1.11c.84,1,1.2,2.31.75,4.6,2.51.53,4.49,1,6,1.14a3.6,3.6,0,0,0,2.34-.35,2.42,2.42,0,0,0,.41-.28c.11-.09.21-.09.25,0s0,.21-.14.35l-1.3,1.09a3.6,3.6,0,0,1-1.7,1,8.66,8.66,0,0,1-3.59-.46c-1.17-.29-2.59-.69-3-.76a.4.4,0,0,0-.32.11l-1.22,1c-.07.07-.09.13,0,.21l.16.19c1.07,1.28,2,2.38,2.53,2.9.38.37.71.59,1.18.3.22-.14.55-.37.72-.51s.2-.08.25,0,0,.22-.16.36c-.8.68-1.85,1.48-2.06,1.65s-1.1,1-1.65,1.44c-.18.16-.31.2-.39.1s0-.16.13-.29a3,3,0,0,0,.44-.47c.24-.28,0-.65-.22-1.1-.42-.63-1.33-1.72-2.38-3Z"/>
        <path class="cls-3" d="M51.76,19.23c.09,0,.08-.1,0-.13l-3.25-3.41s-.1-.14-.15-.11,0,.12,0,.2l.25,4.68c0,.08.05.12.11.1Zm-3,2.29c-.07,0-.09.09-.08.19l.08,2.65A4.18,4.18,0,0,0,49,25.47c.12.3.37.44.87.22l.24-.11c.21-.09.28-.07.32,0s0,.21-.21.29c-.52.22-1.26.48-1.77.72-.18.07-1.06.52-1.91.89-.22.09-.33.09-.4,0s0-.17.14-.23.38-.18.51-.25c.7-.44.77-1.12.74-2.1l-.33-12c0-.56,0-.79.17-.87s.31,0,.65.34c.77.74,6.3,6.18,8.44,8.21,1.28,1.21,1.86,1.23,2.24,1.16a3.29,3.29,0,0,0,.73-.24c.12-.05.21-.07.26,0s-.07.23-.68.49-1.79.78-3.12,1.32c-.31.12-.51.22-.56.1s0-.17.17-.26a.3.3,0,0,0,0-.44L52.66,20a.19.19,0,0,0-.23,0Z"/>
        <path class="cls-3" d="M72.08,4.31a.83.83,0,0,1,.77-.89.79.79,0,0,1,.89.75.84.84,0,0,1-.8.94.79.79,0,0,1-.86-.8m-3.78.25a.81.81,0,0,1,.77-.88.76.76,0,0,1,.89.71.85.85,0,0,1-.8,1,.78.78,0,0,1-.86-.78m-2.66,7.59c-.16-2.71-.19-3.22-.27-3.79s-.22-.89-.82-1a3.23,3.23,0,0,0-.71,0c-.2,0-.31,0-.32-.16s.12-.16.39-.17C64.85,7,66,7,66.53,7s1.57-.16,2.21-.19c.27,0,.39,0,.41.13s-.1.17-.29.18a3.55,3.55,0,0,0-.52.09c-.47.11-.6.42-.59,1.06s0,1.07.2,3.8l.15,2.51c.16,2.59.73,3.66,1.66,4.33a3.37,3.37,0,0,0,2.29.59,3.46,3.46,0,0,0,2.41-1.12c.92-1,.88-2.66.77-4.5l-.14-2.25c-.16-2.72-.19-3.22-.27-3.79s-.22-.89-.82-1a4.6,4.6,0,0,0-.65,0c-.2,0-.31,0-.32-.15s.12-.17.36-.19c.92,0,2-.06,2-.06.24,0,1.37-.13,2.06-.18.25,0,.38,0,.39.15s-.11.16-.31.18a1.88,1.88,0,0,0-.52.08c-.49.11-.61.43-.61,1.06s0,1.07.19,3.8l.14,1.92c.11,2,0,4.12-1.39,5.5a5.39,5.39,0,0,1-3.64,1.51,5.73,5.73,0,0,1-4.06-1c-1-.76-1.73-2.06-1.88-4.66Z"/>
        <path class="cls-3" d="M82.5,17.93c-.25,1.38-.12,1.89.2,2.08a2.81,2.81,0,0,0,.89.32c.2,0,.28.09.26.2s-.18.14-.42.09c-1.15-.23-1.85-.44-2.18-.52-.15,0-1-.15-1.91-.34-.23-.05-.38-.09-.35-.26s.14-.12.31-.08a4.36,4.36,0,0,0,.81.08c.48-.05.67-.54,1-2.06L83.47,7.12c.06-.36.17-.58.34-.54s.31.28.53.68S86.59,10.9,88.62,14c.94,1.46,2.78,4.48,3,4.82l.07,0,1.5-7.92c.2-1.08.11-1.45-.26-1.71A3,3,0,0,0,92,8.9c-.21-.05-.26-.12-.24-.22s.23-.12.48-.07c.92.2,1.76.43,2.12.51.19,0,.88.13,1.75.32.21,0,.38.09.35.24s-.13.13-.34.09a2.23,2.23,0,0,0-.55-.07c-.52,0-.73.38-1,1.36L92.12,22.12c-.09.38-.19.52-.34.49s-.37-.28-.52-.51c-.89-1.29-2.65-4.07-4.1-6.28s-3-4.84-3.25-5.25h-.07Z"/>
        <path class="cls-3" d="M103.57,10.08a1,1,0,0,1,1.34-.53,1,1,0,0,1,.53,1.31,1,1,0,0,1-1.38.56,1,1,0,0,1-.49-1.34M100.31,17c1.13-2.49,1.34-2.95,1.54-3.48s.2-.92-.12-1.17a2.72,2.72,0,0,0-.57-.33c-.15-.08-.24-.15-.17-.29s.18-.06.44.05c.62.29,1.62.8,2.1,1s1.39.58,2,.87c.21.1.32.19.29.3s-.19.12-.35,0a4.86,4.86,0,0,0-.51-.18c-.48-.12-.74.1-1,.66s-.48,1-1.62,3.45L101,20.75c-.72,1.58-1.31,2.88-1.57,3.6-.15.46-.17.81.29,1.11.22.13.56.32.8.44s.25.17.21.24-.21.12-.39,0c-1.08-.49-2.08-1-2.53-1.22s-1.42-.59-2.08-.89c-.2-.09-.3-.19-.25-.31s.13-.1.32,0a3.58,3.58,0,0,0,.62.2c.36.08.58-.15.85-.61.4-.64,1-1.93,1.7-3.52Z"/>
        <path class="cls-3" d="M109,17.29a1.78,1.78,0,0,0-.34-1.9,3.15,3.15,0,0,0-.53-.46c-.14-.09-.15-.17-.09-.26s.26,0,.48.14c.79.54,1.59,1.18,2.1,1.54s1.11.71,1.85,1.23c.17.11.31.26.24.37s-.18.06-.32,0a1.26,1.26,0,0,0-.64-.3.4.4,0,0,0-.36.21,4.3,4.3,0,0,0-.45,1.37l-2.15,8.45.06,0c1.77-1.18,7-4.58,8-5.3a2.19,2.19,0,0,0,.52-.45.36.36,0,0,0,0-.42,3.14,3.14,0,0,0-.54-.48c-.15-.09-.24-.19-.18-.29s.24-.05.53.14c.74.51,1.32,1,1.51,1.12s1,.61,1.42.93c.19.14.27.25.21.35s-.18.06-.33,0a1.58,1.58,0,0,0-.85-.34c-.28,0-.67.1-1.72.77-1.56,1-2.51,1.49-4.57,2.76l-5.1,3.11c-1,.59-1.23.76-1.44.61s-.14-.4.08-1.28Z"/>
        <path class="cls-3" d="M119.41,29.79c2-1.88,2.36-2.21,2.76-2.63s.54-.74.22-1.26a4,4,0,0,0-.44-.55c-.14-.14-.18-.25-.09-.33s.2,0,.39.18c.33.35.68.75,1,1.07l.74.85c.39.42,2.83,3,3.09,3.26a3.89,3.89,0,0,0,.6.49c.07.07.19.11.25.17s0,.13,0,.19a11.23,11.23,0,0,0-1,.68c-.14.12-.74.63-.93.76s-.18.09-.26,0,0-.18.07-.29a2.47,2.47,0,0,0,.41-.52c.14-.31.17-.59-.36-1.32-.18-.25-1.45-1.64-1.69-1.91-.07-.06-.13-.06-.23,0l-3.3,3.1c-.1.08-.14.15-.07.22.27.31,1.69,1.81,2,2.08a1.27,1.27,0,0,0,.79.44c.19,0,.3,0,.36,0s.06.12,0,.2-.33.22-1,.79c-.28.23-.83.67-.93.77s-.26.22-.37.12a.16.16,0,0,1,0-.24,5.46,5.46,0,0,0,.44-.48,1,1,0,0,0-.18-1.22c-.21-.28-1.41-1.59-1.7-1.91-.07-.06-.13,0-.21.05l-1,1c-.44.42-1.66,1.54-2,1.91-.88.86-.88,1.25.37,2.6a4.65,4.65,0,0,0,1.31,1.09,1.53,1.53,0,0,0,1.52-.32c.17-.11.25-.14.34,0s0,.2-.14.33a15.35,15.35,0,0,1-1.61,1.18c-.44.23-.54.12-1-.39-.91-1-1.56-1.72-2.08-2.3s-.86-1-1.23-1.41c-.13-.14-.4-.43-.72-.73s-.62-.62-.87-.89-.2-.3-.11-.38.15,0,.3.11a2.81,2.81,0,0,0,.49.43c.31.21.65,0,1.08-.29.61-.46,1.64-1.43,2.86-2.55Z"/>
        <path class="cls-3" d="M127.22,41.71c-.18.09-.21.16-.19.3a4.69,4.69,0,0,0,.54,1.25c.38.63.56.79.92.94a3.17,3.17,0,0,0,2.86-.48c2.18-1.32,2-3.14,1.4-4a3.28,3.28,0,0,0-.55-.79c-.09-.09-.18-.08-.3,0Zm.12-2.56c2.35-1.4,2.77-1.66,3.25-2s.68-.63.48-1.2a3.54,3.54,0,0,0-.31-.62c-.11-.17-.13-.28,0-.35s.2,0,.34.27c.49.81,1,1.81,1.23,2.13.31.52,1.05,1.66,1.34,2.14a5.6,5.6,0,0,1,1,3.23,3.11,3.11,0,0,1-1.47,2.31c-1.14.69-2.48.84-4.68,0-.89,2.4-1.63,4.28-2,5.77a3.44,3.44,0,0,0,0,2.36,2.38,2.38,0,0,0,.21.45c.06.13.06.21,0,.27s-.23,0-.34-.21l-.87-1.46a3.52,3.52,0,0,1-.7-1.82,8.66,8.66,0,0,1,1-3.47c.48-1.13,1.1-2.47,1.21-2.81a.38.38,0,0,0-.06-.34l-.78-1.35c-.05-.08-.1-.11-.19,0l-.22.13c-1.43.86-2.64,1.59-3.25,2-.42.32-.7.62-.48,1.11.11.25.28.6.38.79s.07.23,0,.27-.22,0-.34-.22c-.54-.88-1.18-2.06-1.32-2.29s-.81-1.23-1.18-1.85c-.12-.21-.13-.34,0-.4s.17,0,.27.17a2.74,2.74,0,0,0,.4.51c.24.27.64.16,1.12-.06a37.25,37.25,0,0,0,3.32-1.89Z"/>
        <path class="cls-3" d="M126.37,54.56c0-.31.09-.39.46-.52,1-.31,2-.58,2.27-.65s.47-.09.51.06-.09.21-.23.25a4.26,4.26,0,0,0-.82.45,2.45,2.45,0,0,0-.91,3,2.18,2.18,0,0,0,2.7,1.65c.83-.28,1.53-.79,2.18-2.58l.35-1c.83-2.35,1.82-3.41,3.19-3.86,1.89-.63,3.75.5,4.53,2.87a8.36,8.36,0,0,1,.47,2.35c0,.17,0,.27-.13.32s-.74.17-2.06.61c-.38.12-.54.12-.57,0s0-.21.24-.28a2.13,2.13,0,0,0,1-.82,2.23,2.23,0,0,0,.22-2.12,1.91,1.91,0,0,0-2.44-1.46c-.78.26-1.25.86-1.84,2.63l-.2.58c-.86,2.58-1.8,3.71-3.42,4.24a3.61,3.61,0,0,1-3.51-.6,5.18,5.18,0,0,1-1.58-2.49,6,6,0,0,1-.39-2.63"/>
        <path class="cls-3" d="M145,63.11a1,1,0,0,1,1.18.84,1,1,0,0,1-.8,1.17,1,1,0,0,1-1.22-.85,1,1,0,0,1,.84-1.16m-7.53,1.07c2.71-.43,3.2-.51,3.76-.62s.87-.36.9-.77a2.24,2.24,0,0,0,0-.63c0-.19,0-.3.14-.32s.17.12.2.41c.11.67.24,1.79.31,2.32s.28,1.47.4,2.15c0,.23,0,.37-.1.39s-.19-.07-.21-.26a5.19,5.19,0,0,0-.14-.52c-.17-.46-.49-.56-1.12-.5s-1.07.12-3.77.54l-3.13.49c-1.71.26-3.11.48-3.87.68-.47.13-.76.29-.75.84a5.88,5.88,0,0,0,.07.92c0,.19,0,.29-.1.3s-.21-.12-.24-.31c-.18-1.18-.3-2.29-.37-2.78s-.29-1.51-.4-2.23c0-.23,0-.36.12-.38s.16.05.19.26a2.77,2.77,0,0,0,.17.63c.13.35.44.41,1,.38.76,0,2.17-.25,3.89-.51Z"/>
        <path class="cls-3" d="M142.54,76.11l0-2.68c0-1.05-.07-1.47-.45-1.76a2.12,2.12,0,0,0-.63-.33c-.14,0-.21-.1-.2-.2s.1-.16.3-.15,1.9.4,2,.45.34.11.33.22a4.38,4.38,0,0,0-.25.78c-.07.51-.13,1.19-.15,1.78l-.25,7.11c0,.57,0,1,0,1.24a3.27,3.27,0,0,1,.09.49c0,.12-.12.13-.39.13L141,83.06c-.18,0-.28-.06-.28-.18s.1-.18.37-.18h.19c.47,0,1-.48,1.09-2.07l.13-2.27-7.36-.27c-1.65-.06-3.07-.11-3.85,0-.49,0-.9.13-1,.67a9.24,9.24,0,0,0-.1.92c0,.2-.08.28-.15.27s-.19-.14-.17-.33c0-1.19.14-2.31.16-2.82s0-1.55,0-2.26c0-.24.06-.37.19-.36s.14.07.14.29a2.47,2.47,0,0,0,0,.65c.06.36.45.49,1,.56.75.12,2.17.16,3.82.23Z"/>
        <path class="cls-3" d="M137.12,87.68c2.65.66,3.14.79,3.71.89s.91,0,1.18-.51a3.86,3.86,0,0,0,.22-.66c.05-.2.11-.28.23-.25s.13.16.07.41c-.13.48-.27,1-.38,1.41s-.25.85-.31,1.1c-.13.55-1,4-1.06,4.35s-.07.63-.07.78,0,.21,0,.3-.11.08-.19.06-.31-.17-1.1-.42c-.18-.06-.94-.28-1.13-.37s-.18-.1-.15-.23.13-.13.29-.09a1.78,1.78,0,0,0,.65,0c.34,0,.59-.16.92-1,.1-.3.59-2.12.68-2.47,0-.07,0-.14-.15-.16l-4.41-1.09c-.13,0-.19,0-.21.07-.1.39-.6,2.38-.67,2.8a1.28,1.28,0,0,0,.06.9c.11.15.18.24.16.33s-.07.11-.17.09-.37-.18-1.23-.46c-.36-.1-1-.33-1.16-.35s-.33-.09-.29-.25a.15.15,0,0,1,.19-.12,4.08,4.08,0,0,0,.65.09c.38,0,.69-.18.93-.8.11-.33.55-2,.67-2.46,0-.09-.05-.13-.16-.16l-1.38-.34c-.59-.15-2.19-.56-2.7-.67-1.22-.26-1.54,0-2,1.73a4.78,4.78,0,0,0-.19,1.69c.09.51.41.81,1.09,1.11.18.08.26.13.23.25s-.2.11-.36.07a14.93,14.93,0,0,1-1.88-.71c-.43-.24-.39-.4-.22-1,.33-1.31.6-2.27.8-3s.38-1.27.5-1.79c.05-.2.15-.6.24-1s.17-.86.26-1.21.13-.33.26-.31.12.11.08.32a2.5,2.5,0,0,0-.09.65c0,.36.34.54.82.73.72.27,2.09.62,3.7,1Z"/>
        <path class="cls-3" d="M126.37,95.46c.24-.22.35-.23.7-.07.9.43,1.85,1,2.1,1.09s.39.27.32.4-.21.1-.34,0a3.9,3.9,0,0,0-.9-.24,2.48,2.48,0,0,0-2.74,1.56,2.19,2.19,0,0,0,.84,3c.79.36,1.66.47,3.34-.37l.95-.48c2.23-1.14,3.66-1.22,5-.59,1.79.83,2.37,2.92,1.31,5.18a8.83,8.83,0,0,1-1.29,2c-.11.13-.19.19-.3.13s-.65-.38-1.93-1c-.35-.17-.46-.27-.4-.41s.17-.1.37,0a2,2,0,0,0,1.27.08,2.25,2.25,0,0,0,1.63-1.39,1.92,1.92,0,0,0-.77-2.74c-.74-.33-1.49-.23-3.14.64l-.57.29c-2.4,1.28-3.85,1.46-5.39.73a3.61,3.61,0,0,1-2.11-2.86,5.08,5.08,0,0,1,.54-2.89,6.14,6.14,0,0,1,1.53-2.17"/>
        <path class="cls-3" d="M134.42,113.78a1,1,0,0,1,.31,1.41,1,1,0,0,1-1.38.32A1,1,0,0,1,133,114a1,1,0,0,1,1.39-.26m-6.23-4.34c2.25,1.53,2.68,1.8,3.18,2.1s.87.33,1.16,0a2.56,2.56,0,0,0,.43-.49c.1-.15.19-.22.3-.14s.05.19-.11.43c-.38.57-1.06,1.48-1.35,1.9s-.8,1.3-1.18,1.86c-.13.2-.25.29-.34.24s-.07-.2,0-.35.16-.28.26-.47c.2-.45,0-.75-.48-1.12s-.88-.63-3.14-2.16l-2.62-1.76c-1.45-1-2.62-1.77-3.3-2.14-.43-.24-.77-.32-1.14.1a6.81,6.81,0,0,0-.57.71c-.11.17-.21.21-.29.16s-.06-.22,0-.38c.67-1,1.34-1.89,1.61-2.29s.82-1.32,1.23-1.91c.13-.2.24-.27.34-.21s.09.15,0,.32a2.69,2.69,0,0,0-.3.58c-.14.35,0,.6.46.94.57.49,1.76,1.29,3.18,2.26Z"/>
        <path class="cls-2" d="M52.22,65.53C53.7,64.33,58,61.06,60,60.21a3.83,3.83,0,0,1,3.63,0,3.47,3.47,0,0,1,1.63,3.18,29.8,29.8,0,0,0-.1,5.74c.22,1.56,1.87,2,3.2.84.77-.66,3.69-3.66,5.28-5.41a25.53,25.53,0,0,1,5.15-4.35,3.53,3.53,0,0,1,3.78,0,3.28,3.28,0,0,1,1.49,2.93c0,1.39-.3,4.72-.12,6a1.75,1.75,0,0,0,2.79,1.12,54.71,54.71,0,0,0,5.49-5.57A21.57,21.57,0,0,1,98.1,60a3.52,3.52,0,0,1,3.49.34,4.13,4.13,0,0,1,1.26,4.23,35.57,35.57,0,0,1-2.54,7.58c-1.5,3.53-2.15,5.76-2.09,7.06A1.73,1.73,0,0,0,101,80.6c.67-.46,3.41-2.9,4.83-4.26V50.72a6.52,6.52,0,0,0-6.52-6.52H50.72a6.52,6.52,0,0,0-6.52,6.52v22c2.55-2.47,6.73-6.12,8-7.16"/>
        <path class="cls-2" d="M97.81,86.56C96.32,87.76,92,91,90,91.88a3.77,3.77,0,0,1-3.63,0,3.41,3.41,0,0,1-1.63-3.15,30,30,0,0,0,.1-5.76c-.23-1.56-1.87-2-3.19-.85-.79.68-3.69,3.66-5.28,5.4a25,25,0,0,1-5.16,4.36,3.49,3.49,0,0,1-3.78,0,3.25,3.25,0,0,1-1.49-2.93c0-1.38.3-4.7.12-6a1.75,1.75,0,0,0-2.79-1.13,53.13,53.13,0,0,0-5.48,5.58,22,22,0,0,1-5.85,4.71,3.56,3.56,0,0,1-3.5-.34,4.23,4.23,0,0,1-1.26-4.25,36.86,36.86,0,0,1,2.55-7.56c1.5-3.53,2.15-5.77,2.08-7.07A1.78,1.78,0,0,0,49,71.49a50.27,50.27,0,0,0-4.82,4.13v23.7a6.53,6.53,0,0,0,6.52,6.53H99.33a6.52,6.52,0,0,0,6.52-6.53V79.4c-2.6,2.5-6.75,6.11-8,7.16"/>
      </g>
    </g>
  </g>
</svg>
