<?xml version="1.0" encoding="UTF-8"?>
<svg xmlns="http://www.w3.org/2000/svg" xmlns:xlink="http://www.w3.org/1999/xlink" width="250" height="250" viewBox="0 0 250 250" version="1.1">
<g id="surface1">
<path style=" stroke:none;fill-rule:nonzero;fill:rgb(100%,100%,100%);fill-opacity:1;" d="M 125 250 C 194.035156 250 250 194.035156 250 125 C 250 55.964844 194.035156 0 125 0 C 55.964844 0 0 55.964844 0 125 C 0 194.035156 55.964844 250 125 250 "/>
<path style=" stroke:none;fill-rule:nonzero;fill:rgb(13.725491%,23.921569%,47.450981%);fill-opacity:1;" d="M 108.847656 187.664062 L 108.847656 133.480469 L 108.855469 133.480469 L 120.671875 172.484375 C 120.707031 172.628906 120.75 172.769531 120.796875 172.902344 C 121.464844 174.773438 123.261719 176.113281 125.382812 176.113281 C 127.519531 176.113281 129.328125 174.753906 129.980469 172.867188 L 130.078125 172.539062 L 141.816406 133.671875 L 141.828125 133.671875 L 141.828125 187.664062 C 141.828125 187.886719 141.847656 188.109375 141.863281 188.328125 C 136.742188 190.039062 131.171875 190.984375 125.335938 190.984375 C 119.507812 190.984375 113.933594 190.039062 108.8125 188.328125 C 108.828125 188.109375 108.847656 187.886719 108.847656 187.664062 M 89.007812 65.265625 L 89.007812 175.445312 C 83.519531 169.152344 80.265625 161.386719 80.265625 152.992188 L 80.265625 65.441406 C 80.265625 59.871094 75.695312 55.359375 70.054688 55.359375 C 64.410156 55.359375 59.839844 59.871094 59.839844 65.441406 L 59.839844 152.992188 C 59.839844 185.058594 89.222656 211.152344 125.335938 211.152344 C 161.453125 211.152344 190.835938 185.058594 190.835938 152.992188 L 190.835938 65.441406 C 190.835938 59.871094 186.265625 55.359375 180.621094 55.359375 C 174.984375 55.359375 170.410156 59.871094 170.410156 65.441406 L 170.410156 152.992188 C 170.410156 161.386719 167.15625 169.152344 161.667969 175.445312 L 161.667969 65.265625 C 161.667969 60.394531 158.039062 56.265625 153.152344 55.574219 C 148.265625 54.882812 143.609375 57.84375 142.226562 62.519531 C 142.226562 62.519531 133.140625 93.214844 125.363281 119.480469 C 117.5625 93.214844 108.445312 62.511719 108.445312 62.511719 C 107.058594 57.839844 102.402344 54.882812 97.519531 55.574219 C 92.632812 56.265625 89.007812 60.394531 89.007812 65.265625 M 33.609375 180.695312 L 32.558594 178.808594 L 39.488281 175.027344 C 39.910156 175.867188 40.433594 176.707031 40.855469 177.546875 C 42.324219 180.066406 42.21875 182.269531 39.804688 183.636719 C 36.757812 185.210938 35.078125 183.21875 33.609375 180.695312 M 41.695312 185.945312 C 44.425781 184.476562 44.53125 181.328125 42.535156 177.753906 C 41.484375 175.867188 40.332031 174.5 39.597656 173.03125 C 38.757812 171.664062 38.125 170.300781 37.703125 169.25 L 37.285156 169.460938 L 37.808594 172.085938 C 37.914062 172.820312 37.808594 173.03125 35.183594 174.398438 L 25.207031 179.855469 C 23.109375 181.011719 22.894531 181.011719 22.265625 180.378906 L 20.378906 178.699219 L 19.957031 178.910156 C 20.796875 180.171875 21.847656 181.640625 22.582031 183.007812 C 23.109375 183.949219 24.050781 185.84375 24.578125 187 L 24.996094 186.789062 L 24.472656 184.265625 C 24.367188 183.425781 24.894531 183.007812 28.464844 181.011719 L 31.71875 179.332031 L 32.875 181.429688 C 31.613281 184.265625 29.410156 188.574219 27.410156 191.933594 C 27.832031 192.5625 28.359375 193.296875 28.671875 193.929688 L 29.617188 195.820312 L 30.039062 195.609375 C 29.410156 193.929688 29.511719 193.71875 31.089844 190.882812 L 34.660156 184.058594 C 36.441406 186.261719 38.859375 187.523438 41.695312 185.945312 M 63.117188 226.0625 L 61.648438 212.832031 L 71.625 212.199219 C 73.199219 212.09375 74.460938 212.621094 75.300781 212.933594 L 75.617188 212.621094 C 74.566406 211.992188 73.621094 211.359375 72.675781 210.730469 C 71.519531 209.890625 70.574219 208.945312 69.523438 208.105469 L 69.210938 208.421875 C 70.050781 209.578125 70.574219 210.207031 70.363281 210.519531 C 70.261719 210.730469 69.316406 210.941406 67.738281 211.046875 L 58.8125 211.886719 L 59.96875 223.332031 C 59.96875 223.753906 60.074219 223.960938 59.96875 224.171875 C 59.757812 224.382812 59.234375 224.171875 57.554688 223.542969 L 57.238281 223.859375 C 58.394531 224.59375 59.546875 225.222656 60.703125 226.0625 C 61.964844 227.007812 63.117188 228.058594 64.273438 229.003906 L 64.484375 228.691406 C 63.957031 228.058594 63.539062 227.324219 63.328125 227.007812 C 63.328125 226.902344 63.117188 226.273438 63.117188 226.0625 M 54.296875 216.613281 C 55.347656 215.140625 56.503906 213.566406 57.65625 212.09375 C 58.8125 210.625 59.96875 209.15625 61.125 207.6875 C 63.011719 205.375 63.117188 205.269531 63.75 205.480469 L 66.375 206.320312 L 66.6875 206.003906 C 65.324219 205.164062 64.066406 204.324219 62.804688 203.378906 C 61.347656 202.339844 60.199219 201.402344 59.160156 200.363281 C 59.207031 200.328125 59.265625 200.285156 59.339844 200.230469 C 58.601562 199.597656 57.867188 198.96875 57.238281 198.128906 C 56.503906 197.394531 55.871094 196.449219 55.242188 195.503906 L 54.929688 195.820312 C 55.347656 196.660156 55.976562 197.917969 55.660156 198.234375 C 55.03125 198.757812 48.519531 200.125 45.6875 200.753906 C 46.105469 199.597656 49.152344 192.25 49.675781 191.828125 C 50.203125 191.410156 50.832031 191.617188 52.300781 192.773438 L 52.722656 192.457031 C 51.671875 191.515625 50.726562 190.570312 49.78125 189.519531 C 48.941406 188.46875 48.101562 187.3125 47.367188 186.261719 L 47.050781 186.472656 C 47.261719 187.101562 47.46875 187.839844 47.578125 188.46875 C 46.527344 191.722656 45.371094 194.558594 42.953125 200.230469 L 39.277344 203.277344 C 38.335938 204.011719 37.808594 203.90625 36.441406 203.066406 L 35.183594 202.226562 L 34.867188 202.539062 C 35.816406 203.484375 37.074219 204.746094 38.125 205.902344 C 39.070312 207.058594 40.121094 208.527344 40.855469 209.578125 L 41.273438 209.367188 L 40.644531 208 C 40.015625 206.53125 40.015625 206.003906 40.960938 205.269531 L 44.636719 202.226562 L 54.929688 200.125 C 56.816406 199.808594 57.972656 199.597656 58.917969 200.546875 C 58.917969 200.546875 58.917969 200.542969 59.039062 200.457031 C 58.992188 200.519531 58.921875 200.609375 58.8125 200.753906 L 60.390625 202.960938 C 60.703125 203.484375 60.597656 203.695312 58.917969 206.003906 C 57.761719 207.476562 56.714844 209.050781 55.558594 210.519531 C 54.402344 211.992188 53.140625 213.460938 51.988281 214.929688 C 50.515625 216.824219 50.410156 216.824219 49.570312 216.613281 L 47.15625 215.878906 L 46.839844 216.191406 C 48.101562 216.929688 49.570312 217.871094 50.832031 218.820312 C 51.988281 219.660156 53.351562 220.8125 54.507812 221.757812 L 54.71875 221.445312 L 53.246094 219.34375 C 52.828125 218.710938 52.828125 218.503906 54.296875 216.613281 M 7.878906 104.976562 C 8.300781 104.347656 8.613281 104.035156 9.558594 104.035156 C 11.554688 104.242188 23.109375 105.714844 25.207031 106.238281 C 25.734375 106.34375 25.835938 106.660156 26.046875 108.023438 L 26.257812 109.390625 L 26.679688 109.496094 C 26.992188 107.5 27.410156 105.503906 27.9375 103.71875 C 23.632812 100.566406 19.328125 97.3125 15.230469 93.742188 C 20.585938 92.902344 25.835938 91.957031 31.089844 91.328125 C 31.613281 89.539062 32.246094 87.546875 32.875 85.65625 L 32.453125 85.550781 L 31.296875 87.125 C 30.984375 87.652344 30.5625 87.757812 30.039062 87.652344 C 27.730469 87.019531 20.167969 84.289062 15.542969 82.402344 C 14.601562 81.980469 14.496094 81.769531 14.285156 80.71875 L 14.179688 78.933594 L 13.761719 78.828125 C 13.550781 79.984375 13.339844 81.246094 13.027344 82.402344 C 12.710938 83.660156 12.289062 84.921875 11.871094 86.179688 L 12.289062 86.285156 L 13.234375 84.816406 C 13.65625 84.082031 14.074219 83.871094 14.808594 84.082031 C 16.804688 84.605469 25.3125 87.335938 29.199219 88.699219 C 23 89.753906 16.804688 90.90625 10.398438 91.535156 L 10.292969 91.957031 C 15.335938 95.632812 19.957031 99.203125 25.101562 103.300781 C 23.527344 103.195312 11.554688 101.617188 9.980469 101.300781 C 9.769531 101.199219 9.351562 100.777344 9.351562 99.726562 L 9.140625 98.152344 L 8.71875 98.046875 C 8.511719 99.414062 8.300781 100.777344 7.878906 102.246094 C 7.566406 103.613281 7.039062 104.976562 6.617188 106.34375 L 7.039062 106.449219 Z M 20.796875 158.851562 L 29.828125 159.484375 L 23.109375 165.46875 Z M 34.554688 159.0625 L 34.34375 158.433594 C 28.148438 158.117188 20.167969 157.382812 13.234375 156.960938 C 12.605469 156.4375 11.976562 155.699219 11.449219 155.179688 L 11.03125 155.28125 C 11.554688 156.332031 11.976562 157.382812 12.394531 158.433594 C 12.816406 159.589844 13.128906 160.742188 13.445312 161.898438 L 13.867188 161.792969 L 13.867188 158.957031 C 15.652344 158.75 17.542969 158.640625 19.429688 158.851562 C 19.851562 160.113281 20.378906 161.269531 20.796875 162.527344 C 21.21875 163.789062 21.636719 164.945312 22.058594 166.203125 C 21.320312 166.9375 18.90625 168.828125 17.75 169.667969 C 17.015625 168.933594 16.175781 167.78125 15.757812 167.148438 L 15.335938 167.253906 C 15.964844 168.515625 16.597656 169.773438 17.015625 171.035156 C 17.542969 172.609375 18.066406 174.1875 18.484375 175.761719 L 18.90625 175.550781 L 18.800781 172.820312 C 23.949219 168.304688 29.199219 163.472656 34.554688 159.0625 M 77.613281 224.488281 C 78.453125 222.808594 79.292969 221.128906 80.128906 219.449219 C 81.496094 216.929688 81.707031 216.71875 82.335938 216.824219 L 85.066406 217.136719 L 85.277344 216.71875 C 83.804688 216.191406 82.335938 215.667969 80.972656 214.929688 C 79.292969 214.195312 78.03125 213.460938 76.667969 212.726562 L 76.457031 213.042969 L 78.453125 214.929688 C 78.976562 215.457031 78.871094 215.667969 77.613281 218.292969 C 76.769531 219.972656 76.035156 221.652344 75.195312 223.332031 C 74.355469 225.015625 73.515625 226.695312 72.570312 228.269531 C 71.519531 230.472656 71.417969 230.472656 70.574219 230.371094 L 67.949219 230.054688 L 67.84375 230.472656 C 69.101562 231 70.785156 231.628906 72.257812 232.367188 C 73.515625 232.890625 75.089844 233.835938 76.351562 234.570312 L 76.5625 234.148438 L 74.777344 232.46875 C 74.144531 231.839844 74.144531 231.628906 75.195312 229.53125 C 75.929688 227.847656 76.769531 226.167969 77.613281 224.488281 M 15.441406 149.507812 C 21.742188 148.140625 18.589844 139.003906 23.421875 137.953125 C 25.523438 137.535156 27.410156 139.003906 27.730469 140.894531 C 27.9375 141.945312 28.042969 142.996094 27.832031 144.152344 L 24.683594 145.933594 L 24.683594 146.355469 L 28.988281 145.621094 C 29.304688 144.253906 29.304688 142.257812 28.988281 141 C 28.359375 137.746094 25.835938 134.699219 22.058594 135.433594 C 16.28125 136.589844 18.589844 145.933594 14.179688 146.882812 C 11.347656 147.40625 9.769531 145.410156 9.246094 142.996094 C 9.140625 142.257812 9.035156 140.789062 9.351562 139.84375 L 13.128906 137.953125 L 13.027344 137.535156 L 7.878906 138.058594 C 7.566406 139.949219 7.671875 141.210938 7.984375 142.679688 C 9.246094 148.667969 12.710938 150.03125 15.441406 149.507812 M 14.074219 124.40625 L 14.074219 117.476562 L 22.476562 121.046875 Z M 26.992188 121.46875 C 21.320312 119.261719 14.074219 115.902344 7.671875 113.066406 C 7.25 112.328125 6.933594 111.488281 6.617188 110.753906 L 6.199219 110.753906 C 6.304688 111.910156 6.410156 113.066406 6.410156 114.21875 C 6.410156 115.375 6.304688 116.636719 6.199219 117.792969 L 6.617188 117.792969 L 7.566406 115.164062 C 9.351562 115.585938 11.242188 116.109375 12.816406 116.949219 L 12.816406 120.835938 C 12.816406 122.097656 12.816406 123.460938 12.710938 124.722656 C 11.765625 125.140625 8.824219 126.191406 7.457031 126.507812 C 7.144531 125.5625 6.722656 124.195312 6.515625 123.460938 L 6.09375 123.460938 C 6.199219 124.828125 6.304688 126.191406 6.304688 127.558594 C 6.304688 129.238281 6.199219 130.8125 5.988281 132.492188 L 6.515625 132.492188 L 7.457031 129.867188 C 13.867188 127.347656 20.378906 124.617188 26.992188 122.199219 Z M 188.507812 213.566406 L 186.828125 214.828125 L 182 208.839844 C 182.734375 208.210938 183.46875 207.6875 184.203125 207.058594 C 186.515625 205.269531 188.824219 204.957031 190.503906 207.160156 C 192.710938 209.785156 190.820312 211.78125 188.507812 213.566406 M 199.222656 214.40625 L 191.765625 212.09375 C 193.761719 209.996094 194.597656 207.371094 192.605469 204.957031 C 190.714844 202.539062 187.460938 202.855469 184.203125 205.375 C 182.523438 206.742188 181.261719 208 179.898438 209.050781 C 178.636719 210.101562 177.378906 210.835938 176.328125 211.46875 L 176.644531 211.78125 L 179.269531 210.941406 C 179.898438 210.625 180.109375 210.730469 182 213.042969 L 189.035156 221.757812 C 190.609375 223.648438 190.609375 223.859375 190.085938 224.59375 L 188.613281 226.695312 L 188.929688 227.007812 C 189.980469 226.0625 191.34375 224.800781 192.605469 223.859375 C 193.550781 223.121094 195.230469 221.96875 196.386719 221.234375 L 196.070312 220.917969 L 193.65625 221.757812 C 192.816406 222.074219 192.289062 221.652344 189.769531 218.503906 L 187.460938 215.667969 L 189.457031 214.195312 C 192.5 214.929688 197.226562 216.402344 200.902344 217.769531 C 201.53125 217.242188 202.058594 216.71875 202.6875 216.191406 C 203.210938 215.769531 203.84375 215.351562 204.472656 215.035156 L 204.261719 214.617188 C 202.582031 215.457031 202.371094 215.457031 199.222656 214.40625 M 215.8125 167.359375 C 215.394531 167.046875 215.183594 166.625 215.289062 165.992188 L 215.605469 163.789062 L 214.976562 163.472656 C 214.449219 164.839844 213.925781 166.097656 213.296875 167.359375 C 212.769531 168.515625 212.035156 169.667969 211.402344 170.71875 L 211.824219 170.929688 L 213.503906 169.460938 C 214.238281 168.828125 214.554688 168.722656 215.394531 169.039062 C 216.757812 169.5625 218.230469 170.300781 219.488281 170.929688 L 226.421875 174.1875 L 226.421875 174.289062 L 211.71875 176.914062 C 210.460938 177.125 209.300781 177.335938 208.042969 177.335938 C 207.726562 178.175781 207.414062 179.121094 206.992188 179.960938 C 206.574219 180.800781 205.941406 181.640625 205.417969 182.480469 L 205.835938 182.691406 C 206.574219 181.957031 207.308594 181.222656 208.148438 180.589844 L 208.882812 180.488281 L 214.449219 183.21875 C 218.019531 184.898438 222.222656 187.207031 223.0625 187.734375 C 223.269531 187.839844 223.375 188.257812 223.375 188.679688 L 223.0625 191.199219 L 223.480469 191.410156 C 224.003906 190.148438 224.425781 188.992188 225.054688 187.734375 C 225.683594 186.578125 226.421875 185.316406 227.15625 184.160156 L 226.738281 183.949219 L 225.265625 185.527344 C 224.53125 186.261719 224.214844 186.261719 223.796875 186.15625 C 223.164062 185.945312 217.597656 183.320312 213.820312 181.535156 L 210.667969 179.960938 L 221.273438 178.070312 C 224.84375 177.441406 228.3125 176.8125 231.988281 176.285156 L 232.300781 175.65625 C 229.046875 174.1875 225.789062 172.609375 224.636719 171.980469 C 222.957031 171.242188 218.125 168.515625 215.8125 167.359375 M 226.316406 128.292969 C 225.789062 128.082031 225.476562 127.769531 225.371094 127.03125 L 224.949219 124.933594 L 224.425781 124.828125 C 224.214844 126.191406 224.109375 127.558594 223.902344 128.921875 C 223.691406 130.183594 223.375 131.445312 222.957031 132.703125 L 223.480469 132.808594 L 224.636719 130.917969 C 225.160156 130.078125 225.476562 129.867188 226.316406 129.972656 C 227.890625 130.183594 229.363281 130.394531 230.9375 130.605469 L 238.394531 131.863281 L 238.496094 131.96875 L 225.160156 138.585938 C 224.003906 139.109375 222.957031 139.636719 221.695312 140.054688 C 221.695312 140.894531 221.695312 141.839844 221.484375 142.785156 C 221.378906 143.730469 221.066406 144.675781 220.75 145.621094 L 221.167969 145.726562 C 221.695312 144.78125 222.113281 143.941406 222.746094 143.101562 L 223.480469 142.785156 L 229.570312 143.835938 C 233.5625 144.464844 238.183594 145.410156 239.128906 145.726562 C 239.445312 145.832031 239.652344 146.144531 239.757812 146.566406 L 240.285156 149.085938 L 240.703125 149.085938 C 240.808594 147.828125 240.914062 146.460938 241.125 145.199219 C 241.332031 143.835938 241.648438 142.46875 242.070312 141.210938 L 241.648438 141.105469 L 240.597656 142.996094 C 240.179688 143.835938 239.863281 144.046875 239.445312 144.046875 C 238.8125 144.046875 232.617188 143.101562 228.519531 142.363281 L 225.054688 141.734375 L 234.613281 137.007812 C 237.867188 135.328125 241.019531 133.753906 244.378906 132.285156 L 244.484375 131.546875 C 240.914062 131.023438 237.34375 130.394531 236.082031 130.183594 C 234.296875 129.972656 228.835938 128.710938 226.316406 128.292969 M 213.191406 192.355469 C 208.882812 188.886719 206.785156 187.3125 205.417969 186.261719 C 204.890625 185.84375 204.996094 185.316406 205.207031 184.476562 L 205.628906 183.109375 L 205.3125 182.796875 C 204.578125 183.847656 203.949219 184.898438 203.210938 185.84375 C 202.371094 186.890625 201.425781 187.839844 200.480469 188.78125 L 200.796875 189.097656 L 202.371094 188.046875 C 203.109375 187.625 203.527344 187.417969 204.050781 187.625 C 205.941406 188.78125 209.933594 191.828125 212.976562 194.140625 C 215.917969 196.449219 216.339844 199.179688 214.238281 201.699219 C 211.195312 205.585938 208.566406 204.746094 205.3125 202.226562 C 201.53125 199.285156 199.433594 197.710938 197.960938 196.554688 C 197.121094 195.820312 197.226562 195.503906 197.753906 193.824219 L 198.277344 192.355469 L 197.855469 192.039062 C 196.910156 193.402344 196.070312 194.769531 195.019531 196.027344 C 194.078125 197.183594 193.128906 198.234375 192.082031 199.390625 L 192.394531 199.707031 L 194.496094 198.445312 C 195.335938 197.917969 195.859375 198.234375 197.960938 199.914062 L 204.890625 205.269531 C 208.671875 208.105469 212.242188 206.84375 215.078125 203.378906 C 217.914062 199.707031 218.019531 196.027344 213.191406 192.355469 M 234.402344 152.128906 L 234.296875 152.550781 C 235.871094 153.601562 236.710938 154.230469 237.027344 154.757812 C 237.34375 155.070312 237.238281 155.597656 236.1875 158.75 C 235.769531 160.007812 235.242188 161.371094 234.71875 162.738281 C 233.457031 162.421875 231.988281 162.109375 230.621094 161.6875 L 226.527344 160.429688 L 227.578125 157.277344 C 228.730469 153.8125 228.835938 153.496094 229.675781 153.390625 L 232.195312 153.390625 L 232.300781 152.972656 C 231.042969 152.550781 229.886719 152.238281 228.628906 151.816406 C 227.578125 151.5 226.421875 151.082031 225.265625 150.765625 L 225.160156 151.183594 L 227.050781 152.550781 C 227.578125 153.078125 227.578125 153.390625 226.421875 156.960938 L 225.371094 160.007812 L 221.695312 158.851562 C 220.433594 158.433594 219.386719 158.011719 218.332031 157.695312 C 218.652344 156.542969 219.070312 155.179688 219.59375 153.496094 C 220.75 150.136719 220.75 149.820312 221.695312 149.820312 L 224.214844 149.820312 L 224.320312 149.402344 C 223.691406 149.191406 222.640625 148.875 222.113281 148.769531 C 221.695312 148.667969 220.644531 148.246094 219.910156 147.929688 C 219.175781 150.558594 218.441406 153.390625 217.492188 156.226562 C 216.757812 158.433594 215.917969 160.636719 214.976562 163.050781 L 215.394531 163.160156 L 217.074219 160.953125 C 217.492188 160.429688 217.707031 160.324219 220.539062 161.269531 L 231.460938 164.628906 C 233.773438 165.363281 233.878906 165.46875 233.878906 166.414062 L 233.878906 168.933594 L 234.296875 169.039062 C 234.925781 166.9375 235.664062 164 236.503906 161.480469 C 237.027344 159.796875 238.601562 155.28125 239.234375 153.8125 L 236.921875 153.078125 C 236.082031 152.867188 235.242188 152.445312 234.402344 152.128906 M 123.714844 224.171875 C 122.453125 224.070312 121.089844 223.960938 119.828125 223.753906 L 119.828125 224.171875 L 121.824219 225.121094 C 122.769531 225.539062 122.980469 225.75 122.980469 226.695312 C 122.980469 228.164062 122.980469 229.632812 122.875 231.210938 L 122.347656 238.664062 L 114.15625 226.484375 C 113.421875 225.433594 112.792969 224.382812 112.265625 223.230469 C 111.320312 223.332031 110.375 223.4375 109.429688 223.332031 C 108.488281 223.332031 107.4375 223.121094 106.492188 222.914062 L 106.386719 223.332031 C 107.4375 223.753906 108.378906 224.171875 109.328125 224.59375 L 109.640625 225.222656 L 109.328125 231.3125 C 109.117188 235.308594 108.589844 239.925781 108.378906 240.871094 C 108.378906 241.1875 108.066406 241.398438 107.539062 241.5 L 105.125 242.238281 L 105.125 242.761719 C 106.492188 242.65625 107.855469 242.65625 109.117188 242.65625 C 110.585938 242.761719 111.953125 242.972656 113.316406 243.179688 L 113.316406 242.761719 L 111.320312 242.027344 C 110.375 241.710938 110.269531 241.398438 110.167969 240.871094 C 110.0625 240.34375 110.375 234.253906 110.691406 230.160156 L 110.902344 226.695312 L 116.785156 235.515625 C 118.777344 238.457031 120.773438 241.398438 122.664062 244.441406 L 123.398438 244.441406 C 123.503906 240.976562 123.714844 237.40625 123.820312 236.148438 C 123.921875 234.359375 124.449219 228.898438 124.761719 226.484375 C 124.761719 225.855469 125.183594 225.640625 125.816406 225.433594 L 128.019531 224.800781 L 128.019531 224.171875 C 126.550781 224.277344 125.183594 224.277344 123.714844 224.171875 M 26.992188 76.203125 C 28.777344 76.203125 30.144531 74.839844 30.144531 73.15625 C 30.144531 71.476562 28.777344 70.113281 26.992188 70.113281 C 25.3125 70.113281 23.949219 71.476562 23.949219 73.15625 C 23.949219 74.839844 25.3125 76.203125 26.992188 76.203125 M 88.21875 230.6875 L 93.992188 223.753906 L 95.148438 232.46875 Z M 96.304688 219.660156 L 95.671875 219.550781 C 91.894531 224.277344 86.746094 230.265625 82.335938 235.621094 C 81.496094 235.832031 80.550781 235.9375 79.710938 235.9375 L 79.605469 236.355469 C 80.761719 236.566406 81.917969 236.777344 83.070312 237.089844 C 84.332031 237.40625 85.488281 237.824219 86.644531 238.246094 L 86.746094 237.824219 L 84.332031 236.25 C 85.277344 234.675781 86.222656 232.996094 87.480469 231.734375 C 88.742188 232.050781 90.003906 232.367188 91.261719 232.679688 C 92.628906 233.101562 93.890625 233.414062 95.148438 233.835938 C 95.359375 234.78125 95.464844 237.929688 95.464844 239.191406 C 94.519531 239.296875 93.050781 239.402344 92.316406 239.402344 L 92.101562 239.71875 C 93.574219 240.03125 94.9375 240.242188 96.304688 240.660156 C 97.878906 241.082031 99.453125 241.605469 101.03125 242.132812 L 101.136719 241.710938 L 98.824219 240.242188 C 97.984375 233.414062 96.933594 226.484375 96.304688 219.660156 M 173.914062 233.207031 C 173.175781 233.519531 172.441406 233.835938 171.707031 234.148438 C 171.183594 233.308594 170.761719 232.46875 170.34375 231.527344 L 167.925781 226.273438 L 169.921875 225.328125 C 173.175781 223.859375 176.328125 223.753906 177.691406 226.796875 C 179.269531 230.160156 176.644531 232.050781 173.914062 233.207031 M 167.507812 225.328125 L 165.722656 221.445312 C 165.089844 220.183594 164.773438 219.34375 164.25 218.082031 C 165.195312 217.558594 165.828125 217.347656 166.769531 216.929688 C 169.1875 215.769531 171.601562 215.878906 172.863281 218.710938 C 174.4375 221.863281 171.601562 223.4375 169.710938 224.277344 Z M 172.230469 223.859375 L 172.230469 223.753906 C 174.859375 222.28125 176.746094 219.765625 175.699219 217.453125 C 174.121094 214.09375 170.445312 214.195312 167.296875 215.5625 C 165.722656 216.191406 163.621094 217.453125 162.464844 217.976562 C 161.3125 218.398438 159.839844 218.921875 158.160156 219.550781 L 158.371094 219.972656 L 161.097656 219.660156 C 161.835938 219.550781 162.046875 219.765625 163.199219 222.390625 L 167.925781 232.574219 C 168.976562 234.78125 168.871094 234.886719 168.242188 235.515625 L 166.351562 237.195312 L 166.457031 237.617188 C 167.714844 236.984375 168.871094 236.355469 170.238281 235.726562 C 171.917969 234.886719 174.332031 234.148438 176.539062 233.207031 C 180.632812 231.417969 181.683594 228.269531 180.527344 225.640625 C 178.953125 222.390625 175.171875 222.808594 172.230469 223.859375 M 136.210938 235.410156 L 138.835938 226.902344 L 143.246094 234.570312 Z M 149.652344 240.34375 C 146.292969 234.46875 142.722656 228.375 139.464844 222.28125 L 138.730469 222.390625 C 137.15625 228.164062 134.636719 235.621094 132.640625 242.238281 C 131.90625 242.65625 131.066406 243.078125 130.332031 243.496094 L 130.433594 243.917969 C 131.589844 243.707031 132.746094 243.390625 133.902344 243.289062 C 135.160156 243.179688 136.316406 243.078125 137.578125 243.078125 L 137.578125 242.65625 L 134.742188 242.027344 C 134.949219 240.242188 135.265625 238.351562 135.894531 236.777344 C 137.261719 236.566406 138.523438 236.355469 139.78125 236.25 C 141.148438 236.039062 142.511719 235.9375 143.773438 235.832031 C 144.296875 236.671875 145.664062 239.503906 146.1875 240.660156 C 145.347656 241.1875 143.980469 241.710938 143.246094 242.027344 L 143.351562 242.445312 C 144.71875 242.132812 146.082031 241.921875 147.449219 241.710938 C 149.128906 241.5 150.808594 241.5 152.488281 241.398438 L 152.382812 240.976562 Z M 100.820312 9.832031 C 101.554688 9.9375 101.660156 10.148438 102.082031 12.984375 L 103.761719 24.113281 C 104.078125 26.425781 103.972656 26.53125 103.238281 26.949219 L 100.925781 28.105469 L 100.925781 28.527344 C 103.238281 28.105469 106.175781 27.582031 108.90625 27.160156 C 110.691406 26.847656 115.523438 26.320312 117.097656 26.214844 L 116.785156 23.90625 C 116.679688 22.960938 116.679688 22.015625 116.570312 21.175781 L 116.152344 21.277344 C 115.839844 23.066406 115.628906 24.113281 115.3125 24.640625 C 115.101562 25.0625 114.578125 25.167969 111.320312 25.6875 C 109.851562 25.796875 108.378906 26.007812 106.910156 26.109375 C 106.699219 24.851562 106.386719 23.484375 106.175781 22.121094 L 105.546875 17.917969 L 108.800781 17.5 C 112.582031 16.867188 112.898438 16.972656 113.316406 17.605469 L 114.472656 19.808594 L 114.890625 19.703125 C 114.683594 18.445312 114.472656 17.289062 114.261719 16.027344 C 114.050781 14.875 113.949219 13.71875 113.84375 12.5625 L 113.316406 12.5625 L 112.898438 14.875 C 112.6875 15.609375 112.371094 15.714844 108.589844 16.238281 L 105.335938 16.765625 L 104.8125 12.984375 C 104.601562 11.722656 104.496094 10.566406 104.390625 9.519531 C 105.546875 9.308594 107.015625 8.992188 108.800781 8.785156 C 112.371094 8.257812 112.582031 8.257812 113.109375 8.992188 L 114.261719 11.199219 L 114.683594 11.09375 C 114.578125 10.464844 114.261719 9.414062 114.261719 8.992188 C 114.15625 8.46875 114.050781 7.417969 113.949219 6.578125 C 111.214844 7.101562 108.378906 7.730469 105.335938 8.152344 C 103.023438 8.46875 100.609375 8.675781 97.984375 8.886719 L 98.089844 9.414062 Z M 219.175781 90.800781 C 218.859375 89.753906 218.652344 88.804688 218.652344 87.652344 L 221.484375 85.339844 L 221.378906 85.023438 L 217.285156 86.285156 C 217.179688 87.757812 217.492188 89.753906 218.019531 90.90625 C 219.175781 94.058594 222.222656 96.683594 225.789062 95.316406 C 231.253906 93.214844 227.472656 84.394531 231.671875 82.820312 C 234.402344 81.769531 236.292969 83.554688 237.132812 85.867188 C 237.449219 86.496094 237.761719 87.964844 237.550781 89.015625 L 234.191406 91.433594 L 234.296875 91.851562 L 239.339844 90.488281 C 239.339844 88.597656 239.023438 87.335938 238.496094 85.96875 C 236.292969 80.300781 232.617188 79.460938 230.097656 80.40625 C 224.003906 82.714844 228.628906 91.328125 224.003906 93.007812 C 222.007812 93.742188 219.910156 92.585938 219.175781 90.800781 M 125.816406 7.628906 C 126.757812 7.628906 127.703125 7.628906 128.753906 7.730469 C 131.695312 7.835938 133.585938 9.097656 133.480469 11.828125 C 133.269531 15.1875 130.539062 15.503906 127.703125 15.398438 L 125.5 15.292969 Z M 128.546875 26.214844 L 128.546875 25.796875 L 126.023438 24.851562 C 125.183594 24.640625 125.183594 23.90625 125.289062 19.914062 L 125.5 16.34375 L 127.914062 16.449219 C 129.699219 18.96875 132.429688 23.066406 134.214844 26.53125 C 135.054688 26.425781 135.894531 26.425781 136.628906 26.425781 C 137.363281 26.53125 138.101562 26.53125 138.835938 26.636719 L 138.835938 26.214844 C 137.050781 25.902344 136.945312 25.585938 135.160156 22.855469 L 131.171875 16.34375 C 134.007812 16.027344 136.421875 14.664062 136.527344 11.511719 C 136.628906 8.46875 134.007812 6.683594 129.804688 6.472656 C 127.597656 6.367188 125.816406 6.578125 124.132812 6.472656 C 122.453125 6.472656 120.984375 6.261719 119.828125 6.050781 L 119.828125 6.472656 L 122.453125 7.523438 C 123.082031 7.730469 123.1875 7.945312 123.082031 10.882812 L 122.558594 22.015625 C 122.453125 24.324219 122.347656 24.535156 121.507812 24.746094 L 118.988281 25.480469 L 118.988281 25.902344 C 120.457031 25.796875 122.347656 25.796875 123.921875 25.796875 C 125.078125 25.902344 127.179688 26.109375 128.546875 26.214844 M 199.535156 59.609375 C 203.527344 64.335938 207.308594 63.8125 209.40625 62.132812 C 214.34375 57.929688 206.992188 51.417969 210.773438 48.269531 C 212.347656 46.902344 214.765625 47.324219 216.023438 48.792969 C 216.757812 49.527344 217.285156 50.476562 217.597656 51.523438 L 215.710938 54.675781 L 216.023438 54.886719 L 219.386719 52.363281 C 218.964844 51 218.019531 49.214844 217.179688 48.164062 C 214.976562 45.644531 211.195312 44.171875 208.359375 46.589844 C 203.84375 50.367188 210.460938 57.511719 207.097656 60.347656 C 204.789062 62.238281 202.476562 61.1875 200.796875 59.296875 C 200.378906 58.769531 199.535156 57.511719 199.328125 56.460938 L 201.742188 53.097656 L 201.425781 52.785156 L 197.121094 55.621094 C 197.753906 57.40625 198.488281 58.5625 199.535156 59.609375 M 215.710938 69.695312 C 215.710938 71.375 217.074219 72.738281 218.859375 72.738281 C 220.539062 72.738281 221.90625 71.375 221.90625 69.695312 C 221.90625 68.011719 220.539062 66.648438 218.859375 66.648438 C 217.074219 66.648438 215.710938 68.011719 215.710938 69.695312 M 197.015625 34.933594 L 194.496094 43.4375 L 189.035156 39.132812 Z M 179.058594 40.707031 L 178.742188 41.023438 C 179.792969 41.652344 180.738281 42.285156 181.683594 42.914062 C 182.628906 43.753906 183.46875 44.59375 184.414062 45.433594 L 184.625 45.117188 L 183.152344 42.703125 C 184.625 41.652344 186.199219 40.496094 187.878906 39.761719 C 188.929688 40.605469 189.875 41.339844 190.925781 42.179688 C 191.976562 43.019531 193.023438 43.859375 194.078125 44.699219 C 193.761719 45.644531 192.710938 48.582031 192.183594 49.84375 C 191.242188 49.527344 189.875 49.003906 189.140625 48.6875 L 188.824219 49.003906 C 190.085938 49.742188 191.242188 50.476562 192.289062 51.417969 C 193.65625 52.363281 194.8125 53.519531 196.070312 54.675781 L 196.28125 54.253906 L 194.8125 51.945312 C 196.804688 45.433594 198.695312 38.714844 200.796875 32.203125 L 200.273438 31.675781 C 194.917969 34.617188 187.773438 38.082031 181.578125 41.339844 C 180.738281 41.234375 179.792969 40.917969 179.058594 40.707031 M 167.507812 35.039062 L 167.296875 35.351562 C 168.660156 35.980469 169.921875 36.507812 171.707031 37.347656 C 173.386719 38.292969 174.542969 39.027344 175.800781 39.761719 L 176.011719 39.449219 C 174.226562 37.664062 173.808594 37.035156 173.914062 36.613281 C 173.914062 36.085938 174.226562 35.351562 174.960938 33.988281 L 181.472656 22.121094 C 185.675781 24.324219 185.886719 24.535156 185.78125 25.6875 L 185.359375 28.316406 L 185.78125 28.527344 L 188.300781 23.800781 C 185.78125 22.75 183.363281 21.59375 180.949219 20.335938 C 178.535156 19.074219 176.117188 17.707031 173.808594 16.34375 L 171.285156 20.964844 L 171.707031 21.175781 L 173.703125 19.390625 C 174.542969 18.65625 174.960938 18.757812 179.058594 20.859375 L 172.652344 32.726562 C 171.917969 34.09375 171.496094 34.828125 171.078125 35.140625 C 170.761719 35.351562 170.027344 35.457031 167.507812 35.039062 M 155.007812 30.625 C 156.375 31.046875 158.160156 31.570312 159.628906 32.097656 C 160.890625 32.515625 162.570312 33.253906 163.933594 33.882812 L 164.144531 33.460938 L 162.152344 31.886719 C 161.519531 31.363281 161.417969 31.257812 162.253906 29.050781 C 162.886719 27.265625 163.515625 25.480469 164.144531 23.695312 C 164.773438 22.015625 165.511719 20.230469 166.246094 18.550781 C 167.296875 15.820312 167.402344 15.609375 168.03125 15.609375 L 170.867188 15.714844 L 170.972656 15.292969 C 169.503906 14.875 168.03125 14.453125 166.5625 13.929688 C 164.878906 13.402344 163.410156 12.667969 162.046875 12.039062 L 161.941406 12.457031 L 164.144531 14.242188 C 164.566406 14.558594 164.566406 14.769531 163.515625 17.605469 C 162.886719 19.285156 162.359375 21.070312 161.625 22.855469 C 160.996094 24.535156 160.257812 26.320312 159.628906 28 C 158.683594 30.207031 158.578125 30.3125 157.742188 30.3125 L 155.21875 30.207031 Z M 154.378906 24.746094 C 155.847656 18.550781 145.875 17.605469 147.027344 12.878906 C 147.449219 10.777344 149.652344 9.726562 151.542969 10.148438 C 152.59375 10.359375 153.539062 10.777344 154.484375 11.40625 L 154.902344 15.082031 L 155.324219 15.082031 L 156.375 10.988281 C 155.21875 10.148438 153.433594 9.308594 152.066406 9.097656 C 148.8125 8.363281 144.925781 9.308594 144.085938 12.984375 C 142.722656 18.65625 152.488281 20.4375 151.4375 24.640625 C 150.808594 27.476562 148.289062 28.105469 145.875 27.582031 C 145.136719 27.371094 143.667969 26.847656 142.933594 26.109375 L 142.722656 22.015625 L 142.300781 21.910156 L 140.621094 26.742188 C 142.300781 27.789062 143.5625 28.210938 145.035156 28.527344 C 151.125 29.890625 153.75 27.371094 154.378906 24.746094 M 76.351562 16.660156 C 77.402344 16.660156 77.613281 16.660156 78.453125 17.605469 C 81.8125 21.175781 87.480469 27.476562 91.367188 32.097656 L 92 31.886719 C 92.207031 23.695312 92.417969 17.078125 92.941406 12.457031 C 93.050781 11.304688 93.363281 10.882812 94.519531 10.148438 L 94.308594 9.726562 C 93.46875 10.148438 92.628906 10.566406 91.683594 10.882812 C 90.632812 11.304688 89.375 11.511719 88.21875 11.828125 L 88.429688 12.246094 C 89.898438 12.144531 90.84375 12.144531 91.054688 12.457031 C 91.160156 12.773438 91.160156 13.195312 91.160156 13.71875 C 91.261719 17.394531 91.054688 22.121094 90.84375 26.949219 C 88.320312 24.429688 81.179688 16.660156 80.972656 16.027344 C 80.867188 15.714844 81.078125 15.503906 82.335938 14.664062 L 83.28125 13.929688 L 83.175781 13.507812 C 81.917969 14.140625 80.65625 14.664062 79.394531 15.082031 C 78.03125 15.609375 76.667969 15.925781 75.195312 16.238281 L 75.40625 16.660156 Z M 67.109375 22.121094 C 67.738281 22.015625 67.949219 22.226562 69.316406 24.746094 C 70.261719 26.320312 71.203125 28 72.152344 29.683594 C 72.992188 31.257812 73.832031 32.9375 74.671875 34.617188 C 75.828125 36.714844 75.828125 36.925781 75.195312 37.453125 L 73.410156 39.34375 L 73.621094 39.65625 C 74.878906 38.921875 76.457031 37.976562 77.820312 37.242188 C 79.082031 36.613281 80.761719 35.878906 82.128906 35.351562 L 81.917969 34.933594 L 79.292969 35.351562 C 78.554688 35.457031 78.347656 35.457031 77.191406 33.355469 C 76.246094 31.675781 75.300781 30.101562 74.460938 28.421875 C 73.515625 26.742188 72.675781 25.0625 71.835938 23.484375 C 70.574219 20.859375 70.46875 20.648438 70.890625 20.230469 L 72.78125 18.234375 L 72.570312 17.816406 C 71.308594 18.65625 69.945312 19.496094 68.582031 20.230469 C 67.003906 20.964844 65.535156 21.59375 64.167969 22.226562 L 64.378906 22.539062 Z M 29.199219 54.152344 C 30.039062 53.730469 30.5625 54.046875 32.558594 55.726562 L 39.277344 61.398438 C 42.851562 64.441406 46.527344 63.390625 49.464844 60.03125 C 52.511719 56.566406 52.828125 52.890625 48.207031 48.898438 C 44.007812 45.222656 42.011719 43.648438 40.75 42.492188 C 40.226562 42.074219 40.332031 41.550781 40.644531 40.707031 L 41.066406 39.34375 L 40.75 39.027344 C 40.015625 40.078125 39.382812 41.023438 38.542969 41.96875 C 37.597656 42.914062 36.65625 43.859375 35.707031 44.804688 L 36.023438 45.117188 L 37.597656 44.171875 C 38.335938 43.648438 38.859375 43.542969 39.277344 43.859375 C 41.066406 45.015625 44.949219 48.269531 47.890625 50.683594 C 50.726562 53.097656 50.9375 55.933594 48.730469 58.351562 C 45.476562 62.132812 42.851562 61.082031 39.804688 58.457031 C 36.128906 55.304688 34.132812 53.625 32.769531 52.363281 C 32.03125 51.628906 32.03125 51.316406 32.664062 49.636719 L 33.1875 48.164062 L 32.875 47.953125 C 31.929688 49.214844 30.878906 50.578125 29.828125 51.734375 C 28.882812 52.890625 27.832031 53.835938 26.679688 54.992188 L 26.992188 55.199219 Z M 47.261719 35.667969 L 47.890625 35.878906 L 51.671875 40.8125 C 54.085938 43.964844 56.714844 47.742188 57.238281 48.582031 C 57.449219 48.792969 57.34375 49.214844 57.132812 49.636719 L 55.660156 51.734375 L 55.976562 52.050781 C 57.027344 51.210938 57.972656 50.367188 59.023438 49.527344 C 60.179688 48.6875 61.332031 47.953125 62.59375 47.21875 L 62.277344 46.902344 L 60.28125 47.640625 C 59.339844 47.953125 59.023438 47.847656 58.601562 47.535156 C 58.183594 47.113281 54.402344 42.285156 51.882812 39.027344 L 49.78125 36.296875 L 49.886719 36.191406 L 60.179688 39.238281 C 63.644531 40.183594 67.109375 41.128906 70.46875 42.390625 L 71.101562 41.863281 C 68.894531 39.132812 66.6875 36.296875 65.953125 35.246094 C 64.800781 33.882812 61.648438 29.261719 60.179688 27.265625 C 59.863281 26.742188 59.96875 26.320312 60.390625 25.796875 L 61.648438 23.90625 L 61.230469 23.484375 C 60.179688 24.429688 59.128906 25.375 57.972656 26.214844 C 56.921875 26.949219 55.769531 27.582031 54.71875 28.316406 L 54.929688 28.628906 L 57.132812 28.105469 C 58.078125 27.789062 58.394531 27.894531 59.023438 28.527344 C 60.074219 29.683594 61.019531 30.835938 61.859375 32.097656 L 66.480469 38.082031 L 52.089844 33.988281 C 50.9375 33.671875 49.78125 33.253906 48.625 32.726562 C 47.996094 33.355469 47.261719 33.988281 46.527344 34.617188 C 45.6875 35.140625 44.847656 35.667969 43.902344 36.191406 L 44.214844 36.507812 C 45.160156 36.191406 46.210938 35.878906 47.261719 35.667969 M 232.300781 100.460938 C 230.515625 100.777344 228.628906 101.199219 226.738281 101.515625 C 223.902344 102.140625 223.585938 102.140625 223.269531 101.617188 L 221.800781 99.308594 L 221.378906 99.414062 C 221.90625 100.882812 222.328125 102.355469 222.640625 103.824219 C 223.0625 105.503906 223.269531 106.976562 223.480469 108.445312 L 223.902344 108.339844 L 224.214844 105.714844 C 224.320312 105.085938 224.53125 104.976562 227.367188 104.242188 C 229.257812 103.824219 231.042969 103.402344 232.933594 102.984375 C 234.824219 102.5625 236.710938 102.140625 238.496094 101.828125 C 240.914062 101.300781 241.019531 101.40625 241.441406 102.039062 L 242.804688 104.242188 L 243.222656 104.136719 C 242.804688 102.773438 242.28125 101.09375 241.964844 99.519531 C 241.648438 98.257812 241.332031 96.472656 241.125 95.003906 L 240.703125 95.109375 L 240.492188 97.625 C 240.386719 98.464844 240.285156 98.574219 237.867188 99.097656 C 236.082031 99.519531 234.191406 100.042969 232.300781 100.460938 M 239.023438 121.46875 L 239.023438 121.886719 L 244.167969 122.199219 C 244.800781 120.417969 244.902344 119.15625 244.902344 117.582031 C 244.695312 111.59375 241.441406 109.597656 238.707031 109.703125 C 232.195312 110.019531 233.773438 119.578125 228.835938 119.785156 C 226.738281 119.785156 225.160156 118.105469 225.054688 116.109375 C 225.054688 115.0625 225.160156 114.117188 225.582031 113.066406 L 228.941406 111.699219 L 228.941406 111.386719 L 224.636719 111.277344 C 224.109375 112.644531 223.796875 114.640625 223.796875 115.902344 C 223.902344 119.261719 225.894531 122.621094 229.675781 122.515625 C 235.664062 122.308594 234.925781 112.644531 239.445312 112.539062 C 242.28125 112.433594 243.539062 114.640625 243.644531 117.054688 C 243.644531 117.898438 243.539062 119.261719 243.015625 120.207031 Z M 239.023438 121.46875 "/>
</g>
</svg>
