<svg height="106.3125pt" viewBox="0 0 478.24281 106.3125" width="478.24283pt" xmlns="http://www.w3.org/2000/svg"><g fill="#231f20"><path d="m285.88747 44.1445c1.52735 0 1.88672.3438 1.88672 1.7579v12.3125c0 1.4179-.54297 1.7695-1.41797 1.7695h-21.46484c-1.09375 0-1.41797-.5703-1.41797-1.4961v-12.7891c0-1.1914.15625-1.5547 1.52344-1.5547zm-7.0664-14.3554c0-.8516.40625-1.2188 1.01953-1.2188h19.63672c1.39062 0 1.8789-.3242 2.0664-.8125.2461-.6328.10547-1.25-2.83593-3.8906-2.62891-2.3633-2.78516-2.3711-3.32032-2.3711-.45312 0-.625.082-2.14843 2.4844-1.41407 2.2383-1.55079 2.4297-2.69922 2.4297h-10.71485c-.6289 0-1.02343-.5352-1.02343-1.2149v-6.6914c0-.4101.043-.5859.24218-.7539 1.72657-1.4766 2.02735-2.1914 1.9336-2.6406-.11328-.5156-.25391-.7695-1.5625-.9805-2.45313-.3828-4.58594-.625-6.41797-.8164-1.00391-.1055-1.17969.1445-1.08985 1 .14844 1.5274.28125 2.4609.28125 6.5039v4.3555c0 .8515-.38281 1.2383-1.10546 1.2383h-12.50782c-3.25 0-4.53125-.1289-7.3789-.4922-1.10157-.1406-1.25-.1328-1.32032-.043-.13281.168-.14062.3164.55469 1.4609.72656 1.2032.8711 1.2891 1.98828 1.2774 1.89063-.016 3.69532-.043 6.15625-.043h12.5c.71094 0 1.10157.5352 1.10157 1.1914v10.6407c0 1.3359-.23047 1.6015-1.34766 1.6015h-5.03906c-1.67578 0-2.3086-.4531-4.5625-1.6289-1.71094-.8945-4.12891-1.9297-4.48828-1.7148-.53907.3242.16796 1.5898.16796 6.1132v19.2422c0 2.4805.33985 2.7735 3.58204 2.2305 2.69921-.4531 2.95703-1.0352 2.95703-2.2773v-.1914c0-.961.28515-1.6446 1.32422-1.6446h21.38281c1.35937 0 1.59375.4024 1.59375 1.2617v1.3047c0 1.7227.33984 2.0039 3.38672 1.5664 2.98437-.4336 3.25781-.9297 3.25781-3.0976v-16.336c0-1.0039.0664-1.2031.73828-1.6484 1.14844-.7539 1.45313-1.2031 1.45313-1.7266 0-.6289-.45704-1.3671-2.64454-3.2773-2.36718-2.0703-2.78515-2.3633-3.3789-2.3633-.66406 0-.98047.4375-2.41016 2.457-1.04297 1.4805-1.19531 1.7266-2.47656 1.7266h-5.52344c-1.12109 0-1.32812-.2383-1.32812-1.4219zm43.18359 32.7617c-3.24609 0-4.52734-.1289-7.375-.4922-1.10156-.1406-1.25-.1367-1.31641-.047-.13281.1719-.14453.3203.55079 1.4649.73046 1.2031.87109 1.2851 1.99218 1.2773 1.88672-.02 3.6875-.043 6.14844-.043h34.29688c1.39453 0 1.8789-.3242 2.0664-.8125.25-.6328.10938-1.2343-2.83594-3.6601-2.6289-2.168-2.78125-2.1758-3.3125-2.1758-.46093 0-.63281.074-2.15234 2.2813-1.41406 2.0546-1.55469 2.207-2.70312 2.207h-7.75391c-.51172 0-.81641-.2969-.81641-.8086v-5.668c0-.3945.23047-.7968.81641-.7968h14.02344c1.39843 0 1.8789-.293 2.0664-.7383.2461-.5782.10938-1.1446-2.83593-3.5547-2.63282-2.1602-2.78516-2.1641-3.31641-2.1641-.46094 0-.61719.082-2.15234 2.2656-1.38672 1.9766-1.55079 2.0313-2.69922 2.0313h-5.08594c-.51172 0-.81641-.2422-.81641-.7188v-1.1875c0-.3789.0391-.539.22657-.6992 1.59375-1.3672 1.78515-1.9336 1.78515-2.4414s-.22656-.7148-1.44922-.9062c-2.26562-.3555-4.23828-.5782-5.93359-.7578-.92969-.098-1.09375.1367-1.00781.9257.125 1.2696.2539 4.586.2539 5.0352s-.16797.75-.86718.75h-4.8125c-3.25 0-4.52735-.1289-7.375-.4922-1.10157-.1406-1.25-.1328-1.32032-.043-.13281.168-.14453.3164.55078 1.461.73047 1.1992.8711 1.2851 1.9961 1.2773 1.88672-.019 3.6914-.043 6.14844-.043h4.8125c.53515 0 .87109.375.87109.7695v5.6719c0 .5351-.22656.832-.87109.832zm-2.88281-42.1914c0-.7656-.14063-1.4375 1.19922-1.4375h26.98437c1.01172 0 1.34375.289 1.34375 1.4375v3.5703c0 .8633-.42969 1.3516-1.46875 1.3516h-26.84375c-.99219 0-1.21484-.4883-1.21484-1.6524zm1.34765 12.293c-1.27343 0-1.34765-.375-1.34765-1.5352v-2.1719c0-.9336.26172-1.5 1.21484-1.5h27.17578c1.05078 0 1.14844.066 1.14844.4414 0 .4453.57031 1.1367 1.48828 1.4102.51172.1367.52735.2812.375.4648-.15234.1836-.32812.3633-.95703 1.1328-1.39062 1.6875-1.76953 1.7579-2.91797 1.7579zm6.89844 2.1562c.78125 0 .89453.2109.73438.9727-.38672 1.6718-.82032 3.1718-1.51953 5.1367-.19922.5586-.50782.7226-.95704.7226-1.16796.012-1.65625.02-2.89453.027-1.1289.01-2.52734-.1328-2.73828-.027-.27734.125-.27734.5743.71875 4.1524.90235 3.2265 1.09375 3.4492 1.76563 3.4804.44922.02.77734-.3593 1.15234-1.0859.39063-.7656.43359-1.0117 1.45313-1.1641 7.90234-1.1875 14.65234-2.4609 21.37109-4.3085.39062-.1446.66797-.024.85937.371.27344.5782.48438 1.1797.80079 1.9571.59765 1.4375 1.6875 2.457 3.33593 2.457 1.80078 0 3.14844-1.1211 3.14844-3.7422 0-2.582-2.75391-6.0078-11.64453-7.4101-1.27734-.1953-1.48828-.1836-1.65625.055-.16016.2265.0859.5234.48828.8632 1.67969 1.4024 2.82031 2.4336 3.62109 3.2539.20704.2852.23047.4805-.16015.5352-6.01172.375-9.53516.4648-14.79688.543-.47265.023-.58593-.2344-.19922-.6563 1.60157-1.7148 3.21094-3.6719 4.50782-5.2656.55468-.6836.85937-.8672 1.61718-.8672h18.7461c2.10156 0 2.45312-.3047 2.63672-.8633.19922-.6094.23047-1.1719-2.72657-3.1367-1.09765-.7344-1.71484-1.1055-2.02343-1.2812-.30469-.1836-.3125-.3594.10156-.4688 1.91406-.4961 2.16406-1.0703 2.16406-2.4531v-4.8985c0-1.3476.0508-1.4961.76172-2.0273.79297-.5938.95703-1.0742.95703-1.5273 0-.8633-.26562-.9805-2.88672-3.0118-2.20703-1.7148-2.66797-1.914-3.25-1.914-.57422 0-.71875.1836-1.82031 1.4258-1.76562 2-1.86328 2.3476-2.73047 2.3476h-24.64062c-1.63282 0-1.8086-.5547-5.62891-2.2734-2.875-1.293-3.36719-1.3907-3.66797-1.1953-.25781.1601-.35156.2148-.25781.9257.17578 1.2891.57422 3.25.57422 5.3321v12c0 12.9609-1.82031 22.7539-5.47266 32.3554-.3789 1.0079-.76562 1.5391-.48047 1.7305.28907.1914.87891-.1797 1.73047-1.1523 7.33203-8.3946 10.19141-16.9493 10.60547-28.9571.0195-.6836.31641-.957 1.13672-.957zm90.37891 23.1094c-12.19922-5-19.17188-10.4141-22.96094-25.0235-.0742-.4843.0625-.6757.60938-.6757h20.25c1.39062 0 1.91796-.3516 2.1289-.8985.27735-.7109.11719-1.4023-3.17187-4.3554-2.94141-2.6407-3.11719-2.6485-3.71094-2.6485-.50781 0-.70703.09-2.40625 2.7735-1.58594 2.5078-1.79688 2.9687-2.94141 2.9687h-11.3164c-.48438 0-.76953-.1992-.71875-.6641.30468-3.1601.34765-6.4765.34765-9.5117 0-1.1015.14063-1 1.35157-2.2969.85546-.9218.91796-1.2226.91796-1.7187 0-.4609-.27734-.7344-4.26171-1.3477-3.75782-.5781-4.10157-.5078-4.38672-.5195-.70313-.035-1.01172.1211-.85938 1.8047.13672 1.4727.21875 4.2266.21875 7.0703 0 2.2656-.0742 4.418-.22265 6.4766-.0391.5-.34375.707-.82813.707h-11.05859c-3.2461 0-4.52735-.1289-7.375-.4922-1.10547-.1406-1.25391-.1328-1.32032-.043-.13281.168-.14453.3204.55079 1.461.73437 1.2031.875 1.2851 1.99218 1.2773 1.88672-.016 3.69141-.043 6.15235-.043h10.83984c.54688 0 .75.2421.67969.8164-1.8086 14.1953-7.91406 23.6914-19.86328 31.1093-1.06641.6602-1.44922 1.0391-1.22657 1.4805.1875.375.71094.3516 1.60157 0 18.92968-7.5742 23.84375-18.082 26.23437-30.918.0703-.3672.51953-.4843.61719.1211 2.01953 12.4024 6.47266 21.9727 17.59375 30.7774.56641.4453 1.57031.5351 1.72656-.7422.16406-1.3516.72656-2.7813 4.9375-5.711.83203-.582.64844-.914-.12109-1.2304m37.08594-8.9961c0-.3945.16796-.5977.59375-.5977h20.66406c1.39844 0 1.8789-.3242 2.07031-.8086.24609-.6367.10547-1.2539-2.83984-3.8945-2.625-2.3633-2.78516-2.3711-3.3125-2.3711-.45703 0-.63282.078-2.15235 2.4883-1.41406 2.2383-1.55468 2.4297-2.70312 2.4297h-11.72656c-.42188 0-.59375-.2227-.59375-.5742v-1.5469c0-.3242.043-.4649.25-.6016 1.79296-1.1719 2.01171-2.1679 2.01171-2.6015 0-.1485-.0352-.2657-.13281-.3594-.16015-.1016-.16015-.1953.0391-.2617 3.2461-1.2969 5.12891-2.1602 7.66407-3.5039 1.05859-.5625 1.26172-.6758 2.21484-.5625 1.23828.1562 1.9375-.062 2.14453-.5899.15235-.3906-.0547-.7305-.90234-1.664-.35938-.3672-.35938-.4844-.082-.6641 2.21875-1.2656 2.89453-1.7774 5.14062-3.1992 1.01563-.6485 1.4961-.8789 2.56641-.8555 1.07812.02 1.5625-.078 1.80469-.7187.23828-.6329.0547-1.3829-3.375-4.1524-2.32422-1.8906-3.14063-2.3555-3.60157-2.3555-.41015 0-.60937.078-1.90625 1.9883-1.22265 1.8086-1.55078 1.9024-2.69922 1.9024h-5.30078c-.48047 0-.4375-.1446.14453-.5743 3.00391-2.2031 4.91797-3.746 7.01172-5.625.73438-.6562 1.04688-.5859 1.66016-.6875 1.38281-.2226 1.73828-.3906 1.85547-1.0703.16406-.9882-.72656-1.5742-3.88281-2.6054-2.64063-.8633-3.14454-.9063-4.0586-1.1485-.91015-.2461-1.44922-.1367-1.75781.7266-1.125 3.1797-2.42969 6.957-3.94141 10.2109-.30468.6367-.44531.7735-.99218.7735h-21.77344c-.5625 0-.80078-.1055-.90235-.5391-.20312-.8711-.48046-1.7578-.85156-2.6367-.27344-.6406-.46094-.9766-.71875-.9766-.40625 0-.55469.3672-.6914.875-1.77344 6.5703-3.39063 5.5235-4.99219 7.918-.87891 1.3164-1.11328 2.75-.23047 4.25.91797 1.5742 3.74609 2.3672 5.80859.7383 1.0586-.8321 2.05078-3.4024 2.06641-6.5938 0-.7109.17578-.8789.69531-.8789h32.46485c.55078 0 .5039.1445.41406.457-.39844 1.3829-.64453 2.0196-1.28516 3.375-.19922.3633-.38281.3907-.85547.023-.14062-.1055-.27734-.207-.42187-.3164-2.22266-1.6719-3.1211-2.1211-3.56641-2.1211-.38281 0-.66797.059-2.12109 1.793-1.28516 1.539-1.61328 1.7421-2.76172 1.7421h-9.76563c-5.11328 0-6.66406-.098-10.09765-.6406-.90625-.1406-1.04688-.1406-1.15625-.043-.16016.1485-.16016.3516.73437 1.8125.82813 1.3555 1.10547 1.4454 2.22657 1.375 3.6914-.2265 4.45312-.3437 7.57031-.3437h10.33203c1.28125 0 1.32031.1836 1.14453.4531-1.07422 1.6367-1.51953 2.1836-3.09766 4.043-.23828.2734-.38281.3164-.61718.2812-2.2461-.3046-3.98828-.4726-5.46485-.6054-1.04297-.1016-1.22265.1406-1.13281.9961.14063 1.3515.23828 3.5625.28516 5.2929.0117.3789-.14063.5899-.5625.5899h-12.48438c-3.24609 0-5.30469-.2344-8.23047-.6797-1.09765-.1641-1.25-.1328-1.32031-.047-.12891.1719-.16406.3867.55078 1.6485.69922 1.2226.92969 1.3359 2.04688 1.3242 1.89062-.016 3.63672-.09 6.09765-.09h13.33985c.37109 0 .57031.2188.57031.6211v8.6094c0 .6914-.38281.918-1.11719.8828-3.51172-.1719-5.38281-.2461-8.67578-.4453-.625-.039-.92969.027-.95703.2969-.0312.2187.20312.4336.84766.5937 4.60937 1.1602 6.78515 2.4649 7.33203 6.293.14843 1.043.60937 1.3359 1.71093 1.1875 6.5-.8438 7.73829-1.9258 7.73829-6.4024zm-219.42579 9.5664c0 1.4141-.54296 1.5-1.41406 1.5h-18.5c-1.08594 0-1.41797-.5469-1.41797-1.4688v-11.7265c0-1.1914.28907-1.5547 1.24219-1.5547h18.55859c1.29297 0 1.53125.1367 1.53125 1.5547zm-25.89062-30.6602c-.21094-.055-.31641-.125-.0117-.3906 1.625-1.4297 2.74609-2.5195 3.99609-3.7969.53516-.539.83204-.6836 1.57813-.6836h11.56641c.99609 0 1.92578-.164.99609 1.0743-2.55078 3.3984-4.68359 5.7148-9.71094 10.664-.12109.1211-.27734.1367-.26172-.074.0156-.1445.0352-.2734.0352-.3906 0-1.9219-2.56641-4.9219-8.1875-6.4024m32.21484 13.3594c-2.85547-2.3867-3.39062-2.4531-4.13281-2.4531-.53125 0-.71875.293-2.35547 2.5234-1.16406 1.5781-1.35156 1.8047-2.375 1.8047h-15.57422c-.84375 0-.8789-.2109-.3125-.6484 8.42188-6.4649 11.7461-9.8828 16.51953-14.9141.64063-.6797 1.06641-1.0117 2.4336-1.5117 1.53906-.5625 1.76562-.8203 1.94922-1.3164.20312-.5352.0742-1.6055-2.8086-4.1953-3.22656-2.9024-3.72656-3.0821-4.17578-3.0821-.38672 0-.77734.3438-2.23047 2.0547-1.01562 1.2032-1.41406 1.336-2.33984 1.336h-9.27344c-.72656 0-.8125-.1797-.47265-.5821.39843-.4687.92968-1.2031 1.44531-1.664.70312-.6289.86719-.5938 1.92969-.7149.75781-.086 1.19531-.4258 1.28515-.9297.10156-.5625-.30078-1.2421-4.14062-2.6406-3.80078-1.3828-4.28907-1.2773-4.57032-.9297-.36718.4532-.5 1.3828-1.15234 2.5235-3.95703 6.9492-9.19531 13.3593-17.09766 20.3906-.55859.4961-.60546.8476-.51562 1.0039.11719.2148.52344.25 1.10156-.039 5.51953-2.7617 8.90625-5.0547 12.42188-7.8789.29687-.2383.41015-.1797.60547.1094 2.48437 3.7813 2.5 4.3125 3.25781 6.6328.44531 1.3828 1.1289 1.9922 2.62109 2.1133.29688.023.25391.25.10547.375-5.62109 4.8008-12.46484 9.2969-20.87109 13.3828-1.03125.5039-1.13282.5586-1.0586.918.0703.3554.45703.4375 1.51172.1484 4.65625-1.2617 8.9375-2.6992 12.9375-4.2695.86328-.3399 1.10938-.4414 1.10938.5976v14.543c0 2.6641.33984 2.9141 3.57812 2.3711 2.61328-.4375 3-1.0898 3-2.2812v-.1875c0-.961.2461-1.6329 1.28516-1.6329h18.48437c1.35938 0 1.54297.3907 1.54297 1.25v1.0196c0 2.1093.42578 2.3086 3.6211 1.8164 2.92187-.4492 3.0039-1.1485 3.0039-3.336v-15.2617c0-.7851.0859-1.0508.69531-1.582 1.20313-1.0469 1.35157-1.3008 1.35157-1.7109 0-.5782-.20313-1.3594-2.33985-3.1524m195.5-18.3398c.44141 1.3554 1.32032 2.2382 2.87891 2.2382 1.625 0 3.39062-1.3828 3.39062-3.8632 0-2.0352-2.23828-5.6289-8.84765-6.9453-.94141-.1915-1.11719-.1641-1.24219.062-.12109.2148.0977.4453.36328.8164 3.28516 4.6093 2.65235 5.2187 3.45703 7.6914m11.47266-.6133c.44922 1.3828 1.34766 2.2812 2.94141 2.2812 1.65625 0 3.45703-1.4062 3.45703-3.9414 0-2.0742-2.28516-5.7422-9.02344-7.0898-.96875-.1914-1.14453-.1641-1.27344.062-.12109.2265.10156.457.3711.8359 3.35156 4.7031 2.70312 5.3281 3.52734 7.8516"/><path d="m322.55544 87.25c0 3.6484 1.64063 5.8438 5.16406 5.8438 3.53516 0 5.42579-1.8321 5.42579-5.4493v-8.4961c0-2.5625.16796-3.0742-1.70313-3.1328-.33203 0-.84375-.016-.84375-.6015 0-.5157.39453-.668.75781-.668.75391 0 1.71485.1523 2.67578.1523.875 0 1.78125-.1523 2.44532-.1523.26953 0 .72265.039.72265.625 0 .5898-.60156.6133-1.02343.6719-1.59766.062-1.4336.9922-1.49219 2.5898v8.9844c0 3.6992-1.60547 6.9727-7.65235 6.9727-6.33593 0-7.82421-3.0782-7.82421-7.1836v-8.8008c0-2.2305-.0274-2.5625-1.8086-2.5899-.35937 0-.89844.024-.89844-.6015 0-.5508.32422-.668.62891-.668 1.05859 0 2.25781.1523 3.70313.1523 1.35937 0 2.80468-.1523 3.80078-.1523.30078 0 .66406.1172.66406.668 0 .625-.57422.6015-.92969.6015-1.8125 0-1.8125.3594-1.8125 3zm0 0"/><path d="m388.53982 80.9649c0-1.8321 0-2.1563-1.50782-2.1836-.32812 0-.75.023-.75-.4649 0-.4609.27344-.5898.52344-.5898.70313 0 3.69531.1289 4.375.1289 1.20703 0 5.55469-.098 6.73828-.098.48047 0 .5.1641.5 1.1446 0 1.0117-.0195 1.4609-.0195 2.2421 0 .3282-.0312.6797-.38281.6797-.19922 0-.375-.1562-.5-.4062-.15234-.25-.27734-.5508-.42969-.8281-.625-1.2813-.78515-1.7071-3.57422-1.7071-1.20703 0-1.68359.02-1.93359.1992-.25.1797-.25.4766-.25 1.0079v3.0546c0 1.2579.21484 1.4375 1.21875 1.4375 2.58984 0 2.98047.1289 3.20312-1.4453.10157-.5508.17579-.664.73047-.664.39063 0 .52344.332.52344.6054 0 .6563-.0977 1.3047-.0977 1.9805 0 .7773.0977 1.5078.0977 2.2617 0 .4063-.13281.5781-.52344.5781-.52343 0-.60937-.625-.75781-1.1289-.27344-.9804-.80469-1.0781-3.21484-1.0781-.95703 0-1.17969.02-1.17969.8516v4.0976c0 2.0547.87891 2.1328 2.83594 2.1328 2.16015 0 3.28906-.3007 4.12109-2.207.22656-.5312.375-.9844.78125-.9844.27734 0 .41016.1485.32422.9844-.0859.8516-.25391 1.543-.32422 2.6914-.0547.5508-.10156.5821-.40625.5821h-8.39062c-.72657 0-2.85547.1328-3.30469.1328-.50391 0-.6836-.168-.6836-.586 0-.3515.12891-.5117.75-.5117 1.50782 0 1.50782-.3516 1.50782-2.2344zm0 0"/><path d="m437.5281 90.7149c0 1.8593.0234 2.1835 1.60547 2.1835.30078 0 .67968.082.67968.5391 0 .457-.27734.5234-.52734.5234-.77734 0-1.55469-.1328-3.01953-.1328-1.47656 0-2.38281.1328-3.23438.1328-.2539 0-.52734-.066-.52734-.5234 0-.4844.37109-.5391.72656-.5391 1.50782 0 1.50782-.3046 1.50782-2.1835v-9.75c0-1.8829 0-2.1563-1.50782-2.1836-.30468 0-.72656.023-.72656-.5 0-.461.25-.5547.52734-.5547.82813 0 1.91016.1289 3.15625.1289 1.28516 0 2.26954-.1289 3.09766-.1289.25 0 .52734.094.52734.5547 0 .5234-.47656.5-.75781.5-1.5039.027-1.52734.3007-1.52734 2.1836zm0 0"/><path d="m363.32497 90.7149c0 1.8593.0234 2.1835 1.60938 2.1835.30078 0 .67969.082.67969.5391 0 .457-.28125.5234-.53516.5234-.76953 0-1.55469-.1328-3.01172-.1328-1.48437 0-2.38281.1328-3.23828.1328-.25 0-.53125-.066-.53125-.5234 0-.4844.37891-.5391.73437-.5391 1.50391 0 1.50391-.3046 1.50391-2.1835v-9.75c0-1.8829 0-2.1563-1.50391-2.1836-.30078 0-.73437.023-.73437-.5 0-.461.25-.5547.53125-.5547.82812 0 1.90625.1289 3.16406.1289 1.28516 0 2.25781-.1289 3.08594-.1289.25391 0 .53516.094.53516.5547 0 .5234-.48047.5-.75391.5-1.51172.027-1.53516.3007-1.53516 2.1836zm0 0"/><path d="m340.67654 80.8789c0-1.6094.14843-2.0703-1.33204-2.0703-.33203 0-.78125-.023-.78125-.5117 0-.5586.39844-.5938.8086-.5938.52344 0 1.32812.07 2.10547.07.65234 0 1.16797-.07 1.51562-.07.48047 0 .4961-.043 1.32422 1.0977 2.43359 3.3516 5.14063 7.2148 7.73438 10.5547.19531.2773.27734.2109.27734-.3164v-8.4492c0-1.7071.20312-1.7813-1.35547-1.8086-.27734 0-.70703-.062-.70703-.4844 0-.457.27734-.5938.55469-.5938.67968 0 1.40625.1368 2.26172.1368.75781 0 1.48437-.1368 2.11328-.1368.41797 0 .60156.1446.60156.5547 0 .4336-.20703.5742-.83203.5742-1.42969 0-1.29297.2891-1.29297 1.8243v12.8945c0 .4336-.0625.668-.58984.668-.65625 0-.95313-.2969-1.10547-.5508-.42578-.5313-6.64844-9.0196-9.60547-12.9219-.25781-.3477-.38672-.2578-.38672 0v10.1719c0 1.832.10547 1.957 1.60547 1.957.26953 0 .55078.094.55078.4805 0 .4922-.30078.5898-.57813.5898-.65234 0-1.53515-.1328-2.41015-.1328-.75781 0-1.50781.1328-2.14063.1328-.22265 0-.52734-.098-.52734-.5898 0-.3672.28125-.4805.80859-.4805.98438 0 1.38282-.1172 1.38282-1.9258zm0 0"/><path d="m406.41482 84.5703c0 .4258.26953.5547.70312.5547 3.25 0 4.32031-1.2305 4.32031-3.3437 0-1.5313-1.18359-3.0508-3.26953-3.0508-1.70703 0-1.7539.4961-1.7539 1.2617zm0 6.3438c0 1.6328.0195 1.9336 1.52734 1.9843.32422.027.65234.098.65234.5235 0 .457-.25.5234-.77343.5234-.83594 0-1.94141-.1328-2.76953-.1328-.90625 0-2.28516.1328-3.16016.1328-.23047 0-.53125-.066-.53125-.5234 0-.4883.40625-.5235.75781-.5235 1.50781 0 1.50781-.3046 1.50781-2.1835v-9.7227c0-1.9102 0-2.1836-1.50781-2.2109-.30078 0-.75781 0-.75781-.4844 0-.4922.27734-.5938.55469-.5938.75781 0 1.60156.1368 2.78906.1368 1.67969 0 3.05859-.1368 4.77344-.1368 2.76172 0 4.99609 1.6836 4.99609 4.1953 0 1.8399-1.26953 3.4415-3.41797 3.7774.61328.9258.97266 1.6914 1.31641 2.3398.65625 1.2774 1.01562 1.7891 1.70312 3.1016 1.125 2.1445 1.39453 2.4023 2.51953 2.7187.69532.1993 1.19141.4454 1.11719.7969-.0469.2461-.54687.375-2.20703.211-1.45312-.1524-2.84375-.711-3.69141-2.0196-.99609-1.539-1.79296-3.2187-2.57031-4.8828-.82812-1.6055-.62109-1.7461-2.25781-1.7461-.55078 0-.57031.168-.57031 1.0274zm0 0"/><path d="m429.52029 88.8789c0 2.7813-1.73047 5.2578-6.07032 5.2578-1.05468 0-2.92578-.2734-4.21093-.9531-.35547-.2031-.45313-.5977-.45313-1.0781 0-.7539.0273-1.7696.0508-2.4727.0234-.3242.0937-.7539.55078-.7539.50391 0 .57422 1.0039.75 1.7617.35547 1.5821 1.60938 2.5821 3.46485 2.5821 1.83203 0 3.35156-1.1758 3.35156-2.961 0-1.8359-1.07031-2.6211-3.96094-3.8672-2.58594-1.1211-4.04297-2.2421-4.04297-4.3984 0-3.1641 2.6211-4.6289 5.40235-4.6289 1.02734 0 2.48828.1523 3.64453.5273.44531.1719.44531.4297.44531.8789.0273.6524.0781 1.5157.10547 2.1641 0 .2813-.10547.5547-.45313.5547-.35156 0-.47656-.375-.60156-.6758-.45703-1.582-1.33203-2.5078-3.08984-2.5078-1.51563 0-2.94531.8008-2.94531 2.4375 0 1.957 2.36718 2.7344 4.27343 3.5391 1.78516.7734 3.78907 1.9843 3.78907 4.5703zm0 0"/><path d="m448.26638 79.7422c0-.6797-.12109-.7773-.54688-.7773-2.5664 0-3.34375.125-4.47265 1.9804-.25391.3789-.44922.8086-.82813.8086-.25781 0-.49609-.1601-.22656-1.0586.3125-1.0547.60547-2.0586.92578-3.0586.0742-.3047.21485-.5703.47266-.5703.17578 0 .2539.043.39844.2695.10937.168.23828.4102 1.21875.4102h9.3164c1.03125 0 1.40235-.047 1.5625-.2422.29688-.3594.44531-.4687.64453-.4687.25 0 .33594.2304.33203.5195-.004.1797-.10156 2.4648-.1289 3.4687 0 .3282-.0937.629-.47266.629-.2539 0-.375-.25-.48047-.5547-.55078-1.6563-.72656-2.1328-2.53515-2.1328h-1.50782c-.8789 0-.8789.074-.8789 1.1757v10.5743c0 1.9062 0 2.1835 1.58203 2.1835.30078 0 .70312.082.70312.5391 0 .457-.30468.5234-.52734.5234-.82812 0-1.71094-.1328-3.08984-.1328-1.08203 0-2.36719.1328-3.19532.1328-.21875 0-.52343-.066-.52343-.5234 0-.4844.40234-.5391.75781-.5391 1.5 0 1.5-.3046 1.5-2.1835zm0 0"/><path d="m374.72732 78.2461c0 .4258-.30469.5117-.60157.5352-.30078.027-1.13281.078-1.13281.5039 0 .3476.17969.7265.30078 1.0547l2.96875 7.1835c.34766.8282.76172 2.3946.88672 2.3946.10547 0 .67969-1.875 1.00781-2.711l2.76172-6.7812c.125-.3516.35547-.9024.35547-1.2539 0-.3555-.54297-.3633-1.22265-.3906-.29688-.024-.72266-.047-.72266-.4688 0-.4922.34766-.5898.64844-.5898.6289 0 1.43359.1328 2.18359.1328.67578 0 1.48828-.1328 2.08594-.1328.20312 0 .45703.1328.45703.5234 0 .4883-.37891.5352-1.00781.5859-.80469.051-1.23438.9805-1.8086 2.4414-1.60547 3.9415-3.21875 8.2305-4.82422 12.2032-.125.3515-.2539.75-.72656.75-.55469 0-.65234-.2735-.82422-.75-1.71484-4.1992-3.44922-8.7422-5.18359-12.9375-.35156-.8516-.625-1.6563-1.50781-1.7071-.64844-.051-1.02735-.098-1.02735-.5507 0-.5235.40235-.5586.65235-.5586.70312 0 2.0625.1328 3.0664.1328.82422 0 2.10938-.1328 2.66407-.1328.30468 0 .55078.035.55078.4882zm0 0"/><path d="m465.93044 87.9258c0-1.0078-.125-1.207-.67578-2.0352-1.10937-1.707-1.76953-2.7695-3.72266-5.6601-.87109-1.2852-1.02734-1.3985-2.28125-1.4219-.3789-.027-.67968-.039-.67968-.5273 0-.461.32812-.5547.625-.5547.73437 0 1.38281.1289 2.78906.1289s2.66406-.1289 3.69531-.1289c.19922 0 .52344.094.52344.4843 0 .5586-.375.5704-.84766.5704-.40625.027-.98047.051-.98047.5273 0 .2773.10938.4922 1.66016 2.8906 1.82813 2.8203 1.83984 2.9883 2.06641 2.9883.19922 0 .35156-.4219 2.1289-3.1133 1.37891-2.0898 1.64063-2.1484 1.64063-2.6992 0-.4531-.41406-.5937-1.06641-.5937-.29687 0-.70312-.047-.70312-.4336 0-.5274.375-.6211.74609-.6211.66016 0 1.4375.1289 2.29297.1289.875 0 1.57812-.1289 2.25781-.1289.52735 0 .63281.1289.63281.5547 0 .3476-.16796.4531-.88671.5273-1.29688.1328-2.23047 1.6328-2.85938 2.5391-1.03125 1.6093-2.01172 3.0625-3.06641 4.6679-.52734.8321-.60156 1.0039-.57421 2.0821v2.7656c0 1.7109 0 2.0351 1.58203 2.0351.29687 0 .70312.07.70312.5235 0 .457-.30078.5234-.53125.5234-.8789 0-2.20703-.1328-3.05859-.1328-.88281 0-2.26563.1328-3.14063.1328-.23047 0-.53125-.066-.53125-.5234 0-.4883.40235-.5235.75391-.5235 1.45703 0 1.50781-.2773 1.50781-1.9843zm0 0"/><path d="m199.58279 78.2891c0-1.9297.17578-2.4883-1.60547-2.4883-.38672 0-.92578-.02-.92578-.6094 0-.668.47656-.707.95703-.707.63672 0 1.60156.078 2.53515.078.78125 0 1.40235-.078 1.82422-.078.57422 0 .58985-.055 1.58203 1.3086 2.92188 4.0273 6.16797 8.6562 9.27735 12.6679.23828.3321.33593.254.33593-.375v-10.1445c0-2.0508.2461-2.1406-1.625-2.168-.33203 0-.85156-.074-.85156-.582 0-.5508.33985-.707.67188-.707.8125 0 1.68359.1562 2.70703.1562.91015 0 1.78125-.1562 2.53515-.1562.50391 0 .71875.164.71875.6601 0 .5196-.23828.6875-.98828.6875-1.72265 0-1.55468.3516-1.55468 2.1836v15.4844c0 .5117-.082.7969-.71094.7969-.78906 0-1.14063-.3633-1.32422-.6641-.51172-.6328-7.97656-10.8242-11.52344-15.5078-.32031-.4101-.46484-.3047-.46484 0v12.2109c0 2.2032.125 2.3477 1.92187 2.3477.33594 0 .66016.1094.66016.5781 0 .586-.35938.7071-.69141.7071-.78125 0-1.83593-.1602-2.89062-.1602-.90235 0-1.8086.1602-2.5625.1602-.27344 0-.63281-.1211-.63281-.7071 0-.4414.32812-.5781.96093-.5781 1.1875 0 1.66407-.1406 1.66407-2.3125zm0 0"/><path d="m300.35622 87.0117c.28516 0 .4375-.066.29297-.4453-.65625-1.7226-1.1914-3.1445-1.8125-4.7226-.1875-.4805-.33594-.5039-.50781-.027-.69531 1.9024-1.30859 3.7149-1.69922 4.7695-.11719.3165-.0117.4258.44141.4258zm-3.71875 1.2305c-.55859 0-.67968.016-.95703.7812-.78125 2.2188-.86328 2.4766-.86328 2.918 0 .8555.92188.9063 1.44922.957.30469.027.63672.1094.63672.5665 0 .496-.40235.496-.66016.496-.40625 0-1.59765-.1328-2.15234-.1328-.58594 0-2.1836.1328-2.58985.1328-.23046 0-.55468-.066-.55468-.496 0-.418.16406-.5118.78125-.5899 1.09375-.1328 1.24218-.2148 2.03125-2.2695 1.45703-3.7852 2.82422-7.6055 4.27343-11.418.72266-1.9062.80079-2.0547 1.45704-2.0547.4375 0 .55468.031.80859.6524 1.92578 4.7265 3.85156 9.4843 5.32812 13.1211.33985.8515.8086 1.9921 1.875 2.0195.25 0 .73047.047.73047.5781 0 .3906-.32422.457-.5039.457-1.01563 0-2.3086-.1328-3.55078-.1328-.85938 0-2.19532.1328-3.07813.1328-.18359 0-.65234-.098-.65234-.457 0-.4922.34765-.6055.70312-.6055 1.33203 0 1.60938-.2226 1.60938-.6796 0-.3477-.10157-.4961-.94532-2.7383-.44921-1.1953-.64843-1.2383-1.19921-1.2383zm0 0"/><path d="m228.31325 87.0117c.27344 0 .42969-.066.28125-.4453-.64843-1.7226-1.18359-3.1445-1.80859-4.7226-.1875-.4805-.33203-.5039-.50781-.027-.69531 1.9024-1.3086 3.7149-1.70313 4.7695-.10937.3165-.004.4258.44532.4258zm-3.72265 1.2305c-.5586 0-.6836.016-.95703.7812-.78907 2.2188-.8711 2.4766-.8711 2.918 0 .8555.92188.9063 1.45313.957.30859.027.63672.1094.63672.5665 0 .496-.40625.496-.66016.496-.41016 0-1.59766-.1328-2.15625-.1328-.58203 0-2.17969.1328-2.58594.1328-.22656 0-.55468-.066-.55468-.496 0-.418.16406-.5118.78515-.5899 1.08985-.1328 1.23828-.2148 2.02735-2.2695 1.45703-3.7852 2.82421-7.6055 4.27343-11.418.72266-1.9062.80078-2.0547 1.45703-2.0547.4375 0 .55469.031.8125.6524 1.92188 4.7265 3.84766 9.4843 5.32032 13.1211.34375.8515.8164 1.9921 1.8789 2.0195.25782 0 .73438.047.73438.5781 0 .3906-.33203.457-.50391.457-1.01562 0-2.30859-.1328-3.55469-.1328-.85937 0-2.1914.1328-3.08203.1328-.17578 0-.64453-.098-.64453-.457 0-.4922.34375-.6055.69922-.6055 1.33203 0 1.60547-.2226 1.60547-.6796 0-.3477-.10156-.4961-.94141-2.7383-.44922-1.1953-.64843-1.2383-1.19922-1.2383zm0 0"/><path d="m252.76247 91.3516c0 .4883-.0703.7304-.54687 1.1211-1.4336 1.1797-3.4336 1.7109-5.47266 1.7109-6.39453 0-9.02734-3.7891-9.02734-8.1406 0-5.1992 3.51562-8.7188 9.69922-8.7188 1.36718 0 2.86328.2891 4.08203.8711.69531.3555.66797.9727.66797 1.6797.0273.6484.0508.7695.082 1.2617.0234.3282-.10547.6563-.52735.6563-.44921 0-.59765-.5274-1.14843-1.3477-.47266-.8203-1.39063-1.8906-3.64844-1.8906-4.83203 0-6.07813 4.5781-6.07813 7.1875 0 3.2852 1.7461 7.2148 6.29688 7.2148.79687 0 1.88672-.1289 2.48828-.5976.32422-.2539.42188-.4766.42188-1.4141v-2.5703c0-1.3867-.25-1.5898-1.71485-1.5898-.35156-.024-.69922-.059-.69922-.5078 0-.5469.47266-.5469.7461-.5469.87109 0 1.64453.1289 2.88672.1289 1.16796 0 2.14453-.125 2.91015-.1289.40235-.01.56641.062.59766.5156.0234.3711-.17578.4648-.9961.5664-.87109.074-1.01953.1992-1.01953 1.7305zm0 0"/><path d="m271.61404 86.0977c0-4.5274-2.41016-7.6758-5.82813-7.6758-3.42187 0-5.70312 2.664-5.70312 7.164 0 4.2188 2.21484 7.6211 5.92968 7.6211 3.08203 0 5.60157-2.6132 5.60157-7.0898zm-14.67579-.3321c0-4.1328 3.11719-8.3789 8.89454-8.3789 5.78125 0 8.92187 4.0742 8.92187 8.3789 0 4.8516-3.64062 8.5-8.87109 8.5-5.22657 0-8.94532-3.8047-8.94532-8.4765zm0 0"/><path d="m282.74294 87.9258c0-1-.125-1.2031-.67578-2.0352-1.10547-1.707-1.76953-2.7656-3.71875-5.6562-.875-1.2852-1.02734-1.3985-2.29297-1.4219-.37109-.027-.67578-.039-.67578-.5312 0-.4532.33203-.5547.62891-.5547.73047 0 1.38281.1289 2.78906.1289 1.41016 0 2.66797-.1289 3.69531-.1289.19922 0 .52735.1015.52735.4883 0 .5585-.375.5703-.85157.5703-.40625.027-.98437.051-.98437.5312 0 .2774.11328.4883 1.66015 2.8828 1.83594 2.8282 1.83985 2.9883 2.06641 2.9883.20313 0 .35938-.418 2.13672-3.1133 1.375-2.0898 1.63281-2.1406 1.63281-2.6992 0-.4492-.41015-.5898-1.0625-.5898-.30469 0-.70312-.047-.70312-.4375 0-.5196.37109-.6211.7539-.6211.64844 0 1.42969.1289 2.28516.1289.88281 0 1.58594-.1289 2.26172-.1289.52344 0 .6289.1289.6289.5547 0 .3476-.16796.4531-.8789.5312-1.30078.1328-2.23828 1.6289-2.86719 2.5352-1.03125 1.6093-2.00781 3.0664-3.06641 4.6718-.52343.8282-.60156 1.0039-.57421 2.086v2.7617c0 1.707 0 2.0352 1.58203 2.0352.29687 0 .70312.07.70312.5195 0 .4609-.30078.5312-.52734.5312-.87891 0-2.20703-.1367-3.06641-.1367-.8789 0-2.26172.1367-3.14062.1367-.22657 0-.52735-.07-.52735-.5312 0-.4805.40235-.5195.75391-.5195 1.45703 0 1.50781-.2735 1.50781-1.9844zm0 0"/></g><path d="m175.19216 62.5078h-15.80078l9.90625-37.164h-68.66797c.80469-3.8164 1.15625-6.1954 1.16406-8.6172.0274-11.2071-7.300777-16.7266-18.035147-16.7266-6.74219 0-13.2461 2.1133-20.40235 6.6914-2.95703-4.207-7.85547-6.6562-14-6.6562-9.20703 0-20.097654 2.4297-49.03906034 45.0429-.507813.7461-.410156 1.0157.324218 1.0157l16.65625034.164c-2.382812 8.918-10.4218743 38.9688-10.4218743 38.9688h72.7578163c-.3711 2.2304-.51953 3.9492-.51953 5.4258.0391 10.4921 7.02343 15.6601 17.14453 15.6601 6.406247 0 12.453117-1.9609 19.449217-6.3281 2.80859 3.9961 7.39453 6.293 13.23046 6.293 10.76563 0 20.61719-5.2188 46.69141-42.9258.38672-.5625.28516-.836-.4375-.8438" fill="#fff"/><g fill="#00674c"><path d="m128.93825 101.1914c-5.80078 0-9.89453-2.7109-11.02343-8.7383-7.97266 5.8594-14.58594 8.7735-21.656247 8.7735-9.0625 0-14.57032-5.6797-11.36328-17.836l14.34375-53.1836h28.464837l-2.16016 8.0547h6.92188l2.14453-7.8008h28.02734l-9.96093 37.0391h14.04296c-19.16015 26.4727-27.73437 33.6914-37.78125 33.6914m-48.316397-21.082h-30.0586l2.15235-8.4805h-6.6875l-2.15235 8.4805h-30.335934l10.410156-38.9063h-14.6406253c23.8398433-33.8476 32.4179733-36.0507 40.0468733-36.0507 6.11328 0 10.45703 2.7695 11.64063 9.1093 10.44531-7.3945 16.72656-9.1406 22.76172-9.1406 9.54297 0 15.30859 6.0195 11.96093 19.0078zm94.570307-17.6055h-15.80078l9.90625-37.164h-68.66797c.80469-3.8125 1.15625-6.1915 1.16406-8.6133.0274-11.2071-7.300777-16.7266-18.035147-16.7266-6.74219 0-13.2461 2.1133-20.40235 6.6914-2.95312-4.207-7.85547-6.6562-14-6.6562-9.20703 0-20.097654 2.4297-49.03906034 45.0429-.507813.7461-.410156 1.0196.324218 1.0196l16.65625034.1601c-2.382812 8.918-10.4218743 38.9688-10.4218743 38.9688h72.7578163c-.3711 2.2304-.52344 3.9492-.52344 5.4258.043 10.4921 7.02734 15.6601 17.14844 15.6601 6.406247 0 12.453117-1.9609 19.449217-6.3281 2.80859 3.9961 7.39453 6.293 13.23046 6.293 10.76563 0 20.61719-5.2188 46.69141-42.9258.39063-.5625.28516-.836-.4375-.8477"/><path d="m119.02419 61.4961c.34766-1.2969 1.19531-1.4609 2.32813-1.4609h4.20312c1.02344 0 1.42578.3242 1.08594 1.5664-.32813 1.2461-5.33594 19.9023-5.33594 19.9023-.36328 1.3555.60156 2.375 2.62891 2.375 2.03515 0 3.54297-1.0195 3.90625-2.375 0 0 5.00781-18.6562 5.32812-19.8437.31641-1.1914.98438-1.6211 2-1.6211h2.82422c1.10938 0 1.46485.4375 1.12891 1.6757-.34375 1.2969-5.3086 19.7969-5.3086 19.7969-.36328 1.3555.67969 2.3789 2.63282 2.3789 1.94922 0 3.53906-1.0234 3.90234-2.3789l6.47656-24.1523c.50782-1.8906.34375-2.7188-2.71484-2.7188h-14.32422c-1.13672 0-1.34375-.4414-1.07031-1.4687.27734-1.0274 1.85156-6.9414 1.85156-6.9414.42188-1.5821-.50391-2.5-2.85937-2.5-2.35938 0-3.85938.9179-4.28125 2.5 0 0-1.57813 5.914-1.83985 6.8867-.25781.9726-1.10937 1.5234-2.01562 1.5234h-14.77344c-2.21484 0-3.40625 1.5586-3.73828 2.8008l-6.453127 24.0664c-.36718 1.3555.15625 2.3789 2.62891 2.3789 2.46875 0 3.519527-.9531 3.914057-2.4101l5.30078-19.7657c.28907-1.0859 1.03516-1.6718 1.96875-1.6718h3.15625c.8125 0 1.17578.4843.88282 1.5664-.28907 1.082-5.33985 19.9023-5.33985 19.9023-.36328 1.3555.0664 2.375 2.63672 2.375 2.56641 0 3.53516-1.0195 3.90234-2.375zm0 0"/><path d="m82.457793 28.0977-2.48438 9.2695c-.49609 1.8398-1.52734 3.1484-3.66797 3.1484h-32.77344c-1.41406 0-1.88281.7852-2.22656 2.0782l-4.80469 17.9101c-.3789 1.4297-1.5 2.25-3.53515 2.25-2.04297 0-2.61719-.8203-2.23438-2.25l5.86328-21.8984c.39454-1.4727 2.03516-2.6172 3.6211-2.6172h13.13672c1.05078 0 1.51172-.3242 1.72656-1.1172l.98047-3.6562c.27344-1.0274-.36328-1.3399-1.14844-1.3399h-14.20703c-1.5 0-1.95313-.6875-1.52344-2.3008.38281-1.4297 1.23438-2.2265 2.73438-2.2265h38.61718c2.03516 0 2.4336.8632 1.92579 2.75m-5.52344 20.2695-2.53125 9.6641c-.72266 2.6992-2.62891 4.1562-5.16797 4.1562h-24.34375c-2.85938 0-3.57813-1.0508-2.89063-3.6172l2.65235-10.1054c.64062-2.3829 2.17969-3.6094 4.96094-3.6094h24.66796c3.28125 0 3.30469 1.0859 2.65235 3.5117m6.82422-39.9453c-7.47657 0-13.96875 3.3476-24.72657 11.4922-1.29687-9.4961-4.5664-11.4571-9.67578-11.4571-4.9375 0-12.27343.024-33.589842 29.3555l12.484376.1133s-8.621094 32.2226-10.398438 38.8672h23.449224c.63281-2.4844 2.15234-8.4805 2.15234-8.4805h13.51953s-1.60156 6.3047-2.15234 8.4805h23.26562c1.20703-4.4766 14.4336-53.5078 14.4336-53.5078 2.89453-10.9453-3.14844-14.8633-8.76172-14.8633m-8.9375 21.4531h-11.17969c-.69141 0-1.27734.3399-1.45313 1.0078l-1.11328 4.1406c-.1914.7188.10938.9649.92578.9649h11.17969c.92969 0 1.30078-.4258 1.47266-1.0664l1.04297-3.8867c.21484-.793-.13672-1.1602-.875-1.1602m-5.23828 19.2891h-17.85938c-1.12891 0-1.96875.7461-2.17969 1.5195l-1.2539 4.9023c-.28907 1.0821-.0117 1.9102 1.52343 1.9102h17.92188c.80078 0 1.35937-.4844 1.69141-1.7227l1.26562-4.9218c.27344-1.0235.32031-1.6836-1.10937-1.6836"/></g></svg>