<?xml version="1.0" encoding="UTF-8"?>
<svg xmlns="http://www.w3.org/2000/svg" xmlns:xlink="http://www.w3.org/1999/xlink" width="426.667288" height="426.666683" viewBox="0 0 426.667288 426.666683" version="1.1">
<g id="surface1">
<path style=" stroke:none;fill-rule:nonzero;fill:rgb(100%,100%,100%);fill-opacity:1;" d="M 64.625 215.828125 C 64.625 132.15625 132.453125 64.328125 216.128906 64.328125 C 299.800781 64.328125 367.628906 132.15625 367.628906 215.828125 C 367.628906 299.5 299.800781 367.332031 216.128906 367.332031 C 132.453125 367.332031 64.625 299.5 64.625 215.828125 "/>
<path style="fill:none;stroke-width:0.68175;stroke-linecap:butt;stroke-linejoin:miter;stroke:rgb(100%,100%,100%);stroke-opacity:1;stroke-miterlimit:3.86371;" d="M 40.072502 377.414802 C 40.072502 347.283511 64.498261 322.857752 94.630959 322.857752 C 124.762251 322.857752 149.18801 347.283511 149.18801 377.414802 C 149.18801 407.546094 124.762251 431.973259 94.630959 431.973259 C 64.498261 431.973259 40.072502 407.546094 40.072502 377.414802 Z M 40.072502 377.414802 " transform="matrix(2.77691,0,0,2.77691,-46.652718,-832.218684)"/>
<path style=" stroke:none;fill-rule:nonzero;fill:rgb(60.784316%,83.92157%,28.627452%);fill-opacity:1;" d="M 156.453125 247.195312 L 156.152344 145.808594 C 156.152344 135.519531 157.289062 125.785156 159.558594 116.605469 C 161.777344 107.503906 165.292969 99.511719 170.113281 92.628906 C 174.878906 85.820312 179.898438 81.03125 185.15625 78.265625 C 192.472656 74.386719 201.257812 72.449219 211.507812 72.449219 C 217.4375 72.449219 223.917969 73.039062 230.957031 74.226562 C 237.9375 75.414062 243.785156 77.746094 248.492188 81.230469 C 253.203125 84.792969 257.527344 89.816406 261.460938 96.308594 C 265.339844 102.796875 268 109.480469 269.4375 116.371094 C 271.765625 127.445312 272.929688 137.257812 272.929688 145.808594 L 273.074219 245.992188 L 235.359375 227.574219 L 235.359375 143.316406 C 235.359375 133.820312 233.53125 126.378906 229.875 121 C 226.164062 115.695312 221.039062 113.046875 214.5 113.046875 C 208.015625 113.046875 202.945312 115.65625 199.289062 120.882812 C 195.578125 126.179688 193.722656 133.660156 193.71875 143.316406 L 193.71875 227.578125 L 156.453125 247.195312 "/>
<path style=" stroke:none;fill-rule:nonzero;fill:rgb(15.686275%,60.392159%,26.274511%);fill-opacity:1;" d="M 272.988281 245.992188 L 182.984375 299.351562 C 174.074219 304.496094 165.074219 308.378906 155.992188 311 C 147 313.632812 138.320312 314.582031 129.945312 313.847656 C 121.667969 313.125 115.011719 311.175781 109.984375 308.003906 C 102.972656 303.605469 96.902344 296.96875 91.773438 288.09375 C 88.808594 282.957031 86.082031 277.046875 83.59375 270.359375 C 81.128906 263.71875 80.226562 257.488281 80.886719 251.671875 C 81.617188 245.808594 83.804688 239.554688 87.460938 232.902344 C 91.140625 226.296875 95.597656 220.652344 100.847656 215.960938 C 109.277344 208.40625 117.191406 202.492188 124.597656 198.21875 L 214.335938 146.375 L 214.335938 190.6875 L 141.222656 232 C 132.996094 236.746094 127.464844 242.050781 124.636719 247.910156 C 121.898438 253.777344 122.167969 259.539062 125.4375 265.203125 C 128.679688 270.816406 133.472656 273.902344 139.828125 274.457031 C 146.273438 275.019531 153.679688 272.886719 162.039062 268.0625 L 235.375 226.585938 L 272.988281 245.992188 "/>
<path style=" stroke:none;fill-rule:nonzero;fill:rgb(10.588235%,43.137255%,26.666668%);fill-opacity:1;" d="M 214.25 146.460938 L 302.976562 198.671875 C 311.886719 203.816406 319.75 209.671875 326.5625 216.226562 C 333.335938 222.699219 338.5 229.738281 342.050781 237.355469 C 345.5625 244.886719 347.203125 251.625 346.96875 257.566406 C 346.667969 265.839844 343.953125 274.414062 338.832031 283.292969 C 335.867188 288.429688 332.113281 293.746094 327.566406 299.246094 C 323.046875 304.699219 318.101562 308.597656 312.730469 310.933594 C 307.292969 313.230469 300.78125 314.464844 293.191406 314.625 C 285.632812 314.738281 278.515625 313.699219 271.828125 311.503906 C 261.070312 307.980469 251.992188 304.082031 244.585938 299.804688 L 156.453125 247.195312 L 193.550781 227.015625 L 265.53125 268.515625 C 273.753906 273.265625 281.113281 275.402344 287.601562 274.925781 C 294.050781 274.363281 298.90625 271.25 302.175781 265.585938 C 305.417969 259.972656 305.691406 254.273438 302.996094 248.496094 C 300.261719 242.628906 294.714844 237.285156 286.351562 232.457031 L 214.164062 190.859375 L 214.25 146.460938 "/>
<path style=" stroke:none;fill-rule:nonzero;fill:rgb(60.784316%,83.92157%,28.627452%);fill-opacity:1;" d="M 273 176.066406 L 273 225.585938 L 235.375 206.925781 L 235.375 157.402344 L 273 176.066406 "/>
<path style=" stroke:none;fill-rule:nonzero;fill:rgb(6.27451%,6.27451%,5.882353%);fill-opacity:1;" d="M 0 213.332031 C 0 95.523438 95.449219 0 213.285156 0 C 322.90625 0 413.214844 82.679688 425.253906 189.082031 C 418 180.371094 406.917969 176 396.121094 176 C 383.820312 176 373.167969 182.738281 366.210938 194.050781 C 354.230469 121.703125 292.871094 64.128906 215.609375 64.128906 C 130.71875 64.128906 67.136719 130.035156 63.675781 215.355469 C 62.027344 256.050781 0 254.058594 0 213.332031 "/>
<path style=" stroke:none;fill-rule:nonzero;fill:rgb(18.82353%,23.529412%,60.784316%);fill-opacity:1;" d="M 426.667969 213.332031 C 426.667969 331.164062 331.097656 426.667969 213.285156 426.667969 C 103.613281 426.667969 13.273438 343.914062 1.296875 237.445312 C 8.550781 246.246094 19.695312 250.664062 30.546875 250.664062 C 42.800781 250.664062 58.121094 244.09375 65.097656 232.871094 C 73.953125 308.804688 137.003906 365.152344 214.089844 367.890625 C 294.105469 370.734375 367.109375 298.199219 367.628906 213.460938 C 367.878906 172.734375 426.667969 172.605469 426.667969 213.332031 "/>
<path style=" stroke:none;fill-rule:evenodd;fill:rgb(100%,100%,100%);fill-opacity:1;" d="M 59.828125 126.007812 L 51.210938 121.03125 C 50.929688 120.871094 50.667969 120.976562 50.421875 121.351562 L 44.089844 132.316406 C 43.898438 132.652344 43.945312 132.921875 44.230469 133.121094 L 52.847656 138.097656 C 53.171875 138.285156 53.4375 138.195312 53.648438 137.832031 L 59.980469 126.871094 C 60.203125 126.480469 60.152344 126.195312 59.828125 126.007812 Z M 51.453125 126.972656 C 51.511719 126.871094 51.601562 126.839844 51.726562 126.875 L 54.542969 128.5 C 54.632812 128.550781 54.648438 128.648438 54.59375 128.789062 L 52.617188 132.210938 C 52.539062 132.300781 52.453125 132.324219 52.367188 132.273438 L 49.550781 130.644531 C 49.449219 130.621094 49.421875 130.539062 49.476562 130.394531 Z M 79.429688 115.03125 L 52.34375 99.394531 C 51.738281 99.046875 51.199219 99.253906 50.730469 100.019531 L 32.324219 131.898438 C 31.90625 132.625 32 133.179688 32.613281 133.566406 L 59.699219 149.203125 C 60.347656 149.578125 60.886719 149.390625 61.320312 148.636719 L 79.726562 116.757812 C 80.175781 115.980469 80.074219 115.40625 79.429688 115.03125 Z M 49.828125 112.355469 L 48.796875 114.140625 C 48.449219 113.941406 48.09375 113.738281 47.726562 113.523438 L 48.402344 112.359375 C 48.652344 112.367188 49.128906 112.363281 49.828125 112.355469 Z M 51.136719 107.613281 L 52.035156 106.058594 C 52.230469 105.722656 52.457031 105.628906 52.714844 105.777344 L 67.425781 114.269531 L 64.609375 117.207031 C 65.730469 117.855469 66.375 118.3125 66.539062 118.578125 C 66.609375 118.65625 66.617188 118.761719 66.566406 118.90625 C 66.519531 118.984375 65.964844 119.09375 64.902344 119.242188 C 63.644531 116.132812 61.464844 112.902344 58.355469 109.550781 L 55.015625 113.171875 C 56.878906 115.179688 58.300781 116.933594 59.277344 118.429688 C 56.921875 117.828125 54.667969 117.015625 52.527344 115.984375 L 56.523438 109.066406 L 52.925781 106.988281 L 52.542969 107.648438 C 52.09375 107.632812 51.625 107.621094 51.136719 107.613281 Z M 66.761719 124.097656 C 66.652344 123.792969 66.550781 123.492188 66.460938 123.199219 C 69.257812 122.84375 71.070312 121.972656 71.898438 120.585938 C 72.183594 120.09375 72.359375 119.539062 72.429688 118.921875 C 72.484375 118.226562 72.089844 117.414062 71.25 116.476562 L 73.710938 117.898438 C 73.976562 118.089844 74.019531 118.335938 73.839844 118.648438 L 67.960938 128.832031 C 67.628906 127.261719 67.230469 125.683594 66.761719 124.097656 Z M 62.453125 125.5 L 61.097656 125.082031 C 59.90625 128.640625 57.800781 133.386719 54.78125 139.316406 L 58.945312 140.632812 C 58.960938 140.605469 60.503906 137.332031 63.578125 130.8125 C 63.613281 131.25 63.667969 131.679688 63.742188 132.101562 L 66.996094 130.503906 L 60.015625 142.597656 C 59.835938 142.90625 59.605469 142.980469 59.324219 142.820312 L 38.328125 130.699219 C 38.070312 130.546875 38.03125 130.320312 38.210938 130.007812 L 45.371094 117.605469 C 45.714844 117.804688 46.074219 118.011719 46.4375 118.222656 L 39.617188 130.042969 L 43.210938 132.117188 L 50.191406 120.027344 C 54.371094 121.921875 58.191406 123.007812 61.664062 123.28125 C 61.960938 124.007812 62.226562 124.746094 62.453125 125.5 "/>
<path style=" stroke:none;fill-rule:evenodd;fill:rgb(100%,100%,100%);fill-opacity:1;" d="M 96.214844 59.089844 L 82.777344 68.851562 L 85.480469 72.574219 L 116.753906 49.855469 L 114.046875 46.136719 L 100.828125 55.738281 L 98.804688 52.957031 L 94.191406 56.304688 Z M 89.480469 72.121094 C 94.902344 75.613281 99.851562 79.472656 104.335938 83.707031 L 108.421875 79.859375 C 104.632812 76.328125 99.609375 72.390625 93.355469 68.058594 Z M 116.238281 76.261719 L 97.136719 90.140625 L 99.929688 93.984375 L 132.648438 70.210938 L 129.859375 66.367188 L 120.996094 72.808594 C 119.527344 68.292969 117.160156 62.183594 113.894531 54.476562 L 108.800781 56.789062 C 109.46875 58.0625 110.722656 60.957031 112.5625 65.476562 C 114.113281 69.34375 115.339844 72.9375 116.238281 76.261719 "/>
<path style=" stroke:none;fill-rule:evenodd;fill:rgb(100%,100%,100%);fill-opacity:1;" d="M 188.964844 42.582031 L 187.519531 35.773438 L 182.644531 36.8125 L 185.886719 52.070312 L 190.761719 51.03125 L 189.765625 46.351562 L 195.914062 45.046875 C 196.730469 44.867188 197.070312 44.441406 196.925781 43.757812 L 194.996094 34.683594 L 190.472656 35.644531 L 191.6875 41.351562 C 191.769531 41.742188 191.566406 42.003906 191.074219 42.132812 Z M 158.085938 51.246094 C 157.238281 51.734375 156.449219 52.179688 155.710938 52.59375 L 158.71875 55.738281 C 160.367188 54.855469 162.519531 53.542969 165.179688 51.808594 L 166.160156 56.417969 L 170.859375 55.417969 L 165.421875 29.839844 C 167.328125 30.453125 169.277344 31.351562 171.273438 32.535156 C 170.671875 33.734375 170.085938 34.800781 169.519531 35.738281 L 167.167969 36.542969 C 167.980469 37.773438 168.589844 38.917969 169 39.976562 L 178.347656 36.878906 C 178.425781 37.121094 178.570312 37.371094 178.78125 37.628906 L 175.792969 38.265625 L 177.242188 45.074219 L 175.878906 45.359375 C 175.148438 45.515625 174.695312 45.265625 174.527344 44.617188 L 173.476562 39.679688 L 168.957031 40.636719 L 170.628906 48.503906 C 170.882812 49.699219 171.730469 50.15625 173.167969 49.875 L 176.59375 49.148438 C 175.027344 50.425781 173.601562 51.417969 172.316406 52.121094 C 171.980469 52.273438 171.671875 52.414062 171.394531 52.550781 L 174.640625 55.722656 C 178.917969 53.257812 181.445312 50.667969 182.214844 47.953125 C 182.222656 47.851562 182.257812 47.726562 182.320312 47.589844 C 182.496094 46.683594 182.507812 45.878906 182.355469 45.167969 L 180.707031 37.414062 L 183.105469 36.175781 C 183.046875 36.039062 182.976562 35.925781 182.894531 35.839844 L 191.34375 32.820312 C 191.632812 33.320312 191.929688 33.859375 192.234375 34.425781 L 196.238281 32.546875 C 194.894531 29.820312 193.476562 27.613281 191.984375 25.914062 L 189.054688 27.457031 C 190.609375 24.269531 191.492188 21.875 191.703125 20.273438 L 187.152344 20.019531 C 186.898438 21.859375 186.335938 23.816406 185.460938 25.882812 C 185.117188 25.703125 184.800781 25.515625 184.515625 25.320312 C 185.78125 22.199219 186.625 19.699219 187.050781 17.820312 L 182.691406 16.953125 C 182.136719 19.238281 181.519531 21.367188 180.839844 23.351562 C 180.097656 23.023438 179.648438 22.863281 179.496094 22.871094 L 178.355469 24.832031 C 178.449219 24.28125 178.515625 23.792969 178.550781 23.378906 L 173.964844 23.394531 C 173.828125 25.058594 173.457031 26.832031 172.847656 28.71875 C 172.398438 28.484375 171.984375 28.265625 171.605469 28.066406 C 172.914062 25.007812 173.816406 22.5625 174.3125 20.722656 L 169.945312 19.8125 C 169.34375 22.160156 168.664062 24.355469 167.902344 26.402344 C 167.300781 26.152344 166.917969 26.015625 166.761719 26 L 165.242188 28.996094 L 164.726562 26.582031 L 166.398438 26.226562 L 165.535156 22.164062 L 151.265625 25.199219 L 152.125 29.261719 L 153.355469 29 Z M 162.410156 48.492188 L 161.414062 43.808594 L 163.390625 43.390625 L 164.214844 47.265625 C 163.648438 47.617188 163.046875 48.027344 162.410156 48.492188 Z M 160.550781 39.746094 L 159.734375 35.90625 L 161.710938 35.484375 L 162.527344 39.328125 Z M 158.871094 31.839844 L 158.054688 28 L 160.03125 27.582031 L 160.847656 31.425781 Z M 189.195312 29.414062 L 187.703125 29.960938 C 187.972656 29.496094 188.25 29.003906 188.539062 28.484375 C 188.722656 28.777344 188.941406 29.085938 189.195312 29.414062 Z M 180.765625 32.507812 C 180 31.496094 179.273438 30.589844 178.582031 29.796875 L 176.164062 31.148438 C 176.402344 30.539062 176.671875 29.933594 176.972656 29.335938 C 177.339844 28.339844 177.65625 27.441406 177.914062 26.648438 C 179.804688 27.34375 181.695312 28.316406 183.585938 29.574219 C 183.011719 30.484375 182.472656 31.316406 181.957031 32.0625 Z M 176.066406 33.503906 L 174.824219 33.921875 C 175.019531 33.546875 175.226562 33.148438 175.441406 32.71875 C 175.609375 32.941406 175.820312 33.203125 176.066406 33.503906 "/>
<path style=" stroke:none;fill-rule:evenodd;fill:rgb(100%,100%,100%);fill-opacity:1;" d="M 238.75 29.117188 L 238.128906 32.042969 L 263.464844 37.429688 L 264.125 34.320312 C 265.808594 35.46875 267.636719 36.644531 269.613281 37.855469 L 273.257812 34.308594 C 266.46875 30.851562 260.78125 26.734375 256.195312 21.960938 C 256.460938 21.714844 256.726562 21.476562 256.988281 21.25 L 252.222656 19.28125 C 248.496094 22.417969 241.136719 24.574219 230.148438 25.753906 L 232.085938 30.453125 C 234.414062 30.003906 236.636719 29.558594 238.75 29.117188 Z M 242.039062 28.320312 C 246.53125 27.0625 250.046875 25.78125 252.585938 24.484375 C 255.136719 27.167969 258.117188 29.828125 261.535156 32.46875 Z M 263.671875 56.746094 L 266.78125 42.113281 C 266.941406 41.355469 266.554688 40.878906 265.617188 40.679688 L 235.058594 34.183594 C 234.148438 33.988281 233.617188 34.269531 233.457031 35.027344 L 230.34375 49.660156 C 230.183594 50.417969 230.554688 50.90625 231.457031 51.121094 L 262.015625 57.621094 C 262.921875 57.816406 263.476562 57.523438 263.671875 56.746094 Z M 260.082031 44.050781 C 260.460938 44.136719 260.632812 44.335938 260.59375 44.660156 L 259.054688 51.902344 C 258.988281 52.222656 258.746094 52.347656 258.332031 52.285156 L 236.992188 47.75 C 236.613281 47.667969 236.457031 47.457031 236.53125 47.113281 L 238.070312 39.871094 C 238.136719 39.554688 238.359375 39.4375 238.742188 39.515625 L 260.082031 44.050781 "/>
<path style=" stroke:none;fill-rule:nonzero;fill:rgb(100%,100%,100%);fill-opacity:1;" d="M 317.933594 69.363281 C 316.800781 74.738281 318.160156 81.753906 322.007812 90.40625 C 322.25 90.886719 322.515625 91.464844 322.804688 92.136719 L 328.480469 92.195312 C 323.519531 83.132812 321.855469 75.496094 323.484375 69.28125 C 324.015625 67.789062 324.523438 66.550781 325.007812 65.582031 L 337.792969 74.867188 L 340.496094 71.148438 L 327.242188 61.515625 C 327.351562 61.410156 327.445312 61.3125 327.519531 61.207031 L 331.148438 56.214844 L 326.535156 52.863281 L 322.90625 57.855469 C 322.847656 57.9375 322.753906 58.039062 322.628906 58.164062 L 309.375 48.535156 L 306.667969 52.253906 L 319.597656 61.648438 C 313.191406 67.816406 304.4375 69.378906 293.332031 66.332031 L 294.222656 71.601562 C 300.40625 72.863281 305.828125 73.039062 310.480469 72.132812 C 313.042969 71.5625 315.527344 70.636719 317.933594 69.363281 "/>
<path style=" stroke:none;fill-rule:evenodd;fill:rgb(100%,100%,100%);fill-opacity:1;" d="M 380.066406 132.164062 L 375.800781 124.777344 L 378.59375 125.496094 C 378.632812 124.921875 378.65625 124.304688 378.652344 123.648438 C 379.203125 123.953125 379.785156 124.292969 380.402344 124.660156 L 381.34375 121.730469 L 383.6875 122.347656 C 383.71875 121.605469 383.738281 120.796875 383.757812 119.925781 C 384.453125 120.179688 385.191406 120.460938 385.972656 120.769531 L 386.53125 116.871094 C 385.550781 116.574219 384.609375 116.21875 383.710938 115.804688 C 383.707031 114.148438 383.667969 112.960938 383.597656 112.242188 L 379.890625 111.582031 C 379.9375 111.96875 379.976562 112.65625 380 113.644531 C 379.035156 112.921875 378.03125 112.101562 376.984375 111.1875 L 375.542969 114.820312 C 375.621094 114.910156 375.726562 115.023438 375.859375 115.152344 L 374.757812 114.960938 C 374.773438 115.191406 374.800781 115.589844 374.84375 116.15625 C 374.164062 115.476562 373.484375 114.726562 372.808594 113.90625 L 371.113281 116.652344 L 367.382812 110.195312 L 368 109.839844 L 370.605469 114.351562 L 373.421875 112.722656 L 370.820312 108.214844 L 371.367188 107.898438 L 373.976562 112.40625 L 376.789062 110.78125 L 374.1875 106.269531 C 374.40625 106.144531 374.539062 106.101562 374.589844 106.140625 C 375.527344 107.914062 377.050781 109.832031 379.164062 111.898438 L 381.046875 108.269531 C 378.71875 105.78125 377.019531 103.441406 375.960938 101.253906 C 375.472656 100.363281 374.957031 100.070312 374.417969 100.382812 L 364.894531 105.882812 L 363.972656 104.289062 C 363.660156 103.742188 363.273438 103.601562 362.824219 103.863281 L 356.277344 107.640625 L 358.859375 112.113281 L 362.261719 110.148438 C 362.519531 110 362.722656 110.074219 362.863281 110.371094 L 378.082031 136.730469 C 378.308594 137.121094 378.226562 137.40625 377.847656 137.59375 C 377.847656 137.59375 376.570312 137.777344 374.015625 138.144531 L 375.351562 143.074219 C 378.542969 142.613281 381.132812 141.96875 383.125 141.128906 L 382.523438 136.496094 L 391.824219 131.128906 C 392.339844 130.832031 392.414062 130.355469 392.039062 129.707031 L 387.214844 121.347656 L 384.394531 122.976562 L 387 127.488281 C 387.195312 127.824219 387.164062 128.066406 386.902344 128.214844 L 386.871094 128.234375 L 383.953125 123.179688 L 381.132812 124.808594 L 384.050781 129.863281 L 383.5 130.183594 L 380.585938 125.128906 L 377.761719 126.753906 L 380.683594 131.808594 Z M 372.457031 118.984375 C 373.894531 120.226562 374.738281 120.964844 374.992188 121.203125 C 375.023438 121.90625 375.007812 122.605469 374.949219 123.300781 Z M 378.488281 117.160156 C 379.082031 117.441406 379.621094 117.769531 380.097656 118.152344 C 380.101562 118.804688 380.085938 119.484375 380.0625 120.191406 C 379.582031 119.847656 379.082031 119.53125 378.566406 119.242188 C 378.582031 118.46875 378.554688 117.777344 378.488281 117.160156 Z M 359.929688 128.1875 C 358.796875 129.359375 357.839844 129.929688 357.070312 129.890625 C 356.5625 129.664062 356.035156 128.773438 355.488281 127.226562 C 355.175781 126.335938 354.894531 124.925781 354.644531 122.996094 L 350.453125 124.484375 C 351.066406 127.550781 351.890625 129.976562 352.925781 131.765625 C 353.992188 133.566406 355.265625 134.75 356.746094 135.3125 C 358.496094 135.957031 360.511719 135.226562 362.78125 133.125 L 370.433594 146.378906 L 374.03125 144.304688 L 366.46875 131.203125 L 372.117188 136.648438 L 374.335938 131.066406 L 364.414062 113.882812 L 361.078125 115.808594 L 367.25 126.5 L 365.125 124.460938 L 365.097656 124.421875 L 363.394531 121.46875 C 363.117188 122.386719 362.789062 123.285156 362.402344 124.164062 L 353.984375 109.585938 L 350.390625 111.664062 L 359.929688 128.1875 "/>
<path style=" stroke:none;fill-rule:nonzero;fill:rgb(100%,100%,100%);fill-opacity:1;" d="M 44.757812 266.421875 L 47.265625 271.800781 L 40.226562 283.625 L 50.539062 278.820312 L 53.070312 284.25 L 34.433594 292.9375 L 31.902344 287.507812 L 38.878906 275.757812 L 28.644531 280.527344 L 26.117188 275.109375 L 44.757812 266.421875 "/>
<path style=" stroke:none;fill-rule:evenodd;fill:rgb(100%,100%,100%);fill-opacity:1;" d="M 45.875 305.417969 L 42.144531 299.214844 L 38.722656 300.109375 L 35.375 294.539062 L 56.984375 290.578125 L 60.554688 296.515625 L 46.910156 313.734375 L 43.484375 308.03125 Z M 49 301.988281 L 54.164062 296.230469 L 46.664062 298.101562 L 49 301.988281 "/>
<path style=" stroke:none;fill-rule:nonzero;fill:rgb(100%,100%,100%);fill-opacity:1;" d="M 62.800781 300.535156 L 74.15625 316.167969 L 70.050781 319.152344 L 66.238281 313.90625 L 53.710938 323.007812 L 49.972656 317.867188 L 62.503906 308.765625 L 58.691406 303.519531 L 62.800781 300.535156 "/>
<path style=" stroke:none;fill-rule:nonzero;fill:rgb(100%,100%,100%);fill-opacity:1;" d="M 75.292969 317.453125 L 79.382812 322.332031 L 63.632812 335.550781 L 59.539062 330.671875 L 75.292969 317.453125 "/>
<path style=" stroke:none;fill-rule:evenodd;fill:rgb(100%,100%,100%);fill-opacity:1;" d="M 73.300781 331.449219 C 75.714844 329.117188 78.246094 327.972656 80.890625 328.019531 C 83.535156 328.066406 86.015625 329.292969 88.335938 331.691406 C 90.714844 334.15625 91.886719 336.695312 91.847656 339.304688 C 91.8125 341.910156 90.605469 344.363281 88.226562 346.664062 C 86.496094 348.332031 84.796875 349.410156 83.121094 349.894531 C 81.460938 350.382812 79.785156 350.371094 78.101562 349.867188 C 76.429688 349.359375 74.800781 348.285156 73.214844 346.644531 C 71.605469 344.976562 70.535156 343.339844 70.007812 341.726562 C 69.488281 340.125 69.472656 338.429688 69.964844 336.636719 C 70.460938 334.847656 71.570312 333.117188 73.300781 331.449219 Z M 77.695312 336.039062 C 76.203125 337.480469 75.394531 338.792969 75.277344 339.976562 C 75.164062 341.164062 75.566406 342.234375 76.492188 343.191406 C 77.4375 344.171875 78.492188 344.625 79.652344 344.546875 C 80.808594 344.46875 82.21875 343.628906 83.871094 342.03125 C 85.265625 340.6875 86.007812 339.421875 86.101562 338.242188 C 86.207031 337.058594 85.796875 335.988281 84.867188 335.023438 C 83.976562 334.101562 82.933594 333.679688 81.742188 333.75 C 80.550781 333.820312 79.203125 334.585938 77.695312 336.039062 "/>
<path style=" stroke:none;fill-rule:nonzero;fill:rgb(100%,100%,100%);fill-opacity:1;" d="M 96.40625 340.117188 L 101.019531 343.851562 L 99.878906 357.566406 L 107.039062 348.726562 L 111.695312 352.496094 L 98.753906 368.476562 L 94.101562 364.707031 L 95.21875 351.085938 L 88.113281 359.859375 L 83.46875 356.097656 L 96.40625 340.117188 "/>
<path style=" stroke:none;fill-rule:evenodd;fill:rgb(100%,100%,100%);fill-opacity:1;" d="M 114.460938 374.742188 L 108.324219 370.90625 L 105.679688 373.257812 L 100.171875 369.8125 L 117.621094 356.472656 L 123.5 360.144531 L 119.160156 381.679688 L 113.519531 378.15625 Z M 115.6875 370.265625 L 117.675781 362.792969 L 111.84375 367.863281 L 115.6875 370.265625 "/>
<path style=" stroke:none;fill-rule:nonzero;fill:rgb(100%,100%,100%);fill-opacity:1;" d="M 130.039062 364.117188 L 135.753906 366.90625 L 128.960938 380.835938 L 137.875 385.183594 L 135.65625 389.738281 L 121.027344 382.601562 L 130.039062 364.117188 "/>
<path style=" stroke:none;fill-rule:nonzero;fill:rgb(100%,100%,100%);fill-opacity:1;" d="M 165.855469 378.257812 L 171.949219 380.007812 L 168.574219 391.792969 C 168.238281 392.960938 167.734375 394.015625 167.070312 394.953125 C 166.414062 395.882812 165.582031 396.625 164.574219 397.183594 C 163.582031 397.734375 162.609375 398.046875 161.667969 398.113281 C 160.355469 398.214844 158.867188 398.027344 157.203125 397.550781 C 156.242188 397.273438 155.207031 396.90625 154.105469 396.445312 C 153.011719 395.984375 152.136719 395.445312 151.488281 394.832031 C 150.839844 394.207031 150.300781 393.4375 149.875 392.515625 C 149.457031 391.597656 149.242188 390.714844 149.234375 389.863281 C 149.214844 388.496094 149.347656 387.328125 149.625 386.359375 L 153.003906 374.574219 L 159.097656 376.320312 L 155.640625 388.390625 C 155.328125 389.46875 155.382812 390.398438 155.800781 391.179688 C 156.230469 391.957031 156.976562 392.496094 158.039062 392.800781 C 159.089844 393.101562 159.996094 393.039062 160.761719 392.617188 C 161.535156 392.1875 162.082031 391.425781 162.394531 390.328125 L 165.855469 378.257812 "/>
<path style=" stroke:none;fill-rule:nonzero;fill:rgb(100%,100%,100%);fill-opacity:1;" d="M 173.390625 380.214844 L 179.269531 381.039062 L 185.355469 393.382812 L 186.9375 382.117188 L 192.867188 382.953125 L 190.007812 403.316406 L 184.078125 402.484375 L 178.019531 390.226562 L 176.449219 401.410156 L 170.53125 400.578125 L 173.390625 380.214844 "/>
<path style=" stroke:none;fill-rule:nonzero;fill:rgb(100%,100%,100%);fill-opacity:1;" d="M 195.59375 383.28125 L 201.953125 383.617188 L 200.878906 404.15625 L 194.519531 403.820312 L 195.59375 383.28125 "/>
<path style=" stroke:none;fill-rule:nonzero;fill:rgb(100%,100%,100%);fill-opacity:1;" d="M 204.007812 383.910156 L 223.328125 383.910156 L 223.328125 388.992188 L 216.847656 388.988281 L 216.847656 404.476562 L 210.492188 404.476562 L 210.492188 388.988281 L 204.011719 388.988281 L 204.007812 383.910156 "/>
<path style=" stroke:none;fill-rule:nonzero;fill:rgb(100%,100%,100%);fill-opacity:1;" d="M 224.027344 383.578125 L 240.964844 381.800781 L 241.425781 386.167969 L 230.820312 387.28125 L 231.164062 390.53125 L 241 389.5 L 241.4375 393.671875 L 231.605469 394.707031 L 232.027344 398.734375 L 242.9375 397.589844 L 243.425781 402.222656 L 226.179688 404.035156 L 224.027344 383.578125 "/>
<path style=" stroke:none;fill-rule:evenodd;fill:rgb(100%,100%,100%);fill-opacity:1;" d="M 242.996094 381.546875 L 252.261719 379.746094 C 254.089844 379.394531 255.613281 379.355469 256.828125 379.632812 C 258.054688 379.910156 259.125 380.4375 260.039062 381.222656 C 260.953125 382.007812 261.695312 382.984375 262.265625 384.148438 C 262.835938 385.316406 263.257812 386.585938 263.523438 387.964844 C 263.945312 390.121094 264.019531 391.84375 263.757812 393.136719 C 263.5 394.414062 263.015625 395.542969 262.300781 396.519531 C 261.585938 397.488281 260.75 398.203125 259.800781 398.660156 C 258.507812 399.296875 257.300781 399.71875 256.191406 399.9375 L 246.925781 401.734375 Z M 250.125 384.90625 L 252.269531 395.9375 L 253.796875 395.640625 C 255.101562 395.386719 256 395.066406 256.496094 394.675781 C 256.988281 394.273438 257.324219 393.683594 257.496094 392.910156 C 257.667969 392.121094 257.597656 390.921875 257.28125 389.304688 C 256.867188 387.167969 256.234375 385.769531 255.382812 385.117188 C 254.53125 384.460938 253.296875 384.292969 251.679688 384.605469 L 250.125 384.90625 "/>
<path style=" stroke:none;fill-rule:nonzero;fill:rgb(100%,100%,100%);fill-opacity:1;" d="M 282.660156 370.386719 L 288.535156 368.011719 L 293.132812 379.378906 C 293.585938 380.507812 293.839844 381.648438 293.894531 382.796875 C 293.949219 383.933594 293.75 385.03125 293.304688 386.089844 C 292.859375 387.136719 292.285156 387.980469 291.585938 388.617188 C 290.613281 389.503906 289.324219 390.269531 287.71875 390.917969 C 286.792969 391.292969 285.75 391.636719 284.597656 391.953125 C 283.453125 392.261719 282.433594 392.378906 281.542969 392.292969 C 280.648438 392.199219 279.746094 391.925781 278.84375 391.460938 C 277.953125 390.996094 277.238281 390.429688 276.707031 389.765625 C 275.855469 388.699219 275.238281 387.699219 274.859375 386.761719 L 270.261719 375.394531 L 276.140625 373.019531 L 280.847656 384.660156 C 281.269531 385.699219 281.882812 386.402344 282.695312 386.757812 C 283.511719 387.105469 284.429688 387.074219 285.453125 386.660156 C 286.46875 386.25 287.144531 385.640625 287.484375 384.839844 C 287.832031 384.023438 287.792969 383.085938 287.363281 382.027344 L 282.660156 370.386719 "/>
<path style=" stroke:none;fill-rule:nonzero;fill:rgb(100%,100%,100%);fill-opacity:1;" d="M 290.167969 367.359375 L 295.359375 364.480469 L 307.648438 370.679688 L 302.128906 360.730469 L 307.371094 357.824219 L 317.34375 375.8125 L 312.105469 378.714844 L 299.894531 372.570312 L 305.367188 382.449219 L 300.140625 385.34375 L 290.167969 367.359375 "/>
<path style=" stroke:none;fill-rule:nonzero;fill:rgb(100%,100%,100%);fill-opacity:1;" d="M 309.335938 356.398438 L 314.554688 352.742188 L 326.351562 369.59375 L 321.136719 373.242188 L 309.335938 356.398438 "/>
<path style=" stroke:none;fill-rule:nonzero;fill:rgb(100%,100%,100%);fill-opacity:1;" d="M 315.328125 352.605469 L 320.421875 348.332031 L 333.480469 356.695312 L 327.457031 342.425781 L 332.402344 338.277344 L 339.777344 358.9375 L 334.503906 363.367188 L 315.328125 352.605469 "/>
<path style=" stroke:none;fill-rule:nonzero;fill:rgb(100%,100%,100%);fill-opacity:1;" d="M 332.191406 338.0625 L 344.023438 325.8125 L 347.183594 328.863281 L 339.773438 336.53125 L 342.128906 338.800781 L 348.996094 331.6875 L 352.015625 334.601562 L 345.144531 341.714844 L 348.0625 344.53125 L 355.683594 336.640625 L 359.03125 339.878906 L 346.992188 352.347656 L 332.191406 338.0625 "/>
<path style=" stroke:none;fill-rule:evenodd;fill:rgb(100%,100%,100%);fill-opacity:1;" d="M 361.269531 337.140625 L 345.058594 324.476562 L 351.578125 316.132812 C 352.789062 314.585938 353.84375 313.507812 354.75 312.894531 C 355.652344 312.285156 356.660156 312.011719 357.777344 312.074219 C 358.882812 312.132812 359.949219 312.566406 360.984375 313.371094 C 361.882812 314.074219 362.511719 314.875 362.863281 315.769531 C 363.214844 316.660156 363.328125 317.597656 363.210938 318.585938 C 363.136719 319.214844 362.890625 319.964844 362.480469 320.839844 C 363.144531 320.402344 363.683594 320.121094 364.097656 320.003906 C 364.375 319.925781 364.863281 319.878906 365.566406 319.875 C 366.28125 319.859375 366.800781 319.882812 367.125 319.953125 L 373.71875 321.203125 L 369.296875 326.863281 L 362.253906 325.667969 C 361.347656 325.503906 360.695312 325.480469 360.296875 325.597656 C 359.765625 325.761719 359.320312 326.074219 358.960938 326.53125 L 358.617188 326.972656 L 365.195312 332.113281 Z M 355.554688 324.582031 L 357.203125 322.46875 C 357.382812 322.242188 357.652344 321.742188 358.019531 320.96875 C 358.214844 320.585938 358.25 320.183594 358.140625 319.765625 C 358.035156 319.339844 357.804688 318.988281 357.453125 318.710938 C 356.929688 318.300781 356.398438 318.15625 355.859375 318.265625 C 355.316406 318.378906 354.695312 318.894531 353.976562 319.808594 L 352.261719 322.007812 L 355.554688 324.582031 "/>
<path style=" stroke:none;fill-rule:nonzero;fill:rgb(100%,100%,100%);fill-opacity:1;" d="M 368.203125 316.589844 L 371.085938 311.261719 C 371.988281 311.671875 372.765625 311.839844 373.414062 311.773438 C 374.464844 311.65625 375.316406 311.085938 375.957031 310.054688 C 376.4375 309.285156 376.628906 308.585938 376.53125 307.949219 C 376.429688 307.300781 376.140625 306.828125 375.664062 306.527344 C 375.210938 306.246094 374.683594 306.191406 374.074219 306.367188 C 373.472656 306.539062 372.5625 307.25 371.339844 308.492188 C 369.335938 310.527344 367.574219 311.769531 366.066406 312.226562 C 364.550781 312.691406 363.109375 312.496094 361.746094 311.644531 C 360.851562 311.085938 360.167969 310.300781 359.695312 309.289062 C 359.222656 308.261719 359.085938 307.089844 359.277344 305.769531 C 359.472656 304.433594 360.140625 302.859375 361.273438 301.042969 C 362.664062 298.816406 364.140625 297.378906 365.703125 296.734375 C 367.261719 296.074219 369.015625 296.199219 370.960938 297.109375 L 368.085938 302.371094 C 367.21875 302.019531 366.46875 301.945312 365.839844 302.160156 C 365.210938 302.363281 364.664062 302.847656 364.1875 303.609375 C 363.792969 304.234375 363.636719 304.792969 363.707031 305.277344 C 363.769531 305.757812 363.992188 306.117188 364.375 306.355469 C 364.652344 306.527344 364.980469 306.554688 365.367188 306.429688 C 365.757812 306.320312 366.347656 305.851562 367.140625 305.023438 C 369.121094 302.988281 370.6875 301.625 371.84375 300.933594 C 373 300.234375 374.105469 299.894531 375.164062 299.914062 C 376.226562 299.925781 377.230469 300.230469 378.183594 300.828125 C 379.300781 301.527344 380.140625 302.480469 380.695312 303.6875 C 381.253906 304.894531 381.429688 306.210938 381.230469 307.628906 C 381.023438 309.039062 380.386719 310.589844 379.332031 312.277344 C 377.476562 315.246094 375.625 316.945312 373.769531 317.371094 C 371.914062 317.800781 370.058594 317.539062 368.203125 316.589844 "/>
<path style=" stroke:none;fill-rule:nonzero;fill:rgb(100%,100%,100%);fill-opacity:1;" d="M 367.070312 291.839844 L 369.960938 286.167969 L 388.289062 295.507812 L 385.398438 301.179688 L 367.070312 291.839844 "/>
<path style=" stroke:none;fill-rule:nonzero;fill:rgb(100%,100%,100%);fill-opacity:1;" d="M 371.125 284.515625 L 378.976562 266.871094 L 383.617188 268.933594 L 380.980469 274.855469 L 395.132812 281.15625 L 392.546875 286.960938 L 378.398438 280.660156 L 375.761719 286.582031 L 371.125 284.515625 "/>
<path style=" stroke:none;fill-rule:nonzero;fill:rgb(100%,100%,100%);fill-opacity:1;" d="M 378.609375 268.160156 L 380.789062 261.449219 L 388.675781 259.644531 L 383.355469 253.550781 L 385.519531 246.878906 L 394.421875 258.179688 L 402.613281 260.839844 L 400.644531 266.898438 L 392.453125 264.234375 L 378.609375 268.160156 "/>
<path style=" stroke:none;fill-rule:nonzero;fill:rgb(100%,100%,100%);fill-opacity:1;" d="M 38.367188 218.890625 L 28.757812 224.4375 L 19.152344 218.890625 L 19.152344 207.796875 L 28.757812 202.246094 L 38.367188 207.796875 L 38.367188 218.890625 "/>
<path style="fill:none;stroke-width:0.574625;stroke-linecap:butt;stroke-linejoin:miter;stroke:rgb(100%,100%,100%);stroke-opacity:1;stroke-miterlimit:3.86371;" d="M 22.064062 379.460129 L 22.064062 373.57876 L 27.156278 370.638778 L 32.249901 373.57876 L 32.249901 379.460129 L 27.156278 382.40011 Z M 22.064062 379.460129 " transform="matrix(2.77691,0,0,2.77691,-46.652718,-832.218684)"/>
<path style=" stroke:none;fill-rule:nonzero;fill:rgb(100%,100%,100%);fill-opacity:1;" d="M 406.105469 218.890625 L 396.496094 224.4375 L 386.886719 218.890625 L 386.886719 207.796875 L 396.496094 202.246094 L 406.105469 207.796875 L 406.105469 218.890625 "/>
<path style="fill:none;stroke-width:0.574625;stroke-linecap:butt;stroke-linejoin:miter;stroke:rgb(100%,100%,100%);stroke-opacity:1;stroke-miterlimit:3.86371;" d="M 154.491229 379.460129 L 154.491229 373.57876 L 159.583446 370.638778 L 164.675662 373.57876 L 164.675662 379.460129 L 159.583446 382.40011 Z M 154.491229 379.460129 " transform="matrix(2.77691,0,0,2.77691,-46.652718,-832.218684)"/>
</g>
</svg>
