<svg width="291.000000" height="82.000000" viewBox="0 0 291 82" fill="none" xmlns="http://www.w3.org/2000/svg" xmlns:xlink="http://www.w3.org/1999/xlink">
	<desc>
			Created with Pixso.
	</desc>
	<defs/>
	<path id="路径 68" d="M1 8.99C1 8.99 31.75 -10.76 64.5 8.99C65 27.62 64.5 45.37 64.5 45.37C64.5 45.37 67.62 66.37 33.25 79.87C-0.5 68.99 1.12 45.37 1.12 45.37L1 8.99Z" fill="#FFFFFF" fill-opacity="1.000000" fill-rule="nonzero"/>
	<path id="路径 68" d="M64.5 8.99C65 27.62 64.5 45.37 64.5 45.37C64.5 45.37 67.62 66.37 33.25 79.87C-0.5 68.99 1.12 45.37 1.12 45.37L1 8.99C1 8.99 31.75 -10.76 64.5 8.99Z" stroke="#707070" stroke-opacity="0" stroke-width="1.000000"/>
	<path id="路径 1" d="M0.34 8.25C0.43 8.19 30.34 -11.27 65.1 8.03L65.48 8.24L65.49 45.13C65.5 45.2 66.44 69.03 33.01 80.92L32.79 81L32.57 80.93C32.48 80.91 3.03 72.69 0 46.81L0 9.45C0 9.11 0 8.78 0 8.46L0.34 8.25ZM64.01 9.11C32.27 -8.27 4.79 7.26 1.47 9.28L1.35 45.59C3.47 70.04 30.03 78.63 32.75 79.45C64.93 67.9 64.03 45.23 64.03 45.17L64.01 9.11Z" fill="#002972" fill-opacity="1.000000" fill-rule="evenodd"/>
	<path id="路径 2" d="M3.1 9.74C3.18 9.7 30.37 -7.47 62.72 9.7L62.92 9.8L63.05 44.46C63.05 44.52 63.8 66.59 33.07 77.52L32.96 77.56L32.84 77.52C32.76 77.5 5.05 69.32 2.92 44.78L2.92 9.85L3.1 9.74ZM62.19 10.25C31.74 -5.79 5.99 8.86 3.66 10.27L3.65 44.71C5.66 67.88 31.02 76.19 32.94 76.79C63.04 66.02 62.31 44.54 62.31 44.47L62.19 10.25Z" fill="#002972" fill-opacity="1.000000" fill-rule="evenodd"/>
	<path id="路径 3" d="M13.34 18.44C13.64 18.38 30.56 10.16 52.63 18.45L52.55 44.87C52.55 44.87 52.6 59.84 33.02 66.8C33.02 66.8 15.5 61.37 13.52 46.21L13.34 18.44Z" fill="#002972" fill-opacity="1.000000" fill-rule="evenodd"/>
	<path id="路径 4" d="M31.05 59.02C38.22 59.72 47.93 55.88 48.42 47.5C48.56 41.03 48.46 32.21 48.58 25.31C48.59 24.8 48.9 24.52 49.04 24.35C49.76 23.5 50 23.53 50 23.02C49.98 22.54 50.1 22.32 49.69 22.07L45.27 22.08L45.28 22.89L45.29 47.14C44.72 55.22 36.92 58.22 31.05 59.02Z" fill="#FFB900" fill-opacity="1.000000" fill-rule="evenodd"/>
	<path id="路径 5" d="M38.01 54.21C36.63 55.89 33.09 57.95 31.06 58.92C35.62 57.97 37.04 57.44 39.81 55.67C42.47 53.98 44.93 50.25 44.92 46.81L44.87 22.07L40.42 22.07C40.28 22.07 40.23 22.25 40.23 22.66C40.26 23.1 40.15 23.35 40.44 23.69L40.84 24.06C41.46 24.67 41.69 24.92 41.7 25.25C41.72 31.71 41.74 38.63 41.68 45.35C41.59 48.94 40.39 51.68 38.01 54.21Z" fill="#FFB900" fill-opacity="1.000000" fill-rule="evenodd"/>
	<path id="路径 6" d="M34.91 54.57C32.27 57.94 27.53 58.31 23.32 56.23C19.96 54.56 17.08 51.08 16.99 47.21C16.83 40.97 16.92 32.92 16.96 26C16.96 25.49 16.65 24.72 16.5 24.56C15.78 23.78 15.55 23.89 15.54 23.22C15.56 22.75 15.44 22.52 15.85 22.28L20.27 22.28C20.22 30.6 20.15 38.79 20.23 47.01C20.23 47.08 20.23 47.14 20.23 47.21C20.3 48.77 20.79 50.14 21.76 51.43C22.73 52.72 24.32 54.24 25.91 54.94C28.05 55.87 30.5 55.92 32.47 55.47C33.5 55.24 34.28 54.9 34.91 54.57Z" fill="#0091DB" fill-opacity="1.000000" fill-rule="evenodd"/>
	<path id="路径 7" d="M27.83 52.97C30.04 54.53 32.61 54.37 34.54 54.37C32.74 55.4 28.17 55.84 25.42 54.27C23.08 52.94 20.68 50.04 20.68 47.15L20.68 22.27L25.12 22.27C25.26 22.27 25.32 22.46 25.34 22.86C25.34 23.31 25.43 23.6 25.14 23.93L24.7 24.26C24.08 24.88 23.95 25.16 23.95 25.49C23.88 31.97 23.93 37.94 23.96 45.96C24.05 49.55 24.73 50.78 27.83 52.97Z" fill="#0091DB" fill-opacity="1.000000" fill-rule="evenodd"/>
	<path id="路径 8" d="M26.74 32.23C26.68 35 26.9 37.32 30.04 40.74C31.6 42.49 35.64 46.46 37.32 48.03C35.62 45.13 32.84 42 33.56 38.23C33.65 37.87 34.2 36.81 34.15 36.56C33.4 33.06 31.8 28.95 30.82 25.43C29.03 26.15 26.79 29.46 26.74 32.23Z" fill="#FFFFFF" fill-opacity="1.000000" fill-rule="evenodd"/>
	<path id="路径 9" d="M27.6 46.91C27.57 47.16 28.96 48.44 29.23 49C29.41 49.36 30.19 51.01 30.47 51.09C32.33 51.09 35.36 51.47 36.77 50.19C37.1 49.94 37.39 49.22 37.39 48.61C37.39 48.5 37.35 48.44 37.22 48.45C36.95 48.64 36.96 48.65 36.43 48.64C34.87 48.31 29.18 46.86 27.77 46.82C27.68 46.82 27.61 46.83 27.6 46.91Z" fill="#FFFFFF" fill-opacity="1.000000" fill-rule="evenodd"/>
	<path id="路径 10" d="M34.59 36.14C35.81 35.24 36.39 34.82 37.28 34.05C37.66 33.73 38.23 33.31 38.27 32.95C38.34 32.34 38.37 31.56 38.38 30.87C37.29 31.73 35.74 33.03 34.15 34.13L34.59 36.14Z" fill="#FFFFFF" fill-opacity="1.000000" fill-rule="evenodd"/>
	<path id="路径 11" d="M34.06 33.89C35 33.19 36.68 31.96 37.6 31.24C37.89 31.02 38.31 30.69 38.39 30.44C38.62 29.77 38.57 29.36 38.65 28.57C37.38 29.52 35.64 30.92 33.7 32.28L34.06 33.89Z" fill="#FFFFFF" fill-opacity="1.000000" fill-rule="evenodd"/>
	<path id="路径 12" d="M33.59 31.86C34.55 31.17 36.79 29.52 38.12 28.48C38.75 27.98 38.74 27.18 38.9 26.29C38.02 27.03 35.24 29.16 33.3 30.57L33.59 31.86Z" fill="#FFFFFF" fill-opacity="1.000000" fill-rule="evenodd"/>
	<path id="路径 13" d="M38.15 26.4C38.64 25.99 38.85 25.9 38.92 25.43C38.98 24.99 39.09 24.81 39.13 24.26C36.96 25.93 35.15 27.28 32.89 28.97C32.95 29.35 33.06 29.73 33.15 30.1C34.92 28.8 36.38 27.71 38.15 26.4Z" fill="#FFFFFF" fill-opacity="1.000000" fill-rule="evenodd"/>
	<path id="路径 14" d="M32.78 28.4C33.88 27.56 37.02 25.21 38.74 23.86C38.94 23.7 39.09 23.64 39.17 23.12L39.3 22.25C37.6 23.5 34.11 26.24 32.57 27.45L32.78 28.4Z" fill="#FFFFFF" fill-opacity="1.000000" fill-rule="evenodd"/>
	<path id="路径 15" d="M32.43 26.8C34.73 25.12 36.71 23.61 38.97 21.86C39.26 21.63 39.32 21.62 39.39 21.26L39.49 20.62C36.34 22.87 34.94 23.95 32.23 25.92L32.43 26.8Z" fill="#FFFFFF" fill-opacity="1.000000" fill-rule="evenodd"/>
	<path id="路径 16" d="M32.08 25.21C33.38 24.22 37.64 20.9 38.9 19.95C39.13 19.78 39.52 19.55 39.57 19.29L39.68 18.72C38.27 19.77 33.54 23.43 31.94 24.59L32.08 25.21Z" fill="#FFFFFF" fill-opacity="1.000000" fill-rule="evenodd"/>
	<path id="路径 17" d="M32.96 70.88L34.44 69L35.39 69L33.36 71.58L33.36 74.48L32.57 74.48L32.57 71.58L30.54 69L31.49 69L32.96 70.88Z" fill="#002972" fill-opacity="1.000000" fill-rule="evenodd"/>
	<path id="路径 18" d="M28.99 67.95L28.68 68.58L26.98 67.73L24.83 71.99L24.13 71.63L26.28 67.37L24.59 66.52L24.91 65.89L28.99 67.95Z" fill="#002972" fill-opacity="1.000000" fill-rule="evenodd"/>
	<rect id="矩形 1" x="18.930374" y="68.539200" width="5.479030" height="0.787262" transform="rotate(-54.3133 18.930374 68.539200)" fill="#002972" fill-opacity="1.000000"/>
	<path id="路径 19" d="M19.61 62.21L19.02 62.88C19 62.72 18.97 62.58 18.94 62.45C18.91 62.32 18.86 62.2 18.81 62.1C18.75 62 18.69 61.9 18.63 61.82C18.56 61.74 18.5 61.67 18.43 61.61C18.34 61.52 18.24 61.46 18.14 61.41C18.04 61.36 17.94 61.34 17.84 61.33C17.74 61.32 17.65 61.33 17.57 61.36C17.49 61.39 17.41 61.44 17.35 61.52C17.28 61.59 17.24 61.67 17.21 61.76C17.18 61.85 17.17 61.94 17.17 62.04C17.18 62.14 17.2 62.24 17.23 62.35C17.25 62.46 17.29 62.57 17.33 62.69C17.34 62.73 17.35 62.76 17.36 62.8C17.37 62.83 17.38 62.87 17.4 62.91C17.41 62.95 17.42 62.99 17.44 63.03C17.45 63.07 17.47 63.11 17.48 63.15C17.53 63.31 17.58 63.48 17.61 63.64C17.64 63.81 17.66 63.99 17.67 64.16C17.68 64.33 17.65 64.5 17.59 64.67C17.52 64.84 17.41 65 17.27 65.17C17.13 65.33 16.97 65.45 16.8 65.53C16.62 65.62 16.44 65.66 16.24 65.67C16.04 65.68 15.85 65.64 15.66 65.57C15.48 65.5 15.31 65.39 15.14 65.24C15.03 65.14 14.93 65.04 14.84 64.93C14.75 64.83 14.68 64.72 14.61 64.61C14.54 64.5 14.49 64.38 14.44 64.25C14.39 64.13 14.35 63.99 14.33 63.85L15 63.1C14.98 63.27 14.98 63.43 15 63.58C15.02 63.73 15.05 63.87 15.1 64C15.14 64.14 15.2 64.26 15.28 64.37C15.35 64.48 15.44 64.58 15.54 64.67C15.63 64.75 15.72 64.81 15.81 64.86C15.91 64.91 16 64.93 16.08 64.94C16.18 64.94 16.26 64.94 16.34 64.93C16.41 64.91 16.48 64.89 16.54 64.85L16.65 64.76C16.73 64.67 16.8 64.56 16.84 64.45C16.87 64.35 16.88 64.24 16.86 64.11C16.85 63.99 16.83 63.87 16.8 63.74C16.78 63.61 16.74 63.48 16.7 63.34C16.69 63.31 16.66 63.21 16.65 63.18C16.64 63.17 16.62 63.08 16.62 63.07C16.57 62.9 16.52 62.7 16.48 62.53C16.45 62.36 16.42 62.19 16.41 62.03C16.39 61.86 16.41 61.7 16.46 61.55C16.52 61.39 16.61 61.25 16.74 61.11C16.88 60.94 17.04 60.82 17.22 60.74C17.39 60.66 17.58 60.61 17.78 60.61C17.98 60.62 18.18 60.66 18.38 60.75C18.57 60.83 18.76 60.95 18.95 61.12C18.99 61.16 19.03 61.19 19.06 61.23C19.1 61.27 19.13 61.31 19.17 61.35C19.2 61.38 19.23 61.42 19.26 61.47C19.29 61.51 19.32 61.56 19.35 61.61C19.41 61.7 19.46 61.8 19.5 61.9C19.54 62 19.59 62.1 19.61 62.21Z" fill="#002972" fill-opacity="1.000000" fill-rule="evenodd"/>
	<path id="路径 20" d="M14.05 55.16L14.83 56.3C14.98 56.53 15.09 56.76 15.16 56.98C15.23 57.2 15.25 57.41 15.23 57.62C15.21 57.83 15.14 58.02 15.03 58.2C14.92 58.37 14.77 58.52 14.57 58.66C14.44 58.75 14.31 58.82 14.17 58.86C14.04 58.9 13.9 58.93 13.76 58.92C13.62 58.92 13.48 58.9 13.35 58.86C13.21 58.81 13.08 58.75 12.95 58.66C12.95 58.75 12.94 58.85 12.93 58.94C12.92 59.03 12.91 59.12 12.89 59.21C12.87 59.3 12.84 59.4 12.81 59.49C12.78 59.59 12.75 59.68 12.71 59.78C12.68 59.84 12.65 59.9 12.63 59.96C12.61 60.02 12.58 60.08 12.55 60.14C12.53 60.21 12.5 60.27 12.47 60.33C12.44 60.4 12.42 60.46 12.39 60.53C12.38 60.54 12.34 60.64 12.33 60.65C12.32 60.68 12.3 60.74 12.28 60.77C12.28 60.77 12.24 60.87 12.24 60.87C12.22 60.92 12.18 61.04 12.16 61.1C12.14 61.16 12.12 61.22 12.09 61.28C12.07 61.35 12.04 61.42 12.02 61.5C11.99 61.57 11.96 61.66 11.93 61.75L11.4 60.98L11.92 59.74C12.02 59.49 12.1 59.26 12.16 59.07C12.22 58.88 12.26 58.72 12.27 58.6C12.28 58.48 12.28 58.36 12.27 58.26C12.26 58.16 12.24 58.08 12.2 58L12.14 57.9L11.94 57.56L9.98 58.91L9.53 58.26L14.05 55.16ZM13.94 56.19L12.52 57.16L12.81 57.58C12.92 57.76 13.03 57.89 13.15 57.98C13.27 58.07 13.38 58.13 13.5 58.14C13.61 58.15 13.72 58.14 13.83 58.12C13.93 58.09 14.03 58.04 14.13 57.98C14.23 57.9 14.32 57.81 14.38 57.72C14.44 57.62 14.48 57.52 14.49 57.42C14.5 57.3 14.49 57.18 14.44 57.05C14.39 56.91 14.32 56.77 14.21 56.61L13.94 56.19Z" fill="#002972" fill-opacity="1.000000" fill-rule="evenodd"/>
	<path id="路径 21" d="M12.61 52.67L11.95 52.94L11.05 50.8L9.53 51.45L10.4 53.51L9.75 53.79L8.88 51.72L7.31 52.39L8.24 54.59L7.59 54.87L6.35 51.94L11.4 49.8L12.61 52.67Z" fill="#002972" fill-opacity="1.000000" fill-rule="evenodd"/>
	<path id="路径 22" d="M10.94 47.93L5.41 45.61L5.41 45.44L10.94 43.08L10.94 43.86L7.09 45.51L10.94 47.15L10.94 47.93Z" fill="#002972" fill-opacity="1.000000" fill-rule="evenodd"/>
	<rect id="矩形 2" x="5.463364" y="39.626556" width="5.478862" height="0.787122" fill="#002972" fill-opacity="1.000000"/>
	<path id="路径 23" d="M10.96 36.47L5.48 36.47L5.48 35.79L9.7 32.13L5.48 32.13L5.48 31.39L10.96 31.39L10.96 32.02L6.72 35.73L10.96 35.73L10.96 36.47Z" fill="#002972" fill-opacity="1.000000" fill-rule="evenodd"/>
	<path id="路径 24" d="M10.94 28.22L7.61 28.22C7.27 28.22 6.96 28.17 6.69 28.06C6.42 27.96 6.18 27.81 5.98 27.61C5.78 27.41 5.63 27.16 5.53 26.85C5.44 26.55 5.39 26.19 5.39 25.78C5.39 25.49 5.43 25.22 5.51 24.95C5.59 24.69 5.72 24.44 5.88 24.21C6.06 23.97 6.28 23.79 6.55 23.68C6.82 23.56 7.14 23.5 7.52 23.5L10.94 23.5L10.94 24.29L7.7 24.29C7.53 24.29 7.39 24.29 7.27 24.31C7.16 24.32 7.06 24.34 6.98 24.36C6.9 24.39 6.82 24.42 6.75 24.46C6.68 24.5 6.62 24.55 6.56 24.62C6.48 24.69 6.41 24.77 6.35 24.86C6.3 24.95 6.25 25.05 6.21 25.15C6.17 25.24 6.14 25.35 6.12 25.46C6.1 25.57 6.09 25.68 6.09 25.8C6.09 25.95 6.1 26.09 6.13 26.22C6.15 26.34 6.18 26.46 6.22 26.57C6.26 26.68 6.31 26.77 6.36 26.86C6.41 26.94 6.47 27.02 6.53 27.08C6.6 27.15 6.68 27.21 6.76 27.26C6.85 27.3 6.94 27.34 7.04 27.36C7.14 27.38 7.25 27.4 7.37 27.41C7.48 27.42 7.6 27.43 7.73 27.43L10.94 27.43L10.94 28.22Z" fill="#002972" fill-opacity="1.000000" fill-rule="evenodd"/>
	<path id="路径 25" d="M39.62 69.44C39.42 69.12 39.28 68.79 39.22 68.44C39.16 68.1 39.16 67.73 39.24 67.36C39.32 66.98 39.47 66.63 39.69 66.32C39.92 66.01 40.22 65.74 40.59 65.5C40.97 65.26 41.35 65.1 41.73 65.02C42.11 64.94 42.48 64.95 42.86 65.05C43.23 65.14 43.56 65.28 43.85 65.49C44.14 65.7 44.38 65.96 44.59 66.28C44.79 66.59 44.92 66.92 44.99 67.27C45.05 67.62 45.05 67.98 44.98 68.36C44.91 68.73 44.76 69.08 44.53 69.39C44.29 69.71 43.98 69.99 43.6 70.24C43.22 70.48 42.84 70.63 42.47 70.71C42.1 70.78 41.72 70.77 41.35 70.68C40.97 70.58 40.64 70.43 40.36 70.23C40.07 70.03 39.82 69.76 39.62 69.44ZM40.3 69C40.47 69.26 40.66 69.47 40.88 69.63C41.1 69.78 41.35 69.89 41.62 69.95C41.9 70.01 42.17 70.01 42.44 69.96C42.71 69.9 42.97 69.79 43.23 69.63C43.49 69.47 43.7 69.27 43.86 69.05C44.02 68.83 44.13 68.58 44.2 68.31C44.26 68.03 44.27 67.76 44.22 67.5C44.17 67.23 44.07 66.97 43.91 66.72C43.74 66.47 43.55 66.26 43.33 66.11C43.11 65.95 42.86 65.85 42.59 65.79C42.31 65.73 42.04 65.73 41.77 65.78C41.5 65.84 41.24 65.95 40.98 66.11C40.72 66.27 40.51 66.47 40.35 66.69C40.19 66.91 40.08 67.16 40.01 67.43C39.95 67.71 39.95 67.98 40 68.24C40.04 68.5 40.14 68.75 40.3 69Z" fill="#002972" fill-opacity="1.000000" fill-rule="evenodd"/>
	<path id="路径 26" d="M47.63 60.52L48.09 61.05L46.48 62.46L47.48 63.6L49.09 62.2L49.55 62.73L47.94 64.14L49.61 66.06L49.02 66.57L45.42 62.44L47.63 60.52Z" fill="#002972" fill-opacity="1.000000" fill-rule="evenodd"/>
	<path id="路径 27" d="M56.79 32.96L54.9 31.47L54.9 30.52L57.49 32.56L60.38 32.56L60.38 33.35L57.48 33.34L54.9 35.37L54.9 34.43L56.79 32.96Z" fill="#002972" fill-opacity="1.000000" fill-rule="evenodd"/>
	<path id="路径 28" d="M54.91 37.93L60.39 37.93L60.39 38.6L56.17 42.26L60.39 42.26L60.39 43L54.91 43L54.91 42.38L59.15 38.66L54.91 38.66L54.91 37.93Z" fill="#002972" fill-opacity="1.000000" fill-rule="evenodd"/>
	<path id="路径 29" d="M54.81 26.14L60.32 23.69L60.32 24.49L58.7 25.22L58.7 27.55L60.32 28.24L60.32 29.05L54.81 26.69L54.81 26.14ZM56.01 26.43L58 27.25L58 25.55L56.01 26.43Z" fill="#002972" fill-opacity="1.000000" fill-rule="evenodd"/>
	<path id="路径 30" d="M53.14 52.64L53.96 52.99C53.82 53.06 53.69 53.13 53.58 53.2C53.47 53.28 53.37 53.36 53.3 53.44C53.21 53.53 53.14 53.61 53.09 53.7C53.03 53.79 52.98 53.87 52.95 53.96C52.9 54.07 52.87 54.19 52.86 54.3C52.85 54.41 52.85 54.51 52.87 54.61C52.9 54.7 52.94 54.78 52.99 54.85C53.05 54.92 53.12 54.97 53.21 55.01C53.3 55.05 53.4 55.07 53.49 55.06C53.58 55.06 53.67 55.04 53.76 55.01C53.85 54.96 53.95 54.91 54.04 54.85C54.14 54.8 54.23 54.73 54.33 54.65C54.36 54.63 54.48 54.54 54.52 54.51C54.55 54.49 54.68 54.38 54.72 54.35C54.85 54.25 54.99 54.16 55.14 54.08C55.29 53.99 55.45 53.92 55.61 53.85C55.77 53.78 55.94 53.76 56.12 53.76C56.3 53.77 56.49 53.82 56.69 53.91C56.89 53.99 57.06 54.1 57.19 54.23C57.33 54.37 57.43 54.53 57.5 54.72C57.57 54.91 57.6 55.1 57.59 55.29C57.58 55.49 57.54 55.69 57.45 55.89C57.39 56.03 57.33 56.16 57.26 56.28C57.19 56.4 57.11 56.5 57.03 56.6C56.94 56.7 56.84 56.79 56.74 56.88C56.64 56.97 56.52 57.04 56.4 57.12L55.47 56.72C55.64 56.68 55.79 56.63 55.92 56.56C56.06 56.5 56.18 56.42 56.29 56.34C56.41 56.25 56.5 56.15 56.58 56.05C56.66 55.94 56.73 55.83 56.78 55.7C56.83 55.59 56.86 55.48 56.87 55.38C56.89 55.28 56.88 55.19 56.86 55.1C56.83 55.01 56.8 54.93 56.77 54.87C56.73 54.8 56.68 54.75 56.63 54.7C56.62 54.7 56.53 54.64 56.53 54.63C56.41 54.58 56.27 54.54 56.16 54.55C56.05 54.55 55.94 54.58 55.83 54.63C55.72 54.68 55.61 54.74 55.49 54.81C55.38 54.87 55.26 54.95 55.14 55.03C55.12 55.05 55.04 55.12 55.01 55.13C55 55.14 54.93 55.19 54.91 55.2C54.77 55.3 54.6 55.42 54.45 55.5C54.3 55.59 54.15 55.67 54 55.74C53.85 55.81 53.69 55.84 53.53 55.84C53.36 55.83 53.19 55.8 53.02 55.72C52.82 55.64 52.65 55.53 52.52 55.39C52.38 55.25 52.29 55.09 52.22 54.9C52.16 54.7 52.13 54.5 52.15 54.29C52.17 54.08 52.22 53.85 52.32 53.62C52.34 53.57 52.36 53.53 52.39 53.48C52.41 53.43 52.43 53.39 52.47 53.34C52.49 53.3 52.52 53.26 52.55 53.22C52.58 53.18 52.62 53.13 52.65 53.09C52.72 53 52.8 52.92 52.88 52.85C52.97 52.78 53.04 52.7 53.14 52.64Z" fill="#002972" fill-opacity="1.000000" fill-rule="evenodd"/>
	<path id="路径 31" d="M54.42 47.64L60.31 46.38L60.15 47.17L58.42 47.55L57.94 49.83L59.37 50.84L59.21 51.62L54.3 48.19L54.42 47.64ZM55.53 48.17L57.31 49.39L57.66 47.72L55.53 48.17Z" fill="#002972" fill-opacity="1.000000" fill-rule="evenodd"/>
	<path id="路径 32" d="M88.32 58.83L88.32 66.46C88.32 67.25 88.21 67.95 87.97 68.56C87.73 69.18 87.38 69.74 86.92 70.2C86.46 70.66 85.89 70.99 85.19 71.21C84.49 71.45 83.68 71.56 82.74 71.56C82.08 71.56 81.45 71.47 80.84 71.28C80.23 71.08 79.66 70.8 79.13 70.42C78.59 70.03 78.19 69.51 77.91 68.89C77.64 68.28 77.51 67.54 77.51 66.68L77.51 58.83L79.31 58.83L79.31 66.25C79.31 66.64 79.33 66.95 79.37 67.23C79.39 67.51 79.42 67.73 79.48 67.91C79.53 68.1 79.62 68.26 79.7 68.43C79.81 68.59 79.92 68.74 80.07 68.87C80.23 69.05 80.44 69.22 80.62 69.33C80.84 69.48 81.04 69.59 81.28 69.68C81.5 69.77 81.74 69.83 81.98 69.88C82.24 69.92 82.5 69.94 82.78 69.94C83.13 69.94 83.44 69.92 83.73 69.86C84.03 69.81 84.3 69.74 84.54 69.64C84.78 69.55 85 69.44 85.21 69.33C85.41 69.2 85.58 69.07 85.72 68.93C85.89 68.76 86.02 68.59 86.11 68.41C86.22 68.21 86.29 68 86.35 67.76C86.4 67.53 86.46 67.29 86.48 67.01C86.5 66.75 86.51 66.48 86.51 66.18L86.51 58.83L88.32 58.83Z" fill="#FFFFFF" fill-opacity="1.000000" fill-rule="evenodd"/>
	<path id="路径 33" d="M103.46 58.83L103.46 71.39L101.91 71.39L93.51 61.72L93.51 71.39L91.81 71.39L91.81 58.83L93.25 58.83L101.76 68.56L101.76 58.83L103.46 58.83Z" fill="#FFFFFF" fill-opacity="1.000000" fill-rule="evenodd"/>
	<rect id="矩形 3" x="107.265839" y="58.835190" width="1.805438" height="12.563394" fill="#FFFFFF" fill-opacity="1.000000"/>
	<path id="路径 34" d="M122.62 58.83L117.29 71.5L116.92 71.5L111.49 58.83L113.3 58.83L117.07 67.65L120.83 58.83L122.62 58.83Z" fill="#FFFFFF" fill-opacity="1.000000" fill-rule="evenodd"/>
	<path id="路径 35" d="M132.15 58.83L132.15 60.45L126.83 60.45L126.83 64.25L131.97 64.25L131.97 65.87L126.83 65.87L126.83 69.77L132.32 69.77L132.32 71.39L125.02 71.39L125.02 58.83L132.15 58.83Z" fill="#FFFFFF" fill-opacity="1.000000" fill-rule="evenodd"/>
	<path id="路径 36" d="M135.29 58.83L138.46 58.83C139.11 58.85 139.68 58.94 140.18 59.09C140.67 59.25 141.12 59.49 141.48 59.81C141.85 60.12 142.13 60.49 142.31 60.93C142.5 61.35 142.59 61.85 142.59 62.39C142.59 62.75 142.53 63.1 142.46 63.4C142.35 63.73 142.22 64.01 142.04 64.26C141.85 64.54 141.63 64.76 141.37 64.96C141.12 65.17 140.82 65.33 140.49 65.46C140.66 65.59 140.82 65.72 140.99 65.85C141.15 65.98 141.3 66.13 141.45 66.29C141.59 66.46 141.74 66.62 141.87 66.79C142.02 66.97 142.17 67.17 142.29 67.38C142.37 67.51 142.44 67.62 142.53 67.75C142.61 67.88 142.68 68 142.77 68.13C142.87 68.26 142.94 68.39 143.03 68.52C143.12 68.67 143.2 68.81 143.29 68.94C143.31 68.98 143.38 69.11 143.4 69.13C143.4 69.15 143.47 69.27 143.49 69.29C143.53 69.35 143.57 69.4 143.6 69.44C143.64 69.51 143.67 69.55 143.71 69.61C143.73 69.63 143.77 69.72 143.79 69.74C143.86 69.85 143.97 69.99 144.06 70.1C144.16 70.23 144.23 70.36 144.32 70.49C144.41 70.62 144.52 70.75 144.63 70.91C144.74 71.06 144.87 71.23 145 71.39L142.85 71.39L141.19 68.81C140.84 68.28 140.53 67.84 140.25 67.49C139.95 67.12 139.7 66.84 139.49 66.66C139.27 66.48 139.07 66.33 138.85 66.22C138.67 66.11 138.46 66.03 138.28 66.01C138.28 66.01 138.19 66.01 138.17 66L138.06 66L137.91 65.98L137.1 65.94L137.1 71.39L135.29 71.39L135.29 58.83ZM137.1 60.38L137.1 64.32L138.26 64.32C138.74 64.34 139.14 64.3 139.48 64.21C139.79 64.1 140.05 63.95 140.21 63.75C140.38 63.55 140.51 63.33 140.6 63.09C140.69 62.85 140.73 62.61 140.73 62.35C140.71 62.05 140.66 61.76 140.56 61.52C140.47 61.28 140.32 61.1 140.14 60.93C139.94 60.76 139.7 60.64 139.37 60.54C139.07 60.45 138.68 60.41 138.26 60.41L137.1 60.38Z" fill="#FFFFFF" fill-opacity="1.000000" fill-rule="evenodd"/>
	<path id="路径 37" d="M153.38 59.55L153.38 61.59C153.1 61.35 152.84 61.15 152.58 60.99C152.33 60.82 152.07 60.69 151.83 60.6C151.57 60.51 151.33 60.43 151.09 60.38C150.85 60.34 150.63 60.32 150.43 60.32C150.13 60.32 149.86 60.36 149.64 60.43C149.38 60.51 149.18 60.62 148.99 60.75C148.81 60.88 148.68 61.04 148.57 61.23C148.49 61.39 148.44 61.59 148.44 61.81C148.44 62.05 148.48 62.26 148.57 62.44C148.66 62.64 148.77 62.81 148.94 62.98C149.1 63.14 149.31 63.29 149.51 63.44C149.71 63.58 149.95 63.73 150.19 63.86C150.26 63.91 150.34 63.95 150.41 63.99C150.48 64.04 150.56 64.08 150.65 64.14C150.74 64.19 150.82 64.23 150.91 64.28C151 64.32 151.07 64.36 151.17 64.41C151.5 64.61 151.81 64.84 152.14 65.06C152.44 65.31 152.75 65.57 153.03 65.85C153.3 66.12 153.52 66.46 153.65 66.86C153.8 67.23 153.87 67.69 153.87 68.19C153.87 68.69 153.8 69.13 153.62 69.53C153.47 69.94 153.21 70.31 152.88 70.62C152.55 70.93 152.18 71.17 151.74 71.32C151.33 71.49 150.85 71.56 150.36 71.56C150 71.56 149.67 71.54 149.38 71.5C149.05 71.45 148.75 71.39 148.48 71.3C148.2 71.21 147.91 71.08 147.65 70.95C147.35 70.8 147.1 70.64 146.84 70.44L146.84 68.11C147.08 68.43 147.32 68.7 147.57 68.92C147.83 69.16 148.11 69.35 148.38 69.51C148.66 69.68 148.96 69.79 149.25 69.86C149.55 69.94 149.84 69.98 150.15 69.98C150.43 69.98 150.69 69.94 150.93 69.88C151.15 69.83 151.33 69.74 151.5 69.61C151.66 69.48 151.81 69.33 151.92 69.2C152.01 69.07 152.09 68.92 152.14 68.76C152.16 68.74 152.16 68.61 152.18 68.58L152.2 68.45C152.2 68.17 152.14 67.86 152.03 67.64C151.94 67.4 151.77 67.19 151.57 67.01C151.37 66.82 151.15 66.64 150.89 66.46C150.67 66.27 150.39 66.09 150.12 65.92C150.06 65.9 150 65.87 149.97 65.83C149.89 65.81 149.84 65.78 149.78 65.74C149.77 65.72 149.66 65.65 149.64 65.63C149.62 65.63 149.51 65.55 149.49 65.54C149.14 65.33 148.83 65.11 148.49 64.87C148.2 64.63 147.89 64.39 147.61 64.14C147.33 63.88 147.11 63.58 146.98 63.21C146.84 62.88 146.76 62.48 146.76 62.05C146.76 61.56 146.86 61.1 147.02 60.69C147.19 60.29 147.45 59.94 147.79 59.62C148.14 59.31 148.57 59.09 149.01 58.94C149.49 58.78 150 58.7 150.58 58.7C150.71 58.7 150.82 58.7 150.93 58.72C151.06 58.72 151.17 58.74 151.3 58.76C151.41 58.78 151.52 58.79 151.63 58.83C151.75 58.85 151.87 58.89 151.99 58.92C152.23 59 152.47 59.09 152.69 59.2C152.93 59.31 153.16 59.4 153.38 59.55Z" fill="#FFFFFF" fill-opacity="1.000000" fill-rule="evenodd"/>
	<rect id="矩形 4" x="156.892181" y="58.835190" width="1.805684" height="12.563394" fill="#FFFFFF" fill-opacity="1.000000"/>
	<path id="路径 38" d="M171.93 58.83L171.93 60.45L167.58 60.45L167.58 71.39L165.78 71.39L165.78 60.45L161.43 60.45L161.43 58.83L171.93 58.83Z" fill="#FFFFFF" fill-opacity="1.000000" fill-rule="evenodd"/>
	<path id="路径 39" d="M178.81 63.16L182.22 58.83L184.39 58.83L179.73 64.76L179.73 71.39L177.93 71.39L177.93 64.74L173.27 58.83L175.44 58.83L178.81 63.16ZM195.47 65.11C195.47 64.25 195.61 63.45 195.93 62.7C196.24 61.94 196.7 61.26 197.31 60.62C197.92 59.97 198.63 59.49 199.46 59.18C200.27 58.87 201.19 58.7 202.21 58.7C203.24 58.7 204.18 58.87 204.99 59.18C205.84 59.49 206.54 59.97 207.14 60.62C207.75 61.26 208.21 61.96 208.53 62.7C208.82 63.47 208.97 64.28 208.97 65.15C208.97 66 208.82 66.79 208.53 67.54C208.21 68.3 207.77 69 207.16 69.64C206.55 70.29 205.84 70.77 205.01 71.08C204.18 71.39 203.22 71.56 202.17 71.56C201.14 71.56 200.22 71.39 199.41 71.08C198.6 70.77 197.88 70.29 197.27 69.64C196.66 69 196.22 68.3 195.93 67.56C195.61 66.81 195.47 65.98 195.47 65.11ZM197.33 65.11C197.33 65.83 197.44 66.46 197.68 67.05C197.92 67.6 198.25 68.11 198.71 68.58C199.17 69.04 199.7 69.37 200.27 69.59C200.86 69.83 201.51 69.94 202.21 69.94C202.91 69.94 203.55 69.83 204.14 69.59C204.73 69.37 205.25 69.04 205.71 68.58C206.17 68.11 206.52 67.6 206.76 67.05C207 66.46 207.11 65.83 207.11 65.15C207.11 64.47 207 63.84 206.76 63.25C206.52 62.7 206.17 62.18 205.71 61.72C205.25 61.26 204.73 60.93 204.14 60.71C203.55 60.47 202.91 60.36 202.21 60.36C201.51 60.36 200.86 60.47 200.27 60.71C199.7 60.93 199.17 61.26 198.71 61.72C198.25 62.18 197.92 62.7 197.68 63.25C197.44 63.84 197.33 64.43 197.33 65.11Z" fill="#FFFFFF" fill-opacity="1.000000" fill-rule="evenodd"/>
	<path id="路径 40" d="M218.93 58.83L218.93 60.45L214.03 60.45L214.03 63.93L218.93 63.93L218.93 65.55L214.03 65.55L214.03 71.39L212.22 71.39L212.22 58.83L218.93 58.83ZM237.05 59.55L237.05 61.59C236.78 61.35 236.52 61.15 236.26 60.99C236 60.82 235.75 60.69 235.51 60.6C235.25 60.51 235.01 60.43 234.77 60.38C234.53 60.34 234.31 60.32 234.11 60.32C233.81 60.32 233.53 60.36 233.31 60.43C233.06 60.51 232.85 60.62 232.67 60.75C232.48 60.88 232.36 61.04 232.25 61.23C232.17 61.39 232.12 61.59 232.12 61.81C232.12 62.05 232.15 62.26 232.25 62.44C232.34 62.64 232.45 62.81 232.61 62.98C232.78 63.14 232.98 63.29 233.18 63.44C233.39 63.58 233.63 63.73 233.87 63.86C233.94 63.91 234.01 63.95 234.09 63.99C234.16 64.04 234.23 64.08 234.33 64.14C234.42 64.19 234.49 64.23 234.58 64.28C234.68 64.32 234.75 64.36 234.84 64.41C235.17 64.61 235.49 64.84 235.82 65.06C236.11 65.31 236.43 65.57 236.7 65.85C236.98 66.12 237.2 66.46 237.33 66.86C237.48 67.23 237.55 67.69 237.55 68.19C237.55 68.69 237.48 69.13 237.29 69.53C237.15 69.94 236.89 70.31 236.56 70.62C236.22 70.93 235.86 71.17 235.41 71.32C235.01 71.49 234.53 71.56 234.03 71.56C233.68 71.56 233.35 71.54 233.06 71.5C232.72 71.45 232.43 71.39 232.15 71.3C231.88 71.21 231.58 71.08 231.32 70.95C231.03 70.8 230.77 70.64 230.51 70.44L230.51 68.11C230.75 68.43 230.99 68.7 231.25 68.92C231.51 69.16 231.78 69.35 232.06 69.51C232.34 69.68 232.63 69.79 232.93 69.86C233.22 69.94 233.52 69.98 233.83 69.98C234.11 69.98 234.36 69.94 234.6 69.88C234.82 69.83 235.01 69.74 235.17 69.61C235.34 69.48 235.49 69.33 235.6 69.2C235.69 69.07 235.76 68.92 235.82 68.76C235.84 68.74 235.84 68.61 235.86 68.58L235.87 68.45C235.87 68.17 235.82 67.86 235.71 67.64C235.62 67.4 235.45 67.19 235.25 67.01C235.04 66.82 234.82 66.64 234.57 66.46C234.35 66.27 234.07 66.09 233.79 65.92C233.74 65.9 233.68 65.87 233.65 65.83C233.57 65.81 233.52 65.78 233.46 65.74C233.44 65.72 233.33 65.65 233.31 65.63C233.3 65.63 233.18 65.55 233.17 65.54C232.82 65.33 232.5 65.11 232.17 64.87C231.88 64.63 231.56 64.39 231.29 64.14C231.01 63.88 230.79 63.58 230.66 63.21C230.51 62.88 230.44 62.48 230.44 62.05C230.44 61.56 230.53 61.1 230.7 60.69C230.86 60.29 231.12 59.94 231.47 59.62C231.82 59.31 232.25 59.09 232.69 58.94C233.17 58.78 233.68 58.7 234.25 58.7C234.38 58.7 234.49 58.7 234.6 58.72C234.73 58.72 234.84 58.74 234.97 58.76C235.08 58.78 235.19 58.79 235.3 58.83C235.43 58.85 235.54 58.89 235.67 58.92C235.91 59 236.15 59.09 236.37 59.2C236.61 59.31 236.83 59.4 237.05 59.55Z" fill="#FFFFFF" fill-opacity="1.000000" fill-rule="evenodd"/>
	<path id="路径 41" d="M245.83 58.76L251.45 71.39L249.61 71.39L247.93 67.69L242.59 67.69L241.01 71.39L239.16 71.39L244.56 58.76L245.83 58.76ZM245.17 61.52L243.29 66.07L247.2 66.07L245.17 61.52Z" fill="#FFFFFF" fill-opacity="1.000000" fill-rule="evenodd"/>
	<path id="路径 42" d="M265.48 58.83L265.48 71.39L263.93 71.39L255.53 61.72L255.53 71.39L253.84 71.39L253.84 58.83L255.28 58.83L263.79 68.56L263.79 58.83L265.48 58.83Z" fill="#FFFFFF" fill-opacity="1.000000" fill-rule="evenodd"/>
	<path id="路径 43" d="M273.43 63.16L276.84 58.83L279.01 58.83L274.35 64.76L274.35 71.39L272.55 71.39L272.55 64.74L267.89 58.83L270.06 58.83L273.43 63.16Z" fill="#FFFFFF" fill-opacity="1.000000" fill-rule="evenodd"/>
	<path id="路径 44" d="M284.68 58.76L290.3 71.39L288.46 71.39L286.78 67.69L281.44 67.69L279.85 71.39L278.01 71.39L283.41 58.76L284.68 58.76ZM284.02 61.52L282.14 66.07L286.04 66.07L284.02 61.52Z" fill="#FFFFFF" fill-opacity="1.000000" fill-rule="evenodd"/>
	<path id="路径 45" d="M88.06 14.86C88.52 14.24 88.3 14.07 89.56 14.07C90.55 14.07 93.1 14.31 93.83 14.01C95.02 13.52 101.99 12.12 102.99 12.12C105.2 12.12 109.54 12.62 109.9 15.52C110.05 16.79 110.53 17.02 108.8 18C107.35 18.81 106.03 18.41 103.88 19.85C103.2 20.3 99 23.21 99.53 23.21C100.5 23.21 100.79 23.04 101.73 22.93C105.04 22.52 109.53 24.75 108.03 28.7C107.88 29.09 107.78 31.02 104.87 31.14C103.73 31.19 99.93 31.53 98.66 31.38C98.35 31.34 99.39 30.69 98.98 30.66C98.19 30.62 97.29 30.98 96.7 30.97C96.36 30.97 96.29 30.81 96.55 30.7C97.74 30.2 98.95 29.59 100.13 29.05C102.11 28.12 101.41 27.57 99.6 28.21C98.24 28.68 94.89 29.84 94.75 29.88C91.78 30.66 90.19 28.5 90.56 25.65C90.64 25.01 91.66 24.88 93.03 24.24C93.92 23.83 99.42 21.05 99.42 20.07C99.43 20.07 98.07 20.65 97.43 21.03C96.14 21.79 93.46 21.39 92.24 20.43C91.58 19.9 87.31 15.86 88.06 14.86Z" fill="#FFFFFF" fill-opacity="1.000000" fill-rule="evenodd"/>
	<path id="路径 46" d="M86.49 40.14C93.6 40.36 103.2 36.89 111.18 37.13C114.92 37.24 118.39 40.98 116.05 44.35C115.1 45.71 111.2 45.48 110.46 45.25C102.52 42.77 94.74 44.99 86.77 45.62C82.76 45.94 80.12 46.74 78.23 43.7C78.02 43.36 77.39 41.9 77.72 40.76C78.59 37.71 87.02 35.78 90.29 34.98C90.55 34.92 90.79 35.02 90.43 35.18C90.09 35.33 89.78 35.47 89.52 35.6C88.95 35.89 88.72 36.29 89.71 35.9C91.31 35.27 93.35 34.67 95.17 34.46C95.44 34.43 95.45 34.56 95.19 34.66C94.72 34.85 81.21 39.98 86.49 40.14Z" fill="#FFFFFF" fill-opacity="1.000000" fill-rule="evenodd"/>
	<path id="路径 47" d="M154.05 19.22C154.18 19.13 154.43 18.74 154.12 18.55C153.83 18.37 151.25 18.43 149.8 18.15C147.9 17.79 145.43 16.32 144.48 14.83C144.02 14.11 144.35 13.6 145.07 13.48C145.81 13.35 147.29 13.78 148.29 13.78C151.75 13.78 159.9 12.34 163.25 11.29C167.1 10.07 168.95 13.9 167.41 15.22C166.55 15.96 163.1 16.38 161.55 17.36C161.37 17.48 161.05 18.46 160.94 19.13C160.77 20.07 160.56 26.02 160.81 26C161.47 25.95 164.14 25.4 166.03 25.33C168.2 25.26 170.58 25.99 171.46 28.22C172.47 30.82 170.43 31.87 168.15 32.25C164.46 32.88 163.16 32.54 161.44 32.73C161.08 32.77 161.22 32.72 161.21 33.24C161.21 33.26 161.17 37.43 161.34 37.5C162.09 37.84 165.87 37.42 166.56 37.45C169.17 37.6 170.69 38.08 172.1 39.53C176.98 44.55 172.97 47.62 169.96 45.84C167.9 44.62 167.6 43.41 164.68 43.41C160.29 43.41 155.33 44.06 151.43 44.97C147.84 45.8 145.33 46.92 143.58 46.87C141.46 46.81 136.24 43.73 136.98 40.3C137.16 39.5 138.58 38.46 139.56 39.61C139.99 40.11 141.2 40.24 142.79 40.15C143.5 40.11 156.71 38.21 156.99 37.97C155.73 36.58 154.65 32.34 154.24 32.27C154.04 33.66 154.55 34.97 154.25 36.5C154.07 37.43 152.71 38.35 151.9 37.73C151.23 37.21 150.28 36.16 150.69 35.33C150.82 35.07 150.9 34.78 150.98 34.51C151.08 34.2 151.4 29.56 151.31 29.51C151.07 29.37 150.21 29.7 149.95 29.88C149.12 30.44 147.39 31.39 146.89 32.16C146.43 32.87 144.75 33.43 143.89 32.8C138.81 29.11 141.62 24.3 143.53 25.31C143.72 25.41 144.02 25.33 144.28 25.87C144.63 26.58 145.15 27.54 145.73 28.07C146.09 28.41 147.58 28.33 148.14 28.33C149.1 28.33 150.87 28.02 151.62 27.38C152.03 27.02 152.02 20.68 154.05 19.22ZM160.91 27.4C160.85 27.41 160.83 27.44 160.83 27.51C160.91 28.8 160.96 29.93 161.06 31.22C161.08 31.36 165.44 30.05 165.73 29.93C171.35 27.65 162.65 27.33 160.91 27.4ZM154.33 28.57C153.82 28.74 154.15 31.21 154.34 31.29C154.76 31.46 155.33 31.77 155.71 32.02C155.94 32.16 156.56 31.96 156.51 31.5C156.48 31.25 156.85 29.19 156.84 28.31C156.83 27.09 154.33 28.55 154.33 28.57ZM157.59 18.73C157.23 18.27 155.35 19.24 155.14 19.92C154.48 22.01 153.84 24.38 154.05 26.61C154.11 27.29 156.06 26.62 156.53 26.41C157.2 26.12 157.89 19.12 157.59 18.73Z" fill="#FFFFFF" fill-opacity="1.000000" fill-rule="evenodd"/>
	<path id="路径 48" d="M209.04 20.57C209.09 21.3 207.34 24.43 206.88 25.32C206.81 25.43 206.78 25.43 206.7 25.55C206.51 25.82 206.31 26.33 206.08 26.61C205.96 26.75 206.04 26.67 205.85 26.88C205.09 27.75 206.57 18.03 205.69 17.48C205.32 17.58 205.27 18.58 205.22 18.89C204.71 21.67 204.4 24.22 204.05 27.03C204.01 28.06 203.83 28.63 204.66 29.34C204.87 29.52 205.02 29.57 205.25 29.74C205.01 29.86 203.19 30.66 203 30.82C202.83 30.97 202.67 31.01 202.55 30.9C202.18 30.56 201.21 26.45 201.04 25.44C200.98 25.12 200.78 24.56 200.72 25.31C200.69 25.69 200.66 26.09 200.66 26.2C200.6 27.55 200.52 28.55 200.69 29.92C200.76 30.46 200.96 31.35 200.96 31.81C200.46 32.11 197.53 33.69 197.21 33.74C197.21 33.69 198.14 29.57 198.2 28.56C198.24 27.97 198.2 25.71 197.15 25.82C196.48 27.06 195.85 28.35 195.17 29.6C194.69 30.72 191.74 34.8 192.34 36.9C193.07 38.09 194.58 38.74 195.69 37.77C196.09 37.42 196.39 37.26 196.73 36.77C197.23 36.06 200.4 33.3 201.28 33.18C201.34 33.36 202.17 35.79 202.46 34.9C202.65 34.32 203.36 33.39 203.11 32.79C202.99 32.14 203.2 32.29 203.54 32.08C205.22 31.07 207.82 30.5 208.79 29.8L209.58 29.47C209.79 31.89 212.03 32.59 212.12 30.24L212.12 29.52C212 28.85 212.77 28.89 213.34 28.65C213.64 28.53 213.6 28.5 213.92 28.42C214.21 28.33 214.24 28.16 214.47 28.07C214.59 28.23 214.58 28.47 214.64 28.69L214.77 28.96C214.88 29.12 214.8 29.09 215 29.12C215.5 28.62 216.15 27.86 216.2 27.71C216.38 27.6 217.67 27.52 217.95 27.49C218.97 27.38 219.96 27.42 220.97 27.51C221.09 27.52 221.32 27.55 221.58 27.58C222.67 27.7 222.66 28.21 222.31 28.9C221.91 29.67 221.39 30.55 221.28 30.68C220.8 31.36 219.7 32.24 219.73 32.99C219.71 33.16 219.48 33.37 219.8 33.51L219.98 33.57C222.88 33.41 225.98 32.73 227.94 30.34C228.18 30.04 228.57 29.9 228.39 29.29C228.2 28.66 228.39 28.97 227.73 28.18C227.45 27.87 226.98 27.34 226.64 27.08C225.98 26.57 225.01 26.42 224.34 26.08C224.16 25.99 221.9 25.73 221.48 25.7C220.41 25.6 219.41 25.69 218.35 25.71C217.7 25.72 217.44 25.8 216.88 25.88C216.97 25.5 217.14 25.21 217.25 24.85C217.73 23.18 218.81 18.52 218.69 17.16C218.62 16.51 218.68 16.09 218.64 15.55C218.62 15.25 218.71 12.08 217.67 10.4C217.56 10.25 217.15 9.96 216.96 9.92C216.31 9.77 215.74 10.37 215.51 10.86C214.27 13.18 212.6 19.66 212.6 19.68C211.88 21.93 211.48 24.39 211.54 26.8C211.5 27.06 211.68 27.21 211.42 27.21C210.98 25.91 211.31 24.14 211.37 22.81C211.88 18.45 211.26 18.21 214.4 10.36C214.58 9.92 214.91 7.97 214.94 7.52C214.96 7.13 215.06 6.76 214.9 6.41C214.66 5.89 214.56 5.89 214.12 6.12C213.58 6.4 213.6 6.89 213.18 7.21C212.77 7.51 212.88 7.61 212.61 7.95C212.47 8.12 212.43 8.13 212.33 8.36C211.48 10.36 211.3 11.16 210.68 13.24L210.31 14.78C210.19 15.41 209.04 20.53 209.04 20.57ZM213.01 11.46C212.96 11.33 212.94 11.15 212.96 11.03C213 10.85 212.96 10.75 212.96 10.61C212.94 10.03 213.25 9.55 213.39 9.17C213.44 9.02 213.63 8.59 213.81 8.61C214.05 8.64 213.82 9.28 213.79 9.39C213.73 9.65 213.64 9.87 213.57 10.11C213.46 10.44 213.03 11.41 213.01 11.46ZM208.77 28.28C208.52 28.38 208.01 28.87 208.19 28.39C208.25 28.23 208.59 27.63 208.69 27.23C208.99 26.01 208.96 26.2 209.47 25.37C209.59 25.18 209.63 25.45 209.6 25.65C209.42 26.72 209.41 26.9 209.43 27.98C209.23 28.11 209 28.18 208.77 28.28ZM212.92 22.8C212.93 22.26 213.57 19.34 213.91 18.89C213.99 18.79 214.26 18.52 214.72 18.47C214.72 18.47 214.84 18.52 214.81 18.63C214.52 19.41 213.15 22.73 213.13 22.79C213.09 22.94 212.94 23.23 212.92 22.8ZM214.44 17.34C214.42 16.9 215.92 13.98 216.23 13.83C216.2 14.26 216.17 17.05 215.92 17.44C215.7 17.33 215.8 17.31 215.55 17.22C215.13 17.08 214.86 17.21 214.44 17.34ZM213.12 26.69C213.13 25.27 214.91 20.64 215.57 19.62C215.77 19.3 215.71 19.72 215.7 19.89C215.69 20.52 215.72 21.4 215.58 21.82C215.45 22.22 215.32 22.82 215.43 23.24C215.52 23.55 215.29 25.09 215.26 25.57C215.24 25.91 215.22 25.97 215.1 26C214.92 26.02 214.57 25.24 214.3 24.64C214.17 24.36 213.97 24.04 214.03 24.58L214.25 26.43C214.13 26.48 213.25 26.74 213.12 26.69Z" fill="#FFFFFF" fill-opacity="1.000000" fill-rule="evenodd"/>
	<path id="路径 49" d="M213.03 35.61C213.03 35.82 213.03 35.65 213.01 35.74L212.98 35.86C212.82 36.46 210.95 37.78 210.48 37.92C206.54 39.68 203.17 40.93 198.69 40.87C197.85 40.86 196.78 40.74 196.03 40.77C195.7 40.78 194.99 41.3 194.95 41.64C194.81 42.18 194.69 42.53 195.06 43.05C196.12 44.2 198.6 45.56 200.05 45.57C202.86 45.85 205.76 44.97 208.4 44.08C209 43.87 211.06 43.6 211.77 43.52C212.2 43.55 211.99 43.48 212.3 43.65C212.67 45.3 211.3 50.01 209.9 50.42C208.7 50.56 208.54 50.58 207.58 50.06C206.9 49.69 205.16 47.87 204.74 47.23C204.32 46.58 204.23 47.47 204.65 48.2C205.93 50.42 207.82 54.55 211.02 53.28C214.4 51.94 215.03 46.89 214.65 43.64C215.02 43.2 214.89 43.41 215.3 43.11C216.66 42.11 223.05 41.45 224.68 42.16C225.15 42.37 226.01 42.85 226.33 42.88C229.49 43.2 227.21 38.79 226.13 38.18C225.52 37.84 224.79 37.63 224.06 37.64C222.58 37.66 221.46 37.66 219.79 37.88C218.79 38.01 217.29 38.36 216.35 38.21C217.5 36.24 218.38 35.02 216.56 33.2C214.79 31.43 212.02 32.13 210.01 32.85C209.84 32.92 209.99 32.88 209.8 32.95C207.59 33.96 205.63 34.98 203.32 35.69C202.33 35.99 202.14 36.37 202.88 37.06C203.52 37.64 206.17 37.92 207.07 37.7C207.73 37.5 208.47 37.38 209.05 37.02C209.43 36.78 212.55 35.45 213.03 35.61Z" fill="#FFFFFF" fill-opacity="1.000000" fill-rule="evenodd"/>
	<path id="路径 50" d="M199.97 13.06C200.16 13.77 201.34 13.58 201.77 13.7C202.16 13.8 202.79 13.76 203.17 13.66C204.62 13.31 206.03 12.81 207.17 12.04C208.45 11.59 208.9 11.72 209.8 9.96C210.44 9.26 210.4 8.46 210.13 7.83C210.04 7.61 210.05 6.93 209.15 7.32C209.04 7.37 208.45 7.85 208.32 8.04C208.15 8.27 207.14 8.97 206.83 9.21L206.21 9.62C205.99 9.79 205.82 9.92 205.58 10.09C204.6 10.75 203.3 11.52 202.2 12.05C201.83 12.22 201.42 12.34 201.04 12.5C200.66 12.67 200.23 12.61 199.97 13.06Z" fill="#FFFFFF" fill-opacity="1.000000" fill-rule="evenodd"/>
	<path id="路径 51" d="M251.18 11.91C250.98 11.86 247.6 11.67 247.84 12.77C247.94 13.22 249.79 14.88 250.13 15.02C250.44 15.15 252.02 16.36 252.03 16.9C252.03 16.93 252.02 17 252.02 17.02C252.03 17.12 252.02 17.05 252.06 17.14C252.91 18.93 252.69 28.77 251.89 29.32C251.87 29.51 251.92 29.76 251.98 29.94C252.19 30.45 252.37 30.6 252.37 31.23C252.16 34.29 250.56 47.93 253.08 49.76C255.68 51.65 258.5 46.5 257.54 44.2C257.43 43.93 256.94 43.77 256.69 43.55C256.56 39.85 255.7 37.39 256.59 33.41C258.3 33.91 261.37 35.27 262.74 32.92C264.08 30.61 264.72 24.97 261.85 23.26C261.69 23.16 260.11 22.03 260.06 21.84C260.6 20.01 264.11 15.23 264.28 13.19C264.49 10.57 259.52 9.21 257.32 9.86C256.26 10.18 251.36 11.97 251.18 11.91ZM256.4 17.16C256.74 16.72 259.28 16.25 259.93 16.32C259.14 18.04 258.05 20.4 256.4 21.44C255.99 21.69 256.06 21.91 256.02 22.03C255.99 22.16 256 22.12 255.91 22.2C255.63 21.28 255.56 17.88 256.4 17.16ZM256.46 31.17C256.61 29.32 255.96 25.5 255.99 23.16C256.15 23.19 255.99 23.08 256.16 23.31C256.35 23.56 256.42 23.67 256.74 23.78C258.04 24.24 259.41 23.85 260.88 25.11C262.3 26.32 262.36 31.33 259.38 32.17C258.32 32.47 257.29 31.72 256.46 31.17Z" fill="#FFFFFF" fill-opacity="1.000000" fill-rule="evenodd"/>
	<path id="路径 52" d="M266.32 27.35C266.21 27.98 267.29 28.88 267.8 29.17C269.02 29.87 270.06 29.62 271.31 29.36C272.24 29.16 273.79 28.76 274.7 28.44C274.58 28.72 273.95 29.09 273.7 29.25C272.12 30.26 269.16 31.89 268.19 32.22C267.35 32.67 265.89 33.19 266.14 34.73C266.74 37.22 269.21 35.69 269.71 36.1C269.79 36.16 269.72 36.27 269.7 36.33C268.6 39.58 267.44 41.75 265.64 44.63C265.59 44.72 265.58 44.73 265.52 44.8C264.75 45.83 263.45 46.28 262.31 46.84C261.3 47.21 261.03 47.3 262.54 47.87C264.27 48.53 265.72 48.01 266.73 46.92C266.98 46.59 267.02 45.72 267.18 45.33L267.62 44.42C268.19 43.46 270.33 39.89 270.87 39.34C271.65 38.54 271.28 37.45 272.68 36.4C273.99 35.19 275 35.62 276.38 35.24C276.36 35.45 275.59 36.64 275.4 36.95C274.67 38.12 273.52 40.99 273.33 42.15C273.02 43.99 274.4 46.52 275.44 47.41C277.89 49.84 283.76 50.27 286.57 49.09C287.41 48.73 288.63 47.75 288.77 46.81C289.18 44.13 288.12 41.41 286.57 39.04C286.29 38.62 286.29 38.13 286.03 37.65C285.59 36.84 285.39 37.13 285.42 37.75C285.48 39.18 285.47 43.92 285.32 44.15C285.28 44.21 285.3 44.16 285.23 44.26C283.96 46.14 276.59 46.56 276.47 42.27C276.42 40.67 277.07 37.54 277.26 35.83C277.27 34.92 276.71 35.2 278.02 34.72C278.53 34.55 279.14 34.38 279.62 34.16C281.01 33.51 280.5 30.54 278.3 30.68C276.4 30.8 272.31 32.8 270.32 32.74C269.9 32.73 269.61 32.54 270.07 32.27C272.77 30.67 274.57 30.11 277.42 29.17C278.6 28.78 279.72 28.22 280.13 27.25C280.55 26.21 279.56 24.79 278.52 24.48C277.78 24.27 277.22 24.22 276.44 24.41C274.61 25.08 272.8 25.63 270.95 26.21C269.99 26.51 268.97 26.66 267.94 26.72C267.13 26.77 266.58 26.63 266.32 27.35Z" fill="#FFFFFF" fill-opacity="1.000000" fill-rule="evenodd"/>
	<path id="路径 53" d="M265.63 25C268.51 24.06 279.91 15.73 282.31 20.42C282.59 21.48 281.35 22.55 280.19 23.27C279.53 23.68 279.93 23.84 280.56 23.66C281.36 23.44 282.1 23.19 282.17 23.16C283.39 22.77 283.73 22.56 284.76 21.85C284.91 21.69 285.11 21.57 285.25 21.39C286.07 20.3 285.59 19.01 284.78 18C281.15 14.31 271.65 19.72 268.26 21.69C267.72 22 267.45 21.49 267.78 20.94C268.59 19.58 270.14 17.56 270.45 17.25C270.94 16.76 270.79 16.01 270.43 16.3C269.08 17.38 268.08 18.27 266.85 19.47C265.87 20.44 260.79 26.3 265.63 25Z" fill="#FFFFFF" fill-opacity="1.000000" fill-rule="evenodd"/>
	<path id="路径 54" d="M273.89 8.32C273.54 8.68 275.2 10.43 275.48 11.07C275.92 12.07 274.4 13.22 273.69 13.71C273.18 14.06 272.59 14.61 272.11 15.03C271.99 15.13 271.82 15.72 272.43 15.48C273.43 15.17 276.67 14.02 277.6 14.43C278.56 14.87 279.72 14.63 280.35 13.86C280.79 13.32 280.75 12.8 280.6 12.18C280.05 10.04 276.09 7.35 274.09 8.18C273.93 8.25 274.01 8.23 273.89 8.32Z" fill="#FFFFFF" fill-opacity="1.000000" fill-rule="evenodd"/>
	<path id="路径 55" d="M9.8 10.56C9.85 10.4 9.79 10.38 10.05 10.28C10.25 10.21 10.79 10.06 10.91 9.94C11.12 9.75 12.43 8.93 12.63 8.85C13.08 8.68 14 8.45 14.29 9.01C14.42 9.26 14.54 9.27 14.26 9.6C14.03 9.88 13.73 9.9 13.4 10.36C13.3 10.5 12.67 11.41 12.78 11.37C12.98 11.3 13.02 11.24 13.2 11.15C13.84 10.81 14.93 10.92 14.93 11.84C14.93 11.93 15.05 12.33 14.47 12.58C14.25 12.67 13.5 13.03 13.23 13.1C13.16 13.12 13.32 12.9 13.24 12.93C13.08 12.98 12.92 13.12 12.8 13.17C13 12.97 13.15 12.71 13.35 12.51C13.68 12.17 13.5 12.11 13.17 12.38C12.94 12.58 12.34 13.08 12.32 13.1C11.78 13.48 11.29 13.17 11.14 12.56C11.11 12.42 11.31 12.32 11.54 12.08C11.69 11.93 12.59 10.94 12.51 10.74C12.52 10.74 12.28 10.96 12.18 11.09C11.98 11.34 11.4 11.47 11.08 11.37C10.91 11.31 9.73 10.82 9.8 10.56Z" fill="#002972" fill-opacity="1.000000" fill-rule="evenodd"/>
	<path id="路径 56" d="M11.43 15.82C12.89 15.31 14.57 13.87 16.22 13.31C16.98 13.04 17.98 13.53 17.76 14.4C17.67 14.75 16.86 15 16.69 15.01C14.89 15.12 13.48 16.17 11.91 16.91C11.12 17.28 10.64 17.65 10.02 17.17C9.95 17.12 9.72 16.87 9.69 16.62C9.64 15.93 11.2 14.89 11.8 14.48C11.75 14.53 11.74 14.61 11.7 14.66C11.97 14.41 12.4 14.18 12.76 13.99C12.68 14.07 10.34 16.19 11.43 15.82Z" fill="#002972" fill-opacity="1.000000" fill-rule="evenodd"/>
	<path id="路径 57" d="M25.57 7.35C25.59 7.32 25.63 7.23 25.56 7.2C25.5 7.17 24.94 7.25 24.62 7.23C24.2 7.2 23.63 6.95 23.39 6.65C23.27 6.51 23.33 6.39 23.48 6.34C23.64 6.29 23.97 6.35 24.18 6.32C24.93 6.23 26.65 5.71 27.34 5.39C28.14 5.03 28.64 5.81 28.34 6.13C28.18 6.32 27.45 6.5 27.14 6.75C27.1 6.78 27.06 7 27.05 7.15C27.04 7.35 27.15 8.64 27.2 8.63C27.34 8.6 27.9 8.41 28.31 8.35C28.78 8.28 29.31 8.37 29.56 8.83C29.84 9.37 29.43 9.65 28.95 9.79C28.17 10.02 27.88 9.98 27.51 10.07C27.44 10.08 27.47 10.07 27.48 10.18C27.48 10.19 27.58 11.09 27.62 11.1C27.79 11.15 28.59 10.96 28.74 10.95C29.31 10.92 29.65 10.98 29.99 11.25C31.17 12.21 30.39 12.98 29.69 12.67C29.22 12.46 29.12 12.21 28.49 12.29C27.54 12.4 26.49 12.67 25.67 12.97C24.92 13.24 24.41 13.55 24.03 13.58C23.57 13.62 22.37 13.1 22.43 12.34C22.45 12.16 22.73 11.9 22.97 12.12C23.08 12.22 23.34 12.21 23.68 12.15C23.84 12.13 26.63 11.37 26.69 11.31C26.38 11.04 26.04 10.16 25.95 10.16C25.94 10.46 26.08 10.73 26.06 11.07C26.04 11.27 25.78 11.51 25.59 11.39C25.43 11.3 25.2 11.1 25.26 10.91C25.28 10.85 25.29 10.78 25.3 10.72C25.32 10.65 25.27 9.65 25.24 9.64C25.19 9.61 25.01 9.71 24.96 9.75C24.8 9.89 24.45 10.15 24.36 10.32C24.28 10.49 23.93 10.65 23.73 10.54C22.54 9.88 23.02 8.77 23.46 8.93C23.5 8.95 23.56 8.93 23.63 9.03C23.73 9.18 23.86 9.37 24 9.47C24.09 9.54 24.41 9.48 24.53 9.47C24.74 9.44 25.11 9.33 25.25 9.17C25.33 9.08 25.17 7.71 25.57 7.35ZM27.26 8.93C27.31 9.21 27.34 9.47 27.39 9.75C27.4 9.78 28.3 9.38 28.36 9.35C29.52 8.71 27.63 8.87 27.26 8.93ZM25.87 9.36C25.77 9.4 25.9 9.93 25.94 9.94C26.04 9.97 26.17 10.02 26.26 10.06C26.31 10.09 26.44 10.03 26.42 9.93C26.4 9.88 26.43 9.42 26.41 9.23C26.37 8.97 25.87 9.35 25.87 9.36ZM26.32 7.15C26.23 7.06 25.85 7.31 25.82 7.47C25.73 7.94 25.65 8.46 25.76 8.94C25.79 9.08 26.19 8.89 26.29 8.83C26.42 8.75 26.39 7.22 26.32 7.15Z" fill="#002972" fill-opacity="1.000000" fill-rule="evenodd"/>
	<path id="路径 58" d="M39.03 7.15C39.02 7.3 38.56 7.93 38.44 8.11C38.39 8.16 38.29 8.32 38.23 8.37C38.04 8.54 38.57 6.53 38.39 6.39C38.31 6.4 38.27 6.62 38.25 6.68C38.07 7.27 37.93 7.81 37.78 8.4C37.74 8.62 37.69 8.74 37.85 8.92C37.89 8.96 37.92 8.98 37.97 9.02C37.91 9.04 37.5 9.16 37.45 9.19C37.38 9.11 37.18 8.2 37.18 7.98C37.16 8.06 37.08 8.11 37.07 8.14C37.02 8.42 36.98 8.64 36.98 8.94C36.98 9.06 37 9.25 36.99 9.35C36.87 9.4 36.2 9.66 36.13 9.67C36.13 9.66 36.44 8.79 36.48 8.58C36.5 8.45 36.56 7.96 36.33 7.96C36.15 8.21 35.98 8.47 35.8 8.72C35.66 8.95 34.92 9.75 34.99 10.22C35.12 10.49 35.43 10.67 35.69 10.49C35.79 10.43 35.86 10.4 35.94 10.31C36.07 10.17 36.83 9.66 37.02 9.66C37.03 9.7 37.14 10.24 37.23 10.06C37.28 9.94 37.46 9.76 37.43 9.62C37.42 9.48 37.46 9.51 37.54 9.48C37.92 9.31 38.5 9.25 38.73 9.13L38.91 9.08C38.89 9.61 39.35 9.82 39.44 9.31L39.45 9.16C39.45 9.01 39.61 9.04 39.74 9C39.81 8.99 39.8 8.98 39.87 8.97C39.94 8.96 39.95 8.92 40 8.91C40.02 8.95 40.01 9 40.02 9.05C40.04 9.09 40.04 9.14 40.09 9.15C40.21 9.06 40.37 8.91 40.38 8.88C40.43 8.86 40.71 8.88 40.77 8.88C40.99 8.88 41.2 8.92 41.42 8.96C41.44 8.97 41.49 8.98 41.55 8.99C41.78 9.05 41.76 9.16 41.67 9.3C41.56 9.45 41.43 9.63 41.4 9.66C41.28 9.79 41.01 9.95 41 10.11C40.99 10.15 40.94 10.19 41 10.22C41.63 10.27 42.36 10.22 42.84 9.76C42.9 9.7 42.99 9.68 42.97 9.55C42.94 9.41 42.98 9.48 42.86 9.29C42.8 9.22 42.72 9.09 42.65 9.02C42.52 8.89 42.32 8.84 42.18 8.75C42.15 8.72 41.66 8.61 41.58 8.59C41.35 8.54 41.13 8.53 40.9 8.51C40.76 8.49 40.7 8.5 40.58 8.5C40.61 8.42 40.65 8.37 40.69 8.29C40.84 7.94 41.19 6.97 41.2 6.67C41.21 6.53 41.23 6.44 41.24 6.32C41.24 6.26 41.35 5.58 41.17 5.19C41.15 5.15 41.07 5.08 41.03 5.06C40.89 5.01 40.75 5.13 40.69 5.23C40.36 5.69 39.82 7.05 39.82 7.05C39.61 7.52 39.45 8.04 39.4 8.56C39.34 8.27 39.43 7.98 39.47 7.69C39.7 6.77 39.57 6.7 40.46 5.09C40.51 5 40.64 4.59 40.65 4.49C40.67 4.41 40.7 4.33 40.68 4.25C40.64 4.13 40.62 4.13 40.52 4.17C40.39 4.21 40.38 4.32 40.28 4.38C40.19 4.43 40.21 4.46 40.14 4.52C39.9 4.93 39.77 5.18 39.58 5.61L39.46 5.93C39.42 6.06 39.03 7.14 39.03 7.15ZM40.13 5.29C40.15 5.25 40.14 5.14 40.14 5.11C40.16 4.98 40.24 4.88 40.28 4.81C40.29 4.77 40.34 4.69 40.38 4.7C40.43 4.71 40.28 4.78 40.28 4.81C40.26 4.86 40.31 4.96 40.29 5.01C40.26 5.08 40.14 5.28 40.13 5.29ZM38.77 8.8C38.71 8.82 38.59 8.91 38.64 8.81C38.65 8.78 38.75 8.66 38.78 8.57C38.88 8.32 38.86 8.36 39 8.19C38.93 8.42 38.94 8.52 38.92 8.76C38.87 8.78 38.82 8.79 38.77 8.8ZM39.81 7.73C39.82 7.62 40.04 7 40.13 6.91C40.15 6.89 40.21 6.84 40.31 6.85C40.23 7.01 39.81 7.72 39.81 7.73ZM40.28 6.6C40.29 6.5 40.69 5.91 40.76 5.89C40.74 5.98 40.66 6.58 40.6 6.66C40.51 6.62 40.38 6.58 40.28 6.6ZM39.75 8.58C39.79 8.27 40.3 7.32 40.46 7.12C40.44 7.25 40.45 7.51 40.41 7.59C40.37 7.68 40.32 7.8 40.34 7.89C40.35 7.96 40.26 8.29 40.24 8.39C40.2 8.39 40.1 8.3 40.06 8.16L40 8.55C39.97 8.56 39.77 8.59 39.75 8.58Z" fill="#002972" fill-opacity="1.000000" fill-rule="evenodd"/>
	<path id="路径 59" d="M39.49 10.5C39.43 10.62 38.98 10.91 38.88 10.93C37.98 11.2 37.22 11.38 36.25 11.24C36.07 11.22 35.84 11.17 35.68 11.15C35.61 11.14 35.45 11.24 35.43 11.31C35.38 11.42 35.35 11.49 35.41 11.62C35.61 11.89 36.11 12.25 36.42 12.29C37.02 12.43 37.67 12.32 38.26 12.2C38.4 12.17 38.85 12.16 39 12.17C39.09 12.18 39.05 12.16 39.11 12.21C39.15 12.58 38.73 13.56 38.41 13.6C38.15 13.6 38.12 13.6 37.92 13.47C37.79 13.37 37.46 12.93 37.39 12.78C37.31 12.63 37.27 12.82 37.34 12.98C37.56 13.5 37.85 14.44 38.58 14.25C39.34 14.05 39.61 12.98 39.62 12.27C39.71 12.19 39.68 12.23 39.77 12.17C40.09 12 41.49 12.02 41.82 12.22C41.92 12.28 42.09 12.41 42.16 12.42C42.83 12.58 42.46 11.56 42.24 11.4C42.12 11.31 41.97 11.25 41.81 11.23C41.49 11.2 41.25 11.17 40.88 11.17C40.66 11.17 40.33 11.2 40.13 11.15C40.43 10.75 40.66 10.51 40.31 10.07C39.98 9.64 39.36 9.72 38.91 9.82C38.4 9.98 37.91 10.16 37.39 10.25C37.17 10.29 37.12 10.37 37.26 10.53C37.38 10.68 37.94 10.81 38.15 10.79C38.29 10.76 38.46 10.76 38.59 10.69C38.68 10.65 39.39 10.45 39.49 10.5Z" fill="#002972" fill-opacity="1.000000" fill-rule="evenodd"/>
	<path id="路径 60" d="M37.28 5.28C37.3 5.44 37.56 5.43 37.65 5.47C37.73 5.5 37.87 5.51 37.95 5.5C38.27 5.46 38.59 5.39 38.86 5.26C39.15 5.19 39.24 5.23 39.48 4.88C39.64 4.75 39.65 4.57 39.61 4.43C39.6 4.38 39.62 4.23 39.41 4.29C39.39 4.3 39.25 4.39 39.21 4.43C39.17 4.47 38.93 4.59 38.86 4.64L38.72 4.71C38.66 4.74 38.63 4.76 38.57 4.79C38.34 4.91 38.04 5.04 37.79 5.12C37.7 5.15 37.61 5.17 37.52 5.19C37.44 5.22 37.35 5.19 37.28 5.28Z" fill="#002972" fill-opacity="1.000000" fill-rule="evenodd"/>
	<path id="路径 61" d="M49.87 7.65C49.84 7.62 49.16 7.33 49.13 7.58C49.12 7.68 49.37 8.15 49.43 8.2C49.49 8.25 49.72 8.62 49.68 8.73C49.73 9.15 48.95 11.21 48.75 11.26C48.73 11.3 48.72 11.35 48.72 11.39C48.73 11.51 48.75 11.56 48.71 11.69C48.44 12.3 47.12 14.97 47.5 15.53C47.9 16.11 48.85 15.26 48.82 14.72C48.82 14.65 48.73 14.59 48.69 14.52C48.94 13.76 48.94 13.19 49.41 12.44C49.73 12.67 50.26 13.17 50.71 12.79C51.15 12.41 51.69 11.31 51.23 10.75C51.2 10.71 50.96 10.37 50.97 10.33C51.21 9.99 52.28 9.27 52.46 8.86C52.7 8.34 51.78 7.7 51.28 7.67C51.04 7.66 49.91 7.67 49.87 7.65ZM50.56 9.1C50.66 9.03 51.22 9.12 51.34 9.19C51.06 9.48 50.66 9.88 50.25 9.98C50.15 10 50.14 10.05 50.13 10.07C50.14 9.86 50.34 9.19 50.56 9.1ZM49.55 11.97C49.72 11.6 49.86 10.78 50.04 10.3C50.06 10.36 50.09 10.43 50.15 10.48C50.38 10.67 50.69 10.69 50.9 11.05C51.1 11.41 50.75 12.44 50.07 12.39C49.83 12.37 49.68 12.14 49.55 11.97Z" fill="#002972" fill-opacity="1.000000" fill-rule="evenodd"/>
	<path id="路径 62" d="M51.85 11.91C51.78 12.03 51.93 12.29 52.02 12.39C52.22 12.62 52.45 12.65 52.72 12.68C52.93 12.71 53.27 12.74 53.48 12.74C53.44 12.79 53.28 12.82 53.22 12.84C52.82 12.93 52.1 13.04 51.87 13.04C51.67 13.07 51.33 13.07 51.27 13.41C51.21 13.96 51.83 13.83 51.9 13.95C51.44 14.53 51.02 14.94 50.45 15.4C50.21 15.55 49.88 15.57 49.6 15.61C49.37 15.61 49.31 15.61 49.57 15.83C49.88 16.09 50.21 16.09 50.5 15.94C50.58 15.9 50.65 15.72 50.71 15.65L50.87 15.5C51.05 15.34 51.75 14.77 51.9 14.69C52.12 14.59 52.13 14.34 52.49 14.23C52.84 14.07 53.02 14.24 53.33 14.26C53.31 14.3 53.07 14.49 53 14.54C52.77 14.72 52.33 15.23 52.2 15.45C52 15.8 52.1 16.42 52.25 16.68C52.57 17.36 53.74 17.87 54.4 17.84C54.6 17.82 54.92 17.71 55.02 17.53C55.3 17.01 55.28 16.38 55.14 15.78C55.11 15.67 55.15 15.57 55.13 15.46C55.1 15.26 55.04 15.3 55 15.43C54.9 15.73 54.56 16.7 54.51 16.73C54.11 17.03 52.54 16.59 52.83 15.7C52.94 15.37 53.3 14.78 53.47 14.44C53.53 14.26 53.4 14.27 53.7 14.27C53.82 14.27 53.96 14.28 54.07 14.27C54.4 14.24 54.51 13.6 54.06 13.47C53.66 13.35 52.67 13.46 52.27 13.3C52.19 13.27 52.14 13.21 52.25 13.19C52.92 13.06 53.33 13.08 53.99 13.09C54.25 13.1 54.52 13.07 54.68 12.9C54.84 12.71 54.74 12.35 54.55 12.21C54.42 12.12 54.3 12.06 54.13 12.05C53.71 12.05 53.3 12.03 52.88 12.01C52.66 12.01 52.44 11.96 52.22 11.9C52.06 11.85 51.95 11.78 51.85 11.91Z" fill="#002972" fill-opacity="1.000000" fill-rule="evenodd"/>
	<path id="路径 63" d="M51.88 11.38C52.53 11.4 55.48 10.52 55.62 11.66C55.6 11.9 55.27 12.02 54.98 12.09C54.82 12.12 54.89 12.18 55.03 12.19C55.21 12.21 55.38 12.21 55.4 12.21C55.67 12.22 55.76 12.2 56.02 12.13C56.06 12.11 56.11 12.1 56.15 12.07C56.4 11.91 56.4 11.61 56.31 11.34C55.83 10.32 53.49 10.74 52.66 10.89C52.52 10.92 52.5 10.79 52.61 10.7C52.88 10.49 53.34 10.19 53.43 10.14C53.57 10.08 53.59 9.92 53.49 9.95C53.14 10.07 52.87 10.18 52.53 10.34C52.26 10.46 50.79 11.29 51.88 11.38Z" fill="#002972" fill-opacity="1.000000" fill-rule="evenodd"/>
	<path id="路径 64" d="M54.78 8.57C54.69 8.62 54.9 9.1 54.91 9.25C54.93 9.48 54.53 9.61 54.35 9.66C54.22 9.69 54.06 9.76 53.93 9.81C53.9 9.82 53.82 9.93 53.96 9.93C54.19 9.94 54.94 9.94 55.1 10.09C55.26 10.25 55.52 10.28 55.7 10.17C55.83 10.09 55.86 9.99 55.88 9.85C55.92 9.37 55.25 8.54 54.78 8.57Z" fill="#002972" fill-opacity="1.000000" fill-rule="evenodd"/>
</svg>
