<?xml version="1.0" encoding="UTF-8" standalone="no"?>
<!-- Generator: Adobe Illustrator 15.0.0, SVG Export Plug-In . SVG Version: 6.00 Build 0)  -->

<svg
   version="1.1"
   id="图层_1"
   x="0px"
   y="0px"
   width="720.97601"
   height="182.13699"
   viewBox="0 0 720.97599 182.137"
   xml:space="preserve"
   xmlns="http://www.w3.org/2000/svg"
   xmlns:svg="http://www.w3.org/2000/svg"><defs
   id="defs98">
	
	
	
	
	
	
	
	
	
	
	
	
	
	
	
	
	
	
	
	
	
	
	
	
	
	
	
	
	
	
	
	
	
	
	
	
	
	
	
	
	
	
	
	
	
	
	
	
	
		
	
	
	
	
	
	
	
		
	
	
	
	
	
	
	
	
	
	
	
	
	
	
	
	
	
	
	
	
	
	
	
	
	
	
	
	
	
	
	
	
	
	
	
	
	
	
	
	
	
	
	
	
	
	
	
	
	
		
	
	
	
	
	
	
	
	
	
	
	
	
	
	
	
	
	
	
	
	
	
	
</defs>
<polygon
   style="fill:#9d0a12"
   points="386.266,92.34 422.418,92.34 422.418,88.229 422.4,88.229 422.418,88.212 411.666,83.143 404.752,88.229 386.266,88.229 386.266,52.588 374.573,52.588 374.573,134.14 336.159,134.14 336.159,138.253 374.573,138.253 386.266,138.253 429.956,138.253 429.956,134.14 429.933,134.14 419.201,129.081 412.325,134.14 386.266,134.14 "
   id="polygon1"
   transform="translate(-336.159,-50.273)" /><path
   style="fill:#9d0a12"
   d="m 273.808,92.791 h 11.693 V 45.278 c 5.447,6.508 5.281,8.817 7.887,11.149 2.191,1.953 5.059,1.852 6.584,0.071 5.703,-6.647 -9.943,-13.983 -14.471,-15.925 V 34.87 h 14.186 V 30.76 H 285.501 V 15.41 c 5.287,-1.35 10.189,-3.038 13.543,-5.134 L 289.015,2.394 c 0,0 -12.852,9.253 -31.861,14.052 v 3.514 c 0,0 7.604,-0.611 16.654,-2.131 V 30.76 h -16.654 v 4.11 h 14.09 c -0.92,3.383 -7.068,25.059 -15.941,37.95 l 2.576,2.054 c 0,0 9.33,-9.247 15.93,-21.239 v 39.156 z"
   id="path1" /><polygon
   style="fill:#9d0a12"
   points="660.334,52.68 660.334,110.071 628.26,110.071 628.26,114.185 660.334,114.185 660.334,143.061 672.027,143.061 672.027,114.185 686.469,114.185 686.469,110.071 672.027,110.071 672.027,52.68 "
   id="polygon2"
   transform="translate(-336.159,-50.273)" /><path
   style="fill:#9d0a12"
   d="m 313.765,27.95 c 2.387,1.709 5.223,1.306 6.547,-0.617 5.805,-8.372 -17.283,-14.693 -17.283,-14.693 l -1.537,2.065 c 9.423,8.178 9.003,10.876 12.273,13.245"
   id="path2" /><path
   style="fill:#9d0a12"
   d="m 303.917,34.757 -1.732,1.902 c 8.512,9.117 7.816,11.761 10.82,14.452 2.195,1.956 5.051,1.85 6.582,0.068 6.643,-7.715 -15.67,-16.422 -15.67,-16.422"
   id="path3" /><path
   style="fill:#9d0a12"
   d="m 558.843,34.306 h 37.714 V 30.19 h -0.078 l 0.078,-0.032 -10.756,-5.075 -6.927,5.107 h -23.35 c 2.059,-13.283 1.578,-24.317 1.336,-27.84 h -13.871 c 0.943,10.438 0.736,19.667 -0.279,27.84 h -37.256 v 4.116 h 36.662 c -5.645,34.116 -26.139,48.392 -36.711,53.674 v 4.79 c 32.391,-8.167 44.693,-34.918 49.205,-57.422 2.387,40.041 33.038,57.417 33.038,57.417 3.08,-9.432 12.463,-7.862 12.463,-7.862 V 81.497 C 570.718,71.254 559.999,38.153 558.843,34.306"
   id="path4" /><path
   style="fill:#9d0a12"
   d="m 720.975,22.54 -10.762,-5.081 -6.838,5.039 h -11.152 c 2.961,-2.813 8.602,-8.606 14.672,-17.046 L 693.024,1.084 c 0,0 -3.721,15.031 -7.924,21.414 h -28.613 c 0.582,-0.246 1.104,-0.608 1.525,-1.086 7.406,-8.318 -18.488,-18.907 -18.488,-18.907 l -1.93,2.048 c 9.557,9.87 9.68,13.832 13.047,16.744 0.641,0.549 1.316,0.943 2.018,1.201 h -16.162 c -0.588,-1.971 -1.455,-4.3 -1.455,-4.3 h -3.074 l -0.096,0.635 c -1.727,9.473 -6.754,11.542 -6.754,17.724 0,2.908 2.055,6.377 5.764,6.377 5.193,0 6.969,-4.662 6.969,-11.078 0,-1.288 -0.244,-3.413 -0.512,-5.244 h 70.162 l -3.176,13.856 h 4.564 l 11.979,-13.856 h 0.018 v -0.018 l 0.09,-0.104 v -3.95 z"
   id="path5" /><path
   style="fill:#9d0a12"
   d="m 670.192,18.32 c 2.279,2.047 5.258,1.926 6.85,0.08 C 683.938,10.357 659.798,0 659.798,0 l -1.809,1.982 c 8.861,9.473 9.074,13.545 12.203,16.338"
   id="path6" /><path
   style="fill:#9d0a12"
   d="M 681.83,78.502 V 60.529 h 35.309 v -4.071 h 0.078 l -10.748,-5.069 -6.85,5.039 H 681.83 v -6.25 l 14.262,-10.737 v -4.116 h -49.779 v 4.116 h 36.752 l -12.791,10.726 h -0.094 v 6.262 h -42.848 v 4.102 h 42.848 v 17.973 c 0,1.881 -1.324,2.009 -4.02,2.009 -2.416,0 -13.871,-0.754 -16.281,-0.905 v 3.389 c 16.311,1.787 14.092,9.859 14.092,9.859 17.734,-2.27 17.859,-14.354 17.859,-14.354"
   id="path7" /><path
   style="fill:#9d0a12"
   d="m 418.435,43.77 v -4.407 c -3.447,1.425 -6.908,2.707 -10.285,3.864 V 25.436 h 10.285 V 21.317 H 408.15 V 2.344 h -11.682 v 18.973 h -13.502 v 4.119 h 13.502 v 21.453 c -9.467,2.7 -16.281,4.036 -16.281,4.036 l 3.385,10.5 c 4.682,-1.917 8.986,-3.85 12.896,-5.704 v 22.344 l -0.047,-1.012 c 0,3.431 -0.256,4.641 -6.809,4.641 -2.961,0 -5.709,-0.267 -5.709,-0.267 v 2.623 c 8.605,1.611 9.406,8.707 9.406,8.707 h 3.158 v 0.033 h 11.682 V 49.767 c 4.76,-2.587 8.256,-4.715 10.286,-5.997"
   id="path8" /><path
   style="fill:#9d0a12"
   d="M 476.816,81.003 C 466.091,79.101 457.574,75.3 450.849,70.797 463.07,58.154 469.396,44.568 470.144,42.915 h 0.078 v -4.116 h -21.725 v -13.36 h 27.375 V 21.32 h 0.029 l -10.756,-5.061 -6.891,5.061 h -9.758 V 2.344 H 436.81 V 21.32 h -15.789 v 4.119 h 15.789 v 13.36 h -15.766 v 4.116 h 1.828 c 2.736,11.298 7.633,20.213 13.23,27.181 -13.053,13.083 -26.324,18.923 -26.324,18.923 v 3.715 c 13.486,-1.703 24.615,-7.698 33.512,-14.972 12.494,11.452 25.469,15.114 25.469,15.114 1.895,-7.016 6.861,-8.678 8.055,-8.98 V 81.003 Z M 428.169,42.915 h 26.479 c -3.402,8.016 -7.859,14.883 -12.643,20.688 -9.23,-9.057 -13.018,-18.438 -13.836,-20.688"
   id="path9" /><path
   style="fill:#9d0a12"
   d="m 211.226,27.676 h -2.399 -9.301 -27.663 -4.674 c 1.777,-2.326 3.611,-4.899 5.389,-7.71 h 46.904 v -4.113 h -0.041 l 0.047,-0.021 -10.745,-5.066 -6.896,5.066 0.055,0.021 h -26.866 c 1.822,-3.237 3.526,-6.695 4.941,-10.352 L 167.323,2.284 c 0,0 -3.166,20.305 -14.218,36.229 l 2.48,2.054 c 0,0 1.853,-1.656 4.589,-4.582 v 13.61 h -9.295 v 4.119 h 9.295 v 17.734 4.108 2.172 h 11.689 v -2.172 h 27.674 c -0.096,3.959 -0.873,6.404 -5.658,6.404 h -17.393 v 2.567 c 0,0 14.479,1.195 14.479,8.22 0,0 20.118,-0.192 20.211,-17.191 h 8.311 v -4.108 h -8.262 V 53.714 h 8.262 v -4.119 h -8.262 V 27.676 Z m -11.7,43.774 h -5.884 c 0.03,-0.029 0.065,-0.054 0.096,-0.086 6.655,-7.722 -15.667,-16.423 -15.667,-16.423 l -1.732,1.896 c 8.511,9.113 7.811,11.761 10.822,14.446 0.068,0.065 0.148,0.109 0.217,0.166 H 171.863 V 53.715 h 27.663 z m 0,-21.854 h -6.014 c 0.074,-0.071 0.157,-0.134 0.226,-0.214 6.655,-7.723 -15.667,-16.411 -15.667,-16.411 l -1.732,1.887 c 8.511,9.111 7.811,11.765 10.822,14.447 0.125,0.112 0.259,0.189 0.387,0.291 H 171.863 V 31.784 h 27.663 z"
   id="path10" /><path
   style="fill:#9d0a12"
   d="m 144.498,18.732 c 2.196,1.956 5.063,1.846 6.579,0.074 6.654,-7.728 -15.66,-16.426 -15.66,-16.426 l -1.736,1.901 c 8.505,9.121 7.817,11.757 10.817,14.451"
   id="path11" /><path
   style="fill:#9d0a12"
   d="m 136.791,38.9 c 2.199,1.965 5.054,1.853 6.582,0.077 6.651,-7.728 -15.66,-16.408 -15.66,-16.408 l -1.748,1.885 c 8.523,9.116 7.823,11.757 10.826,14.446"
   id="path12" /><path
   style="fill:#9d0a12"
   d="m 155.549,15.793 c -3.259,8.458 -13.36,34.093 -17.391,38.491 -3.784,4.104 -10.927,1.962 -10.927,1.962 v 3.73 c 0,0 9.576,2.16 9.576,21.771 0,6.315 0.065,11.004 0.065,11.004 l 7.71,-0.044 c 0,0 0.259,-23.404 0.642,-31.23 0.353,-7.33 12.496,-40.435 14.44,-45.685 h -4.115 z"
   id="path13" /><path
   style="fill:#9d0a12"
   d="m 15.038,145.107 c -2.894,-0.852 -4.832,-2.32 -4.832,-5.229 0,-4.096 4.155,-6.891 7.443,-6.891 6.573,0 9.912,3.252 10.947,8.766 h 4.924 c 0,-8.475 -7.155,-12.961 -15.586,-12.961 -7.327,0 -14.833,3.756 -14.833,11.947 0,4.205 1.994,8.469 8.98,10.291 5.63,1.531 14.797,3.014 15.465,8.787 0.441,3.768 -2.297,7.277 -8.58,7.277 -5.173,0 -12.18,-2.039 -12.906,-10.271 H 1.564 c 0.169,10.061 7.678,14.5 16.948,14.5 8.01,0 16.145,-3.646 16.145,-12.734 0,-10.068 -12.212,-11.296 -19.619,-13.482"
   id="path14" /><path
   style="fill:#9d0a12"
   d="m 630.508,151.264 c -2.125,-0.572 -4.113,-1.672 -3.676,-3.865 0.387,-1.91 2.826,-3.037 5.432,-3.037 3.609,0 7.1,1.223 7.854,5.24 h 3.715 c 0,-6.174 -5.217,-9.459 -11.361,-9.459 -5.342,0 -10.82,2.74 -10.82,8.709 0,2.945 1.111,6.119 6.898,7.744 7.561,2.143 10.867,3.742 10.867,6.785 0,1.916 -2.113,3.57 -6.191,3.57 -3.115,0 -8.475,-0.365 -8.998,-6.363 h -3.687 c 0.125,7.324 5.592,10.564 12.352,10.564 5.834,0 11.77,-2.656 11.77,-9.289 -10e-4,-4.498 -3.223,-7.656 -14.155,-10.599"
   id="path15" /><path
   style="fill:#9d0a12"
   d="m 58.761,140.17 c -3.864,0 -7.221,1.992 -8.812,4.66 h -0.115 v -15.07 h -6.481 v 40.598 h 6.481 V 153.02 c 0,-4.324 2.786,-8.672 7.107,-8.672 3.876,0 5.573,2.928 5.739,7.533 v 18.477 h 6.49 v -20.18 C 69.171,143.521 65.189,140.17 58.761,140.17"
   id="path16" /><path
   style="fill:#9d0a12"
   d="m 390.841,140.17 c -3.857,0 -7.223,1.992 -8.814,4.66 h -0.111 v -15.07 h -6.477 v 40.598 h 6.477 V 153.02 c 0,-4.324 2.789,-8.672 7.104,-8.672 3.865,0 5.568,2.928 5.746,7.533 v 18.477 h 6.48 v -20.18 c -10e-4,-6.657 -3.983,-10.008 -10.405,-10.008"
   id="path17" /><path
   style="fill:#9d0a12"
   d="m 202.795,140.17 c -3.869,0 -7.232,1.992 -8.82,4.66 h -0.11 v -15.07 h -6.484 v 40.598 h 6.484 V 153.02 c 0,-4.324 2.782,-8.672 7.097,-8.672 3.883,0 5.58,2.928 5.746,7.533 v 18.477 h 6.489 v -20.18 c -0.001,-6.657 -3.984,-10.008 -10.402,-10.008"
   id="path18" /><path
   style="fill:#9d0a12"
   d="m 129.829,140.17 c -3.861,0 -7.164,1.992 -9.149,5.229 l -0.116,-0.115 v -4.33 h -6.14 v 29.404 h 6.481 V 153.02 c 0,-4.324 2.783,-8.672 7.104,-8.672 3.87,0 5.576,2.928 5.748,7.533 v 18.477 h 6.481 v -20.18 c 0.001,-6.657 -3.981,-10.008 -10.409,-10.008"
   id="path19" /><path
   style="fill:#9d0a12"
   d="m 491.636,140.17 c -3.869,0 -7.164,1.992 -9.164,5.229 l -0.107,-0.115 v -4.33 h -6.137 v 29.404 h 6.469 V 153.02 c 0,-4.324 2.797,-8.672 7.111,-8.672 3.863,0 5.574,2.928 5.74,7.533 v 18.477 h 6.486 v -20.18 c 0,-6.657 -3.976,-10.008 -10.398,-10.008"
   id="path20" /><path
   style="fill:#9d0a12"
   d="m 171.172,145.002 h -0.119 c -1.649,-3.354 -5.006,-4.832 -8.704,-4.832 -8.354,0 -13.304,6.826 -13.304,14.734 0,8.408 3.872,15.453 13.191,15.453 3.644,0 6.994,-1.936 8.816,-5.182 h 0.119 v 4.502 c 0,4.832 -2.327,8.152 -7.571,8.152 -3.857,0 -7.603,-1.221 -8.57,-4.975 h -4.962 c 0.623,6.887 7.221,9.158 13.141,9.158 9.322,0 14.436,-4.314 14.436,-13.191 v -27.864 h -6.473 z m -7.91,21.18 c -5.398,0 -7.733,-5.881 -7.733,-10.666 0,-4.885 1.952,-11.174 7.698,-11.174 5.635,0 7.944,5.604 7.944,10.664 0,5.06 -2.166,11.176 -7.909,11.176"
   id="path21" /><rect
   x="258.83899"
   y="140.957"
   style="fill:#9d0a12"
   width="6.48"
   height="29.396"
   id="rect21" /><rect
   x="258.83899"
   y="129.76001"
   style="fill:#9d0a12"
   width="6.48"
   height="6.1409998"
   id="rect22" /><polygon
   style="fill:#9d0a12"
   points="621.832,220.626 628.947,220.626 628.947,184.216 641.852,184.216 641.852,180.033 608.982,180.033 608.982,184.216 621.832,184.216 "
   id="polygon22"
   transform="translate(-336.159,-50.273)" /><path
   style="fill:#9d0a12"
   d="m 319.386,140.174 c -8.756,0 -14.215,7.16 -14.215,15.518 0,9.092 5.121,15.461 14.393,15.461 6.363,0 11.936,-3.59 13.295,-10.006 h -4.719 c -1.139,3.236 -4.504,5.941 -8.576,5.834 -6.268,-0.182 -8.357,-5.924 -8.107,-10.488 H 333.4 c 1.091,-8.817 -4.743,-16.319 -14.014,-16.319 m -7.729,12.123 c 0.172,-4.387 3.246,-8.078 7.729,-7.93 4.777,0.162 7.109,3.836 7.395,7.93 z"
   id="path22" /><path
   style="fill:#9d0a12"
   d="m 575.396,140.174 c -8.766,0 -14.221,7.16 -14.221,15.518 0,9.092 5.123,15.461 14.387,15.461 6.364,0 11.931,-3.59 13.296,-10.006 h -4.717 c -1.141,3.236 -4.501,5.941 -8.579,5.834 -6.262,-0.182 -8.355,-5.924 -8.102,-10.488 h 21.95 c 1.08,-8.817 -4.748,-16.319 -14.014,-16.319 m -7.741,12.123 c 0.174,-4.387 3.242,-8.078 7.74,-7.93 4.766,0.162 7.101,3.836 7.392,7.93 z"
   id="path23" /><path
   style="fill:#9d0a12"
   d="m 354.677,144.408 c 3.141,-0.232 6.998,0.961 8.453,6.359 l 4.807,0.033 c -0.623,-7.219 -6.422,-10.631 -13.242,-10.631 -9.668,0 -14.494,6.939 -14.494,15.807 0,8.633 5.051,15.176 14.27,15.176 7.555,0 12.285,-4.143 13.467,-11.822 h -4.896 c -0.617,4.262 -3.609,7.977 -8.57,7.629 -5.615,-0.395 -7.793,-6.098 -7.793,-10.982 -0.002,-8.868 4.65,-11.321 7.998,-11.569"
   id="path24" /><path
   style="fill:#9d0a12"
   d="m 458.564,153.408 c 0,5.465 -0.338,13.734 -9.555,13.734 -9.201,0 -9.545,-8.27 -9.545,-13.734 V 129.76 h -7.105 v 25.994 c 0,10.404 6.648,15.57 16.65,15.57 10.012,0 16.666,-5.166 16.666,-15.57 V 129.76 h -7.111 z"
   id="path25" /><rect
   x="512.58099"
   y="129.76001"
   style="fill:#9d0a12"
   width="6.4819999"
   height="6.1409998"
   id="rect25" /><rect
   x="512.58099"
   y="140.957"
   style="fill:#9d0a12"
   width="6.4819999"
   height="29.396"
   id="rect26" /><polygon
   style="fill:#9d0a12"
   points="873.475,220.63 881.064,220.63 891.262,191.226 886.307,191.226 878.881,213.808 878.768,213.808 869.83,191.226 862.771,191.226 "
   id="polygon26"
   transform="translate(-336.159,-50.273)" /><path
   style="fill:#9d0a12"
   d="m 604.664,146.652 h -0.113 v -5.699 h -6.084 v 29.404 h 6.488 v -13.99 c 0,-6.541 3.572,-11.422 7.953,-11.422 0.908,0 1.881,0.104 2.783,0.273 v -4.348 c -0.617,-0.055 -0.902,-0.16 -2.439,-0.16 -3.922,0.001 -7.846,2.811 -8.588,5.942"
   id="path26" /><rect
   x="652.883"
   y="140.957"
   style="fill:#9d0a12"
   width="6.4879999"
   height="29.396"
   id="rect27" /><rect
   x="652.883"
   y="129.76001"
   style="fill:#9d0a12"
   width="6.4879999"
   height="6.1409998"
   id="rect28" /><path
   style="fill:#9d0a12"
   d="m 678.238,132.148 h -6.486 v 8.551 h -4.879 v 4.189 h 4.879 v 18.248 c 0.178,4.889 1.311,7.512 8.131,7.512 1.426,0 2.789,-0.176 4.209,-0.344 v -4.342 c -0.896,0.219 -1.816,0.219 -2.73,0.219 -2.891,0 -3.123,-1.359 -3.123,-4.033 v -17.26 h 5.854 v -4.189 h -5.854 v -8.551 z"
   id="path28" /><path
   style="fill:#9d0a12"
   d="m 104.029,163.986 c 0,-0.057 -0.003,-0.107 -0.003,-0.164 v -15.129 c 0,-6.211 -6.036,-8.523 -11.772,-8.523 -6.544,0 -12.912,2.209 -13.366,9.775 h 4.143 c 1.285,-5.473 5.864,-5.781 8.82,-5.49 2.555,0.244 6.083,1.4 6.083,4.803 0,3.869 -4.092,3.24 -8.813,4.148 -5.455,0.629 -11.319,1.834 -11.319,9.172 0,5.732 4.778,8.574 10.066,8.574 3.461,0 7.595,-1.064 10.153,-3.561 v 3.561 h 6.012 v -4.91 h -0.003 v -2.256 z m -6.49,-3.517 c 0,4.094 -4.437,6.529 -7.279,6.529 -2.279,0 -5.968,-1.76 -5.968,-4.713 0,-3.412 2.501,-4.439 5.285,-4.881 2.896,-0.523 5.971,-0.463 7.962,-1.768 z"
   id="path29" /><path
   style="fill:#9d0a12"
   d="m 248.595,163.986 v -0.164 -15.129 c 0,-6.211 -6.025,-8.523 -11.764,-8.523 -6.547,0 -12.91,2.209 -13.373,9.775 h 4.148 c 1.289,-5.473 5.865,-5.781 8.82,-5.49 2.547,0.244 6.09,1.4 6.09,4.803 0,3.869 -4.096,3.24 -8.82,4.148 -5.449,0.629 -11.307,1.834 -11.307,9.172 0,5.732 4.766,8.574 10.049,8.574 3.473,0 7.604,-1.064 10.16,-3.561 v 3.561 h 6.008 v -4.91 h -0.012 v -2.256 z m -6.483,-3.517 c 0,4.094 -4.439,6.529 -7.283,6.529 -2.271,0 -5.965,-1.76 -5.965,-4.713 0,-3.412 2.506,-4.439 5.289,-4.881 2.896,-0.523 5.977,-0.463 7.959,-1.768 z"
   id="path30" /><path
   style="fill:#9d0a12"
   d="m 704.942,162.908 h -0.117 l -8.797,-21.951 h -7.105 l 12.264,29.291 -4.387,11.889 h 5.857 c 0.346,-0.814 15.385,-41.18 15.385,-41.18 h -5.389 z"
   id="path31" />
</svg>
