<?xml version="1.0" encoding="UTF-8" standalone="no"?>
<!-- Created with Inkscape (http://www.inkscape.org/) -->
<svg
   xmlns:dc="http://purl.org/dc/elements/1.1/"
   xmlns:cc="http://creativecommons.org/ns#"
   xmlns:rdf="http://www.w3.org/1999/02/22-rdf-syntax-ns#"
   xmlns:svg="http://www.w3.org/2000/svg"
   xmlns="http://www.w3.org/2000/svg"
   xmlns:sodipodi="http://sodipodi.sourceforge.net/DTD/sodipodi-0.dtd"
   xmlns:inkscape="http://www.inkscape.org/namespaces/inkscape"
   id="svg2"
   sodipodi:version="0.32"
   inkscape:version="0.46"
   width="990"
   height="765"
   version="1.0"
   sodipodi:docname="SBLogoCMYK3.svg"
   inkscape:output_extension="org.inkscape.output.svg.inkscape"
   style="display:inline">
  <metadata
     id="metadata7">
    <rdf:RDF>
      <cc:Work
         rdf:about="">
        <dc:format>image/svg+xml</dc:format>
        <dc:type
           rdf:resource="http://purl.org/dc/dcmitype/StillImage" />
      </cc:Work>
    </rdf:RDF>
  </metadata>
  <defs
     id="defs5" />
  <sodipodi:namedview
     inkscape:window-height="968"
     inkscape:window-width="1280"
     inkscape:pageshadow="2"
     inkscape:pageopacity="0.0"
     guidetolerance="10.0"
     gridtolerance="10.0"
     objecttolerance="10.0"
     borderopacity="1.0"
     bordercolor="#666666"
     pagecolor="#ffffff"
     id="base"
     showgrid="false"
     inkscape:zoom="0.85862968"
     inkscape:cx="519.5839"
     inkscape:cy="437.47702"
     inkscape:window-x="-4"
     inkscape:window-y="-4"
     inkscape:current-layer="layer5"
     inkscape:document-units="in"
     units="px" />
  <g
     inkscape:groupmode="layer"
     id="layer5"
     inkscape:label="Vector"
     style="display:inline"
     transform="translate(-4.5446749,0.9968097)">
    <path
       style="font-size:253.84162903px;font-style:normal;font-variant:normal;font-weight:normal;font-stretch:normal;text-align:start;line-height:125%;writing-mode:lr-tb;text-anchor:start;fill:#000000;fill-opacity:1;stroke:none;stroke-width:1px;stroke-linecap:butt;stroke-linejoin:miter;stroke-opacity:1;display:inline;font-family:CenturyOldStyle;-inkscape-font-specification:CenturyOldStyle"
       d="M 721.82053,244.64417 L 721.82053,137.55473 C 721.82039,130.0355 720.04383,124.85043 716.49085,121.99949 C 712.93759,119.14891 707.44265,117.72353 700.00602,117.72335 L 700.00602,111.77394 L 759.50015,111.77394 L 759.50015,117.72335 C 751.81531,117.72353 745.92788,119.16957 741.83783,122.06147 C 737.74744,124.95371 735.70234,130.11813 735.7025,137.55473 L 735.7025,296.20575 L 725.78681,296.20575 L 616.71424,141.52101 L 616.71424,260.50927 C 616.71419,267.53291 617.5405,272.94522 619.19316,276.74621 C 620.84572,280.54724 623.2007,283.25339 626.25809,284.86468 C 629.31537,286.47599 633.40558,287.61216 638.52875,288.2732 L 638.52875,296.20575 L 579.03462,296.20575 L 579.03462,288.2732 C 585.4798,287.52953 590.21041,286.66191 593.22645,285.67033 C 596.24245,284.67877 598.59742,282.4684 600.29138,279.03921 C 601.98528,275.61006 602.83224,270.09446 602.83227,262.49241 L 602.83227,143.50414 C 602.83224,133.17547 600.99371,126.29646 597.31667,122.86712 C 593.63958,119.43812 587.54557,117.72353 579.03462,117.72335 L 579.03462,111.77394 L 626.62992,111.77394 L 721.82053,244.64417 z"
       id="text2631" />
    <path
       style="font-size:253.84162903px;font-style:normal;font-variant:normal;font-weight:normal;font-stretch:normal;text-align:start;line-height:125%;writing-mode:lr-tb;text-anchor:start;fill:#000000;fill-opacity:1;stroke:none;stroke-width:1px;stroke-linecap:butt;stroke-linejoin:miter;stroke-opacity:1;display:inline;font-family:CenturyOldStyle;-inkscape-font-specification:CenturyOldStyle"
       d="M 843.02444,222.41791 L 795.42914,137.14299 C 793.03283,132.18531 790.59522,128.5289 788.11632,126.17376 C 785.63738,123.81895 782.9932,122.26963 780.18377,121.52578 C 777.37432,120.78228 773.20147,120.0386 767.66521,119.29475 L 767.66521,111.3622 L 841.04131,111.3622 L 841.04131,119.29475 C 833.02607,119.29493 827.34521,119.68742 823.99872,120.47224 C 820.65212,121.2574 818.97885,122.84804 818.9789,125.24416 C 818.97885,126.73168 819.72253,128.71482 821.20993,131.19358 L 860.87268,202.58653 L 896.56916,135.15985 C 898.63481,131.60689 899.66769,128.83877 899.66782,126.85546 C 899.66769,124.29408 898.24231,122.62081 895.39168,121.83564 C 892.5408,121.05083 886.98388,120.20386 878.72092,119.29475 L 878.72092,111.3622 L 942.18133,111.3622 L 942.18133,119.29475 C 932.43074,120.69965 925.69635,122.04239 921.97812,123.323 C 918.25959,124.60394 915.07831,127.88851 912.43426,133.17671 L 868.80523,214.48536 L 868.80523,266.04694 C 868.80514,272.07901 869.85868,276.56172 871.96586,279.49509 C 874.07284,282.4285 876.55176,284.329 879.40263,285.19661 C 882.25328,286.06425 886.65336,286.95253 892.60289,287.86146 L 892.60289,295.79401 L 819.22679,295.79401 L 819.22679,287.86146 C 828.31612,286.8699 834.55473,285.01071 837.94265,282.28388 C 841.33045,279.55708 843.02438,274.80582 843.02444,268.03008 L 843.02444,222.41791 z"
       id="text2431" />
    <path
       style="font-size:253.84162903px;font-style:normal;font-variant:normal;font-weight:normal;font-stretch:normal;text-align:start;line-height:125%;writing-mode:lr-tb;text-anchor:start;fill:#000000;fill-opacity:1;stroke:none;stroke-width:1px;stroke-linecap:butt;stroke-linejoin:miter;stroke-opacity:1;display:inline;font-family:CenturyOldStyle;-inkscape-font-specification:CenturyOldStyle"
       d="M 242.98328,288.2732 C 249.59369,287.61216 254.8614,286.64125 258.78641,285.36047 C 262.71131,284.0797 265.68601,281.84867 267.71053,278.66738 C 269.73492,275.48611 270.74714,270.75551 270.74721,264.47555 L 270.74721,143.50414 C 270.74714,136.64595 270.27202,131.62614 269.32183,128.44469 C 268.37151,125.26358 266.90482,123.34242 264.92174,122.6812 C 262.93854,122.02033 259.592,121.6898 254.88211,121.68963 C 248.51949,121.6898 241.7851,123.63162 234.67889,127.5151 C 227.57262,131.39891 221.10677,136.48069 215.28133,142.76047 C 209.45585,149.04055 204.80788,155.8989 201.33739,163.33552 L 193.40484,159.36925 L 211.25308,111.77394 L 356.02213,111.77394 L 375.85351,159.36925 L 367.92096,163.33552 C 364.20241,156.80783 359.34786,150.36264 353.35729,143.99993 C 347.36642,137.63752 340.77662,132.3285 333.58789,128.07285 C 326.39889,123.81754 319.33397,121.6898 312.3931,121.68963 C 308.0962,121.6898 304.85294,122.12362 302.66333,122.99106 C 300.47352,123.85886 298.90354,125.69739 297.95338,128.50667 C 297.00303,131.31628 296.52791,135.65438 296.528,141.52101 L 296.528,264.47555 C 296.52791,271.08603 297.64342,276.04387 299.87454,279.34908 C 302.10548,282.65432 304.97689,284.7614 308.4888,285.67033 C 312.0005,286.57928 317.2682,287.4469 324.29193,288.2732 L 324.29193,296.20575 L 242.98328,296.20575 L 242.98328,288.2732 z"
       id="text2435" />
    <path
       style="font-size:253.84162903px;font-style:normal;font-variant:normal;font-weight:normal;font-stretch:normal;text-align:start;line-height:125%;writing-mode:lr-tb;text-anchor:start;fill:#000000;fill-opacity:1;stroke:none;stroke-width:1px;stroke-linecap:butt;stroke-linejoin:miter;stroke-opacity:1;display:inline;font-family:CenturyOldStyle;-inkscape-font-specification:CenturyOldStyle"
       d="M 56.917,248.123 L 64.849551,244.15673 C 73.195233,254.89876 81.148434,263.49235 88.709176,269.93752 C 96.269844,276.38273 103.4174,281.05136 110.15185,283.94343 C 116.88619,286.83551 123.18678,288.28155 129.05363,288.28154 C 136.32505,288.28155 142.7909,286.4017 148.4512,282.64199 C 154.1113,278.88231 158.44941,274.31696 161.46554,268.94595 C 164.48145,263.57498 165.98946,258.61714 165.98957,254.07241 C 165.49368,244.4873 162.08516,236.74067 155.76402,230.83252 C 149.44267,224.92449 142.74959,220.60704 135.68475,217.88015 C 128.61975,215.15341 118.45617,211.70358 105.19401,207.53065 C 91.931734,203.35789 83.110912,199.70148 78.731515,196.56142 C 73.195233,192.18209 69.001727,186.85241 66.150985,180.57237 C 63.300212,174.29256 61.874833,167.6821 61.874844,160.74099 C 61.874833,154.29594 63.072978,147.85075 65.469281,141.4054 C 67.865556,134.96036 71.253413,129.17622 75.632862,124.05295 C 80.012262,118.93002 85.362597,114.86046 91.683883,111.84426 C 98.005087,108.82842 104.9254,107.32041 112.44486,107.32022 C 117.81579,107.32041 122.31916,107.85751 125.95498,108.93152 C 129.59066,110.0059 134.0114,111.55523 139.21722,113.5795 C 144.42286,115.60413 148.3065,116.61636 150.86815,116.61618 C 154.75169,116.61636 158.47007,114.8398 162.0233,111.2865 L 179.87154,154.91553 L 171.93899,158.8818 C 167.14629,149.79257 161.50675,142.14923 155.02034,135.95177 C 148.53373,129.75463 141.88197,125.20995 135.06502,122.3177 C 128.24791,119.4258 121.6168,117.97976 115.17167,117.97959 C 109.38746,117.97976 104.07844,119.11593 99.244596,121.38811 C 94.410654,123.66062 90.527013,127.00716 87.593661,131.42774 C 84.660236,135.84864 83.028281,141.03372 82.69779,146.98298 C 82.697758,155.65934 85.07339,162.57966 89.824691,167.74395 C 94.575915,172.90849 99.946908,176.75082 105.93769,179.27094 C 111.92835,181.79129 121.41022,185.17914 134.38332,189.43452 C 147.35625,193.6901 156.56956,197.38782 162.0233,200.5277 C 167.64207,203.75038 172.39334,207.65468 176.2771,212.2406 C 180.16062,216.82669 183.05269,221.78452 184.95333,227.11414 C 186.8537,232.44388 187.80395,237.95948 187.80409,243.66094 C 187.80395,252.66773 185.57293,261.22001 181.111,269.31779 C 176.64881,277.41561 170.18297,284.08804 161.71343,289.33508 C 153.24368,294.58213 143.43129,297.37092 132.27623,297.70144 C 128.6404,297.70144 125.14926,297.35026 121.80279,296.6479 C 118.45617,295.94554 114.59319,294.95397 110.21383,293.6732 C 105.83434,292.39242 102.26057,291.42151 99.492488,290.76046 C 96.724312,290.09942 94.059474,289.7689 91.497964,289.76889 C 85.052732,289.7689 79.475163,292.41308 74.765239,297.70144 L 56.917,248.123 z"
       id="text2439" />
    <path
       style="font-size:253.84162903px;font-style:normal;font-variant:normal;font-weight:normal;font-stretch:normal;text-align:start;line-height:125%;writing-mode:lr-tb;text-anchor:start;fill:#000000;fill-opacity:1;stroke:none;stroke-width:1px;stroke-linecap:butt;stroke-linejoin:miter;stroke-opacity:1;display:inline;font-family:CenturyOldStyle;-inkscape-font-specification:CenturyOldStyle"
       d="M 54.782492,525.14697 L 54.782492,515.23128 C 62.549766,515.23129 68.457858,513.68197 72.506786,510.5833 C 76.555662,507.48467 78.580113,501.7625 78.580145,493.41677 L 78.580145,366.49595 C 78.580113,358.31568 76.638293,352.96534 72.754678,350.44493 C 68.871011,347.92487 62.880289,346.66476 54.782492,346.66458 L 54.782492,340.71516 L 136.09114,340.71516 C 149.64248,340.71535 161.23143,342.67783 170.85802,346.6026 C 180.48437,350.52774 187.59061,355.6715 192.17675,362.03389 C 196.76261,368.39662 199.05561,375.25496 199.05576,382.60895 C 199.05561,389.79796 196.94853,396.6563 192.73451,403.184 C 188.5202,409.71195 182.42619,415.06228 174.45246,419.23502 C 166.47847,423.40798 156.99661,425.65966 146.00683,425.99009 C 156.83134,426.81649 166.37519,428.77897 174.63838,431.87753 C 182.90132,434.97627 189.71835,438.71531 195.08949,443.09465 C 200.46033,447.47416 204.48858,452.37002 207.17423,457.78226 C 209.85957,463.19464 211.20232,468.83418 211.20248,474.70091 C 211.20232,481.06352 209.63233,487.2195 206.49253,493.16888 C 203.3524,499.11832 198.49785,504.57194 191.92886,509.52976 C 185.35958,514.48762 177.36506,518.32994 167.94529,521.05675 C 158.52527,523.78357 147.90723,525.14697 136.09114,525.14697 L 54.782492,525.14697 z M 104.36094,420.04067 L 132.12486,420.04067 C 145.34568,420.04078 155.26136,416.73555 161.87193,410.12498 C 168.48227,403.51465 171.78749,394.92106 171.78762,384.34419 C 171.78749,376.08127 169.74238,369.11964 165.65229,363.45927 C 161.56195,357.79924 156.14964,353.58507 149.41535,350.81677 C 142.68084,348.04882 135.59527,346.66476 128.15859,346.66458 C 122.37436,346.66476 117.80902,347.11922 114.46254,348.02798 C 111.11593,348.9371 108.5957,350.77563 106.90183,353.54359 C 105.20784,356.31188 104.36088,360.62934 104.36094,366.49595 L 104.36094,420.04067 z M 104.36094,429.95636 L 104.36094,491.43363 C 104.36088,498.87042 105.55902,504.32405 107.95537,507.79452 C 110.3516,511.26502 113.59485,513.3721 117.68514,514.11577 C 121.77529,514.85946 127.91061,515.23129 136.09114,515.23128 C 141.54467,515.23129 147.70066,513.92986 154.55911,511.32698 C 161.41735,508.72413 167.3461,504.50997 172.34538,498.68448 C 177.3444,492.85904 179.84398,485.44294 179.84412,476.43615 C 179.84398,475.77516 179.82332,475.25871 179.78214,474.88683 C 179.74069,474.51504 179.72004,474.08123 179.72017,473.58539 C 179.72004,466.31395 178.35663,459.93073 175.62995,454.43572 C 172.90301,448.94085 168.99871,444.35485 163.91704,440.6777 C 158.83514,437.00072 152.9477,434.29457 146.25472,432.55923 C 139.56154,430.82408 132.20741,429.95646 124.19231,429.95636 L 104.36094,429.95636 z"
       id="text2443" />
    <path
       style="fill:#008061;fill-opacity:1;display:inline"
       d="M 464.01458,337.07551 L 457.57708,337.73176 C 454.0314,338.09502 447.42856,339.56051 442.92083,340.98176 C 410.52729,351.19517 385.72267,376.77037 377.10833,408.82551 C 373.93959,420.61686 373.96012,442.46739 377.13958,454.32551 C 386.86136,490.58377 418.10257,519.08862 454.88958,525.26301 C 457.55172,525.70983 465.4848,526.13582 472.51458,526.20051 C 483.19224,526.29877 485.39427,526.05375 485.88958,524.76301 C 486.39394,523.44866 466.18202,348.18238 464.57708,339.95051 L 464.01458,337.07551 z M 439.20208,408.45051 L 440.73333,413.41926 L 445.70208,413.41926 L 441.67083,416.48176 L 443.20208,421.45051 L 439.20208,418.35676 L 435.17083,421.45051 L 436.73333,416.48176 L 432.70208,413.41926 L 437.67083,413.41926 L 439.20208,408.45051 z M 420.23333,465.54426 L 422.32708,472.41926 L 429.23333,472.41926 L 423.63958,476.63801 L 425.79583,483.54426 L 420.23333,479.26301 L 414.67083,483.54426 L 416.79583,476.63801 L 411.23333,472.41926 L 418.10833,472.41926 L 420.23333,465.54426 z"
       id="path2445" />
    <path
       style="font-size:253.84162903px;font-style:normal;font-variant:normal;font-weight:normal;font-stretch:normal;text-align:start;line-height:125%;writing-mode:lr-tb;text-anchor:start;fill:#000000;fill-opacity:1;stroke:none;stroke-width:1px;stroke-linecap:butt;stroke-linejoin:miter;stroke-opacity:1;display:inline;font-family:CenturyOldStyle;-inkscape-font-specification:CenturyOldStyle"
       d="M 219.48838,515.56733 C 227.83407,515.56733 233.88677,514.16261 237.64649,511.35316 C 241.40616,508.54373 243.286,503.338 243.28604,495.73595 L 243.28604,370.79827 C 243.286,362.61799 241.48879,356.60661 237.89438,352.76411 C 234.29992,348.92196 228.16459,347.0008 219.48838,347.00062 L 219.48838,339.06807 L 306.74644,339.06807 C 315.5052,339.06825 323.31379,340.39034 330.17226,343.03434 C 337.03048,345.67871 342.79397,349.27314 347.46274,353.81766 C 352.13124,358.36251 355.62238,363.42364 357.93619,369.00105 C 360.2497,374.57878 361.40653,380.46621 361.40668,386.66337 C 361.40653,394.01764 359.65063,401.12388 356.13897,407.98211 C 352.62702,414.84057 347.27668,420.64537 340.08795,425.39653 C 332.89895,430.14789 324.42931,433.10194 314.67899,434.25868 L 352.35861,499.70223 C 354.83739,504.66009 357.54354,508.27518 360.47708,510.54751 C 363.41032,512.81987 366.32305,514.22459 369.21528,514.76168 C 372.1072,515.29879 375.74295,515.56733 380.12254,515.56733 L 380.12254,523.49988 L 336.49351,523.49988 L 286.91507,436.24182 L 269.06683,436.24182 L 269.06683,495.73595 C 269.06677,501.35486 270.26491,505.58968 272.66126,508.44043 C 275.05749,511.2912 278.01154,513.1917 281.52341,514.14195 C 285.03514,515.09221 288.8155,515.56733 292.86448,515.56733 L 292.86448,523.49988 L 219.48838,523.49988 L 219.48838,515.56733 z M 269.06683,428.30927 C 271.0499,428.47462 274.02461,428.55725 277.99095,428.55716 C 287.98919,428.55725 296.99593,427.37977 305.0112,425.0247 C 313.02628,422.66982 319.65739,418.82749 324.90455,413.49771 C 330.15148,408.16814 333.35342,401.20651 334.51037,392.61279 C 334.59288,391.78661 334.63419,390.58847 334.63432,389.01835 C 334.63419,381.66436 332.775,374.74404 329.05674,368.25738 C 325.33825,361.77103 319.98791,356.60661 313.00572,352.76411 C 306.02333,348.92196 297.9875,347.0008 288.8982,347.00062 C 275.67722,347.0008 269.06677,353.61125 269.06683,366.832 L 269.06683,428.30927 z"
       id="text2447" />
    <path
       style="font-size:253.84162903px;font-style:normal;font-variant:normal;font-weight:normal;font-stretch:normal;text-align:start;line-height:125%;writing-mode:lr-tb;text-anchor:start;fill:#000000;fill-opacity:1;stroke:none;stroke-width:1px;stroke-linecap:butt;stroke-linejoin:miter;stroke-opacity:1;display:inline;font-family:CenturyOldStyle;-inkscape-font-specification:CenturyOldStyle"
       d="M 813.41975,449.37593 L 813.41975,493.00496 C 813.41969,501.43332 815.23756,507.23813 818.87338,510.41939 C 822.50906,513.60069 828.62373,515.72843 837.2174,516.80262 L 837.2174,524.73517 L 763.8413,524.73517 L 763.8413,516.80262 C 768.30335,516.80263 772.29028,516.12092 775.8021,514.75751 C 779.31389,513.39411 782.16464,510.77059 784.35438,506.88693 C 786.54407,503.00331 787.63892,497.71494 787.63896,491.02183 L 787.63896,366.08415 C 787.63892,360.38279 785.75908,356.25126 781.99941,353.68954 C 778.23969,351.12816 772.18699,349.31029 763.8413,348.23591 L 763.8413,340.30336 L 837.2174,340.30336 L 837.2174,348.23591 C 828.87162,349.39292 822.81893,350.98356 819.05929,353.00784 C 815.29954,355.03246 813.41969,358.73018 813.41975,364.10101 L 813.41975,433.51083 L 878.86329,368.06729 C 882.66418,364.26643 884.56468,360.75463 884.56481,357.53187 C 884.56468,354.80522 882.93273,352.5742 879.66894,350.83878 C 876.40491,349.10371 871.50904,348.23609 864.98133,348.23591 L 864.98133,340.30336 L 936.37429,340.30336 L 936.37429,348.23591 C 926.87158,350.30185 919.2489,352.42959 913.50623,354.61914 C 907.76324,356.80902 903.4871,359.3086 900.67781,362.11787 L 855.06564,407.73004 L 908.61036,493.00496 C 915.63381,506.96958 927.53262,514.90212 944.30684,516.80262 L 944.30684,524.73517 L 866.96447,524.73517 L 866.96447,516.80262 C 880.68104,516.80263 887.53939,514.32371 887.53952,509.36585 C 887.53939,506.80432 885.9694,503.33383 882.82957,498.95438 L 835.23426,427.56142 L 813.41975,449.37593 z"
       id="text2451" />
    <path
       style="fill:#bf2c37;fill-opacity:1;display:inline"
       d="M 436.29583,118.29426 C 433.75183,118.35794 420.38379,126.30492 412.88958,132.32551 C 401.39516,141.55971 393.24612,151.70912 386.76458,164.82551 C 381.56013,175.35752 379.18906,181.33072 377.88744,189.57128 C 377.21257,193.84392 376.52413,198.72609 376.51458,205.16926 C 376.50261,213.24483 377.49634,218.60273 378.37628,223.16078 C 379.55248,229.25344 381.01129,233.91701 384.26458,241.73176 C 390.69795,257.1854 404.6359,273.68671 419.82708,283.85676 C 429.22961,290.15148 436.31224,293.45285 447.60833,296.79426 C 452.07441,298.11533 456.79121,299.23374 458.07708,299.26301 C 460.2222,299.31185 460.36497,299.0163 459.82708,295.57551 C 459.50465,293.51301 454.28981,252.92277 448.23333,205.38801 C 442.17684,157.85327 436.95045,118.69886 436.63958,118.38801 C 436.57104,118.31947 436.46543,118.29001 436.29583,118.29426 z M 417.82708,212.10676 L 420.04583,219.38801 L 427.32708,219.35676 L 421.42083,223.82551 L 423.67083,231.10676 L 417.82708,226.57551 L 411.95208,231.10676 L 414.20208,223.82551 L 408.32708,219.35676 L 415.57708,219.38801 L 417.82708,212.10676 z"
       id="path2409"
       sodipodi:nodetypes="csssssssssssscccccccccccc" />
    <path
       style="fill:#bf2c37;fill-opacity:1;display:inline"
       d="M 474.73333,110.95051 C 471.00037,110.9329 466.7486,110.82434 462.94921,111.15324 C 454.58362,111.87741 447.29083,113.60201 444.63958,115.16926 C 443.98505,115.55617 460.96978,142.58819 487.45208,183.32551 C 511.58609,220.45051 534.03397,255.01792 537.35833,260.13801 L 543.42083,269.45051 L 547.67083,263.95051 C 564.64992,242.0848 570.89957,209.55557 563.67083,180.73176 C 556.58465,152.4764 534.86614,127.26367 509.01458,117.29426 C 501.5832,114.42842 496.03332,112.77535 489.90059,111.87929 C 485.46169,111.23072 480.71743,110.97873 474.73333,110.95051 z M 526.45208,148.20051 L 528.32708,154.32551 L 534.45208,154.32551 L 529.48333,158.07551 L 531.38958,164.20051 L 526.45208,160.41926 L 521.51458,164.20051 L 523.42083,158.07551 L 518.45208,154.32551 L 524.57708,154.32551 L 526.45208,148.20051 z"
       id="path2391"
       sodipodi:nodetypes="cssscccssscccccccccccc" />
    <path
       style="fill:#005a9c;fill-opacity:1;display:inline"
       d="M 667.43112,337.16011 C 657.12446,337.20586 653.66521,338.38689 647.23333,340.13801 C 632.9918,344.01535 619.63376,350.97523 608.07708,360.51301 L 603.42083,364.35676 L 654.07708,442.79426 C 681.94088,485.94383 704.89502,521.2793 705.07708,521.29426 C 705.25914,521.30925 708.63414,519.70881 712.57708,517.73176 C 737.52035,505.22503 754.78937,483.09681 761.95208,454.54426 C 763.17383,449.674 764.75847,443.53013 764.76458,432.32551 C 764.77491,413.36828 761.58107,403.74508 754.26458,388.82551 C 742.7269,365.29827 723.09279,347.51667 697.70208,340.70051 C 689.27194,338.43743 687.16422,337.80479 672.30612,337.08732 C 670.52454,337.00129 668.9035,337.15357 667.43112,337.16011 z M 662.67083,377.32551 L 664.92083,384.60676 L 672.17083,384.57551 L 666.29583,389.07551 L 668.54583,396.32551 L 662.67083,391.82551 L 656.79583,396.32551 L 659.07708,389.07551 L 653.17083,384.57551 L 660.45208,384.60676 L 662.67083,377.32551 z M 739.35833,406.10676 L 741.23333,412.23176 L 747.35833,412.20051 L 742.38958,415.98176 L 744.29583,422.10676 L 739.35833,418.29426 L 734.42083,422.10676 L 736.32708,415.98176 L 731.35833,412.20051 L 737.48333,412.23176 L 739.35833,406.10676 z M 707.73333,453.51301 L 709.23333,458.48176 L 714.23333,458.48176 L 710.20208,461.54426 L 711.73333,466.51301 L 707.73333,463.41926 L 703.70208,466.51301 L 705.26458,461.54426 L 701.23333,458.48176 L 706.20208,458.48176 L 707.73333,453.51301 z"
       id="path2427"
       sodipodi:nodetypes="cscccssssssssccccccccccccccccccccccccccccccccc" />
    <path
       transform="scale(0.9773232,1.023203)"
       style="font-size:117.33366394px;font-style:normal;font-variant:normal;font-weight:normal;font-stretch:normal;text-align:start;line-height:125%;writing-mode:lr-tb;text-anchor:start;fill:#000000;fill-opacity:1;stroke:none;stroke-width:1px;stroke-linecap:butt;stroke-linejoin:miter;stroke-opacity:1;font-family:TradeGothic LT;-inkscape-font-specification:TradeGothic LT"
       d="M 83.083954,554.92969 L 83.083954,614.76743 C 83.083932,617.27158 83.514217,619.61875 84.37481,621.80895 C 85.235357,623.99918 86.526212,625.91548 88.24738,627.55783 C 89.968493,629.2002 92.100224,630.49046 94.64258,631.42861 C 97.184869,632.36677 100.09839,632.83584 103.38316,632.83584 C 106.67024,632.83584 109.58436,632.36677 112.12554,631.42861 C 114.66662,630.49046 116.79775,629.2002 118.51895,627.55783 C 120.24003,625.91548 121.53089,623.99918 122.39152,621.80895 C 123.25203,619.61875 123.68231,617.27158 123.68238,614.76743 L 123.68238,554.92969 L 133.07107,554.92969 L 133.07107,614.0656 C 133.071,618.28851 132.3471,622.06201 130.89936,625.38611 C 129.45147,628.71024 127.41762,631.50679 124.79778,633.77578 C 122.17781,636.04478 119.04884,637.78561 115.41087,638.99829 C 111.77279,640.21097 107.76356,640.8173 103.38316,640.8173 C 99.002689,640.8173 94.994055,640.21097 91.357252,638.99829 C 87.720388,637.78561 84.591421,636.04478 81.970344,633.77578 C 79.349224,631.50679 77.315366,628.71024 75.868764,625.38611 C 74.422132,622.06201 73.698823,618.28851 73.698836,614.0656 L 73.698836,554.92969 L 83.083954,554.92969 z M 183.19987,639.64282 L 183.19987,554.92969 L 196.69209,554.92969 L 233.65248,620.16718 L 234.12156,620.16718 L 234.12156,554.92969 L 242.5721,554.92969 L 242.5721,639.64282 L 234.82696,639.64282 L 191.88316,564.07848 L 191.64683,564.07848 L 191.64683,639.64282 L 183.19987,639.64282 z M 304.19865,554.92969 L 304.19865,639.64282 L 294.81353,639.64282 L 294.81353,554.92969 L 304.19865,554.92969 z M 345.80885,554.92969 L 355.19397,554.92969 L 376.08042,624.38887 L 376.31675,624.38887 L 397.31779,554.92969 L 406.82107,554.92969 L 380.53844,639.64282 L 371.97331,639.64282 L 345.80885,554.92969 z M 497.1938,554.92969 L 497.1938,562.90758 L 455.77539,562.90758 L 455.77539,591.30284 L 485.22697,591.30284 L 485.22697,599.28073 L 455.77539,599.28073 L 455.77539,631.66494 L 499.54277,631.66494 L 499.54277,639.64282 L 446.39027,639.64282 L 446.39027,554.92969 L 497.1938,554.92969 z M 551.27571,593.17915 L 568.29139,593.17915 C 574.78203,593.1792 579.69002,591.94683 583.01539,589.48204 C 586.34064,587.01735 588.0033,583.0863 588.00336,577.68887 C 588.0033,574.87448 587.53362,572.5088 586.59433,570.59185 C 585.65493,568.67503 584.32469,567.14963 582.6036,566.01566 C 580.88241,564.88184 578.80976,564.08035 576.38565,563.6112 C 573.96144,563.14219 571.22397,562.90766 568.17322,562.90758 L 551.27571,562.90758 L 551.27571,593.17915 z M 541.8906,639.64282 L 541.8906,554.92969 L 569.11138,554.92969 C 578.34247,554.92978 585.3631,556.86576 590.17328,560.73765 C 594.98335,564.6097 597.38841,570.10374 597.38847,577.21979 C 597.38841,583.24504 595.82422,588.01757 592.69591,591.53738 C 589.56748,595.05729 585.49917,597.63841 580.49096,599.28073 L 598.44479,639.64282 L 588.2361,639.64282 L 571.10585,601.15704 L 551.27571,601.15704 L 551.27571,639.64282 L 541.8906,639.64282 z M 685.57696,576.51797 C 685.03025,574.48418 684.20907,572.56788 683.11341,570.76909 C 682.01766,568.97044 680.64862,567.40566 679.0063,566.07474 C 677.36389,564.74398 675.4476,563.68766 673.25743,562.90579 C 671.06717,562.12407 668.60303,561.73318 665.86499,561.7331 C 660.93786,561.73318 657.08559,562.86767 654.30815,565.13659 C 651.53068,567.40566 650.10256,570.65159 650.0238,574.87441 C 650.02378,577.22105 650.68861,579.21552 652.01827,580.85783 C 653.3479,582.50025 655.12752,583.96716 657.35715,585.25855 C 659.58673,586.55006 662.12906,587.74304 664.98413,588.8375 C 667.83914,589.93207 670.75326,591.04627 673.7265,592.18012 C 676.69967,593.31407 679.63348,594.54644 682.52796,595.87724 C 685.42234,597.20812 687.98376,598.7926 690.21223,600.63067 C 692.44058,602.46882 694.2393,604.63934 695.6084,607.14224 C 696.97737,609.64521 697.66189,612.57843 697.66195,615.94191 C 697.66189,618.99272 697.19281,622.00412 696.25472,624.97611 C 695.31651,627.94814 693.73263,630.60743 691.50308,632.954 C 689.27342,635.30058 686.3402,637.19778 682.70342,638.64559 C 679.06653,640.0934 674.54943,640.8173 669.15211,640.8173 C 664.53531,640.8173 660.56487,640.13279 657.24078,638.76375 C 653.91664,637.39472 651.08129,635.65388 648.73473,633.54124 C 646.38814,631.42861 644.43246,629.06235 642.86769,626.44243 C 641.3029,623.82254 639.97266,621.26052 638.87696,618.75637 L 647.44209,615.70558 C 648.30384,617.97579 649.36015,620.12781 650.61104,622.16165 C 651.86189,624.19553 653.36759,626.01395 655.12814,627.61691 C 656.88865,629.2199 658.9619,630.49046 661.34789,631.42861 C 663.73382,632.36677 666.49159,632.83584 669.62119,632.83584 C 675.87789,632.83584 680.55134,631.38923 683.64157,628.49598 C 686.73169,625.60276 688.27678,621.96592 688.27684,617.58547 C 688.27678,613.98566 687.10349,611.07154 684.75697,608.84309 C 682.41034,606.61471 679.47712,604.67873 675.9573,603.03513 C 672.4374,601.39161 668.60422,599.88532 664.45776,598.51624 C 660.31124,597.14725 656.47806,595.50488 652.95822,593.58914 C 649.43833,591.6735 646.50511,589.30723 644.15855,586.49033 C 641.81196,583.67354 640.63867,580.0367 640.63868,575.57982 C 640.63867,572.52909 641.24501,569.67346 642.4577,567.0129 C 643.67036,564.35248 645.3915,562.0447 647.62112,560.08954 C 649.85071,558.13454 652.5297,556.59005 655.65809,555.45606 C 658.78644,554.32225 662.26751,553.7553 666.10132,553.75521 C 672.74952,553.7553 678.49839,555.47584 683.34795,558.91685 C 688.19741,562.35801 691.75606,567.59961 694.02392,574.64166 L 685.57696,576.51797 z M 753.62017,554.92969 L 753.62017,639.64282 L 744.23506,639.64282 L 744.23506,554.92969 L 753.62017,554.92969 z M 830.42909,562.90758 L 830.42909,639.64282 L 821.04397,639.64282 L 821.04397,562.90758 L 795.6995,562.90758 L 795.6995,554.92969 L 855.77356,554.92969 L 855.77356,562.90758 L 830.42909,562.90758 z M 911.06576,603.97508 L 885.01588,554.92969 L 895.34274,554.92969 L 915.76011,593.76639 L 936.17391,554.92969 L 946.50076,554.92969 L 920.45088,603.97508 L 920.45088,639.64282 L 911.06576,639.64282 L 911.06576,603.97508 z"
       id="text2454" />
    <path
       style="fill:#005a9c;fill-opacity:1;display:inline"
       d="M 658.99236,526.38795 C 656.38235,526.02393 653.84043,525.29656 653.34364,524.77157 C 652.51052,523.89115 592.9102,408.91375 586.70015,396.2069 L 583.95838,390.59677 L 587.31914,384.97794 C 589.16756,381.88759 590.99762,379.68715 591.38594,380.08807 C 591.77426,380.489 610.62718,413.44203 633.28132,453.31703 C 655.93545,493.19203 674.66983,526.15453 674.91326,526.56703 C 675.43255,527.44699 665.80954,527.33875 658.99236,526.38795 z"
       id="path2447" />
    <path
       style="fill:#008061;fill-opacity:1;display:inline"
       d="M 478.69678,339.43895 C 478.14805,337.11435 478.26023,337.07123 483.68547,337.52113 C 486.73799,337.77427 489.37988,338.1694 489.55633,338.39921 L 528.27955,508.61655 C 522.89144,512.12065 517.12611,515.31172 511.40366,518.2435 C 500.10109,458.71622 489.96461,398.97249 478.69678,339.43895 z"
       id="path2419"
       sodipodi:nodetypes="cscccc" />
    <path
       style="fill:#005a9c;fill-opacity:1;display:inline"
       d="M 614.73782,509.08882 C 591.12048,492.04614 576.66646,466.89838 574.60441,439.26288 C 573.94278,430.39568 574.88666,415.31703 576.10336,415.31703 C 576.48555,415.31703 586.28763,436.91703 597.88576,463.31703 C 609.48388,489.71703 618.69528,511.30277 618.35554,511.28535 C 618.01579,511.26793 616.38782,510.27949 614.73782,509.08882 z"
       id="path2417" />
    <path
       style="fill:#008061;fill-opacity:1;display:inline"
       d="M 525.43344,415.18204 C 513.741,375.5078 504.36012,342.8614 504.58703,342.63449 C 504.81394,342.40758 507.5177,343.45692 510.59539,344.96636 L 516.19119,347.7108 L 519.10187,356.26391 C 520.70274,360.96813 529.98221,388.21703 539.72291,416.81703 L 557.43327,468.81703 L 552.68029,478.06703 C 550.06615,483.15453 547.64945,487.31703 547.30986,487.31703 C 546.97026,487.31703 537.12587,454.85628 525.43344,415.18204 z"
       id="path2415" />
    <path
       style="fill:#008061;fill-opacity:1;display:inline"
       d="M 551.35391,403.76053 C 544.54277,386.19161 538.09708,369.56703 537.03016,366.81703 L 535.09031,361.81703 L 538.74773,365.31703 C 544.50961,370.83091 553.70984,385.32771 557.24626,394.46517 C 561.5896,405.68756 564.39232,419.79726 564.02954,428.61419 L 563.73782,435.70403 L 551.35391,403.76053 z"
       id="path2413" />
    <path
       style="fill:#bf2c37;fill-opacity:1;display:inline"
       d="M 460.42678,231.71086 C 453.6557,193.97807 448.27998,162.94154 448.48072,162.7408 C 448.68146,162.54005 453.23303,180.70008 458.59532,203.09642 C 463.9576,225.49275 471.40063,256.52953 475.13538,272.06703 L 481.92584,300.31703 L 477.33183,300.31649 L 472.73782,300.31594 L 460.42678,231.71086 z"
       id="path2411" />
    <path
       style="fill:#bf2c37;fill-opacity:1;display:inline"
       d="M 492.76534,297.17634 C 491.36328,293.31529 453.23131,159.99127 453.4642,159.76445 C 453.61469,159.61789 464.42453,190.35805 477.48606,228.07593 C 490.54759,265.7938 501.12259,296.76296 500.98606,296.89627 C 500.84953,297.02959 499.05507,297.45298 496.99838,297.83715 C 494.26017,298.34863 493.12678,298.1717 492.76534,297.17634 z"
       id="path2403" />
    <path
       style="fill:#bf2c37;fill-opacity:1;display:inline"
       d="M 492.67825,245.06703 C 482.38485,219.07953 470.20757,188.39677 465.61763,176.88313 C 461.02769,165.36948 457.40607,155.81545 457.56958,155.65193 C 457.7331,155.48842 469.73351,181.33367 484.23718,213.08583 C 498.74084,244.83799 512.53309,274.97636 514.88662,280.05998 L 519.16577,289.30293 L 516.25145,290.80998 C 514.64858,291.63886 512.89982,292.31703 512.36533,292.31703 C 511.83083,292.31703 502.97164,271.05453 492.67825,245.06703 z"
       id="path2395" />
    <path
       style="fill:#bf2c37;fill-opacity:1;display:inline"
       d="M 527.48325,282.0339 C 526.96379,281.36462 515.16326,258.31703 501.25985,230.81703 C 487.35644,203.31703 473.04787,175.19203 469.46304,168.31703 C 465.87821,161.44203 463.4036,156.26703 463.96391,156.81703 C 464.52422,157.36703 480.71756,184.87484 499.94912,217.9455 L 534.9156,278.07397 L 531.67166,280.66237 C 529.22748,282.61262 528.19487,282.95076 527.48325,282.0339 z"
       id="path2393" />
  </g>
</svg>
