<?xml version="1.0" encoding="UTF-8"?>
<svg xmlns="http://www.w3.org/2000/svg" xmlns:xlink="http://www.w3.org/1999/xlink" width="167.001953" height="195.677994" viewBox="0 0 167.001953 195.677994" version="1.1">
<defs>
<linearGradient id="linear0" gradientUnits="userSpaceOnUse" x1="0" y1="0" x2="1" y2="0" gradientTransform="matrix(-68.724466,-38.878562,38.878562,-68.724466,112.676456,99.132652)">
<stop offset="0" style="stop-color:rgb(100%,100%,100%);stop-opacity:1;"/>
<stop offset="0.199997" style="stop-color:rgb(90.980393%,92.54902%,56.078434%);stop-opacity:1;"/>
<stop offset="0.759995" style="stop-color:rgb(67.058825%,80.392158%,1.176471%);stop-opacity:1;"/>
<stop offset="1" style="stop-color:rgb(56.078434%,76.862746%,11.764706%);stop-opacity:1;"/>
</linearGradient>
<linearGradient id="linear1" gradientUnits="userSpaceOnUse" x1="0" y1="0" x2="1" y2="0" gradientTransform="matrix(-64.078374,-42.855144,42.855144,-64.078374,106.841411,73.516738)">
<stop offset="0" style="stop-color:rgb(89.803922%,92.156863%,56.862748%);stop-opacity:1;"/>
<stop offset="0.199997" style="stop-color:rgb(78.431374%,85.882354%,34.509805%);stop-opacity:1;"/>
<stop offset="0.399994" style="stop-color:rgb(63.529414%,78.431374%,5.882353%);stop-opacity:1;"/>
<stop offset="1" style="stop-color:rgb(40.000001%,69.803923%,18.431373%);stop-opacity:1;"/>
</linearGradient>
<linearGradient id="linear2" gradientUnits="userSpaceOnUse" x1="0" y1="0" x2="1" y2="0" gradientTransform="matrix(-64.062756,-42.844601,42.844601,-64.062756,115.574065,60.448019)">
<stop offset="0" style="stop-color:rgb(89.803922%,92.156863%,56.862748%);stop-opacity:1;"/>
<stop offset="0.199997" style="stop-color:rgb(78.431374%,85.882354%,34.509805%);stop-opacity:1;"/>
<stop offset="0.399994" style="stop-color:rgb(63.529414%,78.431374%,5.882353%);stop-opacity:1;"/>
<stop offset="1" style="stop-color:rgb(40.000001%,69.803923%,18.431373%);stop-opacity:1;"/>
</linearGradient>
<linearGradient id="linear3" gradientUnits="userSpaceOnUse" x1="0" y1="0" x2="1" y2="0" gradientTransform="matrix(-64.085793,-42.860089,42.860089,-64.085793,83.940892,107.763785)">
<stop offset="0" style="stop-color:rgb(89.803922%,92.156863%,56.862748%);stop-opacity:1;"/>
<stop offset="0.199997" style="stop-color:rgb(78.431374%,85.882354%,34.509805%);stop-opacity:1;"/>
<stop offset="0.399994" style="stop-color:rgb(63.529414%,78.431374%,5.882353%);stop-opacity:1;"/>
<stop offset="1" style="stop-color:rgb(40.000001%,69.803923%,18.431373%);stop-opacity:1;"/>
</linearGradient>
<linearGradient id="linear4" gradientUnits="userSpaceOnUse" x1="0" y1="0" x2="1" y2="0" gradientTransform="matrix(-64.077593,-42.854493,42.854493,-64.077593,76.04005,119.557651)">
<stop offset="0" style="stop-color:rgb(89.803922%,92.156863%,56.862748%);stop-opacity:1;"/>
<stop offset="0.199997" style="stop-color:rgb(78.431374%,85.882354%,34.509805%);stop-opacity:1;"/>
<stop offset="0.399994" style="stop-color:rgb(63.529414%,78.431374%,5.882353%);stop-opacity:1;"/>
<stop offset="1" style="stop-color:rgb(40.000001%,69.803923%,18.431373%);stop-opacity:1;"/>
</linearGradient>
<clipPath id="clip1">
  <path d="M 1.066406 1 L 166 1 L 166 195 L 1.066406 195 Z M 1.066406 1 "/>
</clipPath>
</defs>
<g id="surface1">
<path style=" stroke:none;fill-rule:nonzero;fill:url(#linear0);" d="M 37.589844 34.050781 C 6.6875 64.945312 5.023438 113.992188 32.515625 146.882812 C 39.65625 137.535156 49.429688 126.753906 61.421875 118.324219 C 70.78125 111.757812 83.769531 105.164062 94.210938 104.183594 C 104.105469 103.246094 118.8125 104.207031 127.714844 108.480469 C 120.746094 101.34375 113.410156 93.332031 109.8125 88.53125 C 105.148438 82.304688 102.375 74.566406 102.375 66.175781 C 102.375 45.617188 119.007812 28.933594 139.523438 28.933594 C 144.476562 28.933594 149.195312 29.929688 153.519531 31.6875 C 137.515625 16.921875 117.148438 9.535156 96.777344 9.535156 C 75.359375 9.535156 53.941406 17.707031 37.589844 34.050781 "/>
<path style=" stroke:none;fill-rule:nonzero;fill:url(#linear1);" d="M 40.183594 31.59375 L 99.464844 93.308594 L 99.730469 93.402344 L 60.492188 17.792969 C 53.234375 21.289062 46.386719 25.878906 40.183594 31.59375 "/>
<path style=" stroke:none;fill-rule:nonzero;fill:url(#linear2);" d="M 84.753906 10.421875 L 99.875 93.445312 L 99.925781 93.476562 L 99.933594 93.476562 L 105.128906 9.964844 C 102.359375 9.691406 99.578125 9.5625 96.789062 9.5625 C 92.769531 9.5625 88.742188 9.84375 84.753906 10.421875 "/>
<path style=" stroke:none;fill-rule:nonzero;fill:url(#linear3);" d="M 13.460938 85.46875 L 99.6875 93.511719 L 99.464844 93.308594 L 18.621094 63.257812 C 15.875 70.4375 14.144531 77.910156 13.460938 85.46875 "/>
<path style=" stroke:none;fill-rule:nonzero;fill:url(#linear4);" d="M 13.957031 105.28125 C 14.800781 111.117188 16.265625 116.882812 18.355469 122.460938 L 99.449219 93.726562 Z M 13.957031 105.28125 "/>
<path style=" stroke:none;fill-rule:nonzero;fill:rgb(56.470591%,58.431375%,60.000002%);fill-opacity:1;" d="M 70.761719 142.046875 C 70.761719 142.046875 73.039062 141.023438 73.695312 140.664062 L 73.707031 156.578125 L 76.578125 156.578125 L 76.578125 137.855469 L 76.121094 137.550781 L 75.964844 137.625 C 73.875 138.660156 71.71875 139.640625 69.890625 140.382812 Z M 70.761719 142.046875 "/>
<path style=" stroke:none;fill-rule:nonzero;fill:rgb(56.470591%,58.431375%,60.000002%);fill-opacity:1;" d="M 86.058594 147.222656 C 88.386719 147.222656 89.53125 148.433594 89.53125 150.898438 C 89.53125 153.425781 87.953125 155.0625 85.527344 155.0625 C 83.761719 155.0625 82.570312 153.886719 82.152344 153.375 L 81.792969 152.957031 L 81.101562 155.4375 L 81.308594 155.546875 C 82.332031 156.019531 83.59375 156.511719 85.46875 156.511719 C 89.582031 156.511719 92.558594 154.003906 92.558594 150.566406 C 92.558594 147.402344 90.117188 146.5 88.640625 146.234375 C 90.273438 145.550781 91.714844 144.066406 91.714844 141.832031 C 91.714844 139.207031 89.648438 137.585938 86.324219 137.578125 C 83.5 137.558594 82.066406 139.402344 82.066406 139.402344 L 83.3125 141.542969 L 83.5 140.945312 C 83.847656 139.972656 84.871094 139 86.21875 139 C 87.40625 139 88.796875 139.785156 88.796875 142.003906 C 88.796875 143.726562 88.308594 145.78125 86.058594 145.78125 L 84.574219 145.664062 L 84.574219 147.429688 C 84.574219 147.429688 85.402344 147.207031 86.058594 147.222656 "/>
<path style=" stroke:none;fill-rule:nonzero;fill:rgb(56.470591%,58.431375%,60.000002%);fill-opacity:1;" d="M 101.722656 147.59375 C 99.71875 147.59375 98.738281 146.273438 98.738281 143.570312 C 98.738281 140.832031 100.050781 138.996094 102.003906 138.996094 C 103.949219 138.996094 105.253906 140.558594 105.253906 142.878906 C 105.253906 145.214844 104.042969 147.59375 101.722656 147.59375 M 96.492188 152.789062 L 97.253906 155.828125 C 97.253906 155.828125 98.457031 156.519531 100.128906 156.507812 C 104.9375 156.492188 108.289062 151.996094 108.289062 145.539062 C 108.289062 138.347656 103.914062 137.574219 102.019531 137.574219 C 98.363281 137.574219 95.8125 140.039062 95.8125 143.570312 C 95.8125 147.023438 97.910156 149.171875 101.285156 149.171875 C 102.984375 149.171875 104.332031 148.492188 105.320312 147.238281 C 105.117188 151.253906 103.539062 154.929688 100.246094 154.949219 C 97.609375 154.964844 96.492188 152.789062 96.492188 152.789062 "/>
<path style=" stroke:none;fill-rule:nonzero;fill:rgb(56.470591%,58.431375%,60.000002%);fill-opacity:1;" d="M 117.039062 155.058594 C 115.042969 155.058594 113.722656 153.378906 113.722656 150.871094 C 113.722656 148.371094 115.042969 146.683594 117.039062 146.683594 C 119.019531 146.683594 120.355469 148.371094 120.355469 150.871094 C 120.355469 153.421875 119.050781 155.058594 117.039062 155.058594 M 114.503906 142.128906 C 114.503906 141.394531 114.691406 138.996094 117.066406 138.996094 C 119.410156 138.996094 119.675781 141.179688 119.675781 142.128906 C 119.675781 142.851562 119.476562 145.25 117.066406 145.25 C 114.691406 145.25 114.503906 142.851562 114.503906 142.128906 M 119.734375 145.746094 C 121.363281 145.011719 122.429688 143.535156 122.429688 141.785156 C 122.429688 139.84375 121.015625 137.574219 117.039062 137.574219 C 114.027344 137.574219 111.734375 139.519531 111.734375 142.09375 C 111.734375 144.011719 113.054688 145.371094 114.464844 145.882812 C 112.117188 146.800781 110.804688 148.59375 110.804688 151.007812 C 110.804688 154.300781 113.3125 156.507812 117.039062 156.507812 C 120.65625 156.507812 123.28125 153.941406 123.28125 150.402344 C 123.28125 147.125 120.878906 146.058594 119.734375 145.746094 "/>
<g clip-path="url(#clip1)" clip-rule="nonzero">
<path style=" stroke:none;fill-rule:nonzero;fill:rgb(0%,29.411766%,49.019608%);fill-opacity:1;" d="M 32.902344 167.347656 C 30.480469 165.214844 26.320312 161.289062 22.589844 156.46875 C 5.488281 137.289062 -14.027344 86.996094 18.464844 41.371094 C 31.855469 22.5625 51.105469 9.894531 70.214844 4.769531 C 114.78125 -7.207031 149.019531 13.863281 164.695312 30.820312 C 166.4375 32.710938 166.199219 35.125 164.875 36.234375 C 162.929688 37.875 161.175781 37.019531 157.257812 35.878906 C 151.144531 34.113281 145.898438 33.695312 140.242188 34.417969 C 127.148438 36.082031 115.796875 48.21875 117.375 65.183594 C 118.816406 80.667969 130.75 91.847656 139.132812 99.234375 C 168.578125 125.175781 158.726562 152.972656 156.339844 159.074219 C 148.183594 179.808594 127.320312 194.429688 100.273438 194.429688 C 89.03125 194.429688 72.804688 191.519531 56.480469 181.164062 C 55.847656 180.890625 55.242188 180.046875 56.003906 178.648438 C 57.246094 175.5 62.460938 166.3125 64.703125 163.644531 C 72.816406 173.019531 86.503906 181.847656 101.703125 182.410156 C 122.492188 183.160156 135.875 171.917969 140.796875 157.640625 C 146.308594 141.59375 140.4375 125.261719 124.914062 110.511719 C 111.523438 97.804688 99.574219 86.023438 98.882812 65.859375 C 97.984375 40.03125 120.480469 24.695312 141.386719 25.71875 C 142.015625 25.753906 112.488281 4.445312 74.605469 17.136719 C 56.054688 23.347656 44.949219 34.300781 39.625 40.515625 C 38.824219 41.488281 39.320312 42.222656 39.609375 42.605469 C 40.1875 43.453125 53.070312 61.421875 53.070312 61.421875 L 29.832031 56.085938 C 29.832031 56.085938 28.871094 55.84375 28.390625 56.648438 C 21.003906 69.375 10.121094 106.195312 34.429688 139.726562 C 34.429688 139.726562 55.125 106.9375 96.21875 104.148438 C 98.957031 103.96875 98.609375 104.941406 96.816406 105.589844 C 60.097656 119.085938 45.613281 146.011719 36.257812 166.78125 C 35.683594 168.0625 34.15625 168.4375 32.902344 167.347656 "/>
</g>
</g>
</svg>
