<?xml version="1.0" encoding="UTF-8"?>
<svg xmlns="http://www.w3.org/2000/svg" xmlns:xlink="http://www.w3.org/1999/xlink" width="254.229996" height="108.879997" viewBox="0 0 254.229996 108.879997" version="1.1">
<g id="surface1">
<path style=" stroke:none;fill-rule:nonzero;fill:rgb(0%,39.215687%,64.313728%);fill-opacity:1;" d="M 164.296875 1.113281 C 133.179688 1.113281 110.277344 24.601562 110.277344 54.554688 L 110.277344 54.84375 C 110.277344 85.527344 133.910156 107.984375 163.269531 107.984375 C 185.886719 107.984375 198.949219 98.152344 208.636719 84.792969 L 187.207031 69.523438 C 181.039062 77.011719 174.726562 82.003906 164.007812 82.003906 C 149.617188 82.003906 139.488281 69.964844 139.488281 54.550781 L 139.488281 54.257812 C 139.488281 39.28125 149.617188 26.945312 164.007812 26.945312 C 173.839844 26.945312 180.597656 31.792969 186.46875 38.988281 L 207.90625 22.402344 C 198.796875 9.921875 185.296875 1.109375 164.296875 1.109375 Z M 224.648438 3.164062 L 224.648438 105.933594 L 253.128906 105.933594 L 253.128906 3.164062 Z M 0.890625 3.167969 L 0.890625 60.863281 C 0.890625 93.015625 19.242188 107.84375 48.308594 107.84375 C 77.523438 107.84375 96.464844 93.164062 96.464844 60.128906 L 96.464844 3.167969 L 67.6875 3.167969 L 67.6875 61.011719 C 67.6875 75.398438 60.203125 82.152344 48.605469 82.152344 C 37.152344 82.152344 29.664062 75.105469 29.664062 60.277344 L 29.664062 3.167969 Z M 0.890625 3.167969 "/>
</g>
</svg>
