<?xml version="1.0" encoding="UTF-8"?>
<svg xmlns="http://www.w3.org/2000/svg" xmlns:xlink="http://www.w3.org/1999/xlink" width="364.836487" height="364.836487" viewBox="0 0 364.836487 364.836487" version="1.1">
<g id="surface1">
<path style=" stroke:none;fill-rule:nonzero;fill:rgb(100%,100%,100%);fill-opacity:1;" d="M 364.835938 182.417969 C 364.835938 283.164062 283.164062 364.835938 182.417969 364.835938 C 81.671875 364.835938 0 283.164062 0 182.417969 C 0 81.671875 81.671875 0 182.417969 0 C 283.164062 0 364.835938 81.671875 364.835938 182.417969 Z M 364.835938 182.417969 "/>
<path style=" stroke:none;fill-rule:nonzero;fill:rgb(0%,2.745098%,47.450981%);fill-opacity:1;" d="M 359.917969 182.417969 C 359.917969 280.449219 280.449219 359.917969 182.417969 359.917969 C 84.386719 359.917969 4.917969 280.449219 4.917969 182.417969 C 4.917969 84.386719 84.386719 4.917969 182.417969 4.917969 C 280.449219 4.917969 359.917969 84.386719 359.917969 182.417969 Z M 359.917969 182.417969 "/>
<path style=" stroke:none;fill-rule:nonzero;fill:rgb(100%,100%,100%);fill-opacity:1;" d="M 245.019531 26.382812 L 244.84375 27.027344 L 243.953125 26.78125 C 242.957031 26.507812 242.160156 26.632812 241.566406 27.15625 C 241.203125 27.46875 240.839844 28.292969 240.472656 29.628906 L 236.273438 44.886719 C 235.867188 46.363281 235.777344 47.332031 236 47.792969 C 236.3125 48.425781 236.914062 48.867188 237.808594 49.113281 L 238.699219 49.359375 L 238.519531 50.003906 L 228.90625 47.359375 C 225.375 46.386719 222.800781 45.246094 221.1875 43.941406 C 219.5625 42.632812 218.449219 40.890625 217.847656 38.710938 C 217.238281 36.535156 217.269531 34.21875 217.941406 31.769531 C 218.847656 28.480469 220.601562 26.011719 223.207031 24.351562 C 226.125 22.507812 229.875 22.214844 234.464844 23.480469 L 245.019531 26.382812 M 237.808594 26.234375 C 236.421875 25.503906 235.230469 25 234.234375 24.726562 C 231.539062 23.984375 229.042969 24.316406 226.746094 25.722656 C 224.449219 27.125 222.851562 29.445312 221.960938 32.6875 C 221.0625 35.949219 221.246094 38.765625 222.503906 41.136719 C 223.761719 43.507812 225.785156 45.074219 228.574219 45.84375 C 229.617188 46.128906 230.855469 46.289062 232.28125 46.320312 L 237.808594 26.234375 "/>
<path style=" stroke:none;fill-rule:nonzero;fill:rgb(100%,100%,100%);fill-opacity:1;" d="M 319.878906 182.917969 C 319.878906 258.558594 258.558594 319.878906 182.917969 319.878906 C 107.277344 319.878906 45.957031 258.558594 45.957031 182.917969 C 45.957031 107.277344 107.277344 45.957031 182.917969 45.957031 C 258.558594 45.957031 319.878906 107.277344 319.878906 182.917969 Z M 319.878906 182.917969 "/>
<path style="fill-rule:nonzero;fill:rgb(0%,2.745098%,47.450981%);fill-opacity:1;stroke-width:1;stroke-linecap:butt;stroke-linejoin:miter;stroke:rgb(0%,5.490196%,46.666667%);stroke-opacity:1;stroke-miterlimit:4;" d="M 311.229553 158.206253 L 317.772522 164.753128 C 390.846741 99.905472 453.483459 169.573441 450.147522 223.831253 C 446.311584 286.331253 366.518616 331.909378 316.034241 268.507034 L 307.920959 274.882034 C 335.424866 307.913284 388.444397 308.823441 426.370178 287.866409 C 447.272522 276.315628 462.967834 249.229691 463.413147 223.831253 C 463.909241 195.620316 449.784241 165.534378 426.370178 150.327347 C 407.553772 138.104691 355.795959 122.741409 311.229553 158.206253 Z M 311.229553 158.206253 " transform="matrix(1,0,0,1,-208.510803,-70.913284)"/>
<path style="fill-rule:nonzero;fill:rgb(0%,2.745098%,47.450981%);fill-opacity:1;stroke-width:1;stroke-linecap:butt;stroke-linejoin:miter;stroke:rgb(0%,5.490196%,46.666667%);stroke-opacity:1;stroke-miterlimit:4;" d="M 468.120178 158.206253 L 461.573303 164.753128 C 388.499084 99.905472 325.866272 169.573441 329.198303 223.831253 C 333.038147 286.331253 412.827209 331.909378 463.311584 268.507034 L 471.424866 274.882034 C 443.920959 307.913284 390.901428 308.823441 352.975647 287.866409 C 332.073303 276.315628 316.377991 249.229691 315.932678 223.831253 C 315.436584 195.620316 329.561584 165.534378 352.975647 150.327347 C 371.792053 138.104691 423.553772 122.741409 468.120178 158.206253 Z M 468.120178 158.206253 " transform="matrix(1,0,0,1,-208.510803,-70.913284)"/>
<path style=" stroke:none;fill-rule:nonzero;fill:rgb(0%,2.745098%,47.450981%);fill-opacity:1;" d="M 171.617188 236.753906 L 171.617188 239.917969 L 139.117188 239.917969 L 139.117188 236.753906 L 141.804688 236.753906 C 144.9375 236.753906 147.210938 235.355469 148.628906 232.5625 C 149.523438 230.738281 149.96875 226.34375 149.96875 219.386719 L 149.96875 144.449219 C 149.96875 138.574219 149.726562 134.695312 149.242188 132.816406 C 148.871094 131.390625 148.105469 130.164062 146.949219 129.136719 C 145.308594 127.769531 143.59375 127.082031 141.804688 127.082031 L 139.117188 127.082031 L 139.117188 123.917969 L 171.617188 123.917969 L 171.617188 127.082031 L 168.878906 127.082031 C 165.78125 127.082031 163.527344 128.480469 162.109375 131.273438 C 161.175781 133.101562 160.710938 137.492188 160.710938 144.449219 L 160.710938 219.386719 C 160.710938 225.261719 160.953125 229.140625 161.4375 231.023438 C 161.808594 232.449219 162.59375 233.671875 163.785156 234.699219 C 165.390625 236.070312 167.085938 236.753906 168.878906 236.753906 L 171.617188 236.753906 "/>
<path style=" stroke:none;fill-rule:nonzero;fill:rgb(0%,2.745098%,47.450981%);fill-opacity:1;" d="M 198.617188 236.753906 L 198.617188 239.917969 L 166.117188 239.917969 L 166.117188 236.753906 L 168.804688 236.753906 C 171.9375 236.753906 174.210938 235.355469 175.628906 232.5625 C 176.523438 230.738281 176.96875 226.34375 176.96875 219.386719 L 176.96875 144.449219 C 176.96875 138.574219 176.726562 134.695312 176.242188 132.816406 C 175.871094 131.390625 175.105469 130.164062 173.949219 129.136719 C 172.308594 127.769531 170.59375 127.082031 168.804688 127.082031 L 166.117188 127.082031 L 166.117188 123.917969 L 198.617188 123.917969 L 198.617188 127.082031 L 195.878906 127.082031 C 192.78125 127.082031 190.527344 128.480469 189.109375 131.273438 C 188.175781 133.101562 187.710938 137.492188 187.710938 144.449219 L 187.710938 219.386719 C 187.710938 225.261719 187.953125 229.140625 188.4375 231.023438 C 188.808594 232.449219 189.59375 233.671875 190.785156 234.699219 C 192.390625 236.070312 194.085938 236.753906 195.878906 236.753906 L 198.617188 236.753906 "/>
<path style=" stroke:none;fill-rule:nonzero;fill:rgb(0%,2.745098%,47.450981%);fill-opacity:1;" d="M 225.617188 236.753906 L 225.617188 239.917969 L 193.117188 239.917969 L 193.117188 236.753906 L 195.804688 236.753906 C 198.9375 236.753906 201.210938 235.355469 202.628906 232.5625 C 203.523438 230.738281 203.96875 226.34375 203.96875 219.386719 L 203.96875 144.449219 C 203.96875 138.574219 203.726562 134.695312 203.242188 132.816406 C 202.871094 131.390625 202.105469 130.164062 200.949219 129.136719 C 199.308594 127.769531 197.59375 127.082031 195.804688 127.082031 L 193.117188 127.082031 L 193.117188 123.917969 L 225.617188 123.917969 L 225.617188 127.082031 L 222.878906 127.082031 C 219.78125 127.082031 217.527344 128.480469 216.109375 131.273438 C 215.175781 133.101562 214.710938 137.492188 214.710938 144.449219 L 214.710938 219.386719 C 214.710938 225.261719 214.953125 229.140625 215.4375 231.023438 C 215.808594 232.449219 216.59375 233.671875 217.785156 234.699219 C 219.390625 236.070312 221.085938 236.753906 222.878906 236.753906 L 225.617188 236.753906 "/>
<path style=" stroke:none;fill-rule:nonzero;fill:rgb(100%,100%,100%);fill-opacity:1;" d="M 98.460938 298.65625 L 94.871094 306.191406 L 94.382812 305.917969 C 94.953125 303.378906 94.902344 301.292969 94.230469 299.65625 C 93.558594 298.023438 92.378906 296.734375 90.6875 295.785156 C 89.269531 294.988281 87.785156 294.628906 86.234375 294.710938 C 84.6875 294.785156 83.140625 295.421875 81.59375 296.625 C 80.058594 297.835938 78.632812 299.613281 77.320312 301.953125 C 76.234375 303.886719 75.605469 305.734375 75.425781 307.5 C 75.25 309.265625 75.570312 310.875 76.386719 312.328125 C 77.210938 313.785156 78.421875 314.960938 80.019531 315.859375 C 81.402344 316.636719 82.792969 317.027344 84.183594 317.035156 C 85.582031 317.035156 87.410156 316.507812 89.671875 315.457031 L 89.980469 316.042969 C 87.84375 317.34375 85.8125 318.035156 83.890625 318.113281 C 81.964844 318.195312 80.023438 317.683594 78.058594 316.582031 C 74.519531 314.59375 72.515625 311.742188 72.046875 308.027344 C 71.691406 305.257812 72.257812 302.550781 73.746094 299.90625 C 74.941406 297.773438 76.519531 296.082031 78.476562 294.835938 C 80.4375 293.585938 82.523438 292.941406 84.742188 292.902344 C 86.976562 292.859375 89.085938 293.394531 91.070312 294.507812 C 92.613281 295.375 93.925781 296.609375 95.003906 298.207031 C 95.316406 298.683594 95.566406 298.976562 95.753906 299.085938 C 96.039062 299.242188 96.339844 299.28125 96.664062 299.199219 C 97.09375 299.070312 97.511719 298.785156 97.910156 298.347656 L 98.460938 298.65625 "/>
<path style=" stroke:none;fill-rule:nonzero;fill:rgb(100%,100%,100%);fill-opacity:1;" d="M 269.15625 327.273438 L 269.488281 327.851562 L 260.394531 333.09375 L 260.0625 332.515625 L 260.8125 332.082031 C 261.6875 331.578125 262.179688 330.953125 262.28125 330.214844 C 262.335938 329.734375 262 328.859375 261.265625 327.585938 L 253.363281 313.875 C 252.746094 312.800781 252.269531 312.128906 251.933594 311.863281 C 251.679688 311.664062 251.335938 311.5625 250.90625 311.558594 C 250.300781 311.574219 249.75 311.726562 249.246094 312.015625 L 248.496094 312.449219 L 248.164062 311.867188 L 257.257812 306.628906 L 257.589844 307.207031 L 256.824219 307.648438 C 255.957031 308.148438 255.472656 308.765625 255.371094 309.507812 C 255.304688 309.992188 255.636719 310.871094 256.371094 312.144531 L 264.273438 325.855469 C 264.890625 326.929688 265.367188 327.601562 265.703125 327.867188 C 265.957031 328.066406 266.304688 328.164062 266.746094 328.160156 C 267.339844 328.152344 267.886719 328.003906 268.386719 327.714844 L 269.15625 327.273438 "/>
<path style=" stroke:none;fill-rule:nonzero;fill:rgb(100%,100%,100%);fill-opacity:1;" d="M 284.125 317.265625 L 284.519531 317.804688 L 276.054688 324.007812 L 275.660156 323.46875 L 276.359375 322.957031 C 277.175781 322.359375 277.59375 321.6875 277.613281 320.941406 C 277.617188 320.457031 277.1875 319.625 276.316406 318.441406 L 266.960938 305.675781 C 266.230469 304.675781 265.679688 304.0625 265.320312 303.832031 C 265.046875 303.660156 264.691406 303.597656 264.261719 303.644531 C 263.664062 303.722656 263.132812 303.933594 262.667969 304.277344 L 261.96875 304.789062 L 261.570312 304.25 L 270.039062 298.046875 L 270.433594 298.585938 L 269.71875 299.109375 C 268.914062 299.699219 268.5 300.367188 268.480469 301.113281 C 268.464844 301.601562 268.890625 302.441406 269.761719 303.625 L 279.117188 316.390625 C 279.847656 317.390625 280.394531 318.003906 280.757812 318.234375 C 281.03125 318.402344 281.390625 318.464844 281.828125 318.410156 C 282.417969 318.335938 282.945312 318.128906 283.410156 317.789062 L 284.125 317.265625 "/>
<path style=" stroke:none;fill-rule:nonzero;fill:rgb(100%,100%,100%);fill-opacity:1;" d="M 297.457031 305.773438 L 297.902344 306.269531 L 290.074219 313.265625 L 289.628906 312.769531 L 290.277344 312.191406 C 291.03125 311.515625 291.382812 310.808594 291.328125 310.0625 C 291.289062 309.582031 290.777344 308.792969 289.796875 307.699219 L 279.25 295.902344 C 278.421875 294.976562 277.820312 294.417969 277.4375 294.226562 C 277.148438 294.082031 276.789062 294.054688 276.367188 294.140625 C 275.78125 294.277344 275.269531 294.539062 274.839844 294.925781 L 274.191406 295.503906 L 273.746094 295.003906 L 281.570312 288.007812 L 282.015625 288.507812 L 281.359375 289.097656 C 280.613281 289.761719 280.265625 290.46875 280.316406 291.214844 C 280.351562 291.703125 280.855469 292.492188 281.835938 293.589844 L 292.382812 305.386719 C 293.210938 306.3125 293.816406 306.871094 294.195312 307.0625 C 294.488281 307.207031 294.847656 307.230469 295.28125 307.136719 C 295.859375 307.003906 296.363281 306.75 296.796875 306.363281 L 297.457031 305.773438 "/>
<path style=" stroke:none;fill-rule:nonzero;fill:rgb(100%,100%,100%);fill-opacity:1;" d="M 298.070312 283.625 C 299.5 283.625 300.707031 284.128906 301.683594 285.136719 C 302.691406 286.113281 303.195312 287.320312 303.195312 288.75 C 303.195312 290.152344 302.691406 291.355469 301.683594 292.363281 C 300.671875 293.375 299.46875 293.878906 298.070312 293.878906 C 296.667969 293.878906 295.464844 293.375 294.457031 292.363281 C 293.445312 291.355469 292.941406 290.152344 292.941406 288.75 C 292.941406 287.320312 293.429688 286.113281 294.40625 285.136719 C 295.414062 284.128906 296.636719 283.625 298.070312 283.625 "/>
<path style=" stroke:none;fill-rule:nonzero;fill:rgb(100%,100%,100%);fill-opacity:1;" d="M 112.097656 327.339844 L 103.703125 322.925781 L 100.429688 325.578125 C 99.625 326.226562 99.113281 326.761719 98.894531 327.179688 C 98.722656 327.507812 98.722656 327.882812 98.898438 328.300781 C 99.089844 328.714844 99.6875 329.234375 100.691406 329.855469 L 100.382812 330.449219 L 93.554688 326.859375 L 93.863281 326.269531 C 94.855469 326.585938 95.550781 326.683594 95.949219 326.570312 C 96.761719 326.34375 97.910156 325.621094 99.398438 324.398438 L 116.402344 310.558594 L 116.964844 310.855469 L 115.03125 332.859375 C 114.878906 334.628906 114.933594 335.863281 115.191406 336.558594 C 115.46875 337.246094 116.035156 337.851562 116.894531 338.371094 L 116.582031 338.960938 L 108.027344 334.464844 L 108.335938 333.875 C 109.222656 334.285156 109.878906 334.445312 110.308594 334.359375 C 110.746094 334.273438 111.058594 334.058594 111.242188 333.707031 C 111.488281 333.238281 111.664062 332.382812 111.769531 331.148438 L 112.097656 327.339844 M 112.273438 325.921875 L 113.199219 315.222656 L 104.820312 322.003906 L 112.273438 325.921875 "/>
<path style=" stroke:none;fill-rule:nonzero;fill:rgb(100%,100%,100%);fill-opacity:1;" d="M 149.351562 349.054688 L 143.011719 347.449219 L 137.78125 334.3125 C 137.179688 334.183594 136.691406 334.074219 136.316406 333.980469 C 136.164062 333.941406 136.003906 333.898438 135.828125 333.855469 C 135.65625 333.800781 135.476562 333.742188 135.292969 333.683594 L 133.546875 340.582031 C 133.167969 342.078125 133.097656 343.046875 133.332031 343.492188 C 133.648438 344.117188 134.25 344.542969 135.136719 344.769531 L 136.0625 345.003906 L 135.898438 345.652344 L 125.722656 343.078125 L 125.886719 342.429688 L 126.78125 342.65625 C 127.785156 342.910156 128.585938 342.765625 129.183594 342.21875 C 129.519531 341.917969 129.859375 341.09375 130.203125 339.738281 L 134.082031 324.394531 C 134.460938 322.898438 134.53125 321.929688 134.296875 321.484375 C 133.972656 320.855469 133.359375 320.429688 132.460938 320.203125 L 131.566406 319.976562 L 131.730469 319.328125 L 140.382812 321.515625 C 142.90625 322.152344 144.714844 322.808594 145.8125 323.484375 C 146.921875 324.152344 147.765625 325.085938 148.34375 326.285156 C 148.9375 327.480469 149.0625 328.761719 148.714844 330.125 C 148.347656 331.585938 147.546875 332.730469 146.316406 333.5625 C 145.101562 334.398438 143.4375 334.785156 141.328125 334.726562 L 144.507812 342.777344 C 145.234375 344.625 145.933594 345.910156 146.609375 346.625 C 147.285156 347.34375 148.253906 347.9375 149.515625 348.40625 L 149.351562 349.054688 M 135.570312 332.578125 C 135.792969 332.636719 135.984375 332.691406 136.144531 332.742188 C 136.308594 332.785156 136.445312 332.820312 136.546875 332.84375 C 138.8125 333.417969 140.644531 333.359375 142.035156 332.667969 C 143.4375 331.980469 144.332031 330.875 144.71875 329.359375 C 145.09375 327.875 144.929688 326.554688 144.226562 325.394531 C 143.542969 324.226562 142.433594 323.449219 140.90625 323.0625 C 140.226562 322.890625 139.28125 322.773438 138.070312 322.699219 L 135.570312 332.578125 "/>
<path style=" stroke:none;fill-rule:nonzero;fill:rgb(100%,100%,100%);fill-opacity:1;" d="M 177.535156 344.871094 L 178.128906 345.019531 L 175.792969 351.585938 L 156.835938 350.894531 L 156.859375 350.226562 L 157.78125 350.261719 C 158.816406 350.296875 159.566406 349.988281 160.035156 349.332031 C 160.304688 348.953125 160.460938 348.070312 160.511719 346.671875 L 161.089844 330.875 C 161.144531 329.347656 161.011719 328.382812 160.6875 327.984375 C 160.238281 327.4375 159.550781 327.148438 158.621094 327.117188 L 157.703125 327.082031 L 157.726562 326.414062 L 168.8125 326.816406 L 168.789062 327.484375 C 167.488281 327.425781 166.570312 327.511719 166.03125 327.746094 C 165.503906 327.980469 165.136719 328.285156 164.929688 328.664062 C 164.722656 329.042969 164.59375 329.960938 164.539062 331.417969 L 163.980469 346.800781 C 163.945312 347.796875 164.015625 348.488281 164.195312 348.867188 C 164.328125 349.125 164.546875 349.320312 164.839844 349.453125 C 165.136719 349.582031 166.074219 349.675781 167.652344 349.734375 L 169.4375 349.800781 C 171.316406 349.867188 172.640625 349.777344 173.40625 349.527344 C 174.175781 349.28125 174.886719 348.816406 175.539062 348.140625 C 176.1875 347.453125 176.855469 346.363281 177.535156 344.871094 "/>
<path style=" stroke:none;fill-rule:nonzero;fill:rgb(100%,100%,100%);fill-opacity:1;" d="M 197.34375 326.015625 C 200.511719 325.746094 203.355469 326.714844 205.878906 328.929688 C 208.410156 331.128906 209.832031 334.03125 210.140625 337.628906 C 210.457031 341.339844 209.550781 344.515625 207.421875 347.164062 C 205.289062 349.8125 202.5625 351.28125 199.238281 351.566406 C 195.878906 351.851562 192.949219 350.902344 190.453125 348.707031 C 187.96875 346.515625 186.566406 343.523438 186.242188 339.730469 C 185.910156 335.855469 186.957031 332.578125 189.386719 329.90625 C 191.5 327.585938 194.148438 326.289062 197.34375 326.015625 M 197.113281 327.359375 C 194.929688 327.546875 193.246094 328.503906 192.0625 330.238281 C 190.59375 332.394531 190.023438 335.417969 190.355469 339.304688 C 190.699219 343.289062 191.8125 346.285156 193.699219 348.285156 C 195.148438 349.804688 196.945312 350.472656 199.09375 350.289062 C 201.386719 350.09375 203.199219 349.039062 204.535156 347.121094 C 205.882812 345.207031 206.390625 342.320312 206.058594 338.46875 C 205.703125 334.292969 204.613281 331.25 202.792969 329.339844 C 201.335938 327.820312 199.441406 327.160156 197.113281 327.359375 "/>
<path style=" stroke:none;fill-rule:nonzero;fill:rgb(100%,100%,100%);fill-opacity:1;" d="M 230.59375 319.140625 L 232.300781 327.441406 L 231.648438 327.574219 C 231.105469 326.027344 230.460938 324.835938 229.714844 324.007812 C 228.976562 323.175781 228.042969 322.585938 226.914062 322.242188 C 225.785156 321.898438 224.679688 321.835938 223.59375 322.058594 C 222.367188 322.3125 221.429688 322.898438 220.785156 323.820312 C 220.132812 324.726562 219.910156 325.660156 220.105469 326.617188 C 220.257812 327.347656 220.648438 327.960938 221.277344 328.457031 C 222.191406 329.191406 224.175781 330.011719 227.226562 330.921875 C 229.71875 331.664062 231.4375 332.273438 232.382812 332.753906 C 233.339844 333.222656 234.128906 333.847656 234.742188 334.628906 C 235.371094 335.410156 235.785156 336.277344 235.980469 337.234375 C 236.355469 339.050781 235.972656 340.765625 234.828125 342.378906 C 233.695312 343.976562 232.019531 345.003906 229.800781 345.460938 C 229.105469 345.605469 228.441406 345.6875 227.804688 345.707031 C 227.425781 345.722656 226.621094 345.667969 225.390625 345.539062 C 224.167969 345.398438 223.40625 345.359375 223.097656 345.421875 C 222.804688 345.484375 222.585938 345.621094 222.445312 345.835938 C 222.316406 346.046875 222.265625 346.4375 222.300781 347.007812 L 221.644531 347.144531 L 219.949219 338.914062 L 220.601562 338.78125 C 221.265625 340.4375 221.945312 341.644531 222.640625 342.398438 C 223.335938 343.140625 224.269531 343.6875 225.449219 344.035156 C 226.640625 344.378906 227.871094 344.421875 229.144531 344.15625 C 230.621094 343.855469 231.703125 343.226562 232.390625 342.269531 C 233.089844 341.316406 233.332031 340.304688 233.113281 339.246094 C 232.992188 338.65625 232.703125 338.09375 232.25 337.558594 C 231.808594 337.023438 231.191406 336.566406 230.398438 336.1875 C 229.867188 335.929688 228.453125 335.441406 226.167969 334.71875 C 223.875 333.984375 222.222656 333.367188 221.210938 332.863281 C 220.207031 332.355469 219.398438 331.734375 218.777344 331.003906 C 218.160156 330.269531 217.75 329.40625 217.542969 328.417969 C 217.1875 326.695312 217.542969 325.078125 218.609375 323.566406 C 219.671875 322.042969 221.226562 321.074219 223.265625 320.652344 C 224.539062 320.390625 225.957031 320.421875 227.511719 320.753906 C 228.234375 320.914062 228.730469 320.964844 229 320.90625 C 229.308594 320.84375 229.535156 320.707031 229.6875 320.488281 C 229.851562 320.257812 229.933594 319.855469 229.9375 319.277344 L 230.59375 319.140625 "/>
<path style=" stroke:none;fill-rule:nonzero;fill:rgb(100%,100%,100%);fill-opacity:1;" d="M 67.535156 283.933594 C 68.964844 283.933594 70.171875 284.4375 71.148438 285.445312 C 72.15625 286.421875 72.660156 287.628906 72.660156 289.058594 C 72.660156 290.460938 72.15625 291.664062 71.148438 292.671875 C 70.136719 293.683594 68.933594 294.1875 67.535156 294.1875 C 66.132812 294.1875 64.929688 293.683594 63.921875 292.671875 C 62.910156 291.664062 62.40625 290.460938 62.40625 289.058594 C 62.40625 287.628906 62.894531 286.421875 63.871094 285.445312 C 64.882812 284.4375 66.101562 283.933594 67.535156 283.933594 "/>
<path style=" stroke:none;fill-rule:nonzero;fill:rgb(100%,100%,100%);fill-opacity:1;" d="M 325.558594 274.90625 L 324.964844 274.605469 L 325.378906 273.785156 C 325.84375 272.859375 325.878906 272.054688 325.480469 271.367188 C 325.246094 270.953125 324.511719 270.433594 323.273438 269.808594 L 309.140625 262.6875 C 307.773438 262 306.84375 261.71875 306.347656 261.847656 C 305.664062 262.027344 305.113281 262.53125 304.695312 263.359375 L 304.28125 264.183594 L 303.683594 263.882812 L 308.171875 254.976562 C 309.820312 251.707031 311.441406 249.410156 313.042969 248.082031 C 314.644531 246.746094 316.574219 246 318.824219 245.839844 C 321.082031 245.667969 323.347656 246.15625 325.617188 247.300781 C 328.660156 248.832031 330.738281 251.039062 331.847656 253.921875 C 333.082031 257.144531 332.628906 260.882812 330.488281 265.128906 L 325.558594 274.90625 M 327.125 267.867188 C 328.117188 266.652344 328.84375 265.582031 329.308594 264.660156 C 330.566406 262.164062 330.734375 259.652344 329.808594 257.121094 C 328.886719 254.59375 326.925781 252.570312 323.921875 251.058594 C 320.902344 249.535156 318.105469 249.15625 315.53125 249.925781 C 312.960938 250.691406 311.023438 252.367188 309.722656 254.949219 C 309.234375 255.917969 308.835938 257.097656 308.523438 258.492188 L 327.125 267.867188 "/>
<path style=" stroke:none;fill-rule:nonzero;fill:rgb(100%,100%,100%);fill-opacity:1;" d="M 320.035156 230.421875 L 329.289062 233.269531 L 330.875 228.125 C 331.285156 226.789062 331.359375 225.835938 331.09375 225.261719 C 330.75 224.5 329.917969 223.878906 328.605469 223.398438 L 328.800781 222.761719 L 336.949219 225.269531 L 336.753906 225.90625 C 335.566406 225.71875 334.785156 225.65625 334.414062 225.714844 C 333.945312 225.800781 333.523438 226.042969 333.148438 226.441406 C 332.773438 226.84375 332.433594 227.535156 332.132812 228.511719 L 330.550781 233.65625 L 338.269531 236.035156 C 339.304688 236.351562 339.953125 236.5 340.210938 236.480469 C 340.457031 236.457031 340.683594 236.347656 340.894531 236.160156 C 341.089844 235.96875 341.289062 235.550781 341.488281 234.90625 L 342.710938 230.9375 C 343.117188 229.613281 343.320312 228.625 343.324219 227.96875 C 343.324219 227.3125 343.136719 226.625 342.765625 225.90625 C 342.273438 224.972656 341.421875 223.910156 340.210938 222.71875 L 340.425781 222.027344 L 345.671875 225.855469 L 340.117188 243.898438 L 339.480469 243.703125 L 339.734375 242.875 C 339.90625 242.320312 339.933594 241.757812 339.820312 241.179688 C 339.75 240.757812 339.550781 240.421875 339.222656 240.183594 C 338.894531 239.933594 338.164062 239.628906 337.023438 239.28125 L 321.8125 234.597656 C 320.328125 234.140625 319.363281 234.007812 318.925781 234.199219 C 318.339844 234.472656 317.898438 235.09375 317.597656 236.058594 L 317.34375 236.886719 L 316.703125 236.691406 L 322.261719 218.648438 L 327.46875 219.96875 L 327.261719 220.640625 C 325.953125 220.503906 325.023438 220.515625 324.472656 220.671875 C 323.921875 220.816406 323.441406 221.140625 323.019531 221.640625 C 322.707031 222.050781 322.371094 222.835938 322.011719 223.996094 L 320.035156 230.421875 "/>
<path style=" stroke:none;fill-rule:nonzero;fill:rgb(100%,100%,100%);fill-opacity:1;" d="M 348.320312 156.441406 L 329.53125 169.152344 L 345.679688 166.472656 C 347.164062 166.226562 348.0625 165.914062 348.378906 165.53125 C 348.804688 165.007812 348.941406 164.273438 348.78125 163.324219 L 348.640625 162.46875 L 349.300781 162.359375 L 350.695312 170.769531 L 350.035156 170.878906 L 349.894531 170.023438 C 349.722656 169.003906 349.292969 168.328125 348.605469 168.003906 C 348.183594 167.804688 347.292969 167.816406 345.9375 168.042969 L 330.148438 170.660156 C 329.078125 170.835938 328.324219 171.085938 327.890625 171.402344 C 327.570312 171.625 327.339844 171.980469 327.1875 172.46875 C 327.023438 172.949219 327.023438 173.679688 327.183594 174.667969 L 326.527344 174.777344 L 325.390625 167.933594 L 342.847656 156.027344 L 322.507812 150.539062 L 321.371094 143.691406 L 322.03125 143.582031 L 322.171875 144.421875 C 322.34375 145.457031 322.773438 146.136719 323.460938 146.460938 C 323.886719 146.660156 324.773438 146.644531 326.128906 146.421875 L 341.921875 143.804688 C 343.40625 143.558594 344.304688 143.238281 344.617188 142.84375 C 345.042969 142.320312 345.179688 141.585938 345.019531 140.632812 L 344.882812 139.796875 L 345.542969 139.6875 L 347.242188 149.953125 L 346.582031 150.0625 L 346.441406 149.207031 C 346.269531 148.171875 345.839844 147.5 345.15625 147.1875 C 344.730469 146.988281 343.84375 147 342.488281 147.226562 L 326.339844 149.902344 L 348.222656 155.851562 L 348.320312 156.441406 "/>
<path style=" stroke:none;fill-rule:nonzero;fill:rgb(100%,100%,100%);fill-opacity:1;" d="M 326.175781 113.335938 L 330.011719 122.011719 L 334.222656 121.96875 C 335.257812 121.957031 335.988281 121.855469 336.417969 121.667969 C 336.761719 121.515625 336.992188 121.222656 337.117188 120.785156 C 337.222656 120.34375 337.078125 119.566406 336.675781 118.453125 L 337.289062 118.179688 L 340.40625 125.238281 L 339.796875 125.507812 C 339.21875 124.644531 338.734375 124.132812 338.347656 123.972656 C 337.570312 123.644531 336.222656 123.5 334.300781 123.53125 L 312.375 123.804688 L 312.121094 123.226562 L 327.308594 107.1875 C 328.53125 105.894531 329.253906 104.898438 329.480469 104.191406 C 329.691406 103.476562 329.625 102.652344 329.273438 101.714844 L 329.886719 101.445312 L 333.796875 110.285156 L 333.183594 110.554688 C 332.746094 109.679688 332.332031 109.144531 331.941406 108.949219 C 331.546875 108.742188 331.167969 108.71875 330.804688 108.878906 C 330.320312 109.09375 329.652344 109.652344 328.800781 110.554688 L 326.175781 113.335938 M 325.160156 114.339844 L 317.785156 122.144531 L 328.5625 122.039062 L 325.160156 114.339844 "/>
<path style=" stroke:none;fill-rule:nonzero;fill:rgb(100%,100%,100%);fill-opacity:1;" d="M 322.929688 89.304688 L 322.402344 89.714844 L 321.835938 88.988281 C 321.199219 88.171875 320.488281 87.792969 319.699219 87.859375 C 319.222656 87.894531 318.4375 88.335938 317.34375 89.1875 L 304.859375 98.914062 C 303.65625 99.855469 303.003906 100.578125 302.90625 101.082031 C 302.777344 101.777344 302.996094 102.492188 303.566406 103.222656 L 304.132812 103.949219 L 303.605469 104.359375 L 297.476562 96.492188 C 295.226562 93.605469 293.84375 91.152344 293.332031 89.140625 C 292.808594 87.121094 292.957031 85.058594 293.777344 82.953125 C 294.589844 80.839844 295.996094 79.003906 298 77.441406 C 300.691406 75.347656 303.574219 74.414062 306.652344 74.640625 C 310.09375 74.90625 313.277344 76.914062 316.203125 80.667969 L 322.929688 89.304688 M 317.238281 84.875 C 316.5625 83.460938 315.90625 82.347656 315.269531 81.53125 C 313.554688 79.324219 311.355469 78.101562 308.671875 77.851562 C 305.992188 77.605469 303.324219 78.515625 300.675781 80.578125 C 298.003906 82.660156 296.46875 85.027344 296.0625 87.679688 C 295.652344 90.332031 296.339844 92.796875 298.117188 95.078125 C 298.78125 95.933594 299.679688 96.800781 300.804688 97.679688 L 317.238281 84.875 "/>
<path style=" stroke:none;fill-rule:nonzero;fill:rgb(100%,100%,100%);fill-opacity:1;" d="M 256.949219 33.636719 L 257.257812 33.046875 L 266.5625 37.90625 L 266.25 38.5 L 265.484375 38.097656 C 264.585938 37.628906 263.796875 37.550781 263.121094 37.863281 C 262.683594 38.070312 262.128906 38.824219 261.445312 40.125 L 254.113281 54.152344 C 253.539062 55.25 253.230469 56.011719 253.183594 56.4375 C 253.152344 56.761719 253.25 57.105469 253.480469 57.46875 C 253.816406 57.972656 254.242188 58.355469 254.753906 58.625 L 255.519531 59.027344 L 255.210938 59.617188 L 245.910156 54.753906 L 246.21875 54.164062 L 247.003906 54.574219 C 247.890625 55.035156 248.671875 55.113281 249.351562 54.800781 C 249.796875 54.597656 250.359375 53.847656 251.039062 52.546875 L 258.371094 38.519531 C 258.945312 37.421875 259.257812 36.660156 259.300781 36.234375 C 259.335938 35.910156 259.230469 35.5625 258.988281 35.195312 C 258.664062 34.699219 258.246094 34.316406 257.734375 34.046875 L 256.949219 33.636719 "/>
<path style=" stroke:none;fill-rule:nonzero;fill:rgb(100%,100%,100%);fill-opacity:1;" d="M 278.21875 44.410156 L 283.3125 48.511719 L 282.589844 62.636719 C 283.082031 63 283.476562 63.304688 283.777344 63.546875 C 283.902344 63.644531 284.03125 63.75 284.171875 63.863281 C 284.304688 63.988281 284.445312 64.113281 284.585938 64.242188 L 289.050781 58.699219 C 290.015625 57.5 290.488281 56.648438 290.457031 56.144531 C 290.433594 55.445312 290.066406 54.808594 289.351562 54.234375 L 288.605469 53.632812 L 289.027344 53.113281 L 297.203125 59.695312 L 296.78125 60.21875 L 296.0625 59.640625 C 295.257812 58.988281 294.46875 58.789062 293.699219 59.035156 C 293.269531 59.164062 292.613281 59.777344 291.738281 60.863281 L 281.8125 73.191406 C 280.84375 74.390625 280.375 75.242188 280.40625 75.746094 C 280.4375 76.453125 280.816406 77.097656 281.539062 77.679688 L 282.257812 78.257812 L 281.835938 78.777344 L 274.886719 73.179688 C 272.859375 71.546875 271.488281 70.199219 270.773438 69.125 C 270.042969 68.058594 269.664062 66.855469 269.640625 65.523438 C 269.597656 64.191406 270.019531 62.976562 270.902344 61.878906 C 271.847656 60.707031 273.050781 59.996094 274.515625 59.753906 C 275.972656 59.503906 277.644531 59.84375 279.535156 60.78125 L 280.003906 52.132812 C 280.113281 50.152344 280.011719 48.695312 279.699219 47.757812 C 279.382812 46.824219 278.75 45.882812 277.800781 44.933594 L 278.21875 44.410156 M 283.871094 65.128906 C 283.695312 64.988281 283.542969 64.859375 283.417969 64.742188 C 283.289062 64.636719 283.179688 64.550781 283.09375 64.480469 C 281.277344 63.015625 279.589844 62.308594 278.035156 62.355469 C 276.472656 62.394531 275.199219 63.027344 274.21875 64.246094 C 273.257812 65.4375 272.855469 66.703125 273.007812 68.050781 C 273.144531 69.398438 273.828125 70.566406 275.058594 71.554688 C 275.601562 71.992188 276.410156 72.496094 277.480469 73.066406 L 283.871094 65.128906 "/>
<path style=" stroke:none;fill-rule:nonzero;fill:rgb(100%,100%,100%);fill-opacity:1;" d="M 179.859375 14.765625 C 180.414062 14.757812 180.886719 14.953125 181.277344 15.34375 C 181.679688 15.722656 181.882812 16.191406 181.890625 16.742188 C 181.898438 17.296875 181.707031 17.777344 181.316406 18.179688 C 180.9375 18.570312 180.46875 18.769531 179.914062 18.777344 C 179.359375 18.785156 178.882812 18.597656 178.480469 18.21875 C 178.089844 17.828125 177.890625 17.355469 177.882812 16.800781 C 177.875 16.246094 178.058594 15.773438 178.441406 15.382812 C 178.832031 14.980469 179.304688 14.773438 179.859375 14.765625 M 180.011719 28.296875 C 180.578125 28.289062 181.054688 28.480469 181.449219 28.875 C 181.851562 29.265625 182.054688 29.738281 182.0625 30.292969 C 182.070312 30.847656 181.878906 31.324219 181.488281 31.726562 C 181.09375 32.117188 180.621094 32.320312 180.066406 32.324219 C 179.515625 32.332031 179.035156 32.148438 178.632812 31.769531 C 178.242188 31.375 178.042969 30.902344 178.035156 30.347656 C 178.027344 29.796875 178.214844 29.316406 178.59375 28.914062 C 178.984375 28.511719 179.457031 28.304688 180.011719 28.296875 "/>
<path style=" stroke:none;fill-rule:nonzero;fill:rgb(100%,100%,100%);fill-opacity:1;" d="M 137.941406 46.113281 L 138.132812 46.75 L 129.820312 49.230469 L 129.628906 48.589844 L 130.515625 48.328125 C 131.4375 48.050781 132.03125 47.453125 132.296875 46.53125 C 132.433594 46.101562 132.304688 45.234375 131.917969 43.929688 L 129.074219 34.410156 C 128.371094 32.054688 128.0625 30.15625 128.148438 28.710938 C 128.222656 27.277344 128.808594 25.890625 129.902344 24.546875 C 130.988281 23.21875 132.710938 22.199219 135.0625 21.5 C 137.625 20.734375 139.703125 20.597656 141.296875 21.089844 C 142.886719 21.582031 144.1875 22.496094 145.1875 23.832031 C 145.863281 24.75 146.621094 26.621094 147.464844 29.449219 L 150.203125 38.625 C 150.636719 40.066406 151.121094 40.953125 151.65625 41.28125 C 152.183594 41.617188 152.890625 41.648438 153.78125 41.382812 L 154.664062 41.121094 L 154.855469 41.761719 L 144.710938 44.789062 L 144.519531 44.148438 L 145.417969 43.878906 C 146.390625 43.589844 146.988281 43.078125 147.222656 42.34375 C 147.386719 41.839844 147.273438 40.933594 146.882812 39.617188 L 143.828125 29.382812 C 143.554688 28.472656 143.164062 27.453125 142.648438 26.324219 C 142.125 25.199219 141.546875 24.371094 140.910156 23.84375 C 140.277344 23.316406 139.484375 22.964844 138.539062 22.78125 C 137.582031 22.601562 136.5 22.691406 135.300781 23.050781 C 133.765625 23.507812 132.492188 24.25 131.480469 25.28125 C 130.46875 26.3125 129.898438 27.414062 129.769531 28.582031 C 129.632812 29.769531 129.9375 31.605469 130.679688 34.101562 L 133.515625 43.605469 C 133.953125 45.070312 134.390625 45.941406 134.820312 46.210938 C 135.421875 46.585938 136.167969 46.640625 137.058594 46.375 L 137.941406 46.113281 "/>
<path style=" stroke:none;fill-rule:nonzero;fill:rgb(100%,100%,100%);fill-opacity:1;" d="M 127.289062 50.25 L 121.425781 53.386719 L 99.558594 44.242188 L 106.21875 56.703125 C 106.925781 58.03125 107.519531 58.777344 107.992188 58.949219 C 108.625 59.183594 109.363281 59.078125 110.214844 58.621094 L 110.964844 58.222656 L 111.277344 58.8125 L 103.757812 62.832031 L 103.441406 62.242188 L 104.207031 61.832031 C 105.121094 61.34375 105.621094 60.722656 105.707031 59.964844 C 105.761719 59.5 105.464844 58.664062 104.816406 57.453125 L 95.078125 39.242188 L 95.652344 38.933594 L 119.199219 48.71875 L 112.085938 35.414062 C 111.375 34.085938 110.789062 33.335938 110.328125 33.160156 C 109.683594 32.929688 108.945312 33.039062 108.105469 33.484375 L 107.339844 33.894531 L 107.023438 33.304688 L 114.546875 29.285156 L 114.859375 29.875 L 114.113281 30.273438 C 113.1875 30.769531 112.683594 31.394531 112.59375 32.152344 C 112.542969 32.617188 112.839844 33.453125 113.488281 34.664062 L 121.519531 49.6875 C 122.539062 50.085938 123.273438 50.3125 123.730469 50.371094 C 124.171875 50.433594 124.761719 50.398438 125.496094 50.265625 C 125.855469 50.199219 126.347656 49.996094 126.976562 49.660156 L 127.289062 50.25 "/>
<path style=" stroke:none;fill-rule:nonzero;fill:rgb(100%,100%,100%);fill-opacity:1;" d="M 77.167969 52.359375 L 76.777344 51.816406 L 85.296875 45.6875 L 85.6875 46.230469 L 84.984375 46.738281 C 84.164062 47.328125 83.738281 47.996094 83.710938 48.742188 C 83.703125 49.222656 84.125 50.0625 84.984375 51.253906 L 94.226562 64.101562 C 94.953125 65.109375 95.492188 65.726562 95.851562 65.960938 C 96.125 66.132812 96.476562 66.199219 96.90625 66.15625 C 97.507812 66.082031 98.039062 65.875 98.511719 65.539062 L 99.214844 65.03125 L 99.605469 65.574219 L 91.082031 71.703125 L 90.691406 71.160156 L 91.410156 70.644531 C 92.222656 70.0625 92.640625 69.394531 92.667969 68.648438 C 92.6875 68.160156 92.269531 67.320312 91.410156 66.128906 L 82.167969 53.28125 C 81.445312 52.273438 80.902344 51.652344 80.542969 51.421875 C 80.269531 51.25 79.914062 51.1875 79.472656 51.234375 C 78.882812 51.304688 78.355469 51.503906 77.886719 51.84375 L 77.167969 52.359375 "/>
<path style=" stroke:none;fill-rule:nonzero;fill:rgb(100%,100%,100%);fill-opacity:1;" d="M 69.75 92.941406 L 69.257812 92.492188 C 69.726562 91.746094 69.960938 91.074219 69.96875 90.476562 C 69.964844 89.609375 69.675781 88.582031 69.113281 87.398438 L 59.464844 67.03125 L 59.917969 66.539062 L 81.707031 73.992188 C 82.824219 74.375 83.535156 74.574219 83.84375 74.597656 C 84.324219 74.625 84.789062 74.542969 85.238281 74.351562 C 85.691406 74.179688 86.191406 73.835938 86.738281 73.324219 L 87.234375 73.773438 L 80.488281 81.171875 L 79.996094 80.71875 C 80.675781 79.808594 81.03125 79.136719 81.050781 78.703125 C 81.074219 78.265625 80.925781 77.902344 80.605469 77.609375 C 80.160156 77.203125 79.28125 76.773438 77.964844 76.324219 L 63.152344 71.25 L 69.734375 85.078125 C 70.386719 86.4375 70.910156 87.300781 71.3125 87.667969 C 71.570312 87.902344 71.929688 87.996094 72.398438 87.949219 C 72.875 87.910156 73.441406 87.628906 74.097656 87.101562 C 74.148438 87.066406 74.230469 87.003906 74.34375 86.914062 L 74.839844 87.363281 L 69.75 92.941406 "/>
<path style=" stroke:none;fill-rule:nonzero;fill:rgb(100%,100%,100%);fill-opacity:1;" d="M 62.265625 101.601562 L 54.246094 96.171875 L 51.226562 100.628906 C 50.445312 101.785156 50.09375 102.675781 50.179688 103.304688 C 50.289062 104.132812 50.898438 104.96875 52.015625 105.8125 L 51.640625 106.367188 L 44.582031 101.582031 L 44.957031 101.03125 C 46.039062 101.558594 46.765625 101.847656 47.140625 101.898438 C 47.609375 101.953125 48.082031 101.847656 48.558594 101.574219 C 49.035156 101.296875 49.5625 100.738281 50.136719 99.890625 L 53.15625 95.433594 L 46.46875 90.902344 C 45.570312 90.296875 44.996094 89.964844 44.742188 89.910156 C 44.5 89.859375 44.25 89.894531 43.996094 90.015625 C 43.75 90.140625 43.4375 90.480469 43.058594 91.039062 L 40.730469 94.480469 C 39.953125 95.625 39.46875 96.511719 39.277344 97.140625 C 39.085938 97.765625 39.0625 98.476562 39.207031 99.273438 C 39.40625 100.3125 39.910156 101.574219 40.71875 103.070312 L 40.3125 103.667969 L 36.410156 98.472656 L 47 82.839844 L 47.550781 83.214844 L 47.066406 83.933594 C 46.742188 84.410156 46.546875 84.945312 46.488281 85.527344 C 46.429688 85.953125 46.523438 86.332031 46.769531 86.65625 C 47.007812 86.992188 47.621094 87.496094 48.609375 88.164062 L 61.785156 97.089844 C 63.074219 97.960938 63.953125 98.367188 64.429688 98.3125 C 65.070312 98.222656 65.675781 97.757812 66.242188 96.921875 L 66.726562 96.203125 L 67.28125 96.578125 L 56.695312 112.210938 L 52.101562 109.425781 L 52.496094 108.84375 C 53.703125 109.355469 54.597656 109.617188 55.171875 109.628906 C 55.738281 109.648438 56.296875 109.480469 56.84375 109.125 C 57.261719 108.828125 57.8125 108.175781 58.496094 107.167969 L 62.265625 101.601562 "/>
<path style=" stroke:none;fill-rule:nonzero;fill:rgb(100%,100%,100%);fill-opacity:1;" d="M 21.929688 132.308594 L 24.285156 126.207031 L 37.957031 122.597656 C 38.15625 122.015625 38.324219 121.542969 38.464844 121.183594 C 38.519531 121.039062 38.582031 120.882812 38.648438 120.714844 C 38.722656 120.550781 38.800781 120.378906 38.882812 120.203125 L 32.242188 117.640625 C 30.804688 117.085938 29.851562 116.898438 29.378906 117.078125 C 28.722656 117.3125 28.226562 117.859375 27.898438 118.710938 L 27.550781 119.605469 L 26.929688 119.363281 L 30.710938 109.574219 L 31.332031 109.8125 L 31 110.671875 C 30.628906 111.640625 30.675781 112.453125 31.144531 113.109375 C 31.402344 113.480469 32.179688 113.917969 33.484375 114.421875 L 48.25 120.121094 C 49.6875 120.675781 50.640625 120.863281 51.109375 120.683594 C 51.773438 120.4375 52.273438 119.882812 52.605469 119.015625 L 52.9375 118.15625 L 53.5625 118.398438 L 50.347656 126.722656 C 49.410156 129.148438 48.542969 130.867188 47.738281 131.875 C 46.945312 132.898438 45.914062 133.621094 44.652344 134.050781 C 43.394531 134.496094 42.109375 134.464844 40.796875 133.957031 C 39.390625 133.414062 38.351562 132.484375 37.671875 131.164062 C 36.988281 129.855469 36.804688 128.15625 37.121094 126.070312 L 28.742188 128.257812 C 26.820312 128.753906 25.460938 129.296875 24.667969 129.878906 C 23.875 130.464844 23.171875 131.355469 22.554688 132.550781 L 21.929688 132.308594 M 39.945312 120.613281 C 39.863281 120.828125 39.785156 121.011719 39.710938 121.164062 C 39.652344 121.320312 39.601562 121.449219 39.5625 121.550781 C 38.722656 123.730469 38.558594 125.554688 39.078125 127.019531 C 39.59375 128.496094 40.578125 129.515625 42.039062 130.082031 C 43.46875 130.632812 44.796875 130.628906 46.03125 130.074219 C 47.273438 129.53125 48.179688 128.527344 48.75 127.054688 C 49 126.402344 49.234375 125.480469 49.449219 124.285156 L 39.945312 120.613281 "/>
<path style=" stroke:none;fill-rule:nonzero;fill:rgb(100%,100%,100%);fill-opacity:1;" d="M 39.980469 160.460938 L 31.796875 158.269531 L 31.96875 157.625 C 33.597656 157.835938 34.949219 157.792969 36.023438 157.496094 C 37.097656 157.207031 38.042969 156.640625 38.859375 155.785156 C 39.671875 154.929688 40.222656 153.96875 40.511719 152.898438 C 40.835938 151.6875 40.730469 150.589844 40.199219 149.597656 C 39.675781 148.609375 38.945312 147.992188 38.003906 147.738281 C 37.28125 147.542969 36.558594 147.617188 35.832031 147.960938 C 34.765625 148.445312 33.140625 149.851562 30.960938 152.171875 C 29.183594 154.066406 27.863281 155.328125 27.011719 155.957031 C 26.164062 156.605469 25.253906 157.027344 24.277344 157.226562 C 23.296875 157.4375 22.335938 157.417969 21.394531 157.164062 C 19.601562 156.683594 18.242188 155.570312 17.3125 153.828125 C 16.390625 152.097656 16.226562 150.136719 16.8125 147.949219 C 16.996094 147.265625 17.21875 146.632812 17.488281 146.054688 C 17.640625 145.710938 18.054688 145.015625 18.71875 143.972656 C 19.394531 142.945312 19.773438 142.277344 19.851562 141.976562 C 19.929688 141.683594 19.90625 141.429688 19.777344 141.207031 C 19.648438 140.996094 19.320312 140.777344 18.792969 140.550781 L 18.96875 139.90625 L 27.082031 142.082031 L 26.910156 142.726562 C 25.128906 142.574219 23.746094 142.640625 22.757812 142.921875 C 21.785156 143.210938 20.878906 143.804688 20.039062 144.699219 C 19.195312 145.609375 18.605469 146.691406 18.269531 147.949219 C 17.882812 149.402344 17.957031 150.652344 18.5 151.695312 C 19.042969 152.75 19.835938 153.417969 20.882812 153.699219 C 21.464844 153.855469 22.09375 153.847656 22.777344 153.683594 C 23.453125 153.527344 24.136719 153.179688 24.832031 152.644531 C 25.300781 152.28125 26.371094 151.242188 28.042969 149.519531 C 29.726562 147.800781 31.019531 146.601562 31.925781 145.921875 C 32.828125 145.253906 33.746094 144.808594 34.679688 144.582031 C 35.609375 144.359375 36.566406 144.378906 37.542969 144.640625 C 39.242188 145.09375 40.527344 146.136719 41.398438 147.769531 C 42.285156 149.402344 42.457031 151.226562 41.917969 153.238281 C 41.578125 154.496094 40.914062 155.742188 39.921875 156.984375 C 39.457031 157.558594 39.1875 157.980469 39.113281 158.246094 C 39.035156 158.550781 39.054688 158.816406 39.179688 159.050781 C 39.3125 159.296875 39.636719 159.554688 40.152344 159.816406 L 39.980469 160.460938 "/>
<path style=" stroke:none;fill-rule:nonzero;fill:rgb(100%,100%,100%);fill-opacity:1;" d="M 14.578125 176.824219 L 13.910156 176.78125 L 14.558594 166.308594 L 15.226562 166.347656 L 15.171875 167.214844 C 15.109375 168.222656 15.359375 168.976562 15.921875 169.46875 C 16.289062 169.78125 17.203125 169.980469 18.671875 170.074219 L 34.464844 171.050781 C 35.703125 171.128906 36.527344 171.101562 36.933594 170.96875 C 37.242188 170.867188 37.515625 170.636719 37.753906 170.277344 C 38.074219 169.765625 38.253906 169.222656 38.289062 168.644531 L 38.34375 167.777344 L 39.011719 167.820312 L 38.363281 178.296875 L 37.695312 178.253906 L 37.75 177.371094 C 37.8125 176.375 37.5625 175.628906 37 175.136719 C 36.636719 174.8125 35.71875 174.605469 34.253906 174.511719 L 18.457031 173.535156 C 17.21875 173.457031 16.394531 173.484375 15.988281 173.617188 C 15.683594 173.71875 15.40625 173.957031 15.167969 174.328125 C 14.847656 174.824219 14.667969 175.363281 14.632812 175.941406 L 14.578125 176.824219 "/>
<path style=" stroke:none;fill-rule:nonzero;fill:rgb(100%,100%,100%);fill-opacity:1;" d="M 13.78125 184.007812 L 14.449219 183.996094 L 14.46875 184.914062 C 14.492188 185.949219 14.839844 186.679688 15.511719 187.097656 C 15.917969 187.351562 16.8125 187.464844 18.195312 187.433594 L 34.019531 187.070312 C 35.546875 187.035156 36.5 186.847656 36.878906 186.5 C 37.398438 186.019531 37.644531 185.3125 37.625 184.386719 L 37.605469 183.464844 L 38.273438 183.449219 L 38.5 193.421875 C 38.582031 197.082031 38.230469 199.871094 37.445312 201.792969 C 36.65625 203.726562 35.308594 205.292969 33.394531 206.496094 C 31.480469 207.707031 29.257812 208.339844 26.714844 208.398438 C 23.308594 208.476562 20.4375 207.507812 18.101562 205.488281 C 15.496094 203.222656 14.136719 199.710938 14.03125 194.953125 L 13.78125 184.007812 M 15.710938 190.957031 C 15.40625 192.496094 15.269531 193.78125 15.292969 194.816406 C 15.355469 197.609375 16.390625 199.90625 18.394531 201.703125 C 20.398438 203.5 23.082031 204.363281 26.441406 204.285156 C 29.824219 204.207031 32.46875 203.226562 34.378906 201.339844 C 36.289062 199.453125 37.210938 197.066406 37.144531 194.175781 C 37.117188 193.089844 36.914062 191.859375 36.535156 190.484375 L 15.710938 190.957031 "/>
<path style=" stroke:none;fill-rule:nonzero;fill:rgb(100%,100%,100%);fill-opacity:1;" d="M 29.851562 232.929688 L 27.234375 223.8125 L 23.058594 223.285156 C 22.03125 223.152344 21.292969 223.152344 20.839844 223.28125 C 20.480469 223.386719 20.210938 223.644531 20.03125 224.0625 C 19.863281 224.484375 19.902344 225.273438 20.148438 226.433594 L 19.503906 226.617188 L 17.375 219.203125 L 18.015625 219.019531 C 18.472656 219.953125 18.882812 220.523438 19.242188 220.734375 C 19.96875 221.164062 21.285156 221.496094 23.191406 221.722656 L 44.949219 224.4375 L 45.125 225.046875 L 27.894531 238.867188 C 26.507812 239.980469 25.65625 240.871094 25.335938 241.539062 C 25.027344 242.21875 24.984375 243.046875 25.203125 244.023438 L 24.558594 244.207031 L 21.890625 234.917969 L 22.53125 234.734375 C 22.847656 235.65625 23.1875 236.242188 23.546875 236.492188 C 23.90625 236.75 24.28125 236.824219 24.660156 236.714844 C 25.171875 236.570312 25.910156 236.105469 26.875 235.328125 L 29.851562 232.929688 M 31 232.074219 L 39.367188 225.347656 L 28.671875 223.984375 L 31 232.074219 "/>
<path style=" stroke:none;fill-rule:nonzero;fill:rgb(100%,100%,100%);fill-opacity:1;" d="M 28.640625 253.4375 L 29.230469 253.121094 L 29.664062 253.933594 C 30.15625 254.847656 30.792969 255.339844 31.582031 255.40625 C 32.058594 255.453125 32.90625 255.148438 34.128906 254.496094 L 48.078125 247.023438 C 49.425781 246.300781 50.191406 245.699219 50.371094 245.21875 C 50.617188 244.554688 50.519531 243.816406 50.082031 242.996094 L 49.648438 242.183594 L 50.238281 241.871094 L 54.945312 250.660156 C 56.675781 253.886719 57.621094 256.539062 57.789062 258.605469 C 57.960938 260.6875 57.464844 262.695312 56.300781 264.628906 C 55.140625 266.574219 53.441406 268.148438 51.203125 269.347656 C 48.199219 270.957031 45.199219 271.390625 42.203125 270.644531 C 38.855469 269.800781 36.058594 267.28125 33.8125 263.089844 L 28.640625 253.4375 M 33.503906 258.765625 C 33.929688 260.273438 34.386719 261.480469 34.875 262.394531 C 36.195312 264.859375 38.152344 266.4375 40.753906 267.136719 C 43.355469 267.832031 46.136719 267.390625 49.097656 265.800781 C 52.082031 264.203125 54 262.132812 54.847656 259.585938 C 55.699219 257.042969 55.441406 254.496094 54.078125 251.945312 C 53.5625 250.992188 52.828125 249.984375 51.867188 248.929688 L 33.503906 258.765625 "/>
<path style=" stroke:none;fill-rule:evenodd;fill:rgb(0%,2.745098%,47.450981%);fill-opacity:1;" d="M 140.820312 244.773438 L 144 243.867188 L 144.90625 244.65625 C 144.90625 244.65625 145.925781 245.90625 145.925781 246.582031 C 145.925781 247.265625 146.039062 249.308594 146.039062 249.308594 L 150.234375 248.171875 C 150.234375 248.171875 152.960938 247.035156 154.886719 249.078125 C 156.8125 251.121094 157.375 251.6875 157.375 252.816406 C 157.375 253.953125 157.375 260.1875 157.375 260.1875 L 157.601562 261.207031 L 154.429688 262.449219 L 153.292969 260.640625 L 153.632812 253.953125 C 153.632812 253.953125 154.316406 252.710938 151.820312 251.003906 C 151.707031 250.890625 151.03125 250.214844 149.777344 250.214844 C 148.535156 250.214844 146.039062 251.234375 146.039062 252.027344 C 146.039062 252.816406 145.8125 259.28125 145.8125 259.28125 C 145.8125 259.28125 146.152344 260.984375 144.449219 261.207031 C 142.75 261.4375 140.148438 261.4375 140.148438 261.4375 C 140.148438 261.4375 142.300781 260.984375 142.410156 259.28125 C 142.523438 257.585938 142.300781 247.265625 142.300781 247.265625 C 142.300781 247.265625 142.074219 246.582031 141.617188 245.90625 C 141.164062 245.226562 140.820312 244.773438 140.820312 244.773438 "/>
<path style=" stroke:none;fill-rule:evenodd;fill:rgb(0%,2.745098%,47.450981%);fill-opacity:1;" d="M 180.050781 249.191406 C 180.050781 249.191406 181.632812 249.414062 181.632812 250.4375 C 181.632812 251.457031 181.632812 260.414062 181.632812 260.414062 L 180.957031 261.777344 L 182.425781 262.566406 C 182.425781 262.566406 185.148438 262.449219 185.261719 261.324219 C 185.378906 260.1875 185.261719 252.710938 185.261719 252.710938 C 185.261719 252.710938 186.625 250.214844 187.53125 250.214844 C 188.4375 250.214844 191.269531 249.980469 191.5 252.140625 C 191.726562 254.289062 191.726562 261.777344 191.726562 261.777344 C 191.726562 261.777344 195.125 262.796875 195.125 260.871094 C 195.125 258.941406 195.351562 252.363281 195.351562 252.363281 C 195.351562 252.363281 196.144531 250.214844 197.734375 250.214844 C 199.316406 250.214844 201.585938 250.4375 201.703125 252.59375 C 201.8125 254.742188 201.46875 260.640625 201.46875 261.324219 C 201.46875 262.007812 202.382812 262.34375 202.382812 262.34375 L 205.214844 262.34375 L 206.347656 261.429688 C 206.347656 261.429688 205.4375 261.660156 205.214844 260.640625 C 204.988281 259.617188 205.324219 253.046875 205.324219 253.046875 C 205.324219 253.046875 204.875 250.328125 203.515625 249.414062 C 202.152344 248.511719 201.023438 246.8125 197.734375 248.058594 C 194.445312 249.300781 194.445312 249.414062 194.445312 249.414062 C 194.445312 249.414062 193.085938 248.289062 191.5 247.941406 C 189.910156 247.605469 189.230469 247.488281 188.324219 247.941406 C 187.414062 248.394531 187.074219 248.960938 186.167969 248.625 C 185.261719 248.289062 183.109375 247.941406 183.109375 247.941406 C 183.109375 247.941406 181.746094 247.835938 181.410156 248.394531 C 181.066406 248.960938 180.050781 249.191406 180.050781 249.191406 "/>
<path style=" stroke:none;fill-rule:evenodd;fill:rgb(0%,2.745098%,47.450981%);fill-opacity:1;" d="M 167.121094 247.488281 C 167.121094 247.488281 169.621094 246.695312 171.996094 247.71875 C 174.378906 248.742188 177.328125 250.4375 177.671875 253.160156 C 178.003906 255.878906 177.066406 259.171875 175.058594 260.640625 C 173.359375 261.890625 170.070312 264.15625 167.691406 263.363281 C 165.3125 262.566406 161.910156 261.207031 160.546875 257.355469 C 159.1875 253.5 162.136719 250.328125 162.136719 250.328125 Z M 166.105469 250.550781 C 166.105469 250.550781 167.121094 249.078125 168.9375 249.980469 C 170.75 250.890625 172.5625 251.796875 172.5625 251.796875 C 172.5625 251.796875 175.171875 253.5 174.492188 256.554688 C 173.8125 259.617188 172.90625 260.1875 172.90625 260.1875 C 172.90625 260.1875 170.527344 261.996094 168.597656 260.753906 C 166.671875 259.511719 164.519531 257.128906 164.519531 257.128906 C 164.519531 257.128906 162.253906 254.40625 164.175781 252.480469 C 166.105469 250.550781 166.105469 250.550781 166.105469 250.550781 "/>
<path style=" stroke:none;fill-rule:evenodd;fill:rgb(0%,2.745098%,47.450981%);fill-opacity:1;" d="M 140.820312 260.957031 L 144 260.042969 L 144.90625 260.84375 C 144.90625 260.84375 145.925781 262.089844 145.925781 262.769531 C 145.925781 263.445312 146.039062 265.488281 146.039062 265.488281 L 150.234375 264.359375 C 150.234375 264.359375 152.960938 263.226562 154.886719 265.257812 C 156.8125 267.300781 157.375 267.867188 157.375 269.003906 C 157.375 270.140625 157.375 276.363281 157.375 276.363281 L 157.601562 277.386719 L 154.429688 278.640625 L 153.292969 276.828125 L 153.632812 270.140625 C 153.632812 270.140625 154.316406 268.890625 151.820312 267.195312 C 151.707031 267.078125 151.03125 266.394531 149.777344 266.394531 C 148.535156 266.394531 146.039062 267.417969 146.039062 268.214844 C 146.039062 269.003906 145.8125 275.460938 145.8125 275.460938 C 145.8125 275.460938 146.152344 277.164062 144.449219 277.386719 C 142.75 277.617188 140.148438 277.617188 140.148438 277.617188 C 140.148438 277.617188 142.300781 277.164062 142.410156 275.460938 C 142.523438 273.765625 142.300781 263.445312 142.300781 263.445312 C 142.300781 263.445312 142.074219 262.769531 141.617188 262.089844 C 141.164062 261.40625 140.820312 260.957031 140.820312 260.957031 "/>
<path style=" stroke:none;fill-rule:evenodd;fill:rgb(0%,2.745098%,47.450981%);fill-opacity:1;" d="M 174.042969 265.375 C 174.042969 265.375 175.632812 265.605469 175.632812 266.625 C 175.632812 267.644531 175.632812 276.59375 175.632812 276.59375 L 174.949219 277.957031 L 176.425781 278.753906 C 176.425781 278.753906 179.144531 278.640625 179.257812 277.511719 C 179.371094 276.363281 179.257812 268.890625 179.257812 268.890625 C 179.257812 268.890625 180.617188 266.394531 181.527344 266.394531 C 182.433594 266.394531 185.265625 266.171875 185.492188 268.320312 C 185.71875 270.480469 185.71875 277.957031 185.71875 277.957031 C 185.71875 277.957031 189.125 278.984375 189.125 277.050781 C 189.125 275.125 189.347656 268.550781 189.347656 268.550781 C 189.347656 268.550781 190.140625 266.394531 191.730469 266.394531 C 193.316406 266.394531 195.582031 266.625 195.695312 268.773438 C 195.808594 270.933594 195.46875 276.828125 195.46875 277.511719 C 195.46875 278.1875 196.375 278.523438 196.375 278.523438 L 199.210938 278.523438 L 200.34375 277.617188 C 200.34375 277.617188 199.433594 277.847656 199.210938 276.828125 C 198.984375 275.804688 199.328125 269.234375 199.328125 269.234375 C 199.328125 269.234375 198.867188 266.511719 197.511719 265.605469 C 196.152344 264.699219 195.015625 262.992188 191.730469 264.242188 C 188.441406 265.488281 188.441406 265.605469 188.441406 265.605469 C 188.441406 265.605469 187.078125 264.46875 185.492188 264.128906 C 183.902344 263.792969 183.226562 263.675781 182.316406 264.128906 C 181.414062 264.582031 181.070312 265.140625 180.164062 264.8125 C 179.257812 264.46875 177.101562 264.128906 177.101562 264.128906 C 177.101562 264.128906 175.742188 264.015625 175.40625 264.582031 C 175.0625 265.140625 174.042969 265.375 174.042969 265.375 "/>
<path style=" stroke:none;fill-rule:evenodd;fill:rgb(0%,2.745098%,47.450981%);fill-opacity:1;" d="M 164.511719 263.675781 C 164.511719 263.675781 167.011719 262.878906 169.386719 263.898438 C 171.769531 264.921875 174.71875 266.625 175.050781 269.34375 C 175.394531 272.070312 174.453125 275.355469 172.449219 276.828125 C 170.75 278.070312 167.460938 280.34375 165.082031 279.542969 C 162.699219 278.753906 159.300781 277.394531 157.9375 273.542969 C 156.578125 269.6875 159.527344 266.511719 159.527344 266.511719 Z M 163.496094 266.738281 C 163.496094 266.738281 164.511719 265.265625 166.328125 266.171875 C 168.140625 267.078125 169.953125 267.984375 169.953125 267.984375 C 169.953125 267.984375 172.5625 269.6875 171.878906 272.742188 C 171.203125 275.804688 170.292969 276.375 170.292969 276.375 C 170.292969 276.375 167.914062 278.1875 165.992188 276.933594 C 164.0625 275.691406 161.90625 273.308594 161.90625 273.308594 C 161.90625 273.308594 159.640625 270.59375 161.570312 268.667969 C 163.496094 266.738281 163.496094 266.738281 163.496094 266.738281 "/>
<path style=" stroke:none;fill-rule:evenodd;fill:rgb(0%,2.745098%,47.450981%);fill-opacity:1;" d="M 199.660156 264.492188 C 199.660156 264.492188 200.679688 266.535156 200.679688 267.777344 C 200.679688 269.03125 200.90625 276.285156 200.90625 276.285156 C 200.90625 276.285156 200.679688 277.304688 201.359375 277.875 C 202.035156 278.441406 203.289062 278.441406 203.289062 278.441406 L 204.988281 277.535156 C 204.988281 277.535156 203.960938 276.96875 204.082031 276.398438 C 204.199219 275.832031 203.738281 267.101562 203.738281 267.101562 C 203.738281 267.101562 202.835938 264.382812 202.382812 263.933594 C 201.929688 263.480469 199.660156 264.492188 199.660156 264.492188 "/>
<path style=" stroke:none;fill-rule:evenodd;fill:rgb(0%,2.745098%,47.450981%);fill-opacity:1;" d="M 204.761719 265.292969 C 204.761719 265.292969 207.257812 263.585938 207.933594 264.382812 C 208.613281 265.175781 209.519531 265.734375 209.519531 265.734375 C 209.519531 265.734375 213.265625 263.019531 214.738281 263.699219 C 216.210938 264.382812 218.027344 265.734375 218.589844 266.535156 C 219.15625 267.324219 219.15625 268.007812 219.15625 269.03125 C 219.15625 270.050781 218.703125 276.734375 218.703125 276.734375 C 218.703125 276.734375 218.472656 277.644531 219.042969 277.867188 C 219.617188 278.097656 219.386719 278.894531 219.386719 278.894531 C 219.386719 278.894531 218.027344 279.347656 217.347656 279.117188 C 216.664062 278.894531 215.871094 278.097656 215.871094 277.304688 C 215.871094 276.515625 216.101562 270.503906 216.101562 270.503906 C 216.101562 270.503906 215.871094 266.765625 213.378906 266.535156 C 210.882812 266.3125 209.746094 266.648438 209.296875 267.441406 C 208.84375 268.238281 209.066406 272.882812 209.183594 276.398438 C 209.066406 276.167969 209.183594 277.988281 208.617188 278.097656 C 208.050781 278.210938 208.050781 278.441406 207.140625 278.441406 C 206.234375 278.441406 205.214844 278.328125 205.214844 278.328125 C 205.214844 278.328125 205.78125 278.328125 205.78125 276.96875 C 205.78125 275.601562 205.78125 267.664062 205.78125 267.664062 C 205.78125 267.664062 205.441406 266.648438 205.101562 265.964844 C 204.761719 265.292969 204.761719 265.292969 204.761719 265.292969 "/>
<path style=" stroke:none;fill-rule:evenodd;fill:rgb(0%,2.745098%,47.450981%);fill-opacity:1;" d="M 220.292969 264.492188 C 220.292969 264.492188 221.3125 266.535156 221.3125 267.777344 C 221.3125 269.03125 221.539062 276.285156 221.539062 276.285156 C 221.539062 276.285156 221.3125 277.304688 221.992188 277.875 C 222.671875 278.441406 223.921875 278.441406 223.921875 278.441406 L 225.617188 277.535156 C 225.617188 277.535156 224.597656 276.96875 224.710938 276.398438 C 224.828125 275.832031 224.371094 267.101562 224.371094 267.101562 C 224.371094 267.101562 223.464844 264.382812 223.015625 263.933594 C 222.5625 263.480469 220.292969 264.492188 220.292969 264.492188 "/>
<path style=" stroke:none;fill-rule:evenodd;fill:rgb(0%,2.745098%,47.450981%);fill-opacity:1;" d="M 153.519531 281.273438 C 153.519531 281.273438 151.707031 279.453125 150.6875 279.230469 C 149.667969 279.011719 150.796875 278.097656 148.417969 279.230469 C 146.039062 280.367188 144.558594 280.703125 144.109375 281.84375 C 143.65625 282.96875 140.484375 284.898438 144.679688 288.074219 C 148.648438 289.320312 149.78125 289.089844 150.574219 290.570312 C 151.367188 292.042969 152.046875 292.496094 150.6875 293.402344 C 149.328125 294.308594 146.722656 294.761719 146.378906 293.507812 C 146.039062 292.265625 145.921875 291.8125 145.921875 291.8125 L 143.546875 292.15625 C 143.546875 292.15625 143.207031 295.328125 147.171875 295.558594 C 151.253906 294.761719 151.59375 294.421875 152.160156 293.632812 C 152.730469 292.835938 153.75 292.15625 153.632812 290.453125 C 153.519531 288.75 153.519531 288.304688 151.59375 287.285156 C 149.667969 286.265625 146.832031 285.582031 146.832031 285.582031 C 146.832031 285.582031 144.558594 283.988281 145.472656 282.410156 C 146.378906 280.820312 147.058594 280.476562 147.058594 280.476562 C 147.058594 280.476562 147.511719 280.476562 149.328125 281.273438 C 151.140625 282.066406 151.59375 282.296875 151.59375 282.296875 L 153.519531 281.273438 "/>
<path style=" stroke:none;fill-rule:evenodd;fill:rgb(0%,2.745098%,47.450981%);fill-opacity:1;" d="M 187.871094 281.273438 C 187.871094 281.273438 185.832031 278.210938 181.632812 279.230469 C 177.441406 280.253906 173.246094 283.199219 173.585938 287.507812 C 173.921875 291.8125 175.398438 294.195312 178.234375 294.992188 C 181.070312 295.78125 185.261719 295.328125 186.394531 294.53125 C 187.527344 293.738281 188.4375 293.179688 188.324219 292.496094 C 188.210938 291.8125 187.640625 291.246094 187.640625 291.246094 L 186.171875 291.359375 L 185.261719 292.496094 C 185.261719 292.496094 185.035156 293.738281 183.902344 293.972656 C 182.765625 294.195312 178.804688 294.644531 177.894531 291.136719 C 176.988281 287.621094 177.210938 284.671875 177.78125 283.429688 C 178.347656 282.179688 180.050781 279.570312 182.765625 280.9375 C 185.488281 282.296875 186.058594 282.410156 186.058594 282.410156 L 187.871094 281.273438 "/>
<path style=" stroke:none;fill-rule:evenodd;fill:rgb(0%,2.745098%,47.450981%);fill-opacity:1;" d="M 161.121094 280.589844 C 161.121094 280.589844 164.289062 285.011719 164.398438 286.601562 C 164.289062 286.71875 156.582031 286.832031 156.246094 292.160156 C 156.355469 293.402344 156.246094 293.855469 158.054688 294.761719 C 160.691406 296.078125 162.472656 294.878906 163.609375 294.195312 C 164.742188 293.507812 165.199219 292.71875 166.105469 293.632812 C 167.011719 294.539062 167.804688 295.328125 167.804688 295.328125 C 167.804688 295.328125 168.375 295.328125 169.507812 294.992188 C 170.636719 294.648438 171.207031 294.085938 171.207031 294.085938 C 171.207031 294.085938 171.207031 294.878906 170.183594 293.171875 C 169.164062 291.476562 168.484375 286.140625 168.03125 285.359375 C 167.574219 284.558594 166.785156 281.957031 165.3125 280.589844 C 163.835938 279.230469 162.816406 278.894531 162.816406 278.894531 Z M 162.929688 288.414062 C 162.929688 288.414062 161.230469 288.074219 160.324219 289.097656 C 159.414062 290.117188 158.507812 291.476562 159.867188 292.496094 C 161.230469 293.507812 162.929688 293.972656 163.953125 293.289062 C 164.96875 292.613281 165.199219 292.042969 165.085938 291.136719 C 164.96875 290.234375 164.742188 289.210938 164.289062 288.980469 C 163.835938 288.757812 162.929688 288.414062 162.929688 288.414062 "/>
<path style=" stroke:none;fill-rule:evenodd;fill:rgb(0%,2.745098%,47.450981%);fill-opacity:1;" d="M 213.265625 280.589844 C 213.265625 280.589844 216.4375 285.011719 216.550781 286.601562 C 216.4375 286.71875 208.726562 286.832031 208.386719 292.160156 C 208.503906 293.402344 208.386719 293.855469 210.203125 294.761719 C 212.84375 296.078125 214.625 294.878906 215.757812 294.195312 C 216.890625 293.507812 217.34375 292.71875 218.25 293.632812 C 219.15625 294.539062 219.953125 295.328125 219.953125 295.328125 C 219.953125 295.328125 220.519531 295.328125 221.652344 294.992188 C 222.785156 294.648438 223.351562 294.085938 223.351562 294.085938 C 223.351562 294.085938 223.351562 294.878906 222.332031 293.171875 C 221.3125 291.476562 220.632812 286.140625 220.175781 285.359375 C 219.726562 284.558594 218.933594 281.957031 217.457031 280.589844 C 215.984375 279.230469 214.964844 278.894531 214.964844 278.894531 Z M 215.074219 288.414062 C 215.074219 288.414062 213.378906 288.074219 212.46875 289.097656 C 211.5625 290.117188 210.65625 291.476562 212.015625 292.496094 C 213.378906 293.507812 215.074219 293.972656 216.097656 293.289062 C 217.117188 292.613281 217.34375 292.042969 217.234375 291.136719 C 217.117188 290.234375 216.890625 289.210938 216.4375 288.980469 C 215.984375 288.757812 215.074219 288.414062 215.074219 288.414062 "/>
<path style=" stroke:none;fill-rule:evenodd;fill:rgb(0%,2.745098%,47.450981%);fill-opacity:1;" d="M 191.273438 280.820312 C 191.273438 280.820312 192.179688 281.496094 192.179688 282.96875 C 192.179688 284.445312 192.0625 294.421875 192.0625 294.421875 L 191.5 295.328125 L 195.808594 295.328125 L 196.03125 292.71875 C 196.03125 292.71875 198.183594 292.382812 199.09375 293.289062 C 199.996094 294.195312 199.886719 295.328125 201.246094 295.445312 C 202.605469 295.558594 204.988281 295.445312 204.988281 295.445312 C 204.988281 295.445312 204.082031 294.761719 203.289062 294.078125 C 202.492188 293.402344 201.359375 291.359375 201.359375 291.359375 C 201.359375 291.359375 205.214844 288.414062 205.667969 287.390625 C 206.121094 286.371094 207.027344 284.78125 205.78125 283.085938 C 204.535156 281.386719 203.964844 279.570312 201.703125 279.570312 C 199.433594 279.570312 196.710938 280.019531 195.921875 280.484375 C 195.125 280.929688 194.332031 279.339844 193.765625 279.570312 C 193.195312 279.800781 191.273438 280.820312 191.273438 280.820312 Z M 195.464844 283.316406 L 195.578125 288.757812 C 195.578125 288.757812 196.9375 290.226562 197.734375 290.226562 C 198.527344 290.226562 199.886719 290.570312 200.796875 289.664062 C 201.703125 288.757812 202.605469 286.035156 202.382812 285.242188 C 202.152344 284.445312 201.476562 282.855469 200.679688 282.632812 C 199.886719 282.410156 198.527344 282.179688 197.621094 282.410156 C 196.710938 282.632812 195.464844 283.316406 195.464844 283.316406 "/>
<path style=" stroke:none;fill-rule:evenodd;fill:rgb(0%,2.745098%,47.450981%);fill-opacity:1;" d="M 163.722656 297.371094 C 163.722656 297.371094 164.628906 298.054688 164.628906 299.519531 C 164.628906 300.992188 164.515625 310.976562 164.515625 310.976562 L 163.953125 311.882812 L 168.257812 311.882812 L 168.484375 309.269531 C 168.484375 309.269531 170.636719 308.933594 171.542969 309.839844 C 172.449219 310.742188 172.335938 311.882812 173.695312 311.996094 C 175.058594 312.113281 177.441406 311.996094 177.441406 311.996094 C 177.441406 311.996094 176.53125 311.3125 175.742188 310.628906 C 174.945312 309.953125 173.8125 307.910156 173.8125 307.910156 C 173.8125 307.910156 177.671875 304.960938 178.121094 303.941406 C 178.574219 302.921875 179.480469 301.332031 178.234375 299.636719 C 176.988281 297.9375 176.421875 296.121094 174.15625 296.121094 C 171.886719 296.121094 169.160156 296.574219 168.371094 297.035156 C 167.574219 297.480469 166.785156 295.890625 166.222656 296.121094 C 165.648438 296.351562 163.722656 297.371094 163.722656 297.371094 Z M 167.914062 299.867188 L 168.03125 305.308594 C 168.03125 305.308594 169.394531 306.773438 170.183594 306.773438 C 170.980469 306.773438 172.335938 307.121094 173.25 306.214844 C 174.152344 305.308594 175.058594 302.585938 174.835938 301.792969 C 174.605469 300.992188 173.925781 299.40625 173.132812 299.183594 C 172.335938 298.960938 170.980469 298.730469 170.074219 298.960938 C 169.160156 299.183594 167.914062 299.867188 167.914062 299.867188 "/>
<path style=" stroke:none;fill-rule:evenodd;fill:rgb(0%,2.745098%,47.450981%);fill-opacity:1;" d="M 206.007812 298.277344 C 206.007812 298.277344 204.199219 296.457031 203.175781 296.234375 C 202.152344 296.011719 203.289062 295.109375 200.90625 296.234375 C 198.523438 297.371094 197.054688 297.707031 196.597656 298.847656 C 196.148438 299.972656 192.972656 301.902344 197.164062 305.078125 C 201.132812 306.332031 202.265625 306.101562 203.0625 307.574219 C 203.855469 309.046875 204.535156 309.5 203.175781 310.40625 C 201.8125 311.3125 199.207031 311.765625 198.867188 310.515625 C 198.523438 309.269531 198.414062 308.816406 198.414062 308.816406 L 196.03125 309.160156 C 196.03125 309.160156 195.691406 312.332031 199.660156 312.5625 C 203.738281 311.765625 204.082031 311.425781 204.644531 310.636719 C 205.214844 309.839844 206.234375 309.160156 206.121094 307.457031 C 206.007812 305.753906 206.007812 305.308594 204.082031 304.289062 C 202.152344 303.269531 199.320312 302.585938 199.320312 302.585938 C 199.320312 302.585938 197.054688 300.992188 197.960938 299.414062 C 198.867188 297.824219 199.546875 297.488281 199.546875 297.488281 C 199.546875 297.488281 200 297.488281 201.8125 298.277344 C 203.625 299.070312 204.082031 299.300781 204.082031 299.300781 L 206.007812 298.277344 "/>
<path style=" stroke:none;fill-rule:evenodd;fill:rgb(0%,2.745098%,47.450981%);fill-opacity:1;" d="M 192.0625 297.59375 C 192.0625 297.59375 191.042969 296.457031 189.230469 296.234375 C 187.417969 296.011719 187.984375 296.121094 185.378906 297.488281 C 182.765625 298.847656 179.371094 300.433594 179.707031 304.625 C 180.050781 308.816406 180.277344 308.710938 182.089844 310.40625 C 183.902344 312.101562 187.304688 312.785156 189.457031 311.882812 C 191.609375 310.976562 192.632812 310.40625 192.863281 309.730469 C 193.085938 309.046875 193.425781 308.027344 192.632812 308.027344 C 191.839844 308.027344 191.269531 309.953125 190.136719 310.292969 C 189.003906 310.636719 184.699219 309.953125 184.128906 306.101562 C 184.128906 306.101562 186.511719 304.171875 190.816406 304.289062 C 190.9375 304.394531 192.523438 303.039062 191.042969 303.039062 C 189.574219 303.039062 184.699219 303.039062 183.226562 302.246094 C 183.109375 302.246094 183.902344 300.308594 184.808594 299.636719 C 185.714844 298.960938 186.625 297.9375 187.53125 298.277344 C 188.4375 298.617188 190.253906 299.414062 190.253906 299.414062 L 192.292969 298.847656 L 192.0625 297.59375 "/>
<path style=" stroke:none;fill-rule:evenodd;fill:rgb(0%,2.745098%,47.450981%);fill-opacity:1;" d="M 215.757812 247.488281 C 215.757812 247.488281 218.25 246.695312 220.632812 247.71875 C 223.011719 248.742188 225.960938 250.4375 226.300781 253.160156 C 226.640625 255.878906 225.699219 259.171875 223.691406 260.640625 C 221.992188 261.890625 218.703125 264.15625 216.320312 263.363281 C 213.949219 262.566406 210.542969 261.207031 209.1875 257.355469 C 207.824219 253.5 210.773438 250.328125 210.773438 250.328125 Z M 214.738281 250.550781 C 214.738281 250.550781 215.757812 249.078125 217.570312 249.980469 C 219.386719 250.890625 221.203125 251.796875 221.203125 251.796875 C 221.203125 251.796875 223.808594 253.5 223.125 256.554688 C 222.449219 259.617188 221.539062 260.1875 221.539062 260.1875 C 221.539062 260.1875 219.15625 261.996094 217.234375 260.753906 C 215.300781 259.511719 213.148438 257.128906 213.148438 257.128906 C 213.148438 257.128906 210.882812 254.40625 212.8125 252.480469 C 214.738281 250.550781 214.738281 250.550781 214.738281 250.550781 "/>
<path style="fill:none;stroke-width:0.236093;stroke-linecap:butt;stroke-linejoin:miter;stroke:rgb(0%,2.745098%,47.450981%);stroke-opacity:1;stroke-miterlimit:3.864;" d="M 349.358459 315.807816 L 349.358459 348.561722 " transform="matrix(1,0,0,1,-208.510803,-70.913284)"/>
<path style="fill:none;stroke-width:0.236093;stroke-linecap:butt;stroke-linejoin:miter;stroke:rgb(0%,2.745098%,47.450981%);stroke-opacity:1;stroke-miterlimit:3.864;" d="M 373.749084 320.905472 L 373.749084 331.823441 " transform="matrix(1,0,0,1,-208.510803,-70.913284)"/>
<path style="fill:none;stroke-width:0.236093;stroke-linecap:butt;stroke-linejoin:miter;stroke:rgb(0%,2.745098%,47.450981%);stroke-opacity:1;stroke-miterlimit:3.864;" d="M 422.147522 320.905472 L 422.147522 331.823441 " transform="matrix(1,0,0,1,-208.510803,-70.913284)"/>
<path style="fill:none;stroke-width:0.236093;stroke-linecap:butt;stroke-linejoin:miter;stroke:rgb(0%,2.745098%,47.450981%);stroke-opacity:1;stroke-miterlimit:3.864;" d="M 371.194397 336.921097 L 371.194397 347.839066 " transform="matrix(1,0,0,1,-208.510803,-70.913284)"/>
<path style="fill:none;stroke-width:0.236093;stroke-linecap:butt;stroke-linejoin:miter;stroke:rgb(0%,2.745098%,47.450981%);stroke-opacity:1;stroke-miterlimit:3.864;" d="M 405.377991 353.464066 L 405.377991 366.171097 " transform="matrix(1,0,0,1,-208.510803,-70.913284)"/>
<path style="fill:none;stroke-width:0.236093;stroke-linecap:butt;stroke-linejoin:miter;stroke:rgb(0%,2.745098%,47.450981%);stroke-opacity:1;stroke-miterlimit:3.864;" d="M 377.874084 370.065628 L 377.874084 382.776566 " transform="matrix(1,0,0,1,-208.510803,-70.913284)"/>
<path style="fill-rule:nonzero;fill:rgb(0%,2.745098%,47.450981%);fill-opacity:1;stroke-width:0.181286;stroke-linecap:butt;stroke-linejoin:miter;stroke:rgb(0%,2.745098%,47.450981%);stroke-opacity:1;stroke-miterlimit:3.864;" d="M 371.499084 350.128128 L 376.085022 351.956253 L 377.460022 359.292191 " transform="matrix(1,0,0,1,-208.510803,-70.913284)"/>
<path style="fill-rule:nonzero;fill:rgb(0%,2.745098%,47.450981%);fill-opacity:1;stroke-width:0.181286;stroke-linecap:butt;stroke-linejoin:miter;stroke:rgb(0%,2.745098%,47.450981%);stroke-opacity:1;stroke-miterlimit:3.864;" d="M 423.768616 350.581253 L 428.358459 352.417191 L 429.725647 359.753128 " transform="matrix(1,0,0,1,-208.510803,-70.913284)"/>
<path style="fill:none;stroke-width:0.186954;stroke-linecap:butt;stroke-linejoin:miter;stroke:rgb(0%,2.745098%,47.450981%);stroke-opacity:1;stroke-miterlimit:3.864;" d="M 393.510803 370.108597 L 393.510803 380.835159 " transform="matrix(1,0,0,1,-208.510803,-70.913284)"/>
</g>
</svg>
