<?xml version="1.0" encoding="UTF-8"?>
<svg xmlns="http://www.w3.org/2000/svg" xmlns:xlink="http://www.w3.org/1999/xlink" width="110.459999" height="110.459999" viewBox="0 0 110.459999 110.459999" version="1.1">
<g id="surface1">
<path style=" stroke:none;fill-rule:nonzero;fill:rgb(0%,48.235294%,75.294119%);fill-opacity:1;" d="M 56.53125 79.886719 L 54.476562 79.886719 L 54.476562 84.160156 L 56.589844 84.160156 C 57.953125 84.160156 58.515625 83.085938 58.480469 81.953125 C 58.449219 80.847656 58.011719 79.886719 56.53125 79.886719 Z M 55.234375 0 C 24.726562 0 0 24.726562 0 55.230469 C 0 85.734375 24.726562 110.460938 55.234375 110.460938 C 85.734375 110.460938 110.460938 85.734375 110.460938 55.230469 C 110.460938 24.726562 85.734375 0 55.234375 0 Z M 55.453125 15.589844 C 59.8125 15.589844 63.335938 19.125 63.335938 23.476562 C 63.335938 27.828125 59.8125 31.363281 55.453125 31.363281 C 51.101562 31.363281 47.570312 27.828125 47.570312 23.476562 C 47.570312 19.125 51.101562 15.589844 55.453125 15.589844 Z M 55.453125 34.28125 C 59.8125 34.28125 63.335938 37.800781 63.335938 42.15625 C 63.335938 46.511719 59.8125 50.039062 55.453125 50.039062 C 51.101562 50.039062 47.570312 46.511719 47.570312 42.15625 C 47.570312 37.800781 51.101562 34.28125 55.453125 34.28125 Z M 36.292969 15.589844 C 40.648438 15.589844 44.179688 19.125 44.179688 23.476562 C 44.179688 27.828125 40.648438 31.363281 36.292969 31.363281 C 31.933594 31.363281 28.40625 27.828125 28.40625 23.476562 C 28.40625 19.125 31.933594 15.589844 36.292969 15.589844 Z M 36.292969 34.28125 C 40.648438 34.28125 44.179688 37.800781 44.179688 42.15625 C 44.179688 46.511719 40.648438 50.039062 36.292969 50.039062 C 31.933594 50.039062 28.40625 46.511719 28.40625 42.15625 C 28.40625 37.800781 31.933594 34.28125 36.292969 34.28125 Z M 36.292969 53.453125 C 40.648438 53.453125 44.179688 56.984375 44.179688 61.339844 C 44.179688 65.691406 40.648438 69.222656 36.292969 69.222656 C 31.933594 69.222656 28.40625 65.691406 28.40625 61.339844 C 28.40625 56.984375 31.933594 53.453125 36.292969 53.453125 Z M 45.578125 86.984375 C 45.578125 88.925781 45.523438 91.316406 42.976562 93.113281 C 41.3125 94.28125 39.34375 94.523438 37.574219 94.523438 C 35.796875 94.523438 33.835938 94.28125 32.164062 93.113281 C 29.621094 91.316406 29.550781 88.925781 29.550781 86.984375 L 29.550781 75.90625 L 34.859375 75.90625 L 34.859375 86.964844 C 34.878906 88.015625 34.976562 88.84375 35.792969 89.511719 C 36.355469 89.980469 36.839844 90.132812 37.582031 90.140625 C 38.300781 90.132812 38.785156 89.980469 39.34375 89.511719 C 40.15625 88.84375 40.265625 88.015625 40.285156 86.964844 L 40.285156 75.90625 L 45.578125 75.90625 Z M 55.453125 53.453125 C 59.8125 53.453125 63.335938 56.984375 63.335938 61.339844 C 63.335938 65.691406 59.8125 69.222656 55.453125 69.222656 C 51.101562 69.222656 47.570312 65.691406 47.570312 61.339844 C 47.570312 56.984375 51.101562 53.453125 55.453125 53.453125 Z M 61.074219 87.207031 C 60.0625 87.929688 58.914062 88.199219 55.960938 88.199219 L 54.425781 88.167969 L 54.425781 94.136719 L 49.800781 94.136719 L 49.800781 75.90625 L 57.433594 75.90625 C 61.15625 75.90625 63.457031 78.148438 63.457031 82.179688 C 63.457031 84.339844 62.613281 86.144531 61.074219 87.207031 Z M 80.128906 81.417969 C 78.3125 79.902344 77.597656 80.011719 76.179688 80.011719 C 73.414062 80.011719 71.492188 82.113281 71.492188 85.105469 C 71.492188 88.113281 73.441406 90.195312 76.203125 90.195312 C 77.703125 90.195312 78.445312 89.992188 80.128906 88.753906 L 80.128906 93.476562 C 78.382812 94.328125 77.394531 94.570312 75.714844 94.570312 C 70.207031 94.570312 66.328125 90.65625 66.328125 85.105469 C 66.328125 79.605469 70.292969 75.527344 75.660156 75.527344 C 77.304688 75.527344 78.371094 75.792969 80.128906 76.644531 Z M 74.171875 69.222656 C 69.8125 69.222656 66.285156 65.691406 66.285156 61.339844 C 66.285156 56.984375 69.8125 53.453125 74.171875 53.453125 C 78.519531 53.453125 82.058594 56.984375 82.058594 61.339844 C 82.058594 65.6875 78.519531 69.222656 74.171875 69.222656 Z M 74.171875 50.039062 C 69.8125 50.039062 66.285156 46.511719 66.285156 42.15625 C 66.285156 37.800781 69.8125 34.28125 74.171875 34.28125 C 78.519531 34.28125 82.058594 37.800781 82.058594 42.15625 C 82.058594 46.511719 78.519531 50.039062 74.171875 50.039062 Z M 74.171875 31.359375 C 69.8125 31.359375 66.285156 27.828125 66.285156 23.476562 C 66.285156 19.125 69.8125 15.585938 74.171875 15.585938 C 78.519531 15.585938 82.058594 19.125 82.058594 23.476562 C 82.058594 27.828125 78.519531 31.359375 74.171875 31.359375 Z M 74.171875 31.359375 "/>
</g>
</svg>
