<?xml version="1.0" encoding="UTF-8"?>
<svg xmlns="http://www.w3.org/2000/svg" xmlns:xlink="http://www.w3.org/1999/xlink" width="163.520004" height="169.220001" viewBox="0 0 163.520004 169.220001" version="1.1">
<g id="surface1">
<path style=" stroke:none;fill-rule:nonzero;fill:rgb(0%,15.686275%,33.333334%);fill-opacity:1;" d="M 126.402344 68.949219 L 138.960938 47.261719 C 138.960938 47.261719 140.289062 44.316406 143.914062 44.671875 L 162.375 44.617188 L 162.375 7 L 127.15625 7 C 125.03125 7.347656 120.894531 6.46875 116.324219 12.53125 L 102.953125 35.050781 L 88.464844 9.414062 C 88.464844 9.414062 83.1875 3.253906 77.035156 9.414062 L 61.109375 33.785156 L 49.277344 12.203125 C 49.277344 12.203125 46.386719 6.890625 39.527344 6.890625 L 0.890625 6.890625 L 0.859375 44.519531 L 18.511719 44.539062 C 18.511719 44.539062 22.5625 43.605469 24.507812 48.121094 C 24.507812 48.121094 94.546875 159.789062 94.472656 159.789062 C 98.3125 163.839844 103.765625 163.679688 106.785156 159.667969 L 137.507812 112.527344 C 137.507812 112.527344 139.875 106.910156 143.808594 106.917969 L 162.425781 106.917969 L 162.445312 68.914062 Z M 126.402344 68.949219 "/>
<path style=" stroke:none;fill-rule:nonzero;fill:rgb(91.764706%,66.666669%,0%);fill-opacity:1;" d="M 7.730469 13.988281 L 7.675781 37.203125 L 21.988281 37.203125 C 21.988281 37.203125 26.621094 36.847656 28.683594 40.261719 L 58.378906 88.8125 C 58.378906 88.8125 60.226562 93.132812 63.574219 88.8125 L 82.652344 62.554688 L 99.105469 88.8125 C 99.105469 88.8125 101.550781 93.359375 104.519531 88.8125 L 134.636719 40.261719 C 134.636719 40.261719 135.789062 36.847656 140.960938 37.203125 L 155.273438 37.203125 L 155.273438 14.054688 L 127.515625 14.054688 C 127.515625 14.054688 124.453125 13.003906 120.390625 20.324219 L 102.394531 47.171875 L 85.03125 19.039062 C 85.03125 19.039062 82.671875 13.273438 80.046875 19.039062 L 61.230469 47.171875 L 45.152344 20.324219 C 45.152344 20.324219 42.324219 14.054688 37.8125 14.054688 L 7.746094 13.988281 Z M 128.800781 76.003906 C 122.972656 76.003906 120.117188 80.777344 120.117188 80.777344 L 120.121094 80.777344 L 101.730469 107.414062 L 82.160156 76.132812 L 65.960938 98.875 L 98.042969 152.480469 C 101.097656 157.699219 103.664062 152.480469 103.664062 152.480469 L 134.644531 103.980469 C 137.585938 99.257812 141.398438 99.855469 141.398438 99.855469 L 155.277344 99.855469 L 155.277344 76.003906 Z M 128.800781 76.003906 "/>
</g>
</svg>
