<?xml version="1.0" encoding="UTF-8"?>
<svg xmlns="http://www.w3.org/2000/svg" xmlns:xlink="http://www.w3.org/1999/xlink" width="160" height="160" viewBox="0 0 160 160" version="1.1">
<g id="surface1">
<path style=" stroke:none;fill-rule:nonzero;fill:rgb(0%,30.588236%,63.529414%);fill-opacity:1;" d="M 80 9.132812 C 119.03125 9.132812 150.867188 40.96875 150.867188 80 C 150.867188 119.03125 119.03125 150.863281 80 150.863281 C 40.96875 150.863281 9.132812 119.03125 9.132812 80 C 9.132812 40.96875 40.96875 9.132812 80 9.132812 Z M 80 11.957031 C 42.523438 11.957031 11.957031 42.523438 11.957031 80 C 11.957031 117.476562 42.523438 148.039062 80 148.039062 C 117.476562 148.039062 148.042969 117.476562 148.042969 80 C 148.042969 42.523438 117.476562 11.957031 80 11.957031 Z M 80 11.957031 "/>
<path style=" stroke:none;fill-rule:nonzero;fill:rgb(0%,30.588236%,63.529414%);fill-opacity:1;" d="M 55.109375 110.203125 C 50.671875 106.539062 47.050781 101.914062 44.5625 96.65625 C 42.171875 91.59375 40.832031 85.945312 40.832031 80 C 40.832031 58.429688 58.425781 40.832031 80 40.832031 C 101.570312 40.832031 119.167969 58.429688 119.167969 80 C 119.167969 85.945312 117.828125 91.597656 115.433594 96.65625 C 112.949219 101.914062 109.328125 106.539062 104.890625 110.203125 L 103.992188 109.117188 C 108.273438 105.578125 111.765625 101.121094 114.160156 96.054688 C 116.464844 91.179688 117.757812 85.738281 117.757812 79.996094 C 117.757812 59.203125 100.796875 42.242188 80 42.242188 C 59.203125 42.242188 42.246094 59.203125 42.246094 79.996094 C 42.246094 85.734375 43.535156 91.179688 45.839844 96.054688 C 48.234375 101.121094 51.726562 105.578125 56.007812 109.117188 Z M 55.109375 110.203125 "/>
<path style=" stroke:none;fill-rule:evenodd;fill:rgb(0%,30.588236%,63.529414%);fill-opacity:1;" d="M 80.238281 116.167969 L 72.214844 103.929688 C 74.679688 102.660156 74.375 98.707031 72.265625 98.378906 C 69.914062 98.011719 68.046875 97.898438 66.398438 94.203125 L 70.21875 94.203125 L 69.046875 91.003906 C 64.671875 91.386719 63.78125 90.171875 61.707031 86.757812 L 67.167969 86.570312 L 66.066406 83.78125 C 60.113281 84.058594 58.542969 82.597656 57.058594 79.207031 L 63.992188 78.964844 L 62.492188 75.648438 C 55.390625 75.847656 53.886719 75.644531 51.28125 70.84375 L 60.105469 70.800781 L 58.859375 67.640625 C 50.820312 67.988281 48.8125 67.203125 46.535156 63.179688 L 64.609375 62.722656 C 67.242188 62.65625 70.25 64.453125 71.355469 66.839844 L 73.53125 71.53125 L 75.816406 63.636719 C 76.996094 59.570312 85.882812 61.046875 88.742188 63.753906 L 83.367188 65.695312 L 85.996094 72.101562 C 87.902344 67.640625 90.238281 62.722656 95.261719 62.722656 L 112.992188 62.722656 C 111.628906 66.640625 108.335938 68.59375 101.175781 67.324219 L 99.917969 70.640625 L 108.757812 70.613281 C 106.644531 75.546875 104.296875 76.167969 97.71875 75.417969 L 96.347656 78.734375 L 103.382812 78.964844 C 102.03125 82.089844 99.578125 83.960938 94.144531 83.308594 L 93.003906 86.539062 L 98.605469 86.511719 C 97 90.441406 95.964844 91.316406 90.855469 91.085938 L 89.683594 94.289062 L 93.722656 94.304688 C 92.023438 97.722656 91.519531 98.128906 87.898438 98.449219 C 85.746094 98.640625 84.785156 102.089844 87.652344 104.132812 Z M 80.238281 116.167969 "/>
<path style=" stroke:none;fill-rule:evenodd;fill:rgb(0%,30.588236%,63.529414%);fill-opacity:1;" d="M 19.316406 103.652344 L 16.644531 96.484375 L 18.101562 95.976562 L 30.351562 97.84375 L 28.476562 92.816406 L 29.9375 92.308594 L 32.382812 98.871094 L 30.925781 99.382812 L 18.675781 97.515625 L 20.773438 103.144531 Z M 19.316406 103.652344 "/>
<path style=" stroke:none;fill-rule:evenodd;fill:rgb(0%,30.588236%,63.529414%);fill-opacity:1;" d="M 23.980469 113.433594 L 23.242188 112 L 29.003906 109.035156 L 27.175781 105.484375 L 21.414062 108.445312 L 20.675781 107.015625 L 32.992188 100.679688 L 33.730469 102.113281 L 28.542969 104.777344 L 30.371094 108.332031 L 35.558594 105.664062 L 36.292969 107.097656 Z M 23.980469 113.433594 "/>
<path style=" stroke:none;fill-rule:evenodd;fill:rgb(0%,30.588236%,63.529414%);fill-opacity:1;" d="M 29.820312 121.234375 L 25.445312 115.121094 L 36.996094 107.949219 L 41.15625 113.761719 L 39.875 114.558594 L 36.699219 110.125 L 33.117188 112.347656 L 36.035156 116.421875 L 34.753906 117.21875 L 31.835938 113.144531 L 27.714844 115.703125 L 31.101562 120.4375 Z M 29.820312 121.234375 "/>
<path style=" stroke:none;fill-rule:evenodd;fill:rgb(0%,30.588236%,63.529414%);fill-opacity:1;" d="M 39.636719 130.835938 L 38.167969 129.601562 L 46.671875 119.15625 L 48.136719 120.394531 Z M 39.636719 130.835938 "/>
<path style=" stroke:none;fill-rule:evenodd;fill:rgb(0%,30.588236%,63.529414%);fill-opacity:1;" d="M 46.21875 135.4375 L 47.960938 131.734375 L 45.851562 130.207031 L 42.707031 133.265625 L 41.273438 132.15625 L 51.238281 122.308594 L 53.234375 123.527344 L 47.929688 136.398438 Z M 48.765625 129.925781 L 50.84375 125.152344 L 50.652344 124.996094 L 47.058594 128.648438 Z M 48.765625 129.925781 "/>
<path style=" stroke:none;fill-rule:evenodd;fill:rgb(0%,30.588236%,63.529414%);fill-opacity:1;" d="M 56.207031 140.265625 L 54.40625 139.429688 L 55.457031 129.820312 L 51.523438 137.898438 L 49.726562 137.070312 L 55.972656 124.703125 L 57.59375 125.453125 L 56.839844 134.585938 L 60.898438 127.046875 L 62.410156 127.675781 Z M 56.207031 140.265625 "/>
<path style=" stroke:none;fill-rule:evenodd;fill:rgb(0%,30.588236%,63.529414%);fill-opacity:1;" d="M 65.507812 143.039062 L 64.347656 142.660156 L 64.453125 141.574219 C 64.183594 141.804688 63.820312 141.953125 63.375 142.023438 C 62.925781 142.089844 62.476562 142.050781 62.019531 141.902344 C 61.058594 141.589844 60.351562 140.835938 59.894531 139.644531 C 59.433594 138.449219 59.523438 136.804688 60.167969 134.714844 C 60.871094 132.429688 61.738281 130.839844 62.769531 129.941406 C 63.796875 129.050781 65.359375 128.550781 66.742188 128.992188 C 68.234375 129.46875 69.199219 131.300781 68.769531 133.835938 L 66.992188 133.6875 C 67.300781 132.601562 67.144531 130.910156 66.085938 130.566406 C 65.226562 130.285156 64.261719 130.550781 63.648438 131.234375 C 63.035156 131.917969 62.441406 133.207031 61.855469 135.105469 C 61.300781 136.90625 61.148438 138.21875 61.394531 139.046875 C 61.636719 139.878906 62.058594 140.390625 62.652344 140.582031 C 63.242188 140.773438 63.78125 140.695312 64.265625 140.34375 C 64.75 139.996094 65.144531 139.332031 65.441406 138.363281 L 65.691406 137.558594 L 63.570312 136.867188 L 63.996094 135.484375 L 67.484375 136.621094 Z M 65.507812 143.039062 "/>
<path style=" stroke:none;fill-rule:evenodd;fill:rgb(0%,30.588236%,63.529414%);fill-opacity:1;" d="M 83.929688 139.988281 C 83.890625 141.234375 83.558594 142.214844 82.933594 142.917969 C 82.308594 143.625 81.34375 143.949219 80.042969 143.902344 C 78.742188 143.851562 77.800781 143.453125 77.226562 142.703125 C 76.648438 141.953125 76.378906 140.953125 76.417969 139.707031 L 76.722656 130.269531 L 78.386719 130.332031 L 78.078125 139.769531 C 78.050781 140.652344 78.222656 141.308594 78.597656 141.738281 C 78.96875 142.171875 79.46875 142.398438 80.09375 142.421875 C 80.71875 142.445312 81.230469 142.253906 81.628906 141.855469 C 82.027344 141.453125 82.242188 140.8125 82.269531 139.925781 L 82.578125 130.492188 L 84.238281 130.554688 Z M 83.929688 139.988281 "/>
<path style=" stroke:none;fill-rule:evenodd;fill:rgb(0%,30.588236%,63.529414%);fill-opacity:1;" d="M 93.386719 142.507812 L 91.902344 142.730469 L 87.230469 133.726562 L 87.945312 143.394531 L 86.183594 143.648438 L 85.148438 130.09375 L 87.175781 129.902344 L 91.03125 136.21875 L 90.316406 129.421875 L 91.785156 129.171875 Z M 93.386719 142.507812 "/>
<path style=" stroke:none;fill-rule:evenodd;fill:rgb(0%,30.588236%,63.529414%);fill-opacity:1;" d="M 98.449219 141.089844 L 96.710938 141.613281 L 93.097656 128.785156 L 94.835938 128.257812 Z M 98.449219 141.089844 "/>
<path style=" stroke:none;fill-rule:evenodd;fill:rgb(0%,30.588236%,63.529414%);fill-opacity:1;" d="M 103.136719 124.828125 L 105.332031 138.992188 L 103.617188 139.839844 L 96.117188 127.816406 L 97.765625 127.121094 L 102.980469 135.320312 L 101.535156 125.523438 Z M 103.136719 124.828125 "/>
<path style=" stroke:none;fill-rule:evenodd;fill:rgb(0%,30.588236%,63.529414%);fill-opacity:1;" d="M 117.070312 132.859375 L 110.738281 136.28125 L 103.84375 124.441406 L 109.867188 121.1875 L 110.632812 122.503906 L 106.039062 124.984375 L 108.175781 128.65625 L 112.398438 126.375 L 113.164062 127.691406 L 108.941406 129.972656 L 111.398438 134.195312 L 116.304688 131.542969 Z M 117.070312 132.859375 "/>
<path style=" stroke:none;fill-rule:evenodd;fill:rgb(0%,30.588236%,63.529414%);fill-opacity:1;" d="M 124.285156 127.800781 L 122.890625 128.988281 L 117.984375 124.925781 L 116.714844 126.074219 L 120.03125 130.585938 L 118.640625 132.042969 L 110.519531 120.640625 L 113.105469 118.785156 C 113.933594 118.191406 115.023438 117.769531 116.003906 117.886719 C 118.53125 118.1875 119.613281 119.890625 119.496094 121.871094 C 119.460938 122.496094 119.425781 123.105469 119.179688 123.726562 Z M 115.53125 119.769531 C 114.503906 119.488281 113.691406 120.285156 112.949219 120.863281 L 115.648438 124.429688 C 116.472656 123.835938 116.855469 123.703125 117.480469 122.628906 C 117.75 121.335938 117.171875 120.214844 115.53125 119.769531 Z M 115.53125 119.769531 "/>
<path style=" stroke:none;fill-rule:evenodd;fill:rgb(0%,30.588236%,63.529414%);fill-opacity:1;" d="M 128.664062 116.789062 C 131.496094 118.492188 130.835938 123.316406 127.117188 123.882812 C 126.113281 124.03125 124.9375 123.730469 124.433594 123.410156 L 125.066406 121.96875 C 125.679688 122.105469 126.300781 122.324219 126.890625 122.214844 C 129.300781 121.753906 129.195312 119.25 127.789062 118.210938 C 127.300781 117.851562 126.597656 117.804688 126.019531 117.867188 C 124.390625 118.050781 123.347656 119.265625 121.539062 119.378906 C 119.558594 119.503906 118.183594 118.296875 117.859375 116.367188 C 117.6875 115.347656 117.933594 114.359375 118.4375 113.5625 C 119.484375 111.925781 121.707031 111.703125 123.328125 112.65625 L 122.695312 114.144531 C 121.820312 113.679688 120.269531 113.683594 119.683594 114.597656 C 119.378906 115.078125 119.273438 115.566406 119.363281 116.066406 C 119.566406 117.152344 120.308594 117.785156 121.355469 117.65625 C 123.113281 117.445312 124.300781 116 126.03125 116.054688 C 126.855469 116.082031 127.832031 116.289062 128.664062 116.789062 Z M 128.664062 116.789062 "/>
<path style=" stroke:none;fill-rule:evenodd;fill:rgb(0%,30.588236%,63.529414%);fill-opacity:1;" d="M 134.636719 115.03125 L 133.617188 116.28125 L 121.945312 108.964844 L 122.964844 107.714844 Z M 134.636719 115.03125 "/>
<path style=" stroke:none;fill-rule:evenodd;fill:rgb(0%,30.588236%,63.529414%);fill-opacity:1;" d="M 128.746094 100.265625 L 127.453125 102.660156 L 138.480469 109.144531 L 137.734375 110.519531 L 126.710938 104.035156 L 125.421875 106.429688 L 124.042969 105.621094 L 127.367188 99.457031 Z M 128.746094 100.265625 "/>
<path style=" stroke:none;fill-rule:evenodd;fill:rgb(0%,30.588236%,63.529414%);fill-opacity:1;" d="M 130.769531 91.160156 L 137.492188 97.171875 L 141.980469 99.09375 L 141.433594 100.605469 L 137.273438 98.996094 L 127.699219 98.773438 L 128.15625 97.238281 L 134.839844 97.347656 L 130.109375 92.992188 Z M 130.769531 91.160156 "/>
<path style=" stroke:none;fill-rule:evenodd;fill:rgb(0%,30.588236%,63.529414%);fill-opacity:1;" d="M 38.605469 124.804688 C 37.414062 125.988281 36.304688 126.601562 35.273438 126.636719 C 34.246094 126.671875 33.3125 126.261719 32.472656 125.40625 C 31.710938 124.628906 31.332031 123.722656 31.339844 122.6875 C 31.34375 122.164062 31.496094 121.621094 31.796875 121.066406 L 33.3125 121.992188 C 33.183594 122.257812 33.113281 122.507812 33.109375 122.746094 C 33.09375 123.308594 33.265625 123.777344 33.628906 124.148438 C 34.140625 124.671875 34.675781 124.902344 35.238281 124.855469 C 35.800781 124.808594 36.484375 124.386719 37.289062 123.585938 L 44.019531 116.921875 L 45.277344 118.199219 Z M 38.605469 124.804688 "/>
<path style=" stroke:none;fill-rule:evenodd;fill:rgb(0%,30.588236%,63.529414%);fill-opacity:1;" d="M 61.507812 122.472656 L 56.789062 119.542969 L 57.21875 118.804688 L 58.96875 119.890625 L 61.777344 115.007812 L 60.023438 113.917969 L 60.402344 113.253906 C 61.066406 113.664062 61.597656 113.898438 61.992188 113.949219 C 62.386719 114 62.71875 113.84375 62.984375 113.472656 L 63.992188 114.09375 L 60.222656 120.664062 L 61.933594 121.726562 Z M 75.578125 119.488281 C 75.65625 119.113281 75.523438 118.773438 75.1875 118.46875 C 74.847656 118.164062 74.332031 117.964844 73.640625 117.867188 C 73.007812 117.78125 72.472656 117.824219 72.023438 117.992188 C 71.570312 118.15625 71.308594 118.429688 71.230469 118.816406 C 71.171875 119.09375 71.230469 119.339844 71.398438 119.5625 C 71.5625 119.78125 71.835938 119.996094 72.214844 120.207031 C 72.386719 120.292969 72.640625 120.421875 72.988281 120.585938 C 73.332031 120.746094 73.648438 120.882812 73.9375 120.988281 C 74.496094 120.808594 74.886719 120.59375 75.125 120.363281 C 75.359375 120.121094 75.511719 119.828125 75.578125 119.488281 Z M 74.96875 123.714844 C 75.039062 123.367188 74.988281 123.085938 74.824219 122.851562 C 74.652344 122.617188 74.292969 122.359375 73.738281 122.066406 C 73.554688 121.96875 73.308594 121.855469 72.996094 121.726562 C 72.6875 121.597656 72.335938 121.449219 71.949219 121.277344 C 71.425781 121.421875 71.007812 121.621094 70.691406 121.886719 C 70.371094 122.152344 70.175781 122.480469 70.097656 122.867188 C 69.996094 123.375 70.148438 123.816406 70.554688 124.214844 C 70.957031 124.609375 71.519531 124.863281 72.230469 124.957031 C 72.960938 125.0625 73.574219 124.996094 74.070312 124.777344 C 74.570312 124.554688 74.867188 124.199219 74.96875 123.714844 Z M 72.042969 125.792969 C 71.398438 125.699219 70.824219 125.558594 70.320312 125.363281 C 69.820312 125.164062 69.40625 124.929688 69.082031 124.640625 C 68.765625 124.367188 68.542969 124.0625 68.414062 123.726562 C 68.289062 123.390625 68.261719 123.050781 68.332031 122.703125 C 68.425781 122.25 68.695312 121.863281 69.148438 121.53125 C 69.597656 121.203125 70.203125 120.980469 70.960938 120.851562 L 70.96875 120.820312 C 70.378906 120.488281 69.960938 120.164062 69.707031 119.835938 C 69.460938 119.507812 69.378906 119.132812 69.464844 118.707031 C 69.59375 118.070312 70.070312 117.597656 70.890625 117.28125 C 71.710938 116.964844 72.6875 116.886719 73.820312 117.039062 C 75 117.203125 75.902344 117.535156 76.53125 118.039062 C 77.160156 118.53125 77.410156 119.09375 77.285156 119.710938 C 77.210938 120.089844 76.964844 120.4375 76.550781 120.753906 C 76.132812 121.074219 75.589844 121.296875 74.90625 121.410156 L 74.902344 121.445312 C 75.609375 121.78125 76.125 122.136719 76.445312 122.515625 C 76.773438 122.894531 76.878906 123.34375 76.773438 123.851562 C 76.628906 124.570312 76.105469 125.113281 75.203125 125.484375 C 74.300781 125.855469 73.246094 125.964844 72.042969 125.792969 Z M 88.367188 120.617188 C 88.367188 120.042969 88.285156 119.570312 88.128906 119.210938 C 87.96875 118.847656 87.75 118.570312 87.46875 118.371094 C 87.222656 118.1875 86.96875 118.0625 86.710938 117.992188 C 86.453125 117.929688 86.171875 117.890625 85.863281 117.890625 C 85.164062 117.890625 84.605469 118.0625 84.191406 118.394531 C 83.773438 118.730469 83.566406 119.210938 83.566406 119.84375 C 83.566406 120.207031 83.632812 120.492188 83.769531 120.726562 C 83.90625 120.960938 84.128906 121.164062 84.441406 121.328125 C 84.652344 121.441406 84.902344 121.523438 85.171875 121.566406 C 85.445312 121.605469 85.738281 121.625 86.050781 121.625 C 86.414062 121.625 86.8125 121.578125 87.230469 121.496094 C 87.652344 121.410156 88.019531 121.296875 88.332031 121.160156 C 88.339844 121.097656 88.347656 121.027344 88.355469 120.929688 C 88.363281 120.839844 88.367188 120.738281 88.367188 120.617188 Z M 81.835938 119.890625 C 81.835938 119.453125 81.941406 119.054688 82.152344 118.699219 C 82.367188 118.332031 82.65625 118.019531 83.03125 117.761719 C 83.378906 117.507812 83.8125 117.316406 84.324219 117.175781 C 84.835938 117.03125 85.347656 116.964844 85.875 116.964844 C 86.460938 116.964844 86.992188 117.027344 87.464844 117.160156 C 87.941406 117.289062 88.351562 117.480469 88.699219 117.726562 C 89.140625 118.039062 89.476562 118.445312 89.722656 118.949219 C 89.960938 119.457031 90.085938 120.09375 90.085938 120.867188 C 90.085938 121.566406 89.964844 122.234375 89.726562 122.859375 C 89.492188 123.492188 89.148438 124.011719 88.683594 124.425781 C 88.195312 124.863281 87.609375 125.203125 86.921875 125.429688 C 86.234375 125.664062 85.386719 125.777344 84.378906 125.777344 C 84.152344 125.777344 83.90625 125.773438 83.652344 125.757812 C 83.394531 125.738281 83.15625 125.707031 82.933594 125.660156 L 82.933594 124.570312 L 83.019531 124.570312 C 83.164062 124.628906 83.382812 124.679688 83.6875 124.726562 C 83.988281 124.777344 84.296875 124.800781 84.609375 124.800781 C 85.722656 124.800781 86.601562 124.558594 87.238281 124.066406 C 87.878906 123.574219 88.238281 122.875 88.324219 121.964844 C 87.867188 122.171875 87.433594 122.320312 87.023438 122.417969 C 86.605469 122.511719 86.160156 122.558594 85.675781 122.558594 C 85.203125 122.558594 84.773438 122.523438 84.386719 122.453125 C 84 122.386719 83.609375 122.253906 83.21875 122.058594 C 82.757812 121.824219 82.414062 121.53125 82.183594 121.179688 C 81.949219 120.820312 81.835938 120.394531 81.835938 119.890625 Z M 100.335938 112.640625 L 100.023438 121.386719 L 98.683594 122.234375 L 98.800781 113.964844 L 93.691406 116.441406 L 93.242188 115.460938 L 99.664062 112.125 Z M 100.335938 112.640625 "/>
<path style=" stroke:none;fill-rule:evenodd;fill:rgb(0%,30.588236%,63.529414%);fill-opacity:1;" d="M 106.757812 45.746094 C 105.816406 45.113281 106.558594 45.03125 106.75 44.082031 C 106.910156 43.265625 106.519531 42.242188 106.765625 41.6875 C 107.429688 40.1875 109.347656 41.0625 110.335938 42.019531 C 110.511719 42.191406 110.632812 42.609375 110.722656 43.011719 C 110.949219 44.007812 111.136719 45.398438 109.953125 45.921875 C 108.929688 46.378906 107.578125 46.296875 106.757812 45.746094 Z M 106.757812 45.746094 "/>
<path style=" stroke:none;fill-rule:evenodd;fill:rgb(0%,30.588236%,63.529414%);fill-opacity:1;" d="M 95.636719 39.46875 C 95.609375 39.441406 95.578125 39.414062 95.550781 39.386719 C 95.605469 39.273438 95.65625 39.160156 95.707031 39.066406 C 96.078125 39.070312 99.621094 38.355469 99.648438 38.277344 C 100.726562 37.957031 101.75 37.523438 102.402344 36.566406 C 100.125 36.417969 97.628906 37.125 95.480469 36.449219 C 94.609375 35.820312 94.15625 35.03125 93.59375 34.46875 C 93.613281 34.417969 93.621094 34.386719 93.632812 34.351562 C 92.816406 33.191406 93.085938 32.222656 94.460938 32.304688 C 96.375 33.613281 100.191406 33.394531 102.46875 33.429688 C 102.992188 33.410156 104.449219 33.464844 104.960938 33.203125 C 106.53125 30.617188 107.335938 27.714844 108.558594 25.128906 C 110.003906 23.480469 110.78125 25.378906 111.480469 26.695312 C 111.566406 26.863281 111.699219 27.171875 111.792969 27.625 C 111.828125 27.636719 112.089844 29.085938 111.011719 29.519531 C 109.964844 30.613281 109.136719 31.957031 108.597656 33.484375 C 110.125 33.855469 111.5 32.941406 113.183594 33.582031 C 113.273438 34.515625 112.960938 35.15625 111.964844 35.507812 C 110.515625 35.601562 108.984375 35.597656 107.355469 35.675781 C 106.472656 36.945312 105.230469 38.4375 103.792969 39.183594 C 103.582031 39.292969 102.605469 39.671875 102.390625 39.703125 C 101.289062 39.867188 100.230469 40.179688 99.140625 40.058594 C 96.132812 39.730469 96.148438 39.59375 95.636719 39.46875 Z M 95.636719 39.46875 "/>
<path style=" stroke:none;fill-rule:evenodd;fill:rgb(0%,30.588236%,63.529414%);fill-opacity:1;" d="M 60.160156 44.363281 C 58.921875 44.140625 57.566406 43.070312 56.753906 42.390625 C 56.773438 42.070312 56.800781 41.746094 56.84375 41.433594 C 58.941406 38.800781 61.050781 36.308594 62.804688 33.359375 C 63.230469 32.070312 63.867188 30.675781 64.351562 29.386719 C 64.378906 29.359375 64.445312 29.222656 64.433594 29.191406 C 64.964844 28.496094 65.210938 28.285156 66 28.992188 C 66.230469 29.691406 65.082031 30.777344 64.921875 31.570312 C 64.636719 32.960938 63.894531 36.460938 63.375 37.792969 C 63.046875 38.640625 61.628906 43.363281 60.769531 44.128906 C 60.550781 44.199219 60.355469 44.28125 60.160156 44.363281 Z M 60.160156 44.363281 "/>
<path style=" stroke:none;fill-rule:evenodd;fill:rgb(0%,30.588236%,63.529414%);fill-opacity:1;" d="M 73.171875 31.1875 C 71.542969 31.539062 70.816406 30.628906 69.695312 29.921875 C 69.558594 29.503906 69.75 29.183594 69.703125 28.882812 C 70.085938 28.683594 71.195312 28.171875 71.914062 27.933594 C 72.78125 27.480469 74.726562 25.226562 75.707031 25.722656 C 76.339844 27.644531 74.726562 30.175781 73.171875 31.1875 Z M 73.171875 31.1875 "/>
<path style=" stroke:none;fill-rule:evenodd;fill:rgb(0%,30.588236%,63.529414%);fill-opacity:1;" d="M 60.007812 31.335938 C 59.25 30.953125 58.480469 28.5 58.226562 27.730469 C 58.320312 26.21875 59.703125 25.800781 61.105469 26.394531 C 62.351562 27.375 63.113281 27.714844 62.515625 29.394531 C 61.667969 30.640625 61.191406 30.832031 60.007812 31.335938 Z M 60.007812 31.335938 "/>
<path style=" stroke:none;fill-rule:evenodd;fill:rgb(0%,30.588236%,63.529414%);fill-opacity:1;" d="M 71.609375 27.015625 C 71.246094 26.300781 71.867188 24.410156 71.464844 24.097656 C 71.09375 24.257812 70.730469 24.507812 70.328125 24.640625 C 69.238281 24.421875 67.867188 23.523438 68.015625 22.507812 C 68.519531 21.507812 68.296875 21.785156 69.398438 21.425781 C 70.339844 20.671875 71.28125 19.933594 72.242188 19.191406 C 73.960938 18.386719 75.046875 19.15625 75.617188 20.898438 C 75.597656 22.125 75.070312 23.226562 74.558594 24.320312 C 73.738281 25.09375 73.023438 25.902344 72.300781 26.695312 C 72.058594 26.792969 71.835938 26.902344 71.609375 27.015625 Z M 71.609375 27.015625 "/>
<path style=" stroke:none;fill-rule:evenodd;fill:rgb(0%,30.588236%,63.529414%);fill-opacity:1;" d="M 60.398438 24.476562 C 59.933594 24.242188 60.046875 24.019531 60.15625 23.632812 C 59.914062 22.894531 59.308594 22.410156 59.078125 21.707031 C 58.976562 20.332031 58.601562 19.917969 59.523438 19.003906 C 60.464844 19.15625 63.800781 19.894531 63.53125 21.722656 C 62.992188 22.957031 61.53125 24.03125 60.398438 24.476562 Z M 60.398438 24.476562 "/>
<path style=" stroke:none;fill-rule:evenodd;fill:rgb(0%,30.588236%,63.529414%);fill-opacity:1;" d="M 37.703125 74.019531 C 36.277344 75.089844 33.441406 74.410156 33 72.484375 C 32.6875 71.125 30.964844 67.296875 30.226562 65.230469 C 29.855469 64.589844 29.425781 64.09375 29.664062 63.359375 C 30.140625 63.21875 30.703125 63.730469 31.132812 64.121094 C 31.347656 64.058594 31.679688 63.527344 31.652344 63.164062 C 31.546875 61.65625 31.492188 60.007812 31.222656 58.519531 C 30.828125 58.203125 30.441406 57.890625 30.074219 57.570312 C 29.816406 58.335938 28.957031 60.832031 28.058594 59.539062 C 28.25 58.523438 28.328125 56.839844 27.722656 55.851562 C 26.964844 55.074219 25.894531 54.570312 25.539062 53.714844 C 25.636719 52.507812 27.476562 52.148438 28.582031 52.589844 C 29.460938 52.628906 29.378906 50.976562 30.480469 53.664062 C 30.519531 54.105469 30.960938 54.367188 31.453125 54.597656 C 31.527344 54.496094 31.605469 54.398438 31.679688 54.296875 C 31.609375 53.136719 31.535156 51.875 31.589844 50.640625 C 30.460938 49.582031 29.515625 48.707031 28.820312 47.40625 C 28.773438 46.136719 30.1875 45.34375 31.421875 44.914062 C 31.800781 44.222656 31.785156 43.628906 31.722656 42.753906 C 31.792969 42.472656 31.792969 42.472656 32.078125 42.023438 C 32.511719 42.039062 32.875 42.179688 33.371094 42.449219 C 34.410156 43.699219 32.480469 47.71875 34.457031 47.953125 C 34.828125 47.273438 34.253906 46.601562 33.925781 46.058594 C 34 45.078125 35.464844 43.789062 36.511719 43.378906 C 38.085938 43.175781 38.023438 44.0625 38.085938 45.421875 C 38.164062 45.605469 38.242188 45.789062 38.332031 45.957031 C 40.386719 47.339844 40.386719 47.339844 43.238281 49.09375 C 44.125 49.855469 44.21875 51.121094 44.308594 51.503906 C 44.367188 51.746094 44.78125 53.542969 43.851562 53.699219 C 41.519531 52.246094 39.191406 50.597656 36.921875 49.277344 C 36.898438 49.324219 36.886719 49.378906 36.886719 49.417969 C 37.910156 50.296875 39.324219 52.773438 39.414062 54.1875 C 38.910156 55.113281 37.917969 55.535156 36.996094 55.316406 C 36.824219 55.078125 36.878906 54.871094 36.835938 54.585938 C 36.117188 53.433594 34.125 52.386719 33.105469 51.75 C 32.757812 52.539062 33.628906 54.800781 33.902344 55.730469 C 33.960938 56.285156 34.019531 56.839844 34.085938 57.378906 C 34.789062 58.183594 35.511719 58.917969 36.296875 59.726562 C 36.585938 60.183594 36.890625 60.652344 37.199219 61.121094 C 37.171875 61.167969 37.15625 61.195312 37.140625 61.226562 C 37.5 61.925781 38.308594 63.972656 36.953125 64.035156 C 36.8125 63.957031 36.6875 63.890625 36.574219 63.808594 C 36.109375 62.75 35.242188 61.617188 34.324219 61.015625 C 34.058594 62.09375 34.480469 63.238281 33.992188 64.125 C 33.695312 64.667969 33.113281 64.9375 32.699219 65.113281 C 32.257812 65.296875 31.980469 65.390625 31.949219 65.554688 C 32.351562 66.035156 32.808594 66.488281 33.191406 66.992188 C 34.710938 69.007812 36 70.992188 37.734375 72.921875 C 37.863281 73.46875 37.84375 73.617188 37.703125 74.019531 Z M 37.703125 74.019531 "/>
<path style=" stroke:none;fill-rule:evenodd;fill:rgb(0%,30.588236%,63.529414%);fill-opacity:1;" d="M 27.726562 65.292969 C 27.152344 65.316406 26.835938 64.644531 26.382812 64.339844 C 24.789062 63.949219 23.59375 63.679688 23.011719 62.140625 C 23.070312 61.992188 23.148438 61.851562 23.222656 61.714844 C 24.03125 61.371094 25.550781 61.117188 26.578125 61.035156 C 28.550781 61.390625 27.980469 63.867188 27.726562 65.292969 Z M 27.726562 65.292969 "/>
<path style=" stroke:none;fill-rule:evenodd;fill:rgb(0%,30.588236%,63.529414%);fill-opacity:1;" d="M 23.429688 60.820312 C 23.101562 61.085938 23.035156 61.027344 22.878906 61.023438 C 22.652344 60.660156 22.5625 60.390625 22.195312 60.25 C 20.453125 60.28125 18.601562 59.050781 18.851562 57.265625 C 19.15625 56.890625 19.503906 57.097656 20.175781 57.265625 C 21.628906 56.914062 23.78125 55.910156 23.96875 58.261719 C 23.84375 59.125 23.613281 60.003906 23.429688 60.820312 Z M 23.429688 60.820312 "/>
<path style=" stroke:none;fill-rule:evenodd;fill:rgb(0%,30.588236%,63.529414%);fill-opacity:1;" d="M 122.886719 56.453125 C 122.140625 55.058594 124.089844 53.488281 124.976562 52.949219 C 126.253906 53.222656 126.261719 55.28125 125.40625 56.265625 C 124.203125 57.085938 124.066406 57.242188 122.886719 56.453125 Z M 122.886719 56.453125 "/>
<path style=" stroke:none;fill-rule:evenodd;fill:rgb(0%,30.588236%,63.529414%);fill-opacity:1;" d="M 120.664062 70.355469 C 120.648438 70.296875 120.644531 70.246094 120.628906 70.210938 C 119.167969 68.941406 117.984375 67.515625 117.183594 65.859375 C 117.234375 65.695312 117.234375 65.695312 117.382812 65.519531 C 118.527344 65.816406 119.441406 66.9375 120.746094 66.71875 C 121.421875 66.210938 121.992188 65.773438 122.4375 65.203125 C 120.988281 63.945312 119.308594 64.1875 117.839844 63.515625 C 116.859375 62.664062 116.035156 60.199219 116.488281 59.195312 C 117.667969 58.003906 117.386719 58.78125 118.738281 59.960938 C 120.519531 61.183594 122.898438 61.804688 125 62.605469 C 125.542969 62.679688 125.542969 62.679688 125.785156 62.773438 C 127.085938 62.109375 127.488281 62.15625 128.71875 62.96875 C 129.320312 63.164062 129.320312 63.164062 131.195312 63.609375 C 131.339844 63.523438 131.484375 63.4375 131.640625 63.363281 C 129.648438 61.820312 126.78125 61.84375 124.417969 61.398438 C 123.519531 60.898438 123.101562 60.253906 122.828125 59.550781 C 122.472656 59.289062 120.390625 57.851562 121.945312 57.988281 C 122.679688 58.300781 123.453125 58.320312 124.261719 58.628906 C 126.484375 59.046875 128.796875 59.796875 131.058594 60.386719 C 131.265625 60.148438 131.300781 59.945312 131.320312 59.84375 C 131.625 59.546875 131.828125 59.445312 132.140625 59.300781 C 131.78125 59.125 131.722656 59.027344 131.472656 59.183594 C 130.242188 58.722656 129.113281 59.136719 129.203125 57.609375 C 128.269531 58.171875 127.222656 58.171875 126.425781 57.476562 C 126.046875 56.332031 127.289062 55.035156 127.738281 54.304688 C 127.753906 54.179688 128.136719 53.578125 128.492188 52.792969 C 128.84375 51.742188 128.980469 50.324219 130.039062 50.101562 C 130.914062 50.300781 131.257812 50.390625 130.992188 51.582031 C 131.089844 52.273438 131.183594 53.59375 131.058594 54.1875 C 130.859375 55.140625 130.511719 56.503906 129.628906 57.277344 C 130.265625 57.433594 131.292969 57.535156 131.5 56.734375 C 131.191406 55.722656 132.175781 55.476562 132.863281 55.703125 C 133.175781 56.046875 133.175781 56.046875 133.636719 56.425781 C 133.785156 56.253906 133.773438 56.238281 133.785156 56.066406 C 133.421875 55.328125 133.65625 55.300781 134.246094 54.996094 C 133.835938 54.128906 134.261719 53.214844 134.980469 52.976562 C 137.308594 54.347656 137.308594 54.347656 138.460938 54.929688 C 139.757812 54.777344 142.34375 53.410156 143.109375 54.890625 C 143.050781 55.65625 142.605469 56.597656 141.851562 57.222656 C 141.410156 57.378906 140.964844 57.4375 140.585938 57.710938 C 140.703125 57.816406 140.8125 57.933594 140.921875 58.050781 C 142.082031 58.429688 142.898438 58.324219 142.214844 59.945312 C 142.566406 61.089844 142.941406 61.253906 141.574219 62.070312 C 139.945312 62.636719 138.1875 63.230469 136.488281 63.738281 C 136.429688 63.777344 136.371094 63.820312 136.324219 63.875 C 136.4375 64.039062 136.546875 64.207031 136.648438 64.386719 C 136.238281 64.964844 135.644531 65.59375 135.039062 66.183594 C 133.882812 66.414062 133.292969 65.832031 132.449219 65.195312 C 131.03125 64.730469 129.789062 64.28125 128.367188 63.929688 C 128.195312 64.105469 127.992188 64.257812 127.851562 64.578125 C 128.320312 65.007812 128.789062 65.460938 129.257812 65.914062 C 129.4375 66.75 128.476562 67.640625 127.621094 67.875 C 127.027344 67.429688 126.648438 67.195312 126.039062 67.015625 C 125.742188 67.222656 125.441406 67.429688 125.136719 67.652344 C 124.203125 68.675781 122.359375 71.574219 120.664062 70.355469 Z M 135.621094 61.015625 C 135.601562 60.953125 135.589844 60.917969 135.574219 60.882812 C 136.382812 60.164062 136.625 59.886719 135.785156 59.296875 C 135.554688 59.347656 135.113281 59.453125 135.101562 59.167969 C 135.09375 58.859375 136.582031 58.515625 136.808594 58.386719 C 137.234375 58.757812 137.855469 59.460938 137.90625 60.183594 C 137.316406 60.859375 136.542969 61 135.621094 61.015625 Z M 135.621094 61.015625 "/>
</g>
</svg>
