<?xml version="1.0" encoding="UTF-8"?>
<svg xmlns="http://www.w3.org/2000/svg" viewBox="0 0 960 300" width="960" height="300"><style>@import url('https://fonts.googleapis.com/css2?family=JetBrains+Mono:wght@400;500;700&family=Source+Sans+3:wght@400;500;600;700&display=swap');</style><line x1="480" y1="46" x2="480" y2="268" stroke="#E0E0E0" stroke-width="1.5" stroke-dasharray="4 4"/><text x="232" y="40" font-family="JetBrains Mono, monospace" font-size="17" font-weight="700" fill="#C0341D" text-anchor="middle" dominant-baseline="central">Y = Y + X</text><rect x="69" y="127" width="46" height="46" rx="6" fill="#F3E5F5" stroke="#7D12BA" stroke-width="2"/><text x="92" y="150" font-family="JetBrains Mono, monospace" font-size="20" font-weight="700" fill="#7D12BA" text-anchor="middle" dominant-baseline="central">Y</text><g opacity="0.42"><rect x="196" y="78" width="178" height="54" rx="9" fill="#fff" stroke="#90A4AE" stroke-width="2"/><rect x="196" y="78" width="6" height="54" rx="3" fill="#90A4AE"/><text x="288" y="97" font-family="JetBrains Mono, monospace" font-size="13.5" font-weight="700" fill="#37474F" text-anchor="middle" dominant-baseline="central">addr #1</text><text x="288" y="116" font-family="JetBrains Mono, monospace" font-size="11.5" font-weight="500" fill="#78909C" text-anchor="middle" dominant-baseline="central">old buffer</text></g><g opacity="1"><rect x="196" y="170" width="178" height="54" rx="9" fill="#fff" stroke="#43A047" stroke-width="2"/><rect x="196" y="170" width="6" height="54" rx="3" fill="#43A047"/><text x="288" y="189" font-family="JetBrains Mono, monospace" font-size="13.5" font-weight="700" fill="#37474F" text-anchor="middle" dominant-baseline="central">addr #2</text><text x="288" y="208" font-family="JetBrains Mono, monospace" font-size="11.5" font-weight="500" fill="#78909C" text-anchor="middle" dominant-baseline="central">Y + X</text></g><line x1="118" y1="150" x2="196" y2="197" stroke="#7D12BA" stroke-width="2.3"/><path d="M196,197 L188.05975729511292,196.02401547784422 L191.42694332595158,190.43591951177157 Z" fill="#7D12BA"/><line x1="118" y1="150" x2="196" y2="104" stroke="#C9CDD2" stroke-width="2.3" stroke-dasharray="5 4"/><path d="M196,104 L191.3650601755047,110.52053163655447 L188.05088094542535,104.90083642033294 Z" fill="#C9CDD2"/><text x="232" y="262" font-family="Source Sans 3, sans-serif" font-size="14" font-weight="700" fill="#C0341D" text-anchor="middle" dominant-baseline="central">id(Y) changed → False</text><text x="728" y="40" font-family="JetBrains Mono, monospace" font-size="17" font-weight="700" fill="#2E7D32" text-anchor="middle" dominant-baseline="central">Y[:] = X + Y</text><rect x="561" y="127" width="46" height="46" rx="6" fill="#F3E5F5" stroke="#7D12BA" stroke-width="2"/><text x="584" y="150" font-family="JetBrains Mono, monospace" font-size="20" font-weight="700" fill="#7D12BA" text-anchor="middle" dominant-baseline="central">Y</text><g opacity="1"><rect x="700" y="123" width="178" height="54" rx="9" fill="#fff" stroke="#2E7D32" stroke-width="2"/><rect x="700" y="123" width="6" height="54" rx="3" fill="#2E7D32"/><text x="792" y="142" font-family="JetBrains Mono, monospace" font-size="13.5" font-weight="700" fill="#37474F" text-anchor="middle" dominant-baseline="central">addr #1</text><text x="792" y="161" font-family="JetBrains Mono, monospace" font-size="11.5" font-weight="500" fill="#78909C" text-anchor="middle" dominant-baseline="central">overwritten</text></g><line x1="610" y1="150" x2="700" y2="150" stroke="#7D12BA" stroke-width="2.3"/><path d="M700,150 L692.6952884775015,153.26208362447656 L692.6952884775015,146.73791637552344 Z" fill="#7D12BA"/><text x="770" y="262" font-family="Source Sans 3, sans-serif" font-size="14" font-weight="700" fill="#2E7D32" text-anchor="middle" dominant-baseline="central">id(Y) same → True</text></svg>
