<?xml version="1.0" encoding="UTF-8"?>
<svg xmlns="http://www.w3.org/2000/svg" viewBox="0 0 600 250" width="600" height="250"><style><![CDATA[@import url('https://fonts.googleapis.com/css2?family=JetBrains+Mono:wght@400;500;700&family=Source+Sans+3:wght@400;500;600;700&display=swap');]]></style><text x="300" y="28" font-family="Source Sans 3, sans-serif" font-size="15" font-weight="700" fill="#15181C" text-anchor="middle" dominant-baseline="central">The graph is built at runtime</text><text x="40" y="70" font-family="Source Sans 3, sans-serif" font-size="11.5" font-weight="700" fill="#6B7280" text-anchor="start" dominant-baseline="central">a = 0.30</text><rect x="22" y="79" width="60" height="34" rx="8" fill="#F3E5F5" stroke="#7D12BA" stroke-width="2"/><text x="52" y="96" font-family="JetBrains Mono, monospace" font-size="12.5" font-weight="700" fill="#7D12BA" text-anchor="middle" dominant-baseline="central">a</text><rect x="94" y="81" width="30" height="30" rx="6" fill="#E3F2FD" stroke="#2196F3" stroke-width="1.8"/><text x="109" y="96" font-family="JetBrains Mono, monospace" font-size="10.5" font-weight="700" fill="#15181C" text-anchor="middle" dominant-baseline="central">×2</text><line x1="124" y1="96" x2="130" y2="96" stroke="#15181C" stroke-width="2.3"/><path d="M130,96 L122.69528847750153,99.26208362447656 L122.69528847750153,92.73791637552344 Z" fill="#15181C"/><rect x="130" y="81" width="30" height="30" rx="6" fill="#E3F2FD" stroke="#2196F3" stroke-width="1.8"/><text x="145" y="96" font-family="JetBrains Mono, monospace" font-size="10.5" font-weight="700" fill="#15181C" text-anchor="middle" dominant-baseline="central">×2</text><line x1="160" y1="96" x2="166" y2="96" stroke="#15181C" stroke-width="2.3"/><path d="M166,96 L158.69528847750152,99.26208362447656 L158.69528847750152,92.73791637552344 Z" fill="#15181C"/><rect x="166" y="81" width="30" height="30" rx="6" fill="#E3F2FD" stroke="#2196F3" stroke-width="1.8"/><text x="181" y="96" font-family="JetBrains Mono, monospace" font-size="10.5" font-weight="700" fill="#15181C" text-anchor="middle" dominant-baseline="central">×2</text><line x1="202" y1="96" x2="214" y2="96" stroke="#15181C" stroke-width="2.3"/><path d="M214,96 L206.69528847750152,99.26208362447656 L206.69528847750152,92.73791637552344 Z" fill="#15181C"/><rect x="218" y="79" width="118" height="34" rx="8" fill="#fff" stroke="#43A047" stroke-width="2"/><text x="277" y="96" font-family="JetBrains Mono, monospace" font-size="11" font-weight="700" fill="#43A047" text-anchor="middle" dominant-baseline="central">b.sum()>0 → b</text><line x1="336" y1="96" x2="350" y2="96" stroke="#15181C" stroke-width="2.3"/><path d="M350,96 L342.69528847750155,99.26208362447656 L342.69528847750155,92.73791637552344 Z" fill="#15181C"/><circle cx="366" cy="96" r="15" fill="#D7EFD8" stroke="#43A047" stroke-width="2"/><text x="366" y="96" font-family="JetBrains Mono, monospace" font-size="14" font-weight="700" fill="#15181C" text-anchor="middle" dominant-baseline="central">c</text><text x="40" y="150" font-family="Source Sans 3, sans-serif" font-size="11.5" font-weight="700" fill="#6B7280" text-anchor="start" dominant-baseline="central">a = −0.75</text><rect x="22" y="159" width="60" height="34" rx="8" fill="#F3E5F5" stroke="#7D12BA" stroke-width="2"/><text x="52" y="176" font-family="JetBrains Mono, monospace" font-size="12.5" font-weight="700" fill="#7D12BA" text-anchor="middle" dominant-baseline="central">a</text><rect x="94" y="161" width="30" height="30" rx="6" fill="#E3F2FD" stroke="#2196F3" stroke-width="1.8"/><text x="109" y="176" font-family="JetBrains Mono, monospace" font-size="10.5" font-weight="700" fill="#15181C" text-anchor="middle" dominant-baseline="central">×2</text><line x1="124" y1="176" x2="130" y2="176" stroke="#15181C" stroke-width="2.3"/><path d="M130,176 L122.69528847750153,179.26208362447656 L122.69528847750153,172.73791637552344 Z" fill="#15181C"/><rect x="130" y="161" width="30" height="30" rx="6" fill="#E3F2FD" stroke="#2196F3" stroke-width="1.8"/><text x="145" y="176" font-family="JetBrains Mono, monospace" font-size="10.5" font-weight="700" fill="#15181C" text-anchor="middle" dominant-baseline="central">×2</text><line x1="160" y1="176" x2="166" y2="176" stroke="#15181C" stroke-width="2.3"/><path d="M166,176 L158.69528847750152,179.26208362447656 L158.69528847750152,172.73791637552344 Z" fill="#15181C"/><rect x="166" y="161" width="30" height="30" rx="6" fill="#E3F2FD" stroke="#2196F3" stroke-width="1.8"/><text x="181" y="176" font-family="JetBrains Mono, monospace" font-size="10.5" font-weight="700" fill="#15181C" text-anchor="middle" dominant-baseline="central">×2</text><line x1="196" y1="176" x2="202" y2="176" stroke="#15181C" stroke-width="2.3"/><path d="M202,176 L194.69528847750152,179.26208362447656 L194.69528847750152,172.73791637552344 Z" fill="#15181C"/><rect x="202" y="161" width="30" height="30" rx="6" fill="#E3F2FD" stroke="#2196F3" stroke-width="1.8"/><text x="217" y="176" font-family="JetBrains Mono, monospace" font-size="10.5" font-weight="700" fill="#15181C" text-anchor="middle" dominant-baseline="central">×2</text><line x1="232" y1="176" x2="238" y2="176" stroke="#15181C" stroke-width="2.3"/><path d="M238,176 L230.69528847750152,179.26208362447656 L230.69528847750152,172.73791637552344 Z" fill="#15181C"/><rect x="238" y="161" width="30" height="30" rx="6" fill="#E3F2FD" stroke="#2196F3" stroke-width="1.8"/><text x="253" y="176" font-family="JetBrains Mono, monospace" font-size="10.5" font-weight="700" fill="#15181C" text-anchor="middle" dominant-baseline="central">×2</text><line x1="274" y1="176" x2="286" y2="176" stroke="#15181C" stroke-width="2.3"/><path d="M286,176 L278.69528847750155,179.26208362447656 L278.69528847750155,172.73791637552344 Z" fill="#15181C"/><rect x="290" y="159" width="118" height="34" rx="8" fill="#fff" stroke="#FB8C00" stroke-width="2"/><text x="349" y="176" font-family="JetBrains Mono, monospace" font-size="11" font-weight="700" fill="#FB8C00" text-anchor="middle" dominant-baseline="central">else → 100·b</text><line x1="408" y1="176" x2="422" y2="176" stroke="#15181C" stroke-width="2.3"/><path d="M422,176 L414.69528847750155,179.26208362447656 L414.69528847750155,172.73791637552344 Z" fill="#15181C"/><circle cx="438" cy="176" r="15" fill="#D7EFD8" stroke="#43A047" stroke-width="2"/><text x="438" y="176" font-family="JetBrains Mono, monospace" font-size="14" font-weight="700" fill="#15181C" text-anchor="middle" dominant-baseline="central">c</text><text x="300" y="236" font-family="Source Sans 3, sans-serif" font-size="12" font-weight="600" fill="#6B7280" text-anchor="middle" dominant-baseline="central">different input → different path → autograd records whatever ran</text></svg>
