<?xml version="1.0" encoding="UTF-8"?>
<svg xmlns="http://www.w3.org/2000/svg" viewBox="0 0 470 360" width="470" height="360"><style>@import url('https://fonts.googleapis.com/css2?family=JetBrains+Mono:wght@400;500;700&family=Source+Sans+3:wght@400;500;600;700&display=swap');</style><line x1="60" y1="312" x2="454" y2="312" stroke="#90A4AE" stroke-width="2.3"/><path d="M454,312 L446.69528847750155,315.2620836244766 L446.69528847750155,308.73791637552347 Z" fill="#90A4AE"/><line x1="72" y1="324" x2="72" y2="44" stroke="#90A4AE" stroke-width="2.3"/><path d="M72,44 L75.26208362447656,51.304711522498465 L68.73791637552344,51.304711522498465 Z" fill="#90A4AE"/><text x="454" y="330" font-family="Source Sans 3, sans-serif" font-size="13" font-weight="600" fill="#6B7280" text-anchor="middle" dominant-baseline="central">x</text><text x="60" y="50" font-family="Source Sans 3, sans-serif" font-size="13" font-weight="600" fill="#6B7280" text-anchor="end" dominant-baseline="central">f(x)</text><polyline points="86.4,288.4 91.2,288.1 96.0,287.6 100.8,287.1 105.6,286.5 110.4,285.8 115.2,285.0 120.0,284.2 124.8,283.2 129.6,282.1 134.4,281.0 139.2,279.7 144.0,278.4 148.8,276.9 153.6,275.4 158.4,273.8 163.2,272.0 168.0,270.2 172.8,268.3 177.6,266.3 182.4,264.3 187.2,262.1 192.0,259.8 196.8,257.4 201.6,255.0 206.4,252.4 211.2,249.8 216.0,247.0 220.8,244.2 225.6,241.3 230.4,238.3 235.2,235.2 240.0,232.0 244.8,228.7 249.6,225.3 254.4,221.8 259.2,218.2 264.0,214.6 268.8,210.8 273.6,207.0 278.4,203.0 283.2,199.0 288.0,194.8 292.8,190.6 297.6,186.3 302.4,181.9 307.2,177.4 312.0,172.8 316.8,168.1 321.6,163.3 326.4,158.5 331.2,153.5 336.0,148.4 340.8,143.3 345.6,138.0 350.4,132.7 355.2,127.3 360.0,121.8 364.8,116.1 369.6,110.4 374.4,104.6 379.2,98.7 384.0,92.8" fill="none" stroke="#15181C" stroke-width="2.6"/><line x1="192" y1="259.8" x2="312" y2="259.8" stroke="#FB8C00" stroke-width="2" stroke-dasharray="5 4"/><line x1="312" y1="259.8" x2="312" y2="172.8" stroke="#43A047" stroke-width="2" stroke-dasharray="5 4"/><text x="252" y="277.8" font-family="Source Sans 3, sans-serif" font-size="14" font-weight="700" fill="#FB8C00" text-anchor="middle" dominant-baseline="central">h</text><text x="320" y="216.3" font-family="Source Sans 3, sans-serif" font-size="12.5" font-weight="700" fill="#43A047" text-anchor="start" dominant-baseline="central">f(x+h) − f(x)</text><line x1="120" y1="312" x2="362.4" y2="136.26000000000005" stroke="#2196F3" stroke-width="2.4"/><line x1="102" y1="303.3" x2="300" y2="207.60000000000002" stroke="#7D12BA" stroke-width="2.4"/><circle cx="192" cy="259.8" r="4" fill="#15181C"/><circle cx="312" cy="172.8" r="4" fill="#15181C"/><text x="183" y="264.8" font-family="Source Sans 3, sans-serif" font-size="13" font-weight="700" fill="#15181C" text-anchor="end" dominant-baseline="central">P</text><text x="320" y="166.8" font-family="Source Sans 3, sans-serif" font-size="13" font-weight="700" fill="#15181C" text-anchor="start" dominant-baseline="central">Q</text><text x="360.4" y="127.26000000000005" font-family="Source Sans 3, sans-serif" font-size="12.5" font-weight="700" fill="#2196F3" text-anchor="end" dominant-baseline="central">secant</text><text x="104" y="294.3" font-family="Source Sans 3, sans-serif" font-size="12.5" font-weight="700" fill="#7D12BA" text-anchor="start" dominant-baseline="central">tangent</text><text x="235" y="28" font-family="Source Sans 3, sans-serif" font-size="15" font-weight="700" fill="#15181C" text-anchor="middle" dominant-baseline="central">The derivative is the slope of the tangent</text><text x="235" y="346" font-family="Source Sans 3, sans-serif" font-size="12.5" font-weight="600" fill="#6B7280" text-anchor="middle" dominant-baseline="central">as h → 0, the secant through P, Q becomes the tangent at P</text></svg>
