<?xml version="1.0" encoding="UTF-8"?>
<svg xmlns="http://www.w3.org/2000/svg" viewBox="0 0 464 277" width="464" height="277"><style>@import url('https://fonts.googleapis.com/css2?family=JetBrains+Mono:wght@400;500;700&family=Source+Sans+3:wght@400;500;600;700&display=swap');</style><rect x="126" y="66" width="44" height="44" rx="6" fill="#E3F2FD" stroke="#2196F3" stroke-width="2"/><text x="148" y="88" font-family="JetBrains Mono, monospace" font-size="15" font-weight="600" fill="#15181C" text-anchor="middle" dominant-baseline="central">0</text><rect x="175" y="66" width="44" height="44" rx="6" fill="#E3F2FD" stroke="#2196F3" stroke-width="2"/><text x="197" y="88" font-family="JetBrains Mono, monospace" font-size="15" font-weight="600" fill="#15181C" text-anchor="middle" dominant-baseline="central">1</text><rect x="224" y="66" width="44" height="44" rx="6" fill="#E3F2FD" stroke="#2196F3" stroke-width="2"/><text x="246" y="88" font-family="JetBrains Mono, monospace" font-size="15" font-weight="600" fill="#15181C" text-anchor="middle" dominant-baseline="central">2</text><rect x="126" y="115" width="44" height="44" rx="6" fill="#E3F2FD" stroke="#2196F3" stroke-width="2"/><text x="148" y="137" font-family="JetBrains Mono, monospace" font-size="15" font-weight="600" fill="#15181C" text-anchor="middle" dominant-baseline="central">3</text><rect x="175" y="115" width="44" height="44" rx="6" fill="#E3F2FD" stroke="#2196F3" stroke-width="2"/><text x="197" y="137" font-family="JetBrains Mono, monospace" font-size="15" font-weight="600" fill="#15181C" text-anchor="middle" dominant-baseline="central">4</text><rect x="224" y="115" width="44" height="44" rx="6" fill="#E3F2FD" stroke="#2196F3" stroke-width="2"/><text x="246" y="137" font-family="JetBrains Mono, monospace" font-size="15" font-weight="600" fill="#15181C" text-anchor="middle" dominant-baseline="central">5</text><text x="110" y="112.5" font-family="Source Sans 3, sans-serif" font-size="16" font-weight="700" fill="#6B7280" text-anchor="end" dominant-baseline="central">A</text><line x1="148" y1="163" x2="148" y2="197" stroke="#43A047" stroke-width="2.3"/><path d="M148,197 L144.73791637552344,189.69528847750152 L151.26208362447656,189.69528847750152 Z" fill="#43A047"/><line x1="197" y1="163" x2="197" y2="197" stroke="#43A047" stroke-width="2.3"/><path d="M197,197 L193.73791637552344,189.69528847750152 L200.26208362447656,189.69528847750152 Z" fill="#43A047"/><line x1="246" y1="163" x2="246" y2="197" stroke="#43A047" stroke-width="2.3"/><path d="M246,197 L242.73791637552344,189.69528847750152 L249.26208362447656,189.69528847750152 Z" fill="#43A047"/><rect x="126" y="201" width="44" height="44" rx="6" fill="#D7EFD8" stroke="#43A047" stroke-width="2"/><text x="148" y="223" font-family="JetBrains Mono, monospace" font-size="15" font-weight="600" fill="#15181C" text-anchor="middle" dominant-baseline="central">3</text><rect x="175" y="201" width="44" height="44" rx="6" fill="#D7EFD8" stroke="#43A047" stroke-width="2"/><text x="197" y="223" font-family="JetBrains Mono, monospace" font-size="15" font-weight="600" fill="#15181C" text-anchor="middle" dominant-baseline="central">5</text><rect x="224" y="201" width="44" height="44" rx="6" fill="#D7EFD8" stroke="#43A047" stroke-width="2"/><text x="246" y="223" font-family="JetBrains Mono, monospace" font-size="15" font-weight="600" fill="#15181C" text-anchor="middle" dominant-baseline="central">7</text><text x="197" y="265" font-family="Source Sans 3, sans-serif" font-size="12.5" font-weight="600" fill="#43A047" text-anchor="middle" dominant-baseline="central">axis=0 → shape (3,)  ·  column sums</text><line x1="272" y1="88" x2="310" y2="88" stroke="#FB8C00" stroke-width="2.3"/><path d="M310,88 L302.69528847750155,91.26208362447656 L302.69528847750155,84.73791637552344 Z" fill="#FB8C00"/><line x1="272" y1="137" x2="310" y2="137" stroke="#FB8C00" stroke-width="2.3"/><path d="M310,137 L302.69528847750155,140.26208362447656 L302.69528847750155,133.73791637552344 Z" fill="#FB8C00"/><rect x="314" y="66" width="44" height="44" rx="6" fill="#FFE7C7" stroke="#FB8C00" stroke-width="2"/><text x="336" y="88" font-family="JetBrains Mono, monospace" font-size="15" font-weight="600" fill="#15181C" text-anchor="middle" dominant-baseline="central">3</text><rect x="314" y="115" width="44" height="44" rx="6" fill="#FFE7C7" stroke="#FB8C00" stroke-width="2"/><text x="336" y="137" font-family="JetBrains Mono, monospace" font-size="15" font-weight="600" fill="#15181C" text-anchor="middle" dominant-baseline="central">12</text><text x="370" y="103.5" font-family="Source Sans 3, sans-serif" font-size="12.5" font-weight="600" fill="#FB8C00" text-anchor="start" dominant-baseline="central">axis=1 → (2,)</text><text x="370" y="122.5" font-family="Source Sans 3, sans-serif" font-size="12" font-weight="600" fill="#6B7280" text-anchor="start" dominant-baseline="central">row sums</text></svg>
