<?xml version="1.0" encoding="utf-8" standalone="no"?>
<!DOCTYPE svg PUBLIC "-//W3C//DTD SVG 1.1//EN"
  "http://www.w3.org/Graphics/SVG/1.1/DTD/svg11.dtd">
<svg xmlns:xlink="http://www.w3.org/1999/xlink" width="416.16pt" height="258.336pt" viewBox="0 0 416.16 258.336" xmlns="http://www.w3.org/2000/svg" version="1.1">
 <metadata>
  <rdf:RDF xmlns:dc="http://purl.org/dc/elements/1.1/" xmlns:cc="http://creativecommons.org/ns#" xmlns:rdf="http://www.w3.org/1999/02/22-rdf-syntax-ns#">
   <cc:Work>
    <dc:type rdf:resource="http://purl.org/dc/dcmitype/StillImage"/>
    <dc:format>image/svg+xml</dc:format>
    <dc:creator>
     <cc:Agent>
      <dc:title>Matplotlib v3.10.8, https://matplotlib.org/</dc:title>
     </cc:Agent>
    </dc:creator>
   </cc:Work>
  </rdf:RDF>
 </metadata>
 <defs>
  <style type="text/css">*{stroke-linejoin: round; stroke-linecap: butt}</style>
 </defs>
 <g id="figure_1">
  <g id="patch_1">
   <path d="M 0 258.336 
L 416.16 258.336 
L 416.16 0 
L 0 0 
z
" style="fill: #ffffff"/>
  </g>
  <g id="axes_1">
   <g id="line2d_1">
    <path d="M 87.552 82.092632 
L 328.608 82.092632 
" clip-path="url(#p0a56698a6c)" style="fill: none; stroke: #000000; stroke-width: 1.2; stroke-linecap: square"/>
   </g>
   <g id="line2d_2">
    <path d="M 87.552 206.200421 
L 328.608 206.200421 
" clip-path="url(#p0a56698a6c)" style="fill: none; stroke: #000000; stroke-width: 1.2; stroke-linecap: square"/>
   </g>
   <g id="line2d_3">
    <path d="M 87.552 85.516295 
L 87.552 78.668968 
" clip-path="url(#p0a56698a6c)" style="fill: none; stroke: #000000; stroke-width: 1.2; stroke-linecap: square"/>
   </g>
   <g id="line2d_4">
    <path d="M 328.608 85.516295 
L 328.608 78.668968 
" clip-path="url(#p0a56698a6c)" style="fill: none; stroke: #000000; stroke-width: 1.2; stroke-linecap: square"/>
   </g>
   <g id="FillBetweenPolyCollection_1">
    <defs>
     <path id="mbad9128bf7" d="M 55.4112 -176.42842 
L 55.4112 -176.243368 
L 55.815487 -176.243368 
L 56.219774 -176.243368 
L 56.62406 -176.243368 
L 57.028347 -176.243368 
L 57.432634 -176.243368 
L 57.836921 -176.243368 
L 58.241208 -176.243368 
L 58.645494 -176.243368 
L 59.049781 -176.243368 
L 59.454068 -176.243368 
L 59.858355 -176.243368 
L 60.262642 -176.243368 
L 60.666928 -176.243368 
L 61.071215 -176.243368 
L 61.475502 -176.243368 
L 61.879789 -176.243368 
L 62.284075 -176.243368 
L 62.688362 -176.243368 
L 63.092649 -176.243368 
L 63.496936 -176.243368 
L 63.901223 -176.243368 
L 64.305509 -176.243368 
L 64.709796 -176.243368 
L 65.114083 -176.243368 
L 65.51837 -176.243368 
L 65.922657 -176.243368 
L 66.326943 -176.243368 
L 66.73123 -176.243368 
L 67.135517 -176.243368 
L 67.539804 -176.243368 
L 67.944091 -176.243368 
L 68.348377 -176.243368 
L 68.752664 -176.243368 
L 69.156951 -176.243368 
L 69.561238 -176.243368 
L 69.965525 -176.243368 
L 70.369811 -176.243368 
L 70.774098 -176.243368 
L 71.178385 -176.243368 
L 71.582672 -176.243368 
L 71.986958 -176.243368 
L 72.391245 -176.243368 
L 72.795532 -176.243368 
L 73.199819 -176.243368 
L 73.604106 -176.243368 
L 74.008392 -176.243368 
L 74.412679 -176.243368 
L 74.816966 -176.243368 
L 75.221253 -176.243368 
L 75.62554 -176.243368 
L 76.029826 -176.243368 
L 76.434113 -176.243368 
L 76.8384 -176.243368 
L 77.242687 -176.243368 
L 77.646974 -176.243368 
L 78.05126 -176.243368 
L 78.455547 -176.243368 
L 78.859834 -176.243368 
L 79.264121 -176.243368 
L 79.668408 -176.243368 
L 80.072694 -176.243368 
L 80.476981 -176.243368 
L 80.881268 -176.243368 
L 81.285555 -176.243368 
L 81.689842 -176.243368 
L 82.094128 -176.243368 
L 82.498415 -176.243368 
L 82.902702 -176.243368 
L 83.306989 -176.243368 
L 83.711275 -176.243368 
L 84.115562 -176.243368 
L 84.519849 -176.243368 
L 84.924136 -176.243368 
L 85.328423 -176.243368 
L 85.732709 -176.243368 
L 86.136996 -176.243368 
L 86.541283 -176.243368 
L 86.94557 -176.243368 
L 87.349857 -176.243368 
L 87.754143 -176.243368 
L 88.15843 -176.243368 
L 88.562717 -176.243368 
L 88.967004 -176.243368 
L 89.371291 -176.243368 
L 89.775577 -176.243368 
L 90.179864 -176.243368 
L 90.584151 -176.243368 
L 90.988438 -176.243368 
L 91.392725 -176.243368 
L 91.797011 -176.243368 
L 92.201298 -176.243368 
L 92.605585 -176.243368 
L 93.009872 -176.243368 
L 93.414158 -176.243368 
L 93.818445 -176.243368 
L 94.222732 -176.243368 
L 94.627019 -176.243368 
L 95.031306 -176.243368 
L 95.435592 -176.243368 
L 95.839879 -176.243368 
L 96.244166 -176.243368 
L 96.648453 -176.243368 
L 97.05274 -176.243368 
L 97.457026 -176.243368 
L 97.861313 -176.243368 
L 98.2656 -176.243368 
L 98.669887 -176.243368 
L 99.074174 -176.243368 
L 99.47846 -176.243368 
L 99.882747 -176.243368 
L 100.287034 -176.243368 
L 100.691321 -176.243368 
L 101.095608 -176.243368 
L 101.499894 -176.243368 
L 101.904181 -176.243368 
L 102.308468 -176.243368 
L 102.712755 -176.243368 
L 103.117042 -176.243368 
L 103.521328 -176.243368 
L 103.925615 -176.243368 
L 104.329902 -176.243368 
L 104.734189 -176.243368 
L 105.138475 -176.243368 
L 105.542762 -176.243368 
L 105.947049 -176.243368 
L 106.351336 -176.243368 
L 106.755623 -176.243368 
L 107.159909 -176.243368 
L 107.564196 -176.243368 
L 107.968483 -176.243368 
L 108.37277 -176.243368 
L 108.777057 -176.243368 
L 109.181343 -176.243368 
L 109.58563 -176.243368 
L 109.989917 -176.243368 
L 110.394204 -176.243368 
L 110.798491 -176.243368 
L 111.202777 -176.243368 
L 111.607064 -176.243368 
L 112.011351 -176.243368 
L 112.415638 -176.243368 
L 112.819925 -176.243368 
L 113.224211 -176.243368 
L 113.628498 -176.243368 
L 114.032785 -176.243368 
L 114.437072 -176.243368 
L 114.841358 -176.243368 
L 115.245645 -176.243368 
L 115.649932 -176.243368 
L 116.054219 -176.243368 
L 116.458506 -176.243368 
L 116.862792 -176.243368 
L 117.267079 -176.243368 
L 117.671366 -176.243368 
L 118.075653 -176.243368 
L 118.47994 -176.243368 
L 118.884226 -176.243368 
L 119.288513 -176.243368 
L 119.6928 -176.243368 
L 119.6928 -176.42842 
L 119.6928 -176.42842 
L 119.288513 -176.48394 
L 118.884226 -176.554032 
L 118.47994 -176.641875 
L 118.075653 -176.751149 
L 117.671366 -176.886076 
L 117.267079 -177.051437 
L 116.862792 -177.252574 
L 116.458506 -177.495378 
L 116.054219 -177.786251 
L 115.649932 -178.132032 
L 115.245645 -178.539904 
L 114.841358 -179.017253 
L 114.437072 -179.571501 
L 114.032785 -180.209888 
L 113.628498 -180.939231 
L 113.224211 -181.765642 
L 112.819925 -182.694224 
L 112.415638 -183.728742 
L 112.011351 -184.871295 
L 111.607064 -186.121987 
L 111.202777 -187.47862 
L 110.798491 -188.936424 
L 110.394204 -190.48784 
L 109.989917 -192.122375 
L 109.58563 -193.826536 
L 109.181343 -195.583868 
L 108.777057 -197.375099 
L 108.37277 -199.178395 
L 107.968483 -200.969731 
L 107.564196 -202.723371 
L 107.159909 -204.412445 
L 106.755623 -206.00961 
L 106.351336 -207.487769 
L 105.947049 -208.820826 
L 105.542762 -209.984449 
L 105.138475 -210.956802 
L 104.734189 -211.719232 
L 104.329902 -212.256855 
L 103.925615 -212.559047 
L 103.521328 -212.619789 
L 103.117042 -212.437867 
L 102.712755 -212.016913 
L 102.308468 -211.365282 
L 101.904181 -210.495782 
L 101.499894 -209.425249 
L 101.095608 -208.174007 
L 100.691321 -206.76523 
L 100.287034 -205.224226 
L 99.882747 -203.577688 
L 99.47846 -201.852927 
L 99.074174 -200.077139 
L 98.669887 -198.276704 
L 98.2656 -196.47657 
L 97.861313 -194.69972 
L 97.457026 -192.966749 
L 97.05274 -191.295547 
L 96.648453 -189.701102 
L 96.244166 -188.195411 
L 95.839879 -186.787491 
L 95.435592 -185.483495 
L 95.031306 -184.286889 
L 94.627019 -183.198702 
L 94.222732 -182.21782 
L 93.818445 -181.341305 
L 93.414158 -180.564732 
L 93.009872 -179.882523 
L 92.605585 -179.288268 
L 92.201298 -178.775029 
L 91.797011 -178.335609 
L 91.392725 -177.962799 
L 90.988438 -177.649576 
L 90.584151 -177.389278 
L 90.179864 -177.175744 
L 89.775577 -177.003417 
L 89.371291 -176.867431 
L 88.967004 -176.763663 
L 88.562717 -176.688781 
L 88.15843 -176.640266 
L 87.754143 -176.616431 
L 87.349857 -176.616431 
L 86.94557 -176.640266 
L 86.541283 -176.688781 
L 86.136996 -176.763663 
L 85.732709 -176.867431 
L 85.328423 -177.003417 
L 84.924136 -177.175744 
L 84.519849 -177.389278 
L 84.115562 -177.649576 
L 83.711275 -177.962799 
L 83.306989 -178.335609 
L 82.902702 -178.775029 
L 82.498415 -179.288268 
L 82.094128 -179.882523 
L 81.689842 -180.564732 
L 81.285555 -181.341305 
L 80.881268 -182.21782 
L 80.476981 -183.198702 
L 80.072694 -184.286889 
L 79.668408 -185.483495 
L 79.264121 -186.787491 
L 78.859834 -188.195411 
L 78.455547 -189.701102 
L 78.05126 -191.295547 
L 77.646974 -192.966749 
L 77.242687 -194.69972 
L 76.8384 -196.47657 
L 76.434113 -198.276704 
L 76.029826 -200.077139 
L 75.62554 -201.852927 
L 75.221253 -203.577688 
L 74.816966 -205.224226 
L 74.412679 -206.76523 
L 74.008392 -208.174007 
L 73.604106 -209.425249 
L 73.199819 -210.495782 
L 72.795532 -211.365282 
L 72.391245 -212.016913 
L 71.986958 -212.437867 
L 71.582672 -212.619789 
L 71.178385 -212.559047 
L 70.774098 -212.256855 
L 70.369811 -211.719232 
L 69.965525 -210.956802 
L 69.561238 -209.984449 
L 69.156951 -208.820826 
L 68.752664 -207.487769 
L 68.348377 -206.00961 
L 67.944091 -204.412445 
L 67.539804 -202.723371 
L 67.135517 -200.969731 
L 66.73123 -199.178395 
L 66.326943 -197.375099 
L 65.922657 -195.583868 
L 65.51837 -193.826536 
L 65.114083 -192.122375 
L 64.709796 -190.48784 
L 64.305509 -188.936424 
L 63.901223 -187.47862 
L 63.496936 -186.121987 
L 63.092649 -184.871295 
L 62.688362 -183.728742 
L 62.284075 -182.694224 
L 61.879789 -181.765642 
L 61.475502 -180.939231 
L 61.071215 -180.209888 
L 60.666928 -179.571501 
L 60.262642 -179.017253 
L 59.858355 -178.539904 
L 59.454068 -178.132032 
L 59.049781 -177.786251 
L 58.645494 -177.495378 
L 58.241208 -177.252574 
L 57.836921 -177.051437 
L 57.432634 -176.886076 
L 57.028347 -176.751149 
L 56.62406 -176.641875 
L 56.219774 -176.554032 
L 55.815487 -176.48394 
L 55.4112 -176.42842 
z
" style="stroke: #1f77b4; stroke-opacity: 0.22"/>
    </defs>
    <g clip-path="url(#p0a56698a6c)">
     <use xlink:href="#mbad9128bf7" x="0" y="258.336" style="fill: #1f77b4; fill-opacity: 0.22; stroke: #1f77b4; stroke-opacity: 0.22"/>
    </g>
   </g>
   <g id="FillBetweenPolyCollection_2">
    <defs>
     <path id="m4f4e12ed03" d="M 296.4672 -177.482059 
L 296.4672 -176.243368 
L 296.871487 -176.243368 
L 297.275774 -176.243368 
L 297.68006 -176.243368 
L 298.084347 -176.243368 
L 298.488634 -176.243368 
L 298.892921 -176.243368 
L 299.297208 -176.243368 
L 299.701494 -176.243368 
L 300.105781 -176.243368 
L 300.510068 -176.243368 
L 300.914355 -176.243368 
L 301.318642 -176.243368 
L 301.722928 -176.243368 
L 302.127215 -176.243368 
L 302.531502 -176.243368 
L 302.935789 -176.243368 
L 303.340075 -176.243368 
L 303.744362 -176.243368 
L 304.148649 -176.243368 
L 304.552936 -176.243368 
L 304.957223 -176.243368 
L 305.361509 -176.243368 
L 305.765796 -176.243368 
L 306.170083 -176.243368 
L 306.57437 -176.243368 
L 306.978657 -176.243368 
L 307.382943 -176.243368 
L 307.78723 -176.243368 
L 308.191517 -176.243368 
L 308.595804 -176.243368 
L 309.000091 -176.243368 
L 309.404377 -176.243368 
L 309.808664 -176.243368 
L 310.212951 -176.243368 
L 310.617238 -176.243368 
L 311.021525 -176.243368 
L 311.425811 -176.243368 
L 311.830098 -176.243368 
L 312.234385 -176.243368 
L 312.638672 -176.243368 
L 313.042958 -176.243368 
L 313.447245 -176.243368 
L 313.851532 -176.243368 
L 314.255819 -176.243368 
L 314.660106 -176.243368 
L 315.064392 -176.243368 
L 315.468679 -176.243368 
L 315.872966 -176.243368 
L 316.277253 -176.243368 
L 316.68154 -176.243368 
L 317.085826 -176.243368 
L 317.490113 -176.243368 
L 317.8944 -176.243368 
L 318.298687 -176.243368 
L 318.702974 -176.243368 
L 319.10726 -176.243368 
L 319.511547 -176.243368 
L 319.915834 -176.243368 
L 320.320121 -176.243368 
L 320.724408 -176.243368 
L 321.128694 -176.243368 
L 321.532981 -176.243368 
L 321.937268 -176.243368 
L 322.341555 -176.243368 
L 322.745842 -176.243368 
L 323.150128 -176.243368 
L 323.554415 -176.243368 
L 323.958702 -176.243368 
L 324.362989 -176.243368 
L 324.767275 -176.243368 
L 325.171562 -176.243368 
L 325.575849 -176.243368 
L 325.980136 -176.243368 
L 326.384423 -176.243368 
L 326.788709 -176.243368 
L 327.192996 -176.243368 
L 327.597283 -176.243368 
L 328.00157 -176.243368 
L 328.405857 -176.243368 
L 328.810143 -176.243368 
L 329.21443 -176.243368 
L 329.618717 -176.243368 
L 330.023004 -176.243368 
L 330.427291 -176.243368 
L 330.831577 -176.243368 
L 331.235864 -176.243368 
L 331.640151 -176.243368 
L 332.044438 -176.243368 
L 332.448725 -176.243368 
L 332.853011 -176.243368 
L 333.257298 -176.243368 
L 333.661585 -176.243368 
L 334.065872 -176.243368 
L 334.470158 -176.243368 
L 334.874445 -176.243368 
L 335.278732 -176.243368 
L 335.683019 -176.243368 
L 336.087306 -176.243368 
L 336.491592 -176.243368 
L 336.895879 -176.243368 
L 337.300166 -176.243368 
L 337.704453 -176.243368 
L 338.10874 -176.243368 
L 338.513026 -176.243368 
L 338.917313 -176.243368 
L 339.3216 -176.243368 
L 339.725887 -176.243368 
L 340.130174 -176.243368 
L 340.53446 -176.243368 
L 340.938747 -176.243368 
L 341.343034 -176.243368 
L 341.747321 -176.243368 
L 342.151608 -176.243368 
L 342.555894 -176.243368 
L 342.960181 -176.243368 
L 343.364468 -176.243368 
L 343.768755 -176.243368 
L 344.173042 -176.243368 
L 344.577328 -176.243368 
L 344.981615 -176.243368 
L 345.385902 -176.243368 
L 345.790189 -176.243368 
L 346.194475 -176.243368 
L 346.598762 -176.243368 
L 347.003049 -176.243368 
L 347.407336 -176.243368 
L 347.811623 -176.243368 
L 348.215909 -176.243368 
L 348.620196 -176.243368 
L 349.024483 -176.243368 
L 349.42877 -176.243368 
L 349.833057 -176.243368 
L 350.237343 -176.243368 
L 350.64163 -176.243368 
L 351.045917 -176.243368 
L 351.450204 -176.243368 
L 351.854491 -176.243368 
L 352.258777 -176.243368 
L 352.663064 -176.243368 
L 353.067351 -176.243368 
L 353.471638 -176.243368 
L 353.875925 -176.243368 
L 354.280211 -176.243368 
L 354.684498 -176.243368 
L 355.088785 -176.243368 
L 355.493072 -176.243368 
L 355.897358 -176.243368 
L 356.301645 -176.243368 
L 356.705932 -176.243368 
L 357.110219 -176.243368 
L 357.514506 -176.243368 
L 357.918792 -176.243368 
L 358.323079 -176.243368 
L 358.727366 -176.243368 
L 359.131653 -176.243368 
L 359.53594 -176.243368 
L 359.940226 -176.243368 
L 360.344513 -176.243368 
L 360.7488 -176.243368 
L 360.7488 -177.482059 
L 360.7488 -177.482059 
L 360.344513 -177.591273 
L 359.940226 -177.708549 
L 359.53594 -177.834325 
L 359.131653 -177.969053 
L 358.727366 -178.113188 
L 358.323079 -178.267196 
L 357.918792 -178.431548 
L 357.514506 -178.606717 
L 357.110219 -178.79318 
L 356.705932 -178.991414 
L 356.301645 -179.201894 
L 355.897358 -179.425089 
L 355.493072 -179.661465 
L 355.088785 -179.911477 
L 354.684498 -180.175567 
L 354.280211 -180.454164 
L 353.875925 -180.74768 
L 353.471638 -181.056505 
L 353.067351 -181.381005 
L 352.663064 -181.72152 
L 352.258777 -182.078361 
L 351.854491 -182.451801 
L 351.450204 -182.84208 
L 351.045917 -183.249395 
L 350.64163 -183.673901 
L 350.237343 -184.115704 
L 349.833057 -184.574859 
L 349.42877 -185.051369 
L 349.024483 -185.545178 
L 348.620196 -186.05617 
L 348.215909 -186.584167 
L 347.811623 -187.128925 
L 347.407336 -187.690132 
L 347.003049 -188.267404 
L 346.598762 -188.860287 
L 346.194475 -189.46825 
L 345.790189 -190.090691 
L 345.385902 -190.726928 
L 344.981615 -191.376203 
L 344.577328 -192.037682 
L 344.173042 -192.710453 
L 343.768755 -193.393528 
L 343.364468 -194.085844 
L 342.960181 -194.786263 
L 342.555894 -195.493577 
L 342.151608 -196.206508 
L 341.747321 -196.923711 
L 341.343034 -197.64378 
L 340.938747 -198.365246 
L 340.53446 -199.086589 
L 340.130174 -199.806238 
L 339.725887 -200.522576 
L 339.3216 -201.233948 
L 338.917313 -201.938665 
L 338.513026 -202.635011 
L 338.10874 -203.321252 
L 337.704453 -203.995637 
L 337.300166 -204.656411 
L 336.895879 -205.301821 
L 336.491592 -205.930123 
L 336.087306 -206.539589 
L 335.683019 -207.128515 
L 335.278732 -207.695231 
L 334.874445 -208.238106 
L 334.470158 -208.755559 
L 334.065872 -209.246063 
L 333.661585 -209.708154 
L 333.257298 -210.140441 
L 332.853011 -210.541607 
L 332.448725 -210.910422 
L 332.044438 -211.245746 
L 331.640151 -211.546533 
L 331.235864 -211.811841 
L 330.831577 -212.040835 
L 330.427291 -212.232789 
L 330.023004 -212.387092 
L 329.618717 -212.503254 
L 329.21443 -212.580903 
L 328.810143 -212.619789 
L 328.405857 -212.619789 
L 328.00157 -212.580903 
L 327.597283 -212.503254 
L 327.192996 -212.387092 
L 326.788709 -212.232789 
L 326.384423 -212.040835 
L 325.980136 -211.811841 
L 325.575849 -211.546533 
L 325.171562 -211.245746 
L 324.767275 -210.910422 
L 324.362989 -210.541607 
L 323.958702 -210.140441 
L 323.554415 -209.708154 
L 323.150128 -209.246063 
L 322.745842 -208.755559 
L 322.341555 -208.238106 
L 321.937268 -207.695231 
L 321.532981 -207.128515 
L 321.128694 -206.539589 
L 320.724408 -205.930123 
L 320.320121 -205.301821 
L 319.915834 -204.656411 
L 319.511547 -203.995637 
L 319.10726 -203.321252 
L 318.702974 -202.635011 
L 318.298687 -201.938665 
L 317.8944 -201.233948 
L 317.490113 -200.522576 
L 317.085826 -199.806238 
L 316.68154 -199.086589 
L 316.277253 -198.365246 
L 315.872966 -197.64378 
L 315.468679 -196.923711 
L 315.064392 -196.206508 
L 314.660106 -195.493577 
L 314.255819 -194.786263 
L 313.851532 -194.085844 
L 313.447245 -193.393528 
L 313.042958 -192.710453 
L 312.638672 -192.037682 
L 312.234385 -191.376203 
L 311.830098 -190.726928 
L 311.425811 -190.090691 
L 311.021525 -189.46825 
L 310.617238 -188.860287 
L 310.212951 -188.267404 
L 309.808664 -187.690132 
L 309.404377 -187.128925 
L 309.000091 -186.584167 
L 308.595804 -186.05617 
L 308.191517 -185.545178 
L 307.78723 -185.051369 
L 307.382943 -184.574859 
L 306.978657 -184.115704 
L 306.57437 -183.673901 
L 306.170083 -183.249395 
L 305.765796 -182.84208 
L 305.361509 -182.451801 
L 304.957223 -182.078361 
L 304.552936 -181.72152 
L 304.148649 -181.381005 
L 303.744362 -181.056505 
L 303.340075 -180.74768 
L 302.935789 -180.454164 
L 302.531502 -180.175567 
L 302.127215 -179.911477 
L 301.722928 -179.661465 
L 301.318642 -179.425089 
L 300.914355 -179.201894 
L 300.510068 -178.991414 
L 300.105781 -178.79318 
L 299.701494 -178.606717 
L 299.297208 -178.431548 
L 298.892921 -178.267196 
L 298.488634 -178.113188 
L 298.084347 -177.969053 
L 297.68006 -177.834325 
L 297.275774 -177.708549 
L 296.871487 -177.591273 
L 296.4672 -177.482059 
z
" style="stroke: #ff7f0e; stroke-opacity: 0.22"/>
    </defs>
    <g clip-path="url(#p0a56698a6c)">
     <use xlink:href="#m4f4e12ed03" x="0" y="258.336" style="fill: #ff7f0e; fill-opacity: 0.22; stroke: #ff7f0e; stroke-opacity: 0.22"/>
    </g>
   </g>
   <g id="line2d_5">
    <path d="M 87.552 209.624084 
L 87.552 202.776758 
" clip-path="url(#p0a56698a6c)" style="fill: none; stroke: #000000; stroke-width: 1.2; stroke-linecap: square"/>
   </g>
   <g id="line2d_6">
    <path d="M 328.608 209.624084 
L 328.608 202.776758 
" clip-path="url(#p0a56698a6c)" style="fill: none; stroke: #000000; stroke-width: 1.2; stroke-linecap: square"/>
   </g>
   <g id="FillBetweenPolyCollection_3">
    <defs>
     <path id="mc9ef688db5" d="M 55.4112 -53.374269 
L 55.4112 -52.135579 
L 55.815487 -52.135579 
L 56.219774 -52.135579 
L 56.62406 -52.135579 
L 57.028347 -52.135579 
L 57.432634 -52.135579 
L 57.836921 -52.135579 
L 58.241208 -52.135579 
L 58.645494 -52.135579 
L 59.049781 -52.135579 
L 59.454068 -52.135579 
L 59.858355 -52.135579 
L 60.262642 -52.135579 
L 60.666928 -52.135579 
L 61.071215 -52.135579 
L 61.475502 -52.135579 
L 61.879789 -52.135579 
L 62.284075 -52.135579 
L 62.688362 -52.135579 
L 63.092649 -52.135579 
L 63.496936 -52.135579 
L 63.901223 -52.135579 
L 64.305509 -52.135579 
L 64.709796 -52.135579 
L 65.114083 -52.135579 
L 65.51837 -52.135579 
L 65.922657 -52.135579 
L 66.326943 -52.135579 
L 66.73123 -52.135579 
L 67.135517 -52.135579 
L 67.539804 -52.135579 
L 67.944091 -52.135579 
L 68.348377 -52.135579 
L 68.752664 -52.135579 
L 69.156951 -52.135579 
L 69.561238 -52.135579 
L 69.965525 -52.135579 
L 70.369811 -52.135579 
L 70.774098 -52.135579 
L 71.178385 -52.135579 
L 71.582672 -52.135579 
L 71.986958 -52.135579 
L 72.391245 -52.135579 
L 72.795532 -52.135579 
L 73.199819 -52.135579 
L 73.604106 -52.135579 
L 74.008392 -52.135579 
L 74.412679 -52.135579 
L 74.816966 -52.135579 
L 75.221253 -52.135579 
L 75.62554 -52.135579 
L 76.029826 -52.135579 
L 76.434113 -52.135579 
L 76.8384 -52.135579 
L 77.242687 -52.135579 
L 77.646974 -52.135579 
L 78.05126 -52.135579 
L 78.455547 -52.135579 
L 78.859834 -52.135579 
L 79.264121 -52.135579 
L 79.668408 -52.135579 
L 80.072694 -52.135579 
L 80.476981 -52.135579 
L 80.881268 -52.135579 
L 81.285555 -52.135579 
L 81.689842 -52.135579 
L 82.094128 -52.135579 
L 82.498415 -52.135579 
L 82.902702 -52.135579 
L 83.306989 -52.135579 
L 83.711275 -52.135579 
L 84.115562 -52.135579 
L 84.519849 -52.135579 
L 84.924136 -52.135579 
L 85.328423 -52.135579 
L 85.732709 -52.135579 
L 86.136996 -52.135579 
L 86.541283 -52.135579 
L 86.94557 -52.135579 
L 87.349857 -52.135579 
L 87.754143 -52.135579 
L 88.15843 -52.135579 
L 88.562717 -52.135579 
L 88.967004 -52.135579 
L 89.371291 -52.135579 
L 89.775577 -52.135579 
L 90.179864 -52.135579 
L 90.584151 -52.135579 
L 90.988438 -52.135579 
L 91.392725 -52.135579 
L 91.797011 -52.135579 
L 92.201298 -52.135579 
L 92.605585 -52.135579 
L 93.009872 -52.135579 
L 93.414158 -52.135579 
L 93.818445 -52.135579 
L 94.222732 -52.135579 
L 94.627019 -52.135579 
L 95.031306 -52.135579 
L 95.435592 -52.135579 
L 95.839879 -52.135579 
L 96.244166 -52.135579 
L 96.648453 -52.135579 
L 97.05274 -52.135579 
L 97.457026 -52.135579 
L 97.861313 -52.135579 
L 98.2656 -52.135579 
L 98.669887 -52.135579 
L 99.074174 -52.135579 
L 99.47846 -52.135579 
L 99.882747 -52.135579 
L 100.287034 -52.135579 
L 100.691321 -52.135579 
L 101.095608 -52.135579 
L 101.499894 -52.135579 
L 101.904181 -52.135579 
L 102.308468 -52.135579 
L 102.712755 -52.135579 
L 103.117042 -52.135579 
L 103.521328 -52.135579 
L 103.925615 -52.135579 
L 104.329902 -52.135579 
L 104.734189 -52.135579 
L 105.138475 -52.135579 
L 105.542762 -52.135579 
L 105.947049 -52.135579 
L 106.351336 -52.135579 
L 106.755623 -52.135579 
L 107.159909 -52.135579 
L 107.564196 -52.135579 
L 107.968483 -52.135579 
L 108.37277 -52.135579 
L 108.777057 -52.135579 
L 109.181343 -52.135579 
L 109.58563 -52.135579 
L 109.989917 -52.135579 
L 110.394204 -52.135579 
L 110.798491 -52.135579 
L 111.202777 -52.135579 
L 111.607064 -52.135579 
L 112.011351 -52.135579 
L 112.415638 -52.135579 
L 112.819925 -52.135579 
L 113.224211 -52.135579 
L 113.628498 -52.135579 
L 114.032785 -52.135579 
L 114.437072 -52.135579 
L 114.841358 -52.135579 
L 115.245645 -52.135579 
L 115.649932 -52.135579 
L 116.054219 -52.135579 
L 116.458506 -52.135579 
L 116.862792 -52.135579 
L 117.267079 -52.135579 
L 117.671366 -52.135579 
L 118.075653 -52.135579 
L 118.47994 -52.135579 
L 118.884226 -52.135579 
L 119.288513 -52.135579 
L 119.6928 -52.135579 
L 119.6928 -53.374269 
L 119.6928 -53.374269 
L 119.288513 -53.483483 
L 118.884226 -53.600759 
L 118.47994 -53.726536 
L 118.075653 -53.861263 
L 117.671366 -54.005399 
L 117.267079 -54.159407 
L 116.862792 -54.323759 
L 116.458506 -54.498928 
L 116.054219 -54.685391 
L 115.649932 -54.883625 
L 115.245645 -55.094104 
L 114.841358 -55.3173 
L 114.437072 -55.553676 
L 114.032785 -55.803687 
L 113.628498 -56.067777 
L 113.224211 -56.346375 
L 112.819925 -56.639891 
L 112.415638 -56.948715 
L 112.011351 -57.273215 
L 111.607064 -57.613731 
L 111.202777 -57.970571 
L 110.798491 -58.344011 
L 110.394204 -58.73429 
L 109.989917 -59.141606 
L 109.58563 -59.566112 
L 109.181343 -60.007914 
L 108.777057 -60.46707 
L 108.37277 -60.943579 
L 107.968483 -61.437388 
L 107.564196 -61.94838 
L 107.159909 -62.476378 
L 106.755623 -63.021136 
L 106.351336 -63.582343 
L 105.947049 -64.159615 
L 105.542762 -64.752497 
L 105.138475 -65.360461 
L 104.734189 -65.982902 
L 104.329902 -66.619138 
L 103.925615 -67.268414 
L 103.521328 -67.929893 
L 103.117042 -68.602664 
L 102.712755 -69.285739 
L 102.308468 -69.978054 
L 101.904181 -70.678474 
L 101.499894 -71.385788 
L 101.095608 -72.098719 
L 100.691321 -72.815922 
L 100.287034 -73.53599 
L 99.882747 -74.257456 
L 99.47846 -74.9788 
L 99.074174 -75.698448 
L 98.669887 -76.414787 
L 98.2656 -77.126158 
L 97.861313 -77.830875 
L 97.457026 -78.527222 
L 97.05274 -79.213462 
L 96.648453 -79.887847 
L 96.244166 -80.548622 
L 95.839879 -81.194032 
L 95.435592 -81.822334 
L 95.031306 -82.431799 
L 94.627019 -83.020725 
L 94.222732 -83.587441 
L 93.818445 -84.130317 
L 93.414158 -84.647769 
L 93.009872 -85.138273 
L 92.605585 -85.600365 
L 92.201298 -86.032651 
L 91.797011 -86.433818 
L 91.392725 -86.802633 
L 90.988438 -87.137956 
L 90.584151 -87.438744 
L 90.179864 -87.704052 
L 89.775577 -87.933045 
L 89.371291 -88.124999 
L 88.967004 -88.279303 
L 88.562717 -88.395465 
L 88.15843 -88.473113 
L 87.754143 -88.512 
L 87.349857 -88.512 
L 86.94557 -88.473113 
L 86.541283 -88.395465 
L 86.136996 -88.279303 
L 85.732709 -88.124999 
L 85.328423 -87.933045 
L 84.924136 -87.704052 
L 84.519849 -87.438744 
L 84.115562 -87.137956 
L 83.711275 -86.802633 
L 83.306989 -86.433818 
L 82.902702 -86.032651 
L 82.498415 -85.600365 
L 82.094128 -85.138273 
L 81.689842 -84.647769 
L 81.285555 -84.130317 
L 80.881268 -83.587441 
L 80.476981 -83.020725 
L 80.072694 -82.431799 
L 79.668408 -81.822334 
L 79.264121 -81.194032 
L 78.859834 -80.548622 
L 78.455547 -79.887847 
L 78.05126 -79.213462 
L 77.646974 -78.527222 
L 77.242687 -77.830875 
L 76.8384 -77.126158 
L 76.434113 -76.414787 
L 76.029826 -75.698448 
L 75.62554 -74.9788 
L 75.221253 -74.257456 
L 74.816966 -73.53599 
L 74.412679 -72.815922 
L 74.008392 -72.098719 
L 73.604106 -71.385788 
L 73.199819 -70.678474 
L 72.795532 -69.978054 
L 72.391245 -69.285739 
L 71.986958 -68.602664 
L 71.582672 -67.929893 
L 71.178385 -67.268414 
L 70.774098 -66.619138 
L 70.369811 -65.982902 
L 69.965525 -65.360461 
L 69.561238 -64.752497 
L 69.156951 -64.159615 
L 68.752664 -63.582343 
L 68.348377 -63.021136 
L 67.944091 -62.476378 
L 67.539804 -61.94838 
L 67.135517 -61.437388 
L 66.73123 -60.943579 
L 66.326943 -60.46707 
L 65.922657 -60.007914 
L 65.51837 -59.566112 
L 65.114083 -59.141606 
L 64.709796 -58.73429 
L 64.305509 -58.344011 
L 63.901223 -57.970571 
L 63.496936 -57.613731 
L 63.092649 -57.273215 
L 62.688362 -56.948715 
L 62.284075 -56.639891 
L 61.879789 -56.346375 
L 61.475502 -56.067777 
L 61.071215 -55.803687 
L 60.666928 -55.553676 
L 60.262642 -55.3173 
L 59.858355 -55.094104 
L 59.454068 -54.883625 
L 59.049781 -54.685391 
L 58.645494 -54.498928 
L 58.241208 -54.323759 
L 57.836921 -54.159407 
L 57.432634 -54.005399 
L 57.028347 -53.861263 
L 56.62406 -53.726536 
L 56.219774 -53.600759 
L 55.815487 -53.483483 
L 55.4112 -53.374269 
z
" style="stroke: #ff7f0e; stroke-opacity: 0.22"/>
    </defs>
    <g clip-path="url(#p0a56698a6c)">
     <use xlink:href="#mc9ef688db5" x="0" y="258.336" style="fill: #ff7f0e; fill-opacity: 0.22; stroke: #ff7f0e; stroke-opacity: 0.22"/>
    </g>
   </g>
   <g id="FillBetweenPolyCollection_4">
    <defs>
     <path id="mabf2bd1610" d="M 296.4672 -52.320631 
L 296.4672 -52.135579 
L 296.871487 -52.135579 
L 297.275774 -52.135579 
L 297.68006 -52.135579 
L 298.084347 -52.135579 
L 298.488634 -52.135579 
L 298.892921 -52.135579 
L 299.297208 -52.135579 
L 299.701494 -52.135579 
L 300.105781 -52.135579 
L 300.510068 -52.135579 
L 300.914355 -52.135579 
L 301.318642 -52.135579 
L 301.722928 -52.135579 
L 302.127215 -52.135579 
L 302.531502 -52.135579 
L 302.935789 -52.135579 
L 303.340075 -52.135579 
L 303.744362 -52.135579 
L 304.148649 -52.135579 
L 304.552936 -52.135579 
L 304.957223 -52.135579 
L 305.361509 -52.135579 
L 305.765796 -52.135579 
L 306.170083 -52.135579 
L 306.57437 -52.135579 
L 306.978657 -52.135579 
L 307.382943 -52.135579 
L 307.78723 -52.135579 
L 308.191517 -52.135579 
L 308.595804 -52.135579 
L 309.000091 -52.135579 
L 309.404377 -52.135579 
L 309.808664 -52.135579 
L 310.212951 -52.135579 
L 310.617238 -52.135579 
L 311.021525 -52.135579 
L 311.425811 -52.135579 
L 311.830098 -52.135579 
L 312.234385 -52.135579 
L 312.638672 -52.135579 
L 313.042958 -52.135579 
L 313.447245 -52.135579 
L 313.851532 -52.135579 
L 314.255819 -52.135579 
L 314.660106 -52.135579 
L 315.064392 -52.135579 
L 315.468679 -52.135579 
L 315.872966 -52.135579 
L 316.277253 -52.135579 
L 316.68154 -52.135579 
L 317.085826 -52.135579 
L 317.490113 -52.135579 
L 317.8944 -52.135579 
L 318.298687 -52.135579 
L 318.702974 -52.135579 
L 319.10726 -52.135579 
L 319.511547 -52.135579 
L 319.915834 -52.135579 
L 320.320121 -52.135579 
L 320.724408 -52.135579 
L 321.128694 -52.135579 
L 321.532981 -52.135579 
L 321.937268 -52.135579 
L 322.341555 -52.135579 
L 322.745842 -52.135579 
L 323.150128 -52.135579 
L 323.554415 -52.135579 
L 323.958702 -52.135579 
L 324.362989 -52.135579 
L 324.767275 -52.135579 
L 325.171562 -52.135579 
L 325.575849 -52.135579 
L 325.980136 -52.135579 
L 326.384423 -52.135579 
L 326.788709 -52.135579 
L 327.192996 -52.135579 
L 327.597283 -52.135579 
L 328.00157 -52.135579 
L 328.405857 -52.135579 
L 328.810143 -52.135579 
L 329.21443 -52.135579 
L 329.618717 -52.135579 
L 330.023004 -52.135579 
L 330.427291 -52.135579 
L 330.831577 -52.135579 
L 331.235864 -52.135579 
L 331.640151 -52.135579 
L 332.044438 -52.135579 
L 332.448725 -52.135579 
L 332.853011 -52.135579 
L 333.257298 -52.135579 
L 333.661585 -52.135579 
L 334.065872 -52.135579 
L 334.470158 -52.135579 
L 334.874445 -52.135579 
L 335.278732 -52.135579 
L 335.683019 -52.135579 
L 336.087306 -52.135579 
L 336.491592 -52.135579 
L 336.895879 -52.135579 
L 337.300166 -52.135579 
L 337.704453 -52.135579 
L 338.10874 -52.135579 
L 338.513026 -52.135579 
L 338.917313 -52.135579 
L 339.3216 -52.135579 
L 339.725887 -52.135579 
L 340.130174 -52.135579 
L 340.53446 -52.135579 
L 340.938747 -52.135579 
L 341.343034 -52.135579 
L 341.747321 -52.135579 
L 342.151608 -52.135579 
L 342.555894 -52.135579 
L 342.960181 -52.135579 
L 343.364468 -52.135579 
L 343.768755 -52.135579 
L 344.173042 -52.135579 
L 344.577328 -52.135579 
L 344.981615 -52.135579 
L 345.385902 -52.135579 
L 345.790189 -52.135579 
L 346.194475 -52.135579 
L 346.598762 -52.135579 
L 347.003049 -52.135579 
L 347.407336 -52.135579 
L 347.811623 -52.135579 
L 348.215909 -52.135579 
L 348.620196 -52.135579 
L 349.024483 -52.135579 
L 349.42877 -52.135579 
L 349.833057 -52.135579 
L 350.237343 -52.135579 
L 350.64163 -52.135579 
L 351.045917 -52.135579 
L 351.450204 -52.135579 
L 351.854491 -52.135579 
L 352.258777 -52.135579 
L 352.663064 -52.135579 
L 353.067351 -52.135579 
L 353.471638 -52.135579 
L 353.875925 -52.135579 
L 354.280211 -52.135579 
L 354.684498 -52.135579 
L 355.088785 -52.135579 
L 355.493072 -52.135579 
L 355.897358 -52.135579 
L 356.301645 -52.135579 
L 356.705932 -52.135579 
L 357.110219 -52.135579 
L 357.514506 -52.135579 
L 357.918792 -52.135579 
L 358.323079 -52.135579 
L 358.727366 -52.135579 
L 359.131653 -52.135579 
L 359.53594 -52.135579 
L 359.940226 -52.135579 
L 360.344513 -52.135579 
L 360.7488 -52.135579 
L 360.7488 -52.320631 
L 360.7488 -52.320631 
L 360.344513 -52.37615 
L 359.940226 -52.446243 
L 359.53594 -52.534085 
L 359.131653 -52.643359 
L 358.727366 -52.778287 
L 358.323079 -52.943648 
L 357.918792 -53.144785 
L 357.514506 -53.387589 
L 357.110219 -53.678461 
L 356.705932 -54.024242 
L 356.301645 -54.432114 
L 355.897358 -54.909464 
L 355.493072 -55.463712 
L 355.088785 -56.102098 
L 354.684498 -56.831441 
L 354.280211 -57.657853 
L 353.875925 -58.586434 
L 353.471638 -59.620952 
L 353.067351 -60.763505 
L 352.663064 -62.014197 
L 352.258777 -63.37083 
L 351.854491 -64.828634 
L 351.450204 -66.380051 
L 351.045917 -68.014585 
L 350.64163 -69.718746 
L 350.237343 -71.476078 
L 349.833057 -73.26731 
L 349.42877 -75.070606 
L 349.024483 -76.861942 
L 348.620196 -78.615582 
L 348.215909 -80.304656 
L 347.811623 -81.901821 
L 347.407336 -83.379979 
L 347.003049 -84.713037 
L 346.598762 -85.876659 
L 346.194475 -86.849013 
L 345.790189 -87.611442 
L 345.385902 -88.149066 
L 344.981615 -88.451258 
L 344.577328 -88.512 
L 344.173042 -88.330078 
L 343.768755 -87.909123 
L 343.364468 -87.257493 
L 342.960181 -86.387993 
L 342.555894 -85.317459 
L 342.151608 -84.066217 
L 341.747321 -82.65744 
L 341.343034 -81.116437 
L 340.938747 -79.469898 
L 340.53446 -77.745138 
L 340.130174 -75.96935 
L 339.725887 -74.168915 
L 339.3216 -72.368781 
L 338.917313 -70.591931 
L 338.513026 -68.85896 
L 338.10874 -67.187758 
L 337.704453 -65.593313 
L 337.300166 -64.087621 
L 336.895879 -62.679702 
L 336.491592 -61.375706 
L 336.087306 -60.1791 
L 335.683019 -59.090913 
L 335.278732 -58.11003 
L 334.874445 -57.233515 
L 334.470158 -56.456943 
L 334.065872 -55.774733 
L 333.661585 -55.180478 
L 333.257298 -54.667239 
L 332.853011 -54.22782 
L 332.448725 -53.85501 
L 332.044438 -53.541786 
L 331.640151 -53.281489 
L 331.235864 -53.067954 
L 330.831577 -52.895628 
L 330.427291 -52.759641 
L 330.023004 -52.655874 
L 329.618717 -52.580992 
L 329.21443 -52.532477 
L 328.810143 -52.508642 
L 328.405857 -52.508642 
L 328.00157 -52.532477 
L 327.597283 -52.580992 
L 327.192996 -52.655874 
L 326.788709 -52.759641 
L 326.384423 -52.895628 
L 325.980136 -53.067954 
L 325.575849 -53.281489 
L 325.171562 -53.541786 
L 324.767275 -53.85501 
L 324.362989 -54.22782 
L 323.958702 -54.667239 
L 323.554415 -55.180478 
L 323.150128 -55.774733 
L 322.745842 -56.456943 
L 322.341555 -57.233515 
L 321.937268 -58.11003 
L 321.532981 -59.090913 
L 321.128694 -60.1791 
L 320.724408 -61.375706 
L 320.320121 -62.679702 
L 319.915834 -64.087621 
L 319.511547 -65.593313 
L 319.10726 -67.187758 
L 318.702974 -68.85896 
L 318.298687 -70.591931 
L 317.8944 -72.368781 
L 317.490113 -74.168915 
L 317.085826 -75.96935 
L 316.68154 -77.745138 
L 316.277253 -79.469898 
L 315.872966 -81.116437 
L 315.468679 -82.65744 
L 315.064392 -84.066217 
L 314.660106 -85.317459 
L 314.255819 -86.387993 
L 313.851532 -87.257493 
L 313.447245 -87.909123 
L 313.042958 -88.330078 
L 312.638672 -88.512 
L 312.234385 -88.451258 
L 311.830098 -88.149066 
L 311.425811 -87.611442 
L 311.021525 -86.849013 
L 310.617238 -85.876659 
L 310.212951 -84.713037 
L 309.808664 -83.379979 
L 309.404377 -81.901821 
L 309.000091 -80.304656 
L 308.595804 -78.615582 
L 308.191517 -76.861942 
L 307.78723 -75.070606 
L 307.382943 -73.26731 
L 306.978657 -71.476078 
L 306.57437 -69.718746 
L 306.170083 -68.014585 
L 305.765796 -66.380051 
L 305.361509 -64.828634 
L 304.957223 -63.37083 
L 304.552936 -62.014197 
L 304.148649 -60.763505 
L 303.744362 -59.620952 
L 303.340075 -58.586434 
L 302.935789 -57.657853 
L 302.531502 -56.831441 
L 302.127215 -56.102098 
L 301.722928 -55.463712 
L 301.318642 -54.909464 
L 300.914355 -54.432114 
L 300.510068 -54.024242 
L 300.105781 -53.678461 
L 299.701494 -53.387589 
L 299.297208 -53.144785 
L 298.892921 -52.943648 
L 298.488634 -52.778287 
L 298.084347 -52.643359 
L 297.68006 -52.534085 
L 297.275774 -52.446243 
L 296.871487 -52.37615 
L 296.4672 -52.320631 
z
" style="stroke: #1f77b4; stroke-opacity: 0.22"/>
    </defs>
    <g clip-path="url(#p0a56698a6c)">
     <use xlink:href="#mabf2bd1610" x="0" y="258.336" style="fill: #1f77b4; fill-opacity: 0.22; stroke: #1f77b4; stroke-opacity: 0.22"/>
    </g>
   </g>
   <g id="text_1">
    <!-- $0$ -->
    <g transform="translate(85.052 99.106143) scale(0.1 -0.1)">
     <defs>
      <path id="Cmr10-30" d="M 1600 -141 
Q 816 -141 533 504 
Q 250 1150 250 2041 
Q 250 2597 351 3087 
Q 453 3578 754 3920 
Q 1056 4263 1600 4263 
Q 2022 4263 2290 4056 
Q 2559 3850 2700 3523 
Q 2841 3197 2892 2823 
Q 2944 2450 2944 2041 
Q 2944 1491 2842 1011 
Q 2741 531 2444 195 
Q 2147 -141 1600 -141 
z
M 1600 25 
Q 1956 25 2131 390 
Q 2306 756 2347 1200 
Q 2388 1644 2388 2144 
Q 2388 2625 2347 3031 
Q 2306 3438 2132 3767 
Q 1959 4097 1600 4097 
Q 1238 4097 1063 3765 
Q 888 3434 847 3029 
Q 806 2625 806 2144 
Q 806 1788 823 1472 
Q 841 1156 916 820 
Q 991 484 1158 254 
Q 1325 25 1600 25 
z
" transform="scale(0.015625)"/>
     </defs>
     <use xlink:href="#Cmr10-30" transform="translate(0 0.390625)"/>
    </g>
   </g>
   <g id="text_2">
    <!-- $T$ -->
    <g transform="translate(325.658 99.106143) scale(0.1 -0.1)">
     <defs>
      <path id="Cmmi10-54" d="M 294 84 
Q 297 100 308 140 
Q 319 181 336 203 
Q 353 225 384 225 
Q 934 225 1113 256 
Q 1284 300 1319 441 
L 2194 3956 
Q 2222 4034 2222 4097 
Q 2222 4147 1997 4147 
L 1625 4147 
Q 1197 4147 964 4015 
Q 731 3884 622 3668 
Q 513 3453 341 2963 
Q 319 2906 275 2906 
L 219 2906 
Q 153 2906 153 2988 
L 609 4313 
Q 622 4372 672 4372 
L 4453 4372 
Q 4519 4372 4519 4288 
L 4306 2963 
Q 4306 2944 4284 2925 
Q 4263 2906 4244 2906 
L 4184 2906 
Q 4122 2906 4122 2988 
Q 4191 3441 4191 3628 
Q 4191 3853 4097 3968 
Q 4003 4084 3853 4115 
Q 3703 4147 3463 4147 
L 3084 4147 
Q 2913 4147 2853 4115 
Q 2794 4084 2753 3928 
L 1875 416 
Q 1872 403 1870 390 
Q 1869 378 1863 359 
Q 1863 278 1959 256 
Q 2125 225 2669 225 
Q 2731 225 2731 141 
Q 2709 50 2696 25 
Q 2684 0 2625 0 
L 359 0 
Q 294 0 294 84 
z
" transform="scale(0.015625)"/>
     </defs>
     <use xlink:href="#Cmmi10-54" transform="translate(0 0.6875)"/>
    </g>
   </g>
   <g id="line2d_7">
    <path d="M 55.4112 81.90758 
L 57.028347 81.584851 
L 58.241208 81.083426 
L 59.049781 80.549749 
L 59.858355 79.796096 
L 60.666928 78.764499 
L 61.475502 77.396769 
L 62.284075 75.641776 
L 63.092649 73.464705 
L 64.305509 69.399576 
L 65.51837 64.509464 
L 68.752664 50.848231 
L 69.561238 48.351551 
L 70.369811 46.616768 
L 70.774098 46.079145 
L 71.178385 45.776953 
L 71.582672 45.716211 
L 71.986958 45.898133 
L 72.391245 46.319087 
L 72.795532 46.970718 
L 73.604106 48.910751 
L 74.412679 51.57077 
L 75.62554 56.483073 
L 78.455547 68.634898 
L 79.668408 72.852505 
L 80.881268 76.11818 
L 81.689842 77.771268 
L 82.498415 79.047732 
L 83.306989 80.000391 
L 84.115562 80.686424 
L 84.924136 81.160256 
L 86.136996 81.572337 
L 87.349857 81.719569 
L 88.562717 81.647219 
L 89.775577 81.332583 
L 90.584151 80.946722 
L 91.392725 80.373201 
L 92.201298 79.560971 
L 93.009872 78.453477 
L 93.818445 76.994695 
L 94.627019 75.137298 
L 95.435592 72.852505 
L 96.648453 68.634898 
L 98.2656 61.85943 
L 100.287034 53.111774 
L 101.499894 48.910751 
L 102.308468 46.970718 
L 102.712755 46.319087 
L 103.117042 45.898133 
L 103.521328 45.716211 
L 103.925615 45.776953 
L 104.329902 46.079145 
L 104.734189 46.616768 
L 105.542762 48.351551 
L 106.351336 50.848231 
L 107.564196 55.612629 
L 110.798491 69.399576 
L 112.011351 73.464705 
L 113.224211 76.570358 
L 114.032785 78.126112 
L 114.841358 79.318747 
L 115.649932 80.203968 
L 116.458506 80.840622 
L 117.671366 81.449924 
L 118.884226 81.781968 
L 119.6928 81.90758 
L 119.6928 81.90758 
" clip-path="url(#p0a56698a6c)" style="fill: none; stroke: #1f77b4; stroke-width: 1.8; stroke-linecap: square"/>
   </g>
   <g id="line2d_8">
    <path d="M 296.4672 80.853941 
L 298.488634 80.222812 
L 300.510068 79.344586 
L 302.127215 78.424523 
L 303.744362 77.279495 
L 305.361509 75.884199 
L 306.978657 74.220296 
L 308.595804 72.27983 
L 310.617238 69.475713 
L 312.638672 66.298318 
L 315.468679 61.412289 
L 319.915834 53.679589 
L 321.937268 50.640769 
L 323.554415 48.627846 
L 324.767275 47.425578 
L 325.980136 46.524159 
L 327.192996 45.948908 
L 328.00157 45.755097 
L 328.810143 45.716211 
L 329.618717 45.832746 
L 330.831577 46.295165 
L 332.044438 47.090254 
L 333.257298 48.195559 
L 334.470158 49.580441 
L 336.087306 51.796411 
L 338.10874 55.014748 
L 341.343034 60.69222 
L 344.981615 66.959797 
L 347.407336 70.645868 
L 349.42877 73.284631 
L 351.045917 75.086605 
L 352.663064 76.61448 
L 354.280211 77.881836 
L 355.897358 78.910911 
L 357.918792 79.904452 
L 359.940226 80.627451 
L 360.7488 80.853941 
L 360.7488 80.853941 
" clip-path="url(#p0a56698a6c)" style="fill: none; stroke: #ff7f0e; stroke-width: 1.8; stroke-linecap: square"/>
   </g>
   <g id="text_3">
    <!-- data -->
    <g style="fill: #1f77b4" transform="translate(27.98605 65.455933) scale(0.095 -0.095)">
     <defs>
      <path id="DejaVuSans-64" d="M 2906 2969 
L 2906 4863 
L 3481 4863 
L 3481 0 
L 2906 0 
L 2906 525 
Q 2725 213 2448 61 
Q 2172 -91 1784 -91 
Q 1150 -91 751 415 
Q 353 922 353 1747 
Q 353 2572 751 3078 
Q 1150 3584 1784 3584 
Q 2172 3584 2448 3432 
Q 2725 3281 2906 2969 
z
M 947 1747 
Q 947 1113 1208 752 
Q 1469 391 1925 391 
Q 2381 391 2643 752 
Q 2906 1113 2906 1747 
Q 2906 2381 2643 2742 
Q 2381 3103 1925 3103 
Q 1469 3103 1208 2742 
Q 947 2381 947 1747 
z
" transform="scale(0.015625)"/>
      <path id="DejaVuSans-61" d="M 2194 1759 
Q 1497 1759 1228 1600 
Q 959 1441 959 1056 
Q 959 750 1161 570 
Q 1363 391 1709 391 
Q 2188 391 2477 730 
Q 2766 1069 2766 1631 
L 2766 1759 
L 2194 1759 
z
M 3341 1997 
L 3341 0 
L 2766 0 
L 2766 531 
Q 2569 213 2275 61 
Q 1981 -91 1556 -91 
Q 1019 -91 701 211 
Q 384 513 384 1019 
Q 384 1609 779 1909 
Q 1175 2209 1959 2209 
L 2766 2209 
L 2766 2266 
Q 2766 2663 2505 2880 
Q 2244 3097 1772 3097 
Q 1472 3097 1187 3025 
Q 903 2953 641 2809 
L 641 3341 
Q 956 3463 1253 3523 
Q 1550 3584 1831 3584 
Q 2591 3584 2966 3190 
Q 3341 2797 3341 1997 
z
" transform="scale(0.015625)"/>
      <path id="DejaVuSans-74" d="M 1172 4494 
L 1172 3500 
L 2356 3500 
L 2356 3053 
L 1172 3053 
L 1172 1153 
Q 1172 725 1289 603 
Q 1406 481 1766 481 
L 2356 481 
L 2356 0 
L 1766 0 
Q 1100 0 847 248 
Q 594 497 594 1153 
L 594 3053 
L 172 3053 
L 172 3500 
L 594 3500 
L 594 4494 
L 1172 4494 
z
" transform="scale(0.015625)"/>
     </defs>
     <use xlink:href="#DejaVuSans-64"/>
     <use xlink:href="#DejaVuSans-61" transform="translate(63.476562 0)"/>
     <use xlink:href="#DejaVuSans-74" transform="translate(124.755859 0)"/>
     <use xlink:href="#DejaVuSans-61" transform="translate(163.964844 0)"/>
    </g>
   </g>
   <g id="text_4">
    <!-- noise -->
    <g style="fill: #ff7f0e" transform="translate(366.7752 65.455933) scale(0.095 -0.095)">
     <defs>
      <path id="DejaVuSans-6e" d="M 3513 2113 
L 3513 0 
L 2938 0 
L 2938 2094 
Q 2938 2591 2744 2837 
Q 2550 3084 2163 3084 
Q 1697 3084 1428 2787 
Q 1159 2491 1159 1978 
L 1159 0 
L 581 0 
L 581 3500 
L 1159 3500 
L 1159 2956 
Q 1366 3272 1645 3428 
Q 1925 3584 2291 3584 
Q 2894 3584 3203 3211 
Q 3513 2838 3513 2113 
z
" transform="scale(0.015625)"/>
      <path id="DejaVuSans-6f" d="M 1959 3097 
Q 1497 3097 1228 2736 
Q 959 2375 959 1747 
Q 959 1119 1226 758 
Q 1494 397 1959 397 
Q 2419 397 2687 759 
Q 2956 1122 2956 1747 
Q 2956 2369 2687 2733 
Q 2419 3097 1959 3097 
z
M 1959 3584 
Q 2709 3584 3137 3096 
Q 3566 2609 3566 1747 
Q 3566 888 3137 398 
Q 2709 -91 1959 -91 
Q 1206 -91 779 398 
Q 353 888 353 1747 
Q 353 2609 779 3096 
Q 1206 3584 1959 3584 
z
" transform="scale(0.015625)"/>
      <path id="DejaVuSans-69" d="M 603 3500 
L 1178 3500 
L 1178 0 
L 603 0 
L 603 3500 
z
M 603 4863 
L 1178 4863 
L 1178 4134 
L 603 4134 
L 603 4863 
z
" transform="scale(0.015625)"/>
      <path id="DejaVuSans-73" d="M 2834 3397 
L 2834 2853 
Q 2591 2978 2328 3040 
Q 2066 3103 1784 3103 
Q 1356 3103 1142 2972 
Q 928 2841 928 2578 
Q 928 2378 1081 2264 
Q 1234 2150 1697 2047 
L 1894 2003 
Q 2506 1872 2764 1633 
Q 3022 1394 3022 966 
Q 3022 478 2636 193 
Q 2250 -91 1575 -91 
Q 1294 -91 989 -36 
Q 684 19 347 128 
L 347 722 
Q 666 556 975 473 
Q 1284 391 1588 391 
Q 1994 391 2212 530 
Q 2431 669 2431 922 
Q 2431 1156 2273 1281 
Q 2116 1406 1581 1522 
L 1381 1569 
Q 847 1681 609 1914 
Q 372 2147 372 2553 
Q 372 3047 722 3315 
Q 1072 3584 1716 3584 
Q 2034 3584 2315 3537 
Q 2597 3491 2834 3397 
z
" transform="scale(0.015625)"/>
      <path id="DejaVuSans-65" d="M 3597 1894 
L 3597 1613 
L 953 1613 
Q 991 1019 1311 708 
Q 1631 397 2203 397 
Q 2534 397 2845 478 
Q 3156 559 3463 722 
L 3463 178 
Q 3153 47 2828 -22 
Q 2503 -91 2169 -91 
Q 1331 -91 842 396 
Q 353 884 353 1716 
Q 353 2575 817 3079 
Q 1281 3584 2069 3584 
Q 2775 3584 3186 3129 
Q 3597 2675 3597 1894 
z
M 3022 2063 
Q 3016 2534 2758 2815 
Q 2500 3097 2075 3097 
Q 1594 3097 1305 2825 
Q 1016 2553 972 2059 
L 3022 2063 
z
" transform="scale(0.015625)"/>
     </defs>
     <use xlink:href="#DejaVuSans-6e"/>
     <use xlink:href="#DejaVuSans-6f" transform="translate(63.378906 0)"/>
     <use xlink:href="#DejaVuSans-69" transform="translate(124.560547 0)"/>
     <use xlink:href="#DejaVuSans-73" transform="translate(152.34375 0)"/>
     <use xlink:href="#DejaVuSans-65" transform="translate(204.443359 0)"/>
    </g>
   </g>
   <g id="patch_2">
    <path d="M 139.7808 37.157053 
Q 208.08 37.157053 274.590346 37.157053 
" style="fill: none; stroke: #7f7f7f; stroke-width: 1.6; stroke-linecap: round"/>
    <path d="M 269.790346 34.757053 
L 274.590346 37.157053 
L 269.790346 39.557053 
" style="fill: none; stroke: #7f7f7f; stroke-width: 1.6; stroke-linecap: round"/>
   </g>
   <g id="text_5">
    <!-- training: noise the data -->
    <g style="fill: #7f7f7f" transform="translate(155.35125 28.01005) scale(0.09 -0.09)">
     <defs>
      <path id="DejaVuSans-72" d="M 2631 2963 
Q 2534 3019 2420 3045 
Q 2306 3072 2169 3072 
Q 1681 3072 1420 2755 
Q 1159 2438 1159 1844 
L 1159 0 
L 581 0 
L 581 3500 
L 1159 3500 
L 1159 2956 
Q 1341 3275 1631 3429 
Q 1922 3584 2338 3584 
Q 2397 3584 2469 3576 
Q 2541 3569 2628 3553 
L 2631 2963 
z
" transform="scale(0.015625)"/>
      <path id="DejaVuSans-67" d="M 2906 1791 
Q 2906 2416 2648 2759 
Q 2391 3103 1925 3103 
Q 1463 3103 1205 2759 
Q 947 2416 947 1791 
Q 947 1169 1205 825 
Q 1463 481 1925 481 
Q 2391 481 2648 825 
Q 2906 1169 2906 1791 
z
M 3481 434 
Q 3481 -459 3084 -895 
Q 2688 -1331 1869 -1331 
Q 1566 -1331 1297 -1286 
Q 1028 -1241 775 -1147 
L 775 -588 
Q 1028 -725 1275 -790 
Q 1522 -856 1778 -856 
Q 2344 -856 2625 -561 
Q 2906 -266 2906 331 
L 2906 616 
Q 2728 306 2450 153 
Q 2172 0 1784 0 
Q 1141 0 747 490 
Q 353 981 353 1791 
Q 353 2603 747 3093 
Q 1141 3584 1784 3584 
Q 2172 3584 2450 3431 
Q 2728 3278 2906 2969 
L 2906 3500 
L 3481 3500 
L 3481 434 
z
" transform="scale(0.015625)"/>
      <path id="DejaVuSans-3a" d="M 750 794 
L 1409 794 
L 1409 0 
L 750 0 
L 750 794 
z
M 750 3309 
L 1409 3309 
L 1409 2516 
L 750 2516 
L 750 3309 
z
" transform="scale(0.015625)"/>
      <path id="DejaVuSans-20" transform="scale(0.015625)"/>
      <path id="DejaVuSans-68" d="M 3513 2113 
L 3513 0 
L 2938 0 
L 2938 2094 
Q 2938 2591 2744 2837 
Q 2550 3084 2163 3084 
Q 1697 3084 1428 2787 
Q 1159 2491 1159 1978 
L 1159 0 
L 581 0 
L 581 4863 
L 1159 4863 
L 1159 2956 
Q 1366 3272 1645 3428 
Q 1925 3584 2291 3584 
Q 2894 3584 3203 3211 
Q 3513 2838 3513 2113 
z
" transform="scale(0.015625)"/>
     </defs>
     <use xlink:href="#DejaVuSans-74"/>
     <use xlink:href="#DejaVuSans-72" transform="translate(39.208984 0)"/>
     <use xlink:href="#DejaVuSans-61" transform="translate(80.322266 0)"/>
     <use xlink:href="#DejaVuSans-69" transform="translate(141.601562 0)"/>
     <use xlink:href="#DejaVuSans-6e" transform="translate(169.384766 0)"/>
     <use xlink:href="#DejaVuSans-69" transform="translate(232.763672 0)"/>
     <use xlink:href="#DejaVuSans-6e" transform="translate(260.546875 0)"/>
     <use xlink:href="#DejaVuSans-67" transform="translate(323.925781 0)"/>
     <use xlink:href="#DejaVuSans-3a" transform="translate(387.402344 0)"/>
     <use xlink:href="#DejaVuSans-20" transform="translate(421.09375 0)"/>
     <use xlink:href="#DejaVuSans-6e" transform="translate(452.880859 0)"/>
     <use xlink:href="#DejaVuSans-6f" transform="translate(516.259766 0)"/>
     <use xlink:href="#DejaVuSans-69" transform="translate(577.441406 0)"/>
     <use xlink:href="#DejaVuSans-73" transform="translate(605.224609 0)"/>
     <use xlink:href="#DejaVuSans-65" transform="translate(657.324219 0)"/>
     <use xlink:href="#DejaVuSans-20" transform="translate(718.847656 0)"/>
     <use xlink:href="#DejaVuSans-74" transform="translate(750.634766 0)"/>
     <use xlink:href="#DejaVuSans-68" transform="translate(789.84375 0)"/>
     <use xlink:href="#DejaVuSans-65" transform="translate(853.222656 0)"/>
     <use xlink:href="#DejaVuSans-20" transform="translate(914.746094 0)"/>
     <use xlink:href="#DejaVuSans-64" transform="translate(946.533203 0)"/>
     <use xlink:href="#DejaVuSans-61" transform="translate(1010.009766 0)"/>
     <use xlink:href="#DejaVuSans-74" transform="translate(1071.289062 0)"/>
     <use xlink:href="#DejaVuSans-61" transform="translate(1110.498047 0)"/>
    </g>
   </g>
   <g id="patch_3">
    <path d="M 276.3792 105.630316 
Q 208.08 105.630316 141.569654 105.630316 
" style="fill: none; stroke: #2ca02c; stroke-width: 1.6; stroke-linecap: round"/>
    <path d="M 146.369654 108.030316 
L 141.569654 105.630316 
L 146.369654 103.230316 
" style="fill: none; stroke: #2ca02c; stroke-width: 1.6; stroke-linecap: round"/>
   </g>
   <g id="text_6">
    <!-- sampling: reverse-time SDE / probability-flow ODE -->
    <g style="fill: #2ca02c" transform="translate(94.806563 120.60011) scale(0.09 -0.09)">
     <defs>
      <path id="DejaVuSans-6d" d="M 3328 2828 
Q 3544 3216 3844 3400 
Q 4144 3584 4550 3584 
Q 5097 3584 5394 3201 
Q 5691 2819 5691 2113 
L 5691 0 
L 5113 0 
L 5113 2094 
Q 5113 2597 4934 2840 
Q 4756 3084 4391 3084 
Q 3944 3084 3684 2787 
Q 3425 2491 3425 1978 
L 3425 0 
L 2847 0 
L 2847 2094 
Q 2847 2600 2669 2842 
Q 2491 3084 2119 3084 
Q 1678 3084 1418 2786 
Q 1159 2488 1159 1978 
L 1159 0 
L 581 0 
L 581 3500 
L 1159 3500 
L 1159 2956 
Q 1356 3278 1631 3431 
Q 1906 3584 2284 3584 
Q 2666 3584 2933 3390 
Q 3200 3197 3328 2828 
z
" transform="scale(0.015625)"/>
      <path id="DejaVuSans-70" d="M 1159 525 
L 1159 -1331 
L 581 -1331 
L 581 3500 
L 1159 3500 
L 1159 2969 
Q 1341 3281 1617 3432 
Q 1894 3584 2278 3584 
Q 2916 3584 3314 3078 
Q 3713 2572 3713 1747 
Q 3713 922 3314 415 
Q 2916 -91 2278 -91 
Q 1894 -91 1617 61 
Q 1341 213 1159 525 
z
M 3116 1747 
Q 3116 2381 2855 2742 
Q 2594 3103 2138 3103 
Q 1681 3103 1420 2742 
Q 1159 2381 1159 1747 
Q 1159 1113 1420 752 
Q 1681 391 2138 391 
Q 2594 391 2855 752 
Q 3116 1113 3116 1747 
z
" transform="scale(0.015625)"/>
      <path id="DejaVuSans-6c" d="M 603 4863 
L 1178 4863 
L 1178 0 
L 603 0 
L 603 4863 
z
" transform="scale(0.015625)"/>
      <path id="DejaVuSans-76" d="M 191 3500 
L 800 3500 
L 1894 563 
L 2988 3500 
L 3597 3500 
L 2284 0 
L 1503 0 
L 191 3500 
z
" transform="scale(0.015625)"/>
      <path id="DejaVuSans-2d" d="M 313 2009 
L 1997 2009 
L 1997 1497 
L 313 1497 
L 313 2009 
z
" transform="scale(0.015625)"/>
      <path id="DejaVuSans-53" d="M 3425 4513 
L 3425 3897 
Q 3066 4069 2747 4153 
Q 2428 4238 2131 4238 
Q 1616 4238 1336 4038 
Q 1056 3838 1056 3469 
Q 1056 3159 1242 3001 
Q 1428 2844 1947 2747 
L 2328 2669 
Q 3034 2534 3370 2195 
Q 3706 1856 3706 1288 
Q 3706 609 3251 259 
Q 2797 -91 1919 -91 
Q 1588 -91 1214 -16 
Q 841 59 441 206 
L 441 856 
Q 825 641 1194 531 
Q 1563 422 1919 422 
Q 2459 422 2753 634 
Q 3047 847 3047 1241 
Q 3047 1584 2836 1778 
Q 2625 1972 2144 2069 
L 1759 2144 
Q 1053 2284 737 2584 
Q 422 2884 422 3419 
Q 422 4038 858 4394 
Q 1294 4750 2059 4750 
Q 2388 4750 2728 4690 
Q 3069 4631 3425 4513 
z
" transform="scale(0.015625)"/>
      <path id="DejaVuSans-44" d="M 1259 4147 
L 1259 519 
L 2022 519 
Q 2988 519 3436 956 
Q 3884 1394 3884 2338 
Q 3884 3275 3436 3711 
Q 2988 4147 2022 4147 
L 1259 4147 
z
M 628 4666 
L 1925 4666 
Q 3281 4666 3915 4102 
Q 4550 3538 4550 2338 
Q 4550 1131 3912 565 
Q 3275 0 1925 0 
L 628 0 
L 628 4666 
z
" transform="scale(0.015625)"/>
      <path id="DejaVuSans-45" d="M 628 4666 
L 3578 4666 
L 3578 4134 
L 1259 4134 
L 1259 2753 
L 3481 2753 
L 3481 2222 
L 1259 2222 
L 1259 531 
L 3634 531 
L 3634 0 
L 628 0 
L 628 4666 
z
" transform="scale(0.015625)"/>
      <path id="DejaVuSans-2f" d="M 1625 4666 
L 2156 4666 
L 531 -594 
L 0 -594 
L 1625 4666 
z
" transform="scale(0.015625)"/>
      <path id="DejaVuSans-62" d="M 3116 1747 
Q 3116 2381 2855 2742 
Q 2594 3103 2138 3103 
Q 1681 3103 1420 2742 
Q 1159 2381 1159 1747 
Q 1159 1113 1420 752 
Q 1681 391 2138 391 
Q 2594 391 2855 752 
Q 3116 1113 3116 1747 
z
M 1159 2969 
Q 1341 3281 1617 3432 
Q 1894 3584 2278 3584 
Q 2916 3584 3314 3078 
Q 3713 2572 3713 1747 
Q 3713 922 3314 415 
Q 2916 -91 2278 -91 
Q 1894 -91 1617 61 
Q 1341 213 1159 525 
L 1159 0 
L 581 0 
L 581 4863 
L 1159 4863 
L 1159 2969 
z
" transform="scale(0.015625)"/>
      <path id="DejaVuSans-79" d="M 2059 -325 
Q 1816 -950 1584 -1140 
Q 1353 -1331 966 -1331 
L 506 -1331 
L 506 -850 
L 844 -850 
Q 1081 -850 1212 -737 
Q 1344 -625 1503 -206 
L 1606 56 
L 191 3500 
L 800 3500 
L 1894 763 
L 2988 3500 
L 3597 3500 
L 2059 -325 
z
" transform="scale(0.015625)"/>
      <path id="DejaVuSans-66" d="M 2375 4863 
L 2375 4384 
L 1825 4384 
Q 1516 4384 1395 4259 
Q 1275 4134 1275 3809 
L 1275 3500 
L 2222 3500 
L 2222 3053 
L 1275 3053 
L 1275 0 
L 697 0 
L 697 3053 
L 147 3053 
L 147 3500 
L 697 3500 
L 697 3744 
Q 697 4328 969 4595 
Q 1241 4863 1831 4863 
L 2375 4863 
z
" transform="scale(0.015625)"/>
      <path id="DejaVuSans-77" d="M 269 3500 
L 844 3500 
L 1563 769 
L 2278 3500 
L 2956 3500 
L 3675 769 
L 4391 3500 
L 4966 3500 
L 4050 0 
L 3372 0 
L 2619 2869 
L 1863 0 
L 1184 0 
L 269 3500 
z
" transform="scale(0.015625)"/>
      <path id="DejaVuSans-4f" d="M 2522 4238 
Q 1834 4238 1429 3725 
Q 1025 3213 1025 2328 
Q 1025 1447 1429 934 
Q 1834 422 2522 422 
Q 3209 422 3611 934 
Q 4013 1447 4013 2328 
Q 4013 3213 3611 3725 
Q 3209 4238 2522 4238 
z
M 2522 4750 
Q 3503 4750 4090 4092 
Q 4678 3434 4678 2328 
Q 4678 1225 4090 567 
Q 3503 -91 2522 -91 
Q 1538 -91 948 565 
Q 359 1222 359 2328 
Q 359 3434 948 4092 
Q 1538 4750 2522 4750 
z
" transform="scale(0.015625)"/>
     </defs>
     <use xlink:href="#DejaVuSans-73"/>
     <use xlink:href="#DejaVuSans-61" transform="translate(52.099609 0)"/>
     <use xlink:href="#DejaVuSans-6d" transform="translate(113.378906 0)"/>
     <use xlink:href="#DejaVuSans-70" transform="translate(210.791016 0)"/>
     <use xlink:href="#DejaVuSans-6c" transform="translate(274.267578 0)"/>
     <use xlink:href="#DejaVuSans-69" transform="translate(302.050781 0)"/>
     <use xlink:href="#DejaVuSans-6e" transform="translate(329.833984 0)"/>
     <use xlink:href="#DejaVuSans-67" transform="translate(393.212891 0)"/>
     <use xlink:href="#DejaVuSans-3a" transform="translate(456.689453 0)"/>
     <use xlink:href="#DejaVuSans-20" transform="translate(490.380859 0)"/>
     <use xlink:href="#DejaVuSans-72" transform="translate(522.167969 0)"/>
     <use xlink:href="#DejaVuSans-65" transform="translate(561.03125 0)"/>
     <use xlink:href="#DejaVuSans-76" transform="translate(622.554688 0)"/>
     <use xlink:href="#DejaVuSans-65" transform="translate(681.734375 0)"/>
     <use xlink:href="#DejaVuSans-72" transform="translate(743.257812 0)"/>
     <use xlink:href="#DejaVuSans-73" transform="translate(784.371094 0)"/>
     <use xlink:href="#DejaVuSans-65" transform="translate(836.470703 0)"/>
     <use xlink:href="#DejaVuSans-2d" transform="translate(897.994141 0)"/>
     <use xlink:href="#DejaVuSans-74" transform="translate(934.078125 0)"/>
     <use xlink:href="#DejaVuSans-69" transform="translate(973.287109 0)"/>
     <use xlink:href="#DejaVuSans-6d" transform="translate(1001.070312 0)"/>
     <use xlink:href="#DejaVuSans-65" transform="translate(1098.482422 0)"/>
     <use xlink:href="#DejaVuSans-20" transform="translate(1160.005859 0)"/>
     <use xlink:href="#DejaVuSans-53" transform="translate(1191.792969 0)"/>
     <use xlink:href="#DejaVuSans-44" transform="translate(1255.269531 0)"/>
     <use xlink:href="#DejaVuSans-45" transform="translate(1332.271484 0)"/>
     <use xlink:href="#DejaVuSans-20" transform="translate(1395.455078 0)"/>
     <use xlink:href="#DejaVuSans-2f" transform="translate(1427.242188 0)"/>
     <use xlink:href="#DejaVuSans-20" transform="translate(1460.933594 0)"/>
     <use xlink:href="#DejaVuSans-70" transform="translate(1492.720703 0)"/>
     <use xlink:href="#DejaVuSans-72" transform="translate(1556.197266 0)"/>
     <use xlink:href="#DejaVuSans-6f" transform="translate(1595.060547 0)"/>
     <use xlink:href="#DejaVuSans-62" transform="translate(1656.242188 0)"/>
     <use xlink:href="#DejaVuSans-61" transform="translate(1719.71875 0)"/>
     <use xlink:href="#DejaVuSans-62" transform="translate(1780.998047 0)"/>
     <use xlink:href="#DejaVuSans-69" transform="translate(1844.474609 0)"/>
     <use xlink:href="#DejaVuSans-6c" transform="translate(1872.257812 0)"/>
     <use xlink:href="#DejaVuSans-69" transform="translate(1900.041016 0)"/>
     <use xlink:href="#DejaVuSans-74" transform="translate(1927.824219 0)"/>
     <use xlink:href="#DejaVuSans-79" transform="translate(1967.033203 0)"/>
     <use xlink:href="#DejaVuSans-2d" transform="translate(2024.462891 0)"/>
     <use xlink:href="#DejaVuSans-66" transform="translate(2060.546875 0)"/>
     <use xlink:href="#DejaVuSans-6c" transform="translate(2095.751953 0)"/>
     <use xlink:href="#DejaVuSans-6f" transform="translate(2123.535156 0)"/>
     <use xlink:href="#DejaVuSans-77" transform="translate(2184.716797 0)"/>
     <use xlink:href="#DejaVuSans-20" transform="translate(2266.503906 0)"/>
     <use xlink:href="#DejaVuSans-4f" transform="translate(2298.291016 0)"/>
     <use xlink:href="#DejaVuSans-44" transform="translate(2377.001953 0)"/>
     <use xlink:href="#DejaVuSans-45" transform="translate(2454.003906 0)"/>
    </g>
   </g>
   <g id="text_7">
    <!-- diffusion -->
    <g transform="translate(13.2264 23.074049) scale(0.11 -0.11)">
     <defs>
      <path id="DejaVuSans-75" d="M 544 1381 
L 544 3500 
L 1119 3500 
L 1119 1403 
Q 1119 906 1312 657 
Q 1506 409 1894 409 
Q 2359 409 2629 706 
Q 2900 1003 2900 1516 
L 2900 3500 
L 3475 3500 
L 3475 0 
L 2900 0 
L 2900 538 
Q 2691 219 2414 64 
Q 2138 -91 1772 -91 
Q 1169 -91 856 284 
Q 544 659 544 1381 
z
M 1991 3584 
L 1991 3584 
z
" transform="scale(0.015625)"/>
     </defs>
     <use xlink:href="#DejaVuSans-64"/>
     <use xlink:href="#DejaVuSans-69" transform="translate(63.476562 0)"/>
     <use xlink:href="#DejaVuSans-66" transform="translate(91.259766 0)"/>
     <use xlink:href="#DejaVuSans-66" transform="translate(126.464844 0)"/>
     <use xlink:href="#DejaVuSans-75" transform="translate(161.669922 0)"/>
     <use xlink:href="#DejaVuSans-73" transform="translate(225.048828 0)"/>
     <use xlink:href="#DejaVuSans-69" transform="translate(277.148438 0)"/>
     <use xlink:href="#DejaVuSans-6f" transform="translate(304.931641 0)"/>
     <use xlink:href="#DejaVuSans-6e" transform="translate(366.113281 0)"/>
    </g>
   </g>
   <g id="text_8">
    <!-- $0$ -->
    <g transform="translate(85.052 223.213932) scale(0.1 -0.1)">
     <use xlink:href="#Cmr10-30" transform="translate(0 0.390625)"/>
    </g>
   </g>
   <g id="text_9">
    <!-- $1$ -->
    <g transform="translate(326.108 223.213932) scale(0.1 -0.1)">
     <defs>
      <path id="Cmr10-31" d="M 594 0 
L 594 225 
Q 1394 225 1394 428 
L 1394 3788 
Q 1063 3628 556 3628 
L 556 3853 
Q 1341 3853 1741 4263 
L 1831 4263 
Q 1853 4263 1873 4245 
Q 1894 4228 1894 4206 
L 1894 428 
Q 1894 225 2694 225 
L 2694 0 
L 594 0 
z
" transform="scale(0.015625)"/>
     </defs>
     <use xlink:href="#Cmr10-31" transform="translate(0 0.390625)"/>
    </g>
   </g>
   <g id="line2d_9">
    <path d="M 55.4112 204.961731 
L 57.432634 204.330601 
L 59.454068 203.452375 
L 61.071215 202.532313 
L 62.688362 201.387285 
L 64.305509 199.991989 
L 65.922657 198.328086 
L 67.539804 196.38762 
L 69.561238 193.583503 
L 71.582672 190.406107 
L 74.412679 185.520078 
L 78.859834 177.787378 
L 80.881268 174.748559 
L 82.498415 172.735635 
L 83.711275 171.533367 
L 84.924136 170.631948 
L 86.136996 170.056697 
L 86.94557 169.862887 
L 87.754143 169.824 
L 88.562717 169.940535 
L 89.775577 170.402955 
L 90.988438 171.198044 
L 92.201298 172.303349 
L 93.414158 173.688231 
L 95.031306 175.904201 
L 97.05274 179.122538 
L 100.287034 184.80001 
L 103.925615 191.067586 
L 106.351336 194.753657 
L 108.37277 197.392421 
L 109.989917 199.194394 
L 111.607064 200.722269 
L 113.224211 201.989625 
L 114.841358 203.0187 
L 116.862792 204.012241 
L 118.884226 204.735241 
L 119.6928 204.961731 
L 119.6928 204.961731 
" clip-path="url(#p0a56698a6c)" style="fill: none; stroke: #ff7f0e; stroke-width: 1.8; stroke-linecap: square"/>
   </g>
   <g id="line2d_10">
    <path d="M 296.4672 206.015369 
L 298.084347 205.692641 
L 299.297208 205.191215 
L 300.105781 204.657539 
L 300.914355 203.903886 
L 301.722928 202.872288 
L 302.531502 201.504559 
L 303.340075 199.749566 
L 304.148649 197.572495 
L 305.361509 193.507366 
L 306.57437 188.617254 
L 309.808664 174.956021 
L 310.617238 172.459341 
L 311.425811 170.724558 
L 311.830098 170.186934 
L 312.234385 169.884742 
L 312.638672 169.824 
L 313.042958 170.005922 
L 313.447245 170.426877 
L 313.851532 171.078507 
L 314.660106 173.018541 
L 315.468679 175.67856 
L 316.68154 180.590862 
L 319.511547 192.742687 
L 320.724408 196.960294 
L 321.937268 200.22597 
L 322.745842 201.879057 
L 323.554415 203.155522 
L 324.362989 204.10818 
L 325.171562 204.794214 
L 325.980136 205.268046 
L 327.192996 205.680126 
L 328.405857 205.827358 
L 329.618717 205.755008 
L 330.831577 205.440372 
L 331.640151 205.054511 
L 332.448725 204.48099 
L 333.257298 203.668761 
L 334.065872 202.561267 
L 334.874445 201.102485 
L 335.683019 199.245087 
L 336.491592 196.960294 
L 337.704453 192.742687 
L 339.3216 185.967219 
L 341.343034 177.219563 
L 342.555894 173.018541 
L 343.364468 171.078507 
L 343.768755 170.426877 
L 344.173042 170.005922 
L 344.577328 169.824 
L 344.981615 169.884742 
L 345.385902 170.186934 
L 345.790189 170.724558 
L 346.598762 172.459341 
L 347.407336 174.956021 
L 348.620196 179.720418 
L 351.854491 193.507366 
L 353.067351 197.572495 
L 354.280211 200.678147 
L 355.088785 202.233902 
L 355.897358 203.426536 
L 356.705932 204.311758 
L 357.514506 204.948411 
L 358.727366 205.557713 
L 359.940226 205.889757 
L 360.7488 206.015369 
L 360.7488 206.015369 
" clip-path="url(#p0a56698a6c)" style="fill: none; stroke: #1f77b4; stroke-width: 1.8; stroke-linecap: square"/>
   </g>
   <g id="text_10">
    <!-- noise -->
    <g style="fill: #ff7f0e" transform="translate(24.117769 189.563722) scale(0.095 -0.095)">
     <use xlink:href="#DejaVuSans-6e"/>
     <use xlink:href="#DejaVuSans-6f" transform="translate(63.378906 0)"/>
     <use xlink:href="#DejaVuSans-69" transform="translate(124.560547 0)"/>
     <use xlink:href="#DejaVuSans-73" transform="translate(152.34375 0)"/>
     <use xlink:href="#DejaVuSans-65" transform="translate(204.443359 0)"/>
    </g>
   </g>
   <g id="text_11">
    <!-- data -->
    <g style="fill: #1f77b4" transform="translate(366.7752 189.563722) scale(0.095 -0.095)">
     <use xlink:href="#DejaVuSans-64"/>
     <use xlink:href="#DejaVuSans-61" transform="translate(63.476562 0)"/>
     <use xlink:href="#DejaVuSans-74" transform="translate(124.755859 0)"/>
     <use xlink:href="#DejaVuSans-61" transform="translate(163.964844 0)"/>
    </g>
   </g>
   <g id="patch_4">
    <path d="M 139.7808 161.264842 
Q 208.08 161.264842 274.590346 161.264842 
" style="fill: none; stroke: #2ca02c; stroke-width: 1.6; stroke-linecap: round"/>
    <path d="M 269.790346 158.864842 
L 274.590346 161.264842 
L 269.790346 163.664842 
" style="fill: none; stroke: #2ca02c; stroke-width: 1.6; stroke-linecap: round"/>
   </g>
   <g id="text_12">
    <!-- sampling: integrate $\dot{\mathbf{x}}=\mathbf{v}_\theta(\mathbf{x},t)$ forwards -->
    <g style="fill: #2ca02c" transform="translate(120.06 151.739558) scale(0.09 -0.09)">
     <defs>
      <path id="Cmr10-5f" d="M 538 3928 
Q 538 4069 644 4175 
Q 750 4281 891 4281 
Q 978 4281 1062 4234 
Q 1147 4188 1194 4103 
Q 1241 4019 1241 3928 
Q 1241 3791 1137 3684 
Q 1034 3578 891 3578 
Q 750 3578 644 3684 
Q 538 3791 538 3928 
z
" transform="scale(0.015625)"/>
      <path id="Cmb10-78" d="M 109 0 
L 109 325 
Q 628 325 678 384 
L 1381 1350 
L 588 2516 
L 141 2516 
L 141 2841 
L 1606 2841 
L 1606 2516 
L 1331 2516 
L 1766 1881 
L 2181 2463 
Q 2181 2491 2072 2503 
Q 1963 2516 1888 2516 
L 1888 2841 
L 3156 2841 
L 3156 2516 
Q 2638 2516 2584 2456 
L 1959 1594 
L 2816 325 
L 3272 325 
L 3272 0 
L 1797 0 
L 1797 325 
L 2075 325 
L 1575 1063 
L 1081 378 
Q 1081 356 1193 340 
Q 1306 325 1381 325 
L 1381 0 
L 109 0 
z
" transform="scale(0.015625)"/>
      <path id="Cmr10-3d" d="M 481 850 
Q 428 850 393 890 
Q 359 931 359 978 
Q 359 1031 393 1068 
Q 428 1106 481 1106 
L 4500 1106 
Q 4547 1106 4581 1068 
Q 4616 1031 4616 978 
Q 4616 931 4581 890 
Q 4547 850 4500 850 
L 481 850 
z
M 481 2094 
Q 428 2094 393 2131 
Q 359 2169 359 2222 
Q 359 2269 393 2309 
Q 428 2350 481 2350 
L 4500 2350 
Q 4547 2350 4581 2309 
Q 4616 2269 4616 2222 
Q 4616 2169 4581 2131 
Q 4547 2094 4500 2094 
L 481 2094 
z
" transform="scale(0.015625)"/>
      <path id="Cmb10-76" d="M 1466 91 
L 544 2516 
L 141 2516 
L 141 2841 
L 1672 2841 
L 1672 2516 
L 1319 2516 
L 1894 984 
L 2456 2463 
Q 2456 2494 2342 2505 
Q 2228 2516 2119 2516 
L 2119 2841 
L 3231 2841 
L 3231 2516 
Q 2828 2516 2803 2456 
L 1906 91 
Q 1866 -25 1741 -25 
L 1631 -25 
Q 1506 -25 1466 91 
z
" transform="scale(0.015625)"/>
      <path id="Cmmi10-b5" d="M 1031 -72 
Q 741 -72 566 140 
Q 391 353 323 653 
Q 256 953 256 1247 
L 256 1253 
Q 256 1572 317 1915 
Q 378 2259 493 2601 
Q 609 2944 744 3213 
Q 838 3400 986 3631 
Q 1134 3863 1317 4064 
Q 1500 4266 1711 4389 
Q 1922 4513 2138 4513 
L 2144 4513 
Q 2375 4513 2529 4384 
Q 2684 4256 2770 4056 
Q 2856 3856 2890 3628 
Q 2925 3400 2925 3194 
Q 2925 2709 2794 2204 
Q 2663 1700 2431 1228 
Q 2344 1050 2189 809 
Q 2034 569 1861 378 
Q 1688 188 1472 58 
Q 1256 -72 1038 -72 
L 1031 -72 
z
M 1044 97 
Q 1256 97 1451 323 
Q 1647 550 1794 873 
Q 1941 1197 2052 1536 
Q 2163 1875 2216 2113 
L 909 2113 
Q 809 1709 753 1417 
Q 697 1125 697 844 
Q 697 97 1044 97 
z
M 959 2338 
L 2272 2338 
Q 2341 2619 2381 2808 
Q 2422 2997 2450 3206 
Q 2478 3416 2478 3597 
Q 2478 4347 2138 4347 
Q 1731 4347 1436 3692 
Q 1141 3038 959 2338 
z
" transform="scale(0.015625)"/>
      <path id="Cmr10-28" d="M 1984 -1588 
Q 1628 -1306 1370 -942 
Q 1113 -578 948 -165 
Q 784 247 703 697 
Q 622 1147 622 1600 
Q 622 2059 703 2509 
Q 784 2959 951 3375 
Q 1119 3791 1378 4153 
Q 1638 4516 1984 4788 
Q 1984 4800 2016 4800 
L 2075 4800 
Q 2094 4800 2109 4783 
Q 2125 4766 2125 4744 
Q 2125 4716 2113 4703 
Q 1800 4397 1592 4047 
Q 1384 3697 1257 3301 
Q 1131 2906 1075 2482 
Q 1019 2059 1019 1600 
Q 1019 -434 2106 -1491 
Q 2125 -1509 2125 -1544 
Q 2125 -1559 2108 -1579 
Q 2091 -1600 2075 -1600 
L 2016 -1600 
Q 1984 -1600 1984 -1588 
z
" transform="scale(0.015625)"/>
      <path id="Cmmi10-3b" d="M 634 -1153 
Q 634 -1125 659 -1100 
Q 891 -878 1019 -587 
Q 1147 -297 1147 25 
L 1147 103 
Q 1044 0 891 0 
Q 744 0 641 103 
Q 538 206 538 353 
Q 538 503 641 603 
Q 744 703 891 703 
Q 1119 703 1216 492 
Q 1313 281 1313 25 
Q 1313 -331 1170 -651 
Q 1028 -972 769 -1228 
Q 744 -1241 728 -1241 
Q 697 -1241 665 -1212 
Q 634 -1184 634 -1153 
z
" transform="scale(0.015625)"/>
      <path id="Cmmi10-74" d="M 397 519 
Q 397 613 416 697 
L 878 2534 
L 206 2534 
Q 141 2534 141 2619 
Q 166 2759 225 2759 
L 934 2759 
L 1191 3803 
Q 1216 3888 1291 3947 
Q 1366 4006 1459 4006 
Q 1541 4006 1595 3957 
Q 1650 3909 1650 3828 
Q 1650 3809 1648 3798 
Q 1647 3788 1644 3775 
L 1388 2759 
L 2047 2759 
Q 2113 2759 2113 2675 
Q 2109 2659 2100 2621 
Q 2091 2584 2075 2559 
Q 2059 2534 2028 2534 
L 1331 2534 
L 872 684 
Q 825 503 825 372 
Q 825 97 1013 97 
Q 1294 97 1511 361 
Q 1728 625 1844 941 
Q 1869 978 1894 978 
L 1972 978 
Q 1997 978 2012 961 
Q 2028 944 2028 922 
Q 2028 909 2022 903 
Q 1881 516 1612 222 
Q 1344 -72 997 -72 
Q 744 -72 570 93 
Q 397 259 397 519 
z
" transform="scale(0.015625)"/>
      <path id="Cmr10-29" d="M 416 -1600 
Q 359 -1600 359 -1544 
Q 359 -1516 372 -1503 
Q 1466 -434 1466 1600 
Q 1466 3634 384 4691 
Q 359 4706 359 4744 
Q 359 4766 376 4783 
Q 394 4800 416 4800 
L 475 4800 
Q 494 4800 506 4788 
Q 966 4425 1272 3906 
Q 1578 3388 1720 2800 
Q 1863 2213 1863 1600 
Q 1863 1147 1786 708 
Q 1709 269 1542 -157 
Q 1375 -584 1119 -945 
Q 863 -1306 506 -1588 
Q 494 -1600 475 -1600 
L 416 -1600 
z
" transform="scale(0.015625)"/>
     </defs>
     <use xlink:href="#DejaVuSans-73" transform="translate(0 0.015625)"/>
     <use xlink:href="#DejaVuSans-61" transform="translate(52.099609 0.015625)"/>
     <use xlink:href="#DejaVuSans-6d" transform="translate(113.378906 0.015625)"/>
     <use xlink:href="#DejaVuSans-70" transform="translate(210.791016 0.015625)"/>
     <use xlink:href="#DejaVuSans-6c" transform="translate(274.267578 0.015625)"/>
     <use xlink:href="#DejaVuSans-69" transform="translate(302.050781 0.015625)"/>
     <use xlink:href="#DejaVuSans-6e" transform="translate(329.833984 0.015625)"/>
     <use xlink:href="#DejaVuSans-67" transform="translate(393.212891 0.015625)"/>
     <use xlink:href="#DejaVuSans-3a" transform="translate(456.689453 0.015625)"/>
     <use xlink:href="#DejaVuSans-20" transform="translate(490.380859 0.015625)"/>
     <use xlink:href="#DejaVuSans-69" transform="translate(522.167969 0.015625)"/>
     <use xlink:href="#DejaVuSans-6e" transform="translate(549.951172 0.015625)"/>
     <use xlink:href="#DejaVuSans-74" transform="translate(613.330078 0.015625)"/>
     <use xlink:href="#DejaVuSans-65" transform="translate(652.539062 0.015625)"/>
     <use xlink:href="#DejaVuSans-67" transform="translate(714.0625 0.015625)"/>
     <use xlink:href="#DejaVuSans-72" transform="translate(777.539062 0.015625)"/>
     <use xlink:href="#DejaVuSans-61" transform="translate(818.652344 0.015625)"/>
     <use xlink:href="#DejaVuSans-74" transform="translate(879.931641 0.015625)"/>
     <use xlink:href="#DejaVuSans-65" transform="translate(919.140625 0.015625)"/>
     <use xlink:href="#DejaVuSans-20" transform="translate(980.664062 0.015625)"/>
     <use xlink:href="#Cmr10-5f" transform="translate(1031.216309 1)"/>
     <use xlink:href="#Cmb10-78" transform="translate(1012.451172 0.015625)"/>
     <use xlink:href="#Cmr10-3d" transform="translate(1082.695312 0.015625)"/>
     <use xlink:href="#Cmb10-76" transform="translate(1177.939453 0.015625)"/>
     <use xlink:href="#Cmmi10-b5" transform="translate(1235.089141 -16.990625) scale(0.7)"/>
     <use xlink:href="#Cmr10-28" transform="translate(1274.313164 0.015625)"/>
     <use xlink:href="#Cmb10-78" transform="translate(1313.131523 0.015625)"/>
     <use xlink:href="#Cmmi10-3b" transform="translate(1365.81707 0.015625)"/>
     <use xlink:href="#Cmmi10-74" transform="translate(1411.061211 0.015625)"/>
     <use xlink:href="#Cmr10-29" transform="translate(1447.145195 0.015625)"/>
     <use xlink:href="#DejaVuSans-20" transform="translate(1485.963555 0.015625)"/>
     <use xlink:href="#DejaVuSans-66" transform="translate(1517.750664 0.015625)"/>
     <use xlink:href="#DejaVuSans-6f" transform="translate(1552.955742 0.015625)"/>
     <use xlink:href="#DejaVuSans-72" transform="translate(1614.137383 0.015625)"/>
     <use xlink:href="#DejaVuSans-77" transform="translate(1655.250664 0.015625)"/>
     <use xlink:href="#DejaVuSans-61" transform="translate(1737.037773 0.015625)"/>
     <use xlink:href="#DejaVuSans-72" transform="translate(1798.31707 0.015625)"/>
     <use xlink:href="#DejaVuSans-64" transform="translate(1839.430352 0.015625)"/>
     <use xlink:href="#DejaVuSans-73" transform="translate(1902.906914 0.015625)"/>
    </g>
   </g>
   <g id="text_13">
    <!-- flow matching -->
    <g transform="translate(13.2264 147.181839) scale(0.11 -0.11)">
     <defs>
      <path id="DejaVuSans-63" d="M 3122 3366 
L 3122 2828 
Q 2878 2963 2633 3030 
Q 2388 3097 2138 3097 
Q 1578 3097 1268 2742 
Q 959 2388 959 1747 
Q 959 1106 1268 751 
Q 1578 397 2138 397 
Q 2388 397 2633 464 
Q 2878 531 3122 666 
L 3122 134 
Q 2881 22 2623 -34 
Q 2366 -91 2075 -91 
Q 1284 -91 818 406 
Q 353 903 353 1747 
Q 353 2603 823 3093 
Q 1294 3584 2113 3584 
Q 2378 3584 2631 3529 
Q 2884 3475 3122 3366 
z
" transform="scale(0.015625)"/>
     </defs>
     <use xlink:href="#DejaVuSans-66"/>
     <use xlink:href="#DejaVuSans-6c" transform="translate(35.205078 0)"/>
     <use xlink:href="#DejaVuSans-6f" transform="translate(62.988281 0)"/>
     <use xlink:href="#DejaVuSans-77" transform="translate(124.169922 0)"/>
     <use xlink:href="#DejaVuSans-20" transform="translate(205.957031 0)"/>
     <use xlink:href="#DejaVuSans-6d" transform="translate(237.744141 0)"/>
     <use xlink:href="#DejaVuSans-61" transform="translate(335.15625 0)"/>
     <use xlink:href="#DejaVuSans-74" transform="translate(396.435547 0)"/>
     <use xlink:href="#DejaVuSans-63" transform="translate(435.644531 0)"/>
     <use xlink:href="#DejaVuSans-68" transform="translate(490.625 0)"/>
     <use xlink:href="#DejaVuSans-69" transform="translate(554.003906 0)"/>
     <use xlink:href="#DejaVuSans-6e" transform="translate(581.787109 0)"/>
     <use xlink:href="#DejaVuSans-67" transform="translate(645.166016 0)"/>
    </g>
   </g>
   <g id="text_14">
    <!-- to compare formulas: $t\ \mapsto\ 1-t$ -->
    <g style="fill: #7f7f7f" transform="translate(135.31 140.339658) scale(0.095 -0.095)">
     <defs>
      <path id="STIXGeneral-Regular-21a6" d="M 5485 1651 
L 5485 1587 
Q 4749 1274 3962 365 
L 3834 486 
Q 4013 742 4358 1101 
Q 4448 1190 4448 1280 
Q 4448 1408 4282 1408 
L 768 1408 
L 768 365 
L 448 365 
L 448 2880 
L 768 2880 
L 768 1830 
L 4288 1830 
Q 4365 1830 4409 1875 
Q 4454 1920 4454 1971 
Q 4454 2042 4365 2131 
Q 4064 2419 3840 2758 
L 3968 2880 
Q 4774 1946 5485 1651 
z
" transform="scale(0.015625)"/>
      <path id="Cmsy10-a1" d="M 653 1472 
Q 600 1472 565 1512 
Q 531 1553 531 1600 
Q 531 1647 565 1687 
Q 600 1728 653 1728 
L 4325 1728 
Q 4375 1728 4408 1687 
Q 4441 1647 4441 1600 
Q 4441 1553 4408 1512 
Q 4375 1472 4325 1472 
L 653 1472 
z
" transform="scale(0.015625)"/>
     </defs>
     <use xlink:href="#DejaVuSans-74" transform="translate(0 0.015625)"/>
     <use xlink:href="#DejaVuSans-6f" transform="translate(39.208984 0.015625)"/>
     <use xlink:href="#DejaVuSans-20" transform="translate(100.390625 0.015625)"/>
     <use xlink:href="#DejaVuSans-63" transform="translate(132.177734 0.015625)"/>
     <use xlink:href="#DejaVuSans-6f" transform="translate(187.158203 0.015625)"/>
     <use xlink:href="#DejaVuSans-6d" transform="translate(248.339844 0.015625)"/>
     <use xlink:href="#DejaVuSans-70" transform="translate(345.751953 0.015625)"/>
     <use xlink:href="#DejaVuSans-61" transform="translate(409.228516 0.015625)"/>
     <use xlink:href="#DejaVuSans-72" transform="translate(470.507812 0.015625)"/>
     <use xlink:href="#DejaVuSans-65" transform="translate(511.621094 0.015625)"/>
     <use xlink:href="#DejaVuSans-20" transform="translate(573.144531 0.015625)"/>
     <use xlink:href="#DejaVuSans-66" transform="translate(604.931641 0.015625)"/>
     <use xlink:href="#DejaVuSans-6f" transform="translate(640.136719 0.015625)"/>
     <use xlink:href="#DejaVuSans-72" transform="translate(701.318359 0.015625)"/>
     <use xlink:href="#DejaVuSans-6d" transform="translate(742.431641 0.015625)"/>
     <use xlink:href="#DejaVuSans-75" transform="translate(839.84375 0.015625)"/>
     <use xlink:href="#DejaVuSans-6c" transform="translate(903.222656 0.015625)"/>
     <use xlink:href="#DejaVuSans-61" transform="translate(931.005859 0.015625)"/>
     <use xlink:href="#DejaVuSans-73" transform="translate(992.285156 0.015625)"/>
     <use xlink:href="#DejaVuSans-3a" transform="translate(1044.384766 0.015625)"/>
     <use xlink:href="#DejaVuSans-20" transform="translate(1078.076172 0.015625)"/>
     <use xlink:href="#Cmmi10-74" transform="translate(1109.863281 0.015625)"/>
     <use xlink:href="#STIXGeneral-Regular-21a6" transform="translate(1192.76989 0.015625)"/>
     <use xlink:href="#Cmr10-31" transform="translate(1332.192505 0.015625)"/>
     <use xlink:href="#Cmsy10-a1" transform="translate(1399.751098 0.015625)"/>
     <use xlink:href="#Cmmi10-74" transform="translate(1494.995239 0.015625)"/>
    </g>
   </g>
  </g>
 </g>
 <defs>
  <clipPath id="p0a56698a6c">
   <rect x="7.2" y="7.2" width="401.76" height="243.936"/>
  </clipPath>
 </defs>
</svg>
