<?xml version="1.0" encoding="utf-8" standalone="no"?>
<!DOCTYPE svg PUBLIC "-//W3C//DTD SVG 1.1//EN"
  "http://www.w3.org/Graphics/SVG/1.1/DTD/svg11.dtd">
<svg xmlns:xlink="http://www.w3.org/1999/xlink" width="338.04pt" height="229.694312pt" viewBox="0 0 338.04 229.694312" xmlns="http://www.w3.org/2000/svg" version="1.1">
 <metadata>
  <rdf:RDF xmlns:dc="http://purl.org/dc/elements/1.1/" xmlns:cc="http://creativecommons.org/ns#" xmlns:rdf="http://www.w3.org/1999/02/22-rdf-syntax-ns#">
   <cc:Work>
    <dc:type rdf:resource="http://purl.org/dc/dcmitype/StillImage"/>
    <dc:format>image/svg+xml</dc:format>
    <dc:creator>
     <cc:Agent>
      <dc:title>Matplotlib v3.10.8, https://matplotlib.org/</dc:title>
     </cc:Agent>
    </dc:creator>
   </cc:Work>
  </rdf:RDF>
 </metadata>
 <defs>
  <style type="text/css">*{stroke-linejoin: round; stroke-linecap: butt}</style>
 </defs>
 <g id="figure_1">
  <g id="patch_1">
   <path d="M 0 229.694312 
L 338.04 229.694312 
L 338.04 0 
L 0 0 
z
" style="fill: #ffffff"/>
  </g>
  <g id="axes_1">
   <g id="patch_2">
    <path d="M 7.2 206.784 
L 330.84 206.784 
L 330.84 7.2 
L 7.2 7.2 
z
" style="fill: #ffffff"/>
   </g>
   <g id="matplotlib.axis_1">
    <g id="xtick_1">
     <g id="line2d_1">
      <defs>
       <path id="m0e0d04b24a" d="M 0 0 
L 0 3.5 
" style="stroke: #000000; stroke-width: 0.8"/>
      </defs>
      <g>
       <use xlink:href="#m0e0d04b24a" x="39.564" y="206.784" style="stroke: #000000; stroke-width: 0.8"/>
      </g>
     </g>
     <g id="text_1">
      <!-- −4 -->
      <g transform="translate(32.930016 220.622594) scale(0.09 -0.09)">
       <defs>
        <path id="DejaVuSans-2212" d="M 678 2272 
L 4684 2272 
L 4684 1741 
L 678 1741 
L 678 2272 
z
" transform="scale(0.015625)"/>
        <path id="DejaVuSans-34" d="M 2419 4116 
L 825 1625 
L 2419 1625 
L 2419 4116 
z
M 2253 4666 
L 3047 4666 
L 3047 1625 
L 3713 1625 
L 3713 1100 
L 3047 1100 
L 3047 0 
L 2419 0 
L 2419 1100 
L 313 1100 
L 313 1709 
L 2253 4666 
z
" transform="scale(0.015625)"/>
       </defs>
       <use xlink:href="#DejaVuSans-2212"/>
       <use xlink:href="#DejaVuSans-34" transform="translate(83.789062 0)"/>
      </g>
     </g>
    </g>
    <g id="xtick_2">
     <g id="line2d_2">
      <g>
       <use xlink:href="#m0e0d04b24a" x="104.292" y="206.784" style="stroke: #000000; stroke-width: 0.8"/>
      </g>
     </g>
     <g id="text_2">
      <!-- −2 -->
      <g transform="translate(97.658016 220.622594) scale(0.09 -0.09)">
       <defs>
        <path id="DejaVuSans-32" d="M 1228 531 
L 3431 531 
L 3431 0 
L 469 0 
L 469 531 
Q 828 903 1448 1529 
Q 2069 2156 2228 2338 
Q 2531 2678 2651 2914 
Q 2772 3150 2772 3378 
Q 2772 3750 2511 3984 
Q 2250 4219 1831 4219 
Q 1534 4219 1204 4116 
Q 875 4013 500 3803 
L 500 4441 
Q 881 4594 1212 4672 
Q 1544 4750 1819 4750 
Q 2544 4750 2975 4387 
Q 3406 4025 3406 3419 
Q 3406 3131 3298 2873 
Q 3191 2616 2906 2266 
Q 2828 2175 2409 1742 
Q 1991 1309 1228 531 
z
" transform="scale(0.015625)"/>
       </defs>
       <use xlink:href="#DejaVuSans-2212"/>
       <use xlink:href="#DejaVuSans-32" transform="translate(83.789062 0)"/>
      </g>
     </g>
    </g>
    <g id="xtick_3">
     <g id="line2d_3">
      <g>
       <use xlink:href="#m0e0d04b24a" x="169.02" y="206.784" style="stroke: #000000; stroke-width: 0.8"/>
      </g>
     </g>
     <g id="text_3">
      <!-- 0 -->
      <g transform="translate(166.156875 220.622594) scale(0.09 -0.09)">
       <defs>
        <path id="DejaVuSans-30" d="M 2034 4250 
Q 1547 4250 1301 3770 
Q 1056 3291 1056 2328 
Q 1056 1369 1301 889 
Q 1547 409 2034 409 
Q 2525 409 2770 889 
Q 3016 1369 3016 2328 
Q 3016 3291 2770 3770 
Q 2525 4250 2034 4250 
z
M 2034 4750 
Q 2819 4750 3233 4129 
Q 3647 3509 3647 2328 
Q 3647 1150 3233 529 
Q 2819 -91 2034 -91 
Q 1250 -91 836 529 
Q 422 1150 422 2328 
Q 422 3509 836 4129 
Q 1250 4750 2034 4750 
z
" transform="scale(0.015625)"/>
       </defs>
       <use xlink:href="#DejaVuSans-30"/>
      </g>
     </g>
    </g>
    <g id="xtick_4">
     <g id="line2d_4">
      <g>
       <use xlink:href="#m0e0d04b24a" x="233.748" y="206.784" style="stroke: #000000; stroke-width: 0.8"/>
      </g>
     </g>
     <g id="text_4">
      <!-- 2 -->
      <g transform="translate(230.884875 220.622594) scale(0.09 -0.09)">
       <use xlink:href="#DejaVuSans-32"/>
      </g>
     </g>
    </g>
    <g id="xtick_5">
     <g id="line2d_5">
      <g>
       <use xlink:href="#m0e0d04b24a" x="298.476" y="206.784" style="stroke: #000000; stroke-width: 0.8"/>
      </g>
     </g>
     <g id="text_5">
      <!-- 4 -->
      <g transform="translate(295.612875 220.622594) scale(0.09 -0.09)">
       <use xlink:href="#DejaVuSans-34"/>
      </g>
     </g>
    </g>
   </g>
   <g id="matplotlib.axis_2"/>
   <g id="line2d_6">
    <path d="M 7.2 206.784 
L 103.91379 206.784 
L 104.45409 138.782548 
L 233.58591 138.782548 
L 234.12621 206.784 
L 330.84 206.784 
L 330.84 206.784 
" clip-path="url(#pee303ea614)" style="fill: none; stroke: #7f7f7f; stroke-width: 2; stroke-linecap: square"/>
   </g>
   <g id="line2d_7">
    <path d="M 7.2 206.783596 
L 48.803139 206.674514 
L 59.609149 206.426085 
L 66.633055 206.0559 
L 72.03606 205.566383 
L 76.898765 204.895358 
L 80.680868 204.167951 
L 84.462972 203.209533 
L 87.704775 202.163494 
L 90.946578 200.870965 
L 93.64808 199.577089 
L 96.349583 198.06108 
L 99.051085 196.299478 
L 101.752588 194.26962 
L 104.45409 191.950487 
L 107.155593 189.323659 
L 109.857095 186.374358 
L 112.558598 183.092528 
L 115.2601 179.473937 
L 117.961603 175.521239 
L 121.203406 170.352374 
L 124.445209 164.752748 
L 128.227312 157.748826 
L 133.090017 148.190075 
L 144.976628 124.437901 
L 148.218431 118.520304 
L 150.919933 113.979423 
L 153.621436 109.882461 
L 155.782638 106.977009 
L 157.94384 104.441833 
L 160.105042 102.309186 
L 161.725943 100.990636 
L 163.346845 99.923824 
L 164.967746 99.116662 
L 166.588648 98.575169 
L 168.209549 98.303402 
L 169.830451 98.303402 
L 171.451352 98.575169 
L 173.072254 99.116662 
L 174.693155 99.923824 
L 176.314057 100.990636 
L 177.934958 102.309186 
L 179.55586 103.869773 
L 181.717062 106.307167 
L 183.878264 109.123306 
L 186.039466 112.282864 
L 188.740968 116.655914 
L 191.982771 122.416817 
L 195.764875 129.658408 
L 201.70818 141.625809 
L 208.732087 155.669661 
L 213.054491 163.781109 
L 216.296294 169.447799 
L 219.538097 174.691383 
L 222.7799 179.473937 
L 225.481402 183.092528 
L 228.182905 186.374358 
L 230.884407 189.323659 
L 233.58591 191.950487 
L 236.287412 194.26962 
L 238.988915 196.299478 
L 241.690417 198.06108 
L 244.39192 199.577089 
L 247.093422 200.870965 
L 250.335225 202.163494 
L 253.577028 203.209533 
L 257.359132 204.167951 
L 261.141235 204.895358 
L 265.463639 205.504097 
L 270.866644 206.016519 
L 277.35025 206.38354 
L 285.995058 206.62596 
L 299.502571 206.751951 
L 330.84 206.783596 
L 330.84 206.783596 
" clip-path="url(#pee303ea614)" style="fill: none; stroke: #1f77b4; stroke-width: 2.2; stroke-linecap: square"/>
   </g>
   <g id="line2d_8">
    <path d="M 7.2 206.620643 
L 29.352321 206.353938 
L 43.940434 205.970465 
L 54.746444 205.479494 
L 63.391252 204.880722 
L 70.955459 204.135186 
L 77.439065 203.267638 
L 82.84207 202.331247 
L 87.704775 201.277062 
L 92.027179 200.132214 
L 96.349583 198.749362 
L 100.131686 197.305473 
L 103.91379 195.602105 
L 107.155593 193.900422 
L 110.397396 191.939775 
L 113.639199 189.680753 
L 116.340701 187.53775 
L 119.042204 185.126234 
L 121.743706 182.412559 
L 124.445209 179.358867 
L 127.146711 175.922553 
L 129.848214 172.055676 
L 132.549716 167.704287 
L 134.710918 163.833779 
L 136.87212 159.579931 
L 139.033322 154.904776 
L 141.194524 149.766588 
L 143.355726 144.119506 
L 145.516928 137.91313 
L 147.67813 131.092066 
L 149.839332 123.595435 
L 152.000534 115.356327 
L 154.161736 106.301207 
L 156.322938 96.349255 
L 158.48414 85.411649 
L 160.645342 73.390767 
L 162.806544 60.179321 
L 164.967746 45.659395 
L 167.128948 29.701396 
L 168.74985 16.704 
L 169.29015 16.704 
L 171.451352 33.833274 
L 173.612554 49.418924 
L 175.773756 63.600055 
L 177.934958 76.503238 
L 180.09616 88.243636 
L 182.257362 98.926034 
L 184.418564 108.645777 
L 186.579766 117.489613 
L 188.740968 125.536478 
L 190.90217 132.85819 
L 193.063372 139.520098 
L 195.224574 145.58166 
L 197.385776 151.096978 
L 199.546978 156.115277 
L 201.70818 160.681346 
L 204.409683 165.814715 
L 207.111185 170.376501 
L 209.812688 174.430349 
L 212.51419 178.032814 
L 215.215693 181.234158 
L 217.917195 184.079043 
L 220.618698 186.607161 
L 223.3202 188.853781 
L 226.021703 190.850248 
L 229.263506 192.954802 
L 232.505309 194.781383 
L 235.747112 196.366706 
L 239.529215 197.953601 
L 243.311319 199.298759 
L 247.633723 200.587054 
L 251.956127 201.653619 
L 256.818831 202.63572 
L 262.221836 203.508082 
L 268.705442 204.316308 
L 276.269649 205.010865 
L 284.914457 205.568694 
L 295.720467 206.026094 
L 309.22798 206.363972 
L 328.138497 206.600175 
L 330.84 206.620643 
L 330.84 206.620643 
" clip-path="url(#pee303ea614)" style="fill: none; stroke: #ff7f0e; stroke-width: 2.2; stroke-linecap: square"/>
   </g>
   <g id="patch_3">
    <path d="M 7.2 206.784 
L 7.2 7.2 
" style="fill: none; stroke: #000000; stroke-width: 0.8; stroke-linejoin: miter; stroke-linecap: square"/>
   </g>
   <g id="patch_4">
    <path d="M 7.2 206.784 
L 330.84 206.784 
" style="fill: none; stroke: #000000; stroke-width: 0.8; stroke-linejoin: miter; stroke-linecap: square"/>
   </g>
   <g id="legend_1">
    <g id="line2d_9">
     <path d="M 219.6 18.99 
L 228.6 18.99 
L 237.6 18.99 
" style="fill: none; stroke: #7f7f7f; stroke-width: 2; stroke-linecap: square"/>
    </g>
    <g id="text_6">
     <!-- Uniform on $[-2,2]$ -->
     <g transform="translate(244.8 22.14) scale(0.09 -0.09)">
      <defs>
       <path id="DejaVuSans-55" d="M 556 4666 
L 1191 4666 
L 1191 1831 
Q 1191 1081 1462 751 
Q 1734 422 2344 422 
Q 2950 422 3222 751 
Q 3494 1081 3494 1831 
L 3494 4666 
L 4128 4666 
L 4128 1753 
Q 4128 841 3676 375 
Q 3225 -91 2344 -91 
Q 1459 -91 1007 375 
Q 556 841 556 1753 
L 556 4666 
z
" transform="scale(0.015625)"/>
       <path id="DejaVuSans-6e" d="M 3513 2113 
L 3513 0 
L 2938 0 
L 2938 2094 
Q 2938 2591 2744 2837 
Q 2550 3084 2163 3084 
Q 1697 3084 1428 2787 
Q 1159 2491 1159 1978 
L 1159 0 
L 581 0 
L 581 3500 
L 1159 3500 
L 1159 2956 
Q 1366 3272 1645 3428 
Q 1925 3584 2291 3584 
Q 2894 3584 3203 3211 
Q 3513 2838 3513 2113 
z
" transform="scale(0.015625)"/>
       <path id="DejaVuSans-69" d="M 603 3500 
L 1178 3500 
L 1178 0 
L 603 0 
L 603 3500 
z
M 603 4863 
L 1178 4863 
L 1178 4134 
L 603 4134 
L 603 4863 
z
" transform="scale(0.015625)"/>
       <path id="DejaVuSans-66" d="M 2375 4863 
L 2375 4384 
L 1825 4384 
Q 1516 4384 1395 4259 
Q 1275 4134 1275 3809 
L 1275 3500 
L 2222 3500 
L 2222 3053 
L 1275 3053 
L 1275 0 
L 697 0 
L 697 3053 
L 147 3053 
L 147 3500 
L 697 3500 
L 697 3744 
Q 697 4328 969 4595 
Q 1241 4863 1831 4863 
L 2375 4863 
z
" transform="scale(0.015625)"/>
       <path id="DejaVuSans-6f" d="M 1959 3097 
Q 1497 3097 1228 2736 
Q 959 2375 959 1747 
Q 959 1119 1226 758 
Q 1494 397 1959 397 
Q 2419 397 2687 759 
Q 2956 1122 2956 1747 
Q 2956 2369 2687 2733 
Q 2419 3097 1959 3097 
z
M 1959 3584 
Q 2709 3584 3137 3096 
Q 3566 2609 3566 1747 
Q 3566 888 3137 398 
Q 2709 -91 1959 -91 
Q 1206 -91 779 398 
Q 353 888 353 1747 
Q 353 2609 779 3096 
Q 1206 3584 1959 3584 
z
" transform="scale(0.015625)"/>
       <path id="DejaVuSans-72" d="M 2631 2963 
Q 2534 3019 2420 3045 
Q 2306 3072 2169 3072 
Q 1681 3072 1420 2755 
Q 1159 2438 1159 1844 
L 1159 0 
L 581 0 
L 581 3500 
L 1159 3500 
L 1159 2956 
Q 1341 3275 1631 3429 
Q 1922 3584 2338 3584 
Q 2397 3584 2469 3576 
Q 2541 3569 2628 3553 
L 2631 2963 
z
" transform="scale(0.015625)"/>
       <path id="DejaVuSans-6d" d="M 3328 2828 
Q 3544 3216 3844 3400 
Q 4144 3584 4550 3584 
Q 5097 3584 5394 3201 
Q 5691 2819 5691 2113 
L 5691 0 
L 5113 0 
L 5113 2094 
Q 5113 2597 4934 2840 
Q 4756 3084 4391 3084 
Q 3944 3084 3684 2787 
Q 3425 2491 3425 1978 
L 3425 0 
L 2847 0 
L 2847 2094 
Q 2847 2600 2669 2842 
Q 2491 3084 2119 3084 
Q 1678 3084 1418 2786 
Q 1159 2488 1159 1978 
L 1159 0 
L 581 0 
L 581 3500 
L 1159 3500 
L 1159 2956 
Q 1356 3278 1631 3431 
Q 1906 3584 2284 3584 
Q 2666 3584 2933 3390 
Q 3200 3197 3328 2828 
z
" transform="scale(0.015625)"/>
       <path id="DejaVuSans-20" transform="scale(0.015625)"/>
       <path id="Cmr10-5b" d="M 756 -1600 
L 756 4800 
L 1631 4800 
L 1631 4544 
L 1013 4544 
L 1013 -1344 
L 1631 -1344 
L 1631 -1600 
L 756 -1600 
z
" transform="scale(0.015625)"/>
       <path id="Cmsy10-a1" d="M 653 1472 
Q 600 1472 565 1512 
Q 531 1553 531 1600 
Q 531 1647 565 1687 
Q 600 1728 653 1728 
L 4325 1728 
Q 4375 1728 4408 1687 
Q 4441 1647 4441 1600 
Q 4441 1553 4408 1512 
Q 4375 1472 4325 1472 
L 653 1472 
z
" transform="scale(0.015625)"/>
       <path id="Cmr10-32" d="M 319 0 
L 319 172 
Q 319 188 331 206 
L 1325 1306 
Q 1550 1550 1690 1715 
Q 1831 1881 1968 2097 
Q 2106 2313 2186 2536 
Q 2266 2759 2266 3009 
Q 2266 3272 2169 3511 
Q 2072 3750 1880 3894 
Q 1688 4038 1416 4038 
Q 1138 4038 916 3870 
Q 694 3703 603 3438 
Q 628 3444 672 3444 
Q 816 3444 917 3347 
Q 1019 3250 1019 3097 
Q 1019 2950 917 2848 
Q 816 2747 672 2747 
Q 522 2747 420 2851 
Q 319 2956 319 3097 
Q 319 3338 409 3548 
Q 500 3759 670 3923 
Q 841 4088 1055 4175 
Q 1269 4263 1509 4263 
Q 1875 4263 2190 4108 
Q 2506 3953 2690 3670 
Q 2875 3388 2875 3009 
Q 2875 2731 2753 2481 
Q 2631 2231 2440 2026 
Q 2250 1822 1953 1562 
Q 1656 1303 1563 1216 
L 838 519 
L 1453 519 
Q 1906 519 2211 526 
Q 2516 534 2534 550 
Q 2609 631 2688 1141 
L 2875 1141 
L 2694 0 
L 319 0 
z
" transform="scale(0.015625)"/>
       <path id="Cmmi10-3b" d="M 634 -1153 
Q 634 -1125 659 -1100 
Q 891 -878 1019 -587 
Q 1147 -297 1147 25 
L 1147 103 
Q 1044 0 891 0 
Q 744 0 641 103 
Q 538 206 538 353 
Q 538 503 641 603 
Q 744 703 891 703 
Q 1119 703 1216 492 
Q 1313 281 1313 25 
Q 1313 -331 1170 -651 
Q 1028 -972 769 -1228 
Q 744 -1241 728 -1241 
Q 697 -1241 665 -1212 
Q 634 -1184 634 -1153 
z
" transform="scale(0.015625)"/>
       <path id="Cmr10-5d" d="M 141 -1600 
L 141 -1344 
L 763 -1344 
L 763 4544 
L 141 4544 
L 141 4800 
L 1019 4800 
L 1019 -1600 
L 141 -1600 
z
" transform="scale(0.015625)"/>
      </defs>
      <use xlink:href="#DejaVuSans-55" transform="translate(0 0.015625)"/>
      <use xlink:href="#DejaVuSans-6e" transform="translate(73.193359 0.015625)"/>
      <use xlink:href="#DejaVuSans-69" transform="translate(136.572266 0.015625)"/>
      <use xlink:href="#DejaVuSans-66" transform="translate(164.355469 0.015625)"/>
      <use xlink:href="#DejaVuSans-6f" transform="translate(199.560547 0.015625)"/>
      <use xlink:href="#DejaVuSans-72" transform="translate(260.742188 0.015625)"/>
      <use xlink:href="#DejaVuSans-6d" transform="translate(301.855469 0.015625)"/>
      <use xlink:href="#DejaVuSans-20" transform="translate(399.267578 0.015625)"/>
      <use xlink:href="#DejaVuSans-6f" transform="translate(431.054688 0.015625)"/>
      <use xlink:href="#DejaVuSans-6e" transform="translate(492.236328 0.015625)"/>
      <use xlink:href="#DejaVuSans-20" transform="translate(555.615234 0.015625)"/>
      <use xlink:href="#Cmr10-5b" transform="translate(587.402344 0.015625)"/>
      <use xlink:href="#Cmsy10-a1" transform="translate(615.087891 0.015625)"/>
      <use xlink:href="#Cmr10-32" transform="translate(692.773438 0.015625)"/>
      <use xlink:href="#Cmmi10-3b" transform="translate(742.773438 0.015625)"/>
      <use xlink:href="#Cmr10-32" transform="translate(788.017578 0.015625)"/>
      <use xlink:href="#Cmr10-5d" transform="translate(838.017578 0.015625)"/>
     </g>
    </g>
    <g id="line2d_10">
     <path d="M 219.6 32.76 
L 228.6 32.76 
L 237.6 32.76 
" style="fill: none; stroke: #1f77b4; stroke-width: 2.2; stroke-linecap: square"/>
    </g>
    <g id="text_7">
     <!-- $\mathcal{N}(0,1)$ -->
     <g transform="translate(244.8 35.91) scale(0.09 -0.09)">
      <defs>
       <path id="Cmsy10-4e" d="M -184 13 
Q -184 131 -103 322 
Q -22 513 72 513 
Q 84 513 91 506 
Q 294 294 594 294 
Q 763 294 892 598 
Q 1022 903 1147 1306 
Q 1213 1509 1308 1837 
Q 1403 2166 1453 2369 
Q 1497 2538 1558 2827 
Q 1619 3116 1658 3331 
Q 1697 3547 1728 3772 
Q 1759 3997 1784 4244 
Q 1784 4278 1831 4325 
Q 1900 4397 1997 4453 
Q 2088 4494 2181 4513 
L 2234 4513 
Q 2272 4494 2278 4469 
Q 2438 3909 2675 3200 
Q 2891 2544 3044 2125 
Q 3197 1706 3405 1242 
Q 3613 778 3859 384 
Q 4194 1819 4525 2988 
L 4609 3284 
Q 4747 3769 4836 4039 
Q 4925 4309 5063 4525 
Q 5175 4700 5356 4800 
Q 5538 4900 5753 4942 
Q 5969 4984 6203 4984 
Q 6259 4984 6259 4878 
Q 6259 4803 6226 4686 
Q 6194 4569 6137 4478 
Q 6081 4388 6009 4372 
Q 5756 4372 5557 4331 
Q 5359 4291 5197 4184 
Q 5116 4125 5102 4094 
Q 5088 4063 5038 3909 
Q 4956 3684 4872 3366 
L 4788 3078 
Q 4625 2491 4498 2006 
Q 4372 1522 4256 1045 
Q 4141 569 4031 84 
Q 4034 84 4029 92 
Q 4025 100 4025 103 
Q 4025 47 3951 -15 
Q 3878 -78 3783 -120 
Q 3688 -163 3628 -172 
L 3584 -172 
Q 3478 -119 3222 368 
Q 2966 856 2834 1172 
Q 2359 2347 1966 3628 
Q 1916 3319 1759 2648 
Q 1603 1978 1387 1297 
Q 1172 616 914 148 
Q 656 -319 397 -319 
Q 231 -319 23 -225 
Q -184 -131 -184 13 
z
" transform="scale(0.015625)"/>
       <path id="Cmr10-28" d="M 1984 -1588 
Q 1628 -1306 1370 -942 
Q 1113 -578 948 -165 
Q 784 247 703 697 
Q 622 1147 622 1600 
Q 622 2059 703 2509 
Q 784 2959 951 3375 
Q 1119 3791 1378 4153 
Q 1638 4516 1984 4788 
Q 1984 4800 2016 4800 
L 2075 4800 
Q 2094 4800 2109 4783 
Q 2125 4766 2125 4744 
Q 2125 4716 2113 4703 
Q 1800 4397 1592 4047 
Q 1384 3697 1257 3301 
Q 1131 2906 1075 2482 
Q 1019 2059 1019 1600 
Q 1019 -434 2106 -1491 
Q 2125 -1509 2125 -1544 
Q 2125 -1559 2108 -1579 
Q 2091 -1600 2075 -1600 
L 2016 -1600 
Q 1984 -1600 1984 -1588 
z
" transform="scale(0.015625)"/>
       <path id="Cmr10-30" d="M 1600 -141 
Q 816 -141 533 504 
Q 250 1150 250 2041 
Q 250 2597 351 3087 
Q 453 3578 754 3920 
Q 1056 4263 1600 4263 
Q 2022 4263 2290 4056 
Q 2559 3850 2700 3523 
Q 2841 3197 2892 2823 
Q 2944 2450 2944 2041 
Q 2944 1491 2842 1011 
Q 2741 531 2444 195 
Q 2147 -141 1600 -141 
z
M 1600 25 
Q 1956 25 2131 390 
Q 2306 756 2347 1200 
Q 2388 1644 2388 2144 
Q 2388 2625 2347 3031 
Q 2306 3438 2132 3767 
Q 1959 4097 1600 4097 
Q 1238 4097 1063 3765 
Q 888 3434 847 3029 
Q 806 2625 806 2144 
Q 806 1788 823 1472 
Q 841 1156 916 820 
Q 991 484 1158 254 
Q 1325 25 1600 25 
z
" transform="scale(0.015625)"/>
       <path id="Cmr10-31" d="M 594 0 
L 594 225 
Q 1394 225 1394 428 
L 1394 3788 
Q 1063 3628 556 3628 
L 556 3853 
Q 1341 3853 1741 4263 
L 1831 4263 
Q 1853 4263 1873 4245 
Q 1894 4228 1894 4206 
L 1894 428 
Q 1894 225 2694 225 
L 2694 0 
L 594 0 
z
" transform="scale(0.015625)"/>
       <path id="Cmr10-29" d="M 416 -1600 
Q 359 -1600 359 -1544 
Q 359 -1516 372 -1503 
Q 1466 -434 1466 1600 
Q 1466 3634 384 4691 
Q 359 4706 359 4744 
Q 359 4766 376 4783 
Q 394 4800 416 4800 
L 475 4800 
Q 494 4800 506 4788 
Q 966 4425 1272 3906 
Q 1578 3388 1720 2800 
Q 1863 2213 1863 1600 
Q 1863 1147 1786 708 
Q 1709 269 1542 -157 
Q 1375 -584 1119 -945 
Q 863 -1306 506 -1588 
Q 494 -1600 475 -1600 
L 416 -1600 
z
" transform="scale(0.015625)"/>
      </defs>
      <use xlink:href="#Cmsy10-4e" transform="translate(0 0.125)"/>
      <use xlink:href="#Cmr10-28" transform="translate(81.982422 0.125)"/>
      <use xlink:href="#Cmr10-30" transform="translate(120.800781 0.125)"/>
      <use xlink:href="#Cmmi10-3b" transform="translate(170.800781 0.125)"/>
      <use xlink:href="#Cmr10-31" transform="translate(216.044922 0.125)"/>
      <use xlink:href="#Cmr10-29" transform="translate(266.044922 0.125)"/>
     </g>
    </g>
    <g id="line2d_11">
     <path d="M 219.6 46.35 
L 228.6 46.35 
L 237.6 46.35 
" style="fill: none; stroke: #ff7f0e; stroke-width: 2.2; stroke-linecap: square"/>
    </g>
    <g id="text_8">
     <!-- Laplace, var $1$ -->
     <g transform="translate(244.8 49.5) scale(0.09 -0.09)">
      <defs>
       <path id="DejaVuSans-4c" d="M 628 4666 
L 1259 4666 
L 1259 531 
L 3531 531 
L 3531 0 
L 628 0 
L 628 4666 
z
" transform="scale(0.015625)"/>
       <path id="DejaVuSans-61" d="M 2194 1759 
Q 1497 1759 1228 1600 
Q 959 1441 959 1056 
Q 959 750 1161 570 
Q 1363 391 1709 391 
Q 2188 391 2477 730 
Q 2766 1069 2766 1631 
L 2766 1759 
L 2194 1759 
z
M 3341 1997 
L 3341 0 
L 2766 0 
L 2766 531 
Q 2569 213 2275 61 
Q 1981 -91 1556 -91 
Q 1019 -91 701 211 
Q 384 513 384 1019 
Q 384 1609 779 1909 
Q 1175 2209 1959 2209 
L 2766 2209 
L 2766 2266 
Q 2766 2663 2505 2880 
Q 2244 3097 1772 3097 
Q 1472 3097 1187 3025 
Q 903 2953 641 2809 
L 641 3341 
Q 956 3463 1253 3523 
Q 1550 3584 1831 3584 
Q 2591 3584 2966 3190 
Q 3341 2797 3341 1997 
z
" transform="scale(0.015625)"/>
       <path id="DejaVuSans-70" d="M 1159 525 
L 1159 -1331 
L 581 -1331 
L 581 3500 
L 1159 3500 
L 1159 2969 
Q 1341 3281 1617 3432 
Q 1894 3584 2278 3584 
Q 2916 3584 3314 3078 
Q 3713 2572 3713 1747 
Q 3713 922 3314 415 
Q 2916 -91 2278 -91 
Q 1894 -91 1617 61 
Q 1341 213 1159 525 
z
M 3116 1747 
Q 3116 2381 2855 2742 
Q 2594 3103 2138 3103 
Q 1681 3103 1420 2742 
Q 1159 2381 1159 1747 
Q 1159 1113 1420 752 
Q 1681 391 2138 391 
Q 2594 391 2855 752 
Q 3116 1113 3116 1747 
z
" transform="scale(0.015625)"/>
       <path id="DejaVuSans-6c" d="M 603 4863 
L 1178 4863 
L 1178 0 
L 603 0 
L 603 4863 
z
" transform="scale(0.015625)"/>
       <path id="DejaVuSans-63" d="M 3122 3366 
L 3122 2828 
Q 2878 2963 2633 3030 
Q 2388 3097 2138 3097 
Q 1578 3097 1268 2742 
Q 959 2388 959 1747 
Q 959 1106 1268 751 
Q 1578 397 2138 397 
Q 2388 397 2633 464 
Q 2878 531 3122 666 
L 3122 134 
Q 2881 22 2623 -34 
Q 2366 -91 2075 -91 
Q 1284 -91 818 406 
Q 353 903 353 1747 
Q 353 2603 823 3093 
Q 1294 3584 2113 3584 
Q 2378 3584 2631 3529 
Q 2884 3475 3122 3366 
z
" transform="scale(0.015625)"/>
       <path id="DejaVuSans-65" d="M 3597 1894 
L 3597 1613 
L 953 1613 
Q 991 1019 1311 708 
Q 1631 397 2203 397 
Q 2534 397 2845 478 
Q 3156 559 3463 722 
L 3463 178 
Q 3153 47 2828 -22 
Q 2503 -91 2169 -91 
Q 1331 -91 842 396 
Q 353 884 353 1716 
Q 353 2575 817 3079 
Q 1281 3584 2069 3584 
Q 2775 3584 3186 3129 
Q 3597 2675 3597 1894 
z
M 3022 2063 
Q 3016 2534 2758 2815 
Q 2500 3097 2075 3097 
Q 1594 3097 1305 2825 
Q 1016 2553 972 2059 
L 3022 2063 
z
" transform="scale(0.015625)"/>
       <path id="DejaVuSans-2c" d="M 750 794 
L 1409 794 
L 1409 256 
L 897 -744 
L 494 -744 
L 750 256 
L 750 794 
z
" transform="scale(0.015625)"/>
       <path id="DejaVuSans-76" d="M 191 3500 
L 800 3500 
L 1894 563 
L 2988 3500 
L 3597 3500 
L 2284 0 
L 1503 0 
L 191 3500 
z
" transform="scale(0.015625)"/>
      </defs>
      <use xlink:href="#DejaVuSans-4c" transform="translate(0 0.015625)"/>
      <use xlink:href="#DejaVuSans-61" transform="translate(55.712891 0.015625)"/>
      <use xlink:href="#DejaVuSans-70" transform="translate(116.992188 0.015625)"/>
      <use xlink:href="#DejaVuSans-6c" transform="translate(180.46875 0.015625)"/>
      <use xlink:href="#DejaVuSans-61" transform="translate(208.251953 0.015625)"/>
      <use xlink:href="#DejaVuSans-63" transform="translate(269.53125 0.015625)"/>
      <use xlink:href="#DejaVuSans-65" transform="translate(324.511719 0.015625)"/>
      <use xlink:href="#DejaVuSans-2c" transform="translate(386.035156 0.015625)"/>
      <use xlink:href="#DejaVuSans-20" transform="translate(417.822266 0.015625)"/>
      <use xlink:href="#DejaVuSans-76" transform="translate(449.609375 0.015625)"/>
      <use xlink:href="#DejaVuSans-61" transform="translate(508.789062 0.015625)"/>
      <use xlink:href="#DejaVuSans-72" transform="translate(570.068359 0.015625)"/>
      <use xlink:href="#DejaVuSans-20" transform="translate(611.181641 0.015625)"/>
      <use xlink:href="#Cmr10-31" transform="translate(642.96875 0.015625)"/>
     </g>
    </g>
   </g>
  </g>
 </g>
 <defs>
  <clipPath id="pee303ea614">
   <rect x="7.2" y="7.2" width="323.64" height="199.584"/>
  </clipPath>
 </defs>
</svg>
