<?xml version="1.0" encoding="utf-8" standalone="no"?>
<!DOCTYPE svg PUBLIC "-//W3C//DTD SVG 1.1//EN"
  "http://www.w3.org/Graphics/SVG/1.1/DTD/svg11.dtd">
<svg xmlns:xlink="http://www.w3.org/1999/xlink" width="527.76pt" height="210.545455pt" viewBox="0 0 527.76 210.545455" xmlns="http://www.w3.org/2000/svg" version="1.1">
 <metadata>
  <rdf:RDF xmlns:dc="http://purl.org/dc/elements/1.1/" xmlns:cc="http://creativecommons.org/ns#" xmlns:rdf="http://www.w3.org/1999/02/22-rdf-syntax-ns#">
   <cc:Work>
    <dc:type rdf:resource="http://purl.org/dc/dcmitype/StillImage"/>
    <dc:format>image/svg+xml</dc:format>
    <dc:creator>
     <cc:Agent>
      <dc:title>Matplotlib v3.10.8, https://matplotlib.org/</dc:title>
     </cc:Agent>
    </dc:creator>
   </cc:Work>
  </rdf:RDF>
 </metadata>
 <defs>
  <style type="text/css">*{stroke-linejoin: round; stroke-linecap: butt}</style>
 </defs>
 <g id="figure_1">
  <g id="patch_1">
   <path d="M 0 210.545455 
L 527.76 210.545455 
L 527.76 0 
L 0 0 
z
" style="fill: #ffffff"/>
  </g>
  <g id="axes_1">
   <g id="patch_2">
    <path d="M 7.2 203.345455 
L 156 203.345455 
L 156 98.509091 
L 7.2 98.509091 
z
" clip-path="url(#p8c5ab9531e)" style="fill: #1f77b4; opacity: 0.12"/>
   </g>
   <g id="line2d_1">
    <path d="M 7.2 98.509091 
L 156 98.509091 
" clip-path="url(#p8c5ab9531e)" style="fill: none; stroke: #1f77b4; stroke-width: 2; stroke-linecap: square"/>
   </g>
   <g id="line2d_2">
    <path d="M 156 203.345455 
L 156 98.509091 
" clip-path="url(#p8c5ab9531e)" style="fill: none; stroke: #1f77b4; stroke-width: 2; stroke-linecap: square"/>
   </g>
   <g id="patch_3">
    <path d="M 81.6 98.509091 
C 97.743636 98.509091 113.228244 92.095156 124.643518 80.679882 
C 136.058793 69.264607 142.472727 53.78 142.472727 37.636364 
C 142.472727 21.492728 136.058793 6.00812 124.643518 -5.407155 
C 113.228244 -16.822429 97.743636 -23.236364 81.6 -23.236364 
C 65.456364 -23.236364 49.971756 -16.822429 38.556482 -5.407155 
C 27.141207 6.00812 20.727273 21.492728 20.727273 37.636364 
C 20.727273 53.78 27.141207 69.264607 38.556482 80.679882 
C 49.971756 92.095156 65.456364 98.509091 81.6 98.509091 
L 81.6 98.509091 
z
" clip-path="url(#p8c5ab9531e)" style="fill: none; opacity: 0.9; stroke: #ff7f0e; stroke-width: 1.2; stroke-linejoin: miter"/>
   </g>
   <g id="patch_4">
    <path d="M 81.6 128.945455 
C 105.815454 128.945455 129.042366 119.324553 146.165277 102.201641 
C 163.288189 85.078729 172.909091 61.851818 172.909091 37.636364 
C 172.909091 13.42091 163.288189 -9.806002 146.165277 -26.928914 
C 129.042366 -44.051825 105.815454 -53.672727 81.6 -53.672727 
C 57.384546 -53.672727 34.157634 -44.051825 17.034723 -26.928914 
C -0.088189 -9.806002 -9.709091 13.42091 -9.709091 37.636364 
C -9.709091 61.851818 -0.088189 85.078729 17.034723 102.201641 
C 34.157634 119.324553 57.384546 128.945455 81.6 128.945455 
L 81.6 128.945455 
z
" clip-path="url(#p8c5ab9531e)" style="fill: none; opacity: 0.65; stroke: #ff7f0e; stroke-width: 1.2; stroke-linejoin: miter"/>
   </g>
   <g id="patch_5">
    <path d="M 81.6 159.381818 
C 113.887272 159.381818 144.856488 146.553949 167.687036 123.7234 
C 190.517585 100.892851 203.345455 69.923636 203.345455 37.636364 
C 203.345455 5.349092 190.517585 -25.620124 167.687036 -48.450673 
C 144.856488 -71.281222 113.887272 -84.109091 81.6 -84.109091 
C 49.312728 -84.109091 18.343512 -71.281222 -4.487036 -48.450673 
C -27.317585 -25.620124 -40.145455 5.349092 -40.145455 37.636364 
C -40.145455 69.923636 -27.317585 100.892851 -4.487036 123.7234 
C 18.343512 146.553949 49.312728 159.381818 81.6 159.381818 
L 81.6 159.381818 
z
" clip-path="url(#p8c5ab9531e)" style="fill: none; opacity: 0.4; stroke: #ff7f0e; stroke-width: 1.2; stroke-linejoin: miter"/>
   </g>
   <g id="text_1">
    <!-- feasible -->
    <g style="fill: #1f77b4" transform="translate(36.43946 169.180767) scale(0.11 -0.11)">
     <defs>
      <path id="DejaVuSans-66" d="M 2375 4863 
L 2375 4384 
L 1825 4384 
Q 1516 4384 1395 4259 
Q 1275 4134 1275 3809 
L 1275 3500 
L 2222 3500 
L 2222 3053 
L 1275 3053 
L 1275 0 
L 697 0 
L 697 3053 
L 147 3053 
L 147 3500 
L 697 3500 
L 697 3744 
Q 697 4328 969 4595 
Q 1241 4863 1831 4863 
L 2375 4863 
z
" transform="scale(0.015625)"/>
      <path id="DejaVuSans-65" d="M 3597 1894 
L 3597 1613 
L 953 1613 
Q 991 1019 1311 708 
Q 1631 397 2203 397 
Q 2534 397 2845 478 
Q 3156 559 3463 722 
L 3463 178 
Q 3153 47 2828 -22 
Q 2503 -91 2169 -91 
Q 1331 -91 842 396 
Q 353 884 353 1716 
Q 353 2575 817 3079 
Q 1281 3584 2069 3584 
Q 2775 3584 3186 3129 
Q 3597 2675 3597 1894 
z
M 3022 2063 
Q 3016 2534 2758 2815 
Q 2500 3097 2075 3097 
Q 1594 3097 1305 2825 
Q 1016 2553 972 2059 
L 3022 2063 
z
" transform="scale(0.015625)"/>
      <path id="DejaVuSans-61" d="M 2194 1759 
Q 1497 1759 1228 1600 
Q 959 1441 959 1056 
Q 959 750 1161 570 
Q 1363 391 1709 391 
Q 2188 391 2477 730 
Q 2766 1069 2766 1631 
L 2766 1759 
L 2194 1759 
z
M 3341 1997 
L 3341 0 
L 2766 0 
L 2766 531 
Q 2569 213 2275 61 
Q 1981 -91 1556 -91 
Q 1019 -91 701 211 
Q 384 513 384 1019 
Q 384 1609 779 1909 
Q 1175 2209 1959 2209 
L 2766 2209 
L 2766 2266 
Q 2766 2663 2505 2880 
Q 2244 3097 1772 3097 
Q 1472 3097 1187 3025 
Q 903 2953 641 2809 
L 641 3341 
Q 956 3463 1253 3523 
Q 1550 3584 1831 3584 
Q 2591 3584 2966 3190 
Q 3341 2797 3341 1997 
z
" transform="scale(0.015625)"/>
      <path id="DejaVuSans-73" d="M 2834 3397 
L 2834 2853 
Q 2591 2978 2328 3040 
Q 2066 3103 1784 3103 
Q 1356 3103 1142 2972 
Q 928 2841 928 2578 
Q 928 2378 1081 2264 
Q 1234 2150 1697 2047 
L 1894 2003 
Q 2506 1872 2764 1633 
Q 3022 1394 3022 966 
Q 3022 478 2636 193 
Q 2250 -91 1575 -91 
Q 1294 -91 989 -36 
Q 684 19 347 128 
L 347 722 
Q 666 556 975 473 
Q 1284 391 1588 391 
Q 1994 391 2212 530 
Q 2431 669 2431 922 
Q 2431 1156 2273 1281 
Q 2116 1406 1581 1522 
L 1381 1569 
Q 847 1681 609 1914 
Q 372 2147 372 2553 
Q 372 3047 722 3315 
Q 1072 3584 1716 3584 
Q 2034 3584 2315 3537 
Q 2597 3491 2834 3397 
z
" transform="scale(0.015625)"/>
      <path id="DejaVuSans-69" d="M 603 3500 
L 1178 3500 
L 1178 0 
L 603 0 
L 603 3500 
z
M 603 4863 
L 1178 4863 
L 1178 4134 
L 603 4134 
L 603 4863 
z
" transform="scale(0.015625)"/>
      <path id="DejaVuSans-62" d="M 3116 1747 
Q 3116 2381 2855 2742 
Q 2594 3103 2138 3103 
Q 1681 3103 1420 2742 
Q 1159 2381 1159 1747 
Q 1159 1113 1420 752 
Q 1681 391 2138 391 
Q 2594 391 2855 752 
Q 3116 1113 3116 1747 
z
M 1159 2969 
Q 1341 3281 1617 3432 
Q 1894 3584 2278 3584 
Q 2916 3584 3314 3078 
Q 3713 2572 3713 1747 
Q 3713 922 3314 415 
Q 2916 -91 2278 -91 
Q 1894 -91 1617 61 
Q 1341 213 1159 525 
L 1159 0 
L 581 0 
L 581 4863 
L 1159 4863 
L 1159 2969 
z
" transform="scale(0.015625)"/>
      <path id="DejaVuSans-6c" d="M 603 4863 
L 1178 4863 
L 1178 0 
L 603 0 
L 603 4863 
z
" transform="scale(0.015625)"/>
     </defs>
     <use xlink:href="#DejaVuSans-66"/>
     <use xlink:href="#DejaVuSans-65" transform="translate(35.205078 0)"/>
     <use xlink:href="#DejaVuSans-61" transform="translate(96.728516 0)"/>
     <use xlink:href="#DejaVuSans-73" transform="translate(158.007812 0)"/>
     <use xlink:href="#DejaVuSans-69" transform="translate(210.107422 0)"/>
     <use xlink:href="#DejaVuSans-62" transform="translate(237.890625 0)"/>
     <use xlink:href="#DejaVuSans-6c" transform="translate(301.367188 0)"/>
     <use xlink:href="#DejaVuSans-65" transform="translate(329.150391 0)"/>
    </g>
   </g>
   <g id="text_2">
    <!-- $g_1=0$ -->
    <g style="fill: #1f77b4" transform="translate(12.610909 128.488665) scale(0.11 -0.11)">
     <defs>
      <path id="Cmmi10-67" d="M 91 -916 
Q 91 -759 198 -642 
Q 306 -525 459 -525 
Q 563 -525 633 -589 
Q 703 -653 703 -756 
Q 703 -872 637 -964 
Q 572 -1056 469 -1094 
Q 641 -1147 1006 -1147 
Q 1300 -1147 1544 -920 
Q 1788 -694 1863 -397 
L 2047 353 
Q 1700 0 1325 0 
Q 1050 0 854 140 
Q 659 281 556 515 
Q 453 750 453 1013 
Q 453 1306 573 1628 
Q 694 1950 911 2225 
Q 1128 2500 1409 2664 
Q 1691 2828 2003 2828 
Q 2191 2828 2341 2725 
Q 2491 2622 2578 2450 
Q 2641 2700 2853 2700 
Q 2934 2700 2990 2651 
Q 3047 2603 3047 2522 
Q 3047 2503 3045 2493 
Q 3044 2484 3041 2472 
L 2309 -434 
Q 2259 -634 2125 -800 
Q 1991 -966 1809 -1077 
Q 1628 -1188 1412 -1250 
Q 1197 -1313 997 -1313 
Q 631 -1313 361 -1242 
Q 91 -1172 91 -916 
z
M 1338 166 
Q 1747 166 2144 728 
L 2497 2125 
Q 2453 2347 2322 2505 
Q 2191 2663 1991 2663 
Q 1778 2663 1589 2489 
Q 1400 2316 1275 2075 
Q 1156 1844 1045 1411 
Q 934 978 934 728 
Q 934 509 1034 337 
Q 1134 166 1338 166 
z
" transform="scale(0.015625)"/>
      <path id="Cmr10-31" d="M 594 0 
L 594 225 
Q 1394 225 1394 428 
L 1394 3788 
Q 1063 3628 556 3628 
L 556 3853 
Q 1341 3853 1741 4263 
L 1831 4263 
Q 1853 4263 1873 4245 
Q 1894 4228 1894 4206 
L 1894 428 
Q 1894 225 2694 225 
L 2694 0 
L 594 0 
z
" transform="scale(0.015625)"/>
      <path id="Cmr10-3d" d="M 481 850 
Q 428 850 393 890 
Q 359 931 359 978 
Q 359 1031 393 1068 
Q 428 1106 481 1106 
L 4500 1106 
Q 4547 1106 4581 1068 
Q 4616 1031 4616 978 
Q 4616 931 4581 890 
Q 4547 850 4500 850 
L 481 850 
z
M 481 2094 
Q 428 2094 393 2131 
Q 359 2169 359 2222 
Q 359 2269 393 2309 
Q 428 2350 481 2350 
L 4500 2350 
Q 4547 2350 4581 2309 
Q 4616 2269 4616 2222 
Q 4616 2169 4581 2131 
Q 4547 2094 4500 2094 
L 481 2094 
z
" transform="scale(0.015625)"/>
      <path id="Cmr10-30" d="M 1600 -141 
Q 816 -141 533 504 
Q 250 1150 250 2041 
Q 250 2597 351 3087 
Q 453 3578 754 3920 
Q 1056 4263 1600 4263 
Q 2022 4263 2290 4056 
Q 2559 3850 2700 3523 
Q 2841 3197 2892 2823 
Q 2944 2450 2944 2041 
Q 2944 1491 2842 1011 
Q 2741 531 2444 195 
Q 2147 -141 1600 -141 
z
M 1600 25 
Q 1956 25 2131 390 
Q 2306 756 2347 1200 
Q 2388 1644 2388 2144 
Q 2388 2625 2347 3031 
Q 2306 3438 2132 3767 
Q 1959 4097 1600 4097 
Q 1238 4097 1063 3765 
Q 888 3434 847 3029 
Q 806 2625 806 2144 
Q 806 1788 823 1472 
Q 841 1156 916 820 
Q 991 484 1158 254 
Q 1325 25 1600 25 
z
" transform="scale(0.015625)"/>
     </defs>
     <use xlink:href="#Cmmi10-67" transform="translate(0 0.390625)"/>
     <use xlink:href="#Cmr10-31" transform="translate(47.705078 -16.615625) scale(0.7)"/>
     <use xlink:href="#Cmr10-3d" transform="translate(106.641016 0.390625)"/>
     <use xlink:href="#Cmr10-30" transform="translate(201.885156 0.390625)"/>
    </g>
   </g>
   <g id="text_3">
    <!-- $g_2=0$ -->
    <g style="fill: #1f77b4" transform="translate(162.763636 194.860241) scale(0.11 -0.11)">
     <defs>
      <path id="Cmr10-32" d="M 319 0 
L 319 172 
Q 319 188 331 206 
L 1325 1306 
Q 1550 1550 1690 1715 
Q 1831 1881 1968 2097 
Q 2106 2313 2186 2536 
Q 2266 2759 2266 3009 
Q 2266 3272 2169 3511 
Q 2072 3750 1880 3894 
Q 1688 4038 1416 4038 
Q 1138 4038 916 3870 
Q 694 3703 603 3438 
Q 628 3444 672 3444 
Q 816 3444 917 3347 
Q 1019 3250 1019 3097 
Q 1019 2950 917 2848 
Q 816 2747 672 2747 
Q 522 2747 420 2851 
Q 319 2956 319 3097 
Q 319 3338 409 3548 
Q 500 3759 670 3923 
Q 841 4088 1055 4175 
Q 1269 4263 1509 4263 
Q 1875 4263 2190 4108 
Q 2506 3953 2690 3670 
Q 2875 3388 2875 3009 
Q 2875 2731 2753 2481 
Q 2631 2231 2440 2026 
Q 2250 1822 1953 1562 
Q 1656 1303 1563 1216 
L 838 519 
L 1453 519 
Q 1906 519 2211 526 
Q 2516 534 2534 550 
Q 2609 631 2688 1141 
L 2875 1141 
L 2694 0 
L 319 0 
z
" transform="scale(0.015625)"/>
     </defs>
     <use xlink:href="#Cmmi10-67" transform="translate(0 0.390625)"/>
     <use xlink:href="#Cmr10-32" transform="translate(47.705078 -16.615625) scale(0.7)"/>
     <use xlink:href="#Cmr10-3d" transform="translate(106.641016 0.390625)"/>
     <use xlink:href="#Cmr10-30" transform="translate(201.885156 0.390625)"/>
    </g>
   </g>
   <g id="line2d_3">
    <defs>
     <path id="m27853e24be" d="M -4 0 
L 4 0 
M 0 4 
L 0 -4 
" style="stroke: #ff7f0e; stroke-width: 1.6"/>
    </defs>
    <g clip-path="url(#p8c5ab9531e)">
     <use xlink:href="#m27853e24be" x="81.6" y="37.636364" style="fill: #ff7f0e; stroke: #ff7f0e; stroke-width: 1.6"/>
    </g>
   </g>
   <g id="patch_6">
    <path d="M 81.6 98.509091 
Q 81.6 110.345455 81.6 119.94575 
" style="fill: none; stroke: #ff7f0e; stroke-width: 2; stroke-linecap: round"/>
    <path d="M 84.4 114.34575 
L 81.6 119.94575 
L 78.8 114.34575 
" style="fill: none; stroke: #ff7f0e; stroke-width: 2; stroke-linecap: round"/>
   </g>
   <g id="text_4">
    <!-- $-\nabla f=\lambda_1\nabla g_1,$ -->
    <g style="fill: #ff7f0e" transform="translate(64.690909 181.261445) scale(0.11 -0.11)">
     <defs>
      <path id="Cmsy10-a1" d="M 653 1472 
Q 600 1472 565 1512 
Q 531 1553 531 1600 
Q 531 1647 565 1687 
Q 600 1728 653 1728 
L 4325 1728 
Q 4375 1728 4408 1687 
Q 4441 1647 4441 1600 
Q 4441 1553 4408 1512 
Q 4375 1472 4325 1472 
L 653 1472 
z
" transform="scale(0.015625)"/>
      <path id="Cmsy10-72" d="M 2503 -141 
L 300 4300 
Q 300 4306 298 4311 
Q 297 4316 294 4319 
Q 294 4372 347 4372 
L 4978 4372 
Q 5031 4372 5031 4319 
Q 5031 4313 5029 4309 
Q 5028 4306 5025 4300 
L 2822 -141 
Q 2791 -213 2706 -213 
L 2619 -213 
Q 2534 -213 2503 -141 
z
M 2847 416 
L 4569 3891 
L 1125 3891 
L 2847 416 
z
" transform="scale(0.015625)"/>
      <path id="Cmmi10-66" d="M 622 -1056 
Q 741 -1147 909 -1147 
Q 1138 -1147 1281 -641 
Q 1341 -397 1606 966 
L 1900 2534 
L 1350 2534 
Q 1288 2534 1288 2619 
Q 1313 2759 1369 2759 
L 1941 2759 
L 2016 3175 
Q 2053 3369 2084 3508 
Q 2116 3647 2152 3765 
Q 2188 3884 2259 4031 
Q 2369 4241 2555 4377 
Q 2741 4513 2956 4513 
Q 3097 4513 3230 4461 
Q 3363 4409 3447 4306 
Q 3531 4203 3531 4063 
Q 3531 3900 3423 3779 
Q 3316 3659 3163 3659 
Q 3059 3659 2986 3723 
Q 2913 3788 2913 3891 
Q 2913 4031 3008 4136 
Q 3103 4241 3244 4256 
Q 3125 4347 2950 4347 
Q 2853 4347 2767 4256 
Q 2681 4166 2656 4063 
Q 2616 3900 2478 3181 
L 2400 2759 
L 3059 2759 
Q 3122 2759 3122 2675 
Q 3119 2659 3109 2620 
Q 3100 2581 3083 2557 
Q 3066 2534 3041 2534 
L 2356 2534 
L 2059 972 
Q 2003 631 1929 279 
Q 1856 -72 1723 -442 
Q 1591 -813 1384 -1063 
Q 1178 -1313 897 -1313 
Q 681 -1313 511 -1189 
Q 341 -1066 341 -863 
Q 341 -700 445 -579 
Q 550 -459 709 -459 
Q 816 -459 887 -523 
Q 959 -588 959 -691 
Q 959 -828 857 -942 
Q 756 -1056 622 -1056 
z
" transform="scale(0.015625)"/>
      <path id="Cmmi10-b8" d="M 325 109 
Q 325 203 409 288 
L 2209 2053 
L 1575 3834 
Q 1500 4038 1417 4156 
Q 1334 4275 1178 4275 
Q 1106 4275 1106 4359 
Q 1113 4397 1138 4419 
Q 1163 4441 1203 4441 
Q 1875 4441 2016 4044 
L 3316 416 
Q 3400 144 3488 50 
Q 3519 3 3519 -13 
Q 3519 -72 3469 -72 
L 3122 -72 
Q 2963 -25 2869 206 
L 2284 1844 
L 738 25 
Q 622 -84 531 -84 
Q 450 -84 387 -28 
Q 325 28 325 109 
z
" transform="scale(0.015625)"/>
      <path id="Cmmi10-3b" d="M 634 -1153 
Q 634 -1125 659 -1100 
Q 891 -878 1019 -587 
Q 1147 -297 1147 25 
L 1147 103 
Q 1044 0 891 0 
Q 744 0 641 103 
Q 538 206 538 353 
Q 538 503 641 603 
Q 744 703 891 703 
Q 1119 703 1216 492 
Q 1313 281 1313 25 
Q 1313 -331 1170 -651 
Q 1028 -972 769 -1228 
Q 744 -1241 728 -1241 
Q 697 -1241 665 -1212 
Q 634 -1184 634 -1153 
z
" transform="scale(0.015625)"/>
     </defs>
     <use xlink:href="#Cmsy10-a1" transform="translate(0 0.484375)"/>
     <use xlink:href="#Cmsy10-72" transform="translate(77.685547 0.484375)"/>
     <use xlink:href="#Cmmi10-66" transform="translate(160.986328 0.484375)"/>
     <use xlink:href="#Cmr10-3d" transform="translate(227.421875 0.484375)"/>
     <use xlink:href="#Cmmi10-b8" transform="translate(322.666016 0.484375)"/>
     <use xlink:href="#Cmr10-31" transform="translate(380.966797 -16.521875) scale(0.7)"/>
     <use xlink:href="#Cmsy10-72" transform="translate(422.344141 0.484375)"/>
     <use xlink:href="#Cmmi10-67" transform="translate(505.644922 0.484375)"/>
     <use xlink:href="#Cmr10-31" transform="translate(553.35 -16.521875) scale(0.7)"/>
     <use xlink:href="#Cmmi10-3b" transform="translate(594.727344 0.484375)"/>
    </g>
    <!-- $\lambda_1&gt;0$ -->
    <g style="fill: #ff7f0e" transform="translate(64.690909 193.601382) scale(0.11 -0.11)">
     <defs>
      <path id="Cmmi10-3e" d="M 531 -128 
Q 531 -47 616 -6 
L 4013 1600 
L 594 3219 
Q 531 3238 531 3328 
Q 531 3372 567 3414 
Q 603 3456 659 3456 
Q 672 3456 709 3444 
L 4384 1709 
Q 4441 1681 4441 1600 
Q 4441 1516 4366 1484 
L 709 -244 
Q 672 -256 659 -256 
Q 603 -256 567 -214 
Q 531 -172 531 -128 
z
" transform="scale(0.015625)"/>
     </defs>
     <use xlink:href="#Cmmi10-b8" transform="translate(0 0.609375)"/>
     <use xlink:href="#Cmr10-31" transform="translate(58.300781 -16.396875) scale(0.7)"/>
     <use xlink:href="#Cmmi10-3e" transform="translate(117.236719 0.609375)"/>
     <use xlink:href="#Cmr10-30" transform="translate(212.480859 0.609375)"/>
    </g>
   </g>
   <g id="text_5">
    <!-- $\mathbf{x}^\star$ -->
    <g transform="translate(59.13 92.075313) scale(0.11 -0.11)">
     <defs>
      <path id="Cmb10-78" d="M 109 0 
L 109 325 
Q 628 325 678 384 
L 1381 1350 
L 588 2516 
L 141 2516 
L 141 2841 
L 1606 2841 
L 1606 2516 
L 1331 2516 
L 1766 1881 
L 2181 2463 
Q 2181 2491 2072 2503 
Q 1963 2516 1888 2516 
L 1888 2841 
L 3156 2841 
L 3156 2516 
Q 2638 2516 2584 2456 
L 1959 1594 
L 2816 325 
L 3272 325 
L 3272 0 
L 1797 0 
L 1797 325 
L 2075 325 
L 1575 1063 
L 1081 378 
Q 1081 356 1193 340 
Q 1306 325 1381 325 
L 1381 0 
L 109 0 
z
" transform="scale(0.015625)"/>
      <path id="STIXGeneral-Regular-22c6" d="M 4256 2336 
L 2810 1459 
L 3494 -83 
L 2240 1062 
L 986 -83 
L 1670 1459 
L 224 2336 
L 1901 2144 
L 2240 3821 
L 2579 2144 
L 4256 2336 
z
" transform="scale(0.015625)"/>
     </defs>
     <use xlink:href="#Cmb10-78" transform="translate(0 0.94375)"/>
     <use xlink:href="#STIXGeneral-Regular-22c6" transform="translate(69.440703 39.207812) scale(0.7)"/>
    </g>
   </g>
   <g id="patch_7">
    <path d="M 24.109091 98.509091 
Q 24.109091 83.290909 24.109091 70.085188 
" style="fill: none; stroke: #1f77b4; stroke-width: 1.8; stroke-linecap: round"/>
    <path d="M 21.309091 75.685188 
L 24.109091 70.085188 
L 26.909091 75.685188 
" style="fill: none; stroke: #1f77b4; stroke-width: 1.8; stroke-linecap: round"/>
   </g>
   <g id="text_6">
    <!-- $\nabla g_1$ -->
    <g style="fill: #1f77b4" transform="translate(27.490909 59.587514) scale(0.11 -0.11)">
     <use xlink:href="#Cmsy10-72" transform="translate(0 0.6875)"/>
     <use xlink:href="#Cmmi10-67" transform="translate(83.300781 0.6875)"/>
     <use xlink:href="#Cmr10-31" transform="translate(131.005859 -16.31875) scale(0.7)"/>
    </g>
   </g>
   <g id="text_7">
    <!-- inactive: $\lambda_2=0$ -->
    <g style="fill: #7f7f7f" transform="translate(204.940099 177.558182) rotate(-90) scale(0.11 -0.11)">
     <defs>
      <path id="DejaVuSans-6e" d="M 3513 2113 
L 3513 0 
L 2938 0 
L 2938 2094 
Q 2938 2591 2744 2837 
Q 2550 3084 2163 3084 
Q 1697 3084 1428 2787 
Q 1159 2491 1159 1978 
L 1159 0 
L 581 0 
L 581 3500 
L 1159 3500 
L 1159 2956 
Q 1366 3272 1645 3428 
Q 1925 3584 2291 3584 
Q 2894 3584 3203 3211 
Q 3513 2838 3513 2113 
z
" transform="scale(0.015625)"/>
      <path id="DejaVuSans-63" d="M 3122 3366 
L 3122 2828 
Q 2878 2963 2633 3030 
Q 2388 3097 2138 3097 
Q 1578 3097 1268 2742 
Q 959 2388 959 1747 
Q 959 1106 1268 751 
Q 1578 397 2138 397 
Q 2388 397 2633 464 
Q 2878 531 3122 666 
L 3122 134 
Q 2881 22 2623 -34 
Q 2366 -91 2075 -91 
Q 1284 -91 818 406 
Q 353 903 353 1747 
Q 353 2603 823 3093 
Q 1294 3584 2113 3584 
Q 2378 3584 2631 3529 
Q 2884 3475 3122 3366 
z
" transform="scale(0.015625)"/>
      <path id="DejaVuSans-74" d="M 1172 4494 
L 1172 3500 
L 2356 3500 
L 2356 3053 
L 1172 3053 
L 1172 1153 
Q 1172 725 1289 603 
Q 1406 481 1766 481 
L 2356 481 
L 2356 0 
L 1766 0 
Q 1100 0 847 248 
Q 594 497 594 1153 
L 594 3053 
L 172 3053 
L 172 3500 
L 594 3500 
L 594 4494 
L 1172 4494 
z
" transform="scale(0.015625)"/>
      <path id="DejaVuSans-76" d="M 191 3500 
L 800 3500 
L 1894 563 
L 2988 3500 
L 3597 3500 
L 2284 0 
L 1503 0 
L 191 3500 
z
" transform="scale(0.015625)"/>
      <path id="DejaVuSans-3a" d="M 750 794 
L 1409 794 
L 1409 0 
L 750 0 
L 750 794 
z
M 750 3309 
L 1409 3309 
L 1409 2516 
L 750 2516 
L 750 3309 
z
" transform="scale(0.015625)"/>
      <path id="DejaVuSans-20" transform="scale(0.015625)"/>
     </defs>
     <use xlink:href="#DejaVuSans-69" transform="translate(0 0.015625)"/>
     <use xlink:href="#DejaVuSans-6e" transform="translate(27.783203 0.015625)"/>
     <use xlink:href="#DejaVuSans-61" transform="translate(91.162109 0.015625)"/>
     <use xlink:href="#DejaVuSans-63" transform="translate(152.441406 0.015625)"/>
     <use xlink:href="#DejaVuSans-74" transform="translate(207.421875 0.015625)"/>
     <use xlink:href="#DejaVuSans-69" transform="translate(246.630859 0.015625)"/>
     <use xlink:href="#DejaVuSans-76" transform="translate(274.414062 0.015625)"/>
     <use xlink:href="#DejaVuSans-65" transform="translate(333.59375 0.015625)"/>
     <use xlink:href="#DejaVuSans-3a" transform="translate(395.117188 0.015625)"/>
     <use xlink:href="#DejaVuSans-20" transform="translate(428.808594 0.015625)"/>
     <use xlink:href="#Cmmi10-b8" transform="translate(460.595703 0.015625)"/>
     <use xlink:href="#Cmr10-32" transform="translate(518.896484 -16.990625) scale(0.7)"/>
     <use xlink:href="#Cmr10-3d" transform="translate(577.832422 0.015625)"/>
     <use xlink:href="#Cmr10-30" transform="translate(673.076563 0.015625)"/>
    </g>
   </g>
   <g id="line2d_4">
    <defs>
     <path id="mf89f751687" d="M 0 3.25 
C 0.86191 3.25 1.688635 2.907559 2.298097 2.298097 
C 2.907559 1.688635 3.25 0.86191 3.25 0 
C 3.25 -0.86191 2.907559 -1.688635 2.298097 -2.298097 
C 1.688635 -2.907559 0.86191 -3.25 0 -3.25 
C -0.86191 -3.25 -1.688635 -2.907559 -2.298097 -2.298097 
C -2.907559 -1.688635 -3.25 -0.86191 -3.25 0 
C -3.25 0.86191 -2.907559 1.688635 -2.298097 2.298097 
C -1.688635 2.907559 -0.86191 3.25 0 3.25 
z
" style="stroke: #000000"/>
    </defs>
    <g clip-path="url(#p8c5ab9531e)">
     <use xlink:href="#mf89f751687" x="81.6" y="98.509091" style="stroke: #000000"/>
    </g>
   </g>
  </g>
  <g id="axes_2">
   <g id="patch_8">
    <path d="M 287.214545 203.345455 
L 436.014545 203.345455 
L 436.014545 98.509091 
L 287.214545 98.509091 
z
" clip-path="url(#p4208d615e3)" style="fill: #1f77b4; opacity: 0.12"/>
   </g>
   <g id="line2d_5">
    <path d="M 287.214545 98.509091 
L 436.014545 98.509091 
" clip-path="url(#p4208d615e3)" style="fill: none; stroke: #1f77b4; stroke-width: 2; stroke-linecap: square"/>
   </g>
   <g id="line2d_6">
    <path d="M 436.014545 203.345455 
L 436.014545 98.509091 
" clip-path="url(#p4208d615e3)" style="fill: none; stroke: #1f77b4; stroke-width: 2; stroke-linecap: square"/>
   </g>
   <g id="patch_9">
    <path d="M 490.123636 120.92181 
C 510.417458 120.92181 529.882829 112.85899 544.232727 98.509091 
C 558.582626 84.159192 566.645447 64.693821 566.645447 44.4 
C 566.645447 24.106179 558.582626 4.640808 544.232727 -9.709091 
C 529.882829 -24.05899 510.417458 -32.12181 490.123636 -32.12181 
C 469.829815 -32.12181 450.364444 -24.05899 436.014545 -9.709091 
C 421.664647 4.640808 413.601826 24.106179 413.601826 44.4 
C 413.601826 64.693821 421.664647 84.159192 436.014545 98.509091 
C 450.364444 112.85899 469.829815 120.92181 490.123636 120.92181 
L 490.123636 120.92181 
z
" clip-path="url(#p4208d615e3)" style="fill: none; opacity: 0.9; stroke: #ff7f0e; stroke-width: 1.2; stroke-linejoin: miter"/>
   </g>
   <g id="patch_10">
    <path d="M 490.123636 149.236364 
C 517.926565 149.236364 544.594501 138.190143 564.25414 118.530504 
C 583.913779 98.870864 594.96 72.202929 594.96 44.4 
C 594.96 16.597071 583.913779 -10.070864 564.25414 -29.730504 
C 544.594501 -49.390143 517.926565 -60.436364 490.123636 -60.436364 
C 462.320708 -60.436364 435.652772 -49.390143 415.993133 -29.730504 
C 396.333493 -10.070864 385.287273 16.597071 385.287273 44.4 
C 385.287273 72.202929 396.333493 98.870864 415.993133 118.530504 
C 435.652772 138.190143 462.320708 149.236364 490.123636 149.236364 
L 490.123636 149.236364 
z
" clip-path="url(#p4208d615e3)" style="fill: none; opacity: 0.65; stroke: #ff7f0e; stroke-width: 1.2; stroke-linejoin: miter"/>
   </g>
   <g id="patch_11">
    <path d="M 490.123636 176.290909 
C 525.101514 176.290909 558.651498 162.394051 583.384593 137.660956 
C 608.117687 112.927862 622.014545 79.377878 622.014545 44.4 
C 622.014545 9.422122 608.117687 -24.127862 583.384593 -48.860956 
C 558.651498 -73.594051 525.101514 -87.490909 490.123636 -87.490909 
C 455.145758 -87.490909 421.595775 -73.594051 396.86268 -48.860956 
C 372.129585 -24.127862 358.232727 9.422122 358.232727 44.4 
C 358.232727 79.377878 372.129585 112.927862 396.86268 137.660956 
C 421.595775 162.394051 455.145758 176.290909 490.123636 176.290909 
L 490.123636 176.290909 
z
" clip-path="url(#p4208d615e3)" style="fill: none; opacity: 0.4; stroke: #ff7f0e; stroke-width: 1.2; stroke-linejoin: miter"/>
   </g>
   <g id="text_8">
    <!-- feasible -->
    <g style="fill: #1f77b4" transform="translate(316.454006 169.180767) scale(0.11 -0.11)">
     <use xlink:href="#DejaVuSans-66"/>
     <use xlink:href="#DejaVuSans-65" transform="translate(35.205078 0)"/>
     <use xlink:href="#DejaVuSans-61" transform="translate(96.728516 0)"/>
     <use xlink:href="#DejaVuSans-73" transform="translate(158.007812 0)"/>
     <use xlink:href="#DejaVuSans-69" transform="translate(210.107422 0)"/>
     <use xlink:href="#DejaVuSans-62" transform="translate(237.890625 0)"/>
     <use xlink:href="#DejaVuSans-6c" transform="translate(301.367188 0)"/>
     <use xlink:href="#DejaVuSans-65" transform="translate(329.150391 0)"/>
    </g>
   </g>
   <g id="text_9">
    <!-- $g_1=0$ -->
    <g style="fill: #1f77b4" transform="translate(292.625455 128.488665) scale(0.11 -0.11)">
     <use xlink:href="#Cmmi10-67" transform="translate(0 0.390625)"/>
     <use xlink:href="#Cmr10-31" transform="translate(47.705078 -16.615625) scale(0.7)"/>
     <use xlink:href="#Cmr10-3d" transform="translate(106.641016 0.390625)"/>
     <use xlink:href="#Cmr10-30" transform="translate(201.885156 0.390625)"/>
    </g>
   </g>
   <g id="text_10">
    <!-- $g_2=0$ -->
    <g style="fill: #1f77b4" transform="translate(442.778182 194.860241) scale(0.11 -0.11)">
     <use xlink:href="#Cmmi10-67" transform="translate(0 0.390625)"/>
     <use xlink:href="#Cmr10-32" transform="translate(47.705078 -16.615625) scale(0.7)"/>
     <use xlink:href="#Cmr10-3d" transform="translate(106.641016 0.390625)"/>
     <use xlink:href="#Cmr10-30" transform="translate(201.885156 0.390625)"/>
    </g>
   </g>
   <g id="line2d_7">
    <g clip-path="url(#p4208d615e3)">
     <use xlink:href="#m27853e24be" x="490.123636" y="44.4" style="fill: #ff7f0e; stroke: #ff7f0e; stroke-width: 1.6"/>
    </g>
   </g>
   <g id="patch_12">
    <path d="M 477.949091 98.509091 
C 477.949091 87.391623 473.527984 76.718126 465.666747 68.856889 
C 457.80551 60.995653 447.132013 56.574545 436.014545 56.574545 
L 436.014545 98.509091 
z
" clip-path="url(#p4208d615e3)" style="fill: #1f77b4; opacity: 0.18"/>
   </g>
   <g id="patch_13">
    <path d="M 436.014545 98.509091 
Q 436.014545 79.909091 436.014545 63.321552 
" style="fill: none; stroke: #1f77b4; stroke-width: 1.8; stroke-linecap: round"/>
    <path d="M 433.214545 68.921552 
L 436.014545 63.321552 
L 438.814545 68.921552 
" style="fill: none; stroke: #1f77b4; stroke-width: 1.8; stroke-linecap: round"/>
   </g>
   <g id="patch_14">
    <path d="M 436.014545 98.509091 
Q 454.614545 98.509091 471.202084 98.509091 
" style="fill: none; stroke: #1f77b4; stroke-width: 1.8; stroke-linecap: round"/>
    <path d="M 465.602084 95.709091 
L 471.202084 98.509091 
L 465.602084 101.309091 
" style="fill: none; stroke: #1f77b4; stroke-width: 1.8; stroke-linecap: round"/>
   </g>
   <g id="patch_15">
    <path d="M 436.014545 98.509091 
Q 450.840646 83.68299 463.927494 70.596142 
" style="fill: none; stroke: #ff7f0e; stroke-width: 2.2; stroke-linecap: round"/>
    <path d="M 457.987797 72.576041 
L 463.927494 70.596142 
L 461.947595 76.535839 
" style="fill: none; stroke: #ff7f0e; stroke-width: 2.2; stroke-linecap: round"/>
   </g>
   <g id="text_11">
    <!-- $\nabla g_1$ -->
    <g style="fill: #1f77b4" transform="translate(413.602727 54.176605) scale(0.11 -0.11)">
     <use xlink:href="#Cmsy10-72" transform="translate(0 0.6875)"/>
     <use xlink:href="#Cmmi10-67" transform="translate(83.300781 0.6875)"/>
     <use xlink:href="#Cmr10-31" transform="translate(131.005859 -16.31875) scale(0.7)"/>
    </g>
   </g>
   <g id="text_12">
    <!-- $\nabla g_2$ -->
    <g style="fill: #1f77b4" transform="translate(475.197727 112.343878) scale(0.11 -0.11)">
     <use xlink:href="#Cmsy10-72" transform="translate(0 0.6875)"/>
     <use xlink:href="#Cmmi10-67" transform="translate(83.300781 0.6875)"/>
     <use xlink:href="#Cmr10-32" transform="translate(131.005859 -16.31875) scale(0.7)"/>
    </g>
   </g>
   <g id="text_13">
    <!-- $-\nabla f$ -->
    <g style="fill: #ff7f0e" transform="translate(470.401292 61.04804) scale(0.11 -0.11)">
     <use xlink:href="#Cmsy10-a1" transform="translate(0 0.484375)"/>
     <use xlink:href="#Cmsy10-72" transform="translate(77.685547 0.484375)"/>
     <use xlink:href="#Cmmi10-66" transform="translate(160.986328 0.484375)"/>
    </g>
   </g>
   <g id="text_14">
    <!-- cone of -->
    <g style="fill: #7f7f7f" transform="translate(388.65125 166.403788) scale(0.11 -0.11)">
     <defs>
      <path id="DejaVuSans-6f" d="M 1959 3097 
Q 1497 3097 1228 2736 
Q 959 2375 959 1747 
Q 959 1119 1226 758 
Q 1494 397 1959 397 
Q 2419 397 2687 759 
Q 2956 1122 2956 1747 
Q 2956 2369 2687 2733 
Q 2419 3097 1959 3097 
z
M 1959 3584 
Q 2709 3584 3137 3096 
Q 3566 2609 3566 1747 
Q 3566 888 3137 398 
Q 2709 -91 1959 -91 
Q 1206 -91 779 398 
Q 353 888 353 1747 
Q 353 2609 779 3096 
Q 1206 3584 1959 3584 
z
" transform="scale(0.015625)"/>
     </defs>
     <use xlink:href="#DejaVuSans-63"/>
     <use xlink:href="#DejaVuSans-6f" transform="translate(54.980469 0)"/>
     <use xlink:href="#DejaVuSans-6e" transform="translate(116.162109 0)"/>
     <use xlink:href="#DejaVuSans-65" transform="translate(179.541016 0)"/>
     <use xlink:href="#DejaVuSans-20" transform="translate(241.064453 0)"/>
     <use xlink:href="#DejaVuSans-6f" transform="translate(272.851562 0)"/>
     <use xlink:href="#DejaVuSans-66" transform="translate(334.033203 0)"/>
    </g>
    <!-- normals -->
    <g style="fill: #7f7f7f" transform="translate(386.823359 178.721382) scale(0.11 -0.11)">
     <defs>
      <path id="DejaVuSans-72" d="M 2631 2963 
Q 2534 3019 2420 3045 
Q 2306 3072 2169 3072 
Q 1681 3072 1420 2755 
Q 1159 2438 1159 1844 
L 1159 0 
L 581 0 
L 581 3500 
L 1159 3500 
L 1159 2956 
Q 1341 3275 1631 3429 
Q 1922 3584 2338 3584 
Q 2397 3584 2469 3576 
Q 2541 3569 2628 3553 
L 2631 2963 
z
" transform="scale(0.015625)"/>
      <path id="DejaVuSans-6d" d="M 3328 2828 
Q 3544 3216 3844 3400 
Q 4144 3584 4550 3584 
Q 5097 3584 5394 3201 
Q 5691 2819 5691 2113 
L 5691 0 
L 5113 0 
L 5113 2094 
Q 5113 2597 4934 2840 
Q 4756 3084 4391 3084 
Q 3944 3084 3684 2787 
Q 3425 2491 3425 1978 
L 3425 0 
L 2847 0 
L 2847 2094 
Q 2847 2600 2669 2842 
Q 2491 3084 2119 3084 
Q 1678 3084 1418 2786 
Q 1159 2488 1159 1978 
L 1159 0 
L 581 0 
L 581 3500 
L 1159 3500 
L 1159 2956 
Q 1356 3278 1631 3431 
Q 1906 3584 2284 3584 
Q 2666 3584 2933 3390 
Q 3200 3197 3328 2828 
z
" transform="scale(0.015625)"/>
     </defs>
     <use xlink:href="#DejaVuSans-6e"/>
     <use xlink:href="#DejaVuSans-6f" transform="translate(63.378906 0)"/>
     <use xlink:href="#DejaVuSans-72" transform="translate(124.560547 0)"/>
     <use xlink:href="#DejaVuSans-6d" transform="translate(163.923828 0)"/>
     <use xlink:href="#DejaVuSans-61" transform="translate(261.335938 0)"/>
     <use xlink:href="#DejaVuSans-6c" transform="translate(322.615234 0)"/>
     <use xlink:href="#DejaVuSans-73" transform="translate(350.398438 0)"/>
    </g>
   </g>
   <g id="text_15">
    <!-- $\mathbf{x}^\star$ -->
    <g transform="translate(413.544545 112.366222) scale(0.11 -0.11)">
     <use xlink:href="#Cmb10-78" transform="translate(0 0.94375)"/>
     <use xlink:href="#STIXGeneral-Regular-22c6" transform="translate(69.440703 39.207812) scale(0.7)"/>
    </g>
   </g>
   <g id="line2d_8">
    <g clip-path="url(#p4208d615e3)">
     <use xlink:href="#mf89f751687" x="436.014545" y="98.509091" style="stroke: #000000"/>
    </g>
   </g>
  </g>
 </g>
 <defs>
  <clipPath id="p8c5ab9531e">
   <rect x="7.2" y="7.2" width="233.345455" height="196.145455"/>
  </clipPath>
  <clipPath id="p4208d615e3">
   <rect x="287.214545" y="7.2" width="233.345455" height="196.145455"/>
  </clipPath>
 </defs>
</svg>
