<?xml version="1.0" encoding="utf-8" standalone="no"?>
<!DOCTYPE svg PUBLIC "-//W3C//DTD SVG 1.1//EN"
  "http://www.w3.org/Graphics/SVG/1.1/DTD/svg11.dtd">
<svg xmlns:xlink="http://www.w3.org/1999/xlink" width="583.56pt" height="232.964594pt" viewBox="0 0 583.56 232.964594" xmlns="http://www.w3.org/2000/svg" version="1.1">
 <metadata>
  <rdf:RDF xmlns:dc="http://purl.org/dc/elements/1.1/" xmlns:cc="http://creativecommons.org/ns#" xmlns:rdf="http://www.w3.org/1999/02/22-rdf-syntax-ns#">
   <cc:Work>
    <dc:type rdf:resource="http://purl.org/dc/dcmitype/StillImage"/>
    <dc:format>image/svg+xml</dc:format>
    <dc:creator>
     <cc:Agent>
      <dc:title>Matplotlib v3.10.8, https://matplotlib.org/</dc:title>
     </cc:Agent>
    </dc:creator>
   </cc:Work>
  </rdf:RDF>
 </metadata>
 <defs>
  <style type="text/css">*{stroke-linejoin: round; stroke-linecap: butt}</style>
 </defs>
 <g id="figure_1">
  <g id="patch_1">
   <path d="M 0 232.964594 
L 583.56 232.964594 
L 583.56 0 
L 0 0 
z
" style="fill: #ffffff"/>
  </g>
  <g id="axes_1">
   <g id="patch_2">
    <path d="M 7.2 210.054281 
L 174.6 210.054281 
L 174.6 21.558281 
L 7.2 21.558281 
z
" style="fill: #ffffff"/>
   </g>
   <g id="matplotlib.axis_1">
    <g id="xtick_1">
     <g id="line2d_1">
      <defs>
       <path id="m0e0d04b24a" d="M 0 0 
L 0 3.5 
" style="stroke: #000000; stroke-width: 0.8"/>
      </defs>
      <g>
       <use xlink:href="#m0e0d04b24a" x="90.9" y="210.054281" style="stroke: #000000; stroke-width: 0.8"/>
      </g>
     </g>
     <g id="text_1">
      <!-- $x_0$ -->
      <g transform="translate(86.445 223.892875) scale(0.09 -0.09)">
       <defs>
        <path id="Cmmi10-78" d="M 500 184 
Q 613 97 819 97 
Q 1019 97 1172 289 
Q 1325 481 1381 709 
L 1672 1844 
Q 1741 2153 1741 2266 
Q 1741 2425 1652 2544 
Q 1563 2663 1403 2663 
Q 1200 2663 1022 2536 
Q 844 2409 722 2214 
Q 600 2019 550 1819 
Q 538 1778 500 1778 
L 422 1778 
Q 372 1778 372 1838 
L 372 1856 
Q 434 2094 584 2320 
Q 734 2547 951 2687 
Q 1169 2828 1416 2828 
Q 1650 2828 1839 2703 
Q 2028 2578 2106 2363 
Q 2216 2559 2386 2693 
Q 2556 2828 2759 2828 
Q 2897 2828 3040 2779 
Q 3184 2731 3275 2631 
Q 3366 2531 3366 2381 
Q 3366 2219 3261 2101 
Q 3156 1984 2994 1984 
Q 2891 1984 2822 2050 
Q 2753 2116 2753 2216 
Q 2753 2350 2845 2451 
Q 2938 2553 3066 2572 
Q 2950 2663 2747 2663 
Q 2541 2663 2389 2472 
Q 2238 2281 2175 2047 
L 1894 916 
Q 1825 659 1825 494 
Q 1825 331 1917 214 
Q 2009 97 2163 97 
Q 2463 97 2698 361 
Q 2934 625 3009 941 
Q 3022 978 3059 978 
L 3138 978 
Q 3163 978 3178 961 
Q 3194 944 3194 922 
Q 3194 916 3188 903 
Q 3097 522 2806 225 
Q 2516 -72 2150 -72 
Q 1916 -72 1727 54 
Q 1538 181 1459 397 
Q 1359 209 1182 68 
Q 1006 -72 806 -72 
Q 669 -72 523 -23 
Q 378 25 287 125 
Q 197 225 197 378 
Q 197 528 301 651 
Q 406 775 563 775 
Q 669 775 741 711 
Q 813 647 813 544 
Q 813 409 723 309 
Q 634 209 500 184 
z
" transform="scale(0.015625)"/>
        <path id="Cmr10-30" d="M 1600 -141 
Q 816 -141 533 504 
Q 250 1150 250 2041 
Q 250 2597 351 3087 
Q 453 3578 754 3920 
Q 1056 4263 1600 4263 
Q 2022 4263 2290 4056 
Q 2559 3850 2700 3523 
Q 2841 3197 2892 2823 
Q 2944 2450 2944 2041 
Q 2944 1491 2842 1011 
Q 2741 531 2444 195 
Q 2147 -141 1600 -141 
z
M 1600 25 
Q 1956 25 2131 390 
Q 2306 756 2347 1200 
Q 2388 1644 2388 2144 
Q 2388 2625 2347 3031 
Q 2306 3438 2132 3767 
Q 1959 4097 1600 4097 
Q 1238 4097 1063 3765 
Q 888 3434 847 3029 
Q 806 2625 806 2144 
Q 806 1788 823 1472 
Q 841 1156 916 820 
Q 991 484 1158 254 
Q 1325 25 1600 25 
z
" transform="scale(0.015625)"/>
       </defs>
       <use xlink:href="#Cmmi10-78" transform="translate(0 0.8125)"/>
       <use xlink:href="#Cmr10-30" transform="translate(57.080078 -16.19375) scale(0.7)"/>
      </g>
     </g>
    </g>
   </g>
   <g id="matplotlib.axis_2"/>
   <g id="line2d_2">
    <path d="M 14.809091 30.126281 
L 166.990909 201.486281 
L 166.990909 201.486281 
" clip-path="url(#pe3bec4804b)" style="fill: none; stroke-dasharray: 5.92,2.56; stroke-dashoffset: 0; stroke: #ff7f0e; stroke-width: 1.6"/>
   </g>
   <g id="patch_3">
    <path d="M 7.2 210.054281 
L 7.2 21.558281 
" style="fill: none; stroke: #000000; stroke-width: 0.8; stroke-linejoin: miter; stroke-linecap: square"/>
   </g>
   <g id="patch_4">
    <path d="M 7.2 210.054281 
L 174.6 210.054281 
" style="fill: none; stroke: #000000; stroke-width: 0.8; stroke-linejoin: miter; stroke-linecap: square"/>
   </g>
   <g id="line2d_3">
    <path d="M 14.809091 59.151389 
L 19.385988 59.333873 
L 23.581476 59.710335 
L 27.395557 60.256803 
L 31.209638 61.027617 
L 34.64231 61.938633 
L 38.074983 63.079849 
L 41.507656 64.475271 
L 44.55892 65.948379 
L 47.610185 67.657386 
L 50.661449 69.617234 
L 53.712714 71.840862 
L 56.763978 74.338247 
L 59.815243 77.115238 
L 62.866507 80.17216 
L 66.29918 83.936956 
L 69.731852 88.023549 
L 73.927341 93.392432 
L 79.267054 100.627856 
L 86.513807 110.450885 
L 89.94648 114.709859 
L 92.616336 117.657072 
L 94.904785 119.830502 
L 96.811825 121.331609 
L 98.337457 122.294629 
L 99.86309 123.018853 
L 101.388722 123.479084 
L 102.914354 123.650663 
L 104.058578 123.57567 
L 105.202802 123.315644 
L 106.347027 122.861918 
L 107.491251 122.206704 
L 108.635475 121.343279 
L 110.161107 119.858966 
L 111.68674 117.986342 
L 113.212372 115.722478 
L 114.738004 113.071205 
L 116.645044 109.230885 
L 118.552085 104.84657 
L 120.840533 98.963733 
L 123.891798 90.353337 
L 129.994327 72.853817 
L 131.901367 68.125291 
L 133.426999 64.878681 
L 134.571224 62.839937 
L 135.715448 61.199338 
L 136.859672 60.007121 
L 137.622488 59.484561 
L 138.385304 59.194562 
L 139.14812 59.14837 
L 139.910936 59.355727 
L 140.673753 59.824641 
L 141.436569 60.561139 
L 142.199385 61.569032 
L 143.343609 63.591971 
L 144.487833 66.220957 
L 145.632057 69.433727 
L 147.15769 74.555636 
L 148.683322 80.502019 
L 150.97177 90.511819 
L 155.167259 109.244198 
L 156.692891 114.989863 
L 157.837116 118.538562 
L 158.98134 121.257204 
L 159.744156 122.536237 
L 160.506972 123.344193 
L 160.88838 123.561351 
L 161.269788 123.649355 
L 161.651196 123.605321 
L 162.032604 123.426861 
L 162.79542 122.659823 
L 163.558237 121.340397 
L 164.321053 119.470783 
L 165.083869 117.064097 
L 166.228093 112.504527 
L 166.990909 108.890168 
L 166.990909 108.890168 
" clip-path="url(#pe3bec4804b)" style="fill: none; stroke: #1f77b4; stroke-width: 2.2; stroke-linecap: square"/>
   </g>
   <g id="text_2">
    <!-- zoom $\pm 0.6$ -->
    <g transform="translate(62.85 15.558281) scale(0.11 -0.11)">
     <defs>
      <path id="DejaVuSans-7a" d="M 353 3500 
L 3084 3500 
L 3084 2975 
L 922 459 
L 3084 459 
L 3084 0 
L 275 0 
L 275 525 
L 2438 3041 
L 353 3041 
L 353 3500 
z
" transform="scale(0.015625)"/>
      <path id="DejaVuSans-6f" d="M 1959 3097 
Q 1497 3097 1228 2736 
Q 959 2375 959 1747 
Q 959 1119 1226 758 
Q 1494 397 1959 397 
Q 2419 397 2687 759 
Q 2956 1122 2956 1747 
Q 2956 2369 2687 2733 
Q 2419 3097 1959 3097 
z
M 1959 3584 
Q 2709 3584 3137 3096 
Q 3566 2609 3566 1747 
Q 3566 888 3137 398 
Q 2709 -91 1959 -91 
Q 1206 -91 779 398 
Q 353 888 353 1747 
Q 353 2609 779 3096 
Q 1206 3584 1959 3584 
z
" transform="scale(0.015625)"/>
      <path id="DejaVuSans-6d" d="M 3328 2828 
Q 3544 3216 3844 3400 
Q 4144 3584 4550 3584 
Q 5097 3584 5394 3201 
Q 5691 2819 5691 2113 
L 5691 0 
L 5113 0 
L 5113 2094 
Q 5113 2597 4934 2840 
Q 4756 3084 4391 3084 
Q 3944 3084 3684 2787 
Q 3425 2491 3425 1978 
L 3425 0 
L 2847 0 
L 2847 2094 
Q 2847 2600 2669 2842 
Q 2491 3084 2119 3084 
Q 1678 3084 1418 2786 
Q 1159 2488 1159 1978 
L 1159 0 
L 581 0 
L 581 3500 
L 1159 3500 
L 1159 2956 
Q 1356 3278 1631 3431 
Q 1906 3584 2284 3584 
Q 2666 3584 2933 3390 
Q 3200 3197 3328 2828 
z
" transform="scale(0.015625)"/>
      <path id="DejaVuSans-20" transform="scale(0.015625)"/>
      <path id="Cmsy10-a7" d="M 481 0 
Q 428 0 393 37 
Q 359 75 359 128 
Q 359 175 393 215 
Q 428 256 481 256 
L 2363 256 
L 2363 2003 
L 481 2003 
Q 428 2003 393 2043 
Q 359 2084 359 2131 
Q 359 2178 393 2218 
Q 428 2259 481 2259 
L 2363 2259 
L 2363 4147 
Q 2363 4197 2400 4230 
Q 2438 4263 2491 4263 
Q 2534 4263 2576 4230 
Q 2619 4197 2619 4147 
L 2619 2259 
L 4500 2259 
Q 4547 2259 4581 2218 
Q 4616 2178 4616 2131 
Q 4616 2084 4581 2043 
Q 4547 2003 4500 2003 
L 2619 2003 
L 2619 256 
L 4500 256 
Q 4547 256 4581 215 
Q 4616 175 4616 128 
Q 4616 75 4581 37 
Q 4547 0 4500 0 
L 481 0 
z
" transform="scale(0.015625)"/>
      <path id="Cmmi10-3a" d="M 538 353 
Q 538 497 644 600 
Q 750 703 891 703 
Q 978 703 1062 656 
Q 1147 609 1194 525 
Q 1241 441 1241 353 
Q 1241 213 1137 106 
Q 1034 0 891 0 
Q 750 0 644 106 
Q 538 213 538 353 
z
" transform="scale(0.015625)"/>
      <path id="Cmr10-36" d="M 1600 -141 
Q 1203 -141 937 70 
Q 672 281 526 617 
Q 381 953 325 1322 
Q 269 1691 269 2069 
Q 269 2575 466 3084 
Q 663 3594 1045 3928 
Q 1428 4263 1953 4263 
Q 2172 4263 2361 4180 
Q 2550 4097 2658 3936 
Q 2766 3775 2766 3547 
Q 2766 3416 2677 3327 
Q 2588 3238 2456 3238 
Q 2331 3238 2240 3328 
Q 2150 3419 2150 3547 
Q 2150 3672 2240 3762 
Q 2331 3853 2456 3853 
L 2491 3853 
Q 2409 3969 2261 4023 
Q 2113 4078 1953 4078 
Q 1759 4078 1595 3993 
Q 1431 3909 1300 3765 
Q 1169 3622 1081 3448 
Q 994 3275 945 3053 
Q 897 2831 884 2637 
Q 872 2444 872 2150 
Q 984 2413 1190 2580 
Q 1397 2747 1656 2747 
Q 1941 2747 2175 2631 
Q 2409 2516 2578 2311 
Q 2747 2106 2836 1843 
Q 2925 1581 2925 1313 
Q 2925 938 2758 598 
Q 2591 259 2287 59 
Q 1984 -141 1600 -141 
z
M 1600 63 
Q 1847 63 1997 175 
Q 2147 288 2217 473 
Q 2288 659 2305 848 
Q 2322 1038 2322 1313 
Q 2322 1675 2287 1931 
Q 2253 2188 2100 2383 
Q 1947 2578 1631 2578 
Q 1372 2578 1205 2403 
Q 1038 2228 961 1961 
Q 884 1694 884 1447 
Q 884 1363 891 1319 
Q 891 1309 889 1303 
Q 888 1297 884 1288 
Q 884 1013 940 731 
Q 997 450 1156 256 
Q 1316 63 1600 63 
z
" transform="scale(0.015625)"/>
     </defs>
     <use xlink:href="#DejaVuSans-7a" transform="translate(0 0.390625)"/>
     <use xlink:href="#DejaVuSans-6f" transform="translate(52.490234 0.390625)"/>
     <use xlink:href="#DejaVuSans-6f" transform="translate(113.671875 0.390625)"/>
     <use xlink:href="#DejaVuSans-6d" transform="translate(174.853516 0.390625)"/>
     <use xlink:href="#DejaVuSans-20" transform="translate(272.265625 0.390625)"/>
     <use xlink:href="#Cmsy10-a7" transform="translate(304.052734 0.390625)"/>
     <use xlink:href="#Cmr10-30" transform="translate(381.738281 0.390625)"/>
     <use xlink:href="#Cmmi10-3a" transform="translate(431.738281 0.390625)"/>
     <use xlink:href="#Cmr10-36" transform="translate(459.423828 0.390625)"/>
    </g>
   </g>
   <g id="line2d_4">
    <defs>
     <path id="mac8f696a4e" d="M 0 2 
C 0.530406 2 1.03916 1.789267 1.414214 1.414214 
C 1.789267 1.03916 2 0.530406 2 0 
C 2 -0.530406 1.789267 -1.03916 1.414214 -1.414214 
C 1.03916 -1.789267 0.530406 -2 0 -2 
C -0.530406 -2 -1.03916 -1.789267 -1.414214 -1.414214 
C -1.789267 -1.03916 -2 -0.530406 -2 0 
C -2 0.530406 -1.789267 1.03916 -1.414214 1.414214 
C -1.03916 1.789267 -0.530406 2 0 2 
z
" style="stroke: #000000"/>
    </defs>
    <g clip-path="url(#pe3bec4804b)">
     <use xlink:href="#mac8f696a4e" x="90.9" y="115.806281" style="stroke: #000000"/>
    </g>
   </g>
  </g>
  <g id="axes_2">
   <g id="patch_5">
    <path d="M 208.08 210.054281 
L 375.48 210.054281 
L 375.48 21.558281 
L 208.08 21.558281 
z
" style="fill: #ffffff"/>
   </g>
   <g id="matplotlib.axis_3">
    <g id="xtick_2">
     <g id="line2d_5">
      <g>
       <use xlink:href="#m0e0d04b24a" x="291.78" y="210.054281" style="stroke: #000000; stroke-width: 0.8"/>
      </g>
     </g>
     <g id="text_3">
      <!-- $x_0$ -->
      <g transform="translate(287.325 223.892875) scale(0.09 -0.09)">
       <use xlink:href="#Cmmi10-78" transform="translate(0 0.8125)"/>
       <use xlink:href="#Cmr10-30" transform="translate(57.080078 -16.19375) scale(0.7)"/>
      </g>
     </g>
    </g>
   </g>
   <g id="matplotlib.axis_4"/>
   <g id="line2d_6">
    <path d="M 215.689091 40.316566 
L 367.870909 201.486281 
L 367.870909 201.486281 
" clip-path="url(#p962c726b2a)" style="fill: none; stroke-dasharray: 5.92,2.56; stroke-dashoffset: 0; stroke: #ff7f0e; stroke-width: 1.6"/>
   </g>
   <g id="patch_6">
    <path d="M 208.08 210.054281 
L 208.08 21.558281 
" style="fill: none; stroke: #000000; stroke-width: 0.8; stroke-linejoin: miter; stroke-linecap: square"/>
   </g>
   <g id="patch_7">
    <path d="M 208.08 210.054281 
L 375.48 210.054281 
" style="fill: none; stroke: #000000; stroke-width: 0.8; stroke-linejoin: miter; stroke-linecap: square"/>
   </g>
   <g id="line2d_7">
    <path d="M 215.689091 30.126281 
L 232.089638 50.923954 
L 245.43892 67.498466 
L 256.881162 81.363923 
L 267.17918 93.509802 
L 276.714381 104.424049 
L 285.486767 114.142124 
L 293.877744 123.112217 
L 301.887314 131.345902 
L 309.515475 138.860652 
L 316.762228 145.679246 
L 323.627573 151.829121 
L 330.111511 157.341682 
L 336.21404 162.251581 
L 342.316569 166.8764 
L 348.03769 170.939948 
L 353.758811 174.727356 
L 359.098524 178.002103 
L 364.438237 181.015214 
L 367.870909 182.809302 
L 367.870909 182.809302 
" clip-path="url(#p962c726b2a)" style="fill: none; stroke: #1f77b4; stroke-width: 2.2; stroke-linecap: square"/>
   </g>
   <g id="text_4">
    <!-- zoom $\pm 0.06$ -->
    <g transform="translate(260.98 15.558281) scale(0.11 -0.11)">
     <use xlink:href="#DejaVuSans-7a" transform="translate(0 0.390625)"/>
     <use xlink:href="#DejaVuSans-6f" transform="translate(52.490234 0.390625)"/>
     <use xlink:href="#DejaVuSans-6f" transform="translate(113.671875 0.390625)"/>
     <use xlink:href="#DejaVuSans-6d" transform="translate(174.853516 0.390625)"/>
     <use xlink:href="#DejaVuSans-20" transform="translate(272.265625 0.390625)"/>
     <use xlink:href="#Cmsy10-a7" transform="translate(304.052734 0.390625)"/>
     <use xlink:href="#Cmr10-30" transform="translate(381.738281 0.390625)"/>
     <use xlink:href="#Cmmi10-3a" transform="translate(431.738281 0.390625)"/>
     <use xlink:href="#Cmr10-30" transform="translate(459.423828 0.390625)"/>
     <use xlink:href="#Cmr10-36" transform="translate(509.423828 0.390625)"/>
    </g>
   </g>
   <g id="line2d_8">
    <g clip-path="url(#p962c726b2a)">
     <use xlink:href="#mac8f696a4e" x="291.78" y="120.901423" style="stroke: #000000"/>
    </g>
   </g>
  </g>
  <g id="axes_3">
   <g id="patch_8">
    <path d="M 408.96 210.054281 
L 576.36 210.054281 
L 576.36 21.558281 
L 408.96 21.558281 
z
" style="fill: #ffffff"/>
   </g>
   <g id="matplotlib.axis_5">
    <g id="xtick_3">
     <g id="line2d_9">
      <g>
       <use xlink:href="#m0e0d04b24a" x="492.66" y="210.054281" style="stroke: #000000; stroke-width: 0.8"/>
      </g>
     </g>
     <g id="text_5">
      <!-- $x_0$ -->
      <g transform="translate(488.205 223.892875) scale(0.09 -0.09)">
       <use xlink:href="#Cmmi10-78" transform="translate(0 0.8125)"/>
       <use xlink:href="#Cmr10-30" transform="translate(57.080078 -16.19375) scale(0.7)"/>
      </g>
     </g>
    </g>
   </g>
   <g id="matplotlib.axis_6"/>
   <g id="line2d_10">
    <path d="M 416.569091 31.573268 
L 568.750909 201.486281 
L 568.750909 201.486281 
" clip-path="url(#pa7a2d73da4)" style="fill: none; stroke-dasharray: 5.92,2.56; stroke-dashoffset: 0; stroke: #ff7f0e; stroke-width: 1.6"/>
   </g>
   <g id="patch_9">
    <path d="M 408.96 210.054281 
L 408.96 21.558281 
" style="fill: none; stroke: #000000; stroke-width: 0.8; stroke-linejoin: miter; stroke-linecap: square"/>
   </g>
   <g id="patch_10">
    <path d="M 408.96 210.054281 
L 576.36 210.054281 
" style="fill: none; stroke: #000000; stroke-width: 0.8; stroke-linejoin: miter; stroke-linecap: square"/>
   </g>
   <g id="line2d_11">
    <path d="M 416.569091 30.126281 
L 443.267656 60.766278 
L 469.584812 90.630087 
L 495.139152 119.296196 
L 520.312085 147.204516 
L 545.103609 174.360308 
L 568.750909 199.949153 
L 568.750909 199.949153 
" clip-path="url(#pa7a2d73da4)" style="fill: none; stroke: #1f77b4; stroke-width: 2.2; stroke-linecap: square"/>
   </g>
   <g id="text_6">
    <!-- zoom $\pm 0.006$ -->
    <g transform="translate(459.11 15.558281) scale(0.11 -0.11)">
     <use xlink:href="#DejaVuSans-7a" transform="translate(0 0.390625)"/>
     <use xlink:href="#DejaVuSans-6f" transform="translate(52.490234 0.390625)"/>
     <use xlink:href="#DejaVuSans-6f" transform="translate(113.671875 0.390625)"/>
     <use xlink:href="#DejaVuSans-6d" transform="translate(174.853516 0.390625)"/>
     <use xlink:href="#DejaVuSans-20" transform="translate(272.265625 0.390625)"/>
     <use xlink:href="#Cmsy10-a7" transform="translate(304.052734 0.390625)"/>
     <use xlink:href="#Cmr10-30" transform="translate(381.738281 0.390625)"/>
     <use xlink:href="#Cmmi10-3a" transform="translate(431.738281 0.390625)"/>
     <use xlink:href="#Cmr10-30" transform="translate(459.423828 0.390625)"/>
     <use xlink:href="#Cmr10-30" transform="translate(509.423828 0.390625)"/>
     <use xlink:href="#Cmr10-36" transform="translate(559.423828 0.390625)"/>
    </g>
   </g>
   <g id="line2d_12">
    <g clip-path="url(#pa7a2d73da4)">
     <use xlink:href="#mac8f696a4e" x="492.66" y="116.529775" style="stroke: #000000"/>
    </g>
   </g>
  </g>
 </g>
 <defs>
  <clipPath id="pe3bec4804b">
   <rect x="7.2" y="21.558281" width="167.4" height="188.496"/>
  </clipPath>
  <clipPath id="p962c726b2a">
   <rect x="208.08" y="21.558281" width="167.4" height="188.496"/>
  </clipPath>
  <clipPath id="pa7a2d73da4">
   <rect x="408.96" y="21.558281" width="167.4" height="188.496"/>
  </clipPath>
 </defs>
</svg>
