<?xml version="1.0" encoding="utf-8" standalone="no"?>
<!DOCTYPE svg PUBLIC "-//W3C//DTD SVG 1.1//EN"
  "http://www.w3.org/Graphics/SVG/1.1/DTD/svg11.dtd">
<svg xmlns:xlink="http://www.w3.org/1999/xlink" width="516.6pt" height="202.939148pt" viewBox="0 0 516.6 202.939148" xmlns="http://www.w3.org/2000/svg" version="1.1">
 <metadata>
  <rdf:RDF xmlns:dc="http://purl.org/dc/elements/1.1/" xmlns:cc="http://creativecommons.org/ns#" xmlns:rdf="http://www.w3.org/1999/02/22-rdf-syntax-ns#">
   <cc:Work>
    <dc:type rdf:resource="http://purl.org/dc/dcmitype/StillImage"/>
    <dc:format>image/svg+xml</dc:format>
    <dc:creator>
     <cc:Agent>
      <dc:title>Matplotlib v3.10.8, https://matplotlib.org/</dc:title>
     </cc:Agent>
    </dc:creator>
   </cc:Work>
  </rdf:RDF>
 </metadata>
 <defs>
  <style type="text/css">*{stroke-linejoin: round; stroke-linecap: butt}</style>
 </defs>
 <g id="figure_1">
  <g id="patch_1">
   <path d="M 0 202.939148 
L 516.6 202.939148 
L 516.6 0 
L 0 0 
z
" style="fill: #ffffff"/>
  </g>
  <g id="axes_1">
   <g id="line2d_1">
    <path d="M 111.190909 124.546261 
L 111.190909 73.108807 
" clip-path="url(#pf69bdbe26d)" style="fill: none; stroke-dasharray: 5.18,2.24; stroke-dashoffset: 0; stroke: #7f7f7f; stroke-width: 1.4"/>
   </g>
   <g id="line2d_2">
    <path d="M 19.881818 44.194261 
L 24.967259 52.127039 
L 30.0527 59.651962 
L 35.138141 66.76903 
L 40.223582 73.478244 
L 44.800478 79.16782 
L 49.377375 84.527033 
L 53.954272 89.555884 
L 58.531169 94.254373 
L 63.108066 98.622499 
L 67.684962 102.660262 
L 71.753315 105.972044 
L 75.821668 109.022799 
L 79.890021 111.812526 
L 83.958373 114.341227 
L 88.026726 116.6089 
L 92.095079 118.615546 
L 96.163431 120.361165 
L 100.231784 121.845757 
L 104.300137 123.069322 
L 108.368489 124.031859 
L 111.928298 124.659956 
L 115.488107 125.088204 
L 119.047915 125.316602 
L 122.607724 125.345152 
L 126.167532 125.173853 
L 129.727341 124.802705 
L 133.28715 124.231708 
L 136.846958 123.460863 
L 140.915311 122.335183 
L 144.983664 120.948476 
L 149.052016 119.300743 
L 153.120369 117.391982 
L 157.188722 115.222193 
L 161.257075 112.791378 
L 165.325427 110.099536 
L 169.39378 107.146666 
L 173.462133 103.93277 
L 177.530485 100.457846 
L 182.107382 96.236548 
L 186.684279 91.684887 
L 191.261176 86.802864 
L 195.838072 81.590478 
L 200.414969 76.04773 
L 204.991866 70.174619 
L 210.077307 63.261478 
L 215.162748 55.940483 
L 220.248189 48.211632 
L 222.790909 44.194261 
L 222.790909 44.194261 
" clip-path="url(#pf69bdbe26d)" style="fill: none; stroke: #1f77b4; stroke-width: 2.2; stroke-linecap: square"/>
   </g>
   <g id="line2d_3">
    <path d="M 45.245455 79.703352 
L 210.109091 63.216989 
" clip-path="url(#pf69bdbe26d)" style="fill: none; stroke: #ff7f0e; stroke-width: 2.2; stroke-linecap: square"/>
   </g>
   <g id="text_1">
    <!-- $\mathbf{x}$ -->
    <g style="fill: #1f77b4" transform="translate(37.830227 73.227301) scale(0.11 -0.11)">
     <defs>
      <path id="Cmb10-78" d="M 109 0 
L 109 325 
Q 628 325 678 384 
L 1381 1350 
L 588 2516 
L 141 2516 
L 141 2841 
L 1606 2841 
L 1606 2516 
L 1331 2516 
L 1766 1881 
L 2181 2463 
Q 2181 2491 2072 2503 
Q 1963 2516 1888 2516 
L 1888 2841 
L 3156 2841 
L 3156 2516 
Q 2638 2516 2584 2456 
L 1959 1594 
L 2816 325 
L 3272 325 
L 3272 0 
L 1797 0 
L 1797 325 
L 2075 325 
L 1575 1063 
L 1081 378 
Q 1081 356 1193 340 
Q 1306 325 1381 325 
L 1381 0 
L 109 0 
z
" transform="scale(0.015625)"/>
     </defs>
     <use xlink:href="#Cmb10-78" transform="translate(0 0.609375)"/>
    </g>
   </g>
   <g id="text_2">
    <!-- $\mathbf{y}$ -->
    <g style="fill: #1f77b4" transform="translate(213.279545 61.474276) scale(0.11 -0.11)">
     <defs>
      <path id="Cmb10-79" d="M 709 -1281 
Q 469 -1281 295 -1100 
Q 122 -919 122 -672 
Q 122 -513 231 -403 
Q 341 -294 506 -294 
Q 666 -294 775 -403 
Q 884 -513 884 -672 
Q 884 -925 672 -1019 
Q 684 -1025 709 -1025 
Q 925 -1025 1083 -869 
Q 1241 -713 1325 -494 
L 1509 0 
L 550 2516 
L 141 2516 
L 141 2841 
L 1672 2841 
L 1672 2516 
L 1319 2516 
L 1894 1006 
L 2456 2463 
Q 2456 2494 2342 2505 
Q 2228 2516 2119 2516 
L 2119 2841 
L 3231 2841 
L 3231 2516 
Q 2828 2516 2803 2456 
L 1672 -494 
Q 1544 -822 1291 -1051 
Q 1038 -1281 709 -1281 
z
" transform="scale(0.015625)"/>
     </defs>
     <use xlink:href="#Cmb10-79" transform="translate(0 0.609375)"/>
    </g>
   </g>
   <g id="text_3">
    <!-- $\theta f(\mathbf{x})+(1-\theta)f(\mathbf{y})$ -->
    <g style="fill: #ff7f0e" transform="translate(68.150227 53.296307) scale(0.095 -0.095)">
     <defs>
      <path id="Cmmi10-b5" d="M 1031 -72 
Q 741 -72 566 140 
Q 391 353 323 653 
Q 256 953 256 1247 
L 256 1253 
Q 256 1572 317 1915 
Q 378 2259 493 2601 
Q 609 2944 744 3213 
Q 838 3400 986 3631 
Q 1134 3863 1317 4064 
Q 1500 4266 1711 4389 
Q 1922 4513 2138 4513 
L 2144 4513 
Q 2375 4513 2529 4384 
Q 2684 4256 2770 4056 
Q 2856 3856 2890 3628 
Q 2925 3400 2925 3194 
Q 2925 2709 2794 2204 
Q 2663 1700 2431 1228 
Q 2344 1050 2189 809 
Q 2034 569 1861 378 
Q 1688 188 1472 58 
Q 1256 -72 1038 -72 
L 1031 -72 
z
M 1044 97 
Q 1256 97 1451 323 
Q 1647 550 1794 873 
Q 1941 1197 2052 1536 
Q 2163 1875 2216 2113 
L 909 2113 
Q 809 1709 753 1417 
Q 697 1125 697 844 
Q 697 97 1044 97 
z
M 959 2338 
L 2272 2338 
Q 2341 2619 2381 2808 
Q 2422 2997 2450 3206 
Q 2478 3416 2478 3597 
Q 2478 4347 2138 4347 
Q 1731 4347 1436 3692 
Q 1141 3038 959 2338 
z
" transform="scale(0.015625)"/>
      <path id="Cmmi10-66" d="M 622 -1056 
Q 741 -1147 909 -1147 
Q 1138 -1147 1281 -641 
Q 1341 -397 1606 966 
L 1900 2534 
L 1350 2534 
Q 1288 2534 1288 2619 
Q 1313 2759 1369 2759 
L 1941 2759 
L 2016 3175 
Q 2053 3369 2084 3508 
Q 2116 3647 2152 3765 
Q 2188 3884 2259 4031 
Q 2369 4241 2555 4377 
Q 2741 4513 2956 4513 
Q 3097 4513 3230 4461 
Q 3363 4409 3447 4306 
Q 3531 4203 3531 4063 
Q 3531 3900 3423 3779 
Q 3316 3659 3163 3659 
Q 3059 3659 2986 3723 
Q 2913 3788 2913 3891 
Q 2913 4031 3008 4136 
Q 3103 4241 3244 4256 
Q 3125 4347 2950 4347 
Q 2853 4347 2767 4256 
Q 2681 4166 2656 4063 
Q 2616 3900 2478 3181 
L 2400 2759 
L 3059 2759 
Q 3122 2759 3122 2675 
Q 3119 2659 3109 2620 
Q 3100 2581 3083 2557 
Q 3066 2534 3041 2534 
L 2356 2534 
L 2059 972 
Q 2003 631 1929 279 
Q 1856 -72 1723 -442 
Q 1591 -813 1384 -1063 
Q 1178 -1313 897 -1313 
Q 681 -1313 511 -1189 
Q 341 -1066 341 -863 
Q 341 -700 445 -579 
Q 550 -459 709 -459 
Q 816 -459 887 -523 
Q 959 -588 959 -691 
Q 959 -828 857 -942 
Q 756 -1056 622 -1056 
z
" transform="scale(0.015625)"/>
      <path id="Cmr10-28" d="M 1984 -1588 
Q 1628 -1306 1370 -942 
Q 1113 -578 948 -165 
Q 784 247 703 697 
Q 622 1147 622 1600 
Q 622 2059 703 2509 
Q 784 2959 951 3375 
Q 1119 3791 1378 4153 
Q 1638 4516 1984 4788 
Q 1984 4800 2016 4800 
L 2075 4800 
Q 2094 4800 2109 4783 
Q 2125 4766 2125 4744 
Q 2125 4716 2113 4703 
Q 1800 4397 1592 4047 
Q 1384 3697 1257 3301 
Q 1131 2906 1075 2482 
Q 1019 2059 1019 1600 
Q 1019 -434 2106 -1491 
Q 2125 -1509 2125 -1544 
Q 2125 -1559 2108 -1579 
Q 2091 -1600 2075 -1600 
L 2016 -1600 
Q 1984 -1600 1984 -1588 
z
" transform="scale(0.015625)"/>
      <path id="Cmr10-29" d="M 416 -1600 
Q 359 -1600 359 -1544 
Q 359 -1516 372 -1503 
Q 1466 -434 1466 1600 
Q 1466 3634 384 4691 
Q 359 4706 359 4744 
Q 359 4766 376 4783 
Q 394 4800 416 4800 
L 475 4800 
Q 494 4800 506 4788 
Q 966 4425 1272 3906 
Q 1578 3388 1720 2800 
Q 1863 2213 1863 1600 
Q 1863 1147 1786 708 
Q 1709 269 1542 -157 
Q 1375 -584 1119 -945 
Q 863 -1306 506 -1588 
Q 494 -1600 475 -1600 
L 416 -1600 
z
" transform="scale(0.015625)"/>
      <path id="Cmr10-2b" d="M 481 1472 
Q 428 1472 393 1512 
Q 359 1553 359 1600 
Q 359 1647 393 1687 
Q 428 1728 481 1728 
L 2363 1728 
L 2363 3616 
Q 2363 3666 2400 3698 
Q 2438 3731 2491 3731 
Q 2538 3731 2578 3698 
Q 2619 3666 2619 3616 
L 2619 1728 
L 4500 1728 
Q 4547 1728 4581 1687 
Q 4616 1647 4616 1600 
Q 4616 1553 4581 1512 
Q 4547 1472 4500 1472 
L 2619 1472 
L 2619 -416 
Q 2619 -466 2578 -498 
Q 2538 -531 2491 -531 
Q 2438 -531 2400 -498 
Q 2363 -466 2363 -416 
L 2363 1472 
L 481 1472 
z
" transform="scale(0.015625)"/>
      <path id="Cmr10-31" d="M 594 0 
L 594 225 
Q 1394 225 1394 428 
L 1394 3788 
Q 1063 3628 556 3628 
L 556 3853 
Q 1341 3853 1741 4263 
L 1831 4263 
Q 1853 4263 1873 4245 
Q 1894 4228 1894 4206 
L 1894 428 
Q 1894 225 2694 225 
L 2694 0 
L 594 0 
z
" transform="scale(0.015625)"/>
      <path id="Cmsy10-a1" d="M 653 1472 
Q 600 1472 565 1512 
Q 531 1553 531 1600 
Q 531 1647 565 1687 
Q 600 1728 653 1728 
L 4325 1728 
Q 4375 1728 4408 1687 
Q 4441 1647 4441 1600 
Q 4441 1553 4408 1512 
Q 4375 1472 4325 1472 
L 653 1472 
z
" transform="scale(0.015625)"/>
     </defs>
     <use xlink:href="#Cmmi10-b5"/>
     <use xlink:href="#Cmmi10-66" transform="translate(46.923828 0)"/>
     <use xlink:href="#Cmr10-28" transform="translate(95.800781 0)"/>
     <use xlink:href="#Cmb10-78" transform="translate(134.619141 0)"/>
     <use xlink:href="#Cmr10-29" transform="translate(187.304688 0)"/>
     <use xlink:href="#Cmr10-2b" transform="translate(243.681641 0)"/>
     <use xlink:href="#Cmr10-28" transform="translate(338.925781 0)"/>
     <use xlink:href="#Cmr10-31" transform="translate(377.744141 0)"/>
     <use xlink:href="#Cmsy10-a1" transform="translate(445.302734 0)"/>
     <use xlink:href="#Cmmi10-b5" transform="translate(540.546875 0)"/>
     <use xlink:href="#Cmr10-29" transform="translate(587.470703 0)"/>
     <use xlink:href="#Cmmi10-66" transform="translate(626.289062 0)"/>
     <use xlink:href="#Cmr10-28" transform="translate(675.166016 0)"/>
     <use xlink:href="#Cmb10-79" transform="translate(713.984375 0)"/>
     <use xlink:href="#Cmr10-29" transform="translate(766.669922 0)"/>
    </g>
   </g>
   <g id="text_4">
    <!-- $f(\theta\mathbf{x}+(1-\theta)\mathbf{y})$ -->
    <g style="fill: #1f77b4" transform="translate(74.182727 151.32808) scale(0.095 -0.095)">
     <use xlink:href="#Cmmi10-66"/>
     <use xlink:href="#Cmr10-28" transform="translate(48.876953 0)"/>
     <use xlink:href="#Cmmi10-b5" transform="translate(87.695312 0)"/>
     <use xlink:href="#Cmb10-78" transform="translate(134.619141 0)"/>
     <use xlink:href="#Cmr10-2b" transform="translate(204.863281 0)"/>
     <use xlink:href="#Cmr10-28" transform="translate(300.107422 0)"/>
     <use xlink:href="#Cmr10-31" transform="translate(338.925781 0)"/>
     <use xlink:href="#Cmsy10-a1" transform="translate(406.484375 0)"/>
     <use xlink:href="#Cmmi10-b5" transform="translate(501.728516 0)"/>
     <use xlink:href="#Cmr10-29" transform="translate(548.652344 0)"/>
     <use xlink:href="#Cmb10-79" transform="translate(587.470703 0)"/>
     <use xlink:href="#Cmr10-29" transform="translate(640.15625 0)"/>
    </g>
   </g>
   <g id="patch_2">
    <path d="M 9.20282 125.357898 
Q 121.338245 125.357898 232.467439 125.357898 
" style="fill: none; stroke: #7f7f7f; stroke-width: 0.9; stroke-linecap: round"/>
    <path d="M 228.067439 123.157898 
L 232.467439 125.357898 
L 228.067439 127.557898 
" style="fill: none; stroke: #7f7f7f; stroke-width: 0.9; stroke-linecap: round"/>
   </g>
   <g id="patch_3">
    <path d="M 121.336364 142.377805 
Q 121.336364 87.311981 121.336364 33.252388 
" style="fill: none; stroke: #7f7f7f; stroke-width: 0.9; stroke-linecap: round"/>
    <path d="M 119.136364 37.652388 
L 121.336364 33.252388 
L 123.536364 37.652388 
" style="fill: none; stroke: #7f7f7f; stroke-width: 0.9; stroke-linecap: round"/>
   </g>
   <g id="text_5">
    <!-- (a) chord lens -->
    <g transform="translate(79.933551 24.244261) scale(0.12 -0.12)">
     <defs>
      <path id="DejaVuSans-28" d="M 1984 4856 
Q 1566 4138 1362 3434 
Q 1159 2731 1159 2009 
Q 1159 1288 1364 580 
Q 1569 -128 1984 -844 
L 1484 -844 
Q 1016 -109 783 600 
Q 550 1309 550 2009 
Q 550 2706 781 3412 
Q 1013 4119 1484 4856 
L 1984 4856 
z
" transform="scale(0.015625)"/>
      <path id="DejaVuSans-61" d="M 2194 1759 
Q 1497 1759 1228 1600 
Q 959 1441 959 1056 
Q 959 750 1161 570 
Q 1363 391 1709 391 
Q 2188 391 2477 730 
Q 2766 1069 2766 1631 
L 2766 1759 
L 2194 1759 
z
M 3341 1997 
L 3341 0 
L 2766 0 
L 2766 531 
Q 2569 213 2275 61 
Q 1981 -91 1556 -91 
Q 1019 -91 701 211 
Q 384 513 384 1019 
Q 384 1609 779 1909 
Q 1175 2209 1959 2209 
L 2766 2209 
L 2766 2266 
Q 2766 2663 2505 2880 
Q 2244 3097 1772 3097 
Q 1472 3097 1187 3025 
Q 903 2953 641 2809 
L 641 3341 
Q 956 3463 1253 3523 
Q 1550 3584 1831 3584 
Q 2591 3584 2966 3190 
Q 3341 2797 3341 1997 
z
" transform="scale(0.015625)"/>
      <path id="DejaVuSans-29" d="M 513 4856 
L 1013 4856 
Q 1481 4119 1714 3412 
Q 1947 2706 1947 2009 
Q 1947 1309 1714 600 
Q 1481 -109 1013 -844 
L 513 -844 
Q 928 -128 1133 580 
Q 1338 1288 1338 2009 
Q 1338 2731 1133 3434 
Q 928 4138 513 4856 
z
" transform="scale(0.015625)"/>
      <path id="DejaVuSans-20" transform="scale(0.015625)"/>
      <path id="DejaVuSans-63" d="M 3122 3366 
L 3122 2828 
Q 2878 2963 2633 3030 
Q 2388 3097 2138 3097 
Q 1578 3097 1268 2742 
Q 959 2388 959 1747 
Q 959 1106 1268 751 
Q 1578 397 2138 397 
Q 2388 397 2633 464 
Q 2878 531 3122 666 
L 3122 134 
Q 2881 22 2623 -34 
Q 2366 -91 2075 -91 
Q 1284 -91 818 406 
Q 353 903 353 1747 
Q 353 2603 823 3093 
Q 1294 3584 2113 3584 
Q 2378 3584 2631 3529 
Q 2884 3475 3122 3366 
z
" transform="scale(0.015625)"/>
      <path id="DejaVuSans-68" d="M 3513 2113 
L 3513 0 
L 2938 0 
L 2938 2094 
Q 2938 2591 2744 2837 
Q 2550 3084 2163 3084 
Q 1697 3084 1428 2787 
Q 1159 2491 1159 1978 
L 1159 0 
L 581 0 
L 581 4863 
L 1159 4863 
L 1159 2956 
Q 1366 3272 1645 3428 
Q 1925 3584 2291 3584 
Q 2894 3584 3203 3211 
Q 3513 2838 3513 2113 
z
" transform="scale(0.015625)"/>
      <path id="DejaVuSans-6f" d="M 1959 3097 
Q 1497 3097 1228 2736 
Q 959 2375 959 1747 
Q 959 1119 1226 758 
Q 1494 397 1959 397 
Q 2419 397 2687 759 
Q 2956 1122 2956 1747 
Q 2956 2369 2687 2733 
Q 2419 3097 1959 3097 
z
M 1959 3584 
Q 2709 3584 3137 3096 
Q 3566 2609 3566 1747 
Q 3566 888 3137 398 
Q 2709 -91 1959 -91 
Q 1206 -91 779 398 
Q 353 888 353 1747 
Q 353 2609 779 3096 
Q 1206 3584 1959 3584 
z
" transform="scale(0.015625)"/>
      <path id="DejaVuSans-72" d="M 2631 2963 
Q 2534 3019 2420 3045 
Q 2306 3072 2169 3072 
Q 1681 3072 1420 2755 
Q 1159 2438 1159 1844 
L 1159 0 
L 581 0 
L 581 3500 
L 1159 3500 
L 1159 2956 
Q 1341 3275 1631 3429 
Q 1922 3584 2338 3584 
Q 2397 3584 2469 3576 
Q 2541 3569 2628 3553 
L 2631 2963 
z
" transform="scale(0.015625)"/>
      <path id="DejaVuSans-64" d="M 2906 2969 
L 2906 4863 
L 3481 4863 
L 3481 0 
L 2906 0 
L 2906 525 
Q 2725 213 2448 61 
Q 2172 -91 1784 -91 
Q 1150 -91 751 415 
Q 353 922 353 1747 
Q 353 2572 751 3078 
Q 1150 3584 1784 3584 
Q 2172 3584 2448 3432 
Q 2725 3281 2906 2969 
z
M 947 1747 
Q 947 1113 1208 752 
Q 1469 391 1925 391 
Q 2381 391 2643 752 
Q 2906 1113 2906 1747 
Q 2906 2381 2643 2742 
Q 2381 3103 1925 3103 
Q 1469 3103 1208 2742 
Q 947 2381 947 1747 
z
" transform="scale(0.015625)"/>
      <path id="DejaVuSans-6c" d="M 603 4863 
L 1178 4863 
L 1178 0 
L 603 0 
L 603 4863 
z
" transform="scale(0.015625)"/>
      <path id="DejaVuSans-65" d="M 3597 1894 
L 3597 1613 
L 953 1613 
Q 991 1019 1311 708 
Q 1631 397 2203 397 
Q 2534 397 2845 478 
Q 3156 559 3463 722 
L 3463 178 
Q 3153 47 2828 -22 
Q 2503 -91 2169 -91 
Q 1331 -91 842 396 
Q 353 884 353 1716 
Q 353 2575 817 3079 
Q 1281 3584 2069 3584 
Q 2775 3584 3186 3129 
Q 3597 2675 3597 1894 
z
M 3022 2063 
Q 3016 2534 2758 2815 
Q 2500 3097 2075 3097 
Q 1594 3097 1305 2825 
Q 1016 2553 972 2059 
L 3022 2063 
z
" transform="scale(0.015625)"/>
      <path id="DejaVuSans-6e" d="M 3513 2113 
L 3513 0 
L 2938 0 
L 2938 2094 
Q 2938 2591 2744 2837 
Q 2550 3084 2163 3084 
Q 1697 3084 1428 2787 
Q 1159 2491 1159 1978 
L 1159 0 
L 581 0 
L 581 3500 
L 1159 3500 
L 1159 2956 
Q 1366 3272 1645 3428 
Q 1925 3584 2291 3584 
Q 2894 3584 3203 3211 
Q 3513 2838 3513 2113 
z
" transform="scale(0.015625)"/>
      <path id="DejaVuSans-73" d="M 2834 3397 
L 2834 2853 
Q 2591 2978 2328 3040 
Q 2066 3103 1784 3103 
Q 1356 3103 1142 2972 
Q 928 2841 928 2578 
Q 928 2378 1081 2264 
Q 1234 2150 1697 2047 
L 1894 2003 
Q 2506 1872 2764 1633 
Q 3022 1394 3022 966 
Q 3022 478 2636 193 
Q 2250 -91 1575 -91 
Q 1294 -91 989 -36 
Q 684 19 347 128 
L 347 722 
Q 666 556 975 473 
Q 1284 391 1588 391 
Q 1994 391 2212 530 
Q 2431 669 2431 922 
Q 2431 1156 2273 1281 
Q 2116 1406 1581 1522 
L 1381 1569 
Q 847 1681 609 1914 
Q 372 2147 372 2553 
Q 372 3047 722 3315 
Q 1072 3584 1716 3584 
Q 2034 3584 2315 3537 
Q 2597 3491 2834 3397 
z
" transform="scale(0.015625)"/>
     </defs>
     <use xlink:href="#DejaVuSans-28"/>
     <use xlink:href="#DejaVuSans-61" transform="translate(39.013672 0)"/>
     <use xlink:href="#DejaVuSans-29" transform="translate(100.292969 0)"/>
     <use xlink:href="#DejaVuSans-20" transform="translate(139.306641 0)"/>
     <use xlink:href="#DejaVuSans-63" transform="translate(171.09375 0)"/>
     <use xlink:href="#DejaVuSans-68" transform="translate(226.074219 0)"/>
     <use xlink:href="#DejaVuSans-6f" transform="translate(289.453125 0)"/>
     <use xlink:href="#DejaVuSans-72" transform="translate(350.634766 0)"/>
     <use xlink:href="#DejaVuSans-64" transform="translate(389.998047 0)"/>
     <use xlink:href="#DejaVuSans-20" transform="translate(453.474609 0)"/>
     <use xlink:href="#DejaVuSans-6c" transform="translate(485.261719 0)"/>
     <use xlink:href="#DejaVuSans-65" transform="translate(513.044922 0)"/>
     <use xlink:href="#DejaVuSans-6e" transform="translate(574.568359 0)"/>
     <use xlink:href="#DejaVuSans-73" transform="translate(637.947266 0)"/>
    </g>
   </g>
   <g id="line2d_4">
    <defs>
     <path id="mb4056238e5" d="M 0 2.5 
C 0.663008 2.5 1.29895 2.236584 1.767767 1.767767 
C 2.236584 1.29895 2.5 0.663008 2.5 0 
C 2.5 -0.663008 2.236584 -1.29895 1.767767 -1.767767 
C 1.29895 -2.236584 0.663008 -2.5 0 -2.5 
C -0.663008 -2.5 -1.29895 -2.236584 -1.767767 -1.767767 
C -2.236584 -1.29895 -2.5 -0.663008 -2.5 0 
C -2.5 0.663008 -2.236584 1.29895 -1.767767 1.767767 
C -1.29895 2.236584 -0.663008 2.5 0 2.5 
z
" style="stroke: #ff7f0e"/>
    </defs>
    <g clip-path="url(#pf69bdbe26d)">
     <use xlink:href="#mb4056238e5" x="45.245455" y="79.703352" style="fill: #ff7f0e; stroke: #ff7f0e"/>
     <use xlink:href="#mb4056238e5" x="210.109091" y="63.216989" style="fill: #ff7f0e; stroke: #ff7f0e"/>
    </g>
   </g>
   <g id="line2d_5">
    <defs>
     <path id="m9a1dc8a108" d="M 0 2.5 
C 0.663008 2.5 1.29895 2.236584 1.767767 1.767767 
C 2.236584 1.29895 2.5 0.663008 2.5 0 
C 2.5 -0.663008 2.236584 -1.29895 1.767767 -1.767767 
C 1.29895 -2.236584 0.663008 -2.5 0 -2.5 
C -0.663008 -2.5 -1.29895 -2.236584 -1.767767 -1.767767 
C -2.236584 -1.29895 -2.5 -0.663008 -2.5 0 
C -2.5 0.663008 -2.236584 1.29895 -1.767767 1.767767 
C -1.29895 2.236584 -0.663008 2.5 0 2.5 
z
" style="stroke: #1f77b4"/>
    </defs>
    <g clip-path="url(#pf69bdbe26d)">
     <use xlink:href="#m9a1dc8a108" x="111.190909" y="124.546261" style="fill: #1f77b4; stroke: #1f77b4"/>
    </g>
   </g>
   <g id="line2d_6">
    <g clip-path="url(#pf69bdbe26d)">
     <use xlink:href="#mb4056238e5" x="111.190909" y="73.108807" style="fill: #ff7f0e; stroke: #ff7f0e"/>
    </g>
   </g>
  </g>
  <g id="axes_2">
   <g id="line2d_7">
    <path d="M 293.809091 61.948807 
L 496.652435 203.939148 
L 496.652435 203.939148 
" clip-path="url(#p41f9c38f9b)" style="fill: none; stroke: #2ca02c; stroke-width: 2; stroke-linecap: square"/>
   </g>
   <g id="line2d_8">
    <path d="M 455.502273 175.134034 
L 455.502273 88.818409 
" clip-path="url(#p41f9c38f9b)" style="fill: none; stroke-dasharray: 5.18,2.24; stroke-dashoffset: 0; stroke: #7f7f7f; stroke-width: 1.4"/>
   </g>
   <g id="line2d_9">
    <path d="M 293.809091 36.268125 
L 298.894532 44.200903 
L 303.979973 51.725826 
L 309.065414 58.842894 
L 314.150854 65.552107 
L 318.727751 71.241683 
L 323.304648 76.600897 
L 327.881545 81.629748 
L 332.458442 86.328236 
L 337.035338 90.696362 
L 341.612235 94.734126 
L 345.680588 98.045908 
L 349.748941 101.096663 
L 353.817293 103.88639 
L 357.885646 106.41509 
L 361.953999 108.682764 
L 366.022351 110.68941 
L 370.090704 112.435029 
L 374.159057 113.919621 
L 378.227409 115.143186 
L 382.295762 116.105723 
L 385.855571 116.73382 
L 389.415379 117.162067 
L 392.975188 117.390466 
L 396.534997 117.419016 
L 400.094805 117.247717 
L 403.654614 116.876569 
L 407.214422 116.305572 
L 410.774231 115.534726 
L 414.842584 114.409047 
L 418.910936 113.02234 
L 422.979289 111.374606 
L 427.047642 109.465845 
L 431.115995 107.296057 
L 435.184347 104.865242 
L 439.2527 102.173399 
L 443.321053 99.22053 
L 447.389405 96.006633 
L 451.457758 92.531709 
L 456.034655 88.310411 
L 460.611552 83.75875 
L 465.188448 78.876727 
L 469.765345 73.664341 
L 474.342242 68.121593 
L 478.919139 62.248483 
L 484.00458 55.335342 
L 489.090021 48.014346 
L 494.175461 40.285496 
L 496.718182 36.268125 
L 496.718182 36.268125 
" clip-path="url(#p41f9c38f9b)" style="fill: none; stroke: #1f77b4; stroke-width: 2.2; stroke-linecap: square"/>
   </g>
   <g id="text_6">
    <!-- $\mathbf{x}$ -->
    <g style="fill: #1f77b4" transform="translate(343.462045 94.786392) scale(0.11 -0.11)">
     <use xlink:href="#Cmb10-78" transform="translate(0 0.609375)"/>
    </g>
   </g>
   <g id="text_7">
    <!-- $\mathbf{y}$ -->
    <g style="fill: #1f77b4" transform="translate(459.306818 88.660923) scale(0.11 -0.11)">
     <use xlink:href="#Cmb10-79" transform="translate(0 0.609375)"/>
    </g>
   </g>
   <g id="text_8">
    <!-- $f(\mathbf{x})+\nabla f(\mathbf{x})^\top(\mathbf{y}-\mathbf{x})$ -->
    <g style="fill: #2ca02c" transform="translate(423.435909 193.614148) scale(0.085 -0.085)">
     <defs>
      <path id="Cmsy10-72" d="M 2503 -141 
L 300 4300 
Q 300 4306 298 4311 
Q 297 4316 294 4319 
Q 294 4372 347 4372 
L 4978 4372 
Q 5031 4372 5031 4319 
Q 5031 4313 5029 4309 
Q 5028 4306 5025 4300 
L 2822 -141 
Q 2791 -213 2706 -213 
L 2619 -213 
Q 2534 -213 2503 -141 
z
M 2847 416 
L 4569 3891 
L 1125 3891 
L 2847 416 
z
" transform="scale(0.015625)"/>
      <path id="Cmsy10-3e" d="M 2363 122 
L 2363 4006 
L 481 4006 
Q 428 4006 393 4047 
Q 359 4088 359 4134 
Q 359 4181 393 4222 
Q 428 4263 481 4263 
L 4506 4263 
Q 4553 4263 4587 4222 
Q 4622 4181 4622 4134 
Q 4622 4088 4587 4047 
Q 4553 4006 4506 4006 
L 2619 4006 
L 2619 122 
Q 2619 69 2578 34 
Q 2538 0 2491 0 
Q 2438 0 2400 34 
Q 2363 69 2363 122 
z
" transform="scale(0.015625)"/>
     </defs>
     <use xlink:href="#Cmmi10-66" transform="translate(0 0.109375)"/>
     <use xlink:href="#Cmr10-28" transform="translate(48.876953 0.109375)"/>
     <use xlink:href="#Cmb10-78" transform="translate(87.695312 0.109375)"/>
     <use xlink:href="#Cmr10-29" transform="translate(140.380859 0.109375)"/>
     <use xlink:href="#Cmr10-2b" transform="translate(196.757812 0.109375)"/>
     <use xlink:href="#Cmsy10-72" transform="translate(292.001953 0.109375)"/>
     <use xlink:href="#Cmmi10-66" transform="translate(375.302734 0.109375)"/>
     <use xlink:href="#Cmr10-28" transform="translate(424.179688 0.109375)"/>
     <use xlink:href="#Cmb10-78" transform="translate(462.998047 0.109375)"/>
     <use xlink:href="#Cmr10-29" transform="translate(515.683594 0.109375)"/>
     <use xlink:href="#Cmsy10-3e" transform="translate(571.257109 38.373438) scale(0.7)"/>
     <use xlink:href="#Cmr10-28" transform="translate(644.305352 0.109375)"/>
     <use xlink:href="#Cmb10-79" transform="translate(683.123711 0.109375)"/>
     <use xlink:href="#Cmsy10-a1" transform="translate(753.367852 0.109375)"/>
     <use xlink:href="#Cmb10-78" transform="translate(848.611992 0.109375)"/>
     <use xlink:href="#Cmr10-29" transform="translate(901.297539 0.109375)"/>
    </g>
   </g>
   <g id="patch_4">
    <path d="M 283.130093 117.431761 
Q 395.265517 117.431761 506.394711 117.431761 
" style="fill: none; stroke: #7f7f7f; stroke-width: 0.9; stroke-linecap: round"/>
    <path d="M 501.994711 115.231761 
L 506.394711 117.431761 
L 501.994711 119.631761 
" style="fill: none; stroke: #7f7f7f; stroke-width: 0.9; stroke-linecap: round"/>
   </g>
   <g id="patch_5">
    <path d="M 395.263636 134.451669 
Q 395.263636 79.385845 395.263636 25.326251 
" style="fill: none; stroke: #7f7f7f; stroke-width: 0.9; stroke-linecap: round"/>
    <path d="M 393.063636 29.726251 
L 395.263636 25.326251 
L 397.463636 29.726251 
" style="fill: none; stroke: #7f7f7f; stroke-width: 0.9; stroke-linecap: round"/>
   </g>
   <g id="text_9">
    <!-- (b) first-order lens -->
    <g transform="translate(340.671136 16.318125) scale(0.12 -0.12)">
     <defs>
      <path id="DejaVuSans-62" d="M 3116 1747 
Q 3116 2381 2855 2742 
Q 2594 3103 2138 3103 
Q 1681 3103 1420 2742 
Q 1159 2381 1159 1747 
Q 1159 1113 1420 752 
Q 1681 391 2138 391 
Q 2594 391 2855 752 
Q 3116 1113 3116 1747 
z
M 1159 2969 
Q 1341 3281 1617 3432 
Q 1894 3584 2278 3584 
Q 2916 3584 3314 3078 
Q 3713 2572 3713 1747 
Q 3713 922 3314 415 
Q 2916 -91 2278 -91 
Q 1894 -91 1617 61 
Q 1341 213 1159 525 
L 1159 0 
L 581 0 
L 581 4863 
L 1159 4863 
L 1159 2969 
z
" transform="scale(0.015625)"/>
      <path id="DejaVuSans-66" d="M 2375 4863 
L 2375 4384 
L 1825 4384 
Q 1516 4384 1395 4259 
Q 1275 4134 1275 3809 
L 1275 3500 
L 2222 3500 
L 2222 3053 
L 1275 3053 
L 1275 0 
L 697 0 
L 697 3053 
L 147 3053 
L 147 3500 
L 697 3500 
L 697 3744 
Q 697 4328 969 4595 
Q 1241 4863 1831 4863 
L 2375 4863 
z
" transform="scale(0.015625)"/>
      <path id="DejaVuSans-69" d="M 603 3500 
L 1178 3500 
L 1178 0 
L 603 0 
L 603 3500 
z
M 603 4863 
L 1178 4863 
L 1178 4134 
L 603 4134 
L 603 4863 
z
" transform="scale(0.015625)"/>
      <path id="DejaVuSans-74" d="M 1172 4494 
L 1172 3500 
L 2356 3500 
L 2356 3053 
L 1172 3053 
L 1172 1153 
Q 1172 725 1289 603 
Q 1406 481 1766 481 
L 2356 481 
L 2356 0 
L 1766 0 
Q 1100 0 847 248 
Q 594 497 594 1153 
L 594 3053 
L 172 3053 
L 172 3500 
L 594 3500 
L 594 4494 
L 1172 4494 
z
" transform="scale(0.015625)"/>
      <path id="DejaVuSans-2d" d="M 313 2009 
L 1997 2009 
L 1997 1497 
L 313 1497 
L 313 2009 
z
" transform="scale(0.015625)"/>
     </defs>
     <use xlink:href="#DejaVuSans-28"/>
     <use xlink:href="#DejaVuSans-62" transform="translate(39.013672 0)"/>
     <use xlink:href="#DejaVuSans-29" transform="translate(102.490234 0)"/>
     <use xlink:href="#DejaVuSans-20" transform="translate(141.503906 0)"/>
     <use xlink:href="#DejaVuSans-66" transform="translate(173.291016 0)"/>
     <use xlink:href="#DejaVuSans-69" transform="translate(208.496094 0)"/>
     <use xlink:href="#DejaVuSans-72" transform="translate(236.279297 0)"/>
     <use xlink:href="#DejaVuSans-73" transform="translate(277.392578 0)"/>
     <use xlink:href="#DejaVuSans-74" transform="translate(329.492188 0)"/>
     <use xlink:href="#DejaVuSans-2d" transform="translate(368.701172 0)"/>
     <use xlink:href="#DejaVuSans-6f" transform="translate(406.660156 0)"/>
     <use xlink:href="#DejaVuSans-72" transform="translate(467.841797 0)"/>
     <use xlink:href="#DejaVuSans-64" transform="translate(507.205078 0)"/>
     <use xlink:href="#DejaVuSans-65" transform="translate(570.681641 0)"/>
     <use xlink:href="#DejaVuSans-72" transform="translate(632.205078 0)"/>
     <use xlink:href="#DejaVuSans-20" transform="translate(673.318359 0)"/>
     <use xlink:href="#DejaVuSans-6c" transform="translate(705.105469 0)"/>
     <use xlink:href="#DejaVuSans-65" transform="translate(732.888672 0)"/>
     <use xlink:href="#DejaVuSans-6e" transform="translate(794.412109 0)"/>
     <use xlink:href="#DejaVuSans-73" transform="translate(857.791016 0)"/>
    </g>
   </g>
   <g id="line2d_10">
    <defs>
     <path id="m02aa2b9f1b" d="M 0 3 
C 0.795609 3 1.55874 2.683901 2.12132 2.12132 
C 2.683901 1.55874 3 0.795609 3 0 
C 3 -0.795609 2.683901 -1.55874 2.12132 -2.12132 
C 1.55874 -2.683901 0.795609 -3 0 -3 
C -0.795609 -3 -1.55874 -2.683901 -2.12132 -2.12132 
C -2.683901 -1.55874 -3 -0.795609 -3 0 
C -3 0.795609 -2.683901 1.55874 -2.12132 2.12132 
C -1.55874 2.683901 -0.795609 3 0 3 
z
" style="stroke: #1f77b4"/>
    </defs>
    <g clip-path="url(#p41f9c38f9b)">
     <use xlink:href="#m02aa2b9f1b" x="350.877273" y="101.896534" style="fill: #1f77b4; stroke: #1f77b4"/>
    </g>
   </g>
   <g id="line2d_11">
    <g clip-path="url(#p41f9c38f9b)">
     <use xlink:href="#m9a1dc8a108" x="455.502273" y="88.818409" style="fill: #1f77b4; stroke: #1f77b4"/>
    </g>
   </g>
  </g>
 </g>
 <defs>
  <clipPath id="pf69bdbe26d">
   <rect x="7.2" y="30.244261" width="228.272727" height="123.647727"/>
  </clipPath>
  <clipPath id="p41f9c38f9b">
   <rect x="281.127273" y="22.318125" width="228.272727" height="139.5"/>
  </clipPath>
 </defs>
</svg>
