<?xml version="1.0" encoding="UTF-8"?>
<svg xmlns="http://www.w3.org/2000/svg" viewBox="0 0 600 290" width="600" height="290"><style><![CDATA[@import url('https://fonts.googleapis.com/css2?family=JetBrains+Mono:wght@400;500;700&family=Source+Sans+3:wght@400;500;600;700&display=swap');]]></style><text x="300" y="26" font-family="'Source Sans 3', system-ui, -apple-system, 'Helvetica Neue', Arial, sans-serif" font-size="15.5" font-weight="700" fill="#15181C" text-anchor="middle" dominant-baseline="central">Variance: same mean, different spread</text><line x1="64" y1="236" x2="536" y2="236" stroke="#90A4AE" stroke-width="1.6"/><path d="M70.0 234.7L74.2 234.5L78.4 234.3L82.5 234.0L86.7 233.8L90.9 233.4L95.1 233.1L99.3 232.7L103.5 232.3L107.6 231.8L111.8 231.3L116.0 230.7L120.2 230.0L124.4 229.3L128.5 228.6L132.7 227.8L136.9 226.9L141.1 225.9L145.3 224.9L149.5 223.8L153.6 222.6L157.8 221.3L162.0 220.0L166.2 218.6L170.4 217.1L174.5 215.5L178.7 213.9L182.9 212.2L187.1 210.4L191.3 208.6L195.5 206.7L199.6 204.8L203.8 202.8L208.0 200.8L212.2 198.8L216.4 196.8L220.5 194.7L224.7 192.7L228.9 190.7L233.1 188.7L237.3 186.7L241.5 184.8L245.6 183.0L249.8 181.3L254.0 179.6L258.2 178.0L262.4 176.6L266.5 175.3L270.7 174.1L274.9 173.0L279.1 172.1L283.3 171.4L287.5 170.8L291.6 170.3L295.8 170.1L300.0 170.0L304.2 170.1L308.4 170.3L312.5 170.8L316.7 171.4L320.9 172.1L325.1 173.0L329.3 174.1L333.5 175.3L337.6 176.6L341.8 178.0L346.0 179.6L350.2 181.3L354.4 183.0L358.5 184.8L362.7 186.7L366.9 188.7L371.1 190.7L375.3 192.7L379.5 194.7L383.6 196.8L387.8 198.8L392.0 200.8L396.2 202.8L400.4 204.8L404.5 206.7L408.7 208.6L412.9 210.4L417.1 212.2L421.3 213.9L425.5 215.5L429.6 217.1L433.8 218.6L438.0 220.0L442.2 221.3L446.4 222.6L450.5 223.8L454.7 224.9L458.9 225.9L463.1 226.9L467.3 227.8L471.5 228.6L475.6 229.3L479.8 230.0L484.0 230.7L488.2 231.3L492.4 231.8L496.5 232.3L500.7 232.7L504.9 233.1L509.1 233.4L513.3 233.8L517.5 234.0L521.6 234.3L525.8 234.5L530.0 234.7" fill="none" stroke="#FB8C00" stroke-width="2.6"/><path d="M70.0 236.0L74.2 236.0L78.4 236.0L82.5 236.0L86.7 236.0L90.9 236.0L95.1 236.0L99.3 236.0L103.5 236.0L107.6 236.0L111.8 236.0L116.0 236.0L120.2 236.0L124.4 236.0L128.5 236.0L132.7 236.0L136.9 236.0L141.1 236.0L145.3 236.0L149.5 236.0L153.6 236.0L157.8 236.0L162.0 236.0L166.2 235.9L170.4 235.9L174.5 235.8L178.7 235.7L182.9 235.6L187.1 235.4L191.3 235.1L195.5 234.7L199.6 234.1L203.8 233.3L208.0 232.1L212.2 230.7L216.4 228.7L220.5 226.2L224.7 223.1L228.9 219.1L233.1 214.4L237.3 208.6L241.5 201.9L245.6 194.2L249.8 185.5L254.0 175.9L258.2 165.6L262.4 154.7L266.5 143.6L270.7 132.5L274.9 121.8L279.1 111.8L283.3 103.1L287.5 95.9L291.6 90.5L295.8 87.1L300.0 86.0L304.2 87.1L308.4 90.5L312.5 95.9L316.7 103.1L320.9 111.8L325.1 121.8L329.3 132.5L333.5 143.6L337.6 154.7L341.8 165.6L346.0 175.9L350.2 185.5L354.4 194.2L358.5 201.9L362.7 208.6L366.9 214.4L371.1 219.1L375.3 223.1L379.5 226.2L383.6 228.7L387.8 230.7L392.0 232.1L396.2 233.3L400.4 234.1L404.5 234.7L408.7 235.1L412.9 235.4L417.1 235.6L421.3 235.7L425.5 235.8L429.6 235.9L433.8 235.9L438.0 236.0L442.2 236.0L446.4 236.0L450.5 236.0L454.7 236.0L458.9 236.0L463.1 236.0L467.3 236.0L471.5 236.0L475.6 236.0L479.8 236.0L484.0 236.0L488.2 236.0L492.4 236.0L496.5 236.0L500.7 236.0L504.9 236.0L509.1 236.0L513.3 236.0L517.5 236.0L521.6 236.0L525.8 236.0L530.0 236.0" fill="none" stroke="#2196F3" stroke-width="2.6"/><line x1="300" y1="236" x2="300" y2="72" stroke="#15181C" stroke-width="1.4" stroke-dasharray="5 4"/><text x="300" y="62" font-family="'Source Sans 3', system-ui, -apple-system, 'Helvetica Neue', Arial, sans-serif" font-size="13" font-weight="700" fill="#15181C" text-anchor="middle" dominant-baseline="central">μ</text><line x1="218" y1="236" x2="218" y2="228" stroke="#FB8C00" stroke-width="1.6"/><text x="218" y="252" font-family="'Source Sans 3', system-ui, -apple-system, 'Helvetica Neue', Arial, sans-serif" font-size="10.5" font-weight="700" fill="#FB8C00" text-anchor="middle" dominant-baseline="central">μ−σ</text><line x1="382" y1="236" x2="382" y2="228" stroke="#FB8C00" stroke-width="1.6"/><text x="382" y="252" font-family="'Source Sans 3', system-ui, -apple-system, 'Helvetica Neue', Arial, sans-serif" font-size="10.5" font-weight="700" fill="#FB8C00" text-anchor="middle" dominant-baseline="central">μ+σ</text><rect x="408" y="85" width="16" height="14" rx="2" fill="#E3F2FD" stroke="#2196F3" stroke-width="2"/><text x="432" y="94" font-family="'Source Sans 3', system-ui, -apple-system, 'Helvetica Neue', Arial, sans-serif" font-size="11" font-weight="600" fill="#15181C" text-anchor="start" dominant-baseline="central">low variance</text><rect x="408" y="109" width="16" height="14" rx="2" fill="#FFE7C7" stroke="#FB8C00" stroke-width="2"/><text x="432" y="118" font-family="'Source Sans 3', system-ui, -apple-system, 'Helvetica Neue', Arial, sans-serif" font-size="11" font-weight="600" fill="#15181C" text-anchor="start" dominant-baseline="central">high variance</text><text x="300" y="278" font-family="'Source Sans 3', system-ui, -apple-system, 'Helvetica Neue', Arial, sans-serif" font-size="11.5" font-weight="600" fill="#6B7280" text-anchor="middle" dominant-baseline="central">σ (standard deviation) = typical distance from the mean</text></svg>
