<?xml version="1.0" encoding="utf-8" standalone="no"?>
<!DOCTYPE svg PUBLIC "-//W3C//DTD SVG 1.1//EN"
  "http://www.w3.org/Graphics/SVG/1.1/DTD/svg11.dtd">
<svg xmlns:xlink="http://www.w3.org/1999/xlink" width="714.4pt" height="954.4pt" viewBox="0 0 714.4 954.4" xmlns="http://www.w3.org/2000/svg" version="1.1">
 <metadata>
  <rdf:RDF xmlns:dc="http://purl.org/dc/elements/1.1/" xmlns:cc="http://creativecommons.org/ns#" xmlns:rdf="http://www.w3.org/1999/02/22-rdf-syntax-ns#">
   <cc:Work>
    <dc:type rdf:resource="http://purl.org/dc/dcmitype/StillImage"/>
    <dc:format>image/svg+xml</dc:format>
    <dc:creator>
     <cc:Agent>
      <dc:title>Matplotlib v3.10.8, https://matplotlib.org/</dc:title>
     </cc:Agent>
    </dc:creator>
   </cc:Work>
  </rdf:RDF>
 </metadata>
 <defs>
  <style type="text/css">*{stroke-linejoin: round; stroke-linecap: butt}</style>
 </defs>
 <g id="figure_1">
  <g id="patch_1">
   <path d="M 0 954.4 
L 714.4 954.4 
L 714.4 0 
L 0 0 
z
" style="fill: #ffffff"/>
  </g>
  <g id="axes_1">
   <g id="patch_2">
    <path d="M 173.2 851.2 
L 361.2 851.2 
Q 379.2 851.2 379.2 833.2 
L 379.2 90.2 
Q 379.2 72.2 361.2 72.2 
L 173.2 72.2 
Q 155.2 72.2 155.2 90.2 
L 155.2 833.2 
Q 155.2 851.2 173.2 851.2 
z
" clip-path="url(#pc753815cfb)" style="fill: #e4e4e4"/>
   </g>
   <g id="patch_3">
    <path d="M 183.2 738.2 
L 351.2 738.2 
Q 363.2 738.2 363.2 726.2 
L 363.2 684.2 
Q 363.2 672.2 351.2 672.2 
L 183.2 672.2 
Q 171.2 672.2 171.2 684.2 
L 171.2 726.2 
Q 171.2 738.2 183.2 738.2 
z
" clip-path="url(#pc753815cfb)" style="fill: #cde8fa"/>
   </g>
   <g id="patch_4">
    <path d="M 183.2 594.2 
L 351.2 594.2 
Q 363.2 594.2 363.2 582.2 
L 363.2 540.2 
Q 363.2 528.2 351.2 528.2 
L 183.2 528.2 
Q 171.2 528.2 171.2 540.2 
L 171.2 582.2 
Q 171.2 594.2 183.2 594.2 
z
" clip-path="url(#pc753815cfb)" style="fill: #cde8fa"/>
   </g>
   <g id="patch_5">
    <path d="M 183.2 450.2 
L 351.2 450.2 
Q 363.2 450.2 363.2 438.2 
L 363.2 396.2 
Q 363.2 384.2 351.2 384.2 
L 183.2 384.2 
Q 171.2 384.2 171.2 396.2 
L 171.2 438.2 
Q 171.2 450.2 183.2 450.2 
z
" clip-path="url(#pc753815cfb)" style="fill: #cde8fa"/>
   </g>
   <g id="patch_6">
    <path d="M 183.2 306.2 
L 351.2 306.2 
Q 363.2 306.2 363.2 294.2 
L 363.2 252.2 
Q 363.2 240.2 351.2 240.2 
L 183.2 240.2 
Q 171.2 240.2 171.2 252.2 
L 171.2 294.2 
Q 171.2 306.2 183.2 306.2 
z
" clip-path="url(#pc753815cfb)" style="fill: #cde8fa"/>
   </g>
   <g id="patch_7">
    <path d="M 267.2 805.2 
Q 267.2 797.7 267.2 791.393095 
" style="fill: none; stroke: #000000; stroke-width: 1.2; stroke-linecap: round"/>
    <path d="M 263.68 797.443095 
L 267.2 791.393095 
L 270.72 797.443095 
z
" style="stroke: #000000; stroke-width: 1.2; stroke-linecap: round"/>
   </g>
   <g id="patch_8">
    <path d="M 267.2 764.2 
Q 267.2 745.2 267.2 727.393095 
" style="fill: none; stroke: #000000; stroke-width: 1.2; stroke-linecap: round"/>
    <path d="M 263.68 733.443095 
L 267.2 727.393095 
L 270.72 733.443095 
z
" style="stroke: #000000; stroke-width: 1.2; stroke-linecap: round"/>
   </g>
   <g id="patch_9">
    <path d="M 267.2 700.2 
Q 267.2 673.2 267.2 647.393095 
" style="fill: none; stroke: #000000; stroke-width: 1.2; stroke-linecap: round"/>
    <path d="M 263.68 653.443095 
L 267.2 647.393095 
L 270.72 653.443095 
z
" style="stroke: #000000; stroke-width: 1.2; stroke-linecap: round"/>
   </g>
   <g id="patch_10">
    <path d="M 267.2 620.2 
Q 267.2 601.2 267.2 583.393095 
" style="fill: none; stroke: #000000; stroke-width: 1.2; stroke-linecap: round"/>
    <path d="M 263.68 589.443095 
L 267.2 583.393095 
L 270.72 589.443095 
z
" style="stroke: #000000; stroke-width: 1.2; stroke-linecap: round"/>
   </g>
   <g id="patch_11">
    <path d="M 267.2 556.2 
Q 267.2 529.2 267.2 503.393095 
" style="fill: none; stroke: #000000; stroke-width: 1.2; stroke-linecap: round"/>
    <path d="M 263.68 509.443095 
L 267.2 503.393095 
L 270.72 509.443095 
z
" style="stroke: #000000; stroke-width: 1.2; stroke-linecap: round"/>
   </g>
   <g id="patch_12">
    <path d="M 267.2 476.2 
Q 267.2 457.2 267.2 439.393095 
" style="fill: none; stroke: #000000; stroke-width: 1.2; stroke-linecap: round"/>
    <path d="M 263.68 445.443095 
L 267.2 439.393095 
L 270.72 445.443095 
z
" style="stroke: #000000; stroke-width: 1.2; stroke-linecap: round"/>
   </g>
   <g id="patch_13">
    <path d="M 267.2 412.2 
Q 267.2 385.2 267.2 359.393095 
" style="fill: none; stroke: #000000; stroke-width: 1.2; stroke-linecap: round"/>
    <path d="M 263.68 365.443095 
L 267.2 359.393095 
L 270.72 365.443095 
z
" style="stroke: #000000; stroke-width: 1.2; stroke-linecap: round"/>
   </g>
   <g id="patch_14">
    <path d="M 267.2 332.2 
Q 267.2 313.2 267.2 295.393095 
" style="fill: none; stroke: #000000; stroke-width: 1.2; stroke-linecap: round"/>
    <path d="M 263.68 301.443095 
L 267.2 295.393095 
L 270.72 301.443095 
z
" style="stroke: #000000; stroke-width: 1.2; stroke-linecap: round"/>
   </g>
   <g id="patch_15">
    <path d="M 267.2 268.2 
Q 267.2 241.2 267.2 215.393095 
" style="fill: none; stroke: #000000; stroke-width: 1.2; stroke-linecap: round"/>
    <path d="M 263.68 221.443095 
L 267.2 215.393095 
L 270.72 221.443095 
z
" style="stroke: #000000; stroke-width: 1.2; stroke-linecap: round"/>
   </g>
   <g id="patch_16">
    <path d="M 267.2 188.2 
Q 267.2 180.7 267.2 174.393095 
" style="fill: none; stroke: #000000; stroke-width: 1.2; stroke-linecap: round"/>
    <path d="M 263.68 180.443095 
L 267.2 174.393095 
L 270.72 180.443095 
z
" style="stroke: #000000; stroke-width: 1.2; stroke-linecap: round"/>
   </g>
   <g id="patch_17">
    <path d="M 267.2 147.2 
Q 267.2 139.7 267.2 133.393095 
" style="fill: none; stroke: #000000; stroke-width: 1.2; stroke-linecap: round"/>
    <path d="M 263.68 139.443095 
L 267.2 133.393095 
L 270.72 139.443095 
z
" style="stroke: #000000; stroke-width: 1.2; stroke-linecap: round"/>
   </g>
   <g id="patch_18">
    <path d="M 267.2 106.2 
Q 267.2 74.2 267.2 43.393095 
" style="fill: none; stroke: #000000; stroke-width: 1.2; stroke-linecap: round"/>
    <path d="M 263.68 49.443095 
L 267.2 43.393095 
L 270.72 49.443095 
z
" style="stroke: #000000; stroke-width: 1.2; stroke-linecap: round"/>
   </g>
   <g id="patch_19">
    <path d="M 267.2 873.2 
Q 267.2 852.2 267.2 832.393095 
" style="fill: none; stroke: #000000; stroke-width: 1.2; stroke-linecap: round"/>
    <path d="M 263.68 838.443095 
L 267.2 832.393095 
L 270.72 838.443095 
z
" style="stroke: #000000; stroke-width: 1.2; stroke-linecap: round"/>
   </g>
   <g id="patch_20">
    <path d="M 189.9 831.2 
L 344.5 831.2 
Q 356.2 831.2 356.2 819.5 
L 356.2 816.9 
Q 356.2 805.2 344.5 805.2 
L 189.9 805.2 
Q 178.2 805.2 178.2 816.9 
L 178.2 819.5 
Q 178.2 831.2 189.9 831.2 
z
" clip-path="url(#pc753815cfb)" style="fill: #3b3b3b; stroke: #3b3b3b; stroke-width: 1.2; stroke-linejoin: miter"/>
   </g>
   <g id="patch_21">
    <path d="M 194.9 790.2 
L 339.5 790.2 
Q 351.2 790.2 351.2 778.5 
L 351.2 775.9 
Q 351.2 764.2 339.5 764.2 
L 194.9 764.2 
Q 183.2 764.2 183.2 775.9 
L 183.2 778.5 
Q 183.2 790.2 194.9 790.2 
z
" clip-path="url(#pc753815cfb)" style="fill: #ffffff; stroke: #000000; stroke-width: 1.2; stroke-linejoin: miter"/>
   </g>
   <g id="patch_22">
    <path d="M 194.9 726.2 
L 339.5 726.2 
Q 351.2 726.2 351.2 714.5 
L 351.2 711.9 
Q 351.2 700.2 339.5 700.2 
L 194.9 700.2 
Q 183.2 700.2 183.2 711.9 
L 183.2 714.5 
Q 183.2 726.2 194.9 726.2 
z
" clip-path="url(#pc753815cfb)" style="fill: #ffffff; stroke: #000000; stroke-width: 1.2; stroke-linejoin: miter"/>
   </g>
   <g id="patch_23">
    <path d="M 194.9 646.2 
L 339.5 646.2 
Q 351.2 646.2 351.2 634.5 
L 351.2 631.9 
Q 351.2 620.2 339.5 620.2 
L 194.9 620.2 
Q 183.2 620.2 183.2 631.9 
L 183.2 634.5 
Q 183.2 646.2 194.9 646.2 
z
" clip-path="url(#pc753815cfb)" style="fill: #ffffff; stroke: #000000; stroke-width: 1.2; stroke-linejoin: miter"/>
   </g>
   <g id="patch_24">
    <path d="M 194.9 582.2 
L 339.5 582.2 
Q 351.2 582.2 351.2 570.5 
L 351.2 567.9 
Q 351.2 556.2 339.5 556.2 
L 194.9 556.2 
Q 183.2 556.2 183.2 567.9 
L 183.2 570.5 
Q 183.2 582.2 194.9 582.2 
z
" clip-path="url(#pc753815cfb)" style="fill: #ffffff; stroke: #000000; stroke-width: 1.2; stroke-linejoin: miter"/>
   </g>
   <g id="patch_25">
    <path d="M 194.9 502.2 
L 339.5 502.2 
Q 351.2 502.2 351.2 490.5 
L 351.2 487.9 
Q 351.2 476.2 339.5 476.2 
L 194.9 476.2 
Q 183.2 476.2 183.2 487.9 
L 183.2 490.5 
Q 183.2 502.2 194.9 502.2 
z
" clip-path="url(#pc753815cfb)" style="fill: #ffffff; stroke: #000000; stroke-width: 1.2; stroke-linejoin: miter"/>
   </g>
   <g id="patch_26">
    <path d="M 194.9 438.2 
L 339.5 438.2 
Q 351.2 438.2 351.2 426.5 
L 351.2 423.9 
Q 351.2 412.2 339.5 412.2 
L 194.9 412.2 
Q 183.2 412.2 183.2 423.9 
L 183.2 426.5 
Q 183.2 438.2 194.9 438.2 
z
" clip-path="url(#pc753815cfb)" style="fill: #ffffff; stroke: #000000; stroke-width: 1.2; stroke-linejoin: miter"/>
   </g>
   <g id="patch_27">
    <path d="M 194.9 358.2 
L 339.5 358.2 
Q 351.2 358.2 351.2 346.5 
L 351.2 343.9 
Q 351.2 332.2 339.5 332.2 
L 194.9 332.2 
Q 183.2 332.2 183.2 343.9 
L 183.2 346.5 
Q 183.2 358.2 194.9 358.2 
z
" clip-path="url(#pc753815cfb)" style="fill: #ffffff; stroke: #000000; stroke-width: 1.2; stroke-linejoin: miter"/>
   </g>
   <g id="patch_28">
    <path d="M 194.9 294.2 
L 339.5 294.2 
Q 351.2 294.2 351.2 282.5 
L 351.2 279.9 
Q 351.2 268.2 339.5 268.2 
L 194.9 268.2 
Q 183.2 268.2 183.2 279.9 
L 183.2 282.5 
Q 183.2 294.2 194.9 294.2 
z
" clip-path="url(#pc753815cfb)" style="fill: #ffffff; stroke: #000000; stroke-width: 1.2; stroke-linejoin: miter"/>
   </g>
   <g id="patch_29">
    <path d="M 194.9 214.2 
L 339.5 214.2 
Q 351.2 214.2 351.2 202.5 
L 351.2 199.9 
Q 351.2 188.2 339.5 188.2 
L 194.9 188.2 
Q 183.2 188.2 183.2 199.9 
L 183.2 202.5 
Q 183.2 214.2 194.9 214.2 
z
" clip-path="url(#pc753815cfb)" style="fill: #ffffff; stroke: #000000; stroke-width: 1.2; stroke-linejoin: miter"/>
   </g>
   <g id="patch_30">
    <path d="M 194.9 173.2 
L 339.5 173.2 
Q 351.2 173.2 351.2 161.5 
L 351.2 158.9 
Q 351.2 147.2 339.5 147.2 
L 194.9 147.2 
Q 183.2 147.2 183.2 158.9 
L 183.2 161.5 
Q 183.2 173.2 194.9 173.2 
z
" clip-path="url(#pc753815cfb)" style="fill: #ffffff; stroke: #000000; stroke-width: 1.2; stroke-linejoin: miter"/>
   </g>
   <g id="patch_31">
    <path d="M 194.9 132.2 
L 339.5 132.2 
Q 351.2 132.2 351.2 120.5 
L 351.2 117.9 
Q 351.2 106.2 339.5 106.2 
L 194.9 106.2 
Q 183.2 106.2 183.2 117.9 
L 183.2 120.5 
Q 183.2 132.2 194.9 132.2 
z
" clip-path="url(#pc753815cfb)" style="fill: #ffffff; stroke: #000000; stroke-width: 1.2; stroke-linejoin: miter"/>
   </g>
   <g id="line2d_1">
    <path d="M 507.2 417.2 
L 367.2 417.2 
" clip-path="url(#pc753815cfb)" style="fill: none; stroke-dasharray: 1.53,4.08; stroke-dashoffset: 0; stroke: #000000; stroke-width: 1.7; stroke-linecap: round"/>
   </g>
   <g id="line2d_2">
    <path d="M 521.2 633.2 
L 355.2 633.2 
" clip-path="url(#pc753815cfb)" style="fill: none; stroke-dasharray: 1.53,4.08; stroke-dashoffset: 0; stroke: #000000; stroke-width: 1.7; stroke-linecap: round"/>
   </g>
   <g id="text_1">
    <!-- Patchify -->
    <g style="fill: #0b6bb2" transform="translate(206.77901 821.241211) scale(0.115 -0.115)">
     <defs>
      <path id="SourceSans3-Bold-50" d="M 493 0 
L 493 4173 
L 1926 4173 
Q 2387 4173 2761 4048 
Q 3136 3923 3360 3628 
Q 3584 3334 3584 2829 
Q 3584 2342 3360 2028 
Q 3136 1715 2765 1564 
Q 2394 1414 1952 1414 
L 1434 1414 
L 1434 0 
L 493 0 
z
M 1434 2163 
L 1894 2163 
Q 2662 2163 2662 2829 
Q 2662 3155 2457 3289 
Q 2253 3424 1869 3424 
L 1434 3424 
L 1434 2163 
z
" transform="scale(0.015625)"/>
      <path id="SourceSans3-Bold-61" d="M 1216 -77 
Q 781 -77 525 201 
Q 269 480 269 883 
Q 269 1395 691 1673 
Q 1114 1952 2054 2048 
Q 2042 2253 1926 2374 
Q 1811 2496 1555 2496 
Q 1357 2496 1152 2425 
Q 947 2355 710 2221 
L 378 2835 
Q 678 3021 1020 3136 
Q 1363 3251 1734 3251 
Q 2342 3251 2668 2899 
Q 2995 2547 2995 1811 
L 2995 0 
L 2227 0 
L 2163 326 
L 2138 326 
Q 1933 147 1709 35 
Q 1485 -77 1216 -77 
z
M 1530 659 
Q 1690 659 1811 729 
Q 1933 800 2054 922 
L 2054 1459 
Q 1555 1395 1363 1267 
Q 1171 1139 1171 954 
Q 1171 806 1270 732 
Q 1370 659 1530 659 
z
" transform="scale(0.015625)"/>
      <path id="SourceSans3-Bold-74" d="M 1638 -70 
Q 1050 -70 797 269 
Q 544 608 544 1158 
L 544 2438 
L 109 2438 
L 109 3136 
L 595 3174 
L 704 4147 
L 1485 4147 
L 1485 3174 
L 2246 3174 
L 2246 2438 
L 1485 2438 
L 1485 1171 
Q 1485 902 1597 784 
Q 1709 666 1894 666 
Q 1971 666 2051 678 
Q 2131 691 2195 717 
L 2349 58 
Q 2227 6 2044 -32 
Q 1862 -70 1638 -70 
z
" transform="scale(0.015625)"/>
      <path id="SourceSans3-Bold-63" d="M 1818 -77 
Q 1370 -77 1008 118 
Q 646 314 438 688 
Q 230 1062 230 1587 
Q 230 2118 460 2489 
Q 691 2861 1068 3056 
Q 1446 3251 1882 3251 
Q 2176 3251 2409 3158 
Q 2643 3066 2810 2912 
L 2368 2330 
Q 2285 2400 2182 2445 
Q 2080 2490 1939 2490 
Q 1606 2490 1401 2246 
Q 1197 2003 1197 1587 
Q 1197 1178 1398 931 
Q 1600 685 1914 685 
Q 2227 685 2477 896 
L 2848 314 
Q 2650 134 2381 28 
Q 2112 -77 1818 -77 
z
" transform="scale(0.015625)"/>
      <path id="SourceSans3-Bold-68" d="M 416 0 
L 416 4486 
L 1357 4486 
L 1357 3386 
L 1312 2816 
Q 1491 2976 1731 3113 
Q 1971 3251 2291 3251 
Q 2810 3251 3043 2908 
Q 3277 2566 3277 1971 
L 3277 0 
L 2336 0 
L 2336 1850 
Q 2336 2195 2243 2323 
Q 2150 2451 1946 2451 
Q 1766 2451 1638 2371 
Q 1510 2291 1357 2144 
L 1357 0 
L 416 0 
z
" transform="scale(0.015625)"/>
      <path id="SourceSans3-Bold-69" d="M 416 0 
L 416 3174 
L 1357 3174 
L 1357 0 
L 416 0 
z
M 880 3642 
Q 643 3642 496 3776 
Q 349 3910 349 4134 
Q 349 4358 496 4492 
Q 643 4627 880 4627 
Q 1117 4627 1264 4492 
Q 1411 4358 1411 4134 
Q 1411 3910 1264 3776 
Q 1117 3642 880 3642 
z
" transform="scale(0.015625)"/>
      <path id="SourceSans3-Bold-66" d="M 576 0 
L 576 2438 
L 109 2438 
L 109 3136 
L 576 3168 
L 576 3341 
Q 576 3680 691 3955 
Q 806 4230 1062 4396 
Q 1318 4563 1747 4563 
Q 1946 4563 2112 4524 
Q 2278 4486 2381 4448 
L 2195 3776 
Q 2118 3802 2038 3811 
Q 1958 3821 1882 3821 
Q 1709 3821 1613 3715 
Q 1517 3610 1517 3366 
L 1517 3174 
L 2086 3174 
L 2086 2438 
L 1517 2438 
L 1517 0 
L 576 0 
z
" transform="scale(0.015625)"/>
      <path id="SourceSans3-Bold-79" d="M 768 -1242 
Q 627 -1242 521 -1222 
Q 416 -1203 320 -1165 
L 486 -474 
Q 557 -493 605 -496 
Q 653 -499 698 -499 
Q 934 -499 1062 -384 
Q 1190 -269 1254 -83 
L 1299 83 
L 77 3174 
L 1024 3174 
L 1478 1811 
Q 1549 1594 1606 1370 
Q 1664 1146 1728 909 
L 1754 909 
Q 1805 1133 1859 1360 
Q 1914 1587 1971 1811 
L 2355 3174 
L 3258 3174 
L 2157 -32 
Q 2010 -429 1830 -701 
Q 1651 -973 1398 -1107 
Q 1146 -1242 768 -1242 
z
" transform="scale(0.015625)"/>
     </defs>
     <use xlink:href="#SourceSans3-Bold-50"/>
     <use xlink:href="#SourceSans3-Bold-61" transform="translate(59.599991 0)"/>
     <use xlink:href="#SourceSans3-Bold-74" transform="translate(112.299988 0)"/>
     <use xlink:href="#SourceSans3-Bold-63" transform="translate(150.599976 0)"/>
     <use xlink:href="#SourceSans3-Bold-68" transform="translate(197.299973 0)"/>
     <use xlink:href="#SourceSans3-Bold-69" transform="translate(254.399963 0)"/>
     <use xlink:href="#SourceSans3-Bold-66" transform="translate(281.999954 0)"/>
     <use xlink:href="#SourceSans3-Bold-79" transform="translate(316.099945 0)"/>
    </g>
   </g>
   <g id="text_2">
    <!--  4×4 Conv, 96, s4 -->
    <g style="fill: #ffffff" transform="translate(249.122003 821.11543) scale(0.115 -0.115)">
     <defs>
      <path id="SourceSans3-Regular-20" transform="scale(0.015625)"/>
      <path id="SourceSans3-Regular-34" d="M 666 1549 
L 1946 1549 
L 1946 2733 
Q 1946 2899 1958 3129 
Q 1971 3360 1978 3520 
L 1952 3520 
Q 1875 3373 1792 3232 
Q 1709 3091 1619 2944 
L 666 1549 
z
M 1946 0 
L 1946 1126 
L 109 1126 
L 109 1472 
L 1856 4083 
L 2445 4083 
L 2445 1549 
L 3002 1549 
L 3002 1126 
L 2445 1126 
L 2445 0 
L 1946 0 
z
" transform="scale(0.015625)"/>
      <path id="SourceSans3-Regular-d7" d="M 602 806 
L 320 1094 
L 1312 2112 
L 320 3123 
L 602 3411 
L 1594 2394 
L 2579 3411 
L 2861 3123 
L 1869 2112 
L 2861 1094 
L 2579 806 
L 1594 1830 
L 602 806 
z
" transform="scale(0.015625)"/>
      <path id="SourceSans3-Regular-43" d="M 2170 -77 
Q 1645 -77 1229 182 
Q 813 442 573 928 
Q 333 1414 333 2099 
Q 333 2778 576 3264 
Q 819 3750 1241 4012 
Q 1664 4275 2195 4275 
Q 2573 4275 2870 4124 
Q 3168 3974 3347 3757 
L 3059 3430 
Q 2893 3610 2678 3709 
Q 2464 3808 2202 3808 
Q 1811 3808 1513 3600 
Q 1216 3392 1049 3014 
Q 883 2637 883 2112 
Q 883 1587 1046 1200 
Q 1210 813 1507 601 
Q 1805 390 2208 390 
Q 2502 390 2736 502 
Q 2970 614 3168 832 
L 3443 525 
Q 3187 237 2883 80 
Q 2579 -77 2170 -77 
z
" transform="scale(0.015625)"/>
      <path id="SourceSans3-Regular-6f" d="M 1734 -77 
Q 1357 -77 1027 115 
Q 698 307 496 672 
Q 294 1037 294 1549 
Q 294 2074 496 2438 
Q 698 2803 1027 2995 
Q 1357 3187 1734 3187 
Q 2118 3187 2444 2995 
Q 2771 2803 2972 2438 
Q 3174 2074 3174 1549 
Q 3174 1037 2972 672 
Q 2771 307 2444 115 
Q 2118 -77 1734 -77 
z
M 1734 358 
Q 2138 358 2384 688 
Q 2630 1018 2630 1549 
Q 2630 2086 2384 2419 
Q 2138 2752 1734 2752 
Q 1338 2752 1088 2419 
Q 838 2086 838 1549 
Q 838 1018 1088 688 
Q 1338 358 1734 358 
z
" transform="scale(0.015625)"/>
      <path id="SourceSans3-Regular-6e" d="M 525 0 
L 525 3110 
L 960 3110 
L 1005 2662 
L 1024 2662 
Q 1248 2886 1497 3036 
Q 1747 3187 2067 3187 
Q 2560 3187 2787 2876 
Q 3014 2566 3014 1971 
L 3014 0 
L 2490 0 
L 2490 1901 
Q 2490 2336 2349 2534 
Q 2208 2733 1901 2733 
Q 1664 2733 1475 2611 
Q 1286 2490 1050 2253 
L 1050 0 
L 525 0 
z
" transform="scale(0.015625)"/>
      <path id="SourceSans3-Regular-76" d="M 1197 0 
L 77 3110 
L 621 3110 
L 1210 1344 
Q 1280 1114 1353 883 
Q 1427 653 1498 429 
L 1523 429 
Q 1594 653 1667 883 
Q 1741 1114 1805 1344 
L 2394 3110 
L 2912 3110 
L 1811 0 
L 1197 0 
z
" transform="scale(0.015625)"/>
      <path id="SourceSans3-Regular-2c" d="M 429 -1088 
L 301 -781 
Q 576 -659 729 -457 
Q 883 -256 877 0 
Q 864 -6 845 -6 
Q 826 -6 813 -6 
Q 659 -6 547 86 
Q 435 179 435 358 
Q 435 531 550 630 
Q 666 730 826 730 
Q 1030 730 1148 563 
Q 1267 397 1267 109 
Q 1267 -301 1043 -611 
Q 819 -922 429 -1088 
z
" transform="scale(0.015625)"/>
      <path id="SourceSans3-Regular-39" d="M 749 2848 
Q 749 2451 937 2217 
Q 1126 1984 1504 1984 
Q 1709 1984 1936 2112 
Q 2163 2240 2362 2528 
Q 2310 3123 2080 3433 
Q 1850 3744 1459 3744 
Q 1165 3744 957 3497 
Q 749 3251 749 2848 
z
M 1312 -77 
Q 986 -77 739 48 
Q 493 173 326 352 
L 621 685 
Q 749 538 925 448 
Q 1101 358 1293 358 
Q 1581 358 1824 524 
Q 2067 691 2217 1075 
Q 2368 1459 2374 2112 
Q 2182 1869 1926 1728 
Q 1670 1587 1414 1587 
Q 890 1587 573 1904 
Q 256 2221 256 2848 
Q 256 3238 422 3532 
Q 589 3827 861 3993 
Q 1133 4160 1459 4160 
Q 1862 4160 2182 3942 
Q 2502 3725 2684 3289 
Q 2867 2854 2867 2195 
Q 2867 1376 2646 877 
Q 2426 378 2074 150 
Q 1722 -77 1312 -77 
z
" transform="scale(0.015625)"/>
      <path id="SourceSans3-Regular-36" d="M 1670 2099 
Q 1472 2099 1241 1971 
Q 1011 1843 819 1562 
Q 870 966 1097 652 
Q 1325 339 1715 339 
Q 2016 339 2221 585 
Q 2426 832 2426 1235 
Q 2426 1632 2237 1865 
Q 2048 2099 1670 2099 
z
M 1715 -77 
Q 1318 -77 998 140 
Q 678 358 492 796 
Q 307 1235 307 1888 
Q 307 2707 528 3206 
Q 749 3706 1104 3933 
Q 1459 4160 1862 4160 
Q 2195 4160 2435 4035 
Q 2675 3910 2848 3725 
L 2554 3398 
Q 2432 3546 2253 3632 
Q 2074 3718 1882 3718 
Q 1594 3718 1357 3555 
Q 1120 3392 969 3011 
Q 819 2630 806 1984 
Q 998 2221 1254 2358 
Q 1510 2496 1760 2496 
Q 2291 2496 2608 2179 
Q 2925 1862 2925 1235 
Q 2925 845 2758 550 
Q 2592 256 2320 89 
Q 2048 -77 1715 -77 
z
" transform="scale(0.015625)"/>
      <path id="SourceSans3-Regular-73" d="M 1338 -77 
Q 998 -77 697 41 
Q 397 160 179 371 
L 422 678 
Q 627 512 848 422 
Q 1069 333 1357 333 
Q 1664 333 1817 477 
Q 1971 621 1971 819 
Q 1971 979 1868 1084 
Q 1766 1190 1606 1264 
Q 1446 1338 1267 1402 
Q 1037 1485 825 1597 
Q 614 1709 483 1878 
Q 352 2048 352 2304 
Q 352 2682 637 2934 
Q 922 3187 1427 3187 
Q 1715 3187 1964 3088 
Q 2214 2989 2394 2835 
L 2150 2534 
Q 1990 2650 1814 2714 
Q 1638 2778 1427 2778 
Q 1133 2778 995 2643 
Q 858 2509 858 2330 
Q 858 2118 1043 2009 
Q 1229 1901 1517 1798 
Q 1760 1715 1981 1600 
Q 2202 1485 2339 1309 
Q 2477 1133 2477 851 
Q 2477 602 2345 390 
Q 2214 179 1961 51 
Q 1709 -77 1338 -77 
z
" transform="scale(0.015625)"/>
     </defs>
     <use xlink:href="#SourceSans3-Regular-20"/>
     <use xlink:href="#SourceSans3-Regular-34" transform="translate(19.999985 0)"/>
     <use xlink:href="#SourceSans3-Regular-d7" transform="translate(69.699982 0)"/>
     <use xlink:href="#SourceSans3-Regular-34" transform="translate(119.399979 0)"/>
     <use xlink:href="#SourceSans3-Regular-20" transform="translate(169.099976 0)"/>
     <use xlink:href="#SourceSans3-Regular-43" transform="translate(189.09996 0)"/>
     <use xlink:href="#SourceSans3-Regular-6f" transform="translate(246.199951 0)"/>
     <use xlink:href="#SourceSans3-Regular-6e" transform="translate(300.399948 0)"/>
     <use xlink:href="#SourceSans3-Regular-76" transform="translate(355.099945 0)"/>
     <use xlink:href="#SourceSans3-Regular-2c" transform="translate(401.799942 0)"/>
     <use xlink:href="#SourceSans3-Regular-20" transform="translate(426.699936 0)"/>
     <use xlink:href="#SourceSans3-Regular-39" transform="translate(446.699921 0)"/>
     <use xlink:href="#SourceSans3-Regular-36" transform="translate(496.399918 0)"/>
     <use xlink:href="#SourceSans3-Regular-2c" transform="translate(546.099915 0)"/>
     <use xlink:href="#SourceSans3-Regular-20" transform="translate(570.999908 0)"/>
     <use xlink:href="#SourceSans3-Regular-73" transform="translate(590.999893 0)"/>
     <use xlink:href="#SourceSans3-Regular-34" transform="translate(632.899887 0)"/>
    </g>
   </g>
   <g id="text_3">
    <!-- LayerNorm -->
    <g transform="translate(240.376253 780.068711) scale(0.115 -0.115)">
     <defs>
      <path id="SourceSans3-Regular-4c" d="M 576 0 
L 576 4198 
L 1107 4198 
L 1107 454 
L 2944 454 
L 2944 0 
L 576 0 
z
" transform="scale(0.015625)"/>
      <path id="SourceSans3-Regular-61" d="M 1242 -77 
Q 851 -77 588 153 
Q 326 384 326 806 
Q 326 1331 787 1600 
Q 1248 1869 2246 1978 
Q 2246 2176 2188 2349 
Q 2131 2522 1993 2634 
Q 1856 2746 1600 2746 
Q 1331 2746 1094 2643 
Q 858 2541 672 2426 
L 467 2784 
Q 685 2931 1001 3059 
Q 1318 3187 1690 3187 
Q 2259 3187 2515 2838 
Q 2771 2490 2771 1907 
L 2771 0 
L 2336 0 
L 2291 371 
L 2272 371 
Q 2042 186 1789 54 
Q 1536 -77 1242 -77 
z
M 1389 358 
Q 1613 358 1817 460 
Q 2022 563 2246 762 
L 2246 1600 
Q 1722 1542 1414 1440 
Q 1107 1338 976 1190 
Q 845 1043 845 838 
Q 845 582 1005 470 
Q 1165 358 1389 358 
z
" transform="scale(0.015625)"/>
      <path id="SourceSans3-Regular-79" d="M 576 -1338 
Q 474 -1338 381 -1318 
Q 288 -1299 211 -1274 
L 326 -864 
Q 442 -902 550 -902 
Q 813 -902 985 -713 
Q 1158 -525 1254 -237 
L 1325 -6 
L 77 3110 
L 621 3110 
L 1254 1389 
Q 1325 1190 1405 960 
Q 1485 730 1555 512 
L 1581 512 
Q 1651 723 1715 953 
Q 1779 1184 1843 1389 
L 2400 3110 
L 2912 3110 
L 1741 -256 
Q 1632 -563 1481 -806 
Q 1331 -1050 1110 -1194 
Q 890 -1338 576 -1338 
z
" transform="scale(0.015625)"/>
      <path id="SourceSans3-Regular-65" d="M 1702 2758 
Q 1510 2758 1328 2665 
Q 1146 2573 1014 2368 
Q 883 2163 838 1830 
L 2458 1830 
Q 2458 2285 2259 2521 
Q 2061 2758 1702 2758 
z
M 1786 -77 
Q 1370 -77 1027 115 
Q 685 307 486 675 
Q 288 1043 288 1555 
Q 288 2061 489 2425 
Q 691 2790 1014 2988 
Q 1338 3187 1696 3187 
Q 2298 3187 2614 2790 
Q 2931 2394 2931 1728 
Q 2931 1645 2924 1568 
Q 2918 1491 2906 1414 
L 826 1414 
Q 864 890 1161 621 
Q 1459 352 1850 352 
Q 2074 352 2269 416 
Q 2464 480 2624 589 
L 2816 243 
Q 2611 102 2358 12 
Q 2106 -77 1786 -77 
z
" transform="scale(0.015625)"/>
      <path id="SourceSans3-Regular-72" d="M 525 0 
L 525 3110 
L 960 3110 
L 1005 2547 
L 1024 2547 
Q 1178 2842 1408 3014 
Q 1638 3187 1907 3187 
Q 2093 3187 2240 3123 
L 2125 2675 
Q 2054 2694 1993 2704 
Q 1933 2714 1837 2714 
Q 1638 2714 1424 2554 
Q 1210 2394 1050 1997 
L 1050 0 
L 525 0 
z
" transform="scale(0.015625)"/>
      <path id="SourceSans3-Regular-4e" d="M 576 0 
L 576 4198 
L 1158 4198 
L 2650 1587 
Q 2771 1376 2883 1145 
Q 2995 915 3098 685 
L 3123 685 
Q 3098 1011 3075 1350 
Q 3053 1690 3053 2016 
L 3053 4198 
L 3565 4198 
L 3565 0 
L 2982 0 
L 1491 2611 
Q 1370 2822 1254 3052 
Q 1139 3283 1037 3514 
L 1011 3514 
Q 1043 3200 1062 2867 
Q 1082 2534 1082 2195 
L 1082 0 
L 576 0 
z
" transform="scale(0.015625)"/>
      <path id="SourceSans3-Regular-6d" d="M 525 0 
L 525 3110 
L 960 3110 
L 1005 2662 
L 1024 2662 
Q 1229 2886 1472 3036 
Q 1715 3187 1990 3187 
Q 2349 3187 2550 3030 
Q 2752 2874 2848 2592 
Q 3091 2854 3340 3020 
Q 3590 3187 3872 3187 
Q 4352 3187 4585 2876 
Q 4819 2566 4819 1971 
L 4819 0 
L 4294 0 
L 4294 1901 
Q 4294 2336 4153 2534 
Q 4013 2733 3718 2733 
Q 3373 2733 2938 2253 
L 2938 0 
L 2413 0 
L 2413 1901 
Q 2413 2336 2272 2534 
Q 2131 2733 1830 2733 
Q 1485 2733 1050 2253 
L 1050 0 
L 525 0 
z
" transform="scale(0.015625)"/>
     </defs>
     <use xlink:href="#SourceSans3-Regular-4c"/>
     <use xlink:href="#SourceSans3-Regular-61" transform="translate(48.599991 0)"/>
     <use xlink:href="#SourceSans3-Regular-79" transform="translate(98.999985 0)"/>
     <use xlink:href="#SourceSans3-Regular-65" transform="translate(145.699982 0)"/>
     <use xlink:href="#SourceSans3-Regular-72" transform="translate(195.299973 0)"/>
     <use xlink:href="#SourceSans3-Regular-4e" transform="translate(229.999969 0)"/>
     <use xlink:href="#SourceSans3-Regular-6f" transform="translate(294.699966 0)"/>
     <use xlink:href="#SourceSans3-Regular-72" transform="translate(348.899963 0)"/>
     <use xlink:href="#SourceSans3-Regular-6d" transform="translate(383.59996 0)"/>
    </g>
   </g>
   <g id="text_4">
    <!-- ConvNeXt block, 96 -->
    <g transform="translate(220.826259 716.11543) scale(0.115 -0.115)">
     <defs>
      <path id="SourceSans3-Regular-58" d="M 96 0 
L 1318 2170 
L 179 4198 
L 768 4198 
L 1338 3123 
Q 1421 2982 1494 2841 
Q 1568 2701 1664 2515 
L 1690 2515 
Q 1779 2701 1846 2841 
Q 1914 2982 1990 3123 
L 2547 4198 
L 3110 4198 
L 1965 2144 
L 3187 0 
L 2598 0 
L 1984 1133 
Q 1901 1286 1814 1449 
Q 1728 1613 1626 1805 
L 1600 1805 
Q 1510 1613 1427 1449 
Q 1344 1286 1267 1133 
L 659 0 
L 96 0 
z
" transform="scale(0.015625)"/>
      <path id="SourceSans3-Regular-74" d="M 1504 -58 
Q 1005 -58 809 227 
Q 614 512 614 979 
L 614 2682 
L 154 2682 
L 154 3078 
L 640 3110 
L 704 4109 
L 1146 4109 
L 1146 3110 
L 1984 3110 
L 1984 2682 
L 1146 2682 
L 1146 966 
Q 1146 685 1251 528 
Q 1357 371 1626 371 
Q 1709 371 1798 387 
Q 1888 403 1978 448 
L 2086 77 
Q 1965 13 1814 -22 
Q 1664 -58 1504 -58 
z
" transform="scale(0.015625)"/>
      <path id="SourceSans3-Regular-62" d="M 1901 -77 
Q 1683 -77 1449 28 
Q 1216 134 1011 320 
L 992 320 
L 947 0 
L 525 0 
L 525 4557 
L 1050 4557 
L 1050 3315 
L 1037 2752 
Q 1248 2938 1501 3062 
Q 1754 3187 2010 3187 
Q 2618 3187 2931 2758 
Q 3245 2330 3245 1606 
Q 3245 1075 3056 697 
Q 2867 320 2563 121 
Q 2259 -77 1901 -77 
z
M 1811 365 
Q 2195 365 2448 694 
Q 2701 1024 2701 1600 
Q 2701 2112 2512 2429 
Q 2323 2746 1882 2746 
Q 1683 2746 1478 2637 
Q 1274 2528 1050 2323 
L 1050 691 
Q 1254 512 1456 438 
Q 1658 365 1811 365 
z
" transform="scale(0.015625)"/>
      <path id="SourceSans3-Regular-6c" d="M 1082 -58 
Q 787 -58 656 124 
Q 525 307 525 640 
L 525 4557 
L 1050 4557 
L 1050 602 
Q 1050 480 1094 429 
Q 1139 378 1203 378 
Q 1229 378 1251 381 
Q 1274 384 1312 390 
L 1382 -6 
Q 1267 -58 1082 -58 
z
" transform="scale(0.015625)"/>
      <path id="SourceSans3-Regular-63" d="M 1760 -77 
Q 1344 -77 1011 115 
Q 678 307 486 672 
Q 294 1037 294 1549 
Q 294 2074 502 2438 
Q 710 2803 1052 2995 
Q 1395 3187 1792 3187 
Q 2099 3187 2320 3084 
Q 2541 2982 2701 2822 
L 2438 2502 
Q 2317 2611 2166 2681 
Q 2016 2752 1811 2752 
Q 1536 2752 1315 2601 
Q 1094 2451 966 2179 
Q 838 1907 838 1549 
Q 838 1018 1107 688 
Q 1376 358 1805 358 
Q 2016 358 2201 441 
Q 2387 525 2528 653 
L 2758 333 
Q 2566 147 2313 35 
Q 2061 -77 1760 -77 
z
" transform="scale(0.015625)"/>
      <path id="SourceSans3-Regular-6b" d="M 525 0 
L 525 4557 
L 1050 4557 
L 1050 1478 
L 1062 1478 
L 2381 3110 
L 2970 3110 
L 1933 1856 
L 3110 0 
L 2534 0 
L 1626 1498 
L 1050 819 
L 1050 0 
L 525 0 
z
" transform="scale(0.015625)"/>
     </defs>
     <use xlink:href="#SourceSans3-Regular-43"/>
     <use xlink:href="#SourceSans3-Regular-6f" transform="translate(57.099991 0)"/>
     <use xlink:href="#SourceSans3-Regular-6e" transform="translate(111.299988 0)"/>
     <use xlink:href="#SourceSans3-Regular-76" transform="translate(165.999985 0)"/>
     <use xlink:href="#SourceSans3-Regular-4e" transform="translate(212.699982 0)"/>
     <use xlink:href="#SourceSans3-Regular-65" transform="translate(277.399979 0)"/>
     <use xlink:href="#SourceSans3-Regular-58" transform="translate(326.999969 0)"/>
     <use xlink:href="#SourceSans3-Regular-74" transform="translate(378.299957 0)"/>
     <use xlink:href="#SourceSans3-Regular-20" transform="translate(412.099945 0)"/>
     <use xlink:href="#SourceSans3-Regular-62" transform="translate(432.09993 0)"/>
     <use xlink:href="#SourceSans3-Regular-6c" transform="translate(487.399918 0)"/>
     <use xlink:href="#SourceSans3-Regular-6f" transform="translate(512.899902 0)"/>
     <use xlink:href="#SourceSans3-Regular-63" transform="translate(567.099899 0)"/>
     <use xlink:href="#SourceSans3-Regular-6b" transform="translate(612.69989 0)"/>
     <use xlink:href="#SourceSans3-Regular-2c" transform="translate(662.199875 0)"/>
     <use xlink:href="#SourceSans3-Regular-20" transform="translate(687.099869 0)"/>
     <use xlink:href="#SourceSans3-Regular-39" transform="translate(707.099854 0)"/>
     <use xlink:href="#SourceSans3-Regular-36" transform="translate(756.79985 0)"/>
    </g>
   </g>
   <g id="text_5">
    <!-- LN, 2×2 Conv, 192, s2 -->
    <g transform="translate(217.146258 636.11543) scale(0.115 -0.115)">
     <defs>
      <path id="SourceSans3-Regular-32" d="M 256 0 
L 256 320 
Q 870 922 1299 1386 
Q 1728 1850 1952 2227 
Q 2176 2605 2176 2931 
Q 2176 3283 1984 3507 
Q 1792 3731 1402 3731 
Q 1146 3731 928 3587 
Q 710 3443 531 3238 
L 237 3526 
Q 493 3814 784 3987 
Q 1075 4160 1466 4160 
Q 2035 4160 2361 3830 
Q 2688 3501 2688 2963 
Q 2688 2566 2467 2176 
Q 2246 1786 1862 1357 
Q 1478 928 979 416 
Q 1146 429 1325 441 
Q 1504 454 1664 454 
L 2893 454 
L 2893 0 
L 256 0 
z
" transform="scale(0.015625)"/>
      <path id="SourceSans3-Regular-31" d="M 506 0 
L 506 435 
L 1440 435 
L 1440 3443 
L 698 3443 
L 698 3782 
Q 979 3834 1187 3907 
Q 1395 3981 1562 4083 
L 1965 4083 
L 1965 435 
L 2810 435 
L 2810 0 
L 506 0 
z
" transform="scale(0.015625)"/>
     </defs>
     <use xlink:href="#SourceSans3-Regular-4c"/>
     <use xlink:href="#SourceSans3-Regular-4e" transform="translate(48.599991 0)"/>
     <use xlink:href="#SourceSans3-Regular-2c" transform="translate(113.299988 0)"/>
     <use xlink:href="#SourceSans3-Regular-20" transform="translate(138.199982 0)"/>
     <use xlink:href="#SourceSans3-Regular-32" transform="translate(158.199966 0)"/>
     <use xlink:href="#SourceSans3-Regular-d7" transform="translate(207.899963 0)"/>
     <use xlink:href="#SourceSans3-Regular-32" transform="translate(257.59996 0)"/>
     <use xlink:href="#SourceSans3-Regular-20" transform="translate(307.299957 0)"/>
     <use xlink:href="#SourceSans3-Regular-43" transform="translate(327.299942 0)"/>
     <use xlink:href="#SourceSans3-Regular-6f" transform="translate(384.399933 0)"/>
     <use xlink:href="#SourceSans3-Regular-6e" transform="translate(438.59993 0)"/>
     <use xlink:href="#SourceSans3-Regular-76" transform="translate(493.299927 0)"/>
     <use xlink:href="#SourceSans3-Regular-2c" transform="translate(539.999924 0)"/>
     <use xlink:href="#SourceSans3-Regular-20" transform="translate(564.899918 0)"/>
     <use xlink:href="#SourceSans3-Regular-31" transform="translate(584.899902 0)"/>
     <use xlink:href="#SourceSans3-Regular-39" transform="translate(634.599899 0)"/>
     <use xlink:href="#SourceSans3-Regular-32" transform="translate(684.299896 0)"/>
     <use xlink:href="#SourceSans3-Regular-2c" transform="translate(733.999893 0)"/>
     <use xlink:href="#SourceSans3-Regular-20" transform="translate(758.899887 0)"/>
     <use xlink:href="#SourceSans3-Regular-73" transform="translate(778.899872 0)"/>
     <use xlink:href="#SourceSans3-Regular-32" transform="translate(820.799866 0)"/>
    </g>
   </g>
   <g id="text_6">
    <!-- ConvNeXt block, 192 -->
    <g transform="translate(217.968509 572.11543) scale(0.115 -0.115)">
     <use xlink:href="#SourceSans3-Regular-43"/>
     <use xlink:href="#SourceSans3-Regular-6f" transform="translate(57.099991 0)"/>
     <use xlink:href="#SourceSans3-Regular-6e" transform="translate(111.299988 0)"/>
     <use xlink:href="#SourceSans3-Regular-76" transform="translate(165.999985 0)"/>
     <use xlink:href="#SourceSans3-Regular-4e" transform="translate(212.699982 0)"/>
     <use xlink:href="#SourceSans3-Regular-65" transform="translate(277.399979 0)"/>
     <use xlink:href="#SourceSans3-Regular-58" transform="translate(326.999969 0)"/>
     <use xlink:href="#SourceSans3-Regular-74" transform="translate(378.299957 0)"/>
     <use xlink:href="#SourceSans3-Regular-20" transform="translate(412.099945 0)"/>
     <use xlink:href="#SourceSans3-Regular-62" transform="translate(432.09993 0)"/>
     <use xlink:href="#SourceSans3-Regular-6c" transform="translate(487.399918 0)"/>
     <use xlink:href="#SourceSans3-Regular-6f" transform="translate(512.899902 0)"/>
     <use xlink:href="#SourceSans3-Regular-63" transform="translate(567.099899 0)"/>
     <use xlink:href="#SourceSans3-Regular-6b" transform="translate(612.69989 0)"/>
     <use xlink:href="#SourceSans3-Regular-2c" transform="translate(662.199875 0)"/>
     <use xlink:href="#SourceSans3-Regular-20" transform="translate(687.099869 0)"/>
     <use xlink:href="#SourceSans3-Regular-31" transform="translate(707.099854 0)"/>
     <use xlink:href="#SourceSans3-Regular-39" transform="translate(756.79985 0)"/>
     <use xlink:href="#SourceSans3-Regular-32" transform="translate(806.499847 0)"/>
    </g>
   </g>
   <g id="text_7">
    <!-- LN, 2×2 Conv, 384, s2 -->
    <g transform="translate(217.146258 492.11543) scale(0.115 -0.115)">
     <defs>
      <path id="SourceSans3-Regular-33" d="M 1510 -77 
Q 1024 -77 697 99 
Q 371 275 166 499 
L 435 845 
Q 621 653 870 505 
Q 1120 358 1478 358 
Q 1850 358 2086 563 
Q 2323 768 2323 1107 
Q 2323 1350 2198 1532 
Q 2074 1715 1789 1817 
Q 1504 1920 1018 1920 
L 1018 2323 
Q 1453 2323 1705 2425 
Q 1958 2528 2067 2701 
Q 2176 2874 2176 3085 
Q 2176 3386 1987 3558 
Q 1798 3731 1472 3731 
Q 1216 3731 1001 3616 
Q 787 3501 602 3315 
L 320 3648 
Q 557 3872 845 4016 
Q 1133 4160 1491 4160 
Q 2022 4160 2368 3888 
Q 2714 3616 2714 3123 
Q 2714 2752 2509 2515 
Q 2304 2278 1971 2150 
L 1971 2125 
Q 2342 2042 2598 1776 
Q 2854 1510 2854 1088 
Q 2854 730 2675 467 
Q 2496 205 2192 64 
Q 1888 -77 1510 -77 
z
" transform="scale(0.015625)"/>
      <path id="SourceSans3-Regular-38" d="M 1600 -77 
Q 1216 -77 915 67 
Q 614 211 438 467 
Q 262 723 262 1043 
Q 262 1312 374 1520 
Q 486 1728 662 1885 
Q 838 2042 1030 2144 
L 1030 2170 
Q 806 2330 633 2560 
Q 461 2790 461 3110 
Q 461 3424 614 3661 
Q 768 3898 1030 4029 
Q 1293 4160 1619 4160 
Q 2150 4160 2460 3853 
Q 2771 3546 2771 3072 
Q 2771 2861 2681 2672 
Q 2592 2483 2464 2332 
Q 2336 2182 2208 2086 
L 2208 2061 
Q 2394 1958 2554 1817 
Q 2714 1677 2816 1481 
Q 2918 1286 2918 1011 
Q 2918 710 2755 460 
Q 2592 211 2294 67 
Q 1997 -77 1600 -77 
z
M 1888 2227 
Q 2093 2413 2205 2617 
Q 2317 2822 2317 3046 
Q 2317 3347 2131 3558 
Q 1946 3770 1606 3770 
Q 1325 3770 1136 3590 
Q 947 3411 947 3110 
Q 947 2867 1078 2707 
Q 1210 2547 1427 2435 
Q 1645 2323 1888 2227 
z
M 1613 314 
Q 1971 314 2192 515 
Q 2413 717 2413 1030 
Q 2413 1293 2259 1459 
Q 2106 1626 1853 1747 
Q 1600 1869 1306 1984 
Q 1062 1824 899 1600 
Q 736 1376 736 1094 
Q 736 755 989 534 
Q 1242 314 1613 314 
z
" transform="scale(0.015625)"/>
     </defs>
     <use xlink:href="#SourceSans3-Regular-4c"/>
     <use xlink:href="#SourceSans3-Regular-4e" transform="translate(48.599991 0)"/>
     <use xlink:href="#SourceSans3-Regular-2c" transform="translate(113.299988 0)"/>
     <use xlink:href="#SourceSans3-Regular-20" transform="translate(138.199982 0)"/>
     <use xlink:href="#SourceSans3-Regular-32" transform="translate(158.199966 0)"/>
     <use xlink:href="#SourceSans3-Regular-d7" transform="translate(207.899963 0)"/>
     <use xlink:href="#SourceSans3-Regular-32" transform="translate(257.59996 0)"/>
     <use xlink:href="#SourceSans3-Regular-20" transform="translate(307.299957 0)"/>
     <use xlink:href="#SourceSans3-Regular-43" transform="translate(327.299942 0)"/>
     <use xlink:href="#SourceSans3-Regular-6f" transform="translate(384.399933 0)"/>
     <use xlink:href="#SourceSans3-Regular-6e" transform="translate(438.59993 0)"/>
     <use xlink:href="#SourceSans3-Regular-76" transform="translate(493.299927 0)"/>
     <use xlink:href="#SourceSans3-Regular-2c" transform="translate(539.999924 0)"/>
     <use xlink:href="#SourceSans3-Regular-20" transform="translate(564.899918 0)"/>
     <use xlink:href="#SourceSans3-Regular-33" transform="translate(584.899902 0)"/>
     <use xlink:href="#SourceSans3-Regular-38" transform="translate(634.599899 0)"/>
     <use xlink:href="#SourceSans3-Regular-34" transform="translate(684.299896 0)"/>
     <use xlink:href="#SourceSans3-Regular-2c" transform="translate(733.999893 0)"/>
     <use xlink:href="#SourceSans3-Regular-20" transform="translate(758.899887 0)"/>
     <use xlink:href="#SourceSans3-Regular-73" transform="translate(778.899872 0)"/>
     <use xlink:href="#SourceSans3-Regular-32" transform="translate(820.799866 0)"/>
    </g>
   </g>
   <g id="text_8">
    <!-- ConvNeXt block, 384 -->
    <g transform="translate(217.968509 428.11543) scale(0.115 -0.115)">
     <use xlink:href="#SourceSans3-Regular-43"/>
     <use xlink:href="#SourceSans3-Regular-6f" transform="translate(57.099991 0)"/>
     <use xlink:href="#SourceSans3-Regular-6e" transform="translate(111.299988 0)"/>
     <use xlink:href="#SourceSans3-Regular-76" transform="translate(165.999985 0)"/>
     <use xlink:href="#SourceSans3-Regular-4e" transform="translate(212.699982 0)"/>
     <use xlink:href="#SourceSans3-Regular-65" transform="translate(277.399979 0)"/>
     <use xlink:href="#SourceSans3-Regular-58" transform="translate(326.999969 0)"/>
     <use xlink:href="#SourceSans3-Regular-74" transform="translate(378.299957 0)"/>
     <use xlink:href="#SourceSans3-Regular-20" transform="translate(412.099945 0)"/>
     <use xlink:href="#SourceSans3-Regular-62" transform="translate(432.09993 0)"/>
     <use xlink:href="#SourceSans3-Regular-6c" transform="translate(487.399918 0)"/>
     <use xlink:href="#SourceSans3-Regular-6f" transform="translate(512.899902 0)"/>
     <use xlink:href="#SourceSans3-Regular-63" transform="translate(567.099899 0)"/>
     <use xlink:href="#SourceSans3-Regular-6b" transform="translate(612.69989 0)"/>
     <use xlink:href="#SourceSans3-Regular-2c" transform="translate(662.199875 0)"/>
     <use xlink:href="#SourceSans3-Regular-20" transform="translate(687.099869 0)"/>
     <use xlink:href="#SourceSans3-Regular-33" transform="translate(707.099854 0)"/>
     <use xlink:href="#SourceSans3-Regular-38" transform="translate(756.79985 0)"/>
     <use xlink:href="#SourceSans3-Regular-34" transform="translate(806.499847 0)"/>
    </g>
   </g>
   <g id="text_9">
    <!-- LN, 2×2 Conv, 768, s2 -->
    <g transform="translate(217.146258 348.11543) scale(0.115 -0.115)">
     <defs>
      <path id="SourceSans3-Regular-37" d="M 1094 0 
Q 1133 768 1261 1376 
Q 1389 1984 1648 2525 
Q 1907 3066 2323 3629 
L 282 3629 
L 282 4083 
L 2912 4083 
L 2912 3757 
Q 2541 3290 2304 2867 
Q 2067 2445 1932 2009 
Q 1798 1574 1731 1084 
Q 1664 595 1638 0 
L 1094 0 
z
" transform="scale(0.015625)"/>
     </defs>
     <use xlink:href="#SourceSans3-Regular-4c"/>
     <use xlink:href="#SourceSans3-Regular-4e" transform="translate(48.599991 0)"/>
     <use xlink:href="#SourceSans3-Regular-2c" transform="translate(113.299988 0)"/>
     <use xlink:href="#SourceSans3-Regular-20" transform="translate(138.199982 0)"/>
     <use xlink:href="#SourceSans3-Regular-32" transform="translate(158.199966 0)"/>
     <use xlink:href="#SourceSans3-Regular-d7" transform="translate(207.899963 0)"/>
     <use xlink:href="#SourceSans3-Regular-32" transform="translate(257.59996 0)"/>
     <use xlink:href="#SourceSans3-Regular-20" transform="translate(307.299957 0)"/>
     <use xlink:href="#SourceSans3-Regular-43" transform="translate(327.299942 0)"/>
     <use xlink:href="#SourceSans3-Regular-6f" transform="translate(384.399933 0)"/>
     <use xlink:href="#SourceSans3-Regular-6e" transform="translate(438.59993 0)"/>
     <use xlink:href="#SourceSans3-Regular-76" transform="translate(493.299927 0)"/>
     <use xlink:href="#SourceSans3-Regular-2c" transform="translate(539.999924 0)"/>
     <use xlink:href="#SourceSans3-Regular-20" transform="translate(564.899918 0)"/>
     <use xlink:href="#SourceSans3-Regular-37" transform="translate(584.899902 0)"/>
     <use xlink:href="#SourceSans3-Regular-36" transform="translate(634.599899 0)"/>
     <use xlink:href="#SourceSans3-Regular-38" transform="translate(684.299896 0)"/>
     <use xlink:href="#SourceSans3-Regular-2c" transform="translate(733.999893 0)"/>
     <use xlink:href="#SourceSans3-Regular-20" transform="translate(758.899887 0)"/>
     <use xlink:href="#SourceSans3-Regular-73" transform="translate(778.899872 0)"/>
     <use xlink:href="#SourceSans3-Regular-32" transform="translate(820.799866 0)"/>
    </g>
   </g>
   <g id="text_10">
    <!-- ConvNeXt block, 768 -->
    <g transform="translate(217.968509 284.11543) scale(0.115 -0.115)">
     <use xlink:href="#SourceSans3-Regular-43"/>
     <use xlink:href="#SourceSans3-Regular-6f" transform="translate(57.099991 0)"/>
     <use xlink:href="#SourceSans3-Regular-6e" transform="translate(111.299988 0)"/>
     <use xlink:href="#SourceSans3-Regular-76" transform="translate(165.999985 0)"/>
     <use xlink:href="#SourceSans3-Regular-4e" transform="translate(212.699982 0)"/>
     <use xlink:href="#SourceSans3-Regular-65" transform="translate(277.399979 0)"/>
     <use xlink:href="#SourceSans3-Regular-58" transform="translate(326.999969 0)"/>
     <use xlink:href="#SourceSans3-Regular-74" transform="translate(378.299957 0)"/>
     <use xlink:href="#SourceSans3-Regular-20" transform="translate(412.099945 0)"/>
     <use xlink:href="#SourceSans3-Regular-62" transform="translate(432.09993 0)"/>
     <use xlink:href="#SourceSans3-Regular-6c" transform="translate(487.399918 0)"/>
     <use xlink:href="#SourceSans3-Regular-6f" transform="translate(512.899902 0)"/>
     <use xlink:href="#SourceSans3-Regular-63" transform="translate(567.099899 0)"/>
     <use xlink:href="#SourceSans3-Regular-6b" transform="translate(612.69989 0)"/>
     <use xlink:href="#SourceSans3-Regular-2c" transform="translate(662.199875 0)"/>
     <use xlink:href="#SourceSans3-Regular-20" transform="translate(687.099869 0)"/>
     <use xlink:href="#SourceSans3-Regular-37" transform="translate(707.099854 0)"/>
     <use xlink:href="#SourceSans3-Regular-36" transform="translate(756.79985 0)"/>
     <use xlink:href="#SourceSans3-Regular-38" transform="translate(806.499847 0)"/>
    </g>
   </g>
   <g id="text_11">
    <!-- Global AvgPool -->
    <g transform="translate(230.710507 204.00582) scale(0.115 -0.115)">
     <defs>
      <path id="SourceSans3-Regular-47" d="M 2227 -77 
Q 1677 -77 1248 182 
Q 819 442 576 928 
Q 333 1414 333 2099 
Q 333 2778 582 3264 
Q 832 3750 1267 4012 
Q 1702 4275 2259 4275 
Q 2694 4275 2992 4115 
Q 3290 3955 3469 3757 
L 3174 3424 
Q 3014 3590 2803 3699 
Q 2592 3808 2272 3808 
Q 1850 3808 1536 3600 
Q 1222 3392 1052 3014 
Q 883 2637 883 2112 
Q 883 1318 1244 854 
Q 1606 390 2278 390 
Q 2502 390 2707 457 
Q 2912 525 3034 640 
L 3034 1734 
L 2144 1734 
L 2144 2176 
L 3520 2176 
L 3520 410 
Q 3322 198 2986 60 
Q 2650 -77 2227 -77 
z
" transform="scale(0.015625)"/>
      <path id="SourceSans3-Regular-41" d="M 1299 2349 
L 1101 1709 
L 2362 1709 
L 2163 2349 
Q 2048 2701 1945 3049 
Q 1843 3398 1741 3763 
L 1715 3763 
Q 1619 3398 1516 3049 
Q 1414 2701 1299 2349 
z
M 19 0 
L 1440 4198 
L 2042 4198 
L 3462 0 
L 2893 0 
L 2496 1280 
L 966 1280 
L 563 0 
L 19 0 
z
" transform="scale(0.015625)"/>
      <path id="SourceSans3-Regular-67" d="M 1574 -1434 
Q 1005 -1434 646 -1216 
Q 288 -998 288 -595 
Q 288 -397 409 -214 
Q 531 -32 742 109 
L 742 134 
Q 627 205 547 333 
Q 467 461 467 640 
Q 467 838 576 985 
Q 685 1133 806 1216 
L 806 1242 
Q 653 1370 528 1587 
Q 403 1805 403 2080 
Q 403 2419 563 2668 
Q 723 2918 992 3052 
Q 1261 3187 1574 3187 
Q 1702 3187 1817 3164 
Q 1933 3142 2016 3110 
L 3098 3110 
L 3098 2707 
L 2451 2707 
L 2451 2682 
Q 2560 2579 2637 2425 
Q 2714 2272 2714 2061 
Q 2714 1734 2560 1491 
Q 2406 1248 2150 1117 
Q 1894 986 1574 986 
Q 1325 986 1107 1094 
Q 1024 1024 966 937 
Q 909 851 909 723 
Q 909 576 1027 480 
Q 1146 384 1459 384 
L 2061 384 
Q 2605 384 2877 208 
Q 3149 32 3149 -358 
Q 3149 -646 2957 -889 
Q 2765 -1133 2413 -1283 
Q 2061 -1434 1574 -1434 
z
M 1574 1338 
Q 1843 1338 2038 1539 
Q 2234 1741 2234 2080 
Q 2234 2419 2042 2611 
Q 1850 2803 1574 2803 
Q 1299 2803 1107 2611 
Q 915 2419 915 2080 
Q 915 1741 1110 1539 
Q 1306 1338 1574 1338 
z
M 1651 -1069 
Q 2099 -1069 2368 -873 
Q 2637 -678 2637 -435 
Q 2637 -218 2473 -134 
Q 2310 -51 2010 -51 
L 1472 -51 
Q 1382 -51 1276 -38 
Q 1171 -26 1069 0 
Q 902 -122 825 -256 
Q 749 -390 749 -525 
Q 749 -774 989 -921 
Q 1229 -1069 1651 -1069 
z
" transform="scale(0.015625)"/>
      <path id="SourceSans3-Regular-50" d="M 576 0 
L 576 4198 
L 1773 4198 
Q 2246 4198 2598 4083 
Q 2950 3968 3148 3696 
Q 3347 3424 3347 2963 
Q 3347 2304 2918 1984 
Q 2490 1664 1798 1664 
L 1107 1664 
L 1107 0 
L 576 0 
z
M 1107 2099 
L 1734 2099 
Q 2285 2099 2550 2307 
Q 2816 2515 2816 2963 
Q 2816 3418 2537 3594 
Q 2259 3770 1709 3770 
L 1107 3770 
L 1107 2099 
z
" transform="scale(0.015625)"/>
     </defs>
     <use xlink:href="#SourceSans3-Regular-47"/>
     <use xlink:href="#SourceSans3-Regular-6c" transform="translate(61.699997 0)"/>
     <use xlink:href="#SourceSans3-Regular-6f" transform="translate(87.199982 0)"/>
     <use xlink:href="#SourceSans3-Regular-62" transform="translate(141.399979 0)"/>
     <use xlink:href="#SourceSans3-Regular-61" transform="translate(196.699966 0)"/>
     <use xlink:href="#SourceSans3-Regular-6c" transform="translate(247.09996 0)"/>
     <use xlink:href="#SourceSans3-Regular-20" transform="translate(272.599945 0)"/>
     <use xlink:href="#SourceSans3-Regular-41" transform="translate(292.59993 0)"/>
     <use xlink:href="#SourceSans3-Regular-76" transform="translate(346.999924 0)"/>
     <use xlink:href="#SourceSans3-Regular-67" transform="translate(393.699921 0)"/>
     <use xlink:href="#SourceSans3-Regular-50" transform="translate(444.099915 0)"/>
     <use xlink:href="#SourceSans3-Regular-6f" transform="translate(500.699905 0)"/>
     <use xlink:href="#SourceSans3-Regular-6f" transform="translate(554.899902 0)"/>
     <use xlink:href="#SourceSans3-Regular-6c" transform="translate(609.099899 0)"/>
    </g>
   </g>
   <g id="text_12">
    <!-- LayerNorm -->
    <g transform="translate(240.376253 163.068711) scale(0.115 -0.115)">
     <use xlink:href="#SourceSans3-Regular-4c"/>
     <use xlink:href="#SourceSans3-Regular-61" transform="translate(48.599991 0)"/>
     <use xlink:href="#SourceSans3-Regular-79" transform="translate(98.999985 0)"/>
     <use xlink:href="#SourceSans3-Regular-65" transform="translate(145.699982 0)"/>
     <use xlink:href="#SourceSans3-Regular-72" transform="translate(195.299973 0)"/>
     <use xlink:href="#SourceSans3-Regular-4e" transform="translate(229.999969 0)"/>
     <use xlink:href="#SourceSans3-Regular-6f" transform="translate(294.699966 0)"/>
     <use xlink:href="#SourceSans3-Regular-72" transform="translate(348.899963 0)"/>
     <use xlink:href="#SourceSans3-Regular-6d" transform="translate(383.59996 0)"/>
    </g>
   </g>
   <g id="text_13">
    <!-- Dense 1000 -->
    <g transform="translate(239.824254 122.11543) scale(0.115 -0.115)">
     <defs>
      <path id="SourceSans3-Regular-44" d="M 576 0 
L 576 4198 
L 1626 4198 
Q 2598 4198 3104 3657 
Q 3610 3117 3610 2118 
Q 3610 1114 3107 557 
Q 2605 0 1651 0 
L 576 0 
z
M 1107 435 
L 1587 435 
Q 2323 435 2691 880 
Q 3059 1325 3059 2118 
Q 3059 2912 2691 3337 
Q 2323 3763 1587 3763 
L 1107 3763 
L 1107 435 
z
" transform="scale(0.015625)"/>
      <path id="SourceSans3-Regular-30" d="M 1594 -77 
Q 979 -77 630 476 
Q 282 1030 282 2054 
Q 282 3085 630 3622 
Q 979 4160 1594 4160 
Q 2202 4160 2550 3622 
Q 2899 3085 2899 2054 
Q 2899 1030 2550 476 
Q 2202 -77 1594 -77 
z
M 1594 346 
Q 1952 346 2169 752 
Q 2387 1158 2387 2054 
Q 2387 2950 2169 3344 
Q 1952 3738 1594 3738 
Q 1235 3738 1014 3344 
Q 794 2950 794 2054 
Q 794 1158 1014 752 
Q 1235 346 1594 346 
z
" transform="scale(0.015625)"/>
     </defs>
     <use xlink:href="#SourceSans3-Regular-44"/>
     <use xlink:href="#SourceSans3-Regular-65" transform="translate(61.499985 0)"/>
     <use xlink:href="#SourceSans3-Regular-6e" transform="translate(111.099976 0)"/>
     <use xlink:href="#SourceSans3-Regular-73" transform="translate(165.799973 0)"/>
     <use xlink:href="#SourceSans3-Regular-65" transform="translate(207.699966 0)"/>
     <use xlink:href="#SourceSans3-Regular-20" transform="translate(257.299957 0)"/>
     <use xlink:href="#SourceSans3-Regular-31" transform="translate(277.299942 0)"/>
     <use xlink:href="#SourceSans3-Regular-30" transform="translate(326.999939 0)"/>
     <use xlink:href="#SourceSans3-Regular-30" transform="translate(376.699936 0)"/>
     <use xlink:href="#SourceSans3-Regular-30" transform="translate(426.399933 0)"/>
    </g>
   </g>
   <g id="text_14">
    <!-- CONVNEXT-T -->
    <g style="fill: #6e6e6e" transform="translate(169.2 88.320312) scale(0.1 -0.1)">
     <defs>
      <path id="SourceSans3-Regular-4f" d="M 2125 -77 
Q 1600 -77 1193 192 
Q 787 461 560 953 
Q 333 1446 333 2118 
Q 333 2790 560 3273 
Q 787 3757 1193 4016 
Q 1600 4275 2125 4275 
Q 2656 4275 3059 4016 
Q 3462 3757 3692 3273 
Q 3923 2790 3923 2118 
Q 3923 1446 3692 953 
Q 3462 461 3059 192 
Q 2656 -77 2125 -77 
z
M 2125 390 
Q 2502 390 2780 604 
Q 3059 819 3212 1206 
Q 3366 1594 3366 2118 
Q 3366 2899 3027 3353 
Q 2688 3808 2125 3808 
Q 1562 3808 1222 3353 
Q 883 2899 883 2118 
Q 883 1594 1036 1206 
Q 1190 819 1472 604 
Q 1754 390 2125 390 
z
" transform="scale(0.015625)"/>
      <path id="SourceSans3-Regular-56" d="M 1318 0 
L 0 4198 
L 570 4198 
L 1216 1933 
Q 1325 1555 1421 1238 
Q 1517 922 1626 544 
L 1651 544 
Q 1760 922 1849 1238 
Q 1939 1555 2054 1933 
L 2752 4198 
L 3296 4198 
L 1939 0 
L 1318 0 
z
" transform="scale(0.015625)"/>
      <path id="SourceSans3-Regular-45" d="M 576 0 
L 576 4198 
L 2995 4198 
L 2995 3750 
L 1107 3750 
L 1107 2432 
L 2701 2432 
L 2701 1978 
L 1107 1978 
L 1107 454 
L 3059 454 
L 3059 0 
L 576 0 
z
" transform="scale(0.015625)"/>
      <path id="SourceSans3-Regular-54" d="M 1446 0 
L 1446 3750 
L 179 3750 
L 179 4198 
L 3251 4198 
L 3251 3750 
L 1984 3750 
L 1984 0 
L 1446 0 
z
" transform="scale(0.015625)"/>
      <path id="SourceSans3-Regular-2d" d="M 262 1402 
L 262 1805 
L 1734 1805 
L 1734 1402 
L 262 1402 
z
" transform="scale(0.015625)"/>
     </defs>
     <use xlink:href="#SourceSans3-Regular-43"/>
     <use xlink:href="#SourceSans3-Regular-4f" transform="translate(57.099991 0)"/>
     <use xlink:href="#SourceSans3-Regular-4e" transform="translate(123.499985 0)"/>
     <use xlink:href="#SourceSans3-Regular-56" transform="translate(188.199982 0)"/>
     <use xlink:href="#SourceSans3-Regular-4e" transform="translate(239.699966 0)"/>
     <use xlink:href="#SourceSans3-Regular-45" transform="translate(304.399963 0)"/>
     <use xlink:href="#SourceSans3-Regular-58" transform="translate(357.09996 0)"/>
     <use xlink:href="#SourceSans3-Regular-54" transform="translate(408.399948 0)"/>
     <use xlink:href="#SourceSans3-Regular-2d" transform="translate(461.999939 0)"/>
     <use xlink:href="#SourceSans3-Regular-54" transform="translate(493.09993 0)"/>
    </g>
   </g>
   <g id="patch_32">
    <path d="M 168.2 672.2 
C 160.55 672.2 168.2 705.2 159.2 705.2 
C 168.2 705.2 160.55 738.2 168.2 738.2 
" clip-path="url(#pc753815cfb)" style="fill: none; stroke: #0b6bb2; stroke-width: 1.8; stroke-linejoin: miter; stroke-linecap: round"/>
   </g>
   <g id="text_15">
    <!-- 3  -->
    <g style="fill: #0b6bb2" transform="translate(136.872005 708.559687) scale(0.13 -0.13)">
     <defs>
      <path id="SourceSans3-Bold-33" d="M 1555 -77 
Q 1062 -77 713 83 
Q 365 243 141 499 
L 576 1094 
Q 762 915 986 800 
Q 1210 685 1466 685 
Q 1766 685 1945 809 
Q 2125 934 2125 1165 
Q 2125 1344 2035 1475 
Q 1946 1606 1709 1676 
Q 1472 1747 1030 1747 
L 1030 2413 
Q 1581 2413 1785 2563 
Q 1990 2714 1990 2957 
Q 1990 3168 1862 3286 
Q 1734 3405 1491 3405 
Q 1274 3405 1098 3309 
Q 922 3213 730 3046 
L 256 3622 
Q 538 3866 851 4003 
Q 1165 4141 1536 4141 
Q 2163 4141 2550 3849 
Q 2938 3558 2938 3027 
Q 2938 2714 2762 2490 
Q 2586 2266 2259 2125 
L 2259 2099 
Q 2611 1997 2838 1750 
Q 3066 1504 3066 1107 
Q 3066 730 2858 464 
Q 2650 198 2307 60 
Q 1965 -77 1555 -77 
z
" transform="scale(0.015625)"/>
      <path id="SourceSans3-Bold-20" transform="scale(0.015625)"/>
     </defs>
     <use xlink:href="#SourceSans3-Bold-33"/>
     <use xlink:href="#SourceSans3-Bold-20" transform="translate(52.799988 0)"/>
    </g>
   </g>
   <g id="text_16">
    <!-- × -->
    <g style="fill: #0b6bb2" transform="translate(146.336002 708.559687) scale(0.13 -0.13)">
     <defs>
      <path id="SourceSans3-Bold-d7" d="M 774 717 
L 307 1190 
L 1216 2106 
L 307 3027 
L 774 3501 
L 1690 2579 
L 2605 3501 
L 3072 3027 
L 2163 2106 
L 3072 1190 
L 2605 717 
L 1690 1638 
L 774 717 
z
" transform="scale(0.015625)"/>
     </defs>
     <use xlink:href="#SourceSans3-Bold-d7"/>
    </g>
   </g>
   <g id="text_17">
    <!-- STAGE 1 -->
    <g style="fill: #6e6e6e" transform="translate(181.2 684.320312) scale(0.1 -0.1)">
     <defs>
      <path id="SourceSans3-Regular-53" d="M 1741 -77 
Q 1293 -77 918 89 
Q 544 256 269 550 
L 570 896 
Q 794 659 1104 524 
Q 1414 390 1747 390 
Q 2163 390 2393 579 
Q 2624 768 2624 1075 
Q 2624 1293 2531 1421 
Q 2438 1549 2281 1638 
Q 2125 1728 1926 1818 
L 1325 2080 
Q 1126 2170 928 2304 
Q 730 2438 602 2649 
Q 474 2861 474 3162 
Q 474 3482 643 3734 
Q 813 3987 1110 4131 
Q 1408 4275 1792 4275 
Q 2176 4275 2496 4134 
Q 2816 3994 3034 3770 
L 2746 3424 
Q 2547 3597 2310 3702 
Q 2074 3808 1792 3808 
Q 1440 3808 1225 3641 
Q 1011 3475 1011 3194 
Q 1011 2995 1116 2864 
Q 1222 2733 1382 2649 
Q 1542 2566 1709 2496 
L 2304 2240 
Q 2682 2080 2925 1833 
Q 3168 1587 3168 1120 
Q 3168 787 2995 515 
Q 2822 243 2505 83 
Q 2189 -77 1741 -77 
z
" transform="scale(0.015625)"/>
     </defs>
     <use xlink:href="#SourceSans3-Regular-53"/>
     <use xlink:href="#SourceSans3-Regular-54" transform="translate(53.399994 0)"/>
     <use xlink:href="#SourceSans3-Regular-41" transform="translate(106.999985 0)"/>
     <use xlink:href="#SourceSans3-Regular-47" transform="translate(161.399979 0)"/>
     <use xlink:href="#SourceSans3-Regular-45" transform="translate(223.099976 0)"/>
     <use xlink:href="#SourceSans3-Regular-20" transform="translate(275.799973 0)"/>
     <use xlink:href="#SourceSans3-Regular-31" transform="translate(295.799957 0)"/>
    </g>
   </g>
   <g id="patch_33">
    <path d="M 168.2 528.2 
C 160.55 528.2 168.2 561.2 159.2 561.2 
C 168.2 561.2 160.55 594.2 168.2 594.2 
" clip-path="url(#pc753815cfb)" style="fill: none; stroke: #0b6bb2; stroke-width: 1.8; stroke-linejoin: miter; stroke-linecap: round"/>
   </g>
   <g id="text_18">
    <!-- 3  -->
    <g style="fill: #0b6bb2" transform="translate(136.872005 564.559687) scale(0.13 -0.13)">
     <use xlink:href="#SourceSans3-Bold-33"/>
     <use xlink:href="#SourceSans3-Bold-20" transform="translate(52.799988 0)"/>
    </g>
   </g>
   <g id="text_19">
    <!-- × -->
    <g style="fill: #0b6bb2" transform="translate(146.336002 564.559687) scale(0.13 -0.13)">
     <use xlink:href="#SourceSans3-Bold-d7"/>
    </g>
   </g>
   <g id="text_20">
    <!-- STAGE 2 -->
    <g style="fill: #6e6e6e" transform="translate(181.2 540.320312) scale(0.1 -0.1)">
     <use xlink:href="#SourceSans3-Regular-53"/>
     <use xlink:href="#SourceSans3-Regular-54" transform="translate(53.399994 0)"/>
     <use xlink:href="#SourceSans3-Regular-41" transform="translate(106.999985 0)"/>
     <use xlink:href="#SourceSans3-Regular-47" transform="translate(161.399979 0)"/>
     <use xlink:href="#SourceSans3-Regular-45" transform="translate(223.099976 0)"/>
     <use xlink:href="#SourceSans3-Regular-20" transform="translate(275.799973 0)"/>
     <use xlink:href="#SourceSans3-Regular-32" transform="translate(295.799957 0)"/>
    </g>
   </g>
   <g id="patch_34">
    <path d="M 168.2 384.2 
C 160.55 384.2 168.2 417.2 159.2 417.2 
C 168.2 417.2 160.55 450.2 168.2 450.2 
" clip-path="url(#pc753815cfb)" style="fill: none; stroke: #0b6bb2; stroke-width: 1.8; stroke-linejoin: miter; stroke-linecap: round"/>
   </g>
   <g id="text_21">
    <!-- 9  -->
    <g style="fill: #0b6bb2" transform="translate(136.872005 420.559687) scale(0.13 -0.13)">
     <defs>
      <path id="SourceSans3-Bold-39" d="M 1075 2778 
Q 1075 2458 1228 2323 
Q 1382 2189 1613 2189 
Q 1773 2189 1936 2281 
Q 2099 2374 2221 2592 
Q 2157 3072 1981 3254 
Q 1805 3437 1587 3437 
Q 1382 3437 1228 3280 
Q 1075 3123 1075 2778 
z
M 1466 -77 
Q 1062 -77 764 70 
Q 467 218 275 410 
L 774 973 
Q 877 858 1049 771 
Q 1222 685 1402 685 
Q 1632 685 1814 803 
Q 1997 922 2112 1200 
Q 2227 1478 2240 1952 
Q 2080 1754 1846 1638 
Q 1613 1523 1427 1523 
Q 1082 1523 810 1657 
Q 538 1792 378 2070 
Q 218 2349 218 2778 
Q 218 3200 403 3507 
Q 589 3814 896 3977 
Q 1203 4141 1568 4141 
Q 1965 4141 2317 3933 
Q 2669 3725 2889 3283 
Q 3110 2842 3110 2125 
Q 3110 1370 2876 880 
Q 2643 390 2268 156 
Q 1894 -77 1466 -77 
z
" transform="scale(0.015625)"/>
     </defs>
     <use xlink:href="#SourceSans3-Bold-39"/>
     <use xlink:href="#SourceSans3-Bold-20" transform="translate(52.799988 0)"/>
    </g>
   </g>
   <g id="text_22">
    <!-- × -->
    <g style="fill: #0b6bb2" transform="translate(146.336002 420.559687) scale(0.13 -0.13)">
     <use xlink:href="#SourceSans3-Bold-d7"/>
    </g>
   </g>
   <g id="text_23">
    <!-- STAGE 3 -->
    <g style="fill: #6e6e6e" transform="translate(181.2 396.320312) scale(0.1 -0.1)">
     <use xlink:href="#SourceSans3-Regular-53"/>
     <use xlink:href="#SourceSans3-Regular-54" transform="translate(53.399994 0)"/>
     <use xlink:href="#SourceSans3-Regular-41" transform="translate(106.999985 0)"/>
     <use xlink:href="#SourceSans3-Regular-47" transform="translate(161.399979 0)"/>
     <use xlink:href="#SourceSans3-Regular-45" transform="translate(223.099976 0)"/>
     <use xlink:href="#SourceSans3-Regular-20" transform="translate(275.799973 0)"/>
     <use xlink:href="#SourceSans3-Regular-33" transform="translate(295.799957 0)"/>
    </g>
   </g>
   <g id="patch_35">
    <path d="M 168.2 240.2 
C 160.55 240.2 168.2 273.2 159.2 273.2 
C 168.2 273.2 160.55 306.2 168.2 306.2 
" clip-path="url(#pc753815cfb)" style="fill: none; stroke: #0b6bb2; stroke-width: 1.8; stroke-linejoin: miter; stroke-linecap: round"/>
   </g>
   <g id="text_24">
    <!-- 3  -->
    <g style="fill: #0b6bb2" transform="translate(136.872005 276.559687) scale(0.13 -0.13)">
     <use xlink:href="#SourceSans3-Bold-33"/>
     <use xlink:href="#SourceSans3-Bold-20" transform="translate(52.799988 0)"/>
    </g>
   </g>
   <g id="text_25">
    <!-- × -->
    <g style="fill: #0b6bb2" transform="translate(146.336002 276.559687) scale(0.13 -0.13)">
     <use xlink:href="#SourceSans3-Bold-d7"/>
    </g>
   </g>
   <g id="text_26">
    <!-- STAGE 4 -->
    <g style="fill: #6e6e6e" transform="translate(181.2 252.320312) scale(0.1 -0.1)">
     <use xlink:href="#SourceSans3-Regular-53"/>
     <use xlink:href="#SourceSans3-Regular-54" transform="translate(53.399994 0)"/>
     <use xlink:href="#SourceSans3-Regular-41" transform="translate(106.999985 0)"/>
     <use xlink:href="#SourceSans3-Regular-47" transform="translate(161.399979 0)"/>
     <use xlink:href="#SourceSans3-Regular-45" transform="translate(223.099976 0)"/>
     <use xlink:href="#SourceSans3-Regular-20" transform="translate(275.799973 0)"/>
     <use xlink:href="#SourceSans3-Regular-34" transform="translate(295.799957 0)"/>
    </g>
   </g>
   <g id="text_27">
    <!-- 224×224×3 image -->
    <g style="fill: #3d3d3d" transform="translate(225.95 889.883828) scale(0.11 -0.11)">
     <defs>
      <path id="Inconsolata-Regular-32" d="M 467 0 
L 467 358 
Q 896 800 1241 1142 
Q 1587 1485 1830 1769 
Q 2074 2054 2202 2323 
Q 2330 2592 2330 2886 
Q 2330 3302 2131 3462 
Q 1933 3622 1651 3622 
Q 1363 3622 1116 3465 
Q 870 3309 698 2982 
L 371 3238 
Q 563 3610 899 3811 
Q 1235 4013 1645 4013 
Q 2150 4013 2470 3709 
Q 2790 3405 2790 2874 
Q 2790 2541 2643 2240 
Q 2496 1939 2249 1644 
Q 2003 1350 1689 1043 
Q 1376 736 1043 390 
L 2810 390 
L 2810 0 
L 467 0 
z
" transform="scale(0.015625)"/>
      <path id="Inconsolata-Regular-34" d="M 2035 0 
L 2035 979 
L 307 979 
L 307 1306 
L 2131 3994 
L 2509 3994 
L 2509 1350 
L 3021 1350 
L 3021 973 
L 2509 973 
L 2509 0 
L 2035 0 
z
M 826 1357 
L 2035 1357 
L 2035 3187 
L 826 1357 
z
" transform="scale(0.015625)"/>
      <path id="Inconsolata-Regular-d7" d="M 2438 928 
L 1626 1779 
L 826 954 
L 544 1235 
L 1350 2074 
L 544 2925 
L 845 3219 
L 1638 2381 
L 2445 3219 
L 2752 2938 
L 1920 2080 
L 2733 1222 
L 2438 928 
z
" transform="scale(0.015625)"/>
      <path id="Inconsolata-Regular-33" d="M 1536 -70 
Q 1222 -70 934 45 
Q 646 160 442 384 
L 742 742 
Q 883 563 1052 438 
Q 1222 314 1517 314 
Q 1901 314 2086 538 
Q 2272 762 2272 1114 
Q 2272 1568 1968 1757 
Q 1664 1946 1152 1894 
L 1152 2253 
Q 1568 2253 1779 2361 
Q 1990 2470 2064 2652 
Q 2138 2835 2138 3040 
Q 2138 3315 1981 3472 
Q 1824 3629 1568 3629 
Q 1376 3629 1193 3565 
Q 1011 3501 838 3334 
L 570 3603 
Q 787 3827 1046 3920 
Q 1306 4013 1562 4013 
Q 2048 4013 2323 3737 
Q 2598 3462 2598 3021 
Q 2598 2707 2444 2460 
Q 2291 2214 1971 2112 
Q 2310 2003 2521 1753 
Q 2733 1504 2733 1094 
Q 2733 781 2595 515 
Q 2458 250 2192 90 
Q 1926 -70 1536 -70 
z
" transform="scale(0.015625)"/>
      <path id="Inconsolata-Regular-20" transform="scale(0.015625)"/>
      <path id="Inconsolata-Regular-69" d="M 640 0 
L 640 371 
L 1389 371 
L 1389 2554 
L 678 2554 
L 678 2925 
L 1850 2925 
L 1850 371 
L 2534 371 
L 2534 0 
L 640 0 
z
M 1594 3539 
Q 1459 3539 1363 3635 
Q 1267 3731 1267 3866 
Q 1267 4006 1360 4102 
Q 1453 4198 1594 4198 
Q 1728 4198 1827 4099 
Q 1926 4000 1926 3866 
Q 1926 3731 1827 3635 
Q 1728 3539 1594 3539 
z
" transform="scale(0.015625)"/>
      <path id="Inconsolata-Regular-6d" d="M 243 0 
L 243 2925 
L 666 2925 
L 666 2637 
Q 768 2797 928 2896 
Q 1088 2995 1261 2995 
Q 1453 2995 1597 2873 
Q 1741 2752 1779 2566 
Q 1862 2758 2041 2876 
Q 2221 2995 2438 2995 
Q 2739 2995 2876 2780 
Q 3014 2566 3002 2246 
L 3002 0 
L 2579 0 
L 2579 2074 
Q 2579 2342 2544 2464 
Q 2509 2586 2445 2621 
Q 2381 2656 2304 2656 
Q 2182 2656 2076 2544 
Q 1971 2432 1904 2265 
Q 1837 2099 1837 1933 
L 1837 0 
L 1408 0 
L 1408 2035 
Q 1408 2400 1341 2521 
Q 1274 2643 1088 2643 
Q 947 2643 806 2460 
Q 666 2278 666 1952 
L 666 0 
L 243 0 
z
" transform="scale(0.015625)"/>
      <path id="Inconsolata-Regular-61" d="M 1350 -70 
Q 851 -70 582 157 
Q 314 384 314 736 
Q 314 1050 512 1277 
Q 710 1504 1046 1629 
Q 1382 1754 1786 1754 
Q 1933 1754 2096 1747 
Q 2259 1741 2445 1715 
Q 2406 2227 2179 2419 
Q 1952 2611 1530 2611 
Q 1318 2611 1113 2531 
Q 909 2451 742 2285 
L 518 2579 
Q 723 2784 992 2886 
Q 1261 2989 1562 2989 
Q 1952 2989 2240 2861 
Q 2528 2733 2688 2419 
Q 2848 2106 2848 1555 
L 2848 0 
L 2349 0 
L 2349 448 
Q 2240 237 2070 125 
Q 1901 13 1712 -28 
Q 1523 -70 1350 -70 
z
M 774 762 
Q 774 486 953 384 
Q 1133 282 1395 282 
Q 1869 282 2144 560 
Q 2419 838 2445 1363 
Q 2112 1408 1824 1408 
Q 1363 1408 1068 1254 
Q 774 1101 774 762 
z
" transform="scale(0.015625)"/>
      <path id="Inconsolata-Regular-67" d="M 1446 992 
Q 1197 992 992 1082 
Q 877 941 877 813 
Q 877 659 1069 592 
Q 1261 525 1773 525 
Q 2221 525 2451 429 
Q 2682 333 2765 166 
Q 2848 0 2848 -218 
Q 2848 -442 2726 -646 
Q 2605 -851 2326 -976 
Q 2048 -1101 1581 -1101 
Q 966 -1101 604 -912 
Q 243 -723 243 -346 
Q 243 -109 377 60 
Q 512 230 698 314 
Q 486 454 486 704 
Q 486 845 556 979 
Q 627 1114 749 1242 
Q 422 1530 422 2016 
Q 422 2298 547 2528 
Q 672 2758 902 2896 
Q 1133 3034 1446 3034 
Q 1683 3034 1872 2954 
Q 2061 2874 2195 2733 
Q 2362 2886 2547 2953 
Q 2733 3021 2982 3002 
L 3040 2624 
Q 2848 2643 2678 2617 
Q 2509 2592 2362 2496 
Q 2470 2278 2470 2016 
Q 2470 1734 2345 1500 
Q 2221 1267 1993 1129 
Q 1766 992 1446 992 
z
M 1446 1376 
Q 1728 1376 1907 1565 
Q 2086 1754 2086 2016 
Q 2086 2278 1907 2467 
Q 1728 2656 1446 2656 
Q 1171 2656 988 2467 
Q 806 2278 806 2016 
Q 806 1754 988 1565 
Q 1171 1376 1446 1376 
z
M 666 -294 
Q 666 -512 912 -633 
Q 1158 -755 1587 -755 
Q 2022 -755 2224 -624 
Q 2426 -493 2426 -288 
Q 2426 -147 2374 -57 
Q 2323 32 2163 77 
Q 2003 122 1677 122 
Q 1453 122 1270 141 
Q 1088 160 941 205 
Q 794 102 730 -3 
Q 666 -109 666 -294 
z
" transform="scale(0.015625)"/>
      <path id="Inconsolata-Regular-65" d="M 1741 -64 
Q 1101 -64 707 326 
Q 314 717 314 1453 
Q 314 1952 496 2294 
Q 678 2637 982 2816 
Q 1286 2995 1658 2995 
Q 1990 2995 2259 2848 
Q 2528 2701 2688 2393 
Q 2848 2086 2848 1606 
Q 2848 1555 2845 1500 
Q 2842 1446 2835 1395 
L 755 1395 
Q 781 832 1072 569 
Q 1363 307 1754 307 
Q 2214 307 2509 634 
L 2765 384 
Q 2394 -64 1741 -64 
z
M 774 1754 
L 2381 1754 
Q 2381 2163 2173 2403 
Q 1965 2643 1626 2643 
Q 1325 2643 1081 2428 
Q 838 2214 774 1754 
z
" transform="scale(0.015625)"/>
     </defs>
     <use xlink:href="#Inconsolata-Regular-32"/>
     <use xlink:href="#Inconsolata-Regular-32" transform="translate(49.999985 0)"/>
     <use xlink:href="#Inconsolata-Regular-34" transform="translate(99.999969 0)"/>
     <use xlink:href="#Inconsolata-Regular-d7" transform="translate(149.999954 0)"/>
     <use xlink:href="#Inconsolata-Regular-32" transform="translate(199.999939 0)"/>
     <use xlink:href="#Inconsolata-Regular-32" transform="translate(249.999924 0)"/>
     <use xlink:href="#Inconsolata-Regular-34" transform="translate(299.999908 0)"/>
     <use xlink:href="#Inconsolata-Regular-d7" transform="translate(349.999893 0)"/>
     <use xlink:href="#Inconsolata-Regular-33" transform="translate(399.999878 0)"/>
     <use xlink:href="#Inconsolata-Regular-20" transform="translate(449.999863 0)"/>
     <use xlink:href="#Inconsolata-Regular-69" transform="translate(499.999847 0)"/>
     <use xlink:href="#Inconsolata-Regular-6d" transform="translate(549.999832 0)"/>
     <use xlink:href="#Inconsolata-Regular-61" transform="translate(599.999817 0)"/>
     <use xlink:href="#Inconsolata-Regular-67" transform="translate(649.999802 0)"/>
     <use xlink:href="#Inconsolata-Regular-65" transform="translate(699.999786 0)"/>
    </g>
   </g>
   <g id="text_28">
    <!-- (96, 56×56) -->
    <g style="fill: #6e6e6e" transform="translate(371.2 751.735156) scale(0.1 -0.1)">
     <defs>
      <path id="SourceSans3-It-28" d="M 794 -1139 
Q 634 -749 525 -233 
Q 416 282 416 826 
Q 416 2010 806 3005 
Q 1197 4000 1907 4678 
L 2195 4499 
Q 1747 4058 1440 3462 
Q 1133 2867 979 2188 
Q 826 1510 826 813 
Q 826 320 899 -163 
Q 973 -646 1114 -1011 
L 794 -1139 
z
" transform="scale(0.015625)"/>
      <path id="SourceSans3-It-39" d="M 902 2746 
Q 902 2394 1068 2186 
Q 1235 1978 1555 1978 
Q 1709 1978 1965 2086 
Q 2221 2195 2445 2496 
Q 2451 2566 2451 2640 
Q 2451 2714 2451 2790 
Q 2451 3232 2262 3504 
Q 2074 3776 1754 3776 
Q 1517 3776 1325 3625 
Q 1133 3475 1017 3238 
Q 902 3002 902 2746 
z
M 1005 -77 
Q 672 -77 451 76 
Q 230 230 102 442 
L 435 704 
Q 640 333 1037 333 
Q 1357 333 1632 547 
Q 1907 762 2108 1155 
Q 2310 1549 2394 2074 
Q 2182 1837 1916 1725 
Q 1651 1613 1440 1613 
Q 992 1613 720 1894 
Q 448 2176 448 2675 
Q 448 3078 624 3414 
Q 800 3750 1101 3955 
Q 1402 4160 1779 4160 
Q 2131 4160 2384 3984 
Q 2637 3808 2774 3494 
Q 2912 3181 2912 2778 
Q 2912 2157 2768 1632 
Q 2624 1107 2368 726 
Q 2112 346 1763 134 
Q 1414 -77 1005 -77 
z
" transform="scale(0.015625)"/>
      <path id="SourceSans3-It-36" d="M 787 1293 
Q 787 851 976 579 
Q 1165 307 1485 307 
Q 1728 307 1920 457 
Q 2112 608 2224 845 
Q 2336 1082 2336 1338 
Q 2336 1690 2173 1898 
Q 2010 2106 1690 2106 
Q 1530 2106 1277 1997 
Q 1024 1888 800 1587 
Q 794 1517 790 1443 
Q 787 1370 787 1293 
z
M 1459 -77 
Q 1114 -77 858 102 
Q 602 282 464 592 
Q 326 902 326 1306 
Q 326 1894 476 2409 
Q 627 2925 892 3318 
Q 1158 3712 1513 3936 
Q 1869 4160 2278 4160 
Q 2592 4160 2797 4013 
Q 3002 3866 3123 3642 
L 2822 3392 
Q 2720 3558 2582 3654 
Q 2445 3750 2246 3750 
Q 1933 3750 1651 3523 
Q 1370 3296 1162 2905 
Q 954 2515 858 2010 
Q 1062 2240 1328 2355 
Q 1594 2470 1798 2470 
Q 2253 2470 2525 2188 
Q 2797 1907 2797 1408 
Q 2797 1011 2621 672 
Q 2445 333 2141 128 
Q 1837 -77 1459 -77 
z
" transform="scale(0.015625)"/>
      <path id="SourceSans3-It-2c" d="M -128 -1050 
L -198 -755 
Q 102 -640 284 -448 
Q 467 -256 512 -26 
L 499 -26 
Q 358 -26 262 57 
Q 166 141 166 282 
Q 166 442 278 566 
Q 390 691 576 691 
Q 742 691 832 576 
Q 922 461 922 269 
Q 922 -198 634 -556 
Q 346 -915 -128 -1050 
z
" transform="scale(0.015625)"/>
      <path id="SourceSans3-It-20" transform="scale(0.015625)"/>
      <path id="SourceSans3-It-35" d="M 1203 -77 
Q 787 -77 486 124 
Q 186 326 0 614 
L 320 877 
Q 461 666 669 499 
Q 877 333 1235 333 
Q 1504 333 1734 467 
Q 1965 602 2105 848 
Q 2246 1094 2246 1421 
Q 2246 1818 2044 2010 
Q 1843 2202 1510 2202 
Q 1312 2202 1171 2150 
Q 1030 2099 826 1990 
L 614 2157 
L 1126 4083 
L 3040 4083 
L 2957 3661 
L 1466 3661 
L 1133 2458 
Q 1242 2509 1376 2547 
Q 1510 2586 1670 2586 
Q 2131 2586 2435 2314 
Q 2739 2042 2739 1510 
Q 2739 1024 2524 669 
Q 2310 314 1958 118 
Q 1606 -77 1203 -77 
z
" transform="scale(0.015625)"/>
      <path id="SourceSans3-It-d7" d="M 672 864 
L 416 1126 
L 1363 2118 
L 416 3110 
L 672 3366 
L 1619 2374 
L 2566 3366 
L 2829 3110 
L 1875 2118 
L 2829 1126 
L 2566 864 
L 1619 1862 
L 672 864 
z
" transform="scale(0.015625)"/>
      <path id="SourceSans3-It-29" d="M 6 -1139 
L -282 -954 
Q 173 -506 473 86 
Q 774 678 928 1356 
Q 1082 2035 1082 2733 
Q 1082 3226 1011 3709 
Q 941 4192 800 4557 
L 1120 4678 
Q 1286 4294 1392 3782 
Q 1498 3270 1498 2720 
Q 1498 1536 1104 541 
Q 710 -454 6 -1139 
z
" transform="scale(0.015625)"/>
     </defs>
     <use xlink:href="#SourceSans3-It-28"/>
     <use xlink:href="#SourceSans3-It-39" transform="translate(29.099991 0)"/>
     <use xlink:href="#SourceSans3-It-36" transform="translate(77.099976 0)"/>
     <use xlink:href="#SourceSans3-It-2c" transform="translate(125.09996 0)"/>
     <use xlink:href="#SourceSans3-It-20" transform="translate(149.299957 0)"/>
     <use xlink:href="#SourceSans3-It-35" transform="translate(169.299942 0)"/>
     <use xlink:href="#SourceSans3-It-36" transform="translate(217.299927 0)"/>
     <use xlink:href="#SourceSans3-It-d7" transform="translate(265.299911 0)"/>
     <use xlink:href="#SourceSans3-It-35" transform="translate(313.299896 0)"/>
     <use xlink:href="#SourceSans3-It-36" transform="translate(361.299881 0)"/>
     <use xlink:href="#SourceSans3-It-29" transform="translate(409.299866 0)"/>
    </g>
   </g>
   <g id="text_29">
    <!-- (192, 28×28) -->
    <g style="fill: #6e6e6e" transform="translate(371.2 607.735156) scale(0.1 -0.1)">
     <defs>
      <path id="SourceSans3-It-31" d="M 166 0 
L 250 410 
L 1139 410 
L 1754 3469 
L 1030 3469 
L 1094 3789 
Q 1638 3866 1990 4083 
L 2368 4083 
L 1626 410 
L 2458 410 
L 2381 0 
L 166 0 
z
" transform="scale(0.015625)"/>
      <path id="SourceSans3-It-32" d="M -64 0 
L -13 307 
Q 602 819 1056 1209 
Q 1510 1600 1811 1917 
Q 2112 2234 2262 2515 
Q 2413 2797 2413 3091 
Q 2413 3373 2249 3565 
Q 2086 3757 1747 3757 
Q 1542 3757 1337 3651 
Q 1133 3546 909 3347 
L 672 3635 
Q 954 3898 1226 4029 
Q 1498 4160 1805 4160 
Q 2330 4160 2611 3875 
Q 2893 3590 2893 3155 
Q 2893 2816 2752 2509 
Q 2611 2202 2332 1885 
Q 2054 1568 1644 1203 
Q 1235 838 704 384 
Q 870 397 1052 409 
Q 1235 422 1395 422 
L 2541 422 
L 2464 0 
L -64 0 
z
" transform="scale(0.015625)"/>
      <path id="SourceSans3-It-38" d="M 1370 -77 
Q 1088 -77 822 38 
Q 557 154 384 394 
Q 211 634 211 992 
Q 211 1299 352 1529 
Q 493 1760 717 1929 
Q 941 2099 1197 2208 
L 1197 2234 
Q 1011 2426 915 2621 
Q 819 2816 819 3078 
Q 819 3418 985 3661 
Q 1152 3904 1430 4032 
Q 1709 4160 2035 4160 
Q 2291 4160 2518 4057 
Q 2746 3955 2890 3744 
Q 3034 3533 3034 3206 
Q 3034 2803 2800 2531 
Q 2566 2259 2208 2067 
L 2208 2042 
Q 2336 1958 2467 1817 
Q 2598 1677 2684 1491 
Q 2771 1306 2771 1075 
Q 2771 717 2579 457 
Q 2387 198 2067 60 
Q 1747 -77 1370 -77 
z
M 1952 2221 
Q 2195 2368 2396 2592 
Q 2598 2816 2598 3130 
Q 2598 3450 2419 3619 
Q 2240 3789 1997 3789 
Q 1709 3789 1485 3609 
Q 1261 3430 1261 3110 
Q 1261 2784 1440 2585 
Q 1619 2387 1952 2221 
z
M 1421 288 
Q 1645 288 1849 374 
Q 2054 461 2185 630 
Q 2317 800 2317 1043 
Q 2317 1286 2195 1456 
Q 2074 1626 1872 1763 
Q 1670 1901 1427 2035 
Q 1094 1856 876 1625 
Q 659 1395 659 1050 
Q 659 685 889 486 
Q 1120 288 1421 288 
z
" transform="scale(0.015625)"/>
     </defs>
     <use xlink:href="#SourceSans3-It-28"/>
     <use xlink:href="#SourceSans3-It-31" transform="translate(29.099991 0)"/>
     <use xlink:href="#SourceSans3-It-39" transform="translate(77.099976 0)"/>
     <use xlink:href="#SourceSans3-It-32" transform="translate(125.09996 0)"/>
     <use xlink:href="#SourceSans3-It-2c" transform="translate(173.099945 0)"/>
     <use xlink:href="#SourceSans3-It-20" transform="translate(197.299942 0)"/>
     <use xlink:href="#SourceSans3-It-32" transform="translate(217.299927 0)"/>
     <use xlink:href="#SourceSans3-It-38" transform="translate(265.299911 0)"/>
     <use xlink:href="#SourceSans3-It-d7" transform="translate(313.299896 0)"/>
     <use xlink:href="#SourceSans3-It-32" transform="translate(361.299881 0)"/>
     <use xlink:href="#SourceSans3-It-38" transform="translate(409.299866 0)"/>
     <use xlink:href="#SourceSans3-It-29" transform="translate(457.29985 0)"/>
    </g>
   </g>
   <g id="text_30">
    <!-- (384, 14×14) -->
    <g style="fill: #6e6e6e" transform="translate(371.2 463.735156) scale(0.1 -0.1)">
     <defs>
      <path id="SourceSans3-It-33" d="M 1197 -77 
Q 781 -77 457 131 
Q 134 339 -58 627 
L 269 883 
Q 416 666 653 499 
Q 890 333 1203 333 
Q 1638 333 1916 573 
Q 2195 813 2195 1178 
Q 2195 1504 1926 1715 
Q 1658 1926 1011 1926 
L 1088 2298 
Q 1594 2298 1885 2429 
Q 2176 2560 2301 2755 
Q 2426 2950 2426 3142 
Q 2426 3411 2266 3584 
Q 2106 3757 1779 3757 
Q 1594 3757 1379 3667 
Q 1165 3578 979 3430 
L 730 3757 
Q 1261 4160 1856 4160 
Q 2368 4160 2646 3904 
Q 2925 3648 2925 3226 
Q 2925 2835 2685 2540 
Q 2445 2246 1971 2112 
L 1971 2086 
Q 2310 1978 2499 1747 
Q 2688 1517 2688 1197 
Q 2688 806 2493 521 
Q 2298 237 1962 80 
Q 1626 -77 1197 -77 
z
" transform="scale(0.015625)"/>
      <path id="SourceSans3-It-34" d="M 2118 0 
L 1658 0 
L 1882 1126 
L 96 1126 
L 154 1459 
L 2394 4083 
L 2931 4083 
L 2419 1523 
L 2950 1523 
L 2874 1126 
L 2342 1126 
L 2118 0 
z
M 698 1523 
L 1958 1523 
L 2202 2733 
Q 2240 2918 2297 3126 
Q 2355 3334 2400 3546 
L 2374 3546 
Q 2246 3366 2118 3200 
Q 1990 3034 1862 2880 
L 698 1523 
z
" transform="scale(0.015625)"/>
     </defs>
     <use xlink:href="#SourceSans3-It-28"/>
     <use xlink:href="#SourceSans3-It-33" transform="translate(29.099991 0)"/>
     <use xlink:href="#SourceSans3-It-38" transform="translate(77.099976 0)"/>
     <use xlink:href="#SourceSans3-It-34" transform="translate(125.09996 0)"/>
     <use xlink:href="#SourceSans3-It-2c" transform="translate(173.099945 0)"/>
     <use xlink:href="#SourceSans3-It-20" transform="translate(197.299942 0)"/>
     <use xlink:href="#SourceSans3-It-31" transform="translate(217.299927 0)"/>
     <use xlink:href="#SourceSans3-It-34" transform="translate(265.299911 0)"/>
     <use xlink:href="#SourceSans3-It-d7" transform="translate(313.299896 0)"/>
     <use xlink:href="#SourceSans3-It-31" transform="translate(361.299881 0)"/>
     <use xlink:href="#SourceSans3-It-34" transform="translate(409.299866 0)"/>
     <use xlink:href="#SourceSans3-It-29" transform="translate(457.29985 0)"/>
    </g>
   </g>
   <g id="text_31">
    <!-- (768, 7×7) -->
    <g style="fill: #6e6e6e" transform="translate(371.2 319.735156) scale(0.1 -0.1)">
     <defs>
      <path id="SourceSans3-It-37" d="M 768 0 
Q 954 717 1194 1337 
Q 1434 1958 1786 2528 
Q 2138 3098 2656 3661 
L 672 3661 
L 762 4083 
L 3309 4083 
L 3245 3763 
Q 2611 3123 2233 2505 
Q 1856 1888 1641 1267 
Q 1427 646 1280 0 
L 768 0 
z
" transform="scale(0.015625)"/>
     </defs>
     <use xlink:href="#SourceSans3-It-28"/>
     <use xlink:href="#SourceSans3-It-37" transform="translate(29.099991 0)"/>
     <use xlink:href="#SourceSans3-It-36" transform="translate(77.099976 0)"/>
     <use xlink:href="#SourceSans3-It-38" transform="translate(125.09996 0)"/>
     <use xlink:href="#SourceSans3-It-2c" transform="translate(173.099945 0)"/>
     <use xlink:href="#SourceSans3-It-20" transform="translate(197.299942 0)"/>
     <use xlink:href="#SourceSans3-It-37" transform="translate(217.299927 0)"/>
     <use xlink:href="#SourceSans3-It-d7" transform="translate(265.299911 0)"/>
     <use xlink:href="#SourceSans3-It-37" transform="translate(313.299896 0)"/>
     <use xlink:href="#SourceSans3-It-29" transform="translate(361.299881 0)"/>
    </g>
   </g>
   <g id="text_32">
    <!-- Stage ratio  -->
    <g transform="translate(594.587529 412.587695) scale(0.125 -0.125)">
     <defs>
      <path id="SourceSans3-Bold-53" d="M 1766 -77 
Q 1344 -77 944 70 
Q 544 218 224 531 
L 723 1146 
Q 947 947 1232 841 
Q 1517 736 1792 736 
Q 2086 736 2230 845 
Q 2374 954 2374 1139 
Q 2374 1338 2211 1430 
Q 2048 1523 1773 1638 
L 1229 1862 
Q 1018 1952 826 2105 
Q 634 2259 512 2483 
Q 390 2707 390 3008 
Q 390 3354 579 3635 
Q 768 3917 1104 4083 
Q 1440 4250 1875 4250 
Q 2253 4250 2601 4112 
Q 2950 3974 3219 3725 
L 2720 3117 
Q 2515 3264 2300 3350 
Q 2086 3437 1875 3437 
Q 1632 3437 1488 3337 
Q 1344 3238 1344 3059 
Q 1344 2867 1526 2771 
Q 1709 2675 1978 2566 
L 2515 2349 
Q 2899 2195 3120 1926 
Q 3341 1658 3341 1216 
Q 3341 870 3155 576 
Q 2970 282 2618 102 
Q 2266 -77 1766 -77 
z
" transform="scale(0.015625)"/>
      <path id="SourceSans3-Bold-67" d="M 1549 -1350 
Q 1178 -1350 877 -1267 
Q 576 -1184 397 -1005 
Q 218 -826 218 -544 
Q 218 -160 672 96 
L 672 122 
Q 550 205 464 333 
Q 378 461 378 659 
Q 378 832 480 992 
Q 582 1152 736 1254 
L 736 1280 
Q 570 1395 438 1612 
Q 307 1830 307 2106 
Q 307 2490 492 2742 
Q 678 2995 979 3123 
Q 1280 3251 1619 3251 
Q 1901 3251 2112 3174 
L 3270 3174 
L 3270 2490 
L 2739 2490 
L 2739 2464 
Q 2867 2298 2867 2061 
Q 2867 1702 2700 1468 
Q 2534 1235 2252 1120 
Q 1971 1005 1619 1005 
Q 1434 1005 1235 1069 
Q 1120 973 1120 832 
Q 1120 710 1229 652 
Q 1338 595 1600 595 
L 2112 595 
Q 2701 595 3011 406 
Q 3322 218 3322 -211 
Q 3322 -538 3104 -797 
Q 2886 -1056 2489 -1203 
Q 2093 -1350 1549 -1350 
z
M 1619 1574 
Q 1805 1574 1929 1708 
Q 2054 1843 2054 2106 
Q 2054 2362 1929 2490 
Q 1805 2618 1619 2618 
Q 1434 2618 1309 2490 
Q 1184 2362 1184 2106 
Q 1184 1843 1309 1708 
Q 1434 1574 1619 1574 
z
M 1696 -762 
Q 2016 -762 2221 -646 
Q 2426 -531 2426 -371 
Q 2426 -224 2301 -173 
Q 2176 -122 1939 -122 
L 1613 -122 
Q 1453 -122 1347 -112 
Q 1242 -102 1165 -83 
Q 992 -237 992 -397 
Q 992 -576 1187 -669 
Q 1382 -762 1696 -762 
z
" transform="scale(0.015625)"/>
      <path id="SourceSans3-Bold-65" d="M 1747 2528 
Q 1562 2528 1386 2403 
Q 1210 2278 1146 1952 
L 2272 1952 
Q 2272 2202 2150 2365 
Q 2029 2528 1747 2528 
z
M 1837 -77 
Q 1382 -77 1017 118 
Q 653 314 441 688 
Q 230 1062 230 1587 
Q 230 2106 444 2477 
Q 659 2848 1004 3049 
Q 1350 3251 1728 3251 
Q 2182 3251 2483 3049 
Q 2784 2848 2931 2505 
Q 3078 2163 3078 1728 
Q 3078 1606 3065 1488 
Q 3053 1370 3040 1299 
L 1146 1299 
Q 1222 928 1459 787 
Q 1696 646 1965 646 
Q 2317 646 2656 851 
L 2963 275 
Q 2726 109 2422 16 
Q 2118 -77 1837 -77 
z
" transform="scale(0.015625)"/>
      <path id="SourceSans3-Bold-72" d="M 416 0 
L 416 3174 
L 1184 3174 
L 1248 2618 
L 1274 2618 
Q 1446 2938 1689 3094 
Q 1933 3251 2176 3251 
Q 2310 3251 2400 3235 
Q 2490 3219 2554 3187 
L 2374 2387 
Q 2291 2406 2224 2416 
Q 2157 2426 2054 2426 
Q 1875 2426 1680 2294 
Q 1485 2163 1357 1843 
L 1357 0 
L 416 0 
z
" transform="scale(0.015625)"/>
      <path id="SourceSans3-Bold-6f" d="M 1779 -77 
Q 1376 -77 1021 118 
Q 666 314 448 688 
Q 230 1062 230 1587 
Q 230 2118 448 2489 
Q 666 2861 1021 3056 
Q 1376 3251 1779 3251 
Q 2182 3251 2534 3056 
Q 2886 2861 3104 2489 
Q 3322 2118 3322 1587 
Q 3322 1062 3104 688 
Q 2886 314 2534 118 
Q 2182 -77 1779 -77 
z
M 1779 685 
Q 2067 685 2214 931 
Q 2362 1178 2362 1587 
Q 2362 2003 2214 2246 
Q 2067 2490 1779 2490 
Q 1485 2490 1341 2246 
Q 1197 2003 1197 1587 
Q 1197 1178 1341 931 
Q 1485 685 1779 685 
z
" transform="scale(0.015625)"/>
     </defs>
     <use xlink:href="#SourceSans3-Bold-53"/>
     <use xlink:href="#SourceSans3-Bold-74" transform="translate(55.599991 0)"/>
     <use xlink:href="#SourceSans3-Bold-61" transform="translate(93.899979 0)"/>
     <use xlink:href="#SourceSans3-Bold-67" transform="translate(146.599976 0)"/>
     <use xlink:href="#SourceSans3-Bold-65" transform="translate(199.999969 0)"/>
     <use xlink:href="#SourceSans3-Bold-20" transform="translate(251.799957 0)"/>
     <use xlink:href="#SourceSans3-Bold-72" transform="translate(271.799942 0)"/>
     <use xlink:href="#SourceSans3-Bold-61" transform="translate(311.59993 0)"/>
     <use xlink:href="#SourceSans3-Bold-74" transform="translate(364.299927 0)"/>
     <use xlink:href="#SourceSans3-Bold-69" transform="translate(402.599915 0)"/>
     <use xlink:href="#SourceSans3-Bold-6f" transform="translate(430.199905 0)"/>
     <use xlink:href="#SourceSans3-Bold-20" transform="translate(485.69989 0)"/>
    </g>
   </g>
   <g id="text_33">
    <!-- 3:3:9:3 -->
    <g style="fill: #0b6bb2" transform="translate(657.800014 412.617969) scale(0.125 -0.125)">
     <defs>
      <path id="SourceSans3-Bold-3a" d="M 960 1971 
Q 717 1971 553 2140 
Q 390 2310 390 2560 
Q 390 2816 553 2985 
Q 717 3155 960 3155 
Q 1203 3155 1366 2985 
Q 1530 2816 1530 2560 
Q 1530 2310 1366 2140 
Q 1203 1971 960 1971 
z
M 960 -77 
Q 717 -77 553 92 
Q 390 262 390 512 
Q 390 768 553 937 
Q 717 1107 960 1107 
Q 1203 1107 1366 937 
Q 1530 768 1530 512 
Q 1530 262 1366 92 
Q 1203 -77 960 -77 
z
" transform="scale(0.015625)"/>
     </defs>
     <use xlink:href="#SourceSans3-Bold-33"/>
     <use xlink:href="#SourceSans3-Bold-3a" transform="translate(52.799988 0)"/>
     <use xlink:href="#SourceSans3-Bold-33" transform="translate(82.799973 0)"/>
     <use xlink:href="#SourceSans3-Bold-3a" transform="translate(135.59996 0)"/>
     <use xlink:href="#SourceSans3-Bold-39" transform="translate(165.599945 0)"/>
     <use xlink:href="#SourceSans3-Bold-3a" transform="translate(218.399933 0)"/>
     <use xlink:href="#SourceSans3-Bold-33" transform="translate(248.399918 0)"/>
    </g>
   </g>
   <g id="text_34">
    <!-- : -->
    <g transform="translate(695.450002 412.617969) scale(0.125 -0.125)">
     <use xlink:href="#SourceSans3-Bold-3a"/>
    </g>
   </g>
   <g id="text_35">
    <!-- deepest where maps are small -->
    <g transform="translate(532.337541 428.242969) scale(0.125 -0.125)">
     <defs>
      <path id="SourceSans3-Bold-64" d="M 1549 -77 
Q 960 -77 605 368 
Q 250 813 250 1587 
Q 250 2106 438 2480 
Q 627 2854 931 3052 
Q 1235 3251 1568 3251 
Q 1830 3251 2009 3161 
Q 2189 3072 2349 2918 
L 2310 3405 
L 2310 4486 
L 3251 4486 
L 3251 0 
L 2483 0 
L 2419 314 
L 2394 314 
Q 2227 147 2003 35 
Q 1779 -77 1549 -77 
z
M 1792 691 
Q 1946 691 2070 755 
Q 2195 819 2310 979 
L 2310 2278 
Q 2189 2394 2051 2438 
Q 1914 2483 1786 2483 
Q 1562 2483 1389 2268 
Q 1216 2054 1216 1600 
Q 1216 1133 1366 912 
Q 1517 691 1792 691 
z
" transform="scale(0.015625)"/>
      <path id="SourceSans3-Bold-70" d="M 416 -1178 
L 416 3174 
L 1184 3174 
L 1248 2861 
L 1274 2861 
Q 1459 3027 1692 3139 
Q 1926 3251 2176 3251 
Q 2752 3251 3085 2812 
Q 3418 2374 3418 1638 
Q 3418 1094 3226 710 
Q 3034 326 2730 124 
Q 2426 -77 2080 -77 
Q 1875 -77 1683 9 
Q 1491 96 1325 256 
L 1357 -250 
L 1357 -1178 
L 416 -1178 
z
M 1862 691 
Q 2106 691 2278 915 
Q 2451 1139 2451 1626 
Q 2451 2483 1901 2483 
Q 1626 2483 1357 2195 
L 1357 896 
Q 1485 781 1613 736 
Q 1741 691 1862 691 
z
" transform="scale(0.015625)"/>
      <path id="SourceSans3-Bold-73" d="M 1350 -77 
Q 1037 -77 707 44 
Q 378 166 134 397 
L 531 928 
Q 749 755 963 688 
Q 1178 621 1376 621 
Q 1587 621 1683 694 
Q 1779 768 1779 890 
Q 1779 1050 1596 1133 
Q 1414 1216 1158 1312 
Q 934 1395 739 1523 
Q 544 1651 425 1833 
Q 307 2016 307 2259 
Q 307 2701 643 2976 
Q 979 3251 1523 3251 
Q 1869 3251 2157 3139 
Q 2445 3027 2643 2848 
L 2240 2323 
Q 2067 2451 1894 2502 
Q 1722 2554 1555 2554 
Q 1370 2554 1280 2483 
Q 1190 2413 1190 2304 
Q 1190 2163 1334 2086 
Q 1478 2010 1779 1914 
Q 2144 1792 2400 1568 
Q 2656 1344 2656 947 
Q 2656 518 2323 220 
Q 1990 -77 1350 -77 
z
" transform="scale(0.015625)"/>
      <path id="SourceSans3-Bold-77" d="M 947 0 
L 154 3174 
L 1094 3174 
L 1395 1702 
Q 1440 1478 1472 1244 
Q 1504 1011 1536 749 
L 1562 749 
Q 1606 1011 1648 1248 
Q 1690 1485 1741 1702 
L 2074 3174 
L 2931 3174 
L 3283 1702 
Q 3334 1478 3379 1244 
Q 3424 1011 3469 749 
L 3494 749 
Q 3539 1011 3564 1244 
Q 3590 1478 3635 1702 
L 3936 3174 
L 4813 3174 
L 4051 0 
L 2918 0 
L 2650 1267 
Q 2605 1485 2566 1705 
Q 2528 1926 2490 2214 
L 2464 2214 
Q 2438 1926 2400 1705 
Q 2362 1485 2317 1267 
L 2054 0 
L 947 0 
z
" transform="scale(0.015625)"/>
      <path id="SourceSans3-Bold-6d" d="M 416 0 
L 416 3174 
L 1184 3174 
L 1248 2765 
L 1274 2765 
Q 1472 2963 1696 3107 
Q 1920 3251 2234 3251 
Q 2573 3251 2781 3113 
Q 2989 2976 3110 2720 
Q 3322 2938 3558 3094 
Q 3795 3251 4109 3251 
Q 4621 3251 4861 2908 
Q 5101 2566 5101 1971 
L 5101 0 
L 4160 0 
L 4160 1850 
Q 4160 2195 4067 2323 
Q 3974 2451 3770 2451 
Q 3533 2451 3226 2144 
L 3226 0 
L 2285 0 
L 2285 1850 
Q 2285 2195 2192 2323 
Q 2099 2451 1894 2451 
Q 1658 2451 1357 2144 
L 1357 0 
L 416 0 
z
" transform="scale(0.015625)"/>
      <path id="SourceSans3-Bold-6c" d="M 1280 -70 
Q 794 -70 605 218 
Q 416 506 416 992 
L 416 4486 
L 1357 4486 
L 1357 954 
Q 1357 800 1411 742 
Q 1466 685 1530 685 
Q 1555 685 1577 688 
Q 1600 691 1638 698 
L 1754 6 
Q 1677 -26 1558 -48 
Q 1440 -70 1280 -70 
z
" transform="scale(0.015625)"/>
     </defs>
     <use xlink:href="#SourceSans3-Bold-64"/>
     <use xlink:href="#SourceSans3-Bold-65" transform="translate(57.299988 0)"/>
     <use xlink:href="#SourceSans3-Bold-65" transform="translate(109.099976 0)"/>
     <use xlink:href="#SourceSans3-Bold-70" transform="translate(160.899963 0)"/>
     <use xlink:href="#SourceSans3-Bold-65" transform="translate(218.199951 0)"/>
     <use xlink:href="#SourceSans3-Bold-73" transform="translate(269.999939 0)"/>
     <use xlink:href="#SourceSans3-Bold-74" transform="translate(314.299927 0)"/>
     <use xlink:href="#SourceSans3-Bold-20" transform="translate(352.599915 0)"/>
     <use xlink:href="#SourceSans3-Bold-77" transform="translate(372.599899 0)"/>
     <use xlink:href="#SourceSans3-Bold-68" transform="translate(450.19989 0)"/>
     <use xlink:href="#SourceSans3-Bold-65" transform="translate(507.299881 0)"/>
     <use xlink:href="#SourceSans3-Bold-72" transform="translate(559.099869 0)"/>
     <use xlink:href="#SourceSans3-Bold-65" transform="translate(598.899857 0)"/>
     <use xlink:href="#SourceSans3-Bold-20" transform="translate(650.699844 0)"/>
     <use xlink:href="#SourceSans3-Bold-6d" transform="translate(670.699829 0)"/>
     <use xlink:href="#SourceSans3-Bold-61" transform="translate(756.399811 0)"/>
     <use xlink:href="#SourceSans3-Bold-70" transform="translate(809.099808 0)"/>
     <use xlink:href="#SourceSans3-Bold-73" transform="translate(866.399796 0)"/>
     <use xlink:href="#SourceSans3-Bold-20" transform="translate(910.699783 0)"/>
     <use xlink:href="#SourceSans3-Bold-61" transform="translate(930.699768 0)"/>
     <use xlink:href="#SourceSans3-Bold-72" transform="translate(983.399765 0)"/>
     <use xlink:href="#SourceSans3-Bold-65" transform="translate(1023.199753 0)"/>
     <use xlink:href="#SourceSans3-Bold-20" transform="translate(1074.999741 0)"/>
     <use xlink:href="#SourceSans3-Bold-73" transform="translate(1094.999725 0)"/>
     <use xlink:href="#SourceSans3-Bold-6d" transform="translate(1139.299713 0)"/>
     <use xlink:href="#SourceSans3-Bold-61" transform="translate(1224.999695 0)"/>
     <use xlink:href="#SourceSans3-Bold-6c" transform="translate(1277.699692 0)"/>
     <use xlink:href="#SourceSans3-Bold-6c" transform="translate(1306.299683 0)"/>
    </g>
   </g>
   <g id="text_36">
    <!-- No pooling anywhere: -->
    <g transform="translate(578.300027 628.587695) scale(0.125 -0.125)">
     <defs>
      <path id="SourceSans3-Bold-4e" d="M 493 0 
L 493 4173 
L 1478 4173 
L 2547 2118 
Q 2656 1907 2758 1664 
Q 2861 1421 2957 1178 
L 2982 1178 
Q 2950 1517 2905 1920 
Q 2861 2323 2861 2694 
L 2861 4173 
L 3763 4173 
L 3763 0 
L 2778 0 
L 1709 2054 
Q 1600 2266 1494 2509 
Q 1389 2752 1293 2995 
L 1267 2995 
Q 1306 2650 1350 2250 
Q 1395 1850 1395 1478 
L 1395 0 
L 493 0 
z
" transform="scale(0.015625)"/>
      <path id="SourceSans3-Bold-6e" d="M 416 0 
L 416 3174 
L 1184 3174 
L 1248 2771 
L 1274 2771 
Q 1478 2963 1724 3107 
Q 1971 3251 2291 3251 
Q 2810 3251 3043 2908 
Q 3277 2566 3277 1971 
L 3277 0 
L 2336 0 
L 2336 1850 
Q 2336 2195 2243 2323 
Q 2150 2451 1946 2451 
Q 1766 2451 1638 2371 
Q 1510 2291 1357 2144 
L 1357 0 
L 416 0 
z
" transform="scale(0.015625)"/>
     </defs>
     <use xlink:href="#SourceSans3-Bold-4e"/>
     <use xlink:href="#SourceSans3-Bold-6f" transform="translate(66.499985 0)"/>
     <use xlink:href="#SourceSans3-Bold-20" transform="translate(121.999969 0)"/>
     <use xlink:href="#SourceSans3-Bold-70" transform="translate(141.999954 0)"/>
     <use xlink:href="#SourceSans3-Bold-6f" transform="translate(199.299942 0)"/>
     <use xlink:href="#SourceSans3-Bold-6f" transform="translate(254.799927 0)"/>
     <use xlink:href="#SourceSans3-Bold-6c" transform="translate(310.299911 0)"/>
     <use xlink:href="#SourceSans3-Bold-69" transform="translate(338.899902 0)"/>
     <use xlink:href="#SourceSans3-Bold-6e" transform="translate(366.499893 0)"/>
     <use xlink:href="#SourceSans3-Bold-67" transform="translate(423.69989 0)"/>
     <use xlink:href="#SourceSans3-Bold-20" transform="translate(477.099884 0)"/>
     <use xlink:href="#SourceSans3-Bold-61" transform="translate(497.099869 0)"/>
     <use xlink:href="#SourceSans3-Bold-6e" transform="translate(549.799866 0)"/>
     <use xlink:href="#SourceSans3-Bold-79" transform="translate(606.999863 0)"/>
     <use xlink:href="#SourceSans3-Bold-77" transform="translate(659.099854 0)"/>
     <use xlink:href="#SourceSans3-Bold-68" transform="translate(736.699844 0)"/>
     <use xlink:href="#SourceSans3-Bold-65" transform="translate(793.799835 0)"/>
     <use xlink:href="#SourceSans3-Bold-72" transform="translate(845.599823 0)"/>
     <use xlink:href="#SourceSans3-Bold-65" transform="translate(885.399811 0)"/>
     <use xlink:href="#SourceSans3-Bold-3a" transform="translate(937.199799 0)"/>
    </g>
   </g>
   <g id="text_37">
    <!-- a strided conv downsamples -->
    <g transform="translate(542.562535 644.380664) scale(0.125 -0.125)">
     <defs>
      <path id="SourceSans3-Bold-76" d="M 1146 0 
L 77 3174 
L 1024 3174 
L 1434 1677 
Q 1498 1440 1558 1193 
Q 1619 947 1683 698 
L 1709 698 
Q 1766 947 1827 1193 
Q 1888 1440 1952 1677 
L 2368 3174 
L 3270 3174 
L 2234 0 
L 1146 0 
z
" transform="scale(0.015625)"/>
     </defs>
     <use xlink:href="#SourceSans3-Bold-61"/>
     <use xlink:href="#SourceSans3-Bold-20" transform="translate(52.699997 0)"/>
     <use xlink:href="#SourceSans3-Bold-73" transform="translate(72.699982 0)"/>
     <use xlink:href="#SourceSans3-Bold-74" transform="translate(116.999969 0)"/>
     <use xlink:href="#SourceSans3-Bold-72" transform="translate(155.299957 0)"/>
     <use xlink:href="#SourceSans3-Bold-69" transform="translate(195.099945 0)"/>
     <use xlink:href="#SourceSans3-Bold-64" transform="translate(222.699936 0)"/>
     <use xlink:href="#SourceSans3-Bold-65" transform="translate(279.999924 0)"/>
     <use xlink:href="#SourceSans3-Bold-64" transform="translate(331.799911 0)"/>
     <use xlink:href="#SourceSans3-Bold-20" transform="translate(389.099899 0)"/>
     <use xlink:href="#SourceSans3-Bold-63" transform="translate(409.099884 0)"/>
     <use xlink:href="#SourceSans3-Bold-6f" transform="translate(455.799881 0)"/>
     <use xlink:href="#SourceSans3-Bold-6e" transform="translate(511.299866 0)"/>
     <use xlink:href="#SourceSans3-Bold-76" transform="translate(568.499863 0)"/>
     <use xlink:href="#SourceSans3-Bold-20" transform="translate(620.79985 0)"/>
     <use xlink:href="#SourceSans3-Bold-64" transform="translate(640.799835 0)"/>
     <use xlink:href="#SourceSans3-Bold-6f" transform="translate(698.099823 0)"/>
     <use xlink:href="#SourceSans3-Bold-77" transform="translate(753.599808 0)"/>
     <use xlink:href="#SourceSans3-Bold-6e" transform="translate(831.199799 0)"/>
     <use xlink:href="#SourceSans3-Bold-73" transform="translate(888.399796 0)"/>
     <use xlink:href="#SourceSans3-Bold-61" transform="translate(932.699783 0)"/>
     <use xlink:href="#SourceSans3-Bold-6d" transform="translate(985.39978 0)"/>
     <use xlink:href="#SourceSans3-Bold-70" transform="translate(1071.099762 0)"/>
     <use xlink:href="#SourceSans3-Bold-6c" transform="translate(1128.39975 0)"/>
     <use xlink:href="#SourceSans3-Bold-65" transform="translate(1156.999741 0)"/>
     <use xlink:href="#SourceSans3-Bold-73" transform="translate(1208.799728 0)"/>
    </g>
   </g>
  </g>
 </g>
 <defs>
  <clipPath id="pc753815cfb">
   <rect x="7.2" y="7.2" width="700" height="940"/>
  </clipPath>
 </defs>
</svg>
