<?xml version="1.0" encoding="utf-8" standalone="no"?>
<!DOCTYPE svg PUBLIC "-//W3C//DTD SVG 1.1//EN"
  "http://www.w3.org/Graphics/SVG/1.1/DTD/svg11.dtd">
<svg xmlns:xlink="http://www.w3.org/1999/xlink" width="584.727852pt" height="266.249552pt" viewBox="0 0 584.727852 266.249552" xmlns="http://www.w3.org/2000/svg" version="1.1">
 <metadata>
  <rdf:RDF xmlns:dc="http://purl.org/dc/elements/1.1/" xmlns:cc="http://creativecommons.org/ns#" xmlns:rdf="http://www.w3.org/1999/02/22-rdf-syntax-ns#">
   <cc:Work>
    <dc:type rdf:resource="http://purl.org/dc/dcmitype/StillImage"/>
    <dc:format>image/svg+xml</dc:format>
    <dc:creator>
     <cc:Agent>
      <dc:title>Matplotlib v3.10.8, https://matplotlib.org/</dc:title>
     </cc:Agent>
    </dc:creator>
   </cc:Work>
  </rdf:RDF>
 </metadata>
 <defs>
  <style type="text/css">*{stroke-linejoin: round; stroke-linecap: butt}</style>
 </defs>
 <g id="figure_1">
  <g id="patch_1">
   <path d="M 0 266.249552 
L 584.727852 266.249552 
L 584.727852 -0 
L 0 -0 
z
" style="fill: #ffffff"/>
  </g>
  <g id="axes_1">
   <g id="patch_2">
    <path d="M 27.987582 243.858627 
L 386.173612 243.858627 
Q 391.770269 243.858627 391.770269 238.26197 
L 391.770269 27.987582 
Q 391.770269 22.390925 386.173612 22.390925 
L 27.987582 22.390925 
Q 22.390925 22.390925 22.390925 27.987582 
L 22.390925 238.26197 
Q 22.390925 243.858627 27.987582 243.858627 
z
" clip-path="url(#pac143103ed)" style="fill: #7f7f7f; opacity: 0.05; stroke: #7f7f7f; stroke-width: 2; stroke-linejoin: miter"/>
   </g>
   <g id="patch_3">
    <path d="M 27.987582 243.858627 
L 386.173612 243.858627 
Q 391.770269 243.858627 391.770269 238.26197 
L 391.770269 27.987582 
Q 391.770269 22.390925 386.173612 22.390925 
L 27.987582 22.390925 
Q 22.390925 22.390925 22.390925 27.987582 
L 22.390925 238.26197 
Q 22.390925 243.858627 27.987582 243.858627 
L 27.987582 243.858627 
z
" clip-path="url(#pac143103ed)" style="fill: none; stroke: #7f7f7f; stroke-width: 2; stroke-linejoin: miter"/>
   </g>
   <g id="patch_4">
    <path d="M 71.961313 215.875343 
L 342.199881 215.875343 
Q 347.796537 215.875343 347.796537 210.278687 
L 347.796537 59.968478 
Q 347.796537 54.371821 342.199881 54.371821 
L 71.961313 54.371821 
Q 66.364657 54.371821 66.364657 59.968478 
L 66.364657 210.278687 
Q 66.364657 215.875343 71.961313 215.875343 
z
" clip-path="url(#pac143103ed)" style="fill: #1f77b4; opacity: 0.08; stroke: #1f77b4; stroke-width: 1.8; stroke-linejoin: miter"/>
   </g>
   <g id="patch_5">
    <path d="M 71.961313 215.875343 
L 342.199881 215.875343 
Q 347.796537 215.875343 347.796537 210.278687 
L 347.796537 59.968478 
Q 347.796537 54.371821 342.199881 54.371821 
L 71.961313 54.371821 
Q 66.364657 54.371821 66.364657 59.968478 
L 66.364657 210.278687 
Q 66.364657 215.875343 71.961313 215.875343 
L 71.961313 215.875343 
z
" clip-path="url(#pac143103ed)" style="fill: none; stroke: #1f77b4; stroke-width: 1.8; stroke-linejoin: miter"/>
   </g>
   <g id="patch_6">
    <path d="M 127.927881 185.893254 
L 286.233313 185.893254 
Q 291.82997 185.893254 291.82997 180.296597 
L 291.82997 85.952955 
Q 291.82997 80.356299 286.233313 80.356299 
L 127.927881 80.356299 
Q 122.331224 80.356299 122.331224 85.952955 
L 122.331224 180.296597 
Q 122.331224 185.893254 127.927881 185.893254 
z
" clip-path="url(#pac143103ed)" style="fill: #2ca02c; opacity: 0.14; stroke: #2ca02c; stroke-width: 1.8; stroke-linejoin: miter"/>
   </g>
   <g id="patch_7">
    <path d="M 127.927881 185.893254 
L 286.233313 185.893254 
Q 291.82997 185.893254 291.82997 180.296597 
L 291.82997 85.952955 
Q 291.82997 80.356299 286.233313 80.356299 
L 127.927881 80.356299 
Q 122.331224 80.356299 122.331224 85.952955 
L 122.331224 180.296597 
Q 122.331224 185.893254 127.927881 185.893254 
L 127.927881 185.893254 
z
" clip-path="url(#pac143103ed)" style="fill: none; stroke: #2ca02c; stroke-width: 1.8; stroke-linejoin: miter"/>
   </g>
   <g id="line2d_1">
    <path d="M 309.019701 171.10209 
L 480.917015 171.10209 
" clip-path="url(#pac143103ed)" style="fill: none; stroke: #7f7f7f; stroke-linecap: square"/>
   </g>
   <g id="text_1">
    <!-- what nvidia-smi shows (reserved from the driver) -->
    <g transform="translate(31.93216 42.630114) scale(0.125 -0.125)">
     <defs>
      <path id="DejaVuSans-Bold-77" d="M 225 3500 
L 1313 3500 
L 1900 1088 
L 2491 3500 
L 3425 3500 
L 4013 1113 
L 4603 3500 
L 5691 3500 
L 4769 0 
L 3547 0 
L 2956 2406 
L 2369 0 
L 1147 0 
L 225 3500 
z
" transform="scale(0.015625)"/>
      <path id="DejaVuSans-Bold-68" d="M 4056 2131 
L 4056 0 
L 2931 0 
L 2931 347 
L 2931 1625 
Q 2931 2084 2911 2256 
Q 2891 2428 2841 2509 
Q 2775 2619 2662 2680 
Q 2550 2741 2406 2741 
Q 2056 2741 1856 2470 
Q 1656 2200 1656 1722 
L 1656 0 
L 538 0 
L 538 4863 
L 1656 4863 
L 1656 2988 
Q 1909 3294 2193 3439 
Q 2478 3584 2822 3584 
Q 3428 3584 3742 3212 
Q 4056 2841 4056 2131 
z
" transform="scale(0.015625)"/>
      <path id="DejaVuSans-Bold-61" d="M 2106 1575 
Q 1756 1575 1579 1456 
Q 1403 1338 1403 1106 
Q 1403 894 1545 773 
Q 1688 653 1941 653 
Q 2256 653 2472 879 
Q 2688 1106 2688 1447 
L 2688 1575 
L 2106 1575 
z
M 3816 1997 
L 3816 0 
L 2688 0 
L 2688 519 
Q 2463 200 2181 54 
Q 1900 -91 1497 -91 
Q 953 -91 614 226 
Q 275 544 275 1050 
Q 275 1666 698 1953 
Q 1122 2241 2028 2241 
L 2688 2241 
L 2688 2328 
Q 2688 2594 2478 2717 
Q 2269 2841 1825 2841 
Q 1466 2841 1156 2769 
Q 847 2697 581 2553 
L 581 3406 
Q 941 3494 1303 3539 
Q 1666 3584 2028 3584 
Q 2975 3584 3395 3211 
Q 3816 2838 3816 1997 
z
" transform="scale(0.015625)"/>
      <path id="DejaVuSans-Bold-74" d="M 1759 4494 
L 1759 3500 
L 2913 3500 
L 2913 2700 
L 1759 2700 
L 1759 1216 
Q 1759 972 1856 886 
Q 1953 800 2241 800 
L 2816 800 
L 2816 0 
L 1856 0 
Q 1194 0 917 276 
Q 641 553 641 1216 
L 641 2700 
L 84 2700 
L 84 3500 
L 641 3500 
L 641 4494 
L 1759 4494 
z
" transform="scale(0.015625)"/>
      <path id="DejaVuSans-Bold-20" transform="scale(0.015625)"/>
      <path id="DejaVuSans-Bold-6e" d="M 4056 2131 
L 4056 0 
L 2931 0 
L 2931 347 
L 2931 1631 
Q 2931 2084 2911 2256 
Q 2891 2428 2841 2509 
Q 2775 2619 2662 2680 
Q 2550 2741 2406 2741 
Q 2056 2741 1856 2470 
Q 1656 2200 1656 1722 
L 1656 0 
L 538 0 
L 538 3500 
L 1656 3500 
L 1656 2988 
Q 1909 3294 2193 3439 
Q 2478 3584 2822 3584 
Q 3428 3584 3742 3212 
Q 4056 2841 4056 2131 
z
" transform="scale(0.015625)"/>
      <path id="DejaVuSans-Bold-76" d="M 97 3500 
L 1216 3500 
L 2088 1081 
L 2956 3500 
L 4078 3500 
L 2700 0 
L 1472 0 
L 97 3500 
z
" transform="scale(0.015625)"/>
      <path id="DejaVuSans-Bold-69" d="M 538 3500 
L 1656 3500 
L 1656 0 
L 538 0 
L 538 3500 
z
M 538 4863 
L 1656 4863 
L 1656 3950 
L 538 3950 
L 538 4863 
z
" transform="scale(0.015625)"/>
      <path id="DejaVuSans-Bold-64" d="M 2919 2988 
L 2919 4863 
L 4044 4863 
L 4044 0 
L 2919 0 
L 2919 506 
Q 2688 197 2409 53 
Q 2131 -91 1766 -91 
Q 1119 -91 703 423 
Q 288 938 288 1747 
Q 288 2556 703 3070 
Q 1119 3584 1766 3584 
Q 2128 3584 2408 3439 
Q 2688 3294 2919 2988 
z
M 2181 722 
Q 2541 722 2730 984 
Q 2919 1247 2919 1747 
Q 2919 2247 2730 2509 
Q 2541 2772 2181 2772 
Q 1825 2772 1636 2509 
Q 1447 2247 1447 1747 
Q 1447 1247 1636 984 
Q 1825 722 2181 722 
z
" transform="scale(0.015625)"/>
      <path id="DejaVuSans-Bold-2d" d="M 347 2297 
L 2309 2297 
L 2309 1388 
L 347 1388 
L 347 2297 
z
" transform="scale(0.015625)"/>
      <path id="DejaVuSans-Bold-73" d="M 3272 3391 
L 3272 2541 
Q 2913 2691 2578 2766 
Q 2244 2841 1947 2841 
Q 1628 2841 1473 2761 
Q 1319 2681 1319 2516 
Q 1319 2381 1436 2309 
Q 1553 2238 1856 2203 
L 2053 2175 
Q 2913 2066 3209 1816 
Q 3506 1566 3506 1031 
Q 3506 472 3093 190 
Q 2681 -91 1863 -91 
Q 1516 -91 1145 -36 
Q 775 19 384 128 
L 384 978 
Q 719 816 1070 734 
Q 1422 653 1784 653 
Q 2113 653 2278 743 
Q 2444 834 2444 1013 
Q 2444 1163 2330 1236 
Q 2216 1309 1875 1350 
L 1678 1375 
Q 931 1469 631 1722 
Q 331 1975 331 2491 
Q 331 3047 712 3315 
Q 1094 3584 1881 3584 
Q 2191 3584 2531 3537 
Q 2872 3491 3272 3391 
z
" transform="scale(0.015625)"/>
      <path id="DejaVuSans-Bold-6d" d="M 3781 2919 
Q 3994 3244 4286 3414 
Q 4578 3584 4928 3584 
Q 5531 3584 5847 3212 
Q 6163 2841 6163 2131 
L 6163 0 
L 5038 0 
L 5038 1825 
Q 5041 1866 5042 1909 
Q 5044 1953 5044 2034 
Q 5044 2406 4934 2573 
Q 4825 2741 4581 2741 
Q 4263 2741 4089 2478 
Q 3916 2216 3909 1719 
L 3909 0 
L 2784 0 
L 2784 1825 
Q 2784 2406 2684 2573 
Q 2584 2741 2328 2741 
Q 2006 2741 1831 2477 
Q 1656 2213 1656 1722 
L 1656 0 
L 531 0 
L 531 3500 
L 1656 3500 
L 1656 2988 
Q 1863 3284 2130 3434 
Q 2397 3584 2719 3584 
Q 3081 3584 3359 3409 
Q 3638 3234 3781 2919 
z
" transform="scale(0.015625)"/>
      <path id="DejaVuSans-Bold-6f" d="M 2203 2784 
Q 1831 2784 1636 2517 
Q 1441 2250 1441 1747 
Q 1441 1244 1636 976 
Q 1831 709 2203 709 
Q 2569 709 2762 976 
Q 2956 1244 2956 1747 
Q 2956 2250 2762 2517 
Q 2569 2784 2203 2784 
z
M 2203 3584 
Q 3106 3584 3614 3096 
Q 4122 2609 4122 1747 
Q 4122 884 3614 396 
Q 3106 -91 2203 -91 
Q 1297 -91 786 396 
Q 275 884 275 1747 
Q 275 2609 786 3096 
Q 1297 3584 2203 3584 
z
" transform="scale(0.015625)"/>
      <path id="DejaVuSans-Bold-28" d="M 2413 -844 
L 1484 -844 
Q 1006 -72 778 623 
Q 550 1319 550 2003 
Q 550 2688 779 3389 
Q 1009 4091 1484 4856 
L 2413 4856 
Q 2013 4116 1813 3408 
Q 1613 2700 1613 2009 
Q 1613 1319 1811 609 
Q 2009 -100 2413 -844 
z
" transform="scale(0.015625)"/>
      <path id="DejaVuSans-Bold-72" d="M 3138 2547 
Q 2991 2616 2845 2648 
Q 2700 2681 2553 2681 
Q 2122 2681 1889 2404 
Q 1656 2128 1656 1613 
L 1656 0 
L 538 0 
L 538 3500 
L 1656 3500 
L 1656 2925 
Q 1872 3269 2151 3426 
Q 2431 3584 2822 3584 
Q 2878 3584 2943 3579 
Q 3009 3575 3134 3559 
L 3138 2547 
z
" transform="scale(0.015625)"/>
      <path id="DejaVuSans-Bold-65" d="M 4031 1759 
L 4031 1441 
L 1416 1441 
Q 1456 1047 1700 850 
Q 1944 653 2381 653 
Q 2734 653 3104 758 
Q 3475 863 3866 1075 
L 3866 213 
Q 3469 63 3072 -14 
Q 2675 -91 2278 -91 
Q 1328 -91 801 392 
Q 275 875 275 1747 
Q 275 2603 792 3093 
Q 1309 3584 2216 3584 
Q 3041 3584 3536 3087 
Q 4031 2591 4031 1759 
z
M 2881 2131 
Q 2881 2450 2695 2645 
Q 2509 2841 2209 2841 
Q 1884 2841 1681 2658 
Q 1478 2475 1428 2131 
L 2881 2131 
z
" transform="scale(0.015625)"/>
      <path id="DejaVuSans-Bold-66" d="M 2841 4863 
L 2841 4128 
L 2222 4128 
Q 1984 4128 1890 4042 
Q 1797 3956 1797 3744 
L 1797 3500 
L 2753 3500 
L 2753 2700 
L 1797 2700 
L 1797 0 
L 678 0 
L 678 2700 
L 122 2700 
L 122 3500 
L 678 3500 
L 678 3744 
Q 678 4316 997 4589 
Q 1316 4863 1984 4863 
L 2841 4863 
z
" transform="scale(0.015625)"/>
      <path id="DejaVuSans-Bold-29" d="M 513 -844 
Q 913 -100 1113 609 
Q 1313 1319 1313 2009 
Q 1313 2700 1113 3408 
Q 913 4116 513 4856 
L 1441 4856 
Q 1916 4091 2145 3389 
Q 2375 2688 2375 2003 
Q 2375 1319 2147 623 
Q 1919 -72 1441 -844 
L 513 -844 
z
" transform="scale(0.015625)"/>
     </defs>
     <use xlink:href="#DejaVuSans-Bold-77"/>
     <use xlink:href="#DejaVuSans-Bold-68" transform="translate(92.382812 0)"/>
     <use xlink:href="#DejaVuSans-Bold-61" transform="translate(163.574219 0)"/>
     <use xlink:href="#DejaVuSans-Bold-74" transform="translate(231.054688 0)"/>
     <use xlink:href="#DejaVuSans-Bold-20" transform="translate(278.857422 0)"/>
     <use xlink:href="#DejaVuSans-Bold-6e" transform="translate(313.671875 0)"/>
     <use xlink:href="#DejaVuSans-Bold-76" transform="translate(384.863281 0)"/>
     <use xlink:href="#DejaVuSans-Bold-69" transform="translate(450.048828 0)"/>
     <use xlink:href="#DejaVuSans-Bold-64" transform="translate(484.326172 0)"/>
     <use xlink:href="#DejaVuSans-Bold-69" transform="translate(555.908203 0)"/>
     <use xlink:href="#DejaVuSans-Bold-61" transform="translate(590.185547 0)"/>
     <use xlink:href="#DejaVuSans-Bold-2d" transform="translate(657.666016 0)"/>
     <use xlink:href="#DejaVuSans-Bold-73" transform="translate(699.169922 0)"/>
     <use xlink:href="#DejaVuSans-Bold-6d" transform="translate(758.691406 0)"/>
     <use xlink:href="#DejaVuSans-Bold-69" transform="translate(862.890625 0)"/>
     <use xlink:href="#DejaVuSans-Bold-20" transform="translate(897.167969 0)"/>
     <use xlink:href="#DejaVuSans-Bold-73" transform="translate(931.982422 0)"/>
     <use xlink:href="#DejaVuSans-Bold-68" transform="translate(991.503906 0)"/>
     <use xlink:href="#DejaVuSans-Bold-6f" transform="translate(1062.695312 0)"/>
     <use xlink:href="#DejaVuSans-Bold-77" transform="translate(1131.396484 0)"/>
     <use xlink:href="#DejaVuSans-Bold-73" transform="translate(1223.779297 0)"/>
     <use xlink:href="#DejaVuSans-Bold-20" transform="translate(1283.300781 0)"/>
     <use xlink:href="#DejaVuSans-Bold-28" transform="translate(1318.115234 0)"/>
     <use xlink:href="#DejaVuSans-Bold-72" transform="translate(1363.818359 0)"/>
     <use xlink:href="#DejaVuSans-Bold-65" transform="translate(1413.134766 0)"/>
     <use xlink:href="#DejaVuSans-Bold-73" transform="translate(1480.957031 0)"/>
     <use xlink:href="#DejaVuSans-Bold-65" transform="translate(1540.478516 0)"/>
     <use xlink:href="#DejaVuSans-Bold-72" transform="translate(1608.300781 0)"/>
     <use xlink:href="#DejaVuSans-Bold-76" transform="translate(1657.617188 0)"/>
     <use xlink:href="#DejaVuSans-Bold-65" transform="translate(1722.802734 0)"/>
     <use xlink:href="#DejaVuSans-Bold-64" transform="translate(1790.625 0)"/>
     <use xlink:href="#DejaVuSans-Bold-20" transform="translate(1862.207031 0)"/>
     <use xlink:href="#DejaVuSans-Bold-66" transform="translate(1897.021484 0)"/>
     <use xlink:href="#DejaVuSans-Bold-72" transform="translate(1940.527344 0)"/>
     <use xlink:href="#DejaVuSans-Bold-6f" transform="translate(1989.84375 0)"/>
     <use xlink:href="#DejaVuSans-Bold-6d" transform="translate(2058.544922 0)"/>
     <use xlink:href="#DejaVuSans-Bold-20" transform="translate(2162.744141 0)"/>
     <use xlink:href="#DejaVuSans-Bold-74" transform="translate(2197.558594 0)"/>
     <use xlink:href="#DejaVuSans-Bold-68" transform="translate(2245.361328 0)"/>
     <use xlink:href="#DejaVuSans-Bold-65" transform="translate(2316.552734 0)"/>
     <use xlink:href="#DejaVuSans-Bold-20" transform="translate(2384.375 0)"/>
     <use xlink:href="#DejaVuSans-Bold-64" transform="translate(2419.189453 0)"/>
     <use xlink:href="#DejaVuSans-Bold-72" transform="translate(2490.771484 0)"/>
     <use xlink:href="#DejaVuSans-Bold-69" transform="translate(2540.087891 0)"/>
     <use xlink:href="#DejaVuSans-Bold-76" transform="translate(2574.365234 0)"/>
     <use xlink:href="#DejaVuSans-Bold-65" transform="translate(2639.550781 0)"/>
     <use xlink:href="#DejaVuSans-Bold-72" transform="translate(2707.373047 0)"/>
     <use xlink:href="#DejaVuSans-Bold-29" transform="translate(2756.689453 0)"/>
    </g>
   </g>
   <g id="text_2">
    <!-- memory_reserved(): PyTorch cache -->
    <g style="fill: #1f77b4" transform="translate(101.446847 72.30736) scale(0.12 -0.12)">
     <defs>
      <path id="DejaVuSans-6d" d="M 3328 2828 
Q 3544 3216 3844 3400 
Q 4144 3584 4550 3584 
Q 5097 3584 5394 3201 
Q 5691 2819 5691 2113 
L 5691 0 
L 5113 0 
L 5113 2094 
Q 5113 2597 4934 2840 
Q 4756 3084 4391 3084 
Q 3944 3084 3684 2787 
Q 3425 2491 3425 1978 
L 3425 0 
L 2847 0 
L 2847 2094 
Q 2847 2600 2669 2842 
Q 2491 3084 2119 3084 
Q 1678 3084 1418 2786 
Q 1159 2488 1159 1978 
L 1159 0 
L 581 0 
L 581 3500 
L 1159 3500 
L 1159 2956 
Q 1356 3278 1631 3431 
Q 1906 3584 2284 3584 
Q 2666 3584 2933 3390 
Q 3200 3197 3328 2828 
z
" transform="scale(0.015625)"/>
      <path id="DejaVuSans-65" d="M 3597 1894 
L 3597 1613 
L 953 1613 
Q 991 1019 1311 708 
Q 1631 397 2203 397 
Q 2534 397 2845 478 
Q 3156 559 3463 722 
L 3463 178 
Q 3153 47 2828 -22 
Q 2503 -91 2169 -91 
Q 1331 -91 842 396 
Q 353 884 353 1716 
Q 353 2575 817 3079 
Q 1281 3584 2069 3584 
Q 2775 3584 3186 3129 
Q 3597 2675 3597 1894 
z
M 3022 2063 
Q 3016 2534 2758 2815 
Q 2500 3097 2075 3097 
Q 1594 3097 1305 2825 
Q 1016 2553 972 2059 
L 3022 2063 
z
" transform="scale(0.015625)"/>
      <path id="DejaVuSans-6f" d="M 1959 3097 
Q 1497 3097 1228 2736 
Q 959 2375 959 1747 
Q 959 1119 1226 758 
Q 1494 397 1959 397 
Q 2419 397 2687 759 
Q 2956 1122 2956 1747 
Q 2956 2369 2687 2733 
Q 2419 3097 1959 3097 
z
M 1959 3584 
Q 2709 3584 3137 3096 
Q 3566 2609 3566 1747 
Q 3566 888 3137 398 
Q 2709 -91 1959 -91 
Q 1206 -91 779 398 
Q 353 888 353 1747 
Q 353 2609 779 3096 
Q 1206 3584 1959 3584 
z
" transform="scale(0.015625)"/>
      <path id="DejaVuSans-72" d="M 2631 2963 
Q 2534 3019 2420 3045 
Q 2306 3072 2169 3072 
Q 1681 3072 1420 2755 
Q 1159 2438 1159 1844 
L 1159 0 
L 581 0 
L 581 3500 
L 1159 3500 
L 1159 2956 
Q 1341 3275 1631 3429 
Q 1922 3584 2338 3584 
Q 2397 3584 2469 3576 
Q 2541 3569 2628 3553 
L 2631 2963 
z
" transform="scale(0.015625)"/>
      <path id="DejaVuSans-79" d="M 2059 -325 
Q 1816 -950 1584 -1140 
Q 1353 -1331 966 -1331 
L 506 -1331 
L 506 -850 
L 844 -850 
Q 1081 -850 1212 -737 
Q 1344 -625 1503 -206 
L 1606 56 
L 191 3500 
L 800 3500 
L 1894 763 
L 2988 3500 
L 3597 3500 
L 2059 -325 
z
" transform="scale(0.015625)"/>
      <path id="DejaVuSans-5f" d="M 3263 -1063 
L 3263 -1509 
L -63 -1509 
L -63 -1063 
L 3263 -1063 
z
" transform="scale(0.015625)"/>
      <path id="DejaVuSans-73" d="M 2834 3397 
L 2834 2853 
Q 2591 2978 2328 3040 
Q 2066 3103 1784 3103 
Q 1356 3103 1142 2972 
Q 928 2841 928 2578 
Q 928 2378 1081 2264 
Q 1234 2150 1697 2047 
L 1894 2003 
Q 2506 1872 2764 1633 
Q 3022 1394 3022 966 
Q 3022 478 2636 193 
Q 2250 -91 1575 -91 
Q 1294 -91 989 -36 
Q 684 19 347 128 
L 347 722 
Q 666 556 975 473 
Q 1284 391 1588 391 
Q 1994 391 2212 530 
Q 2431 669 2431 922 
Q 2431 1156 2273 1281 
Q 2116 1406 1581 1522 
L 1381 1569 
Q 847 1681 609 1914 
Q 372 2147 372 2553 
Q 372 3047 722 3315 
Q 1072 3584 1716 3584 
Q 2034 3584 2315 3537 
Q 2597 3491 2834 3397 
z
" transform="scale(0.015625)"/>
      <path id="DejaVuSans-76" d="M 191 3500 
L 800 3500 
L 1894 563 
L 2988 3500 
L 3597 3500 
L 2284 0 
L 1503 0 
L 191 3500 
z
" transform="scale(0.015625)"/>
      <path id="DejaVuSans-64" d="M 2906 2969 
L 2906 4863 
L 3481 4863 
L 3481 0 
L 2906 0 
L 2906 525 
Q 2725 213 2448 61 
Q 2172 -91 1784 -91 
Q 1150 -91 751 415 
Q 353 922 353 1747 
Q 353 2572 751 3078 
Q 1150 3584 1784 3584 
Q 2172 3584 2448 3432 
Q 2725 3281 2906 2969 
z
M 947 1747 
Q 947 1113 1208 752 
Q 1469 391 1925 391 
Q 2381 391 2643 752 
Q 2906 1113 2906 1747 
Q 2906 2381 2643 2742 
Q 2381 3103 1925 3103 
Q 1469 3103 1208 2742 
Q 947 2381 947 1747 
z
" transform="scale(0.015625)"/>
      <path id="DejaVuSans-28" d="M 1984 4856 
Q 1566 4138 1362 3434 
Q 1159 2731 1159 2009 
Q 1159 1288 1364 580 
Q 1569 -128 1984 -844 
L 1484 -844 
Q 1016 -109 783 600 
Q 550 1309 550 2009 
Q 550 2706 781 3412 
Q 1013 4119 1484 4856 
L 1984 4856 
z
" transform="scale(0.015625)"/>
      <path id="DejaVuSans-29" d="M 513 4856 
L 1013 4856 
Q 1481 4119 1714 3412 
Q 1947 2706 1947 2009 
Q 1947 1309 1714 600 
Q 1481 -109 1013 -844 
L 513 -844 
Q 928 -128 1133 580 
Q 1338 1288 1338 2009 
Q 1338 2731 1133 3434 
Q 928 4138 513 4856 
z
" transform="scale(0.015625)"/>
      <path id="DejaVuSans-3a" d="M 750 794 
L 1409 794 
L 1409 0 
L 750 0 
L 750 794 
z
M 750 3309 
L 1409 3309 
L 1409 2516 
L 750 2516 
L 750 3309 
z
" transform="scale(0.015625)"/>
      <path id="DejaVuSans-20" transform="scale(0.015625)"/>
      <path id="DejaVuSans-50" d="M 1259 4147 
L 1259 2394 
L 2053 2394 
Q 2494 2394 2734 2622 
Q 2975 2850 2975 3272 
Q 2975 3691 2734 3919 
Q 2494 4147 2053 4147 
L 1259 4147 
z
M 628 4666 
L 2053 4666 
Q 2838 4666 3239 4311 
Q 3641 3956 3641 3272 
Q 3641 2581 3239 2228 
Q 2838 1875 2053 1875 
L 1259 1875 
L 1259 0 
L 628 0 
L 628 4666 
z
" transform="scale(0.015625)"/>
      <path id="DejaVuSans-54" d="M -19 4666 
L 3928 4666 
L 3928 4134 
L 2272 4134 
L 2272 0 
L 1638 0 
L 1638 4134 
L -19 4134 
L -19 4666 
z
" transform="scale(0.015625)"/>
      <path id="DejaVuSans-63" d="M 3122 3366 
L 3122 2828 
Q 2878 2963 2633 3030 
Q 2388 3097 2138 3097 
Q 1578 3097 1268 2742 
Q 959 2388 959 1747 
Q 959 1106 1268 751 
Q 1578 397 2138 397 
Q 2388 397 2633 464 
Q 2878 531 3122 666 
L 3122 134 
Q 2881 22 2623 -34 
Q 2366 -91 2075 -91 
Q 1284 -91 818 406 
Q 353 903 353 1747 
Q 353 2603 823 3093 
Q 1294 3584 2113 3584 
Q 2378 3584 2631 3529 
Q 2884 3475 3122 3366 
z
" transform="scale(0.015625)"/>
      <path id="DejaVuSans-68" d="M 3513 2113 
L 3513 0 
L 2938 0 
L 2938 2094 
Q 2938 2591 2744 2837 
Q 2550 3084 2163 3084 
Q 1697 3084 1428 2787 
Q 1159 2491 1159 1978 
L 1159 0 
L 581 0 
L 581 4863 
L 1159 4863 
L 1159 2956 
Q 1366 3272 1645 3428 
Q 1925 3584 2291 3584 
Q 2894 3584 3203 3211 
Q 3513 2838 3513 2113 
z
" transform="scale(0.015625)"/>
      <path id="DejaVuSans-61" d="M 2194 1759 
Q 1497 1759 1228 1600 
Q 959 1441 959 1056 
Q 959 750 1161 570 
Q 1363 391 1709 391 
Q 2188 391 2477 730 
Q 2766 1069 2766 1631 
L 2766 1759 
L 2194 1759 
z
M 3341 1997 
L 3341 0 
L 2766 0 
L 2766 531 
Q 2569 213 2275 61 
Q 1981 -91 1556 -91 
Q 1019 -91 701 211 
Q 384 513 384 1019 
Q 384 1609 779 1909 
Q 1175 2209 1959 2209 
L 2766 2209 
L 2766 2266 
Q 2766 2663 2505 2880 
Q 2244 3097 1772 3097 
Q 1472 3097 1187 3025 
Q 903 2953 641 2809 
L 641 3341 
Q 956 3463 1253 3523 
Q 1550 3584 1831 3584 
Q 2591 3584 2966 3190 
Q 3341 2797 3341 1997 
z
" transform="scale(0.015625)"/>
     </defs>
     <use xlink:href="#DejaVuSans-6d"/>
     <use xlink:href="#DejaVuSans-65" transform="translate(97.412109 0)"/>
     <use xlink:href="#DejaVuSans-6d" transform="translate(158.935547 0)"/>
     <use xlink:href="#DejaVuSans-6f" transform="translate(256.347656 0)"/>
     <use xlink:href="#DejaVuSans-72" transform="translate(317.529297 0)"/>
     <use xlink:href="#DejaVuSans-79" transform="translate(358.642578 0)"/>
     <use xlink:href="#DejaVuSans-5f" transform="translate(417.822266 0)"/>
     <use xlink:href="#DejaVuSans-72" transform="translate(467.822266 0)"/>
     <use xlink:href="#DejaVuSans-65" transform="translate(506.685547 0)"/>
     <use xlink:href="#DejaVuSans-73" transform="translate(568.208984 0)"/>
     <use xlink:href="#DejaVuSans-65" transform="translate(620.308594 0)"/>
     <use xlink:href="#DejaVuSans-72" transform="translate(681.832031 0)"/>
     <use xlink:href="#DejaVuSans-76" transform="translate(722.945312 0)"/>
     <use xlink:href="#DejaVuSans-65" transform="translate(782.125 0)"/>
     <use xlink:href="#DejaVuSans-64" transform="translate(843.648438 0)"/>
     <use xlink:href="#DejaVuSans-28" transform="translate(907.125 0)"/>
     <use xlink:href="#DejaVuSans-29" transform="translate(946.138672 0)"/>
     <use xlink:href="#DejaVuSans-3a" transform="translate(985.152344 0)"/>
     <use xlink:href="#DejaVuSans-20" transform="translate(1018.84375 0)"/>
     <use xlink:href="#DejaVuSans-50" transform="translate(1050.630859 0)"/>
     <use xlink:href="#DejaVuSans-79" transform="translate(1110.933594 0)"/>
     <use xlink:href="#DejaVuSans-54" transform="translate(1170.113281 0)"/>
     <use xlink:href="#DejaVuSans-6f" transform="translate(1214.197266 0)"/>
     <use xlink:href="#DejaVuSans-72" transform="translate(1275.378906 0)"/>
     <use xlink:href="#DejaVuSans-63" transform="translate(1314.242188 0)"/>
     <use xlink:href="#DejaVuSans-68" transform="translate(1369.222656 0)"/>
     <use xlink:href="#DejaVuSans-20" transform="translate(1432.601562 0)"/>
     <use xlink:href="#DejaVuSans-63" transform="translate(1464.388672 0)"/>
     <use xlink:href="#DejaVuSans-61" transform="translate(1519.369141 0)"/>
     <use xlink:href="#DejaVuSans-63" transform="translate(1580.648438 0)"/>
     <use xlink:href="#DejaVuSans-68" transform="translate(1635.628906 0)"/>
     <use xlink:href="#DejaVuSans-65" transform="translate(1699.007812 0)"/>
    </g>
   </g>
   <g id="text_3">
    <!-- memory_allocated(): -->
    <g style="fill: #2ca02c" transform="translate(144.796847 100.290644) scale(0.12 -0.12)">
     <defs>
      <path id="DejaVuSans-6c" d="M 603 4863 
L 1178 4863 
L 1178 0 
L 603 0 
L 603 4863 
z
" transform="scale(0.015625)"/>
      <path id="DejaVuSans-74" d="M 1172 4494 
L 1172 3500 
L 2356 3500 
L 2356 3053 
L 1172 3053 
L 1172 1153 
Q 1172 725 1289 603 
Q 1406 481 1766 481 
L 2356 481 
L 2356 0 
L 1766 0 
Q 1100 0 847 248 
Q 594 497 594 1153 
L 594 3053 
L 172 3053 
L 172 3500 
L 594 3500 
L 594 4494 
L 1172 4494 
z
" transform="scale(0.015625)"/>
     </defs>
     <use xlink:href="#DejaVuSans-6d"/>
     <use xlink:href="#DejaVuSans-65" transform="translate(97.412109 0)"/>
     <use xlink:href="#DejaVuSans-6d" transform="translate(158.935547 0)"/>
     <use xlink:href="#DejaVuSans-6f" transform="translate(256.347656 0)"/>
     <use xlink:href="#DejaVuSans-72" transform="translate(317.529297 0)"/>
     <use xlink:href="#DejaVuSans-79" transform="translate(358.642578 0)"/>
     <use xlink:href="#DejaVuSans-5f" transform="translate(417.822266 0)"/>
     <use xlink:href="#DejaVuSans-61" transform="translate(467.822266 0)"/>
     <use xlink:href="#DejaVuSans-6c" transform="translate(529.101562 0)"/>
     <use xlink:href="#DejaVuSans-6c" transform="translate(556.884766 0)"/>
     <use xlink:href="#DejaVuSans-6f" transform="translate(584.667969 0)"/>
     <use xlink:href="#DejaVuSans-63" transform="translate(645.849609 0)"/>
     <use xlink:href="#DejaVuSans-61" transform="translate(700.830078 0)"/>
     <use xlink:href="#DejaVuSans-74" transform="translate(762.109375 0)"/>
     <use xlink:href="#DejaVuSans-65" transform="translate(801.318359 0)"/>
     <use xlink:href="#DejaVuSans-64" transform="translate(862.841797 0)"/>
     <use xlink:href="#DejaVuSans-28" transform="translate(926.318359 0)"/>
     <use xlink:href="#DejaVuSans-29" transform="translate(965.332031 0)"/>
     <use xlink:href="#DejaVuSans-3a" transform="translate(1004.345703 0)"/>
    </g>
   </g>
   <g id="text_4">
    <!-- live tensors -->
    <g style="fill: #2ca02c" transform="translate(172.361222 115.648444) scale(0.12 -0.12)">
     <defs>
      <path id="DejaVuSans-69" d="M 603 3500 
L 1178 3500 
L 1178 0 
L 603 0 
L 603 3500 
z
M 603 4863 
L 1178 4863 
L 1178 4134 
L 603 4134 
L 603 4863 
z
" transform="scale(0.015625)"/>
      <path id="DejaVuSans-6e" d="M 3513 2113 
L 3513 0 
L 2938 0 
L 2938 2094 
Q 2938 2591 2744 2837 
Q 2550 3084 2163 3084 
Q 1697 3084 1428 2787 
Q 1159 2491 1159 1978 
L 1159 0 
L 581 0 
L 581 3500 
L 1159 3500 
L 1159 2956 
Q 1366 3272 1645 3428 
Q 1925 3584 2291 3584 
Q 2894 3584 3203 3211 
Q 3513 2838 3513 2113 
z
" transform="scale(0.015625)"/>
     </defs>
     <use xlink:href="#DejaVuSans-6c"/>
     <use xlink:href="#DejaVuSans-69" transform="translate(27.783203 0)"/>
     <use xlink:href="#DejaVuSans-76" transform="translate(55.566406 0)"/>
     <use xlink:href="#DejaVuSans-65" transform="translate(114.746094 0)"/>
     <use xlink:href="#DejaVuSans-20" transform="translate(176.269531 0)"/>
     <use xlink:href="#DejaVuSans-74" transform="translate(208.056641 0)"/>
     <use xlink:href="#DejaVuSans-65" transform="translate(247.265625 0)"/>
     <use xlink:href="#DejaVuSans-6e" transform="translate(308.789062 0)"/>
     <use xlink:href="#DejaVuSans-73" transform="translate(372.167969 0)"/>
     <use xlink:href="#DejaVuSans-6f" transform="translate(424.267578 0)"/>
     <use xlink:href="#DejaVuSans-72" transform="translate(485.449219 0)"/>
     <use xlink:href="#DejaVuSans-73" transform="translate(526.5625 0)"/>
    </g>
   </g>
   <g id="text_5">
    <!-- freed blocks kept -->
    <g transform="translate(482.915821 167.978605) scale(0.11 -0.11)">
     <defs>
      <path id="DejaVuSans-66" d="M 2375 4863 
L 2375 4384 
L 1825 4384 
Q 1516 4384 1395 4259 
Q 1275 4134 1275 3809 
L 1275 3500 
L 2222 3500 
L 2222 3053 
L 1275 3053 
L 1275 0 
L 697 0 
L 697 3053 
L 147 3053 
L 147 3500 
L 697 3500 
L 697 3744 
Q 697 4328 969 4595 
Q 1241 4863 1831 4863 
L 2375 4863 
z
" transform="scale(0.015625)"/>
      <path id="DejaVuSans-62" d="M 3116 1747 
Q 3116 2381 2855 2742 
Q 2594 3103 2138 3103 
Q 1681 3103 1420 2742 
Q 1159 2381 1159 1747 
Q 1159 1113 1420 752 
Q 1681 391 2138 391 
Q 2594 391 2855 752 
Q 3116 1113 3116 1747 
z
M 1159 2969 
Q 1341 3281 1617 3432 
Q 1894 3584 2278 3584 
Q 2916 3584 3314 3078 
Q 3713 2572 3713 1747 
Q 3713 922 3314 415 
Q 2916 -91 2278 -91 
Q 1894 -91 1617 61 
Q 1341 213 1159 525 
L 1159 0 
L 581 0 
L 581 4863 
L 1159 4863 
L 1159 2969 
z
" transform="scale(0.015625)"/>
      <path id="DejaVuSans-6b" d="M 581 4863 
L 1159 4863 
L 1159 1991 
L 2875 3500 
L 3609 3500 
L 1753 1863 
L 3688 0 
L 2938 0 
L 1159 1709 
L 1159 0 
L 581 0 
L 581 4863 
z
" transform="scale(0.015625)"/>
      <path id="DejaVuSans-70" d="M 1159 525 
L 1159 -1331 
L 581 -1331 
L 581 3500 
L 1159 3500 
L 1159 2969 
Q 1341 3281 1617 3432 
Q 1894 3584 2278 3584 
Q 2916 3584 3314 3078 
Q 3713 2572 3713 1747 
Q 3713 922 3314 415 
Q 2916 -91 2278 -91 
Q 1894 -91 1617 61 
Q 1341 213 1159 525 
z
M 3116 1747 
Q 3116 2381 2855 2742 
Q 2594 3103 2138 3103 
Q 1681 3103 1420 2742 
Q 1159 2381 1159 1747 
Q 1159 1113 1420 752 
Q 1681 391 2138 391 
Q 2594 391 2855 752 
Q 3116 1113 3116 1747 
z
" transform="scale(0.015625)"/>
     </defs>
     <use xlink:href="#DejaVuSans-66"/>
     <use xlink:href="#DejaVuSans-72" transform="translate(35.205078 0)"/>
     <use xlink:href="#DejaVuSans-65" transform="translate(74.068359 0)"/>
     <use xlink:href="#DejaVuSans-65" transform="translate(135.591797 0)"/>
     <use xlink:href="#DejaVuSans-64" transform="translate(197.115234 0)"/>
     <use xlink:href="#DejaVuSans-20" transform="translate(260.591797 0)"/>
     <use xlink:href="#DejaVuSans-62" transform="translate(292.378906 0)"/>
     <use xlink:href="#DejaVuSans-6c" transform="translate(355.855469 0)"/>
     <use xlink:href="#DejaVuSans-6f" transform="translate(383.638672 0)"/>
     <use xlink:href="#DejaVuSans-63" transform="translate(444.820312 0)"/>
     <use xlink:href="#DejaVuSans-6b" transform="translate(499.800781 0)"/>
     <use xlink:href="#DejaVuSans-73" transform="translate(557.710938 0)"/>
     <use xlink:href="#DejaVuSans-20" transform="translate(609.810547 0)"/>
     <use xlink:href="#DejaVuSans-6b" transform="translate(641.597656 0)"/>
     <use xlink:href="#DejaVuSans-65" transform="translate(695.882812 0)"/>
     <use xlink:href="#DejaVuSans-70" transform="translate(757.40625 0)"/>
     <use xlink:href="#DejaVuSans-74" transform="translate(820.882812 0)"/>
    </g>
    <!-- for reuse -->
    <g transform="translate(482.915821 180.296199) scale(0.11 -0.11)">
     <defs>
      <path id="DejaVuSans-75" d="M 544 1381 
L 544 3500 
L 1119 3500 
L 1119 1403 
Q 1119 906 1312 657 
Q 1506 409 1894 409 
Q 2359 409 2629 706 
Q 2900 1003 2900 1516 
L 2900 3500 
L 3475 3500 
L 3475 0 
L 2900 0 
L 2900 538 
Q 2691 219 2414 64 
Q 2138 -91 1772 -91 
Q 1169 -91 856 284 
Q 544 659 544 1381 
z
M 1991 3584 
L 1991 3584 
z
" transform="scale(0.015625)"/>
     </defs>
     <use xlink:href="#DejaVuSans-66"/>
     <use xlink:href="#DejaVuSans-6f" transform="translate(35.205078 0)"/>
     <use xlink:href="#DejaVuSans-72" transform="translate(96.386719 0)"/>
     <use xlink:href="#DejaVuSans-20" transform="translate(137.5 0)"/>
     <use xlink:href="#DejaVuSans-72" transform="translate(169.287109 0)"/>
     <use xlink:href="#DejaVuSans-65" transform="translate(208.150391 0)"/>
     <use xlink:href="#DejaVuSans-75" transform="translate(269.673828 0)"/>
     <use xlink:href="#DejaVuSans-73" transform="translate(333.052734 0)"/>
     <use xlink:href="#DejaVuSans-65" transform="translate(385.152344 0)"/>
    </g>
   </g>
   <g id="line2d_2">
    <defs>
     <path id="mb83ce11ba9" d="M 0 2.5 
C 0.663008 2.5 1.29895 2.236584 1.767767 1.767767 
C 2.236584 1.29895 2.5 0.663008 2.5 0 
C 2.5 -0.663008 2.236584 -1.29895 1.767767 -1.767767 
C 1.29895 -2.236584 0.663008 -2.5 0 -2.5 
C -0.663008 -2.5 -1.29895 -2.236584 -1.767767 -1.767767 
C -2.236584 -1.29895 -2.5 -0.663008 -2.5 0 
C -2.5 0.663008 -2.236584 1.29895 -1.767767 1.767767 
C -1.29895 2.236584 -0.663008 2.5 0 2.5 
z
" style="stroke: #7f7f7f"/>
    </defs>
    <g clip-path="url(#pac143103ed)">
     <use xlink:href="#mb83ce11ba9" x="309.019701" y="171.10209" style="fill: #7f7f7f; stroke: #7f7f7f"/>
    </g>
   </g>
  </g>
 </g>
 <defs>
  <clipPath id="pac143103ed">
   <rect x="7.2" y="7.2" width="535.68" height="251.849552"/>
  </clipPath>
 </defs>
</svg>
