<?xml version="1.0" encoding="utf-8" standalone="no"?>
<!DOCTYPE svg PUBLIC "-//W3C//DTD SVG 1.1//EN"
  "http://www.w3.org/Graphics/SVG/1.1/DTD/svg11.dtd">
<svg xmlns:xlink="http://www.w3.org/1999/xlink" width="698.951709pt" height="225.072pt" viewBox="0 0 698.951709 225.072" xmlns="http://www.w3.org/2000/svg" version="1.1">
 <metadata>
  <rdf:RDF xmlns:dc="http://purl.org/dc/elements/1.1/" xmlns:cc="http://creativecommons.org/ns#" xmlns:rdf="http://www.w3.org/1999/02/22-rdf-syntax-ns#">
   <cc:Work>
    <dc:type rdf:resource="http://purl.org/dc/dcmitype/StillImage"/>
    <dc:format>image/svg+xml</dc:format>
    <dc:creator>
     <cc:Agent>
      <dc:title>Matplotlib v3.10.8, https://matplotlib.org/</dc:title>
     </cc:Agent>
    </dc:creator>
   </cc:Work>
  </rdf:RDF>
 </metadata>
 <defs>
  <style type="text/css">*{stroke-linejoin: round; stroke-linecap: butt}</style>
 </defs>
 <g id="figure_1">
  <g id="patch_1">
   <path d="M 0 225.072 
L 698.951709 225.072 
L 698.951709 -0 
L 0 -0 
z
" style="fill: #ffffff"/>
  </g>
  <g id="axes_1">
   <g id="patch_2">
    <path d="M 18.649565 137.496052 
L 114.825913 137.496052 
Q 120.321704 137.496052 120.321704 132.000261 
L 120.321704 88.491913 
Q 120.321704 82.996122 114.825913 82.996122 
L 18.649565 82.996122 
Q 13.153774 82.996122 13.153774 88.491913 
L 13.153774 132.000261 
Q 13.153774 137.496052 18.649565 137.496052 
z
" clip-path="url(#peb82ff7db3)" style="fill: #1f77b4; opacity: 0.14; stroke: #1f77b4; stroke-width: 1.8; stroke-linejoin: miter"/>
   </g>
   <g id="patch_3">
    <path d="M 18.649565 137.496052 
L 114.825913 137.496052 
Q 120.321704 137.496052 120.321704 132.000261 
L 120.321704 88.491913 
Q 120.321704 82.996122 114.825913 82.996122 
L 18.649565 82.996122 
Q 13.153774 82.996122 13.153774 88.491913 
L 13.153774 132.000261 
Q 13.153774 137.496052 18.649565 137.496052 
L 18.649565 137.496052 
z
" clip-path="url(#peb82ff7db3)" style="fill: none; stroke: #1f77b4; stroke-width: 1.8; stroke-linejoin: miter"/>
   </g>
   <g id="patch_4">
    <path d="M 146.884696 137.496052 
L 243.061043 137.496052 
Q 248.556835 137.496052 248.556835 132.000261 
L 248.556835 88.491913 
Q 248.556835 82.996122 243.061043 82.996122 
L 146.884696 82.996122 
Q 141.388904 82.996122 141.388904 88.491913 
L 141.388904 132.000261 
Q 141.388904 137.496052 146.884696 137.496052 
z
" clip-path="url(#peb82ff7db3)" style="fill: #ff7f0e; opacity: 0.14; stroke: #ff7f0e; stroke-width: 1.8; stroke-linejoin: miter"/>
   </g>
   <g id="patch_5">
    <path d="M 146.884696 137.496052 
L 243.061043 137.496052 
Q 248.556835 137.496052 248.556835 132.000261 
L 248.556835 88.491913 
Q 248.556835 82.996122 243.061043 82.996122 
L 146.884696 82.996122 
Q 141.388904 82.996122 141.388904 88.491913 
L 141.388904 132.000261 
Q 141.388904 137.496052 146.884696 137.496052 
L 146.884696 137.496052 
z
" clip-path="url(#peb82ff7db3)" style="fill: none; stroke: #ff7f0e; stroke-width: 1.8; stroke-linejoin: miter"/>
   </g>
   <g id="patch_6">
    <path d="M 275.119826 137.496052 
L 371.296174 137.496052 
Q 376.791965 137.496052 376.791965 132.000261 
L 376.791965 88.491913 
Q 376.791965 82.996122 371.296174 82.996122 
L 275.119826 82.996122 
Q 269.624035 82.996122 269.624035 88.491913 
L 269.624035 132.000261 
Q 269.624035 137.496052 275.119826 137.496052 
z
" clip-path="url(#peb82ff7db3)" style="fill: #ff7f0e; opacity: 0.14; stroke: #ff7f0e; stroke-width: 1.8; stroke-linejoin: miter"/>
   </g>
   <g id="patch_7">
    <path d="M 275.119826 137.496052 
L 371.296174 137.496052 
Q 376.791965 137.496052 376.791965 132.000261 
L 376.791965 88.491913 
Q 376.791965 82.996122 371.296174 82.996122 
L 275.119826 82.996122 
Q 269.624035 82.996122 269.624035 88.491913 
L 269.624035 132.000261 
Q 269.624035 137.496052 275.119826 137.496052 
L 275.119826 137.496052 
z
" clip-path="url(#peb82ff7db3)" style="fill: none; stroke: #ff7f0e; stroke-width: 1.8; stroke-linejoin: miter"/>
   </g>
   <g id="patch_8">
    <path d="M 403.354957 137.496052 
L 499.531304 137.496052 
Q 505.027096 137.496052 505.027096 132.000261 
L 505.027096 88.491913 
Q 505.027096 82.996122 499.531304 82.996122 
L 403.354957 82.996122 
Q 397.859165 82.996122 397.859165 88.491913 
L 397.859165 132.000261 
Q 397.859165 137.496052 403.354957 137.496052 
z
" clip-path="url(#peb82ff7db3)" style="fill: #1f77b4; opacity: 0.14; stroke: #1f77b4; stroke-width: 1.8; stroke-linejoin: miter"/>
   </g>
   <g id="patch_9">
    <path d="M 403.354957 137.496052 
L 499.531304 137.496052 
Q 505.027096 137.496052 505.027096 132.000261 
L 505.027096 88.491913 
Q 505.027096 82.996122 499.531304 82.996122 
L 403.354957 82.996122 
Q 397.859165 82.996122 397.859165 88.491913 
L 397.859165 132.000261 
Q 397.859165 137.496052 403.354957 137.496052 
L 403.354957 137.496052 
z
" clip-path="url(#peb82ff7db3)" style="fill: none; stroke: #1f77b4; stroke-width: 1.8; stroke-linejoin: miter"/>
   </g>
   <g id="patch_10">
    <path d="M 531.590087 137.496052 
L 627.766435 137.496052 
Q 633.262226 137.496052 633.262226 132.000261 
L 633.262226 88.491913 
Q 633.262226 82.996122 627.766435 82.996122 
L 531.590087 82.996122 
Q 526.094296 82.996122 526.094296 88.491913 
L 526.094296 132.000261 
Q 526.094296 137.496052 531.590087 137.496052 
z
" clip-path="url(#peb82ff7db3)" style="fill: #ff7f0e; opacity: 0.14; stroke: #ff7f0e; stroke-width: 1.8; stroke-linejoin: miter"/>
   </g>
   <g id="patch_11">
    <path d="M 531.590087 137.496052 
L 627.766435 137.496052 
Q 633.262226 137.496052 633.262226 132.000261 
L 633.262226 88.491913 
Q 633.262226 82.996122 627.766435 82.996122 
L 531.590087 82.996122 
Q 526.094296 82.996122 526.094296 88.491913 
L 526.094296 132.000261 
Q 526.094296 137.496052 531.590087 137.496052 
L 531.590087 137.496052 
z
" clip-path="url(#peb82ff7db3)" style="fill: none; stroke: #ff7f0e; stroke-width: 1.8; stroke-linejoin: miter"/>
   </g>
   <g id="text_1">
    <!-- fp32 master -->
    <g style="fill: #1f77b4" transform="translate(23.91352 103.688386) scale(0.125 -0.125)">
     <defs>
      <path id="DejaVuSans-Bold-66" d="M 2841 4863 
L 2841 4128 
L 2222 4128 
Q 1984 4128 1890 4042 
Q 1797 3956 1797 3744 
L 1797 3500 
L 2753 3500 
L 2753 2700 
L 1797 2700 
L 1797 0 
L 678 0 
L 678 2700 
L 122 2700 
L 122 3500 
L 678 3500 
L 678 3744 
Q 678 4316 997 4589 
Q 1316 4863 1984 4863 
L 2841 4863 
z
" transform="scale(0.015625)"/>
      <path id="DejaVuSans-Bold-70" d="M 1656 506 
L 1656 -1331 
L 538 -1331 
L 538 3500 
L 1656 3500 
L 1656 2988 
Q 1888 3294 2169 3439 
Q 2450 3584 2816 3584 
Q 3463 3584 3878 3070 
Q 4294 2556 4294 1747 
Q 4294 938 3878 423 
Q 3463 -91 2816 -91 
Q 2450 -91 2169 54 
Q 1888 200 1656 506 
z
M 2400 2772 
Q 2041 2772 1848 2508 
Q 1656 2244 1656 1747 
Q 1656 1250 1848 986 
Q 2041 722 2400 722 
Q 2759 722 2948 984 
Q 3138 1247 3138 1747 
Q 3138 2247 2948 2509 
Q 2759 2772 2400 2772 
z
" transform="scale(0.015625)"/>
      <path id="DejaVuSans-Bold-33" d="M 2981 2516 
Q 3453 2394 3698 2092 
Q 3944 1791 3944 1325 
Q 3944 631 3412 270 
Q 2881 -91 1863 -91 
Q 1503 -91 1142 -33 
Q 781 25 428 141 
L 428 1069 
Q 766 900 1098 814 
Q 1431 728 1753 728 
Q 2231 728 2486 893 
Q 2741 1059 2741 1369 
Q 2741 1688 2480 1852 
Q 2219 2016 1709 2016 
L 1228 2016 
L 1228 2791 
L 1734 2791 
Q 2188 2791 2409 2933 
Q 2631 3075 2631 3366 
Q 2631 3634 2415 3781 
Q 2200 3928 1806 3928 
Q 1516 3928 1219 3862 
Q 922 3797 628 3669 
L 628 4550 
Q 984 4650 1334 4700 
Q 1684 4750 2022 4750 
Q 2931 4750 3382 4451 
Q 3834 4153 3834 3553 
Q 3834 3144 3618 2883 
Q 3403 2622 2981 2516 
z
" transform="scale(0.015625)"/>
      <path id="DejaVuSans-Bold-32" d="M 1844 884 
L 3897 884 
L 3897 0 
L 506 0 
L 506 884 
L 2209 2388 
Q 2438 2594 2547 2791 
Q 2656 2988 2656 3200 
Q 2656 3528 2436 3728 
Q 2216 3928 1850 3928 
Q 1569 3928 1234 3808 
Q 900 3688 519 3450 
L 519 4475 
Q 925 4609 1322 4679 
Q 1719 4750 2100 4750 
Q 2938 4750 3402 4381 
Q 3866 4013 3866 3353 
Q 3866 2972 3669 2642 
Q 3472 2313 2841 1759 
L 1844 884 
z
" transform="scale(0.015625)"/>
      <path id="DejaVuSans-Bold-20" transform="scale(0.015625)"/>
      <path id="DejaVuSans-Bold-6d" d="M 3781 2919 
Q 3994 3244 4286 3414 
Q 4578 3584 4928 3584 
Q 5531 3584 5847 3212 
Q 6163 2841 6163 2131 
L 6163 0 
L 5038 0 
L 5038 1825 
Q 5041 1866 5042 1909 
Q 5044 1953 5044 2034 
Q 5044 2406 4934 2573 
Q 4825 2741 4581 2741 
Q 4263 2741 4089 2478 
Q 3916 2216 3909 1719 
L 3909 0 
L 2784 0 
L 2784 1825 
Q 2784 2406 2684 2573 
Q 2584 2741 2328 2741 
Q 2006 2741 1831 2477 
Q 1656 2213 1656 1722 
L 1656 0 
L 531 0 
L 531 3500 
L 1656 3500 
L 1656 2988 
Q 1863 3284 2130 3434 
Q 2397 3584 2719 3584 
Q 3081 3584 3359 3409 
Q 3638 3234 3781 2919 
z
" transform="scale(0.015625)"/>
      <path id="DejaVuSans-Bold-61" d="M 2106 1575 
Q 1756 1575 1579 1456 
Q 1403 1338 1403 1106 
Q 1403 894 1545 773 
Q 1688 653 1941 653 
Q 2256 653 2472 879 
Q 2688 1106 2688 1447 
L 2688 1575 
L 2106 1575 
z
M 3816 1997 
L 3816 0 
L 2688 0 
L 2688 519 
Q 2463 200 2181 54 
Q 1900 -91 1497 -91 
Q 953 -91 614 226 
Q 275 544 275 1050 
Q 275 1666 698 1953 
Q 1122 2241 2028 2241 
L 2688 2241 
L 2688 2328 
Q 2688 2594 2478 2717 
Q 2269 2841 1825 2841 
Q 1466 2841 1156 2769 
Q 847 2697 581 2553 
L 581 3406 
Q 941 3494 1303 3539 
Q 1666 3584 2028 3584 
Q 2975 3584 3395 3211 
Q 3816 2838 3816 1997 
z
" transform="scale(0.015625)"/>
      <path id="DejaVuSans-Bold-73" d="M 3272 3391 
L 3272 2541 
Q 2913 2691 2578 2766 
Q 2244 2841 1947 2841 
Q 1628 2841 1473 2761 
Q 1319 2681 1319 2516 
Q 1319 2381 1436 2309 
Q 1553 2238 1856 2203 
L 2053 2175 
Q 2913 2066 3209 1816 
Q 3506 1566 3506 1031 
Q 3506 472 3093 190 
Q 2681 -91 1863 -91 
Q 1516 -91 1145 -36 
Q 775 19 384 128 
L 384 978 
Q 719 816 1070 734 
Q 1422 653 1784 653 
Q 2113 653 2278 743 
Q 2444 834 2444 1013 
Q 2444 1163 2330 1236 
Q 2216 1309 1875 1350 
L 1678 1375 
Q 931 1469 631 1722 
Q 331 1975 331 2491 
Q 331 3047 712 3315 
Q 1094 3584 1881 3584 
Q 2191 3584 2531 3537 
Q 2872 3491 3272 3391 
z
" transform="scale(0.015625)"/>
      <path id="DejaVuSans-Bold-74" d="M 1759 4494 
L 1759 3500 
L 2913 3500 
L 2913 2700 
L 1759 2700 
L 1759 1216 
Q 1759 972 1856 886 
Q 1953 800 2241 800 
L 2816 800 
L 2816 0 
L 1856 0 
Q 1194 0 917 276 
Q 641 553 641 1216 
L 641 2700 
L 84 2700 
L 84 3500 
L 641 3500 
L 641 4494 
L 1759 4494 
z
" transform="scale(0.015625)"/>
      <path id="DejaVuSans-Bold-65" d="M 4031 1759 
L 4031 1441 
L 1416 1441 
Q 1456 1047 1700 850 
Q 1944 653 2381 653 
Q 2734 653 3104 758 
Q 3475 863 3866 1075 
L 3866 213 
Q 3469 63 3072 -14 
Q 2675 -91 2278 -91 
Q 1328 -91 801 392 
Q 275 875 275 1747 
Q 275 2603 792 3093 
Q 1309 3584 2216 3584 
Q 3041 3584 3536 3087 
Q 4031 2591 4031 1759 
z
M 2881 2131 
Q 2881 2450 2695 2645 
Q 2509 2841 2209 2841 
Q 1884 2841 1681 2658 
Q 1478 2475 1428 2131 
L 2881 2131 
z
" transform="scale(0.015625)"/>
      <path id="DejaVuSans-Bold-72" d="M 3138 2547 
Q 2991 2616 2845 2648 
Q 2700 2681 2553 2681 
Q 2122 2681 1889 2404 
Q 1656 2128 1656 1613 
L 1656 0 
L 538 0 
L 538 3500 
L 1656 3500 
L 1656 2925 
Q 1872 3269 2151 3426 
Q 2431 3584 2822 3584 
Q 2878 3584 2943 3579 
Q 3009 3575 3134 3559 
L 3138 2547 
z
" transform="scale(0.015625)"/>
     </defs>
     <use xlink:href="#DejaVuSans-Bold-66"/>
     <use xlink:href="#DejaVuSans-Bold-70" transform="translate(43.505859 0)"/>
     <use xlink:href="#DejaVuSans-Bold-33" transform="translate(115.087891 0)"/>
     <use xlink:href="#DejaVuSans-Bold-32" transform="translate(184.667969 0)"/>
     <use xlink:href="#DejaVuSans-Bold-20" transform="translate(254.248047 0)"/>
     <use xlink:href="#DejaVuSans-Bold-6d" transform="translate(289.0625 0)"/>
     <use xlink:href="#DejaVuSans-Bold-61" transform="translate(393.261719 0)"/>
     <use xlink:href="#DejaVuSans-Bold-73" transform="translate(460.742188 0)"/>
     <use xlink:href="#DejaVuSans-Bold-74" transform="translate(520.263672 0)"/>
     <use xlink:href="#DejaVuSans-Bold-65" transform="translate(568.066406 0)"/>
     <use xlink:href="#DejaVuSans-Bold-72" transform="translate(635.888672 0)"/>
    </g>
   </g>
   <g id="text_2">
    <!-- weights -->
    <g transform="translate(46.302114 126.837111) scale(0.105 -0.105)">
     <defs>
      <path id="DejaVuSans-77" d="M 269 3500 
L 844 3500 
L 1563 769 
L 2278 3500 
L 2956 3500 
L 3675 769 
L 4391 3500 
L 4966 3500 
L 4050 0 
L 3372 0 
L 2619 2869 
L 1863 0 
L 1184 0 
L 269 3500 
z
" transform="scale(0.015625)"/>
      <path id="DejaVuSans-65" d="M 3597 1894 
L 3597 1613 
L 953 1613 
Q 991 1019 1311 708 
Q 1631 397 2203 397 
Q 2534 397 2845 478 
Q 3156 559 3463 722 
L 3463 178 
Q 3153 47 2828 -22 
Q 2503 -91 2169 -91 
Q 1331 -91 842 396 
Q 353 884 353 1716 
Q 353 2575 817 3079 
Q 1281 3584 2069 3584 
Q 2775 3584 3186 3129 
Q 3597 2675 3597 1894 
z
M 3022 2063 
Q 3016 2534 2758 2815 
Q 2500 3097 2075 3097 
Q 1594 3097 1305 2825 
Q 1016 2553 972 2059 
L 3022 2063 
z
" transform="scale(0.015625)"/>
      <path id="DejaVuSans-69" d="M 603 3500 
L 1178 3500 
L 1178 0 
L 603 0 
L 603 3500 
z
M 603 4863 
L 1178 4863 
L 1178 4134 
L 603 4134 
L 603 4863 
z
" transform="scale(0.015625)"/>
      <path id="DejaVuSans-67" d="M 2906 1791 
Q 2906 2416 2648 2759 
Q 2391 3103 1925 3103 
Q 1463 3103 1205 2759 
Q 947 2416 947 1791 
Q 947 1169 1205 825 
Q 1463 481 1925 481 
Q 2391 481 2648 825 
Q 2906 1169 2906 1791 
z
M 3481 434 
Q 3481 -459 3084 -895 
Q 2688 -1331 1869 -1331 
Q 1566 -1331 1297 -1286 
Q 1028 -1241 775 -1147 
L 775 -588 
Q 1028 -725 1275 -790 
Q 1522 -856 1778 -856 
Q 2344 -856 2625 -561 
Q 2906 -266 2906 331 
L 2906 616 
Q 2728 306 2450 153 
Q 2172 0 1784 0 
Q 1141 0 747 490 
Q 353 981 353 1791 
Q 353 2603 747 3093 
Q 1141 3584 1784 3584 
Q 2172 3584 2450 3431 
Q 2728 3278 2906 2969 
L 2906 3500 
L 3481 3500 
L 3481 434 
z
" transform="scale(0.015625)"/>
      <path id="DejaVuSans-68" d="M 3513 2113 
L 3513 0 
L 2938 0 
L 2938 2094 
Q 2938 2591 2744 2837 
Q 2550 3084 2163 3084 
Q 1697 3084 1428 2787 
Q 1159 2491 1159 1978 
L 1159 0 
L 581 0 
L 581 4863 
L 1159 4863 
L 1159 2956 
Q 1366 3272 1645 3428 
Q 1925 3584 2291 3584 
Q 2894 3584 3203 3211 
Q 3513 2838 3513 2113 
z
" transform="scale(0.015625)"/>
      <path id="DejaVuSans-74" d="M 1172 4494 
L 1172 3500 
L 2356 3500 
L 2356 3053 
L 1172 3053 
L 1172 1153 
Q 1172 725 1289 603 
Q 1406 481 1766 481 
L 2356 481 
L 2356 0 
L 1766 0 
Q 1100 0 847 248 
Q 594 497 594 1153 
L 594 3053 
L 172 3053 
L 172 3500 
L 594 3500 
L 594 4494 
L 1172 4494 
z
" transform="scale(0.015625)"/>
      <path id="DejaVuSans-73" d="M 2834 3397 
L 2834 2853 
Q 2591 2978 2328 3040 
Q 2066 3103 1784 3103 
Q 1356 3103 1142 2972 
Q 928 2841 928 2578 
Q 928 2378 1081 2264 
Q 1234 2150 1697 2047 
L 1894 2003 
Q 2506 1872 2764 1633 
Q 3022 1394 3022 966 
Q 3022 478 2636 193 
Q 2250 -91 1575 -91 
Q 1294 -91 989 -36 
Q 684 19 347 128 
L 347 722 
Q 666 556 975 473 
Q 1284 391 1588 391 
Q 1994 391 2212 530 
Q 2431 669 2431 922 
Q 2431 1156 2273 1281 
Q 2116 1406 1581 1522 
L 1381 1569 
Q 847 1681 609 1914 
Q 372 2147 372 2553 
Q 372 3047 722 3315 
Q 1072 3584 1716 3584 
Q 2034 3584 2315 3537 
Q 2597 3491 2834 3397 
z
" transform="scale(0.015625)"/>
     </defs>
     <use xlink:href="#DejaVuSans-77"/>
     <use xlink:href="#DejaVuSans-65" transform="translate(81.787109 0)"/>
     <use xlink:href="#DejaVuSans-69" transform="translate(143.310547 0)"/>
     <use xlink:href="#DejaVuSans-67" transform="translate(171.09375 0)"/>
     <use xlink:href="#DejaVuSans-68" transform="translate(234.570312 0)"/>
     <use xlink:href="#DejaVuSans-74" transform="translate(297.949219 0)"/>
     <use xlink:href="#DejaVuSans-73" transform="translate(337.158203 0)"/>
    </g>
   </g>
   <g id="text_3">
    <!-- cast to bf16 -->
    <g style="fill: #ff7f0e" transform="translate(152.820526 103.688386) scale(0.125 -0.125)">
     <defs>
      <path id="DejaVuSans-Bold-63" d="M 3366 3391 
L 3366 2478 
Q 3138 2634 2908 2709 
Q 2678 2784 2431 2784 
Q 1963 2784 1702 2511 
Q 1441 2238 1441 1747 
Q 1441 1256 1702 982 
Q 1963 709 2431 709 
Q 2694 709 2930 787 
Q 3166 866 3366 1019 
L 3366 103 
Q 3103 6 2833 -42 
Q 2563 -91 2291 -91 
Q 1344 -91 809 395 
Q 275 881 275 1747 
Q 275 2613 809 3098 
Q 1344 3584 2291 3584 
Q 2566 3584 2833 3536 
Q 3100 3488 3366 3391 
z
" transform="scale(0.015625)"/>
      <path id="DejaVuSans-Bold-6f" d="M 2203 2784 
Q 1831 2784 1636 2517 
Q 1441 2250 1441 1747 
Q 1441 1244 1636 976 
Q 1831 709 2203 709 
Q 2569 709 2762 976 
Q 2956 1244 2956 1747 
Q 2956 2250 2762 2517 
Q 2569 2784 2203 2784 
z
M 2203 3584 
Q 3106 3584 3614 3096 
Q 4122 2609 4122 1747 
Q 4122 884 3614 396 
Q 3106 -91 2203 -91 
Q 1297 -91 786 396 
Q 275 884 275 1747 
Q 275 2609 786 3096 
Q 1297 3584 2203 3584 
z
" transform="scale(0.015625)"/>
      <path id="DejaVuSans-Bold-62" d="M 2400 722 
Q 2759 722 2948 984 
Q 3138 1247 3138 1747 
Q 3138 2247 2948 2509 
Q 2759 2772 2400 2772 
Q 2041 2772 1848 2508 
Q 1656 2244 1656 1747 
Q 1656 1250 1848 986 
Q 2041 722 2400 722 
z
M 1656 2988 
Q 1888 3294 2169 3439 
Q 2450 3584 2816 3584 
Q 3463 3584 3878 3070 
Q 4294 2556 4294 1747 
Q 4294 938 3878 423 
Q 3463 -91 2816 -91 
Q 2450 -91 2169 54 
Q 1888 200 1656 506 
L 1656 0 
L 538 0 
L 538 4863 
L 1656 4863 
L 1656 2988 
z
" transform="scale(0.015625)"/>
      <path id="DejaVuSans-Bold-31" d="M 750 831 
L 1813 831 
L 1813 3847 
L 722 3622 
L 722 4441 
L 1806 4666 
L 2950 4666 
L 2950 831 
L 4013 831 
L 4013 0 
L 750 0 
L 750 831 
z
" transform="scale(0.015625)"/>
      <path id="DejaVuSans-Bold-36" d="M 2316 2303 
Q 2000 2303 1842 2098 
Q 1684 1894 1684 1484 
Q 1684 1075 1842 870 
Q 2000 666 2316 666 
Q 2634 666 2792 870 
Q 2950 1075 2950 1484 
Q 2950 1894 2792 2098 
Q 2634 2303 2316 2303 
z
M 3803 4544 
L 3803 3681 
Q 3506 3822 3243 3889 
Q 2981 3956 2731 3956 
Q 2194 3956 1894 3657 
Q 1594 3359 1544 2772 
Q 1750 2925 1990 3001 
Q 2231 3078 2516 3078 
Q 3231 3078 3670 2659 
Q 4109 2241 4109 1563 
Q 4109 813 3618 361 
Q 3128 -91 2303 -91 
Q 1394 -91 895 523 
Q 397 1138 397 2266 
Q 397 3422 980 4083 
Q 1563 4744 2578 4744 
Q 2900 4744 3203 4694 
Q 3506 4644 3803 4544 
z
" transform="scale(0.015625)"/>
     </defs>
     <use xlink:href="#DejaVuSans-Bold-63"/>
     <use xlink:href="#DejaVuSans-Bold-61" transform="translate(59.277344 0)"/>
     <use xlink:href="#DejaVuSans-Bold-73" transform="translate(126.757812 0)"/>
     <use xlink:href="#DejaVuSans-Bold-74" transform="translate(186.279297 0)"/>
     <use xlink:href="#DejaVuSans-Bold-20" transform="translate(234.082031 0)"/>
     <use xlink:href="#DejaVuSans-Bold-74" transform="translate(268.896484 0)"/>
     <use xlink:href="#DejaVuSans-Bold-6f" transform="translate(316.699219 0)"/>
     <use xlink:href="#DejaVuSans-Bold-20" transform="translate(385.400391 0)"/>
     <use xlink:href="#DejaVuSans-Bold-62" transform="translate(420.214844 0)"/>
     <use xlink:href="#DejaVuSans-Bold-66" transform="translate(491.796875 0)"/>
     <use xlink:href="#DejaVuSans-Bold-31" transform="translate(535.302734 0)"/>
     <use xlink:href="#DejaVuSans-Bold-36" transform="translate(604.882812 0)"/>
    </g>
   </g>
   <g id="text_4">
    <!-- weights -->
    <g transform="translate(174.537245 126.837111) scale(0.105 -0.105)">
     <use xlink:href="#DejaVuSans-77"/>
     <use xlink:href="#DejaVuSans-65" transform="translate(81.787109 0)"/>
     <use xlink:href="#DejaVuSans-69" transform="translate(143.310547 0)"/>
     <use xlink:href="#DejaVuSans-67" transform="translate(171.09375 0)"/>
     <use xlink:href="#DejaVuSans-68" transform="translate(234.570312 0)"/>
     <use xlink:href="#DejaVuSans-74" transform="translate(297.949219 0)"/>
     <use xlink:href="#DejaVuSans-73" transform="translate(337.158203 0)"/>
    </g>
   </g>
   <g id="text_5">
    <!-- forward -->
    <g style="fill: #ff7f0e" transform="translate(295.565422 103.688386) scale(0.125 -0.125)">
     <defs>
      <path id="DejaVuSans-Bold-77" d="M 225 3500 
L 1313 3500 
L 1900 1088 
L 2491 3500 
L 3425 3500 
L 4013 1113 
L 4603 3500 
L 5691 3500 
L 4769 0 
L 3547 0 
L 2956 2406 
L 2369 0 
L 1147 0 
L 225 3500 
z
" transform="scale(0.015625)"/>
      <path id="DejaVuSans-Bold-64" d="M 2919 2988 
L 2919 4863 
L 4044 4863 
L 4044 0 
L 2919 0 
L 2919 506 
Q 2688 197 2409 53 
Q 2131 -91 1766 -91 
Q 1119 -91 703 423 
Q 288 938 288 1747 
Q 288 2556 703 3070 
Q 1119 3584 1766 3584 
Q 2128 3584 2408 3439 
Q 2688 3294 2919 2988 
z
M 2181 722 
Q 2541 722 2730 984 
Q 2919 1247 2919 1747 
Q 2919 2247 2730 2509 
Q 2541 2772 2181 2772 
Q 1825 2772 1636 2509 
Q 1447 2247 1447 1747 
Q 1447 1247 1636 984 
Q 1825 722 2181 722 
z
" transform="scale(0.015625)"/>
     </defs>
     <use xlink:href="#DejaVuSans-Bold-66"/>
     <use xlink:href="#DejaVuSans-Bold-6f" transform="translate(43.505859 0)"/>
     <use xlink:href="#DejaVuSans-Bold-72" transform="translate(112.207031 0)"/>
     <use xlink:href="#DejaVuSans-Bold-77" transform="translate(161.523438 0)"/>
     <use xlink:href="#DejaVuSans-Bold-61" transform="translate(253.90625 0)"/>
     <use xlink:href="#DejaVuSans-Bold-72" transform="translate(321.386719 0)"/>
     <use xlink:href="#DejaVuSans-Bold-64" transform="translate(370.703125 0)"/>
    </g>
   </g>
   <g id="text_6">
    <!-- bf16 activations -->
    <g transform="translate(280.941398 126.837111) scale(0.105 -0.105)">
     <defs>
      <path id="DejaVuSans-62" d="M 3116 1747 
Q 3116 2381 2855 2742 
Q 2594 3103 2138 3103 
Q 1681 3103 1420 2742 
Q 1159 2381 1159 1747 
Q 1159 1113 1420 752 
Q 1681 391 2138 391 
Q 2594 391 2855 752 
Q 3116 1113 3116 1747 
z
M 1159 2969 
Q 1341 3281 1617 3432 
Q 1894 3584 2278 3584 
Q 2916 3584 3314 3078 
Q 3713 2572 3713 1747 
Q 3713 922 3314 415 
Q 2916 -91 2278 -91 
Q 1894 -91 1617 61 
Q 1341 213 1159 525 
L 1159 0 
L 581 0 
L 581 4863 
L 1159 4863 
L 1159 2969 
z
" transform="scale(0.015625)"/>
      <path id="DejaVuSans-66" d="M 2375 4863 
L 2375 4384 
L 1825 4384 
Q 1516 4384 1395 4259 
Q 1275 4134 1275 3809 
L 1275 3500 
L 2222 3500 
L 2222 3053 
L 1275 3053 
L 1275 0 
L 697 0 
L 697 3053 
L 147 3053 
L 147 3500 
L 697 3500 
L 697 3744 
Q 697 4328 969 4595 
Q 1241 4863 1831 4863 
L 2375 4863 
z
" transform="scale(0.015625)"/>
      <path id="DejaVuSans-31" d="M 794 531 
L 1825 531 
L 1825 4091 
L 703 3866 
L 703 4441 
L 1819 4666 
L 2450 4666 
L 2450 531 
L 3481 531 
L 3481 0 
L 794 0 
L 794 531 
z
" transform="scale(0.015625)"/>
      <path id="DejaVuSans-36" d="M 2113 2584 
Q 1688 2584 1439 2293 
Q 1191 2003 1191 1497 
Q 1191 994 1439 701 
Q 1688 409 2113 409 
Q 2538 409 2786 701 
Q 3034 994 3034 1497 
Q 3034 2003 2786 2293 
Q 2538 2584 2113 2584 
z
M 3366 4563 
L 3366 3988 
Q 3128 4100 2886 4159 
Q 2644 4219 2406 4219 
Q 1781 4219 1451 3797 
Q 1122 3375 1075 2522 
Q 1259 2794 1537 2939 
Q 1816 3084 2150 3084 
Q 2853 3084 3261 2657 
Q 3669 2231 3669 1497 
Q 3669 778 3244 343 
Q 2819 -91 2113 -91 
Q 1303 -91 875 529 
Q 447 1150 447 2328 
Q 447 3434 972 4092 
Q 1497 4750 2381 4750 
Q 2619 4750 2861 4703 
Q 3103 4656 3366 4563 
z
" transform="scale(0.015625)"/>
      <path id="DejaVuSans-20" transform="scale(0.015625)"/>
      <path id="DejaVuSans-61" d="M 2194 1759 
Q 1497 1759 1228 1600 
Q 959 1441 959 1056 
Q 959 750 1161 570 
Q 1363 391 1709 391 
Q 2188 391 2477 730 
Q 2766 1069 2766 1631 
L 2766 1759 
L 2194 1759 
z
M 3341 1997 
L 3341 0 
L 2766 0 
L 2766 531 
Q 2569 213 2275 61 
Q 1981 -91 1556 -91 
Q 1019 -91 701 211 
Q 384 513 384 1019 
Q 384 1609 779 1909 
Q 1175 2209 1959 2209 
L 2766 2209 
L 2766 2266 
Q 2766 2663 2505 2880 
Q 2244 3097 1772 3097 
Q 1472 3097 1187 3025 
Q 903 2953 641 2809 
L 641 3341 
Q 956 3463 1253 3523 
Q 1550 3584 1831 3584 
Q 2591 3584 2966 3190 
Q 3341 2797 3341 1997 
z
" transform="scale(0.015625)"/>
      <path id="DejaVuSans-63" d="M 3122 3366 
L 3122 2828 
Q 2878 2963 2633 3030 
Q 2388 3097 2138 3097 
Q 1578 3097 1268 2742 
Q 959 2388 959 1747 
Q 959 1106 1268 751 
Q 1578 397 2138 397 
Q 2388 397 2633 464 
Q 2878 531 3122 666 
L 3122 134 
Q 2881 22 2623 -34 
Q 2366 -91 2075 -91 
Q 1284 -91 818 406 
Q 353 903 353 1747 
Q 353 2603 823 3093 
Q 1294 3584 2113 3584 
Q 2378 3584 2631 3529 
Q 2884 3475 3122 3366 
z
" transform="scale(0.015625)"/>
      <path id="DejaVuSans-76" d="M 191 3500 
L 800 3500 
L 1894 563 
L 2988 3500 
L 3597 3500 
L 2284 0 
L 1503 0 
L 191 3500 
z
" transform="scale(0.015625)"/>
      <path id="DejaVuSans-6f" d="M 1959 3097 
Q 1497 3097 1228 2736 
Q 959 2375 959 1747 
Q 959 1119 1226 758 
Q 1494 397 1959 397 
Q 2419 397 2687 759 
Q 2956 1122 2956 1747 
Q 2956 2369 2687 2733 
Q 2419 3097 1959 3097 
z
M 1959 3584 
Q 2709 3584 3137 3096 
Q 3566 2609 3566 1747 
Q 3566 888 3137 398 
Q 2709 -91 1959 -91 
Q 1206 -91 779 398 
Q 353 888 353 1747 
Q 353 2609 779 3096 
Q 1206 3584 1959 3584 
z
" transform="scale(0.015625)"/>
      <path id="DejaVuSans-6e" d="M 3513 2113 
L 3513 0 
L 2938 0 
L 2938 2094 
Q 2938 2591 2744 2837 
Q 2550 3084 2163 3084 
Q 1697 3084 1428 2787 
Q 1159 2491 1159 1978 
L 1159 0 
L 581 0 
L 581 3500 
L 1159 3500 
L 1159 2956 
Q 1366 3272 1645 3428 
Q 1925 3584 2291 3584 
Q 2894 3584 3203 3211 
Q 3513 2838 3513 2113 
z
" transform="scale(0.015625)"/>
     </defs>
     <use xlink:href="#DejaVuSans-62"/>
     <use xlink:href="#DejaVuSans-66" transform="translate(63.476562 0)"/>
     <use xlink:href="#DejaVuSans-31" transform="translate(98.681641 0)"/>
     <use xlink:href="#DejaVuSans-36" transform="translate(162.304688 0)"/>
     <use xlink:href="#DejaVuSans-20" transform="translate(225.927734 0)"/>
     <use xlink:href="#DejaVuSans-61" transform="translate(257.714844 0)"/>
     <use xlink:href="#DejaVuSans-63" transform="translate(318.994141 0)"/>
     <use xlink:href="#DejaVuSans-74" transform="translate(373.974609 0)"/>
     <use xlink:href="#DejaVuSans-69" transform="translate(413.183594 0)"/>
     <use xlink:href="#DejaVuSans-76" transform="translate(440.966797 0)"/>
     <use xlink:href="#DejaVuSans-61" transform="translate(500.146484 0)"/>
     <use xlink:href="#DejaVuSans-74" transform="translate(561.425781 0)"/>
     <use xlink:href="#DejaVuSans-69" transform="translate(600.634766 0)"/>
     <use xlink:href="#DejaVuSans-6f" transform="translate(628.417969 0)"/>
     <use xlink:href="#DejaVuSans-6e" transform="translate(689.599609 0)"/>
     <use xlink:href="#DejaVuSans-73" transform="translate(752.978516 0)"/>
    </g>
   </g>
   <g id="text_7">
    <!-- loss -->
    <g style="fill: #1f77b4" transform="translate(437.567154 103.688386) scale(0.125 -0.125)">
     <defs>
      <path id="DejaVuSans-Bold-6c" d="M 538 4863 
L 1656 4863 
L 1656 0 
L 538 0 
L 538 4863 
z
" transform="scale(0.015625)"/>
     </defs>
     <use xlink:href="#DejaVuSans-Bold-6c"/>
     <use xlink:href="#DejaVuSans-Bold-6f" transform="translate(34.277344 0)"/>
     <use xlink:href="#DejaVuSans-Bold-73" transform="translate(102.978516 0)"/>
     <use xlink:href="#DejaVuSans-Bold-73" transform="translate(162.5 0)"/>
    </g>
   </g>
   <g id="text_8">
    <!-- fp32 accumulate -->
    <g transform="translate(407.189732 126.837111) scale(0.105 -0.105)">
     <defs>
      <path id="DejaVuSans-70" d="M 1159 525 
L 1159 -1331 
L 581 -1331 
L 581 3500 
L 1159 3500 
L 1159 2969 
Q 1341 3281 1617 3432 
Q 1894 3584 2278 3584 
Q 2916 3584 3314 3078 
Q 3713 2572 3713 1747 
Q 3713 922 3314 415 
Q 2916 -91 2278 -91 
Q 1894 -91 1617 61 
Q 1341 213 1159 525 
z
M 3116 1747 
Q 3116 2381 2855 2742 
Q 2594 3103 2138 3103 
Q 1681 3103 1420 2742 
Q 1159 2381 1159 1747 
Q 1159 1113 1420 752 
Q 1681 391 2138 391 
Q 2594 391 2855 752 
Q 3116 1113 3116 1747 
z
" transform="scale(0.015625)"/>
      <path id="DejaVuSans-33" d="M 2597 2516 
Q 3050 2419 3304 2112 
Q 3559 1806 3559 1356 
Q 3559 666 3084 287 
Q 2609 -91 1734 -91 
Q 1441 -91 1130 -33 
Q 819 25 488 141 
L 488 750 
Q 750 597 1062 519 
Q 1375 441 1716 441 
Q 2309 441 2620 675 
Q 2931 909 2931 1356 
Q 2931 1769 2642 2001 
Q 2353 2234 1838 2234 
L 1294 2234 
L 1294 2753 
L 1863 2753 
Q 2328 2753 2575 2939 
Q 2822 3125 2822 3475 
Q 2822 3834 2567 4026 
Q 2313 4219 1838 4219 
Q 1578 4219 1281 4162 
Q 984 4106 628 3988 
L 628 4550 
Q 988 4650 1302 4700 
Q 1616 4750 1894 4750 
Q 2613 4750 3031 4423 
Q 3450 4097 3450 3541 
Q 3450 3153 3228 2886 
Q 3006 2619 2597 2516 
z
" transform="scale(0.015625)"/>
      <path id="DejaVuSans-32" d="M 1228 531 
L 3431 531 
L 3431 0 
L 469 0 
L 469 531 
Q 828 903 1448 1529 
Q 2069 2156 2228 2338 
Q 2531 2678 2651 2914 
Q 2772 3150 2772 3378 
Q 2772 3750 2511 3984 
Q 2250 4219 1831 4219 
Q 1534 4219 1204 4116 
Q 875 4013 500 3803 
L 500 4441 
Q 881 4594 1212 4672 
Q 1544 4750 1819 4750 
Q 2544 4750 2975 4387 
Q 3406 4025 3406 3419 
Q 3406 3131 3298 2873 
Q 3191 2616 2906 2266 
Q 2828 2175 2409 1742 
Q 1991 1309 1228 531 
z
" transform="scale(0.015625)"/>
      <path id="DejaVuSans-75" d="M 544 1381 
L 544 3500 
L 1119 3500 
L 1119 1403 
Q 1119 906 1312 657 
Q 1506 409 1894 409 
Q 2359 409 2629 706 
Q 2900 1003 2900 1516 
L 2900 3500 
L 3475 3500 
L 3475 0 
L 2900 0 
L 2900 538 
Q 2691 219 2414 64 
Q 2138 -91 1772 -91 
Q 1169 -91 856 284 
Q 544 659 544 1381 
z
M 1991 3584 
L 1991 3584 
z
" transform="scale(0.015625)"/>
      <path id="DejaVuSans-6d" d="M 3328 2828 
Q 3544 3216 3844 3400 
Q 4144 3584 4550 3584 
Q 5097 3584 5394 3201 
Q 5691 2819 5691 2113 
L 5691 0 
L 5113 0 
L 5113 2094 
Q 5113 2597 4934 2840 
Q 4756 3084 4391 3084 
Q 3944 3084 3684 2787 
Q 3425 2491 3425 1978 
L 3425 0 
L 2847 0 
L 2847 2094 
Q 2847 2600 2669 2842 
Q 2491 3084 2119 3084 
Q 1678 3084 1418 2786 
Q 1159 2488 1159 1978 
L 1159 0 
L 581 0 
L 581 3500 
L 1159 3500 
L 1159 2956 
Q 1356 3278 1631 3431 
Q 1906 3584 2284 3584 
Q 2666 3584 2933 3390 
Q 3200 3197 3328 2828 
z
" transform="scale(0.015625)"/>
      <path id="DejaVuSans-6c" d="M 603 4863 
L 1178 4863 
L 1178 0 
L 603 0 
L 603 4863 
z
" transform="scale(0.015625)"/>
     </defs>
     <use xlink:href="#DejaVuSans-66"/>
     <use xlink:href="#DejaVuSans-70" transform="translate(35.205078 0)"/>
     <use xlink:href="#DejaVuSans-33" transform="translate(98.681641 0)"/>
     <use xlink:href="#DejaVuSans-32" transform="translate(162.304688 0)"/>
     <use xlink:href="#DejaVuSans-20" transform="translate(225.927734 0)"/>
     <use xlink:href="#DejaVuSans-61" transform="translate(257.714844 0)"/>
     <use xlink:href="#DejaVuSans-63" transform="translate(318.994141 0)"/>
     <use xlink:href="#DejaVuSans-63" transform="translate(373.974609 0)"/>
     <use xlink:href="#DejaVuSans-75" transform="translate(428.955078 0)"/>
     <use xlink:href="#DejaVuSans-6d" transform="translate(492.333984 0)"/>
     <use xlink:href="#DejaVuSans-75" transform="translate(589.746094 0)"/>
     <use xlink:href="#DejaVuSans-6c" transform="translate(653.125 0)"/>
     <use xlink:href="#DejaVuSans-61" transform="translate(680.908203 0)"/>
     <use xlink:href="#DejaVuSans-74" transform="translate(742.1875 0)"/>
     <use xlink:href="#DejaVuSans-65" transform="translate(781.396484 0)"/>
    </g>
   </g>
   <g id="text_9">
    <!-- backward -->
    <g style="fill: #ff7f0e" transform="translate(545.577675 103.688386) scale(0.125 -0.125)">
     <defs>
      <path id="DejaVuSans-Bold-6b" d="M 538 4863 
L 1656 4863 
L 1656 2216 
L 2944 3500 
L 4244 3500 
L 2534 1894 
L 4378 0 
L 3022 0 
L 1656 1459 
L 1656 0 
L 538 0 
L 538 4863 
z
" transform="scale(0.015625)"/>
     </defs>
     <use xlink:href="#DejaVuSans-Bold-62"/>
     <use xlink:href="#DejaVuSans-Bold-61" transform="translate(71.582031 0)"/>
     <use xlink:href="#DejaVuSans-Bold-63" transform="translate(139.0625 0)"/>
     <use xlink:href="#DejaVuSans-Bold-6b" transform="translate(198.339844 0)"/>
     <use xlink:href="#DejaVuSans-Bold-77" transform="translate(264.84375 0)"/>
     <use xlink:href="#DejaVuSans-Bold-61" transform="translate(357.226562 0)"/>
     <use xlink:href="#DejaVuSans-Bold-72" transform="translate(424.707031 0)"/>
     <use xlink:href="#DejaVuSans-Bold-64" transform="translate(474.023438 0)"/>
    </g>
   </g>
   <g id="text_10">
    <!-- bf16 grads -->
    <g transform="translate(551.371737 126.837111) scale(0.105 -0.105)">
     <defs>
      <path id="DejaVuSans-72" d="M 2631 2963 
Q 2534 3019 2420 3045 
Q 2306 3072 2169 3072 
Q 1681 3072 1420 2755 
Q 1159 2438 1159 1844 
L 1159 0 
L 581 0 
L 581 3500 
L 1159 3500 
L 1159 2956 
Q 1341 3275 1631 3429 
Q 1922 3584 2338 3584 
Q 2397 3584 2469 3576 
Q 2541 3569 2628 3553 
L 2631 2963 
z
" transform="scale(0.015625)"/>
      <path id="DejaVuSans-64" d="M 2906 2969 
L 2906 4863 
L 3481 4863 
L 3481 0 
L 2906 0 
L 2906 525 
Q 2725 213 2448 61 
Q 2172 -91 1784 -91 
Q 1150 -91 751 415 
Q 353 922 353 1747 
Q 353 2572 751 3078 
Q 1150 3584 1784 3584 
Q 2172 3584 2448 3432 
Q 2725 3281 2906 2969 
z
M 947 1747 
Q 947 1113 1208 752 
Q 1469 391 1925 391 
Q 2381 391 2643 752 
Q 2906 1113 2906 1747 
Q 2906 2381 2643 2742 
Q 2381 3103 1925 3103 
Q 1469 3103 1208 2742 
Q 947 2381 947 1747 
z
" transform="scale(0.015625)"/>
     </defs>
     <use xlink:href="#DejaVuSans-62"/>
     <use xlink:href="#DejaVuSans-66" transform="translate(63.476562 0)"/>
     <use xlink:href="#DejaVuSans-31" transform="translate(98.681641 0)"/>
     <use xlink:href="#DejaVuSans-36" transform="translate(162.304688 0)"/>
     <use xlink:href="#DejaVuSans-20" transform="translate(225.927734 0)"/>
     <use xlink:href="#DejaVuSans-67" transform="translate(257.714844 0)"/>
     <use xlink:href="#DejaVuSans-72" transform="translate(321.191406 0)"/>
     <use xlink:href="#DejaVuSans-61" transform="translate(362.304688 0)"/>
     <use xlink:href="#DejaVuSans-64" transform="translate(423.583984 0)"/>
     <use xlink:href="#DejaVuSans-73" transform="translate(487.060547 0)"/>
    </g>
   </g>
   <g id="patch_12">
    <path d="M 119.405739 110.246087 
Q 130.855304 110.246087 140.292408 110.246087 
" style="fill: none; stroke: #7f7f7f; stroke-width: 1.8; stroke-linecap: round"/>
    <path d="M 134.692408 107.446087 
L 140.292408 110.246087 
L 134.692408 113.046087 
" style="fill: none; stroke: #7f7f7f; stroke-width: 1.8; stroke-linecap: round"/>
   </g>
   <g id="patch_13">
    <path d="M 247.64087 110.246087 
Q 259.090435 110.246087 268.527539 110.246087 
" style="fill: none; stroke: #7f7f7f; stroke-width: 1.8; stroke-linecap: round"/>
    <path d="M 262.927539 107.446087 
L 268.527539 110.246087 
L 262.927539 113.046087 
" style="fill: none; stroke: #7f7f7f; stroke-width: 1.8; stroke-linecap: round"/>
   </g>
   <g id="patch_14">
    <path d="M 375.876 110.246087 
Q 387.325565 110.246087 396.762669 110.246087 
" style="fill: none; stroke: #7f7f7f; stroke-width: 1.8; stroke-linecap: round"/>
    <path d="M 391.162669 107.446087 
L 396.762669 110.246087 
L 391.162669 113.046087 
" style="fill: none; stroke: #7f7f7f; stroke-width: 1.8; stroke-linecap: round"/>
   </g>
   <g id="patch_15">
    <path d="M 504.11113 110.246087 
Q 515.560696 110.246087 524.9978 110.246087 
" style="fill: none; stroke: #7f7f7f; stroke-width: 1.8; stroke-linecap: round"/>
    <path d="M 519.3978 107.446087 
L 524.9978 110.246087 
L 519.3978 113.046087 
" style="fill: none; stroke: #7f7f7f; stroke-width: 1.8; stroke-linecap: round"/>
   </g>
   <g id="patch_16">
    <path d="M 107.772981 69.150392 
Q 87.25536 75.386283 68.877177 80.971938 
" style="fill: none; stroke: #2ca02c; stroke-width: 2; stroke-linecap: round"/>
    <path d="M 75.490273 82.097528 
L 68.877177 80.971938 
L 73.745507 76.356814 
" style="fill: none; stroke: #2ca02c; stroke-width: 2; stroke-linecap: round"/>
   </g>
   <g id="text_11">
    <!-- optimizer step: update fp32 master weights -->
    <g style="fill: #2ca02c" transform="translate(185.64257 30.247417) scale(0.125 -0.125)">
     <defs>
      <path id="DejaVuSans-7a" d="M 353 3500 
L 3084 3500 
L 3084 2975 
L 922 459 
L 3084 459 
L 3084 0 
L 275 0 
L 275 525 
L 2438 3041 
L 353 3041 
L 353 3500 
z
" transform="scale(0.015625)"/>
      <path id="DejaVuSans-3a" d="M 750 794 
L 1409 794 
L 1409 0 
L 750 0 
L 750 794 
z
M 750 3309 
L 1409 3309 
L 1409 2516 
L 750 2516 
L 750 3309 
z
" transform="scale(0.015625)"/>
     </defs>
     <use xlink:href="#DejaVuSans-6f"/>
     <use xlink:href="#DejaVuSans-70" transform="translate(61.181641 0)"/>
     <use xlink:href="#DejaVuSans-74" transform="translate(124.658203 0)"/>
     <use xlink:href="#DejaVuSans-69" transform="translate(163.867188 0)"/>
     <use xlink:href="#DejaVuSans-6d" transform="translate(191.650391 0)"/>
     <use xlink:href="#DejaVuSans-69" transform="translate(289.0625 0)"/>
     <use xlink:href="#DejaVuSans-7a" transform="translate(316.845703 0)"/>
     <use xlink:href="#DejaVuSans-65" transform="translate(369.335938 0)"/>
     <use xlink:href="#DejaVuSans-72" transform="translate(430.859375 0)"/>
     <use xlink:href="#DejaVuSans-20" transform="translate(471.972656 0)"/>
     <use xlink:href="#DejaVuSans-73" transform="translate(503.759766 0)"/>
     <use xlink:href="#DejaVuSans-74" transform="translate(555.859375 0)"/>
     <use xlink:href="#DejaVuSans-65" transform="translate(595.068359 0)"/>
     <use xlink:href="#DejaVuSans-70" transform="translate(656.591797 0)"/>
     <use xlink:href="#DejaVuSans-3a" transform="translate(720.068359 0)"/>
     <use xlink:href="#DejaVuSans-20" transform="translate(753.759766 0)"/>
     <use xlink:href="#DejaVuSans-75" transform="translate(785.546875 0)"/>
     <use xlink:href="#DejaVuSans-70" transform="translate(848.925781 0)"/>
     <use xlink:href="#DejaVuSans-64" transform="translate(912.402344 0)"/>
     <use xlink:href="#DejaVuSans-61" transform="translate(975.878906 0)"/>
     <use xlink:href="#DejaVuSans-74" transform="translate(1037.158203 0)"/>
     <use xlink:href="#DejaVuSans-65" transform="translate(1076.367188 0)"/>
     <use xlink:href="#DejaVuSans-20" transform="translate(1137.890625 0)"/>
     <use xlink:href="#DejaVuSans-66" transform="translate(1169.677734 0)"/>
     <use xlink:href="#DejaVuSans-70" transform="translate(1204.882812 0)"/>
     <use xlink:href="#DejaVuSans-33" transform="translate(1268.359375 0)"/>
     <use xlink:href="#DejaVuSans-32" transform="translate(1331.982422 0)"/>
     <use xlink:href="#DejaVuSans-20" transform="translate(1395.605469 0)"/>
     <use xlink:href="#DejaVuSans-6d" transform="translate(1427.392578 0)"/>
     <use xlink:href="#DejaVuSans-61" transform="translate(1524.804688 0)"/>
     <use xlink:href="#DejaVuSans-73" transform="translate(1586.083984 0)"/>
     <use xlink:href="#DejaVuSans-74" transform="translate(1638.183594 0)"/>
     <use xlink:href="#DejaVuSans-65" transform="translate(1677.392578 0)"/>
     <use xlink:href="#DejaVuSans-72" transform="translate(1738.916016 0)"/>
     <use xlink:href="#DejaVuSans-20" transform="translate(1780.029297 0)"/>
     <use xlink:href="#DejaVuSans-77" transform="translate(1811.816406 0)"/>
     <use xlink:href="#DejaVuSans-65" transform="translate(1893.603516 0)"/>
     <use xlink:href="#DejaVuSans-69" transform="translate(1955.126953 0)"/>
     <use xlink:href="#DejaVuSans-67" transform="translate(1982.910156 0)"/>
     <use xlink:href="#DejaVuSans-68" transform="translate(2046.386719 0)"/>
     <use xlink:href="#DejaVuSans-74" transform="translate(2109.765625 0)"/>
     <use xlink:href="#DejaVuSans-73" transform="translate(2148.974609 0)"/>
    </g>
   </g>
   <g id="line2d_1">
    <path d="M 579.678261 136.580087 
L 556.77913 158.334261 
" clip-path="url(#peb82ff7db3)" style="fill: none; stroke-dasharray: 1.2,1.98; stroke-dashoffset: 0; stroke: #7f7f7f; stroke-width: 1.2"/>
   </g>
   <g id="text_12">
    <g id="patch_17">
     <path d="M 421.806552 196.565157 
L 691.751709 196.565157 
Q 695.601709 196.565157 695.601709 192.715157 
L 695.601709 169.751626 
Q 695.601709 165.901626 691.751709 165.901626 
L 421.806552 165.901626 
Q 417.956552 165.901626 417.956552 169.751626 
L 417.956552 192.715157 
Q 417.956552 196.565157 421.806552 196.565157 
z
" style="fill: #ffffff; opacity: 0.95; stroke-dasharray: 3.7,1.6; stroke-dashoffset: 0; stroke: #7f7f7f; stroke-linejoin: miter"/>
    </g>
    <!-- fp16 only: scale the loss up before backward, -->
    <g style="fill: #7f7f7f" transform="translate(432.186943 178.109907) scale(0.11 -0.11)">
     <defs>
      <path id="DejaVuSans-79" d="M 2059 -325 
Q 1816 -950 1584 -1140 
Q 1353 -1331 966 -1331 
L 506 -1331 
L 506 -850 
L 844 -850 
Q 1081 -850 1212 -737 
Q 1344 -625 1503 -206 
L 1606 56 
L 191 3500 
L 800 3500 
L 1894 763 
L 2988 3500 
L 3597 3500 
L 2059 -325 
z
" transform="scale(0.015625)"/>
      <path id="DejaVuSans-6b" d="M 581 4863 
L 1159 4863 
L 1159 1991 
L 2875 3500 
L 3609 3500 
L 1753 1863 
L 3688 0 
L 2938 0 
L 1159 1709 
L 1159 0 
L 581 0 
L 581 4863 
z
" transform="scale(0.015625)"/>
      <path id="DejaVuSans-2c" d="M 750 794 
L 1409 794 
L 1409 256 
L 897 -744 
L 494 -744 
L 750 256 
L 750 794 
z
" transform="scale(0.015625)"/>
     </defs>
     <use xlink:href="#DejaVuSans-66"/>
     <use xlink:href="#DejaVuSans-70" transform="translate(35.205078 0)"/>
     <use xlink:href="#DejaVuSans-31" transform="translate(98.681641 0)"/>
     <use xlink:href="#DejaVuSans-36" transform="translate(162.304688 0)"/>
     <use xlink:href="#DejaVuSans-20" transform="translate(225.927734 0)"/>
     <use xlink:href="#DejaVuSans-6f" transform="translate(257.714844 0)"/>
     <use xlink:href="#DejaVuSans-6e" transform="translate(318.896484 0)"/>
     <use xlink:href="#DejaVuSans-6c" transform="translate(382.275391 0)"/>
     <use xlink:href="#DejaVuSans-79" transform="translate(410.058594 0)"/>
     <use xlink:href="#DejaVuSans-3a" transform="translate(461.988281 0)"/>
     <use xlink:href="#DejaVuSans-20" transform="translate(495.679688 0)"/>
     <use xlink:href="#DejaVuSans-73" transform="translate(527.466797 0)"/>
     <use xlink:href="#DejaVuSans-63" transform="translate(579.566406 0)"/>
     <use xlink:href="#DejaVuSans-61" transform="translate(634.546875 0)"/>
     <use xlink:href="#DejaVuSans-6c" transform="translate(695.826172 0)"/>
     <use xlink:href="#DejaVuSans-65" transform="translate(723.609375 0)"/>
     <use xlink:href="#DejaVuSans-20" transform="translate(785.132812 0)"/>
     <use xlink:href="#DejaVuSans-74" transform="translate(816.919922 0)"/>
     <use xlink:href="#DejaVuSans-68" transform="translate(856.128906 0)"/>
     <use xlink:href="#DejaVuSans-65" transform="translate(919.507812 0)"/>
     <use xlink:href="#DejaVuSans-20" transform="translate(981.03125 0)"/>
     <use xlink:href="#DejaVuSans-6c" transform="translate(1012.818359 0)"/>
     <use xlink:href="#DejaVuSans-6f" transform="translate(1040.601562 0)"/>
     <use xlink:href="#DejaVuSans-73" transform="translate(1101.783203 0)"/>
     <use xlink:href="#DejaVuSans-73" transform="translate(1153.882812 0)"/>
     <use xlink:href="#DejaVuSans-20" transform="translate(1205.982422 0)"/>
     <use xlink:href="#DejaVuSans-75" transform="translate(1237.769531 0)"/>
     <use xlink:href="#DejaVuSans-70" transform="translate(1301.148438 0)"/>
     <use xlink:href="#DejaVuSans-20" transform="translate(1364.625 0)"/>
     <use xlink:href="#DejaVuSans-62" transform="translate(1396.412109 0)"/>
     <use xlink:href="#DejaVuSans-65" transform="translate(1459.888672 0)"/>
     <use xlink:href="#DejaVuSans-66" transform="translate(1521.412109 0)"/>
     <use xlink:href="#DejaVuSans-6f" transform="translate(1556.617188 0)"/>
     <use xlink:href="#DejaVuSans-72" transform="translate(1617.798828 0)"/>
     <use xlink:href="#DejaVuSans-65" transform="translate(1656.662109 0)"/>
     <use xlink:href="#DejaVuSans-20" transform="translate(1718.185547 0)"/>
     <use xlink:href="#DejaVuSans-62" transform="translate(1749.972656 0)"/>
     <use xlink:href="#DejaVuSans-61" transform="translate(1813.449219 0)"/>
     <use xlink:href="#DejaVuSans-63" transform="translate(1874.728516 0)"/>
     <use xlink:href="#DejaVuSans-6b" transform="translate(1929.708984 0)"/>
     <use xlink:href="#DejaVuSans-77" transform="translate(1987.619141 0)"/>
     <use xlink:href="#DejaVuSans-61" transform="translate(2069.40625 0)"/>
     <use xlink:href="#DejaVuSans-72" transform="translate(2130.685547 0)"/>
     <use xlink:href="#DejaVuSans-64" transform="translate(2170.048828 0)"/>
     <use xlink:href="#DejaVuSans-2c" transform="translate(2233.525391 0)"/>
    </g>
    <!-- unscale the gradients back down before the step -->
    <g style="fill: #7f7f7f" transform="translate(421.806552 190.427501) scale(0.11 -0.11)">
     <use xlink:href="#DejaVuSans-75"/>
     <use xlink:href="#DejaVuSans-6e" transform="translate(63.378906 0)"/>
     <use xlink:href="#DejaVuSans-73" transform="translate(126.757812 0)"/>
     <use xlink:href="#DejaVuSans-63" transform="translate(178.857422 0)"/>
     <use xlink:href="#DejaVuSans-61" transform="translate(233.837891 0)"/>
     <use xlink:href="#DejaVuSans-6c" transform="translate(295.117188 0)"/>
     <use xlink:href="#DejaVuSans-65" transform="translate(322.900391 0)"/>
     <use xlink:href="#DejaVuSans-20" transform="translate(384.423828 0)"/>
     <use xlink:href="#DejaVuSans-74" transform="translate(416.210938 0)"/>
     <use xlink:href="#DejaVuSans-68" transform="translate(455.419922 0)"/>
     <use xlink:href="#DejaVuSans-65" transform="translate(518.798828 0)"/>
     <use xlink:href="#DejaVuSans-20" transform="translate(580.322266 0)"/>
     <use xlink:href="#DejaVuSans-67" transform="translate(612.109375 0)"/>
     <use xlink:href="#DejaVuSans-72" transform="translate(675.585938 0)"/>
     <use xlink:href="#DejaVuSans-61" transform="translate(716.699219 0)"/>
     <use xlink:href="#DejaVuSans-64" transform="translate(777.978516 0)"/>
     <use xlink:href="#DejaVuSans-69" transform="translate(841.455078 0)"/>
     <use xlink:href="#DejaVuSans-65" transform="translate(869.238281 0)"/>
     <use xlink:href="#DejaVuSans-6e" transform="translate(930.761719 0)"/>
     <use xlink:href="#DejaVuSans-74" transform="translate(994.140625 0)"/>
     <use xlink:href="#DejaVuSans-73" transform="translate(1033.349609 0)"/>
     <use xlink:href="#DejaVuSans-20" transform="translate(1085.449219 0)"/>
     <use xlink:href="#DejaVuSans-62" transform="translate(1117.236328 0)"/>
     <use xlink:href="#DejaVuSans-61" transform="translate(1180.712891 0)"/>
     <use xlink:href="#DejaVuSans-63" transform="translate(1241.992188 0)"/>
     <use xlink:href="#DejaVuSans-6b" transform="translate(1296.972656 0)"/>
     <use xlink:href="#DejaVuSans-20" transform="translate(1354.882812 0)"/>
     <use xlink:href="#DejaVuSans-64" transform="translate(1386.669922 0)"/>
     <use xlink:href="#DejaVuSans-6f" transform="translate(1450.146484 0)"/>
     <use xlink:href="#DejaVuSans-77" transform="translate(1511.328125 0)"/>
     <use xlink:href="#DejaVuSans-6e" transform="translate(1593.115234 0)"/>
     <use xlink:href="#DejaVuSans-20" transform="translate(1656.494141 0)"/>
     <use xlink:href="#DejaVuSans-62" transform="translate(1688.28125 0)"/>
     <use xlink:href="#DejaVuSans-65" transform="translate(1751.757812 0)"/>
     <use xlink:href="#DejaVuSans-66" transform="translate(1813.28125 0)"/>
     <use xlink:href="#DejaVuSans-6f" transform="translate(1848.486328 0)"/>
     <use xlink:href="#DejaVuSans-72" transform="translate(1909.667969 0)"/>
     <use xlink:href="#DejaVuSans-65" transform="translate(1948.53125 0)"/>
     <use xlink:href="#DejaVuSans-20" transform="translate(2010.054688 0)"/>
     <use xlink:href="#DejaVuSans-74" transform="translate(2041.841797 0)"/>
     <use xlink:href="#DejaVuSans-68" transform="translate(2081.050781 0)"/>
     <use xlink:href="#DejaVuSans-65" transform="translate(2144.429688 0)"/>
     <use xlink:href="#DejaVuSans-20" transform="translate(2205.953125 0)"/>
     <use xlink:href="#DejaVuSans-73" transform="translate(2237.740234 0)"/>
     <use xlink:href="#DejaVuSans-74" transform="translate(2289.839844 0)"/>
     <use xlink:href="#DejaVuSans-65" transform="translate(2329.048828 0)"/>
     <use xlink:href="#DejaVuSans-70" transform="translate(2390.572266 0)"/>
    </g>
   </g>
   <g id="patch_18">
    <path d="M 579.678261 81.622174 
Q 323.208 -3.104609 66.737739 81.622174 
" clip-path="url(#peb82ff7db3)" style="fill: none; stroke: #2ca02c; stroke-width: 2; stroke-linejoin: miter"/>
   </g>
  </g>
 </g>
 <defs>
  <clipPath id="peb82ff7db3">
   <rect x="7.2" y="7.2" width="636.595826" height="210.672"/>
  </clipPath>
 </defs>
</svg>
