<?xml version="1.0" encoding="utf-8" standalone="no"?>
<!DOCTYPE svg PUBLIC "-//W3C//DTD SVG 1.1//EN"
  "http://www.w3.org/Graphics/SVG/1.1/DTD/svg11.dtd">
<svg xmlns:xlink="http://www.w3.org/1999/xlink" width="460.8pt" height="251.933945pt" viewBox="0 0 460.8 251.933945" xmlns="http://www.w3.org/2000/svg" version="1.1">
 <metadata>
  <rdf:RDF xmlns:dc="http://purl.org/dc/elements/1.1/" xmlns:cc="http://creativecommons.org/ns#" xmlns:rdf="http://www.w3.org/1999/02/22-rdf-syntax-ns#">
   <cc:Work>
    <dc:type rdf:resource="http://purl.org/dc/dcmitype/StillImage"/>
    <dc:format>image/svg+xml</dc:format>
    <dc:creator>
     <cc:Agent>
      <dc:title>Matplotlib v3.10.8, https://matplotlib.org/</dc:title>
     </cc:Agent>
    </dc:creator>
   </cc:Work>
  </rdf:RDF>
 </metadata>
 <defs>
  <style type="text/css">*{stroke-linejoin: round; stroke-linecap: butt}</style>
 </defs>
 <g id="figure_1">
  <g id="patch_1">
   <path d="M 0 251.933945 
L 460.8 251.933945 
L 460.8 0 
L 0 0 
z
" style="fill: #ffffff"/>
  </g>
  <g id="axes_1">
   <g id="patch_2">
    <path d="M 172.245138 54.092477 
L 288.554862 54.092477 
Q 292.650275 54.092477 292.650275 49.997064 
L 292.650275 21.738716 
Q 292.650275 17.643303 288.554862 17.643303 
L 172.245138 17.643303 
Q 168.149725 17.643303 168.149725 21.738716 
L 168.149725 49.997064 
Q 168.149725 54.092477 172.245138 54.092477 
z
" clip-path="url(#pa608a230e3)" style="fill: #ff7f0e; opacity: 0.14; stroke: #ff7f0e; stroke-width: 1.6; stroke-linejoin: miter"/>
   </g>
   <g id="patch_3">
    <path d="M 172.245138 54.092477 
L 288.554862 54.092477 
Q 292.650275 54.092477 292.650275 49.997064 
L 292.650275 21.738716 
Q 292.650275 17.643303 288.554862 17.643303 
L 172.245138 17.643303 
Q 168.149725 17.643303 168.149725 21.738716 
L 168.149725 49.997064 
Q 168.149725 54.092477 172.245138 54.092477 
L 172.245138 54.092477 
z
" clip-path="url(#pa608a230e3)" style="fill: none; stroke: #ff7f0e; stroke-width: 1.6; stroke-linejoin: miter"/>
   </g>
   <g id="patch_4">
    <path d="M 24.810275 143.167706 
L 124.738349 143.167706 
Q 128.833761 143.167706 128.833761 139.072294 
L 128.833761 112.861651 
Q 128.833761 108.766239 124.738349 108.766239 
L 24.810275 108.766239 
Q 20.714862 108.766239 20.714862 112.861651 
L 20.714862 139.072294 
Q 20.714862 143.167706 24.810275 143.167706 
z
" clip-path="url(#pa608a230e3)" style="fill: #2ca02c; opacity: 0.14; stroke: #2ca02c; stroke-width: 1.6; stroke-linejoin: miter"/>
   </g>
   <g id="patch_5">
    <path d="M 24.810275 143.167706 
L 124.738349 143.167706 
Q 128.833761 143.167706 128.833761 139.072294 
L 128.833761 112.861651 
Q 128.833761 108.766239 124.738349 108.766239 
L 24.810275 108.766239 
Q 20.714862 108.766239 20.714862 112.861651 
L 20.714862 139.072294 
Q 20.714862 143.167706 24.810275 143.167706 
L 24.810275 143.167706 
z
" clip-path="url(#pa608a230e3)" style="fill: none; stroke: #2ca02c; stroke-width: 1.6; stroke-linejoin: miter"/>
   </g>
   <g id="patch_6">
    <path d="M 180.435963 143.167706 
L 280.364037 143.167706 
Q 284.45945 143.167706 284.45945 139.072294 
L 284.45945 112.861651 
Q 284.45945 108.766239 280.364037 108.766239 
L 180.435963 108.766239 
Q 176.34055 108.766239 176.34055 112.861651 
L 176.34055 139.072294 
Q 176.34055 143.167706 180.435963 143.167706 
z
" clip-path="url(#pa608a230e3)" style="fill: #2ca02c; opacity: 0.14; stroke: #2ca02c; stroke-width: 1.6; stroke-linejoin: miter"/>
   </g>
   <g id="patch_7">
    <path d="M 180.435963 143.167706 
L 280.364037 143.167706 
Q 284.45945 143.167706 284.45945 139.072294 
L 284.45945 112.861651 
Q 284.45945 108.766239 280.364037 108.766239 
L 180.435963 108.766239 
Q 176.34055 108.766239 176.34055 112.861651 
L 176.34055 139.072294 
Q 176.34055 143.167706 180.435963 143.167706 
L 180.435963 143.167706 
z
" clip-path="url(#pa608a230e3)" style="fill: none; stroke: #2ca02c; stroke-width: 1.6; stroke-linejoin: miter"/>
   </g>
   <g id="patch_8">
    <path d="M 336.061651 143.167706 
L 435.989725 143.167706 
Q 440.085138 143.167706 440.085138 139.072294 
L 440.085138 112.861651 
Q 440.085138 108.766239 435.989725 108.766239 
L 336.061651 108.766239 
Q 331.966239 108.766239 331.966239 112.861651 
L 331.966239 139.072294 
Q 331.966239 143.167706 336.061651 143.167706 
z
" clip-path="url(#pa608a230e3)" style="fill: #2ca02c; opacity: 0.14; stroke: #2ca02c; stroke-width: 1.6; stroke-linejoin: miter"/>
   </g>
   <g id="patch_9">
    <path d="M 336.061651 143.167706 
L 435.989725 143.167706 
Q 440.085138 143.167706 440.085138 139.072294 
L 440.085138 112.861651 
Q 440.085138 108.766239 435.989725 108.766239 
L 336.061651 108.766239 
Q 331.966239 108.766239 331.966239 112.861651 
L 331.966239 139.072294 
Q 331.966239 143.167706 336.061651 143.167706 
L 336.061651 143.167706 
z
" clip-path="url(#pa608a230e3)" style="fill: none; stroke: #2ca02c; stroke-width: 1.6; stroke-linejoin: miter"/>
   </g>
   <g id="patch_10">
    <path d="M 29.724771 233.67633 
L 52.659083 233.67633 
Q 56.754495 233.67633 56.754495 229.580917 
L 56.754495 214.837431 
Q 56.754495 210.742018 52.659083 210.742018 
L 29.724771 210.742018 
Q 25.629358 210.742018 25.629358 214.837431 
L 25.629358 229.580917 
Q 25.629358 233.67633 29.724771 233.67633 
z
" clip-path="url(#pa608a230e3)" style="fill: #1f77b4; opacity: 0.14; stroke: #1f77b4; stroke-width: 1.6; stroke-linejoin: miter"/>
   </g>
   <g id="patch_11">
    <path d="M 29.724771 233.67633 
L 52.659083 233.67633 
Q 56.754495 233.67633 56.754495 229.580917 
L 56.754495 214.837431 
Q 56.754495 210.742018 52.659083 210.742018 
L 29.724771 210.742018 
Q 25.629358 210.742018 25.629358 214.837431 
L 25.629358 229.580917 
Q 25.629358 233.67633 29.724771 233.67633 
L 29.724771 233.67633 
z
" clip-path="url(#pa608a230e3)" style="fill: none; stroke: #1f77b4; stroke-width: 1.6; stroke-linejoin: miter"/>
   </g>
   <g id="patch_12">
    <path d="M 63.307156 233.67633 
L 86.241468 233.67633 
Q 90.336881 233.67633 90.336881 229.580917 
L 90.336881 214.837431 
Q 90.336881 210.742018 86.241468 210.742018 
L 63.307156 210.742018 
Q 59.211743 210.742018 59.211743 214.837431 
L 59.211743 229.580917 
Q 59.211743 233.67633 63.307156 233.67633 
z
" clip-path="url(#pa608a230e3)" style="fill: #1f77b4; opacity: 0.14; stroke: #1f77b4; stroke-width: 1.6; stroke-linejoin: miter"/>
   </g>
   <g id="patch_13">
    <path d="M 63.307156 233.67633 
L 86.241468 233.67633 
Q 90.336881 233.67633 90.336881 229.580917 
L 90.336881 214.837431 
Q 90.336881 210.742018 86.241468 210.742018 
L 63.307156 210.742018 
Q 59.211743 210.742018 59.211743 214.837431 
L 59.211743 229.580917 
Q 59.211743 233.67633 63.307156 233.67633 
L 63.307156 233.67633 
z
" clip-path="url(#pa608a230e3)" style="fill: none; stroke: #1f77b4; stroke-width: 1.6; stroke-linejoin: miter"/>
   </g>
   <g id="patch_14">
    <path d="M 96.889541 233.67633 
L 119.823853 233.67633 
Q 123.919266 233.67633 123.919266 229.580917 
L 123.919266 214.837431 
Q 123.919266 210.742018 119.823853 210.742018 
L 96.889541 210.742018 
Q 92.794128 210.742018 92.794128 214.837431 
L 92.794128 229.580917 
Q 92.794128 233.67633 96.889541 233.67633 
z
" clip-path="url(#pa608a230e3)" style="fill: #1f77b4; opacity: 0.14; stroke: #1f77b4; stroke-width: 1.6; stroke-linejoin: miter"/>
   </g>
   <g id="patch_15">
    <path d="M 96.889541 233.67633 
L 119.823853 233.67633 
Q 123.919266 233.67633 123.919266 229.580917 
L 123.919266 214.837431 
Q 123.919266 210.742018 119.823853 210.742018 
L 96.889541 210.742018 
Q 92.794128 210.742018 92.794128 214.837431 
L 92.794128 229.580917 
Q 92.794128 233.67633 96.889541 233.67633 
L 96.889541 233.67633 
z
" clip-path="url(#pa608a230e3)" style="fill: none; stroke: #1f77b4; stroke-width: 1.6; stroke-linejoin: miter"/>
   </g>
   <g id="patch_16">
    <path d="M 185.350459 233.67633 
L 208.284771 233.67633 
Q 212.380183 233.67633 212.380183 229.580917 
L 212.380183 214.837431 
Q 212.380183 210.742018 208.284771 210.742018 
L 185.350459 210.742018 
Q 181.255046 210.742018 181.255046 214.837431 
L 181.255046 229.580917 
Q 181.255046 233.67633 185.350459 233.67633 
z
" clip-path="url(#pa608a230e3)" style="fill: #1f77b4; opacity: 0.14; stroke: #1f77b4; stroke-width: 1.6; stroke-linejoin: miter"/>
   </g>
   <g id="patch_17">
    <path d="M 185.350459 233.67633 
L 208.284771 233.67633 
Q 212.380183 233.67633 212.380183 229.580917 
L 212.380183 214.837431 
Q 212.380183 210.742018 208.284771 210.742018 
L 185.350459 210.742018 
Q 181.255046 210.742018 181.255046 214.837431 
L 181.255046 229.580917 
Q 181.255046 233.67633 185.350459 233.67633 
L 185.350459 233.67633 
z
" clip-path="url(#pa608a230e3)" style="fill: none; stroke: #1f77b4; stroke-width: 1.6; stroke-linejoin: miter"/>
   </g>
   <g id="patch_18">
    <path d="M 218.932844 233.67633 
L 241.867156 233.67633 
Q 245.962569 233.67633 245.962569 229.580917 
L 245.962569 214.837431 
Q 245.962569 210.742018 241.867156 210.742018 
L 218.932844 210.742018 
Q 214.837431 210.742018 214.837431 214.837431 
L 214.837431 229.580917 
Q 214.837431 233.67633 218.932844 233.67633 
z
" clip-path="url(#pa608a230e3)" style="fill: #1f77b4; opacity: 0.14; stroke: #1f77b4; stroke-width: 1.6; stroke-linejoin: miter"/>
   </g>
   <g id="patch_19">
    <path d="M 218.932844 233.67633 
L 241.867156 233.67633 
Q 245.962569 233.67633 245.962569 229.580917 
L 245.962569 214.837431 
Q 245.962569 210.742018 241.867156 210.742018 
L 218.932844 210.742018 
Q 214.837431 210.742018 214.837431 214.837431 
L 214.837431 229.580917 
Q 214.837431 233.67633 218.932844 233.67633 
L 218.932844 233.67633 
z
" clip-path="url(#pa608a230e3)" style="fill: none; stroke: #1f77b4; stroke-width: 1.6; stroke-linejoin: miter"/>
   </g>
   <g id="patch_20">
    <path d="M 252.515229 233.67633 
L 275.449541 233.67633 
Q 279.544954 233.67633 279.544954 229.580917 
L 279.544954 214.837431 
Q 279.544954 210.742018 275.449541 210.742018 
L 252.515229 210.742018 
Q 248.419817 210.742018 248.419817 214.837431 
L 248.419817 229.580917 
Q 248.419817 233.67633 252.515229 233.67633 
z
" clip-path="url(#pa608a230e3)" style="fill: #1f77b4; opacity: 0.14; stroke: #1f77b4; stroke-width: 1.6; stroke-linejoin: miter"/>
   </g>
   <g id="patch_21">
    <path d="M 252.515229 233.67633 
L 275.449541 233.67633 
Q 279.544954 233.67633 279.544954 229.580917 
L 279.544954 214.837431 
Q 279.544954 210.742018 275.449541 210.742018 
L 252.515229 210.742018 
Q 248.419817 210.742018 248.419817 214.837431 
L 248.419817 229.580917 
Q 248.419817 233.67633 252.515229 233.67633 
L 252.515229 233.67633 
z
" clip-path="url(#pa608a230e3)" style="fill: none; stroke: #1f77b4; stroke-width: 1.6; stroke-linejoin: miter"/>
   </g>
   <g id="patch_22">
    <path d="M 340.976147 233.67633 
L 363.910459 233.67633 
Q 368.005872 233.67633 368.005872 229.580917 
L 368.005872 214.837431 
Q 368.005872 210.742018 363.910459 210.742018 
L 340.976147 210.742018 
Q 336.880734 210.742018 336.880734 214.837431 
L 336.880734 229.580917 
Q 336.880734 233.67633 340.976147 233.67633 
z
" clip-path="url(#pa608a230e3)" style="fill: #1f77b4; opacity: 0.14; stroke: #1f77b4; stroke-width: 1.6; stroke-linejoin: miter"/>
   </g>
   <g id="patch_23">
    <path d="M 340.976147 233.67633 
L 363.910459 233.67633 
Q 368.005872 233.67633 368.005872 229.580917 
L 368.005872 214.837431 
Q 368.005872 210.742018 363.910459 210.742018 
L 340.976147 210.742018 
Q 336.880734 210.742018 336.880734 214.837431 
L 336.880734 229.580917 
Q 336.880734 233.67633 340.976147 233.67633 
L 340.976147 233.67633 
z
" clip-path="url(#pa608a230e3)" style="fill: none; stroke: #1f77b4; stroke-width: 1.6; stroke-linejoin: miter"/>
   </g>
   <g id="patch_24">
    <path d="M 374.558532 233.67633 
L 397.492844 233.67633 
Q 401.588257 233.67633 401.588257 229.580917 
L 401.588257 214.837431 
Q 401.588257 210.742018 397.492844 210.742018 
L 374.558532 210.742018 
Q 370.463119 210.742018 370.463119 214.837431 
L 370.463119 229.580917 
Q 370.463119 233.67633 374.558532 233.67633 
z
" clip-path="url(#pa608a230e3)" style="fill: #1f77b4; opacity: 0.14; stroke: #1f77b4; stroke-width: 1.6; stroke-linejoin: miter"/>
   </g>
   <g id="patch_25">
    <path d="M 374.558532 233.67633 
L 397.492844 233.67633 
Q 401.588257 233.67633 401.588257 229.580917 
L 401.588257 214.837431 
Q 401.588257 210.742018 397.492844 210.742018 
L 374.558532 210.742018 
Q 370.463119 210.742018 370.463119 214.837431 
L 370.463119 229.580917 
Q 370.463119 233.67633 374.558532 233.67633 
L 374.558532 233.67633 
z
" clip-path="url(#pa608a230e3)" style="fill: none; stroke: #1f77b4; stroke-width: 1.6; stroke-linejoin: miter"/>
   </g>
   <g id="patch_26">
    <path d="M 408.140917 233.67633 
L 431.075229 233.67633 
Q 435.170642 233.67633 435.170642 229.580917 
L 435.170642 214.837431 
Q 435.170642 210.742018 431.075229 210.742018 
L 408.140917 210.742018 
Q 404.045505 210.742018 404.045505 214.837431 
L 404.045505 229.580917 
Q 404.045505 233.67633 408.140917 233.67633 
z
" clip-path="url(#pa608a230e3)" style="fill: #1f77b4; opacity: 0.14; stroke: #1f77b4; stroke-width: 1.6; stroke-linejoin: miter"/>
   </g>
   <g id="patch_27">
    <path d="M 408.140917 233.67633 
L 431.075229 233.67633 
Q 435.170642 233.67633 435.170642 229.580917 
L 435.170642 214.837431 
Q 435.170642 210.742018 431.075229 210.742018 
L 408.140917 210.742018 
Q 404.045505 210.742018 404.045505 214.837431 
L 404.045505 229.580917 
Q 404.045505 233.67633 408.140917 233.67633 
L 408.140917 233.67633 
z
" clip-path="url(#pa608a230e3)" style="fill: none; stroke: #1f77b4; stroke-width: 1.6; stroke-linejoin: miter"/>
   </g>
   <g id="line2d_1">
    <path d="M 230.4 53.273394 
L 230.4 66.583486 
" clip-path="url(#pa608a230e3)" style="fill: none; stroke: #7f7f7f; stroke-width: 1.3; stroke-linecap: round"/>
   </g>
   <g id="line2d_2">
    <path d="M 74.774312 66.583486 
L 386.025688 66.583486 
" clip-path="url(#pa608a230e3)" style="fill: none; stroke: #7f7f7f; stroke-width: 1.3; stroke-linecap: round"/>
   </g>
   <g id="line2d_3">
    <path d="M 74.774312 66.583486 
L 74.774312 109.585321 
" clip-path="url(#pa608a230e3)" style="fill: none; stroke: #7f7f7f; stroke-width: 1.3; stroke-linecap: round"/>
   </g>
   <g id="line2d_4">
    <path d="M 230.4 66.583486 
L 230.4 109.585321 
" clip-path="url(#pa608a230e3)" style="fill: none; stroke: #7f7f7f; stroke-width: 1.3; stroke-linecap: round"/>
   </g>
   <g id="line2d_5">
    <path d="M 386.025688 66.583486 
L 386.025688 109.585321 
" clip-path="url(#pa608a230e3)" style="fill: none; stroke: #7f7f7f; stroke-width: 1.3; stroke-linecap: round"/>
   </g>
   <g id="line2d_6">
    <path d="M 74.774312 142.348624 
L 74.774312 179.207339 
" clip-path="url(#pa608a230e3)" style="fill: none; stroke: #7f7f7f; stroke-width: 1.3; stroke-linecap: round"/>
   </g>
   <g id="line2d_7">
    <path d="M 41.191927 179.207339 
L 108.356697 179.207339 
" clip-path="url(#pa608a230e3)" style="fill: none; stroke: #7f7f7f; stroke-width: 1.3; stroke-linecap: round"/>
   </g>
   <g id="line2d_8">
    <path d="M 41.191927 179.207339 
L 41.191927 211.561101 
" clip-path="url(#pa608a230e3)" style="fill: none; stroke: #7f7f7f; stroke-width: 1.3; stroke-linecap: round"/>
   </g>
   <g id="line2d_9">
    <path d="M 74.774312 179.207339 
L 74.774312 211.561101 
" clip-path="url(#pa608a230e3)" style="fill: none; stroke: #7f7f7f; stroke-width: 1.3; stroke-linecap: round"/>
   </g>
   <g id="line2d_10">
    <path d="M 108.356697 179.207339 
L 108.356697 211.561101 
" clip-path="url(#pa608a230e3)" style="fill: none; stroke: #7f7f7f; stroke-width: 1.3; stroke-linecap: round"/>
   </g>
   <g id="line2d_11">
    <path d="M 230.4 142.348624 
L 230.4 179.207339 
" clip-path="url(#pa608a230e3)" style="fill: none; stroke: #7f7f7f; stroke-width: 1.3; stroke-linecap: round"/>
   </g>
   <g id="line2d_12">
    <path d="M 196.817615 179.207339 
L 263.982385 179.207339 
" clip-path="url(#pa608a230e3)" style="fill: none; stroke: #7f7f7f; stroke-width: 1.3; stroke-linecap: round"/>
   </g>
   <g id="line2d_13">
    <path d="M 196.817615 179.207339 
L 196.817615 211.561101 
" clip-path="url(#pa608a230e3)" style="fill: none; stroke: #7f7f7f; stroke-width: 1.3; stroke-linecap: round"/>
   </g>
   <g id="line2d_14">
    <path d="M 230.4 179.207339 
L 230.4 211.561101 
" clip-path="url(#pa608a230e3)" style="fill: none; stroke: #7f7f7f; stroke-width: 1.3; stroke-linecap: round"/>
   </g>
   <g id="line2d_15">
    <path d="M 263.982385 179.207339 
L 263.982385 211.561101 
" clip-path="url(#pa608a230e3)" style="fill: none; stroke: #7f7f7f; stroke-width: 1.3; stroke-linecap: round"/>
   </g>
   <g id="line2d_16">
    <path d="M 386.025688 142.348624 
L 386.025688 179.207339 
" clip-path="url(#pa608a230e3)" style="fill: none; stroke: #7f7f7f; stroke-width: 1.3; stroke-linecap: round"/>
   </g>
   <g id="line2d_17">
    <path d="M 352.443303 179.207339 
L 419.608073 179.207339 
" clip-path="url(#pa608a230e3)" style="fill: none; stroke: #7f7f7f; stroke-width: 1.3; stroke-linecap: round"/>
   </g>
   <g id="line2d_18">
    <path d="M 352.443303 179.207339 
L 352.443303 211.561101 
" clip-path="url(#pa608a230e3)" style="fill: none; stroke: #7f7f7f; stroke-width: 1.3; stroke-linecap: round"/>
   </g>
   <g id="line2d_19">
    <path d="M 386.025688 179.207339 
L 386.025688 211.561101 
" clip-path="url(#pa608a230e3)" style="fill: none; stroke: #7f7f7f; stroke-width: 1.3; stroke-linecap: round"/>
   </g>
   <g id="line2d_20">
    <path d="M 419.608073 179.207339 
L 419.608073 211.561101 
" clip-path="url(#pa608a230e3)" style="fill: none; stroke: #7f7f7f; stroke-width: 1.3; stroke-linecap: round"/>
   </g>
   <g id="text_1">
    <!-- model -->
    <g style="fill: #ff7f0e" transform="translate(206.138438 39.731015) scale(0.14 -0.14)">
     <defs>
      <path id="DejaVuSans-Bold-6d" d="M 3781 2919 
Q 3994 3244 4286 3414 
Q 4578 3584 4928 3584 
Q 5531 3584 5847 3212 
Q 6163 2841 6163 2131 
L 6163 0 
L 5038 0 
L 5038 1825 
Q 5041 1866 5042 1909 
Q 5044 1953 5044 2034 
Q 5044 2406 4934 2573 
Q 4825 2741 4581 2741 
Q 4263 2741 4089 2478 
Q 3916 2216 3909 1719 
L 3909 0 
L 2784 0 
L 2784 1825 
Q 2784 2406 2684 2573 
Q 2584 2741 2328 2741 
Q 2006 2741 1831 2477 
Q 1656 2213 1656 1722 
L 1656 0 
L 531 0 
L 531 3500 
L 1656 3500 
L 1656 2988 
Q 1863 3284 2130 3434 
Q 2397 3584 2719 3584 
Q 3081 3584 3359 3409 
Q 3638 3234 3781 2919 
z
" transform="scale(0.015625)"/>
      <path id="DejaVuSans-Bold-6f" d="M 2203 2784 
Q 1831 2784 1636 2517 
Q 1441 2250 1441 1747 
Q 1441 1244 1636 976 
Q 1831 709 2203 709 
Q 2569 709 2762 976 
Q 2956 1244 2956 1747 
Q 2956 2250 2762 2517 
Q 2569 2784 2203 2784 
z
M 2203 3584 
Q 3106 3584 3614 3096 
Q 4122 2609 4122 1747 
Q 4122 884 3614 396 
Q 3106 -91 2203 -91 
Q 1297 -91 786 396 
Q 275 884 275 1747 
Q 275 2609 786 3096 
Q 1297 3584 2203 3584 
z
" transform="scale(0.015625)"/>
      <path id="DejaVuSans-Bold-64" d="M 2919 2988 
L 2919 4863 
L 4044 4863 
L 4044 0 
L 2919 0 
L 2919 506 
Q 2688 197 2409 53 
Q 2131 -91 1766 -91 
Q 1119 -91 703 423 
Q 288 938 288 1747 
Q 288 2556 703 3070 
Q 1119 3584 1766 3584 
Q 2128 3584 2408 3439 
Q 2688 3294 2919 2988 
z
M 2181 722 
Q 2541 722 2730 984 
Q 2919 1247 2919 1747 
Q 2919 2247 2730 2509 
Q 2541 2772 2181 2772 
Q 1825 2772 1636 2509 
Q 1447 2247 1447 1747 
Q 1447 1247 1636 984 
Q 1825 722 2181 722 
z
" transform="scale(0.015625)"/>
      <path id="DejaVuSans-Bold-65" d="M 4031 1759 
L 4031 1441 
L 1416 1441 
Q 1456 1047 1700 850 
Q 1944 653 2381 653 
Q 2734 653 3104 758 
Q 3475 863 3866 1075 
L 3866 213 
Q 3469 63 3072 -14 
Q 2675 -91 2278 -91 
Q 1328 -91 801 392 
Q 275 875 275 1747 
Q 275 2603 792 3093 
Q 1309 3584 2216 3584 
Q 3041 3584 3536 3087 
Q 4031 2591 4031 1759 
z
M 2881 2131 
Q 2881 2450 2695 2645 
Q 2509 2841 2209 2841 
Q 1884 2841 1681 2658 
Q 1478 2475 1428 2131 
L 2881 2131 
z
" transform="scale(0.015625)"/>
      <path id="DejaVuSans-Bold-6c" d="M 538 4863 
L 1656 4863 
L 1656 0 
L 538 0 
L 538 4863 
z
" transform="scale(0.015625)"/>
     </defs>
     <use xlink:href="#DejaVuSans-Bold-6d"/>
     <use xlink:href="#DejaVuSans-Bold-6f" transform="translate(104.199219 0)"/>
     <use xlink:href="#DejaVuSans-Bold-64" transform="translate(172.900391 0)"/>
     <use xlink:href="#DejaVuSans-Bold-65" transform="translate(244.482422 0)"/>
     <use xlink:href="#DejaVuSans-Bold-6c" transform="translate(312.304688 0)"/>
    </g>
   </g>
   <g id="text_2">
    <!-- block -->
    <g style="fill: #2ca02c" transform="translate(56.002828 129.416191) scale(0.125 -0.125)">
     <defs>
      <path id="DejaVuSans-Bold-62" d="M 2400 722 
Q 2759 722 2948 984 
Q 3138 1247 3138 1747 
Q 3138 2247 2948 2509 
Q 2759 2772 2400 2772 
Q 2041 2772 1848 2508 
Q 1656 2244 1656 1747 
Q 1656 1250 1848 986 
Q 2041 722 2400 722 
z
M 1656 2988 
Q 1888 3294 2169 3439 
Q 2450 3584 2816 3584 
Q 3463 3584 3878 3070 
Q 4294 2556 4294 1747 
Q 4294 938 3878 423 
Q 3463 -91 2816 -91 
Q 2450 -91 2169 54 
Q 1888 200 1656 506 
L 1656 0 
L 538 0 
L 538 4863 
L 1656 4863 
L 1656 2988 
z
" transform="scale(0.015625)"/>
      <path id="DejaVuSans-Bold-63" d="M 3366 3391 
L 3366 2478 
Q 3138 2634 2908 2709 
Q 2678 2784 2431 2784 
Q 1963 2784 1702 2511 
Q 1441 2238 1441 1747 
Q 1441 1256 1702 982 
Q 1963 709 2431 709 
Q 2694 709 2930 787 
Q 3166 866 3366 1019 
L 3366 103 
Q 3103 6 2833 -42 
Q 2563 -91 2291 -91 
Q 1344 -91 809 395 
Q 275 881 275 1747 
Q 275 2613 809 3098 
Q 1344 3584 2291 3584 
Q 2566 3584 2833 3536 
Q 3100 3488 3366 3391 
z
" transform="scale(0.015625)"/>
      <path id="DejaVuSans-Bold-6b" d="M 538 4863 
L 1656 4863 
L 1656 2216 
L 2944 3500 
L 4244 3500 
L 2534 1894 
L 4378 0 
L 3022 0 
L 1656 1459 
L 1656 0 
L 538 0 
L 538 4863 
z
" transform="scale(0.015625)"/>
     </defs>
     <use xlink:href="#DejaVuSans-Bold-62"/>
     <use xlink:href="#DejaVuSans-Bold-6c" transform="translate(71.582031 0)"/>
     <use xlink:href="#DejaVuSans-Bold-6f" transform="translate(105.859375 0)"/>
     <use xlink:href="#DejaVuSans-Bold-63" transform="translate(174.560547 0)"/>
     <use xlink:href="#DejaVuSans-Bold-6b" transform="translate(233.837891 0)"/>
    </g>
   </g>
   <g id="text_3">
    <!-- block -->
    <g style="fill: #2ca02c" transform="translate(211.628516 129.416191) scale(0.125 -0.125)">
     <use xlink:href="#DejaVuSans-Bold-62"/>
     <use xlink:href="#DejaVuSans-Bold-6c" transform="translate(71.582031 0)"/>
     <use xlink:href="#DejaVuSans-Bold-6f" transform="translate(105.859375 0)"/>
     <use xlink:href="#DejaVuSans-Bold-63" transform="translate(174.560547 0)"/>
     <use xlink:href="#DejaVuSans-Bold-6b" transform="translate(233.837891 0)"/>
    </g>
   </g>
   <g id="text_4">
    <!-- block -->
    <g style="fill: #2ca02c" transform="translate(367.254204 129.416191) scale(0.125 -0.125)">
     <use xlink:href="#DejaVuSans-Bold-62"/>
     <use xlink:href="#DejaVuSans-Bold-6c" transform="translate(71.582031 0)"/>
     <use xlink:href="#DejaVuSans-Bold-6f" transform="translate(105.859375 0)"/>
     <use xlink:href="#DejaVuSans-Bold-63" transform="translate(174.560547 0)"/>
     <use xlink:href="#DejaVuSans-Bold-6b" transform="translate(233.837891 0)"/>
    </g>
   </g>
   <g id="text_5">
    <!-- layer -->
    <g style="fill: #1f77b4" transform="translate(27.143489 224.929487) scale(0.1 -0.1)">
     <defs>
      <path id="DejaVuSans-Bold-61" d="M 2106 1575 
Q 1756 1575 1579 1456 
Q 1403 1338 1403 1106 
Q 1403 894 1545 773 
Q 1688 653 1941 653 
Q 2256 653 2472 879 
Q 2688 1106 2688 1447 
L 2688 1575 
L 2106 1575 
z
M 3816 1997 
L 3816 0 
L 2688 0 
L 2688 519 
Q 2463 200 2181 54 
Q 1900 -91 1497 -91 
Q 953 -91 614 226 
Q 275 544 275 1050 
Q 275 1666 698 1953 
Q 1122 2241 2028 2241 
L 2688 2241 
L 2688 2328 
Q 2688 2594 2478 2717 
Q 2269 2841 1825 2841 
Q 1466 2841 1156 2769 
Q 847 2697 581 2553 
L 581 3406 
Q 941 3494 1303 3539 
Q 1666 3584 2028 3584 
Q 2975 3584 3395 3211 
Q 3816 2838 3816 1997 
z
" transform="scale(0.015625)"/>
      <path id="DejaVuSans-Bold-79" d="M 78 3500 
L 1197 3500 
L 2138 1125 
L 2938 3500 
L 4056 3500 
L 2584 -331 
Q 2363 -916 2067 -1148 
Q 1772 -1381 1288 -1381 
L 641 -1381 
L 641 -647 
L 991 -647 
Q 1275 -647 1404 -556 
Q 1534 -466 1606 -231 
L 1638 -134 
L 78 3500 
z
" transform="scale(0.015625)"/>
      <path id="DejaVuSans-Bold-72" d="M 3138 2547 
Q 2991 2616 2845 2648 
Q 2700 2681 2553 2681 
Q 2122 2681 1889 2404 
Q 1656 2128 1656 1613 
L 1656 0 
L 538 0 
L 538 3500 
L 1656 3500 
L 1656 2925 
Q 1872 3269 2151 3426 
Q 2431 3584 2822 3584 
Q 2878 3584 2943 3579 
Q 3009 3575 3134 3559 
L 3138 2547 
z
" transform="scale(0.015625)"/>
     </defs>
     <use xlink:href="#DejaVuSans-Bold-6c"/>
     <use xlink:href="#DejaVuSans-Bold-61" transform="translate(34.277344 0)"/>
     <use xlink:href="#DejaVuSans-Bold-79" transform="translate(98.632812 0)"/>
     <use xlink:href="#DejaVuSans-Bold-65" transform="translate(163.818359 0)"/>
     <use xlink:href="#DejaVuSans-Bold-72" transform="translate(231.640625 0)"/>
    </g>
   </g>
   <g id="text_6">
    <!-- layer -->
    <g style="fill: #1f77b4" transform="translate(60.725874 224.929487) scale(0.1 -0.1)">
     <use xlink:href="#DejaVuSans-Bold-6c"/>
     <use xlink:href="#DejaVuSans-Bold-61" transform="translate(34.277344 0)"/>
     <use xlink:href="#DejaVuSans-Bold-79" transform="translate(98.632812 0)"/>
     <use xlink:href="#DejaVuSans-Bold-65" transform="translate(163.818359 0)"/>
     <use xlink:href="#DejaVuSans-Bold-72" transform="translate(231.640625 0)"/>
    </g>
   </g>
   <g id="text_7">
    <!-- layer -->
    <g style="fill: #1f77b4" transform="translate(94.30826 224.929487) scale(0.1 -0.1)">
     <use xlink:href="#DejaVuSans-Bold-6c"/>
     <use xlink:href="#DejaVuSans-Bold-61" transform="translate(34.277344 0)"/>
     <use xlink:href="#DejaVuSans-Bold-79" transform="translate(98.632812 0)"/>
     <use xlink:href="#DejaVuSans-Bold-65" transform="translate(163.818359 0)"/>
     <use xlink:href="#DejaVuSans-Bold-72" transform="translate(231.640625 0)"/>
    </g>
   </g>
   <g id="text_8">
    <!-- layer -->
    <g style="fill: #1f77b4" transform="translate(182.769177 224.929487) scale(0.1 -0.1)">
     <use xlink:href="#DejaVuSans-Bold-6c"/>
     <use xlink:href="#DejaVuSans-Bold-61" transform="translate(34.277344 0)"/>
     <use xlink:href="#DejaVuSans-Bold-79" transform="translate(98.632812 0)"/>
     <use xlink:href="#DejaVuSans-Bold-65" transform="translate(163.818359 0)"/>
     <use xlink:href="#DejaVuSans-Bold-72" transform="translate(231.640625 0)"/>
    </g>
   </g>
   <g id="text_9">
    <!-- layer -->
    <g style="fill: #1f77b4" transform="translate(216.351562 224.929487) scale(0.1 -0.1)">
     <use xlink:href="#DejaVuSans-Bold-6c"/>
     <use xlink:href="#DejaVuSans-Bold-61" transform="translate(34.277344 0)"/>
     <use xlink:href="#DejaVuSans-Bold-79" transform="translate(98.632812 0)"/>
     <use xlink:href="#DejaVuSans-Bold-65" transform="translate(163.818359 0)"/>
     <use xlink:href="#DejaVuSans-Bold-72" transform="translate(231.640625 0)"/>
    </g>
   </g>
   <g id="text_10">
    <!-- layer -->
    <g style="fill: #1f77b4" transform="translate(249.933948 224.929487) scale(0.1 -0.1)">
     <use xlink:href="#DejaVuSans-Bold-6c"/>
     <use xlink:href="#DejaVuSans-Bold-61" transform="translate(34.277344 0)"/>
     <use xlink:href="#DejaVuSans-Bold-79" transform="translate(98.632812 0)"/>
     <use xlink:href="#DejaVuSans-Bold-65" transform="translate(163.818359 0)"/>
     <use xlink:href="#DejaVuSans-Bold-72" transform="translate(231.640625 0)"/>
    </g>
   </g>
   <g id="text_11">
    <!-- layer -->
    <g style="fill: #1f77b4" transform="translate(338.394865 224.929487) scale(0.1 -0.1)">
     <use xlink:href="#DejaVuSans-Bold-6c"/>
     <use xlink:href="#DejaVuSans-Bold-61" transform="translate(34.277344 0)"/>
     <use xlink:href="#DejaVuSans-Bold-79" transform="translate(98.632812 0)"/>
     <use xlink:href="#DejaVuSans-Bold-65" transform="translate(163.818359 0)"/>
     <use xlink:href="#DejaVuSans-Bold-72" transform="translate(231.640625 0)"/>
    </g>
   </g>
   <g id="text_12">
    <!-- layer -->
    <g style="fill: #1f77b4" transform="translate(371.977251 224.929487) scale(0.1 -0.1)">
     <use xlink:href="#DejaVuSans-Bold-6c"/>
     <use xlink:href="#DejaVuSans-Bold-61" transform="translate(34.277344 0)"/>
     <use xlink:href="#DejaVuSans-Bold-79" transform="translate(98.632812 0)"/>
     <use xlink:href="#DejaVuSans-Bold-65" transform="translate(163.818359 0)"/>
     <use xlink:href="#DejaVuSans-Bold-72" transform="translate(231.640625 0)"/>
    </g>
   </g>
   <g id="text_13">
    <!-- layer -->
    <g style="fill: #1f77b4" transform="translate(405.559636 224.929487) scale(0.1 -0.1)">
     <use xlink:href="#DejaVuSans-Bold-6c"/>
     <use xlink:href="#DejaVuSans-Bold-61" transform="translate(34.277344 0)"/>
     <use xlink:href="#DejaVuSans-Bold-79" transform="translate(98.632812 0)"/>
     <use xlink:href="#DejaVuSans-Bold-65" transform="translate(163.818359 0)"/>
     <use xlink:href="#DejaVuSans-Bold-72" transform="translate(231.640625 0)"/>
    </g>
   </g>
  </g>
 </g>
 <defs>
  <clipPath id="pa608a230e3">
   <rect x="7.2" y="7.2" width="446.4" height="237.533945"/>
  </clipPath>
 </defs>
</svg>
