<?xml version="1.0" encoding="utf-8" standalone="no"?>
<!DOCTYPE svg PUBLIC "-//W3C//DTD SVG 1.1//EN"
  "http://www.w3.org/Graphics/SVG/1.1/DTD/svg11.dtd">
<svg xmlns:xlink="http://www.w3.org/1999/xlink" width="624.697735pt" height="252.792pt" viewBox="0 0 624.697735 252.792" xmlns="http://www.w3.org/2000/svg" version="1.1">
 <metadata>
  <rdf:RDF xmlns:dc="http://purl.org/dc/elements/1.1/" xmlns:cc="http://creativecommons.org/ns#" xmlns:rdf="http://www.w3.org/1999/02/22-rdf-syntax-ns#">
   <cc:Work>
    <dc:type rdf:resource="http://purl.org/dc/dcmitype/StillImage"/>
    <dc:format>image/svg+xml</dc:format>
    <dc:creator>
     <cc:Agent>
      <dc:title>Matplotlib v3.10.8, https://matplotlib.org/</dc:title>
     </cc:Agent>
    </dc:creator>
   </cc:Work>
  </rdf:RDF>
 </metadata>
 <defs>
  <style type="text/css">*{stroke-linejoin: round; stroke-linecap: butt}</style>
 </defs>
 <g id="figure_1">
  <g id="patch_1">
   <path d="M 0 252.792 
L 624.697735 252.792 
L 624.697735 0 
L 0 0 
z
" style="fill: #ffffff"/>
  </g>
  <g id="axes_1">
   <g id="line2d_1">
    <path d="M 45.856406 72.005592 
L 45.856406 141.440155 
" clip-path="url(#pffb28c312a)" style="fill: none; stroke: #7f7f7f; stroke-width: 0.9; stroke-linecap: square"/>
   </g>
   <g id="line2d_2">
    <path d="M 173.153105 118.295301 
L 173.153105 141.440155 
" clip-path="url(#pffb28c312a)" style="fill: none; stroke: #7f7f7f; stroke-width: 0.9; stroke-linecap: square"/>
   </g>
   <g id="line2d_3">
    <path d="M 423.117532 72.005592 
L 423.117532 141.440155 
" clip-path="url(#pffb28c312a)" style="fill: none; stroke: #7f7f7f; stroke-width: 0.9; stroke-linecap: square"/>
   </g>
   <g id="line2d_4">
    <path d="M 556.200445 35.899619 
L 502.96728 141.440155 
" clip-path="url(#pffb28c312a)" style="fill: none; stroke: #7f7f7f; stroke-width: 0.9; stroke-linecap: square"/>
   </g>
   <g id="patch_2">
    <path d="M 29.655008 187.729864 
L 62.057804 187.729864 
L 62.057804 141.440155 
L 29.655008 141.440155 
z
" clip-path="url(#pffb28c312a)" style="fill: #7f7f7f; opacity: 0.35; stroke: #000000; stroke-width: 1.3; stroke-linejoin: miter"/>
   </g>
   <g id="patch_3">
    <path d="M 62.057804 187.729864 
L 284.248406 187.729864 
L 284.248406 141.440155 
L 62.057804 141.440155 
z
" clip-path="url(#pffb28c312a)" style="fill: #ff7f0e; opacity: 0.15; stroke: #000000; stroke-width: 1.3; stroke-linejoin: miter"/>
   </g>
   <g id="patch_4">
    <path d="M 284.248406 187.729864 
L 353.682969 187.729864 
L 353.682969 141.440155 
L 284.248406 141.440155 
z
" clip-path="url(#pffb28c312a)" style="fill: #1f77b4; opacity: 0.1; stroke: #000000; stroke-width: 1.3; stroke-linejoin: miter"/>
   </g>
   <g id="patch_5">
    <path d="M 353.682969 187.729864 
L 492.552096 187.729864 
L 492.552096 141.440155 
L 353.682969 141.440155 
z
" clip-path="url(#pffb28c312a)" style="fill: #1f77b4; opacity: 0.55; stroke: #000000; stroke-width: 1.3; stroke-linejoin: miter"/>
   </g>
   <g id="patch_6">
    <path d="M 492.552096 187.729864 
L 513.382465 187.729864 
L 513.382465 141.440155 
L 492.552096 141.440155 
z
" clip-path="url(#pffb28c312a)" style="fill: #2ca02c; opacity: 0.55; stroke: #000000; stroke-width: 1.3; stroke-linejoin: miter"/>
   </g>
   <g id="patch_7">
    <path d="M 513.382465 187.729864 
L 599.018426 187.729864 
L 599.018426 141.440155 
L 513.382465 141.440155 
z
" clip-path="url(#pffb28c312a)" style="fill: #1f77b4; opacity: 0.1; stroke: #000000; stroke-width: 1.3; stroke-linejoin: miter"/>
   </g>
   <g id="text_1">
    <!-- 8 bytes: -->
    <g transform="translate(23.60375 42.768263) scale(0.11 -0.11)">
     <defs>
      <path id="DejaVuSans-38" d="M 2034 2216 
Q 1584 2216 1326 1975 
Q 1069 1734 1069 1313 
Q 1069 891 1326 650 
Q 1584 409 2034 409 
Q 2484 409 2743 651 
Q 3003 894 3003 1313 
Q 3003 1734 2745 1975 
Q 2488 2216 2034 2216 
z
M 1403 2484 
Q 997 2584 770 2862 
Q 544 3141 544 3541 
Q 544 4100 942 4425 
Q 1341 4750 2034 4750 
Q 2731 4750 3128 4425 
Q 3525 4100 3525 3541 
Q 3525 3141 3298 2862 
Q 3072 2584 2669 2484 
Q 3125 2378 3379 2068 
Q 3634 1759 3634 1313 
Q 3634 634 3220 271 
Q 2806 -91 2034 -91 
Q 1263 -91 848 271 
Q 434 634 434 1313 
Q 434 1759 690 2068 
Q 947 2378 1403 2484 
z
M 1172 3481 
Q 1172 3119 1398 2916 
Q 1625 2713 2034 2713 
Q 2441 2713 2670 2916 
Q 2900 3119 2900 3481 
Q 2900 3844 2670 4047 
Q 2441 4250 2034 4250 
Q 1625 4250 1398 4047 
Q 1172 3844 1172 3481 
z
" transform="scale(0.015625)"/>
      <path id="DejaVuSans-20" transform="scale(0.015625)"/>
      <path id="DejaVuSans-62" d="M 3116 1747 
Q 3116 2381 2855 2742 
Q 2594 3103 2138 3103 
Q 1681 3103 1420 2742 
Q 1159 2381 1159 1747 
Q 1159 1113 1420 752 
Q 1681 391 2138 391 
Q 2594 391 2855 752 
Q 3116 1113 3116 1747 
z
M 1159 2969 
Q 1341 3281 1617 3432 
Q 1894 3584 2278 3584 
Q 2916 3584 3314 3078 
Q 3713 2572 3713 1747 
Q 3713 922 3314 415 
Q 2916 -91 2278 -91 
Q 1894 -91 1617 61 
Q 1341 213 1159 525 
L 1159 0 
L 581 0 
L 581 4863 
L 1159 4863 
L 1159 2969 
z
" transform="scale(0.015625)"/>
      <path id="DejaVuSans-79" d="M 2059 -325 
Q 1816 -950 1584 -1140 
Q 1353 -1331 966 -1331 
L 506 -1331 
L 506 -850 
L 844 -850 
Q 1081 -850 1212 -737 
Q 1344 -625 1503 -206 
L 1606 56 
L 191 3500 
L 800 3500 
L 1894 763 
L 2988 3500 
L 3597 3500 
L 2059 -325 
z
" transform="scale(0.015625)"/>
      <path id="DejaVuSans-74" d="M 1172 4494 
L 1172 3500 
L 2356 3500 
L 2356 3053 
L 1172 3053 
L 1172 1153 
Q 1172 725 1289 603 
Q 1406 481 1766 481 
L 2356 481 
L 2356 0 
L 1766 0 
Q 1100 0 847 248 
Q 594 497 594 1153 
L 594 3053 
L 172 3053 
L 172 3500 
L 594 3500 
L 594 4494 
L 1172 4494 
z
" transform="scale(0.015625)"/>
      <path id="DejaVuSans-65" d="M 3597 1894 
L 3597 1613 
L 953 1613 
Q 991 1019 1311 708 
Q 1631 397 2203 397 
Q 2534 397 2845 478 
Q 3156 559 3463 722 
L 3463 178 
Q 3153 47 2828 -22 
Q 2503 -91 2169 -91 
Q 1331 -91 842 396 
Q 353 884 353 1716 
Q 353 2575 817 3079 
Q 1281 3584 2069 3584 
Q 2775 3584 3186 3129 
Q 3597 2675 3597 1894 
z
M 3022 2063 
Q 3016 2534 2758 2815 
Q 2500 3097 2075 3097 
Q 1594 3097 1305 2825 
Q 1016 2553 972 2059 
L 3022 2063 
z
" transform="scale(0.015625)"/>
      <path id="DejaVuSans-73" d="M 2834 3397 
L 2834 2853 
Q 2591 2978 2328 3040 
Q 2066 3103 1784 3103 
Q 1356 3103 1142 2972 
Q 928 2841 928 2578 
Q 928 2378 1081 2264 
Q 1234 2150 1697 2047 
L 1894 2003 
Q 2506 1872 2764 1633 
Q 3022 1394 3022 966 
Q 3022 478 2636 193 
Q 2250 -91 1575 -91 
Q 1294 -91 989 -36 
Q 684 19 347 128 
L 347 722 
Q 666 556 975 473 
Q 1284 391 1588 391 
Q 1994 391 2212 530 
Q 2431 669 2431 922 
Q 2431 1156 2273 1281 
Q 2116 1406 1581 1522 
L 1381 1569 
Q 847 1681 609 1914 
Q 372 2147 372 2553 
Q 372 3047 722 3315 
Q 1072 3584 1716 3584 
Q 2034 3584 2315 3537 
Q 2597 3491 2834 3397 
z
" transform="scale(0.015625)"/>
      <path id="DejaVuSans-3a" d="M 750 794 
L 1409 794 
L 1409 0 
L 750 0 
L 750 794 
z
M 750 3309 
L 1409 3309 
L 1409 2516 
L 750 2516 
L 750 3309 
z
" transform="scale(0.015625)"/>
     </defs>
     <use xlink:href="#DejaVuSans-38"/>
     <use xlink:href="#DejaVuSans-20" transform="translate(63.623047 0)"/>
     <use xlink:href="#DejaVuSans-62" transform="translate(95.410156 0)"/>
     <use xlink:href="#DejaVuSans-79" transform="translate(158.886719 0)"/>
     <use xlink:href="#DejaVuSans-74" transform="translate(218.066406 0)"/>
     <use xlink:href="#DejaVuSans-65" transform="translate(257.275391 0)"/>
     <use xlink:href="#DejaVuSans-73" transform="translate(318.798828 0)"/>
     <use xlink:href="#DejaVuSans-3a" transform="translate(370.898438 0)"/>
    </g>
    <!-- header length -->
    <g transform="translate(7.2 55.085857) scale(0.11 -0.11)">
     <defs>
      <path id="DejaVuSans-68" d="M 3513 2113 
L 3513 0 
L 2938 0 
L 2938 2094 
Q 2938 2591 2744 2837 
Q 2550 3084 2163 3084 
Q 1697 3084 1428 2787 
Q 1159 2491 1159 1978 
L 1159 0 
L 581 0 
L 581 4863 
L 1159 4863 
L 1159 2956 
Q 1366 3272 1645 3428 
Q 1925 3584 2291 3584 
Q 2894 3584 3203 3211 
Q 3513 2838 3513 2113 
z
" transform="scale(0.015625)"/>
      <path id="DejaVuSans-61" d="M 2194 1759 
Q 1497 1759 1228 1600 
Q 959 1441 959 1056 
Q 959 750 1161 570 
Q 1363 391 1709 391 
Q 2188 391 2477 730 
Q 2766 1069 2766 1631 
L 2766 1759 
L 2194 1759 
z
M 3341 1997 
L 3341 0 
L 2766 0 
L 2766 531 
Q 2569 213 2275 61 
Q 1981 -91 1556 -91 
Q 1019 -91 701 211 
Q 384 513 384 1019 
Q 384 1609 779 1909 
Q 1175 2209 1959 2209 
L 2766 2209 
L 2766 2266 
Q 2766 2663 2505 2880 
Q 2244 3097 1772 3097 
Q 1472 3097 1187 3025 
Q 903 2953 641 2809 
L 641 3341 
Q 956 3463 1253 3523 
Q 1550 3584 1831 3584 
Q 2591 3584 2966 3190 
Q 3341 2797 3341 1997 
z
" transform="scale(0.015625)"/>
      <path id="DejaVuSans-64" d="M 2906 2969 
L 2906 4863 
L 3481 4863 
L 3481 0 
L 2906 0 
L 2906 525 
Q 2725 213 2448 61 
Q 2172 -91 1784 -91 
Q 1150 -91 751 415 
Q 353 922 353 1747 
Q 353 2572 751 3078 
Q 1150 3584 1784 3584 
Q 2172 3584 2448 3432 
Q 2725 3281 2906 2969 
z
M 947 1747 
Q 947 1113 1208 752 
Q 1469 391 1925 391 
Q 2381 391 2643 752 
Q 2906 1113 2906 1747 
Q 2906 2381 2643 2742 
Q 2381 3103 1925 3103 
Q 1469 3103 1208 2742 
Q 947 2381 947 1747 
z
" transform="scale(0.015625)"/>
      <path id="DejaVuSans-72" d="M 2631 2963 
Q 2534 3019 2420 3045 
Q 2306 3072 2169 3072 
Q 1681 3072 1420 2755 
Q 1159 2438 1159 1844 
L 1159 0 
L 581 0 
L 581 3500 
L 1159 3500 
L 1159 2956 
Q 1341 3275 1631 3429 
Q 1922 3584 2338 3584 
Q 2397 3584 2469 3576 
Q 2541 3569 2628 3553 
L 2631 2963 
z
" transform="scale(0.015625)"/>
      <path id="DejaVuSans-6c" d="M 603 4863 
L 1178 4863 
L 1178 0 
L 603 0 
L 603 4863 
z
" transform="scale(0.015625)"/>
      <path id="DejaVuSans-6e" d="M 3513 2113 
L 3513 0 
L 2938 0 
L 2938 2094 
Q 2938 2591 2744 2837 
Q 2550 3084 2163 3084 
Q 1697 3084 1428 2787 
Q 1159 2491 1159 1978 
L 1159 0 
L 581 0 
L 581 3500 
L 1159 3500 
L 1159 2956 
Q 1366 3272 1645 3428 
Q 1925 3584 2291 3584 
Q 2894 3584 3203 3211 
Q 3513 2838 3513 2113 
z
" transform="scale(0.015625)"/>
      <path id="DejaVuSans-67" d="M 2906 1791 
Q 2906 2416 2648 2759 
Q 2391 3103 1925 3103 
Q 1463 3103 1205 2759 
Q 947 2416 947 1791 
Q 947 1169 1205 825 
Q 1463 481 1925 481 
Q 2391 481 2648 825 
Q 2906 1169 2906 1791 
z
M 3481 434 
Q 3481 -459 3084 -895 
Q 2688 -1331 1869 -1331 
Q 1566 -1331 1297 -1286 
Q 1028 -1241 775 -1147 
L 775 -588 
Q 1028 -725 1275 -790 
Q 1522 -856 1778 -856 
Q 2344 -856 2625 -561 
Q 2906 -266 2906 331 
L 2906 616 
Q 2728 306 2450 153 
Q 2172 0 1784 0 
Q 1141 0 747 490 
Q 353 981 353 1791 
Q 353 2603 747 3093 
Q 1141 3584 1784 3584 
Q 2172 3584 2450 3431 
Q 2728 3278 2906 2969 
L 2906 3500 
L 3481 3500 
L 3481 434 
z
" transform="scale(0.015625)"/>
     </defs>
     <use xlink:href="#DejaVuSans-68"/>
     <use xlink:href="#DejaVuSans-65" transform="translate(63.378906 0)"/>
     <use xlink:href="#DejaVuSans-61" transform="translate(124.902344 0)"/>
     <use xlink:href="#DejaVuSans-64" transform="translate(186.181641 0)"/>
     <use xlink:href="#DejaVuSans-65" transform="translate(249.658203 0)"/>
     <use xlink:href="#DejaVuSans-72" transform="translate(311.181641 0)"/>
     <use xlink:href="#DejaVuSans-20" transform="translate(352.294922 0)"/>
     <use xlink:href="#DejaVuSans-6c" transform="translate(384.082031 0)"/>
     <use xlink:href="#DejaVuSans-65" transform="translate(411.865234 0)"/>
     <use xlink:href="#DejaVuSans-6e" transform="translate(473.388672 0)"/>
     <use xlink:href="#DejaVuSans-67" transform="translate(536.767578 0)"/>
     <use xlink:href="#DejaVuSans-74" transform="translate(600.244141 0)"/>
     <use xlink:href="#DejaVuSans-68" transform="translate(639.453125 0)"/>
    </g>
    <!-- (LE u64) -->
    <g transform="translate(22.7925 67.403451) scale(0.11 -0.11)">
     <defs>
      <path id="DejaVuSans-28" d="M 1984 4856 
Q 1566 4138 1362 3434 
Q 1159 2731 1159 2009 
Q 1159 1288 1364 580 
Q 1569 -128 1984 -844 
L 1484 -844 
Q 1016 -109 783 600 
Q 550 1309 550 2009 
Q 550 2706 781 3412 
Q 1013 4119 1484 4856 
L 1984 4856 
z
" transform="scale(0.015625)"/>
      <path id="DejaVuSans-4c" d="M 628 4666 
L 1259 4666 
L 1259 531 
L 3531 531 
L 3531 0 
L 628 0 
L 628 4666 
z
" transform="scale(0.015625)"/>
      <path id="DejaVuSans-45" d="M 628 4666 
L 3578 4666 
L 3578 4134 
L 1259 4134 
L 1259 2753 
L 3481 2753 
L 3481 2222 
L 1259 2222 
L 1259 531 
L 3634 531 
L 3634 0 
L 628 0 
L 628 4666 
z
" transform="scale(0.015625)"/>
      <path id="DejaVuSans-75" d="M 544 1381 
L 544 3500 
L 1119 3500 
L 1119 1403 
Q 1119 906 1312 657 
Q 1506 409 1894 409 
Q 2359 409 2629 706 
Q 2900 1003 2900 1516 
L 2900 3500 
L 3475 3500 
L 3475 0 
L 2900 0 
L 2900 538 
Q 2691 219 2414 64 
Q 2138 -91 1772 -91 
Q 1169 -91 856 284 
Q 544 659 544 1381 
z
M 1991 3584 
L 1991 3584 
z
" transform="scale(0.015625)"/>
      <path id="DejaVuSans-36" d="M 2113 2584 
Q 1688 2584 1439 2293 
Q 1191 2003 1191 1497 
Q 1191 994 1439 701 
Q 1688 409 2113 409 
Q 2538 409 2786 701 
Q 3034 994 3034 1497 
Q 3034 2003 2786 2293 
Q 2538 2584 2113 2584 
z
M 3366 4563 
L 3366 3988 
Q 3128 4100 2886 4159 
Q 2644 4219 2406 4219 
Q 1781 4219 1451 3797 
Q 1122 3375 1075 2522 
Q 1259 2794 1537 2939 
Q 1816 3084 2150 3084 
Q 2853 3084 3261 2657 
Q 3669 2231 3669 1497 
Q 3669 778 3244 343 
Q 2819 -91 2113 -91 
Q 1303 -91 875 529 
Q 447 1150 447 2328 
Q 447 3434 972 4092 
Q 1497 4750 2381 4750 
Q 2619 4750 2861 4703 
Q 3103 4656 3366 4563 
z
" transform="scale(0.015625)"/>
      <path id="DejaVuSans-34" d="M 2419 4116 
L 825 1625 
L 2419 1625 
L 2419 4116 
z
M 2253 4666 
L 3047 4666 
L 3047 1625 
L 3713 1625 
L 3713 1100 
L 3047 1100 
L 3047 0 
L 2419 0 
L 2419 1100 
L 313 1100 
L 313 1709 
L 2253 4666 
z
" transform="scale(0.015625)"/>
      <path id="DejaVuSans-29" d="M 513 4856 
L 1013 4856 
Q 1481 4119 1714 3412 
Q 1947 2706 1947 2009 
Q 1947 1309 1714 600 
Q 1481 -109 1013 -844 
L 513 -844 
Q 928 -128 1133 580 
Q 1338 1288 1338 2009 
Q 1338 2731 1133 3434 
Q 928 4138 513 4856 
z
" transform="scale(0.015625)"/>
     </defs>
     <use xlink:href="#DejaVuSans-28"/>
     <use xlink:href="#DejaVuSans-4c" transform="translate(39.013672 0)"/>
     <use xlink:href="#DejaVuSans-45" transform="translate(94.726562 0)"/>
     <use xlink:href="#DejaVuSans-20" transform="translate(157.910156 0)"/>
     <use xlink:href="#DejaVuSans-75" transform="translate(189.697266 0)"/>
     <use xlink:href="#DejaVuSans-36" transform="translate(253.076172 0)"/>
     <use xlink:href="#DejaVuSans-34" transform="translate(316.699219 0)"/>
     <use xlink:href="#DejaVuSans-29" transform="translate(380.322266 0)"/>
    </g>
   </g>
   <g id="text_2">
    <!-- JSON header -->
    <g style="fill: #ff7f0e" transform="translate(138.46959 101.375566) scale(0.11 -0.11)">
     <defs>
      <path id="DejaVuSans-4a" d="M 628 4666 
L 1259 4666 
L 1259 325 
Q 1259 -519 939 -900 
Q 619 -1281 -91 -1281 
L -331 -1281 
L -331 -750 
L -134 -750 
Q 284 -750 456 -515 
Q 628 -281 628 325 
L 628 4666 
z
" transform="scale(0.015625)"/>
      <path id="DejaVuSans-53" d="M 3425 4513 
L 3425 3897 
Q 3066 4069 2747 4153 
Q 2428 4238 2131 4238 
Q 1616 4238 1336 4038 
Q 1056 3838 1056 3469 
Q 1056 3159 1242 3001 
Q 1428 2844 1947 2747 
L 2328 2669 
Q 3034 2534 3370 2195 
Q 3706 1856 3706 1288 
Q 3706 609 3251 259 
Q 2797 -91 1919 -91 
Q 1588 -91 1214 -16 
Q 841 59 441 206 
L 441 856 
Q 825 641 1194 531 
Q 1563 422 1919 422 
Q 2459 422 2753 634 
Q 3047 847 3047 1241 
Q 3047 1584 2836 1778 
Q 2625 1972 2144 2069 
L 1759 2144 
Q 1053 2284 737 2584 
Q 422 2884 422 3419 
Q 422 4038 858 4394 
Q 1294 4750 2059 4750 
Q 2388 4750 2728 4690 
Q 3069 4631 3425 4513 
z
" transform="scale(0.015625)"/>
      <path id="DejaVuSans-4f" d="M 2522 4238 
Q 1834 4238 1429 3725 
Q 1025 3213 1025 2328 
Q 1025 1447 1429 934 
Q 1834 422 2522 422 
Q 3209 422 3611 934 
Q 4013 1447 4013 2328 
Q 4013 3213 3611 3725 
Q 3209 4238 2522 4238 
z
M 2522 4750 
Q 3503 4750 4090 4092 
Q 4678 3434 4678 2328 
Q 4678 1225 4090 567 
Q 3503 -91 2522 -91 
Q 1538 -91 948 565 
Q 359 1222 359 2328 
Q 359 3434 948 4092 
Q 1538 4750 2522 4750 
z
" transform="scale(0.015625)"/>
      <path id="DejaVuSans-4e" d="M 628 4666 
L 1478 4666 
L 3547 763 
L 3547 4666 
L 4159 4666 
L 4159 0 
L 3309 0 
L 1241 3903 
L 1241 0 
L 628 0 
L 628 4666 
z
" transform="scale(0.015625)"/>
     </defs>
     <use xlink:href="#DejaVuSans-4a"/>
     <use xlink:href="#DejaVuSans-53" transform="translate(29.492188 0)"/>
     <use xlink:href="#DejaVuSans-4f" transform="translate(92.96875 0)"/>
     <use xlink:href="#DejaVuSans-4e" transform="translate(171.679688 0)"/>
     <use xlink:href="#DejaVuSans-20" transform="translate(246.484375 0)"/>
     <use xlink:href="#DejaVuSans-68" transform="translate(278.271484 0)"/>
     <use xlink:href="#DejaVuSans-65" transform="translate(341.650391 0)"/>
     <use xlink:href="#DejaVuSans-61" transform="translate(403.173828 0)"/>
     <use xlink:href="#DejaVuSans-64" transform="translate(464.453125 0)"/>
     <use xlink:href="#DejaVuSans-65" transform="translate(527.929688 0)"/>
     <use xlink:href="#DejaVuSans-72" transform="translate(589.453125 0)"/>
    </g>
    <!-- (name, dtype, shape, byte offsets) -->
    <g style="fill: #ff7f0e" transform="translate(77.856152 113.693159) scale(0.11 -0.11)">
     <defs>
      <path id="DejaVuSans-6d" d="M 3328 2828 
Q 3544 3216 3844 3400 
Q 4144 3584 4550 3584 
Q 5097 3584 5394 3201 
Q 5691 2819 5691 2113 
L 5691 0 
L 5113 0 
L 5113 2094 
Q 5113 2597 4934 2840 
Q 4756 3084 4391 3084 
Q 3944 3084 3684 2787 
Q 3425 2491 3425 1978 
L 3425 0 
L 2847 0 
L 2847 2094 
Q 2847 2600 2669 2842 
Q 2491 3084 2119 3084 
Q 1678 3084 1418 2786 
Q 1159 2488 1159 1978 
L 1159 0 
L 581 0 
L 581 3500 
L 1159 3500 
L 1159 2956 
Q 1356 3278 1631 3431 
Q 1906 3584 2284 3584 
Q 2666 3584 2933 3390 
Q 3200 3197 3328 2828 
z
" transform="scale(0.015625)"/>
      <path id="DejaVuSans-2c" d="M 750 794 
L 1409 794 
L 1409 256 
L 897 -744 
L 494 -744 
L 750 256 
L 750 794 
z
" transform="scale(0.015625)"/>
      <path id="DejaVuSans-70" d="M 1159 525 
L 1159 -1331 
L 581 -1331 
L 581 3500 
L 1159 3500 
L 1159 2969 
Q 1341 3281 1617 3432 
Q 1894 3584 2278 3584 
Q 2916 3584 3314 3078 
Q 3713 2572 3713 1747 
Q 3713 922 3314 415 
Q 2916 -91 2278 -91 
Q 1894 -91 1617 61 
Q 1341 213 1159 525 
z
M 3116 1747 
Q 3116 2381 2855 2742 
Q 2594 3103 2138 3103 
Q 1681 3103 1420 2742 
Q 1159 2381 1159 1747 
Q 1159 1113 1420 752 
Q 1681 391 2138 391 
Q 2594 391 2855 752 
Q 3116 1113 3116 1747 
z
" transform="scale(0.015625)"/>
      <path id="DejaVuSans-6f" d="M 1959 3097 
Q 1497 3097 1228 2736 
Q 959 2375 959 1747 
Q 959 1119 1226 758 
Q 1494 397 1959 397 
Q 2419 397 2687 759 
Q 2956 1122 2956 1747 
Q 2956 2369 2687 2733 
Q 2419 3097 1959 3097 
z
M 1959 3584 
Q 2709 3584 3137 3096 
Q 3566 2609 3566 1747 
Q 3566 888 3137 398 
Q 2709 -91 1959 -91 
Q 1206 -91 779 398 
Q 353 888 353 1747 
Q 353 2609 779 3096 
Q 1206 3584 1959 3584 
z
" transform="scale(0.015625)"/>
      <path id="DejaVuSans-66" d="M 2375 4863 
L 2375 4384 
L 1825 4384 
Q 1516 4384 1395 4259 
Q 1275 4134 1275 3809 
L 1275 3500 
L 2222 3500 
L 2222 3053 
L 1275 3053 
L 1275 0 
L 697 0 
L 697 3053 
L 147 3053 
L 147 3500 
L 697 3500 
L 697 3744 
Q 697 4328 969 4595 
Q 1241 4863 1831 4863 
L 2375 4863 
z
" transform="scale(0.015625)"/>
     </defs>
     <use xlink:href="#DejaVuSans-28"/>
     <use xlink:href="#DejaVuSans-6e" transform="translate(39.013672 0)"/>
     <use xlink:href="#DejaVuSans-61" transform="translate(102.392578 0)"/>
     <use xlink:href="#DejaVuSans-6d" transform="translate(163.671875 0)"/>
     <use xlink:href="#DejaVuSans-65" transform="translate(261.083984 0)"/>
     <use xlink:href="#DejaVuSans-2c" transform="translate(322.607422 0)"/>
     <use xlink:href="#DejaVuSans-20" transform="translate(354.394531 0)"/>
     <use xlink:href="#DejaVuSans-64" transform="translate(386.181641 0)"/>
     <use xlink:href="#DejaVuSans-74" transform="translate(449.658203 0)"/>
     <use xlink:href="#DejaVuSans-79" transform="translate(488.867188 0)"/>
     <use xlink:href="#DejaVuSans-70" transform="translate(548.046875 0)"/>
     <use xlink:href="#DejaVuSans-65" transform="translate(611.523438 0)"/>
     <use xlink:href="#DejaVuSans-2c" transform="translate(673.046875 0)"/>
     <use xlink:href="#DejaVuSans-20" transform="translate(704.833984 0)"/>
     <use xlink:href="#DejaVuSans-73" transform="translate(736.621094 0)"/>
     <use xlink:href="#DejaVuSans-68" transform="translate(788.720703 0)"/>
     <use xlink:href="#DejaVuSans-61" transform="translate(852.099609 0)"/>
     <use xlink:href="#DejaVuSans-70" transform="translate(913.378906 0)"/>
     <use xlink:href="#DejaVuSans-65" transform="translate(976.855469 0)"/>
     <use xlink:href="#DejaVuSans-2c" transform="translate(1038.378906 0)"/>
     <use xlink:href="#DejaVuSans-20" transform="translate(1070.166016 0)"/>
     <use xlink:href="#DejaVuSans-62" transform="translate(1101.953125 0)"/>
     <use xlink:href="#DejaVuSans-79" transform="translate(1165.429688 0)"/>
     <use xlink:href="#DejaVuSans-74" transform="translate(1224.609375 0)"/>
     <use xlink:href="#DejaVuSans-65" transform="translate(1263.818359 0)"/>
     <use xlink:href="#DejaVuSans-20" transform="translate(1325.341797 0)"/>
     <use xlink:href="#DejaVuSans-6f" transform="translate(1357.128906 0)"/>
     <use xlink:href="#DejaVuSans-66" transform="translate(1418.310547 0)"/>
     <use xlink:href="#DejaVuSans-66" transform="translate(1453.515625 0)"/>
     <use xlink:href="#DejaVuSans-73" transform="translate(1488.720703 0)"/>
     <use xlink:href="#DejaVuSans-65" transform="translate(1540.820312 0)"/>
     <use xlink:href="#DejaVuSans-74" transform="translate(1602.34375 0)"/>
     <use xlink:href="#DejaVuSans-73" transform="translate(1641.552734 0)"/>
     <use xlink:href="#DejaVuSans-29" transform="translate(1693.652344 0)"/>
    </g>
   </g>
   <g id="text_3">
    <!-- "hidden.weight" -->
    <g style="fill: #1f77b4" transform="translate(378.899251 55.085857) scale(0.11 -0.11)">
     <defs>
      <path id="DejaVuSans-22" d="M 1147 4666 
L 1147 2931 
L 616 2931 
L 616 4666 
L 1147 4666 
z
M 2328 4666 
L 2328 2931 
L 1797 2931 
L 1797 4666 
L 2328 4666 
z
" transform="scale(0.015625)"/>
      <path id="DejaVuSans-69" d="M 603 3500 
L 1178 3500 
L 1178 0 
L 603 0 
L 603 3500 
z
M 603 4863 
L 1178 4863 
L 1178 4134 
L 603 4134 
L 603 4863 
z
" transform="scale(0.015625)"/>
      <path id="DejaVuSans-2e" d="M 684 794 
L 1344 794 
L 1344 0 
L 684 0 
L 684 794 
z
" transform="scale(0.015625)"/>
      <path id="DejaVuSans-77" d="M 269 3500 
L 844 3500 
L 1563 769 
L 2278 3500 
L 2956 3500 
L 3675 769 
L 4391 3500 
L 4966 3500 
L 4050 0 
L 3372 0 
L 2619 2869 
L 1863 0 
L 1184 0 
L 269 3500 
z
" transform="scale(0.015625)"/>
     </defs>
     <use xlink:href="#DejaVuSans-22"/>
     <use xlink:href="#DejaVuSans-68" transform="translate(45.996094 0)"/>
     <use xlink:href="#DejaVuSans-69" transform="translate(109.375 0)"/>
     <use xlink:href="#DejaVuSans-64" transform="translate(137.158203 0)"/>
     <use xlink:href="#DejaVuSans-64" transform="translate(200.634766 0)"/>
     <use xlink:href="#DejaVuSans-65" transform="translate(264.111328 0)"/>
     <use xlink:href="#DejaVuSans-6e" transform="translate(325.634766 0)"/>
     <use xlink:href="#DejaVuSans-2e" transform="translate(389.013672 0)"/>
     <use xlink:href="#DejaVuSans-77" transform="translate(420.800781 0)"/>
     <use xlink:href="#DejaVuSans-65" transform="translate(502.587891 0)"/>
     <use xlink:href="#DejaVuSans-69" transform="translate(564.111328 0)"/>
     <use xlink:href="#DejaVuSans-67" transform="translate(591.894531 0)"/>
     <use xlink:href="#DejaVuSans-68" transform="translate(655.371094 0)"/>
     <use xlink:href="#DejaVuSans-74" transform="translate(718.75 0)"/>
     <use xlink:href="#DejaVuSans-22" transform="translate(757.958984 0)"/>
    </g>
    <!-- [0, 20480) -->
    <g style="fill: #1f77b4" transform="translate(394.333626 67.403451) scale(0.11 -0.11)">
     <defs>
      <path id="DejaVuSans-5b" d="M 550 4863 
L 1875 4863 
L 1875 4416 
L 1125 4416 
L 1125 -397 
L 1875 -397 
L 1875 -844 
L 550 -844 
L 550 4863 
z
" transform="scale(0.015625)"/>
      <path id="DejaVuSans-30" d="M 2034 4250 
Q 1547 4250 1301 3770 
Q 1056 3291 1056 2328 
Q 1056 1369 1301 889 
Q 1547 409 2034 409 
Q 2525 409 2770 889 
Q 3016 1369 3016 2328 
Q 3016 3291 2770 3770 
Q 2525 4250 2034 4250 
z
M 2034 4750 
Q 2819 4750 3233 4129 
Q 3647 3509 3647 2328 
Q 3647 1150 3233 529 
Q 2819 -91 2034 -91 
Q 1250 -91 836 529 
Q 422 1150 422 2328 
Q 422 3509 836 4129 
Q 1250 4750 2034 4750 
z
" transform="scale(0.015625)"/>
      <path id="DejaVuSans-32" d="M 1228 531 
L 3431 531 
L 3431 0 
L 469 0 
L 469 531 
Q 828 903 1448 1529 
Q 2069 2156 2228 2338 
Q 2531 2678 2651 2914 
Q 2772 3150 2772 3378 
Q 2772 3750 2511 3984 
Q 2250 4219 1831 4219 
Q 1534 4219 1204 4116 
Q 875 4013 500 3803 
L 500 4441 
Q 881 4594 1212 4672 
Q 1544 4750 1819 4750 
Q 2544 4750 2975 4387 
Q 3406 4025 3406 3419 
Q 3406 3131 3298 2873 
Q 3191 2616 2906 2266 
Q 2828 2175 2409 1742 
Q 1991 1309 1228 531 
z
" transform="scale(0.015625)"/>
     </defs>
     <use xlink:href="#DejaVuSans-5b"/>
     <use xlink:href="#DejaVuSans-30" transform="translate(39.013672 0)"/>
     <use xlink:href="#DejaVuSans-2c" transform="translate(102.636719 0)"/>
     <use xlink:href="#DejaVuSans-20" transform="translate(134.423828 0)"/>
     <use xlink:href="#DejaVuSans-32" transform="translate(166.210938 0)"/>
     <use xlink:href="#DejaVuSans-30" transform="translate(229.833984 0)"/>
     <use xlink:href="#DejaVuSans-34" transform="translate(293.457031 0)"/>
     <use xlink:href="#DejaVuSans-38" transform="translate(357.080078 0)"/>
     <use xlink:href="#DejaVuSans-30" transform="translate(420.703125 0)"/>
     <use xlink:href="#DejaVuSans-29" transform="translate(484.326172 0)"/>
    </g>
   </g>
   <g id="text_4">
    <!-- "output.bias" -->
    <g style="fill: #2ca02c" transform="translate(538.512579 18.05409) scale(0.11 -0.11)">
     <use xlink:href="#DejaVuSans-22"/>
     <use xlink:href="#DejaVuSans-6f" transform="translate(45.996094 0)"/>
     <use xlink:href="#DejaVuSans-75" transform="translate(107.177734 0)"/>
     <use xlink:href="#DejaVuSans-74" transform="translate(170.556641 0)"/>
     <use xlink:href="#DejaVuSans-70" transform="translate(209.765625 0)"/>
     <use xlink:href="#DejaVuSans-75" transform="translate(273.242188 0)"/>
     <use xlink:href="#DejaVuSans-74" transform="translate(336.621094 0)"/>
     <use xlink:href="#DejaVuSans-2e" transform="translate(375.830078 0)"/>
     <use xlink:href="#DejaVuSans-62" transform="translate(407.617188 0)"/>
     <use xlink:href="#DejaVuSans-69" transform="translate(471.09375 0)"/>
     <use xlink:href="#DejaVuSans-61" transform="translate(498.876953 0)"/>
     <use xlink:href="#DejaVuSans-73" transform="translate(560.15625 0)"/>
     <use xlink:href="#DejaVuSans-22" transform="translate(612.255859 0)"/>
    </g>
    <!-- [20480, 20520) -->
    <g style="fill: #2ca02c" transform="translate(531.934922 30.371684) scale(0.11 -0.11)">
     <defs>
      <path id="DejaVuSans-35" d="M 691 4666 
L 3169 4666 
L 3169 4134 
L 1269 4134 
L 1269 2991 
Q 1406 3038 1543 3061 
Q 1681 3084 1819 3084 
Q 2600 3084 3056 2656 
Q 3513 2228 3513 1497 
Q 3513 744 3044 326 
Q 2575 -91 1722 -91 
Q 1428 -91 1123 -41 
Q 819 9 494 109 
L 494 744 
Q 775 591 1075 516 
Q 1375 441 1709 441 
Q 2250 441 2565 725 
Q 2881 1009 2881 1497 
Q 2881 1984 2565 2268 
Q 2250 2553 1709 2553 
Q 1456 2553 1204 2497 
Q 953 2441 691 2322 
L 691 4666 
z
" transform="scale(0.015625)"/>
     </defs>
     <use xlink:href="#DejaVuSans-5b"/>
     <use xlink:href="#DejaVuSans-32" transform="translate(39.013672 0)"/>
     <use xlink:href="#DejaVuSans-30" transform="translate(102.636719 0)"/>
     <use xlink:href="#DejaVuSans-34" transform="translate(166.259766 0)"/>
     <use xlink:href="#DejaVuSans-38" transform="translate(229.882812 0)"/>
     <use xlink:href="#DejaVuSans-30" transform="translate(293.505859 0)"/>
     <use xlink:href="#DejaVuSans-2c" transform="translate(357.128906 0)"/>
     <use xlink:href="#DejaVuSans-20" transform="translate(388.916016 0)"/>
     <use xlink:href="#DejaVuSans-32" transform="translate(420.703125 0)"/>
     <use xlink:href="#DejaVuSans-30" transform="translate(484.326172 0)"/>
     <use xlink:href="#DejaVuSans-35" transform="translate(547.949219 0)"/>
     <use xlink:href="#DejaVuSans-32" transform="translate(611.572266 0)"/>
     <use xlink:href="#DejaVuSans-30" transform="translate(675.195312 0)"/>
     <use xlink:href="#DejaVuSans-29" transform="translate(738.818359 0)"/>
    </g>
   </g>
   <g id="text_5">
    <!-- raw tensor bytes, back to back, no holes -->
    <g transform="translate(319.807166 209.809108) scale(0.12 -0.12)">
     <defs>
      <path id="DejaVuSans-63" d="M 3122 3366 
L 3122 2828 
Q 2878 2963 2633 3030 
Q 2388 3097 2138 3097 
Q 1578 3097 1268 2742 
Q 959 2388 959 1747 
Q 959 1106 1268 751 
Q 1578 397 2138 397 
Q 2388 397 2633 464 
Q 2878 531 3122 666 
L 3122 134 
Q 2881 22 2623 -34 
Q 2366 -91 2075 -91 
Q 1284 -91 818 406 
Q 353 903 353 1747 
Q 353 2603 823 3093 
Q 1294 3584 2113 3584 
Q 2378 3584 2631 3529 
Q 2884 3475 3122 3366 
z
" transform="scale(0.015625)"/>
      <path id="DejaVuSans-6b" d="M 581 4863 
L 1159 4863 
L 1159 1991 
L 2875 3500 
L 3609 3500 
L 1753 1863 
L 3688 0 
L 2938 0 
L 1159 1709 
L 1159 0 
L 581 0 
L 581 4863 
z
" transform="scale(0.015625)"/>
     </defs>
     <use xlink:href="#DejaVuSans-72"/>
     <use xlink:href="#DejaVuSans-61" transform="translate(41.113281 0)"/>
     <use xlink:href="#DejaVuSans-77" transform="translate(102.392578 0)"/>
     <use xlink:href="#DejaVuSans-20" transform="translate(184.179688 0)"/>
     <use xlink:href="#DejaVuSans-74" transform="translate(215.966797 0)"/>
     <use xlink:href="#DejaVuSans-65" transform="translate(255.175781 0)"/>
     <use xlink:href="#DejaVuSans-6e" transform="translate(316.699219 0)"/>
     <use xlink:href="#DejaVuSans-73" transform="translate(380.078125 0)"/>
     <use xlink:href="#DejaVuSans-6f" transform="translate(432.177734 0)"/>
     <use xlink:href="#DejaVuSans-72" transform="translate(493.359375 0)"/>
     <use xlink:href="#DejaVuSans-20" transform="translate(534.472656 0)"/>
     <use xlink:href="#DejaVuSans-62" transform="translate(566.259766 0)"/>
     <use xlink:href="#DejaVuSans-79" transform="translate(629.736328 0)"/>
     <use xlink:href="#DejaVuSans-74" transform="translate(688.916016 0)"/>
     <use xlink:href="#DejaVuSans-65" transform="translate(728.125 0)"/>
     <use xlink:href="#DejaVuSans-73" transform="translate(789.648438 0)"/>
     <use xlink:href="#DejaVuSans-2c" transform="translate(841.748047 0)"/>
     <use xlink:href="#DejaVuSans-20" transform="translate(873.535156 0)"/>
     <use xlink:href="#DejaVuSans-62" transform="translate(905.322266 0)"/>
     <use xlink:href="#DejaVuSans-61" transform="translate(968.798828 0)"/>
     <use xlink:href="#DejaVuSans-63" transform="translate(1030.078125 0)"/>
     <use xlink:href="#DejaVuSans-6b" transform="translate(1085.058594 0)"/>
     <use xlink:href="#DejaVuSans-20" transform="translate(1142.96875 0)"/>
     <use xlink:href="#DejaVuSans-74" transform="translate(1174.755859 0)"/>
     <use xlink:href="#DejaVuSans-6f" transform="translate(1213.964844 0)"/>
     <use xlink:href="#DejaVuSans-20" transform="translate(1275.146484 0)"/>
     <use xlink:href="#DejaVuSans-62" transform="translate(1306.933594 0)"/>
     <use xlink:href="#DejaVuSans-61" transform="translate(1370.410156 0)"/>
     <use xlink:href="#DejaVuSans-63" transform="translate(1431.689453 0)"/>
     <use xlink:href="#DejaVuSans-6b" transform="translate(1486.669922 0)"/>
     <use xlink:href="#DejaVuSans-2c" transform="translate(1544.580078 0)"/>
     <use xlink:href="#DejaVuSans-20" transform="translate(1576.367188 0)"/>
     <use xlink:href="#DejaVuSans-6e" transform="translate(1608.154297 0)"/>
     <use xlink:href="#DejaVuSans-6f" transform="translate(1671.533203 0)"/>
     <use xlink:href="#DejaVuSans-20" transform="translate(1732.714844 0)"/>
     <use xlink:href="#DejaVuSans-68" transform="translate(1764.501953 0)"/>
     <use xlink:href="#DejaVuSans-6f" transform="translate(1827.880859 0)"/>
     <use xlink:href="#DejaVuSans-6c" transform="translate(1889.0625 0)"/>
     <use xlink:href="#DejaVuSans-65" transform="translate(1916.845703 0)"/>
     <use xlink:href="#DejaVuSans-73" transform="translate(1978.369141 0)"/>
    </g>
   </g>
   <g id="text_6">
    <!-- (schematic; widths not to byte scale) -->
    <g style="fill: #7f7f7f" transform="translate(422.677644 234.294632) scale(0.095 -0.095)">
     <defs>
      <path id="DejaVuSans-Oblique-28" d="M 2731 4856 
Q 1903 3822 1495 2892 
Q 1088 1963 1088 1100 
Q 1088 606 1206 120 
Q 1325 -366 1563 -844 
L 1063 -844 
Q 775 -306 634 201 
Q 494 709 494 1197 
Q 494 2125 923 3036 
Q 1353 3947 2222 4856 
L 2731 4856 
z
" transform="scale(0.015625)"/>
      <path id="DejaVuSans-Oblique-73" d="M 3200 3397 
L 3091 2853 
Q 2863 2978 2609 3040 
Q 2356 3103 2088 3103 
Q 1634 3103 1373 2948 
Q 1113 2794 1113 2528 
Q 1113 2219 1719 2053 
Q 1766 2041 1788 2034 
L 1972 1978 
Q 2547 1819 2739 1644 
Q 2931 1469 2931 1166 
Q 2931 609 2489 259 
Q 2047 -91 1331 -91 
Q 1053 -91 747 -37 
Q 441 16 72 128 
L 184 722 
Q 500 559 806 475 
Q 1113 391 1394 391 
Q 1816 391 2080 572 
Q 2344 753 2344 1031 
Q 2344 1331 1650 1516 
L 1591 1531 
L 1394 1581 
Q 956 1697 753 1886 
Q 550 2075 550 2369 
Q 550 2928 970 3256 
Q 1391 3584 2113 3584 
Q 2397 3584 2667 3537 
Q 2938 3491 3200 3397 
z
" transform="scale(0.015625)"/>
      <path id="DejaVuSans-Oblique-63" d="M 3431 3366 
L 3316 2797 
Q 3109 2947 2876 3022 
Q 2644 3097 2394 3097 
Q 2119 3097 1870 3000 
Q 1622 2903 1453 2725 
Q 1184 2453 1037 2087 
Q 891 1722 891 1331 
Q 891 859 1127 628 
Q 1363 397 1844 397 
Q 2081 397 2348 469 
Q 2616 541 2906 684 
L 2797 116 
Q 2547 13 2283 -39 
Q 2019 -91 1741 -91 
Q 1044 -91 669 257 
Q 294 606 294 1253 
Q 294 1797 489 2255 
Q 684 2713 1069 3078 
Q 1331 3328 1684 3456 
Q 2038 3584 2456 3584 
Q 2700 3584 2940 3529 
Q 3181 3475 3431 3366 
z
" transform="scale(0.015625)"/>
      <path id="DejaVuSans-Oblique-68" d="M 3566 2113 
L 3156 0 
L 2578 0 
L 2988 2091 
Q 3016 2238 3031 2350 
Q 3047 2463 3047 2528 
Q 3047 2791 2881 2937 
Q 2716 3084 2419 3084 
Q 1956 3084 1617 2771 
Q 1278 2459 1178 1941 
L 800 0 
L 225 0 
L 1172 4863 
L 1747 4863 
L 1375 2950 
Q 1594 3244 1934 3414 
Q 2275 3584 2650 3584 
Q 3113 3584 3367 3334 
Q 3622 3084 3622 2631 
Q 3622 2519 3608 2391 
Q 3594 2263 3566 2113 
z
" transform="scale(0.015625)"/>
      <path id="DejaVuSans-Oblique-65" d="M 3078 2063 
Q 3088 2113 3092 2166 
Q 3097 2219 3097 2272 
Q 3097 2653 2873 2875 
Q 2650 3097 2266 3097 
Q 1838 3097 1509 2826 
Q 1181 2556 1013 2059 
L 3078 2063 
z
M 3578 1613 
L 903 1613 
Q 884 1494 878 1425 
Q 872 1356 872 1306 
Q 872 872 1139 634 
Q 1406 397 1894 397 
Q 2269 397 2603 481 
Q 2938 566 3225 728 
L 3116 159 
Q 2806 34 2476 -28 
Q 2147 -91 1806 -91 
Q 1078 -91 686 257 
Q 294 606 294 1247 
Q 294 1794 489 2264 
Q 684 2734 1063 3103 
Q 1306 3334 1642 3459 
Q 1978 3584 2356 3584 
Q 2950 3584 3301 3228 
Q 3653 2872 3653 2272 
Q 3653 2128 3634 1964 
Q 3616 1800 3578 1613 
z
" transform="scale(0.015625)"/>
      <path id="DejaVuSans-Oblique-6d" d="M 5747 2113 
L 5338 0 
L 4763 0 
L 5166 2094 
Q 5191 2228 5203 2325 
Q 5216 2422 5216 2491 
Q 5216 2772 5059 2928 
Q 4903 3084 4622 3084 
Q 4203 3084 3875 2770 
Q 3547 2456 3450 1953 
L 3066 0 
L 2491 0 
L 2900 2094 
Q 2925 2209 2937 2307 
Q 2950 2406 2950 2484 
Q 2950 2769 2794 2926 
Q 2638 3084 2363 3084 
Q 1938 3084 1609 2770 
Q 1281 2456 1184 1953 
L 800 0 
L 225 0 
L 909 3500 
L 1484 3500 
L 1375 2956 
Q 1609 3263 1923 3423 
Q 2238 3584 2597 3584 
Q 2978 3584 3223 3384 
Q 3469 3184 3519 2828 
Q 3781 3197 4126 3390 
Q 4472 3584 4856 3584 
Q 5306 3584 5551 3325 
Q 5797 3066 5797 2591 
Q 5797 2488 5784 2364 
Q 5772 2241 5747 2113 
z
" transform="scale(0.015625)"/>
      <path id="DejaVuSans-Oblique-61" d="M 3438 1997 
L 3047 0 
L 2472 0 
L 2578 531 
Q 2325 219 2001 64 
Q 1678 -91 1281 -91 
Q 834 -91 548 182 
Q 263 456 263 884 
Q 263 1497 752 1853 
Q 1241 2209 2100 2209 
L 2900 2209 
L 2931 2363 
Q 2938 2388 2941 2417 
Q 2944 2447 2944 2509 
Q 2944 2788 2717 2942 
Q 2491 3097 2081 3097 
Q 1800 3097 1504 3025 
Q 1209 2953 897 2809 
L 997 3341 
Q 1322 3463 1633 3523 
Q 1944 3584 2234 3584 
Q 2853 3584 3176 3315 
Q 3500 3047 3500 2534 
Q 3500 2431 3484 2292 
Q 3469 2153 3438 1997 
z
M 2816 1759 
L 2241 1759 
Q 1534 1759 1195 1570 
Q 856 1381 856 984 
Q 856 709 1029 553 
Q 1203 397 1509 397 
Q 1978 397 2328 733 
Q 2678 1069 2791 1631 
L 2816 1759 
z
" transform="scale(0.015625)"/>
      <path id="DejaVuSans-Oblique-74" d="M 2706 3500 
L 2619 3053 
L 1472 3053 
L 1100 1153 
Q 1081 1047 1072 975 
Q 1063 903 1063 863 
Q 1063 663 1183 572 
Q 1303 481 1569 481 
L 2150 481 
L 2053 0 
L 1503 0 
Q 991 0 739 200 
Q 488 400 488 806 
Q 488 878 497 964 
Q 506 1050 525 1153 
L 897 3053 
L 409 3053 
L 500 3500 
L 978 3500 
L 1172 4494 
L 1747 4494 
L 1556 3500 
L 2706 3500 
z
" transform="scale(0.015625)"/>
      <path id="DejaVuSans-Oblique-69" d="M 1172 4863 
L 1747 4863 
L 1606 4134 
L 1031 4134 
L 1172 4863 
z
M 909 3500 
L 1484 3500 
L 800 0 
L 225 0 
L 909 3500 
z
" transform="scale(0.015625)"/>
      <path id="DejaVuSans-Oblique-3b" d="M 563 794 
L 1222 794 
L 1113 256 
L 409 -744 
L 6 -744 
L 453 256 
L 563 794 
z
M 1050 3309 
L 1709 3309 
L 1556 2516 
L 897 2516 
L 1050 3309 
z
" transform="scale(0.015625)"/>
      <path id="DejaVuSans-Oblique-20" transform="scale(0.015625)"/>
      <path id="DejaVuSans-Oblique-77" d="M 544 3500 
L 1113 3500 
L 1259 684 
L 2566 3500 
L 3231 3500 
L 3425 684 
L 4666 3500 
L 5241 3500 
L 3641 0 
L 2969 0 
L 2797 2900 
L 1459 0 
L 781 0 
L 544 3500 
z
" transform="scale(0.015625)"/>
      <path id="DejaVuSans-Oblique-64" d="M 2675 525 
Q 2444 222 2128 65 
Q 1813 -91 1428 -91 
Q 903 -91 598 267 
Q 294 625 294 1247 
Q 294 1766 478 2236 
Q 663 2706 1013 3078 
Q 1244 3325 1534 3454 
Q 1825 3584 2144 3584 
Q 2481 3584 2739 3421 
Q 2997 3259 3138 2956 
L 3513 4863 
L 4091 4863 
L 3144 0 
L 2566 0 
L 2675 525 
z
M 891 1350 
Q 891 897 1095 644 
Q 1300 391 1663 391 
Q 1931 391 2161 520 
Q 2391 650 2566 903 
Q 2750 1166 2856 1509 
Q 2963 1853 2963 2188 
Q 2963 2622 2758 2865 
Q 2553 3109 2194 3109 
Q 1922 3109 1687 2981 
Q 1453 2853 1288 2613 
Q 1106 2353 998 2009 
Q 891 1666 891 1350 
z
" transform="scale(0.015625)"/>
      <path id="DejaVuSans-Oblique-6e" d="M 3566 2113 
L 3156 0 
L 2578 0 
L 2988 2091 
Q 3016 2238 3031 2350 
Q 3047 2463 3047 2528 
Q 3047 2791 2881 2937 
Q 2716 3084 2419 3084 
Q 1956 3084 1622 2776 
Q 1288 2469 1184 1941 
L 800 0 
L 225 0 
L 903 3500 
L 1478 3500 
L 1363 2950 
Q 1603 3253 1940 3418 
Q 2278 3584 2650 3584 
Q 3113 3584 3367 3334 
Q 3622 3084 3622 2631 
Q 3622 2519 3608 2391 
Q 3594 2263 3566 2113 
z
" transform="scale(0.015625)"/>
      <path id="DejaVuSans-Oblique-6f" d="M 1625 -91 
Q 1009 -91 651 289 
Q 294 669 294 1325 
Q 294 1706 417 2101 
Q 541 2497 738 2766 
Q 1047 3184 1428 3384 
Q 1809 3584 2291 3584 
Q 2888 3584 3255 3212 
Q 3622 2841 3622 2241 
Q 3622 1825 3500 1412 
Q 3378 1000 3181 728 
Q 2875 309 2494 109 
Q 2113 -91 1625 -91 
z
M 891 1344 
Q 891 869 1089 633 
Q 1288 397 1691 397 
Q 2269 397 2648 901 
Q 3028 1406 3028 2181 
Q 3028 2634 2825 2865 
Q 2622 3097 2228 3097 
Q 1903 3097 1650 2945 
Q 1397 2794 1197 2484 
Q 1050 2253 970 1956 
Q 891 1659 891 1344 
z
" transform="scale(0.015625)"/>
      <path id="DejaVuSans-Oblique-62" d="M 3169 2138 
Q 3169 2591 2961 2847 
Q 2753 3103 2388 3103 
Q 2122 3103 1889 2973 
Q 1656 2844 1484 2597 
Q 1303 2338 1198 1995 
Q 1094 1653 1094 1313 
Q 1094 881 1298 636 
Q 1503 391 1863 391 
Q 2134 391 2365 517 
Q 2597 644 2772 891 
Q 2950 1147 3059 1487 
Q 3169 1828 3169 2138 
z
M 1381 2969 
Q 1594 3256 1914 3420 
Q 2234 3584 2584 3584 
Q 3122 3584 3439 3221 
Q 3756 2859 3756 2241 
Q 3756 1734 3570 1259 
Q 3384 784 3041 416 
Q 2816 172 2522 40 
Q 2228 -91 1906 -91 
Q 1566 -91 1316 65 
Q 1066 222 909 531 
L 806 0 
L 231 0 
L 1178 4863 
L 1753 4863 
L 1381 2969 
z
" transform="scale(0.015625)"/>
      <path id="DejaVuSans-Oblique-79" d="M 1588 -325 
Q 1188 -997 936 -1164 
Q 684 -1331 294 -1331 
L -159 -1331 
L -63 -850 
L 269 -850 
Q 509 -850 678 -719 
Q 847 -588 1056 -206 
L 1234 128 
L 459 3500 
L 1069 3500 
L 1650 819 
L 3256 3500 
L 3859 3500 
L 1588 -325 
z
" transform="scale(0.015625)"/>
      <path id="DejaVuSans-Oblique-6c" d="M 1172 4863 
L 1747 4863 
L 800 0 
L 225 0 
L 1172 4863 
z
" transform="scale(0.015625)"/>
      <path id="DejaVuSans-Oblique-29" d="M -397 -844 
Q 434 191 840 1120 
Q 1247 2050 1247 2913 
Q 1247 3406 1130 3892 
Q 1013 4378 775 4856 
L 1275 4856 
Q 1563 4316 1703 3812 
Q 1844 3309 1844 2822 
Q 1844 1891 1411 973 
Q 978 56 116 -844 
L -397 -844 
z
" transform="scale(0.015625)"/>
     </defs>
     <use xlink:href="#DejaVuSans-Oblique-28"/>
     <use xlink:href="#DejaVuSans-Oblique-73" transform="translate(39.013672 0)"/>
     <use xlink:href="#DejaVuSans-Oblique-63" transform="translate(91.113281 0)"/>
     <use xlink:href="#DejaVuSans-Oblique-68" transform="translate(146.09375 0)"/>
     <use xlink:href="#DejaVuSans-Oblique-65" transform="translate(209.472656 0)"/>
     <use xlink:href="#DejaVuSans-Oblique-6d" transform="translate(270.996094 0)"/>
     <use xlink:href="#DejaVuSans-Oblique-61" transform="translate(368.408203 0)"/>
     <use xlink:href="#DejaVuSans-Oblique-74" transform="translate(429.6875 0)"/>
     <use xlink:href="#DejaVuSans-Oblique-69" transform="translate(468.896484 0)"/>
     <use xlink:href="#DejaVuSans-Oblique-63" transform="translate(496.679688 0)"/>
     <use xlink:href="#DejaVuSans-Oblique-3b" transform="translate(551.660156 0)"/>
     <use xlink:href="#DejaVuSans-Oblique-20" transform="translate(585.351562 0)"/>
     <use xlink:href="#DejaVuSans-Oblique-77" transform="translate(617.138672 0)"/>
     <use xlink:href="#DejaVuSans-Oblique-69" transform="translate(698.925781 0)"/>
     <use xlink:href="#DejaVuSans-Oblique-64" transform="translate(726.708984 0)"/>
     <use xlink:href="#DejaVuSans-Oblique-74" transform="translate(790.185547 0)"/>
     <use xlink:href="#DejaVuSans-Oblique-68" transform="translate(829.394531 0)"/>
     <use xlink:href="#DejaVuSans-Oblique-73" transform="translate(892.773438 0)"/>
     <use xlink:href="#DejaVuSans-Oblique-20" transform="translate(944.873047 0)"/>
     <use xlink:href="#DejaVuSans-Oblique-6e" transform="translate(976.660156 0)"/>
     <use xlink:href="#DejaVuSans-Oblique-6f" transform="translate(1040.039062 0)"/>
     <use xlink:href="#DejaVuSans-Oblique-74" transform="translate(1101.220703 0)"/>
     <use xlink:href="#DejaVuSans-Oblique-20" transform="translate(1140.429688 0)"/>
     <use xlink:href="#DejaVuSans-Oblique-74" transform="translate(1172.216797 0)"/>
     <use xlink:href="#DejaVuSans-Oblique-6f" transform="translate(1211.425781 0)"/>
     <use xlink:href="#DejaVuSans-Oblique-20" transform="translate(1272.607422 0)"/>
     <use xlink:href="#DejaVuSans-Oblique-62" transform="translate(1304.394531 0)"/>
     <use xlink:href="#DejaVuSans-Oblique-79" transform="translate(1367.871094 0)"/>
     <use xlink:href="#DejaVuSans-Oblique-74" transform="translate(1427.050781 0)"/>
     <use xlink:href="#DejaVuSans-Oblique-65" transform="translate(1466.259766 0)"/>
     <use xlink:href="#DejaVuSans-Oblique-20" transform="translate(1527.783203 0)"/>
     <use xlink:href="#DejaVuSans-Oblique-73" transform="translate(1559.570312 0)"/>
     <use xlink:href="#DejaVuSans-Oblique-63" transform="translate(1611.669922 0)"/>
     <use xlink:href="#DejaVuSans-Oblique-61" transform="translate(1666.650391 0)"/>
     <use xlink:href="#DejaVuSans-Oblique-6c" transform="translate(1727.929688 0)"/>
     <use xlink:href="#DejaVuSans-Oblique-65" transform="translate(1755.712891 0)"/>
     <use xlink:href="#DejaVuSans-Oblique-29" transform="translate(1817.236328 0)"/>
    </g>
   </g>
   <g id="text_7">
    <!-- $\cdots$ -->
    <g style="fill: #7f7f7f" transform="translate(312.920688 168.172197) scale(0.13 -0.13)">
     <defs>
      <path id="STIXGeneral-Regular-22ef" d="M 5235 1619 
Q 5235 1453 5123 1331 
Q 5011 1210 4832 1210 
Q 4646 1210 4534 1322 
Q 4422 1434 4422 1619 
Q 4422 1792 4547 1907 
Q 4672 2022 4832 2022 
Q 4992 2022 5113 1907 
Q 5235 1792 5235 1619 
z
M 3366 1619 
Q 3366 1453 3254 1331 
Q 3142 1210 2963 1210 
Q 2778 1210 2666 1322 
Q 2554 1434 2554 1619 
Q 2554 1792 2678 1907 
Q 2803 2022 2963 2022 
Q 3123 2022 3244 1907 
Q 3366 1792 3366 1619 
z
M 1504 1619 
Q 1504 1453 1392 1331 
Q 1280 1210 1101 1210 
Q 915 1210 803 1322 
Q 691 1434 691 1619 
Q 691 1792 816 1907 
Q 941 2022 1101 2022 
Q 1261 2022 1382 1907 
Q 1504 1792 1504 1619 
z
" transform="scale(0.015625)"/>
     </defs>
     <use xlink:href="#STIXGeneral-Regular-22ef" transform="translate(0 0.40625)"/>
    </g>
   </g>
   <g id="text_8">
    <!-- $\cdots$ -->
    <g style="fill: #7f7f7f" transform="translate(550.155445 168.172197) scale(0.13 -0.13)">
     <use xlink:href="#STIXGeneral-Regular-22ef" transform="translate(0 0.40625)"/>
    </g>
   </g>
   <g id="text_9">
    <!-- "hidden.weight": {"dtype": "F32", -->
    <g transform="translate(67.612569 155.84623) scale(0.087 -0.087)">
     <defs>
      <path id="DejaVuSansMono-22" d="M 2797 4666 
L 2797 2931 
L 2253 2931 
L 2253 4666 
L 2797 4666 
z
M 1600 4666 
L 1600 2931 
L 1056 2931 
L 1056 4666 
L 1600 4666 
z
" transform="scale(0.015625)"/>
      <path id="DejaVuSansMono-68" d="M 3284 2169 
L 3284 0 
L 2706 0 
L 2706 2169 
Q 2706 2641 2540 2862 
Q 2375 3084 2022 3084 
Q 1619 3084 1401 2798 
Q 1184 2513 1184 1978 
L 1184 0 
L 609 0 
L 609 4863 
L 1184 4863 
L 1184 2975 
Q 1338 3275 1600 3429 
Q 1863 3584 2222 3584 
Q 2756 3584 3020 3232 
Q 3284 2881 3284 2169 
z
" transform="scale(0.015625)"/>
      <path id="DejaVuSansMono-69" d="M 800 3500 
L 2272 3500 
L 2272 447 
L 3413 447 
L 3413 0 
L 556 0 
L 556 447 
L 1697 447 
L 1697 3053 
L 800 3053 
L 800 3500 
z
M 1697 4863 
L 2272 4863 
L 2272 4134 
L 1697 4134 
L 1697 4863 
z
" transform="scale(0.015625)"/>
      <path id="DejaVuSansMono-64" d="M 2681 3053 
L 2681 4863 
L 3256 4863 
L 3256 0 
L 2681 0 
L 2681 441 
Q 2538 181 2298 45 
Q 2059 -91 1747 -91 
Q 1113 -91 748 401 
Q 384 894 384 1759 
Q 384 2613 750 3098 
Q 1116 3584 1747 3584 
Q 2063 3584 2303 3448 
Q 2544 3313 2681 3053 
z
M 991 1747 
Q 991 1078 1203 737 
Q 1416 397 1831 397 
Q 2247 397 2464 740 
Q 2681 1084 2681 1747 
Q 2681 2413 2464 2755 
Q 2247 3097 1831 3097 
Q 1416 3097 1203 2756 
Q 991 2416 991 1747 
z
" transform="scale(0.015625)"/>
      <path id="DejaVuSansMono-65" d="M 3475 1894 
L 3475 1613 
L 984 1613 
L 984 1594 
Q 984 1022 1282 709 
Q 1581 397 2125 397 
Q 2400 397 2700 484 
Q 3000 572 3341 750 
L 3341 178 
Q 3013 44 2708 -23 
Q 2403 -91 2119 -91 
Q 1303 -91 843 398 
Q 384 888 384 1747 
Q 384 2584 834 3084 
Q 1284 3584 2034 3584 
Q 2703 3584 3089 3131 
Q 3475 2678 3475 1894 
z
M 2900 2063 
Q 2888 2569 2661 2833 
Q 2434 3097 2009 3097 
Q 1594 3097 1325 2822 
Q 1056 2547 1006 2059 
L 2900 2063 
z
" transform="scale(0.015625)"/>
      <path id="DejaVuSansMono-6e" d="M 3284 2169 
L 3284 0 
L 2706 0 
L 2706 2169 
Q 2706 2641 2540 2862 
Q 2375 3084 2022 3084 
Q 1619 3084 1401 2798 
Q 1184 2513 1184 1978 
L 1184 0 
L 609 0 
L 609 3500 
L 1184 3500 
L 1184 2975 
Q 1338 3275 1600 3429 
Q 1863 3584 2222 3584 
Q 2756 3584 3020 3232 
Q 3284 2881 3284 2169 
z
" transform="scale(0.015625)"/>
      <path id="DejaVuSansMono-2e" d="M 1528 953 
L 2316 953 
L 2316 0 
L 1528 0 
L 1528 953 
z
" transform="scale(0.015625)"/>
      <path id="DejaVuSansMono-77" d="M 0 3500 
L 569 3500 
L 1178 672 
L 1678 2478 
L 2169 2478 
L 2675 672 
L 3284 3500 
L 3853 3500 
L 3034 0 
L 2484 0 
L 1925 1919 
L 1369 0 
L 819 0 
L 0 3500 
z
" transform="scale(0.015625)"/>
      <path id="DejaVuSansMono-67" d="M 2681 1778 
Q 2681 2425 2470 2761 
Q 2259 3097 1856 3097 
Q 1434 3097 1212 2761 
Q 991 2425 991 1778 
Q 991 1131 1214 792 
Q 1438 453 1863 453 
Q 2259 453 2470 793 
Q 2681 1134 2681 1778 
z
M 3256 225 
Q 3256 -563 2884 -969 
Q 2513 -1375 1791 -1375 
Q 1553 -1375 1293 -1331 
Q 1034 -1288 775 -1203 
L 775 -634 
Q 1081 -778 1331 -847 
Q 1581 -916 1791 -916 
Q 2256 -916 2468 -662 
Q 2681 -409 2681 141 
L 2681 166 
L 2681 556 
Q 2544 263 2306 119 
Q 2069 -25 1728 -25 
Q 1116 -25 750 465 
Q 384 956 384 1778 
Q 384 2603 750 3093 
Q 1116 3584 1728 3584 
Q 2066 3584 2300 3450 
Q 2534 3316 2681 3034 
L 2681 3488 
L 3256 3488 
L 3256 225 
z
" transform="scale(0.015625)"/>
      <path id="DejaVuSansMono-74" d="M 1919 4494 
L 1919 3500 
L 3225 3500 
L 3225 3053 
L 1919 3053 
L 1919 1153 
Q 1919 766 2066 612 
Q 2213 459 2578 459 
L 3225 459 
L 3225 0 
L 2522 0 
Q 1875 0 1609 259 
Q 1344 519 1344 1153 
L 1344 3053 
L 409 3053 
L 409 3500 
L 1344 3500 
L 1344 4494 
L 1919 4494 
z
" transform="scale(0.015625)"/>
      <path id="DejaVuSansMono-3a" d="M 1528 3322 
L 2316 3322 
L 2316 2375 
L 1528 2375 
L 1528 3322 
z
M 1528 953 
L 2316 953 
L 2316 0 
L 1528 0 
L 1528 953 
z
" transform="scale(0.015625)"/>
      <path id="DejaVuSansMono-20" transform="scale(0.015625)"/>
      <path id="DejaVuSansMono-7b" d="M 3163 -594 
L 3163 -1044 
L 2963 -1044 
Q 2184 -1044 1920 -812 
Q 1656 -581 1656 109 
L 1656 856 
Q 1656 1328 1489 1509 
Q 1322 1691 884 1691 
L 691 1691 
L 691 2138 
L 884 2138 
Q 1325 2138 1490 2316 
Q 1656 2494 1656 2963 
L 1656 3713 
Q 1656 4403 1920 4633 
Q 2184 4863 2963 4863 
L 3163 4863 
L 3163 4416 
L 2944 4416 
Q 2506 4416 2373 4280 
Q 2241 4144 2241 3700 
L 2241 2925 
Q 2241 2434 2098 2212 
Q 1956 1991 1613 1913 
Q 1959 1828 2100 1606 
Q 2241 1384 2241 897 
L 2241 122 
Q 2241 -325 2373 -459 
Q 2506 -594 2944 -594 
L 3163 -594 
z
" transform="scale(0.015625)"/>
      <path id="DejaVuSansMono-79" d="M 2681 1125 
Q 2538 759 2316 163 
Q 2006 -663 1900 -844 
Q 1756 -1088 1540 -1209 
Q 1325 -1331 1038 -1331 
L 575 -1331 
L 575 -850 
L 916 -850 
Q 1169 -850 1312 -703 
Q 1456 -556 1678 56 
L 325 3500 
L 934 3500 
L 1972 763 
L 2994 3500 
L 3603 3500 
L 2681 1125 
z
" transform="scale(0.015625)"/>
      <path id="DejaVuSansMono-70" d="M 1172 441 
L 1172 -1331 
L 594 -1331 
L 594 3500 
L 1172 3500 
L 1172 3053 
Q 1316 3313 1555 3448 
Q 1794 3584 2106 3584 
Q 2741 3584 3102 3093 
Q 3463 2603 3463 1734 
Q 3463 881 3100 395 
Q 2738 -91 2106 -91 
Q 1788 -91 1548 45 
Q 1309 181 1172 441 
z
M 2859 1747 
Q 2859 2416 2648 2756 
Q 2438 3097 2022 3097 
Q 1603 3097 1387 2755 
Q 1172 2413 1172 1747 
Q 1172 1084 1387 740 
Q 1603 397 2022 397 
Q 2438 397 2648 737 
Q 2859 1078 2859 1747 
z
" transform="scale(0.015625)"/>
      <path id="DejaVuSansMono-46" d="M 728 4666 
L 3475 4666 
L 3475 4134 
L 1363 4134 
L 1363 2759 
L 3278 2759 
L 3278 2228 
L 1363 2228 
L 1363 0 
L 728 0 
L 728 4666 
z
" transform="scale(0.015625)"/>
      <path id="DejaVuSansMono-33" d="M 2425 2497 
Q 2884 2375 3128 2064 
Q 3372 1753 3372 1288 
Q 3372 644 2939 276 
Q 2506 -91 1741 -91 
Q 1419 -91 1084 -31 
Q 750 28 428 141 
L 428 769 
Q 747 603 1056 522 
Q 1366 441 1672 441 
Q 2191 441 2469 675 
Q 2747 909 2747 1350 
Q 2747 1756 2469 1995 
Q 2191 2234 1716 2234 
L 1234 2234 
L 1234 2753 
L 1716 2753 
Q 2150 2753 2394 2943 
Q 2638 3134 2638 3475 
Q 2638 3834 2411 4026 
Q 2184 4219 1766 4219 
Q 1488 4219 1191 4156 
Q 894 4094 569 3969 
L 569 4550 
Q 947 4650 1242 4700 
Q 1538 4750 1766 4750 
Q 2447 4750 2855 4408 
Q 3263 4066 3263 3500 
Q 3263 3116 3048 2859 
Q 2834 2603 2425 2497 
z
" transform="scale(0.015625)"/>
      <path id="DejaVuSansMono-32" d="M 1166 531 
L 3309 531 
L 3309 0 
L 475 0 
L 475 531 
Q 1059 1147 1496 1619 
Q 1934 2091 2100 2284 
Q 2413 2666 2522 2902 
Q 2631 3138 2631 3384 
Q 2631 3775 2401 3997 
Q 2172 4219 1772 4219 
Q 1488 4219 1175 4116 
Q 863 4013 513 3803 
L 513 4441 
Q 834 4594 1145 4672 
Q 1456 4750 1759 4750 
Q 2444 4750 2861 4386 
Q 3278 4022 3278 3431 
Q 3278 3131 3139 2831 
Q 3000 2531 2688 2169 
Q 2513 1966 2180 1606 
Q 1847 1247 1166 531 
z
" transform="scale(0.015625)"/>
      <path id="DejaVuSansMono-2c" d="M 1569 947 
L 2356 947 
L 2356 300 
L 1741 -897 
L 1259 -897 
L 1569 300 
L 1569 947 
z
" transform="scale(0.015625)"/>
     </defs>
     <use xlink:href="#DejaVuSansMono-22"/>
     <use xlink:href="#DejaVuSansMono-68" transform="translate(60.205078 0)"/>
     <use xlink:href="#DejaVuSansMono-69" transform="translate(120.410156 0)"/>
     <use xlink:href="#DejaVuSansMono-64" transform="translate(180.615234 0)"/>
     <use xlink:href="#DejaVuSansMono-64" transform="translate(240.820312 0)"/>
     <use xlink:href="#DejaVuSansMono-65" transform="translate(301.025391 0)"/>
     <use xlink:href="#DejaVuSansMono-6e" transform="translate(361.230469 0)"/>
     <use xlink:href="#DejaVuSansMono-2e" transform="translate(421.435547 0)"/>
     <use xlink:href="#DejaVuSansMono-77" transform="translate(481.640625 0)"/>
     <use xlink:href="#DejaVuSansMono-65" transform="translate(541.845703 0)"/>
     <use xlink:href="#DejaVuSansMono-69" transform="translate(602.050781 0)"/>
     <use xlink:href="#DejaVuSansMono-67" transform="translate(662.255859 0)"/>
     <use xlink:href="#DejaVuSansMono-68" transform="translate(722.460938 0)"/>
     <use xlink:href="#DejaVuSansMono-74" transform="translate(782.666016 0)"/>
     <use xlink:href="#DejaVuSansMono-22" transform="translate(842.871094 0)"/>
     <use xlink:href="#DejaVuSansMono-3a" transform="translate(903.076172 0)"/>
     <use xlink:href="#DejaVuSansMono-20" transform="translate(963.28125 0)"/>
     <use xlink:href="#DejaVuSansMono-7b" transform="translate(1023.486328 0)"/>
     <use xlink:href="#DejaVuSansMono-22" transform="translate(1083.691406 0)"/>
     <use xlink:href="#DejaVuSansMono-64" transform="translate(1143.896484 0)"/>
     <use xlink:href="#DejaVuSansMono-74" transform="translate(1204.101562 0)"/>
     <use xlink:href="#DejaVuSansMono-79" transform="translate(1264.306641 0)"/>
     <use xlink:href="#DejaVuSansMono-70" transform="translate(1324.511719 0)"/>
     <use xlink:href="#DejaVuSansMono-65" transform="translate(1384.716797 0)"/>
     <use xlink:href="#DejaVuSansMono-22" transform="translate(1444.921875 0)"/>
     <use xlink:href="#DejaVuSansMono-3a" transform="translate(1505.126953 0)"/>
     <use xlink:href="#DejaVuSansMono-20" transform="translate(1565.332031 0)"/>
     <use xlink:href="#DejaVuSansMono-22" transform="translate(1625.537109 0)"/>
     <use xlink:href="#DejaVuSansMono-46" transform="translate(1685.742188 0)"/>
     <use xlink:href="#DejaVuSansMono-33" transform="translate(1745.947266 0)"/>
     <use xlink:href="#DejaVuSansMono-32" transform="translate(1806.152344 0)"/>
     <use xlink:href="#DejaVuSansMono-22" transform="translate(1866.357422 0)"/>
     <use xlink:href="#DejaVuSansMono-2c" transform="translate(1926.5625 0)"/>
    </g>
   </g>
   <g id="text_10">
    <!--   "shape": [256, 20], -->
    <g transform="translate(67.612569 167.008775) scale(0.087 -0.087)">
     <defs>
      <path id="DejaVuSansMono-73" d="M 3041 3378 
L 3041 2816 
Q 2794 2959 2544 3031 
Q 2294 3103 2034 3103 
Q 1644 3103 1451 2976 
Q 1259 2850 1259 2591 
Q 1259 2356 1403 2240 
Q 1547 2125 2119 2016 
L 2350 1972 
Q 2778 1891 2998 1647 
Q 3219 1403 3219 1013 
Q 3219 494 2850 201 
Q 2481 -91 1825 -91 
Q 1566 -91 1281 -36 
Q 997 19 666 128 
L 666 722 
Q 988 556 1281 473 
Q 1575 391 1838 391 
Q 2219 391 2428 545 
Q 2638 700 2638 978 
Q 2638 1378 1872 1531 
L 1847 1538 
L 1631 1581 
Q 1134 1678 906 1908 
Q 678 2138 678 2534 
Q 678 3038 1018 3311 
Q 1359 3584 1991 3584 
Q 2272 3584 2531 3532 
Q 2791 3481 3041 3378 
z
" transform="scale(0.015625)"/>
      <path id="DejaVuSansMono-61" d="M 2194 1759 
L 2003 1759 
Q 1500 1759 1245 1582 
Q 991 1406 991 1056 
Q 991 741 1181 566 
Q 1372 391 1709 391 
Q 2184 391 2456 720 
Q 2728 1050 2731 1631 
L 2731 1759 
L 2194 1759 
z
M 3309 1997 
L 3309 0 
L 2731 0 
L 2731 519 
Q 2547 206 2267 57 
Q 1988 -91 1588 -91 
Q 1053 -91 734 211 
Q 416 513 416 1019 
Q 416 1603 808 1906 
Q 1200 2209 1959 2209 
L 2731 2209 
L 2731 2300 
Q 2728 2719 2518 2908 
Q 2309 3097 1850 3097 
Q 1556 3097 1256 3012 
Q 956 2928 672 2766 
L 672 3341 
Q 991 3463 1283 3523 
Q 1575 3584 1850 3584 
Q 2284 3584 2592 3456 
Q 2900 3328 3091 3072 
Q 3209 2916 3259 2686 
Q 3309 2456 3309 1997 
z
" transform="scale(0.015625)"/>
      <path id="DejaVuSansMono-5b" d="M 1447 4863 
L 2772 4863 
L 2772 4416 
L 2022 4416 
L 2022 -397 
L 2772 -397 
L 2772 -844 
L 1447 -844 
L 1447 4863 
z
" transform="scale(0.015625)"/>
      <path id="DejaVuSansMono-35" d="M 647 4666 
L 3009 4666 
L 3009 4134 
L 1222 4134 
L 1222 2988 
Q 1356 3038 1492 3061 
Q 1628 3084 1766 3084 
Q 2491 3084 2916 2656 
Q 3341 2228 3341 1497 
Q 3341 759 2895 334 
Q 2450 -91 1678 -91 
Q 1306 -91 998 -41 
Q 691 9 447 109 
L 447 750 
Q 734 594 1025 517 
Q 1316 441 1619 441 
Q 2141 441 2423 716 
Q 2706 991 2706 1497 
Q 2706 1997 2414 2275 
Q 2122 2553 1600 2553 
Q 1347 2553 1106 2495 
Q 866 2438 647 2322 
L 647 4666 
z
" transform="scale(0.015625)"/>
      <path id="DejaVuSansMono-36" d="M 3097 4563 
L 3097 3981 
Q 2900 4097 2678 4158 
Q 2456 4219 2216 4219 
Q 1616 4219 1306 3767 
Q 997 3316 997 2438 
Q 1147 2750 1412 2917 
Q 1678 3084 2022 3084 
Q 2697 3084 3067 2670 
Q 3438 2256 3438 1497 
Q 3438 741 3056 325 
Q 2675 -91 1984 -91 
Q 1172 -91 794 492 
Q 416 1075 416 2328 
Q 416 3509 870 4129 
Q 1325 4750 2188 4750 
Q 2419 4750 2650 4701 
Q 2881 4653 3097 4563 
z
M 1972 2591 
Q 1569 2591 1337 2300 
Q 1106 2009 1106 1497 
Q 1106 984 1337 693 
Q 1569 403 1972 403 
Q 2391 403 2603 679 
Q 2816 956 2816 1497 
Q 2816 2041 2603 2316 
Q 2391 2591 1972 2591 
z
" transform="scale(0.015625)"/>
      <path id="DejaVuSansMono-30" d="M 1509 2344 
Q 1509 2516 1629 2641 
Q 1750 2766 1919 2766 
Q 2094 2766 2219 2641 
Q 2344 2516 2344 2344 
Q 2344 2169 2220 2047 
Q 2097 1925 1919 1925 
Q 1744 1925 1626 2044 
Q 1509 2163 1509 2344 
z
M 1925 4250 
Q 1484 4250 1267 3775 
Q 1050 3300 1050 2328 
Q 1050 1359 1267 884 
Q 1484 409 1925 409 
Q 2369 409 2586 884 
Q 2803 1359 2803 2328 
Q 2803 3300 2586 3775 
Q 2369 4250 1925 4250 
z
M 1925 4750 
Q 2672 4750 3055 4137 
Q 3438 3525 3438 2328 
Q 3438 1134 3055 521 
Q 2672 -91 1925 -91 
Q 1178 -91 797 521 
Q 416 1134 416 2328 
Q 416 3525 797 4137 
Q 1178 4750 1925 4750 
z
" transform="scale(0.015625)"/>
      <path id="DejaVuSansMono-5d" d="M 2406 4863 
L 2406 -844 
L 1081 -844 
L 1081 -397 
L 1831 -397 
L 1831 4416 
L 1081 4416 
L 1081 4863 
L 2406 4863 
z
" transform="scale(0.015625)"/>
     </defs>
     <use xlink:href="#DejaVuSansMono-20"/>
     <use xlink:href="#DejaVuSansMono-20" transform="translate(60.205078 0)"/>
     <use xlink:href="#DejaVuSansMono-22" transform="translate(120.410156 0)"/>
     <use xlink:href="#DejaVuSansMono-73" transform="translate(180.615234 0)"/>
     <use xlink:href="#DejaVuSansMono-68" transform="translate(240.820312 0)"/>
     <use xlink:href="#DejaVuSansMono-61" transform="translate(301.025391 0)"/>
     <use xlink:href="#DejaVuSansMono-70" transform="translate(361.230469 0)"/>
     <use xlink:href="#DejaVuSansMono-65" transform="translate(421.435547 0)"/>
     <use xlink:href="#DejaVuSansMono-22" transform="translate(481.640625 0)"/>
     <use xlink:href="#DejaVuSansMono-3a" transform="translate(541.845703 0)"/>
     <use xlink:href="#DejaVuSansMono-20" transform="translate(602.050781 0)"/>
     <use xlink:href="#DejaVuSansMono-5b" transform="translate(662.255859 0)"/>
     <use xlink:href="#DejaVuSansMono-32" transform="translate(722.460938 0)"/>
     <use xlink:href="#DejaVuSansMono-35" transform="translate(782.666016 0)"/>
     <use xlink:href="#DejaVuSansMono-36" transform="translate(842.871094 0)"/>
     <use xlink:href="#DejaVuSansMono-2c" transform="translate(903.076172 0)"/>
     <use xlink:href="#DejaVuSansMono-20" transform="translate(963.28125 0)"/>
     <use xlink:href="#DejaVuSansMono-32" transform="translate(1023.486328 0)"/>
     <use xlink:href="#DejaVuSansMono-30" transform="translate(1083.691406 0)"/>
     <use xlink:href="#DejaVuSansMono-5d" transform="translate(1143.896484 0)"/>
     <use xlink:href="#DejaVuSansMono-2c" transform="translate(1204.101562 0)"/>
    </g>
   </g>
   <g id="text_11">
    <!--   "data_offsets": [0, 20480]}, ... -->
    <g transform="translate(67.612569 177.974212) scale(0.087 -0.087)">
     <defs>
      <path id="DejaVuSansMono-5f" d="M 3853 -1259 
L 3853 -1509 
L 0 -1509 
L 0 -1259 
L 3853 -1259 
z
" transform="scale(0.015625)"/>
      <path id="DejaVuSansMono-6f" d="M 1925 3097 
Q 1488 3097 1263 2756 
Q 1038 2416 1038 1747 
Q 1038 1081 1263 739 
Q 1488 397 1925 397 
Q 2366 397 2591 739 
Q 2816 1081 2816 1747 
Q 2816 2416 2591 2756 
Q 2366 3097 1925 3097 
z
M 1925 3584 
Q 2653 3584 3039 3112 
Q 3425 2641 3425 1747 
Q 3425 850 3040 379 
Q 2656 -91 1925 -91 
Q 1197 -91 812 379 
Q 428 850 428 1747 
Q 428 2641 812 3112 
Q 1197 3584 1925 3584 
z
" transform="scale(0.015625)"/>
      <path id="DejaVuSansMono-66" d="M 3322 4863 
L 3322 4384 
L 2669 4384 
Q 2359 4384 2239 4257 
Q 2119 4131 2119 3809 
L 2119 3500 
L 3322 3500 
L 3322 3053 
L 2119 3053 
L 2119 0 
L 1544 0 
L 1544 3053 
L 609 3053 
L 609 3500 
L 1544 3500 
L 1544 3744 
Q 1544 4319 1808 4591 
Q 2072 4863 2631 4863 
L 3322 4863 
z
" transform="scale(0.015625)"/>
      <path id="DejaVuSansMono-34" d="M 2297 4091 
L 825 1625 
L 2297 1625 
L 2297 4091 
z
M 2194 4666 
L 2925 4666 
L 2925 1625 
L 3547 1625 
L 3547 1113 
L 2925 1113 
L 2925 0 
L 2297 0 
L 2297 1113 
L 319 1113 
L 319 1709 
L 2194 4666 
z
" transform="scale(0.015625)"/>
      <path id="DejaVuSansMono-38" d="M 1925 2216 
Q 1503 2216 1273 1980 
Q 1044 1744 1044 1313 
Q 1044 881 1276 642 
Q 1509 403 1925 403 
Q 2350 403 2579 639 
Q 2809 875 2809 1313 
Q 2809 1741 2576 1978 
Q 2344 2216 1925 2216 
z
M 1375 2478 
Q 972 2581 745 2862 
Q 519 3144 519 3541 
Q 519 4097 897 4423 
Q 1275 4750 1925 4750 
Q 2578 4750 2956 4423 
Q 3334 4097 3334 3541 
Q 3334 3144 3107 2862 
Q 2881 2581 2478 2478 
Q 2947 2375 3195 2062 
Q 3444 1750 3444 1253 
Q 3444 622 3041 265 
Q 2638 -91 1925 -91 
Q 1213 -91 811 264 
Q 409 619 409 1247 
Q 409 1747 657 2061 
Q 906 2375 1375 2478 
z
M 1147 3481 
Q 1147 3106 1347 2909 
Q 1547 2713 1925 2713 
Q 2306 2713 2506 2909 
Q 2706 3106 2706 3481 
Q 2706 3863 2507 4063 
Q 2309 4263 1925 4263 
Q 1547 4263 1347 4061 
Q 1147 3859 1147 3481 
z
" transform="scale(0.015625)"/>
      <path id="DejaVuSansMono-7d" d="M 691 -594 
L 903 -594 
Q 1344 -594 1478 -456 
Q 1613 -319 1613 122 
L 1613 897 
Q 1613 1384 1753 1606 
Q 1894 1828 2241 1913 
Q 1897 1991 1755 2212 
Q 1613 2434 1613 2925 
L 1613 3700 
Q 1613 4141 1478 4278 
Q 1344 4416 903 4416 
L 691 4416 
L 691 4863 
L 884 4863 
Q 1663 4863 1925 4633 
Q 2188 4403 2188 3713 
L 2188 2963 
Q 2188 2494 2355 2316 
Q 2522 2138 2963 2138 
L 3163 2138 
L 3163 1691 
L 2963 1691 
Q 2522 1691 2355 1509 
Q 2188 1328 2188 856 
L 2188 109 
Q 2188 -581 1925 -812 
Q 1663 -1044 884 -1044 
L 691 -1044 
L 691 -594 
z
" transform="scale(0.015625)"/>
     </defs>
     <use xlink:href="#DejaVuSansMono-20"/>
     <use xlink:href="#DejaVuSansMono-20" transform="translate(60.205078 0)"/>
     <use xlink:href="#DejaVuSansMono-22" transform="translate(120.410156 0)"/>
     <use xlink:href="#DejaVuSansMono-64" transform="translate(180.615234 0)"/>
     <use xlink:href="#DejaVuSansMono-61" transform="translate(240.820312 0)"/>
     <use xlink:href="#DejaVuSansMono-74" transform="translate(301.025391 0)"/>
     <use xlink:href="#DejaVuSansMono-61" transform="translate(361.230469 0)"/>
     <use xlink:href="#DejaVuSansMono-5f" transform="translate(421.435547 0)"/>
     <use xlink:href="#DejaVuSansMono-6f" transform="translate(481.640625 0)"/>
     <use xlink:href="#DejaVuSansMono-66" transform="translate(541.845703 0)"/>
     <use xlink:href="#DejaVuSansMono-66" transform="translate(602.050781 0)"/>
     <use xlink:href="#DejaVuSansMono-73" transform="translate(662.255859 0)"/>
     <use xlink:href="#DejaVuSansMono-65" transform="translate(722.460938 0)"/>
     <use xlink:href="#DejaVuSansMono-74" transform="translate(782.666016 0)"/>
     <use xlink:href="#DejaVuSansMono-73" transform="translate(842.871094 0)"/>
     <use xlink:href="#DejaVuSansMono-22" transform="translate(903.076172 0)"/>
     <use xlink:href="#DejaVuSansMono-3a" transform="translate(963.28125 0)"/>
     <use xlink:href="#DejaVuSansMono-20" transform="translate(1023.486328 0)"/>
     <use xlink:href="#DejaVuSansMono-5b" transform="translate(1083.691406 0)"/>
     <use xlink:href="#DejaVuSansMono-30" transform="translate(1143.896484 0)"/>
     <use xlink:href="#DejaVuSansMono-2c" transform="translate(1204.101562 0)"/>
     <use xlink:href="#DejaVuSansMono-20" transform="translate(1264.306641 0)"/>
     <use xlink:href="#DejaVuSansMono-32" transform="translate(1324.511719 0)"/>
     <use xlink:href="#DejaVuSansMono-30" transform="translate(1384.716797 0)"/>
     <use xlink:href="#DejaVuSansMono-34" transform="translate(1444.921875 0)"/>
     <use xlink:href="#DejaVuSansMono-38" transform="translate(1505.126953 0)"/>
     <use xlink:href="#DejaVuSansMono-30" transform="translate(1565.332031 0)"/>
     <use xlink:href="#DejaVuSansMono-5d" transform="translate(1625.537109 0)"/>
     <use xlink:href="#DejaVuSansMono-7d" transform="translate(1685.742188 0)"/>
     <use xlink:href="#DejaVuSansMono-2c" transform="translate(1745.947266 0)"/>
     <use xlink:href="#DejaVuSansMono-20" transform="translate(1806.152344 0)"/>
     <use xlink:href="#DejaVuSansMono-2e" transform="translate(1866.357422 0)"/>
     <use xlink:href="#DejaVuSansMono-2e" transform="translate(1926.5625 0)"/>
     <use xlink:href="#DejaVuSansMono-2e" transform="translate(1986.767578 0)"/>
    </g>
   </g>
  </g>
 </g>
 <defs>
  <clipPath id="pffb28c312a">
   <rect x="15.768096" y="7.2" width="597.137243" height="238.392"/>
  </clipPath>
 </defs>
</svg>
