<?xml version="1.0" encoding="utf-8" standalone="no"?>
<!DOCTYPE svg PUBLIC "-//W3C//DTD SVG 1.1//EN"
  "http://www.w3.org/Graphics/SVG/1.1/DTD/svg11.dtd">
<svg xmlns:xlink="http://www.w3.org/1999/xlink" width="366.472769pt" height="270.231692pt" viewBox="0 0 366.472769 270.231692" xmlns="http://www.w3.org/2000/svg" version="1.1">
 <metadata>
  <rdf:RDF xmlns:dc="http://purl.org/dc/elements/1.1/" xmlns:cc="http://creativecommons.org/ns#" xmlns:rdf="http://www.w3.org/1999/02/22-rdf-syntax-ns#">
   <cc:Work>
    <dc:type rdf:resource="http://purl.org/dc/dcmitype/StillImage"/>
    <dc:format>image/svg+xml</dc:format>
    <dc:creator>
     <cc:Agent>
      <dc:title>Matplotlib v3.10.8, https://matplotlib.org/</dc:title>
     </cc:Agent>
    </dc:creator>
   </cc:Work>
  </rdf:RDF>
 </metadata>
 <defs>
  <style type="text/css">*{stroke-linejoin: round; stroke-linecap: butt}</style>
 </defs>
 <g id="figure_1">
  <g id="patch_1">
   <path d="M -0 270.231692 
L 366.472769 270.231692 
L 366.472769 0 
L -0 0 
z
" style="fill: #ffffff"/>
  </g>
  <g id="axes_1">
   <g id="patch_2">
    <path d="M 47.461154 219.593538 
L 75.485769 219.593538 
L 75.485769 51.445846 
L 47.461154 51.445846 
z
" clip-path="url(#pd3a7b85797)" style="fill: #1f77b4; opacity: 0.22; stroke: #1f77b4; stroke-width: 1.4; stroke-linejoin: miter"/>
   </g>
   <g id="patch_3">
    <path d="M 75.485769 219.593538 
L 103.510385 219.593538 
L 103.510385 51.445846 
L 75.485769 51.445846 
z
" clip-path="url(#pd3a7b85797)" style="fill: #1f77b4; opacity: 0.22; stroke: #1f77b4; stroke-width: 1.4; stroke-linejoin: miter"/>
   </g>
   <g id="patch_4">
    <path d="M 103.510385 219.593538 
L 131.535 219.593538 
L 131.535 51.445846 
L 103.510385 51.445846 
z
" clip-path="url(#pd3a7b85797)" style="fill: #1f77b4; opacity: 0.22; stroke: #1f77b4; stroke-width: 1.4; stroke-linejoin: miter"/>
   </g>
   <g id="patch_5">
    <path d="M 131.535 219.593538 
L 159.559615 219.593538 
L 159.559615 51.445846 
L 131.535 51.445846 
z
" clip-path="url(#pd3a7b85797)" style="fill: #ff7f0e; opacity: 0.55; stroke: #ff7f0e; stroke-width: 1.4; stroke-linejoin: miter"/>
   </g>
   <g id="patch_6">
    <path d="M 159.559615 219.593538 
L 187.584231 219.593538 
L 187.584231 51.445846 
L 159.559615 51.445846 
L 159.559615 219.593538 
z
" clip-path="url(#pd3a7b85797)" style="fill: none; stroke-dasharray: 5.18,2.24; stroke-dashoffset: 0; stroke: #7f7f7f; stroke-width: 1.4; stroke-linejoin: miter"/>
   </g>
   <g id="patch_7">
    <path d="M 187.584231 219.593538 
L 215.608846 219.593538 
L 215.608846 51.445846 
L 187.584231 51.445846 
L 187.584231 219.593538 
z
" clip-path="url(#pd3a7b85797)" style="fill: none; stroke-dasharray: 5.18,2.24; stroke-dashoffset: 0; stroke: #7f7f7f; stroke-width: 1.4; stroke-linejoin: miter"/>
   </g>
   <g id="patch_8">
    <path d="M 47.461154 219.593538 
L 215.608846 219.593538 
L 215.608846 51.445846 
L 47.461154 51.445846 
L 47.461154 219.593538 
z
" clip-path="url(#pd3a7b85797)" style="fill: none; stroke: #000000; stroke-width: 1.6; stroke-linejoin: miter"/>
   </g>
   <g id="patch_9">
    <path d="M 263.250692 219.593538 
L 271.097585 219.593538 
L 271.097585 51.445846 
L 263.250692 51.445846 
z
" clip-path="url(#pd3a7b85797)" style="fill: #2ca02c; opacity: 0.45; stroke: #2ca02c; stroke-linejoin: miter"/>
   </g>
   <g id="patch_10">
    <path d="M 280.625954 219.593538 
L 288.472846 219.593538 
L 288.472846 51.445846 
L 280.625954 51.445846 
z
" clip-path="url(#pd3a7b85797)" style="fill: #2ca02c; opacity: 0.45; stroke: #2ca02c; stroke-linejoin: miter"/>
   </g>
   <g id="patch_11">
    <path d="M 298.001215 219.593538 
L 324.6246 219.593538 
L 324.6246 51.445846 
L 298.001215 51.445846 
z
" clip-path="url(#pd3a7b85797)" style="fill: #1f77b4; opacity: 0.3; stroke: #1f77b4; stroke-linejoin: miter"/>
   </g>
   <g id="patch_12">
    <path d="M 49.46191 40.236 
Q 76.88631 40.236 102.745463 40.236 
" style="fill: none; stroke: #000000; stroke-width: 1.4; stroke-linecap: round"/>
    <path d="M 98.345463 38.036 
L 102.745463 40.236 
L 98.345463 42.436 
" style="fill: none; stroke: #000000; stroke-width: 1.4; stroke-linecap: round"/>
   </g>
   <g id="text_1">
    <!-- keys ($n$ columns) -->
    <g transform="translate(21.442 32.461569) scale(0.13 -0.13)">
     <defs>
      <path id="DejaVuSans-6b" d="M 581 4863 
L 1159 4863 
L 1159 1991 
L 2875 3500 
L 3609 3500 
L 1753 1863 
L 3688 0 
L 2938 0 
L 1159 1709 
L 1159 0 
L 581 0 
L 581 4863 
z
" transform="scale(0.015625)"/>
      <path id="DejaVuSans-65" d="M 3597 1894 
L 3597 1613 
L 953 1613 
Q 991 1019 1311 708 
Q 1631 397 2203 397 
Q 2534 397 2845 478 
Q 3156 559 3463 722 
L 3463 178 
Q 3153 47 2828 -22 
Q 2503 -91 2169 -91 
Q 1331 -91 842 396 
Q 353 884 353 1716 
Q 353 2575 817 3079 
Q 1281 3584 2069 3584 
Q 2775 3584 3186 3129 
Q 3597 2675 3597 1894 
z
M 3022 2063 
Q 3016 2534 2758 2815 
Q 2500 3097 2075 3097 
Q 1594 3097 1305 2825 
Q 1016 2553 972 2059 
L 3022 2063 
z
" transform="scale(0.015625)"/>
      <path id="DejaVuSans-79" d="M 2059 -325 
Q 1816 -950 1584 -1140 
Q 1353 -1331 966 -1331 
L 506 -1331 
L 506 -850 
L 844 -850 
Q 1081 -850 1212 -737 
Q 1344 -625 1503 -206 
L 1606 56 
L 191 3500 
L 800 3500 
L 1894 763 
L 2988 3500 
L 3597 3500 
L 2059 -325 
z
" transform="scale(0.015625)"/>
      <path id="DejaVuSans-73" d="M 2834 3397 
L 2834 2853 
Q 2591 2978 2328 3040 
Q 2066 3103 1784 3103 
Q 1356 3103 1142 2972 
Q 928 2841 928 2578 
Q 928 2378 1081 2264 
Q 1234 2150 1697 2047 
L 1894 2003 
Q 2506 1872 2764 1633 
Q 3022 1394 3022 966 
Q 3022 478 2636 193 
Q 2250 -91 1575 -91 
Q 1294 -91 989 -36 
Q 684 19 347 128 
L 347 722 
Q 666 556 975 473 
Q 1284 391 1588 391 
Q 1994 391 2212 530 
Q 2431 669 2431 922 
Q 2431 1156 2273 1281 
Q 2116 1406 1581 1522 
L 1381 1569 
Q 847 1681 609 1914 
Q 372 2147 372 2553 
Q 372 3047 722 3315 
Q 1072 3584 1716 3584 
Q 2034 3584 2315 3537 
Q 2597 3491 2834 3397 
z
" transform="scale(0.015625)"/>
      <path id="DejaVuSans-20" transform="scale(0.015625)"/>
      <path id="DejaVuSans-28" d="M 1984 4856 
Q 1566 4138 1362 3434 
Q 1159 2731 1159 2009 
Q 1159 1288 1364 580 
Q 1569 -128 1984 -844 
L 1484 -844 
Q 1016 -109 783 600 
Q 550 1309 550 2009 
Q 550 2706 781 3412 
Q 1013 4119 1484 4856 
L 1984 4856 
z
" transform="scale(0.015625)"/>
      <path id="Cmmi10-6e" d="M 494 109 
Q 494 147 500 166 
L 978 2075 
Q 1025 2253 1025 2388 
Q 1025 2663 838 2663 
Q 638 2663 541 2423 
Q 444 2184 353 1819 
Q 353 1800 334 1789 
Q 316 1778 300 1778 
L 225 1778 
Q 203 1778 187 1801 
Q 172 1825 172 1844 
Q 241 2122 305 2315 
Q 369 2509 505 2668 
Q 641 2828 844 2828 
Q 1084 2828 1268 2676 
Q 1453 2525 1453 2291 
Q 1644 2541 1900 2684 
Q 2156 2828 2444 2828 
Q 2672 2828 2837 2750 
Q 3003 2672 3095 2514 
Q 3188 2356 3188 2138 
Q 3188 1875 3070 1503 
Q 2953 1131 2778 672 
Q 2688 463 2688 288 
Q 2688 97 2834 97 
Q 3084 97 3251 365 
Q 3419 634 3488 941 
Q 3500 978 3541 978 
L 3616 978 
Q 3641 978 3658 962 
Q 3675 947 3675 922 
Q 3675 916 3669 903 
Q 3581 541 3364 234 
Q 3147 -72 2822 -72 
Q 2597 -72 2437 83 
Q 2278 238 2278 459 
Q 2278 578 2328 709 
Q 2409 919 2514 1209 
Q 2619 1500 2686 1765 
Q 2753 2031 2753 2234 
Q 2753 2413 2679 2538 
Q 2606 2663 2431 2663 
Q 2197 2663 2000 2559 
Q 1803 2456 1656 2286 
Q 1509 2116 1388 1881 
L 953 141 
Q 931 53 854 -9 
Q 778 -72 684 -72 
Q 606 -72 550 -22 
Q 494 28 494 109 
z
" transform="scale(0.015625)"/>
      <path id="DejaVuSans-63" d="M 3122 3366 
L 3122 2828 
Q 2878 2963 2633 3030 
Q 2388 3097 2138 3097 
Q 1578 3097 1268 2742 
Q 959 2388 959 1747 
Q 959 1106 1268 751 
Q 1578 397 2138 397 
Q 2388 397 2633 464 
Q 2878 531 3122 666 
L 3122 134 
Q 2881 22 2623 -34 
Q 2366 -91 2075 -91 
Q 1284 -91 818 406 
Q 353 903 353 1747 
Q 353 2603 823 3093 
Q 1294 3584 2113 3584 
Q 2378 3584 2631 3529 
Q 2884 3475 3122 3366 
z
" transform="scale(0.015625)"/>
      <path id="DejaVuSans-6f" d="M 1959 3097 
Q 1497 3097 1228 2736 
Q 959 2375 959 1747 
Q 959 1119 1226 758 
Q 1494 397 1959 397 
Q 2419 397 2687 759 
Q 2956 1122 2956 1747 
Q 2956 2369 2687 2733 
Q 2419 3097 1959 3097 
z
M 1959 3584 
Q 2709 3584 3137 3096 
Q 3566 2609 3566 1747 
Q 3566 888 3137 398 
Q 2709 -91 1959 -91 
Q 1206 -91 779 398 
Q 353 888 353 1747 
Q 353 2609 779 3096 
Q 1206 3584 1959 3584 
z
" transform="scale(0.015625)"/>
      <path id="DejaVuSans-6c" d="M 603 4863 
L 1178 4863 
L 1178 0 
L 603 0 
L 603 4863 
z
" transform="scale(0.015625)"/>
      <path id="DejaVuSans-75" d="M 544 1381 
L 544 3500 
L 1119 3500 
L 1119 1403 
Q 1119 906 1312 657 
Q 1506 409 1894 409 
Q 2359 409 2629 706 
Q 2900 1003 2900 1516 
L 2900 3500 
L 3475 3500 
L 3475 0 
L 2900 0 
L 2900 538 
Q 2691 219 2414 64 
Q 2138 -91 1772 -91 
Q 1169 -91 856 284 
Q 544 659 544 1381 
z
M 1991 3584 
L 1991 3584 
z
" transform="scale(0.015625)"/>
      <path id="DejaVuSans-6d" d="M 3328 2828 
Q 3544 3216 3844 3400 
Q 4144 3584 4550 3584 
Q 5097 3584 5394 3201 
Q 5691 2819 5691 2113 
L 5691 0 
L 5113 0 
L 5113 2094 
Q 5113 2597 4934 2840 
Q 4756 3084 4391 3084 
Q 3944 3084 3684 2787 
Q 3425 2491 3425 1978 
L 3425 0 
L 2847 0 
L 2847 2094 
Q 2847 2600 2669 2842 
Q 2491 3084 2119 3084 
Q 1678 3084 1418 2786 
Q 1159 2488 1159 1978 
L 1159 0 
L 581 0 
L 581 3500 
L 1159 3500 
L 1159 2956 
Q 1356 3278 1631 3431 
Q 1906 3584 2284 3584 
Q 2666 3584 2933 3390 
Q 3200 3197 3328 2828 
z
" transform="scale(0.015625)"/>
      <path id="DejaVuSans-6e" d="M 3513 2113 
L 3513 0 
L 2938 0 
L 2938 2094 
Q 2938 2591 2744 2837 
Q 2550 3084 2163 3084 
Q 1697 3084 1428 2787 
Q 1159 2491 1159 1978 
L 1159 0 
L 581 0 
L 581 3500 
L 1159 3500 
L 1159 2956 
Q 1366 3272 1645 3428 
Q 1925 3584 2291 3584 
Q 2894 3584 3203 3211 
Q 3513 2838 3513 2113 
z
" transform="scale(0.015625)"/>
      <path id="DejaVuSans-29" d="M 513 4856 
L 1013 4856 
Q 1481 4119 1714 3412 
Q 1947 2706 1947 2009 
Q 1947 1309 1714 600 
Q 1481 -109 1013 -844 
L 513 -844 
Q 928 -128 1133 580 
Q 1338 1288 1338 2009 
Q 1338 2731 1133 3434 
Q 928 4138 513 4856 
z
" transform="scale(0.015625)"/>
     </defs>
     <use xlink:href="#DejaVuSans-6b" transform="translate(0 0.015625)"/>
     <use xlink:href="#DejaVuSans-65" transform="translate(57.910156 0.015625)"/>
     <use xlink:href="#DejaVuSans-79" transform="translate(119.433594 0.015625)"/>
     <use xlink:href="#DejaVuSans-73" transform="translate(178.613281 0.015625)"/>
     <use xlink:href="#DejaVuSans-20" transform="translate(230.712891 0.015625)"/>
     <use xlink:href="#DejaVuSans-28" transform="translate(262.5 0.015625)"/>
     <use xlink:href="#Cmmi10-6e" transform="translate(301.513672 0.015625)"/>
     <use xlink:href="#DejaVuSans-20" transform="translate(361.523438 0.015625)"/>
     <use xlink:href="#DejaVuSans-63" transform="translate(393.310547 0.015625)"/>
     <use xlink:href="#DejaVuSans-6f" transform="translate(448.291016 0.015625)"/>
     <use xlink:href="#DejaVuSans-6c" transform="translate(509.472656 0.015625)"/>
     <use xlink:href="#DejaVuSans-75" transform="translate(537.255859 0.015625)"/>
     <use xlink:href="#DejaVuSans-6d" transform="translate(600.634766 0.015625)"/>
     <use xlink:href="#DejaVuSans-6e" transform="translate(698.046875 0.015625)"/>
     <use xlink:href="#DejaVuSans-73" transform="translate(761.425781 0.015625)"/>
     <use xlink:href="#DejaVuSans-29" transform="translate(813.525391 0.015625)"/>
    </g>
   </g>
   <g id="patch_13">
    <path d="M 33.448846 53.445063 
Q 33.448846 85.073232 33.448846 115.136153 
" style="fill: none; stroke: #000000; stroke-width: 1.4; stroke-linecap: round"/>
    <path d="M 35.648846 110.736153 
L 33.448846 115.136153 
L 31.248846 110.736153 
" style="fill: none; stroke: #000000; stroke-width: 1.4; stroke-linecap: round"/>
   </g>
   <g id="text_2">
    <!-- queries ($n$ rows) -->
    <g transform="translate(27.215231 137.660385) rotate(-90) scale(0.13 -0.13)">
     <defs>
      <path id="DejaVuSans-71" d="M 947 1747 
Q 947 1113 1208 752 
Q 1469 391 1925 391 
Q 2381 391 2643 752 
Q 2906 1113 2906 1747 
Q 2906 2381 2643 2742 
Q 2381 3103 1925 3103 
Q 1469 3103 1208 2742 
Q 947 2381 947 1747 
z
M 2906 525 
Q 2725 213 2448 61 
Q 2172 -91 1784 -91 
Q 1150 -91 751 415 
Q 353 922 353 1747 
Q 353 2572 751 3078 
Q 1150 3584 1784 3584 
Q 2172 3584 2448 3432 
Q 2725 3281 2906 2969 
L 2906 3500 
L 3481 3500 
L 3481 -1331 
L 2906 -1331 
L 2906 525 
z
" transform="scale(0.015625)"/>
      <path id="DejaVuSans-72" d="M 2631 2963 
Q 2534 3019 2420 3045 
Q 2306 3072 2169 3072 
Q 1681 3072 1420 2755 
Q 1159 2438 1159 1844 
L 1159 0 
L 581 0 
L 581 3500 
L 1159 3500 
L 1159 2956 
Q 1341 3275 1631 3429 
Q 1922 3584 2338 3584 
Q 2397 3584 2469 3576 
Q 2541 3569 2628 3553 
L 2631 2963 
z
" transform="scale(0.015625)"/>
      <path id="DejaVuSans-69" d="M 603 3500 
L 1178 3500 
L 1178 0 
L 603 0 
L 603 3500 
z
M 603 4863 
L 1178 4863 
L 1178 4134 
L 603 4134 
L 603 4863 
z
" transform="scale(0.015625)"/>
      <path id="DejaVuSans-77" d="M 269 3500 
L 844 3500 
L 1563 769 
L 2278 3500 
L 2956 3500 
L 3675 769 
L 4391 3500 
L 4966 3500 
L 4050 0 
L 3372 0 
L 2619 2869 
L 1863 0 
L 1184 0 
L 269 3500 
z
" transform="scale(0.015625)"/>
     </defs>
     <use xlink:href="#DejaVuSans-71" transform="translate(0 0.015625)"/>
     <use xlink:href="#DejaVuSans-75" transform="translate(63.476562 0.015625)"/>
     <use xlink:href="#DejaVuSans-65" transform="translate(126.855469 0.015625)"/>
     <use xlink:href="#DejaVuSans-72" transform="translate(188.378906 0.015625)"/>
     <use xlink:href="#DejaVuSans-69" transform="translate(229.492188 0.015625)"/>
     <use xlink:href="#DejaVuSans-65" transform="translate(257.275391 0.015625)"/>
     <use xlink:href="#DejaVuSans-73" transform="translate(318.798828 0.015625)"/>
     <use xlink:href="#DejaVuSans-20" transform="translate(370.898438 0.015625)"/>
     <use xlink:href="#DejaVuSans-28" transform="translate(402.685547 0.015625)"/>
     <use xlink:href="#Cmmi10-6e" transform="translate(441.699219 0.015625)"/>
     <use xlink:href="#DejaVuSans-20" transform="translate(501.708984 0.015625)"/>
     <use xlink:href="#DejaVuSans-72" transform="translate(533.496094 0.015625)"/>
     <use xlink:href="#DejaVuSans-6f" transform="translate(574.609375 0.015625)"/>
     <use xlink:href="#DejaVuSans-77" transform="translate(635.791016 0.015625)"/>
     <use xlink:href="#DejaVuSans-73" transform="translate(717.578125 0.015625)"/>
     <use xlink:href="#DejaVuSans-29" transform="translate(769.677734 0.015625)"/>
    </g>
   </g>
   <g id="text_3">
    <!-- scores $\mathbf{Q}\mathbf{K}^\top\!/\sqrt{d}\,$: one block at a time -->
    <g transform="translate(7.2 246.147) scale(0.135 -0.135)">
     <defs>
      <path id="Cmb10-51" d="M 2400 -72 
Q 1919 -72 1541 97 
Q 1163 266 894 577 
Q 625 888 492 1297 
Q 359 1706 359 2169 
Q 359 2803 593 3328 
Q 828 3853 1287 4156 
Q 1747 4459 2400 4459 
Q 3050 4459 3508 4156 
Q 3966 3853 4200 3328 
Q 4434 2803 4434 2169 
Q 4434 1734 4314 1331 
Q 4194 928 3942 614 
Q 3691 300 3297 122 
Q 3406 -47 3515 -142 
Q 3625 -238 3775 -238 
Q 3950 -238 4097 -181 
Q 4244 -125 4244 13 
Q 4266 116 4359 116 
Q 4406 116 4440 77 
Q 4475 38 4475 -13 
Q 4475 -288 4404 -572 
Q 4334 -856 4162 -1048 
Q 3991 -1241 3706 -1241 
Q 3400 -1241 3239 -1055 
Q 3078 -869 3025 -639 
Q 2972 -409 2919 -13 
Q 2647 -72 2400 -72 
z
M 2081 475 
Q 2081 341 2172 277 
Q 2263 213 2400 213 
Q 2644 213 2847 341 
Q 2725 750 2400 750 
Q 2325 750 2250 715 
Q 2175 681 2128 615 
Q 2081 550 2081 475 
z
M 1825 422 
L 1825 475 
Q 1825 619 1904 742 
Q 1984 866 2117 936 
Q 2250 1006 2400 1006 
Q 2797 1006 3072 525 
Q 3209 675 3292 875 
Q 3375 1075 3414 1283 
Q 3453 1491 3461 1691 
Q 3469 1891 3469 2169 
Q 3469 2506 3453 2731 
Q 3438 2956 3386 3189 
Q 3334 3422 3219 3641 
Q 3100 3878 2879 4028 
Q 2659 4178 2400 4178 
Q 2134 4178 1918 4031 
Q 1703 3884 1575 3641 
Q 1416 3341 1370 2998 
Q 1325 2656 1325 2169 
Q 1325 1869 1337 1661 
Q 1350 1453 1397 1217 
Q 1444 981 1550 772 
Q 1656 563 1825 422 
z
" transform="scale(0.015625)"/>
      <path id="Cmb10-4b" d="M 219 0 
L 219 325 
L 819 325 
L 819 4063 
L 219 4063 
L 219 4391 
L 2356 4391 
L 2356 4063 
L 1753 4063 
L 1753 2163 
L 3609 4013 
Q 3609 4028 3561 4036 
Q 3513 4044 3488 4044 
Q 3344 4063 3194 4063 
L 3194 4391 
L 4653 4391 
L 4653 4063 
Q 4134 4063 4072 4006 
L 2766 2706 
L 4231 384 
Q 4294 325 4744 325 
L 4744 0 
L 2834 0 
L 2834 325 
Q 3256 325 3256 378 
L 2163 2106 
L 1753 1697 
L 1753 325 
L 2356 325 
L 2356 0 
L 219 0 
z
" transform="scale(0.015625)"/>
      <path id="Cmsy10-3e" d="M 2363 122 
L 2363 4006 
L 481 4006 
Q 428 4006 393 4047 
Q 359 4088 359 4134 
Q 359 4181 393 4222 
Q 428 4263 481 4263 
L 4506 4263 
Q 4553 4263 4587 4222 
Q 4622 4181 4622 4134 
Q 4622 4088 4587 4047 
Q 4553 4006 4506 4006 
L 2619 4006 
L 2619 122 
Q 2619 69 2578 34 
Q 2538 0 2491 0 
Q 2438 0 2400 34 
Q 2363 69 2363 122 
z
" transform="scale(0.015625)"/>
      <path id="Cmmi10-3d" d="M 359 -1472 
Q 359 -1453 366 -1447 
L 2591 4722 
Q 2603 4759 2634 4779 
Q 2666 4800 2706 4800 
Q 2763 4800 2798 4765 
Q 2834 4731 2834 4672 
L 2834 4647 
L 609 -1522 
Q 572 -1600 488 -1600 
Q 434 -1600 396 -1562 
Q 359 -1525 359 -1472 
z
" transform="scale(0.015625)"/>
      <path id="Cmex10-70" d="M 2713 -7425 
L 1269 -4063 
L 819 -4409 
L 703 -4294 
L 1619 -3584 
L 2969 -6725 
L 6291 197 
Q 6322 256 6400 256 
Q 6453 256 6490 218 
Q 6528 181 6528 128 
Q 6528 97 6522 84 
L 2950 -7366 
Q 2925 -7425 2853 -7425 
L 2713 -7425 
z
" transform="scale(0.015625)"/>
      <path id="Cmmi10-64" d="M 1113 -72 
Q 709 -72 476 233 
Q 244 538 244 953 
Q 244 1363 456 1803 
Q 669 2244 1030 2536 
Q 1391 2828 1806 2828 
Q 1994 2828 2145 2723 
Q 2297 2619 2381 2444 
L 2741 3872 
Q 2766 3981 2772 4044 
Q 2772 4147 2356 4147 
Q 2291 4147 2291 4231 
Q 2294 4247 2305 4287 
Q 2316 4328 2333 4350 
Q 2350 4372 2381 4372 
L 3244 4441 
Q 3322 4441 3322 4359 
L 2400 678 
Q 2356 572 2356 372 
Q 2356 97 2541 97 
Q 2741 97 2845 351 
Q 2950 606 3022 941 
Q 3034 978 3072 978 
L 3150 978 
Q 3175 978 3190 956 
Q 3206 934 3206 916 
Q 3094 469 2961 198 
Q 2828 -72 2528 -72 
Q 2313 -72 2147 54 
Q 1981 181 1941 391 
Q 1528 -72 1113 -72 
z
M 1119 97 
Q 1350 97 1567 270 
Q 1784 444 1941 678 
Q 1947 684 1947 703 
L 2297 2113 
Q 2259 2338 2131 2500 
Q 2003 2663 1791 2663 
Q 1575 2663 1389 2486 
Q 1203 2309 1075 2069 
Q 950 1813 836 1366 
Q 722 919 722 672 
Q 722 450 817 273 
Q 913 97 1119 97 
z
" transform="scale(0.015625)"/>
      <path id="DejaVuSans-3a" d="M 750 794 
L 1409 794 
L 1409 0 
L 750 0 
L 750 794 
z
M 750 3309 
L 1409 3309 
L 1409 2516 
L 750 2516 
L 750 3309 
z
" transform="scale(0.015625)"/>
      <path id="DejaVuSans-62" d="M 3116 1747 
Q 3116 2381 2855 2742 
Q 2594 3103 2138 3103 
Q 1681 3103 1420 2742 
Q 1159 2381 1159 1747 
Q 1159 1113 1420 752 
Q 1681 391 2138 391 
Q 2594 391 2855 752 
Q 3116 1113 3116 1747 
z
M 1159 2969 
Q 1341 3281 1617 3432 
Q 1894 3584 2278 3584 
Q 2916 3584 3314 3078 
Q 3713 2572 3713 1747 
Q 3713 922 3314 415 
Q 2916 -91 2278 -91 
Q 1894 -91 1617 61 
Q 1341 213 1159 525 
L 1159 0 
L 581 0 
L 581 4863 
L 1159 4863 
L 1159 2969 
z
" transform="scale(0.015625)"/>
      <path id="DejaVuSans-61" d="M 2194 1759 
Q 1497 1759 1228 1600 
Q 959 1441 959 1056 
Q 959 750 1161 570 
Q 1363 391 1709 391 
Q 2188 391 2477 730 
Q 2766 1069 2766 1631 
L 2766 1759 
L 2194 1759 
z
M 3341 1997 
L 3341 0 
L 2766 0 
L 2766 531 
Q 2569 213 2275 61 
Q 1981 -91 1556 -91 
Q 1019 -91 701 211 
Q 384 513 384 1019 
Q 384 1609 779 1909 
Q 1175 2209 1959 2209 
L 2766 2209 
L 2766 2266 
Q 2766 2663 2505 2880 
Q 2244 3097 1772 3097 
Q 1472 3097 1187 3025 
Q 903 2953 641 2809 
L 641 3341 
Q 956 3463 1253 3523 
Q 1550 3584 1831 3584 
Q 2591 3584 2966 3190 
Q 3341 2797 3341 1997 
z
" transform="scale(0.015625)"/>
      <path id="DejaVuSans-74" d="M 1172 4494 
L 1172 3500 
L 2356 3500 
L 2356 3053 
L 1172 3053 
L 1172 1153 
Q 1172 725 1289 603 
Q 1406 481 1766 481 
L 2356 481 
L 2356 0 
L 1766 0 
Q 1100 0 847 248 
Q 594 497 594 1153 
L 594 3053 
L 172 3053 
L 172 3500 
L 594 3500 
L 594 4494 
L 1172 4494 
z
" transform="scale(0.015625)"/>
     </defs>
     <use xlink:href="#DejaVuSans-73" transform="translate(0 0.375)"/>
     <use xlink:href="#DejaVuSans-63" transform="translate(52.099609 0.375)"/>
     <use xlink:href="#DejaVuSans-6f" transform="translate(107.080078 0.375)"/>
     <use xlink:href="#DejaVuSans-72" transform="translate(168.261719 0.375)"/>
     <use xlink:href="#DejaVuSans-65" transform="translate(209.375 0.375)"/>
     <use xlink:href="#DejaVuSans-73" transform="translate(270.898438 0.375)"/>
     <use xlink:href="#DejaVuSans-20" transform="translate(322.998047 0.375)"/>
     <use xlink:href="#Cmb10-51" transform="translate(354.785156 0.375)"/>
     <use xlink:href="#Cmb10-4b" transform="translate(429.785156 0.375)"/>
     <use xlink:href="#Cmsy10-3e" transform="translate(524.860625 38.639062) scale(0.7)"/>
     <use xlink:href="#Cmmi10-3d" transform="translate(583.276413 0.375)"/>
     <use xlink:href="#Cmex10-70" transform="translate(633.276413 97.609375) scale(0.847936)"/>
     <use xlink:href="#Cmmi10-64" transform="translate(730.557663 0.359375)"/>
     <use xlink:href="#DejaVuSans-3a" transform="translate(809.69207 0.375)"/>
     <use xlink:href="#DejaVuSans-20" transform="translate(843.383477 0.375)"/>
     <use xlink:href="#DejaVuSans-6f" transform="translate(875.170586 0.375)"/>
     <use xlink:href="#DejaVuSans-6e" transform="translate(936.352227 0.375)"/>
     <use xlink:href="#DejaVuSans-65" transform="translate(999.731133 0.375)"/>
     <use xlink:href="#DejaVuSans-20" transform="translate(1061.25457 0.375)"/>
     <use xlink:href="#DejaVuSans-62" transform="translate(1093.04168 0.375)"/>
     <use xlink:href="#DejaVuSans-6c" transform="translate(1156.518242 0.375)"/>
     <use xlink:href="#DejaVuSans-6f" transform="translate(1184.301445 0.375)"/>
     <use xlink:href="#DejaVuSans-63" transform="translate(1245.483086 0.375)"/>
     <use xlink:href="#DejaVuSans-6b" transform="translate(1300.463555 0.375)"/>
     <use xlink:href="#DejaVuSans-20" transform="translate(1358.373711 0.375)"/>
     <use xlink:href="#DejaVuSans-61" transform="translate(1390.16082 0.375)"/>
     <use xlink:href="#DejaVuSans-74" transform="translate(1451.440117 0.375)"/>
     <use xlink:href="#DejaVuSans-20" transform="translate(1490.649102 0.375)"/>
     <use xlink:href="#DejaVuSans-61" transform="translate(1522.436211 0.375)"/>
     <use xlink:href="#DejaVuSans-20" transform="translate(1583.715508 0.375)"/>
     <use xlink:href="#DejaVuSans-74" transform="translate(1615.502617 0.375)"/>
     <use xlink:href="#DejaVuSans-69" transform="translate(1654.711602 0.375)"/>
     <use xlink:href="#DejaVuSans-6d" transform="translate(1682.494805 0.375)"/>
     <use xlink:href="#DejaVuSans-65" transform="translate(1779.906914 0.375)"/>
     <path d="M 718.057663 94.5 
L 718.057663 100.75 
L 795.059616 100.75 
L 795.059616 94.5 
L 718.057663 94.5 
z
"/>
    </g>
   </g>
   <g id="text_4">
    <g id="patch_14">
     <path d="M 49.213311 158.83763 
L 129.782843 158.83763 
L 129.782843 112.201755 
L 49.213311 112.201755 
z
" style="fill: #ffffff; opacity: 0.85"/>
    </g>
    <!-- folded into -->
    <g transform="translate(54.658077 124.549724) scale(0.13 -0.13)">
     <defs>
      <path id="DejaVuSans-66" d="M 2375 4863 
L 2375 4384 
L 1825 4384 
Q 1516 4384 1395 4259 
Q 1275 4134 1275 3809 
L 1275 3500 
L 2222 3500 
L 2222 3053 
L 1275 3053 
L 1275 0 
L 697 0 
L 697 3053 
L 147 3053 
L 147 3500 
L 697 3500 
L 697 3744 
Q 697 4328 969 4595 
Q 1241 4863 1831 4863 
L 2375 4863 
z
" transform="scale(0.015625)"/>
      <path id="DejaVuSans-64" d="M 2906 2969 
L 2906 4863 
L 3481 4863 
L 3481 0 
L 2906 0 
L 2906 525 
Q 2725 213 2448 61 
Q 2172 -91 1784 -91 
Q 1150 -91 751 415 
Q 353 922 353 1747 
Q 353 2572 751 3078 
Q 1150 3584 1784 3584 
Q 2172 3584 2448 3432 
Q 2725 3281 2906 2969 
z
M 947 1747 
Q 947 1113 1208 752 
Q 1469 391 1925 391 
Q 2381 391 2643 752 
Q 2906 1113 2906 1747 
Q 2906 2381 2643 2742 
Q 2381 3103 1925 3103 
Q 1469 3103 1208 2742 
Q 947 2381 947 1747 
z
" transform="scale(0.015625)"/>
     </defs>
     <use xlink:href="#DejaVuSans-66"/>
     <use xlink:href="#DejaVuSans-6f" transform="translate(35.205078 0)"/>
     <use xlink:href="#DejaVuSans-6c" transform="translate(96.386719 0)"/>
     <use xlink:href="#DejaVuSans-64" transform="translate(124.169922 0)"/>
     <use xlink:href="#DejaVuSans-65" transform="translate(187.646484 0)"/>
     <use xlink:href="#DejaVuSans-64" transform="translate(249.169922 0)"/>
     <use xlink:href="#DejaVuSans-20" transform="translate(312.646484 0)"/>
     <use xlink:href="#DejaVuSans-69" transform="translate(344.433594 0)"/>
     <use xlink:href="#DejaVuSans-6e" transform="translate(372.216797 0)"/>
     <use xlink:href="#DejaVuSans-74" transform="translate(435.595703 0)"/>
     <use xlink:href="#DejaVuSans-6f" transform="translate(474.804688 0)"/>
    </g>
    <!-- the running -->
    <g transform="translate(51.683311 139.10688) scale(0.13 -0.13)">
     <defs>
      <path id="DejaVuSans-68" d="M 3513 2113 
L 3513 0 
L 2938 0 
L 2938 2094 
Q 2938 2591 2744 2837 
Q 2550 3084 2163 3084 
Q 1697 3084 1428 2787 
Q 1159 2491 1159 1978 
L 1159 0 
L 581 0 
L 581 4863 
L 1159 4863 
L 1159 2956 
Q 1366 3272 1645 3428 
Q 1925 3584 2291 3584 
Q 2894 3584 3203 3211 
Q 3513 2838 3513 2113 
z
" transform="scale(0.015625)"/>
      <path id="DejaVuSans-67" d="M 2906 1791 
Q 2906 2416 2648 2759 
Q 2391 3103 1925 3103 
Q 1463 3103 1205 2759 
Q 947 2416 947 1791 
Q 947 1169 1205 825 
Q 1463 481 1925 481 
Q 2391 481 2648 825 
Q 2906 1169 2906 1791 
z
M 3481 434 
Q 3481 -459 3084 -895 
Q 2688 -1331 1869 -1331 
Q 1566 -1331 1297 -1286 
Q 1028 -1241 775 -1147 
L 775 -588 
Q 1028 -725 1275 -790 
Q 1522 -856 1778 -856 
Q 2344 -856 2625 -561 
Q 2906 -266 2906 331 
L 2906 616 
Q 2728 306 2450 153 
Q 2172 0 1784 0 
Q 1141 0 747 490 
Q 353 981 353 1791 
Q 353 2603 747 3093 
Q 1141 3584 1784 3584 
Q 2172 3584 2450 3431 
Q 2728 3278 2906 2969 
L 2906 3500 
L 3481 3500 
L 3481 434 
z
" transform="scale(0.015625)"/>
     </defs>
     <use xlink:href="#DejaVuSans-74"/>
     <use xlink:href="#DejaVuSans-68" transform="translate(39.208984 0)"/>
     <use xlink:href="#DejaVuSans-65" transform="translate(102.587891 0)"/>
     <use xlink:href="#DejaVuSans-20" transform="translate(164.111328 0)"/>
     <use xlink:href="#DejaVuSans-72" transform="translate(195.898438 0)"/>
     <use xlink:href="#DejaVuSans-75" transform="translate(237.011719 0)"/>
     <use xlink:href="#DejaVuSans-6e" transform="translate(300.390625 0)"/>
     <use xlink:href="#DejaVuSans-6e" transform="translate(363.769531 0)"/>
     <use xlink:href="#DejaVuSans-69" transform="translate(427.148438 0)"/>
     <use xlink:href="#DejaVuSans-6e" transform="translate(454.931641 0)"/>
     <use xlink:href="#DejaVuSans-67" transform="translate(518.310547 0)"/>
    </g>
    <!-- state -->
    <g transform="translate(73.032764 153.664036) scale(0.13 -0.13)">
     <use xlink:href="#DejaVuSans-73"/>
     <use xlink:href="#DejaVuSans-74" transform="translate(52.099609 0)"/>
     <use xlink:href="#DejaVuSans-61" transform="translate(91.308594 0)"/>
     <use xlink:href="#DejaVuSans-74" transform="translate(152.587891 0)"/>
     <use xlink:href="#DejaVuSans-65" transform="translate(191.796875 0)"/>
    </g>
   </g>
   <g id="text_5">
    <!-- current $n \times c$ block -->
    <g transform="translate(149.134495 194.669692) rotate(-90) scale(0.13 -0.13)">
     <defs>
      <path id="Cmsy10-a3" d="M 941 184 
Q 941 234 972 275 
L 2303 1600 
L 972 2931 
Q 941 2963 941 3016 
Q 941 3063 978 3103 
Q 1016 3144 1069 3144 
Q 1113 3144 1166 3103 
L 2491 1778 
L 3809 3103 
Q 3863 3144 3903 3144 
Q 3956 3144 3993 3106 
Q 4031 3069 4031 3016 
Q 4031 2963 4000 2931 
L 2669 1600 
L 4000 275 
Q 4031 234 4031 184 
Q 4031 131 3993 93 
Q 3956 56 3903 56 
Q 3856 56 3809 103 
L 2491 1422 
L 1166 103 
Q 1119 56 1069 56 
Q 1016 56 978 97 
Q 941 138 941 184 
z
" transform="scale(0.015625)"/>
      <path id="Cmmi10-63" d="M 750 763 
Q 750 484 892 290 
Q 1034 97 1300 97 
Q 1681 97 2032 272 
Q 2384 447 2606 756 
Q 2625 775 2656 775 
Q 2688 775 2720 739 
Q 2753 703 2753 672 
Q 2753 647 2741 634 
Q 2506 306 2109 117 
Q 1713 -72 1288 -72 
Q 981 -72 747 73 
Q 513 219 384 462 
Q 256 706 256 1013 
Q 256 1444 497 1869 
Q 738 2294 1138 2561 
Q 1538 2828 1978 2828 
Q 2266 2828 2495 2689 
Q 2725 2550 2725 2278 
Q 2725 2103 2623 1979 
Q 2522 1856 2350 1856 
Q 2247 1856 2176 1920 
Q 2106 1984 2106 2088 
Q 2106 2238 2215 2344 
Q 2325 2450 2472 2450 
L 2484 2450 
Q 2409 2559 2267 2611 
Q 2125 2663 1972 2663 
Q 1597 2663 1315 2342 
Q 1034 2022 892 1576 
Q 750 1131 750 763 
z
" transform="scale(0.015625)"/>
     </defs>
     <use xlink:href="#DejaVuSans-63" transform="translate(0 0.015625)"/>
     <use xlink:href="#DejaVuSans-75" transform="translate(54.980469 0.015625)"/>
     <use xlink:href="#DejaVuSans-72" transform="translate(118.359375 0.015625)"/>
     <use xlink:href="#DejaVuSans-72" transform="translate(159.472656 0.015625)"/>
     <use xlink:href="#DejaVuSans-65" transform="translate(200.585938 0.015625)"/>
     <use xlink:href="#DejaVuSans-6e" transform="translate(262.109375 0.015625)"/>
     <use xlink:href="#DejaVuSans-74" transform="translate(325.488281 0.015625)"/>
     <use xlink:href="#DejaVuSans-20" transform="translate(364.697266 0.015625)"/>
     <use xlink:href="#Cmmi10-6e" transform="translate(396.484375 0.015625)"/>
     <use xlink:href="#Cmsy10-a3" transform="translate(474.052734 0.015625)"/>
     <use xlink:href="#Cmmi10-63" transform="translate(569.296875 0.015625)"/>
     <use xlink:href="#DejaVuSans-20" transform="translate(612.509766 0.015625)"/>
     <use xlink:href="#DejaVuSans-62" transform="translate(644.296875 0.015625)"/>
     <use xlink:href="#DejaVuSans-6c" transform="translate(707.773438 0.015625)"/>
     <use xlink:href="#DejaVuSans-6f" transform="translate(735.556641 0.015625)"/>
     <use xlink:href="#DejaVuSans-63" transform="translate(796.738281 0.015625)"/>
     <use xlink:href="#DejaVuSans-6b" transform="translate(851.71875 0.015625)"/>
    </g>
   </g>
   <g id="text_6">
    <g id="patch_15">
     <path d="M 156.515267 151.559052 
L 227.060579 151.559052 
L 227.060579 119.480333 
L 156.515267 119.480333 
z
" style="fill: #ffffff; opacity: 0.85"/>
    </g>
    <!-- not yet -->
    <g style="fill: #7f7f7f" transform="translate(168.682454 131.828302) scale(0.13 -0.13)">
     <use xlink:href="#DejaVuSans-6e"/>
     <use xlink:href="#DejaVuSans-6f" transform="translate(63.378906 0)"/>
     <use xlink:href="#DejaVuSans-74" transform="translate(124.560547 0)"/>
     <use xlink:href="#DejaVuSans-20" transform="translate(163.769531 0)"/>
     <use xlink:href="#DejaVuSans-79" transform="translate(195.556641 0)"/>
     <use xlink:href="#DejaVuSans-65" transform="translate(254.736328 0)"/>
     <use xlink:href="#DejaVuSans-74" transform="translate(316.259766 0)"/>
    </g>
    <!-- computed -->
    <g style="fill: #7f7f7f" transform="translate(158.985267 146.385458) scale(0.13 -0.13)">
     <defs>
      <path id="DejaVuSans-70" d="M 1159 525 
L 1159 -1331 
L 581 -1331 
L 581 3500 
L 1159 3500 
L 1159 2969 
Q 1341 3281 1617 3432 
Q 1894 3584 2278 3584 
Q 2916 3584 3314 3078 
Q 3713 2572 3713 1747 
Q 3713 922 3314 415 
Q 2916 -91 2278 -91 
Q 1894 -91 1617 61 
Q 1341 213 1159 525 
z
M 3116 1747 
Q 3116 2381 2855 2742 
Q 2594 3103 2138 3103 
Q 1681 3103 1420 2742 
Q 1159 2381 1159 1747 
Q 1159 1113 1420 752 
Q 1681 391 2138 391 
Q 2594 391 2855 752 
Q 3116 1113 3116 1747 
z
" transform="scale(0.015625)"/>
     </defs>
     <use xlink:href="#DejaVuSans-63"/>
     <use xlink:href="#DejaVuSans-6f" transform="translate(54.980469 0)"/>
     <use xlink:href="#DejaVuSans-6d" transform="translate(116.162109 0)"/>
     <use xlink:href="#DejaVuSans-70" transform="translate(213.574219 0)"/>
     <use xlink:href="#DejaVuSans-75" transform="translate(277.050781 0)"/>
     <use xlink:href="#DejaVuSans-74" transform="translate(340.429688 0)"/>
     <use xlink:href="#DejaVuSans-65" transform="translate(379.638672 0)"/>
     <use xlink:href="#DejaVuSans-64" transform="translate(441.162109 0)"/>
    </g>
   </g>
   <g id="text_7">
    <!-- $\mathbf{m}$ -->
    <g transform="translate(261.294138 239.199228) scale(0.14 -0.14)">
     <defs>
      <path id="Cmb10-6d" d="M 141 0 
L 141 325 
L 581 325 
L 581 2322 
Q 581 2503 141 2503 
L 141 2828 
L 1269 2881 
L 1269 2259 
Q 1413 2541 1666 2711 
Q 1919 2881 2228 2881 
Q 2938 2881 3072 2322 
Q 3169 2484 3312 2612 
Q 3456 2741 3631 2811 
Q 3806 2881 4000 2881 
Q 4459 2881 4671 2657 
Q 4884 2434 4884 1966 
L 4884 325 
L 5325 325 
L 5325 0 
L 3738 0 
L 3738 325 
L 4128 325 
L 4128 1947 
L 4128 1966 
Q 4128 2625 3922 2625 
Q 3681 2625 3495 2486 
Q 3309 2347 3209 2125 
Q 3109 1903 3109 1672 
L 3109 325 
L 3553 325 
L 3553 0 
L 1966 0 
L 1966 325 
L 2356 325 
L 2356 1947 
L 2356 1966 
Q 2356 2625 2150 2625 
Q 1969 2625 1817 2545 
Q 1666 2466 1558 2327 
Q 1450 2188 1394 2020 
Q 1338 1853 1338 1672 
L 1338 325 
L 1778 325 
L 1778 0 
L 141 0 
z
" transform="scale(0.015625)"/>
     </defs>
     <use xlink:href="#Cmb10-6d" transform="translate(0 0.984375)"/>
    </g>
   </g>
   <g id="text_8">
    <!-- $\mathbf{s}$ -->
    <g transform="translate(281.7494 239.199228) scale(0.14 -0.14)">
     <defs>
      <path id="Cmb10-73" d="M 213 44 
L 213 934 
Q 228 994 294 1013 
L 459 1013 
Q 522 991 538 934 
Q 703 219 1259 219 
Q 1825 219 1825 684 
Q 1825 800 1765 892 
Q 1706 984 1609 1045 
Q 1513 1106 1403 1131 
L 1019 1209 
Q 672 1294 442 1508 
Q 213 1722 213 2041 
Q 213 2272 292 2440 
Q 372 2609 517 2711 
Q 663 2813 847 2856 
Q 1031 2900 1259 2900 
Q 1559 2900 1759 2791 
L 1966 2894 
L 1991 2900 
L 2069 2900 
Q 2128 2884 2144 2822 
L 2144 2119 
Q 2128 2050 2069 2034 
L 1900 2034 
Q 1834 2050 1819 2119 
Q 1819 2288 1748 2411 
Q 1678 2534 1550 2601 
Q 1422 2669 1247 2669 
Q 691 2669 691 2284 
Q 691 2144 811 2048 
Q 931 1953 1088 1913 
L 1478 1838 
Q 1713 1778 1897 1654 
Q 2081 1531 2192 1339 
Q 2303 1147 2303 909 
Q 2303 428 2022 195 
Q 1741 -38 1259 -38 
Q 897 -38 659 141 
L 391 -31 
L 366 -38 
L 294 -38 
Q 228 -22 213 44 
z
" transform="scale(0.015625)"/>
     </defs>
     <use xlink:href="#Cmb10-73" transform="translate(0 0.6875)"/>
    </g>
   </g>
   <g id="text_9">
    <!-- $\mathbf{O}$ -->
    <g transform="translate(306.203031 239.199228) scale(0.14 -0.14)">
     <defs>
      <path id="Cmb10-4f" d="M 2400 -72 
Q 1919 -72 1541 97 
Q 1163 266 894 577 
Q 625 888 492 1297 
Q 359 1706 359 2169 
Q 359 2803 593 3328 
Q 828 3853 1287 4156 
Q 1747 4459 2400 4459 
Q 3050 4459 3508 4156 
Q 3966 3853 4200 3328 
Q 4434 2803 4434 2169 
Q 4434 1534 4196 1025 
Q 3959 516 3496 222 
Q 3034 -72 2400 -72 
z
M 1600 769 
Q 1725 531 1937 378 
Q 2150 225 2400 225 
Q 2566 225 2720 298 
Q 2875 372 2997 495 
Q 3119 619 3194 769 
Q 3347 1081 3389 1422 
Q 3431 1763 3431 2284 
Q 3431 2763 3389 3077 
Q 3347 3391 3194 3675 
Q 3113 3825 2989 3937 
Q 2866 4050 2709 4114 
Q 2553 4178 2400 4178 
Q 2150 4178 1939 4039 
Q 1728 3900 1600 3675 
Q 1494 3488 1441 3252 
Q 1388 3016 1375 2808 
Q 1363 2600 1363 2284 
Q 1363 1938 1375 1711 
Q 1388 1484 1441 1229 
Q 1494 975 1600 769 
z
" transform="scale(0.015625)"/>
     </defs>
     <use xlink:href="#Cmb10-4f" transform="translate(0 0.328125)"/>
    </g>
   </g>
   <g id="text_10">
    <!-- running state: $O(nd)$ -->
    <g transform="translate(228.882769 256.096923) scale(0.13 -0.13)">
     <defs>
      <path id="Cmmi10-4f" d="M 1947 -141 
Q 1466 -141 1094 79 
Q 722 300 520 692 
Q 319 1084 319 1563 
Q 319 2259 714 2950 
Q 1109 3641 1756 4077 
Q 2403 4513 3109 4513 
Q 3475 4513 3778 4381 
Q 4081 4250 4290 4017 
Q 4500 3784 4614 3471 
Q 4728 3159 4728 2791 
Q 4728 2263 4503 1739 
Q 4278 1216 3879 786 
Q 3481 356 2984 107 
Q 2488 -141 1947 -141 
z
M 1997 50 
Q 2463 50 2866 345 
Q 3269 641 3553 1108 
Q 3838 1575 3989 2089 
Q 4141 2603 4141 3047 
Q 4141 3394 4022 3683 
Q 3903 3972 3656 4148 
Q 3409 4325 3066 4325 
Q 2728 4325 2409 4162 
Q 2091 4000 1831 3731 
Q 1566 3459 1359 3057 
Q 1153 2656 1047 2214 
Q 941 1772 941 1381 
Q 941 838 1208 444 
Q 1475 50 1997 50 
z
" transform="scale(0.015625)"/>
      <path id="Cmr10-28" d="M 1984 -1588 
Q 1628 -1306 1370 -942 
Q 1113 -578 948 -165 
Q 784 247 703 697 
Q 622 1147 622 1600 
Q 622 2059 703 2509 
Q 784 2959 951 3375 
Q 1119 3791 1378 4153 
Q 1638 4516 1984 4788 
Q 1984 4800 2016 4800 
L 2075 4800 
Q 2094 4800 2109 4783 
Q 2125 4766 2125 4744 
Q 2125 4716 2113 4703 
Q 1800 4397 1592 4047 
Q 1384 3697 1257 3301 
Q 1131 2906 1075 2482 
Q 1019 2059 1019 1600 
Q 1019 -434 2106 -1491 
Q 2125 -1509 2125 -1544 
Q 2125 -1559 2108 -1579 
Q 2091 -1600 2075 -1600 
L 2016 -1600 
Q 1984 -1600 1984 -1588 
z
" transform="scale(0.015625)"/>
      <path id="Cmr10-29" d="M 416 -1600 
Q 359 -1600 359 -1544 
Q 359 -1516 372 -1503 
Q 1466 -434 1466 1600 
Q 1466 3634 384 4691 
Q 359 4706 359 4744 
Q 359 4766 376 4783 
Q 394 4800 416 4800 
L 475 4800 
Q 494 4800 506 4788 
Q 966 4425 1272 3906 
Q 1578 3388 1720 2800 
Q 1863 2213 1863 1600 
Q 1863 1147 1786 708 
Q 1709 269 1542 -157 
Q 1375 -584 1119 -945 
Q 863 -1306 506 -1588 
Q 494 -1600 475 -1600 
L 416 -1600 
z
" transform="scale(0.015625)"/>
     </defs>
     <use xlink:href="#DejaVuSans-72" transform="translate(0 0.015625)"/>
     <use xlink:href="#DejaVuSans-75" transform="translate(41.113281 0.015625)"/>
     <use xlink:href="#DejaVuSans-6e" transform="translate(104.492188 0.015625)"/>
     <use xlink:href="#DejaVuSans-6e" transform="translate(167.871094 0.015625)"/>
     <use xlink:href="#DejaVuSans-69" transform="translate(231.25 0.015625)"/>
     <use xlink:href="#DejaVuSans-6e" transform="translate(259.033203 0.015625)"/>
     <use xlink:href="#DejaVuSans-67" transform="translate(322.412109 0.015625)"/>
     <use xlink:href="#DejaVuSans-20" transform="translate(385.888672 0.015625)"/>
     <use xlink:href="#DejaVuSans-73" transform="translate(417.675781 0.015625)"/>
     <use xlink:href="#DejaVuSans-74" transform="translate(469.775391 0.015625)"/>
     <use xlink:href="#DejaVuSans-61" transform="translate(508.984375 0.015625)"/>
     <use xlink:href="#DejaVuSans-74" transform="translate(570.263672 0.015625)"/>
     <use xlink:href="#DejaVuSans-65" transform="translate(609.472656 0.015625)"/>
     <use xlink:href="#DejaVuSans-3a" transform="translate(670.996094 0.015625)"/>
     <use xlink:href="#DejaVuSans-20" transform="translate(704.6875 0.015625)"/>
     <use xlink:href="#Cmmi10-4f" transform="translate(736.474609 0.015625)"/>
     <use xlink:href="#Cmr10-28" transform="translate(812.695312 0.015625)"/>
     <use xlink:href="#Cmmi10-6e" transform="translate(851.513672 0.015625)"/>
     <use xlink:href="#Cmmi10-64" transform="translate(911.523438 0.015625)"/>
     <use xlink:href="#Cmr10-29" transform="translate(963.525391 0.015625)"/>
    </g>
   </g>
   <g id="patch_16">
    <path d="M 148.850233 47.463213 
Q 204.50269 29.705434 254.315724 56.637568 
" style="fill: none; stroke: #000000; stroke-width: 1.6; stroke-linecap: round"/>
    <path d="M 251.491539 52.609668 
L 254.315724 56.637568 
L 249.398893 56.480176 
" style="fill: none; stroke: #000000; stroke-width: 1.6; stroke-linecap: round"/>
   </g>
   <g id="text_11">
    <!-- rescale by $e^{\,m - m'}$, accumulate -->
    <g transform="translate(72.583231 19.29) scale(0.13 -0.13)">
     <defs>
      <path id="Cmmi10-65" d="M 1288 -72 
Q 981 -72 751 87 
Q 522 247 401 517 
Q 281 788 281 1088 
Q 281 1544 511 1945 
Q 741 2347 1134 2587 
Q 1528 2828 1978 2828 
Q 2253 2828 2458 2686 
Q 2663 2544 2663 2278 
Q 2663 1909 2369 1729 
Q 2075 1550 1706 1508 
Q 1338 1466 891 1466 
L 872 1466 
Q 769 1084 769 813 
Q 769 528 900 312 
Q 1031 97 1300 97 
Q 1681 97 2032 272 
Q 2384 447 2606 756 
Q 2625 775 2656 775 
Q 2688 775 2720 739 
Q 2753 703 2753 672 
Q 2753 647 2741 634 
Q 2506 306 2109 117 
Q 1713 -72 1288 -72 
z
M 909 1631 
Q 1281 1631 1597 1665 
Q 1913 1700 2169 1839 
Q 2425 1978 2425 2272 
Q 2425 2391 2359 2480 
Q 2294 2569 2189 2616 
Q 2084 2663 1972 2663 
Q 1700 2663 1483 2516 
Q 1266 2369 1125 2133 
Q 984 1897 909 1631 
z
" transform="scale(0.015625)"/>
      <path id="Cmmi10-6d" d="M 494 109 
Q 494 147 500 166 
L 978 2075 
Q 1025 2253 1025 2388 
Q 1025 2663 838 2663 
Q 638 2663 541 2423 
Q 444 2184 353 1819 
Q 353 1800 334 1789 
Q 316 1778 300 1778 
L 225 1778 
Q 203 1778 187 1801 
Q 172 1825 172 1844 
Q 241 2122 305 2315 
Q 369 2509 505 2668 
Q 641 2828 844 2828 
Q 1084 2828 1268 2676 
Q 1453 2525 1453 2291 
Q 1644 2541 1900 2684 
Q 2156 2828 2444 2828 
Q 2747 2828 2967 2673 
Q 3188 2519 3188 2234 
Q 3384 2513 3648 2670 
Q 3913 2828 4225 2828 
Q 4556 2828 4757 2648 
Q 4959 2469 4959 2138 
Q 4959 1875 4842 1503 
Q 4725 1131 4550 672 
Q 4459 450 4459 288 
Q 4459 97 4609 97 
Q 4859 97 5025 365 
Q 5191 634 5259 941 
Q 5278 978 5313 978 
L 5388 978 
Q 5413 978 5430 961 
Q 5447 944 5447 922 
Q 5447 916 5441 903 
Q 5353 541 5136 234 
Q 4919 -72 4594 -72 
Q 4369 -72 4209 83 
Q 4050 238 4050 459 
Q 4050 572 4103 709 
Q 4284 1191 4404 1569 
Q 4525 1947 4525 2234 
Q 4525 2413 4453 2538 
Q 4381 2663 4213 2663 
Q 3863 2663 3606 2448 
Q 3350 2234 3163 1881 
Q 3150 1819 3144 1784 
L 2731 141 
Q 2709 53 2632 -9 
Q 2556 -72 2463 -72 
Q 2388 -72 2330 -22 
Q 2272 28 2272 109 
Q 2272 147 2278 166 
L 2688 1797 
Q 2753 2059 2753 2234 
Q 2753 2413 2679 2538 
Q 2606 2663 2431 2663 
Q 2197 2663 2000 2559 
Q 1803 2456 1656 2286 
Q 1509 2116 1388 1881 
L 953 141 
Q 931 53 854 -9 
Q 778 -72 684 -72 
Q 606 -72 550 -22 
Q 494 28 494 109 
z
" transform="scale(0.015625)"/>
      <path id="Cmsy10-a1" d="M 653 1472 
Q 600 1472 565 1512 
Q 531 1553 531 1600 
Q 531 1647 565 1687 
Q 600 1728 653 1728 
L 4325 1728 
Q 4375 1728 4408 1687 
Q 4441 1647 4441 1600 
Q 4441 1553 4408 1512 
Q 4375 1472 4325 1472 
L 653 1472 
z
" transform="scale(0.015625)"/>
      <path id="Cmsy10-30" d="M 225 347 
Q 184 359 184 409 
L 966 3316 
Q 1003 3434 1093 3506 
Q 1184 3578 1300 3578 
Q 1450 3578 1564 3479 
Q 1678 3381 1678 3231 
Q 1678 3166 1644 3084 
L 488 319 
Q 466 275 428 275 
Q 394 275 320 306 
Q 247 338 225 347 
z
" transform="scale(0.015625)"/>
      <path id="DejaVuSans-2c" d="M 750 794 
L 1409 794 
L 1409 256 
L 897 -744 
L 494 -744 
L 750 256 
L 750 794 
z
" transform="scale(0.015625)"/>
     </defs>
     <use xlink:href="#DejaVuSans-72" transform="translate(0 0.557031)"/>
     <use xlink:href="#DejaVuSans-65" transform="translate(41.113281 0.557031)"/>
     <use xlink:href="#DejaVuSans-73" transform="translate(102.636719 0.557031)"/>
     <use xlink:href="#DejaVuSans-63" transform="translate(154.736328 0.557031)"/>
     <use xlink:href="#DejaVuSans-61" transform="translate(209.716797 0.557031)"/>
     <use xlink:href="#DejaVuSans-6c" transform="translate(270.996094 0.557031)"/>
     <use xlink:href="#DejaVuSans-65" transform="translate(298.779297 0.557031)"/>
     <use xlink:href="#DejaVuSans-20" transform="translate(360.302734 0.557031)"/>
     <use xlink:href="#DejaVuSans-62" transform="translate(392.089844 0.557031)"/>
     <use xlink:href="#DejaVuSans-79" transform="translate(455.566406 0.557031)"/>
     <use xlink:href="#DejaVuSans-20" transform="translate(514.746094 0.557031)"/>
     <use xlink:href="#Cmmi10-65" transform="translate(546.533203 0.557031)"/>
     <use xlink:href="#Cmmi10-6d" transform="translate(609.563577 38.821094) scale(0.7)"/>
     <use xlink:href="#Cmsy10-a1" transform="translate(683.309671 38.821094) scale(0.7)"/>
     <use xlink:href="#Cmmi10-6d" transform="translate(749.980569 38.821094) scale(0.7)"/>
     <use xlink:href="#Cmsy10-30" transform="translate(815.847944 65.605937) scale(0.49)"/>
     <use xlink:href="#DejaVuSans-2c" transform="translate(840.159644 0.557031)"/>
     <use xlink:href="#DejaVuSans-20" transform="translate(871.946753 0.557031)"/>
     <use xlink:href="#DejaVuSans-61" transform="translate(903.733862 0.557031)"/>
     <use xlink:href="#DejaVuSans-63" transform="translate(965.013159 0.557031)"/>
     <use xlink:href="#DejaVuSans-63" transform="translate(1019.993628 0.557031)"/>
     <use xlink:href="#DejaVuSans-75" transform="translate(1074.974097 0.557031)"/>
     <use xlink:href="#DejaVuSans-6d" transform="translate(1138.353003 0.557031)"/>
     <use xlink:href="#DejaVuSans-75" transform="translate(1235.765112 0.557031)"/>
     <use xlink:href="#DejaVuSans-6c" transform="translate(1299.144019 0.557031)"/>
     <use xlink:href="#DejaVuSans-61" transform="translate(1326.927222 0.557031)"/>
     <use xlink:href="#DejaVuSans-74" transform="translate(1388.206519 0.557031)"/>
     <use xlink:href="#DejaVuSans-65" transform="translate(1427.415503 0.557031)"/>
    </g>
   </g>
  </g>
 </g>
 <defs>
  <clipPath id="pd3a7b85797">
   <rect x="16.634077" y="8.007692" width="311.073231" height="255.024"/>
  </clipPath>
 </defs>
</svg>
