<?xml version="1.0" encoding="utf-8" standalone="no"?>
<!DOCTYPE svg PUBLIC "-//W3C//DTD SVG 1.1//EN"
  "http://www.w3.org/Graphics/SVG/1.1/DTD/svg11.dtd">
<svg xmlns:xlink="http://www.w3.org/1999/xlink" width="505.44pt" height="259.842815pt" viewBox="0 0 505.44 259.842815" xmlns="http://www.w3.org/2000/svg" version="1.1">
 <metadata>
  <rdf:RDF xmlns:dc="http://purl.org/dc/elements/1.1/" xmlns:cc="http://creativecommons.org/ns#" xmlns:rdf="http://www.w3.org/1999/02/22-rdf-syntax-ns#">
   <cc:Work>
    <dc:type rdf:resource="http://purl.org/dc/dcmitype/StillImage"/>
    <dc:format>image/svg+xml</dc:format>
    <dc:creator>
     <cc:Agent>
      <dc:title>Matplotlib v3.10.8, https://matplotlib.org/</dc:title>
     </cc:Agent>
    </dc:creator>
   </cc:Work>
  </rdf:RDF>
 </metadata>
 <defs>
  <style type="text/css">*{stroke-linejoin: round; stroke-linecap: butt}</style>
 </defs>
 <g id="figure_1">
  <g id="patch_1">
   <path d="M 0 259.842815 
L 505.44 259.842815 
L 505.44 0 
L 0 0 
z
" style="fill: #ffffff"/>
  </g>
  <g id="axes_1">
   <g id="line2d_1">
    <path d="M 29.52 223.2 
L 29.52 44.64 
" clip-path="url(#p984df86b3c)" style="fill: none; stroke: #cfcfcf; stroke-width: 0.9; stroke-linecap: square"/>
   </g>
   <g id="line2d_2">
    <path d="M 29.52 223.2 
L 208.08 223.2 
" clip-path="url(#p984df86b3c)" style="fill: none; stroke: #cfcfcf; stroke-width: 0.9; stroke-linecap: square"/>
   </g>
   <g id="line2d_3">
    <path d="M 74.16 223.2 
L 74.16 44.64 
" clip-path="url(#p984df86b3c)" style="fill: none; stroke: #cfcfcf; stroke-width: 0.9; stroke-linecap: square"/>
   </g>
   <g id="line2d_4">
    <path d="M 29.52 178.56 
L 208.08 178.56 
" clip-path="url(#p984df86b3c)" style="fill: none; stroke: #cfcfcf; stroke-width: 0.9; stroke-linecap: square"/>
   </g>
   <g id="line2d_5">
    <path d="M 118.8 223.2 
L 118.8 44.64 
" clip-path="url(#p984df86b3c)" style="fill: none; stroke: #cfcfcf; stroke-width: 0.9; stroke-linecap: square"/>
   </g>
   <g id="line2d_6">
    <path d="M 29.52 133.92 
L 208.08 133.92 
" clip-path="url(#p984df86b3c)" style="fill: none; stroke: #cfcfcf; stroke-width: 0.9; stroke-linecap: square"/>
   </g>
   <g id="line2d_7">
    <path d="M 163.44 223.2 
L 163.44 44.64 
" clip-path="url(#p984df86b3c)" style="fill: none; stroke: #cfcfcf; stroke-width: 0.9; stroke-linecap: square"/>
   </g>
   <g id="line2d_8">
    <path d="M 29.52 89.28 
L 208.08 89.28 
" clip-path="url(#p984df86b3c)" style="fill: none; stroke: #cfcfcf; stroke-width: 0.9; stroke-linecap: square"/>
   </g>
   <g id="line2d_9">
    <path d="M 208.08 223.2 
L 208.08 44.64 
" clip-path="url(#p984df86b3c)" style="fill: none; stroke: #cfcfcf; stroke-width: 0.9; stroke-linecap: square"/>
   </g>
   <g id="line2d_10">
    <path d="M 29.52 44.64 
L 208.08 44.64 
" clip-path="url(#p984df86b3c)" style="fill: none; stroke: #cfcfcf; stroke-width: 0.9; stroke-linecap: square"/>
   </g>
   <g id="line2d_11">
    <path d="M 67.464 236.592 
L 170.136 31.248 
" clip-path="url(#p984df86b3c)" style="fill: none; stroke-dasharray: 5.92,2.56; stroke-dashoffset: 0; stroke: #7f7f7f; stroke-width: 1.6"/>
   </g>
   <g id="patch_2">
    <path d="M 9.199182 133.92 
Q 118.798827 133.92 227.392242 133.92 
" style="fill: none; stroke: #7f7f7f; stroke-width: 0.9; stroke-linecap: round"/>
    <path d="M 222.992242 131.72 
L 227.392242 133.92 
L 222.992242 136.12 
" style="fill: none; stroke: #7f7f7f; stroke-width: 0.9; stroke-linecap: round"/>
   </g>
   <g id="patch_3">
    <path d="M 118.8 243.520818 
Q 118.8 133.921173 118.8 25.327758 
" style="fill: none; stroke: #7f7f7f; stroke-width: 0.9; stroke-linecap: round"/>
    <path d="M 116.6 29.727758 
L 118.8 25.327758 
L 121 29.727758 
" style="fill: none; stroke: #7f7f7f; stroke-width: 0.9; stroke-linecap: round"/>
   </g>
   <g id="text_1">
    <!-- null space -->
    <g style="fill: #7f7f7f" transform="translate(56.796678 216.916286) rotate(-63.434949) scale(0.095 -0.095)">
     <defs>
      <path id="DejaVuSans-6e" d="M 3513 2113 
L 3513 0 
L 2938 0 
L 2938 2094 
Q 2938 2591 2744 2837 
Q 2550 3084 2163 3084 
Q 1697 3084 1428 2787 
Q 1159 2491 1159 1978 
L 1159 0 
L 581 0 
L 581 3500 
L 1159 3500 
L 1159 2956 
Q 1366 3272 1645 3428 
Q 1925 3584 2291 3584 
Q 2894 3584 3203 3211 
Q 3513 2838 3513 2113 
z
" transform="scale(0.015625)"/>
      <path id="DejaVuSans-75" d="M 544 1381 
L 544 3500 
L 1119 3500 
L 1119 1403 
Q 1119 906 1312 657 
Q 1506 409 1894 409 
Q 2359 409 2629 706 
Q 2900 1003 2900 1516 
L 2900 3500 
L 3475 3500 
L 3475 0 
L 2900 0 
L 2900 538 
Q 2691 219 2414 64 
Q 2138 -91 1772 -91 
Q 1169 -91 856 284 
Q 544 659 544 1381 
z
M 1991 3584 
L 1991 3584 
z
" transform="scale(0.015625)"/>
      <path id="DejaVuSans-6c" d="M 603 4863 
L 1178 4863 
L 1178 0 
L 603 0 
L 603 4863 
z
" transform="scale(0.015625)"/>
      <path id="DejaVuSans-20" transform="scale(0.015625)"/>
      <path id="DejaVuSans-73" d="M 2834 3397 
L 2834 2853 
Q 2591 2978 2328 3040 
Q 2066 3103 1784 3103 
Q 1356 3103 1142 2972 
Q 928 2841 928 2578 
Q 928 2378 1081 2264 
Q 1234 2150 1697 2047 
L 1894 2003 
Q 2506 1872 2764 1633 
Q 3022 1394 3022 966 
Q 3022 478 2636 193 
Q 2250 -91 1575 -91 
Q 1294 -91 989 -36 
Q 684 19 347 128 
L 347 722 
Q 666 556 975 473 
Q 1284 391 1588 391 
Q 1994 391 2212 530 
Q 2431 669 2431 922 
Q 2431 1156 2273 1281 
Q 2116 1406 1581 1522 
L 1381 1569 
Q 847 1681 609 1914 
Q 372 2147 372 2553 
Q 372 3047 722 3315 
Q 1072 3584 1716 3584 
Q 2034 3584 2315 3537 
Q 2597 3491 2834 3397 
z
" transform="scale(0.015625)"/>
      <path id="DejaVuSans-70" d="M 1159 525 
L 1159 -1331 
L 581 -1331 
L 581 3500 
L 1159 3500 
L 1159 2969 
Q 1341 3281 1617 3432 
Q 1894 3584 2278 3584 
Q 2916 3584 3314 3078 
Q 3713 2572 3713 1747 
Q 3713 922 3314 415 
Q 2916 -91 2278 -91 
Q 1894 -91 1617 61 
Q 1341 213 1159 525 
z
M 3116 1747 
Q 3116 2381 2855 2742 
Q 2594 3103 2138 3103 
Q 1681 3103 1420 2742 
Q 1159 2381 1159 1747 
Q 1159 1113 1420 752 
Q 1681 391 2138 391 
Q 2594 391 2855 752 
Q 3116 1113 3116 1747 
z
" transform="scale(0.015625)"/>
      <path id="DejaVuSans-61" d="M 2194 1759 
Q 1497 1759 1228 1600 
Q 959 1441 959 1056 
Q 959 750 1161 570 
Q 1363 391 1709 391 
Q 2188 391 2477 730 
Q 2766 1069 2766 1631 
L 2766 1759 
L 2194 1759 
z
M 3341 1997 
L 3341 0 
L 2766 0 
L 2766 531 
Q 2569 213 2275 61 
Q 1981 -91 1556 -91 
Q 1019 -91 701 211 
Q 384 513 384 1019 
Q 384 1609 779 1909 
Q 1175 2209 1959 2209 
L 2766 2209 
L 2766 2266 
Q 2766 2663 2505 2880 
Q 2244 3097 1772 3097 
Q 1472 3097 1187 3025 
Q 903 2953 641 2809 
L 641 3341 
Q 956 3463 1253 3523 
Q 1550 3584 1831 3584 
Q 2591 3584 2966 3190 
Q 3341 2797 3341 1997 
z
" transform="scale(0.015625)"/>
      <path id="DejaVuSans-63" d="M 3122 3366 
L 3122 2828 
Q 2878 2963 2633 3030 
Q 2388 3097 2138 3097 
Q 1578 3097 1268 2742 
Q 959 2388 959 1747 
Q 959 1106 1268 751 
Q 1578 397 2138 397 
Q 2388 397 2633 464 
Q 2878 531 3122 666 
L 3122 134 
Q 2881 22 2623 -34 
Q 2366 -91 2075 -91 
Q 1284 -91 818 406 
Q 353 903 353 1747 
Q 353 2603 823 3093 
Q 1294 3584 2113 3584 
Q 2378 3584 2631 3529 
Q 2884 3475 3122 3366 
z
" transform="scale(0.015625)"/>
      <path id="DejaVuSans-65" d="M 3597 1894 
L 3597 1613 
L 953 1613 
Q 991 1019 1311 708 
Q 1631 397 2203 397 
Q 2534 397 2845 478 
Q 3156 559 3463 722 
L 3463 178 
Q 3153 47 2828 -22 
Q 2503 -91 2169 -91 
Q 1331 -91 842 396 
Q 353 884 353 1716 
Q 353 2575 817 3079 
Q 1281 3584 2069 3584 
Q 2775 3584 3186 3129 
Q 3597 2675 3597 1894 
z
M 3022 2063 
Q 3016 2534 2758 2815 
Q 2500 3097 2075 3097 
Q 1594 3097 1305 2825 
Q 1016 2553 972 2059 
L 3022 2063 
z
" transform="scale(0.015625)"/>
     </defs>
     <use xlink:href="#DejaVuSans-6e"/>
     <use xlink:href="#DejaVuSans-75" transform="translate(63.378906 0)"/>
     <use xlink:href="#DejaVuSans-6c" transform="translate(126.757812 0)"/>
     <use xlink:href="#DejaVuSans-6c" transform="translate(154.541016 0)"/>
     <use xlink:href="#DejaVuSans-20" transform="translate(182.324219 0)"/>
     <use xlink:href="#DejaVuSans-73" transform="translate(214.111328 0)"/>
     <use xlink:href="#DejaVuSans-70" transform="translate(266.210938 0)"/>
     <use xlink:href="#DejaVuSans-61" transform="translate(329.6875 0)"/>
     <use xlink:href="#DejaVuSans-63" transform="translate(390.966797 0)"/>
     <use xlink:href="#DejaVuSans-65" transform="translate(445.947266 0)"/>
    </g>
   </g>
   <g id="text_2">
    <!-- $\mathbf{x}_1$ -->
    <g style="fill: #1f77b4" transform="translate(168.3108 122.394575) scale(0.1 -0.1)">
     <defs>
      <path id="Cmb10-78" d="M 109 0 
L 109 325 
Q 628 325 678 384 
L 1381 1350 
L 588 2516 
L 141 2516 
L 141 2841 
L 1606 2841 
L 1606 2516 
L 1331 2516 
L 1766 1881 
L 2181 2463 
Q 2181 2491 2072 2503 
Q 1963 2516 1888 2516 
L 1888 2841 
L 3156 2841 
L 3156 2516 
Q 2638 2516 2584 2456 
L 1959 1594 
L 2816 325 
L 3272 325 
L 3272 0 
L 1797 0 
L 1797 325 
L 2075 325 
L 1575 1063 
L 1081 378 
Q 1081 356 1193 340 
Q 1306 325 1381 325 
L 1381 0 
L 109 0 
z
" transform="scale(0.015625)"/>
      <path id="Cmr10-31" d="M 594 0 
L 594 225 
Q 1394 225 1394 428 
L 1394 3788 
Q 1063 3628 556 3628 
L 556 3853 
Q 1341 3853 1741 4263 
L 1831 4263 
Q 1853 4263 1873 4245 
Q 1894 4228 1894 4206 
L 1894 428 
Q 1894 225 2694 225 
L 2694 0 
L 594 0 
z
" transform="scale(0.015625)"/>
     </defs>
     <use xlink:href="#Cmb10-78" transform="translate(0 0.609375)"/>
     <use xlink:href="#Cmr10-31" transform="translate(57.149687 -16.396875) scale(0.7)"/>
    </g>
   </g>
   <g id="text_3">
    <!-- $\mathbf{x}_2$ -->
    <g style="fill: #ff7f0e" transform="translate(78.138 84.896975) scale(0.1 -0.1)">
     <defs>
      <path id="Cmr10-32" d="M 319 0 
L 319 172 
Q 319 188 331 206 
L 1325 1306 
Q 1550 1550 1690 1715 
Q 1831 1881 1968 2097 
Q 2106 2313 2186 2536 
Q 2266 2759 2266 3009 
Q 2266 3272 2169 3511 
Q 2072 3750 1880 3894 
Q 1688 4038 1416 4038 
Q 1138 4038 916 3870 
Q 694 3703 603 3438 
Q 628 3444 672 3444 
Q 816 3444 917 3347 
Q 1019 3250 1019 3097 
Q 1019 2950 917 2848 
Q 816 2747 672 2747 
Q 522 2747 420 2851 
Q 319 2956 319 3097 
Q 319 3338 409 3548 
Q 500 3759 670 3923 
Q 841 4088 1055 4175 
Q 1269 4263 1509 4263 
Q 1875 4263 2190 4108 
Q 2506 3953 2690 3670 
Q 2875 3388 2875 3009 
Q 2875 2731 2753 2481 
Q 2631 2231 2440 2026 
Q 2250 1822 1953 1562 
Q 1656 1303 1563 1216 
L 838 519 
L 1453 519 
Q 1906 519 2211 526 
Q 2516 534 2534 550 
Q 2609 631 2688 1141 
L 2875 1141 
L 2694 0 
L 319 0 
z
" transform="scale(0.015625)"/>
     </defs>
     <use xlink:href="#Cmb10-78" transform="translate(0 0.609375)"/>
     <use xlink:href="#Cmr10-32" transform="translate(57.149687 -16.396875) scale(0.7)"/>
    </g>
   </g>
   <g id="text_4">
    <!-- $\mathbf{x}_3$ -->
    <g style="fill: #2ca02c" transform="translate(151.3476 91.146575) scale(0.1 -0.1)">
     <defs>
      <path id="Cmr10-33" d="M 609 494 
Q 759 275 1012 169 
Q 1266 63 1556 63 
Q 1928 63 2084 380 
Q 2241 697 2241 1100 
Q 2241 1281 2208 1462 
Q 2175 1644 2097 1800 
Q 2019 1956 1883 2050 
Q 1747 2144 1550 2144 
L 1125 2144 
Q 1069 2144 1069 2203 
L 1069 2259 
Q 1069 2309 1125 2309 
L 1478 2338 
Q 1703 2338 1851 2506 
Q 2000 2675 2069 2917 
Q 2138 3159 2138 3378 
Q 2138 3684 1994 3881 
Q 1850 4078 1556 4078 
Q 1313 4078 1091 3986 
Q 869 3894 738 3706 
Q 750 3709 759 3711 
Q 769 3713 781 3713 
Q 925 3713 1022 3613 
Q 1119 3513 1119 3372 
Q 1119 3234 1022 3134 
Q 925 3034 781 3034 
Q 641 3034 541 3134 
Q 441 3234 441 3372 
Q 441 3647 606 3850 
Q 772 4053 1033 4158 
Q 1294 4263 1556 4263 
Q 1750 4263 1965 4205 
Q 2181 4147 2356 4039 
Q 2531 3931 2642 3762 
Q 2753 3594 2753 3378 
Q 2753 3109 2633 2881 
Q 2513 2653 2303 2487 
Q 2094 2322 1844 2241 
Q 2122 2188 2372 2031 
Q 2622 1875 2773 1631 
Q 2925 1388 2925 1106 
Q 2925 753 2731 467 
Q 2538 181 2222 20 
Q 1906 -141 1556 -141 
Q 1256 -141 954 -26 
Q 653 88 461 316 
Q 269 544 269 863 
Q 269 1022 375 1128 
Q 481 1234 641 1234 
Q 744 1234 830 1186 
Q 916 1138 964 1050 
Q 1013 963 1013 863 
Q 1013 706 903 600 
Q 794 494 641 494 
L 609 494 
z
" transform="scale(0.015625)"/>
     </defs>
     <use xlink:href="#Cmb10-78" transform="translate(0 0.609375)"/>
     <use xlink:href="#Cmr10-33" transform="translate(57.149687 -16.396875) scale(0.7)"/>
    </g>
   </g>
   <g id="text_5">
    <!-- (a) input plane -->
    <g transform="translate(74.547188 16.32) scale(0.12 -0.12)">
     <defs>
      <path id="DejaVuSans-28" d="M 1984 4856 
Q 1566 4138 1362 3434 
Q 1159 2731 1159 2009 
Q 1159 1288 1364 580 
Q 1569 -128 1984 -844 
L 1484 -844 
Q 1016 -109 783 600 
Q 550 1309 550 2009 
Q 550 2706 781 3412 
Q 1013 4119 1484 4856 
L 1984 4856 
z
" transform="scale(0.015625)"/>
      <path id="DejaVuSans-29" d="M 513 4856 
L 1013 4856 
Q 1481 4119 1714 3412 
Q 1947 2706 1947 2009 
Q 1947 1309 1714 600 
Q 1481 -109 1013 -844 
L 513 -844 
Q 928 -128 1133 580 
Q 1338 1288 1338 2009 
Q 1338 2731 1133 3434 
Q 928 4138 513 4856 
z
" transform="scale(0.015625)"/>
      <path id="DejaVuSans-69" d="M 603 3500 
L 1178 3500 
L 1178 0 
L 603 0 
L 603 3500 
z
M 603 4863 
L 1178 4863 
L 1178 4134 
L 603 4134 
L 603 4863 
z
" transform="scale(0.015625)"/>
      <path id="DejaVuSans-74" d="M 1172 4494 
L 1172 3500 
L 2356 3500 
L 2356 3053 
L 1172 3053 
L 1172 1153 
Q 1172 725 1289 603 
Q 1406 481 1766 481 
L 2356 481 
L 2356 0 
L 1766 0 
Q 1100 0 847 248 
Q 594 497 594 1153 
L 594 3053 
L 172 3053 
L 172 3500 
L 594 3500 
L 594 4494 
L 1172 4494 
z
" transform="scale(0.015625)"/>
     </defs>
     <use xlink:href="#DejaVuSans-28"/>
     <use xlink:href="#DejaVuSans-61" transform="translate(39.013672 0)"/>
     <use xlink:href="#DejaVuSans-29" transform="translate(100.292969 0)"/>
     <use xlink:href="#DejaVuSans-20" transform="translate(139.306641 0)"/>
     <use xlink:href="#DejaVuSans-69" transform="translate(171.09375 0)"/>
     <use xlink:href="#DejaVuSans-6e" transform="translate(198.876953 0)"/>
     <use xlink:href="#DejaVuSans-70" transform="translate(262.255859 0)"/>
     <use xlink:href="#DejaVuSans-75" transform="translate(325.732422 0)"/>
     <use xlink:href="#DejaVuSans-74" transform="translate(389.111328 0)"/>
     <use xlink:href="#DejaVuSans-20" transform="translate(428.320312 0)"/>
     <use xlink:href="#DejaVuSans-70" transform="translate(460.107422 0)"/>
     <use xlink:href="#DejaVuSans-6c" transform="translate(523.583984 0)"/>
     <use xlink:href="#DejaVuSans-61" transform="translate(551.367188 0)"/>
     <use xlink:href="#DejaVuSans-6e" transform="translate(612.646484 0)"/>
     <use xlink:href="#DejaVuSans-65" transform="translate(676.025391 0)"/>
    </g>
   </g>
   <g id="line2d_12">
    <defs>
     <path id="mdae62ac81e" d="M 0 4 
C 1.060812 4 2.078319 3.578535 2.828427 2.828427 
C 3.578535 2.078319 4 1.060812 4 0 
C 4 -1.060812 3.578535 -2.078319 2.828427 -2.828427 
C 2.078319 -3.578535 1.060812 -4 0 -4 
C -1.060812 -4 -2.078319 -3.578535 -2.828427 -2.828427 
C -3.578535 -2.078319 -4 -1.060812 -4 0 
C -4 1.060812 -3.578535 2.078319 -2.828427 2.828427 
C -2.078319 3.578535 -1.060812 4 0 4 
z
" style="stroke: #1f77b4"/>
    </defs>
    <g clip-path="url(#p984df86b3c)">
     <use xlink:href="#mdae62ac81e" x="163.44" y="111.6" style="fill: #1f77b4; stroke: #1f77b4"/>
    </g>
   </g>
   <g id="line2d_13">
    <defs>
     <path id="mde1770fa5b" d="M -4 4 
L 4 4 
L 4 -4 
L -4 -4 
z
" style="stroke: #ff7f0e; stroke-linejoin: miter"/>
    </defs>
    <g clip-path="url(#p984df86b3c)">
     <use xlink:href="#mde1770fa5b" x="96.48" y="89.28" style="fill: #ff7f0e; stroke: #ff7f0e; stroke-linejoin: miter"/>
    </g>
   </g>
   <g id="line2d_14">
    <defs>
     <path id="m6cc12d7cf7" d="M 0 -4 
L -4 4 
L 4 4 
z
" style="stroke: #2ca02c; stroke-linejoin: miter"/>
    </defs>
    <g clip-path="url(#p984df86b3c)">
     <use xlink:href="#m6cc12d7cf7" x="141.12" y="89.28" style="fill: #2ca02c; stroke: #2ca02c; stroke-linejoin: miter"/>
    </g>
   </g>
  </g>
  <g id="axes_2">
   <g id="line2d_15">
    <path d="M 333.94 239.32 
L 439.34 28.52 
" clip-path="url(#p323fc168f5)" style="fill: none; stroke: #cfcfcf; stroke-width: 4.5; stroke-linecap: round"/>
   </g>
   <g id="patch_4">
    <path d="M 277.039182 133.92 
Q 386.638827 133.92 495.232242 133.92 
" style="fill: none; stroke: #7f7f7f; stroke-width: 0.9; stroke-linecap: round"/>
    <path d="M 490.832242 131.72 
L 495.232242 133.92 
L 490.832242 136.12 
" style="fill: none; stroke: #7f7f7f; stroke-width: 0.9; stroke-linecap: round"/>
   </g>
   <g id="patch_5">
    <path d="M 386.64 243.520818 
Q 386.64 133.921173 386.64 25.327758 
" style="fill: none; stroke: #7f7f7f; stroke-width: 0.9; stroke-linecap: round"/>
    <path d="M 384.44 29.727758 
L 386.64 25.327758 
L 388.84 29.727758 
" style="fill: none; stroke: #7f7f7f; stroke-width: 0.9; stroke-linecap: round"/>
   </g>
   <g id="text_6">
    <!-- column space -->
    <g style="fill: #7f7f7f" transform="translate(352.557861 251.759254) rotate(-63.434949) scale(0.095 -0.095)">
     <defs>
      <path id="DejaVuSans-6f" d="M 1959 3097 
Q 1497 3097 1228 2736 
Q 959 2375 959 1747 
Q 959 1119 1226 758 
Q 1494 397 1959 397 
Q 2419 397 2687 759 
Q 2956 1122 2956 1747 
Q 2956 2369 2687 2733 
Q 2419 3097 1959 3097 
z
M 1959 3584 
Q 2709 3584 3137 3096 
Q 3566 2609 3566 1747 
Q 3566 888 3137 398 
Q 2709 -91 1959 -91 
Q 1206 -91 779 398 
Q 353 888 353 1747 
Q 353 2609 779 3096 
Q 1206 3584 1959 3584 
z
" transform="scale(0.015625)"/>
      <path id="DejaVuSans-6d" d="M 3328 2828 
Q 3544 3216 3844 3400 
Q 4144 3584 4550 3584 
Q 5097 3584 5394 3201 
Q 5691 2819 5691 2113 
L 5691 0 
L 5113 0 
L 5113 2094 
Q 5113 2597 4934 2840 
Q 4756 3084 4391 3084 
Q 3944 3084 3684 2787 
Q 3425 2491 3425 1978 
L 3425 0 
L 2847 0 
L 2847 2094 
Q 2847 2600 2669 2842 
Q 2491 3084 2119 3084 
Q 1678 3084 1418 2786 
Q 1159 2488 1159 1978 
L 1159 0 
L 581 0 
L 581 3500 
L 1159 3500 
L 1159 2956 
Q 1356 3278 1631 3431 
Q 1906 3584 2284 3584 
Q 2666 3584 2933 3390 
Q 3200 3197 3328 2828 
z
" transform="scale(0.015625)"/>
     </defs>
     <use xlink:href="#DejaVuSans-63"/>
     <use xlink:href="#DejaVuSans-6f" transform="translate(54.980469 0)"/>
     <use xlink:href="#DejaVuSans-6c" transform="translate(116.162109 0)"/>
     <use xlink:href="#DejaVuSans-75" transform="translate(143.945312 0)"/>
     <use xlink:href="#DejaVuSans-6d" transform="translate(207.324219 0)"/>
     <use xlink:href="#DejaVuSans-6e" transform="translate(304.736328 0)"/>
     <use xlink:href="#DejaVuSans-20" transform="translate(368.115234 0)"/>
     <use xlink:href="#DejaVuSans-73" transform="translate(399.902344 0)"/>
     <use xlink:href="#DejaVuSans-70" transform="translate(452.001953 0)"/>
     <use xlink:href="#DejaVuSans-61" transform="translate(515.478516 0)"/>
     <use xlink:href="#DejaVuSans-63" transform="translate(576.757812 0)"/>
     <use xlink:href="#DejaVuSans-65" transform="translate(631.738281 0)"/>
    </g>
   </g>
   <g id="patch_6">
    <path d="M 386.64 133.92 
Q 407.306667 92.586667 426.873333 53.453333 
" style="fill: none; stroke: #1f77b4; stroke-width: 2.2; stroke-linecap: round"/>
    <path d="M 421.864541 57.209928 
L 426.873333 53.453333 
L 426.873333 59.714324 
" style="fill: none; stroke: #1f77b4; stroke-width: 2.2; stroke-linecap: round"/>
   </g>
   <g id="patch_7">
    <path d="M 386.64 133.92 
Q 376.306667 154.586667 367.073333 173.053333 
" style="fill: none; stroke: #ff7f0e; stroke-width: 2.2; stroke-linecap: round"/>
    <path d="M 372.082126 169.296739 
L 367.073333 173.053333 
L 367.073333 166.792343 
" style="fill: none; stroke: #ff7f0e; stroke-width: 2.2; stroke-linecap: round"/>
   </g>
   <g id="text_7">
    <!-- $\mathbf{b}_1$ -->
    <g style="fill: #1f77b4" transform="translate(433.73 52.221979) scale(0.11 -0.11)">
     <defs>
      <path id="Cmb10-62" d="M 531 0 
L 531 3884 
Q 531 4003 406 4033 
Q 281 4063 91 4063 
L 91 4391 
L 1247 4441 
L 1247 2625 
Q 1594 2881 2022 2881 
Q 2438 2881 2734 2687 
Q 3031 2494 3186 2162 
Q 3341 1831 3341 1422 
Q 3341 1000 3170 667 
Q 3000 334 2679 148 
Q 2359 -38 1941 -38 
Q 1716 -38 1517 51 
Q 1319 141 1159 300 
L 856 0 
L 531 0 
z
M 1288 581 
Q 1519 219 1881 219 
Q 2159 219 2296 408 
Q 2434 597 2465 842 
Q 2497 1088 2497 1416 
L 2497 1434 
Q 2497 1928 2403 2276 
Q 2309 2625 1953 2625 
Q 1756 2625 1584 2531 
Q 1413 2438 1288 2272 
L 1288 581 
z
" transform="scale(0.015625)"/>
     </defs>
     <use xlink:href="#Cmb10-62" transform="translate(0 0.609375)"/>
     <use xlink:href="#Cmr10-31" transform="translate(59.981719 -16.396875) scale(0.7)"/>
    </g>
   </g>
   <g id="text_8">
    <!-- $\mathbf{b}_2$ -->
    <g style="fill: #ff7f0e" transform="translate(348.996667 181.388646) scale(0.11 -0.11)">
     <use xlink:href="#Cmb10-62" transform="translate(0 0.609375)"/>
     <use xlink:href="#Cmr10-32" transform="translate(59.981719 -16.396875) scale(0.7)"/>
    </g>
   </g>
   <g id="text_9">
    <!-- $\mathbf{B}\mathbf{x}_1$ -->
    <g style="fill: #1f77b4" transform="translate(428.773333 77.779375) scale(0.1 -0.1)">
     <defs>
      <path id="Cmb10-42" d="M 219 0 
L 219 325 
L 819 325 
L 819 4063 
L 219 4063 
L 219 4391 
L 2631 4391 
Q 2991 4391 3306 4270 
Q 3622 4150 3817 3898 
Q 4013 3647 4013 3278 
Q 4013 2888 3752 2636 
Q 3491 2384 3078 2297 
Q 3559 2238 3871 1952 
Q 4184 1666 4184 1197 
Q 4184 625 3789 312 
Q 3394 0 2809 0 
L 219 0 
z
M 1684 325 
L 2631 325 
Q 2838 325 2970 459 
Q 3103 594 3161 794 
Q 3219 994 3219 1197 
Q 3219 1384 3178 1606 
Q 3138 1828 3025 1992 
Q 2913 2156 2719 2156 
L 1684 2156 
L 1684 325 
z
M 1684 2413 
L 2450 2413 
Q 2766 2413 2922 2677 
Q 3078 2941 3078 3278 
Q 3078 3569 2978 3816 
Q 2878 4063 2631 4063 
L 1684 4063 
L 1684 2413 
z
" transform="scale(0.015625)"/>
     </defs>
     <use xlink:href="#Cmb10-42" transform="translate(0 0.390625)"/>
     <use xlink:href="#Cmb10-78" transform="translate(71.09375 0.390625)"/>
     <use xlink:href="#Cmr10-31" transform="translate(128.243437 -16.615625) scale(0.7)"/>
    </g>
   </g>
   <g id="text_10">
    <!-- $\mathbf{B}\mathbf{x}_2$ -->
    <g style="fill: #ff7f0e" transform="translate(313.04 212.112708) scale(0.1 -0.1)">
     <use xlink:href="#Cmb10-42" transform="translate(0 0.390625)"/>
     <use xlink:href="#Cmb10-78" transform="translate(71.09375 0.390625)"/>
     <use xlink:href="#Cmr10-32" transform="translate(128.243437 -16.615625) scale(0.7)"/>
    </g>
   </g>
   <g id="text_11">
    <!-- $\mathbf{B}\mathbf{x}_3=\mathbf{0}$ -->
    <g style="fill: #2ca02c" transform="translate(397.89 145.979375) scale(0.1 -0.1)">
     <defs>
      <path id="Cmr10-3d" d="M 481 850 
Q 428 850 393 890 
Q 359 931 359 978 
Q 359 1031 393 1068 
Q 428 1106 481 1106 
L 4500 1106 
Q 4547 1106 4581 1068 
Q 4616 1031 4616 978 
Q 4616 931 4581 890 
Q 4547 850 4500 850 
L 481 850 
z
M 481 2094 
Q 428 2094 393 2131 
Q 359 2169 359 2222 
Q 359 2269 393 2309 
Q 428 2350 481 2350 
L 4500 2350 
Q 4547 2350 4581 2309 
Q 4616 2269 4616 2222 
Q 4616 2169 4581 2131 
Q 4547 2094 4500 2094 
L 481 2094 
z
" transform="scale(0.015625)"/>
      <path id="Cmr10-30" d="M 1600 -141 
Q 816 -141 533 504 
Q 250 1150 250 2041 
Q 250 2597 351 3087 
Q 453 3578 754 3920 
Q 1056 4263 1600 4263 
Q 2022 4263 2290 4056 
Q 2559 3850 2700 3523 
Q 2841 3197 2892 2823 
Q 2944 2450 2944 2041 
Q 2944 1491 2842 1011 
Q 2741 531 2444 195 
Q 2147 -141 1600 -141 
z
M 1600 25 
Q 1956 25 2131 390 
Q 2306 756 2347 1200 
Q 2388 1644 2388 2144 
Q 2388 2625 2347 3031 
Q 2306 3438 2132 3767 
Q 1959 4097 1600 4097 
Q 1238 4097 1063 3765 
Q 888 3434 847 3029 
Q 806 2625 806 2144 
Q 806 1788 823 1472 
Q 841 1156 916 820 
Q 991 484 1158 254 
Q 1325 25 1600 25 
z
" transform="scale(0.015625)"/>
     </defs>
     <use xlink:href="#Cmb10-42" transform="translate(0 0.390625)"/>
     <use xlink:href="#Cmb10-78" transform="translate(71.09375 0.390625)"/>
     <use xlink:href="#Cmr10-33" transform="translate(128.243437 -16.615625) scale(0.7)"/>
     <use xlink:href="#Cmr10-3d" transform="translate(187.179375 0.390625)"/>
     <use xlink:href="#Cmr10-30" transform="translate(282.423516 0.390625)"/>
    </g>
   </g>
   <g id="text_12">
    <!-- (b) image under $\mathbf{B}$ -->
    <g transform="translate(331.86 16.32) scale(0.12 -0.12)">
     <defs>
      <path id="DejaVuSans-62" d="M 3116 1747 
Q 3116 2381 2855 2742 
Q 2594 3103 2138 3103 
Q 1681 3103 1420 2742 
Q 1159 2381 1159 1747 
Q 1159 1113 1420 752 
Q 1681 391 2138 391 
Q 2594 391 2855 752 
Q 3116 1113 3116 1747 
z
M 1159 2969 
Q 1341 3281 1617 3432 
Q 1894 3584 2278 3584 
Q 2916 3584 3314 3078 
Q 3713 2572 3713 1747 
Q 3713 922 3314 415 
Q 2916 -91 2278 -91 
Q 1894 -91 1617 61 
Q 1341 213 1159 525 
L 1159 0 
L 581 0 
L 581 4863 
L 1159 4863 
L 1159 2969 
z
" transform="scale(0.015625)"/>
      <path id="DejaVuSans-67" d="M 2906 1791 
Q 2906 2416 2648 2759 
Q 2391 3103 1925 3103 
Q 1463 3103 1205 2759 
Q 947 2416 947 1791 
Q 947 1169 1205 825 
Q 1463 481 1925 481 
Q 2391 481 2648 825 
Q 2906 1169 2906 1791 
z
M 3481 434 
Q 3481 -459 3084 -895 
Q 2688 -1331 1869 -1331 
Q 1566 -1331 1297 -1286 
Q 1028 -1241 775 -1147 
L 775 -588 
Q 1028 -725 1275 -790 
Q 1522 -856 1778 -856 
Q 2344 -856 2625 -561 
Q 2906 -266 2906 331 
L 2906 616 
Q 2728 306 2450 153 
Q 2172 0 1784 0 
Q 1141 0 747 490 
Q 353 981 353 1791 
Q 353 2603 747 3093 
Q 1141 3584 1784 3584 
Q 2172 3584 2450 3431 
Q 2728 3278 2906 2969 
L 2906 3500 
L 3481 3500 
L 3481 434 
z
" transform="scale(0.015625)"/>
      <path id="DejaVuSans-64" d="M 2906 2969 
L 2906 4863 
L 3481 4863 
L 3481 0 
L 2906 0 
L 2906 525 
Q 2725 213 2448 61 
Q 2172 -91 1784 -91 
Q 1150 -91 751 415 
Q 353 922 353 1747 
Q 353 2572 751 3078 
Q 1150 3584 1784 3584 
Q 2172 3584 2448 3432 
Q 2725 3281 2906 2969 
z
M 947 1747 
Q 947 1113 1208 752 
Q 1469 391 1925 391 
Q 2381 391 2643 752 
Q 2906 1113 2906 1747 
Q 2906 2381 2643 2742 
Q 2381 3103 1925 3103 
Q 1469 3103 1208 2742 
Q 947 2381 947 1747 
z
" transform="scale(0.015625)"/>
      <path id="DejaVuSans-72" d="M 2631 2963 
Q 2534 3019 2420 3045 
Q 2306 3072 2169 3072 
Q 1681 3072 1420 2755 
Q 1159 2438 1159 1844 
L 1159 0 
L 581 0 
L 581 3500 
L 1159 3500 
L 1159 2956 
Q 1341 3275 1631 3429 
Q 1922 3584 2338 3584 
Q 2397 3584 2469 3576 
Q 2541 3569 2628 3553 
L 2631 2963 
z
" transform="scale(0.015625)"/>
     </defs>
     <use xlink:href="#DejaVuSans-28" transform="translate(0 0.015625)"/>
     <use xlink:href="#DejaVuSans-62" transform="translate(39.013672 0.015625)"/>
     <use xlink:href="#DejaVuSans-29" transform="translate(102.490234 0.015625)"/>
     <use xlink:href="#DejaVuSans-20" transform="translate(141.503906 0.015625)"/>
     <use xlink:href="#DejaVuSans-69" transform="translate(173.291016 0.015625)"/>
     <use xlink:href="#DejaVuSans-6d" transform="translate(201.074219 0.015625)"/>
     <use xlink:href="#DejaVuSans-61" transform="translate(298.486328 0.015625)"/>
     <use xlink:href="#DejaVuSans-67" transform="translate(359.765625 0.015625)"/>
     <use xlink:href="#DejaVuSans-65" transform="translate(423.242188 0.015625)"/>
     <use xlink:href="#DejaVuSans-20" transform="translate(484.765625 0.015625)"/>
     <use xlink:href="#DejaVuSans-75" transform="translate(516.552734 0.015625)"/>
     <use xlink:href="#DejaVuSans-6e" transform="translate(579.931641 0.015625)"/>
     <use xlink:href="#DejaVuSans-64" transform="translate(643.310547 0.015625)"/>
     <use xlink:href="#DejaVuSans-65" transform="translate(706.787109 0.015625)"/>
     <use xlink:href="#DejaVuSans-72" transform="translate(768.310547 0.015625)"/>
     <use xlink:href="#DejaVuSans-20" transform="translate(809.423828 0.015625)"/>
     <use xlink:href="#Cmb10-42" transform="translate(841.210938 0.015625)"/>
    </g>
   </g>
   <g id="line2d_16">
    <g clip-path="url(#p323fc168f5)">
     <use xlink:href="#mdae62ac81e" x="417.64" y="71.92" style="fill: #1f77b4; stroke: #1f77b4"/>
    </g>
   </g>
   <g id="line2d_17">
    <g clip-path="url(#p323fc168f5)">
     <use xlink:href="#mde1770fa5b" x="345.306667" y="216.586667" style="fill: #ff7f0e; stroke: #ff7f0e; stroke-linejoin: miter"/>
    </g>
   </g>
   <g id="line2d_18">
    <g clip-path="url(#p323fc168f5)">
     <use xlink:href="#m6cc12d7cf7" x="386.64" y="133.92" style="fill: #2ca02c; stroke: #2ca02c; stroke-linejoin: miter"/>
    </g>
   </g>
  </g>
 </g>
 <defs>
  <clipPath id="p984df86b3c">
   <rect x="7.2" y="22.32" width="223.2" height="223.2"/>
  </clipPath>
  <clipPath id="p323fc168f5">
   <rect x="275.04" y="22.32" width="223.2" height="223.2"/>
  </clipPath>
 </defs>
</svg>
