<?xml version="1.0" encoding="utf-8" standalone="no"?>
<!DOCTYPE svg PUBLIC "-//W3C//DTD SVG 1.1//EN"
  "http://www.w3.org/Graphics/SVG/1.1/DTD/svg11.dtd">
<svg xmlns:xlink="http://www.w3.org/1999/xlink" width="430.666863pt" height="286.056pt" viewBox="0 0 430.666863 286.056" xmlns="http://www.w3.org/2000/svg" version="1.1">
 <metadata>
  <rdf:RDF xmlns:dc="http://purl.org/dc/elements/1.1/" xmlns:cc="http://creativecommons.org/ns#" xmlns:rdf="http://www.w3.org/1999/02/22-rdf-syntax-ns#">
   <cc:Work>
    <dc:type rdf:resource="http://purl.org/dc/dcmitype/StillImage"/>
    <dc:format>image/svg+xml</dc:format>
    <dc:creator>
     <cc:Agent>
      <dc:title>Matplotlib v3.10.8, https://matplotlib.org/</dc:title>
     </cc:Agent>
    </dc:creator>
   </cc:Work>
  </rdf:RDF>
 </metadata>
 <defs>
  <style type="text/css">*{stroke-linejoin: round; stroke-linecap: butt}</style>
 </defs>
 <g id="figure_1">
  <g id="patch_1">
   <path d="M 0 286.056 
L 430.666863 286.056 
L 430.666863 0 
L 0 0 
z
" style="fill: #ffffff"/>
  </g>
  <g id="axes_1">
   <g id="patch_2">
    <path d="M 197.3592 269.868884 
L 233.307663 269.868884 
Q 236.575705 269.868884 236.575705 266.600842 
L 236.575705 246.175579 
Q 236.575705 242.907537 233.307663 242.907537 
L 197.3592 242.907537 
Q 194.091158 242.907537 194.091158 246.175579 
L 194.091158 266.600842 
Q 194.091158 269.868884 197.3592 269.868884 
z
" clip-path="url(#p820b91ac9d)" style="fill: #ffffff; stroke: #000000; stroke-width: 0.9; stroke-linejoin: miter"/>
   </g>
   <g id="patch_3">
    <path d="M 183.061516 212.678147 
L 247.605347 212.678147 
Q 250.873389 212.678147 250.873389 209.410105 
L 250.873389 188.984842 
Q 250.873389 185.7168 247.605347 185.7168 
L 183.061516 185.7168 
Q 179.793474 185.7168 179.793474 188.984842 
L 179.793474 209.410105 
Q 179.793474 212.678147 183.061516 212.678147 
z
" clip-path="url(#p820b91ac9d)" style="fill: #1f77b4; opacity: 0.25; stroke: #000000; stroke-width: 0.9; stroke-linejoin: miter"/>
   </g>
   <g id="patch_4">
    <path d="M 31.710316 128.934568 
L 64.390737 128.934568 
Q 67.658779 128.934568 67.658779 125.666526 
L 67.658779 92.986105 
Q 67.658779 89.718063 64.390737 89.718063 
L 31.710316 89.718063 
Q 28.442274 89.718063 28.442274 92.986105 
L 28.442274 125.666526 
Q 28.442274 128.934568 31.710316 128.934568 
z
" clip-path="url(#p820b91ac9d)" style="fill: #cfcfcf; opacity: 0.45; stroke-dasharray: 2.7,1.8; stroke-dashoffset: 0; stroke: #7f7f7f; stroke-width: 0.9; stroke-linejoin: miter"/>
   </g>
   <g id="line2d_1">
    <path d="M 215.333432 184.491284 
L 48.050526 130.568589 
" clip-path="url(#p820b91ac9d)" style="fill: none; stroke: #7f7f7f; stroke-opacity: 0.296; stroke-linecap: square"/>
   </g>
   <g id="patch_5">
    <path d="M 79.505432 128.934568 
L 112.185853 128.934568 
Q 115.453895 128.934568 115.453895 125.666526 
L 115.453895 92.986105 
Q 115.453895 89.718063 112.185853 89.718063 
L 79.505432 89.718063 
Q 76.237389 89.718063 76.237389 92.986105 
L 76.237389 125.666526 
Q 76.237389 128.934568 79.505432 128.934568 
z
" clip-path="url(#p820b91ac9d)" style="fill: #cfcfcf; opacity: 0.45; stroke-dasharray: 2.7,1.8; stroke-dashoffset: 0; stroke: #7f7f7f; stroke-width: 0.9; stroke-linejoin: miter"/>
   </g>
   <g id="line2d_2">
    <path d="M 215.333432 184.491284 
L 95.845642 130.568589 
" clip-path="url(#p820b91ac9d)" style="fill: none; stroke: #7f7f7f; stroke-opacity: 0.264; stroke-linecap: square"/>
   </g>
   <g id="patch_6">
    <path d="M 127.300547 128.934568 
L 159.980968 128.934568 
Q 163.249011 128.934568 163.249011 125.666526 
L 163.249011 92.986105 
Q 163.249011 89.718063 159.980968 89.718063 
L 127.300547 89.718063 
Q 124.032505 89.718063 124.032505 92.986105 
L 124.032505 125.666526 
Q 124.032505 128.934568 127.300547 128.934568 
z
" clip-path="url(#p820b91ac9d)" style="fill: #cfcfcf; opacity: 0.45; stroke-dasharray: 2.7,1.8; stroke-dashoffset: 0; stroke: #7f7f7f; stroke-width: 0.9; stroke-linejoin: miter"/>
   </g>
   <g id="line2d_3">
    <path d="M 215.333432 184.491284 
L 143.640758 130.568589 
" clip-path="url(#p820b91ac9d)" style="fill: none; stroke: #7f7f7f; stroke-opacity: 0.344; stroke-linecap: square"/>
   </g>
   <g id="patch_7">
    <path d="M 175.095663 128.934568 
L 207.776084 128.934568 
Q 211.044126 128.934568 211.044126 125.666526 
L 211.044126 92.986105 
Q 211.044126 89.718063 207.776084 89.718063 
L 175.095663 89.718063 
Q 171.827621 89.718063 171.827621 92.986105 
L 171.827621 125.666526 
Q 171.827621 128.934568 175.095663 128.934568 
z
" clip-path="url(#p820b91ac9d)" style="fill: #cfcfcf; opacity: 0.45; stroke-dasharray: 2.7,1.8; stroke-dashoffset: 0; stroke: #7f7f7f; stroke-width: 0.9; stroke-linejoin: miter"/>
   </g>
   <g id="line2d_4">
    <path d="M 215.333432 184.491284 
L 191.435874 130.568589 
" clip-path="url(#p820b91ac9d)" style="fill: none; stroke: #7f7f7f; stroke-opacity: 0.408; stroke-linecap: square"/>
   </g>
   <g id="patch_8">
    <path d="M 222.890779 128.934568 
L 255.5712 128.934568 
Q 258.839242 128.934568 258.839242 125.666526 
L 258.839242 92.986105 
Q 258.839242 89.718063 255.5712 89.718063 
L 222.890779 89.718063 
Q 219.622737 89.718063 219.622737 92.986105 
L 219.622737 125.666526 
Q 219.622737 128.934568 222.890779 128.934568 
z
" clip-path="url(#p820b91ac9d)" style="fill: #cfcfcf; opacity: 0.45; stroke-dasharray: 2.7,1.8; stroke-dashoffset: 0; stroke: #7f7f7f; stroke-width: 0.9; stroke-linejoin: miter"/>
   </g>
   <g id="line2d_5">
    <path d="M 215.333432 184.491284 
L 239.230989 130.568589 
" clip-path="url(#p820b91ac9d)" style="fill: none; stroke: #7f7f7f; stroke-opacity: 0.328; stroke-linecap: square"/>
   </g>
   <g id="patch_9">
    <path d="M 270.685895 128.934568 
L 303.366316 128.934568 
Q 306.634358 128.934568 306.634358 125.666526 
L 306.634358 92.986105 
Q 306.634358 89.718063 303.366316 89.718063 
L 270.685895 89.718063 
Q 267.417853 89.718063 267.417853 92.986105 
L 267.417853 125.666526 
Q 267.417853 128.934568 270.685895 128.934568 
z
" clip-path="url(#p820b91ac9d)" style="fill: #ff7f0e; opacity: 0.75; stroke: #000000; stroke-width: 1.2; stroke-linejoin: miter"/>
   </g>
   <g id="patch_10">
    <path d="M 318.481011 128.934568 
L 351.161432 128.934568 
Q 354.429474 128.934568 354.429474 125.666526 
L 354.429474 92.986105 
Q 354.429474 89.718063 351.161432 89.718063 
L 318.481011 89.718063 
Q 315.212968 89.718063 315.212968 92.986105 
L 315.212968 125.666526 
Q 315.212968 128.934568 318.481011 128.934568 
z
" clip-path="url(#p820b91ac9d)" style="fill: #cfcfcf; opacity: 0.45; stroke-dasharray: 2.7,1.8; stroke-dashoffset: 0; stroke: #7f7f7f; stroke-width: 0.9; stroke-linejoin: miter"/>
   </g>
   <g id="line2d_6">
    <path d="M 215.333432 184.491284 
L 334.821221 130.568589 
" clip-path="url(#p820b91ac9d)" style="fill: none; stroke: #7f7f7f; stroke-opacity: 0.488; stroke-linecap: square"/>
   </g>
   <g id="patch_11">
    <path d="M 366.276126 128.934568 
L 398.956547 128.934568 
Q 402.224589 128.934568 402.224589 125.666526 
L 402.224589 92.986105 
Q 402.224589 89.718063 398.956547 89.718063 
L 366.276126 89.718063 
Q 363.008084 89.718063 363.008084 92.986105 
L 363.008084 125.666526 
Q 363.008084 128.934568 366.276126 128.934568 
z
" clip-path="url(#p820b91ac9d)" style="fill: #cfcfcf; opacity: 0.45; stroke-dasharray: 2.7,1.8; stroke-dashoffset: 0; stroke: #7f7f7f; stroke-width: 0.9; stroke-linejoin: miter"/>
   </g>
   <g id="line2d_7">
    <path d="M 215.333432 184.491284 
L 382.616337 130.568589 
" clip-path="url(#p820b91ac9d)" style="fill: none; stroke: #7f7f7f; stroke-opacity: 0.376; stroke-linecap: square"/>
   </g>
   <g id="text_1">
    <!-- $\mathbf{x}$ -->
    <g transform="translate(211.358432 260.527273) scale(0.15 -0.15)">
     <defs>
      <path id="Cmb10-78" d="M 109 0 
L 109 325 
Q 628 325 678 384 
L 1381 1350 
L 588 2516 
L 141 2516 
L 141 2841 
L 1606 2841 
L 1606 2516 
L 1331 2516 
L 1766 1881 
L 2181 2463 
Q 2181 2491 2072 2503 
Q 1963 2516 1888 2516 
L 1888 2841 
L 3156 2841 
L 3156 2516 
Q 2638 2516 2584 2456 
L 1959 1594 
L 2816 325 
L 3272 325 
L 3272 0 
L 1797 0 
L 1797 325 
L 2075 325 
L 1575 1063 
L 1081 378 
Q 1081 356 1193 340 
Q 1306 325 1381 325 
L 1381 0 
L 109 0 
z
" transform="scale(0.015625)"/>
     </defs>
     <use xlink:href="#Cmb10-78" transform="translate(0 0.609375)"/>
    </g>
   </g>
   <g id="text_2">
    <!-- token -->
    <g transform="translate(250.056379 259.975398) scale(0.13 -0.13)">
     <defs>
      <path id="DejaVuSans-74" d="M 1172 4494 
L 1172 3500 
L 2356 3500 
L 2356 3053 
L 1172 3053 
L 1172 1153 
Q 1172 725 1289 603 
Q 1406 481 1766 481 
L 2356 481 
L 2356 0 
L 1766 0 
Q 1100 0 847 248 
Q 594 497 594 1153 
L 594 3053 
L 172 3053 
L 172 3500 
L 594 3500 
L 594 4494 
L 1172 4494 
z
" transform="scale(0.015625)"/>
      <path id="DejaVuSans-6f" d="M 1959 3097 
Q 1497 3097 1228 2736 
Q 959 2375 959 1747 
Q 959 1119 1226 758 
Q 1494 397 1959 397 
Q 2419 397 2687 759 
Q 2956 1122 2956 1747 
Q 2956 2369 2687 2733 
Q 2419 3097 1959 3097 
z
M 1959 3584 
Q 2709 3584 3137 3096 
Q 3566 2609 3566 1747 
Q 3566 888 3137 398 
Q 2709 -91 1959 -91 
Q 1206 -91 779 398 
Q 353 888 353 1747 
Q 353 2609 779 3096 
Q 1206 3584 1959 3584 
z
" transform="scale(0.015625)"/>
      <path id="DejaVuSans-6b" d="M 581 4863 
L 1159 4863 
L 1159 1991 
L 2875 3500 
L 3609 3500 
L 1753 1863 
L 3688 0 
L 2938 0 
L 1159 1709 
L 1159 0 
L 581 0 
L 581 4863 
z
" transform="scale(0.015625)"/>
      <path id="DejaVuSans-65" d="M 3597 1894 
L 3597 1613 
L 953 1613 
Q 991 1019 1311 708 
Q 1631 397 2203 397 
Q 2534 397 2845 478 
Q 3156 559 3463 722 
L 3463 178 
Q 3153 47 2828 -22 
Q 2503 -91 2169 -91 
Q 1331 -91 842 396 
Q 353 884 353 1716 
Q 353 2575 817 3079 
Q 1281 3584 2069 3584 
Q 2775 3584 3186 3129 
Q 3597 2675 3597 1894 
z
M 3022 2063 
Q 3016 2534 2758 2815 
Q 2500 3097 2075 3097 
Q 1594 3097 1305 2825 
Q 1016 2553 972 2059 
L 3022 2063 
z
" transform="scale(0.015625)"/>
      <path id="DejaVuSans-6e" d="M 3513 2113 
L 3513 0 
L 2938 0 
L 2938 2094 
Q 2938 2591 2744 2837 
Q 2550 3084 2163 3084 
Q 1697 3084 1428 2787 
Q 1159 2491 1159 1978 
L 1159 0 
L 581 0 
L 581 3500 
L 1159 3500 
L 1159 2956 
Q 1366 3272 1645 3428 
Q 1925 3584 2291 3584 
Q 2894 3584 3203 3211 
Q 3513 2838 3513 2113 
z
" transform="scale(0.015625)"/>
     </defs>
     <use xlink:href="#DejaVuSans-74"/>
     <use xlink:href="#DejaVuSans-6f" transform="translate(39.208984 0)"/>
     <use xlink:href="#DejaVuSans-6b" transform="translate(100.390625 0)"/>
     <use xlink:href="#DejaVuSans-65" transform="translate(154.675781 0)"/>
     <use xlink:href="#DejaVuSans-6e" transform="translate(216.199219 0)"/>
    </g>
   </g>
   <g id="text_3">
    <!-- router -->
    <g transform="translate(193.964838 203.060599) scale(0.14 -0.14)">
     <defs>
      <path id="DejaVuSans-72" d="M 2631 2963 
Q 2534 3019 2420 3045 
Q 2306 3072 2169 3072 
Q 1681 3072 1420 2755 
Q 1159 2438 1159 1844 
L 1159 0 
L 581 0 
L 581 3500 
L 1159 3500 
L 1159 2956 
Q 1341 3275 1631 3429 
Q 1922 3584 2338 3584 
Q 2397 3584 2469 3576 
Q 2541 3569 2628 3553 
L 2631 2963 
z
" transform="scale(0.015625)"/>
      <path id="DejaVuSans-75" d="M 544 1381 
L 544 3500 
L 1119 3500 
L 1119 1403 
Q 1119 906 1312 657 
Q 1506 409 1894 409 
Q 2359 409 2629 706 
Q 2900 1003 2900 1516 
L 2900 3500 
L 3475 3500 
L 3475 0 
L 2900 0 
L 2900 538 
Q 2691 219 2414 64 
Q 2138 -91 1772 -91 
Q 1169 -91 856 284 
Q 544 659 544 1381 
z
M 1991 3584 
L 1991 3584 
z
" transform="scale(0.015625)"/>
     </defs>
     <use xlink:href="#DejaVuSans-72"/>
     <use xlink:href="#DejaVuSans-6f" transform="translate(38.863281 0)"/>
     <use xlink:href="#DejaVuSans-75" transform="translate(100.044922 0)"/>
     <use xlink:href="#DejaVuSans-74" transform="translate(163.423828 0)"/>
     <use xlink:href="#DejaVuSans-65" transform="translate(202.632812 0)"/>
     <use xlink:href="#DejaVuSans-72" transform="translate(264.15625 0)"/>
    </g>
   </g>
   <g id="text_4">
    <!-- $\mathbf{p} = \mathrm{softmax}(\mathbf{W}_r \mathbf{x})$ -->
    <g transform="translate(262.311537 202.697474) scale(0.14 -0.14)">
     <defs>
      <path id="Cmb10-70" d="M 91 -1241 
L 91 -916 
L 531 -916 
L 531 2394 
Q 531 2503 91 2503 
L 91 2828 
L 1247 2881 
L 1247 2619 
Q 1600 2881 2047 2881 
Q 2366 2881 2608 2765 
Q 2850 2650 3011 2453 
Q 3172 2256 3256 1987 
Q 3341 1719 3341 1422 
Q 3341 1000 3170 667 
Q 3000 334 2679 148 
Q 2359 -38 1941 -38 
Q 1566 -38 1288 184 
L 1288 -916 
L 1728 -916 
L 1728 -1241 
L 91 -1241 
z
M 1288 581 
Q 1519 219 1881 219 
Q 2219 219 2358 609 
Q 2497 1000 2497 1422 
Q 2497 1825 2376 2211 
Q 2256 2597 1953 2597 
Q 1763 2597 1588 2508 
Q 1413 2419 1288 2259 
L 1288 581 
z
" transform="scale(0.015625)"/>
      <path id="Cmr10-3d" d="M 481 850 
Q 428 850 393 890 
Q 359 931 359 978 
Q 359 1031 393 1068 
Q 428 1106 481 1106 
L 4500 1106 
Q 4547 1106 4581 1068 
Q 4616 1031 4616 978 
Q 4616 931 4581 890 
Q 4547 850 4500 850 
L 481 850 
z
M 481 2094 
Q 428 2094 393 2131 
Q 359 2169 359 2222 
Q 359 2269 393 2309 
Q 428 2350 481 2350 
L 4500 2350 
Q 4547 2350 4581 2309 
Q 4616 2269 4616 2222 
Q 4616 2169 4581 2131 
Q 4547 2094 4500 2094 
L 481 2094 
z
" transform="scale(0.015625)"/>
      <path id="Cmr10-73" d="M 213 -19 
L 213 1025 
Q 213 1075 269 1075 
L 347 1075 
Q 384 1075 397 1025 
Q 575 97 1259 97 
Q 1563 97 1767 234 
Q 1972 372 1972 659 
Q 1972 866 1812 1011 
Q 1653 1156 1434 1209 
L 1006 1294 
Q 791 1341 614 1437 
Q 438 1534 325 1695 
Q 213 1856 213 2069 
Q 213 2350 361 2529 
Q 509 2709 746 2789 
Q 984 2869 1259 2869 
Q 1588 2869 1831 2694 
L 2016 2853 
Q 2016 2869 2047 2869 
L 2094 2869 
Q 2113 2869 2128 2851 
Q 2144 2834 2144 2816 
L 2144 1978 
Q 2144 1919 2094 1919 
L 2016 1919 
Q 1959 1919 1959 1978 
Q 1959 2313 1773 2516 
Q 1588 2719 1253 2719 
Q 966 2719 755 2612 
Q 544 2506 544 2247 
Q 544 2069 695 1955 
Q 847 1841 1050 1791 
L 1484 1709 
Q 1703 1659 1892 1540 
Q 2081 1422 2192 1240 
Q 2303 1059 2303 831 
Q 2303 600 2223 429 
Q 2144 259 2001 146 
Q 1859 34 1665 -19 
Q 1472 -72 1259 -72 
Q 859 -72 575 197 
L 341 -56 
Q 341 -72 306 -72 
L 269 -72 
Q 213 -72 213 -19 
z
" transform="scale(0.015625)"/>
      <path id="Cmr10-6f" d="M 1600 -72 
Q 1216 -72 887 123 
Q 559 319 368 647 
Q 178 975 178 1363 
Q 178 1656 283 1928 
Q 388 2200 583 2414 
Q 778 2628 1037 2748 
Q 1297 2869 1600 2869 
Q 1994 2869 2317 2661 
Q 2641 2453 2828 2104 
Q 3016 1756 3016 1363 
Q 3016 978 2825 648 
Q 2634 319 2307 123 
Q 1981 -72 1600 -72 
z
M 1600 116 
Q 2113 116 2284 487 
Q 2456 859 2456 1434 
Q 2456 1756 2422 1967 
Q 2388 2178 2272 2350 
Q 2200 2456 2089 2536 
Q 1978 2616 1854 2658 
Q 1731 2700 1600 2700 
Q 1400 2700 1220 2609 
Q 1041 2519 922 2350 
Q 803 2169 770 1951 
Q 738 1734 738 1434 
Q 738 1075 800 789 
Q 863 503 1052 309 
Q 1241 116 1600 116 
z
" transform="scale(0.015625)"/>
      <path id="Cmr10-66" d="M 206 0 
L 206 225 
Q 422 225 562 259 
Q 703 294 703 428 
L 703 2534 
L 213 2534 
L 213 2759 
L 703 2759 
L 703 3525 
Q 703 3731 789 3911 
Q 875 4091 1020 4225 
Q 1166 4359 1355 4436 
Q 1544 4513 1747 4513 
Q 1963 4513 2136 4384 
Q 2309 4256 2309 4044 
Q 2309 3922 2226 3839 
Q 2144 3756 2022 3756 
Q 1900 3756 1814 3839 
Q 1728 3922 1728 4044 
Q 1728 4244 1900 4313 
Q 1797 4347 1716 4347 
Q 1528 4347 1395 4214 
Q 1263 4081 1197 3890 
Q 1131 3700 1131 3513 
L 1131 2759 
L 1869 2759 
L 1869 2534 
L 1153 2534 
L 1153 428 
Q 1153 297 1340 261 
Q 1528 225 1772 225 
L 1772 0 
L 206 0 
z
" transform="scale(0.015625)"/>
      <path id="Cmr10-74" d="M 653 769 
L 653 2534 
L 122 2534 
L 122 2700 
Q 541 2700 737 3090 
Q 934 3481 934 3938 
L 1119 3938 
L 1119 2759 
L 2022 2759 
L 2022 2534 
L 1119 2534 
L 1119 781 
Q 1119 516 1208 316 
Q 1297 116 1528 116 
Q 1747 116 1844 327 
Q 1941 538 1941 781 
L 1941 1159 
L 2125 1159 
L 2125 769 
Q 2125 569 2051 373 
Q 1978 178 1834 53 
Q 1691 -72 1484 -72 
Q 1100 -72 876 158 
Q 653 388 653 769 
z
" transform="scale(0.015625)"/>
      <path id="Cmr10-6d" d="M 191 0 
L 191 225 
Q 409 225 550 259 
Q 691 294 691 428 
L 691 2175 
Q 691 2347 639 2423 
Q 588 2500 491 2517 
Q 394 2534 191 2534 
L 191 2759 
L 1119 2828 
L 1119 2203 
Q 1247 2478 1498 2653 
Q 1750 2828 2047 2828 
Q 2784 2828 2913 2228 
Q 3041 2497 3287 2662 
Q 3534 2828 3828 2828 
Q 4119 2828 4317 2734 
Q 4516 2641 4616 2448 
Q 4716 2256 4716 1966 
L 4716 428 
Q 4716 294 4858 259 
Q 5000 225 5216 225 
L 5216 0 
L 3750 0 
L 3750 225 
Q 3969 225 4109 259 
Q 4250 294 4250 428 
L 4250 1947 
Q 4250 2269 4159 2466 
Q 4069 2663 3788 2663 
Q 3419 2663 3178 2366 
Q 2938 2069 2938 1691 
L 2938 428 
Q 2938 294 3078 259 
Q 3219 225 3438 225 
L 3438 0 
L 1972 0 
L 1972 225 
Q 2191 225 2331 259 
Q 2472 294 2472 428 
L 2472 1947 
Q 2472 2259 2381 2461 
Q 2291 2663 2009 2663 
Q 1638 2663 1398 2366 
Q 1159 2069 1159 1691 
L 1159 428 
Q 1159 294 1300 259 
Q 1441 225 1656 225 
L 1656 0 
L 191 0 
z
" transform="scale(0.015625)"/>
      <path id="Cmr10-61" d="M 256 628 
Q 256 1009 556 1248 
Q 856 1488 1276 1586 
Q 1697 1684 2075 1684 
L 2075 1947 
Q 2075 2131 1994 2304 
Q 1913 2478 1759 2589 
Q 1606 2700 1422 2700 
Q 997 2700 775 2509 
Q 897 2509 976 2417 
Q 1056 2325 1056 2203 
Q 1056 2075 965 1984 
Q 875 1894 750 1894 
Q 622 1894 531 1984 
Q 441 2075 441 2203 
Q 441 2541 747 2705 
Q 1053 2869 1422 2869 
Q 1681 2869 1943 2758 
Q 2206 2647 2373 2440 
Q 2541 2234 2541 1959 
L 2541 519 
Q 2541 394 2594 289 
Q 2647 184 2759 184 
Q 2866 184 2917 290 
Q 2969 397 2969 519 
L 2969 928 
L 3156 928 
L 3156 519 
Q 3156 375 3081 245 
Q 3006 116 2879 39 
Q 2753 -38 2606 -38 
Q 2419 -38 2283 107 
Q 2147 253 2131 453 
Q 2013 213 1781 70 
Q 1550 -72 1288 -72 
Q 1044 -72 808 0 
Q 572 72 414 226 
Q 256 381 256 628 
z
M 775 628 
Q 775 403 940 250 
Q 1106 97 1331 97 
Q 1538 97 1706 200 
Q 1875 303 1975 481 
Q 2075 659 2075 856 
L 2075 1522 
Q 1784 1522 1479 1426 
Q 1175 1331 975 1128 
Q 775 925 775 628 
z
" transform="scale(0.015625)"/>
      <path id="Cmr10-78" d="M 78 0 
L 78 225 
Q 322 225 537 320 
Q 753 416 903 603 
L 1484 1344 
L 728 2328 
Q 616 2469 483 2501 
Q 350 2534 109 2534 
L 109 2759 
L 1441 2759 
L 1441 2534 
Q 1356 2534 1282 2496 
Q 1209 2459 1209 2388 
Q 1209 2363 1228 2328 
L 1741 1663 
L 2125 2156 
Q 2203 2250 2203 2344 
Q 2203 2422 2151 2478 
Q 2100 2534 2016 2534 
L 2016 2759 
L 3194 2759 
L 3194 2534 
Q 2947 2534 2730 2439 
Q 2513 2344 2363 2156 
L 1856 1509 
L 2675 428 
Q 2797 288 2928 256 
Q 3059 225 3303 225 
L 3303 0 
L 1972 0 
L 1972 225 
Q 2050 225 2122 262 
Q 2194 300 2194 372 
Q 2194 400 2175 428 
L 1600 1191 
L 1141 603 
Q 1069 522 1069 416 
Q 1069 338 1122 281 
Q 1175 225 1247 225 
L 1247 0 
L 78 0 
z
" transform="scale(0.015625)"/>
      <path id="Cmr10-28" d="M 1984 -1588 
Q 1628 -1306 1370 -942 
Q 1113 -578 948 -165 
Q 784 247 703 697 
Q 622 1147 622 1600 
Q 622 2059 703 2509 
Q 784 2959 951 3375 
Q 1119 3791 1378 4153 
Q 1638 4516 1984 4788 
Q 1984 4800 2016 4800 
L 2075 4800 
Q 2094 4800 2109 4783 
Q 2125 4766 2125 4744 
Q 2125 4716 2113 4703 
Q 1800 4397 1592 4047 
Q 1384 3697 1257 3301 
Q 1131 2906 1075 2482 
Q 1019 2059 1019 1600 
Q 1019 -434 2106 -1491 
Q 2125 -1509 2125 -1544 
Q 2125 -1559 2108 -1579 
Q 2091 -1600 2075 -1600 
L 2016 -1600 
Q 1984 -1600 1984 -1588 
z
" transform="scale(0.015625)"/>
      <path id="Cmb10-57" d="M 1966 63 
L 622 4063 
L 134 4063 
L 134 4391 
L 2100 4391 
L 2100 4063 
L 1569 4063 
L 2484 1356 
L 3128 3291 
L 2869 4063 
L 2381 4063 
L 2381 4391 
L 4347 4391 
L 4347 4063 
L 3822 4063 
L 4728 1356 
L 5619 4013 
Q 5603 4028 5459 4044 
Q 5259 4063 5050 4063 
L 5050 4391 
L 6472 4391 
L 6472 4063 
Q 6316 4063 6147 4053 
Q 5978 4044 5966 4006 
L 4641 63 
Q 4600 -50 4481 -50 
L 4378 -50 
Q 4250 -50 4219 63 
L 3303 2778 
L 2388 63 
Q 2356 -50 2228 -50 
L 2125 -50 
Q 2006 -50 1966 63 
z
" transform="scale(0.015625)"/>
      <path id="Cmmi10-72" d="M 494 109 
Q 494 147 500 166 
L 978 2075 
Q 1025 2253 1025 2388 
Q 1025 2663 838 2663 
Q 638 2663 541 2423 
Q 444 2184 353 1819 
Q 353 1800 334 1789 
Q 316 1778 300 1778 
L 225 1778 
Q 203 1778 187 1801 
Q 172 1825 172 1844 
Q 241 2122 305 2315 
Q 369 2509 505 2668 
Q 641 2828 844 2828 
Q 1066 2828 1233 2700 
Q 1400 2572 1441 2363 
Q 1603 2575 1811 2701 
Q 2019 2828 2266 2828 
Q 2469 2828 2623 2709 
Q 2778 2591 2778 2388 
Q 2778 2225 2676 2104 
Q 2575 1984 2406 1984 
Q 2303 1984 2233 2048 
Q 2163 2113 2163 2216 
Q 2163 2356 2266 2467 
Q 2369 2578 2503 2578 
Q 2400 2663 2253 2663 
Q 1978 2663 1775 2467 
Q 1572 2272 1409 1972 
L 953 141 
Q 931 53 854 -9 
Q 778 -72 684 -72 
Q 606 -72 550 -22 
Q 494 28 494 109 
z
" transform="scale(0.015625)"/>
      <path id="Cmr10-29" d="M 416 -1600 
Q 359 -1600 359 -1544 
Q 359 -1516 372 -1503 
Q 1466 -434 1466 1600 
Q 1466 3634 384 4691 
Q 359 4706 359 4744 
Q 359 4766 376 4783 
Q 394 4800 416 4800 
L 475 4800 
Q 494 4800 506 4788 
Q 966 4425 1272 3906 
Q 1578 3388 1720 2800 
Q 1863 2213 1863 1600 
Q 1863 1147 1786 708 
Q 1709 269 1542 -157 
Q 1375 -584 1119 -945 
Q 863 -1306 506 -1588 
Q 494 -1600 475 -1600 
L 416 -1600 
z
" transform="scale(0.015625)"/>
     </defs>
     <use xlink:href="#Cmb10-70"/>
     <use xlink:href="#Cmr10-3d" transform="translate(73.076172 0)"/>
     <use xlink:href="#Cmr10-73" transform="translate(168.320312 0)"/>
     <use xlink:href="#Cmr10-6f" transform="translate(207.724609 0)"/>
     <use xlink:href="#Cmr10-66" transform="translate(257.724609 0)"/>
     <use xlink:href="#Cmr10-74" transform="translate(288.242188 0)"/>
     <use xlink:href="#Cmr10-6d" transform="translate(327.060547 0)"/>
     <use xlink:href="#Cmr10-61" transform="translate(410.361328 0)"/>
     <use xlink:href="#Cmr10-78" transform="translate(460.361328 0)"/>
     <use xlink:href="#Cmr10-28" transform="translate(513.046875 0)"/>
     <use xlink:href="#Cmb10-57" transform="translate(551.865234 0)"/>
     <use xlink:href="#Cmmi10-72" transform="translate(659.649688 -17.00625) scale(0.7)"/>
     <use xlink:href="#Cmb10-78" transform="translate(697.609062 0)"/>
     <use xlink:href="#Cmr10-29" transform="translate(750.294609 0)"/>
    </g>
   </g>
   <g id="patch_12">
    <path d="M 215.333432 241.682021 
Q 215.333432 227.792842 215.333432 215.468911 
" style="fill: none; stroke: #000000; stroke-width: 1.4; stroke-linecap: round"/>
    <path d="M 213.133432 219.868911 
L 215.333432 215.468911 
L 217.533432 219.868911 
" style="fill: none; stroke: #000000; stroke-width: 1.4; stroke-linecap: round"/>
   </g>
   <g id="text_5">
    <!-- $\mathrm{FFN}_{1}$ -->
    <g transform="translate(31.670526 112.913503) scale(0.13 -0.13)">
     <defs>
      <path id="Cmr10-46" d="M 197 0 
L 197 225 
Q 856 225 856 428 
L 856 3944 
Q 856 4147 197 4147 
L 197 4372 
L 3725 4372 
L 3903 2906 
L 3719 2906 
Q 3675 3309 3601 3542 
Q 3528 3775 3387 3908 
Q 3247 4041 3011 4094 
Q 2775 4147 2363 4147 
L 1778 4147 
Q 1663 4147 1598 4137 
Q 1534 4128 1493 4083 
Q 1453 4038 1453 3944 
L 1453 2297 
L 1906 2297 
Q 2234 2297 2387 2355 
Q 2541 2413 2598 2566 
Q 2656 2719 2656 3047 
L 2841 3047 
L 2841 1325 
L 2656 1325 
Q 2656 1653 2598 1806 
Q 2541 1959 2387 2017 
Q 2234 2075 1906 2075 
L 1453 2075 
L 1453 428 
Q 1453 225 2272 225 
L 2272 0 
L 197 0 
z
" transform="scale(0.015625)"/>
      <path id="Cmr10-4e" d="M 197 0 
L 197 225 
Q 856 225 856 603 
L 856 4109 
Q 647 4147 197 4147 
L 197 4372 
L 1422 4372 
Q 1453 4372 1466 4347 
L 3731 1013 
L 3731 3769 
Q 3731 4147 3072 4147 
L 3072 4372 
L 4594 4372 
L 4594 4147 
Q 3938 4147 3938 3769 
L 3938 56 
Q 3938 38 3913 19 
Q 3888 0 3872 0 
L 3794 0 
Q 3763 0 3750 25 
L 1063 3981 
L 1063 603 
Q 1063 225 1722 225 
L 1722 0 
L 197 0 
z
" transform="scale(0.015625)"/>
      <path id="Cmr10-31" d="M 594 0 
L 594 225 
Q 1394 225 1394 428 
L 1394 3788 
Q 1063 3628 556 3628 
L 556 3853 
Q 1341 3853 1741 4263 
L 1831 4263 
Q 1853 4263 1873 4245 
Q 1894 4228 1894 4206 
L 1894 428 
Q 1894 225 2694 225 
L 2694 0 
L 594 0 
z
" transform="scale(0.015625)"/>
     </defs>
     <use xlink:href="#Cmr10-46" transform="translate(0 0.6875)"/>
     <use xlink:href="#Cmr10-46" transform="translate(65.185547 0.6875)"/>
     <use xlink:href="#Cmr10-4e" transform="translate(130.371094 0.6875)"/>
     <use xlink:href="#Cmr10-31" transform="translate(209.835234 -16.31875) scale(0.7)"/>
    </g>
   </g>
   <g id="text_6">
    <!-- $\mathrm{FFN}_{2}$ -->
    <g transform="translate(79.465642 112.913503) scale(0.13 -0.13)">
     <defs>
      <path id="Cmr10-32" d="M 319 0 
L 319 172 
Q 319 188 331 206 
L 1325 1306 
Q 1550 1550 1690 1715 
Q 1831 1881 1968 2097 
Q 2106 2313 2186 2536 
Q 2266 2759 2266 3009 
Q 2266 3272 2169 3511 
Q 2072 3750 1880 3894 
Q 1688 4038 1416 4038 
Q 1138 4038 916 3870 
Q 694 3703 603 3438 
Q 628 3444 672 3444 
Q 816 3444 917 3347 
Q 1019 3250 1019 3097 
Q 1019 2950 917 2848 
Q 816 2747 672 2747 
Q 522 2747 420 2851 
Q 319 2956 319 3097 
Q 319 3338 409 3548 
Q 500 3759 670 3923 
Q 841 4088 1055 4175 
Q 1269 4263 1509 4263 
Q 1875 4263 2190 4108 
Q 2506 3953 2690 3670 
Q 2875 3388 2875 3009 
Q 2875 2731 2753 2481 
Q 2631 2231 2440 2026 
Q 2250 1822 1953 1562 
Q 1656 1303 1563 1216 
L 838 519 
L 1453 519 
Q 1906 519 2211 526 
Q 2516 534 2534 550 
Q 2609 631 2688 1141 
L 2875 1141 
L 2694 0 
L 319 0 
z
" transform="scale(0.015625)"/>
     </defs>
     <use xlink:href="#Cmr10-46" transform="translate(0 0.6875)"/>
     <use xlink:href="#Cmr10-46" transform="translate(65.185547 0.6875)"/>
     <use xlink:href="#Cmr10-4e" transform="translate(130.371094 0.6875)"/>
     <use xlink:href="#Cmr10-32" transform="translate(209.835234 -16.31875) scale(0.7)"/>
    </g>
   </g>
   <g id="text_7">
    <!-- $\mathrm{FFN}_{3}$ -->
    <g transform="translate(127.260758 112.913503) scale(0.13 -0.13)">
     <defs>
      <path id="Cmr10-33" d="M 609 494 
Q 759 275 1012 169 
Q 1266 63 1556 63 
Q 1928 63 2084 380 
Q 2241 697 2241 1100 
Q 2241 1281 2208 1462 
Q 2175 1644 2097 1800 
Q 2019 1956 1883 2050 
Q 1747 2144 1550 2144 
L 1125 2144 
Q 1069 2144 1069 2203 
L 1069 2259 
Q 1069 2309 1125 2309 
L 1478 2338 
Q 1703 2338 1851 2506 
Q 2000 2675 2069 2917 
Q 2138 3159 2138 3378 
Q 2138 3684 1994 3881 
Q 1850 4078 1556 4078 
Q 1313 4078 1091 3986 
Q 869 3894 738 3706 
Q 750 3709 759 3711 
Q 769 3713 781 3713 
Q 925 3713 1022 3613 
Q 1119 3513 1119 3372 
Q 1119 3234 1022 3134 
Q 925 3034 781 3034 
Q 641 3034 541 3134 
Q 441 3234 441 3372 
Q 441 3647 606 3850 
Q 772 4053 1033 4158 
Q 1294 4263 1556 4263 
Q 1750 4263 1965 4205 
Q 2181 4147 2356 4039 
Q 2531 3931 2642 3762 
Q 2753 3594 2753 3378 
Q 2753 3109 2633 2881 
Q 2513 2653 2303 2487 
Q 2094 2322 1844 2241 
Q 2122 2188 2372 2031 
Q 2622 1875 2773 1631 
Q 2925 1388 2925 1106 
Q 2925 753 2731 467 
Q 2538 181 2222 20 
Q 1906 -141 1556 -141 
Q 1256 -141 954 -26 
Q 653 88 461 316 
Q 269 544 269 863 
Q 269 1022 375 1128 
Q 481 1234 641 1234 
Q 744 1234 830 1186 
Q 916 1138 964 1050 
Q 1013 963 1013 863 
Q 1013 706 903 600 
Q 794 494 641 494 
L 609 494 
z
" transform="scale(0.015625)"/>
     </defs>
     <use xlink:href="#Cmr10-46" transform="translate(0 0.6875)"/>
     <use xlink:href="#Cmr10-46" transform="translate(65.185547 0.6875)"/>
     <use xlink:href="#Cmr10-4e" transform="translate(130.371094 0.6875)"/>
     <use xlink:href="#Cmr10-33" transform="translate(209.835234 -16.31875) scale(0.7)"/>
    </g>
   </g>
   <g id="text_8">
    <!-- $\mathrm{FFN}_{4}$ -->
    <g transform="translate(175.055874 112.913503) scale(0.13 -0.13)">
     <defs>
      <path id="Cmr10-34" d="M 178 1056 
L 178 1281 
L 2156 4231 
Q 2178 4263 2222 4263 
L 2316 4263 
Q 2388 4263 2388 4191 
L 2388 1281 
L 3016 1281 
L 3016 1056 
L 2388 1056 
L 2388 428 
Q 2388 297 2575 261 
Q 2763 225 3009 225 
L 3009 0 
L 1247 0 
L 1247 225 
Q 1494 225 1681 261 
Q 1869 297 1869 428 
L 1869 1056 
L 178 1056 
z
M 391 1281 
L 1906 1281 
L 1906 3547 
L 391 1281 
z
" transform="scale(0.015625)"/>
     </defs>
     <use xlink:href="#Cmr10-46" transform="translate(0 0.6875)"/>
     <use xlink:href="#Cmr10-46" transform="translate(65.185547 0.6875)"/>
     <use xlink:href="#Cmr10-4e" transform="translate(130.371094 0.6875)"/>
     <use xlink:href="#Cmr10-34" transform="translate(209.835234 -16.31875) scale(0.7)"/>
    </g>
   </g>
   <g id="text_9">
    <!-- $\mathrm{FFN}_{5}$ -->
    <g transform="translate(222.850989 112.913503) scale(0.13 -0.13)">
     <defs>
      <path id="Cmr10-35" d="M 556 728 
Q 622 541 758 387 
Q 894 234 1080 148 
Q 1266 63 1466 63 
Q 1928 63 2103 422 
Q 2278 781 2278 1294 
Q 2278 1516 2270 1667 
Q 2263 1819 2228 1959 
Q 2169 2184 2020 2353 
Q 1872 2522 1656 2522 
Q 1441 2522 1286 2456 
Q 1131 2391 1034 2303 
Q 938 2216 863 2119 
Q 788 2022 769 2016 
L 697 2016 
Q 681 2016 657 2036 
Q 634 2056 634 2075 
L 634 4213 
Q 634 4228 654 4245 
Q 675 4263 697 4263 
L 716 4263 
Q 1147 4056 1631 4056 
Q 2106 4056 2547 4263 
L 2566 4263 
Q 2588 4263 2606 4247 
Q 2625 4231 2625 4213 
L 2625 4153 
Q 2625 4122 2613 4122 
Q 2394 3831 2064 3668 
Q 1734 3506 1381 3506 
Q 1125 3506 856 3578 
L 856 2369 
Q 1069 2541 1236 2614 
Q 1403 2688 1663 2688 
Q 2016 2688 2295 2484 
Q 2575 2281 2725 1954 
Q 2875 1628 2875 1288 
Q 2875 903 2686 575 
Q 2497 247 2172 53 
Q 1847 -141 1466 -141 
Q 1150 -141 886 21 
Q 622 184 470 459 
Q 319 734 319 1044 
Q 319 1188 412 1278 
Q 506 1369 647 1369 
Q 788 1369 883 1276 
Q 978 1184 978 1044 
Q 978 906 883 811 
Q 788 716 647 716 
Q 625 716 597 720 
Q 569 725 556 728 
z
" transform="scale(0.015625)"/>
     </defs>
     <use xlink:href="#Cmr10-46" transform="translate(0 0.6875)"/>
     <use xlink:href="#Cmr10-46" transform="translate(65.185547 0.6875)"/>
     <use xlink:href="#Cmr10-4e" transform="translate(130.371094 0.6875)"/>
     <use xlink:href="#Cmr10-35" transform="translate(209.835234 -16.31875) scale(0.7)"/>
    </g>
   </g>
   <g id="text_10">
    <!-- $\mathrm{FFN}_{6}$ -->
    <g transform="translate(270.646105 112.913503) scale(0.13 -0.13)">
     <defs>
      <path id="Cmr10-36" d="M 1600 -141 
Q 1203 -141 937 70 
Q 672 281 526 617 
Q 381 953 325 1322 
Q 269 1691 269 2069 
Q 269 2575 466 3084 
Q 663 3594 1045 3928 
Q 1428 4263 1953 4263 
Q 2172 4263 2361 4180 
Q 2550 4097 2658 3936 
Q 2766 3775 2766 3547 
Q 2766 3416 2677 3327 
Q 2588 3238 2456 3238 
Q 2331 3238 2240 3328 
Q 2150 3419 2150 3547 
Q 2150 3672 2240 3762 
Q 2331 3853 2456 3853 
L 2491 3853 
Q 2409 3969 2261 4023 
Q 2113 4078 1953 4078 
Q 1759 4078 1595 3993 
Q 1431 3909 1300 3765 
Q 1169 3622 1081 3448 
Q 994 3275 945 3053 
Q 897 2831 884 2637 
Q 872 2444 872 2150 
Q 984 2413 1190 2580 
Q 1397 2747 1656 2747 
Q 1941 2747 2175 2631 
Q 2409 2516 2578 2311 
Q 2747 2106 2836 1843 
Q 2925 1581 2925 1313 
Q 2925 938 2758 598 
Q 2591 259 2287 59 
Q 1984 -141 1600 -141 
z
M 1600 63 
Q 1847 63 1997 175 
Q 2147 288 2217 473 
Q 2288 659 2305 848 
Q 2322 1038 2322 1313 
Q 2322 1675 2287 1931 
Q 2253 2188 2100 2383 
Q 1947 2578 1631 2578 
Q 1372 2578 1205 2403 
Q 1038 2228 961 1961 
Q 884 1694 884 1447 
Q 884 1363 891 1319 
Q 891 1309 889 1303 
Q 888 1297 884 1288 
Q 884 1013 940 731 
Q 997 450 1156 256 
Q 1316 63 1600 63 
z
" transform="scale(0.015625)"/>
     </defs>
     <use xlink:href="#Cmr10-46" transform="translate(0 0.6875)"/>
     <use xlink:href="#Cmr10-46" transform="translate(65.185547 0.6875)"/>
     <use xlink:href="#Cmr10-4e" transform="translate(130.371094 0.6875)"/>
     <use xlink:href="#Cmr10-36" transform="translate(209.835234 -16.31875) scale(0.7)"/>
    </g>
   </g>
   <g id="patch_13">
    <path d="M 215.333432 184.491284 
Q 251.179768 157.529937 285.060383 132.047081 
" style="fill: none; stroke: #ff7f0e; stroke-width: 2.2; stroke-linecap: round"/>
    <path d="M 279.34181 133.094894 
L 285.060383 132.047081 
L 282.46749 137.250628 
" style="fill: none; stroke: #ff7f0e; stroke-width: 2.2; stroke-linecap: round"/>
   </g>
   <g id="text_11">
    <g id="patch_14">
     <path d="M 279.971284 187.903909 
L 336.671284 187.903909 
L 336.671284 171.274534 
L 279.971284 171.274534 
z
" style="fill: #ffffff"/>
    </g>
    <!-- $p_{6} = 0.31$ -->
    <g transform="translate(281.511284 183.452346) scale(0.14 -0.14)">
     <defs>
      <path id="Cmmi10-70" d="M -159 -1241 
Q -219 -1241 -219 -1159 
Q -197 -1019 -134 -1019 
Q 66 -1019 145 -983 
Q 225 -947 269 -800 
L 991 2081 
Q 1038 2200 1038 2388 
Q 1038 2663 850 2663 
Q 650 2663 553 2423 
Q 456 2184 366 1819 
Q 366 1778 313 1778 
L 238 1778 
Q 222 1778 203 1801 
Q 184 1825 184 1844 
Q 253 2122 317 2315 
Q 381 2509 517 2668 
Q 653 2828 856 2828 
Q 1075 2828 1240 2704 
Q 1406 2581 1453 2369 
Q 1628 2572 1840 2700 
Q 2053 2828 2278 2828 
Q 2547 2828 2745 2684 
Q 2944 2541 3044 2308 
Q 3144 2075 3144 1806 
Q 3144 1394 2933 953 
Q 2722 513 2361 220 
Q 2000 -72 1588 -72 
Q 1400 -72 1248 34 
Q 1097 141 1013 313 
L 722 -825 
Q 706 -919 703 -934 
Q 703 -1019 1125 -1019 
Q 1191 -1019 1191 -1100 
Q 1169 -1184 1155 -1212 
Q 1141 -1241 1081 -1241 
L -159 -1241 
z
M 1594 97 
Q 1816 97 2006 280 
Q 2197 463 2316 691 
Q 2403 863 2479 1111 
Q 2556 1359 2612 1640 
Q 2669 1922 2669 2088 
Q 2669 2234 2630 2362 
Q 2591 2491 2502 2577 
Q 2413 2663 2266 2663 
Q 2031 2663 1823 2495 
Q 1616 2328 1447 2081 
L 1447 2059 
L 1094 647 
Q 1138 419 1263 258 
Q 1388 97 1594 97 
z
" transform="scale(0.015625)"/>
      <path id="Cmr10-30" d="M 1600 -141 
Q 816 -141 533 504 
Q 250 1150 250 2041 
Q 250 2597 351 3087 
Q 453 3578 754 3920 
Q 1056 4263 1600 4263 
Q 2022 4263 2290 4056 
Q 2559 3850 2700 3523 
Q 2841 3197 2892 2823 
Q 2944 2450 2944 2041 
Q 2944 1491 2842 1011 
Q 2741 531 2444 195 
Q 2147 -141 1600 -141 
z
M 1600 25 
Q 1956 25 2131 390 
Q 2306 756 2347 1200 
Q 2388 1644 2388 2144 
Q 2388 2625 2347 3031 
Q 2306 3438 2132 3767 
Q 1959 4097 1600 4097 
Q 1238 4097 1063 3765 
Q 888 3434 847 3029 
Q 806 2625 806 2144 
Q 806 1788 823 1472 
Q 841 1156 916 820 
Q 991 484 1158 254 
Q 1325 25 1600 25 
z
" transform="scale(0.015625)"/>
      <path id="Cmmi10-3a" d="M 538 353 
Q 538 497 644 600 
Q 750 703 891 703 
Q 978 703 1062 656 
Q 1147 609 1194 525 
Q 1241 441 1241 353 
Q 1241 213 1137 106 
Q 1034 0 891 0 
Q 750 0 644 106 
Q 538 213 538 353 
z
" transform="scale(0.015625)"/>
     </defs>
     <use xlink:href="#Cmmi10-70" transform="translate(0 0.390625)"/>
     <use xlink:href="#Cmr10-36" transform="translate(50.292969 -16.615625) scale(0.7)"/>
     <use xlink:href="#Cmr10-3d" transform="translate(109.228906 0.390625)"/>
     <use xlink:href="#Cmr10-30" transform="translate(204.473047 0.390625)"/>
     <use xlink:href="#Cmmi10-3a" transform="translate(254.473047 0.390625)"/>
     <use xlink:href="#Cmr10-33" transform="translate(282.158594 0.390625)"/>
     <use xlink:href="#Cmr10-31" transform="translate(332.158594 0.390625)"/>
    </g>
   </g>
   <g id="text_12">
    <!-- $\mathrm{FFN}_{7}$ -->
    <g transform="translate(318.441221 112.913503) scale(0.13 -0.13)">
     <defs>
      <path id="Cmr10-37" d="M 1113 166 
Q 1113 522 1175 862 
Q 1238 1203 1358 1536 
Q 1478 1869 1648 2189 
Q 1819 2509 2022 2791 
L 2606 3603 
L 1875 3603 
Q 738 3603 703 3572 
Q 619 3469 544 2981 
L 359 2981 
L 569 4325 
L 756 4325 
L 756 4306 
Q 756 4191 1147 4156 
Q 1538 4122 1913 4122 
L 3103 4122 
L 3103 3956 
Q 3103 3950 3101 3947 
Q 3100 3944 3097 3938 
L 2216 2700 
Q 1891 2219 1809 1631 
Q 1728 1044 1728 166 
Q 1728 41 1637 -50 
Q 1547 -141 1422 -141 
Q 1294 -141 1203 -50 
Q 1113 41 1113 166 
z
" transform="scale(0.015625)"/>
     </defs>
     <use xlink:href="#Cmr10-46" transform="translate(0 0.6875)"/>
     <use xlink:href="#Cmr10-46" transform="translate(65.185547 0.6875)"/>
     <use xlink:href="#Cmr10-4e" transform="translate(130.371094 0.6875)"/>
     <use xlink:href="#Cmr10-37" transform="translate(209.835234 -16.31875) scale(0.7)"/>
    </g>
   </g>
   <g id="text_13">
    <!-- $\mathrm{FFN}_{8}$ -->
    <g transform="translate(366.236337 112.913503) scale(0.13 -0.13)">
     <defs>
      <path id="Cmr10-38" d="M 269 972 
Q 269 1356 522 1651 
Q 775 1947 1172 2144 
L 934 2297 
Q 716 2441 578 2680 
Q 441 2919 441 3181 
Q 441 3488 602 3734 
Q 763 3981 1030 4122 
Q 1297 4263 1600 4263 
Q 1884 4263 2148 4147 
Q 2413 4031 2583 3815 
Q 2753 3600 2753 3303 
Q 2753 3088 2651 2903 
Q 2550 2719 2373 2572 
Q 2197 2425 1997 2322 
L 2363 2088 
Q 2616 1922 2770 1653 
Q 2925 1384 2925 1088 
Q 2925 741 2739 456 
Q 2553 172 2247 15 
Q 1941 -141 1600 -141 
Q 1269 -141 961 -6 
Q 653 128 461 383 
Q 269 638 269 972 
z
M 616 972 
Q 616 719 755 509 
Q 894 300 1122 181 
Q 1350 63 1600 63 
Q 1972 63 2275 280 
Q 2578 497 2578 856 
Q 2578 978 2529 1098 
Q 2481 1219 2395 1317 
Q 2309 1416 2203 1478 
L 1344 2034 
Q 1144 1928 976 1765 
Q 809 1603 712 1400 
Q 616 1197 616 972 
z
M 1056 2925 
L 1831 2425 
Q 2100 2581 2272 2803 
Q 2444 3025 2444 3303 
Q 2444 3519 2323 3698 
Q 2203 3878 2009 3978 
Q 1816 4078 1594 4078 
Q 1400 4078 1203 4003 
Q 1006 3928 878 3779 
Q 750 3631 750 3431 
Q 750 3131 1056 2925 
z
" transform="scale(0.015625)"/>
     </defs>
     <use xlink:href="#Cmr10-46" transform="translate(0 0.6875)"/>
     <use xlink:href="#Cmr10-46" transform="translate(65.185547 0.6875)"/>
     <use xlink:href="#Cmr10-4e" transform="translate(130.371094 0.6875)"/>
     <use xlink:href="#Cmr10-38" transform="translate(209.835234 -16.31875) scale(0.7)"/>
    </g>
   </g>
   <g id="patch_15">
    <path d="M 287.026105 88.084042 
Q 287.026105 70.722568 287.026105 55.82077 
" style="fill: none; stroke: #ff7f0e; stroke-width: 2.2; stroke-linecap: round"/>
    <path d="M 284.426105 61.02077 
L 287.026105 55.82077 
L 289.626105 61.02077 
" style="fill: none; stroke: #ff7f0e; stroke-width: 2.2; stroke-linecap: round"/>
   </g>
   <g id="text_14">
    <!-- $\mathbf{y} = p_{6}\,\mathrm{FFN}_{6}(\mathbf{x})$ -->
    <g transform="translate(237.976105 37.355937) scale(0.15 -0.15)">
     <defs>
      <path id="Cmb10-79" d="M 709 -1281 
Q 469 -1281 295 -1100 
Q 122 -919 122 -672 
Q 122 -513 231 -403 
Q 341 -294 506 -294 
Q 666 -294 775 -403 
Q 884 -513 884 -672 
Q 884 -925 672 -1019 
Q 684 -1025 709 -1025 
Q 925 -1025 1083 -869 
Q 1241 -713 1325 -494 
L 1509 0 
L 550 2516 
L 141 2516 
L 141 2841 
L 1672 2841 
L 1672 2516 
L 1319 2516 
L 1894 1006 
L 2456 2463 
Q 2456 2494 2342 2505 
Q 2228 2516 2119 2516 
L 2119 2841 
L 3231 2841 
L 3231 2516 
Q 2828 2516 2803 2456 
L 1672 -494 
Q 1544 -822 1291 -1051 
Q 1038 -1281 709 -1281 
z
" transform="scale(0.015625)"/>
     </defs>
     <use xlink:href="#Cmb10-79"/>
     <use xlink:href="#Cmr10-3d" transform="translate(70.244141 0)"/>
     <use xlink:href="#Cmmi10-70" transform="translate(165.488281 0)"/>
     <use xlink:href="#Cmr10-36" transform="translate(215.78125 -17.00625) scale(0.7)"/>
     <use xlink:href="#Cmr10-46" transform="translate(271.791048 0)"/>
     <use xlink:href="#Cmr10-46" transform="translate(336.976595 0)"/>
     <use xlink:href="#Cmr10-4e" transform="translate(402.162142 0)"/>
     <use xlink:href="#Cmr10-36" transform="translate(481.626282 -17.00625) scale(0.7)"/>
     <use xlink:href="#Cmr10-28" transform="translate(523.003626 0)"/>
     <use xlink:href="#Cmb10-78" transform="translate(561.821985 0)"/>
     <use xlink:href="#Cmr10-29" transform="translate(614.507532 0)"/>
    </g>
   </g>
   <g id="text_15">
    <!-- parameters held, -->
    <g style="fill: #7f7f7f" transform="translate(44.045929 51.215039) scale(0.13 -0.13)">
     <defs>
      <path id="DejaVuSans-70" d="M 1159 525 
L 1159 -1331 
L 581 -1331 
L 581 3500 
L 1159 3500 
L 1159 2969 
Q 1341 3281 1617 3432 
Q 1894 3584 2278 3584 
Q 2916 3584 3314 3078 
Q 3713 2572 3713 1747 
Q 3713 922 3314 415 
Q 2916 -91 2278 -91 
Q 1894 -91 1617 61 
Q 1341 213 1159 525 
z
M 3116 1747 
Q 3116 2381 2855 2742 
Q 2594 3103 2138 3103 
Q 1681 3103 1420 2742 
Q 1159 2381 1159 1747 
Q 1159 1113 1420 752 
Q 1681 391 2138 391 
Q 2594 391 2855 752 
Q 3116 1113 3116 1747 
z
" transform="scale(0.015625)"/>
      <path id="DejaVuSans-61" d="M 2194 1759 
Q 1497 1759 1228 1600 
Q 959 1441 959 1056 
Q 959 750 1161 570 
Q 1363 391 1709 391 
Q 2188 391 2477 730 
Q 2766 1069 2766 1631 
L 2766 1759 
L 2194 1759 
z
M 3341 1997 
L 3341 0 
L 2766 0 
L 2766 531 
Q 2569 213 2275 61 
Q 1981 -91 1556 -91 
Q 1019 -91 701 211 
Q 384 513 384 1019 
Q 384 1609 779 1909 
Q 1175 2209 1959 2209 
L 2766 2209 
L 2766 2266 
Q 2766 2663 2505 2880 
Q 2244 3097 1772 3097 
Q 1472 3097 1187 3025 
Q 903 2953 641 2809 
L 641 3341 
Q 956 3463 1253 3523 
Q 1550 3584 1831 3584 
Q 2591 3584 2966 3190 
Q 3341 2797 3341 1997 
z
" transform="scale(0.015625)"/>
      <path id="DejaVuSans-6d" d="M 3328 2828 
Q 3544 3216 3844 3400 
Q 4144 3584 4550 3584 
Q 5097 3584 5394 3201 
Q 5691 2819 5691 2113 
L 5691 0 
L 5113 0 
L 5113 2094 
Q 5113 2597 4934 2840 
Q 4756 3084 4391 3084 
Q 3944 3084 3684 2787 
Q 3425 2491 3425 1978 
L 3425 0 
L 2847 0 
L 2847 2094 
Q 2847 2600 2669 2842 
Q 2491 3084 2119 3084 
Q 1678 3084 1418 2786 
Q 1159 2488 1159 1978 
L 1159 0 
L 581 0 
L 581 3500 
L 1159 3500 
L 1159 2956 
Q 1356 3278 1631 3431 
Q 1906 3584 2284 3584 
Q 2666 3584 2933 3390 
Q 3200 3197 3328 2828 
z
" transform="scale(0.015625)"/>
      <path id="DejaVuSans-73" d="M 2834 3397 
L 2834 2853 
Q 2591 2978 2328 3040 
Q 2066 3103 1784 3103 
Q 1356 3103 1142 2972 
Q 928 2841 928 2578 
Q 928 2378 1081 2264 
Q 1234 2150 1697 2047 
L 1894 2003 
Q 2506 1872 2764 1633 
Q 3022 1394 3022 966 
Q 3022 478 2636 193 
Q 2250 -91 1575 -91 
Q 1294 -91 989 -36 
Q 684 19 347 128 
L 347 722 
Q 666 556 975 473 
Q 1284 391 1588 391 
Q 1994 391 2212 530 
Q 2431 669 2431 922 
Q 2431 1156 2273 1281 
Q 2116 1406 1581 1522 
L 1381 1569 
Q 847 1681 609 1914 
Q 372 2147 372 2553 
Q 372 3047 722 3315 
Q 1072 3584 1716 3584 
Q 2034 3584 2315 3537 
Q 2597 3491 2834 3397 
z
" transform="scale(0.015625)"/>
      <path id="DejaVuSans-20" transform="scale(0.015625)"/>
      <path id="DejaVuSans-68" d="M 3513 2113 
L 3513 0 
L 2938 0 
L 2938 2094 
Q 2938 2591 2744 2837 
Q 2550 3084 2163 3084 
Q 1697 3084 1428 2787 
Q 1159 2491 1159 1978 
L 1159 0 
L 581 0 
L 581 4863 
L 1159 4863 
L 1159 2956 
Q 1366 3272 1645 3428 
Q 1925 3584 2291 3584 
Q 2894 3584 3203 3211 
Q 3513 2838 3513 2113 
z
" transform="scale(0.015625)"/>
      <path id="DejaVuSans-6c" d="M 603 4863 
L 1178 4863 
L 1178 0 
L 603 0 
L 603 4863 
z
" transform="scale(0.015625)"/>
      <path id="DejaVuSans-64" d="M 2906 2969 
L 2906 4863 
L 3481 4863 
L 3481 0 
L 2906 0 
L 2906 525 
Q 2725 213 2448 61 
Q 2172 -91 1784 -91 
Q 1150 -91 751 415 
Q 353 922 353 1747 
Q 353 2572 751 3078 
Q 1150 3584 1784 3584 
Q 2172 3584 2448 3432 
Q 2725 3281 2906 2969 
z
M 947 1747 
Q 947 1113 1208 752 
Q 1469 391 1925 391 
Q 2381 391 2643 752 
Q 2906 1113 2906 1747 
Q 2906 2381 2643 2742 
Q 2381 3103 1925 3103 
Q 1469 3103 1208 2742 
Q 947 2381 947 1747 
z
" transform="scale(0.015625)"/>
      <path id="DejaVuSans-2c" d="M 750 794 
L 1409 794 
L 1409 256 
L 897 -744 
L 494 -744 
L 750 256 
L 750 794 
z
" transform="scale(0.015625)"/>
     </defs>
     <use xlink:href="#DejaVuSans-70"/>
     <use xlink:href="#DejaVuSans-61" transform="translate(63.476562 0)"/>
     <use xlink:href="#DejaVuSans-72" transform="translate(124.755859 0)"/>
     <use xlink:href="#DejaVuSans-61" transform="translate(165.869141 0)"/>
     <use xlink:href="#DejaVuSans-6d" transform="translate(227.148438 0)"/>
     <use xlink:href="#DejaVuSans-65" transform="translate(324.560547 0)"/>
     <use xlink:href="#DejaVuSans-74" transform="translate(386.083984 0)"/>
     <use xlink:href="#DejaVuSans-65" transform="translate(425.292969 0)"/>
     <use xlink:href="#DejaVuSans-72" transform="translate(486.816406 0)"/>
     <use xlink:href="#DejaVuSans-73" transform="translate(527.929688 0)"/>
     <use xlink:href="#DejaVuSans-20" transform="translate(580.029297 0)"/>
     <use xlink:href="#DejaVuSans-68" transform="translate(611.816406 0)"/>
     <use xlink:href="#DejaVuSans-65" transform="translate(675.195312 0)"/>
     <use xlink:href="#DejaVuSans-6c" transform="translate(736.71875 0)"/>
     <use xlink:href="#DejaVuSans-64" transform="translate(764.501953 0)"/>
     <use xlink:href="#DejaVuSans-2c" transform="translate(827.978516 0)"/>
    </g>
    <!-- not computed -->
    <g style="fill: #7f7f7f" transform="translate(54.417492 65.772196) scale(0.13 -0.13)">
     <defs>
      <path id="DejaVuSans-63" d="M 3122 3366 
L 3122 2828 
Q 2878 2963 2633 3030 
Q 2388 3097 2138 3097 
Q 1578 3097 1268 2742 
Q 959 2388 959 1747 
Q 959 1106 1268 751 
Q 1578 397 2138 397 
Q 2388 397 2633 464 
Q 2878 531 3122 666 
L 3122 134 
Q 2881 22 2623 -34 
Q 2366 -91 2075 -91 
Q 1284 -91 818 406 
Q 353 903 353 1747 
Q 353 2603 823 3093 
Q 1294 3584 2113 3584 
Q 2378 3584 2631 3529 
Q 2884 3475 3122 3366 
z
" transform="scale(0.015625)"/>
     </defs>
     <use xlink:href="#DejaVuSans-6e"/>
     <use xlink:href="#DejaVuSans-6f" transform="translate(63.378906 0)"/>
     <use xlink:href="#DejaVuSans-74" transform="translate(124.560547 0)"/>
     <use xlink:href="#DejaVuSans-20" transform="translate(163.769531 0)"/>
     <use xlink:href="#DejaVuSans-63" transform="translate(195.556641 0)"/>
     <use xlink:href="#DejaVuSans-6f" transform="translate(250.537109 0)"/>
     <use xlink:href="#DejaVuSans-6d" transform="translate(311.71875 0)"/>
     <use xlink:href="#DejaVuSans-70" transform="translate(409.130859 0)"/>
     <use xlink:href="#DejaVuSans-75" transform="translate(472.607422 0)"/>
     <use xlink:href="#DejaVuSans-74" transform="translate(535.986328 0)"/>
     <use xlink:href="#DejaVuSans-65" transform="translate(575.195312 0)"/>
     <use xlink:href="#DejaVuSans-64" transform="translate(636.71875 0)"/>
    </g>
   </g>
   <g id="patch_16">
    <path d="M 99.930695 69.2928 
Q 97.888168 77.871411 96.130498 85.253628 
" style="fill: none; stroke: #7f7f7f; stroke-width: 1.1; stroke-linecap: round"/>
    <path d="M 99.002592 81.825644 
L 96.130498 85.253628 
L 95.111367 80.899162 
" style="fill: none; stroke: #7f7f7f; stroke-width: 1.1; stroke-linecap: round"/>
   </g>
  </g>
 </g>
 <defs>
  <clipPath id="p820b91ac9d">
   <rect x="7.2" y="7.2" width="416.266863" height="271.656"/>
  </clipPath>
 </defs>
</svg>
