<?xml version="1.0" encoding="utf-8" standalone="no"?>
<!DOCTYPE svg PUBLIC "-//W3C//DTD SVG 1.1//EN"
  "http://www.w3.org/Graphics/SVG/1.1/DTD/svg11.dtd">
<svg xmlns:xlink="http://www.w3.org/1999/xlink" width="516.6pt" height="242.672727pt" viewBox="0 0 516.6 242.672727" xmlns="http://www.w3.org/2000/svg" version="1.1">
 <metadata>
  <rdf:RDF xmlns:dc="http://purl.org/dc/elements/1.1/" xmlns:cc="http://creativecommons.org/ns#" xmlns:rdf="http://www.w3.org/1999/02/22-rdf-syntax-ns#">
   <cc:Work>
    <dc:type rdf:resource="http://purl.org/dc/dcmitype/StillImage"/>
    <dc:format>image/svg+xml</dc:format>
    <dc:creator>
     <cc:Agent>
      <dc:title>Matplotlib v3.10.8, https://matplotlib.org/</dc:title>
     </cc:Agent>
    </dc:creator>
   </cc:Work>
  </rdf:RDF>
 </metadata>
 <defs>
  <style type="text/css">*{stroke-linejoin: round; stroke-linecap: butt}</style>
 </defs>
 <g id="figure_1">
  <g id="patch_1">
   <path d="M 0 242.672727 
L 516.6 242.672727 
L 516.6 -0 
L 0 -0 
z
" style="fill: #ffffff"/>
  </g>
  <g id="axes_1">
   <g id="QuadContourSet_1">
    <path clip-path="url(#p3e9c562cb5)" style="fill: none; stroke: #7f7f7f; stroke-width: 0.8"/>
    <path d="M 111.586021 159.968418 
L 110.583006 159.764185 
L 110.438922 159.733957 
L 109.291823 159.466568 
L 108.144724 159.17244 
L 106.997624 158.851573 
L 106.223815 158.617085 
L 105.850525 158.500432 
L 104.703426 158.114389 
L 103.556327 157.700772 
L 102.956284 157.469986 
L 102.409228 157.252793 
L 101.262129 156.768905 
L 100.263545 156.322887 
L 100.11503 156.254342 
L 98.967931 155.695498 
L 97.954495 155.175788 
L 97.820831 155.104879 
L 96.673732 154.465911 
L 95.924492 154.028689 
L 95.526633 153.788225 
L 94.379534 153.063409 
L 94.103775 152.88159 
L 93.232435 152.285802 
L 92.458394 151.734491 
L 92.085336 151.45856 
L 90.952817 150.587392 
L 90.938237 150.575727 
L 89.791138 149.622753 
L 89.579353 149.440292 
L 88.644038 148.600907 
L 88.31298 148.293193 
L 87.496939 147.501715 
L 87.142504 147.146094 
L 86.34984 146.314629 
L 86.058642 145.998995 
L 85.202741 145.027092 
L 85.053276 144.851896 
L 84.121258 143.704797 
L 84.055642 143.619787 
L 83.260684 142.557698 
L 82.908543 142.061089 
L 82.460852 141.410598 
L 81.761444 140.334585 
L 81.716558 140.263499 
L 81.034854 139.1164 
L 80.614344 138.36164 
L 80.401827 137.969301 
L 79.821905 136.822202 
L 79.467245 136.066714 
L 79.288374 135.675103 
L 78.804733 134.528004 
L 78.361394 133.380905 
L 78.320146 133.263506 
L 77.96788 132.233805 
L 77.614694 131.086706 
L 77.300751 129.939607 
L 77.173047 129.406336 
L 77.029821 128.792508 
L 76.800401 127.645409 
L 76.609217 126.49831 
L 76.456271 125.351211 
L 76.341561 124.204111 
L 76.265088 123.057012 
L 76.226851 121.909913 
L 76.226851 120.762814 
L 76.265088 119.615715 
L 76.341561 118.468616 
L 76.456271 117.321517 
L 76.609217 116.174418 
L 76.800401 115.027318 
L 77.029821 113.880219 
L 77.173047 113.266391 
L 77.300751 112.73312 
L 77.614694 111.586021 
L 77.96788 110.438922 
L 78.320146 109.409221 
L 78.361394 109.291823 
L 78.804733 108.144724 
L 79.288374 106.997624 
L 79.467245 106.606014 
L 79.821905 105.850525 
L 80.401827 104.703426 
L 80.614344 104.311087 
L 81.034854 103.556327 
L 81.716558 102.409228 
L 81.761444 102.338143 
L 82.460852 101.262129 
L 82.908543 100.611639 
L 83.260684 100.11503 
L 84.055642 99.05294 
L 84.121258 98.967931 
L 85.053276 97.820831 
L 85.202741 97.645635 
L 86.058642 96.673732 
L 86.34984 96.358098 
L 87.142504 95.526633 
L 87.496939 95.171012 
L 88.31298 94.379534 
L 88.644038 94.07182 
L 89.579353 93.232435 
L 89.791138 93.049974 
L 90.938237 92.097 
L 90.952817 92.085336 
L 92.085336 91.214167 
L 92.458394 90.938237 
L 93.232435 90.386925 
L 94.103775 89.791138 
L 94.379534 89.609318 
L 95.526633 88.884503 
L 95.924492 88.644038 
L 96.673732 88.206816 
L 97.820831 87.567848 
L 97.954495 87.496939 
L 98.967931 86.977229 
L 100.11503 86.418386 
L 100.263545 86.34984 
L 101.262129 85.903823 
L 102.409228 85.419935 
L 102.956284 85.202741 
L 103.556327 84.971955 
L 104.703426 84.558338 
L 105.850525 84.172295 
L 106.223815 84.055642 
L 106.997624 83.821154 
L 108.144724 83.500287 
L 109.291823 83.206159 
L 110.438922 82.93877 
L 110.583006 82.908543 
L 111.586021 82.704309 
L 112.73312 82.496689 
L 113.880219 82.315022 
L 115.027318 82.159307 
L 116.174418 82.029545 
L 117.321517 81.925735 
L 118.468616 81.847877 
L 119.615715 81.795973 
L 120.762814 81.77002 
L 121.909913 81.77002 
L 123.057012 81.795973 
L 124.204111 81.847877 
L 125.351211 81.925735 
L 126.49831 82.029545 
L 127.645409 82.159307 
L 128.792508 82.315022 
L 129.939607 82.496689 
L 131.086706 82.704309 
L 132.089721 82.908543 
L 132.233805 82.93877 
L 133.380905 83.206159 
L 134.528004 83.500287 
L 135.675103 83.821154 
L 136.448912 84.055642 
L 136.822202 84.172295 
L 137.969301 84.558338 
L 139.1164 84.971955 
L 139.716443 85.202741 
L 140.263499 85.419935 
L 141.410598 85.903823 
L 142.409182 86.34984 
L 142.557698 86.418386 
L 143.704797 86.977229 
L 144.718232 87.496939 
L 144.851896 87.567848 
L 145.998995 88.206816 
L 146.748235 88.644038 
L 147.146094 88.884503 
L 148.293193 89.609318 
L 148.568953 89.791138 
L 149.440292 90.386925 
L 150.214333 90.938237 
L 150.587392 91.214167 
L 151.719911 92.085336 
L 151.734491 92.097 
L 152.88159 93.049974 
L 153.093374 93.232435 
L 154.028689 94.07182 
L 154.359747 94.379534 
L 155.175788 95.171012 
L 155.530224 95.526633 
L 156.322887 96.358098 
L 156.614085 96.673732 
L 157.469986 97.645635 
L 157.619451 97.820831 
L 158.551469 98.967931 
L 158.617085 99.05294 
L 159.412044 100.11503 
L 159.764185 100.611639 
L 160.211875 101.262129 
L 160.911284 102.338143 
L 160.956169 102.409228 
L 161.637874 103.556327 
L 162.058383 104.311087 
L 162.2709 104.703426 
L 162.850822 105.850525 
L 163.205482 106.606014 
L 163.384353 106.997624 
L 163.867995 108.144724 
L 164.311333 109.291823 
L 164.352581 109.409221 
L 164.704847 110.438922 
L 165.058033 111.586021 
L 165.371976 112.73312 
L 165.49968 113.266391 
L 165.642907 113.880219 
L 165.872327 115.027318 
L 166.06351 116.174418 
L 166.216456 117.321517 
L 166.331166 118.468616 
L 166.40764 119.615715 
L 166.445876 120.762814 
L 166.445876 121.909913 
L 166.40764 123.057012 
L 166.331166 124.204111 
L 166.216456 125.351211 
L 166.06351 126.49831 
L 165.872327 127.645409 
L 165.642907 128.792508 
L 165.49968 129.406336 
L 165.371976 129.939607 
L 165.058033 131.086706 
L 164.704847 132.233805 
L 164.352581 133.263506 
L 164.311333 133.380905 
L 163.867995 134.528004 
L 163.384353 135.675103 
L 163.205482 136.066714 
L 162.850822 136.822202 
L 162.2709 137.969301 
L 162.058383 138.36164 
L 161.637874 139.1164 
L 160.956169 140.263499 
L 160.911284 140.334585 
L 160.211875 141.410598 
L 159.764185 142.061089 
L 159.412044 142.557698 
L 158.617085 143.619787 
L 158.551469 143.704797 
L 157.619451 144.851896 
L 157.469986 145.027092 
L 156.614085 145.998995 
L 156.322887 146.314629 
L 155.530224 147.146094 
L 155.175788 147.501715 
L 154.359747 148.293193 
L 154.028689 148.600907 
L 153.093374 149.440292 
L 152.88159 149.622753 
L 151.734491 150.575727 
L 151.719911 150.587392 
L 150.587392 151.45856 
L 150.214333 151.734491 
L 149.440292 152.285802 
L 148.568953 152.88159 
L 148.293193 153.063409 
L 147.146094 153.788225 
L 146.748235 154.028689 
L 145.998995 154.465911 
L 144.851896 155.104879 
L 144.718232 155.175788 
L 143.704797 155.695498 
L 142.557698 156.254342 
L 142.409182 156.322887 
L 141.410598 156.768905 
L 140.263499 157.252793 
L 139.716443 157.469986 
L 139.1164 157.700772 
L 137.969301 158.114389 
L 136.822202 158.500432 
L 136.448912 158.617085 
L 135.675103 158.851573 
L 134.528004 159.17244 
L 133.380905 159.466568 
L 132.233805 159.733957 
L 132.089721 159.764185 
L 131.086706 159.968418 
L 129.939607 160.176038 
L 128.792508 160.357705 
L 127.645409 160.51342 
L 126.49831 160.643183 
L 125.351211 160.746992 
L 124.204111 160.82485 
L 123.057012 160.876755 
L 121.909913 160.902707 
L 120.762814 160.902707 
L 119.615715 160.876755 
L 118.468616 160.82485 
L 117.321517 160.746992 
L 116.174418 160.643183 
L 115.027318 160.51342 
L 113.880219 160.357705 
L 112.73312 160.176038 
L 111.586021 159.968418 
z
" clip-path="url(#p3e9c562cb5)" style="fill: none; stroke: #7f7f7f; stroke-width: 0.8"/>
    <path d="M 115.027318 177.021572 
L 111.586021 176.636589 
L 106.997624 175.864503 
L 103.556327 175.076861 
L 100.11503 174.10727 
L 96.673732 172.9436 
L 93.232435 171.572619 
L 89.791138 169.977286 
L 85.771607 167.793878 
L 82.908543 166.004824 
L 80.527466 164.352581 
L 77.173047 161.721225 
L 74.878849 159.6927 
L 72.584651 157.436586 
L 70.290452 154.905796 
L 67.768627 151.734491 
L 65.425194 148.293193 
L 63.407857 144.791301 
L 61.781479 141.410598 
L 60.418332 137.969301 
L 59.332967 134.528004 
L 58.510233 131.086706 
L 57.940855 127.645409 
L 57.616511 124.204111 
L 57.536624 120.762814 
L 57.696835 117.321517 
L 58.103534 113.880219 
L 58.819461 110.163039 
L 59.664351 106.997624 
L 60.840378 103.556327 
L 62.298398 100.11503 
L 64.065683 96.673732 
L 65.702056 93.944719 
L 67.768627 90.938237 
L 69.555632 88.644038 
L 71.540882 86.34984 
L 73.753389 84.055642 
L 76.228115 81.761444 
L 79.467245 79.113658 
L 82.908543 76.667903 
L 86.34984 74.542541 
L 90.01518 72.584651 
L 93.232435 71.100108 
L 96.673732 69.729127 
L 100.11503 68.565458 
L 103.556327 67.595866 
L 106.997624 66.808224 
L 111.586021 66.036138 
L 115.027318 65.651155 
L 119.615715 65.399046 
L 124.204111 65.435061 
L 128.792508 65.760393 
L 133.380905 66.385415 
L 136.822202 67.051417 
L 140.622917 67.996254 
L 144.34296 69.143353 
L 147.476586 70.290452 
L 150.587392 71.605275 
L 154.028689 73.283697 
L 157.469986 75.217981 
L 160.911284 77.444112 
L 164.352581 80.010731 
L 166.646779 81.939826 
L 168.940978 84.076969 
L 171.235176 86.463769 
L 173.529374 89.153723 
L 175.823572 92.22205 
L 177.947498 95.526633 
L 179.26487 97.881426 
L 180.891248 101.262129 
L 182.254395 104.703426 
L 183.33976 108.144724 
L 184.162494 111.586021 
L 184.731873 115.027318 
L 185.056216 118.468616 
L 185.136103 121.909913 
L 184.975892 125.351211 
L 184.569193 128.792508 
L 183.853266 132.509688 
L 183.008376 135.675103 
L 181.83235 139.1164 
L 180.37433 142.557698 
L 178.607044 145.998995 
L 176.970672 148.728009 
L 174.904101 151.734491 
L 173.117096 154.028689 
L 171.131845 156.322887 
L 168.919338 158.617085 
L 166.444612 160.911284 
L 163.205482 163.559069 
L 159.764185 166.004824 
L 156.322887 168.130186 
L 152.657547 170.088077 
L 149.440292 171.572619 
L 145.998995 172.9436 
L 142.557698 174.10727 
L 139.1164 175.076861 
L 135.675103 175.864503 
L 131.086706 176.636589 
L 127.645409 177.021572 
L 123.057012 177.273682 
L 118.468616 177.237666 
L 115.027318 177.021572 
L 115.027318 177.021572 
" clip-path="url(#p3e9c562cb5)" style="fill: none; stroke: #7f7f7f; stroke-width: 0.8"/>
    <path d="M 115.027318 189.648817 
L 110.438922 189.201165 
L 105.458578 188.441663 
L 101.262129 187.5712 
L 96.673732 186.368581 
L 92.402688 185.000365 
L 88.644038 183.585015 
L 84.055642 181.570449 
L 80.614344 179.82862 
L 77.173047 177.87617 
L 73.73175 175.686213 
L 70.290452 173.227081 
L 66.849155 170.461214 
L 63.887721 167.793878 
L 61.113659 165.007022 
L 58.484016 162.058383 
L 55.766897 158.617085 
L 53.383697 155.175788 
L 51.301569 151.734491 
L 49.491841 148.293193 
L 47.938444 144.851896 
L 46.621675 141.410598 
L 45.530776 137.969301 
L 44.655636 134.528004 
L 43.907172 130.566496 
L 43.526207 127.645409 
L 43.263049 124.204111 
L 43.19726 120.762814 
L 43.328839 117.321517 
L 43.657786 113.880219 
L 44.188236 110.438922 
L 45.054271 106.476095 
L 45.869692 103.556327 
L 47.03463 100.11503 
L 48.495569 96.521979 
L 50.066658 93.232435 
L 51.962034 89.791138 
L 54.231064 86.219373 
L 56.632115 82.908543 
L 59.471957 79.467245 
L 62.260758 76.476561 
L 65.121867 73.73175 
L 67.996254 71.251377 
L 71.437551 68.595055 
L 74.878849 66.229949 
L 78.320146 64.121113 
L 81.761444 62.238977 
L 86.34984 60.053407 
L 89.791138 58.633621 
L 94.379534 57.009257 
L 98.967931 55.669449 
L 103.556327 54.599481 
L 108.144724 53.785631 
L 112.73312 53.217316 
L 117.321517 52.891553 
L 121.909913 52.803314 
L 126.49831 52.950378 
L 131.086706 53.336961 
L 135.675103 53.965099 
L 140.263499 54.842897 
L 144.851896 55.979058 
L 149.440292 57.387421 
L 153.356144 58.819461 
L 157.469986 60.569518 
L 160.953353 62.260758 
L 165.094682 64.554957 
L 168.736279 66.849155 
L 171.980363 69.143353 
L 174.903052 71.437551 
L 178.117771 74.252924 
L 181.091043 77.173047 
L 183.853266 80.220125 
L 186.147465 83.048024 
L 188.530779 86.34984 
L 190.735861 89.834159 
L 192.606069 93.232435 
L 194.244973 96.673732 
L 195.638097 100.11503 
L 196.803035 103.556327 
L 197.750006 106.997624 
L 198.484492 110.438922 
L 199.014941 113.880219 
L 199.343889 117.321517 
L 199.475468 120.762814 
L 199.409678 124.204111 
L 199.14652 127.645409 
L 198.684806 131.086706 
L 198.017092 134.528004 
L 197.141951 137.969301 
L 196.051052 141.410598 
L 194.734283 144.851896 
L 193.030059 148.597748 
L 191.371158 151.734491 
L 189.289031 155.175788 
L 186.90583 158.617085 
L 184.188711 162.058383 
L 181.559068 165.007022 
L 178.785006 167.793878 
L 175.823572 170.461214 
L 172.382275 173.227081 
L 168.940978 175.686213 
L 165.49968 177.87617 
L 162.058383 179.82862 
L 158.617085 181.570449 
L 154.028689 183.585015 
L 150.270039 185.000365 
L 145.998995 186.368581 
L 141.410598 187.5712 
L 136.822202 188.513205 
L 132.233805 189.201165 
L 127.645409 189.648817 
L 123.057012 189.854707 
L 118.468616 189.825294 
L 115.027318 189.648817 
L 115.027318 189.648817 
" clip-path="url(#p3e9c562cb5)" style="fill: none; stroke: #7f7f7f; stroke-width: 0.8"/>
    <path d="M 111.586021 200.011643 
L 110.599436 199.912654 
L 110.438922 199.896312 
L 109.291823 199.76655 
L 108.144724 199.623811 
L 106.997624 199.468096 
L 105.850525 199.299405 
L 104.703426 199.117738 
L 103.556327 198.923095 
L 102.685921 198.765555 
L 102.409228 198.714727 
L 101.262129 198.490839 
L 100.11503 198.253781 
L 98.967931 198.003552 
L 97.820831 197.740154 
L 97.316074 197.618456 
L 96.673732 197.461239 
L 95.526633 197.167112 
L 94.379534 196.859614 
L 93.232435 196.538747 
L 93.001151 196.471357 
L 92.085336 196.200406 
L 90.938237 195.847452 
L 89.791138 195.480923 
L 89.318343 195.324258 
L 88.644038 195.097328 
L 87.496939 194.697498 
L 86.34984 194.28388 
L 86.063412 194.177159 
L 85.202741 193.851386 
L 84.055642 193.40319 
L 83.129598 193.030059 
L 82.908543 192.939553 
L 81.761444 192.455665 
L 80.614344 191.957545 
L 80.447358 191.88296 
L 79.467245 191.438016 
L 78.320146 190.9028 
L 77.971771 190.735861 
L 77.173047 190.346739 
L 76.025948 189.773189 
L 75.666314 189.588762 
L 74.878849 189.178089 
L 73.73175 188.564907 
L 73.506683 188.441663 
L 72.584651 187.928064 
L 71.473815 187.294564 
L 71.437551 187.27352 
L 70.290452 186.592382 
L 69.557822 186.147465 
L 69.143353 185.891268 
L 67.996254 185.166453 
L 67.738996 185.000365 
L 66.849155 184.415435 
L 66.011758 183.853266 
L 65.702056 183.641504 
L 64.554957 182.840823 
L 64.3659 182.706167 
L 63.407857 182.010926 
L 62.797407 181.559068 
L 62.260758 181.1542 
L 61.295858 180.411969 
L 61.113659 180.269068 
L 59.96656 179.352081 
L 59.859484 179.26487 
L 58.819461 178.40085 
L 58.484912 178.117771 
L 57.672362 177.416197 
L 57.165577 176.970672 
L 56.525263 176.39603 
L 55.898572 175.823572 
L 55.378164 175.338085 
L 54.68119 174.676473 
L 54.231064 174.239897 
L 53.510907 173.529374 
L 53.083965 173.098783 
L 52.38537 172.382275 
L 51.936866 171.911816 
L 51.302377 171.235176 
L 50.789767 170.675798 
L 50.25987 170.088077 
L 49.642668 169.387225 
L 49.25592 168.940978 
L 48.495569 168.042251 
L 48.288721 167.793878 
L 47.356703 166.646779 
L 47.34847 166.636386 
L 46.461839 165.49968 
L 46.20137 165.156958 
L 45.599306 164.352581 
L 45.054271 163.604716 
L 44.767657 163.205482 
L 43.9664 162.058383 
L 43.907172 161.971169 
L 43.197985 160.911284 
L 42.760073 160.237574 
L 42.45683 159.764185 
L 41.743633 158.617085 
L 41.612974 158.400367 
L 41.060062 157.469986 
L 40.465875 156.4379 
L 40.400593 156.322887 
L 39.770496 155.175788 
L 39.318776 154.325067 
L 39.163589 154.028689 
L 38.583666 152.88159 
L 38.171677 152.036482 
L 38.026472 151.734491 
L 37.49535 150.587392 
L 37.024577 149.529965 
L 36.985194 149.440292 
L 36.501553 148.293193 
L 36.038062 147.146094 
L 35.877478 146.730597 
L 35.598494 145.998995 
L 35.18095 144.851896 
L 34.783289 143.704797 
L 34.730379 143.544139 
L 34.409786 142.557698 
L 34.0566 141.410598 
L 33.723036 140.263499 
L 33.58328 139.752854 
L 33.411355 139.1164 
L 33.120856 137.969301 
L 32.849723 136.822202 
L 32.597957 135.675103 
L 32.436181 134.876591 
L 32.366463 134.528004 
L 32.156162 133.380905 
L 31.964979 132.233805 
L 31.792914 131.086706 
L 31.639967 129.939607 
L 31.506139 128.792508 
L 31.391429 127.645409 
L 31.295838 126.49831 
L 31.289082 126.396973 
L 31.220247 125.351211 
L 31.163618 124.204111 
L 31.125865 123.057012 
L 31.106989 121.909913 
L 31.106989 120.762814 
L 31.125865 119.615715 
L 31.163618 118.468616 
L 31.220247 117.321517 
L 31.289082 116.275754 
L 31.295838 116.174418 
L 31.391429 115.027318 
L 31.506139 113.880219 
L 31.639967 112.73312 
L 31.792914 111.586021 
L 31.964979 110.438922 
L 32.156162 109.291823 
L 32.366463 108.144724 
L 32.436181 107.796136 
L 32.597957 106.997624 
L 32.849723 105.850525 
L 33.120856 104.703426 
L 33.411355 103.556327 
L 33.58328 102.919873 
L 33.723036 102.409228 
L 34.0566 101.262129 
L 34.409786 100.11503 
L 34.730379 99.128588 
L 34.783289 98.967931 
L 35.18095 97.820831 
L 35.598494 96.673732 
L 35.877478 95.942131 
L 36.038062 95.526633 
L 36.501553 94.379534 
L 36.985194 93.232435 
L 37.024577 93.142763 
L 37.49535 92.085336 
L 38.026472 90.938237 
L 38.171677 90.636245 
L 38.583666 89.791138 
L 39.163589 88.644038 
L 39.318776 88.34766 
L 39.770496 87.496939 
L 40.400593 86.34984 
L 40.465875 86.234828 
L 41.060062 85.202741 
L 41.612974 84.27236 
L 41.743633 84.055642 
L 42.45683 82.908543 
L 42.760073 82.435153 
L 43.197985 81.761444 
L 43.907172 80.701559 
L 43.9664 80.614344 
L 44.767657 79.467245 
L 45.054271 79.068011 
L 45.599306 78.320146 
L 46.20137 77.515769 
L 46.461839 77.173047 
L 47.34847 76.036341 
L 47.356703 76.025948 
L 48.288721 74.878849 
L 48.495569 74.630477 
L 49.25592 73.73175 
L 49.642668 73.285502 
L 50.25987 72.584651 
L 50.789767 71.996929 
L 51.302377 71.437551 
L 51.936866 70.760911 
L 52.38537 70.290452 
L 53.083965 69.573944 
L 53.510907 69.143353 
L 54.231064 68.43283 
L 54.68119 67.996254 
L 55.378164 67.334642 
L 55.898572 66.849155 
L 56.525263 66.276697 
L 57.165577 65.702056 
L 57.672362 65.256531 
L 58.484912 64.554957 
L 58.819461 64.271877 
L 59.859484 63.407857 
L 59.96656 63.320646 
L 61.113659 62.403659 
L 61.295858 62.260758 
L 62.260758 61.518527 
L 62.797407 61.113659 
L 63.407857 60.661802 
L 64.3659 59.96656 
L 64.554957 59.831905 
L 65.702056 59.031223 
L 66.011758 58.819461 
L 66.849155 58.257292 
L 67.738996 57.672362 
L 67.996254 57.506275 
L 69.143353 56.781459 
L 69.557822 56.525263 
L 70.290452 56.080346 
L 71.437551 55.399207 
L 71.473815 55.378164 
L 72.584651 54.744663 
L 73.506683 54.231064 
L 73.73175 54.10782 
L 74.878849 53.494638 
L 75.666314 53.083965 
L 76.025948 52.899538 
L 77.173047 52.325988 
L 77.971771 51.936866 
L 78.320146 51.769927 
L 79.467245 51.234711 
L 80.447358 50.789767 
L 80.614344 50.715182 
L 81.761444 50.217062 
L 82.908543 49.733175 
L 83.129598 49.642668 
L 84.055642 49.269537 
L 85.202741 48.821342 
L 86.063412 48.495569 
L 86.34984 48.388847 
L 87.496939 47.975229 
L 88.644038 47.575399 
L 89.318343 47.34847 
L 89.791138 47.191804 
L 90.938237 46.825275 
L 92.085336 46.472322 
L 93.001151 46.20137 
L 93.232435 46.13398 
L 94.379534 45.813113 
L 95.526633 45.505616 
L 96.673732 45.211488 
L 97.316074 45.054271 
L 97.820831 44.932573 
L 98.967931 44.669175 
L 100.11503 44.418947 
L 101.262129 44.181888 
L 102.409228 43.958 
L 102.685921 43.907172 
L 103.556327 43.749633 
L 104.703426 43.554989 
L 105.850525 43.373322 
L 106.997624 43.204631 
L 108.144724 43.048916 
L 109.291823 42.906177 
L 110.438922 42.776415 
L 110.599436 42.760073 
L 111.586021 42.661085 
L 112.73312 42.558779 
L 113.880219 42.469262 
L 115.027318 42.392533 
L 116.174418 42.328592 
L 117.321517 42.277439 
L 118.468616 42.239075 
L 119.615715 42.213499 
L 120.762814 42.20071 
L 121.909913 42.20071 
L 123.057012 42.213499 
L 124.204111 42.239075 
L 125.351211 42.277439 
L 126.49831 42.328592 
L 127.645409 42.392533 
L 128.792508 42.469262 
L 129.939607 42.558779 
L 131.086706 42.661085 
L 132.073291 42.760073 
L 132.233805 42.776415 
L 133.380905 42.906177 
L 134.528004 43.048916 
L 135.675103 43.204631 
L 136.822202 43.373322 
L 137.969301 43.554989 
L 139.1164 43.749633 
L 139.986806 43.907172 
L 140.263499 43.958 
L 141.410598 44.181888 
L 142.557698 44.418947 
L 143.704797 44.669175 
L 144.851896 44.932573 
L 145.356654 45.054271 
L 145.998995 45.211488 
L 147.146094 45.505616 
L 148.293193 45.813113 
L 149.440292 46.13398 
L 149.671576 46.20137 
L 150.587392 46.472322 
L 151.734491 46.825275 
L 152.88159 47.191804 
L 153.354384 47.34847 
L 154.028689 47.575399 
L 155.175788 47.975229 
L 156.322887 48.388847 
L 156.609315 48.495569 
L 157.469986 48.821342 
L 158.617085 49.269537 
L 159.543129 49.642668 
L 159.764185 49.733175 
L 160.911284 50.217062 
L 162.058383 50.715182 
L 162.225369 50.789767 
L 163.205482 51.234711 
L 164.352581 51.769927 
L 164.700956 51.936866 
L 165.49968 52.325988 
L 166.646779 52.899538 
L 167.006413 53.083965 
L 167.793878 53.494638 
L 168.940978 54.10782 
L 169.166045 54.231064 
L 170.088077 54.744663 
L 171.198912 55.378164 
L 171.235176 55.399207 
L 172.382275 56.080346 
L 173.114905 56.525263 
L 173.529374 56.781459 
L 174.676473 57.506275 
L 174.933732 57.672362 
L 175.823572 58.257292 
L 176.66097 58.819461 
L 176.970672 59.031223 
L 178.117771 59.831905 
L 178.306827 59.96656 
L 179.26487 60.661802 
L 179.875321 61.113659 
L 180.411969 61.518527 
L 181.37687 62.260758 
L 181.559068 62.403659 
L 182.706167 63.320646 
L 182.813243 63.407857 
L 183.853266 64.271877 
L 184.187815 64.554957 
L 185.000365 65.256531 
L 185.50715 65.702056 
L 186.147465 66.276697 
L 186.774156 66.849155 
L 187.294564 67.334642 
L 187.991538 67.996254 
L 188.441663 68.43283 
L 189.16182 69.143353 
L 189.588762 69.573944 
L 190.287357 70.290452 
L 190.735861 70.760911 
L 191.37035 71.437551 
L 191.88296 71.996929 
L 192.412858 72.584651 
L 193.030059 73.285502 
L 193.416807 73.73175 
L 194.177159 74.630477 
L 194.384006 74.878849 
L 195.316024 76.025948 
L 195.324258 76.036341 
L 196.210888 77.173047 
L 196.471357 77.515769 
L 197.073421 78.320146 
L 197.618456 79.068011 
L 197.90507 79.467245 
L 198.706327 80.614344 
L 198.765555 80.701559 
L 199.474743 81.761444 
L 199.912654 82.435153 
L 200.215898 82.908543 
L 200.929094 84.055642 
L 201.059753 84.27236 
L 201.612665 85.202741 
L 202.206852 86.234828 
L 202.272134 86.34984 
L 202.902231 87.496939 
L 203.353952 88.34766 
L 203.509139 88.644038 
L 204.089061 89.791138 
L 204.501051 90.636245 
L 204.646255 90.938237 
L 205.177378 92.085336 
L 205.64815 93.142763 
L 205.687533 93.232435 
L 206.171175 94.379534 
L 206.634665 95.526633 
L 206.795249 95.942131 
L 207.074233 96.673732 
L 207.491777 97.820831 
L 207.889438 98.967931 
L 207.942348 99.128588 
L 208.262942 100.11503 
L 208.616127 101.262129 
L 208.949692 102.409228 
L 209.089447 102.919873 
L 209.261372 103.556327 
L 209.551872 104.703426 
L 209.823004 105.850525 
L 210.07477 106.997624 
L 210.236546 107.796136 
L 210.306264 108.144724 
L 210.516565 109.291823 
L 210.707749 110.438922 
L 210.879813 111.586021 
L 211.03276 112.73312 
L 211.166588 113.880219 
L 211.281298 115.027318 
L 211.37689 116.174418 
L 211.383646 116.275754 
L 211.452481 117.321517 
L 211.509109 118.468616 
L 211.546862 119.615715 
L 211.565738 120.762814 
L 211.565738 121.909913 
L 211.546862 123.057012 
L 211.509109 124.204111 
L 211.452481 125.351211 
L 211.383646 126.396973 
L 211.37689 126.49831 
L 211.281298 127.645409 
L 211.166588 128.792508 
L 211.03276 129.939607 
L 210.879813 131.086706 
L 210.707749 132.233805 
L 210.516565 133.380905 
L 210.306264 134.528004 
L 210.236546 134.876591 
L 210.07477 135.675103 
L 209.823004 136.822202 
L 209.551872 137.969301 
L 209.261372 139.1164 
L 209.089447 139.752854 
L 208.949692 140.263499 
L 208.616127 141.410598 
L 208.262942 142.557698 
L 207.942348 143.544139 
L 207.889438 143.704797 
L 207.491777 144.851896 
L 207.074233 145.998995 
L 206.795249 146.730597 
L 206.634665 147.146094 
L 206.171175 148.293193 
L 205.687533 149.440292 
L 205.64815 149.529965 
L 205.177378 150.587392 
L 204.646255 151.734491 
L 204.501051 152.036482 
L 204.089061 152.88159 
L 203.509139 154.028689 
L 203.353952 154.325067 
L 202.902231 155.175788 
L 202.272134 156.322887 
L 202.206852 156.4379 
L 201.612665 157.469986 
L 201.059753 158.400367 
L 200.929094 158.617085 
L 200.215898 159.764185 
L 199.912654 160.237574 
L 199.474743 160.911284 
L 198.765555 161.971169 
L 198.706327 162.058383 
L 197.90507 163.205482 
L 197.618456 163.604716 
L 197.073421 164.352581 
L 196.471357 165.156958 
L 196.210888 165.49968 
L 195.324258 166.636386 
L 195.316024 166.646779 
L 194.384006 167.793878 
L 194.177159 168.042251 
L 193.416807 168.940978 
L 193.030059 169.387225 
L 192.412858 170.088077 
L 191.88296 170.675798 
L 191.37035 171.235176 
L 190.735861 171.911816 
L 190.287357 172.382275 
L 189.588762 173.098783 
L 189.16182 173.529374 
L 188.441663 174.239897 
L 187.991538 174.676473 
L 187.294564 175.338085 
L 186.774156 175.823572 
L 186.147465 176.39603 
L 185.50715 176.970672 
L 185.000365 177.416197 
L 184.187815 178.117771 
L 183.853266 178.40085 
L 182.813243 179.26487 
L 182.706167 179.352081 
L 181.559068 180.269068 
L 181.37687 180.411969 
L 180.411969 181.1542 
L 179.875321 181.559068 
L 179.26487 182.010926 
L 178.306827 182.706167 
L 178.117771 182.840823 
L 176.970672 183.641504 
L 176.66097 183.853266 
L 175.823572 184.415435 
L 174.933732 185.000365 
L 174.676473 185.166453 
L 173.529374 185.891268 
L 173.114905 186.147465 
L 172.382275 186.592382 
L 171.235176 187.27352 
L 171.198912 187.294564 
L 170.088077 187.928064 
L 169.166045 188.441663 
L 168.940978 188.564907 
L 167.793878 189.178089 
L 167.006413 189.588762 
L 166.646779 189.773189 
L 165.49968 190.346739 
L 164.700956 190.735861 
L 164.352581 190.9028 
L 163.205482 191.438016 
L 162.225369 191.88296 
L 162.058383 191.957545 
L 160.911284 192.455665 
L 159.764185 192.939553 
L 159.543129 193.030059 
L 158.617085 193.40319 
L 157.469986 193.851386 
L 156.609315 194.177159 
L 156.322887 194.28388 
L 155.175788 194.697498 
L 154.028689 195.097328 
L 153.354384 195.324258 
L 152.88159 195.480923 
L 151.734491 195.847452 
L 150.587392 196.200406 
L 149.671576 196.471357 
L 149.440292 196.538747 
L 148.293193 196.859614 
L 147.146094 197.167112 
L 145.998995 197.461239 
L 145.356654 197.618456 
L 144.851896 197.740154 
L 143.704797 198.003552 
L 142.557698 198.253781 
L 141.410598 198.490839 
L 140.263499 198.714727 
L 139.986806 198.765555 
L 139.1164 198.923095 
L 137.969301 199.117738 
L 136.822202 199.299405 
L 135.675103 199.468096 
L 134.528004 199.623811 
L 133.380905 199.76655 
L 132.233805 199.896312 
L 132.073291 199.912654 
L 131.086706 200.011643 
L 129.939607 200.113948 
L 128.792508 200.203465 
L 127.645409 200.280194 
L 126.49831 200.344135 
L 125.351211 200.395288 
L 124.204111 200.433652 
L 123.057012 200.459229 
L 121.909913 200.472017 
L 120.762814 200.472017 
L 119.615715 200.459229 
L 118.468616 200.433652 
L 117.321517 200.395288 
L 116.174418 200.344135 
L 115.027318 200.280194 
L 113.880219 200.203465 
L 112.73312 200.113948 
L 111.586021 200.011643 
z
" clip-path="url(#p3e9c562cb5)" style="fill: none; stroke: #7f7f7f; stroke-width: 0.8"/>
    <path d="M 109.291823 209.183389 
L 108.436957 209.089447 
L 108.144724 209.056911 
L 106.997624 208.917587 
L 105.850525 208.766653 
L 104.703426 208.604109 
L 103.556327 208.429954 
L 102.409228 208.244189 
L 101.262129 208.046814 
L 100.688729 207.942348 
L 100.11503 207.836434 
L 98.967931 207.612897 
L 97.820831 207.377595 
L 96.673732 207.130527 
L 95.526633 206.871695 
L 95.20257 206.795249 
L 94.379534 206.598473 
L 93.232435 206.312295 
L 92.085336 206.014192 
L 90.938237 205.704165 
L 90.738656 205.64815 
L 89.791138 205.378571 
L 88.644038 205.040123 
L 87.496939 204.689587 
L 86.900537 204.501051 
L 86.34984 204.324545 
L 85.202741 203.94463 
L 84.055642 203.552459 
L 83.492602 203.353952 
L 82.908543 203.145133 
L 81.761444 202.722583 
L 80.614344 202.287605 
L 80.407304 202.206852 
L 79.467245 201.834961 
L 78.320146 201.368558 
L 77.58064 201.059753 
L 77.173047 200.887083 
L 76.025948 200.388344 
L 74.959213 199.912654 
L 74.878849 199.87629 
L 73.73175 199.344265 
L 72.584651 198.799263 
L 72.515354 198.765555 
L 71.437551 198.23346 
L 70.290452 197.653984 
L 70.221686 197.618456 
L 69.143353 197.052897 
L 68.058655 196.471357 
L 67.996254 196.437387 
L 66.849155 195.799356 
L 66.012784 195.324258 
L 65.702056 195.144991 
L 64.554957 194.469416 
L 64.06864 194.177159 
L 63.407857 193.77375 
L 62.260758 193.059439 
L 62.214485 193.030059 
L 61.113659 192.319849 
L 60.449258 191.88296 
L 59.96656 191.56035 
L 58.819461 190.779223 
L 58.756941 190.735861 
L 57.672362 189.971094 
L 57.139828 189.588762 
L 56.525263 189.140057 
L 55.585494 188.441663 
L 55.378164 188.284928 
L 54.231064 187.402544 
L 54.093069 187.294564 
L 53.083965 186.491094 
L 52.659583 186.147465 
L 51.936866 185.551819 
L 51.278739 185.000365 
L 50.789767 184.583201 
L 49.947988 183.853266 
L 49.642668 183.583611 
L 48.664945 182.706167 
L 48.495569 182.551295 
L 47.427375 181.559068 
L 47.34847 181.484365 
L 46.233178 180.411969 
L 46.20137 180.380785 
L 45.080383 179.26487 
L 45.054271 179.238357 
L 43.967135 178.117771 
L 43.907172 178.054701 
L 42.891692 176.970672 
L 42.760073 176.827241 
L 41.852408 175.823572 
L 41.612974 175.553181 
L 40.847733 174.676473 
L 40.465875 174.229482 
L 39.876207 173.529374 
L 39.318776 172.852834 
L 38.936447 172.382275 
L 38.171677 171.419627 
L 38.027147 171.235176 
L 37.148752 170.088077 
L 37.024577 169.922055 
L 36.300701 168.940978 
L 35.877478 168.353389 
L 35.479853 167.793878 
L 34.730379 166.712906 
L 34.685134 166.646779 
L 33.919898 165.49968 
L 33.58328 164.981806 
L 33.179596 164.352581 
L 32.463031 163.205482 
L 32.436181 163.161305 
L 31.774427 162.058383 
L 31.289082 161.226362 
L 31.107613 160.911284 
L 30.465818 159.764185 
L 30.141983 159.167844 
L 29.846638 158.617085 
L 29.250147 157.469986 
L 28.994884 156.96326 
L 28.676278 156.322887 
L 28.123971 155.175788 
L 27.847784 154.58239 
L 27.593217 154.028689 
L 27.084017 152.88159 
L 26.700685 151.986057 
L 26.5943 151.734491 
L 26.127168 150.587392 
L 25.678003 149.440292 
L 25.553586 149.109312 
L 25.250456 148.293193 
L 24.842144 147.146094 
L 24.451584 145.998995 
L 24.406487 145.860236 
L 24.082632 144.851896 
L 23.731754 143.704797 
L 23.398421 142.557698 
L 23.259388 142.052663 
L 23.084687 141.410598 
L 22.789909 140.263499 
L 22.512471 139.1164 
L 22.252373 137.969301 
L 22.112289 137.307365 
L 22.010795 136.822202 
L 21.787967 135.675103 
L 21.582281 134.528004 
L 21.393735 133.380905 
L 21.222329 132.233805 
L 21.068064 131.086706 
L 20.96519 130.226123 
L 20.931329 129.939607 
L 20.812708 128.792508 
L 20.711033 127.645409 
L 20.626304 126.49831 
L 20.558521 125.351211 
L 20.507684 124.204111 
L 20.473792 123.057012 
L 20.456847 121.909913 
L 20.456847 120.762814 
L 20.473792 119.615715 
L 20.507684 118.468616 
L 20.558521 117.321517 
L 20.626304 116.174418 
L 20.711033 115.027318 
L 20.812708 113.880219 
L 20.931329 112.73312 
L 20.96519 112.446604 
L 21.068064 111.586021 
L 21.222329 110.438922 
L 21.393735 109.291823 
L 21.582281 108.144724 
L 21.787967 106.997624 
L 22.010795 105.850525 
L 22.112289 105.365362 
L 22.252373 104.703426 
L 22.512471 103.556327 
L 22.789909 102.409228 
L 23.084687 101.262129 
L 23.259388 100.620064 
L 23.398421 100.11503 
L 23.731754 98.967931 
L 24.082632 97.820831 
L 24.406487 96.812491 
L 24.451584 96.673732 
L 24.842144 95.526633 
L 25.250456 94.379534 
L 25.553586 93.563415 
L 25.678003 93.232435 
L 26.127168 92.085336 
L 26.5943 90.938237 
L 26.700685 90.68667 
L 27.084017 89.791138 
L 27.593217 88.644038 
L 27.847784 88.090338 
L 28.123971 87.496939 
L 28.676278 86.34984 
L 28.994884 85.709467 
L 29.250147 85.202741 
L 29.846638 84.055642 
L 30.141983 83.504883 
L 30.465818 82.908543 
L 31.107613 81.761444 
L 31.289082 81.446366 
L 31.774427 80.614344 
L 32.436181 79.511422 
L 32.463031 79.467245 
L 33.179596 78.320146 
L 33.58328 77.690922 
L 33.919898 77.173047 
L 34.685134 76.025948 
L 34.730379 75.959821 
L 35.479853 74.878849 
L 35.877478 74.319339 
L 36.300701 73.73175 
L 37.024577 72.750672 
L 37.148752 72.584651 
L 38.027147 71.437551 
L 38.171677 71.2531 
L 38.936447 70.290452 
L 39.318776 69.819893 
L 39.876207 69.143353 
L 40.465875 68.443246 
L 40.847733 67.996254 
L 41.612974 67.119546 
L 41.852408 66.849155 
L 42.760073 65.845486 
L 42.891692 65.702056 
L 43.907172 64.618026 
L 43.967135 64.554957 
L 45.054271 63.43437 
L 45.080383 63.407857 
L 46.20137 62.291942 
L 46.233178 62.260758 
L 47.34847 61.188362 
L 47.427375 61.113659 
L 48.495569 60.121433 
L 48.664945 59.96656 
L 49.642668 59.089117 
L 49.947988 58.819461 
L 50.789767 58.089526 
L 51.278739 57.672362 
L 51.936866 57.120909 
L 52.659583 56.525263 
L 53.083965 56.181634 
L 54.093069 55.378164 
L 54.231064 55.270183 
L 55.378164 54.387799 
L 55.585494 54.231064 
L 56.525263 53.53267 
L 57.139828 53.083965 
L 57.672362 52.701633 
L 58.756941 51.936866 
L 58.819461 51.893504 
L 59.96656 51.112377 
L 60.449258 50.789767 
L 61.113659 50.352878 
L 62.214485 49.642668 
L 62.260758 49.613288 
L 63.407857 48.898977 
L 64.06864 48.495569 
L 64.554957 48.203311 
L 65.702056 47.527736 
L 66.012784 47.34847 
L 66.849155 46.873372 
L 67.996254 46.23534 
L 68.058655 46.20137 
L 69.143353 45.619831 
L 70.221686 45.054271 
L 70.290452 45.018743 
L 71.437551 44.439267 
L 72.515354 43.907172 
L 72.584651 43.873464 
L 73.73175 43.328463 
L 74.878849 42.796437 
L 74.959213 42.760073 
L 76.025948 42.284383 
L 77.173047 41.785644 
L 77.58064 41.612974 
L 78.320146 41.304169 
L 79.467245 40.837766 
L 80.407304 40.465875 
L 80.614344 40.385122 
L 81.761444 39.950144 
L 82.908543 39.527594 
L 83.492602 39.318776 
L 84.055642 39.120268 
L 85.202741 38.728097 
L 86.34984 38.348182 
L 86.900537 38.171677 
L 87.496939 37.983141 
L 88.644038 37.632605 
L 89.791138 37.294156 
L 90.738656 37.024577 
L 90.938237 36.968562 
L 92.085336 36.658535 
L 93.232435 36.360433 
L 94.379534 36.074254 
L 95.20257 35.877478 
L 95.526633 35.801033 
L 96.673732 35.5422 
L 97.820831 35.295132 
L 98.967931 35.05983 
L 100.11503 34.836293 
L 100.688729 34.730379 
L 101.262129 34.625914 
L 102.409228 34.428538 
L 103.556327 34.242773 
L 104.703426 34.068618 
L 105.850525 33.906074 
L 106.997624 33.75514 
L 108.144724 33.615816 
L 108.436957 33.58328 
L 109.291823 33.489339 
L 110.438922 33.374743 
L 111.586021 33.271608 
L 112.73312 33.179931 
L 113.880219 33.099715 
L 115.027318 33.030957 
L 116.174418 32.97366 
L 117.321517 32.927822 
L 118.468616 32.893443 
L 119.615715 32.870524 
L 120.762814 32.859064 
L 121.909913 32.859064 
L 123.057012 32.870524 
L 124.204111 32.893443 
L 125.351211 32.927822 
L 126.49831 32.97366 
L 127.645409 33.030957 
L 128.792508 33.099715 
L 129.939607 33.179931 
L 131.086706 33.271608 
L 132.233805 33.374743 
L 133.380905 33.489339 
L 134.23577 33.58328 
L 134.528004 33.615816 
L 135.675103 33.75514 
L 136.822202 33.906074 
L 137.969301 34.068618 
L 139.1164 34.242773 
L 140.263499 34.428538 
L 141.410598 34.625914 
L 141.983999 34.730379 
L 142.557698 34.836293 
L 143.704797 35.05983 
L 144.851896 35.295132 
L 145.998995 35.5422 
L 147.146094 35.801033 
L 147.470157 35.877478 
L 148.293193 36.074254 
L 149.440292 36.360433 
L 150.587392 36.658535 
L 151.734491 36.968562 
L 151.934071 37.024577 
L 152.88159 37.294156 
L 154.028689 37.632605 
L 155.175788 37.983141 
L 155.77219 38.171677 
L 156.322887 38.348182 
L 157.469986 38.728097 
L 158.617085 39.120268 
L 159.180125 39.318776 
L 159.764185 39.527594 
L 160.911284 39.950144 
L 162.058383 40.385122 
L 162.265423 40.465875 
L 163.205482 40.837766 
L 164.352581 41.304169 
L 165.092087 41.612974 
L 165.49968 41.785644 
L 166.646779 42.284383 
L 167.713514 42.760073 
L 167.793878 42.796437 
L 168.940978 43.328463 
L 170.088077 43.873464 
L 170.157374 43.907172 
L 171.235176 44.439267 
L 172.382275 45.018743 
L 172.451041 45.054271 
L 173.529374 45.619831 
L 174.614072 46.20137 
L 174.676473 46.23534 
L 175.823572 46.873372 
L 176.659943 47.34847 
L 176.970672 47.527736 
L 178.117771 48.203311 
L 178.604087 48.495569 
L 179.26487 48.898977 
L 180.411969 49.613288 
L 180.458242 49.642668 
L 181.559068 50.352878 
L 182.223469 50.789767 
L 182.706167 51.112377 
L 183.853266 51.893504 
L 183.915786 51.936866 
L 185.000365 52.701633 
L 185.532899 53.083965 
L 186.147465 53.53267 
L 187.087234 54.231064 
L 187.294564 54.387799 
L 188.441663 55.270183 
L 188.579658 55.378164 
L 189.588762 56.181634 
L 190.013144 56.525263 
L 190.735861 57.120909 
L 191.393989 57.672362 
L 191.88296 58.089526 
L 192.72474 58.819461 
L 193.030059 59.089117 
L 194.007782 59.96656 
L 194.177159 60.121433 
L 195.245353 61.113659 
L 195.324258 61.188362 
L 196.43955 62.260758 
L 196.471357 62.291942 
L 197.592345 63.407857 
L 197.618456 63.43437 
L 198.705592 64.554957 
L 198.765555 64.618026 
L 199.781036 65.702056 
L 199.912654 65.845486 
L 200.82032 66.849155 
L 201.059753 67.119546 
L 201.824994 67.996254 
L 202.206852 68.443246 
L 202.79652 69.143353 
L 203.353952 69.819893 
L 203.736281 70.290452 
L 204.501051 71.2531 
L 204.64558 71.437551 
L 205.523975 72.584651 
L 205.64815 72.750672 
L 206.372026 73.73175 
L 206.795249 74.319339 
L 207.192874 74.878849 
L 207.942348 75.959821 
L 207.987593 76.025948 
L 208.752829 77.173047 
L 209.089447 77.690922 
L 209.493132 78.320146 
L 210.209696 79.467245 
L 210.236546 79.511422 
L 210.8983 80.614344 
L 211.383646 81.446366 
L 211.565114 81.761444 
L 212.206909 82.908543 
L 212.530745 83.504883 
L 212.826089 84.055642 
L 213.422581 85.202741 
L 213.677844 85.709467 
L 213.996449 86.34984 
L 214.548756 87.496939 
L 214.824943 88.090338 
L 215.07951 88.644038 
L 215.58871 89.791138 
L 215.972042 90.68667 
L 216.078427 90.938237 
L 216.545559 92.085336 
L 216.994725 93.232435 
L 217.119141 93.563415 
L 217.422271 94.379534 
L 217.830584 95.526633 
L 218.221144 96.673732 
L 218.26624 96.812491 
L 218.590095 97.820831 
L 218.940973 98.967931 
L 219.274306 100.11503 
L 219.413339 100.620064 
L 219.588041 101.262129 
L 219.882819 102.409228 
L 220.160256 103.556327 
L 220.420354 104.703426 
L 220.560439 105.365362 
L 220.661933 105.850525 
L 220.88476 106.997624 
L 221.090447 108.144724 
L 221.278993 109.291823 
L 221.450398 110.438922 
L 221.604663 111.586021 
L 221.707538 112.446604 
L 221.741399 112.73312 
L 221.860019 113.880219 
L 221.961694 115.027318 
L 222.046423 116.174418 
L 222.114206 117.321517 
L 222.165043 118.468616 
L 222.198935 119.615715 
L 222.215881 120.762814 
L 222.215881 121.909913 
L 222.198935 123.057012 
L 222.165043 124.204111 
L 222.114206 125.351211 
L 222.046423 126.49831 
L 221.961694 127.645409 
L 221.860019 128.792508 
L 221.741399 129.939607 
L 221.707538 130.226123 
L 221.604663 131.086706 
L 221.450398 132.233805 
L 221.278993 133.380905 
L 221.090447 134.528004 
L 220.88476 135.675103 
L 220.661933 136.822202 
L 220.560439 137.307365 
L 220.420354 137.969301 
L 220.160256 139.1164 
L 219.882819 140.263499 
L 219.588041 141.410598 
L 219.413339 142.052663 
L 219.274306 142.557698 
L 218.940973 143.704797 
L 218.590095 144.851896 
L 218.26624 145.860236 
L 218.221144 145.998995 
L 217.830584 147.146094 
L 217.422271 148.293193 
L 217.119141 149.109312 
L 216.994725 149.440292 
L 216.545559 150.587392 
L 216.078427 151.734491 
L 215.972042 151.986057 
L 215.58871 152.88159 
L 215.07951 154.028689 
L 214.824943 154.58239 
L 214.548756 155.175788 
L 213.996449 156.322887 
L 213.677844 156.96326 
L 213.422581 157.469986 
L 212.826089 158.617085 
L 212.530745 159.167844 
L 212.206909 159.764185 
L 211.565114 160.911284 
L 211.383646 161.226362 
L 210.8983 162.058383 
L 210.236546 163.161305 
L 210.209696 163.205482 
L 209.493132 164.352581 
L 209.089447 164.981806 
L 208.752829 165.49968 
L 207.987593 166.646779 
L 207.942348 166.712906 
L 207.192874 167.793878 
L 206.795249 168.353389 
L 206.372026 168.940978 
L 205.64815 169.922055 
L 205.523975 170.088077 
L 204.64558 171.235176 
L 204.501051 171.419627 
L 203.736281 172.382275 
L 203.353952 172.852834 
L 202.79652 173.529374 
L 202.206852 174.229482 
L 201.824994 174.676473 
L 201.059753 175.553181 
L 200.82032 175.823572 
L 199.912654 176.827241 
L 199.781036 176.970672 
L 198.765555 178.054701 
L 198.705592 178.117771 
L 197.618456 179.238357 
L 197.592345 179.26487 
L 196.471357 180.380785 
L 196.43955 180.411969 
L 195.324258 181.484365 
L 195.245353 181.559068 
L 194.177159 182.551295 
L 194.007782 182.706167 
L 193.030059 183.583611 
L 192.72474 183.853266 
L 191.88296 184.583201 
L 191.393989 185.000365 
L 190.735861 185.551819 
L 190.013144 186.147465 
L 189.588762 186.491094 
L 188.579658 187.294564 
L 188.441663 187.402544 
L 187.294564 188.284928 
L 187.087234 188.441663 
L 186.147465 189.140057 
L 185.532899 189.588762 
L 185.000365 189.971094 
L 183.915786 190.735861 
L 183.853266 190.779223 
L 182.706167 191.56035 
L 182.223469 191.88296 
L 181.559068 192.319849 
L 180.458242 193.030059 
L 180.411969 193.059439 
L 179.26487 193.77375 
L 178.604087 194.177159 
L 178.117771 194.469416 
L 176.970672 195.144991 
L 176.659943 195.324258 
L 175.823572 195.799356 
L 174.676473 196.437387 
L 174.614072 196.471357 
L 173.529374 197.052897 
L 172.451041 197.618456 
L 172.382275 197.653984 
L 171.235176 198.23346 
L 170.157374 198.765555 
L 170.088077 198.799263 
L 168.940978 199.344265 
L 167.793878 199.87629 
L 167.713514 199.912654 
L 166.646779 200.388344 
L 165.49968 200.887083 
L 165.092087 201.059753 
L 164.352581 201.368558 
L 163.205482 201.834961 
L 162.265423 202.206852 
L 162.058383 202.287605 
L 160.911284 202.722583 
L 159.764185 203.145133 
L 159.180125 203.353952 
L 158.617085 203.552459 
L 157.469986 203.94463 
L 156.322887 204.324545 
L 155.77219 204.501051 
L 155.175788 204.689587 
L 154.028689 205.040123 
L 152.88159 205.378571 
L 151.934071 205.64815 
L 151.734491 205.704165 
L 150.587392 206.014192 
L 149.440292 206.312295 
L 148.293193 206.598473 
L 147.470157 206.795249 
L 147.146094 206.871695 
L 145.998995 207.130527 
L 144.851896 207.377595 
L 143.704797 207.612897 
L 142.557698 207.836434 
L 141.983999 207.942348 
L 141.410598 208.046814 
L 140.263499 208.244189 
L 139.1164 208.429954 
L 137.969301 208.604109 
L 136.822202 208.766653 
L 135.675103 208.917587 
L 134.528004 209.056911 
L 134.23577 209.089447 
L 133.380905 209.183389 
L 132.233805 209.297984 
L 131.086706 209.40112 
L 129.939607 209.492796 
L 128.792508 209.573013 
L 127.645409 209.64177 
L 126.49831 209.699067 
L 125.351211 209.744906 
L 124.204111 209.779284 
L 123.057012 209.802203 
L 121.909913 209.813663 
L 120.762814 209.813663 
L 119.615715 209.802203 
L 118.468616 209.779284 
L 117.321517 209.744906 
L 116.174418 209.699067 
L 115.027318 209.64177 
L 113.880219 209.573013 
L 112.73312 209.492796 
L 111.586021 209.40112 
L 110.438922 209.297984 
L 109.291823 209.183389 
z
" clip-path="url(#p3e9c562cb5)" style="fill: none; stroke: #7f7f7f; stroke-width: 0.8"/>
    <path d="M 104.703426 217.157532 
L 104.42394 217.119141 
L 103.556327 216.998528 
L 102.409228 216.82843 
L 101.262129 216.6477 
L 100.11503 216.45634 
L 98.967931 216.254348 
L 97.820831 216.041726 
L 97.46279 215.972042 
L 96.673732 215.816599 
L 95.526633 215.579862 
L 94.379534 215.332364 
L 93.232435 215.074105 
L 92.170006 214.824943 
L 92.085336 214.804841 
L 90.938237 214.521606 
L 89.791138 214.227478 
L 88.644038 213.922457 
L 87.75584 213.677844 
L 87.496939 213.60565 
L 86.34984 213.274756 
L 85.202741 212.932833 
L 84.055642 212.579879 
L 83.900794 212.530745 
L 82.908543 212.21191 
L 81.761444 211.83215 
L 80.614344 211.44122 
L 80.450096 211.383646 
L 79.467245 211.034704 
L 78.320146 210.616138 
L 77.307237 210.236546 
L 77.173047 210.185605 
L 76.025948 209.738683 
L 74.878849 209.280302 
L 74.412883 209.089447 
L 73.73175 208.80679 
L 72.584651 208.319157 
L 71.718866 207.942348 
L 71.437551 207.818281 
L 70.290452 207.300616 
L 69.19549 206.795249 
L 69.143353 206.77086 
L 67.996254 206.222352 
L 66.849155 205.661918 
L 66.82156 205.64815 
L 65.702056 205.081909 
L 64.577087 204.501051 
L 64.554957 204.489466 
L 63.407857 203.876699 
L 62.448462 203.353952 
L 62.260758 203.250237 
L 61.113659 202.603983 
L 60.422052 202.206852 
L 59.96656 201.941566 
L 58.819461 201.26087 
L 58.486704 201.059753 
L 57.672362 200.560435 
L 56.634756 199.912654 
L 56.525263 199.843292 
L 55.378164 199.103647 
L 54.862865 198.765555 
L 54.231064 198.344838 
L 53.158727 197.618456 
L 53.083965 197.567046 
L 51.936866 196.764879 
L 51.52401 196.471357 
L 50.789767 195.941311 
L 49.948783 195.324258 
L 49.642668 195.096143 
L 48.495569 194.227547 
L 48.430064 194.177159 
L 47.34847 193.331956 
L 46.968079 193.030059 
L 46.20137 192.411746 
L 45.555611 191.88296 
L 45.054271 191.465704 
L 44.190443 190.735861 
L 43.907172 190.492539 
L 42.870487 189.588762 
L 42.760073 189.490873 
L 41.612974 188.458932 
L 41.594052 188.441663 
L 40.465875 187.394284 
L 40.359975 187.294564 
L 39.318776 186.296923 
L 39.164958 186.147465 
L 38.171677 185.165098 
L 38.007395 185.000365 
L 37.024577 183.996929 
L 36.885768 183.853266 
L 35.877478 182.790397 
L 35.798639 182.706167 
L 34.744837 181.559068 
L 34.730379 181.543027 
L 33.724333 180.411969 
L 33.58328 180.25028 
L 32.734804 179.26487 
L 32.436181 178.911117 
L 31.775059 178.117771 
L 31.289082 177.522696 
L 30.843968 176.970672 
L 30.141983 176.08194 
L 29.940456 175.823572 
L 29.064359 174.676473 
L 28.994884 174.583529 
L 28.216631 173.529374 
L 27.847784 173.018664 
L 27.393775 172.382275 
L 26.700685 171.388684 
L 26.594894 171.235176 
L 25.822329 170.088077 
L 25.553586 169.679547 
L 25.073516 168.940978 
L 24.406487 167.88975 
L 24.34637 167.793878 
L 23.644615 166.646779 
L 23.259388 166.000935 
L 22.963881 165.49968 
L 22.304966 164.352581 
L 22.112289 164.008086 
L 21.66855 163.205482 
L 21.05149 162.058383 
L 20.96519 161.893369 
L 20.457407 160.911284 
L 19.88125 159.764185 
L 19.81809 159.634626 
L 19.327613 158.617085 
L 18.791441 157.469986 
L 18.670991 157.203981 
L 18.276457 156.322887 
L 17.779381 155.175788 
L 17.523892 154.565869 
L 17.301346 154.028689 
L 16.842507 152.88159 
L 16.400054 151.734491 
L 16.376793 151.671865 
L 15.978367 150.587392 
L 15.573142 149.440292 
L 15.229694 148.427561 
L 15.184616 148.293193 
L 14.815817 147.146094 
L 14.463053 145.998995 
L 14.126324 144.851896 
L 14.082595 144.69548 
L 13.808576 143.704797 
L 13.507158 142.557698 
L 13.221603 141.410598 
L 12.951913 140.263499 
L 12.935496 140.189307 
L 12.700586 139.1164 
L 12.465128 137.969301 
L 12.245368 136.822202 
L 12.041305 135.675103 
L 11.85294 134.528004 
L 11.788397 134.09922 
L 11.681397 133.380905 
L 11.526061 132.233805 
L 11.386258 131.086706 
L 11.261989 129.939607 
L 11.153254 128.792508 
L 11.060052 127.645409 
L 10.982384 126.49831 
L 10.920249 125.351211 
L 10.873648 124.204111 
L 10.842581 123.057012 
L 10.827048 121.909913 
L 10.827048 120.762814 
L 10.842581 119.615715 
L 10.873648 118.468616 
L 10.920249 117.321517 
L 10.982384 116.174418 
L 11.060052 115.027318 
L 11.153254 113.880219 
L 11.261989 112.73312 
L 11.386258 111.586021 
L 11.526061 110.438922 
L 11.681397 109.291823 
L 11.788397 108.573507 
L 11.85294 108.144724 
L 12.041305 106.997624 
L 12.245368 105.850525 
L 12.465128 104.703426 
L 12.700586 103.556327 
L 12.935496 102.483421 
L 12.951913 102.409228 
L 13.221603 101.262129 
L 13.507158 100.11503 
L 13.808576 98.967931 
L 14.082595 97.977248 
L 14.126324 97.820831 
L 14.463053 96.673732 
L 14.815817 95.526633 
L 15.184616 94.379534 
L 15.229694 94.245166 
L 15.573142 93.232435 
L 15.978367 92.085336 
L 16.376793 91.000863 
L 16.400054 90.938237 
L 16.842507 89.791138 
L 17.301346 88.644038 
L 17.523892 88.106859 
L 17.779381 87.496939 
L 18.276457 86.34984 
L 18.670991 85.468746 
L 18.791441 85.202741 
L 19.327613 84.055642 
L 19.81809 83.038101 
L 19.88125 82.908543 
L 20.457407 81.761444 
L 20.96519 80.779358 
L 21.05149 80.614344 
L 21.66855 79.467245 
L 22.112289 78.664641 
L 22.304966 78.320146 
L 22.963881 77.173047 
L 23.259388 76.671792 
L 23.644615 76.025948 
L 24.34637 74.878849 
L 24.406487 74.782977 
L 25.073516 73.73175 
L 25.553586 72.99318 
L 25.822329 72.584651 
L 26.594894 71.437551 
L 26.700685 71.284043 
L 27.393775 70.290452 
L 27.847784 69.654063 
L 28.216631 69.143353 
L 28.994884 68.089198 
L 29.064359 67.996254 
L 29.940456 66.849155 
L 30.141983 66.590788 
L 30.843968 65.702056 
L 31.289082 65.150031 
L 31.775059 64.554957 
L 32.436181 63.761611 
L 32.734804 63.407857 
L 33.58328 62.422448 
L 33.724333 62.260758 
L 34.730379 61.1297 
L 34.744837 61.113659 
L 35.798639 59.96656 
L 35.877478 59.88233 
L 36.885768 58.819461 
L 37.024577 58.675798 
L 38.007395 57.672362 
L 38.171677 57.507629 
L 39.164958 56.525263 
L 39.318776 56.375804 
L 40.359975 55.378164 
L 40.465875 55.278444 
L 41.594052 54.231064 
L 41.612974 54.213795 
L 42.760073 53.181855 
L 42.870487 53.083965 
L 43.907172 52.180188 
L 44.190443 51.936866 
L 45.054271 51.207023 
L 45.555611 50.789767 
L 46.20137 50.260982 
L 46.968079 49.642668 
L 47.34847 49.340771 
L 48.430064 48.495569 
L 48.495569 48.445181 
L 49.642668 47.576584 
L 49.948783 47.34847 
L 50.789767 46.731416 
L 51.52401 46.20137 
L 51.936866 45.907848 
L 53.083965 45.105681 
L 53.158727 45.054271 
L 54.231064 44.327889 
L 54.862865 43.907172 
L 55.378164 43.56908 
L 56.525263 42.829435 
L 56.634756 42.760073 
L 57.672362 42.112292 
L 58.486704 41.612974 
L 58.819461 41.411857 
L 59.96656 40.731161 
L 60.422052 40.465875 
L 61.113659 40.068744 
L 62.260758 39.422491 
L 62.448462 39.318776 
L 63.407857 38.796028 
L 64.554957 38.183262 
L 64.577087 38.171677 
L 65.702056 37.590818 
L 66.82156 37.024577 
L 66.849155 37.010809 
L 67.996254 36.450376 
L 69.143353 35.901867 
L 69.19549 35.877478 
L 70.290452 35.372111 
L 71.437551 34.854446 
L 71.718866 34.730379 
L 72.584651 34.35357 
L 73.73175 33.865937 
L 74.412883 33.58328 
L 74.878849 33.392425 
L 76.025948 32.934044 
L 77.173047 32.487122 
L 77.307237 32.436181 
L 78.320146 32.05659 
L 79.467245 31.638023 
L 80.450096 31.289082 
L 80.614344 31.231507 
L 81.761444 30.840577 
L 82.908543 30.460817 
L 83.900794 30.141983 
L 84.055642 30.092848 
L 85.202741 29.739895 
L 86.34984 29.397971 
L 87.496939 29.067077 
L 87.75584 28.994884 
L 88.644038 28.75027 
L 89.791138 28.445249 
L 90.938237 28.151121 
L 92.085336 27.867887 
L 92.170006 27.847784 
L 93.232435 27.598622 
L 94.379534 27.340363 
L 95.526633 27.092865 
L 96.673732 26.856128 
L 97.46279 26.700685 
L 97.820831 26.631001 
L 98.967931 26.418379 
L 100.11503 26.216387 
L 101.262129 26.025027 
L 102.409228 25.844298 
L 103.556327 25.6742 
L 104.42394 25.553586 
L 104.703426 25.515195 
L 105.850525 25.368131 
L 106.997624 25.231572 
L 108.144724 25.105517 
L 109.291823 24.989967 
L 110.438922 24.884921 
L 111.586021 24.79038 
L 112.73312 24.706343 
L 113.880219 24.632811 
L 115.027318 24.569784 
L 116.174418 24.517261 
L 117.321517 24.475243 
L 118.468616 24.443729 
L 119.615715 24.42272 
L 120.762814 24.412215 
L 121.909913 24.412215 
L 123.057012 24.42272 
L 124.204111 24.443729 
L 125.351211 24.475243 
L 126.49831 24.517261 
L 127.645409 24.569784 
L 128.792508 24.632811 
L 129.939607 24.706343 
L 131.086706 24.79038 
L 132.233805 24.884921 
L 133.380905 24.989967 
L 134.528004 25.105517 
L 135.675103 25.231572 
L 136.822202 25.368131 
L 137.969301 25.515195 
L 138.248787 25.553586 
L 139.1164 25.6742 
L 140.263499 25.844298 
L 141.410598 26.025027 
L 142.557698 26.216387 
L 143.704797 26.418379 
L 144.851896 26.631001 
L 145.209938 26.700685 
L 145.998995 26.856128 
L 147.146094 27.092865 
L 148.293193 27.340363 
L 149.440292 27.598622 
L 150.502721 27.847784 
L 150.587392 27.867887 
L 151.734491 28.151121 
L 152.88159 28.445249 
L 154.028689 28.75027 
L 154.916887 28.994884 
L 155.175788 29.067077 
L 156.322887 29.397971 
L 157.469986 29.739895 
L 158.617085 30.092848 
L 158.771933 30.141983 
L 159.764185 30.460817 
L 160.911284 30.840577 
L 162.058383 31.231507 
L 162.222631 31.289082 
L 163.205482 31.638023 
L 164.352581 32.05659 
L 165.36549 32.436181 
L 165.49968 32.487122 
L 166.646779 32.934044 
L 167.793878 33.392425 
L 168.259844 33.58328 
L 168.940978 33.865937 
L 170.088077 34.35357 
L 170.953861 34.730379 
L 171.235176 34.854446 
L 172.382275 35.372111 
L 173.477237 35.877478 
L 173.529374 35.901867 
L 174.676473 36.450376 
L 175.823572 37.010809 
L 175.851167 37.024577 
L 176.970672 37.590818 
L 178.095641 38.171677 
L 178.117771 38.183262 
L 179.26487 38.796028 
L 180.224265 39.318776 
L 180.411969 39.422491 
L 181.559068 40.068744 
L 182.250676 40.465875 
L 182.706167 40.731161 
L 183.853266 41.411857 
L 184.186023 41.612974 
L 185.000365 42.112292 
L 186.037972 42.760073 
L 186.147465 42.829435 
L 187.294564 43.56908 
L 187.809862 43.907172 
L 188.441663 44.327889 
L 189.514 45.054271 
L 189.588762 45.105681 
L 190.735861 45.907848 
L 191.148717 46.20137 
L 191.88296 46.731416 
L 192.723945 47.34847 
L 193.030059 47.576584 
L 194.177159 48.445181 
L 194.242663 48.495569 
L 195.324258 49.340771 
L 195.704648 49.642668 
L 196.471357 50.260982 
L 197.117116 50.789767 
L 197.618456 51.207023 
L 198.482285 51.936866 
L 198.765555 52.180188 
L 199.802241 53.083965 
L 199.912654 53.181855 
L 201.059753 54.213795 
L 201.078675 54.231064 
L 202.206852 55.278444 
L 202.312752 55.378164 
L 203.353952 56.375804 
L 203.507769 56.525263 
L 204.501051 57.507629 
L 204.665332 57.672362 
L 205.64815 58.675798 
L 205.786959 58.819461 
L 206.795249 59.88233 
L 206.874088 59.96656 
L 207.92789 61.113659 
L 207.942348 61.1297 
L 208.948395 62.260758 
L 209.089447 62.422448 
L 209.937924 63.407857 
L 210.236546 63.761611 
L 210.897668 64.554957 
L 211.383646 65.150031 
L 211.828759 65.702056 
L 212.530745 66.590788 
L 212.732271 66.849155 
L 213.608368 67.996254 
L 213.677844 68.089198 
L 214.456097 69.143353 
L 214.824943 69.654063 
L 215.278952 70.290452 
L 215.972042 71.284043 
L 216.077833 71.437551 
L 216.850398 72.584651 
L 217.119141 72.99318 
L 217.599212 73.73175 
L 218.26624 74.782977 
L 218.326358 74.878849 
L 219.028112 76.025948 
L 219.413339 76.671792 
L 219.708847 77.173047 
L 220.367762 78.320146 
L 220.560439 78.664641 
L 221.004177 79.467245 
L 221.621237 80.614344 
L 221.707538 80.779358 
L 222.215321 81.761444 
L 222.791477 82.908543 
L 222.854637 83.038101 
L 223.345114 84.055642 
L 223.881287 85.202741 
L 224.001736 85.468746 
L 224.39627 86.34984 
L 224.893347 87.496939 
L 225.148835 88.106859 
L 225.371381 88.644038 
L 225.830221 89.791138 
L 226.272673 90.938237 
L 226.295934 91.000863 
L 226.69436 92.085336 
L 227.099585 93.232435 
L 227.443033 94.245166 
L 227.488112 94.379534 
L 227.85691 95.526633 
L 228.209674 96.673732 
L 228.546403 97.820831 
L 228.590132 97.977248 
L 228.864151 98.967931 
L 229.16557 100.11503 
L 229.451124 101.262129 
L 229.720815 102.409228 
L 229.737232 102.483421 
L 229.972142 103.556327 
L 230.207599 104.703426 
L 230.427359 105.850525 
L 230.631422 106.997624 
L 230.819788 108.144724 
L 230.884331 108.573507 
L 230.99133 109.291823 
L 231.146666 110.438922 
L 231.286469 111.586021 
L 231.410738 112.73312 
L 231.519473 113.880219 
L 231.612675 115.027318 
L 231.690343 116.174418 
L 231.752478 117.321517 
L 231.799079 118.468616 
L 231.830146 119.615715 
L 231.84568 120.762814 
L 231.84568 121.909913 
L 231.830146 123.057012 
L 231.799079 124.204111 
L 231.752478 125.351211 
L 231.690343 126.49831 
L 231.612675 127.645409 
L 231.519473 128.792508 
L 231.410738 129.939607 
L 231.286469 131.086706 
L 231.146666 132.233805 
L 230.99133 133.380905 
L 230.884331 134.09922 
L 230.819788 134.528004 
L 230.631422 135.675103 
L 230.427359 136.822202 
L 230.207599 137.969301 
L 229.972142 139.1164 
L 229.737232 140.189307 
L 229.720815 140.263499 
L 229.451124 141.410598 
L 229.16557 142.557698 
L 228.864151 143.704797 
L 228.590132 144.69548 
L 228.546403 144.851896 
L 228.209674 145.998995 
L 227.85691 147.146094 
L 227.488112 148.293193 
L 227.443033 148.427561 
L 227.099585 149.440292 
L 226.69436 150.587392 
L 226.295934 151.671865 
L 226.272673 151.734491 
L 225.830221 152.88159 
L 225.371381 154.028689 
L 225.148835 154.565869 
L 224.893347 155.175788 
L 224.39627 156.322887 
L 224.001736 157.203981 
L 223.881287 157.469986 
L 223.345114 158.617085 
L 222.854637 159.634626 
L 222.791477 159.764185 
L 222.215321 160.911284 
L 221.707538 161.893369 
L 221.621237 162.058383 
L 221.004177 163.205482 
L 220.560439 164.008086 
L 220.367762 164.352581 
L 219.708847 165.49968 
L 219.413339 166.000935 
L 219.028112 166.646779 
L 218.326358 167.793878 
L 218.26624 167.88975 
L 217.599212 168.940978 
L 217.119141 169.679547 
L 216.850398 170.088077 
L 216.077833 171.235176 
L 215.972042 171.388684 
L 215.278952 172.382275 
L 214.824943 173.018664 
L 214.456097 173.529374 
L 213.677844 174.583529 
L 213.608368 174.676473 
L 212.732271 175.823572 
L 212.530745 176.08194 
L 211.828759 176.970672 
L 211.383646 177.522696 
L 210.897668 178.117771 
L 210.236546 178.911117 
L 209.937924 179.26487 
L 209.089447 180.25028 
L 208.948395 180.411969 
L 207.942348 181.543027 
L 207.92789 181.559068 
L 206.874088 182.706167 
L 206.795249 182.790397 
L 205.786959 183.853266 
L 205.64815 183.996929 
L 204.665332 185.000365 
L 204.501051 185.165098 
L 203.507769 186.147465 
L 203.353952 186.296923 
L 202.312752 187.294564 
L 202.206852 187.394284 
L 201.078675 188.441663 
L 201.059753 188.458932 
L 199.912654 189.490873 
L 199.802241 189.588762 
L 198.765555 190.492539 
L 198.482285 190.735861 
L 197.618456 191.465704 
L 197.117116 191.88296 
L 196.471357 192.411746 
L 195.704648 193.030059 
L 195.324258 193.331956 
L 194.242663 194.177159 
L 194.177159 194.227547 
L 193.030059 195.096143 
L 192.723945 195.324258 
L 191.88296 195.941311 
L 191.148717 196.471357 
L 190.735861 196.764879 
L 189.588762 197.567046 
L 189.514 197.618456 
L 188.441663 198.344838 
L 187.809862 198.765555 
L 187.294564 199.103647 
L 186.147465 199.843292 
L 186.037972 199.912654 
L 185.000365 200.560435 
L 184.186023 201.059753 
L 183.853266 201.26087 
L 182.706167 201.941566 
L 182.250676 202.206852 
L 181.559068 202.603983 
L 180.411969 203.250237 
L 180.224265 203.353952 
L 179.26487 203.876699 
L 178.117771 204.489466 
L 178.095641 204.501051 
L 176.970672 205.081909 
L 175.851167 205.64815 
L 175.823572 205.661918 
L 174.676473 206.222352 
L 173.529374 206.77086 
L 173.477237 206.795249 
L 172.382275 207.300616 
L 171.235176 207.818281 
L 170.953861 207.942348 
L 170.088077 208.319157 
L 168.940978 208.80679 
L 168.259844 209.089447 
L 167.793878 209.280302 
L 166.646779 209.738683 
L 165.49968 210.185605 
L 165.36549 210.236546 
L 164.352581 210.616138 
L 163.205482 211.034704 
L 162.222631 211.383646 
L 162.058383 211.44122 
L 160.911284 211.83215 
L 159.764185 212.21191 
L 158.771933 212.530745 
L 158.617085 212.579879 
L 157.469986 212.932833 
L 156.322887 213.274756 
L 155.175788 213.60565 
L 154.916887 213.677844 
L 154.028689 213.922457 
L 152.88159 214.227478 
L 151.734491 214.521606 
L 150.587392 214.804841 
L 150.502721 214.824943 
L 149.440292 215.074105 
L 148.293193 215.332364 
L 147.146094 215.579862 
L 145.998995 215.816599 
L 145.209938 215.972042 
L 144.851896 216.041726 
L 143.704797 216.254348 
L 142.557698 216.45634 
L 141.410598 216.6477 
L 140.263499 216.82843 
L 139.1164 216.998528 
L 138.248787 217.119141 
L 137.969301 217.157532 
L 136.822202 217.304596 
L 135.675103 217.441155 
L 134.528004 217.56721 
L 133.380905 217.682761 
L 132.233805 217.787806 
L 131.086706 217.882347 
L 129.939607 217.966384 
L 128.792508 218.039916 
L 127.645409 218.102943 
L 126.49831 218.155466 
L 125.351211 218.197485 
L 124.204111 218.228998 
L 123.057012 218.250007 
L 121.909913 218.260512 
L 120.762814 218.260512 
L 119.615715 218.250007 
L 118.468616 218.228998 
L 117.321517 218.197485 
L 116.174418 218.155466 
L 115.027318 218.102943 
L 113.880219 218.039916 
L 112.73312 217.966384 
L 111.586021 217.882347 
L 110.438922 217.787806 
L 109.291823 217.682761 
L 108.144724 217.56721 
L 106.997624 217.441155 
L 105.850525 217.304596 
L 104.703426 217.157532 
z
" clip-path="url(#p3e9c562cb5)" style="fill: none; stroke: #7f7f7f; stroke-width: 0.8"/>
    <path d="M 235.472727 151.983248 
L 233.838833 156.322887 
L 231.845166 160.911284 
L 229.561649 165.49968 
L 226.969378 170.088077 
L 224.809953 173.529374 
L 221.707538 177.99913 
L 218.974901 181.559068 
L 215.972042 185.140786 
L 212.530745 188.884526 
L 209.089447 192.304394 
L 205.64815 195.445235 
L 201.674463 198.765555 
L 197.618456 201.859089 
L 193.840525 204.501051 
L 189.588762 207.223637 
L 185.000365 209.892895 
L 180.411969 212.30637 
L 175.823572 214.483011 
L 171.235176 216.439936 
L 166.438293 218.26624 
L 160.911284 220.105002 
L 155.271828 221.707538 
L 150.50075 222.854637 
L 144.703445 224.001736 
L 139.1164 224.858744 
L 133.380905 225.492206 
L 127.645409 225.880067 
L 121.909913 226.025515 
L 116.174418 225.928549 
L 110.438922 225.589171 
L 104.703426 225.005808 
L 98.967931 224.172445 
L 93.232435 223.083776 
L 87.496939 221.732723 
L 82.908543 220.453852 
L 77.173047 218.597515 
L 72.584651 216.897075 
L 67.615229 214.824943 
L 62.712587 212.530745 
L 58.297808 210.236546 
L 54.231064 207.917779 
L 49.642668 205.039084 
L 45.533764 202.206852 
L 41.612974 199.252316 
L 38.171677 196.436221 
L 34.352867 193.030059 
L 30.825716 189.588762 
L 27.594419 186.147465 
L 24.406487 182.433323 
L 21.909084 179.26487 
L 19.411944 175.823572 
L 17.121629 172.382275 
L 14.367375 167.793878 
L 12.512739 164.352581 
L 10.302942 159.764185 
L 8.347099 155.097034 
L 7.2 151.983248 
M 7.2 90.689479 
L 8.833894 86.34984 
L 10.827561 81.761444 
L 13.111078 77.173047 
L 15.70335 72.584651 
L 17.862774 69.143353 
L 20.96519 64.673597 
L 23.697826 61.113659 
L 26.700685 57.531941 
L 30.141983 53.788202 
L 33.58328 50.368333 
L 37.024577 47.227492 
L 40.998265 43.907172 
L 45.054271 40.813638 
L 48.832202 38.171677 
L 53.083965 35.44909 
L 57.672362 32.779833 
L 62.260758 30.366357 
L 66.849155 28.189717 
L 71.437551 26.232791 
L 76.234434 24.406487 
L 81.761444 22.567725 
L 87.4009 20.96519 
L 92.171978 19.81809 
L 97.969282 18.670991 
L 103.556327 17.813984 
L 109.291823 17.180522 
L 115.027318 16.79266 
L 120.762814 16.647213 
L 126.49831 16.744178 
L 132.233805 17.083556 
L 137.969301 17.66692 
L 143.704797 18.500282 
L 149.440292 19.588951 
L 155.175788 20.940004 
L 159.764185 22.218875 
L 165.49968 24.075212 
L 170.088077 25.775652 
L 175.057499 27.847784 
L 179.960141 30.141983 
L 184.374919 32.436181 
L 188.441663 34.754948 
L 193.030059 37.633643 
L 197.138964 40.465875 
L 201.059753 43.420411 
L 204.501051 46.236507 
L 208.31986 49.642668 
L 211.847011 53.083965 
L 215.078308 56.525263 
L 218.26624 60.239405 
L 220.763643 63.407857 
L 223.260784 66.849155 
L 225.551098 70.290452 
L 228.305352 74.878849 
L 230.159989 78.320146 
L 232.369785 82.908543 
L 234.325628 87.575693 
L 235.472727 90.689479 
L 235.472727 90.689479 
" clip-path="url(#p3e9c562cb5)" style="fill: none; stroke: #7f7f7f; stroke-width: 0.8"/>
    <path d="M 235.472727 171.386961 
L 232.799735 175.823572 
L 229.719766 180.411969 
L 226.287977 185.000365 
L 222.854637 189.145607 
L 219.325198 193.030059 
L 215.91425 196.471357 
L 212.205037 199.912654 
L 207.942348 203.532496 
L 203.353952 207.076068 
L 198.765555 210.298412 
L 194.177159 213.229689 
L 189.461779 215.972042 
L 185.000365 218.332354 
L 180.368531 220.560439 
L 174.676473 223.008992 
L 168.940978 225.176652 
L 163.205482 227.059088 
L 157.469986 228.675261 
L 151.734491 230.033237 
L 145.998995 231.145082 
L 140.160888 232.03143 
L 134.528004 232.655182 
L 128.792508 233.064535 
L 123.057012 233.245777 
L 117.321517 233.200757 
L 111.586021 232.928084 
L 105.850525 232.427764 
L 100.11503 231.696572 
L 94.379534 230.729856 
L 88.644038 229.520097 
L 82.908543 228.059457 
L 77.038667 226.295934 
L 71.437551 224.343598 
L 66.849155 222.539473 
L 62.260758 220.540623 
L 57.541905 218.26624 
L 53.083965 215.901761 
L 48.495569 213.229689 
L 43.814919 210.236546 
L 38.9385 206.795249 
L 34.510487 203.353952 
L 30.141983 199.621581 
L 26.700685 196.415274 
L 23.259388 192.937107 
L 19.81809 189.145607 
L 16.376793 184.990238 
L 12.935496 180.387206 
L 9.872992 175.823572 
L 7.2 171.386961 
M 7.2 71.285766 
L 9.872992 66.849155 
L 12.952961 62.260758 
L 16.38475 57.672362 
L 19.81809 53.52712 
L 23.347529 49.642668 
L 26.758477 46.20137 
L 30.46769 42.760073 
L 34.730379 39.140231 
L 39.318776 35.59666 
L 43.907172 32.374315 
L 48.495569 29.443038 
L 53.210948 26.700685 
L 57.672362 24.340373 
L 62.304196 22.112289 
L 67.996254 19.663735 
L 73.73175 17.496075 
L 79.467245 15.613639 
L 85.202741 13.997466 
L 90.938237 12.639491 
L 96.673732 11.527645 
L 102.51184 10.641297 
L 108.144724 10.017545 
L 113.880219 9.608192 
L 119.615715 9.42695 
L 125.351211 9.47197 
L 131.086706 9.744643 
L 136.822202 10.244964 
L 142.557698 10.976155 
L 148.293193 11.942872 
L 154.028689 13.15263 
L 159.764185 14.61327 
L 165.63406 16.376793 
L 171.235176 18.329129 
L 175.823572 20.133254 
L 180.411969 22.132104 
L 185.130822 24.406487 
L 189.588762 26.770967 
L 194.177159 29.443038 
L 198.857808 32.436181 
L 203.734227 35.877478 
L 208.16224 39.318776 
L 212.530745 43.051146 
L 215.972042 46.257453 
L 219.413339 49.735621 
L 222.854637 53.52712 
L 226.295934 57.682489 
L 229.737232 62.285521 
L 232.799735 66.849155 
L 235.472727 71.285766 
L 235.472727 71.285766 
" clip-path="url(#p3e9c562cb5)" style="fill: none; stroke: #7f7f7f; stroke-width: 0.8"/>
    <path d="M 84.133581 235.472727 
L 79.467245 234.222315 
L 73.73175 232.459211 
L 67.996254 230.436876 
L 62.260758 228.139697 
L 57.672362 226.092557 
L 53.083965 223.846335 
L 48.495569 221.387301 
L 43.201609 218.26624 
L 39.318776 215.766789 
L 34.687728 212.530745 
L 30.141983 209.054916 
L 25.553586 205.207269 
L 22.112289 202.072299 
L 18.670991 198.692143 
L 15.229694 195.032323 
L 11.527601 190.735861 
L 7.94126 186.147465 
L 7.2 185.139432 
M 235.472727 185.139432 
L 232.03143 189.645025 
L 228.208084 194.177159 
L 225.040827 197.618456 
L 221.619538 201.059753 
L 217.917 204.501051 
L 213.677844 208.12609 
L 209.089447 211.713431 
L 204.501051 214.992012 
L 199.471119 218.26624 
L 195.324258 220.738191 
L 190.735861 223.251469 
L 186.147465 225.549552 
L 181.559068 227.646321 
L 175.823572 230.000329 
L 170.088077 232.077148 
L 164.352581 233.88917 
L 158.539147 235.472727 
M 7.2 57.533295 
L 10.641297 53.027702 
L 14.464643 48.495569 
L 17.631901 45.054271 
L 21.053189 41.612974 
L 24.755727 38.171677 
L 28.994884 34.546637 
L 33.58328 30.959296 
L 38.171677 27.680715 
L 43.201609 24.406487 
L 47.34847 21.934536 
L 51.936866 19.421258 
L 56.525263 17.123176 
L 61.113659 15.026406 
L 66.849155 12.672399 
L 72.584651 10.595579 
L 78.320146 8.783557 
L 84.133581 7.2 
M 158.539147 7.2 
L 163.205482 8.450412 
L 168.940978 10.213516 
L 174.676473 12.235851 
L 180.411969 14.53303 
L 185.000365 16.58017 
L 189.588762 18.826392 
L 194.177159 21.285426 
L 199.471119 24.406487 
L 203.353952 26.905939 
L 207.984999 30.141983 
L 212.530745 33.617812 
L 217.119141 37.465458 
L 220.560439 40.600429 
L 224.001736 43.980584 
L 227.443033 47.640404 
L 231.145126 51.936866 
L 234.731467 56.525263 
L 235.472727 57.533295 
L 235.472727 57.533295 
" clip-path="url(#p3e9c562cb5)" style="fill: none; stroke: #7f7f7f; stroke-width: 0.8"/>
    <path d="M 62.861685 235.472727 
L 57.357262 233.178529 
L 51.936866 230.66404 
L 46.20137 227.707585 
L 41.612974 225.107489 
L 36.142818 221.707538 
L 32.436181 219.203465 
L 27.847784 215.857793 
L 23.259388 212.20999 
L 18.670991 208.224279 
L 14.737763 204.501051 
L 10.641297 200.276897 
L 7.2 196.414108 
M 235.472727 196.414108 
L 232.03143 200.276897 
L 227.934964 204.501051 
L 224.001736 208.224279 
L 219.413339 212.20999 
L 215.972042 214.975409 
L 211.383646 218.393748 
L 206.52991 221.707538 
L 202.206852 224.42119 
L 196.955968 227.443033 
L 191.88296 230.097456 
L 186.147465 232.809045 
L 180.411969 235.234598 
L 179.811042 235.472727 
M 7.2 46.258619 
L 10.641297 42.39583 
L 14.737763 38.171677 
L 18.670991 34.448448 
L 23.259388 30.462737 
L 26.700685 27.697318 
L 31.289082 24.278979 
L 36.142818 20.96519 
L 40.465875 18.251537 
L 45.716759 15.229694 
L 50.789767 12.575271 
L 56.525263 9.863682 
L 62.260758 7.438129 
L 62.861685 7.2 
M 179.811042 7.2 
L 185.315466 9.494198 
L 190.735861 12.008688 
L 196.471357 14.965142 
L 201.059753 17.565239 
L 206.52991 20.96519 
L 210.236546 23.469262 
L 214.824943 26.814934 
L 219.413339 30.462737 
L 224.001736 34.448448 
L 227.934964 38.171677 
L 232.03143 42.39583 
L 235.472727 46.258619 
L 235.472727 46.258619 
" clip-path="url(#p3e9c562cb5)" style="fill: none; stroke: #7f7f7f; stroke-width: 0.8"/>
    <path d="M 47.478596 235.472727 
L 42.760073 233.022427 
L 37.024577 229.758036 
L 32.436181 226.899598 
L 27.847784 223.805825 
L 23.259388 220.452088 
L 18.670991 216.810199 
L 14.082595 212.847739 
L 10.074372 209.089447 
L 7.2 206.201904 
M 235.472727 206.201904 
L 231.408171 210.236546 
L 227.443033 213.871095 
L 222.854637 217.748783 
L 218.26624 221.315433 
L 213.677844 224.602148 
L 209.089447 227.636018 
L 203.732173 230.884331 
L 198.765555 233.636287 
L 195.194131 235.472727 
M 7.2 36.470824 
L 11.264556 32.436181 
L 15.229694 28.801632 
L 19.81809 24.923944 
L 24.406487 21.357294 
L 28.994884 18.07058 
L 33.58328 15.036709 
L 38.940554 11.788397 
L 43.907172 9.03644 
L 47.478596 7.2 
M 195.194131 7.2 
L 199.912654 9.6503 
L 205.64815 12.914691 
L 210.236546 15.773129 
L 214.824943 18.866902 
L 219.413339 22.220639 
L 224.001736 25.862528 
L 228.590132 29.824988 
L 232.598355 33.58328 
L 235.472727 36.470824 
L 235.472727 36.470824 
" clip-path="url(#p3e9c562cb5)" style="fill: none; stroke: #7f7f7f; stroke-width: 0.8"/>
    <path d="M 34.788547 235.472727 
L 30.141983 232.653619 
L 25.553586 229.649903 
L 20.816629 226.295934 
L 16.321971 222.854637 
L 11.788397 219.098763 
L 7.2 214.974484 
M 235.472727 214.974484 
L 230.884331 219.098763 
L 226.295934 222.898229 
L 221.707538 226.405243 
L 216.990568 229.737232 
L 211.692881 233.178529 
L 207.884181 235.472727 
M 7.2 27.698243 
L 11.788397 23.573964 
L 16.376793 19.774498 
L 20.96519 16.267484 
L 25.68216 12.935496 
L 30.979846 9.494198 
L 34.788547 7.2 
M 207.884181 7.2 
L 212.530745 10.019109 
L 217.119141 13.022825 
L 221.856098 16.376793 
L 226.350757 19.81809 
L 230.884331 23.573964 
L 235.472727 27.698243 
L 235.472727 27.698243 
" clip-path="url(#p3e9c562cb5)" style="fill: none; stroke: #7f7f7f; stroke-width: 0.8"/>
    <path d="M 23.736393 235.472727 
L 23.259388 235.157689 
L 22.112289 234.391173 
L 22.015327 234.325628 
L 20.96519 233.608501 
L 20.342707 233.178529 
L 19.81809 232.812421 
L 18.711541 232.03143 
L 18.670991 232.002513 
L 17.523892 231.175278 
L 17.124879 230.884331 
L 16.376793 230.333109 
L 15.576892 229.737232 
L 15.229694 229.475839 
L 14.082595 228.602842 
L 14.066073 228.590132 
L 12.935496 227.711106 
L 12.594337 227.443033 
L 11.788397 226.802863 
L 11.156848 226.295934 
L 10.641297 225.877567 
L 9.752545 225.148835 
L 9.494198 224.93465 
L 8.380413 224.001736 
L 8.347099 223.973519 
L 7.2 222.99199 
M 235.472727 222.99199 
L 234.325628 223.973519 
L 234.292314 224.001736 
L 233.178529 224.93465 
L 232.920182 225.148835 
L 232.03143 225.877567 
L 231.515879 226.295934 
L 230.884331 226.802863 
L 230.07839 227.443033 
L 229.737232 227.711106 
L 228.606654 228.590132 
L 228.590132 228.602842 
L 227.443033 229.475839 
L 227.095835 229.737232 
L 226.295934 230.333109 
L 225.547848 230.884331 
L 225.148835 231.175278 
L 224.001736 232.002513 
L 223.961187 232.03143 
L 222.854637 232.812421 
L 222.33002 233.178529 
L 221.707538 233.608501 
L 220.6574 234.325628 
L 220.560439 234.391173 
L 219.413339 235.157689 
L 218.936334 235.472727 
M 7.2 19.680737 
L 8.347099 18.699209 
L 8.380413 18.670991 
L 9.494198 17.738077 
L 9.752545 17.523892 
L 10.641297 16.79516 
L 11.156848 16.376793 
L 11.788397 15.869864 
L 12.594337 15.229694 
L 12.935496 14.961621 
L 14.066073 14.082595 
L 14.082595 14.069886 
L 15.229694 13.196889 
L 15.576892 12.935496 
L 16.376793 12.339618 
L 17.124879 11.788397 
L 17.523892 11.49745 
L 18.670991 10.670215 
L 18.711541 10.641297 
L 19.81809 9.860307 
L 20.342707 9.494198 
L 20.96519 9.064226 
L 22.015327 8.347099 
L 22.112289 8.281554 
L 23.259388 7.515039 
L 23.736393 7.2 
M 218.936334 7.2 
L 219.413339 7.515039 
L 220.560439 8.281554 
L 220.6574 8.347099 
L 221.707538 9.064226 
L 222.33002 9.494198 
L 222.854637 9.860307 
L 223.961187 10.641297 
L 224.001736 10.670215 
L 225.148835 11.49745 
L 225.547848 11.788397 
L 226.295934 12.339618 
L 227.095835 12.935496 
L 227.443033 13.196889 
L 228.590132 14.069886 
L 228.606654 14.082595 
L 229.737232 14.961621 
L 230.07839 15.229694 
L 230.884331 15.869864 
L 231.515879 16.376793 
L 232.03143 16.79516 
L 232.920182 17.523892 
L 233.178529 17.738077 
L 234.292314 18.670991 
L 234.325628 18.699209 
L 235.472727 19.680737 
" clip-path="url(#p3e9c562cb5)" style="fill: none; stroke: #7f7f7f; stroke-width: 0.8"/>
    <path d="M 13.812771 235.472727 
L 12.935496 234.831982 
L 12.249519 234.325628 
L 11.788397 233.981777 
L 10.72242 233.178529 
L 10.641297 233.116771 
L 9.494198 232.234387 
L 9.233047 232.03143 
L 8.347099 231.335734 
L 7.778058 230.884331 
L 7.2 230.420949 
M 235.472727 230.420949 
L 234.89467 230.884331 
L 234.325628 231.335734 
L 233.439681 232.03143 
L 233.178529 232.234387 
L 232.03143 233.116771 
L 231.950308 233.178529 
L 230.884331 233.981777 
L 230.423208 234.325628 
L 229.737232 234.831982 
L 228.859956 235.472727 
M 7.2 12.251779 
L 7.778058 11.788397 
L 8.347099 11.336993 
L 9.233047 10.641297 
L 9.494198 10.438341 
L 10.641297 9.555957 
L 10.72242 9.494198 
L 11.788397 8.69095 
L 12.249519 8.347099 
L 12.935496 7.840745 
L 13.812771 7.2 
M 228.859956 7.2 
L 229.737232 7.840745 
L 230.423208 8.347099 
L 230.884331 8.69095 
L 231.950308 9.494198 
L 232.03143 9.555957 
L 233.178529 10.438341 
L 233.439681 10.641297 
L 234.325628 11.336993 
L 234.89467 11.788397 
L 235.472727 12.251779 
" clip-path="url(#p3e9c562cb5)" style="fill: none; stroke: #7f7f7f; stroke-width: 0.8"/>
    <path clip-path="url(#p3e9c562cb5)" style="fill: none; stroke: #7f7f7f; stroke-width: 0.8"/>
   </g>
   <g id="line2d_1">
    <path d="M 28.600568 42.867614 
L 79.605256 98.97277 
L 102.557365 114.962739 
L 112.885814 119.519881 
L 117.533616 120.818666 
L 119.625127 121.18882 
L 120.566307 121.294314 
L 120.989838 121.324379 
L 121.180427 121.332948 
L 121.266192 121.33539 
L 121.304787 121.336086 
" clip-path="url(#p3e9c562cb5)" style="fill: none; stroke: #ff7f0e; stroke-width: 1.6; stroke-linecap: square"/>
    <defs>
     <path id="mf1fae3c340" d="M 0 1.75 
C 0.464105 1.75 0.909265 1.565609 1.237437 1.237437 
C 1.565609 0.909265 1.75 0.464105 1.75 0 
C 1.75 -0.464105 1.565609 -0.909265 1.237437 -1.237437 
C 0.909265 -1.565609 0.464105 -1.75 0 -1.75 
C -0.464105 -1.75 -0.909265 -1.565609 -1.237437 -1.237437 
C -1.565609 -0.909265 -1.75 -0.464105 -1.75 0 
C -1.75 0.464105 -1.565609 0.909265 -1.237437 1.237437 
C -0.909265 1.565609 -0.464105 1.75 0 1.75 
z
" style="stroke: #ff7f0e"/>
    </defs>
    <g clip-path="url(#p3e9c562cb5)">
     <use xlink:href="#mf1fae3c340" x="28.600568" y="42.867614" style="fill: #ff7f0e; stroke: #ff7f0e"/>
     <use xlink:href="#mf1fae3c340" x="79.605256" y="98.97277" style="fill: #ff7f0e; stroke: #ff7f0e"/>
     <use xlink:href="#mf1fae3c340" x="102.557365" y="114.962739" style="fill: #ff7f0e; stroke: #ff7f0e"/>
     <use xlink:href="#mf1fae3c340" x="112.885814" y="119.519881" style="fill: #ff7f0e; stroke: #ff7f0e"/>
     <use xlink:href="#mf1fae3c340" x="117.533616" y="120.818666" style="fill: #ff7f0e; stroke: #ff7f0e"/>
     <use xlink:href="#mf1fae3c340" x="119.625127" y="121.18882" style="fill: #ff7f0e; stroke: #ff7f0e"/>
     <use xlink:href="#mf1fae3c340" x="120.566307" y="121.294314" style="fill: #ff7f0e; stroke: #ff7f0e"/>
     <use xlink:href="#mf1fae3c340" x="120.989838" y="121.324379" style="fill: #ff7f0e; stroke: #ff7f0e"/>
     <use xlink:href="#mf1fae3c340" x="121.180427" y="121.332948" style="fill: #ff7f0e; stroke: #ff7f0e"/>
     <use xlink:href="#mf1fae3c340" x="121.266192" y="121.33539" style="fill: #ff7f0e; stroke: #ff7f0e"/>
     <use xlink:href="#mf1fae3c340" x="121.304787" y="121.336086" style="fill: #ff7f0e; stroke: #ff7f0e"/>
    </g>
   </g>
   <g id="line2d_2">
    <defs>
     <path id="m6798a3188f" d="M 0 -6 
L -1.347084 -1.854102 
L -5.706339 -1.854102 
L -2.179628 0.708204 
L -3.526712 4.854102 
L -0 2.291796 
L 3.526712 4.854102 
L 2.179628 0.708204 
L 5.706339 -1.854102 
L 1.347084 -1.854102 
z
" style="stroke: #2ca02c; stroke-linejoin: bevel"/>
    </defs>
    <g clip-path="url(#p3e9c562cb5)">
     <use xlink:href="#m6798a3188f" x="121.336364" y="121.336364" style="fill: #2ca02c; stroke: #2ca02c; stroke-linejoin: bevel"/>
    </g>
   </g>
  </g>
  <g id="axes_2">
   <g id="QuadContourSet_2">
    <path clip-path="url(#pacb8562933)" style="fill: none; stroke: #7f7f7f; stroke-width: 0.8"/>
    <path d="M 509.4 141.510422 
L 502.517405 143.50756 
L 496.78191 144.961736 
L 488.752216 146.73243 
L 480.722522 148.263256 
L 473.607054 149.440292 
L 463.516035 150.86239 
L 453.192143 152.063031 
L 442.86825 153.034526 
L 431.397259 153.865262 
L 421.073367 154.404892 
L 409.602376 154.789456 
L 398.131384 154.954269 
L 386.660393 154.899331 
L 375.189402 154.624643 
L 363.71841 154.130203 
L 353.394518 153.478344 
L 343.070626 152.6295 
L 332.746734 151.560944 
L 322.422841 150.246309 
L 313.246048 148.846019 
L 305.216354 147.4154 
L 298.277143 145.998995 
L 290.304066 144.106904 
L 284.56857 142.551308 
L 281.127273 141.510422 
M 281.127273 101.162305 
L 288.009868 99.165167 
L 293.745363 97.710991 
L 301.775057 95.940298 
L 309.804751 94.409471 
L 316.920219 93.232435 
L 327.011238 91.810338 
L 337.33513 90.609696 
L 347.659022 89.638202 
L 359.130014 88.807465 
L 369.453906 88.267835 
L 380.924897 87.883271 
L 392.395889 87.718458 
L 403.86688 87.773396 
L 415.337871 88.048085 
L 426.808862 88.542524 
L 437.132755 89.194384 
L 447.456647 90.043227 
L 457.780539 91.111784 
L 468.104431 92.426419 
L 477.281224 93.826708 
L 485.310918 95.257327 
L 492.25013 96.673732 
L 500.223207 98.565824 
L 505.958703 100.121419 
L 509.4 101.162305 
L 509.4 101.162305 
" clip-path="url(#pacb8562933)" style="fill: none; stroke: #7f7f7f; stroke-width: 0.8"/>
    <path d="M 509.4 160.549096 
L 499.076108 162.114615 
L 487.605116 163.616725 
L 476.134125 164.902259 
L 463.516035 166.085919 
L 450.897944 167.046297 
L 437.132755 167.857242 
L 423.367565 168.426128 
L 409.602376 168.771191 
L 395.837186 168.892429 
L 382.071996 168.789843 
L 368.306807 168.463433 
L 354.541617 167.913198 
L 341.923527 167.197651 
L 329.305436 166.277102 
L 316.687346 165.135368 
L 304.069255 163.754515 
L 292.598264 162.273934 
L 282.274372 160.734656 
L 281.127273 160.549096 
M 281.127273 82.123631 
L 291.451165 80.558112 
L 302.922156 79.056002 
L 314.393148 77.770468 
L 327.011238 76.586808 
L 339.629328 75.62643 
L 353.394518 74.815485 
L 367.159708 74.246599 
L 380.924897 73.901536 
L 394.690087 73.780298 
L 408.455276 73.882884 
L 422.220466 74.209295 
L 435.985656 74.759529 
L 448.603746 75.475076 
L 461.221836 76.395625 
L 473.839927 77.537359 
L 486.458017 78.918213 
L 497.929009 80.398793 
L 508.252901 81.938071 
L 509.4 82.123631 
L 509.4 82.123631 
" clip-path="url(#pacb8562933)" style="fill: none; stroke: #7f7f7f; stroke-width: 0.8"/>
    <path d="M 509.4 172.993121 
L 496.78191 174.437267 
L 484.163819 175.680302 
L 470.39863 176.82242 
L 456.63344 177.754049 
L 441.721151 178.540076 
L 426.808862 179.10343 
L 411.896574 179.447726 
L 396.984285 179.57768 
L 382.071996 179.496459 
L 367.159708 179.202845 
L 352.247419 178.689199 
L 337.33513 177.956937 
L 322.112122 176.970672 
L 307.510553 175.784707 
L 293.745363 174.437267 
L 281.127273 172.993121 
M 281.127273 69.679606 
L 293.745363 68.23546 
L 306.363454 66.992426 
L 320.128643 65.850308 
L 333.893833 64.918678 
L 348.806122 64.132651 
L 363.71841 63.569298 
L 378.630699 63.225001 
L 393.542988 63.095047 
L 408.455276 63.176268 
L 423.367565 63.469882 
L 438.279854 63.983528 
L 453.192143 64.71579 
L 468.415151 65.702056 
L 483.01672 66.888021 
L 496.78191 68.23546 
L 509.4 69.679606 
L 509.4 69.679606 
" clip-path="url(#pacb8562933)" style="fill: none; stroke: #7f7f7f; stroke-width: 0.8"/>
    <path d="M 509.4 182.975129 
L 494.487711 184.391947 
L 479.575423 185.586326 
L 464.663134 186.569975 
L 448.603746 187.405435 
L 432.544358 188.013046 
L 416.48497 188.405301 
L 400.425582 188.579818 
L 384.366195 188.542014 
L 368.306807 188.289932 
L 352.247419 187.820764 
L 336.188031 187.133463 
L 320.128643 186.217796 
L 305.216354 185.153888 
L 290.304066 183.876331 
L 281.127273 182.975129 
M 281.127273 59.697598 
L 296.039561 58.280781 
L 310.95185 57.086401 
L 325.864139 56.102752 
L 341.923527 55.267292 
L 357.982915 54.659681 
L 374.042302 54.267426 
L 390.10169 54.092909 
L 406.161078 54.130713 
L 422.220466 54.382795 
L 438.279854 54.851963 
L 454.339242 55.539265 
L 470.39863 56.454932 
L 485.310918 57.518839 
L 500.223207 58.796396 
L 509.4 59.697598 
L 509.4 59.697598 
" clip-path="url(#pacb8562933)" style="fill: none; stroke: #7f7f7f; stroke-width: 0.8"/>
    <path d="M 509.4 191.551238 
L 493.340612 192.887676 
L 477.281224 194.001631 
L 461.221836 194.903532 
L 444.015349 195.645324 
L 426.808862 196.160048 
L 409.602376 196.454176 
L 392.395889 196.526855 
L 375.189402 196.380644 
L 357.982915 196.012984 
L 340.776428 195.424728 
L 324.71704 194.666544 
L 308.657652 193.704235 
L 292.598264 192.527922 
L 281.127273 191.551238 
M 281.127273 51.121489 
L 297.186661 49.785052 
L 313.246048 48.671097 
L 329.305436 47.769196 
L 346.511923 47.027403 
L 363.71841 46.512679 
L 380.924897 46.218551 
L 398.131384 46.145873 
L 415.337871 46.292083 
L 432.544358 46.659743 
L 449.750845 47.247999 
L 465.810233 48.006183 
L 481.869621 48.968493 
L 497.929009 50.144805 
L 509.4 51.121489 
L 509.4 51.121489 
" clip-path="url(#pacb8562933)" style="fill: none; stroke: #7f7f7f; stroke-width: 0.8"/>
    <path d="M 509.4 199.188264 
L 492.193513 200.473317 
L 474.987026 201.533202 
L 457.780539 202.377434 
L 439.426953 203.045228 
L 421.073367 203.481449 
L 402.719781 203.686793 
L 384.366195 203.665551 
L 366.012608 203.417721 
L 348.806122 202.97432 
L 330.452535 202.277803 
L 313.246048 201.404836 
L 296.039561 200.315383 
L 281.127273 199.188264 
M 281.127273 43.484464 
L 298.33376 42.19941 
L 315.540247 41.139525 
L 332.746734 40.295294 
L 351.10032 39.627499 
L 369.453906 39.191279 
L 387.807492 38.985934 
L 406.161078 39.007176 
L 424.514664 39.255006 
L 441.721151 39.698407 
L 460.074737 40.394924 
L 477.281224 41.267891 
L 494.487711 42.357344 
L 509.4 43.484464 
L 509.4 43.484464 
" clip-path="url(#pacb8562933)" style="fill: none; stroke: #7f7f7f; stroke-width: 0.8"/>
    <path d="M 509.4 206.140418 
L 492.193513 207.32174 
L 473.839927 208.356257 
L 455.486341 209.166928 
L 437.132755 209.756202 
L 418.779169 210.133603 
L 400.425582 210.298327 
L 382.071996 210.252574 
L 363.71841 209.994561 
L 345.364824 209.524465 
L 327.011238 208.839246 
L 308.657652 207.933526 
L 290.258965 206.795249 
L 281.127273 206.140418 
M 281.127273 36.532309 
L 298.33376 35.350988 
L 316.687346 34.31647 
L 335.040932 33.505799 
L 353.394518 32.916525 
L 371.748104 32.539124 
L 390.10169 32.3744 
L 408.455276 32.420153 
L 426.808862 32.678167 
L 445.162449 33.148262 
L 463.516035 33.833481 
L 481.869621 34.739201 
L 500.268308 35.877478 
L 509.4 36.532309 
L 509.4 36.532309 
" clip-path="url(#pacb8562933)" style="fill: none; stroke: #7f7f7f; stroke-width: 0.8"/>
    <path d="M 509.4 212.565944 
L 489.899315 213.796792 
L 470.39863 214.786539 
L 452.045043 215.502001 
L 432.544358 216.042824 
L 413.043673 216.356088 
L 393.542988 216.447457 
L 374.042302 216.31693 
L 354.541617 215.964416 
L 335.040932 215.383095 
L 315.540247 214.574113 
L 296.039561 213.52903 
L 281.127273 212.565944 
M 281.127273 30.106783 
L 300.627958 28.875935 
L 320.128643 27.886188 
L 338.482229 27.170726 
L 357.982915 26.629903 
L 377.4836 26.316639 
L 396.984285 26.225271 
L 416.48497 26.355797 
L 435.985656 26.708311 
L 455.486341 27.289632 
L 474.987026 28.098614 
L 494.487711 29.143698 
L 509.4 30.106783 
L 509.4 30.106783 
" clip-path="url(#pacb8562933)" style="fill: none; stroke: #7f7f7f; stroke-width: 0.8"/>
    <path d="M 509.4 218.565204 
L 489.899315 219.721424 
L 470.39863 220.652556 
L 450.897944 221.362352 
L 431.397259 221.858716 
L 410.749475 222.152008 
L 390.10169 222.210667 
L 369.453906 222.034691 
L 349.953221 221.652423 
L 330.452535 221.0547 
L 310.95185 220.24162 
L 291.451165 219.20623 
L 281.127273 218.565204 
M 281.127273 24.107523 
L 300.627958 22.951303 
L 320.128643 22.020171 
L 339.629328 21.310376 
L 359.130014 20.814012 
L 379.777798 20.520719 
L 400.425582 20.462061 
L 421.073367 20.638036 
L 440.574052 21.020305 
L 460.074737 21.618027 
L 479.575423 22.431107 
L 499.076108 23.466497 
L 509.4 24.107523 
L 509.4 24.107523 
" clip-path="url(#pacb8562933)" style="fill: none; stroke: #7f7f7f; stroke-width: 0.8"/>
    <path d="M 509.4 224.216518 
L 488.752216 225.36756 
L 468.104431 226.281458 
L 448.603746 226.929283 
L 427.955962 227.39685 
L 407.308177 227.637868 
L 386.660393 227.656369 
L 366.012608 227.452852 
L 345.364824 227.022796 
L 324.71704 226.368202 
L 305.216354 225.535633 
L 285.715669 224.492672 
L 281.127273 224.216518 
M 281.127273 18.456209 
L 301.775057 17.305167 
L 322.422841 16.39127 
L 341.923527 15.743445 
L 362.571311 15.275877 
L 383.219095 15.03486 
L 403.86688 15.016358 
L 424.514664 15.219876 
L 445.162449 15.649931 
L 465.810233 16.304526 
L 485.310918 17.137094 
L 504.811603 18.180055 
L 509.4 18.456209 
L 509.4 18.456209 
" clip-path="url(#pacb8562933)" style="fill: none; stroke: #7f7f7f; stroke-width: 0.8"/>
    <path d="M 509.4 229.573098 
L 489.899315 230.612581 
L 469.25153 231.49366 
L 448.603746 232.155534 
L 427.955962 232.599 
L 407.308177 232.829602 
L 386.660393 232.847341 
L 366.012608 232.652216 
L 345.364824 232.244227 
L 324.71704 231.619124 
L 304.069255 230.77559 
L 283.421471 229.706655 
L 281.127273 229.573098 
M 281.127273 13.09963 
L 300.627958 12.060146 
L 321.275742 11.179068 
L 341.923527 10.517194 
L 362.571311 10.073727 
L 383.219095 9.843125 
L 403.86688 9.825386 
L 424.514664 10.020511 
L 445.162449 10.4285 
L 465.810233 11.053604 
L 486.458017 11.897137 
L 507.105802 12.966072 
L 509.4 13.09963 
L 509.4 13.09963 
" clip-path="url(#pacb8562933)" style="fill: none; stroke: #7f7f7f; stroke-width: 0.8"/>
    <path d="M 296.420122 235.472727 
L 296.039561 235.454361 
L 294.892462 235.398358 
L 293.745363 235.341711 
L 292.598264 235.284421 
L 291.451165 235.226486 
L 290.304066 235.167908 
L 289.156967 235.108687 
L 288.009868 235.048821 
L 286.862768 234.988312 
L 285.715669 234.927159 
L 284.56857 234.865363 
L 283.421471 234.802922 
L 282.274372 234.739838 
L 281.127273 234.676111 
M 509.4 234.676111 
L 508.252901 234.739838 
L 507.105802 234.802922 
L 505.958703 234.865363 
L 504.811603 234.927159 
L 503.664504 234.988312 
L 502.517405 235.048821 
L 501.370306 235.108687 
L 500.223207 235.167908 
L 499.076108 235.226486 
L 497.929009 235.284421 
L 496.78191 235.341711 
L 495.63481 235.398358 
L 494.487711 235.454361 
L 494.107151 235.472727 
M 281.127273 7.996617 
L 282.274372 7.932889 
L 283.421471 7.869805 
L 284.56857 7.807365 
L 285.715669 7.745568 
L 286.862768 7.684415 
L 288.009868 7.623906 
L 289.156967 7.564041 
L 290.304066 7.504819 
L 291.451165 7.446241 
L 292.598264 7.388307 
L 293.745363 7.331016 
L 294.892462 7.274369 
L 296.039561 7.218366 
L 296.420122 7.2 
M 494.107151 7.2 
L 494.487711 7.218366 
L 495.63481 7.274369 
L 496.78191 7.331016 
L 497.929009 7.388307 
L 499.076108 7.446241 
L 500.223207 7.504819 
L 501.370306 7.564041 
L 502.517405 7.623906 
L 503.664504 7.684415 
L 504.811603 7.745568 
L 505.958703 7.807365 
L 507.105802 7.869805 
L 508.252901 7.932889 
L 509.4 7.996617 
" clip-path="url(#pacb8562933)" style="fill: none; stroke: #7f7f7f; stroke-width: 0.8"/>
    <path clip-path="url(#pacb8562933)" style="fill: none; stroke: #7f7f7f; stroke-width: 0.8"/>
   </g>
   <g id="line2d_3">
    <path d="M 302.527841 50.001136 
L 311.986892 180.972614 
L 320.48112 71.480459 
L 328.108937 163.0159 
L 334.958716 86.492271 
L 341.109818 150.466025 
L 346.633507 96.983967 
L 351.593781 141.694967 
L 356.048106 104.316571 
L 360.04809 135.56491 
L 363.640076 109.441299 
L 366.865679 131.280638 
L 369.762271 113.02295 
L 372.36341 128.286377 
L 374.699233 115.526152 
L 376.796802 126.1937 
L 378.680419 117.27563 
L 380.371907 124.731137 
L 381.890864 118.498333 
L 383.254887 123.708957 
L 384.479779 119.352876 
L 385.579732 122.99456 
L 386.567491 119.950112 
L 387.454498 122.49527 
L 388.25103 120.367518 
" clip-path="url(#pacb8562933)" style="fill: none; stroke: #ff7f0e; stroke-width: 1.6; stroke-linecap: square"/>
    <g clip-path="url(#pacb8562933)">
     <use xlink:href="#mf1fae3c340" x="302.527841" y="50.001136" style="fill: #ff7f0e; stroke: #ff7f0e"/>
     <use xlink:href="#mf1fae3c340" x="311.986892" y="180.972614" style="fill: #ff7f0e; stroke: #ff7f0e"/>
     <use xlink:href="#mf1fae3c340" x="320.48112" y="71.480459" style="fill: #ff7f0e; stroke: #ff7f0e"/>
     <use xlink:href="#mf1fae3c340" x="328.108937" y="163.0159" style="fill: #ff7f0e; stroke: #ff7f0e"/>
     <use xlink:href="#mf1fae3c340" x="334.958716" y="86.492271" style="fill: #ff7f0e; stroke: #ff7f0e"/>
     <use xlink:href="#mf1fae3c340" x="341.109818" y="150.466025" style="fill: #ff7f0e; stroke: #ff7f0e"/>
     <use xlink:href="#mf1fae3c340" x="346.633507" y="96.983967" style="fill: #ff7f0e; stroke: #ff7f0e"/>
     <use xlink:href="#mf1fae3c340" x="351.593781" y="141.694967" style="fill: #ff7f0e; stroke: #ff7f0e"/>
     <use xlink:href="#mf1fae3c340" x="356.048106" y="104.316571" style="fill: #ff7f0e; stroke: #ff7f0e"/>
     <use xlink:href="#mf1fae3c340" x="360.04809" y="135.56491" style="fill: #ff7f0e; stroke: #ff7f0e"/>
     <use xlink:href="#mf1fae3c340" x="363.640076" y="109.441299" style="fill: #ff7f0e; stroke: #ff7f0e"/>
     <use xlink:href="#mf1fae3c340" x="366.865679" y="131.280638" style="fill: #ff7f0e; stroke: #ff7f0e"/>
     <use xlink:href="#mf1fae3c340" x="369.762271" y="113.02295" style="fill: #ff7f0e; stroke: #ff7f0e"/>
     <use xlink:href="#mf1fae3c340" x="372.36341" y="128.286377" style="fill: #ff7f0e; stroke: #ff7f0e"/>
     <use xlink:href="#mf1fae3c340" x="374.699233" y="115.526152" style="fill: #ff7f0e; stroke: #ff7f0e"/>
     <use xlink:href="#mf1fae3c340" x="376.796802" y="126.1937" style="fill: #ff7f0e; stroke: #ff7f0e"/>
     <use xlink:href="#mf1fae3c340" x="378.680419" y="117.27563" style="fill: #ff7f0e; stroke: #ff7f0e"/>
     <use xlink:href="#mf1fae3c340" x="380.371907" y="124.731137" style="fill: #ff7f0e; stroke: #ff7f0e"/>
     <use xlink:href="#mf1fae3c340" x="381.890864" y="118.498333" style="fill: #ff7f0e; stroke: #ff7f0e"/>
     <use xlink:href="#mf1fae3c340" x="383.254887" y="123.708957" style="fill: #ff7f0e; stroke: #ff7f0e"/>
     <use xlink:href="#mf1fae3c340" x="384.479779" y="119.352876" style="fill: #ff7f0e; stroke: #ff7f0e"/>
     <use xlink:href="#mf1fae3c340" x="385.579732" y="122.99456" style="fill: #ff7f0e; stroke: #ff7f0e"/>
     <use xlink:href="#mf1fae3c340" x="386.567491" y="119.950112" style="fill: #ff7f0e; stroke: #ff7f0e"/>
     <use xlink:href="#mf1fae3c340" x="387.454498" y="122.49527" style="fill: #ff7f0e; stroke: #ff7f0e"/>
     <use xlink:href="#mf1fae3c340" x="388.25103" y="120.367518" style="fill: #ff7f0e; stroke: #ff7f0e"/>
    </g>
   </g>
   <g id="line2d_4">
    <g clip-path="url(#pacb8562933)">
     <use xlink:href="#m6798a3188f" x="395.263636" y="121.336364" style="fill: #2ca02c; stroke: #2ca02c; stroke-linejoin: bevel"/>
    </g>
   </g>
  </g>
 </g>
 <defs>
  <clipPath id="p3e9c562cb5">
   <rect x="7.2" y="7.2" width="228.272727" height="228.272727"/>
  </clipPath>
  <clipPath id="pacb8562933">
   <rect x="281.127273" y="7.2" width="228.272727" height="228.272727"/>
  </clipPath>
 </defs>
</svg>
