<?xml version="1.0" encoding="utf-8" standalone="no"?>
<!DOCTYPE svg PUBLIC "-//W3C//DTD SVG 1.1//EN"
  "http://www.w3.org/Graphics/SVG/1.1/DTD/svg11.dtd">
<svg xmlns:xlink="http://www.w3.org/1999/xlink" width="642.703602pt" height="236.16pt" viewBox="0 0 642.703602 236.16" xmlns="http://www.w3.org/2000/svg" version="1.1">
 <metadata>
  <rdf:RDF xmlns:dc="http://purl.org/dc/elements/1.1/" xmlns:cc="http://creativecommons.org/ns#" xmlns:rdf="http://www.w3.org/1999/02/22-rdf-syntax-ns#">
   <cc:Work>
    <dc:type rdf:resource="http://purl.org/dc/dcmitype/StillImage"/>
    <dc:format>image/svg+xml</dc:format>
    <dc:creator>
     <cc:Agent>
      <dc:title>Matplotlib v3.10.8, https://matplotlib.org/</dc:title>
     </cc:Agent>
    </dc:creator>
   </cc:Work>
  </rdf:RDF>
 </metadata>
 <defs>
  <style type="text/css">*{stroke-linejoin: round; stroke-linecap: butt}</style>
 </defs>
 <g id="figure_1">
  <g id="patch_1">
   <path d="M 0 236.16 
L 642.703602 236.16 
L 642.703602 0 
L 0 0 
z
" style="fill: #ffffff"/>
  </g>
  <g id="axes_1">
   <g id="patch_2">
    <path d="M 45.766957 185.572174 
L 93.975652 185.572174 
L 93.975652 137.363478 
L 45.766957 137.363478 
z
" clip-path="url(#p10d7d89179)" style="fill: #2ca02c; opacity: 0.22"/>
   </g>
   <g id="line2d_1">
    <path d="M 45.766957 185.572174 
L 45.766957 40.946087 
L 45.766957 40.946087 
" clip-path="url(#p10d7d89179)" style="fill: none; stroke: #000000; stroke-width: 0.8; stroke-linecap: square"/>
   </g>
   <g id="line2d_2">
    <path d="M 93.975652 185.572174 
L 93.975652 40.946087 
L 93.975652 40.946087 
" clip-path="url(#p10d7d89179)" style="fill: none; stroke: #000000; stroke-width: 0.8; stroke-linecap: square"/>
   </g>
   <g id="line2d_3">
    <path d="M 142.184348 185.572174 
L 142.184348 40.946087 
L 142.184348 40.946087 
" clip-path="url(#p10d7d89179)" style="fill: none; stroke: #000000; stroke-width: 0.8; stroke-linecap: square"/>
   </g>
   <g id="line2d_4">
    <path d="M 190.393043 185.572174 
L 190.393043 40.946087 
L 190.393043 40.946087 
" clip-path="url(#p10d7d89179)" style="fill: none; stroke: #000000; stroke-width: 0.8; stroke-linecap: square"/>
   </g>
   <g id="line2d_5">
    <path d="M 45.766957 185.572174 
L 190.393043 185.572174 
L 190.393043 185.572174 
" clip-path="url(#p10d7d89179)" style="fill: none; stroke: #000000; stroke-width: 0.8; stroke-linecap: square"/>
   </g>
   <g id="line2d_6">
    <path d="M 45.766957 137.363478 
L 190.393043 137.363478 
L 190.393043 137.363478 
" clip-path="url(#p10d7d89179)" style="fill: none; stroke: #000000; stroke-width: 0.8; stroke-linecap: square"/>
   </g>
   <g id="line2d_7">
    <path d="M 45.766957 89.154783 
L 190.393043 89.154783 
L 190.393043 89.154783 
" clip-path="url(#p10d7d89179)" style="fill: none; stroke: #000000; stroke-width: 0.8; stroke-linecap: square"/>
   </g>
   <g id="line2d_8">
    <path d="M 45.766957 40.946087 
L 190.393043 40.946087 
L 190.393043 40.946087 
" clip-path="url(#p10d7d89179)" style="fill: none; stroke: #000000; stroke-width: 0.8; stroke-linecap: square"/>
   </g>
   <g id="line2d_9">
    <path d="M 21.662609 185.572174 
L 224.13913 185.572174 
" clip-path="url(#p10d7d89179)" style="fill: none; stroke: #2ca02c; stroke-opacity: 0.85; stroke-width: 3.2; stroke-linecap: round"/>
   </g>
   <g id="patch_3">
    <path d="M 45.766957 185.572174 
Q 69.871304 185.572174 91.292371 185.572174 
" style="fill: none; stroke: #1f77b4; stroke-width: 2.4; stroke-linecap: round"/>
    <path d="M 85.692371 182.772174 
L 91.292371 185.572174 
L 85.692371 188.372174 
" style="fill: none; stroke: #1f77b4; stroke-width: 2.4; stroke-linecap: round"/>
   </g>
   <g id="patch_4">
    <path d="M 45.766957 185.572174 
Q 45.766957 161.467826 45.766957 140.04676 
" style="fill: none; stroke: #ff7f0e; stroke-width: 2.4; stroke-linecap: round"/>
    <path d="M 42.966957 145.64676 
L 45.766957 140.04676 
L 48.566957 145.64676 
" style="fill: none; stroke: #ff7f0e; stroke-width: 2.4; stroke-linecap: round"/>
   </g>
   <g id="text_1">
    <!-- $\mathbf{e}_1$ -->
    <g style="fill: #1f77b4" transform="translate(89.411087 209.958889) scale(0.15 -0.15)">
     <defs>
      <path id="Cmb10-65" d="M 178 1441 
Q 178 1856 350 2189 
Q 522 2522 842 2711 
Q 1163 2900 1581 2900 
Q 2003 2900 2275 2726 
Q 2547 2553 2675 2242 
Q 2803 1931 2803 1522 
Q 2803 1428 2700 1394 
L 1025 1394 
Q 1025 1078 1070 829 
Q 1116 581 1275 412 
Q 1434 244 1741 244 
Q 2000 244 2208 394 
Q 2416 544 2484 788 
Q 2519 847 2578 863 
L 2700 863 
Q 2803 841 2803 750 
Q 2803 744 2797 709 
Q 2722 475 2553 308 
Q 2384 141 2150 51 
Q 1916 -38 1672 -38 
Q 1347 -38 1072 67 
Q 797 172 597 367 
Q 397 563 287 836 
Q 178 1109 178 1441 
z
M 1025 1631 
L 2169 1631 
Q 2169 1869 2120 2095 
Q 2072 2322 1940 2483 
Q 1809 2644 1581 2644 
Q 1250 2644 1137 2341 
Q 1025 2038 1025 1631 
z
" transform="scale(0.015625)"/>
      <path id="Cmr10-31" d="M 594 0 
L 594 225 
Q 1394 225 1394 428 
L 1394 3788 
Q 1063 3628 556 3628 
L 556 3853 
Q 1341 3853 1741 4263 
L 1831 4263 
Q 1853 4263 1873 4245 
Q 1894 4228 1894 4206 
L 1894 428 
Q 1894 225 2694 225 
L 2694 0 
L 594 0 
z
" transform="scale(0.015625)"/>
     </defs>
     <use xlink:href="#Cmb10-65" transform="translate(0 0.6875)"/>
     <use xlink:href="#Cmr10-31" transform="translate(51.046172 -16.31875) scale(0.7)"/>
    </g>
   </g>
   <g id="text_2">
    <!-- $\mathbf{e}_2$ -->
    <g style="fill: #ff7f0e" transform="translate(18.544304 139.092106) scale(0.15 -0.15)">
     <defs>
      <path id="Cmr10-32" d="M 319 0 
L 319 172 
Q 319 188 331 206 
L 1325 1306 
Q 1550 1550 1690 1715 
Q 1831 1881 1968 2097 
Q 2106 2313 2186 2536 
Q 2266 2759 2266 3009 
Q 2266 3272 2169 3511 
Q 2072 3750 1880 3894 
Q 1688 4038 1416 4038 
Q 1138 4038 916 3870 
Q 694 3703 603 3438 
Q 628 3444 672 3444 
Q 816 3444 917 3347 
Q 1019 3250 1019 3097 
Q 1019 2950 917 2848 
Q 816 2747 672 2747 
Q 522 2747 420 2851 
Q 319 2956 319 3097 
Q 319 3338 409 3548 
Q 500 3759 670 3923 
Q 841 4088 1055 4175 
Q 1269 4263 1509 4263 
Q 1875 4263 2190 4108 
Q 2506 3953 2690 3670 
Q 2875 3388 2875 3009 
Q 2875 2731 2753 2481 
Q 2631 2231 2440 2026 
Q 2250 1822 1953 1562 
Q 1656 1303 1563 1216 
L 838 519 
L 1453 519 
Q 1906 519 2211 526 
Q 2516 534 2534 550 
Q 2609 631 2688 1141 
L 2875 1141 
L 2694 0 
L 319 0 
z
" transform="scale(0.015625)"/>
     </defs>
     <use xlink:href="#Cmb10-65" transform="translate(0 0.6875)"/>
     <use xlink:href="#Cmr10-32" transform="translate(51.046172 -16.31875) scale(0.7)"/>
    </g>
   </g>
  </g>
  <g id="axes_2">
   <g id="patch_5">
    <path d="M 312.505342 185.572174 
L 360.714037 185.572174 
L 408.922733 137.363478 
L 360.714037 137.363478 
z
" clip-path="url(#p4dfb2770b2)" style="fill: #2ca02c; opacity: 0.22"/>
   </g>
   <g id="line2d_10">
    <path d="M 312.505342 185.572174 
L 457.131429 40.946087 
L 457.131429 40.946087 
" clip-path="url(#p4dfb2770b2)" style="fill: none; stroke: #000000; stroke-width: 0.8; stroke-linecap: square"/>
   </g>
   <g id="line2d_11">
    <path d="M 360.714037 185.572174 
L 505.340124 40.946087 
L 505.340124 40.946087 
" clip-path="url(#p4dfb2770b2)" style="fill: none; stroke: #000000; stroke-width: 0.8; stroke-linecap: square"/>
   </g>
   <g id="line2d_12">
    <path d="M 408.922733 185.572174 
L 553.54882 40.946087 
L 553.54882 40.946087 
" clip-path="url(#p4dfb2770b2)" style="fill: none; stroke: #000000; stroke-width: 0.8; stroke-linecap: square"/>
   </g>
   <g id="line2d_13">
    <path d="M 457.131429 185.572174 
L 601.757516 40.946087 
L 601.757516 40.946087 
" clip-path="url(#p4dfb2770b2)" style="fill: none; stroke: #000000; stroke-width: 0.8; stroke-linecap: square"/>
   </g>
   <g id="line2d_14">
    <path d="M 312.505342 185.572174 
L 457.131429 185.572174 
L 457.131429 185.572174 
" clip-path="url(#p4dfb2770b2)" style="fill: none; stroke: #000000; stroke-width: 0.8; stroke-linecap: square"/>
   </g>
   <g id="line2d_15">
    <path d="M 360.714037 137.363478 
L 505.340124 137.363478 
L 505.340124 137.363478 
" clip-path="url(#p4dfb2770b2)" style="fill: none; stroke: #000000; stroke-width: 0.8; stroke-linecap: square"/>
   </g>
   <g id="line2d_16">
    <path d="M 408.922733 89.154783 
L 553.54882 89.154783 
L 553.54882 89.154783 
" clip-path="url(#p4dfb2770b2)" style="fill: none; stroke: #000000; stroke-width: 0.8; stroke-linecap: square"/>
   </g>
   <g id="line2d_17">
    <path d="M 457.131429 40.946087 
L 601.757516 40.946087 
L 601.757516 40.946087 
" clip-path="url(#p4dfb2770b2)" style="fill: none; stroke: #000000; stroke-width: 0.8; stroke-linecap: square"/>
   </g>
   <g id="line2d_18">
    <path d="M 288.400994 185.572174 
L 630.682733 185.572174 
" clip-path="url(#p4dfb2770b2)" style="fill: none; stroke: #2ca02c; stroke-opacity: 0.85; stroke-width: 3.2; stroke-linecap: round"/>
   </g>
   <g id="patch_6">
    <path d="M 312.505342 185.572174 
Q 336.609689 185.572174 358.030756 185.572174 
" style="fill: none; stroke: #1f77b4; stroke-width: 2.4; stroke-linecap: round"/>
    <path d="M 352.430756 182.772174 
L 358.030756 185.572174 
L 352.430756 188.372174 
" style="fill: none; stroke: #1f77b4; stroke-width: 2.4; stroke-linecap: round"/>
   </g>
   <g id="patch_7">
    <path d="M 312.505342 185.572174 
Q 336.609689 161.467826 358.658557 139.418959 
" style="fill: none; stroke: #ff7f0e; stroke-width: 2.6; stroke-linecap: round"/>
    <path d="M 352.71886 141.398858 
L 358.658557 139.418959 
L 356.678658 145.358656 
" style="fill: none; stroke: #ff7f0e; stroke-width: 2.6; stroke-linecap: round"/>
   </g>
   <g id="text_3">
    <!-- $\mathbf{A}\mathbf{e}_1=\mathbf{e}_1$ -->
    <g style="fill: #1f77b4" transform="translate(365.534907 209.958889) scale(0.15 -0.15)">
     <defs>
      <path id="Cmb10-41" d="M 225 0 
L 225 325 
Q 775 325 794 384 
L 2181 4353 
Q 2228 4469 2344 4469 
L 2491 4469 
Q 2541 4469 2586 4436 
Q 2631 4403 2650 4353 
L 4056 325 
L 4609 325 
L 4609 0 
L 2578 0 
L 2578 325 
L 3103 325 
L 2822 1131 
L 1441 1131 
L 1184 378 
Q 1184 325 1684 325 
L 1684 0 
L 225 0 
z
M 1556 1459 
L 2706 1459 
L 2131 3103 
L 1556 1459 
z
" transform="scale(0.015625)"/>
      <path id="Cmr10-3d" d="M 481 850 
Q 428 850 393 890 
Q 359 931 359 978 
Q 359 1031 393 1068 
Q 428 1106 481 1106 
L 4500 1106 
Q 4547 1106 4581 1068 
Q 4616 1031 4616 978 
Q 4616 931 4581 890 
Q 4547 850 4500 850 
L 481 850 
z
M 481 2094 
Q 428 2094 393 2131 
Q 359 2169 359 2222 
Q 359 2269 393 2309 
Q 428 2350 481 2350 
L 4500 2350 
Q 4547 2350 4581 2309 
Q 4616 2269 4616 2222 
Q 4616 2169 4581 2131 
Q 4547 2094 4500 2094 
L 481 2094 
z
" transform="scale(0.015625)"/>
     </defs>
     <use xlink:href="#Cmb10-41" transform="translate(0 0.171875)"/>
     <use xlink:href="#Cmb10-65" transform="translate(75.488281 0.171875)"/>
     <use xlink:href="#Cmr10-31" transform="translate(126.534453 -16.834375) scale(0.7)"/>
     <use xlink:href="#Cmr10-3d" transform="translate(185.470391 0.171875)"/>
     <use xlink:href="#Cmb10-65" transform="translate(280.714531 0.171875)"/>
     <use xlink:href="#Cmr10-31" transform="translate(331.760703 -16.834375) scale(0.7)"/>
    </g>
   </g>
   <g id="text_4">
    <!-- $\mathbf{A}\mathbf{e}_2$ -->
    <g style="fill: #ff7f0e" transform="translate(324.009689 114.987758) scale(0.15 -0.15)">
     <use xlink:href="#Cmb10-41" transform="translate(0 0.171875)"/>
     <use xlink:href="#Cmb10-65" transform="translate(75.488281 0.171875)"/>
     <use xlink:href="#Cmr10-32" transform="translate(126.534453 -16.834375) scale(0.7)"/>
    </g>
   </g>
   <g id="text_5">
    <!-- eigenspace $\lambda=1$ -->
    <g style="fill: #2ca02c" transform="translate(480.705342 174.684565) scale(0.13 -0.13)">
     <defs>
      <path id="DejaVuSans-65" d="M 3597 1894 
L 3597 1613 
L 953 1613 
Q 991 1019 1311 708 
Q 1631 397 2203 397 
Q 2534 397 2845 478 
Q 3156 559 3463 722 
L 3463 178 
Q 3153 47 2828 -22 
Q 2503 -91 2169 -91 
Q 1331 -91 842 396 
Q 353 884 353 1716 
Q 353 2575 817 3079 
Q 1281 3584 2069 3584 
Q 2775 3584 3186 3129 
Q 3597 2675 3597 1894 
z
M 3022 2063 
Q 3016 2534 2758 2815 
Q 2500 3097 2075 3097 
Q 1594 3097 1305 2825 
Q 1016 2553 972 2059 
L 3022 2063 
z
" transform="scale(0.015625)"/>
      <path id="DejaVuSans-69" d="M 603 3500 
L 1178 3500 
L 1178 0 
L 603 0 
L 603 3500 
z
M 603 4863 
L 1178 4863 
L 1178 4134 
L 603 4134 
L 603 4863 
z
" transform="scale(0.015625)"/>
      <path id="DejaVuSans-67" d="M 2906 1791 
Q 2906 2416 2648 2759 
Q 2391 3103 1925 3103 
Q 1463 3103 1205 2759 
Q 947 2416 947 1791 
Q 947 1169 1205 825 
Q 1463 481 1925 481 
Q 2391 481 2648 825 
Q 2906 1169 2906 1791 
z
M 3481 434 
Q 3481 -459 3084 -895 
Q 2688 -1331 1869 -1331 
Q 1566 -1331 1297 -1286 
Q 1028 -1241 775 -1147 
L 775 -588 
Q 1028 -725 1275 -790 
Q 1522 -856 1778 -856 
Q 2344 -856 2625 -561 
Q 2906 -266 2906 331 
L 2906 616 
Q 2728 306 2450 153 
Q 2172 0 1784 0 
Q 1141 0 747 490 
Q 353 981 353 1791 
Q 353 2603 747 3093 
Q 1141 3584 1784 3584 
Q 2172 3584 2450 3431 
Q 2728 3278 2906 2969 
L 2906 3500 
L 3481 3500 
L 3481 434 
z
" transform="scale(0.015625)"/>
      <path id="DejaVuSans-6e" d="M 3513 2113 
L 3513 0 
L 2938 0 
L 2938 2094 
Q 2938 2591 2744 2837 
Q 2550 3084 2163 3084 
Q 1697 3084 1428 2787 
Q 1159 2491 1159 1978 
L 1159 0 
L 581 0 
L 581 3500 
L 1159 3500 
L 1159 2956 
Q 1366 3272 1645 3428 
Q 1925 3584 2291 3584 
Q 2894 3584 3203 3211 
Q 3513 2838 3513 2113 
z
" transform="scale(0.015625)"/>
      <path id="DejaVuSans-73" d="M 2834 3397 
L 2834 2853 
Q 2591 2978 2328 3040 
Q 2066 3103 1784 3103 
Q 1356 3103 1142 2972 
Q 928 2841 928 2578 
Q 928 2378 1081 2264 
Q 1234 2150 1697 2047 
L 1894 2003 
Q 2506 1872 2764 1633 
Q 3022 1394 3022 966 
Q 3022 478 2636 193 
Q 2250 -91 1575 -91 
Q 1294 -91 989 -36 
Q 684 19 347 128 
L 347 722 
Q 666 556 975 473 
Q 1284 391 1588 391 
Q 1994 391 2212 530 
Q 2431 669 2431 922 
Q 2431 1156 2273 1281 
Q 2116 1406 1581 1522 
L 1381 1569 
Q 847 1681 609 1914 
Q 372 2147 372 2553 
Q 372 3047 722 3315 
Q 1072 3584 1716 3584 
Q 2034 3584 2315 3537 
Q 2597 3491 2834 3397 
z
" transform="scale(0.015625)"/>
      <path id="DejaVuSans-70" d="M 1159 525 
L 1159 -1331 
L 581 -1331 
L 581 3500 
L 1159 3500 
L 1159 2969 
Q 1341 3281 1617 3432 
Q 1894 3584 2278 3584 
Q 2916 3584 3314 3078 
Q 3713 2572 3713 1747 
Q 3713 922 3314 415 
Q 2916 -91 2278 -91 
Q 1894 -91 1617 61 
Q 1341 213 1159 525 
z
M 3116 1747 
Q 3116 2381 2855 2742 
Q 2594 3103 2138 3103 
Q 1681 3103 1420 2742 
Q 1159 2381 1159 1747 
Q 1159 1113 1420 752 
Q 1681 391 2138 391 
Q 2594 391 2855 752 
Q 3116 1113 3116 1747 
z
" transform="scale(0.015625)"/>
      <path id="DejaVuSans-61" d="M 2194 1759 
Q 1497 1759 1228 1600 
Q 959 1441 959 1056 
Q 959 750 1161 570 
Q 1363 391 1709 391 
Q 2188 391 2477 730 
Q 2766 1069 2766 1631 
L 2766 1759 
L 2194 1759 
z
M 3341 1997 
L 3341 0 
L 2766 0 
L 2766 531 
Q 2569 213 2275 61 
Q 1981 -91 1556 -91 
Q 1019 -91 701 211 
Q 384 513 384 1019 
Q 384 1609 779 1909 
Q 1175 2209 1959 2209 
L 2766 2209 
L 2766 2266 
Q 2766 2663 2505 2880 
Q 2244 3097 1772 3097 
Q 1472 3097 1187 3025 
Q 903 2953 641 2809 
L 641 3341 
Q 956 3463 1253 3523 
Q 1550 3584 1831 3584 
Q 2591 3584 2966 3190 
Q 3341 2797 3341 1997 
z
" transform="scale(0.015625)"/>
      <path id="DejaVuSans-63" d="M 3122 3366 
L 3122 2828 
Q 2878 2963 2633 3030 
Q 2388 3097 2138 3097 
Q 1578 3097 1268 2742 
Q 959 2388 959 1747 
Q 959 1106 1268 751 
Q 1578 397 2138 397 
Q 2388 397 2633 464 
Q 2878 531 3122 666 
L 3122 134 
Q 2881 22 2623 -34 
Q 2366 -91 2075 -91 
Q 1284 -91 818 406 
Q 353 903 353 1747 
Q 353 2603 823 3093 
Q 1294 3584 2113 3584 
Q 2378 3584 2631 3529 
Q 2884 3475 3122 3366 
z
" transform="scale(0.015625)"/>
      <path id="DejaVuSans-20" transform="scale(0.015625)"/>
      <path id="Cmmi10-b8" d="M 325 109 
Q 325 203 409 288 
L 2209 2053 
L 1575 3834 
Q 1500 4038 1417 4156 
Q 1334 4275 1178 4275 
Q 1106 4275 1106 4359 
Q 1113 4397 1138 4419 
Q 1163 4441 1203 4441 
Q 1875 4441 2016 4044 
L 3316 416 
Q 3400 144 3488 50 
Q 3519 3 3519 -13 
Q 3519 -72 3469 -72 
L 3122 -72 
Q 2963 -25 2869 206 
L 2284 1844 
L 738 25 
Q 622 -84 531 -84 
Q 450 -84 387 -28 
Q 325 28 325 109 
z
" transform="scale(0.015625)"/>
     </defs>
     <use xlink:href="#DejaVuSans-65" transform="translate(0 0.015625)"/>
     <use xlink:href="#DejaVuSans-69" transform="translate(61.523438 0.015625)"/>
     <use xlink:href="#DejaVuSans-67" transform="translate(89.306641 0.015625)"/>
     <use xlink:href="#DejaVuSans-65" transform="translate(152.783203 0.015625)"/>
     <use xlink:href="#DejaVuSans-6e" transform="translate(214.306641 0.015625)"/>
     <use xlink:href="#DejaVuSans-73" transform="translate(277.685547 0.015625)"/>
     <use xlink:href="#DejaVuSans-70" transform="translate(329.785156 0.015625)"/>
     <use xlink:href="#DejaVuSans-61" transform="translate(393.261719 0.015625)"/>
     <use xlink:href="#DejaVuSans-63" transform="translate(454.541016 0.015625)"/>
     <use xlink:href="#DejaVuSans-65" transform="translate(509.521484 0.015625)"/>
     <use xlink:href="#DejaVuSans-20" transform="translate(571.044922 0.015625)"/>
     <use xlink:href="#Cmmi10-b8" transform="translate(602.832031 0.015625)"/>
     <use xlink:href="#Cmr10-3d" transform="translate(678.691406 0.015625)"/>
     <use xlink:href="#Cmr10-31" transform="translate(773.935547 0.015625)"/>
    </g>
   </g>
  </g>
 </g>
 <defs>
  <clipPath id="p10d7d89179">
   <rect x="7.2" y="7.2" width="221.76" height="221.76"/>
  </clipPath>
  <clipPath id="p4dfb2770b2">
   <rect x="278.759255" y="7.2" width="356.744348" height="221.76"/>
  </clipPath>
 </defs>
</svg>
