<?xml version="1.0" encoding="utf-8" standalone="no"?>
<!DOCTYPE svg PUBLIC "-//W3C//DTD SVG 1.1//EN"
  "http://www.w3.org/Graphics/SVG/1.1/DTD/svg11.dtd">
<svg xmlns:xlink="http://www.w3.org/1999/xlink" width="628.128261pt" height="270.870503pt" viewBox="0 0 628.128261 270.870503" xmlns="http://www.w3.org/2000/svg" version="1.1">
 <metadata>
  <rdf:RDF xmlns:dc="http://purl.org/dc/elements/1.1/" xmlns:cc="http://creativecommons.org/ns#" xmlns:rdf="http://www.w3.org/1999/02/22-rdf-syntax-ns#">
   <cc:Work>
    <dc:type rdf:resource="http://purl.org/dc/dcmitype/StillImage"/>
    <dc:format>image/svg+xml</dc:format>
    <dc:creator>
     <cc:Agent>
      <dc:title>Matplotlib v3.10.8, https://matplotlib.org/</dc:title>
     </cc:Agent>
    </dc:creator>
   </cc:Work>
  </rdf:RDF>
 </metadata>
 <defs>
  <style type="text/css">*{stroke-linejoin: round; stroke-linecap: butt}</style>
 </defs>
 <g id="figure_1">
  <g id="patch_1">
   <path d="M 0 270.870503 
L 628.128261 270.870503 
L 628.128261 0 
L 0 0 
z
" style="fill: #ffffff"/>
  </g>
  <g id="axes_1">
   <g id="FillBetweenPolyCollection_1">
    <defs>
     <path id="md1d7af2c3d" d="M 33.2 -263.670503 
L 33.2 -263.789303 
L 33.877483 -262.343478 
L 34.554966 -260.90346 
L 35.232448 -259.46925 
L 35.909931 -258.040847 
L 36.587414 -256.618252 
L 37.264897 -255.201465 
L 37.94238 -253.790485 
L 38.619862 -252.385313 
L 39.297345 -250.985949 
L 39.974828 -249.592392 
L 40.652311 -248.204643 
L 41.329794 -246.822702 
L 42.007276 -245.446568 
L 42.684759 -244.076242 
L 43.362242 -242.711723 
L 44.039725 -241.353012 
L 44.717207 -240.000109 
L 45.39469 -238.653013 
L 46.072173 -237.311725 
L 46.749656 -235.976245 
L 47.427139 -234.646572 
L 48.104621 -233.322706 
L 48.782104 -232.004649 
L 49.459587 -230.692399 
L 50.13707 -229.385957 
L 50.814553 -228.085322 
L 51.492035 -226.790495 
L 52.169518 -225.501475 
L 52.847001 -224.218264 
L 53.524484 -222.940859 
L 54.201967 -221.669263 
L 54.879449 -220.403474 
L 55.556932 -219.143493 
L 56.234415 -217.889319 
L 56.911898 -216.640953 
L 57.589381 -215.398395 
L 58.266863 -214.161644 
L 58.944346 -212.930701 
L 59.621829 -211.705565 
L 60.299312 -210.486237 
L 60.976794 -209.272717 
L 61.654277 -208.065004 
L 62.33176 -206.863099 
L 63.009243 -205.667002 
L 63.686726 -204.476712 
L 64.364208 -203.29223 
L 65.041691 -202.113555 
L 65.719174 -200.940689 
L 66.396657 -199.773629 
L 67.07414 -198.612378 
L 67.751622 -197.456934 
L 68.429105 -196.307297 
L 69.106588 -195.163469 
L 69.784071 -194.025447 
L 70.461554 -192.893234 
L 71.139036 -191.766828 
L 71.816519 -190.64623 
L 72.494002 -189.531439 
L 73.171485 -188.422456 
L 73.848968 -187.319281 
L 74.52645 -186.221913 
L 75.203933 -185.130353 
L 75.881416 -184.044601 
L 76.558899 -182.964656 
L 77.236382 -181.890519 
L 77.913864 -180.822189 
L 78.591347 -179.759667 
L 79.26883 -178.702953 
L 79.946313 -177.652046 
L 80.623795 -176.606947 
L 81.301278 -175.567656 
L 81.978761 -174.534172 
L 82.656244 -173.506496 
L 83.333727 -172.484627 
L 84.011209 -171.468566 
L 84.688692 -170.458313 
L 85.366175 -169.453867 
L 86.043658 -168.455229 
L 86.721141 -167.462399 
L 87.398623 -166.475376 
L 88.076106 -165.494161 
L 88.753589 -164.518753 
L 89.431072 -163.549153 
L 90.108555 -162.585361 
L 90.786037 -161.627376 
L 91.46352 -160.675199 
L 92.141003 -159.72883 
L 92.818486 -158.788268 
L 93.495969 -157.853514 
L 94.173451 -156.924567 
L 94.850934 -156.001429 
L 95.528417 -155.084097 
L 96.2059 -154.172574 
L 96.883382 -153.266858 
L 97.560865 -152.366949 
L 98.238348 -151.472849 
L 98.915831 -150.584555 
L 99.593314 -149.70207 
L 100.270796 -148.825392 
L 100.948279 -147.954522 
L 101.625762 -147.089459 
L 102.303245 -146.230204 
L 102.980728 -145.376757 
L 103.65821 -144.529117 
L 104.335693 -143.687285 
L 105.013176 -142.851261 
L 105.690659 -142.021044 
L 106.368142 -141.196635 
L 107.045624 -140.378033 
L 107.723107 -139.565239 
L 108.40059 -138.758253 
L 109.078073 -137.957074 
L 109.755556 -137.161703 
L 110.433038 -136.37214 
L 111.110521 -135.588384 
L 111.788004 -134.810436 
L 112.465487 -134.038295 
L 113.14297 -133.271962 
L 113.820452 -132.511437 
L 114.497935 -131.756719 
L 115.175418 -131.007809 
L 115.852901 -130.264707 
L 116.530383 -129.527412 
L 117.207866 -128.795925 
L 117.885349 -128.070245 
L 118.562832 -127.350373 
L 119.240315 -126.636309 
L 119.917797 -125.928052 
L 120.59528 -125.225603 
L 121.272763 -124.528962 
L 121.950246 -123.838128 
L 122.627729 -123.153102 
L 123.305211 -122.473883 
L 123.982694 -121.800473 
L 124.660177 -121.132869 
L 125.33766 -120.471074 
L 126.015143 -119.815086 
L 126.692625 -119.164905 
L 127.370108 -118.520533 
L 128.047591 -117.881967 
L 128.725074 -117.24921 
L 129.402557 -116.62226 
L 130.080039 -116.001118 
L 130.757522 -115.385783 
L 131.435005 -114.776256 
L 132.112488 -114.172537 
L 132.789971 -113.574625 
L 133.467453 -112.982521 
L 134.144936 -112.396225 
L 134.822419 -111.815736 
L 135.499902 -111.241055 
L 136.177384 -110.672181 
L 136.854867 -110.109115 
L 137.53235 -109.551857 
L 138.209833 -109.000406 
L 138.887316 -108.454763 
L 139.564798 -107.914927 
L 140.242281 -107.3809 
L 140.919764 -106.852679 
L 141.597247 -106.330267 
L 142.27473 -105.813662 
L 142.952212 -105.302865 
L 143.629695 -104.797875 
L 144.307178 -104.298693 
L 144.984661 -103.805319 
L 145.662144 -103.317752 
L 146.339626 -102.835993 
L 147.017109 -102.360041 
L 147.694592 -101.889897 
L 148.372075 -101.425561 
L 149.049558 -100.967032 
L 149.72704 -100.514311 
L 150.404523 -100.067398 
L 151.082006 -99.626292 
L 151.759489 -99.190994 
L 152.436971 -98.761503 
L 153.114454 -98.33782 
L 153.791937 -97.919945 
L 154.46942 -97.507878 
L 155.146903 -97.101618 
L 155.824385 -96.701165 
L 156.501868 -96.30652 
L 157.179351 -95.917683 
L 157.856834 -95.534654 
L 158.534317 -95.157432 
L 159.211799 -94.786018 
L 159.889282 -94.420411 
L 160.566765 -94.060612 
L 161.244248 -93.706621 
L 161.921731 -93.358437 
L 162.599213 -93.016061 
L 163.276696 -92.679492 
L 163.954179 -92.348732 
L 164.631662 -92.023778 
L 165.309145 -91.704633 
L 165.986627 -91.391295 
L 166.66411 -91.083765 
L 167.341593 -90.782042 
L 168.019076 -90.486127 
L 168.696559 -90.196019 
L 169.374041 -89.911719 
L 170.051524 -89.633227 
L 170.729007 -89.360543 
L 171.40649 -89.093666 
L 172.083972 -88.832596 
L 172.761455 -88.577335 
L 173.438938 -88.327881 
L 174.116421 -88.084234 
L 174.793904 -87.846396 
L 175.471386 -87.614364 
L 176.148869 -87.388141 
L 176.826352 -87.167725 
L 177.503835 -86.953117 
L 178.181318 -86.744316 
L 178.8588 -86.541323 
L 179.536283 -86.344138 
L 180.213766 -86.15276 
L 180.891249 -85.96719 
L 181.568732 -85.787427 
L 182.246214 -85.613472 
L 182.923697 -85.445325 
L 183.60118 -85.282985 
L 184.278663 -85.126453 
L 184.956146 -84.975729 
L 185.633628 -84.830812 
L 186.311111 -84.691703 
L 186.988594 -84.558402 
L 187.666077 -84.430908 
L 188.343559 -84.309221 
L 189.021042 -84.193343 
L 189.698525 -84.083272 
L 190.376008 -83.979008 
L 191.053491 -83.880553 
L 191.730973 -83.787905 
L 192.408456 -83.701064 
L 193.085939 -83.620031 
L 193.763422 -83.544806 
L 194.440905 -83.475389 
L 195.118387 -83.411779 
L 195.79587 -83.353976 
L 196.473353 -83.301982 
L 197.150836 -83.255794 
L 197.828319 -83.215415 
L 198.505801 -83.180843 
L 199.183284 -83.152079 
L 199.860767 -83.129122 
L 200.53825 -83.111973 
L 201.215733 -83.100632 
L 201.893215 -83.095098 
L 202.570698 -83.095372 
L 203.248181 -83.101454 
L 203.925664 -83.113343 
L 204.603147 -83.13104 
L 205.280629 -83.154544 
L 205.958112 -83.183857 
L 206.635595 -83.218976 
L 207.313078 -83.259904 
L 207.99056 -83.306639 
L 208.668043 -83.359181 
L 209.345526 -83.417531 
L 210.023009 -83.481689 
L 210.700492 -83.551655 
L 211.377974 -83.627428 
L 212.055457 -83.709009 
L 212.73294 -83.796397 
L 213.410423 -83.889593 
L 214.087906 -83.988597 
L 214.765388 -84.093408 
L 215.442871 -84.204027 
L 216.120354 -84.320453 
L 216.797837 -84.442687 
L 217.47532 -84.570729 
L 218.152802 -84.704578 
L 218.830285 -84.844235 
L 219.507768 -84.9897 
L 220.185251 -85.140972 
L 220.862734 -85.298052 
L 221.540216 -85.46094 
L 222.217699 -85.629635 
L 222.895182 -85.804138 
L 223.572665 -85.984448 
L 224.250147 -86.170566 
L 224.92763 -86.362492 
L 225.605113 -86.560225 
L 226.282596 -86.763766 
L 226.960079 -86.973115 
L 227.637561 -87.188271 
L 228.315044 -87.409235 
L 228.992527 -87.636006 
L 229.67001 -87.868585 
L 230.347493 -88.106972 
L 231.024975 -88.351166 
L 231.702458 -88.601168 
L 232.379941 -88.856978 
L 233.057424 -89.118595 
L 233.734907 -89.38602 
L 234.412389 -89.659252 
L 235.089872 -89.938292 
L 235.767355 -90.22314 
L 236.444838 -90.513795 
L 237.122321 -90.810258 
L 237.799803 -91.112529 
L 238.477286 -91.420607 
L 239.154769 -91.734493 
L 239.832252 -92.054186 
L 240.509735 -92.379687 
L 241.187217 -92.710996 
L 241.8647 -93.048112 
L 242.542183 -93.391036 
L 243.219666 -93.739768 
L 243.897148 -94.094307 
L 244.574631 -94.454654 
L 245.252114 -94.820809 
L 245.929597 -95.192771 
L 246.60708 -95.570541 
L 247.284562 -95.954118 
L 247.962045 -96.343503 
L 248.639528 -96.738696 
L 249.317011 -97.139696 
L 249.994494 -97.546504 
L 250.671976 -97.959119 
L 251.349459 -98.377542 
L 252.026942 -98.801773 
L 252.704425 -99.231812 
L 253.381908 -99.667658 
L 254.05939 -100.109311 
L 254.736873 -100.556773 
L 255.414356 -101.010041 
L 256.091839 -101.469118 
L 256.769322 -101.934002 
L 257.446804 -102.404694 
L 258.124287 -102.881193 
L 258.80177 -103.3635 
L 259.479253 -103.851615 
L 260.156735 -104.345537 
L 260.834218 -104.845267 
L 261.511701 -105.350805 
L 262.189184 -105.86215 
L 262.866667 -106.379303 
L 262.866667 -263.670503 
L 262.866667 -263.670503 
L 262.189184 -263.670503 
L 261.511701 -263.670503 
L 260.834218 -263.670503 
L 260.156735 -263.670503 
L 259.479253 -263.670503 
L 258.80177 -263.670503 
L 258.124287 -263.670503 
L 257.446804 -263.670503 
L 256.769322 -263.670503 
L 256.091839 -263.670503 
L 255.414356 -263.670503 
L 254.736873 -263.670503 
L 254.05939 -263.670503 
L 253.381908 -263.670503 
L 252.704425 -263.670503 
L 252.026942 -263.670503 
L 251.349459 -263.670503 
L 250.671976 -263.670503 
L 249.994494 -263.670503 
L 249.317011 -263.670503 
L 248.639528 -263.670503 
L 247.962045 -263.670503 
L 247.284562 -263.670503 
L 246.60708 -263.670503 
L 245.929597 -263.670503 
L 245.252114 -263.670503 
L 244.574631 -263.670503 
L 243.897148 -263.670503 
L 243.219666 -263.670503 
L 242.542183 -263.670503 
L 241.8647 -263.670503 
L 241.187217 -263.670503 
L 240.509735 -263.670503 
L 239.832252 -263.670503 
L 239.154769 -263.670503 
L 238.477286 -263.670503 
L 237.799803 -263.670503 
L 237.122321 -263.670503 
L 236.444838 -263.670503 
L 235.767355 -263.670503 
L 235.089872 -263.670503 
L 234.412389 -263.670503 
L 233.734907 -263.670503 
L 233.057424 -263.670503 
L 232.379941 -263.670503 
L 231.702458 -263.670503 
L 231.024975 -263.670503 
L 230.347493 -263.670503 
L 229.67001 -263.670503 
L 228.992527 -263.670503 
L 228.315044 -263.670503 
L 227.637561 -263.670503 
L 226.960079 -263.670503 
L 226.282596 -263.670503 
L 225.605113 -263.670503 
L 224.92763 -263.670503 
L 224.250147 -263.670503 
L 223.572665 -263.670503 
L 222.895182 -263.670503 
L 222.217699 -263.670503 
L 221.540216 -263.670503 
L 220.862734 -263.670503 
L 220.185251 -263.670503 
L 219.507768 -263.670503 
L 218.830285 -263.670503 
L 218.152802 -263.670503 
L 217.47532 -263.670503 
L 216.797837 -263.670503 
L 216.120354 -263.670503 
L 215.442871 -263.670503 
L 214.765388 -263.670503 
L 214.087906 -263.670503 
L 213.410423 -263.670503 
L 212.73294 -263.670503 
L 212.055457 -263.670503 
L 211.377974 -263.670503 
L 210.700492 -263.670503 
L 210.023009 -263.670503 
L 209.345526 -263.670503 
L 208.668043 -263.670503 
L 207.99056 -263.670503 
L 207.313078 -263.670503 
L 206.635595 -263.670503 
L 205.958112 -263.670503 
L 205.280629 -263.670503 
L 204.603147 -263.670503 
L 203.925664 -263.670503 
L 203.248181 -263.670503 
L 202.570698 -263.670503 
L 201.893215 -263.670503 
L 201.215733 -263.670503 
L 200.53825 -263.670503 
L 199.860767 -263.670503 
L 199.183284 -263.670503 
L 198.505801 -263.670503 
L 197.828319 -263.670503 
L 197.150836 -263.670503 
L 196.473353 -263.670503 
L 195.79587 -263.670503 
L 195.118387 -263.670503 
L 194.440905 -263.670503 
L 193.763422 -263.670503 
L 193.085939 -263.670503 
L 192.408456 -263.670503 
L 191.730973 -263.670503 
L 191.053491 -263.670503 
L 190.376008 -263.670503 
L 189.698525 -263.670503 
L 189.021042 -263.670503 
L 188.343559 -263.670503 
L 187.666077 -263.670503 
L 186.988594 -263.670503 
L 186.311111 -263.670503 
L 185.633628 -263.670503 
L 184.956146 -263.670503 
L 184.278663 -263.670503 
L 183.60118 -263.670503 
L 182.923697 -263.670503 
L 182.246214 -263.670503 
L 181.568732 -263.670503 
L 180.891249 -263.670503 
L 180.213766 -263.670503 
L 179.536283 -263.670503 
L 178.8588 -263.670503 
L 178.181318 -263.670503 
L 177.503835 -263.670503 
L 176.826352 -263.670503 
L 176.148869 -263.670503 
L 175.471386 -263.670503 
L 174.793904 -263.670503 
L 174.116421 -263.670503 
L 173.438938 -263.670503 
L 172.761455 -263.670503 
L 172.083972 -263.670503 
L 171.40649 -263.670503 
L 170.729007 -263.670503 
L 170.051524 -263.670503 
L 169.374041 -263.670503 
L 168.696559 -263.670503 
L 168.019076 -263.670503 
L 167.341593 -263.670503 
L 166.66411 -263.670503 
L 165.986627 -263.670503 
L 165.309145 -263.670503 
L 164.631662 -263.670503 
L 163.954179 -263.670503 
L 163.276696 -263.670503 
L 162.599213 -263.670503 
L 161.921731 -263.670503 
L 161.244248 -263.670503 
L 160.566765 -263.670503 
L 159.889282 -263.670503 
L 159.211799 -263.670503 
L 158.534317 -263.670503 
L 157.856834 -263.670503 
L 157.179351 -263.670503 
L 156.501868 -263.670503 
L 155.824385 -263.670503 
L 155.146903 -263.670503 
L 154.46942 -263.670503 
L 153.791937 -263.670503 
L 153.114454 -263.670503 
L 152.436971 -263.670503 
L 151.759489 -263.670503 
L 151.082006 -263.670503 
L 150.404523 -263.670503 
L 149.72704 -263.670503 
L 149.049558 -263.670503 
L 148.372075 -263.670503 
L 147.694592 -263.670503 
L 147.017109 -263.670503 
L 146.339626 -263.670503 
L 145.662144 -263.670503 
L 144.984661 -263.670503 
L 144.307178 -263.670503 
L 143.629695 -263.670503 
L 142.952212 -263.670503 
L 142.27473 -263.670503 
L 141.597247 -263.670503 
L 140.919764 -263.670503 
L 140.242281 -263.670503 
L 139.564798 -263.670503 
L 138.887316 -263.670503 
L 138.209833 -263.670503 
L 137.53235 -263.670503 
L 136.854867 -263.670503 
L 136.177384 -263.670503 
L 135.499902 -263.670503 
L 134.822419 -263.670503 
L 134.144936 -263.670503 
L 133.467453 -263.670503 
L 132.789971 -263.670503 
L 132.112488 -263.670503 
L 131.435005 -263.670503 
L 130.757522 -263.670503 
L 130.080039 -263.670503 
L 129.402557 -263.670503 
L 128.725074 -263.670503 
L 128.047591 -263.670503 
L 127.370108 -263.670503 
L 126.692625 -263.670503 
L 126.015143 -263.670503 
L 125.33766 -263.670503 
L 124.660177 -263.670503 
L 123.982694 -263.670503 
L 123.305211 -263.670503 
L 122.627729 -263.670503 
L 121.950246 -263.670503 
L 121.272763 -263.670503 
L 120.59528 -263.670503 
L 119.917797 -263.670503 
L 119.240315 -263.670503 
L 118.562832 -263.670503 
L 117.885349 -263.670503 
L 117.207866 -263.670503 
L 116.530383 -263.670503 
L 115.852901 -263.670503 
L 115.175418 -263.670503 
L 114.497935 -263.670503 
L 113.820452 -263.670503 
L 113.14297 -263.670503 
L 112.465487 -263.670503 
L 111.788004 -263.670503 
L 111.110521 -263.670503 
L 110.433038 -263.670503 
L 109.755556 -263.670503 
L 109.078073 -263.670503 
L 108.40059 -263.670503 
L 107.723107 -263.670503 
L 107.045624 -263.670503 
L 106.368142 -263.670503 
L 105.690659 -263.670503 
L 105.013176 -263.670503 
L 104.335693 -263.670503 
L 103.65821 -263.670503 
L 102.980728 -263.670503 
L 102.303245 -263.670503 
L 101.625762 -263.670503 
L 100.948279 -263.670503 
L 100.270796 -263.670503 
L 99.593314 -263.670503 
L 98.915831 -263.670503 
L 98.238348 -263.670503 
L 97.560865 -263.670503 
L 96.883382 -263.670503 
L 96.2059 -263.670503 
L 95.528417 -263.670503 
L 94.850934 -263.670503 
L 94.173451 -263.670503 
L 93.495969 -263.670503 
L 92.818486 -263.670503 
L 92.141003 -263.670503 
L 91.46352 -263.670503 
L 90.786037 -263.670503 
L 90.108555 -263.670503 
L 89.431072 -263.670503 
L 88.753589 -263.670503 
L 88.076106 -263.670503 
L 87.398623 -263.670503 
L 86.721141 -263.670503 
L 86.043658 -263.670503 
L 85.366175 -263.670503 
L 84.688692 -263.670503 
L 84.011209 -263.670503 
L 83.333727 -263.670503 
L 82.656244 -263.670503 
L 81.978761 -263.670503 
L 81.301278 -263.670503 
L 80.623795 -263.670503 
L 79.946313 -263.670503 
L 79.26883 -263.670503 
L 78.591347 -263.670503 
L 77.913864 -263.670503 
L 77.236382 -263.670503 
L 76.558899 -263.670503 
L 75.881416 -263.670503 
L 75.203933 -263.670503 
L 74.52645 -263.670503 
L 73.848968 -263.670503 
L 73.171485 -263.670503 
L 72.494002 -263.670503 
L 71.816519 -263.670503 
L 71.139036 -263.670503 
L 70.461554 -263.670503 
L 69.784071 -263.670503 
L 69.106588 -263.670503 
L 68.429105 -263.670503 
L 67.751622 -263.670503 
L 67.07414 -263.670503 
L 66.396657 -263.670503 
L 65.719174 -263.670503 
L 65.041691 -263.670503 
L 64.364208 -263.670503 
L 63.686726 -263.670503 
L 63.009243 -263.670503 
L 62.33176 -263.670503 
L 61.654277 -263.670503 
L 60.976794 -263.670503 
L 60.299312 -263.670503 
L 59.621829 -263.670503 
L 58.944346 -263.670503 
L 58.266863 -263.670503 
L 57.589381 -263.670503 
L 56.911898 -263.670503 
L 56.234415 -263.670503 
L 55.556932 -263.670503 
L 54.879449 -263.670503 
L 54.201967 -263.670503 
L 53.524484 -263.670503 
L 52.847001 -263.670503 
L 52.169518 -263.670503 
L 51.492035 -263.670503 
L 50.814553 -263.670503 
L 50.13707 -263.670503 
L 49.459587 -263.670503 
L 48.782104 -263.670503 
L 48.104621 -263.670503 
L 47.427139 -263.670503 
L 46.749656 -263.670503 
L 46.072173 -263.670503 
L 45.39469 -263.670503 
L 44.717207 -263.670503 
L 44.039725 -263.670503 
L 43.362242 -263.670503 
L 42.684759 -263.670503 
L 42.007276 -263.670503 
L 41.329794 -263.670503 
L 40.652311 -263.670503 
L 39.974828 -263.670503 
L 39.297345 -263.670503 
L 38.619862 -263.670503 
L 37.94238 -263.670503 
L 37.264897 -263.670503 
L 36.587414 -263.670503 
L 35.909931 -263.670503 
L 35.232448 -263.670503 
L 34.554966 -263.670503 
L 33.877483 -263.670503 
L 33.2 -263.670503 
z
"/>
    </defs>
    <g clip-path="url(#pbbe956b761)">
     <use xlink:href="#md1d7af2c3d" x="0" y="270.870503" style="fill: #1f77b4; fill-opacity: 0.08"/>
    </g>
   </g>
   <g id="line2d_1">
    <path d="M 33.2 7.0812 
L 39.974828 21.278111 
L 46.072173 33.558778 
L 52.169518 45.369028 
L 58.266863 56.708859 
L 64.364208 67.578273 
L 70.461554 77.977269 
L 76.558899 87.905847 
L 81.978761 96.336331 
L 87.398623 104.395127 
L 92.818486 112.082235 
L 98.238348 119.397654 
L 103.65821 126.341386 
L 109.078073 132.913429 
L 114.497935 139.113784 
L 119.917797 144.942451 
L 124.660177 149.737634 
L 129.402557 154.248243 
L 134.144936 158.474278 
L 138.887316 162.41574 
L 143.629695 166.072628 
L 148.372075 169.444942 
L 153.114454 172.532683 
L 157.856834 175.335849 
L 162.599213 177.854442 
L 167.341593 180.088461 
L 171.40649 181.776837 
L 175.471386 183.256139 
L 179.536283 184.526366 
L 183.60118 185.587518 
L 187.666077 186.439595 
L 191.730973 187.082598 
L 195.79587 187.516527 
L 199.860767 187.741381 
L 203.925664 187.75716 
L 207.99056 187.563864 
L 212.055457 187.161494 
L 216.120354 186.55005 
L 220.185251 185.729531 
L 224.250147 184.699937 
L 228.315044 183.461268 
L 232.379941 182.013525 
L 236.444838 180.356708 
L 240.509735 178.490816 
L 245.252114 176.049694 
L 249.994494 173.323999 
L 254.736873 170.31373 
L 259.479253 167.018888 
L 262.866667 164.4912 
L 262.866667 164.4912 
" clip-path="url(#pbbe956b761)" style="fill: none; stroke: #1f77b4; stroke-width: 2; stroke-linecap: square"/>
   </g>
   <g id="line2d_2">
    <path d="M 67.866667 87.984 
L 229.933333 265.7088 
" clip-path="url(#pbbe956b761)" style="fill: none; stroke: #2ca02c; stroke-width: 2; stroke-linecap: square"/>
   </g>
   <g id="text_1">
    <!-- $d^\star=p^\star$ -->
    <g transform="translate(129.4 129.267344) scale(0.11 -0.11)">
     <defs>
      <path id="Cmmi10-64" d="M 1113 -72 
Q 709 -72 476 233 
Q 244 538 244 953 
Q 244 1363 456 1803 
Q 669 2244 1030 2536 
Q 1391 2828 1806 2828 
Q 1994 2828 2145 2723 
Q 2297 2619 2381 2444 
L 2741 3872 
Q 2766 3981 2772 4044 
Q 2772 4147 2356 4147 
Q 2291 4147 2291 4231 
Q 2294 4247 2305 4287 
Q 2316 4328 2333 4350 
Q 2350 4372 2381 4372 
L 3244 4441 
Q 3322 4441 3322 4359 
L 2400 678 
Q 2356 572 2356 372 
Q 2356 97 2541 97 
Q 2741 97 2845 351 
Q 2950 606 3022 941 
Q 3034 978 3072 978 
L 3150 978 
Q 3175 978 3190 956 
Q 3206 934 3206 916 
Q 3094 469 2961 198 
Q 2828 -72 2528 -72 
Q 2313 -72 2147 54 
Q 1981 181 1941 391 
Q 1528 -72 1113 -72 
z
M 1119 97 
Q 1350 97 1567 270 
Q 1784 444 1941 678 
Q 1947 684 1947 703 
L 2297 2113 
Q 2259 2338 2131 2500 
Q 2003 2663 1791 2663 
Q 1575 2663 1389 2486 
Q 1203 2309 1075 2069 
Q 950 1813 836 1366 
Q 722 919 722 672 
Q 722 450 817 273 
Q 913 97 1119 97 
z
" transform="scale(0.015625)"/>
      <path id="STIXGeneral-Regular-22c6" d="M 4256 2336 
L 2810 1459 
L 3494 -83 
L 2240 1062 
L 986 -83 
L 1670 1459 
L 224 2336 
L 1901 2144 
L 2240 3821 
L 2579 2144 
L 4256 2336 
z
" transform="scale(0.015625)"/>
      <path id="Cmr10-3d" d="M 481 850 
Q 428 850 393 890 
Q 359 931 359 978 
Q 359 1031 393 1068 
Q 428 1106 481 1106 
L 4500 1106 
Q 4547 1106 4581 1068 
Q 4616 1031 4616 978 
Q 4616 931 4581 890 
Q 4547 850 4500 850 
L 481 850 
z
M 481 2094 
Q 428 2094 393 2131 
Q 359 2169 359 2222 
Q 359 2269 393 2309 
Q 428 2350 481 2350 
L 4500 2350 
Q 4547 2350 4581 2309 
Q 4616 2269 4616 2222 
Q 4616 2169 4581 2131 
Q 4547 2094 4500 2094 
L 481 2094 
z
" transform="scale(0.015625)"/>
      <path id="Cmmi10-70" d="M -159 -1241 
Q -219 -1241 -219 -1159 
Q -197 -1019 -134 -1019 
Q 66 -1019 145 -983 
Q 225 -947 269 -800 
L 991 2081 
Q 1038 2200 1038 2388 
Q 1038 2663 850 2663 
Q 650 2663 553 2423 
Q 456 2184 366 1819 
Q 366 1778 313 1778 
L 238 1778 
Q 222 1778 203 1801 
Q 184 1825 184 1844 
Q 253 2122 317 2315 
Q 381 2509 517 2668 
Q 653 2828 856 2828 
Q 1075 2828 1240 2704 
Q 1406 2581 1453 2369 
Q 1628 2572 1840 2700 
Q 2053 2828 2278 2828 
Q 2547 2828 2745 2684 
Q 2944 2541 3044 2308 
Q 3144 2075 3144 1806 
Q 3144 1394 2933 953 
Q 2722 513 2361 220 
Q 2000 -72 1588 -72 
Q 1400 -72 1248 34 
Q 1097 141 1013 313 
L 722 -825 
Q 706 -919 703 -934 
Q 703 -1019 1125 -1019 
Q 1191 -1019 1191 -1100 
Q 1169 -1184 1155 -1212 
Q 1141 -1241 1081 -1241 
L -159 -1241 
z
M 1594 97 
Q 1816 97 2006 280 
Q 2197 463 2316 691 
Q 2403 863 2479 1111 
Q 2556 1359 2612 1640 
Q 2669 1922 2669 2088 
Q 2669 2234 2630 2362 
Q 2591 2491 2502 2577 
Q 2413 2663 2266 2663 
Q 2031 2663 1823 2495 
Q 1616 2328 1447 2081 
L 1447 2059 
L 1094 647 
Q 1138 419 1263 258 
Q 1388 97 1594 97 
z
" transform="scale(0.015625)"/>
     </defs>
     <use xlink:href="#Cmmi10-64" transform="translate(0 0.94375)"/>
     <use xlink:href="#STIXGeneral-Regular-22c6" transform="translate(75.888906 39.207812) scale(0.7)"/>
     <use xlink:href="#Cmr10-3d" transform="translate(161.115849 0.94375)"/>
     <use xlink:href="#Cmmi10-70" transform="translate(256.359989 0.94375)"/>
     <use xlink:href="#STIXGeneral-Regular-22c6" transform="translate(325.247255 39.207812) scale(0.7)"/>
    </g>
   </g>
   <g id="text_2">
    <!-- feasible -->
    <g style="fill: #ff7f0e" transform="translate(13.445521 107.670116) scale(0.11 -0.11)">
     <defs>
      <path id="DejaVuSans-66" d="M 2375 4863 
L 2375 4384 
L 1825 4384 
Q 1516 4384 1395 4259 
Q 1275 4134 1275 3809 
L 1275 3500 
L 2222 3500 
L 2222 3053 
L 1275 3053 
L 1275 0 
L 697 0 
L 697 3053 
L 147 3053 
L 147 3500 
L 697 3500 
L 697 3744 
Q 697 4328 969 4595 
Q 1241 4863 1831 4863 
L 2375 4863 
z
" transform="scale(0.015625)"/>
      <path id="DejaVuSans-65" d="M 3597 1894 
L 3597 1613 
L 953 1613 
Q 991 1019 1311 708 
Q 1631 397 2203 397 
Q 2534 397 2845 478 
Q 3156 559 3463 722 
L 3463 178 
Q 3153 47 2828 -22 
Q 2503 -91 2169 -91 
Q 1331 -91 842 396 
Q 353 884 353 1716 
Q 353 2575 817 3079 
Q 1281 3584 2069 3584 
Q 2775 3584 3186 3129 
Q 3597 2675 3597 1894 
z
M 3022 2063 
Q 3016 2534 2758 2815 
Q 2500 3097 2075 3097 
Q 1594 3097 1305 2825 
Q 1016 2553 972 2059 
L 3022 2063 
z
" transform="scale(0.015625)"/>
      <path id="DejaVuSans-61" d="M 2194 1759 
Q 1497 1759 1228 1600 
Q 959 1441 959 1056 
Q 959 750 1161 570 
Q 1363 391 1709 391 
Q 2188 391 2477 730 
Q 2766 1069 2766 1631 
L 2766 1759 
L 2194 1759 
z
M 3341 1997 
L 3341 0 
L 2766 0 
L 2766 531 
Q 2569 213 2275 61 
Q 1981 -91 1556 -91 
Q 1019 -91 701 211 
Q 384 513 384 1019 
Q 384 1609 779 1909 
Q 1175 2209 1959 2209 
L 2766 2209 
L 2766 2266 
Q 2766 2663 2505 2880 
Q 2244 3097 1772 3097 
Q 1472 3097 1187 3025 
Q 903 2953 641 2809 
L 641 3341 
Q 956 3463 1253 3523 
Q 1550 3584 1831 3584 
Q 2591 3584 2966 3190 
Q 3341 2797 3341 1997 
z
" transform="scale(0.015625)"/>
      <path id="DejaVuSans-73" d="M 2834 3397 
L 2834 2853 
Q 2591 2978 2328 3040 
Q 2066 3103 1784 3103 
Q 1356 3103 1142 2972 
Q 928 2841 928 2578 
Q 928 2378 1081 2264 
Q 1234 2150 1697 2047 
L 1894 2003 
Q 2506 1872 2764 1633 
Q 3022 1394 3022 966 
Q 3022 478 2636 193 
Q 2250 -91 1575 -91 
Q 1294 -91 989 -36 
Q 684 19 347 128 
L 347 722 
Q 666 556 975 473 
Q 1284 391 1588 391 
Q 1994 391 2212 530 
Q 2431 669 2431 922 
Q 2431 1156 2273 1281 
Q 2116 1406 1581 1522 
L 1381 1569 
Q 847 1681 609 1914 
Q 372 2147 372 2553 
Q 372 3047 722 3315 
Q 1072 3584 1716 3584 
Q 2034 3584 2315 3537 
Q 2597 3491 2834 3397 
z
" transform="scale(0.015625)"/>
      <path id="DejaVuSans-69" d="M 603 3500 
L 1178 3500 
L 1178 0 
L 603 0 
L 603 3500 
z
M 603 4863 
L 1178 4863 
L 1178 4134 
L 603 4134 
L 603 4863 
z
" transform="scale(0.015625)"/>
      <path id="DejaVuSans-62" d="M 3116 1747 
Q 3116 2381 2855 2742 
Q 2594 3103 2138 3103 
Q 1681 3103 1420 2742 
Q 1159 2381 1159 1747 
Q 1159 1113 1420 752 
Q 1681 391 2138 391 
Q 2594 391 2855 752 
Q 3116 1113 3116 1747 
z
M 1159 2969 
Q 1341 3281 1617 3432 
Q 1894 3584 2278 3584 
Q 2916 3584 3314 3078 
Q 3713 2572 3713 1747 
Q 3713 922 3314 415 
Q 2916 -91 2278 -91 
Q 1894 -91 1617 61 
Q 1341 213 1159 525 
L 1159 0 
L 581 0 
L 581 4863 
L 1159 4863 
L 1159 2969 
z
" transform="scale(0.015625)"/>
      <path id="DejaVuSans-6c" d="M 603 4863 
L 1178 4863 
L 1178 0 
L 603 0 
L 603 4863 
z
" transform="scale(0.015625)"/>
     </defs>
     <use xlink:href="#DejaVuSans-66"/>
     <use xlink:href="#DejaVuSans-65" transform="translate(35.205078 0)"/>
     <use xlink:href="#DejaVuSans-61" transform="translate(96.728516 0)"/>
     <use xlink:href="#DejaVuSans-73" transform="translate(158.007812 0)"/>
     <use xlink:href="#DejaVuSans-69" transform="translate(210.107422 0)"/>
     <use xlink:href="#DejaVuSans-62" transform="translate(237.890625 0)"/>
     <use xlink:href="#DejaVuSans-6c" transform="translate(301.367188 0)"/>
     <use xlink:href="#DejaVuSans-65" transform="translate(329.150391 0)"/>
    </g>
    <!-- slice $u\leq0$ -->
    <g style="fill: #ff7f0e" transform="translate(8.753333 119.987709) scale(0.11 -0.11)">
     <defs>
      <path id="DejaVuSans-63" d="M 3122 3366 
L 3122 2828 
Q 2878 2963 2633 3030 
Q 2388 3097 2138 3097 
Q 1578 3097 1268 2742 
Q 959 2388 959 1747 
Q 959 1106 1268 751 
Q 1578 397 2138 397 
Q 2388 397 2633 464 
Q 2878 531 3122 666 
L 3122 134 
Q 2881 22 2623 -34 
Q 2366 -91 2075 -91 
Q 1284 -91 818 406 
Q 353 903 353 1747 
Q 353 2603 823 3093 
Q 1294 3584 2113 3584 
Q 2378 3584 2631 3529 
Q 2884 3475 3122 3366 
z
" transform="scale(0.015625)"/>
      <path id="DejaVuSans-20" transform="scale(0.015625)"/>
      <path id="Cmmi10-75" d="M 678 697 
Q 678 906 734 1126 
Q 791 1347 892 1617 
Q 994 1888 1069 2088 
Q 1153 2322 1153 2472 
Q 1153 2663 1013 2663 
Q 759 2663 595 2402 
Q 431 2141 353 1819 
Q 341 1778 300 1778 
L 225 1778 
Q 172 1778 172 1838 
L 172 1856 
Q 275 2238 487 2533 
Q 700 2828 1025 2828 
Q 1253 2828 1411 2678 
Q 1569 2528 1569 2297 
Q 1569 2178 1516 2047 
Q 1488 1969 1388 1706 
Q 1288 1444 1234 1272 
Q 1181 1100 1147 934 
Q 1113 769 1113 603 
Q 1113 391 1203 244 
Q 1294 97 1497 97 
Q 1906 97 2216 603 
Q 2222 628 2226 651 
Q 2231 675 2234 697 
L 2694 2553 
Q 2716 2638 2794 2698 
Q 2872 2759 2963 2759 
Q 3041 2759 3098 2709 
Q 3156 2659 3156 2578 
Q 3156 2541 3150 2528 
L 2688 684 
Q 2644 494 2644 372 
Q 2644 97 2828 97 
Q 3034 97 3136 351 
Q 3238 606 3309 941 
Q 3322 978 3359 978 
L 3438 978 
Q 3463 978 3478 956 
Q 3494 934 3494 916 
Q 3425 641 3361 444 
Q 3297 247 3159 87 
Q 3022 -72 2816 -72 
Q 2613 -72 2452 39 
Q 2291 150 2234 341 
Q 2088 153 1894 40 
Q 1700 -72 1484 -72 
Q 1116 -72 897 129 
Q 678 331 678 697 
z
" transform="scale(0.015625)"/>
      <path id="Cmsy10-2219" d="M 653 -878 
Q 600 -878 565 -837 
Q 531 -797 531 -750 
Q 531 -697 565 -659 
Q 600 -622 653 -622 
L 4325 -622 
Q 4375 -622 4408 -659 
Q 4441 -697 4441 -750 
Q 4441 -797 4408 -837 
Q 4375 -878 4325 -878 
L 653 -878 
z
M 594 2113 
Q 531 2131 531 2222 
Q 531 2303 616 2338 
L 4269 4063 
Q 4281 4072 4313 4072 
Q 4366 4072 4403 4034 
Q 4441 3997 4441 3944 
Q 4441 3859 4366 3828 
L 959 2222 
L 4384 603 
Q 4441 572 4441 494 
Q 4441 438 4403 402 
Q 4366 366 4313 366 
Q 4281 366 4269 378 
L 594 2113 
z
" transform="scale(0.015625)"/>
      <path id="Cmr10-30" d="M 1600 -141 
Q 816 -141 533 504 
Q 250 1150 250 2041 
Q 250 2597 351 3087 
Q 453 3578 754 3920 
Q 1056 4263 1600 4263 
Q 2022 4263 2290 4056 
Q 2559 3850 2700 3523 
Q 2841 3197 2892 2823 
Q 2944 2450 2944 2041 
Q 2944 1491 2842 1011 
Q 2741 531 2444 195 
Q 2147 -141 1600 -141 
z
M 1600 25 
Q 1956 25 2131 390 
Q 2306 756 2347 1200 
Q 2388 1644 2388 2144 
Q 2388 2625 2347 3031 
Q 2306 3438 2132 3767 
Q 1959 4097 1600 4097 
Q 1238 4097 1063 3765 
Q 888 3434 847 3029 
Q 806 2625 806 2144 
Q 806 1788 823 1472 
Q 841 1156 916 820 
Q 991 484 1158 254 
Q 1325 25 1600 25 
z
" transform="scale(0.015625)"/>
     </defs>
     <use xlink:href="#DejaVuSans-73" transform="translate(0 0.015625)"/>
     <use xlink:href="#DejaVuSans-6c" transform="translate(52.099609 0.015625)"/>
     <use xlink:href="#DejaVuSans-69" transform="translate(79.882812 0.015625)"/>
     <use xlink:href="#DejaVuSans-63" transform="translate(107.666016 0.015625)"/>
     <use xlink:href="#DejaVuSans-65" transform="translate(162.646484 0.015625)"/>
     <use xlink:href="#DejaVuSans-20" transform="translate(224.169922 0.015625)"/>
     <use xlink:href="#Cmmi10-75" transform="translate(255.957031 0.015625)"/>
     <use xlink:href="#Cmsy10-2219" transform="translate(330.693359 0.015625)"/>
     <use xlink:href="#Cmr10-30" transform="translate(425.9375 0.015625)"/>
    </g>
   </g>
   <g id="text_3">
    <!-- $G=\{(g(x),f_0(x))\}$ -->
    <g style="fill: #1f77b4" transform="translate(122.466667 115.759) scale(0.11 -0.11)">
     <defs>
      <path id="Cmmi10-47" d="M 934 1403 
Q 934 1006 1092 707 
Q 1250 409 1547 246 
Q 1844 84 2234 84 
Q 2616 84 2959 264 
Q 3303 444 3391 781 
L 3531 1331 
Q 3534 1350 3537 1370 
Q 3541 1391 3541 1403 
Q 3541 1469 3500 1478 
Q 3341 1522 2859 1522 
Q 2797 1522 2797 1606 
Q 2816 1684 2831 1715 
Q 2847 1747 2906 1747 
L 4556 1747 
Q 4622 1747 4622 1663 
Q 4619 1647 4609 1609 
Q 4600 1572 4584 1547 
Q 4569 1522 4538 1522 
Q 4325 1522 4226 1487 
Q 4128 1453 4091 1306 
L 3950 756 
L 3769 44 
Q 3759 0 3713 0 
Q 3659 0 3559 144 
Q 3459 288 3419 384 
Q 3197 122 2825 -9 
Q 2453 -141 2059 -141 
Q 1563 -141 1164 84 
Q 766 309 545 709 
Q 325 1109 325 1613 
Q 325 2150 564 2673 
Q 803 3197 1212 3611 
Q 1622 4025 2142 4269 
Q 2663 4513 3194 4513 
Q 3406 4513 3601 4447 
Q 3797 4381 3964 4251 
Q 4131 4122 4238 3950 
L 4744 4500 
Q 4744 4513 4775 4513 
L 4813 4513 
Q 4838 4513 4855 4492 
Q 4872 4472 4872 4447 
L 4434 2719 
Q 4434 2675 4384 2675 
L 4269 2675 
Q 4219 2675 4219 2747 
Q 4244 2888 4244 3078 
Q 4244 3394 4137 3672 
Q 4031 3950 3806 4119 
Q 3581 4288 3256 4288 
Q 2741 4288 2303 4027 
Q 1866 3766 1562 3337 
Q 1259 2909 1096 2396 
Q 934 1884 934 1403 
z
" transform="scale(0.015625)"/>
      <path id="Cmex10-a9" d="M 1631 -6425 
L 1631 -4556 
Q 1631 -4338 1503 -4159 
Q 1375 -3981 1184 -3867 
Q 994 -3753 756 -3675 
Q 709 -3650 709 -3622 
L 709 -3547 
Q 709 -3503 756 -3494 
Q 1128 -3366 1379 -3150 
Q 1631 -2934 1631 -2606 
L 1631 -738 
Q 1631 -325 2004 -95 
Q 2378 134 2888 256 
L 2963 256 
Q 2981 256 2998 242 
Q 3016 228 3016 206 
L 3016 128 
Q 3016 91 2975 78 
Q 2619 -31 2359 -232 
Q 2100 -434 2100 -750 
L 2100 -2619 
Q 2100 -2994 1804 -3214 
Q 1509 -3434 1056 -3584 
Q 1497 -3716 1798 -3939 
Q 2100 -4163 2100 -4544 
L 2100 -6413 
Q 2100 -6628 2231 -6790 
Q 2363 -6953 2556 -7059 
Q 2750 -7166 2975 -7238 
Q 3016 -7250 3016 -7291 
L 3016 -7366 
Q 3016 -7384 2998 -7401 
Q 2981 -7419 2963 -7419 
L 2888 -7419 
Q 2559 -7338 2292 -7227 
Q 2025 -7116 1828 -6914 
Q 1631 -6713 1631 -6425 
z
" transform="scale(0.015625)"/>
      <path id="Cmr10-28" d="M 1984 -1588 
Q 1628 -1306 1370 -942 
Q 1113 -578 948 -165 
Q 784 247 703 697 
Q 622 1147 622 1600 
Q 622 2059 703 2509 
Q 784 2959 951 3375 
Q 1119 3791 1378 4153 
Q 1638 4516 1984 4788 
Q 1984 4800 2016 4800 
L 2075 4800 
Q 2094 4800 2109 4783 
Q 2125 4766 2125 4744 
Q 2125 4716 2113 4703 
Q 1800 4397 1592 4047 
Q 1384 3697 1257 3301 
Q 1131 2906 1075 2482 
Q 1019 2059 1019 1600 
Q 1019 -434 2106 -1491 
Q 2125 -1509 2125 -1544 
Q 2125 -1559 2108 -1579 
Q 2091 -1600 2075 -1600 
L 2016 -1600 
Q 1984 -1600 1984 -1588 
z
" transform="scale(0.015625)"/>
      <path id="Cmmi10-67" d="M 91 -916 
Q 91 -759 198 -642 
Q 306 -525 459 -525 
Q 563 -525 633 -589 
Q 703 -653 703 -756 
Q 703 -872 637 -964 
Q 572 -1056 469 -1094 
Q 641 -1147 1006 -1147 
Q 1300 -1147 1544 -920 
Q 1788 -694 1863 -397 
L 2047 353 
Q 1700 0 1325 0 
Q 1050 0 854 140 
Q 659 281 556 515 
Q 453 750 453 1013 
Q 453 1306 573 1628 
Q 694 1950 911 2225 
Q 1128 2500 1409 2664 
Q 1691 2828 2003 2828 
Q 2191 2828 2341 2725 
Q 2491 2622 2578 2450 
Q 2641 2700 2853 2700 
Q 2934 2700 2990 2651 
Q 3047 2603 3047 2522 
Q 3047 2503 3045 2493 
Q 3044 2484 3041 2472 
L 2309 -434 
Q 2259 -634 2125 -800 
Q 1991 -966 1809 -1077 
Q 1628 -1188 1412 -1250 
Q 1197 -1313 997 -1313 
Q 631 -1313 361 -1242 
Q 91 -1172 91 -916 
z
M 1338 166 
Q 1747 166 2144 728 
L 2497 2125 
Q 2453 2347 2322 2505 
Q 2191 2663 1991 2663 
Q 1778 2663 1589 2489 
Q 1400 2316 1275 2075 
Q 1156 1844 1045 1411 
Q 934 978 934 728 
Q 934 509 1034 337 
Q 1134 166 1338 166 
z
" transform="scale(0.015625)"/>
      <path id="Cmmi10-78" d="M 500 184 
Q 613 97 819 97 
Q 1019 97 1172 289 
Q 1325 481 1381 709 
L 1672 1844 
Q 1741 2153 1741 2266 
Q 1741 2425 1652 2544 
Q 1563 2663 1403 2663 
Q 1200 2663 1022 2536 
Q 844 2409 722 2214 
Q 600 2019 550 1819 
Q 538 1778 500 1778 
L 422 1778 
Q 372 1778 372 1838 
L 372 1856 
Q 434 2094 584 2320 
Q 734 2547 951 2687 
Q 1169 2828 1416 2828 
Q 1650 2828 1839 2703 
Q 2028 2578 2106 2363 
Q 2216 2559 2386 2693 
Q 2556 2828 2759 2828 
Q 2897 2828 3040 2779 
Q 3184 2731 3275 2631 
Q 3366 2531 3366 2381 
Q 3366 2219 3261 2101 
Q 3156 1984 2994 1984 
Q 2891 1984 2822 2050 
Q 2753 2116 2753 2216 
Q 2753 2350 2845 2451 
Q 2938 2553 3066 2572 
Q 2950 2663 2747 2663 
Q 2541 2663 2389 2472 
Q 2238 2281 2175 2047 
L 1894 916 
Q 1825 659 1825 494 
Q 1825 331 1917 214 
Q 2009 97 2163 97 
Q 2463 97 2698 361 
Q 2934 625 3009 941 
Q 3022 978 3059 978 
L 3138 978 
Q 3163 978 3178 961 
Q 3194 944 3194 922 
Q 3194 916 3188 903 
Q 3097 522 2806 225 
Q 2516 -72 2150 -72 
Q 1916 -72 1727 54 
Q 1538 181 1459 397 
Q 1359 209 1182 68 
Q 1006 -72 806 -72 
Q 669 -72 523 -23 
Q 378 25 287 125 
Q 197 225 197 378 
Q 197 528 301 651 
Q 406 775 563 775 
Q 669 775 741 711 
Q 813 647 813 544 
Q 813 409 723 309 
Q 634 209 500 184 
z
" transform="scale(0.015625)"/>
      <path id="Cmr10-29" d="M 416 -1600 
Q 359 -1600 359 -1544 
Q 359 -1516 372 -1503 
Q 1466 -434 1466 1600 
Q 1466 3634 384 4691 
Q 359 4706 359 4744 
Q 359 4766 376 4783 
Q 394 4800 416 4800 
L 475 4800 
Q 494 4800 506 4788 
Q 966 4425 1272 3906 
Q 1578 3388 1720 2800 
Q 1863 2213 1863 1600 
Q 1863 1147 1786 708 
Q 1709 269 1542 -157 
Q 1375 -584 1119 -945 
Q 863 -1306 506 -1588 
Q 494 -1600 475 -1600 
L 416 -1600 
z
" transform="scale(0.015625)"/>
      <path id="Cmmi10-3b" d="M 634 -1153 
Q 634 -1125 659 -1100 
Q 891 -878 1019 -587 
Q 1147 -297 1147 25 
L 1147 103 
Q 1044 0 891 0 
Q 744 0 641 103 
Q 538 206 538 353 
Q 538 503 641 603 
Q 744 703 891 703 
Q 1119 703 1216 492 
Q 1313 281 1313 25 
Q 1313 -331 1170 -651 
Q 1028 -972 769 -1228 
Q 744 -1241 728 -1241 
Q 697 -1241 665 -1212 
Q 634 -1184 634 -1153 
z
" transform="scale(0.015625)"/>
      <path id="Cmmi10-66" d="M 622 -1056 
Q 741 -1147 909 -1147 
Q 1138 -1147 1281 -641 
Q 1341 -397 1606 966 
L 1900 2534 
L 1350 2534 
Q 1288 2534 1288 2619 
Q 1313 2759 1369 2759 
L 1941 2759 
L 2016 3175 
Q 2053 3369 2084 3508 
Q 2116 3647 2152 3765 
Q 2188 3884 2259 4031 
Q 2369 4241 2555 4377 
Q 2741 4513 2956 4513 
Q 3097 4513 3230 4461 
Q 3363 4409 3447 4306 
Q 3531 4203 3531 4063 
Q 3531 3900 3423 3779 
Q 3316 3659 3163 3659 
Q 3059 3659 2986 3723 
Q 2913 3788 2913 3891 
Q 2913 4031 3008 4136 
Q 3103 4241 3244 4256 
Q 3125 4347 2950 4347 
Q 2853 4347 2767 4256 
Q 2681 4166 2656 4063 
Q 2616 3900 2478 3181 
L 2400 2759 
L 3059 2759 
Q 3122 2759 3122 2675 
Q 3119 2659 3109 2620 
Q 3100 2581 3083 2557 
Q 3066 2534 3041 2534 
L 2356 2534 
L 2059 972 
Q 2003 631 1929 279 
Q 1856 -72 1723 -442 
Q 1591 -813 1384 -1063 
Q 1178 -1313 897 -1313 
Q 681 -1313 511 -1189 
Q 341 -1066 341 -863 
Q 341 -700 445 -579 
Q 550 -459 709 -459 
Q 816 -459 887 -523 
Q 959 -588 959 -691 
Q 959 -828 857 -942 
Q 756 -1056 622 -1056 
z
" transform="scale(0.015625)"/>
      <path id="Cmex10-aa" d="M 709 -7366 
L 709 -7291 
Q 709 -7247 756 -7238 
Q 1631 -6953 1631 -6413 
L 1631 -4544 
Q 1631 -3909 2669 -3584 
Q 2219 -3431 1925 -3209 
Q 1631 -2988 1631 -2619 
L 1631 -750 
Q 1631 -206 756 78 
Q 709 88 709 128 
L 709 206 
Q 709 256 769 256 
L 844 256 
Q 1359 131 1729 -97 
Q 2100 -325 2100 -738 
L 2100 -2606 
Q 2100 -2925 2354 -3142 
Q 2609 -3359 2975 -3494 
Q 3016 -3506 3016 -3547 
L 3016 -3622 
Q 3016 -3641 2975 -3675 
Q 2769 -3744 2566 -3864 
Q 2363 -3984 2231 -4161 
Q 2100 -4338 2100 -4556 
L 2100 -6425 
Q 2100 -6713 1901 -6914 
Q 1703 -7116 1437 -7227 
Q 1172 -7338 844 -7419 
L 769 -7419 
Q 744 -7419 726 -7401 
Q 709 -7384 709 -7366 
z
" transform="scale(0.015625)"/>
     </defs>
     <use xlink:href="#Cmmi10-47" transform="translate(0 0.705729)"/>
     <use xlink:href="#Cmr10-3d" transform="translate(96.171875 0.705729)"/>
     <use xlink:href="#Cmex10-a9" transform="translate(191.416016 94)"/>
     <use xlink:href="#Cmr10-28" transform="translate(249.716797 0.705729)"/>
     <use xlink:href="#Cmmi10-67" transform="translate(288.535156 0.705729)"/>
     <use xlink:href="#Cmr10-28" transform="translate(336.240234 0.705729)"/>
     <use xlink:href="#Cmmi10-78" transform="translate(375.058594 0.705729)"/>
     <use xlink:href="#Cmr10-29" transform="translate(432.138672 0.705729)"/>
     <use xlink:href="#Cmmi10-3b" transform="translate(470.957031 0.705729)"/>
     <use xlink:href="#Cmmi10-66" transform="translate(516.201172 0.705729)"/>
     <use xlink:href="#Cmr10-30" transform="translate(565.078125 -16.300521) scale(0.7)"/>
     <use xlink:href="#Cmr10-28" transform="translate(606.455469 0.705729)"/>
     <use xlink:href="#Cmmi10-78" transform="translate(645.273828 0.705729)"/>
     <use xlink:href="#Cmr10-29" transform="translate(702.353906 0.705729)"/>
     <use xlink:href="#Cmr10-29" transform="translate(741.172266 0.705729)"/>
     <use xlink:href="#Cmex10-aa" transform="translate(779.990625 94)"/>
    </g>
   </g>
   <g id="text_4">
    <!-- slope $-\lambda^\star$ -->
    <g style="fill: #2ca02c" transform="translate(205.123071 231.890344) rotate(-329) scale(0.11 -0.11)">
     <defs>
      <path id="DejaVuSans-6f" d="M 1959 3097 
Q 1497 3097 1228 2736 
Q 959 2375 959 1747 
Q 959 1119 1226 758 
Q 1494 397 1959 397 
Q 2419 397 2687 759 
Q 2956 1122 2956 1747 
Q 2956 2369 2687 2733 
Q 2419 3097 1959 3097 
z
M 1959 3584 
Q 2709 3584 3137 3096 
Q 3566 2609 3566 1747 
Q 3566 888 3137 398 
Q 2709 -91 1959 -91 
Q 1206 -91 779 398 
Q 353 888 353 1747 
Q 353 2609 779 3096 
Q 1206 3584 1959 3584 
z
" transform="scale(0.015625)"/>
      <path id="DejaVuSans-70" d="M 1159 525 
L 1159 -1331 
L 581 -1331 
L 581 3500 
L 1159 3500 
L 1159 2969 
Q 1341 3281 1617 3432 
Q 1894 3584 2278 3584 
Q 2916 3584 3314 3078 
Q 3713 2572 3713 1747 
Q 3713 922 3314 415 
Q 2916 -91 2278 -91 
Q 1894 -91 1617 61 
Q 1341 213 1159 525 
z
M 3116 1747 
Q 3116 2381 2855 2742 
Q 2594 3103 2138 3103 
Q 1681 3103 1420 2742 
Q 1159 2381 1159 1747 
Q 1159 1113 1420 752 
Q 1681 391 2138 391 
Q 2594 391 2855 752 
Q 3116 1113 3116 1747 
z
" transform="scale(0.015625)"/>
      <path id="Cmsy10-a1" d="M 653 1472 
Q 600 1472 565 1512 
Q 531 1553 531 1600 
Q 531 1647 565 1687 
Q 600 1728 653 1728 
L 4325 1728 
Q 4375 1728 4408 1687 
Q 4441 1647 4441 1600 
Q 4441 1553 4408 1512 
Q 4375 1472 4325 1472 
L 653 1472 
z
" transform="scale(0.015625)"/>
      <path id="Cmmi10-b8" d="M 325 109 
Q 325 203 409 288 
L 2209 2053 
L 1575 3834 
Q 1500 4038 1417 4156 
Q 1334 4275 1178 4275 
Q 1106 4275 1106 4359 
Q 1113 4397 1138 4419 
Q 1163 4441 1203 4441 
Q 1875 4441 2016 4044 
L 3316 416 
Q 3400 144 3488 50 
Q 3519 3 3519 -13 
Q 3519 -72 3469 -72 
L 3122 -72 
Q 2963 -25 2869 206 
L 2284 1844 
L 738 25 
Q 622 -84 531 -84 
Q 450 -84 387 -28 
Q 325 28 325 109 
z
" transform="scale(0.015625)"/>
     </defs>
     <use xlink:href="#DejaVuSans-73" transform="translate(0 0.94375)"/>
     <use xlink:href="#DejaVuSans-6c" transform="translate(52.099609 0.94375)"/>
     <use xlink:href="#DejaVuSans-6f" transform="translate(79.882812 0.94375)"/>
     <use xlink:href="#DejaVuSans-70" transform="translate(141.064453 0.94375)"/>
     <use xlink:href="#DejaVuSans-65" transform="translate(204.541016 0.94375)"/>
     <use xlink:href="#DejaVuSans-20" transform="translate(266.064453 0.94375)"/>
     <use xlink:href="#Cmsy10-a1" transform="translate(297.851562 0.94375)"/>
     <use xlink:href="#Cmmi10-b8" transform="translate(375.537109 0.94375)"/>
     <use xlink:href="#STIXGeneral-Regular-22c6" transform="translate(457.724844 39.207812) scale(0.7)"/>
    </g>
   </g>
   <g id="patch_2">
    <path d="M 9.19647 187.776 
Q 141.532613 187.776 272.862526 187.776 
" style="fill: none; stroke: #000000; stroke-width: 0.9; stroke-linecap: round"/>
    <path d="M 268.462526 185.576 
L 272.862526 187.776 
L 268.462526 189.976 
" style="fill: none; stroke: #000000; stroke-width: 0.9; stroke-linecap: round"/>
   </g>
   <g id="patch_3">
    <path d="M 115.533333 254.68145 
Q 115.533333 131.939547 115.533333 10.203876 
" style="fill: none; stroke: #000000; stroke-width: 0.9; stroke-linecap: round"/>
    <path d="M 113.333333 14.603876 
L 115.533333 10.203876 
L 117.733333 14.603876 
" style="fill: none; stroke: #000000; stroke-width: 0.9; stroke-linecap: round"/>
   </g>
   <g id="text_5">
    <!-- constraint value  $u$ -->
    <g transform="translate(212.566667 206.113481) scale(0.11 -0.11)">
     <defs>
      <path id="DejaVuSans-6e" d="M 3513 2113 
L 3513 0 
L 2938 0 
L 2938 2094 
Q 2938 2591 2744 2837 
Q 2550 3084 2163 3084 
Q 1697 3084 1428 2787 
Q 1159 2491 1159 1978 
L 1159 0 
L 581 0 
L 581 3500 
L 1159 3500 
L 1159 2956 
Q 1366 3272 1645 3428 
Q 1925 3584 2291 3584 
Q 2894 3584 3203 3211 
Q 3513 2838 3513 2113 
z
" transform="scale(0.015625)"/>
      <path id="DejaVuSans-74" d="M 1172 4494 
L 1172 3500 
L 2356 3500 
L 2356 3053 
L 1172 3053 
L 1172 1153 
Q 1172 725 1289 603 
Q 1406 481 1766 481 
L 2356 481 
L 2356 0 
L 1766 0 
Q 1100 0 847 248 
Q 594 497 594 1153 
L 594 3053 
L 172 3053 
L 172 3500 
L 594 3500 
L 594 4494 
L 1172 4494 
z
" transform="scale(0.015625)"/>
      <path id="DejaVuSans-72" d="M 2631 2963 
Q 2534 3019 2420 3045 
Q 2306 3072 2169 3072 
Q 1681 3072 1420 2755 
Q 1159 2438 1159 1844 
L 1159 0 
L 581 0 
L 581 3500 
L 1159 3500 
L 1159 2956 
Q 1341 3275 1631 3429 
Q 1922 3584 2338 3584 
Q 2397 3584 2469 3576 
Q 2541 3569 2628 3553 
L 2631 2963 
z
" transform="scale(0.015625)"/>
      <path id="DejaVuSans-76" d="M 191 3500 
L 800 3500 
L 1894 563 
L 2988 3500 
L 3597 3500 
L 2284 0 
L 1503 0 
L 191 3500 
z
" transform="scale(0.015625)"/>
      <path id="DejaVuSans-75" d="M 544 1381 
L 544 3500 
L 1119 3500 
L 1119 1403 
Q 1119 906 1312 657 
Q 1506 409 1894 409 
Q 2359 409 2629 706 
Q 2900 1003 2900 1516 
L 2900 3500 
L 3475 3500 
L 3475 0 
L 2900 0 
L 2900 538 
Q 2691 219 2414 64 
Q 2138 -91 1772 -91 
Q 1169 -91 856 284 
Q 544 659 544 1381 
z
M 1991 3584 
L 1991 3584 
z
" transform="scale(0.015625)"/>
     </defs>
     <use xlink:href="#DejaVuSans-63" transform="translate(0 0.015625)"/>
     <use xlink:href="#DejaVuSans-6f" transform="translate(54.980469 0.015625)"/>
     <use xlink:href="#DejaVuSans-6e" transform="translate(116.162109 0.015625)"/>
     <use xlink:href="#DejaVuSans-73" transform="translate(179.541016 0.015625)"/>
     <use xlink:href="#DejaVuSans-74" transform="translate(231.640625 0.015625)"/>
     <use xlink:href="#DejaVuSans-72" transform="translate(270.849609 0.015625)"/>
     <use xlink:href="#DejaVuSans-61" transform="translate(311.962891 0.015625)"/>
     <use xlink:href="#DejaVuSans-69" transform="translate(373.242188 0.015625)"/>
     <use xlink:href="#DejaVuSans-6e" transform="translate(401.025391 0.015625)"/>
     <use xlink:href="#DejaVuSans-74" transform="translate(464.404297 0.015625)"/>
     <use xlink:href="#DejaVuSans-20" transform="translate(503.613281 0.015625)"/>
     <use xlink:href="#DejaVuSans-76" transform="translate(535.400391 0.015625)"/>
     <use xlink:href="#DejaVuSans-61" transform="translate(594.580078 0.015625)"/>
     <use xlink:href="#DejaVuSans-6c" transform="translate(655.859375 0.015625)"/>
     <use xlink:href="#DejaVuSans-75" transform="translate(683.642578 0.015625)"/>
     <use xlink:href="#DejaVuSans-65" transform="translate(747.021484 0.015625)"/>
     <use xlink:href="#DejaVuSans-20" transform="translate(808.544922 0.015625)"/>
     <use xlink:href="#DejaVuSans-20" transform="translate(840.332031 0.015625)"/>
     <use xlink:href="#Cmmi10-75" transform="translate(872.119141 0.015625)"/>
    </g>
   </g>
   <g id="text_6">
    <!-- objective value  $t$ -->
    <g transform="translate(126.28 15.56) scale(0.11 -0.11)">
     <defs>
      <path id="DejaVuSans-6a" d="M 603 3500 
L 1178 3500 
L 1178 -63 
Q 1178 -731 923 -1031 
Q 669 -1331 103 -1331 
L -116 -1331 
L -116 -844 
L 38 -844 
Q 366 -844 484 -692 
Q 603 -541 603 -63 
L 603 3500 
z
M 603 4863 
L 1178 4863 
L 1178 4134 
L 603 4134 
L 603 4863 
z
" transform="scale(0.015625)"/>
      <path id="Cmmi10-74" d="M 397 519 
Q 397 613 416 697 
L 878 2534 
L 206 2534 
Q 141 2534 141 2619 
Q 166 2759 225 2759 
L 934 2759 
L 1191 3803 
Q 1216 3888 1291 3947 
Q 1366 4006 1459 4006 
Q 1541 4006 1595 3957 
Q 1650 3909 1650 3828 
Q 1650 3809 1648 3798 
Q 1647 3788 1644 3775 
L 1388 2759 
L 2047 2759 
Q 2113 2759 2113 2675 
Q 2109 2659 2100 2621 
Q 2091 2584 2075 2559 
Q 2059 2534 2028 2534 
L 1331 2534 
L 872 684 
Q 825 503 825 372 
Q 825 97 1013 97 
Q 1294 97 1511 361 
Q 1728 625 1844 941 
Q 1869 978 1894 978 
L 1972 978 
Q 1997 978 2012 961 
Q 2028 944 2028 922 
Q 2028 909 2022 903 
Q 1881 516 1612 222 
Q 1344 -72 997 -72 
Q 744 -72 570 93 
Q 397 259 397 519 
z
" transform="scale(0.015625)"/>
     </defs>
     <use xlink:href="#DejaVuSans-6f" transform="translate(0 0.015625)"/>
     <use xlink:href="#DejaVuSans-62" transform="translate(61.181641 0.015625)"/>
     <use xlink:href="#DejaVuSans-6a" transform="translate(124.658203 0.015625)"/>
     <use xlink:href="#DejaVuSans-65" transform="translate(152.441406 0.015625)"/>
     <use xlink:href="#DejaVuSans-63" transform="translate(213.964844 0.015625)"/>
     <use xlink:href="#DejaVuSans-74" transform="translate(268.945312 0.015625)"/>
     <use xlink:href="#DejaVuSans-69" transform="translate(308.154297 0.015625)"/>
     <use xlink:href="#DejaVuSans-76" transform="translate(335.9375 0.015625)"/>
     <use xlink:href="#DejaVuSans-65" transform="translate(395.117188 0.015625)"/>
     <use xlink:href="#DejaVuSans-20" transform="translate(456.640625 0.015625)"/>
     <use xlink:href="#DejaVuSans-76" transform="translate(488.427734 0.015625)"/>
     <use xlink:href="#DejaVuSans-61" transform="translate(547.607422 0.015625)"/>
     <use xlink:href="#DejaVuSans-6c" transform="translate(608.886719 0.015625)"/>
     <use xlink:href="#DejaVuSans-75" transform="translate(636.669922 0.015625)"/>
     <use xlink:href="#DejaVuSans-65" transform="translate(700.048828 0.015625)"/>
     <use xlink:href="#DejaVuSans-20" transform="translate(761.572266 0.015625)"/>
     <use xlink:href="#DejaVuSans-20" transform="translate(793.359375 0.015625)"/>
     <use xlink:href="#Cmmi10-74" transform="translate(825.146484 0.015625)"/>
    </g>
   </g>
   <g id="line2d_3">
    <path d="M 33.2 7.0812 
L 33.877483 8.527025 
L 34.554966 9.967043 
L 35.232448 11.401253 
L 35.909931 12.829656 
L 36.587414 14.252251 
L 37.264897 15.669038 
L 37.94238 17.080018 
L 38.619862 18.48519 
L 39.297345 19.884554 
L 39.974828 21.278111 
L 40.652311 22.66586 
L 41.329794 24.047801 
L 42.007276 25.423935 
L 42.684759 26.794261 
L 43.362242 28.15878 
L 44.039725 29.517491 
L 44.717207 30.870394 
L 45.39469 32.21749 
L 46.072173 33.558778 
L 46.749656 34.894259 
L 47.427139 36.223931 
L 48.104621 37.547797 
L 48.782104 38.865854 
L 49.459587 40.178104 
L 50.13707 41.484546 
L 50.814553 42.785181 
L 51.492035 44.080008 
L 52.169518 45.369028 
L 52.847001 46.652239 
L 53.524484 47.929644 
L 54.201967 49.20124 
L 54.879449 50.467029 
L 55.556932 51.72701 
L 56.234415 52.981184 
L 56.911898 54.22955 
L 57.589381 55.472108 
L 58.266863 56.708859 
L 58.944346 57.939802 
L 59.621829 59.164938 
L 60.299312 60.384266 
L 60.976794 61.597786 
L 61.654277 62.805499 
L 62.33176 64.007404 
L 63.009243 65.203501 
L 63.686726 66.393791 
L 64.364208 67.578273 
L 65.041691 68.756948 
L 65.719174 69.929814 
L 66.396657 71.096874 
L 67.07414 72.258125 
L 67.751622 73.413569 
L 68.429105 74.563206 
L 69.106588 75.707034 
L 69.784071 76.845056 
L 70.461554 77.977269 
L 71.139036 79.103675 
L 71.816519 80.224273 
L 72.494002 81.339064 
L 73.171485 82.448047 
L 73.848968 83.551222 
L 74.52645 84.64859 
L 75.203933 85.74015 
L 75.881416 86.825902 
L 76.558899 87.905847 
L 77.236382 88.979984 
L 77.913864 90.048314 
L 78.591347 91.110836 
L 79.26883 92.16755 
L 79.946313 93.218457 
L 80.623795 94.263556 
L 81.301278 95.302847 
L 81.978761 96.336331 
L 82.656244 97.364007 
L 83.333727 98.385876 
L 84.011209 99.401937 
L 84.688692 100.41219 
L 85.366175 101.416636 
L 86.043658 102.415274 
L 86.721141 103.408104 
L 87.398623 104.395127 
L 88.076106 105.376342 
L 88.753589 106.35175 
L 89.431072 107.32135 
L 90.108555 108.285142 
L 90.786037 109.243127 
L 91.46352 110.195304 
L 92.141003 111.141673 
L 92.818486 112.082235 
L 93.495969 113.016989 
L 94.173451 113.945936 
L 94.850934 114.869074 
L 95.528417 115.786406 
L 96.2059 116.697929 
L 96.883382 117.603645 
L 97.560865 118.503554 
L 98.238348 119.397654 
L 98.915831 120.285948 
L 99.593314 121.168433 
L 100.270796 122.045111 
L 100.948279 122.915981 
L 101.625762 123.781044 
L 102.303245 124.640299 
L 102.980728 125.493746 
L 103.65821 126.341386 
L 104.335693 127.183218 
L 105.013176 128.019242 
L 105.690659 128.849459 
L 106.368142 129.673868 
L 107.045624 130.49247 
L 107.723107 131.305264 
L 108.40059 132.11225 
L 109.078073 132.913429 
L 109.755556 133.7088 
L 110.433038 134.498363 
L 111.110521 135.282119 
L 111.788004 136.060067 
L 112.465487 136.832208 
L 113.14297 137.598541 
L 113.820452 138.359066 
L 114.497935 139.113784 
L 115.175418 139.862694 
" clip-path="url(#pbbe956b761)" style="fill: none; stroke: #ff7f0e; stroke-width: 3.4; stroke-linecap: square"/>
   </g>
   <g id="line2d_4">
    <defs>
     <path id="m9c1ad6aac4" d="M 0 3.5 
C 0.928211 3.5 1.81853 3.131218 2.474874 2.474874 
C 3.131218 1.81853 3.5 0.928211 3.5 0 
C 3.5 -0.928211 3.131218 -1.81853 2.474874 -2.474874 
C 1.81853 -3.131218 0.928211 -3.5 0 -3.5 
C -0.928211 -3.5 -1.81853 -3.131218 -2.474874 -2.474874 
C -3.131218 -1.81853 -3.5 -0.928211 -3.5 0 
C -3.5 0.928211 -3.131218 1.81853 -2.474874 2.474874 
C -1.81853 3.131218 -0.928211 3.5 0 3.5 
z
" style="stroke: #000000"/>
    </defs>
    <g clip-path="url(#pbbe956b761)">
     <use xlink:href="#m9c1ad6aac4" x="115.533333" y="140.256" style="stroke: #000000"/>
    </g>
   </g>
  </g>
  <g id="axes_2">
   <g id="FillBetweenPolyCollection_2">
    <defs>
     <path id="m6244fe2800" d="M 380.17942 -263.670503 
L 380.17942 -176.894851 
L 380.667763 -176.893503 
L 381.156106 -176.889458 
L 381.644449 -176.882718 
L 382.132791 -176.873281 
L 382.621134 -176.861148 
L 383.109477 -176.846319 
L 383.59782 -176.828794 
L 384.086163 -176.808572 
L 384.574505 -176.785655 
L 385.062848 -176.760041 
L 385.551191 -176.73173 
L 386.039534 -176.700724 
L 386.527876 -176.667021 
L 387.016219 -176.630623 
L 387.504562 -176.591528 
L 387.992905 -176.549737 
L 388.481248 -176.505249 
L 388.96959 -176.458066 
L 389.457933 -176.408186 
L 389.946276 -176.35561 
L 390.434619 -176.300338 
L 390.922962 -176.242369 
L 391.411304 -176.181704 
L 391.899647 -176.118344 
L 392.38799 -176.052287 
L 392.876333 -175.983533 
L 393.364675 -175.912084 
L 393.853018 -175.837938 
L 394.341361 -175.761096 
L 394.829704 -175.681558 
L 395.318047 -175.599324 
L 395.806389 -175.514394 
L 396.294732 -175.426767 
L 396.783075 -175.336444 
L 397.271418 -175.243425 
L 397.759761 -175.14771 
L 398.248103 -175.049298 
L 398.736446 -174.94819 
L 399.224789 -174.844386 
L 399.713132 -174.737886 
L 400.201474 -174.62869 
L 400.689817 -174.516797 
L 401.17816 -174.402209 
L 401.666503 -174.284924 
L 402.154846 -174.164943 
L 402.643188 -174.042265 
L 403.131531 -173.916892 
L 403.619874 -173.788822 
L 404.108217 -173.658056 
L 404.59656 -173.524594 
L 405.084902 -173.388435 
L 405.573245 -173.249581 
L 406.061588 -173.10803 
L 406.549931 -172.963783 
L 407.038273 -172.81684 
L 407.526616 -172.6672 
L 408.014959 -172.514865 
L 408.503302 -172.359833 
L 408.991645 -172.202105 
L 409.479987 -172.041681 
L 409.96833 -171.87856 
L 410.456673 -171.712744 
L 410.945016 -171.544231 
L 411.433359 -171.373022 
L 411.921701 -171.199116 
L 412.410044 -171.022515 
L 412.898387 -170.843217 
L 413.38673 -170.661223 
L 413.875072 -170.476533 
L 414.363415 -170.289147 
L 414.851758 -170.099065 
L 415.340101 -169.906286 
L 415.828444 -169.710811 
L 416.316786 -169.51264 
L 416.805129 -169.311773 
L 417.293472 -169.108209 
L 417.781815 -168.901949 
L 418.270158 -168.692993 
L 418.7585 -168.481341 
L 419.246843 -168.266993 
L 419.735186 -168.049948 
L 420.223529 -167.830208 
L 420.711871 -167.607771 
L 421.200214 -167.382637 
L 421.688557 -167.154808 
L 422.1769 -166.924282 
L 422.665243 -166.691061 
L 423.153585 -166.455143 
L 423.641928 -166.216528 
L 424.130271 -165.975218 
L 424.618614 -165.731211 
L 425.106957 -165.484509 
L 425.595299 -165.23511 
L 426.083642 -164.983014 
L 426.571985 -164.728223 
L 427.060328 -164.470735 
L 427.54867 -164.210552 
L 428.037013 -163.947671 
L 428.525356 -163.682095 
L 429.013699 -163.413823 
L 429.502042 -163.142854 
L 429.990384 -162.869189 
L 430.478727 -162.592828 
L 430.96707 -162.313771 
L 431.455413 -162.032017 
L 431.943756 -161.747568 
L 432.432098 -161.460422 
L 432.920441 -161.17058 
L 433.408784 -160.878041 
L 433.897127 -160.582807 
L 434.385469 -160.284876 
L 434.873812 -159.984249 
L 435.362155 -159.680926 
L 435.850498 -159.374907 
L 436.338841 -159.066191 
L 436.827183 -158.754779 
L 437.315526 -158.440672 
L 437.803869 -158.123867 
L 438.292212 -157.804367 
L 438.780555 -157.48217 
L 439.268897 -157.157278 
L 439.75724 -156.829689 
L 440.245583 -156.499403 
L 440.733926 -156.166422 
L 441.222268 -155.830744 
L 441.710611 -155.492371 
L 442.198954 -155.151301 
L 442.687297 -154.807534 
L 443.17564 -154.461072 
L 443.663982 -154.111913 
L 444.152325 -153.760059 
L 444.640668 -153.405508 
L 445.129011 -153.04826 
L 445.617353 -152.688317 
L 446.105696 -152.325677 
L 446.594039 -151.960341 
L 447.082382 -151.592309 
L 447.570725 -151.221581 
L 448.059067 -150.848156 
L 448.54741 -150.472036 
L 449.035753 -150.093219 
L 449.524096 -149.711706 
L 450.012439 -149.327497 
L 450.500781 -148.940591 
L 450.989124 -148.550989 
L 451.477467 -148.158691 
L 451.96581 -147.763697 
L 452.454152 -147.366007 
L 452.942495 -146.96562 
L 453.430838 -146.562538 
L 453.919181 -146.156759 
L 454.407524 -145.748284 
L 454.895866 -145.337112 
L 455.384209 -144.923245 
L 455.872552 -144.506681 
L 456.360895 -144.087421 
L 456.849238 -143.665465 
L 457.33758 -143.240812 
L 457.825923 -142.813464 
L 458.314266 -142.383419 
L 458.802609 -141.950678 
L 459.290951 -141.515241 
L 459.779294 -141.077107 
L 460.267637 -140.636278 
L 460.75598 -140.192752 
L 461.244323 -139.74653 
L 461.732665 -139.297612 
L 462.221008 -138.845997 
L 462.709351 -138.391687 
L 463.197694 -137.93468 
L 463.686037 -137.474977 
L 464.174379 -137.012577 
L 464.662722 -136.547482 
L 465.151065 -136.07969 
L 465.639408 -135.609202 
L 466.12775 -135.136018 
L 466.616093 -134.660138 
L 467.104436 -134.181561 
L 467.592779 -133.700289 
L 468.081122 -133.21632 
L 468.569464 -132.729655 
L 469.057807 -132.240293 
L 469.54615 -131.748236 
L 470.034493 -131.253482 
L 470.522836 -130.756032 
L 471.011178 -130.255886 
L 471.499521 -129.753044 
L 471.987864 -129.247505 
L 472.476207 -128.73927 
L 472.964549 -128.228339 
L 473.452892 -127.714712 
L 473.941235 -127.198389 
L 474.429578 -126.679369 
L 474.917921 -126.157654 
L 475.406263 -125.633242 
L 475.894606 -125.106133 
L 476.382949 -124.576329 
L 476.871292 -124.043828 
L 477.359635 -123.508632 
L 477.847977 -122.970739 
L 478.33632 -122.430149 
L 478.824663 -121.886864 
L 479.313006 -121.340882 
L 479.801348 -120.792204 
L 480.289691 -120.24083 
L 480.778034 -119.68676 
L 481.266377 -119.129994 
L 481.75472 -118.570531 
L 482.243062 -118.008372 
L 482.731405 -117.443517 
L 483.219748 -116.875966 
L 483.708091 -116.305718 
L 484.196434 -115.732775 
L 484.684776 -115.157135 
L 485.173119 -114.578799 
L 485.661462 -113.997766 
L 486.149805 -113.414038 
L 486.638147 -112.827613 
L 487.12649 -112.238492 
L 487.614833 -111.646675 
L 488.103176 -111.052162 
L 488.591519 -110.454952 
L 489.079861 -109.855046 
L 489.568204 -109.252444 
L 490.056547 -108.647146 
L 490.54489 -108.039152 
L 491.033233 -107.428461 
L 491.521575 -106.815074 
L 492.009918 -106.198991 
L 492.498261 -105.580212 
L 492.986604 -104.958737 
L 493.474946 -104.334565 
L 493.963289 -103.707698 
L 494.451632 -103.078133 
L 494.939975 -102.445873 
L 495.428318 -101.810917 
L 495.91666 -101.173264 
L 496.405003 -100.532915 
L 496.893346 -99.88987 
L 497.381689 -99.244129 
L 497.870032 -98.595692 
L 498.358374 -97.944558 
L 498.846717 -97.290728 
L 499.33506 -96.634202 
L 499.823403 -95.97498 
L 500.311745 -95.313061 
L 500.800088 -94.648447 
L 501.288431 -93.981136 
L 501.776774 -93.311129 
L 502.265117 -92.638425 
L 502.753459 -91.963026 
L 503.241802 -91.28493 
L 503.730145 -90.604138 
L 504.218488 -89.92065 
L 504.70683 -89.234466 
L 505.195173 -88.545585 
L 505.683516 -87.854008 
L 506.171859 -87.159736 
L 506.660202 -86.462766 
L 507.148544 -85.763101 
L 507.636887 -85.060739 
L 508.12523 -84.355682 
L 508.613573 -83.647928 
L 509.101916 -82.937478 
L 509.590258 -82.224331 
L 510.078601 -81.508489 
L 510.566944 -80.78995 
L 511.055287 -80.068715 
L 511.543629 -79.344784 
L 512.031972 -78.618156 
L 512.520315 -77.888833 
L 513.008658 -77.156813 
L 513.497001 -76.422097 
L 513.985343 -75.684684 
L 514.473686 -74.944576 
L 514.962029 -74.201771 
L 515.450372 -73.45627 
L 515.938715 -72.708073 
L 516.427057 -71.95718 
L 516.9154 -71.203591 
L 517.403743 -70.447305 
L 517.892086 -69.688323 
L 518.380428 -68.926645 
L 518.868771 -68.162271 
L 519.357114 -67.3952 
L 519.845457 -66.625434 
L 520.3338 -65.852971 
L 520.822142 -65.077812 
L 521.310485 -64.299956 
L 521.798828 -63.519405 
L 522.287171 -62.736157 
L 522.775514 -61.950213 
L 523.263856 -61.161573 
L 523.752199 -60.370237 
L 524.240542 -59.576204 
L 524.728885 -58.779475 
L 525.217227 -57.98005 
L 525.70557 -57.177929 
L 526.193913 -56.373112 
L 526.193913 -263.670503 
L 526.193913 -263.670503 
L 525.70557 -263.670503 
L 525.217227 -263.670503 
L 524.728885 -263.670503 
L 524.240542 -263.670503 
L 523.752199 -263.670503 
L 523.263856 -263.670503 
L 522.775514 -263.670503 
L 522.287171 -263.670503 
L 521.798828 -263.670503 
L 521.310485 -263.670503 
L 520.822142 -263.670503 
L 520.3338 -263.670503 
L 519.845457 -263.670503 
L 519.357114 -263.670503 
L 518.868771 -263.670503 
L 518.380428 -263.670503 
L 517.892086 -263.670503 
L 517.403743 -263.670503 
L 516.9154 -263.670503 
L 516.427057 -263.670503 
L 515.938715 -263.670503 
L 515.450372 -263.670503 
L 514.962029 -263.670503 
L 514.473686 -263.670503 
L 513.985343 -263.670503 
L 513.497001 -263.670503 
L 513.008658 -263.670503 
L 512.520315 -263.670503 
L 512.031972 -263.670503 
L 511.543629 -263.670503 
L 511.055287 -263.670503 
L 510.566944 -263.670503 
L 510.078601 -263.670503 
L 509.590258 -263.670503 
L 509.101916 -263.670503 
L 508.613573 -263.670503 
L 508.12523 -263.670503 
L 507.636887 -263.670503 
L 507.148544 -263.670503 
L 506.660202 -263.670503 
L 506.171859 -263.670503 
L 505.683516 -263.670503 
L 505.195173 -263.670503 
L 504.70683 -263.670503 
L 504.218488 -263.670503 
L 503.730145 -263.670503 
L 503.241802 -263.670503 
L 502.753459 -263.670503 
L 502.265117 -263.670503 
L 501.776774 -263.670503 
L 501.288431 -263.670503 
L 500.800088 -263.670503 
L 500.311745 -263.670503 
L 499.823403 -263.670503 
L 499.33506 -263.670503 
L 498.846717 -263.670503 
L 498.358374 -263.670503 
L 497.870032 -263.670503 
L 497.381689 -263.670503 
L 496.893346 -263.670503 
L 496.405003 -263.670503 
L 495.91666 -263.670503 
L 495.428318 -263.670503 
L 494.939975 -263.670503 
L 494.451632 -263.670503 
L 493.963289 -263.670503 
L 493.474946 -263.670503 
L 492.986604 -263.670503 
L 492.498261 -263.670503 
L 492.009918 -263.670503 
L 491.521575 -263.670503 
L 491.033233 -263.670503 
L 490.54489 -263.670503 
L 490.056547 -263.670503 
L 489.568204 -263.670503 
L 489.079861 -263.670503 
L 488.591519 -263.670503 
L 488.103176 -263.670503 
L 487.614833 -263.670503 
L 487.12649 -263.670503 
L 486.638147 -263.670503 
L 486.149805 -263.670503 
L 485.661462 -263.670503 
L 485.173119 -263.670503 
L 484.684776 -263.670503 
L 484.196434 -263.670503 
L 483.708091 -263.670503 
L 483.219748 -263.670503 
L 482.731405 -263.670503 
L 482.243062 -263.670503 
L 481.75472 -263.670503 
L 481.266377 -263.670503 
L 480.778034 -263.670503 
L 480.289691 -263.670503 
L 479.801348 -263.670503 
L 479.313006 -263.670503 
L 478.824663 -263.670503 
L 478.33632 -263.670503 
L 477.847977 -263.670503 
L 477.359635 -263.670503 
L 476.871292 -263.670503 
L 476.382949 -263.670503 
L 475.894606 -263.670503 
L 475.406263 -263.670503 
L 474.917921 -263.670503 
L 474.429578 -263.670503 
L 473.941235 -263.670503 
L 473.452892 -263.670503 
L 472.964549 -263.670503 
L 472.476207 -263.670503 
L 471.987864 -263.670503 
L 471.499521 -263.670503 
L 471.011178 -263.670503 
L 470.522836 -263.670503 
L 470.034493 -263.670503 
L 469.54615 -263.670503 
L 469.057807 -263.670503 
L 468.569464 -263.670503 
L 468.081122 -263.670503 
L 467.592779 -263.670503 
L 467.104436 -263.670503 
L 466.616093 -263.670503 
L 466.12775 -263.670503 
L 465.639408 -263.670503 
L 465.151065 -263.670503 
L 464.662722 -263.670503 
L 464.174379 -263.670503 
L 463.686037 -263.670503 
L 463.197694 -263.670503 
L 462.709351 -263.670503 
L 462.221008 -263.670503 
L 461.732665 -263.670503 
L 461.244323 -263.670503 
L 460.75598 -263.670503 
L 460.267637 -263.670503 
L 459.779294 -263.670503 
L 459.290951 -263.670503 
L 458.802609 -263.670503 
L 458.314266 -263.670503 
L 457.825923 -263.670503 
L 457.33758 -263.670503 
L 456.849238 -263.670503 
L 456.360895 -263.670503 
L 455.872552 -263.670503 
L 455.384209 -263.670503 
L 454.895866 -263.670503 
L 454.407524 -263.670503 
L 453.919181 -263.670503 
L 453.430838 -263.670503 
L 452.942495 -263.670503 
L 452.454152 -263.670503 
L 451.96581 -263.670503 
L 451.477467 -263.670503 
L 450.989124 -263.670503 
L 450.500781 -263.670503 
L 450.012439 -263.670503 
L 449.524096 -263.670503 
L 449.035753 -263.670503 
L 448.54741 -263.670503 
L 448.059067 -263.670503 
L 447.570725 -263.670503 
L 447.082382 -263.670503 
L 446.594039 -263.670503 
L 446.105696 -263.670503 
L 445.617353 -263.670503 
L 445.129011 -263.670503 
L 444.640668 -263.670503 
L 444.152325 -263.670503 
L 443.663982 -263.670503 
L 443.17564 -263.670503 
L 442.687297 -263.670503 
L 442.198954 -263.670503 
L 441.710611 -263.670503 
L 441.222268 -263.670503 
L 440.733926 -263.670503 
L 440.245583 -263.670503 
L 439.75724 -263.670503 
L 439.268897 -263.670503 
L 438.780555 -263.670503 
L 438.292212 -263.670503 
L 437.803869 -263.670503 
L 437.315526 -263.670503 
L 436.827183 -263.670503 
L 436.338841 -263.670503 
L 435.850498 -263.670503 
L 435.362155 -263.670503 
L 434.873812 -263.670503 
L 434.385469 -263.670503 
L 433.897127 -263.670503 
L 433.408784 -263.670503 
L 432.920441 -263.670503 
L 432.432098 -263.670503 
L 431.943756 -263.670503 
L 431.455413 -263.670503 
L 430.96707 -263.670503 
L 430.478727 -263.670503 
L 429.990384 -263.670503 
L 429.502042 -263.670503 
L 429.013699 -263.670503 
L 428.525356 -263.670503 
L 428.037013 -263.670503 
L 427.54867 -263.670503 
L 427.060328 -263.670503 
L 426.571985 -263.670503 
L 426.083642 -263.670503 
L 425.595299 -263.670503 
L 425.106957 -263.670503 
L 424.618614 -263.670503 
L 424.130271 -263.670503 
L 423.641928 -263.670503 
L 423.153585 -263.670503 
L 422.665243 -263.670503 
L 422.1769 -263.670503 
L 421.688557 -263.670503 
L 421.200214 -263.670503 
L 420.711871 -263.670503 
L 420.223529 -263.670503 
L 419.735186 -263.670503 
L 419.246843 -263.670503 
L 418.7585 -263.670503 
L 418.270158 -263.670503 
L 417.781815 -263.670503 
L 417.293472 -263.670503 
L 416.805129 -263.670503 
L 416.316786 -263.670503 
L 415.828444 -263.670503 
L 415.340101 -263.670503 
L 414.851758 -263.670503 
L 414.363415 -263.670503 
L 413.875072 -263.670503 
L 413.38673 -263.670503 
L 412.898387 -263.670503 
L 412.410044 -263.670503 
L 411.921701 -263.670503 
L 411.433359 -263.670503 
L 410.945016 -263.670503 
L 410.456673 -263.670503 
L 409.96833 -263.670503 
L 409.479987 -263.670503 
L 408.991645 -263.670503 
L 408.503302 -263.670503 
L 408.014959 -263.670503 
L 407.526616 -263.670503 
L 407.038273 -263.670503 
L 406.549931 -263.670503 
L 406.061588 -263.670503 
L 405.573245 -263.670503 
L 405.084902 -263.670503 
L 404.59656 -263.670503 
L 404.108217 -263.670503 
L 403.619874 -263.670503 
L 403.131531 -263.670503 
L 402.643188 -263.670503 
L 402.154846 -263.670503 
L 401.666503 -263.670503 
L 401.17816 -263.670503 
L 400.689817 -263.670503 
L 400.201474 -263.670503 
L 399.713132 -263.670503 
L 399.224789 -263.670503 
L 398.736446 -263.670503 
L 398.248103 -263.670503 
L 397.759761 -263.670503 
L 397.271418 -263.670503 
L 396.783075 -263.670503 
L 396.294732 -263.670503 
L 395.806389 -263.670503 
L 395.318047 -263.670503 
L 394.829704 -263.670503 
L 394.341361 -263.670503 
L 393.853018 -263.670503 
L 393.364675 -263.670503 
L 392.876333 -263.670503 
L 392.38799 -263.670503 
L 391.899647 -263.670503 
L 391.411304 -263.670503 
L 390.922962 -263.670503 
L 390.434619 -263.670503 
L 389.946276 -263.670503 
L 389.457933 -263.670503 
L 388.96959 -263.670503 
L 388.481248 -263.670503 
L 387.992905 -263.670503 
L 387.504562 -263.670503 
L 387.016219 -263.670503 
L 386.527876 -263.670503 
L 386.039534 -263.670503 
L 385.551191 -263.670503 
L 385.062848 -263.670503 
L 384.574505 -263.670503 
L 384.086163 -263.670503 
L 383.59782 -263.670503 
L 383.109477 -263.670503 
L 382.621134 -263.670503 
L 382.132791 -263.670503 
L 381.644449 -263.670503 
L 381.156106 -263.670503 
L 380.667763 -263.670503 
L 380.17942 -263.670503 
z
"/>
    </defs>
    <g clip-path="url(#pcda364ca24)">
     <use xlink:href="#m6244fe2800" x="0" y="270.870503" style="fill: #1f77b4; fill-opacity: 0.09"/>
    </g>
   </g>
   <g id="line2d_5">
    <path d="M 380.17942 93.975652 
L 384.574505 94.084849 
L 388.96959 94.412437 
L 393.364675 94.958419 
L 397.759761 95.722793 
L 402.154846 96.70556 
L 406.549931 97.90672 
L 410.945016 99.326272 
L 415.340101 100.964217 
L 419.735186 102.820555 
L 424.618614 105.139292 
L 429.502042 107.727649 
L 434.385469 110.585627 
L 439.268897 113.713225 
L 444.152325 117.110444 
L 449.035753 120.777284 
L 453.919181 124.713744 
L 458.802609 128.919825 
L 464.174379 133.857926 
L 469.54615 139.122267 
L 474.917921 144.712849 
L 480.289691 150.629673 
L 485.661462 156.872737 
L 491.033233 163.442042 
L 496.893346 170.980633 
L 502.753459 178.907477 
L 508.613573 187.222575 
L 514.473686 195.925927 
L 520.3338 205.017532 
L 526.193913 214.497391 
L 526.193913 214.497391 
" clip-path="url(#pcda364ca24)" style="fill: none; stroke: #1f77b4; stroke-width: 2; stroke-linecap: square"/>
   </g>
   <g id="line2d_6">
    <path d="M 348.056232 67.46087 
L 567.077971 248.243478 
" clip-path="url(#pcda364ca24)" style="fill: none; stroke: #2ca02c; stroke-width: 2; stroke-linecap: square"/>
   </g>
   <g id="patch_4">
    <path d="M 453.186667 149.226724 
Q 453.186667 139.171947 453.186667 129.11717 
" style="fill: none; stroke: #7f7f7f; stroke-width: 1.4; stroke-linecap: round"/>
    <path d="M 455.386667 144.826724 
L 453.186667 149.226724 
L 450.986667 144.826724 
" style="fill: none; stroke: #7f7f7f; stroke-width: 1.4; stroke-linecap: round"/>
    <path d="M 450.986667 133.51717 
L 453.186667 129.11717 
L 455.386667 133.51717 
" style="fill: none; stroke: #7f7f7f; stroke-width: 1.4; stroke-linecap: round"/>
   </g>
   <g id="text_7">
    <!-- duality gap -->
    <g style="fill: #7f7f7f" transform="translate(359.229728 142.206617) scale(0.11 -0.11)">
     <defs>
      <path id="DejaVuSans-64" d="M 2906 2969 
L 2906 4863 
L 3481 4863 
L 3481 0 
L 2906 0 
L 2906 525 
Q 2725 213 2448 61 
Q 2172 -91 1784 -91 
Q 1150 -91 751 415 
Q 353 922 353 1747 
Q 353 2572 751 3078 
Q 1150 3584 1784 3584 
Q 2172 3584 2448 3432 
Q 2725 3281 2906 2969 
z
M 947 1747 
Q 947 1113 1208 752 
Q 1469 391 1925 391 
Q 2381 391 2643 752 
Q 2906 1113 2906 1747 
Q 2906 2381 2643 2742 
Q 2381 3103 1925 3103 
Q 1469 3103 1208 2742 
Q 947 2381 947 1747 
z
" transform="scale(0.015625)"/>
      <path id="DejaVuSans-79" d="M 2059 -325 
Q 1816 -950 1584 -1140 
Q 1353 -1331 966 -1331 
L 506 -1331 
L 506 -850 
L 844 -850 
Q 1081 -850 1212 -737 
Q 1344 -625 1503 -206 
L 1606 56 
L 191 3500 
L 800 3500 
L 1894 763 
L 2988 3500 
L 3597 3500 
L 2059 -325 
z
" transform="scale(0.015625)"/>
      <path id="DejaVuSans-67" d="M 2906 1791 
Q 2906 2416 2648 2759 
Q 2391 3103 1925 3103 
Q 1463 3103 1205 2759 
Q 947 2416 947 1791 
Q 947 1169 1205 825 
Q 1463 481 1925 481 
Q 2391 481 2648 825 
Q 2906 1169 2906 1791 
z
M 3481 434 
Q 3481 -459 3084 -895 
Q 2688 -1331 1869 -1331 
Q 1566 -1331 1297 -1286 
Q 1028 -1241 775 -1147 
L 775 -588 
Q 1028 -725 1275 -790 
Q 1522 -856 1778 -856 
Q 2344 -856 2625 -561 
Q 2906 -266 2906 331 
L 2906 616 
Q 2728 306 2450 153 
Q 2172 0 1784 0 
Q 1141 0 747 490 
Q 353 981 353 1791 
Q 353 2603 747 3093 
Q 1141 3584 1784 3584 
Q 2172 3584 2450 3431 
Q 2728 3278 2906 2969 
L 2906 3500 
L 3481 3500 
L 3481 434 
z
" transform="scale(0.015625)"/>
     </defs>
     <use xlink:href="#DejaVuSans-64"/>
     <use xlink:href="#DejaVuSans-75" transform="translate(63.476562 0)"/>
     <use xlink:href="#DejaVuSans-61" transform="translate(126.855469 0)"/>
     <use xlink:href="#DejaVuSans-6c" transform="translate(188.134766 0)"/>
     <use xlink:href="#DejaVuSans-69" transform="translate(215.917969 0)"/>
     <use xlink:href="#DejaVuSans-74" transform="translate(243.701172 0)"/>
     <use xlink:href="#DejaVuSans-79" transform="translate(282.910156 0)"/>
     <use xlink:href="#DejaVuSans-20" transform="translate(342.089844 0)"/>
     <use xlink:href="#DejaVuSans-67" transform="translate(373.876953 0)"/>
     <use xlink:href="#DejaVuSans-61" transform="translate(437.353516 0)"/>
     <use xlink:href="#DejaVuSans-70" transform="translate(498.632812 0)"/>
    </g>
   </g>
   <g id="text_8">
    <!-- $p^\star$ -->
    <g transform="translate(431.546014 127.373431) scale(0.11 -0.11)">
     <use xlink:href="#Cmmi10-70" transform="translate(0 0.94375)"/>
     <use xlink:href="#STIXGeneral-Regular-22c6" transform="translate(68.887266 39.207812) scale(0.7)"/>
    </g>
   </g>
   <g id="text_9">
    <!-- $d^\star$ -->
    <g style="fill: #2ca02c" transform="translate(430.776014 157.271834) scale(0.11 -0.11)">
     <use xlink:href="#Cmmi10-64" transform="translate(0 0.94375)"/>
     <use xlink:href="#STIXGeneral-Regular-22c6" transform="translate(75.888906 39.207812) scale(0.7)"/>
    </g>
   </g>
   <g id="text_10">
    <!-- feasible slice $u\leq0$ -->
    <g style="fill: #ff7f0e" transform="translate(329.074348 30.724008) scale(0.11 -0.11)">
     <use xlink:href="#DejaVuSans-66" transform="translate(0 0.015625)"/>
     <use xlink:href="#DejaVuSans-65" transform="translate(35.205078 0.015625)"/>
     <use xlink:href="#DejaVuSans-61" transform="translate(96.728516 0.015625)"/>
     <use xlink:href="#DejaVuSans-73" transform="translate(158.007812 0.015625)"/>
     <use xlink:href="#DejaVuSans-69" transform="translate(210.107422 0.015625)"/>
     <use xlink:href="#DejaVuSans-62" transform="translate(237.890625 0.015625)"/>
     <use xlink:href="#DejaVuSans-6c" transform="translate(301.367188 0.015625)"/>
     <use xlink:href="#DejaVuSans-65" transform="translate(329.150391 0.015625)"/>
     <use xlink:href="#DejaVuSans-20" transform="translate(390.673828 0.015625)"/>
     <use xlink:href="#DejaVuSans-73" transform="translate(422.460938 0.015625)"/>
     <use xlink:href="#DejaVuSans-6c" transform="translate(474.560547 0.015625)"/>
     <use xlink:href="#DejaVuSans-69" transform="translate(502.34375 0.015625)"/>
     <use xlink:href="#DejaVuSans-63" transform="translate(530.126953 0.015625)"/>
     <use xlink:href="#DejaVuSans-65" transform="translate(585.107422 0.015625)"/>
     <use xlink:href="#DejaVuSans-20" transform="translate(646.630859 0.015625)"/>
     <use xlink:href="#Cmmi10-75" transform="translate(678.417969 0.015625)"/>
     <use xlink:href="#Cmsy10-2219" transform="translate(753.154297 0.015625)"/>
     <use xlink:href="#Cmr10-30" transform="translate(848.398438 0.015625)"/>
    </g>
   </g>
   <g id="text_11">
    <!-- dented $G$ -->
    <g style="fill: #1f77b4" transform="translate(569.998261 239.226617) scale(0.11 -0.11)">
     <use xlink:href="#DejaVuSans-64" transform="translate(0 0.015625)"/>
     <use xlink:href="#DejaVuSans-65" transform="translate(63.476562 0.015625)"/>
     <use xlink:href="#DejaVuSans-6e" transform="translate(125 0.015625)"/>
     <use xlink:href="#DejaVuSans-74" transform="translate(188.378906 0.015625)"/>
     <use xlink:href="#DejaVuSans-65" transform="translate(227.587891 0.015625)"/>
     <use xlink:href="#DejaVuSans-64" transform="translate(289.111328 0.015625)"/>
     <use xlink:href="#DejaVuSans-20" transform="translate(352.587891 0.015625)"/>
     <use xlink:href="#Cmmi10-47" transform="translate(384.375 0.015625)"/>
    </g>
   </g>
   <g id="text_12">
    <!-- slope $-\lambda^\star$ -->
    <g style="fill: #2ca02c" transform="translate(469.726669 185.456712) rotate(-323) scale(0.11 -0.11)">
     <use xlink:href="#DejaVuSans-73" transform="translate(0 0.94375)"/>
     <use xlink:href="#DejaVuSans-6c" transform="translate(52.099609 0.94375)"/>
     <use xlink:href="#DejaVuSans-6f" transform="translate(79.882812 0.94375)"/>
     <use xlink:href="#DejaVuSans-70" transform="translate(141.064453 0.94375)"/>
     <use xlink:href="#DejaVuSans-65" transform="translate(204.541016 0.94375)"/>
     <use xlink:href="#DejaVuSans-20" transform="translate(266.064453 0.94375)"/>
     <use xlink:href="#Cmsy10-a1" transform="translate(297.851562 0.94375)"/>
     <use xlink:href="#Cmmi10-b8" transform="translate(375.537109 0.94375)"/>
     <use xlink:href="#STIXGeneral-Regular-22c6" transform="translate(457.724844 39.207812) scale(0.7)"/>
    </g>
   </g>
   <g id="patch_5">
    <path d="M 320.849803 93.975652 
Q 453.185946 93.975652 584.515859 93.975652 
" style="fill: none; stroke: #000000; stroke-width: 0.9; stroke-linecap: round"/>
    <path d="M 580.115859 91.775652 
L 584.515859 93.975652 
L 580.115859 96.175652 
" style="fill: none; stroke: #000000; stroke-width: 0.9; stroke-linecap: round"/>
   </g>
   <g id="patch_6">
    <path d="M 453.186667 254.68145 
Q 453.186667 131.939547 453.186667 10.203876 
" style="fill: none; stroke: #000000; stroke-width: 0.9; stroke-linecap: round"/>
    <path d="M 450.986667 14.603876 
L 453.186667 10.203876 
L 455.386667 14.603876 
" style="fill: none; stroke: #000000; stroke-width: 0.9; stroke-linecap: round"/>
   </g>
   <g id="text_13">
    <!-- constraint value  $u$ -->
    <g transform="translate(485.22 112.313133) scale(0.11 -0.11)">
     <use xlink:href="#DejaVuSans-63" transform="translate(0 0.015625)"/>
     <use xlink:href="#DejaVuSans-6f" transform="translate(54.980469 0.015625)"/>
     <use xlink:href="#DejaVuSans-6e" transform="translate(116.162109 0.015625)"/>
     <use xlink:href="#DejaVuSans-73" transform="translate(179.541016 0.015625)"/>
     <use xlink:href="#DejaVuSans-74" transform="translate(231.640625 0.015625)"/>
     <use xlink:href="#DejaVuSans-72" transform="translate(270.849609 0.015625)"/>
     <use xlink:href="#DejaVuSans-61" transform="translate(311.962891 0.015625)"/>
     <use xlink:href="#DejaVuSans-69" transform="translate(373.242188 0.015625)"/>
     <use xlink:href="#DejaVuSans-6e" transform="translate(401.025391 0.015625)"/>
     <use xlink:href="#DejaVuSans-74" transform="translate(464.404297 0.015625)"/>
     <use xlink:href="#DejaVuSans-20" transform="translate(503.613281 0.015625)"/>
     <use xlink:href="#DejaVuSans-76" transform="translate(535.400391 0.015625)"/>
     <use xlink:href="#DejaVuSans-61" transform="translate(594.580078 0.015625)"/>
     <use xlink:href="#DejaVuSans-6c" transform="translate(655.859375 0.015625)"/>
     <use xlink:href="#DejaVuSans-75" transform="translate(683.642578 0.015625)"/>
     <use xlink:href="#DejaVuSans-65" transform="translate(747.021484 0.015625)"/>
     <use xlink:href="#DejaVuSans-20" transform="translate(808.544922 0.015625)"/>
     <use xlink:href="#DejaVuSans-20" transform="translate(840.332031 0.015625)"/>
     <use xlink:href="#Cmmi10-75" transform="translate(872.119141 0.015625)"/>
    </g>
   </g>
   <g id="text_14">
    <!-- objective value  $t$ -->
    <g transform="translate(463.933333 15.56) scale(0.11 -0.11)">
     <use xlink:href="#DejaVuSans-6f" transform="translate(0 0.015625)"/>
     <use xlink:href="#DejaVuSans-62" transform="translate(61.181641 0.015625)"/>
     <use xlink:href="#DejaVuSans-6a" transform="translate(124.658203 0.015625)"/>
     <use xlink:href="#DejaVuSans-65" transform="translate(152.441406 0.015625)"/>
     <use xlink:href="#DejaVuSans-63" transform="translate(213.964844 0.015625)"/>
     <use xlink:href="#DejaVuSans-74" transform="translate(268.945312 0.015625)"/>
     <use xlink:href="#DejaVuSans-69" transform="translate(308.154297 0.015625)"/>
     <use xlink:href="#DejaVuSans-76" transform="translate(335.9375 0.015625)"/>
     <use xlink:href="#DejaVuSans-65" transform="translate(395.117188 0.015625)"/>
     <use xlink:href="#DejaVuSans-20" transform="translate(456.640625 0.015625)"/>
     <use xlink:href="#DejaVuSans-76" transform="translate(488.427734 0.015625)"/>
     <use xlink:href="#DejaVuSans-61" transform="translate(547.607422 0.015625)"/>
     <use xlink:href="#DejaVuSans-6c" transform="translate(608.886719 0.015625)"/>
     <use xlink:href="#DejaVuSans-75" transform="translate(636.669922 0.015625)"/>
     <use xlink:href="#DejaVuSans-65" transform="translate(700.048828 0.015625)"/>
     <use xlink:href="#DejaVuSans-20" transform="translate(761.572266 0.015625)"/>
     <use xlink:href="#DejaVuSans-20" transform="translate(793.359375 0.015625)"/>
     <use xlink:href="#Cmmi10-74" transform="translate(825.146484 0.015625)"/>
    </g>
   </g>
   <g id="line2d_7">
    <path d="M 380.17942 93.975652 
L 384.574505 94.084849 
L 388.96959 94.412437 
L 393.364675 94.958419 
L 397.759761 95.722793 
L 402.154846 96.70556 
L 406.549931 97.90672 
L 410.945016 99.326272 
L 415.340101 100.964217 
L 419.735186 102.820555 
L 424.618614 105.139292 
L 429.502042 107.727649 
L 434.385469 110.585627 
L 439.268897 113.713225 
L 444.152325 117.110444 
L 449.035753 120.777284 
L 452.942495 123.904883 
L 452.942495 123.904883 
" clip-path="url(#pcda364ca24)" style="fill: none; stroke: #ff7f0e; stroke-width: 3.4; stroke-linecap: square"/>
   </g>
   <g id="line2d_8">
    <g clip-path="url(#pcda364ca24)">
     <use xlink:href="#m9c1ad6aac4" x="453.186667" y="124.106087" style="stroke: #000000"/>
    </g>
   </g>
   <g id="line2d_9">
    <defs>
     <path id="mf82da9deea" d="M 0 3.5 
C 0.928211 3.5 1.81853 3.131218 2.474874 2.474874 
C 3.131218 1.81853 3.5 0.928211 3.5 0 
C 3.5 -0.928211 3.131218 -1.81853 2.474874 -2.474874 
C 1.81853 -3.131218 0.928211 -3.5 0 -3.5 
C -0.928211 -3.5 -1.81853 -3.131218 -2.474874 -2.474874 
C -3.131218 -1.81853 -3.5 -0.928211 -3.5 0 
C -3.5 0.928211 -3.131218 1.81853 -2.474874 2.474874 
C -1.81853 3.131218 -0.928211 3.5 0 3.5 
z
" style="stroke: #2ca02c"/>
    </defs>
    <g clip-path="url(#pcda364ca24)">
     <use xlink:href="#mf82da9deea" x="453.186667" y="154.236522" style="fill: #2ca02c; stroke: #2ca02c"/>
    </g>
   </g>
  </g>
 </g>
 <defs>
  <clipPath id="pbbe956b761">
   <rect x="7.2" y="7.2" width="268.666667" height="249.48"/>
  </clipPath>
  <clipPath id="pcda364ca24">
   <rect x="318.853333" y="7.2" width="268.666667" height="249.48"/>
  </clipPath>
 </defs>
</svg>
