<?xml version="1.0" encoding="utf-8" standalone="no"?>
<!DOCTYPE svg PUBLIC "-//W3C//DTD SVG 1.1//EN"
  "http://www.w3.org/Graphics/SVG/1.1/DTD/svg11.dtd">
<svg xmlns:xlink="http://www.w3.org/1999/xlink" width="346.280548pt" height="269.424pt" viewBox="0 0 346.280548 269.424" xmlns="http://www.w3.org/2000/svg" version="1.1">
 <metadata>
  <rdf:RDF xmlns:dc="http://purl.org/dc/elements/1.1/" xmlns:cc="http://creativecommons.org/ns#" xmlns:rdf="http://www.w3.org/1999/02/22-rdf-syntax-ns#">
   <cc:Work>
    <dc:type rdf:resource="http://purl.org/dc/dcmitype/StillImage"/>
    <dc:format>image/svg+xml</dc:format>
    <dc:creator>
     <cc:Agent>
      <dc:title>Matplotlib v3.10.8, https://matplotlib.org/</dc:title>
     </cc:Agent>
    </dc:creator>
   </cc:Work>
  </rdf:RDF>
 </metadata>
 <defs>
  <style type="text/css">*{stroke-linejoin: round; stroke-linecap: butt}</style>
 </defs>
 <g id="figure_1">
  <g id="patch_1">
   <path d="M 0 269.424 
L 346.280548 269.424 
L 346.280548 0 
L 0 0 
z
" style="fill: #ffffff"/>
  </g>
  <g id="axes_1">
   <g id="QuadContourSet_1">
    <path d="M 176.10023 185.304446 
L 173.05988 185.02493 
L 170.01953 184.518205 
L 166.790423 183.73034 
L 163.938829 182.794459 
L 160.898479 181.540883 
L 157.858129 179.992821 
L 154.817778 178.111862 
L 152.135711 176.129465 
L 150.257253 174.532775 
L 147.293417 171.568939 
L 145.696727 169.69048 
L 143.71433 167.008414 
L 141.83337 163.968063 
L 140.285308 160.927713 
L 139.031733 157.887363 
L 138.039923 154.847012 
L 137.307987 151.806662 
L 136.801262 148.766312 
L 136.521746 145.725961 
L 136.467454 142.685611 
L 136.632354 139.645261 
L 137.026473 136.60491 
L 137.645804 133.56456 
L 138.505519 130.52421 
L 139.616431 127.483859 
L 141.136202 124.210414 
L 142.722911 121.403159 
L 144.798902 118.362809 
L 147.216902 115.407475 
L 148.73761 113.802283 
L 151.777428 111.051972 
L 154.153334 109.241758 
L 156.44726 107.721582 
L 159.378304 106.080198 
L 162.419666 104.681232 
L 165.459004 103.570724 
L 168.499355 102.711009 
L 171.539705 102.091679 
L 174.580055 101.697559 
L 177.620406 101.532659 
L 181.415784 101.640882 
L 183.701106 101.866468 
L 186.741457 102.373193 
L 189.970564 103.161057 
L 192.822157 104.096939 
L 195.862507 105.350514 
L 198.902858 106.898576 
L 201.943208 108.779536 
L 204.625275 110.761933 
L 206.503734 112.358623 
L 209.467569 115.322458 
L 211.064259 117.200917 
L 213.046656 119.882984 
L 214.927616 122.923334 
L 216.475678 125.963684 
L 217.729253 129.004035 
L 218.721063 132.044385 
L 219.452999 135.084735 
L 219.959724 138.125086 
L 220.239241 141.165436 
L 220.293533 144.205786 
L 220.128632 147.246137 
L 219.734513 150.286487 
L 219.115182 153.326837 
L 218.255468 156.367187 
L 217.144555 159.407538 
L 215.624785 162.680983 
L 214.038075 165.488238 
L 211.962084 168.528589 
L 209.544084 171.483923 
L 208.023376 173.089114 
L 204.983558 175.839425 
L 202.607652 177.64964 
L 200.313726 179.169815 
L 197.382683 180.811199 
L 194.34132 182.210165 
L 191.301982 183.320673 
L 188.261632 184.180388 
L 185.221281 184.799718 
L 182.180931 185.193838 
L 179.140581 185.358738 
L 176.10023 185.304446 
L 176.10023 185.304446 
" clip-path="url(#pc216b68001)" style="fill: none; stroke: #cfcfcf; stroke-width: 0.9"/>
    <path d="M 170.01953 212.811341 
L 168.50404 212.613668 
L 168.499355 212.613044 
L 166.979179 212.376572 
L 165.459004 212.106319 
L 163.938829 211.802284 
L 162.418654 211.464467 
L 160.901034 211.093493 
L 160.898479 211.092854 
L 159.378304 210.678261 
L 157.858129 210.229118 
L 156.337953 209.745426 
L 155.833102 209.573318 
L 154.817778 209.219135 
L 153.297603 208.653489 
L 151.779081 208.053143 
L 151.777428 208.052474 
L 150.257253 207.40097 
L 148.737078 206.713272 
L 148.358439 206.532968 
L 147.216902 205.97612 
L 145.696727 205.197494 
L 145.352511 205.012793 
L 144.176552 204.366015 
L 142.657599 203.492617 
L 142.656377 203.491897 
L 141.136202 202.556404 
L 140.225221 201.972442 
L 139.616027 201.571656 
L 138.095851 200.531537 
L 137.984287 200.452267 
L 136.575676 199.424362 
L 135.925177 198.932092 
L 135.055501 198.255678 
L 134.008074 197.411917 
L 133.535326 197.020211 
L 132.218778 195.891742 
L 132.015151 195.712071 
L 130.54492 194.371566 
L 130.494976 194.324649 
L 128.975679 192.851391 
L 128.9748 192.850513 
L 127.501543 191.331216 
L 127.454625 191.281271 
L 126.114121 189.811041 
L 125.93445 189.607414 
L 124.80598 188.290866 
L 124.414275 187.818118 
L 123.570514 186.770691 
L 122.8941 185.901015 
L 122.40183 185.250516 
L 121.373925 183.841905 
L 121.294655 183.73034 
L 120.254535 182.210165 
L 119.85375 181.600971 
L 119.269788 180.68999 
L 118.334295 179.169815 
L 118.333574 179.168593 
L 117.460176 177.64964 
L 116.813399 176.473681 
L 116.628698 176.129465 
L 115.850071 174.609289 
L 115.293224 173.467753 
L 115.11292 173.089114 
L 114.425222 171.568939 
L 113.773718 170.048764 
L 113.773049 170.04711 
L 113.172703 168.528589 
L 112.607057 167.008414 
L 112.252874 165.99309 
L 112.080765 165.488238 
L 111.597073 163.968063 
L 111.147931 162.447888 
L 110.733337 160.927713 
L 110.732699 160.925158 
L 110.361725 159.407538 
L 110.023908 157.887363 
L 109.719873 156.367187 
L 109.44962 154.847012 
L 109.213148 153.326837 
L 109.212523 153.322152 
L 109.014851 151.806662 
L 108.849614 150.286487 
L 108.717425 148.766312 
L 108.618283 147.246137 
L 108.552189 145.725961 
L 108.519141 144.205786 
L 108.519141 142.685611 
L 108.552189 141.165436 
L 108.618283 139.645261 
L 108.717425 138.125086 
L 108.849614 136.60491 
L 109.014851 135.084735 
L 109.212523 133.569245 
L 109.213148 133.56456 
L 109.44962 132.044385 
L 109.719873 130.52421 
L 110.023908 129.004035 
L 110.361725 127.483859 
L 110.732699 125.96624 
L 110.733337 125.963684 
L 111.147931 124.443509 
L 111.597073 122.923334 
L 112.080765 121.403159 
L 112.252874 120.898308 
L 112.607057 119.882984 
L 113.172703 118.362809 
L 113.773049 116.844287 
L 113.773718 116.842633 
L 114.425222 115.322458 
L 115.11292 113.802283 
L 115.293224 113.423645 
L 115.850071 112.282108 
L 116.628698 110.761933 
L 116.813399 110.417716 
L 117.460176 109.241758 
L 118.333574 107.722805 
L 118.334295 107.721582 
L 119.269788 106.201407 
L 119.85375 105.290427 
L 120.254535 104.681232 
L 121.294655 103.161057 
L 121.373925 103.049492 
L 122.40183 101.640882 
L 122.8941 100.990382 
L 123.570514 100.120707 
L 124.414275 99.073279 
L 124.80598 98.600531 
L 125.93445 97.283983 
L 126.114121 97.080356 
L 127.454625 95.610126 
L 127.501543 95.560181 
L 128.9748 94.040884 
L 128.975679 94.040006 
L 130.494976 92.566749 
L 130.54492 92.519831 
L 132.015151 91.179327 
L 132.218778 90.999656 
L 133.535326 89.871186 
L 134.008074 89.47948 
L 135.055501 88.63572 
L 135.925177 87.959305 
L 136.575676 87.467035 
L 137.984287 86.43913 
L 138.095851 86.359861 
L 139.616027 85.319741 
L 140.225221 84.918955 
L 141.136202 84.334993 
L 142.656377 83.399501 
L 142.657599 83.39878 
L 144.176552 82.525382 
L 145.352511 81.878605 
L 145.696727 81.693903 
L 147.216902 80.915277 
L 148.358439 80.35843 
L 148.737078 80.178126 
L 150.257253 79.490427 
L 151.777428 78.838924 
L 151.779081 78.838254 
L 153.297603 78.237909 
L 154.817778 77.672262 
L 155.833102 77.318079 
L 156.337953 77.145971 
L 157.858129 76.662279 
L 159.378304 76.213136 
L 160.898479 75.798543 
L 160.901034 75.797904 
L 162.418654 75.42693 
L 163.938829 75.089114 
L 165.459004 74.785079 
L 166.979179 74.514825 
L 168.499355 74.278354 
L 168.50404 74.277729 
L 170.01953 74.080056 
L 171.539705 73.91482 
L 173.05988 73.782631 
L 174.580055 73.683489 
L 176.10023 73.617394 
L 177.620406 73.584347 
L 179.140581 73.584347 
L 180.660756 73.617394 
L 182.180931 73.683489 
L 183.701106 73.782631 
L 185.221281 73.91482 
L 186.741457 74.080056 
L 188.256947 74.277729 
L 188.261632 74.278354 
L 189.781807 74.514825 
L 191.301982 74.785079 
L 192.822157 75.089114 
L 194.342332 75.42693 
L 195.859952 75.797904 
L 195.862507 75.798543 
L 197.382683 76.213136 
L 198.902858 76.662279 
L 200.423033 77.145971 
L 200.927884 77.318079 
L 201.943208 77.672262 
L 203.463383 78.237909 
L 204.981905 78.838254 
L 204.983558 78.838924 
L 206.503734 79.490427 
L 208.023909 80.178126 
L 208.402547 80.35843 
L 209.544084 80.915277 
L 211.064259 81.693903 
L 211.408476 81.878605 
L 212.584434 82.525382 
L 214.103387 83.39878 
L 214.104609 83.399501 
L 215.624785 84.334993 
L 216.535765 84.918955 
L 217.14496 85.319741 
L 218.665135 86.359861 
L 218.776699 86.43913 
L 220.18531 87.467035 
L 220.83581 87.959305 
L 221.705485 88.63572 
L 222.752913 89.47948 
L 223.22566 89.871186 
L 224.542208 90.999656 
L 224.745836 91.179327 
L 226.216066 92.519831 
L 226.266011 92.566749 
L 227.785307 94.040006 
L 227.786186 94.040884 
L 229.259443 95.560181 
L 229.306361 95.610126 
L 230.646865 97.080356 
L 230.826536 97.283983 
L 231.955006 98.600531 
L 232.346711 99.073279 
L 233.190472 100.120707 
L 233.866886 100.990382 
L 234.359157 101.640882 
L 235.387062 103.049492 
L 235.466331 103.161057 
L 236.506451 104.681232 
L 236.907237 105.290427 
L 237.491199 106.201407 
L 238.426691 107.721582 
L 238.427412 107.722805 
L 239.30081 109.241758 
L 239.947587 110.417716 
L 240.132289 110.761933 
L 240.910915 112.282108 
L 241.467762 113.423645 
L 241.648066 113.802283 
L 242.335764 115.322458 
L 242.987268 116.842633 
L 242.987937 116.844287 
L 243.588283 118.362809 
L 244.15393 119.882984 
L 244.508113 120.898308 
L 244.680221 121.403159 
L 245.163913 122.923334 
L 245.613056 124.443509 
L 246.027649 125.963684 
L 246.028288 125.96624 
L 246.399261 127.483859 
L 246.737078 129.004035 
L 247.041113 130.52421 
L 247.311367 132.044385 
L 247.547838 133.56456 
L 247.548463 133.569245 
L 247.746136 135.084735 
L 247.911372 136.60491 
L 248.043561 138.125086 
L 248.142703 139.645261 
L 248.208798 141.165436 
L 248.241845 142.685611 
L 248.241845 144.205786 
L 248.208798 145.725961 
L 248.142703 147.246137 
L 248.043561 148.766312 
L 247.911372 150.286487 
L 247.746136 151.806662 
L 247.548463 153.322152 
L 247.547838 153.326837 
L 247.311367 154.847012 
L 247.041113 156.367187 
L 246.737078 157.887363 
L 246.399261 159.407538 
L 246.028288 160.925158 
L 246.027649 160.927713 
L 245.613056 162.447888 
L 245.163913 163.968063 
L 244.680221 165.488238 
L 244.508113 165.99309 
L 244.15393 167.008414 
L 243.588283 168.528589 
L 242.987937 170.04711 
L 242.987268 170.048764 
L 242.335764 171.568939 
L 241.648066 173.089114 
L 241.467762 173.467753 
L 240.910915 174.609289 
L 240.132289 176.129465 
L 239.947587 176.473681 
L 239.30081 177.64964 
L 238.427412 179.168593 
L 238.426691 179.169815 
L 237.491199 180.68999 
L 236.907237 181.600971 
L 236.506451 182.210165 
L 235.466331 183.73034 
L 235.387062 183.841905 
L 234.359157 185.250516 
L 233.866886 185.901015 
L 233.190472 186.770691 
L 232.346711 187.818118 
L 231.955006 188.290866 
L 230.826536 189.607414 
L 230.646865 189.811041 
L 229.306361 191.281271 
L 229.259443 191.331216 
L 227.786186 192.850513 
L 227.785307 192.851391 
L 226.266011 194.324649 
L 226.216066 194.371566 
L 224.745836 195.712071 
L 224.542208 195.891742 
L 223.22566 197.020211 
L 222.752913 197.411917 
L 221.705485 198.255678 
L 220.83581 198.932092 
L 220.18531 199.424362 
L 218.776699 200.452267 
L 218.665135 200.531537 
L 217.14496 201.571656 
L 216.535765 201.972442 
L 215.624785 202.556404 
L 214.104609 203.491897 
L 214.103387 203.492617 
L 212.584434 204.366015 
L 211.408476 205.012793 
L 211.064259 205.197494 
L 209.544084 205.97612 
L 208.402547 206.532968 
L 208.023909 206.713272 
L 206.503734 207.40097 
L 204.983558 208.052474 
L 204.981905 208.053143 
L 203.463383 208.653489 
L 201.943208 209.219135 
L 200.927884 209.573318 
L 200.423033 209.745426 
L 198.902858 210.229118 
L 197.382683 210.678261 
L 195.862507 211.092854 
L 195.859952 211.093493 
L 194.342332 211.464467 
L 192.822157 211.802284 
L 191.301982 212.106319 
L 189.781807 212.376572 
L 188.261632 212.613044 
L 188.256947 212.613668 
L 186.741457 212.811341 
L 185.221281 212.976577 
L 183.701106 213.108767 
L 182.180931 213.207908 
L 180.660756 213.274003 
L 179.140581 213.30705 
L 177.620406 213.30705 
L 176.10023 213.274003 
L 174.580055 213.207908 
L 173.05988 213.108767 
L 171.539705 212.976577 
L 170.01953 212.811341 
z
" clip-path="url(#pc216b68001)" style="fill: none; stroke: #cfcfcf; stroke-width: 0.9"/>
    <path d="M 166.979179 241.595528 
L 166.178614 241.496996 
L 165.459004 241.407045 
L 163.938829 241.193271 
L 162.418654 240.955743 
L 160.898479 240.694463 
L 159.378304 240.40943 
L 157.858129 240.100645 
L 157.292078 239.976821 
L 156.337953 239.764793 
L 154.817778 239.402847 
L 153.297603 239.016771 
L 151.777428 238.606565 
L 151.252713 238.456646 
L 150.257253 238.167642 
L 148.737078 237.701781 
L 147.216902 237.211402 
L 146.4052 236.936471 
L 145.696727 236.69257 
L 144.176552 236.144311 
L 142.656377 235.57113 
L 142.26284 235.416296 
L 141.136202 234.96564 
L 139.616027 234.332234 
L 138.609611 233.896121 
L 138.095851 233.669718 
L 136.575676 232.974045 
L 135.315396 232.375945 
L 135.055501 232.250479 
L 133.535326 231.490391 
L 132.308392 230.85577 
L 132.015151 230.701433 
L 130.494976 229.874671 
L 129.534747 229.335595 
L 128.9748 229.015626 
L 127.454625 228.119808 
L 126.95328 227.81542 
L 125.93445 227.185598 
L 124.535324 226.295245 
L 124.414275 226.216787 
L 122.8941 225.203337 
L 122.269061 224.77507 
L 121.373925 224.150163 
L 120.12526 223.254894 
L 119.85375 223.056483 
L 118.333574 221.916352 
L 118.097452 221.734719 
L 116.813399 220.727619 
L 116.175185 220.214544 
L 115.293224 219.491337 
L 114.344453 218.694369 
L 113.773049 218.204594 
L 112.598872 217.174194 
L 112.252874 216.864237 
L 110.932636 215.654019 
L 110.732699 215.466844 
L 109.340454 214.133844 
L 109.212523 214.008694 
L 107.817498 212.613668 
L 107.692348 212.485738 
L 106.359348 211.093493 
L 106.172173 210.893556 
L 104.961955 209.573318 
L 104.651998 209.22732 
L 103.621598 208.053143 
L 103.131823 207.481739 
L 102.334855 206.532968 
L 101.611648 205.651007 
L 101.098573 205.012793 
L 100.091472 203.728739 
L 99.90984 203.492617 
L 98.769709 201.972442 
L 98.571297 201.700932 
L 97.676028 200.452267 
L 97.051122 199.557131 
L 96.622855 198.932092 
L 95.609404 197.411917 
L 95.530947 197.290868 
L 94.640594 195.891742 
L 94.010772 194.872912 
L 93.706383 194.371566 
L 92.810566 192.851391 
L 92.490597 192.291445 
L 91.951521 191.331216 
L 91.124759 189.811041 
L 90.970422 189.5178 
L 90.3358 188.290866 
L 89.575713 186.770691 
L 89.450246 186.510796 
L 88.852147 185.250516 
L 88.156474 183.73034 
L 87.930071 183.216581 
L 87.493958 182.210165 
L 86.860552 180.68999 
L 86.409896 179.563351 
L 86.255062 179.169815 
L 85.681881 177.64964 
L 85.133621 176.129465 
L 84.889721 175.420992 
L 84.614789 174.609289 
L 84.12441 173.089114 
L 83.65855 171.568939 
L 83.369546 170.573479 
L 83.219627 170.048764 
L 82.809421 168.528589 
L 82.423345 167.008414 
L 82.061398 165.488238 
L 81.849371 164.534113 
L 81.725547 163.968063 
L 81.416762 162.447888 
L 81.131729 160.927713 
L 80.870449 159.407538 
L 80.632921 157.887363 
L 80.419147 156.367187 
L 80.329195 155.647578 
L 80.230664 154.847012 
L 80.066953 153.326837 
L 79.926629 151.806662 
L 79.809693 150.286487 
L 79.716143 148.766312 
L 79.645981 147.246137 
L 79.599207 145.725961 
L 79.57582 144.205786 
L 79.57582 142.685611 
L 79.599207 141.165436 
L 79.645981 139.645261 
L 79.716143 138.125086 
L 79.809693 136.60491 
L 79.926629 135.084735 
L 80.066953 133.56456 
L 80.230664 132.044385 
L 80.329195 131.243819 
L 80.419147 130.52421 
L 80.632921 129.004035 
L 80.870449 127.483859 
L 81.131729 125.963684 
L 81.416762 124.443509 
L 81.725547 122.923334 
L 81.849371 122.357284 
L 82.061398 121.403159 
L 82.423345 119.882984 
L 82.809421 118.362809 
L 83.219627 116.842633 
L 83.369546 116.317918 
L 83.65855 115.322458 
L 84.12441 113.802283 
L 84.614789 112.282108 
L 84.889721 111.470405 
L 85.133621 110.761933 
L 85.681881 109.241758 
L 86.255062 107.721582 
L 86.409896 107.328046 
L 86.860552 106.201407 
L 87.493958 104.681232 
L 87.930071 103.674817 
L 88.156474 103.161057 
L 88.852147 101.640882 
L 89.450246 100.380601 
L 89.575713 100.120707 
L 90.3358 98.600531 
L 90.970422 97.373597 
L 91.124759 97.080356 
L 91.951521 95.560181 
L 92.490597 94.599952 
L 92.810566 94.040006 
L 93.706383 92.519831 
L 94.010772 92.018485 
L 94.640594 90.999656 
L 95.530947 89.600529 
L 95.609404 89.47948 
L 96.622855 87.959305 
L 97.051122 87.334266 
L 97.676028 86.43913 
L 98.571297 85.190466 
L 98.769709 84.918955 
L 99.90984 83.39878 
L 100.091472 83.162658 
L 101.098573 81.878605 
L 101.611648 81.24039 
L 102.334855 80.35843 
L 103.131823 79.409659 
L 103.621598 78.838254 
L 104.651998 77.664078 
L 104.961955 77.318079 
L 106.172173 75.997841 
L 106.359348 75.797904 
L 107.692348 74.405659 
L 107.817498 74.277729 
L 109.212523 72.882703 
L 109.340454 72.757554 
L 110.732699 71.424554 
L 110.932636 71.237379 
L 112.252874 70.02716 
L 112.598872 69.717203 
L 113.773049 68.686803 
L 114.344453 68.197028 
L 115.293224 67.400061 
L 116.175185 66.676853 
L 116.813399 66.163779 
L 118.097452 65.156678 
L 118.333574 64.975046 
L 119.85375 63.834914 
L 120.12526 63.636503 
L 121.373925 62.741234 
L 122.269061 62.116328 
L 122.8941 61.68806 
L 124.414275 60.67461 
L 124.535324 60.596152 
L 125.93445 59.705799 
L 126.95328 59.075977 
L 127.454625 58.771589 
L 128.9748 57.875771 
L 129.534747 57.555802 
L 130.494976 57.016726 
L 132.015151 56.189964 
L 132.308392 56.035627 
L 133.535326 55.401006 
L 135.055501 54.640918 
L 135.315396 54.515452 
L 136.575676 53.917353 
L 138.095851 53.221679 
L 138.609611 52.995277 
L 139.616027 52.559163 
L 141.136202 51.925757 
L 142.26284 51.475102 
L 142.656377 51.320267 
L 144.176552 50.747087 
L 145.696727 50.198827 
L 146.4052 49.954926 
L 147.216902 49.679995 
L 148.737078 49.189616 
L 150.257253 48.723756 
L 151.252713 48.434751 
L 151.777428 48.284833 
L 153.297603 47.874627 
L 154.817778 47.48855 
L 156.337953 47.126604 
L 157.292078 46.914576 
L 157.858129 46.790753 
L 159.378304 46.481967 
L 160.898479 46.196934 
L 162.418654 45.935654 
L 163.938829 45.698127 
L 165.459004 45.484352 
L 166.178614 45.394401 
L 166.979179 45.29587 
L 168.499355 45.132159 
L 170.01953 44.991835 
L 171.539705 44.874898 
L 173.05988 44.781349 
L 174.580055 44.711187 
L 176.10023 44.664412 
L 177.620406 44.641025 
L 179.140581 44.641025 
L 180.660756 44.664412 
L 182.180931 44.711187 
L 183.701106 44.781349 
L 185.221281 44.874898 
L 186.741457 44.991835 
L 188.261632 45.132159 
L 189.781807 45.29587 
L 190.582372 45.394401 
L 191.301982 45.484352 
L 192.822157 45.698127 
L 194.342332 45.935654 
L 195.862507 46.196934 
L 197.382683 46.481967 
L 198.902858 46.790753 
L 199.468908 46.914576 
L 200.423033 47.126604 
L 201.943208 47.48855 
L 203.463383 47.874627 
L 204.983558 48.284833 
L 205.508274 48.434751 
L 206.503734 48.723756 
L 208.023909 49.189616 
L 209.544084 49.679995 
L 210.355786 49.954926 
L 211.064259 50.198827 
L 212.584434 50.747087 
L 214.104609 51.320267 
L 214.498146 51.475102 
L 215.624785 51.925757 
L 217.14496 52.559163 
L 218.151375 52.995277 
L 218.665135 53.221679 
L 220.18531 53.917353 
L 221.44559 54.515452 
L 221.705485 54.640918 
L 223.22566 55.401006 
L 224.452595 56.035627 
L 224.745836 56.189964 
L 226.266011 57.016726 
L 227.22624 57.555802 
L 227.786186 57.875771 
L 229.306361 58.771589 
L 229.807707 59.075977 
L 230.826536 59.705799 
L 232.225663 60.596152 
L 232.346711 60.67461 
L 233.866886 61.68806 
L 234.491926 62.116328 
L 235.387062 62.741234 
L 236.635726 63.636503 
L 236.907237 63.834914 
L 238.427412 64.975046 
L 238.663534 65.156678 
L 239.947587 66.163779 
L 240.585802 66.676853 
L 241.467762 67.400061 
L 242.416533 68.197028 
L 242.987937 68.686803 
L 244.162114 69.717203 
L 244.508113 70.02716 
L 245.828351 71.237379 
L 246.028288 71.424554 
L 247.420532 72.757554 
L 247.548463 72.882703 
L 248.943489 74.277729 
L 249.068638 74.405659 
L 250.401638 75.797904 
L 250.588813 75.997841 
L 251.799032 77.318079 
L 252.108988 77.664078 
L 253.139388 78.838254 
L 253.629164 79.409659 
L 254.426131 80.35843 
L 255.149339 81.24039 
L 255.662413 81.878605 
L 256.669514 83.162658 
L 256.851146 83.39878 
L 257.991277 84.918955 
L 258.189689 85.190466 
L 259.084958 86.43913 
L 259.709864 87.334266 
L 260.138132 87.959305 
L 261.151582 89.47948 
L 261.230039 89.600529 
L 262.120393 90.999656 
L 262.750214 92.018485 
L 263.054603 92.519831 
L 263.95042 94.040006 
L 264.27039 94.599952 
L 264.809466 95.560181 
L 265.636227 97.080356 
L 265.790565 97.373597 
L 266.425186 98.600531 
L 267.185274 100.120707 
L 267.31074 100.380601 
L 267.908839 101.640882 
L 268.604513 103.161057 
L 268.830915 103.674817 
L 269.267028 104.681232 
L 269.900435 106.201407 
L 270.35109 107.328046 
L 270.505924 107.721582 
L 271.079105 109.241758 
L 271.627365 110.761933 
L 271.871265 111.470405 
L 272.146197 112.282108 
L 272.636576 113.802283 
L 273.102436 115.322458 
L 273.391441 116.317918 
L 273.541359 116.842633 
L 273.951565 118.362809 
L 274.337641 119.882984 
L 274.699588 121.403159 
L 274.911616 122.357284 
L 275.035439 122.923334 
L 275.344225 124.443509 
L 275.629258 125.963684 
L 275.890538 127.483859 
L 276.128065 129.004035 
L 276.34184 130.52421 
L 276.431791 131.243819 
L 276.530322 132.044385 
L 276.694033 133.56456 
L 276.834357 135.084735 
L 276.951294 136.60491 
L 277.044843 138.125086 
L 277.115005 139.645261 
L 277.161779 141.165436 
L 277.185167 142.685611 
L 277.185167 144.205786 
L 277.161779 145.725961 
L 277.115005 147.246137 
L 277.044843 148.766312 
L 276.951294 150.286487 
L 276.834357 151.806662 
L 276.694033 153.326837 
L 276.530322 154.847012 
L 276.431791 155.647578 
L 276.34184 156.367187 
L 276.128065 157.887363 
L 275.890538 159.407538 
L 275.629258 160.927713 
L 275.344225 162.447888 
L 275.035439 163.968063 
L 274.911616 164.534113 
L 274.699588 165.488238 
L 274.337641 167.008414 
L 273.951565 168.528589 
L 273.541359 170.048764 
L 273.391441 170.573479 
L 273.102436 171.568939 
L 272.636576 173.089114 
L 272.146197 174.609289 
L 271.871265 175.420992 
L 271.627365 176.129465 
L 271.079105 177.64964 
L 270.505924 179.169815 
L 270.35109 179.563351 
L 269.900435 180.68999 
L 269.267028 182.210165 
L 268.830915 183.216581 
L 268.604513 183.73034 
L 267.908839 185.250516 
L 267.31074 186.510796 
L 267.185274 186.770691 
L 266.425186 188.290866 
L 265.790565 189.5178 
L 265.636227 189.811041 
L 264.809466 191.331216 
L 264.27039 192.291445 
L 263.95042 192.851391 
L 263.054603 194.371566 
L 262.750214 194.872912 
L 262.120393 195.891742 
L 261.230039 197.290868 
L 261.151582 197.411917 
L 260.138132 198.932092 
L 259.709864 199.557131 
L 259.084958 200.452267 
L 258.189689 201.700932 
L 257.991277 201.972442 
L 256.851146 203.492617 
L 256.669514 203.728739 
L 255.662413 205.012793 
L 255.149339 205.651007 
L 254.426131 206.532968 
L 253.629164 207.481739 
L 253.139388 208.053143 
L 252.108988 209.22732 
L 251.799032 209.573318 
L 250.588813 210.893556 
L 250.401638 211.093493 
L 249.068638 212.485738 
L 248.943489 212.613668 
L 247.548463 214.008694 
L 247.420532 214.133844 
L 246.028288 215.466844 
L 245.828351 215.654019 
L 244.508113 216.864237 
L 244.162114 217.174194 
L 242.987937 218.204594 
L 242.416533 218.694369 
L 241.467762 219.491337 
L 240.585802 220.214544 
L 239.947587 220.727619 
L 238.663534 221.734719 
L 238.427412 221.916352 
L 236.907237 223.056483 
L 236.635726 223.254894 
L 235.387062 224.150163 
L 234.491926 224.77507 
L 233.866886 225.203337 
L 232.346711 226.216787 
L 232.225663 226.295245 
L 230.826536 227.185598 
L 229.807707 227.81542 
L 229.306361 228.119808 
L 227.786186 229.015626 
L 227.22624 229.335595 
L 226.266011 229.874671 
L 224.745836 230.701433 
L 224.452595 230.85577 
L 223.22566 231.490391 
L 221.705485 232.250479 
L 221.44559 232.375945 
L 220.18531 232.974045 
L 218.665135 233.669718 
L 218.151375 233.896121 
L 217.14496 234.332234 
L 215.624785 234.96564 
L 214.498146 235.416296 
L 214.104609 235.57113 
L 212.584434 236.144311 
L 211.064259 236.69257 
L 210.355786 236.936471 
L 209.544084 237.211402 
L 208.023909 237.701781 
L 206.503734 238.167642 
L 205.508274 238.456646 
L 204.983558 238.606565 
L 203.463383 239.016771 
L 201.943208 239.402847 
L 200.423033 239.764793 
L 199.468908 239.976821 
L 198.902858 240.100645 
L 197.382683 240.40943 
L 195.862507 240.694463 
L 194.342332 240.955743 
L 192.822157 241.193271 
L 191.301982 241.407045 
L 190.582372 241.496996 
L 189.781807 241.595528 
L 188.261632 241.759239 
L 186.741457 241.899563 
L 185.221281 242.016499 
L 183.701106 242.110048 
L 182.180931 242.18021 
L 180.660756 242.226985 
L 179.140581 242.250372 
L 177.620406 242.250372 
L 176.10023 242.226985 
L 174.580055 242.18021 
L 173.05988 242.110048 
L 171.539705 242.016499 
L 170.01953 241.899563 
L 168.499355 241.759239 
L 166.979179 241.595528 
z
" clip-path="url(#pc216b68001)" style="fill: none; stroke: #cfcfcf; stroke-width: 0.9"/>
    <path d="M 156.606834 270.424 
L 153.297603 269.811397 
L 148.737078 268.821906 
L 142.656377 267.226189 
L 138.095851 265.818604 
L 133.535326 264.221443 
L 128.9748 262.427414 
L 124.414275 260.428846 
L 119.85375 258.217649 
L 114.245855 255.178573 
L 110.732699 253.087005 
L 106.172173 250.138913 
L 101.611648 246.905626 
L 97.051122 243.361218 
L 93.062369 239.976821 
L 89.450246 236.660774 
L 85.165418 232.375945 
L 81.849371 228.763823 
L 78.464974 224.77507 
L 74.920566 220.214544 
L 71.687279 215.654019 
L 68.739187 211.093493 
L 66.053166 206.532968 
L 63.607269 201.969927 
L 61.397346 197.411917 
L 59.046743 191.993306 
L 57.526568 188.077891 
L 56.006393 183.726664 
L 54.172225 177.64964 
L 52.655833 171.568939 
L 51.445867 165.481412 
L 50.542139 159.407538 
L 49.925692 153.310908 
L 49.604897 147.246137 
L 49.569128 141.165436 
L 49.81951 135.084735 
L 50.19829 130.52421 
L 50.958377 124.443509 
L 51.721749 119.882984 
L 53.004285 113.802283 
L 54.600003 107.721582 
L 56.007588 103.161057 
L 57.604749 98.600531 
L 59.398778 94.040006 
L 61.397346 89.47948 
L 63.608543 84.918955 
L 66.647619 79.31106 
L 68.739187 75.797904 
L 71.687279 71.237379 
L 74.920566 66.676853 
L 78.464974 62.116328 
L 81.849371 58.127574 
L 85.165418 54.515452 
L 89.450246 50.230623 
L 93.062369 46.914576 
L 97.051122 43.530179 
L 101.611648 39.985771 
L 106.172173 36.752485 
L 110.732699 33.804393 
L 115.293224 31.118372 
L 119.856265 28.672474 
L 124.414275 26.462551 
L 129.832886 24.111949 
L 133.748301 22.591773 
L 138.099527 21.071598 
L 144.176552 19.23743 
L 150.257253 17.721038 
L 156.34478 16.511073 
L 162.418654 15.607344 
L 168.515283 14.990898 
L 174.580055 14.670103 
L 180.660756 14.634334 
L 186.741457 14.884716 
L 191.301982 15.263495 
L 197.382683 16.023583 
L 201.943208 16.786955 
L 208.023909 18.069491 
L 214.104609 19.665209 
L 218.665135 21.072793 
L 223.22566 22.669954 
L 227.786186 24.463984 
L 232.346711 26.462551 
L 236.907237 28.673748 
L 242.515131 31.712824 
L 246.028288 33.804393 
L 250.588813 36.752485 
L 255.149339 39.985771 
L 259.709864 43.530179 
L 263.698617 46.914576 
L 267.31074 50.230623 
L 271.595569 54.515452 
L 274.911616 58.127574 
L 278.296012 62.116328 
L 281.840421 66.676853 
L 285.073707 71.237379 
L 288.021799 75.797904 
L 290.70782 80.35843 
L 293.153718 84.92147 
L 295.36364 89.47948 
L 297.714243 94.898091 
L 299.234418 98.813506 
L 300.754593 103.164733 
L 302.588761 109.241758 
L 304.105153 115.322458 
L 305.315119 121.409985 
L 306.218847 127.483859 
L 306.835294 133.580489 
L 307.156089 139.645261 
L 307.191858 145.725961 
L 306.941476 151.806662 
L 306.562696 156.367187 
L 305.802609 162.447888 
L 305.039237 167.008414 
L 303.756701 173.089114 
L 302.160983 179.169815 
L 300.753399 183.73034 
L 299.156238 188.290866 
L 297.362208 192.851391 
L 295.36364 197.411917 
L 293.152443 201.972442 
L 290.113367 207.580337 
L 288.021799 211.093493 
L 285.073707 215.654019 
L 281.840421 220.214544 
L 278.296012 224.77507 
L 274.911616 228.763823 
L 271.595569 232.375945 
L 267.31074 236.660774 
L 263.698617 239.976821 
L 259.709864 243.361218 
L 255.149339 246.905626 
L 250.588813 250.138913 
L 246.028288 253.087005 
L 241.467762 255.773026 
L 236.904722 258.218923 
L 232.346711 260.428846 
L 226.928101 262.779449 
L 223.012685 264.299624 
L 218.661459 265.819799 
L 212.584434 267.653967 
L 206.503734 269.170359 
L 200.416206 270.380324 
L 200.154153 270.424 
L 200.154153 270.424 
" clip-path="url(#pc216b68001)" style="fill: none; stroke: #cfcfcf; stroke-width: 0.9"/>
    <path d="M 82.14519 270.424 
L 78.20662 267.339974 
L 74.248495 264.033186 
L 69.473586 259.739098 
L 64.800021 255.178573 
L 60.485962 250.618047 
L 56.006393 245.471094 
L 52.798387 241.496996 
L 49.368524 236.936471 
L 46.183723 232.375945 
L 43.227461 227.81542 
L 40.484672 223.254894 
L 37.764291 218.357878 
L 34.850829 212.613668 
L 32.74211 208.053143 
L 30.163415 201.898588 
L 27.934534 195.891742 
L 25.950191 189.811041 
L 24.230911 183.73034 
L 22.768898 177.64964 
L 21.556658 171.568939 
L 20.586986 165.488238 
L 19.856133 159.407538 
L 19.360705 153.326837 
L 19.100104 147.246137 
L 19.071148 141.165436 
L 19.273838 135.084735 
L 19.709962 129.004035 
L 20.382347 122.923334 
L 21.290996 116.842633 
L 22.562539 110.198511 
L 23.841963 104.681232 
L 25.495215 98.600531 
L 27.412453 92.519831 
L 29.602597 86.43913 
L 32.077033 80.35843 
L 34.850829 74.277729 
L 37.943509 68.197028 
L 40.804641 63.087122 
L 44.187828 57.555802 
L 47.218475 52.995277 
L 50.483925 48.434751 
L 54.486218 43.271825 
L 57.793006 39.3137 
L 62.087093 34.538791 
L 66.647619 29.865227 
L 71.208144 25.551168 
L 76.355098 21.071598 
L 80.329195 17.863592 
L 84.889721 14.433729 
L 89.450246 11.248928 
L 94.010772 8.292667 
L 98.571297 5.549877 
L 103.468314 2.829496 
L 109.212523 -0.083965 
L 111.152892 -1 
M 245.608094 -1 
L 250.588813 1.421228 
L 256.669514 4.681206 
L 261.289571 7.390022 
L 266.082906 10.430372 
L 270.529371 13.470723 
L 274.911616 16.691409 
L 279.472141 20.29924 
L 284.032667 24.186908 
L 288.887936 28.672474 
L 293.436827 33.233 
L 297.714243 37.878262 
L 301.526952 42.354051 
L 305.315119 47.152161 
L 308.481924 51.475102 
L 311.588499 56.035627 
L 314.47255 60.596152 
L 317.47652 65.748239 
L 320.516871 71.458812 
L 323.335657 77.318079 
L 325.330558 81.878605 
L 327.732333 87.959305 
L 329.853085 94.040006 
L 331.702257 100.120707 
L 333.291615 106.201407 
L 334.628728 112.282108 
L 335.720871 118.362809 
L 336.568661 124.443509 
L 337.182578 130.52421 
L 337.559538 136.60491 
L 337.704316 142.685611 
L 337.617449 148.766312 
L 337.298936 154.847012 
L 336.744066 160.927713 
L 335.954744 167.008414 
L 334.923908 173.089114 
L 333.649304 179.169815 
L 332.123692 185.250516 
L 330.339541 191.331216 
L 328.289017 197.411917 
L 326.568638 201.972442 
L 324.018877 208.053143 
L 321.910157 212.613668 
L 318.817477 218.694369 
L 315.956345 223.804276 
L 312.573158 229.335595 
L 309.542511 233.896121 
L 306.277061 238.456646 
L 302.274769 243.619572 
L 298.967981 247.577697 
L 294.673893 252.352606 
L 290.113367 257.02617 
L 285.552842 261.34023 
L 280.405888 265.819799 
L 276.431791 269.027805 
L 274.615796 270.424 
L 274.615796 270.424 
" clip-path="url(#pc216b68001)" style="fill: none; stroke: #cfcfcf; stroke-width: 0.9"/>
    <path d="M 40.450432 270.424 
L 36.348454 265.819799 
L 32.544756 261.259273 
L 28.64324 256.259476 
L 24.55507 250.618047 
L 21.042364 245.390843 
L 17.663318 239.976821 
L 14.164742 233.896121 
L 10.959224 227.81542 
L 8.031065 221.734719 
L 5.365666 215.654019 
L 2.800262 209.170891 
L 0.77834 203.492617 
L -1 197.945266 
M 347.280548 224.81418 
L 344.234628 230.85577 
L 340.884616 236.936471 
L 337.233197 243.017172 
L 333.253805 249.097872 
L 329.637921 254.212676 
L 325.431845 259.739098 
L 321.707408 264.299624 
L 317.47652 269.146178 
L 316.310554 270.424 
M -1 88.946131 
L 0.77834 83.39878 
L 2.950735 77.318079 
L 5.365666 71.237379 
L 8.031065 65.156678 
L 10.959224 59.075977 
L 14.164742 52.995277 
L 17.663318 46.914576 
L 21.042364 41.500555 
L 24.55507 36.27335 
L 28.64324 30.631921 
L 32.544756 25.632124 
L 36.348454 21.071598 
L 40.804641 16.083671 
L 45.365167 11.328204 
L 49.925692 6.889768 
L 54.486218 2.737683 
L 58.867768 -1 
M 297.893218 -1 
L 302.378898 2.829496 
L 307.364974 7.390022 
L 312.011091 11.950547 
L 316.35087 16.511073 
L 320.516871 21.192892 
L 325.077396 26.705785 
L 328.925694 31.712824 
L 332.678272 36.954891 
L 336.26847 42.354051 
L 340.001169 48.434751 
L 343.319498 54.319198 
L 345.801762 59.075977 
L 347.280548 62.077217 
L 347.280548 62.077217 
" clip-path="url(#pc216b68001)" style="fill: none; stroke: #cfcfcf; stroke-width: 0.9"/>
   </g>
   <g id="line2d_1">
    <defs>
     <path id="m6798a3188f" d="M 0 -6 
L -1.347084 -1.854102 
L -5.706339 -1.854102 
L -2.179628 0.708204 
L -3.526712 4.854102 
L -0 2.291796 
L 3.526712 4.854102 
L 2.179628 0.708204 
L 5.706339 -1.854102 
L 1.347084 -1.854102 
z
" style="stroke: #2ca02c; stroke-linejoin: bevel"/>
    </defs>
    <g clip-path="url(#pc216b68001)">
     <use xlink:href="#m6798a3188f" x="178.380493" y="143.445699" style="fill: #2ca02c; stroke: #2ca02c; stroke-linejoin: bevel"/>
    </g>
   </g>
   <g id="patch_2">
    <path d="M 283.020777 221.836279 
Q 245.705793 192.977254 208.390809 164.118229 
" style="fill: none; stroke: #7f7f7f; stroke-width: 0.9; stroke-linecap: round"/>
   </g>
   <g id="text_1">
    <!-- noise ball $\propto\sqrt{\eta}$ -->
    <g style="fill: #7f7f7f" transform="translate(251.743562 234.082685) scale(0.11 -0.11)">
     <defs>
      <path id="DejaVuSans-6e" d="M 3513 2113 
L 3513 0 
L 2938 0 
L 2938 2094 
Q 2938 2591 2744 2837 
Q 2550 3084 2163 3084 
Q 1697 3084 1428 2787 
Q 1159 2491 1159 1978 
L 1159 0 
L 581 0 
L 581 3500 
L 1159 3500 
L 1159 2956 
Q 1366 3272 1645 3428 
Q 1925 3584 2291 3584 
Q 2894 3584 3203 3211 
Q 3513 2838 3513 2113 
z
" transform="scale(0.015625)"/>
      <path id="DejaVuSans-6f" d="M 1959 3097 
Q 1497 3097 1228 2736 
Q 959 2375 959 1747 
Q 959 1119 1226 758 
Q 1494 397 1959 397 
Q 2419 397 2687 759 
Q 2956 1122 2956 1747 
Q 2956 2369 2687 2733 
Q 2419 3097 1959 3097 
z
M 1959 3584 
Q 2709 3584 3137 3096 
Q 3566 2609 3566 1747 
Q 3566 888 3137 398 
Q 2709 -91 1959 -91 
Q 1206 -91 779 398 
Q 353 888 353 1747 
Q 353 2609 779 3096 
Q 1206 3584 1959 3584 
z
" transform="scale(0.015625)"/>
      <path id="DejaVuSans-69" d="M 603 3500 
L 1178 3500 
L 1178 0 
L 603 0 
L 603 3500 
z
M 603 4863 
L 1178 4863 
L 1178 4134 
L 603 4134 
L 603 4863 
z
" transform="scale(0.015625)"/>
      <path id="DejaVuSans-73" d="M 2834 3397 
L 2834 2853 
Q 2591 2978 2328 3040 
Q 2066 3103 1784 3103 
Q 1356 3103 1142 2972 
Q 928 2841 928 2578 
Q 928 2378 1081 2264 
Q 1234 2150 1697 2047 
L 1894 2003 
Q 2506 1872 2764 1633 
Q 3022 1394 3022 966 
Q 3022 478 2636 193 
Q 2250 -91 1575 -91 
Q 1294 -91 989 -36 
Q 684 19 347 128 
L 347 722 
Q 666 556 975 473 
Q 1284 391 1588 391 
Q 1994 391 2212 530 
Q 2431 669 2431 922 
Q 2431 1156 2273 1281 
Q 2116 1406 1581 1522 
L 1381 1569 
Q 847 1681 609 1914 
Q 372 2147 372 2553 
Q 372 3047 722 3315 
Q 1072 3584 1716 3584 
Q 2034 3584 2315 3537 
Q 2597 3491 2834 3397 
z
" transform="scale(0.015625)"/>
      <path id="DejaVuSans-65" d="M 3597 1894 
L 3597 1613 
L 953 1613 
Q 991 1019 1311 708 
Q 1631 397 2203 397 
Q 2534 397 2845 478 
Q 3156 559 3463 722 
L 3463 178 
Q 3153 47 2828 -22 
Q 2503 -91 2169 -91 
Q 1331 -91 842 396 
Q 353 884 353 1716 
Q 353 2575 817 3079 
Q 1281 3584 2069 3584 
Q 2775 3584 3186 3129 
Q 3597 2675 3597 1894 
z
M 3022 2063 
Q 3016 2534 2758 2815 
Q 2500 3097 2075 3097 
Q 1594 3097 1305 2825 
Q 1016 2553 972 2059 
L 3022 2063 
z
" transform="scale(0.015625)"/>
      <path id="DejaVuSans-20" transform="scale(0.015625)"/>
      <path id="DejaVuSans-62" d="M 3116 1747 
Q 3116 2381 2855 2742 
Q 2594 3103 2138 3103 
Q 1681 3103 1420 2742 
Q 1159 2381 1159 1747 
Q 1159 1113 1420 752 
Q 1681 391 2138 391 
Q 2594 391 2855 752 
Q 3116 1113 3116 1747 
z
M 1159 2969 
Q 1341 3281 1617 3432 
Q 1894 3584 2278 3584 
Q 2916 3584 3314 3078 
Q 3713 2572 3713 1747 
Q 3713 922 3314 415 
Q 2916 -91 2278 -91 
Q 1894 -91 1617 61 
Q 1341 213 1159 525 
L 1159 0 
L 581 0 
L 581 4863 
L 1159 4863 
L 1159 2969 
z
" transform="scale(0.015625)"/>
      <path id="DejaVuSans-61" d="M 2194 1759 
Q 1497 1759 1228 1600 
Q 959 1441 959 1056 
Q 959 750 1161 570 
Q 1363 391 1709 391 
Q 2188 391 2477 730 
Q 2766 1069 2766 1631 
L 2766 1759 
L 2194 1759 
z
M 3341 1997 
L 3341 0 
L 2766 0 
L 2766 531 
Q 2569 213 2275 61 
Q 1981 -91 1556 -91 
Q 1019 -91 701 211 
Q 384 513 384 1019 
Q 384 1609 779 1909 
Q 1175 2209 1959 2209 
L 2766 2209 
L 2766 2266 
Q 2766 2663 2505 2880 
Q 2244 3097 1772 3097 
Q 1472 3097 1187 3025 
Q 903 2953 641 2809 
L 641 3341 
Q 956 3463 1253 3523 
Q 1550 3584 1831 3584 
Q 2591 3584 2966 3190 
Q 3341 2797 3341 1997 
z
" transform="scale(0.015625)"/>
      <path id="DejaVuSans-6c" d="M 603 4863 
L 1178 4863 
L 1178 0 
L 603 0 
L 603 4863 
z
" transform="scale(0.015625)"/>
      <path id="Cmsy10-2f" d="M 1466 -72 
Q 947 -72 653 379 
Q 359 831 359 1381 
Q 359 1725 487 2059 
Q 616 2394 872 2611 
Q 1128 2828 1484 2828 
Q 1891 2828 2234 2587 
Q 2578 2347 2822 1966 
L 2963 1753 
Q 3200 2222 3562 2525 
Q 3925 2828 4397 2828 
Q 4519 2828 4616 2803 
L 4622 2606 
Q 4534 2625 4453 2625 
Q 4144 2625 3889 2465 
Q 3634 2306 3440 2051 
Q 3247 1797 3122 1503 
L 3419 1050 
Q 3563 822 3709 644 
Q 3856 466 4048 342 
Q 4241 219 4469 219 
Q 4516 219 4622 231 
L 4622 -38 
Q 4469 -72 4378 -72 
Q 3978 -72 3628 173 
Q 3278 419 3041 794 
L 2900 1006 
Q 2747 706 2539 464 
Q 2331 222 2057 75 
Q 1784 -72 1466 -72 
z
M 1409 134 
Q 1859 134 2196 457 
Q 2534 781 2741 1253 
L 2444 1709 
Q 2219 2075 1967 2308 
Q 1716 2541 1394 2541 
Q 1113 2541 917 2364 
Q 722 2188 623 1917 
Q 525 1647 525 1375 
Q 525 1097 620 808 
Q 716 519 916 326 
Q 1116 134 1409 134 
z
" transform="scale(0.015625)"/>
      <path id="Cmex10-70" d="M 2713 -7425 
L 1269 -4063 
L 819 -4409 
L 703 -4294 
L 1619 -3584 
L 2969 -6725 
L 6291 197 
Q 6322 256 6400 256 
Q 6453 256 6490 218 
Q 6528 181 6528 128 
Q 6528 97 6522 84 
L 2950 -7366 
Q 2925 -7425 2853 -7425 
L 2713 -7425 
z
" transform="scale(0.015625)"/>
      <path id="Cmmi10-b4" d="M 684 -72 
Q 606 -72 550 -22 
Q 494 28 494 109 
Q 494 147 500 166 
L 978 2075 
Q 1025 2253 1025 2388 
Q 1025 2663 838 2663 
Q 638 2663 541 2423 
Q 444 2184 353 1819 
Q 353 1800 334 1789 
Q 316 1778 300 1778 
L 225 1778 
Q 203 1778 187 1801 
Q 172 1825 172 1844 
Q 241 2122 305 2315 
Q 369 2509 505 2668 
Q 641 2828 844 2828 
Q 1081 2828 1267 2678 
Q 1453 2528 1453 2291 
Q 1641 2541 1894 2684 
Q 2147 2828 2444 2828 
Q 2778 2828 2979 2648 
Q 3181 2469 3181 2138 
Q 3181 1947 3138 1784 
L 2394 -1178 
Q 2375 -1269 2300 -1325 
Q 2225 -1381 2131 -1381 
Q 2053 -1381 1997 -1332 
Q 1941 -1284 1941 -1203 
Q 1941 -1166 1947 -1153 
L 2681 1797 
Q 2747 2059 2747 2234 
Q 2747 2413 2672 2538 
Q 2597 2663 2431 2663 
Q 1803 2663 1388 1888 
L 953 141 
Q 931 53 854 -9 
Q 778 -72 684 -72 
z
" transform="scale(0.015625)"/>
     </defs>
     <use xlink:href="#DejaVuSans-6e" transform="translate(0 0.578125)"/>
     <use xlink:href="#DejaVuSans-6f" transform="translate(63.378906 0.578125)"/>
     <use xlink:href="#DejaVuSans-69" transform="translate(124.560547 0.578125)"/>
     <use xlink:href="#DejaVuSans-73" transform="translate(152.34375 0.578125)"/>
     <use xlink:href="#DejaVuSans-65" transform="translate(204.443359 0.578125)"/>
     <use xlink:href="#DejaVuSans-20" transform="translate(265.966797 0.578125)"/>
     <use xlink:href="#DejaVuSans-62" transform="translate(297.753906 0.578125)"/>
     <use xlink:href="#DejaVuSans-61" transform="translate(361.230469 0.578125)"/>
     <use xlink:href="#DejaVuSans-6c" transform="translate(422.509766 0.578125)"/>
     <use xlink:href="#DejaVuSans-6c" transform="translate(450.292969 0.578125)"/>
     <use xlink:href="#DejaVuSans-20" transform="translate(478.076172 0.578125)"/>
     <use xlink:href="#Cmsy10-2f" transform="translate(527.421875 0.578125)"/>
     <use xlink:href="#Cmex10-70" transform="translate(622.666016 72.765625) scale(0.808358)"/>
     <use xlink:href="#Cmmi10-b4" transform="translate(715.994141 0.5625)"/>
     <path d="M 703.494141 69.5 
L 703.494141 75.75 
L 778.103516 75.75 
L 778.103516 69.5 
L 703.494141 69.5 
z
"/>
    </g>
   </g>
   <g id="patch_3">
    <path d="M 62.871741 222.227583 
Q 111.292659 192.100584 159.713577 161.973585 
" style="fill: none; stroke: #7f7f7f; stroke-width: 0.9; stroke-linecap: round"/>
   </g>
   <g id="text_2">
    <!-- step $\eta/2$ -->
    <g style="fill: #7f7f7f" transform="translate(27.231753 233.532685) scale(0.11 -0.11)">
     <defs>
      <path id="DejaVuSans-74" d="M 1172 4494 
L 1172 3500 
L 2356 3500 
L 2356 3053 
L 1172 3053 
L 1172 1153 
Q 1172 725 1289 603 
Q 1406 481 1766 481 
L 2356 481 
L 2356 0 
L 1766 0 
Q 1100 0 847 248 
Q 594 497 594 1153 
L 594 3053 
L 172 3053 
L 172 3500 
L 594 3500 
L 594 4494 
L 1172 4494 
z
" transform="scale(0.015625)"/>
      <path id="DejaVuSans-70" d="M 1159 525 
L 1159 -1331 
L 581 -1331 
L 581 3500 
L 1159 3500 
L 1159 2969 
Q 1341 3281 1617 3432 
Q 1894 3584 2278 3584 
Q 2916 3584 3314 3078 
Q 3713 2572 3713 1747 
Q 3713 922 3314 415 
Q 2916 -91 2278 -91 
Q 1894 -91 1617 61 
Q 1341 213 1159 525 
z
M 3116 1747 
Q 3116 2381 2855 2742 
Q 2594 3103 2138 3103 
Q 1681 3103 1420 2742 
Q 1159 2381 1159 1747 
Q 1159 1113 1420 752 
Q 1681 391 2138 391 
Q 2594 391 2855 752 
Q 3116 1113 3116 1747 
z
" transform="scale(0.015625)"/>
      <path id="Cmmi10-3d" d="M 359 -1472 
Q 359 -1453 366 -1447 
L 2591 4722 
Q 2603 4759 2634 4779 
Q 2666 4800 2706 4800 
Q 2763 4800 2798 4765 
Q 2834 4731 2834 4672 
L 2834 4647 
L 609 -1522 
Q 572 -1600 488 -1600 
Q 434 -1600 396 -1562 
Q 359 -1525 359 -1472 
z
" transform="scale(0.015625)"/>
      <path id="Cmr10-32" d="M 319 0 
L 319 172 
Q 319 188 331 206 
L 1325 1306 
Q 1550 1550 1690 1715 
Q 1831 1881 1968 2097 
Q 2106 2313 2186 2536 
Q 2266 2759 2266 3009 
Q 2266 3272 2169 3511 
Q 2072 3750 1880 3894 
Q 1688 4038 1416 4038 
Q 1138 4038 916 3870 
Q 694 3703 603 3438 
Q 628 3444 672 3444 
Q 816 3444 917 3347 
Q 1019 3250 1019 3097 
Q 1019 2950 917 2848 
Q 816 2747 672 2747 
Q 522 2747 420 2851 
Q 319 2956 319 3097 
Q 319 3338 409 3548 
Q 500 3759 670 3923 
Q 841 4088 1055 4175 
Q 1269 4263 1509 4263 
Q 1875 4263 2190 4108 
Q 2506 3953 2690 3670 
Q 2875 3388 2875 3009 
Q 2875 2731 2753 2481 
Q 2631 2231 2440 2026 
Q 2250 1822 1953 1562 
Q 1656 1303 1563 1216 
L 838 519 
L 1453 519 
Q 1906 519 2211 526 
Q 2516 534 2534 550 
Q 2609 631 2688 1141 
L 2875 1141 
L 2694 0 
L 319 0 
z
" transform="scale(0.015625)"/>
     </defs>
     <use xlink:href="#DejaVuSans-73"/>
     <use xlink:href="#DejaVuSans-74" transform="translate(52.099609 0)"/>
     <use xlink:href="#DejaVuSans-65" transform="translate(91.308594 0)"/>
     <use xlink:href="#DejaVuSans-70" transform="translate(152.832031 0)"/>
     <use xlink:href="#DejaVuSans-20" transform="translate(216.308594 0)"/>
     <use xlink:href="#Cmmi10-b4" transform="translate(248.095703 0)"/>
     <use xlink:href="#Cmmi10-3d" transform="translate(297.705078 0)"/>
     <use xlink:href="#Cmr10-32" transform="translate(347.705078 0)"/>
    </g>
   </g>
   <g id="text_3">
    <!-- gradient descent -->
    <g style="fill: #1f77b4" transform="translate(37.243923 22.379741) scale(0.11 -0.11)">
     <defs>
      <path id="DejaVuSans-67" d="M 2906 1791 
Q 2906 2416 2648 2759 
Q 2391 3103 1925 3103 
Q 1463 3103 1205 2759 
Q 947 2416 947 1791 
Q 947 1169 1205 825 
Q 1463 481 1925 481 
Q 2391 481 2648 825 
Q 2906 1169 2906 1791 
z
M 3481 434 
Q 3481 -459 3084 -895 
Q 2688 -1331 1869 -1331 
Q 1566 -1331 1297 -1286 
Q 1028 -1241 775 -1147 
L 775 -588 
Q 1028 -725 1275 -790 
Q 1522 -856 1778 -856 
Q 2344 -856 2625 -561 
Q 2906 -266 2906 331 
L 2906 616 
Q 2728 306 2450 153 
Q 2172 0 1784 0 
Q 1141 0 747 490 
Q 353 981 353 1791 
Q 353 2603 747 3093 
Q 1141 3584 1784 3584 
Q 2172 3584 2450 3431 
Q 2728 3278 2906 2969 
L 2906 3500 
L 3481 3500 
L 3481 434 
z
" transform="scale(0.015625)"/>
      <path id="DejaVuSans-72" d="M 2631 2963 
Q 2534 3019 2420 3045 
Q 2306 3072 2169 3072 
Q 1681 3072 1420 2755 
Q 1159 2438 1159 1844 
L 1159 0 
L 581 0 
L 581 3500 
L 1159 3500 
L 1159 2956 
Q 1341 3275 1631 3429 
Q 1922 3584 2338 3584 
Q 2397 3584 2469 3576 
Q 2541 3569 2628 3553 
L 2631 2963 
z
" transform="scale(0.015625)"/>
      <path id="DejaVuSans-64" d="M 2906 2969 
L 2906 4863 
L 3481 4863 
L 3481 0 
L 2906 0 
L 2906 525 
Q 2725 213 2448 61 
Q 2172 -91 1784 -91 
Q 1150 -91 751 415 
Q 353 922 353 1747 
Q 353 2572 751 3078 
Q 1150 3584 1784 3584 
Q 2172 3584 2448 3432 
Q 2725 3281 2906 2969 
z
M 947 1747 
Q 947 1113 1208 752 
Q 1469 391 1925 391 
Q 2381 391 2643 752 
Q 2906 1113 2906 1747 
Q 2906 2381 2643 2742 
Q 2381 3103 1925 3103 
Q 1469 3103 1208 2742 
Q 947 2381 947 1747 
z
" transform="scale(0.015625)"/>
      <path id="DejaVuSans-63" d="M 3122 3366 
L 3122 2828 
Q 2878 2963 2633 3030 
Q 2388 3097 2138 3097 
Q 1578 3097 1268 2742 
Q 959 2388 959 1747 
Q 959 1106 1268 751 
Q 1578 397 2138 397 
Q 2388 397 2633 464 
Q 2878 531 3122 666 
L 3122 134 
Q 2881 22 2623 -34 
Q 2366 -91 2075 -91 
Q 1284 -91 818 406 
Q 353 903 353 1747 
Q 353 2603 823 3093 
Q 1294 3584 2113 3584 
Q 2378 3584 2631 3529 
Q 2884 3475 3122 3366 
z
" transform="scale(0.015625)"/>
     </defs>
     <use xlink:href="#DejaVuSans-67"/>
     <use xlink:href="#DejaVuSans-72" transform="translate(63.476562 0)"/>
     <use xlink:href="#DejaVuSans-61" transform="translate(104.589844 0)"/>
     <use xlink:href="#DejaVuSans-64" transform="translate(165.869141 0)"/>
     <use xlink:href="#DejaVuSans-69" transform="translate(229.345703 0)"/>
     <use xlink:href="#DejaVuSans-65" transform="translate(257.128906 0)"/>
     <use xlink:href="#DejaVuSans-6e" transform="translate(318.652344 0)"/>
     <use xlink:href="#DejaVuSans-74" transform="translate(382.03125 0)"/>
     <use xlink:href="#DejaVuSans-20" transform="translate(421.240234 0)"/>
     <use xlink:href="#DejaVuSans-64" transform="translate(453.027344 0)"/>
     <use xlink:href="#DejaVuSans-65" transform="translate(516.503906 0)"/>
     <use xlink:href="#DejaVuSans-73" transform="translate(578.027344 0)"/>
     <use xlink:href="#DejaVuSans-63" transform="translate(630.126953 0)"/>
     <use xlink:href="#DejaVuSans-65" transform="translate(685.107422 0)"/>
     <use xlink:href="#DejaVuSans-6e" transform="translate(746.630859 0)"/>
     <use xlink:href="#DejaVuSans-74" transform="translate(810.009766 0)"/>
    </g>
   </g>
   <g id="text_4">
    <!-- SGD, fixed $\eta$ -->
    <g style="fill: #ff7f0e" transform="translate(146.939178 74.649589) scale(0.11 -0.11)">
     <defs>
      <path id="DejaVuSans-53" d="M 3425 4513 
L 3425 3897 
Q 3066 4069 2747 4153 
Q 2428 4238 2131 4238 
Q 1616 4238 1336 4038 
Q 1056 3838 1056 3469 
Q 1056 3159 1242 3001 
Q 1428 2844 1947 2747 
L 2328 2669 
Q 3034 2534 3370 2195 
Q 3706 1856 3706 1288 
Q 3706 609 3251 259 
Q 2797 -91 1919 -91 
Q 1588 -91 1214 -16 
Q 841 59 441 206 
L 441 856 
Q 825 641 1194 531 
Q 1563 422 1919 422 
Q 2459 422 2753 634 
Q 3047 847 3047 1241 
Q 3047 1584 2836 1778 
Q 2625 1972 2144 2069 
L 1759 2144 
Q 1053 2284 737 2584 
Q 422 2884 422 3419 
Q 422 4038 858 4394 
Q 1294 4750 2059 4750 
Q 2388 4750 2728 4690 
Q 3069 4631 3425 4513 
z
" transform="scale(0.015625)"/>
      <path id="DejaVuSans-47" d="M 3809 666 
L 3809 1919 
L 2778 1919 
L 2778 2438 
L 4434 2438 
L 4434 434 
Q 4069 175 3628 42 
Q 3188 -91 2688 -91 
Q 1594 -91 976 548 
Q 359 1188 359 2328 
Q 359 3472 976 4111 
Q 1594 4750 2688 4750 
Q 3144 4750 3555 4637 
Q 3966 4525 4313 4306 
L 4313 3634 
Q 3963 3931 3569 4081 
Q 3175 4231 2741 4231 
Q 1884 4231 1454 3753 
Q 1025 3275 1025 2328 
Q 1025 1384 1454 906 
Q 1884 428 2741 428 
Q 3075 428 3337 486 
Q 3600 544 3809 666 
z
" transform="scale(0.015625)"/>
      <path id="DejaVuSans-44" d="M 1259 4147 
L 1259 519 
L 2022 519 
Q 2988 519 3436 956 
Q 3884 1394 3884 2338 
Q 3884 3275 3436 3711 
Q 2988 4147 2022 4147 
L 1259 4147 
z
M 628 4666 
L 1925 4666 
Q 3281 4666 3915 4102 
Q 4550 3538 4550 2338 
Q 4550 1131 3912 565 
Q 3275 0 1925 0 
L 628 0 
L 628 4666 
z
" transform="scale(0.015625)"/>
      <path id="DejaVuSans-2c" d="M 750 794 
L 1409 794 
L 1409 256 
L 897 -744 
L 494 -744 
L 750 256 
L 750 794 
z
" transform="scale(0.015625)"/>
      <path id="DejaVuSans-66" d="M 2375 4863 
L 2375 4384 
L 1825 4384 
Q 1516 4384 1395 4259 
Q 1275 4134 1275 3809 
L 1275 3500 
L 2222 3500 
L 2222 3053 
L 1275 3053 
L 1275 0 
L 697 0 
L 697 3053 
L 147 3053 
L 147 3500 
L 697 3500 
L 697 3744 
Q 697 4328 969 4595 
Q 1241 4863 1831 4863 
L 2375 4863 
z
" transform="scale(0.015625)"/>
      <path id="DejaVuSans-78" d="M 3513 3500 
L 2247 1797 
L 3578 0 
L 2900 0 
L 1881 1375 
L 863 0 
L 184 0 
L 1544 1831 
L 300 3500 
L 978 3500 
L 1906 2253 
L 2834 3500 
L 3513 3500 
z
" transform="scale(0.015625)"/>
     </defs>
     <use xlink:href="#DejaVuSans-53" transform="translate(0 0.015625)"/>
     <use xlink:href="#DejaVuSans-47" transform="translate(63.476562 0.015625)"/>
     <use xlink:href="#DejaVuSans-44" transform="translate(140.966797 0.015625)"/>
     <use xlink:href="#DejaVuSans-2c" transform="translate(217.96875 0.015625)"/>
     <use xlink:href="#DejaVuSans-20" transform="translate(249.755859 0.015625)"/>
     <use xlink:href="#DejaVuSans-66" transform="translate(281.542969 0.015625)"/>
     <use xlink:href="#DejaVuSans-69" transform="translate(316.748047 0.015625)"/>
     <use xlink:href="#DejaVuSans-78" transform="translate(344.53125 0.015625)"/>
     <use xlink:href="#DejaVuSans-65" transform="translate(403.710938 0.015625)"/>
     <use xlink:href="#DejaVuSans-64" transform="translate(465.234375 0.015625)"/>
     <use xlink:href="#DejaVuSans-20" transform="translate(528.710938 0.015625)"/>
     <use xlink:href="#Cmmi10-b4" transform="translate(560.498047 0.015625)"/>
    </g>
   </g>
   <g id="line2d_2">
    <path d="M 38.641315 31.654356 
L 59.602192 48.423058 
L 77.418937 62.676454 
L 92.56317 74.79184 
L 105.435769 85.089919 
L 116.377477 93.843286 
L 125.67793 101.283648 
L 133.583314 107.607956 
L 140.302891 112.983617 
L 146.014531 117.552929 
L 150.869426 121.436845 
L 154.996086 124.738173 
L 158.503747 127.544302 
L 161.485259 129.929511 
L 164.019544 131.956939 
L 166.173686 133.680253 
L 168.004707 135.14507 
L 169.561075 136.390164 
L 170.883988 137.448494 
L 172.008464 138.348075 
L 172.964268 139.112719 
L 173.776702 139.762666 
L 174.467271 140.315121 
L 175.054254 140.784707 
L 175.55319 141.183856 
L 175.977285 141.523132 
L 176.337767 141.811517 
L 176.644176 142.056645 
L 176.904623 142.265003 
L 177.126004 142.442107 
L 177.314177 142.592646 
L 177.474124 142.720604 
L 177.61008 142.829368 
L 177.725642 142.921818 
L 177.823869 143.0004 
L 177.907363 143.067195 
L 177.978333 143.12397 
L 178.038657 143.172229 
L 178.089932 143.21325 
L 178.133516 143.248117 
L 178.170563 143.277754 
L 178.202052 143.302946 
L 178.228818 143.324359 
L 178.25157 143.34256 
L 178.270908 143.358031 
L 178.287346 143.371181 
L 178.301318 143.382359 
L 178.313194 143.39186 
L 178.323289 143.399935 
L 178.33187 143.4068 
L 178.339163 143.412635 
L 178.345363 143.417594 
L 178.350632 143.42181 
L 178.355111 143.425393 
L 178.358919 143.428439 
L 178.362155 143.431028 
L 178.364906 143.433229 
L 178.367244 143.435099 
L 178.369231 143.436689 
L 178.37092 143.43804 
L 178.372356 143.439189 
L 178.373577 143.440166 
L 178.374614 143.440996 
L 178.375496 143.441701 
L 178.376246 143.442301 
L 178.376883 143.44281 
L 178.377424 143.443244 
L 178.377885 143.443612 
L 178.378276 143.443925 
L 178.378609 143.444191 
L 178.378891 143.444417 
L 178.379132 143.444609 
L 178.379336 143.444773 
L 178.379509 143.444912 
L 178.379657 143.44503 
L 178.379782 143.44513 
L 178.379889 143.445215 
L 178.37998 143.445288 
L 178.380057 143.445349 
L 178.380122 143.445402 
L 178.380178 143.445446 
" clip-path="url(#pc216b68001)" style="fill: none; stroke: #1f77b4; stroke-width: 1.5; stroke-linecap: square"/>
    <defs>
     <path id="m4e4b7cbdd0" d="M 0 1.3 
C 0.344764 1.3 0.675454 1.163024 0.919239 0.919239 
C 1.163024 0.675454 1.3 0.344764 1.3 0 
C 1.3 -0.344764 1.163024 -0.675454 0.919239 -0.919239 
C 0.675454 -1.163024 0.344764 -1.3 0 -1.3 
C -0.344764 -1.3 -0.675454 -1.163024 -0.919239 -0.919239 
C -1.163024 -0.675454 -1.3 -0.344764 -1.3 0 
C -1.3 0.344764 -1.163024 0.675454 -0.919239 0.919239 
C -0.675454 1.163024 -0.344764 1.3 0 1.3 
z
" style="stroke: #1f77b4"/>
    </defs>
    <g clip-path="url(#pc216b68001)">
     <use xlink:href="#m4e4b7cbdd0" x="38.641315" y="31.654356" style="fill: #1f77b4; stroke: #1f77b4"/>
     <use xlink:href="#m4e4b7cbdd0" x="59.602192" y="48.423058" style="fill: #1f77b4; stroke: #1f77b4"/>
     <use xlink:href="#m4e4b7cbdd0" x="77.418937" y="62.676454" style="fill: #1f77b4; stroke: #1f77b4"/>
     <use xlink:href="#m4e4b7cbdd0" x="92.56317" y="74.79184" style="fill: #1f77b4; stroke: #1f77b4"/>
     <use xlink:href="#m4e4b7cbdd0" x="105.435769" y="85.089919" style="fill: #1f77b4; stroke: #1f77b4"/>
     <use xlink:href="#m4e4b7cbdd0" x="116.377477" y="93.843286" style="fill: #1f77b4; stroke: #1f77b4"/>
     <use xlink:href="#m4e4b7cbdd0" x="125.67793" y="101.283648" style="fill: #1f77b4; stroke: #1f77b4"/>
     <use xlink:href="#m4e4b7cbdd0" x="133.583314" y="107.607956" style="fill: #1f77b4; stroke: #1f77b4"/>
     <use xlink:href="#m4e4b7cbdd0" x="140.302891" y="112.983617" style="fill: #1f77b4; stroke: #1f77b4"/>
     <use xlink:href="#m4e4b7cbdd0" x="146.014531" y="117.552929" style="fill: #1f77b4; stroke: #1f77b4"/>
     <use xlink:href="#m4e4b7cbdd0" x="150.869426" y="121.436845" style="fill: #1f77b4; stroke: #1f77b4"/>
     <use xlink:href="#m4e4b7cbdd0" x="154.996086" y="124.738173" style="fill: #1f77b4; stroke: #1f77b4"/>
     <use xlink:href="#m4e4b7cbdd0" x="158.503747" y="127.544302" style="fill: #1f77b4; stroke: #1f77b4"/>
     <use xlink:href="#m4e4b7cbdd0" x="161.485259" y="129.929511" style="fill: #1f77b4; stroke: #1f77b4"/>
     <use xlink:href="#m4e4b7cbdd0" x="164.019544" y="131.956939" style="fill: #1f77b4; stroke: #1f77b4"/>
     <use xlink:href="#m4e4b7cbdd0" x="166.173686" y="133.680253" style="fill: #1f77b4; stroke: #1f77b4"/>
     <use xlink:href="#m4e4b7cbdd0" x="168.004707" y="135.14507" style="fill: #1f77b4; stroke: #1f77b4"/>
     <use xlink:href="#m4e4b7cbdd0" x="169.561075" y="136.390164" style="fill: #1f77b4; stroke: #1f77b4"/>
     <use xlink:href="#m4e4b7cbdd0" x="170.883988" y="137.448494" style="fill: #1f77b4; stroke: #1f77b4"/>
     <use xlink:href="#m4e4b7cbdd0" x="172.008464" y="138.348075" style="fill: #1f77b4; stroke: #1f77b4"/>
     <use xlink:href="#m4e4b7cbdd0" x="172.964268" y="139.112719" style="fill: #1f77b4; stroke: #1f77b4"/>
     <use xlink:href="#m4e4b7cbdd0" x="173.776702" y="139.762666" style="fill: #1f77b4; stroke: #1f77b4"/>
     <use xlink:href="#m4e4b7cbdd0" x="174.467271" y="140.315121" style="fill: #1f77b4; stroke: #1f77b4"/>
     <use xlink:href="#m4e4b7cbdd0" x="175.054254" y="140.784707" style="fill: #1f77b4; stroke: #1f77b4"/>
     <use xlink:href="#m4e4b7cbdd0" x="175.55319" y="141.183856" style="fill: #1f77b4; stroke: #1f77b4"/>
     <use xlink:href="#m4e4b7cbdd0" x="175.977285" y="141.523132" style="fill: #1f77b4; stroke: #1f77b4"/>
     <use xlink:href="#m4e4b7cbdd0" x="176.337767" y="141.811517" style="fill: #1f77b4; stroke: #1f77b4"/>
     <use xlink:href="#m4e4b7cbdd0" x="176.644176" y="142.056645" style="fill: #1f77b4; stroke: #1f77b4"/>
     <use xlink:href="#m4e4b7cbdd0" x="176.904623" y="142.265003" style="fill: #1f77b4; stroke: #1f77b4"/>
     <use xlink:href="#m4e4b7cbdd0" x="177.126004" y="142.442107" style="fill: #1f77b4; stroke: #1f77b4"/>
     <use xlink:href="#m4e4b7cbdd0" x="177.314177" y="142.592646" style="fill: #1f77b4; stroke: #1f77b4"/>
     <use xlink:href="#m4e4b7cbdd0" x="177.474124" y="142.720604" style="fill: #1f77b4; stroke: #1f77b4"/>
     <use xlink:href="#m4e4b7cbdd0" x="177.61008" y="142.829368" style="fill: #1f77b4; stroke: #1f77b4"/>
     <use xlink:href="#m4e4b7cbdd0" x="177.725642" y="142.921818" style="fill: #1f77b4; stroke: #1f77b4"/>
     <use xlink:href="#m4e4b7cbdd0" x="177.823869" y="143.0004" style="fill: #1f77b4; stroke: #1f77b4"/>
     <use xlink:href="#m4e4b7cbdd0" x="177.907363" y="143.067195" style="fill: #1f77b4; stroke: #1f77b4"/>
     <use xlink:href="#m4e4b7cbdd0" x="177.978333" y="143.12397" style="fill: #1f77b4; stroke: #1f77b4"/>
     <use xlink:href="#m4e4b7cbdd0" x="178.038657" y="143.172229" style="fill: #1f77b4; stroke: #1f77b4"/>
     <use xlink:href="#m4e4b7cbdd0" x="178.089932" y="143.21325" style="fill: #1f77b4; stroke: #1f77b4"/>
     <use xlink:href="#m4e4b7cbdd0" x="178.133516" y="143.248117" style="fill: #1f77b4; stroke: #1f77b4"/>
     <use xlink:href="#m4e4b7cbdd0" x="178.170563" y="143.277754" style="fill: #1f77b4; stroke: #1f77b4"/>
     <use xlink:href="#m4e4b7cbdd0" x="178.202052" y="143.302946" style="fill: #1f77b4; stroke: #1f77b4"/>
     <use xlink:href="#m4e4b7cbdd0" x="178.228818" y="143.324359" style="fill: #1f77b4; stroke: #1f77b4"/>
     <use xlink:href="#m4e4b7cbdd0" x="178.25157" y="143.34256" style="fill: #1f77b4; stroke: #1f77b4"/>
     <use xlink:href="#m4e4b7cbdd0" x="178.270908" y="143.358031" style="fill: #1f77b4; stroke: #1f77b4"/>
     <use xlink:href="#m4e4b7cbdd0" x="178.287346" y="143.371181" style="fill: #1f77b4; stroke: #1f77b4"/>
     <use xlink:href="#m4e4b7cbdd0" x="178.301318" y="143.382359" style="fill: #1f77b4; stroke: #1f77b4"/>
     <use xlink:href="#m4e4b7cbdd0" x="178.313194" y="143.39186" style="fill: #1f77b4; stroke: #1f77b4"/>
     <use xlink:href="#m4e4b7cbdd0" x="178.323289" y="143.399935" style="fill: #1f77b4; stroke: #1f77b4"/>
     <use xlink:href="#m4e4b7cbdd0" x="178.33187" y="143.4068" style="fill: #1f77b4; stroke: #1f77b4"/>
     <use xlink:href="#m4e4b7cbdd0" x="178.339163" y="143.412635" style="fill: #1f77b4; stroke: #1f77b4"/>
     <use xlink:href="#m4e4b7cbdd0" x="178.345363" y="143.417594" style="fill: #1f77b4; stroke: #1f77b4"/>
     <use xlink:href="#m4e4b7cbdd0" x="178.350632" y="143.42181" style="fill: #1f77b4; stroke: #1f77b4"/>
     <use xlink:href="#m4e4b7cbdd0" x="178.355111" y="143.425393" style="fill: #1f77b4; stroke: #1f77b4"/>
     <use xlink:href="#m4e4b7cbdd0" x="178.358919" y="143.428439" style="fill: #1f77b4; stroke: #1f77b4"/>
     <use xlink:href="#m4e4b7cbdd0" x="178.362155" y="143.431028" style="fill: #1f77b4; stroke: #1f77b4"/>
     <use xlink:href="#m4e4b7cbdd0" x="178.364906" y="143.433229" style="fill: #1f77b4; stroke: #1f77b4"/>
     <use xlink:href="#m4e4b7cbdd0" x="178.367244" y="143.435099" style="fill: #1f77b4; stroke: #1f77b4"/>
     <use xlink:href="#m4e4b7cbdd0" x="178.369231" y="143.436689" style="fill: #1f77b4; stroke: #1f77b4"/>
     <use xlink:href="#m4e4b7cbdd0" x="178.37092" y="143.43804" style="fill: #1f77b4; stroke: #1f77b4"/>
     <use xlink:href="#m4e4b7cbdd0" x="178.372356" y="143.439189" style="fill: #1f77b4; stroke: #1f77b4"/>
     <use xlink:href="#m4e4b7cbdd0" x="178.373577" y="143.440166" style="fill: #1f77b4; stroke: #1f77b4"/>
     <use xlink:href="#m4e4b7cbdd0" x="178.374614" y="143.440996" style="fill: #1f77b4; stroke: #1f77b4"/>
     <use xlink:href="#m4e4b7cbdd0" x="178.375496" y="143.441701" style="fill: #1f77b4; stroke: #1f77b4"/>
     <use xlink:href="#m4e4b7cbdd0" x="178.376246" y="143.442301" style="fill: #1f77b4; stroke: #1f77b4"/>
     <use xlink:href="#m4e4b7cbdd0" x="178.376883" y="143.44281" style="fill: #1f77b4; stroke: #1f77b4"/>
     <use xlink:href="#m4e4b7cbdd0" x="178.377424" y="143.443244" style="fill: #1f77b4; stroke: #1f77b4"/>
     <use xlink:href="#m4e4b7cbdd0" x="178.377885" y="143.443612" style="fill: #1f77b4; stroke: #1f77b4"/>
     <use xlink:href="#m4e4b7cbdd0" x="178.378276" y="143.443925" style="fill: #1f77b4; stroke: #1f77b4"/>
     <use xlink:href="#m4e4b7cbdd0" x="178.378609" y="143.444191" style="fill: #1f77b4; stroke: #1f77b4"/>
     <use xlink:href="#m4e4b7cbdd0" x="178.378891" y="143.444417" style="fill: #1f77b4; stroke: #1f77b4"/>
     <use xlink:href="#m4e4b7cbdd0" x="178.379132" y="143.444609" style="fill: #1f77b4; stroke: #1f77b4"/>
     <use xlink:href="#m4e4b7cbdd0" x="178.379336" y="143.444773" style="fill: #1f77b4; stroke: #1f77b4"/>
     <use xlink:href="#m4e4b7cbdd0" x="178.379509" y="143.444912" style="fill: #1f77b4; stroke: #1f77b4"/>
     <use xlink:href="#m4e4b7cbdd0" x="178.379657" y="143.44503" style="fill: #1f77b4; stroke: #1f77b4"/>
     <use xlink:href="#m4e4b7cbdd0" x="178.379782" y="143.44513" style="fill: #1f77b4; stroke: #1f77b4"/>
     <use xlink:href="#m4e4b7cbdd0" x="178.379889" y="143.445215" style="fill: #1f77b4; stroke: #1f77b4"/>
     <use xlink:href="#m4e4b7cbdd0" x="178.37998" y="143.445288" style="fill: #1f77b4; stroke: #1f77b4"/>
     <use xlink:href="#m4e4b7cbdd0" x="178.380057" y="143.445349" style="fill: #1f77b4; stroke: #1f77b4"/>
     <use xlink:href="#m4e4b7cbdd0" x="178.380122" y="143.445402" style="fill: #1f77b4; stroke: #1f77b4"/>
     <use xlink:href="#m4e4b7cbdd0" x="178.380178" y="143.445446" style="fill: #1f77b4; stroke: #1f77b4"/>
    </g>
   </g>
   <g id="line2d_3">
    <path d="M 38.641315 31.654356 
L 59.594456 50.301648 
L 79.136213 58.67298 
L 96.881944 65.153153 
L 108.728528 85.324661 
L 122.271447 90.141107 
L 127.607548 100.380995 
L 134.560617 100.989673 
L 141.317542 111.730326 
L 155.329759 113.610024 
L 170.742758 109.976423 
L 183.469732 113.518499 
L 190.676383 119.713361 
L 187.846308 122.09774 
L 202.252483 121.912492 
L 198.976671 125.854989 
L 205.50914 125.489357 
L 207.593029 123.096627 
L 196.539939 121.070998 
L 194.020527 129.988479 
L 195.344355 131.304651 
L 192.105148 133.526884 
L 197.749923 135.493496 
L 186.299869 126.957474 
L 179.707939 130.181237 
L 183.542556 144.750052 
L 177.974957 137.012955 
L 177.56721 141.604242 
L 178.876314 146.17478 
L 179.220219 149.961246 
L 170.048452 144.735172 
" clip-path="url(#pc216b68001)" style="fill: none; stroke: #ff7f0e; stroke-width: 1.3; stroke-linecap: square"/>
   </g>
   <g id="line2d_4">
    <defs>
     <path id="m86c872faa5" d="M 0 1.6 
C 0.424325 1.6 0.831328 1.431414 1.131371 1.131371 
C 1.431414 0.831328 1.6 0.424325 1.6 0 
C 1.6 -0.424325 1.431414 -0.831328 1.131371 -1.131371 
C 0.831328 -1.431414 0.424325 -1.6 0 -1.6 
C -0.424325 -1.6 -0.831328 -1.431414 -1.131371 -1.131371 
C -1.431414 -0.831328 -1.6 -0.424325 -1.6 0 
C -1.6 0.424325 -1.431414 0.831328 -1.131371 1.131371 
C -0.831328 1.431414 -0.424325 1.6 0 1.6 
z
" style="stroke: #ff7f0e; stroke-opacity: 0.8"/>
    </defs>
    <g clip-path="url(#pc216b68001)">
     <use xlink:href="#m86c872faa5" x="170.048452" y="144.735172" style="fill: #ff7f0e; fill-opacity: 0.8; stroke: #ff7f0e; stroke-opacity: 0.8"/>
     <use xlink:href="#m86c872faa5" x="170.020869" y="141.628351" style="fill: #ff7f0e; fill-opacity: 0.8; stroke: #ff7f0e; stroke-opacity: 0.8"/>
     <use xlink:href="#m86c872faa5" x="170.474516" y="134.435562" style="fill: #ff7f0e; fill-opacity: 0.8; stroke: #ff7f0e; stroke-opacity: 0.8"/>
     <use xlink:href="#m86c872faa5" x="175.303213" y="134.55335" style="fill: #ff7f0e; fill-opacity: 0.8; stroke: #ff7f0e; stroke-opacity: 0.8"/>
     <use xlink:href="#m86c872faa5" x="170.113141" y="143.08866" style="fill: #ff7f0e; fill-opacity: 0.8; stroke: #ff7f0e; stroke-opacity: 0.8"/>
     <use xlink:href="#m86c872faa5" x="179.675935" y="138.145295" style="fill: #ff7f0e; fill-opacity: 0.8; stroke: #ff7f0e; stroke-opacity: 0.8"/>
     <use xlink:href="#m86c872faa5" x="175.41372" y="126.411496" style="fill: #ff7f0e; fill-opacity: 0.8; stroke: #ff7f0e; stroke-opacity: 0.8"/>
     <use xlink:href="#m86c872faa5" x="178.77127" y="128.354861" style="fill: #ff7f0e; fill-opacity: 0.8; stroke: #ff7f0e; stroke-opacity: 0.8"/>
     <use xlink:href="#m86c872faa5" x="170.808213" y="134.95364" style="fill: #ff7f0e; fill-opacity: 0.8; stroke: #ff7f0e; stroke-opacity: 0.8"/>
     <use xlink:href="#m86c872faa5" x="174.001659" y="133.909746" style="fill: #ff7f0e; fill-opacity: 0.8; stroke: #ff7f0e; stroke-opacity: 0.8"/>
     <use xlink:href="#m86c872faa5" x="176.231778" y="144.920493" style="fill: #ff7f0e; fill-opacity: 0.8; stroke: #ff7f0e; stroke-opacity: 0.8"/>
     <use xlink:href="#m86c872faa5" x="179.245619" y="142.789651" style="fill: #ff7f0e; fill-opacity: 0.8; stroke: #ff7f0e; stroke-opacity: 0.8"/>
     <use xlink:href="#m86c872faa5" x="176.898677" y="142.128622" style="fill: #ff7f0e; fill-opacity: 0.8; stroke: #ff7f0e; stroke-opacity: 0.8"/>
     <use xlink:href="#m86c872faa5" x="178.361525" y="135.320636" style="fill: #ff7f0e; fill-opacity: 0.8; stroke: #ff7f0e; stroke-opacity: 0.8"/>
     <use xlink:href="#m86c872faa5" x="178.43682" y="133.75004" style="fill: #ff7f0e; fill-opacity: 0.8; stroke: #ff7f0e; stroke-opacity: 0.8"/>
     <use xlink:href="#m86c872faa5" x="171.095453" y="139.311181" style="fill: #ff7f0e; fill-opacity: 0.8; stroke: #ff7f0e; stroke-opacity: 0.8"/>
     <use xlink:href="#m86c872faa5" x="172.34003" y="144.134315" style="fill: #ff7f0e; fill-opacity: 0.8; stroke: #ff7f0e; stroke-opacity: 0.8"/>
     <use xlink:href="#m86c872faa5" x="175.383289" y="150.64707" style="fill: #ff7f0e; fill-opacity: 0.8; stroke: #ff7f0e; stroke-opacity: 0.8"/>
     <use xlink:href="#m86c872faa5" x="175.866823" y="153.235326" style="fill: #ff7f0e; fill-opacity: 0.8; stroke: #ff7f0e; stroke-opacity: 0.8"/>
     <use xlink:href="#m86c872faa5" x="184.36135" y="153.946897" style="fill: #ff7f0e; fill-opacity: 0.8; stroke: #ff7f0e; stroke-opacity: 0.8"/>
     <use xlink:href="#m86c872faa5" x="194.080093" y="139.573033" style="fill: #ff7f0e; fill-opacity: 0.8; stroke: #ff7f0e; stroke-opacity: 0.8"/>
     <use xlink:href="#m86c872faa5" x="193.639784" y="134.494952" style="fill: #ff7f0e; fill-opacity: 0.8; stroke: #ff7f0e; stroke-opacity: 0.8"/>
     <use xlink:href="#m86c872faa5" x="190.319283" y="149.953184" style="fill: #ff7f0e; fill-opacity: 0.8; stroke: #ff7f0e; stroke-opacity: 0.8"/>
     <use xlink:href="#m86c872faa5" x="193.758559" y="145.05354" style="fill: #ff7f0e; fill-opacity: 0.8; stroke: #ff7f0e; stroke-opacity: 0.8"/>
     <use xlink:href="#m86c872faa5" x="190.160215" y="147.912561" style="fill: #ff7f0e; fill-opacity: 0.8; stroke: #ff7f0e; stroke-opacity: 0.8"/>
     <use xlink:href="#m86c872faa5" x="189.502544" y="145.947587" style="fill: #ff7f0e; fill-opacity: 0.8; stroke: #ff7f0e; stroke-opacity: 0.8"/>
     <use xlink:href="#m86c872faa5" x="183.416965" y="148.84162" style="fill: #ff7f0e; fill-opacity: 0.8; stroke: #ff7f0e; stroke-opacity: 0.8"/>
     <use xlink:href="#m86c872faa5" x="189.16152" y="147.534319" style="fill: #ff7f0e; fill-opacity: 0.8; stroke: #ff7f0e; stroke-opacity: 0.8"/>
     <use xlink:href="#m86c872faa5" x="187.322473" y="140.290149" style="fill: #ff7f0e; fill-opacity: 0.8; stroke: #ff7f0e; stroke-opacity: 0.8"/>
     <use xlink:href="#m86c872faa5" x="184.347239" y="135.368426" style="fill: #ff7f0e; fill-opacity: 0.8; stroke: #ff7f0e; stroke-opacity: 0.8"/>
     <use xlink:href="#m86c872faa5" x="177.339616" y="137.792054" style="fill: #ff7f0e; fill-opacity: 0.8; stroke: #ff7f0e; stroke-opacity: 0.8"/>
     <use xlink:href="#m86c872faa5" x="176.934165" y="134.923559" style="fill: #ff7f0e; fill-opacity: 0.8; stroke: #ff7f0e; stroke-opacity: 0.8"/>
     <use xlink:href="#m86c872faa5" x="177.896964" y="123.639525" style="fill: #ff7f0e; fill-opacity: 0.8; stroke: #ff7f0e; stroke-opacity: 0.8"/>
     <use xlink:href="#m86c872faa5" x="185.084081" y="128.892084" style="fill: #ff7f0e; fill-opacity: 0.8; stroke: #ff7f0e; stroke-opacity: 0.8"/>
     <use xlink:href="#m86c872faa5" x="197.463532" y="136.398823" style="fill: #ff7f0e; fill-opacity: 0.8; stroke: #ff7f0e; stroke-opacity: 0.8"/>
     <use xlink:href="#m86c872faa5" x="205.58099" y="142.214425" style="fill: #ff7f0e; fill-opacity: 0.8; stroke: #ff7f0e; stroke-opacity: 0.8"/>
     <use xlink:href="#m86c872faa5" x="206.817623" y="147.297617" style="fill: #ff7f0e; fill-opacity: 0.8; stroke: #ff7f0e; stroke-opacity: 0.8"/>
     <use xlink:href="#m86c872faa5" x="201.728598" y="137.055807" style="fill: #ff7f0e; fill-opacity: 0.8; stroke: #ff7f0e; stroke-opacity: 0.8"/>
     <use xlink:href="#m86c872faa5" x="190.371407" y="147.080124" style="fill: #ff7f0e; fill-opacity: 0.8; stroke: #ff7f0e; stroke-opacity: 0.8"/>
     <use xlink:href="#m86c872faa5" x="188.986568" y="144.812503" style="fill: #ff7f0e; fill-opacity: 0.8; stroke: #ff7f0e; stroke-opacity: 0.8"/>
     <use xlink:href="#m86c872faa5" x="188.400942" y="138.475468" style="fill: #ff7f0e; fill-opacity: 0.8; stroke: #ff7f0e; stroke-opacity: 0.8"/>
     <use xlink:href="#m86c872faa5" x="179.989673" y="135.807155" style="fill: #ff7f0e; fill-opacity: 0.8; stroke: #ff7f0e; stroke-opacity: 0.8"/>
     <use xlink:href="#m86c872faa5" x="180.070194" y="131.96448" style="fill: #ff7f0e; fill-opacity: 0.8; stroke: #ff7f0e; stroke-opacity: 0.8"/>
     <use xlink:href="#m86c872faa5" x="183.753652" y="125.651991" style="fill: #ff7f0e; fill-opacity: 0.8; stroke: #ff7f0e; stroke-opacity: 0.8"/>
     <use xlink:href="#m86c872faa5" x="175.042895" y="127.352104" style="fill: #ff7f0e; fill-opacity: 0.8; stroke: #ff7f0e; stroke-opacity: 0.8"/>
     <use xlink:href="#m86c872faa5" x="169.469566" y="129.849932" style="fill: #ff7f0e; fill-opacity: 0.8; stroke: #ff7f0e; stroke-opacity: 0.8"/>
     <use xlink:href="#m86c872faa5" x="175.172797" y="129.835014" style="fill: #ff7f0e; fill-opacity: 0.8; stroke: #ff7f0e; stroke-opacity: 0.8"/>
     <use xlink:href="#m86c872faa5" x="179.176832" y="131.926666" style="fill: #ff7f0e; fill-opacity: 0.8; stroke: #ff7f0e; stroke-opacity: 0.8"/>
     <use xlink:href="#m86c872faa5" x="181.417157" y="131.768534" style="fill: #ff7f0e; fill-opacity: 0.8; stroke: #ff7f0e; stroke-opacity: 0.8"/>
     <use xlink:href="#m86c872faa5" x="189.630498" y="128.446449" style="fill: #ff7f0e; fill-opacity: 0.8; stroke: #ff7f0e; stroke-opacity: 0.8"/>
     <use xlink:href="#m86c872faa5" x="177.541848" y="126.475446" style="fill: #ff7f0e; fill-opacity: 0.8; stroke: #ff7f0e; stroke-opacity: 0.8"/>
    </g>
   </g>
   <g id="patch_4">
    <path d="M 178.380493 177.887934 
C 187.514681 177.887934 196.275985 174.258882 202.734831 167.800037 
C 209.193677 161.341191 212.822728 152.579886 212.822728 143.445699 
C 212.822728 134.311511 209.193677 125.550207 202.734831 119.091361 
C 196.275985 112.632515 187.514681 109.003464 178.380493 109.003464 
C 169.246306 109.003464 160.485001 112.632515 154.026155 119.091361 
C 147.567309 125.550207 143.938258 134.311511 143.938258 143.445699 
C 143.938258 152.579886 147.567309 161.341191 154.026155 167.800037 
C 160.485001 174.258882 169.246306 177.887934 178.380493 177.887934 
L 178.380493 177.887934 
z
" clip-path="url(#pc216b68001)" style="fill: none; stroke-dasharray: 6.5,3.9; stroke-dashoffset: 0; stroke: #7f7f7f; stroke-width: 1.3; stroke-linejoin: miter"/>
   </g>
   <g id="patch_5">
    <path d="M 178.380493 167.800037 
C 184.839339 167.800037 191.034517 165.23391 195.601611 160.666816 
C 200.168704 156.099722 202.734831 149.904545 202.734831 143.445699 
C 202.734831 136.986853 200.168704 130.791675 195.601611 126.224581 
C 191.034517 121.657487 184.839339 119.091361 178.380493 119.091361 
C 171.921647 119.091361 165.726469 121.657487 161.159376 126.224581 
C 156.592282 130.791675 154.026155 136.986853 154.026155 143.445699 
C 154.026155 149.904545 156.592282 156.099722 161.159376 160.666816 
C 165.726469 165.23391 171.921647 167.800037 178.380493 167.800037 
L 178.380493 167.800037 
z
" clip-path="url(#pc216b68001)" style="fill: none; stroke-dasharray: 3.9,3.9; stroke-dashoffset: 0; stroke: #7f7f7f; stroke-width: 1.3; stroke-linejoin: miter"/>
   </g>
  </g>
 </g>
 <defs>
  <clipPath id="pc216b68001">
   <rect x="7.2" y="7.2" width="331.880548" height="255.024"/>
  </clipPath>
 </defs>
</svg>
