<?xml version="1.0" encoding="utf-8" standalone="no"?>
<!DOCTYPE svg PUBLIC "-//W3C//DTD SVG 1.1//EN"
  "http://www.w3.org/Graphics/SVG/1.1/DTD/svg11.dtd">
<svg xmlns:xlink="http://www.w3.org/1999/xlink" width="561.812632pt" height="97.856626pt" viewBox="0 0 561.812632 97.856626" xmlns="http://www.w3.org/2000/svg" version="1.1">
 <metadata>
  <rdf:RDF xmlns:dc="http://purl.org/dc/elements/1.1/" xmlns:cc="http://creativecommons.org/ns#" xmlns:rdf="http://www.w3.org/1999/02/22-rdf-syntax-ns#">
   <cc:Work>
    <dc:type rdf:resource="http://purl.org/dc/dcmitype/StillImage"/>
    <dc:format>image/svg+xml</dc:format>
    <dc:creator>
     <cc:Agent>
      <dc:title>Matplotlib v3.10.8, https://matplotlib.org/</dc:title>
     </cc:Agent>
    </dc:creator>
   </cc:Work>
  </rdf:RDF>
 </metadata>
 <defs>
  <style type="text/css">*{stroke-linejoin: round; stroke-linecap: butt}</style>
 </defs>
 <g id="figure_1">
  <g id="patch_1">
   <path d="M 0 97.856626 
L 561.812632 97.856626 
L 561.812632 0 
L 0 0 
z
" style="fill: #ffffff"/>
  </g>
  <g id="axes_1">
   <g id="line2d_1">
    <path d="M 100.970083 85.811663 
L 101.468027 82.97313 
L 101.761723 80.106257 
L 101.849668 77.225721 
L 101.731412 74.346271 
L 101.40756 71.482647 
L 100.87977 68.649511 
L 100.150745 65.861369 
L 99.224216 63.132493 
L 98.104927 60.476855 
L 96.798609 57.908051 
L 95.31195 55.439233 
L 93.652561 53.08304 
L 91.828937 50.851534 
L 89.850414 48.756142 
L 87.727123 46.80759 
L 85.469934 45.015855 
L 83.090402 43.390109 
L 80.600711 41.938676 
L 78.013607 40.668987 
L 75.342335 39.587542 
L 72.60057 38.699878 
L 69.802351 38.010539 
L 66.962003 37.523055 
L 64.094067 37.239922 
L 61.213227 37.162588 
L 58.334232 37.29145 
L 55.471821 37.625848 
L 52.640648 38.164071 
L 49.85521 38.903361 
L 47.129765 39.839936 
L 44.478269 40.968999 
L 41.914294 42.284771 
L 39.450969 43.780514 
L 37.100904 45.448571 
L 34.876132 47.280403 
L 32.788042 49.266631 
L 30.847325 51.397085 
L 29.063916 53.660859 
L 27.446946 56.046363 
L 26.004694 58.541384 
L 24.744544 61.133147 
L 23.672946 63.808385 
L 22.795388 66.553401 
L 22.116361 69.354141 
L 21.639343 72.196265 
L 21.366776 75.065224 
L 21.300054 77.94633 
L 21.439521 80.824831 
L 21.78446 83.685991 
L 22.176984 85.811663 
L 22.176984 85.811663 
" clip-path="url(#pe962e68ebb)" style="fill: none; stroke: #cfcfcf; stroke-linecap: square"/>
   </g>
   <g id="patch_2">
    <path d="M 61.573534 77.437668 
Q 81.71188 77.437668 99.390551 77.437668 
" style="fill: none; stroke: #1f77b4; stroke-width: 2.2; stroke-linecap: round"/>
    <path d="M 93.790551 74.637668 
L 99.390551 77.437668 
L 93.790551 80.237668 
" style="fill: none; stroke: #1f77b4; stroke-width: 2.2; stroke-linecap: round"/>
   </g>
   <g id="patch_3">
    <path d="M 61.573534 75.22245 
Q 81.71188 75.22245 99.390551 75.22245 
" style="fill: none; stroke: #ff7f0e; stroke-width: 2.2; stroke-linecap: round"/>
    <path d="M 93.790551 72.42245 
L 99.390551 75.22245 
L 93.790551 78.02245 
" style="fill: none; stroke: #ff7f0e; stroke-width: 2.2; stroke-linecap: round"/>
   </g>
   <g id="text_1">
    <!-- $\mathbf{u}$ -->
    <g style="fill: #1f77b4" transform="translate(107.488962 87.745064) scale(0.14 -0.14)">
     <defs>
      <path id="Cmb10-75" d="M 581 744 
L 581 2322 
Q 581 2503 141 2503 
L 141 2828 
L 1338 2881 
L 1338 769 
L 1338 744 
Q 1338 516 1358 416 
Q 1378 316 1464 267 
Q 1550 219 1753 219 
Q 2038 219 2197 467 
Q 2356 716 2356 1019 
L 2356 2322 
Q 2356 2503 1913 2503 
L 1913 2828 
L 3109 2881 
L 3109 506 
Q 3109 391 3236 358 
Q 3363 325 3553 325 
L 3553 0 
L 2394 -38 
L 2394 384 
Q 2134 -38 1697 -38 
Q 1369 -38 1130 20 
Q 891 78 736 250 
Q 581 422 581 744 
z
" transform="scale(0.015625)"/>
     </defs>
     <use xlink:href="#Cmb10-75" transform="translate(0 0.984375)"/>
    </g>
   </g>
   <g id="text_2">
    <!-- $\mathbf{v}$ -->
    <g style="fill: #ff7f0e" transform="translate(107.488962 73.245455) scale(0.14 -0.14)">
     <defs>
      <path id="Cmb10-76" d="M 1466 91 
L 544 2516 
L 141 2516 
L 141 2841 
L 1672 2841 
L 1672 2516 
L 1319 2516 
L 1894 984 
L 2456 2463 
Q 2456 2494 2342 2505 
Q 2228 2516 2119 2516 
L 2119 2841 
L 3231 2841 
L 3231 2516 
Q 2828 2516 2803 2456 
L 1906 91 
Q 1866 -25 1741 -25 
L 1631 -25 
Q 1506 -25 1466 91 
z
" transform="scale(0.015625)"/>
     </defs>
     <use xlink:href="#Cmb10-76" transform="translate(0 0.609375)"/>
    </g>
   </g>
   <g id="text_3">
    <!-- $\mathbf{u}^\top \mathbf{v} = \cos 0^\circ = 1$ -->
    <g transform="translate(15.292368 17.077969) scale(0.13 -0.13)">
     <defs>
      <path id="Cmsy10-3e" d="M 2363 122 
L 2363 4006 
L 481 4006 
Q 428 4006 393 4047 
Q 359 4088 359 4134 
Q 359 4181 393 4222 
Q 428 4263 481 4263 
L 4506 4263 
Q 4553 4263 4587 4222 
Q 4622 4181 4622 4134 
Q 4622 4088 4587 4047 
Q 4553 4006 4506 4006 
L 2619 4006 
L 2619 122 
Q 2619 69 2578 34 
Q 2538 0 2491 0 
Q 2438 0 2400 34 
Q 2363 69 2363 122 
z
" transform="scale(0.015625)"/>
      <path id="Cmr10-3d" d="M 481 850 
Q 428 850 393 890 
Q 359 931 359 978 
Q 359 1031 393 1068 
Q 428 1106 481 1106 
L 4500 1106 
Q 4547 1106 4581 1068 
Q 4616 1031 4616 978 
Q 4616 931 4581 890 
Q 4547 850 4500 850 
L 481 850 
z
M 481 2094 
Q 428 2094 393 2131 
Q 359 2169 359 2222 
Q 359 2269 393 2309 
Q 428 2350 481 2350 
L 4500 2350 
Q 4547 2350 4581 2309 
Q 4616 2269 4616 2222 
Q 4616 2169 4581 2131 
Q 4547 2094 4500 2094 
L 481 2094 
z
" transform="scale(0.015625)"/>
      <path id="Cmr10-63" d="M 1594 -72 
Q 1206 -72 890 129 
Q 575 331 394 667 
Q 213 1003 213 1381 
Q 213 1759 392 2106 
Q 572 2453 889 2661 
Q 1206 2869 1594 2869 
Q 1969 2869 2276 2722 
Q 2584 2575 2584 2241 
Q 2584 2116 2495 2023 
Q 2406 1931 2278 1931 
Q 2150 1931 2061 2023 
Q 1972 2116 1972 2241 
Q 1972 2353 2044 2436 
Q 2116 2519 2222 2541 
Q 2000 2681 1600 2681 
Q 1294 2681 1106 2478 
Q 919 2275 844 1975 
Q 769 1675 769 1381 
Q 769 1072 861 783 
Q 953 494 1158 305 
Q 1363 116 1672 116 
Q 1975 116 2187 302 
Q 2400 488 2478 788 
Q 2478 825 2528 825 
L 2606 825 
Q 2625 825 2640 808 
Q 2656 791 2656 769 
L 2656 750 
Q 2559 372 2271 150 
Q 1984 -72 1594 -72 
z
" transform="scale(0.015625)"/>
      <path id="Cmr10-6f" d="M 1600 -72 
Q 1216 -72 887 123 
Q 559 319 368 647 
Q 178 975 178 1363 
Q 178 1656 283 1928 
Q 388 2200 583 2414 
Q 778 2628 1037 2748 
Q 1297 2869 1600 2869 
Q 1994 2869 2317 2661 
Q 2641 2453 2828 2104 
Q 3016 1756 3016 1363 
Q 3016 978 2825 648 
Q 2634 319 2307 123 
Q 1981 -72 1600 -72 
z
M 1600 116 
Q 2113 116 2284 487 
Q 2456 859 2456 1434 
Q 2456 1756 2422 1967 
Q 2388 2178 2272 2350 
Q 2200 2456 2089 2536 
Q 1978 2616 1854 2658 
Q 1731 2700 1600 2700 
Q 1400 2700 1220 2609 
Q 1041 2519 922 2350 
Q 803 2169 770 1951 
Q 738 1734 738 1434 
Q 738 1075 800 789 
Q 863 503 1052 309 
Q 1241 116 1600 116 
z
" transform="scale(0.015625)"/>
      <path id="Cmr10-73" d="M 213 -19 
L 213 1025 
Q 213 1075 269 1075 
L 347 1075 
Q 384 1075 397 1025 
Q 575 97 1259 97 
Q 1563 97 1767 234 
Q 1972 372 1972 659 
Q 1972 866 1812 1011 
Q 1653 1156 1434 1209 
L 1006 1294 
Q 791 1341 614 1437 
Q 438 1534 325 1695 
Q 213 1856 213 2069 
Q 213 2350 361 2529 
Q 509 2709 746 2789 
Q 984 2869 1259 2869 
Q 1588 2869 1831 2694 
L 2016 2853 
Q 2016 2869 2047 2869 
L 2094 2869 
Q 2113 2869 2128 2851 
Q 2144 2834 2144 2816 
L 2144 1978 
Q 2144 1919 2094 1919 
L 2016 1919 
Q 1959 1919 1959 1978 
Q 1959 2313 1773 2516 
Q 1588 2719 1253 2719 
Q 966 2719 755 2612 
Q 544 2506 544 2247 
Q 544 2069 695 1955 
Q 847 1841 1050 1791 
L 1484 1709 
Q 1703 1659 1892 1540 
Q 2081 1422 2192 1240 
Q 2303 1059 2303 831 
Q 2303 600 2223 429 
Q 2144 259 2001 146 
Q 1859 34 1665 -19 
Q 1472 -72 1259 -72 
Q 859 -72 575 197 
L 341 -56 
Q 341 -72 306 -72 
L 269 -72 
Q 213 -72 213 -19 
z
" transform="scale(0.015625)"/>
      <path id="Cmr10-30" d="M 1600 -141 
Q 816 -141 533 504 
Q 250 1150 250 2041 
Q 250 2597 351 3087 
Q 453 3578 754 3920 
Q 1056 4263 1600 4263 
Q 2022 4263 2290 4056 
Q 2559 3850 2700 3523 
Q 2841 3197 2892 2823 
Q 2944 2450 2944 2041 
Q 2944 1491 2842 1011 
Q 2741 531 2444 195 
Q 2147 -141 1600 -141 
z
M 1600 25 
Q 1956 25 2131 390 
Q 2306 756 2347 1200 
Q 2388 1644 2388 2144 
Q 2388 2625 2347 3031 
Q 2306 3438 2132 3767 
Q 1959 4097 1600 4097 
Q 1238 4097 1063 3765 
Q 888 3434 847 3029 
Q 806 2625 806 2144 
Q 806 1788 823 1472 
Q 841 1156 916 820 
Q 991 484 1158 254 
Q 1325 25 1600 25 
z
" transform="scale(0.015625)"/>
      <path id="Cmsy10-b1" d="M 1600 359 
Q 1269 359 983 526 
Q 697 694 528 984 
Q 359 1275 359 1600 
Q 359 1925 528 2215 
Q 697 2506 983 2673 
Q 1269 2841 1600 2841 
Q 1931 2841 2215 2672 
Q 2500 2503 2667 2214 
Q 2834 1925 2834 1600 
Q 2834 1275 2667 986 
Q 2500 697 2215 528 
Q 1931 359 1600 359 
z
M 1600 616 
Q 2000 616 2289 908 
Q 2578 1200 2578 1600 
Q 2578 1856 2445 2086 
Q 2313 2316 2088 2450 
Q 1863 2584 1600 2584 
Q 1403 2584 1225 2507 
Q 1047 2431 906 2290 
Q 766 2150 691 1973 
Q 616 1797 616 1600 
Q 616 1200 905 908 
Q 1194 616 1600 616 
z
" transform="scale(0.015625)"/>
      <path id="Cmr10-31" d="M 594 0 
L 594 225 
Q 1394 225 1394 428 
L 1394 3788 
Q 1063 3628 556 3628 
L 556 3853 
Q 1341 3853 1741 4263 
L 1831 4263 
Q 1853 4263 1873 4245 
Q 1894 4228 1894 4206 
L 1894 428 
Q 1894 225 2694 225 
L 2694 0 
L 594 0 
z
" transform="scale(0.015625)"/>
     </defs>
     <use xlink:href="#Cmb10-75" transform="translate(0 0.109375)"/>
     <use xlink:href="#Cmsy10-3e" transform="translate(72.272734 38.373438) scale(0.7)"/>
     <use xlink:href="#Cmb10-76" transform="translate(145.320977 0.109375)"/>
     <use xlink:href="#Cmr10-3d" transform="translate(215.565117 0.109375)"/>
     <use xlink:href="#Cmr10-63" transform="translate(310.809258 0.109375)"/>
     <use xlink:href="#Cmr10-6f" transform="translate(355.194023 0.109375)"/>
     <use xlink:href="#Cmr10-73" transform="translate(405.194023 0.109375)"/>
     <use xlink:href="#Cmr10-30" transform="translate(459.230774 0.109375)"/>
     <use xlink:href="#Cmsy10-b1" transform="translate(525.985931 38.373438) scale(0.7)"/>
     <use xlink:href="#Cmr10-3d" transform="translate(597.212884 0.109375)"/>
     <use xlink:href="#Cmr10-31" transform="translate(692.457024 0.109375)"/>
    </g>
   </g>
  </g>
  <g id="axes_2">
   <g id="line2d_2">
    <path d="M 241.938504 85.811663 
L 242.436448 82.97313 
L 242.730144 80.106257 
L 242.818089 77.225721 
L 242.699833 74.346271 
L 242.375981 71.482647 
L 241.848191 68.649511 
L 241.119166 65.861369 
L 240.192637 63.132493 
L 239.073348 60.476855 
L 237.767031 57.908051 
L 236.280371 55.439233 
L 234.620982 53.08304 
L 232.797358 50.851534 
L 230.818835 48.756142 
L 228.695544 46.80759 
L 226.438355 45.015855 
L 224.058824 43.390109 
L 221.569132 41.938676 
L 218.982028 40.668987 
L 216.310756 39.587542 
L 213.568991 38.699878 
L 210.770772 38.010539 
L 207.930424 37.523055 
L 205.062488 37.239922 
L 202.181648 37.162588 
L 199.302653 37.29145 
L 196.440242 37.625848 
L 193.60907 38.164071 
L 190.823631 38.903361 
L 188.098186 39.839936 
L 185.44669 40.968999 
L 182.882715 42.284771 
L 180.41939 43.780514 
L 178.069325 45.448571 
L 175.844553 47.280403 
L 173.756463 49.266631 
L 171.815746 51.397085 
L 170.032337 53.660859 
L 168.415368 56.046363 
L 166.973115 58.541384 
L 165.712965 61.133147 
L 164.641367 63.808385 
L 163.763809 66.553401 
L 163.084782 69.354141 
L 162.607764 72.196265 
L 162.335197 75.065224 
L 162.268475 77.94633 
L 162.407942 80.824831 
L 162.752882 83.685991 
L 163.145406 85.811663 
L 163.145406 85.811663 
" clip-path="url(#p928dc5670e)" style="fill: none; stroke: #cfcfcf; stroke-linecap: square"/>
   </g>
   <g id="patch_4">
    <path d="M 215.833263 77.437668 
C 215.833263 75.10473 215.219035 72.812398 214.052565 70.792014 
C 212.886096 68.77163 211.207993 67.093526 209.187609 65.927057 
" clip-path="url(#p928dc5670e)" style="fill: none; stroke: #7f7f7f; stroke-width: 1.2; stroke-linejoin: miter"/>
   </g>
   <g id="patch_5">
    <path d="M 202.541955 77.437668 
Q 222.680301 77.437668 240.358972 77.437668 
" style="fill: none; stroke: #1f77b4; stroke-width: 2.2; stroke-linecap: round"/>
    <path d="M 234.758972 74.637668 
L 240.358972 77.437668 
L 234.758972 80.237668 
" style="fill: none; stroke: #1f77b4; stroke-width: 2.2; stroke-linecap: round"/>
   </g>
   <g id="patch_6">
    <path d="M 202.541955 77.437668 
Q 212.611128 59.997349 221.450463 44.687171 
" style="fill: none; stroke: #ff7f0e; stroke-width: 2.2; stroke-linecap: round"/>
    <path d="M 216.225592 48.136913 
L 221.450463 44.687171 
L 221.075334 50.936913 
" style="fill: none; stroke: #ff7f0e; stroke-width: 2.2; stroke-linecap: round"/>
   </g>
   <g id="text_4">
    <!-- $\mathbf{u}$ -->
    <g style="fill: #1f77b4" transform="translate(248.457383 81.300793) scale(0.14 -0.14)">
     <use xlink:href="#Cmb10-75" transform="translate(0 0.984375)"/>
    </g>
   </g>
   <g id="text_5">
    <!-- $\mathbf{v}$ -->
    <g style="fill: #ff7f0e" transform="translate(225.902436 40.839253) scale(0.14 -0.14)">
     <use xlink:href="#Cmb10-76" transform="translate(0 0.609375)"/>
    </g>
   </g>
   <g id="text_6">
    <!-- $60^\circ$ -->
    <g style="fill: #7f7f7f" transform="translate(216.000789 67.054843) scale(0.12 -0.12)">
     <defs>
      <path id="Cmr10-36" d="M 1600 -141 
Q 1203 -141 937 70 
Q 672 281 526 617 
Q 381 953 325 1322 
Q 269 1691 269 2069 
Q 269 2575 466 3084 
Q 663 3594 1045 3928 
Q 1428 4263 1953 4263 
Q 2172 4263 2361 4180 
Q 2550 4097 2658 3936 
Q 2766 3775 2766 3547 
Q 2766 3416 2677 3327 
Q 2588 3238 2456 3238 
Q 2331 3238 2240 3328 
Q 2150 3419 2150 3547 
Q 2150 3672 2240 3762 
Q 2331 3853 2456 3853 
L 2491 3853 
Q 2409 3969 2261 4023 
Q 2113 4078 1953 4078 
Q 1759 4078 1595 3993 
Q 1431 3909 1300 3765 
Q 1169 3622 1081 3448 
Q 994 3275 945 3053 
Q 897 2831 884 2637 
Q 872 2444 872 2150 
Q 984 2413 1190 2580 
Q 1397 2747 1656 2747 
Q 1941 2747 2175 2631 
Q 2409 2516 2578 2311 
Q 2747 2106 2836 1843 
Q 2925 1581 2925 1313 
Q 2925 938 2758 598 
Q 2591 259 2287 59 
Q 1984 -141 1600 -141 
z
M 1600 63 
Q 1847 63 1997 175 
Q 2147 288 2217 473 
Q 2288 659 2305 848 
Q 2322 1038 2322 1313 
Q 2322 1675 2287 1931 
Q 2253 2188 2100 2383 
Q 1947 2578 1631 2578 
Q 1372 2578 1205 2403 
Q 1038 2228 961 1961 
Q 884 1694 884 1447 
Q 884 1363 891 1319 
Q 891 1309 889 1303 
Q 888 1297 884 1288 
Q 884 1013 940 731 
Q 997 450 1156 256 
Q 1316 63 1600 63 
z
" transform="scale(0.015625)"/>
     </defs>
     <use xlink:href="#Cmr10-36" transform="translate(0 0.6625)"/>
     <use xlink:href="#Cmr10-30" transform="translate(50 0.6625)"/>
     <use xlink:href="#Cmsy10-b1" transform="translate(116.755156 38.926562) scale(0.7)"/>
    </g>
   </g>
   <g id="text_7">
    <!-- $\mathbf{u}^\top \mathbf{v} = \cos 60^\circ = 0.5$ -->
    <g transform="translate(147.940789 17.077969) scale(0.13 -0.13)">
     <defs>
      <path id="Cmmi10-3a" d="M 538 353 
Q 538 497 644 600 
Q 750 703 891 703 
Q 978 703 1062 656 
Q 1147 609 1194 525 
Q 1241 441 1241 353 
Q 1241 213 1137 106 
Q 1034 0 891 0 
Q 750 0 644 106 
Q 538 213 538 353 
z
" transform="scale(0.015625)"/>
      <path id="Cmr10-35" d="M 556 728 
Q 622 541 758 387 
Q 894 234 1080 148 
Q 1266 63 1466 63 
Q 1928 63 2103 422 
Q 2278 781 2278 1294 
Q 2278 1516 2270 1667 
Q 2263 1819 2228 1959 
Q 2169 2184 2020 2353 
Q 1872 2522 1656 2522 
Q 1441 2522 1286 2456 
Q 1131 2391 1034 2303 
Q 938 2216 863 2119 
Q 788 2022 769 2016 
L 697 2016 
Q 681 2016 657 2036 
Q 634 2056 634 2075 
L 634 4213 
Q 634 4228 654 4245 
Q 675 4263 697 4263 
L 716 4263 
Q 1147 4056 1631 4056 
Q 2106 4056 2547 4263 
L 2566 4263 
Q 2588 4263 2606 4247 
Q 2625 4231 2625 4213 
L 2625 4153 
Q 2625 4122 2613 4122 
Q 2394 3831 2064 3668 
Q 1734 3506 1381 3506 
Q 1125 3506 856 3578 
L 856 2369 
Q 1069 2541 1236 2614 
Q 1403 2688 1663 2688 
Q 2016 2688 2295 2484 
Q 2575 2281 2725 1954 
Q 2875 1628 2875 1288 
Q 2875 903 2686 575 
Q 2497 247 2172 53 
Q 1847 -141 1466 -141 
Q 1150 -141 886 21 
Q 622 184 470 459 
Q 319 734 319 1044 
Q 319 1188 412 1278 
Q 506 1369 647 1369 
Q 788 1369 883 1276 
Q 978 1184 978 1044 
Q 978 906 883 811 
Q 788 716 647 716 
Q 625 716 597 720 
Q 569 725 556 728 
z
" transform="scale(0.015625)"/>
     </defs>
     <use xlink:href="#Cmb10-75" transform="translate(0 0.109375)"/>
     <use xlink:href="#Cmsy10-3e" transform="translate(72.272734 38.373438) scale(0.7)"/>
     <use xlink:href="#Cmb10-76" transform="translate(145.320977 0.109375)"/>
     <use xlink:href="#Cmr10-3d" transform="translate(215.565117 0.109375)"/>
     <use xlink:href="#Cmr10-63" transform="translate(310.809258 0.109375)"/>
     <use xlink:href="#Cmr10-6f" transform="translate(355.194023 0.109375)"/>
     <use xlink:href="#Cmr10-73" transform="translate(405.194023 0.109375)"/>
     <use xlink:href="#Cmr10-36" transform="translate(459.230774 0.109375)"/>
     <use xlink:href="#Cmr10-30" transform="translate(509.230774 0.109375)"/>
     <use xlink:href="#Cmsy10-b1" transform="translate(575.985931 38.373438) scale(0.7)"/>
     <use xlink:href="#Cmr10-3d" transform="translate(647.212884 0.109375)"/>
     <use xlink:href="#Cmr10-30" transform="translate(742.457024 0.109375)"/>
     <use xlink:href="#Cmmi10-3a" transform="translate(792.457024 0.109375)"/>
     <use xlink:href="#Cmr10-35" transform="translate(820.142571 0.109375)"/>
    </g>
   </g>
  </g>
  <g id="axes_3">
   <g id="line2d_3">
    <path d="M 382.906925 85.811663 
L 383.404869 82.97313 
L 383.698565 80.106257 
L 383.78651 77.225721 
L 383.668254 74.346271 
L 383.344402 71.482647 
L 382.816612 68.649511 
L 382.087587 65.861369 
L 381.161058 63.132493 
L 380.041769 60.476855 
L 378.735452 57.908051 
L 377.248792 55.439233 
L 375.589403 53.08304 
L 373.765779 50.851534 
L 371.787256 48.756142 
L 369.663965 46.80759 
L 367.406776 45.015855 
L 365.027245 43.390109 
L 362.537553 41.938676 
L 359.950449 40.668987 
L 357.279177 39.587542 
L 354.537412 38.699878 
L 351.739193 38.010539 
L 348.898845 37.523055 
L 346.030909 37.239922 
L 343.150069 37.162588 
L 340.271074 37.29145 
L 337.408663 37.625848 
L 334.577491 38.164071 
L 331.792052 38.903361 
L 329.066607 39.839936 
L 326.415111 40.968999 
L 323.851136 42.284771 
L 321.387811 43.780514 
L 319.037746 45.448571 
L 316.812974 47.280403 
L 314.724884 49.266631 
L 312.784167 51.397085 
L 311.000758 53.660859 
L 309.383789 56.046363 
L 307.941537 58.541384 
L 306.681386 61.133147 
L 305.609788 63.808385 
L 304.73223 66.553401 
L 304.053203 69.354141 
L 303.576185 72.196265 
L 303.303618 75.065224 
L 303.236896 77.94633 
L 303.376363 80.824831 
L 303.721303 83.685991 
L 304.113827 85.811663 
L 304.113827 85.811663 
" clip-path="url(#p864af20198)" style="fill: none; stroke: #cfcfcf; stroke-linecap: square"/>
   </g>
   <g id="line2d_4">
    <path d="M 343.510376 77.437668 
L 349.954647 77.437668 
L 349.954647 70.993397 
L 343.510376 70.993397 
L 343.510376 77.437668 
" clip-path="url(#p864af20198)" style="fill: none; stroke: #7f7f7f; stroke-linecap: square"/>
   </g>
   <g id="patch_7">
    <path d="M 343.510376 77.437668 
Q 363.648722 77.437668 381.327393 77.437668 
" style="fill: none; stroke: #1f77b4; stroke-width: 2.2; stroke-linecap: round"/>
    <path d="M 375.727393 74.637668 
L 381.327393 77.437668 
L 375.727393 80.237668 
" style="fill: none; stroke: #1f77b4; stroke-width: 2.2; stroke-linecap: round"/>
   </g>
   <g id="patch_8">
    <path d="M 343.510376 77.437668 
Q 343.510376 57.299322 343.510376 39.620651 
" style="fill: none; stroke: #ff7f0e; stroke-width: 2.2; stroke-linecap: round"/>
    <path d="M 340.710376 45.220651 
L 343.510376 39.620651 
L 346.310376 45.220651 
" style="fill: none; stroke: #ff7f0e; stroke-width: 2.2; stroke-linecap: round"/>
   </g>
   <g id="text_8">
    <!-- $\mathbf{u}$ -->
    <g style="fill: #1f77b4" transform="translate(389.425805 81.300793) scale(0.14 -0.14)">
     <use xlink:href="#Cmb10-75" transform="translate(0 0.984375)"/>
    </g>
   </g>
   <g id="text_9">
    <!-- $\mathbf{v}$ -->
    <g style="fill: #ff7f0e" transform="translate(343.510376 34.579831) scale(0.14 -0.14)">
     <use xlink:href="#Cmb10-76" transform="translate(0 0.609375)"/>
    </g>
   </g>
   <g id="text_10">
    <!-- $\mathbf{u}^\top \mathbf{v} = \cos 90^\circ = 0$ -->
    <g transform="translate(293.979211 17.077969) scale(0.13 -0.13)">
     <defs>
      <path id="Cmr10-39" d="M 722 269 
Q 897 63 1331 63 
Q 1575 63 1786 228 
Q 1997 394 2113 634 
Q 2247 906 2284 1214 
Q 2322 1522 2322 1978 
Q 2213 1719 2008 1553 
Q 1803 1388 1538 1388 
Q 1166 1388 873 1589 
Q 581 1791 425 2120 
Q 269 2450 269 2822 
Q 269 3206 444 3539 
Q 619 3872 928 4067 
Q 1238 4263 1631 4263 
Q 2019 4263 2280 4052 
Q 2541 3841 2678 3508 
Q 2816 3175 2870 2803 
Q 2925 2431 2925 2069 
Q 2925 1575 2744 1061 
Q 2563 547 2202 203 
Q 1841 -141 1331 -141 
Q 953 -141 690 37 
Q 428 216 428 575 
Q 428 706 517 795 
Q 606 884 738 884 
Q 866 884 955 795 
Q 1044 706 1044 575 
Q 1044 450 953 359 
Q 863 269 738 269 
L 722 269 
z
M 1563 1556 
Q 1825 1556 1992 1732 
Q 2159 1909 2234 2171 
Q 2309 2434 2309 2694 
L 2309 2816 
L 2309 2841 
Q 2309 3322 2168 3700 
Q 2028 4078 1631 4078 
Q 1378 4078 1220 3967 
Q 1063 3856 988 3672 
Q 913 3488 892 3278 
Q 872 3069 872 2822 
Q 872 2459 906 2203 
Q 941 1947 1094 1751 
Q 1247 1556 1563 1556 
z
" transform="scale(0.015625)"/>
     </defs>
     <use xlink:href="#Cmb10-75" transform="translate(0 0.109375)"/>
     <use xlink:href="#Cmsy10-3e" transform="translate(72.272734 38.373438) scale(0.7)"/>
     <use xlink:href="#Cmb10-76" transform="translate(145.320977 0.109375)"/>
     <use xlink:href="#Cmr10-3d" transform="translate(215.565117 0.109375)"/>
     <use xlink:href="#Cmr10-63" transform="translate(310.809258 0.109375)"/>
     <use xlink:href="#Cmr10-6f" transform="translate(355.194023 0.109375)"/>
     <use xlink:href="#Cmr10-73" transform="translate(405.194023 0.109375)"/>
     <use xlink:href="#Cmr10-39" transform="translate(459.230774 0.109375)"/>
     <use xlink:href="#Cmr10-30" transform="translate(509.230774 0.109375)"/>
     <use xlink:href="#Cmsy10-b1" transform="translate(575.985931 38.373438) scale(0.7)"/>
     <use xlink:href="#Cmr10-3d" transform="translate(647.212884 0.109375)"/>
     <use xlink:href="#Cmr10-30" transform="translate(742.457024 0.109375)"/>
    </g>
   </g>
  </g>
  <g id="axes_4">
   <g id="line2d_5">
    <path d="M 523.875346 85.811663 
L 524.37329 82.97313 
L 524.666986 80.106257 
L 524.754931 77.225721 
L 524.636675 74.346271 
L 524.312823 71.482647 
L 523.785033 68.649511 
L 523.056008 65.861369 
L 522.129479 63.132493 
L 521.01019 60.476855 
L 519.703873 57.908051 
L 518.217213 55.439233 
L 516.557824 53.08304 
L 514.7342 50.851534 
L 512.755678 48.756142 
L 510.632386 46.80759 
L 508.375197 45.015855 
L 505.995666 43.390109 
L 503.505975 41.938676 
L 500.91887 40.668987 
L 498.247598 39.587542 
L 495.505833 38.699878 
L 492.707614 38.010539 
L 489.867266 37.523055 
L 486.99933 37.239922 
L 484.11849 37.162588 
L 481.239495 37.29145 
L 478.377084 37.625848 
L 475.545912 38.164071 
L 472.760473 38.903361 
L 470.035029 39.839936 
L 467.383532 40.968999 
L 464.819557 42.284771 
L 462.356232 43.780514 
L 460.006167 45.448571 
L 457.781395 47.280403 
L 455.693305 49.266631 
L 453.752588 51.397085 
L 451.969179 53.660859 
L 450.35221 56.046363 
L 448.909958 58.541384 
L 447.649807 61.133147 
L 446.578209 63.808385 
L 445.700651 66.553401 
L 445.021624 69.354141 
L 444.544606 72.196265 
L 444.272039 75.065224 
L 444.205317 77.94633 
L 444.344784 80.824831 
L 444.689724 83.685991 
L 445.082248 85.811663 
L 445.082248 85.811663 
" clip-path="url(#p62135415a4)" style="fill: none; stroke: #cfcfcf; stroke-linecap: square"/>
   </g>
   <g id="patch_9">
    <path d="M 497.770105 77.437668 
C 497.770105 74.512332 496.804332 71.667257 495.023501 69.346432 
C 493.242669 67.025607 490.744498 65.356383 487.918841 64.59925 
C 485.093183 63.842117 482.095091 64.038623 479.392434 65.1581 
C 476.689776 66.277578 474.430854 68.258599 472.968186 70.792014 
" clip-path="url(#p62135415a4)" style="fill: none; stroke: #7f7f7f; stroke-width: 1.2; stroke-linejoin: miter"/>
   </g>
   <g id="patch_10">
    <path d="M 484.478797 77.437668 
Q 504.617143 77.437668 522.295814 77.437668 
" style="fill: none; stroke: #1f77b4; stroke-width: 2.2; stroke-linecap: round"/>
    <path d="M 516.695814 74.637668 
L 522.295814 77.437668 
L 516.695814 80.237668 
" style="fill: none; stroke: #1f77b4; stroke-width: 2.2; stroke-linecap: round"/>
   </g>
   <g id="patch_11">
    <path d="M 484.478797 77.437668 
Q 467.038478 67.368495 451.7283 58.52916 
" style="fill: none; stroke: #ff7f0e; stroke-width: 2.2; stroke-linecap: round"/>
    <path d="M 455.178042 63.754031 
L 451.7283 58.52916 
L 457.978042 58.904288 
" style="fill: none; stroke: #ff7f0e; stroke-width: 2.2; stroke-linecap: round"/>
   </g>
   <g id="text_11">
    <!-- $\mathbf{u}$ -->
    <g style="fill: #1f77b4" transform="translate(530.394226 81.300793) scale(0.14 -0.14)">
     <use xlink:href="#Cmb10-75" transform="translate(0 0.984375)"/>
    </g>
   </g>
   <g id="text_12">
    <!-- $\mathbf{v}$ -->
    <g style="fill: #ff7f0e" transform="translate(436.597257 57.940312) scale(0.14 -0.14)">
     <use xlink:href="#Cmb10-76" transform="translate(0 0.609375)"/>
    </g>
   </g>
   <g id="text_13">
    <!-- $150^\circ$ -->
    <g style="fill: #7f7f7f" transform="translate(478.307372 54.293996) scale(0.12 -0.12)">
     <use xlink:href="#Cmr10-31" transform="translate(0 0.6625)"/>
     <use xlink:href="#Cmr10-35" transform="translate(50 0.6625)"/>
     <use xlink:href="#Cmr10-30" transform="translate(100 0.6625)"/>
     <use xlink:href="#Cmsy10-b1" transform="translate(166.755156 38.926562) scale(0.7)"/>
    </g>
   </g>
   <g id="text_14">
    <!-- $\mathbf{u}^\top \mathbf{v} = \cos 150^\circ = -0.87$ -->
    <g transform="translate(418.372632 17.077969) scale(0.13 -0.13)">
     <defs>
      <path id="Cmsy10-a1" d="M 653 1472 
Q 600 1472 565 1512 
Q 531 1553 531 1600 
Q 531 1647 565 1687 
Q 600 1728 653 1728 
L 4325 1728 
Q 4375 1728 4408 1687 
Q 4441 1647 4441 1600 
Q 4441 1553 4408 1512 
Q 4375 1472 4325 1472 
L 653 1472 
z
" transform="scale(0.015625)"/>
      <path id="Cmr10-38" d="M 269 972 
Q 269 1356 522 1651 
Q 775 1947 1172 2144 
L 934 2297 
Q 716 2441 578 2680 
Q 441 2919 441 3181 
Q 441 3488 602 3734 
Q 763 3981 1030 4122 
Q 1297 4263 1600 4263 
Q 1884 4263 2148 4147 
Q 2413 4031 2583 3815 
Q 2753 3600 2753 3303 
Q 2753 3088 2651 2903 
Q 2550 2719 2373 2572 
Q 2197 2425 1997 2322 
L 2363 2088 
Q 2616 1922 2770 1653 
Q 2925 1384 2925 1088 
Q 2925 741 2739 456 
Q 2553 172 2247 15 
Q 1941 -141 1600 -141 
Q 1269 -141 961 -6 
Q 653 128 461 383 
Q 269 638 269 972 
z
M 616 972 
Q 616 719 755 509 
Q 894 300 1122 181 
Q 1350 63 1600 63 
Q 1972 63 2275 280 
Q 2578 497 2578 856 
Q 2578 978 2529 1098 
Q 2481 1219 2395 1317 
Q 2309 1416 2203 1478 
L 1344 2034 
Q 1144 1928 976 1765 
Q 809 1603 712 1400 
Q 616 1197 616 972 
z
M 1056 2925 
L 1831 2425 
Q 2100 2581 2272 2803 
Q 2444 3025 2444 3303 
Q 2444 3519 2323 3698 
Q 2203 3878 2009 3978 
Q 1816 4078 1594 4078 
Q 1400 4078 1203 4003 
Q 1006 3928 878 3779 
Q 750 3631 750 3431 
Q 750 3131 1056 2925 
z
" transform="scale(0.015625)"/>
      <path id="Cmr10-37" d="M 1113 166 
Q 1113 522 1175 862 
Q 1238 1203 1358 1536 
Q 1478 1869 1648 2189 
Q 1819 2509 2022 2791 
L 2606 3603 
L 1875 3603 
Q 738 3603 703 3572 
Q 619 3469 544 2981 
L 359 2981 
L 569 4325 
L 756 4325 
L 756 4306 
Q 756 4191 1147 4156 
Q 1538 4122 1913 4122 
L 3103 4122 
L 3103 3956 
Q 3103 3950 3101 3947 
Q 3100 3944 3097 3938 
L 2216 2700 
Q 1891 2219 1809 1631 
Q 1728 1044 1728 166 
Q 1728 41 1637 -50 
Q 1547 -141 1422 -141 
Q 1294 -141 1203 -50 
Q 1113 41 1113 166 
z
" transform="scale(0.015625)"/>
     </defs>
     <use xlink:href="#Cmb10-75" transform="translate(0 0.109375)"/>
     <use xlink:href="#Cmsy10-3e" transform="translate(72.272734 38.373438) scale(0.7)"/>
     <use xlink:href="#Cmb10-76" transform="translate(145.320977 0.109375)"/>
     <use xlink:href="#Cmr10-3d" transform="translate(215.565117 0.109375)"/>
     <use xlink:href="#Cmr10-63" transform="translate(310.809258 0.109375)"/>
     <use xlink:href="#Cmr10-6f" transform="translate(355.194023 0.109375)"/>
     <use xlink:href="#Cmr10-73" transform="translate(405.194023 0.109375)"/>
     <use xlink:href="#Cmr10-31" transform="translate(459.230774 0.109375)"/>
     <use xlink:href="#Cmr10-35" transform="translate(509.230774 0.109375)"/>
     <use xlink:href="#Cmr10-30" transform="translate(559.230774 0.109375)"/>
     <use xlink:href="#Cmsy10-b1" transform="translate(625.985931 38.373438) scale(0.7)"/>
     <use xlink:href="#Cmr10-3d" transform="translate(697.212884 0.109375)"/>
     <use xlink:href="#Cmsy10-a1" transform="translate(792.457024 0.109375)"/>
     <use xlink:href="#Cmr10-30" transform="translate(870.142571 0.109375)"/>
     <use xlink:href="#Cmmi10-3a" transform="translate(920.142571 0.109375)"/>
     <use xlink:href="#Cmr10-38" transform="translate(947.828118 0.109375)"/>
     <use xlink:href="#Cmr10-37" transform="translate(997.828118 0.109375)"/>
    </g>
   </g>
  </g>
 </g>
 <defs>
  <clipPath id="pe962e68ebb">
   <rect x="7.2" y="25.077969" width="112.774737" height="65.248241"/>
  </clipPath>
  <clipPath id="p928dc5670e">
   <rect x="148.168421" y="25.077969" width="112.774737" height="65.248241"/>
  </clipPath>
  <clipPath id="p864af20198">
   <rect x="289.136842" y="25.077969" width="112.774737" height="65.248241"/>
  </clipPath>
  <clipPath id="p62135415a4">
   <rect x="430.105263" y="25.077969" width="112.774737" height="65.248241"/>
  </clipPath>
 </defs>
</svg>
