<?xml version="1.0" encoding="utf-8" standalone="no"?>
<!DOCTYPE svg PUBLIC "-//W3C//DTD SVG 1.1//EN"
  "http://www.w3.org/Graphics/SVG/1.1/DTD/svg11.dtd">
<svg xmlns:xlink="http://www.w3.org/1999/xlink" width="345.98925pt" height="208.44pt" viewBox="0 0 345.98925 208.44" xmlns="http://www.w3.org/2000/svg" version="1.1">
 <metadata>
  <rdf:RDF xmlns:dc="http://purl.org/dc/elements/1.1/" xmlns:cc="http://creativecommons.org/ns#" xmlns:rdf="http://www.w3.org/1999/02/22-rdf-syntax-ns#">
   <cc:Work>
    <dc:type rdf:resource="http://purl.org/dc/dcmitype/StillImage"/>
    <dc:format>image/svg+xml</dc:format>
    <dc:creator>
     <cc:Agent>
      <dc:title>Matplotlib v3.10.8, https://matplotlib.org/</dc:title>
     </cc:Agent>
    </dc:creator>
   </cc:Work>
  </rdf:RDF>
 </metadata>
 <defs>
  <style type="text/css">*{stroke-linejoin: round; stroke-linecap: butt}</style>
 </defs>
 <g id="figure_1">
  <g id="patch_1">
   <path d="M 0 208.44 
L 345.98925 208.44 
L 345.98925 0 
L 0 0 
z
" style="fill: #ffffff"/>
  </g>
  <g id="axes_1">
   <g id="patch_2">
    <path d="M 55.431164 68.694734 
Q 82.561193 68.694734 108.237778 68.694734 
" style="fill: none; stroke: #7f7f7f; stroke-width: 1.3; stroke-linecap: round"/>
    <path d="M 103.837778 66.494734 
L 108.237778 68.694734 
L 103.837778 70.894734 
" style="fill: none; stroke: #7f7f7f; stroke-width: 1.3; stroke-linecap: round"/>
   </g>
   <g id="patch_3">
    <path d="M 145.864595 68.694734 
Q 172.994625 68.694734 198.67121 68.694734 
" style="fill: none; stroke: #7f7f7f; stroke-width: 1.3; stroke-linecap: round"/>
    <path d="M 194.27121 66.494734 
L 198.67121 68.694734 
L 194.27121 70.894734 
" style="fill: none; stroke: #7f7f7f; stroke-width: 1.3; stroke-linecap: round"/>
   </g>
   <g id="patch_4">
    <path d="M 236.298027 68.694734 
Q 263.428057 68.694734 289.104642 68.694734 
" style="fill: none; stroke: #7f7f7f; stroke-width: 1.3; stroke-linecap: round"/>
    <path d="M 284.704642 66.494734 
L 289.104642 68.694734 
L 284.704642 70.894734 
" style="fill: none; stroke: #7f7f7f; stroke-width: 1.3; stroke-linecap: round"/>
   </g>
   <g id="patch_5">
    <path d="M 37.344477 84.369862 
C 41.50157 84.369862 45.488958 82.718231 48.428467 79.778723 
C 51.367975 76.839215 53.019605 72.851826 53.019605 68.694734 
C 53.019605 64.537641 51.367975 60.550253 48.428467 57.610744 
C 45.488958 54.671236 41.50157 53.019605 37.344477 53.019605 
C 33.187385 53.019605 29.199996 54.671236 26.260488 57.610744 
C 23.320979 60.550253 21.669349 64.537641 21.669349 68.694734 
C 21.669349 72.851826 23.320979 76.839215 26.260488 79.778723 
C 29.199996 82.718231 33.187385 84.369862 37.344477 84.369862 
z
" clip-path="url(#pfa6b61e894)" style="fill: #cfcfcf; stroke: #000000; stroke-width: 1.2; stroke-linejoin: miter"/>
   </g>
   <g id="patch_6">
    <path d="M 127.777909 84.369862 
C 131.935002 84.369862 135.92239 82.718231 138.861898 79.778723 
C 141.801407 76.839215 143.453037 72.851826 143.453037 68.694734 
C 143.453037 64.537641 141.801407 60.550253 138.861898 57.610744 
C 135.92239 54.671236 131.935002 53.019605 127.777909 53.019605 
C 123.620816 53.019605 119.633428 54.671236 116.69392 57.610744 
C 113.754411 60.550253 112.102781 64.537641 112.102781 68.694734 
C 112.102781 72.851826 113.754411 76.839215 116.69392 79.778723 
C 119.633428 82.718231 123.620816 84.369862 127.777909 84.369862 
z
" clip-path="url(#pfa6b61e894)" style="fill: #cfcfcf; stroke: #000000; stroke-width: 1.2; stroke-linejoin: miter"/>
   </g>
   <g id="patch_7">
    <path d="M 218.211341 84.369862 
C 222.368433 84.369862 226.355822 82.718231 229.29533 79.778723 
C 232.234838 76.839215 233.886469 72.851826 233.886469 68.694734 
C 233.886469 64.537641 232.234838 60.550253 229.29533 57.610744 
C 226.355822 54.671236 222.368433 53.019605 218.211341 53.019605 
C 214.054248 53.019605 210.06686 54.671236 207.127351 57.610744 
C 204.187843 60.550253 202.536213 64.537641 202.536213 68.694734 
C 202.536213 72.851826 204.187843 76.839215 207.127351 79.778723 
C 210.06686 82.718231 214.054248 84.369862 218.211341 84.369862 
z
" clip-path="url(#pfa6b61e894)" style="fill: #cfcfcf; stroke: #000000; stroke-width: 1.2; stroke-linejoin: miter"/>
   </g>
   <g id="patch_8">
    <path d="M 308.644772 84.369862 
C 312.801865 84.369862 316.789253 82.718231 319.728762 79.778723 
C 322.66827 76.839215 324.319901 72.851826 324.319901 68.694734 
C 324.319901 64.537641 322.66827 60.550253 319.728762 57.610744 
C 316.789253 54.671236 312.801865 53.019605 308.644772 53.019605 
C 304.48768 53.019605 300.500291 54.671236 297.560783 57.610744 
C 294.621275 60.550253 292.969644 64.537641 292.969644 68.694734 
C 292.969644 72.851826 294.621275 76.839215 297.560783 79.778723 
C 300.500291 82.718231 304.48768 84.369862 308.644772 84.369862 
z
" clip-path="url(#pfa6b61e894)" style="fill: #cfcfcf; stroke: #000000; stroke-width: 1.2; stroke-linejoin: miter"/>
   </g>
   <g id="patch_9">
    <path d="M 39.069358 43.563963 
Q 82.5614 18.464192 124.407258 42.61416 
" style="fill: none; stroke: #1f77b4; stroke-width: 1.7; stroke-linecap: round"/>
    <path d="M 121.696029 38.509378 
L 124.407258 42.61416 
L 119.496694 42.320274 
" style="fill: none; stroke: #1f77b4; stroke-width: 1.7; stroke-linecap: round"/>
   </g>
   <g id="patch_10">
    <path d="M 129.50279 43.563963 
Q 172.994832 18.464192 214.840689 42.61416 
" style="fill: none; stroke: #1f77b4; stroke-width: 1.7; stroke-linecap: round"/>
    <path d="M 212.12946 38.509378 
L 214.840689 42.61416 
L 209.930126 42.320274 
" style="fill: none; stroke: #1f77b4; stroke-width: 1.7; stroke-linecap: round"/>
   </g>
   <g id="patch_11">
    <path d="M 219.936222 43.563963 
Q 263.428263 18.464192 305.274121 42.61416 
" style="fill: none; stroke: #1f77b4; stroke-width: 1.7; stroke-linecap: round"/>
    <path d="M 302.562892 38.509378 
L 305.274121 42.61416 
L 300.363558 42.320274 
" style="fill: none; stroke: #1f77b4; stroke-width: 1.7; stroke-linecap: round"/>
   </g>
   <g id="text_1">
    <!-- forward: tangent $\dot a = J\dot x$ (JVP), one input at a time -->
    <g style="fill: #1f77b4" transform="translate(38.684625 19.257791) scale(0.11 -0.11)">
     <defs>
      <path id="DejaVuSans-66" d="M 2375 4863 
L 2375 4384 
L 1825 4384 
Q 1516 4384 1395 4259 
Q 1275 4134 1275 3809 
L 1275 3500 
L 2222 3500 
L 2222 3053 
L 1275 3053 
L 1275 0 
L 697 0 
L 697 3053 
L 147 3053 
L 147 3500 
L 697 3500 
L 697 3744 
Q 697 4328 969 4595 
Q 1241 4863 1831 4863 
L 2375 4863 
z
" transform="scale(0.015625)"/>
      <path id="DejaVuSans-6f" d="M 1959 3097 
Q 1497 3097 1228 2736 
Q 959 2375 959 1747 
Q 959 1119 1226 758 
Q 1494 397 1959 397 
Q 2419 397 2687 759 
Q 2956 1122 2956 1747 
Q 2956 2369 2687 2733 
Q 2419 3097 1959 3097 
z
M 1959 3584 
Q 2709 3584 3137 3096 
Q 3566 2609 3566 1747 
Q 3566 888 3137 398 
Q 2709 -91 1959 -91 
Q 1206 -91 779 398 
Q 353 888 353 1747 
Q 353 2609 779 3096 
Q 1206 3584 1959 3584 
z
" transform="scale(0.015625)"/>
      <path id="DejaVuSans-72" d="M 2631 2963 
Q 2534 3019 2420 3045 
Q 2306 3072 2169 3072 
Q 1681 3072 1420 2755 
Q 1159 2438 1159 1844 
L 1159 0 
L 581 0 
L 581 3500 
L 1159 3500 
L 1159 2956 
Q 1341 3275 1631 3429 
Q 1922 3584 2338 3584 
Q 2397 3584 2469 3576 
Q 2541 3569 2628 3553 
L 2631 2963 
z
" transform="scale(0.015625)"/>
      <path id="DejaVuSans-77" d="M 269 3500 
L 844 3500 
L 1563 769 
L 2278 3500 
L 2956 3500 
L 3675 769 
L 4391 3500 
L 4966 3500 
L 4050 0 
L 3372 0 
L 2619 2869 
L 1863 0 
L 1184 0 
L 269 3500 
z
" transform="scale(0.015625)"/>
      <path id="DejaVuSans-61" d="M 2194 1759 
Q 1497 1759 1228 1600 
Q 959 1441 959 1056 
Q 959 750 1161 570 
Q 1363 391 1709 391 
Q 2188 391 2477 730 
Q 2766 1069 2766 1631 
L 2766 1759 
L 2194 1759 
z
M 3341 1997 
L 3341 0 
L 2766 0 
L 2766 531 
Q 2569 213 2275 61 
Q 1981 -91 1556 -91 
Q 1019 -91 701 211 
Q 384 513 384 1019 
Q 384 1609 779 1909 
Q 1175 2209 1959 2209 
L 2766 2209 
L 2766 2266 
Q 2766 2663 2505 2880 
Q 2244 3097 1772 3097 
Q 1472 3097 1187 3025 
Q 903 2953 641 2809 
L 641 3341 
Q 956 3463 1253 3523 
Q 1550 3584 1831 3584 
Q 2591 3584 2966 3190 
Q 3341 2797 3341 1997 
z
" transform="scale(0.015625)"/>
      <path id="DejaVuSans-64" d="M 2906 2969 
L 2906 4863 
L 3481 4863 
L 3481 0 
L 2906 0 
L 2906 525 
Q 2725 213 2448 61 
Q 2172 -91 1784 -91 
Q 1150 -91 751 415 
Q 353 922 353 1747 
Q 353 2572 751 3078 
Q 1150 3584 1784 3584 
Q 2172 3584 2448 3432 
Q 2725 3281 2906 2969 
z
M 947 1747 
Q 947 1113 1208 752 
Q 1469 391 1925 391 
Q 2381 391 2643 752 
Q 2906 1113 2906 1747 
Q 2906 2381 2643 2742 
Q 2381 3103 1925 3103 
Q 1469 3103 1208 2742 
Q 947 2381 947 1747 
z
" transform="scale(0.015625)"/>
      <path id="DejaVuSans-3a" d="M 750 794 
L 1409 794 
L 1409 0 
L 750 0 
L 750 794 
z
M 750 3309 
L 1409 3309 
L 1409 2516 
L 750 2516 
L 750 3309 
z
" transform="scale(0.015625)"/>
      <path id="DejaVuSans-20" transform="scale(0.015625)"/>
      <path id="DejaVuSans-74" d="M 1172 4494 
L 1172 3500 
L 2356 3500 
L 2356 3053 
L 1172 3053 
L 1172 1153 
Q 1172 725 1289 603 
Q 1406 481 1766 481 
L 2356 481 
L 2356 0 
L 1766 0 
Q 1100 0 847 248 
Q 594 497 594 1153 
L 594 3053 
L 172 3053 
L 172 3500 
L 594 3500 
L 594 4494 
L 1172 4494 
z
" transform="scale(0.015625)"/>
      <path id="DejaVuSans-6e" d="M 3513 2113 
L 3513 0 
L 2938 0 
L 2938 2094 
Q 2938 2591 2744 2837 
Q 2550 3084 2163 3084 
Q 1697 3084 1428 2787 
Q 1159 2491 1159 1978 
L 1159 0 
L 581 0 
L 581 3500 
L 1159 3500 
L 1159 2956 
Q 1366 3272 1645 3428 
Q 1925 3584 2291 3584 
Q 2894 3584 3203 3211 
Q 3513 2838 3513 2113 
z
" transform="scale(0.015625)"/>
      <path id="DejaVuSans-67" d="M 2906 1791 
Q 2906 2416 2648 2759 
Q 2391 3103 1925 3103 
Q 1463 3103 1205 2759 
Q 947 2416 947 1791 
Q 947 1169 1205 825 
Q 1463 481 1925 481 
Q 2391 481 2648 825 
Q 2906 1169 2906 1791 
z
M 3481 434 
Q 3481 -459 3084 -895 
Q 2688 -1331 1869 -1331 
Q 1566 -1331 1297 -1286 
Q 1028 -1241 775 -1147 
L 775 -588 
Q 1028 -725 1275 -790 
Q 1522 -856 1778 -856 
Q 2344 -856 2625 -561 
Q 2906 -266 2906 331 
L 2906 616 
Q 2728 306 2450 153 
Q 2172 0 1784 0 
Q 1141 0 747 490 
Q 353 981 353 1791 
Q 353 2603 747 3093 
Q 1141 3584 1784 3584 
Q 2172 3584 2450 3431 
Q 2728 3278 2906 2969 
L 2906 3500 
L 3481 3500 
L 3481 434 
z
" transform="scale(0.015625)"/>
      <path id="DejaVuSans-65" d="M 3597 1894 
L 3597 1613 
L 953 1613 
Q 991 1019 1311 708 
Q 1631 397 2203 397 
Q 2534 397 2845 478 
Q 3156 559 3463 722 
L 3463 178 
Q 3153 47 2828 -22 
Q 2503 -91 2169 -91 
Q 1331 -91 842 396 
Q 353 884 353 1716 
Q 353 2575 817 3079 
Q 1281 3584 2069 3584 
Q 2775 3584 3186 3129 
Q 3597 2675 3597 1894 
z
M 3022 2063 
Q 3016 2534 2758 2815 
Q 2500 3097 2075 3097 
Q 1594 3097 1305 2825 
Q 1016 2553 972 2059 
L 3022 2063 
z
" transform="scale(0.015625)"/>
      <path id="Cmr10-5f" d="M 538 3928 
Q 538 4069 644 4175 
Q 750 4281 891 4281 
Q 978 4281 1062 4234 
Q 1147 4188 1194 4103 
Q 1241 4019 1241 3928 
Q 1241 3791 1137 3684 
Q 1034 3578 891 3578 
Q 750 3578 644 3684 
Q 538 3791 538 3928 
z
" transform="scale(0.015625)"/>
      <path id="Cmmi10-61" d="M 1113 -72 
Q 709 -72 476 233 
Q 244 538 244 953 
Q 244 1363 456 1803 
Q 669 2244 1030 2536 
Q 1391 2828 1806 2828 
Q 1997 2828 2147 2725 
Q 2297 2622 2381 2444 
Q 2453 2700 2663 2700 
Q 2744 2700 2798 2651 
Q 2853 2603 2853 2522 
Q 2853 2503 2851 2493 
Q 2850 2484 2847 2472 
L 2400 684 
Q 2356 494 2356 372 
Q 2356 97 2541 97 
Q 2741 97 2845 351 
Q 2950 606 3022 941 
Q 3034 978 3072 978 
L 3150 978 
Q 3175 978 3190 956 
Q 3206 934 3206 916 
Q 3094 469 2961 198 
Q 2828 -72 2528 -72 
Q 2313 -72 2147 54 
Q 1981 181 1941 391 
Q 1528 -72 1113 -72 
z
M 1119 97 
Q 1350 97 1567 270 
Q 1784 444 1941 678 
Q 1947 684 1947 697 
L 2291 2088 
L 2297 2106 
Q 2259 2334 2132 2498 
Q 2006 2663 1791 2663 
Q 1575 2663 1389 2486 
Q 1203 2309 1075 2069 
Q 950 1813 836 1366 
Q 722 919 722 672 
Q 722 450 817 273 
Q 913 97 1119 97 
z
" transform="scale(0.015625)"/>
      <path id="Cmr10-3d" d="M 481 850 
Q 428 850 393 890 
Q 359 931 359 978 
Q 359 1031 393 1068 
Q 428 1106 481 1106 
L 4500 1106 
Q 4547 1106 4581 1068 
Q 4616 1031 4616 978 
Q 4616 931 4581 890 
Q 4547 850 4500 850 
L 481 850 
z
M 481 2094 
Q 428 2094 393 2131 
Q 359 2169 359 2222 
Q 359 2269 393 2309 
Q 428 2350 481 2350 
L 4500 2350 
Q 4547 2350 4581 2309 
Q 4616 2269 4616 2222 
Q 4616 2169 4581 2131 
Q 4547 2094 4500 2094 
L 481 2094 
z
" transform="scale(0.015625)"/>
      <path id="Cmmi10-4a" d="M 697 384 
Q 759 206 928 115 
Q 1097 25 1294 25 
Q 1494 25 1680 164 
Q 1866 303 1995 512 
Q 2125 722 2175 928 
L 2931 3956 
Q 2938 3981 2939 3993 
Q 2941 4006 2944 4019 
Q 2944 4088 2894 4103 
Q 2725 4147 2209 4147 
Q 2144 4147 2144 4231 
Q 2156 4281 2164 4309 
Q 2172 4338 2192 4355 
Q 2213 4372 2253 4372 
L 3988 4372 
Q 4050 4372 4050 4288 
Q 4025 4147 3969 4147 
Q 3744 4147 3628 4112 
Q 3513 4078 3469 3928 
L 2713 903 
Q 2641 606 2420 367 
Q 2200 128 1897 -6 
Q 1594 -141 1288 -141 
Q 950 -141 695 46 
Q 441 234 441 556 
Q 441 769 556 922 
Q 672 1075 884 1075 
Q 1006 1075 1089 1000 
Q 1172 925 1172 806 
Q 1172 634 1044 506 
Q 916 378 744 378 
Q 709 378 697 384 
z
" transform="scale(0.015625)"/>
      <path id="Cmmi10-78" d="M 500 184 
Q 613 97 819 97 
Q 1019 97 1172 289 
Q 1325 481 1381 709 
L 1672 1844 
Q 1741 2153 1741 2266 
Q 1741 2425 1652 2544 
Q 1563 2663 1403 2663 
Q 1200 2663 1022 2536 
Q 844 2409 722 2214 
Q 600 2019 550 1819 
Q 538 1778 500 1778 
L 422 1778 
Q 372 1778 372 1838 
L 372 1856 
Q 434 2094 584 2320 
Q 734 2547 951 2687 
Q 1169 2828 1416 2828 
Q 1650 2828 1839 2703 
Q 2028 2578 2106 2363 
Q 2216 2559 2386 2693 
Q 2556 2828 2759 2828 
Q 2897 2828 3040 2779 
Q 3184 2731 3275 2631 
Q 3366 2531 3366 2381 
Q 3366 2219 3261 2101 
Q 3156 1984 2994 1984 
Q 2891 1984 2822 2050 
Q 2753 2116 2753 2216 
Q 2753 2350 2845 2451 
Q 2938 2553 3066 2572 
Q 2950 2663 2747 2663 
Q 2541 2663 2389 2472 
Q 2238 2281 2175 2047 
L 1894 916 
Q 1825 659 1825 494 
Q 1825 331 1917 214 
Q 2009 97 2163 97 
Q 2463 97 2698 361 
Q 2934 625 3009 941 
Q 3022 978 3059 978 
L 3138 978 
Q 3163 978 3178 961 
Q 3194 944 3194 922 
Q 3194 916 3188 903 
Q 3097 522 2806 225 
Q 2516 -72 2150 -72 
Q 1916 -72 1727 54 
Q 1538 181 1459 397 
Q 1359 209 1182 68 
Q 1006 -72 806 -72 
Q 669 -72 523 -23 
Q 378 25 287 125 
Q 197 225 197 378 
Q 197 528 301 651 
Q 406 775 563 775 
Q 669 775 741 711 
Q 813 647 813 544 
Q 813 409 723 309 
Q 634 209 500 184 
z
" transform="scale(0.015625)"/>
      <path id="DejaVuSans-28" d="M 1984 4856 
Q 1566 4138 1362 3434 
Q 1159 2731 1159 2009 
Q 1159 1288 1364 580 
Q 1569 -128 1984 -844 
L 1484 -844 
Q 1016 -109 783 600 
Q 550 1309 550 2009 
Q 550 2706 781 3412 
Q 1013 4119 1484 4856 
L 1984 4856 
z
" transform="scale(0.015625)"/>
      <path id="DejaVuSans-4a" d="M 628 4666 
L 1259 4666 
L 1259 325 
Q 1259 -519 939 -900 
Q 619 -1281 -91 -1281 
L -331 -1281 
L -331 -750 
L -134 -750 
Q 284 -750 456 -515 
Q 628 -281 628 325 
L 628 4666 
z
" transform="scale(0.015625)"/>
      <path id="DejaVuSans-56" d="M 1831 0 
L 50 4666 
L 709 4666 
L 2188 738 
L 3669 4666 
L 4325 4666 
L 2547 0 
L 1831 0 
z
" transform="scale(0.015625)"/>
      <path id="DejaVuSans-50" d="M 1259 4147 
L 1259 2394 
L 2053 2394 
Q 2494 2394 2734 2622 
Q 2975 2850 2975 3272 
Q 2975 3691 2734 3919 
Q 2494 4147 2053 4147 
L 1259 4147 
z
M 628 4666 
L 2053 4666 
Q 2838 4666 3239 4311 
Q 3641 3956 3641 3272 
Q 3641 2581 3239 2228 
Q 2838 1875 2053 1875 
L 1259 1875 
L 1259 0 
L 628 0 
L 628 4666 
z
" transform="scale(0.015625)"/>
      <path id="DejaVuSans-29" d="M 513 4856 
L 1013 4856 
Q 1481 4119 1714 3412 
Q 1947 2706 1947 2009 
Q 1947 1309 1714 600 
Q 1481 -109 1013 -844 
L 513 -844 
Q 928 -128 1133 580 
Q 1338 1288 1338 2009 
Q 1338 2731 1133 3434 
Q 928 4138 513 4856 
z
" transform="scale(0.015625)"/>
      <path id="DejaVuSans-2c" d="M 750 794 
L 1409 794 
L 1409 256 
L 897 -744 
L 494 -744 
L 750 256 
L 750 794 
z
" transform="scale(0.015625)"/>
      <path id="DejaVuSans-69" d="M 603 3500 
L 1178 3500 
L 1178 0 
L 603 0 
L 603 3500 
z
M 603 4863 
L 1178 4863 
L 1178 4134 
L 603 4134 
L 603 4863 
z
" transform="scale(0.015625)"/>
      <path id="DejaVuSans-70" d="M 1159 525 
L 1159 -1331 
L 581 -1331 
L 581 3500 
L 1159 3500 
L 1159 2969 
Q 1341 3281 1617 3432 
Q 1894 3584 2278 3584 
Q 2916 3584 3314 3078 
Q 3713 2572 3713 1747 
Q 3713 922 3314 415 
Q 2916 -91 2278 -91 
Q 1894 -91 1617 61 
Q 1341 213 1159 525 
z
M 3116 1747 
Q 3116 2381 2855 2742 
Q 2594 3103 2138 3103 
Q 1681 3103 1420 2742 
Q 1159 2381 1159 1747 
Q 1159 1113 1420 752 
Q 1681 391 2138 391 
Q 2594 391 2855 752 
Q 3116 1113 3116 1747 
z
" transform="scale(0.015625)"/>
      <path id="DejaVuSans-75" d="M 544 1381 
L 544 3500 
L 1119 3500 
L 1119 1403 
Q 1119 906 1312 657 
Q 1506 409 1894 409 
Q 2359 409 2629 706 
Q 2900 1003 2900 1516 
L 2900 3500 
L 3475 3500 
L 3475 0 
L 2900 0 
L 2900 538 
Q 2691 219 2414 64 
Q 2138 -91 1772 -91 
Q 1169 -91 856 284 
Q 544 659 544 1381 
z
M 1991 3584 
L 1991 3584 
z
" transform="scale(0.015625)"/>
      <path id="DejaVuSans-6d" d="M 3328 2828 
Q 3544 3216 3844 3400 
Q 4144 3584 4550 3584 
Q 5097 3584 5394 3201 
Q 5691 2819 5691 2113 
L 5691 0 
L 5113 0 
L 5113 2094 
Q 5113 2597 4934 2840 
Q 4756 3084 4391 3084 
Q 3944 3084 3684 2787 
Q 3425 2491 3425 1978 
L 3425 0 
L 2847 0 
L 2847 2094 
Q 2847 2600 2669 2842 
Q 2491 3084 2119 3084 
Q 1678 3084 1418 2786 
Q 1159 2488 1159 1978 
L 1159 0 
L 581 0 
L 581 3500 
L 1159 3500 
L 1159 2956 
Q 1356 3278 1631 3431 
Q 1906 3584 2284 3584 
Q 2666 3584 2933 3390 
Q 3200 3197 3328 2828 
z
" transform="scale(0.015625)"/>
     </defs>
     <use xlink:href="#DejaVuSans-66" transform="translate(0 0.015625)"/>
     <use xlink:href="#DejaVuSans-6f" transform="translate(35.205078 0.015625)"/>
     <use xlink:href="#DejaVuSans-72" transform="translate(96.386719 0.015625)"/>
     <use xlink:href="#DejaVuSans-77" transform="translate(137.5 0.015625)"/>
     <use xlink:href="#DejaVuSans-61" transform="translate(219.287109 0.015625)"/>
     <use xlink:href="#DejaVuSans-72" transform="translate(280.566406 0.015625)"/>
     <use xlink:href="#DejaVuSans-64" transform="translate(321.679688 0.015625)"/>
     <use xlink:href="#DejaVuSans-3a" transform="translate(385.15625 0.015625)"/>
     <use xlink:href="#DejaVuSans-20" transform="translate(418.847656 0.015625)"/>
     <use xlink:href="#DejaVuSans-74" transform="translate(450.634766 0.015625)"/>
     <use xlink:href="#DejaVuSans-61" transform="translate(489.84375 0.015625)"/>
     <use xlink:href="#DejaVuSans-6e" transform="translate(551.123047 0.015625)"/>
     <use xlink:href="#DejaVuSans-67" transform="translate(614.501953 0.015625)"/>
     <use xlink:href="#DejaVuSans-65" transform="translate(677.978516 0.015625)"/>
     <use xlink:href="#DejaVuSans-6e" transform="translate(739.501953 0.015625)"/>
     <use xlink:href="#DejaVuSans-74" transform="translate(802.880859 0.015625)"/>
     <use xlink:href="#DejaVuSans-20" transform="translate(842.089844 0.015625)"/>
     <use xlink:href="#Cmr10-5f" transform="translate(889.041016 0.796875)"/>
     <use xlink:href="#Cmmi10-61" transform="translate(873.876953 0.015625)"/>
     <use xlink:href="#Cmr10-3d" transform="translate(944.21875 0.015625)"/>
     <use xlink:href="#Cmmi10-4a" transform="translate(1039.462891 0.015625)"/>
     <use xlink:href="#Cmr10-5f" transform="translate(1111.851562 0.796875)"/>
     <use xlink:href="#Cmmi10-78" transform="translate(1094.882812 0.015625)"/>
     <use xlink:href="#DejaVuSans-20" transform="translate(1151.962891 0.015625)"/>
     <use xlink:href="#DejaVuSans-28" transform="translate(1183.75 0.015625)"/>
     <use xlink:href="#DejaVuSans-4a" transform="translate(1222.763672 0.015625)"/>
     <use xlink:href="#DejaVuSans-56" transform="translate(1252.255859 0.015625)"/>
     <use xlink:href="#DejaVuSans-50" transform="translate(1320.664062 0.015625)"/>
     <use xlink:href="#DejaVuSans-29" transform="translate(1380.966797 0.015625)"/>
     <use xlink:href="#DejaVuSans-2c" transform="translate(1419.980469 0.015625)"/>
     <use xlink:href="#DejaVuSans-20" transform="translate(1451.767578 0.015625)"/>
     <use xlink:href="#DejaVuSans-6f" transform="translate(1483.554688 0.015625)"/>
     <use xlink:href="#DejaVuSans-6e" transform="translate(1544.736328 0.015625)"/>
     <use xlink:href="#DejaVuSans-65" transform="translate(1608.115234 0.015625)"/>
     <use xlink:href="#DejaVuSans-20" transform="translate(1669.638672 0.015625)"/>
     <use xlink:href="#DejaVuSans-69" transform="translate(1701.425781 0.015625)"/>
     <use xlink:href="#DejaVuSans-6e" transform="translate(1729.208984 0.015625)"/>
     <use xlink:href="#DejaVuSans-70" transform="translate(1792.587891 0.015625)"/>
     <use xlink:href="#DejaVuSans-75" transform="translate(1856.064453 0.015625)"/>
     <use xlink:href="#DejaVuSans-74" transform="translate(1919.443359 0.015625)"/>
     <use xlink:href="#DejaVuSans-20" transform="translate(1958.652344 0.015625)"/>
     <use xlink:href="#DejaVuSans-61" transform="translate(1990.439453 0.015625)"/>
     <use xlink:href="#DejaVuSans-74" transform="translate(2051.71875 0.015625)"/>
     <use xlink:href="#DejaVuSans-20" transform="translate(2090.927734 0.015625)"/>
     <use xlink:href="#DejaVuSans-61" transform="translate(2122.714844 0.015625)"/>
     <use xlink:href="#DejaVuSans-20" transform="translate(2183.994141 0.015625)"/>
     <use xlink:href="#DejaVuSans-74" transform="translate(2215.78125 0.015625)"/>
     <use xlink:href="#DejaVuSans-69" transform="translate(2254.990234 0.015625)"/>
     <use xlink:href="#DejaVuSans-6d" transform="translate(2282.773438 0.015625)"/>
     <use xlink:href="#DejaVuSans-65" transform="translate(2380.185547 0.015625)"/>
    </g>
   </g>
   <g id="text_2">
    <!-- $x$ -->
    <g transform="translate(34.154477 71.730046) scale(0.11 -0.11)">
     <use xlink:href="#Cmmi10-78" transform="translate(0 0.8125)"/>
    </g>
   </g>
   <g id="text_3">
    <!-- $a$ -->
    <g transform="translate(124.862909 71.730046) scale(0.11 -0.11)">
     <use xlink:href="#Cmmi10-61" transform="translate(0 0.8125)"/>
    </g>
   </g>
   <g id="text_4">
    <!-- $b$ -->
    <g transform="translate(215.846341 71.730046) scale(0.11 -0.11)">
     <defs>
      <path id="Cmmi10-62" d="M 1106 -72 
Q 719 -72 503 231 
Q 288 534 288 941 
Q 288 1000 317 1173 
Q 347 1347 347 1388 
L 966 3872 
Q 991 3981 997 4044 
Q 997 4147 581 4147 
Q 519 4147 519 4231 
Q 522 4247 533 4287 
Q 544 4328 561 4350 
Q 578 4372 609 4372 
L 1472 4441 
Q 1550 4441 1550 4359 
L 1075 2472 
Q 1438 2828 1806 2828 
Q 2078 2828 2273 2684 
Q 2469 2541 2566 2306 
Q 2663 2072 2663 1806 
Q 2663 1497 2542 1167 
Q 2422 838 2209 555 
Q 1997 272 1712 100 
Q 1428 -72 1106 -72 
z
M 1119 97 
Q 1338 97 1528 280 
Q 1719 463 1838 691 
Q 1966 947 2077 1386 
Q 2188 1825 2188 2088 
Q 2188 2316 2092 2489 
Q 1997 2663 1791 2663 
Q 1559 2663 1348 2492 
Q 1138 2322 978 2088 
L 800 1363 
Q 697 959 691 716 
Q 691 475 795 286 
Q 900 97 1119 97 
z
" transform="scale(0.015625)"/>
     </defs>
     <use xlink:href="#Cmmi10-62" transform="translate(0 0.609375)"/>
    </g>
   </g>
   <g id="text_5">
    <!-- $L$ -->
    <g transform="translate(304.849772 71.730046) scale(0.11 -0.11)">
     <defs>
      <path id="Cmmi10-4c" d="M 300 0 
Q 238 0 238 84 
Q 241 100 250 139 
Q 259 178 276 201 
Q 294 225 319 225 
Q 709 225 863 269 
Q 947 297 984 441 
L 1863 3956 
Q 1875 4019 1875 4044 
Q 1875 4113 1797 4122 
Q 1678 4147 1338 4147 
Q 1275 4147 1275 4231 
Q 1297 4313 1309 4342 
Q 1322 4372 1381 4372 
L 3272 4372 
Q 3328 4372 3328 4288 
Q 3319 4222 3306 4184 
Q 3294 4147 3244 4147 
Q 2772 4147 2613 4116 
Q 2456 4088 2419 3928 
L 1544 416 
Q 1516 338 1516 275 
Q 1516 225 1734 225 
L 2328 225 
Q 2831 225 3143 425 
Q 3456 625 3606 876 
Q 3756 1128 3857 1398 
Q 3959 1669 4006 1678 
L 4063 1678 
Q 4128 1678 4128 1594 
L 3559 44 
Q 3550 0 3500 0 
L 300 0 
z
" transform="scale(0.015625)"/>
     </defs>
     <use xlink:href="#Cmmi10-4c" transform="translate(0 0.6875)"/>
    </g>
   </g>
  </g>
  <g id="axes_2">
   <g id="patch_12">
    <path d="M 55.431164 168.081075 
Q 82.561193 168.081075 108.237778 168.081075 
" style="fill: none; stroke: #7f7f7f; stroke-width: 1.3; stroke-linecap: round"/>
    <path d="M 103.837778 165.881075 
L 108.237778 168.081075 
L 103.837778 170.281075 
" style="fill: none; stroke: #7f7f7f; stroke-width: 1.3; stroke-linecap: round"/>
   </g>
   <g id="patch_13">
    <path d="M 145.864595 168.081075 
Q 172.994625 168.081075 198.67121 168.081075 
" style="fill: none; stroke: #7f7f7f; stroke-width: 1.3; stroke-linecap: round"/>
    <path d="M 194.27121 165.881075 
L 198.67121 168.081075 
L 194.27121 170.281075 
" style="fill: none; stroke: #7f7f7f; stroke-width: 1.3; stroke-linecap: round"/>
   </g>
   <g id="patch_14">
    <path d="M 236.298027 168.081075 
Q 263.428057 168.081075 289.104642 168.081075 
" style="fill: none; stroke: #7f7f7f; stroke-width: 1.3; stroke-linecap: round"/>
    <path d="M 284.704642 165.881075 
L 289.104642 168.081075 
L 284.704642 170.281075 
" style="fill: none; stroke: #7f7f7f; stroke-width: 1.3; stroke-linecap: round"/>
   </g>
   <g id="patch_15">
    <path d="M 37.344477 183.756203 
C 41.50157 183.756203 45.488958 182.104573 48.428467 179.165064 
C 51.367975 176.225556 53.019605 172.238168 53.019605 168.081075 
C 53.019605 163.923982 51.367975 159.936594 48.428467 156.997086 
C 45.488958 154.057577 41.50157 152.405947 37.344477 152.405947 
C 33.187385 152.405947 29.199996 154.057577 26.260488 156.997086 
C 23.320979 159.936594 21.669349 163.923982 21.669349 168.081075 
C 21.669349 172.238168 23.320979 176.225556 26.260488 179.165064 
C 29.199996 182.104573 33.187385 183.756203 37.344477 183.756203 
z
" clip-path="url(#p6d5be84a3e)" style="fill: #cfcfcf; stroke: #000000; stroke-width: 1.2; stroke-linejoin: miter"/>
   </g>
   <g id="patch_16">
    <path d="M 127.777909 183.756203 
C 131.935002 183.756203 135.92239 182.104573 138.861898 179.165064 
C 141.801407 176.225556 143.453037 172.238168 143.453037 168.081075 
C 143.453037 163.923982 141.801407 159.936594 138.861898 156.997086 
C 135.92239 154.057577 131.935002 152.405947 127.777909 152.405947 
C 123.620816 152.405947 119.633428 154.057577 116.69392 156.997086 
C 113.754411 159.936594 112.102781 163.923982 112.102781 168.081075 
C 112.102781 172.238168 113.754411 176.225556 116.69392 179.165064 
C 119.633428 182.104573 123.620816 183.756203 127.777909 183.756203 
z
" clip-path="url(#p6d5be84a3e)" style="fill: #cfcfcf; stroke: #000000; stroke-width: 1.2; stroke-linejoin: miter"/>
   </g>
   <g id="patch_17">
    <path d="M 218.211341 183.756203 
C 222.368433 183.756203 226.355822 182.104573 229.29533 179.165064 
C 232.234838 176.225556 233.886469 172.238168 233.886469 168.081075 
C 233.886469 163.923982 232.234838 159.936594 229.29533 156.997086 
C 226.355822 154.057577 222.368433 152.405947 218.211341 152.405947 
C 214.054248 152.405947 210.06686 154.057577 207.127351 156.997086 
C 204.187843 159.936594 202.536213 163.923982 202.536213 168.081075 
C 202.536213 172.238168 204.187843 176.225556 207.127351 179.165064 
C 210.06686 182.104573 214.054248 183.756203 218.211341 183.756203 
z
" clip-path="url(#p6d5be84a3e)" style="fill: #cfcfcf; stroke: #000000; stroke-width: 1.2; stroke-linejoin: miter"/>
   </g>
   <g id="patch_18">
    <path d="M 308.644772 183.756203 
C 312.801865 183.756203 316.789253 182.104573 319.728762 179.165064 
C 322.66827 176.225556 324.319901 172.238168 324.319901 168.081075 
C 324.319901 163.923982 322.66827 159.936594 319.728762 156.997086 
C 316.789253 154.057577 312.801865 152.405947 308.644772 152.405947 
C 304.48768 152.405947 300.500291 154.057577 297.560783 156.997086 
C 294.621275 159.936594 292.969644 163.923982 292.969644 168.081075 
C 292.969644 172.238168 294.621275 176.225556 297.560783 179.165064 
C 300.500291 182.104573 304.48768 183.756203 308.644772 183.756203 
z
" clip-path="url(#p6d5be84a3e)" style="fill: #cfcfcf; stroke: #000000; stroke-width: 1.2; stroke-linejoin: miter"/>
   </g>
   <g id="patch_19">
    <path d="M 126.053028 142.950304 
Q 82.560986 117.850533 40.715129 142.000502 
" style="fill: none; stroke: #ff7f0e; stroke-width: 1.7; stroke-linecap: round"/>
    <path d="M 45.625692 141.706616 
L 40.715129 142.000502 
L 43.426358 137.89572 
" style="fill: none; stroke: #ff7f0e; stroke-width: 1.7; stroke-linecap: round"/>
   </g>
   <g id="patch_20">
    <path d="M 216.48646 142.950304 
Q 172.994418 117.850533 131.14856 142.000502 
" style="fill: none; stroke: #ff7f0e; stroke-width: 1.7; stroke-linecap: round"/>
    <path d="M 136.059124 141.706616 
L 131.14856 142.000502 
L 133.859789 137.89572 
" style="fill: none; stroke: #ff7f0e; stroke-width: 1.7; stroke-linecap: round"/>
   </g>
   <g id="patch_21">
    <path d="M 306.919892 142.950304 
Q 263.42785 117.850533 221.581992 142.000502 
" style="fill: none; stroke: #ff7f0e; stroke-width: 1.7; stroke-linecap: round"/>
    <path d="M 226.492555 141.706616 
L 221.581992 142.000502 
L 224.293221 137.89572 
" style="fill: none; stroke: #ff7f0e; stroke-width: 1.7; stroke-linecap: round"/>
   </g>
   <g id="text_6">
    <!-- reverse: adjoint $\bar a = J^{\top}\bar L$ (VJP), one output at a time -->
    <g style="fill: #ff7f0e" transform="translate(31.754625 118.644132) scale(0.11 -0.11)">
     <defs>
      <path id="DejaVuSans-76" d="M 191 3500 
L 800 3500 
L 1894 563 
L 2988 3500 
L 3597 3500 
L 2284 0 
L 1503 0 
L 191 3500 
z
" transform="scale(0.015625)"/>
      <path id="DejaVuSans-73" d="M 2834 3397 
L 2834 2853 
Q 2591 2978 2328 3040 
Q 2066 3103 1784 3103 
Q 1356 3103 1142 2972 
Q 928 2841 928 2578 
Q 928 2378 1081 2264 
Q 1234 2150 1697 2047 
L 1894 2003 
Q 2506 1872 2764 1633 
Q 3022 1394 3022 966 
Q 3022 478 2636 193 
Q 2250 -91 1575 -91 
Q 1294 -91 989 -36 
Q 684 19 347 128 
L 347 722 
Q 666 556 975 473 
Q 1284 391 1588 391 
Q 1994 391 2212 530 
Q 2431 669 2431 922 
Q 2431 1156 2273 1281 
Q 2116 1406 1581 1522 
L 1381 1569 
Q 847 1681 609 1914 
Q 372 2147 372 2553 
Q 372 3047 722 3315 
Q 1072 3584 1716 3584 
Q 2034 3584 2315 3537 
Q 2597 3491 2834 3397 
z
" transform="scale(0.015625)"/>
      <path id="DejaVuSans-6a" d="M 603 3500 
L 1178 3500 
L 1178 -63 
Q 1178 -731 923 -1031 
Q 669 -1331 103 -1331 
L -116 -1331 
L -116 -844 
L 38 -844 
Q 366 -844 484 -692 
Q 603 -541 603 -63 
L 603 3500 
z
M 603 4863 
L 1178 4863 
L 1178 4134 
L 603 4134 
L 603 4863 
z
" transform="scale(0.015625)"/>
      <path id="Cmr10-b9" d="M 441 3553 
L 441 3775 
L 2753 3775 
L 2753 3553 
L 441 3553 
z
" transform="scale(0.015625)"/>
      <path id="Cmsy10-3e" d="M 2363 122 
L 2363 4006 
L 481 4006 
Q 428 4006 393 4047 
Q 359 4088 359 4134 
Q 359 4181 393 4222 
Q 428 4263 481 4263 
L 4506 4263 
Q 4553 4263 4587 4222 
Q 4622 4181 4622 4134 
Q 4622 4088 4587 4047 
Q 4553 4006 4506 4006 
L 2619 4006 
L 2619 122 
Q 2619 69 2578 34 
Q 2538 0 2491 0 
Q 2438 0 2400 34 
Q 2363 69 2363 122 
z
" transform="scale(0.015625)"/>
     </defs>
     <use xlink:href="#DejaVuSans-72" transform="translate(0 0.109375)"/>
     <use xlink:href="#DejaVuSans-65" transform="translate(41.113281 0.109375)"/>
     <use xlink:href="#DejaVuSans-76" transform="translate(102.636719 0.109375)"/>
     <use xlink:href="#DejaVuSans-65" transform="translate(161.816406 0.109375)"/>
     <use xlink:href="#DejaVuSans-72" transform="translate(223.339844 0.109375)"/>
     <use xlink:href="#DejaVuSans-73" transform="translate(264.453125 0.109375)"/>
     <use xlink:href="#DejaVuSans-65" transform="translate(316.552734 0.109375)"/>
     <use xlink:href="#DejaVuSans-3a" transform="translate(378.076172 0.109375)"/>
     <use xlink:href="#DejaVuSans-20" transform="translate(411.767578 0.109375)"/>
     <use xlink:href="#DejaVuSans-61" transform="translate(443.554688 0.109375)"/>
     <use xlink:href="#DejaVuSans-64" transform="translate(504.833984 0.109375)"/>
     <use xlink:href="#DejaVuSans-6a" transform="translate(568.310547 0.109375)"/>
     <use xlink:href="#DejaVuSans-6f" transform="translate(596.09375 0.109375)"/>
     <use xlink:href="#DejaVuSans-69" transform="translate(657.275391 0.109375)"/>
     <use xlink:href="#DejaVuSans-6e" transform="translate(685.058594 0.109375)"/>
     <use xlink:href="#DejaVuSans-74" transform="translate(748.4375 0.109375)"/>
     <use xlink:href="#DejaVuSans-20" transform="translate(787.646484 0.109375)"/>
     <use xlink:href="#Cmr10-b9" transform="translate(823.113281 1.28125)"/>
     <use xlink:href="#Cmmi10-61" transform="translate(819.433594 0.109375)"/>
     <use xlink:href="#Cmr10-3d" transform="translate(889.775391 0.109375)"/>
     <use xlink:href="#Cmmi10-4a" transform="translate(985.019531 0.109375)"/>
     <use xlink:href="#Cmsy10-3e" transform="translate(1064.1 38.373438) scale(0.7)"/>
     <use xlink:href="#Cmr10-b9" transform="translate(1150.45293 25.40625)"/>
     <use xlink:href="#Cmmi10-4c" transform="translate(1137.148242 0.109375)"/>
     <use xlink:href="#DejaVuSans-20" transform="translate(1205.16582 0.109375)"/>
     <use xlink:href="#DejaVuSans-28" transform="translate(1236.95293 0.109375)"/>
     <use xlink:href="#DejaVuSans-56" transform="translate(1275.966602 0.109375)"/>
     <use xlink:href="#DejaVuSans-4a" transform="translate(1344.374805 0.109375)"/>
     <use xlink:href="#DejaVuSans-50" transform="translate(1373.866992 0.109375)"/>
     <use xlink:href="#DejaVuSans-29" transform="translate(1434.169727 0.109375)"/>
     <use xlink:href="#DejaVuSans-2c" transform="translate(1473.183398 0.109375)"/>
     <use xlink:href="#DejaVuSans-20" transform="translate(1504.970508 0.109375)"/>
     <use xlink:href="#DejaVuSans-6f" transform="translate(1536.757617 0.109375)"/>
     <use xlink:href="#DejaVuSans-6e" transform="translate(1597.939258 0.109375)"/>
     <use xlink:href="#DejaVuSans-65" transform="translate(1661.318164 0.109375)"/>
     <use xlink:href="#DejaVuSans-20" transform="translate(1722.841602 0.109375)"/>
     <use xlink:href="#DejaVuSans-6f" transform="translate(1754.628711 0.109375)"/>
     <use xlink:href="#DejaVuSans-75" transform="translate(1815.810352 0.109375)"/>
     <use xlink:href="#DejaVuSans-74" transform="translate(1879.189258 0.109375)"/>
     <use xlink:href="#DejaVuSans-70" transform="translate(1918.398242 0.109375)"/>
     <use xlink:href="#DejaVuSans-75" transform="translate(1981.874805 0.109375)"/>
     <use xlink:href="#DejaVuSans-74" transform="translate(2045.253711 0.109375)"/>
     <use xlink:href="#DejaVuSans-20" transform="translate(2084.462695 0.109375)"/>
     <use xlink:href="#DejaVuSans-61" transform="translate(2116.249805 0.109375)"/>
     <use xlink:href="#DejaVuSans-74" transform="translate(2177.529102 0.109375)"/>
     <use xlink:href="#DejaVuSans-20" transform="translate(2216.738086 0.109375)"/>
     <use xlink:href="#DejaVuSans-61" transform="translate(2248.525195 0.109375)"/>
     <use xlink:href="#DejaVuSans-20" transform="translate(2309.804492 0.109375)"/>
     <use xlink:href="#DejaVuSans-74" transform="translate(2341.591602 0.109375)"/>
     <use xlink:href="#DejaVuSans-69" transform="translate(2380.800586 0.109375)"/>
     <use xlink:href="#DejaVuSans-6d" transform="translate(2408.583789 0.109375)"/>
     <use xlink:href="#DejaVuSans-65" transform="translate(2505.995898 0.109375)"/>
    </g>
   </g>
   <g id="text_7">
    <!-- $x$ -->
    <g transform="translate(34.154477 171.116388) scale(0.11 -0.11)">
     <use xlink:href="#Cmmi10-78" transform="translate(0 0.8125)"/>
    </g>
   </g>
   <g id="text_8">
    <!-- $a$ -->
    <g transform="translate(124.862909 171.116388) scale(0.11 -0.11)">
     <use xlink:href="#Cmmi10-61" transform="translate(0 0.8125)"/>
    </g>
   </g>
   <g id="text_9">
    <!-- $b$ -->
    <g transform="translate(215.846341 171.116388) scale(0.11 -0.11)">
     <use xlink:href="#Cmmi10-62" transform="translate(0 0.609375)"/>
    </g>
   </g>
   <g id="text_10">
    <!-- $L$ -->
    <g transform="translate(304.849772 171.116388) scale(0.11 -0.11)">
     <use xlink:href="#Cmmi10-4c" transform="translate(0 0.6875)"/>
    </g>
   </g>
  </g>
 </g>
 <defs>
  <clipPath id="pfa6b61e894">
   <rect x="7.2" y="7.2" width="331.58925" height="94.653659"/>
  </clipPath>
  <clipPath id="p6d5be84a3e">
   <rect x="7.2" y="106.586341" width="331.58925" height="94.653659"/>
  </clipPath>
 </defs>
</svg>
