<?xml version="1.0" encoding="utf-8" standalone="no"?>
<!DOCTYPE svg PUBLIC "-//W3C//DTD SVG 1.1//EN"
  "http://www.w3.org/Graphics/SVG/1.1/DTD/svg11.dtd">
<svg xmlns:xlink="http://www.w3.org/1999/xlink" width="421.212187pt" height="266.281047pt" viewBox="0 0 421.212187 266.281047" xmlns="http://www.w3.org/2000/svg" version="1.1">
 <metadata>
  <rdf:RDF xmlns:dc="http://purl.org/dc/elements/1.1/" xmlns:cc="http://creativecommons.org/ns#" xmlns:rdf="http://www.w3.org/1999/02/22-rdf-syntax-ns#">
   <cc:Work>
    <dc:type rdf:resource="http://purl.org/dc/dcmitype/StillImage"/>
    <dc:format>image/svg+xml</dc:format>
    <dc:creator>
     <cc:Agent>
      <dc:title>Matplotlib v3.10.8, https://matplotlib.org/</dc:title>
     </cc:Agent>
    </dc:creator>
   </cc:Work>
  </rdf:RDF>
 </metadata>
 <defs>
  <style type="text/css">*{stroke-linejoin: round; stroke-linecap: butt}</style>
 </defs>
 <g id="figure_1">
  <g id="patch_1">
   <path d="M 0 266.281047 
L 421.212187 266.281047 
L 421.212187 0 
L 0 0 
z
" style="fill: #ffffff"/>
  </g>
  <g id="axes_1">
   <g id="patch_2">
    <path d="M 34.572187 243.467297 
L 414.012187 243.467297 
L 414.012187 10.619297 
L 34.572187 10.619297 
z
" style="fill: #ffffff"/>
   </g>
   <g id="line2d_1">
    <path d="M 34.572188 231.824897 
L 112.232354 231.824897 
" clip-path="url(#pabdc78c487)" style="fill: none; stroke-dasharray: 0.7,1.155; stroke-dashoffset: 0; stroke: #7f7f7f; stroke-width: 0.7"/>
   </g>
   <g id="line2d_2">
    <path d="M 112.232354 243.467297 
L 112.232354 231.824897 
" clip-path="url(#pabdc78c487)" style="fill: none; stroke-dasharray: 0.7,1.155; stroke-dashoffset: 0; stroke: #7f7f7f; stroke-width: 0.7"/>
   </g>
   <g id="line2d_3">
    <path d="M 34.572188 217.854017 
L 126.221255 217.854017 
" clip-path="url(#pabdc78c487)" style="fill: none; stroke-dasharray: 0.7,1.155; stroke-dashoffset: 0; stroke: #7f7f7f; stroke-width: 0.7"/>
   </g>
   <g id="line2d_4">
    <path d="M 126.221255 243.467297 
L 126.221255 217.854017 
" clip-path="url(#pabdc78c487)" style="fill: none; stroke-dasharray: 0.7,1.155; stroke-dashoffset: 0; stroke: #7f7f7f; stroke-width: 0.7"/>
   </g>
   <g id="line2d_5">
    <path d="M 34.572188 203.883137 
L 135.511613 203.883137 
" clip-path="url(#pabdc78c487)" style="fill: none; stroke-dasharray: 0.7,1.155; stroke-dashoffset: 0; stroke: #7f7f7f; stroke-width: 0.7"/>
   </g>
   <g id="line2d_6">
    <path d="M 135.511613 243.467297 
L 135.511613 203.883137 
" clip-path="url(#pabdc78c487)" style="fill: none; stroke-dasharray: 0.7,1.155; stroke-dashoffset: 0; stroke: #7f7f7f; stroke-width: 0.7"/>
   </g>
   <g id="line2d_7">
    <path d="M 34.572188 189.912257 
L 143.007748 189.912257 
" clip-path="url(#pabdc78c487)" style="fill: none; stroke-dasharray: 0.7,1.155; stroke-dashoffset: 0; stroke: #7f7f7f; stroke-width: 0.7"/>
   </g>
   <g id="line2d_8">
    <path d="M 143.007748 243.467297 
L 143.007748 189.912257 
" clip-path="url(#pabdc78c487)" style="fill: none; stroke-dasharray: 0.7,1.155; stroke-dashoffset: 0; stroke: #7f7f7f; stroke-width: 0.7"/>
   </g>
   <g id="line2d_9">
    <path d="M 34.572188 175.941377 
L 149.61318 175.941377 
" clip-path="url(#pabdc78c487)" style="fill: none; stroke-dasharray: 0.7,1.155; stroke-dashoffset: 0; stroke: #7f7f7f; stroke-width: 0.7"/>
   </g>
   <g id="line2d_10">
    <path d="M 149.61318 243.467297 
L 149.61318 175.941377 
" clip-path="url(#pabdc78c487)" style="fill: none; stroke-dasharray: 0.7,1.155; stroke-dashoffset: 0; stroke: #7f7f7f; stroke-width: 0.7"/>
   </g>
   <g id="line2d_11">
    <path d="M 34.572188 161.970497 
L 155.762213 161.970497 
" clip-path="url(#pabdc78c487)" style="fill: none; stroke-dasharray: 0.7,1.155; stroke-dashoffset: 0; stroke: #7f7f7f; stroke-width: 0.7"/>
   </g>
   <g id="line2d_12">
    <path d="M 155.762213 243.467297 
L 155.762213 161.970497 
" clip-path="url(#pabdc78c487)" style="fill: none; stroke-dasharray: 0.7,1.155; stroke-dashoffset: 0; stroke: #7f7f7f; stroke-width: 0.7"/>
   </g>
   <g id="line2d_13">
    <path d="M 34.572188 147.999617 
L 161.726842 147.999617 
" clip-path="url(#pabdc78c487)" style="fill: none; stroke-dasharray: 0.7,1.155; stroke-dashoffset: 0; stroke: #7f7f7f; stroke-width: 0.7"/>
   </g>
   <g id="line2d_14">
    <path d="M 161.726842 243.467297 
L 161.726842 147.999617 
" clip-path="url(#pabdc78c487)" style="fill: none; stroke-dasharray: 0.7,1.155; stroke-dashoffset: 0; stroke: #7f7f7f; stroke-width: 0.7"/>
   </g>
   <g id="line2d_15">
    <path d="M 34.572188 134.028737 
L 167.726765 134.028737 
" clip-path="url(#pabdc78c487)" style="fill: none; stroke-dasharray: 0.7,1.155; stroke-dashoffset: 0; stroke: #7f7f7f; stroke-width: 0.7"/>
   </g>
   <g id="line2d_16">
    <path d="M 167.726765 243.467297 
L 167.726765 134.028737 
" clip-path="url(#pabdc78c487)" style="fill: none; stroke-dasharray: 0.7,1.155; stroke-dashoffset: 0; stroke: #7f7f7f; stroke-width: 0.7"/>
   </g>
   <g id="line2d_17">
    <path d="M 34.572188 120.057857 
L 173.990775 120.057857 
" clip-path="url(#pabdc78c487)" style="fill: none; stroke-dasharray: 0.7,1.155; stroke-dashoffset: 0; stroke: #7f7f7f; stroke-width: 0.7"/>
   </g>
   <g id="line2d_18">
    <path d="M 173.990775 243.467297 
L 173.990775 120.057857 
" clip-path="url(#pabdc78c487)" style="fill: none; stroke-dasharray: 0.7,1.155; stroke-dashoffset: 0; stroke: #7f7f7f; stroke-width: 0.7"/>
   </g>
   <g id="line2d_19">
    <path d="M 34.572188 106.086977 
L 180.826491 106.086977 
" clip-path="url(#pabdc78c487)" style="fill: none; stroke-dasharray: 0.7,1.155; stroke-dashoffset: 0; stroke: #7f7f7f; stroke-width: 0.7"/>
   </g>
   <g id="line2d_20">
    <path d="M 180.826491 243.467297 
L 180.826491 106.086977 
" clip-path="url(#pabdc78c487)" style="fill: none; stroke-dasharray: 0.7,1.155; stroke-dashoffset: 0; stroke: #7f7f7f; stroke-width: 0.7"/>
   </g>
   <g id="line2d_21">
    <path d="M 34.572188 92.116097 
L 188.76146 92.116097 
" clip-path="url(#pabdc78c487)" style="fill: none; stroke-dasharray: 0.7,1.155; stroke-dashoffset: 0; stroke: #7f7f7f; stroke-width: 0.7"/>
   </g>
   <g id="line2d_22">
    <path d="M 188.76146 243.467297 
L 188.76146 92.116097 
" clip-path="url(#pabdc78c487)" style="fill: none; stroke-dasharray: 0.7,1.155; stroke-dashoffset: 0; stroke: #7f7f7f; stroke-width: 0.7"/>
   </g>
   <g id="line2d_23">
    <path d="M 34.572188 78.145217 
L 198.994258 78.145217 
" clip-path="url(#pabdc78c487)" style="fill: none; stroke-dasharray: 0.7,1.155; stroke-dashoffset: 0; stroke: #7f7f7f; stroke-width: 0.7"/>
   </g>
   <g id="line2d_24">
    <path d="M 198.994258 243.467297 
L 198.994258 78.145217 
" clip-path="url(#pabdc78c487)" style="fill: none; stroke-dasharray: 0.7,1.155; stroke-dashoffset: 0; stroke: #7f7f7f; stroke-width: 0.7"/>
   </g>
   <g id="line2d_25">
    <path d="M 34.572188 64.174337 
L 215.905638 64.174337 
" clip-path="url(#pabdc78c487)" style="fill: none; stroke-dasharray: 0.7,1.155; stroke-dashoffset: 0; stroke: #7f7f7f; stroke-width: 0.7"/>
   </g>
   <g id="line2d_26">
    <path d="M 215.905638 243.467297 
L 215.905638 64.174337 
" clip-path="url(#pabdc78c487)" style="fill: none; stroke-dasharray: 0.7,1.155; stroke-dashoffset: 0; stroke: #7f7f7f; stroke-width: 0.7"/>
   </g>
   <g id="line2d_27">
    <path d="M 34.572188 50.203457 
L 255.196125 50.203457 
" clip-path="url(#pabdc78c487)" style="fill: none; stroke-dasharray: 0.7,1.155; stroke-dashoffset: 0; stroke: #7f7f7f; stroke-width: 0.7"/>
   </g>
   <g id="line2d_28">
    <path d="M 255.196125 243.467297 
L 255.196125 50.203457 
" clip-path="url(#pabdc78c487)" style="fill: none; stroke-dasharray: 0.7,1.155; stroke-dashoffset: 0; stroke: #7f7f7f; stroke-width: 0.7"/>
   </g>
   <g id="line2d_29">
    <path d="M 34.572188 36.232577 
L 283.257884 36.232577 
" clip-path="url(#pabdc78c487)" style="fill: none; stroke-dasharray: 0.7,1.155; stroke-dashoffset: 0; stroke: #7f7f7f; stroke-width: 0.7"/>
   </g>
   <g id="line2d_30">
    <path d="M 283.257884 243.467297 
L 283.257884 36.232577 
" clip-path="url(#pabdc78c487)" style="fill: none; stroke-dasharray: 0.7,1.155; stroke-dashoffset: 0; stroke: #7f7f7f; stroke-width: 0.7"/>
   </g>
   <g id="line2d_31">
    <path d="M 34.572188 22.261697 
L 308.541861 22.261697 
" clip-path="url(#pabdc78c487)" style="fill: none; stroke-dasharray: 0.7,1.155; stroke-dashoffset: 0; stroke: #7f7f7f; stroke-width: 0.7"/>
   </g>
   <g id="line2d_32">
    <path d="M 308.541861 243.467297 
L 308.541861 22.261697 
" clip-path="url(#pabdc78c487)" style="fill: none; stroke-dasharray: 0.7,1.155; stroke-dashoffset: 0; stroke: #7f7f7f; stroke-width: 0.7"/>
   </g>
   <g id="matplotlib.axis_1">
    <g id="text_1">
     <!-- $x$ -->
     <g transform="translate(220.812188 256.585422) scale(0.12 -0.12)">
      <defs>
       <path id="Cmmi10-78" d="M 500 184 
Q 613 97 819 97 
Q 1019 97 1172 289 
Q 1325 481 1381 709 
L 1672 1844 
Q 1741 2153 1741 2266 
Q 1741 2425 1652 2544 
Q 1563 2663 1403 2663 
Q 1200 2663 1022 2536 
Q 844 2409 722 2214 
Q 600 2019 550 1819 
Q 538 1778 500 1778 
L 422 1778 
Q 372 1778 372 1838 
L 372 1856 
Q 434 2094 584 2320 
Q 734 2547 951 2687 
Q 1169 2828 1416 2828 
Q 1650 2828 1839 2703 
Q 2028 2578 2106 2363 
Q 2216 2559 2386 2693 
Q 2556 2828 2759 2828 
Q 2897 2828 3040 2779 
Q 3184 2731 3275 2631 
Q 3366 2531 3366 2381 
Q 3366 2219 3261 2101 
Q 3156 1984 2994 1984 
Q 2891 1984 2822 2050 
Q 2753 2116 2753 2216 
Q 2753 2350 2845 2451 
Q 2938 2553 3066 2572 
Q 2950 2663 2747 2663 
Q 2541 2663 2389 2472 
Q 2238 2281 2175 2047 
L 1894 916 
Q 1825 659 1825 494 
Q 1825 331 1917 214 
Q 2009 97 2163 97 
Q 2463 97 2698 361 
Q 2934 625 3009 941 
Q 3022 978 3059 978 
L 3138 978 
Q 3163 978 3178 961 
Q 3194 944 3194 922 
Q 3194 916 3188 903 
Q 3097 522 2806 225 
Q 2516 -72 2150 -72 
Q 1916 -72 1727 54 
Q 1538 181 1459 397 
Q 1359 209 1182 68 
Q 1006 -72 806 -72 
Q 669 -72 523 -23 
Q 378 25 287 125 
Q 197 225 197 378 
Q 197 528 301 651 
Q 406 775 563 775 
Q 669 775 741 711 
Q 813 647 813 544 
Q 813 409 723 309 
Q 634 209 500 184 
z
" transform="scale(0.015625)"/>
      </defs>
      <use xlink:href="#Cmmi10-78" transform="translate(0 0.8125)"/>
     </g>
    </g>
   </g>
   <g id="matplotlib.axis_2">
    <g id="ytick_1">
     <g id="line2d_33">
      <defs>
       <path id="m5d09d475d1" d="M 0 0 
L -3.5 0 
" style="stroke: #000000; stroke-width: 0.8"/>
      </defs>
      <g>
       <use xlink:href="#m5d09d475d1" x="34.572187" y="243.467297" style="stroke: #000000; stroke-width: 0.8"/>
      </g>
     </g>
     <g id="text_2">
      <!-- 0 -->
      <g transform="translate(21.845937 246.886594) scale(0.09 -0.09)">
       <defs>
        <path id="DejaVuSans-30" d="M 2034 4250 
Q 1547 4250 1301 3770 
Q 1056 3291 1056 2328 
Q 1056 1369 1301 889 
Q 1547 409 2034 409 
Q 2525 409 2770 889 
Q 3016 1369 3016 2328 
Q 3016 3291 2770 3770 
Q 2525 4250 2034 4250 
z
M 2034 4750 
Q 2819 4750 3233 4129 
Q 3647 3509 3647 2328 
Q 3647 1150 3233 529 
Q 2819 -91 2034 -91 
Q 1250 -91 836 529 
Q 422 1150 422 2328 
Q 422 3509 836 4129 
Q 1250 4750 2034 4750 
z
" transform="scale(0.015625)"/>
       </defs>
       <use xlink:href="#DejaVuSans-30"/>
      </g>
     </g>
    </g>
    <g id="ytick_2">
     <g id="line2d_34">
      <g>
       <use xlink:href="#m5d09d475d1" x="34.572187" y="10.619297" style="stroke: #000000; stroke-width: 0.8"/>
      </g>
     </g>
     <g id="text_3">
      <!-- 1 -->
      <g transform="translate(21.845937 14.038594) scale(0.09 -0.09)">
       <defs>
        <path id="DejaVuSans-31" d="M 794 531 
L 1825 531 
L 1825 4091 
L 703 3866 
L 703 4441 
L 1819 4666 
L 2450 4666 
L 2450 531 
L 3481 531 
L 3481 0 
L 794 0 
L 794 531 
z
" transform="scale(0.015625)"/>
       </defs>
       <use xlink:href="#DejaVuSans-31"/>
      </g>
     </g>
    </g>
    <g id="text_4">
     <!-- probability level -->
     <g transform="translate(15.558281 171.214313) rotate(-90) scale(0.11 -0.11)">
      <defs>
       <path id="DejaVuSans-70" d="M 1159 525 
L 1159 -1331 
L 581 -1331 
L 581 3500 
L 1159 3500 
L 1159 2969 
Q 1341 3281 1617 3432 
Q 1894 3584 2278 3584 
Q 2916 3584 3314 3078 
Q 3713 2572 3713 1747 
Q 3713 922 3314 415 
Q 2916 -91 2278 -91 
Q 1894 -91 1617 61 
Q 1341 213 1159 525 
z
M 3116 1747 
Q 3116 2381 2855 2742 
Q 2594 3103 2138 3103 
Q 1681 3103 1420 2742 
Q 1159 2381 1159 1747 
Q 1159 1113 1420 752 
Q 1681 391 2138 391 
Q 2594 391 2855 752 
Q 3116 1113 3116 1747 
z
" transform="scale(0.015625)"/>
       <path id="DejaVuSans-72" d="M 2631 2963 
Q 2534 3019 2420 3045 
Q 2306 3072 2169 3072 
Q 1681 3072 1420 2755 
Q 1159 2438 1159 1844 
L 1159 0 
L 581 0 
L 581 3500 
L 1159 3500 
L 1159 2956 
Q 1341 3275 1631 3429 
Q 1922 3584 2338 3584 
Q 2397 3584 2469 3576 
Q 2541 3569 2628 3553 
L 2631 2963 
z
" transform="scale(0.015625)"/>
       <path id="DejaVuSans-6f" d="M 1959 3097 
Q 1497 3097 1228 2736 
Q 959 2375 959 1747 
Q 959 1119 1226 758 
Q 1494 397 1959 397 
Q 2419 397 2687 759 
Q 2956 1122 2956 1747 
Q 2956 2369 2687 2733 
Q 2419 3097 1959 3097 
z
M 1959 3584 
Q 2709 3584 3137 3096 
Q 3566 2609 3566 1747 
Q 3566 888 3137 398 
Q 2709 -91 1959 -91 
Q 1206 -91 779 398 
Q 353 888 353 1747 
Q 353 2609 779 3096 
Q 1206 3584 1959 3584 
z
" transform="scale(0.015625)"/>
       <path id="DejaVuSans-62" d="M 3116 1747 
Q 3116 2381 2855 2742 
Q 2594 3103 2138 3103 
Q 1681 3103 1420 2742 
Q 1159 2381 1159 1747 
Q 1159 1113 1420 752 
Q 1681 391 2138 391 
Q 2594 391 2855 752 
Q 3116 1113 3116 1747 
z
M 1159 2969 
Q 1341 3281 1617 3432 
Q 1894 3584 2278 3584 
Q 2916 3584 3314 3078 
Q 3713 2572 3713 1747 
Q 3713 922 3314 415 
Q 2916 -91 2278 -91 
Q 1894 -91 1617 61 
Q 1341 213 1159 525 
L 1159 0 
L 581 0 
L 581 4863 
L 1159 4863 
L 1159 2969 
z
" transform="scale(0.015625)"/>
       <path id="DejaVuSans-61" d="M 2194 1759 
Q 1497 1759 1228 1600 
Q 959 1441 959 1056 
Q 959 750 1161 570 
Q 1363 391 1709 391 
Q 2188 391 2477 730 
Q 2766 1069 2766 1631 
L 2766 1759 
L 2194 1759 
z
M 3341 1997 
L 3341 0 
L 2766 0 
L 2766 531 
Q 2569 213 2275 61 
Q 1981 -91 1556 -91 
Q 1019 -91 701 211 
Q 384 513 384 1019 
Q 384 1609 779 1909 
Q 1175 2209 1959 2209 
L 2766 2209 
L 2766 2266 
Q 2766 2663 2505 2880 
Q 2244 3097 1772 3097 
Q 1472 3097 1187 3025 
Q 903 2953 641 2809 
L 641 3341 
Q 956 3463 1253 3523 
Q 1550 3584 1831 3584 
Q 2591 3584 2966 3190 
Q 3341 2797 3341 1997 
z
" transform="scale(0.015625)"/>
       <path id="DejaVuSans-69" d="M 603 3500 
L 1178 3500 
L 1178 0 
L 603 0 
L 603 3500 
z
M 603 4863 
L 1178 4863 
L 1178 4134 
L 603 4134 
L 603 4863 
z
" transform="scale(0.015625)"/>
       <path id="DejaVuSans-6c" d="M 603 4863 
L 1178 4863 
L 1178 0 
L 603 0 
L 603 4863 
z
" transform="scale(0.015625)"/>
       <path id="DejaVuSans-74" d="M 1172 4494 
L 1172 3500 
L 2356 3500 
L 2356 3053 
L 1172 3053 
L 1172 1153 
Q 1172 725 1289 603 
Q 1406 481 1766 481 
L 2356 481 
L 2356 0 
L 1766 0 
Q 1100 0 847 248 
Q 594 497 594 1153 
L 594 3053 
L 172 3053 
L 172 3500 
L 594 3500 
L 594 4494 
L 1172 4494 
z
" transform="scale(0.015625)"/>
       <path id="DejaVuSans-79" d="M 2059 -325 
Q 1816 -950 1584 -1140 
Q 1353 -1331 966 -1331 
L 506 -1331 
L 506 -850 
L 844 -850 
Q 1081 -850 1212 -737 
Q 1344 -625 1503 -206 
L 1606 56 
L 191 3500 
L 800 3500 
L 1894 763 
L 2988 3500 
L 3597 3500 
L 2059 -325 
z
" transform="scale(0.015625)"/>
       <path id="DejaVuSans-20" transform="scale(0.015625)"/>
       <path id="DejaVuSans-65" d="M 3597 1894 
L 3597 1613 
L 953 1613 
Q 991 1019 1311 708 
Q 1631 397 2203 397 
Q 2534 397 2845 478 
Q 3156 559 3463 722 
L 3463 178 
Q 3153 47 2828 -22 
Q 2503 -91 2169 -91 
Q 1331 -91 842 396 
Q 353 884 353 1716 
Q 353 2575 817 3079 
Q 1281 3584 2069 3584 
Q 2775 3584 3186 3129 
Q 3597 2675 3597 1894 
z
M 3022 2063 
Q 3016 2534 2758 2815 
Q 2500 3097 2075 3097 
Q 1594 3097 1305 2825 
Q 1016 2553 972 2059 
L 3022 2063 
z
" transform="scale(0.015625)"/>
       <path id="DejaVuSans-76" d="M 191 3500 
L 800 3500 
L 1894 563 
L 2988 3500 
L 3597 3500 
L 2284 0 
L 1503 0 
L 191 3500 
z
" transform="scale(0.015625)"/>
      </defs>
      <use xlink:href="#DejaVuSans-70"/>
      <use xlink:href="#DejaVuSans-72" transform="translate(63.476562 0)"/>
      <use xlink:href="#DejaVuSans-6f" transform="translate(102.339844 0)"/>
      <use xlink:href="#DejaVuSans-62" transform="translate(163.521484 0)"/>
      <use xlink:href="#DejaVuSans-61" transform="translate(226.998047 0)"/>
      <use xlink:href="#DejaVuSans-62" transform="translate(288.277344 0)"/>
      <use xlink:href="#DejaVuSans-69" transform="translate(351.753906 0)"/>
      <use xlink:href="#DejaVuSans-6c" transform="translate(379.537109 0)"/>
      <use xlink:href="#DejaVuSans-69" transform="translate(407.320312 0)"/>
      <use xlink:href="#DejaVuSans-74" transform="translate(435.103516 0)"/>
      <use xlink:href="#DejaVuSans-79" transform="translate(474.3125 0)"/>
      <use xlink:href="#DejaVuSans-20" transform="translate(533.492188 0)"/>
      <use xlink:href="#DejaVuSans-6c" transform="translate(565.279297 0)"/>
      <use xlink:href="#DejaVuSans-65" transform="translate(593.0625 0)"/>
      <use xlink:href="#DejaVuSans-76" transform="translate(654.585938 0)"/>
      <use xlink:href="#DejaVuSans-65" transform="translate(713.765625 0)"/>
      <use xlink:href="#DejaVuSans-6c" transform="translate(775.289062 0)"/>
     </g>
    </g>
   </g>
   <g id="patch_3">
    <path d="M 34.572187 243.467297 
L 34.572187 10.619297 
" style="fill: none; stroke: #000000; stroke-width: 0.8; stroke-linejoin: miter; stroke-linecap: square"/>
   </g>
   <g id="patch_4">
    <path d="M 34.572188 243.467297 
L 414.012187 243.467297 
" style="fill: none; stroke: #000000; stroke-width: 0.8; stroke-linejoin: miter; stroke-linecap: square"/>
   </g>
   <g id="line2d_35">
    <path d="M 34.572188 243.466797 
L 59.910418 243.339838 
L 70.04571 243.0884 
L 77.013723 242.718316 
L 82.714825 242.205612 
L 87.782471 241.512989 
L 92.216662 240.656681 
L 96.017396 239.683951 
L 99.184675 238.668546 
L 102.351954 237.434728 
L 105.519233 235.950471 
L 108.686511 234.182752 
L 111.220334 232.542195 
L 113.754157 230.682417 
L 116.28798 228.587611 
L 118.821804 226.243171 
L 121.355627 223.636136 
L 123.88945 220.755639 
L 126.423273 217.593357 
L 129.590551 213.2364 
L 132.75783 208.428033 
L 135.925109 203.174421 
L 139.092388 197.491591 
L 142.893122 190.143305 
L 146.693857 182.279914 
L 151.128047 172.568553 
L 156.829149 159.487921 
L 171.398632 125.730054 
L 175.832822 116.14038 
L 179.633556 108.406888 
L 183.434291 101.205657 
L 186.60157 95.653442 
L 189.768849 90.533129 
L 192.936127 85.856176 
L 196.103406 81.624049 
L 199.270685 77.828967 
L 202.437964 74.454902 
L 205.605243 71.478753 
L 208.772521 68.871636 
L 211.9398 66.600205 
L 215.107079 64.627944 
L 218.274358 62.916388 
L 222.075092 61.151299 
L 225.875827 59.637479 
L 230.310017 58.10201 
L 236.644575 56.157645 
L 248.680234 52.501577 
L 254.381336 50.509745 
L 259.448982 48.510898 
L 264.516628 46.27465 
L 269.584274 43.804198 
L 275.285376 40.777657 
L 282.25339 36.818422 
L 299.990151 26.597454 
L 305.691253 23.635071 
L 310.758899 21.248414 
L 315.826545 19.129787 
L 320.260735 17.509974 
L 324.694925 16.110664 
L 329.129116 14.925337 
L 334.196762 13.815521 
L 339.264408 12.940435 
L 344.96551 12.196382 
L 351.300067 11.611907 
L 358.268081 11.191466 
L 367.136461 10.885315 
L 379.805576 10.697255 
L 403.24344 10.623542 
L 414.012187 10.619297 
L 414.012187 10.619297 
" clip-path="url(#pabdc78c487)" style="fill: none; stroke: #ff7f0e; stroke-width: 2.4; stroke-linecap: square"/>
   </g>
   <g id="patch_5">
    <path d="M 34.572188 78.145217 
Q 116.783223 78.145217 197.205404 78.145217 
" style="fill: none; stroke: #1f77b4; stroke-width: 1.6; stroke-linecap: round"/>
    <path d="M 192.405404 75.745217 
L 197.205404 78.145217 
L 192.405404 80.545217 
" style="fill: none; stroke: #1f77b4; stroke-width: 1.6; stroke-linecap: round"/>
   </g>
   <g id="patch_6">
    <path d="M 198.994258 78.145217 
Q 198.994258 159.059897 198.994258 238.185722 
" style="fill: none; stroke: #1f77b4; stroke-width: 1.6; stroke-linecap: round"/>
    <path d="M 201.394258 233.385722 
L 198.994258 238.185722 
L 196.594258 233.385722 
" style="fill: none; stroke: #1f77b4; stroke-width: 1.6; stroke-linecap: round"/>
   </g>
   <g id="text_5">
    <!-- $U$ -->
    <g style="fill: #1f77b4" transform="translate(42.477188 68.456183) scale(0.13 -0.13)">
     <defs>
      <path id="Cmmi10-55" d="M 941 891 
Q 941 656 1033 472 
Q 1125 288 1300 186 
Q 1475 84 1709 84 
Q 1984 84 2245 196 
Q 2506 309 2715 509 
Q 2925 709 3073 965 
Q 3222 1222 3284 1472 
L 3859 3781 
Q 3872 3850 3872 3878 
Q 3872 4147 3378 4147 
Q 3316 4147 3316 4231 
Q 3338 4313 3350 4342 
Q 3363 4372 3425 4372 
L 4813 4372 
Q 4841 4372 4859 4344 
Q 4878 4316 4878 4288 
Q 4878 4284 4865 4239 
Q 4853 4194 4836 4170 
Q 4819 4147 4794 4147 
Q 4181 4147 4084 3756 
L 3506 1447 
Q 3434 1147 3264 864 
Q 3094 581 2845 351 
Q 2597 122 2298 -9 
Q 2000 -141 1691 -141 
Q 1338 -141 1045 14 
Q 753 169 587 447 
Q 422 725 422 1088 
Q 422 1297 469 1472 
L 1088 3956 
Q 1100 4019 1100 4044 
Q 1100 4113 1025 4122 
Q 903 4147 563 4147 
Q 500 4147 500 4231 
Q 522 4313 534 4342 
Q 547 4372 609 4372 
L 2328 4372 
Q 2394 4372 2394 4288 
Q 2391 4272 2381 4234 
Q 2372 4197 2356 4172 
Q 2341 4147 2309 4147 
Q 1919 4147 1766 4103 
Q 1681 4072 1644 3928 
L 1025 1447 
Q 941 1109 941 891 
z
" transform="scale(0.015625)"/>
     </defs>
     <use xlink:href="#Cmmi10-55" transform="translate(0 0.6875)"/>
    </g>
   </g>
   <g id="text_6">
    <!-- $x=F^{-1}(U)$ -->
    <g style="fill: #1f77b4" transform="translate(203.737258 229.989137) scale(0.12 -0.12)">
     <defs>
      <path id="Cmr10-3d" d="M 481 850 
Q 428 850 393 890 
Q 359 931 359 978 
Q 359 1031 393 1068 
Q 428 1106 481 1106 
L 4500 1106 
Q 4547 1106 4581 1068 
Q 4616 1031 4616 978 
Q 4616 931 4581 890 
Q 4547 850 4500 850 
L 481 850 
z
M 481 2094 
Q 428 2094 393 2131 
Q 359 2169 359 2222 
Q 359 2269 393 2309 
Q 428 2350 481 2350 
L 4500 2350 
Q 4547 2350 4581 2309 
Q 4616 2269 4616 2222 
Q 4616 2169 4581 2131 
Q 4547 2094 4500 2094 
L 481 2094 
z
" transform="scale(0.015625)"/>
      <path id="Cmmi10-46" d="M 300 0 
Q 238 0 238 84 
Q 241 100 250 139 
Q 259 178 276 201 
Q 294 225 319 225 
Q 709 225 863 269 
Q 947 297 984 441 
L 1863 3956 
Q 1875 4019 1875 4044 
Q 1875 4113 1797 4122 
Q 1678 4147 1338 4147 
Q 1275 4147 1275 4231 
Q 1278 4247 1287 4286 
Q 1297 4325 1314 4348 
Q 1331 4372 1356 4372 
L 4738 4372 
Q 4800 4372 4800 4288 
L 4647 2963 
Q 4647 2944 4625 2925 
Q 4603 2906 4581 2906 
L 4525 2906 
Q 4459 2906 4459 2988 
Q 4500 3278 4500 3463 
Q 4500 3781 4362 3931 
Q 4225 4081 4015 4114 
Q 3806 4147 3438 4147 
L 2753 4147 
Q 2578 4147 2522 4117 
Q 2466 4088 2419 3928 
L 2009 2297 
L 2491 2297 
Q 2728 2297 2875 2322 
Q 3022 2347 3119 2419 
Q 3216 2491 3280 2627 
Q 3344 2763 3397 2988 
Q 3416 3047 3463 3047 
L 3519 3047 
Q 3584 3047 3584 2963 
L 3194 1381 
Q 3166 1325 3128 1325 
L 3072 1325 
Q 3009 1325 3009 1409 
Q 3025 1475 3034 1519 
Q 3044 1563 3058 1645 
Q 3072 1728 3072 1791 
Q 3072 1975 2909 2025 
Q 2747 2075 2484 2075 
L 1959 2075 
L 1544 416 
Q 1528 353 1528 353 
Q 1528 278 1575 269 
Q 1741 225 2228 225 
Q 2291 225 2291 141 
Q 2269 50 2256 25 
Q 2244 0 2181 0 
L 300 0 
z
" transform="scale(0.015625)"/>
      <path id="Cmsy10-a1" d="M 653 1472 
Q 600 1472 565 1512 
Q 531 1553 531 1600 
Q 531 1647 565 1687 
Q 600 1728 653 1728 
L 4325 1728 
Q 4375 1728 4408 1687 
Q 4441 1647 4441 1600 
Q 4441 1553 4408 1512 
Q 4375 1472 4325 1472 
L 653 1472 
z
" transform="scale(0.015625)"/>
      <path id="Cmr10-31" d="M 594 0 
L 594 225 
Q 1394 225 1394 428 
L 1394 3788 
Q 1063 3628 556 3628 
L 556 3853 
Q 1341 3853 1741 4263 
L 1831 4263 
Q 1853 4263 1873 4245 
Q 1894 4228 1894 4206 
L 1894 428 
Q 1894 225 2694 225 
L 2694 0 
L 594 0 
z
" transform="scale(0.015625)"/>
      <path id="Cmr10-28" d="M 1984 -1588 
Q 1628 -1306 1370 -942 
Q 1113 -578 948 -165 
Q 784 247 703 697 
Q 622 1147 622 1600 
Q 622 2059 703 2509 
Q 784 2959 951 3375 
Q 1119 3791 1378 4153 
Q 1638 4516 1984 4788 
Q 1984 4800 2016 4800 
L 2075 4800 
Q 2094 4800 2109 4783 
Q 2125 4766 2125 4744 
Q 2125 4716 2113 4703 
Q 1800 4397 1592 4047 
Q 1384 3697 1257 3301 
Q 1131 2906 1075 2482 
Q 1019 2059 1019 1600 
Q 1019 -434 2106 -1491 
Q 2125 -1509 2125 -1544 
Q 2125 -1559 2108 -1579 
Q 2091 -1600 2075 -1600 
L 2016 -1600 
Q 1984 -1600 1984 -1588 
z
" transform="scale(0.015625)"/>
      <path id="Cmr10-29" d="M 416 -1600 
Q 359 -1600 359 -1544 
Q 359 -1516 372 -1503 
Q 1466 -434 1466 1600 
Q 1466 3634 384 4691 
Q 359 4706 359 4744 
Q 359 4766 376 4783 
Q 394 4800 416 4800 
L 475 4800 
Q 494 4800 506 4788 
Q 966 4425 1272 3906 
Q 1578 3388 1720 2800 
Q 1863 2213 1863 1600 
Q 1863 1147 1786 708 
Q 1709 269 1542 -157 
Q 1375 -584 1119 -945 
Q 863 -1306 506 -1588 
Q 494 -1600 475 -1600 
L 416 -1600 
z
" transform="scale(0.015625)"/>
     </defs>
     <use xlink:href="#Cmmi10-78" transform="translate(0 0.109375)"/>
     <use xlink:href="#Cmr10-3d" transform="translate(74.638672 0.109375)"/>
     <use xlink:href="#Cmmi10-46" transform="translate(169.882812 0.109375)"/>
     <use xlink:href="#Cmsy10-a1" transform="translate(245.558984 38.373438) scale(0.7)"/>
     <use xlink:href="#Cmr10-31" transform="translate(299.938867 38.373438) scale(0.7)"/>
     <use xlink:href="#Cmr10-28" transform="translate(341.316211 0.109375)"/>
     <use xlink:href="#Cmmi10-55" transform="translate(380.13457 0.109375)"/>
     <use xlink:href="#Cmr10-29" transform="translate(448.347461 0.109375)"/>
    </g>
   </g>
   <g id="text_7">
    <!-- c.d.f. $F$ -->
    <g style="fill: #ff7f0e" transform="translate(363.420187 34.078349) scale(0.12 -0.12)">
     <defs>
      <path id="DejaVuSans-63" d="M 3122 3366 
L 3122 2828 
Q 2878 2963 2633 3030 
Q 2388 3097 2138 3097 
Q 1578 3097 1268 2742 
Q 959 2388 959 1747 
Q 959 1106 1268 751 
Q 1578 397 2138 397 
Q 2388 397 2633 464 
Q 2878 531 3122 666 
L 3122 134 
Q 2881 22 2623 -34 
Q 2366 -91 2075 -91 
Q 1284 -91 818 406 
Q 353 903 353 1747 
Q 353 2603 823 3093 
Q 1294 3584 2113 3584 
Q 2378 3584 2631 3529 
Q 2884 3475 3122 3366 
z
" transform="scale(0.015625)"/>
      <path id="DejaVuSans-2e" d="M 684 794 
L 1344 794 
L 1344 0 
L 684 0 
L 684 794 
z
" transform="scale(0.015625)"/>
      <path id="DejaVuSans-64" d="M 2906 2969 
L 2906 4863 
L 3481 4863 
L 3481 0 
L 2906 0 
L 2906 525 
Q 2725 213 2448 61 
Q 2172 -91 1784 -91 
Q 1150 -91 751 415 
Q 353 922 353 1747 
Q 353 2572 751 3078 
Q 1150 3584 1784 3584 
Q 2172 3584 2448 3432 
Q 2725 3281 2906 2969 
z
M 947 1747 
Q 947 1113 1208 752 
Q 1469 391 1925 391 
Q 2381 391 2643 752 
Q 2906 1113 2906 1747 
Q 2906 2381 2643 2742 
Q 2381 3103 1925 3103 
Q 1469 3103 1208 2742 
Q 947 2381 947 1747 
z
" transform="scale(0.015625)"/>
      <path id="DejaVuSans-66" d="M 2375 4863 
L 2375 4384 
L 1825 4384 
Q 1516 4384 1395 4259 
Q 1275 4134 1275 3809 
L 1275 3500 
L 2222 3500 
L 2222 3053 
L 1275 3053 
L 1275 0 
L 697 0 
L 697 3053 
L 147 3053 
L 147 3500 
L 697 3500 
L 697 3744 
Q 697 4328 969 4595 
Q 1241 4863 1831 4863 
L 2375 4863 
z
" transform="scale(0.015625)"/>
     </defs>
     <use xlink:href="#DejaVuSans-63" transform="translate(0 0.015625)"/>
     <use xlink:href="#DejaVuSans-2e" transform="translate(54.980469 0.015625)"/>
     <use xlink:href="#DejaVuSans-64" transform="translate(86.767578 0.015625)"/>
     <use xlink:href="#DejaVuSans-2e" transform="translate(150.244141 0.015625)"/>
     <use xlink:href="#DejaVuSans-66" transform="translate(182.03125 0.015625)"/>
     <use xlink:href="#DejaVuSans-2e" transform="translate(217.236328 0.015625)"/>
     <use xlink:href="#DejaVuSans-20" transform="translate(249.023438 0.015625)"/>
     <use xlink:href="#Cmmi10-46" transform="translate(280.810547 0.015625)"/>
    </g>
   </g>
   <g id="patch_7">
    <path d="M 267.990086 205.264792 
Q 213.109054 221.749385 159.405872 237.880187 
" style="fill: none; stroke: #7f7f7f; stroke-width: 1.1; stroke-linecap: round"/>
    <path d="M 163.812132 238.644954 
L 159.405872 237.880187 
L 162.661442 234.814039 
" style="fill: none; stroke: #7f7f7f; stroke-width: 1.1; stroke-linecap: round"/>
   </g>
   <g id="text_8">
    <!-- steep $F$ = high density: -->
    <g style="fill: #7f7f7f" transform="translate(252.750188 189.391831) scale(0.1 -0.1)">
     <defs>
      <path id="DejaVuSans-73" d="M 2834 3397 
L 2834 2853 
Q 2591 2978 2328 3040 
Q 2066 3103 1784 3103 
Q 1356 3103 1142 2972 
Q 928 2841 928 2578 
Q 928 2378 1081 2264 
Q 1234 2150 1697 2047 
L 1894 2003 
Q 2506 1872 2764 1633 
Q 3022 1394 3022 966 
Q 3022 478 2636 193 
Q 2250 -91 1575 -91 
Q 1294 -91 989 -36 
Q 684 19 347 128 
L 347 722 
Q 666 556 975 473 
Q 1284 391 1588 391 
Q 1994 391 2212 530 
Q 2431 669 2431 922 
Q 2431 1156 2273 1281 
Q 2116 1406 1581 1522 
L 1381 1569 
Q 847 1681 609 1914 
Q 372 2147 372 2553 
Q 372 3047 722 3315 
Q 1072 3584 1716 3584 
Q 2034 3584 2315 3537 
Q 2597 3491 2834 3397 
z
" transform="scale(0.015625)"/>
      <path id="DejaVuSans-3d" d="M 678 2906 
L 4684 2906 
L 4684 2381 
L 678 2381 
L 678 2906 
z
M 678 1631 
L 4684 1631 
L 4684 1100 
L 678 1100 
L 678 1631 
z
" transform="scale(0.015625)"/>
      <path id="DejaVuSans-68" d="M 3513 2113 
L 3513 0 
L 2938 0 
L 2938 2094 
Q 2938 2591 2744 2837 
Q 2550 3084 2163 3084 
Q 1697 3084 1428 2787 
Q 1159 2491 1159 1978 
L 1159 0 
L 581 0 
L 581 4863 
L 1159 4863 
L 1159 2956 
Q 1366 3272 1645 3428 
Q 1925 3584 2291 3584 
Q 2894 3584 3203 3211 
Q 3513 2838 3513 2113 
z
" transform="scale(0.015625)"/>
      <path id="DejaVuSans-67" d="M 2906 1791 
Q 2906 2416 2648 2759 
Q 2391 3103 1925 3103 
Q 1463 3103 1205 2759 
Q 947 2416 947 1791 
Q 947 1169 1205 825 
Q 1463 481 1925 481 
Q 2391 481 2648 825 
Q 2906 1169 2906 1791 
z
M 3481 434 
Q 3481 -459 3084 -895 
Q 2688 -1331 1869 -1331 
Q 1566 -1331 1297 -1286 
Q 1028 -1241 775 -1147 
L 775 -588 
Q 1028 -725 1275 -790 
Q 1522 -856 1778 -856 
Q 2344 -856 2625 -561 
Q 2906 -266 2906 331 
L 2906 616 
Q 2728 306 2450 153 
Q 2172 0 1784 0 
Q 1141 0 747 490 
Q 353 981 353 1791 
Q 353 2603 747 3093 
Q 1141 3584 1784 3584 
Q 2172 3584 2450 3431 
Q 2728 3278 2906 2969 
L 2906 3500 
L 3481 3500 
L 3481 434 
z
" transform="scale(0.015625)"/>
      <path id="DejaVuSans-6e" d="M 3513 2113 
L 3513 0 
L 2938 0 
L 2938 2094 
Q 2938 2591 2744 2837 
Q 2550 3084 2163 3084 
Q 1697 3084 1428 2787 
Q 1159 2491 1159 1978 
L 1159 0 
L 581 0 
L 581 3500 
L 1159 3500 
L 1159 2956 
Q 1366 3272 1645 3428 
Q 1925 3584 2291 3584 
Q 2894 3584 3203 3211 
Q 3513 2838 3513 2113 
z
" transform="scale(0.015625)"/>
      <path id="DejaVuSans-3a" d="M 750 794 
L 1409 794 
L 1409 0 
L 750 0 
L 750 794 
z
M 750 3309 
L 1409 3309 
L 1409 2516 
L 750 2516 
L 750 3309 
z
" transform="scale(0.015625)"/>
     </defs>
     <use xlink:href="#DejaVuSans-73" transform="translate(0 0.015625)"/>
     <use xlink:href="#DejaVuSans-74" transform="translate(52.099609 0.015625)"/>
     <use xlink:href="#DejaVuSans-65" transform="translate(91.308594 0.015625)"/>
     <use xlink:href="#DejaVuSans-65" transform="translate(152.832031 0.015625)"/>
     <use xlink:href="#DejaVuSans-70" transform="translate(214.355469 0.015625)"/>
     <use xlink:href="#DejaVuSans-20" transform="translate(277.832031 0.015625)"/>
     <use xlink:href="#Cmmi10-46" transform="translate(309.619141 0.015625)"/>
     <use xlink:href="#DejaVuSans-20" transform="translate(373.925781 0.015625)"/>
     <use xlink:href="#DejaVuSans-3d" transform="translate(405.712891 0.015625)"/>
     <use xlink:href="#DejaVuSans-20" transform="translate(489.501953 0.015625)"/>
     <use xlink:href="#DejaVuSans-68" transform="translate(521.289062 0.015625)"/>
     <use xlink:href="#DejaVuSans-69" transform="translate(584.667969 0.015625)"/>
     <use xlink:href="#DejaVuSans-67" transform="translate(612.451172 0.015625)"/>
     <use xlink:href="#DejaVuSans-68" transform="translate(675.927734 0.015625)"/>
     <use xlink:href="#DejaVuSans-20" transform="translate(739.306641 0.015625)"/>
     <use xlink:href="#DejaVuSans-64" transform="translate(771.09375 0.015625)"/>
     <use xlink:href="#DejaVuSans-65" transform="translate(834.570312 0.015625)"/>
     <use xlink:href="#DejaVuSans-6e" transform="translate(896.09375 0.015625)"/>
     <use xlink:href="#DejaVuSans-73" transform="translate(959.472656 0.015625)"/>
     <use xlink:href="#DejaVuSans-69" transform="translate(1011.572266 0.015625)"/>
     <use xlink:href="#DejaVuSans-74" transform="translate(1039.355469 0.015625)"/>
     <use xlink:href="#DejaVuSans-79" transform="translate(1078.564453 0.015625)"/>
     <use xlink:href="#DejaVuSans-3a" transform="translate(1137.744141 0.015625)"/>
    </g>
    <!-- samples cluster here -->
    <g style="fill: #7f7f7f" transform="translate(252.750188 200.609956) scale(0.1 -0.1)">
     <defs>
      <path id="DejaVuSans-6d" d="M 3328 2828 
Q 3544 3216 3844 3400 
Q 4144 3584 4550 3584 
Q 5097 3584 5394 3201 
Q 5691 2819 5691 2113 
L 5691 0 
L 5113 0 
L 5113 2094 
Q 5113 2597 4934 2840 
Q 4756 3084 4391 3084 
Q 3944 3084 3684 2787 
Q 3425 2491 3425 1978 
L 3425 0 
L 2847 0 
L 2847 2094 
Q 2847 2600 2669 2842 
Q 2491 3084 2119 3084 
Q 1678 3084 1418 2786 
Q 1159 2488 1159 1978 
L 1159 0 
L 581 0 
L 581 3500 
L 1159 3500 
L 1159 2956 
Q 1356 3278 1631 3431 
Q 1906 3584 2284 3584 
Q 2666 3584 2933 3390 
Q 3200 3197 3328 2828 
z
" transform="scale(0.015625)"/>
      <path id="DejaVuSans-75" d="M 544 1381 
L 544 3500 
L 1119 3500 
L 1119 1403 
Q 1119 906 1312 657 
Q 1506 409 1894 409 
Q 2359 409 2629 706 
Q 2900 1003 2900 1516 
L 2900 3500 
L 3475 3500 
L 3475 0 
L 2900 0 
L 2900 538 
Q 2691 219 2414 64 
Q 2138 -91 1772 -91 
Q 1169 -91 856 284 
Q 544 659 544 1381 
z
M 1991 3584 
L 1991 3584 
z
" transform="scale(0.015625)"/>
     </defs>
     <use xlink:href="#DejaVuSans-73"/>
     <use xlink:href="#DejaVuSans-61" transform="translate(52.099609 0)"/>
     <use xlink:href="#DejaVuSans-6d" transform="translate(113.378906 0)"/>
     <use xlink:href="#DejaVuSans-70" transform="translate(210.791016 0)"/>
     <use xlink:href="#DejaVuSans-6c" transform="translate(274.267578 0)"/>
     <use xlink:href="#DejaVuSans-65" transform="translate(302.050781 0)"/>
     <use xlink:href="#DejaVuSans-73" transform="translate(363.574219 0)"/>
     <use xlink:href="#DejaVuSans-20" transform="translate(415.673828 0)"/>
     <use xlink:href="#DejaVuSans-63" transform="translate(447.460938 0)"/>
     <use xlink:href="#DejaVuSans-6c" transform="translate(502.441406 0)"/>
     <use xlink:href="#DejaVuSans-75" transform="translate(530.224609 0)"/>
     <use xlink:href="#DejaVuSans-73" transform="translate(593.603516 0)"/>
     <use xlink:href="#DejaVuSans-74" transform="translate(645.703125 0)"/>
     <use xlink:href="#DejaVuSans-65" transform="translate(684.912109 0)"/>
     <use xlink:href="#DejaVuSans-72" transform="translate(746.435547 0)"/>
     <use xlink:href="#DejaVuSans-20" transform="translate(787.548828 0)"/>
     <use xlink:href="#DejaVuSans-68" transform="translate(819.335938 0)"/>
     <use xlink:href="#DejaVuSans-65" transform="translate(882.714844 0)"/>
     <use xlink:href="#DejaVuSans-72" transform="translate(944.238281 0)"/>
     <use xlink:href="#DejaVuSans-65" transform="translate(983.101562 0)"/>
    </g>
   </g>
   <g id="line2d_36">
    <defs>
     <path id="m0235432dae" d="M 0 2 
C 0.530406 2 1.03916 1.789267 1.414214 1.414214 
C 1.789267 1.03916 2 0.530406 2 0 
C 2 -0.530406 1.789267 -1.03916 1.414214 -1.414214 
C 1.03916 -1.789267 0.530406 -2 0 -2 
C -0.530406 -2 -1.03916 -1.789267 -1.414214 -1.414214 
C -1.789267 -1.03916 -2 -0.530406 -2 0 
C -2 0.530406 -1.789267 1.03916 -1.414214 1.414214 
C -1.03916 1.789267 -0.530406 2 0 2 
z
" style="stroke: #1f77b4"/>
    </defs>
    <g>
     <use xlink:href="#m0235432dae" x="34.572188" y="231.824897" style="fill: #1f77b4; stroke: #1f77b4"/>
     <use xlink:href="#m0235432dae" x="34.572188" y="217.854017" style="fill: #1f77b4; stroke: #1f77b4"/>
     <use xlink:href="#m0235432dae" x="34.572188" y="203.883137" style="fill: #1f77b4; stroke: #1f77b4"/>
     <use xlink:href="#m0235432dae" x="34.572188" y="189.912257" style="fill: #1f77b4; stroke: #1f77b4"/>
     <use xlink:href="#m0235432dae" x="34.572188" y="175.941377" style="fill: #1f77b4; stroke: #1f77b4"/>
     <use xlink:href="#m0235432dae" x="34.572188" y="161.970497" style="fill: #1f77b4; stroke: #1f77b4"/>
     <use xlink:href="#m0235432dae" x="34.572188" y="147.999617" style="fill: #1f77b4; stroke: #1f77b4"/>
     <use xlink:href="#m0235432dae" x="34.572188" y="134.028737" style="fill: #1f77b4; stroke: #1f77b4"/>
     <use xlink:href="#m0235432dae" x="34.572188" y="120.057857" style="fill: #1f77b4; stroke: #1f77b4"/>
     <use xlink:href="#m0235432dae" x="34.572188" y="106.086977" style="fill: #1f77b4; stroke: #1f77b4"/>
     <use xlink:href="#m0235432dae" x="34.572188" y="92.116097" style="fill: #1f77b4; stroke: #1f77b4"/>
     <use xlink:href="#m0235432dae" x="34.572188" y="78.145217" style="fill: #1f77b4; stroke: #1f77b4"/>
     <use xlink:href="#m0235432dae" x="34.572188" y="64.174337" style="fill: #1f77b4; stroke: #1f77b4"/>
     <use xlink:href="#m0235432dae" x="34.572188" y="50.203457" style="fill: #1f77b4; stroke: #1f77b4"/>
     <use xlink:href="#m0235432dae" x="34.572188" y="36.232577" style="fill: #1f77b4; stroke: #1f77b4"/>
     <use xlink:href="#m0235432dae" x="34.572188" y="22.261697" style="fill: #1f77b4; stroke: #1f77b4"/>
    </g>
   </g>
   <g id="line2d_37">
    <g>
     <use xlink:href="#m0235432dae" x="112.232354" y="243.467297" style="fill: #1f77b4; stroke: #1f77b4"/>
     <use xlink:href="#m0235432dae" x="126.221255" y="243.467297" style="fill: #1f77b4; stroke: #1f77b4"/>
     <use xlink:href="#m0235432dae" x="135.511613" y="243.467297" style="fill: #1f77b4; stroke: #1f77b4"/>
     <use xlink:href="#m0235432dae" x="143.007748" y="243.467297" style="fill: #1f77b4; stroke: #1f77b4"/>
     <use xlink:href="#m0235432dae" x="149.61318" y="243.467297" style="fill: #1f77b4; stroke: #1f77b4"/>
     <use xlink:href="#m0235432dae" x="155.762213" y="243.467297" style="fill: #1f77b4; stroke: #1f77b4"/>
     <use xlink:href="#m0235432dae" x="161.726842" y="243.467297" style="fill: #1f77b4; stroke: #1f77b4"/>
     <use xlink:href="#m0235432dae" x="167.726765" y="243.467297" style="fill: #1f77b4; stroke: #1f77b4"/>
     <use xlink:href="#m0235432dae" x="173.990775" y="243.467297" style="fill: #1f77b4; stroke: #1f77b4"/>
     <use xlink:href="#m0235432dae" x="180.826491" y="243.467297" style="fill: #1f77b4; stroke: #1f77b4"/>
     <use xlink:href="#m0235432dae" x="188.76146" y="243.467297" style="fill: #1f77b4; stroke: #1f77b4"/>
     <use xlink:href="#m0235432dae" x="198.994258" y="243.467297" style="fill: #1f77b4; stroke: #1f77b4"/>
     <use xlink:href="#m0235432dae" x="215.905638" y="243.467297" style="fill: #1f77b4; stroke: #1f77b4"/>
     <use xlink:href="#m0235432dae" x="255.196125" y="243.467297" style="fill: #1f77b4; stroke: #1f77b4"/>
     <use xlink:href="#m0235432dae" x="283.257884" y="243.467297" style="fill: #1f77b4; stroke: #1f77b4"/>
     <use xlink:href="#m0235432dae" x="308.541861" y="243.467297" style="fill: #1f77b4; stroke: #1f77b4"/>
    </g>
   </g>
  </g>
 </g>
 <defs>
  <clipPath id="pabdc78c487">
   <rect x="34.572187" y="10.619297" width="379.44" height="232.848"/>
  </clipPath>
 </defs>
</svg>
