<?xml version="1.0" encoding="utf-8" standalone="no"?>
<!DOCTYPE svg PUBLIC "-//W3C//DTD SVG 1.1//EN"
  "http://www.w3.org/Graphics/SVG/1.1/DTD/svg11.dtd">
<svg xmlns:xlink="http://www.w3.org/1999/xlink" width="527.389261pt" height="257.792727pt" viewBox="0 0 527.389261 257.792727" xmlns="http://www.w3.org/2000/svg" version="1.1">
 <metadata>
  <rdf:RDF xmlns:dc="http://purl.org/dc/elements/1.1/" xmlns:cc="http://creativecommons.org/ns#" xmlns:rdf="http://www.w3.org/1999/02/22-rdf-syntax-ns#">
   <cc:Work>
    <dc:type rdf:resource="http://purl.org/dc/dcmitype/StillImage"/>
    <dc:format>image/svg+xml</dc:format>
    <dc:creator>
     <cc:Agent>
      <dc:title>Matplotlib v3.10.8, https://matplotlib.org/</dc:title>
     </cc:Agent>
    </dc:creator>
   </cc:Work>
  </rdf:RDF>
 </metadata>
 <defs>
  <style type="text/css">*{stroke-linejoin: round; stroke-linecap: butt}</style>
 </defs>
 <g id="figure_1">
  <g id="patch_1">
   <path d="M 0 257.792727 
L 527.389261 257.792727 
L 527.389261 0 
L 0 0 
z
" style="fill: #ffffff"/>
  </g>
  <g id="axes_1">
   <g id="QuadContourSet_1">
    <path clip-path="url(#p9e7ddd142f)" style="fill: none; stroke: #cfcfcf; stroke-width: 0.9"/>
    <path d="M 235.472727 158.257584 
L 228.176339 160.037212 
L 219.837609 161.786479 
L 212.54122 163.119379 
L 203.160149 164.596804 
L 193.779078 165.855158 
L 184.398007 166.917103 
L 173.974595 167.890879 
L 163.551183 168.667336 
L 152.08543 169.313831 
L 139.577335 169.773113 
L 127.06924 169.997868 
L 114.561146 169.988096 
L 102.053051 169.743797 
L 89.544956 169.26416 
L 77.036862 168.527797 
L 66.61345 167.711944 
L 56.190037 166.696055 
L 45.766625 165.458696 
L 36.022469 164.078406 
L 27.004483 162.566101 
L 18.665753 160.948127 
L 10.327024 159.052814 
L 7.2 158.257584 
M 7.2 114.655143 
L 14.496389 112.875515 
L 22.835118 111.126248 
L 30.131507 109.793348 
L 39.512578 108.315923 
L 48.893649 107.05757 
L 58.27472 105.995624 
L 68.698132 105.021848 
L 79.121544 104.245391 
L 90.587298 103.598896 
L 103.095392 103.139614 
L 115.603487 102.91486 
L 128.111582 102.924632 
L 140.619676 103.16893 
L 153.127771 103.648567 
L 165.635866 104.38493 
L 176.059278 105.200783 
L 186.48269 106.216673 
L 196.906102 107.454031 
L 206.650258 108.834321 
L 215.668244 110.346626 
L 224.006974 111.9646 
L 232.345704 113.859914 
L 235.472727 114.655143 
L 235.472727 114.655143 
" clip-path="url(#p9e7ddd142f)" style="fill: none; stroke: #cfcfcf; stroke-width: 0.9"/>
    <path d="M 235.472727 176.486041 
L 225.049315 177.878681 
L 212.54122 179.324238 
L 200.033126 180.54709 
L 187.525031 181.562774 
L 173.974595 182.445823 
L 160.424159 183.11706 
L 145.831382 183.611593 
L 131.238605 183.879128 
L 116.645828 183.918864 
L 102.053051 183.7332 
L 87.460274 183.319738 
L 72.867497 182.675612 
L 58.27472 181.78821 
L 44.724284 180.731981 
L 31.173848 179.434828 
L 18.665753 178.007671 
L 7.2 176.486041 
M 7.2 96.426686 
L 17.623412 95.034046 
L 30.131507 93.588489 
L 42.639601 92.365638 
L 55.147696 91.349954 
L 68.698132 90.466904 
L 82.248568 89.795667 
L 96.841345 89.301134 
L 111.434122 89.0336 
L 126.026899 88.993864 
L 140.619676 89.179527 
L 155.212453 89.592989 
L 169.80523 90.237115 
L 184.398007 91.124517 
L 197.948443 92.180746 
L 211.498879 93.477899 
L 224.006974 94.905057 
L 235.472727 96.426686 
L 235.472727 96.426686 
" clip-path="url(#p9e7ddd142f)" style="fill: none; stroke: #cfcfcf; stroke-width: 0.9"/>
    <path d="M 235.472727 188.697401 
L 221.248469 190.136936 
L 206.287173 191.408338 
L 190.652055 192.494694 
L 175.016936 193.347291 
L 159.381818 193.972696 
L 143.7467 194.383491 
L 128.111582 194.57893 
L 112.476463 194.56497 
L 96.841345 194.341611 
L 81.206227 193.901627 
L 65.571108 193.247496 
L 49.93599 192.364401 
L 35.343213 191.327704 
L 21.424258 190.136936 
L 7.2 188.697401 
M 7.2 84.215326 
L 21.424258 82.775791 
L 36.385554 81.504389 
L 52.020672 80.418034 
L 67.655791 79.565436 
L 83.290909 78.940031 
L 98.926027 78.529236 
L 114.561146 78.333797 
L 130.196264 78.347757 
L 145.831382 78.571116 
L 161.466501 79.0111 
L 177.101619 79.665232 
L 192.736737 80.548326 
L 207.329514 81.585023 
L 221.248469 82.775791 
L 235.472727 84.215326 
L 235.472727 84.215326 
" clip-path="url(#p9e7ddd142f)" style="fill: none; stroke: #cfcfcf; stroke-width: 0.9"/>
    <path d="M 235.472727 198.554823 
L 219.837609 199.877811 
L 203.160149 201.052207 
L 186.48269 201.994088 
L 169.80523 202.714354 
L 152.08543 203.240411 
L 134.365629 203.531126 
L 116.645828 203.586501 
L 98.926027 203.406534 
L 81.206227 202.991226 
L 64.528767 202.381244 
L 47.851308 201.553203 
L 31.173848 200.496381 
L 14.496389 199.199337 
L 7.2 198.554823 
M 7.2 74.357904 
L 22.835118 73.034916 
L 39.512578 71.86052 
L 56.190037 70.918639 
L 72.867497 70.198373 
L 90.587298 69.672316 
L 108.307098 69.381601 
L 126.026899 69.326226 
L 143.7467 69.506193 
L 161.466501 69.921501 
L 178.14396 70.531483 
L 194.82142 71.359524 
L 211.498879 72.416346 
L 228.176339 73.71339 
L 235.472727 74.357904 
L 235.472727 74.357904 
" clip-path="url(#p9e7ddd142f)" style="fill: none; stroke: #cfcfcf; stroke-width: 0.9"/>
    <path d="M 235.472727 207.046867 
L 218.795268 208.285244 
L 201.075467 209.369858 
L 183.355666 210.226462 
L 165.635866 210.862877 
L 147.916065 211.28294 
L 129.153923 211.497923 
L 110.391781 211.478379 
L 91.629639 211.224309 
L 73.909838 210.765983 
L 56.190037 210.092132 
L 38.470237 209.195638 
L 21.792777 208.142488 
L 7.2 207.046867 
M 7.2 65.86586 
L 23.87746 64.627484 
L 41.59726 63.54287 
L 59.317061 62.686266 
L 77.036862 62.04985 
L 94.756663 61.629787 
L 113.518804 61.414804 
L 132.280946 61.434348 
L 151.043088 61.688419 
L 168.762889 62.146744 
L 186.48269 62.820595 
L 204.202491 63.717089 
L 220.87995 64.770239 
L 235.472727 65.86586 
L 235.472727 65.86586 
" clip-path="url(#p9e7ddd142f)" style="fill: none; stroke: #cfcfcf; stroke-width: 0.9"/>
    <path d="M 235.472727 214.621884 
L 217.752927 215.806308 
L 200.033126 216.777896 
L 181.270984 217.583589 
L 162.508842 218.166899 
L 143.7467 218.530514 
L 124.984558 218.678948 
L 106.222416 218.613637 
L 87.460274 218.33458 
L 68.698132 217.836157 
L 49.93599 217.119026 
L 31.173848 216.174556 
L 12.411706 214.993652 
L 7.2 214.621884 
M 7.2 58.290844 
L 24.919801 57.106419 
L 42.639601 56.134831 
L 61.401743 55.329138 
L 80.163885 54.745828 
L 98.926027 54.382214 
L 117.688169 54.233779 
L 136.450311 54.29909 
L 155.212453 54.578148 
L 173.974595 55.076571 
L 192.736737 55.793701 
L 211.498879 56.738171 
L 230.261021 57.919075 
L 235.472727 58.290844 
L 235.472727 58.290844 
" clip-path="url(#p9e7ddd142f)" style="fill: none; stroke: #cfcfcf; stroke-width: 0.9"/>
    <path d="M 235.472727 221.526467 
L 216.710585 222.673489 
L 196.906102 223.649879 
L 177.101619 224.392547 
L 157.297136 224.9068 
L 137.492653 225.198042 
L 117.688169 225.267941 
L 97.883686 225.116495 
L 78.079203 224.743704 
L 58.27472 224.144991 
L 38.470237 223.317731 
L 18.665753 222.253564 
L 7.2 221.526467 
M 7.2 51.38626 
L 25.962142 50.239238 
L 45.766625 49.262848 
L 65.571108 48.52018 
L 85.375592 48.005927 
L 105.180075 47.714685 
L 124.984558 47.644787 
L 144.789041 47.796233 
L 164.593524 48.169023 
L 184.398007 48.767736 
L 204.202491 49.594996 
L 224.006974 50.659164 
L 235.472727 51.38626 
L 235.472727 51.38626 
" clip-path="url(#p9e7ddd142f)" style="fill: none; stroke: #cfcfcf; stroke-width: 0.9"/>
    <path d="M 235.472727 227.909892 
L 215.668244 229.031421 
L 195.863761 229.930562 
L 175.016936 230.642828 
L 155.212453 231.101453 
L 134.365629 231.359174 
L 113.518804 231.38781 
L 92.67198 231.18736 
L 71.825156 230.757486 
L 50.978331 230.091545 
L 31.173848 229.238718 
L 11.369365 228.164555 
L 7.2 227.909892 
M 7.2 45.002835 
L 27.004483 43.881306 
L 46.808966 42.982166 
L 67.655791 42.269899 
L 87.460274 41.811275 
L 108.307098 41.553553 
L 129.153923 41.524917 
L 150.000747 41.725367 
L 170.847572 42.155242 
L 191.694396 42.821182 
L 211.498879 43.674009 
L 231.303362 44.748172 
L 235.472727 45.002835 
L 235.472727 45.002835 
" clip-path="url(#p9e7ddd142f)" style="fill: none; stroke: #cfcfcf; stroke-width: 0.9"/>
    <path d="M 235.472727 233.877201 
L 215.668244 234.931036 
L 195.863761 235.775612 
L 175.016936 236.445699 
L 154.170112 236.896294 
L 133.323288 237.128834 
L 112.476463 237.144952 
L 91.629639 236.945154 
L 70.782814 236.527132 
L 49.93599 235.890818 
L 29.089166 235.029515 
L 9.284682 233.997919 
L 7.2 233.877201 
M 7.2 39.035526 
L 27.004483 37.981691 
L 46.808966 37.137115 
L 67.655791 36.467028 
L 88.502615 36.016433 
L 109.34944 35.783893 
L 130.196264 35.767775 
L 151.043088 35.967573 
L 171.889913 36.385596 
L 192.736737 37.021909 
L 213.583562 37.883212 
L 233.388045 38.914808 
L 235.472727 39.035526 
L 235.472727 39.035526 
" clip-path="url(#p9e7ddd142f)" style="fill: none; stroke: #cfcfcf; stroke-width: 0.9"/>
    <path d="M 235.472727 239.497721 
L 214.625903 240.541567 
L 193.779078 241.368658 
L 171.889913 242.007995 
L 150.000747 242.418146 
L 128.111582 242.600556 
L 106.222416 242.557636 
L 84.33325 242.289386 
L 63.486426 241.820167 
L 41.59726 241.10391 
L 19.708095 240.151554 
L 7.2 239.497721 
M 7.2 33.415006 
L 28.046824 32.37116 
L 48.893649 31.544069 
L 70.782814 30.904732 
L 92.67198 30.494581 
L 114.561146 30.312171 
L 136.450311 30.355091 
L 158.339477 30.623341 
L 179.186301 31.09256 
L 201.075467 31.808817 
L 222.964633 32.761174 
L 235.472727 33.415006 
L 235.472727 33.415006 
" clip-path="url(#p9e7ddd142f)" style="fill: none; stroke: #cfcfcf; stroke-width: 0.9"/>
    <path d="M 235.472727 244.828004 
L 213.583562 245.865188 
L 191.694396 246.67581 
L 169.80523 247.26434 
L 147.916065 247.634451 
L 126.026899 247.787879 
L 104.137733 247.726508 
L 82.248568 247.450191 
L 60.359402 246.954587 
L 38.470237 246.240431 
L 16.581071 245.301567 
L 7.2 244.828004 
M 7.2 28.084724 
L 29.089166 27.047539 
L 50.978331 26.236917 
L 72.867497 25.648388 
L 94.756663 25.278277 
L 116.645828 25.124848 
L 138.534994 25.186219 
L 160.424159 25.462536 
L 182.313325 25.95814 
L 204.202491 26.672296 
L 226.091656 27.61116 
L 235.472727 28.084724 
L 235.472727 28.084724 
" clip-path="url(#p9e7ddd142f)" style="fill: none; stroke: #cfcfcf; stroke-width: 0.9"/>
    <path d="M 21.753277 250.592727 
L 20.750436 250.548565 
L 19.708095 250.502186 
L 18.665753 250.455329 
L 17.623412 250.407993 
L 16.581071 250.360179 
L 15.53873 250.311887 
L 14.496389 250.263117 
L 13.454047 250.213869 
L 12.411706 250.164142 
L 11.369365 250.113938 
L 10.327024 250.063255 
L 9.284682 250.012094 
L 8.242341 249.960456 
L 7.2 249.908338 
M 235.472727 249.908338 
L 234.430386 249.960456 
L 233.388045 250.012094 
L 232.345704 250.063255 
L 231.303362 250.113938 
L 230.261021 250.164142 
L 229.21868 250.213869 
L 228.176339 250.263117 
L 227.133998 250.311887 
L 226.091656 250.360179 
L 225.049315 250.407993 
L 224.006974 250.455329 
L 222.964633 250.502186 
L 221.922291 250.548565 
L 220.91945 250.592727 
M 7.2 23.004389 
L 8.242341 22.952272 
L 9.284682 22.900633 
L 10.327024 22.849472 
L 11.369365 22.798789 
L 12.411706 22.748585 
L 13.454047 22.698859 
L 14.496389 22.64961 
L 15.53873 22.60084 
L 16.581071 22.552548 
L 17.623412 22.504734 
L 18.665753 22.457399 
L 19.708095 22.410541 
L 20.750436 22.364162 
L 21.753277 22.32 
M 220.91945 22.32 
L 221.922291 22.364162 
L 222.964633 22.410541 
L 224.006974 22.457399 
L 225.049315 22.504734 
L 226.091656 22.552548 
L 227.133998 22.60084 
L 228.176339 22.64961 
L 229.21868 22.698859 
L 230.261021 22.748585 
L 231.303362 22.798789 
L 232.345704 22.849472 
L 233.388045 22.900633 
L 234.430386 22.952272 
L 235.472727 23.004389 
" clip-path="url(#p9e7ddd142f)" style="fill: none; stroke: #cfcfcf; stroke-width: 0.9"/>
    <path clip-path="url(#p9e7ddd142f)" style="fill: none; stroke: #cfcfcf; stroke-width: 0.9"/>
   </g>
   <g id="text_1">
    <!-- (a) one global $\eta$: zig-zag -->
    <g transform="translate(49.456364 16.32) scale(0.12 -0.12)">
     <defs>
      <path id="DejaVuSans-28" d="M 1984 4856 
Q 1566 4138 1362 3434 
Q 1159 2731 1159 2009 
Q 1159 1288 1364 580 
Q 1569 -128 1984 -844 
L 1484 -844 
Q 1016 -109 783 600 
Q 550 1309 550 2009 
Q 550 2706 781 3412 
Q 1013 4119 1484 4856 
L 1984 4856 
z
" transform="scale(0.015625)"/>
      <path id="DejaVuSans-61" d="M 2194 1759 
Q 1497 1759 1228 1600 
Q 959 1441 959 1056 
Q 959 750 1161 570 
Q 1363 391 1709 391 
Q 2188 391 2477 730 
Q 2766 1069 2766 1631 
L 2766 1759 
L 2194 1759 
z
M 3341 1997 
L 3341 0 
L 2766 0 
L 2766 531 
Q 2569 213 2275 61 
Q 1981 -91 1556 -91 
Q 1019 -91 701 211 
Q 384 513 384 1019 
Q 384 1609 779 1909 
Q 1175 2209 1959 2209 
L 2766 2209 
L 2766 2266 
Q 2766 2663 2505 2880 
Q 2244 3097 1772 3097 
Q 1472 3097 1187 3025 
Q 903 2953 641 2809 
L 641 3341 
Q 956 3463 1253 3523 
Q 1550 3584 1831 3584 
Q 2591 3584 2966 3190 
Q 3341 2797 3341 1997 
z
" transform="scale(0.015625)"/>
      <path id="DejaVuSans-29" d="M 513 4856 
L 1013 4856 
Q 1481 4119 1714 3412 
Q 1947 2706 1947 2009 
Q 1947 1309 1714 600 
Q 1481 -109 1013 -844 
L 513 -844 
Q 928 -128 1133 580 
Q 1338 1288 1338 2009 
Q 1338 2731 1133 3434 
Q 928 4138 513 4856 
z
" transform="scale(0.015625)"/>
      <path id="DejaVuSans-20" transform="scale(0.015625)"/>
      <path id="DejaVuSans-6f" d="M 1959 3097 
Q 1497 3097 1228 2736 
Q 959 2375 959 1747 
Q 959 1119 1226 758 
Q 1494 397 1959 397 
Q 2419 397 2687 759 
Q 2956 1122 2956 1747 
Q 2956 2369 2687 2733 
Q 2419 3097 1959 3097 
z
M 1959 3584 
Q 2709 3584 3137 3096 
Q 3566 2609 3566 1747 
Q 3566 888 3137 398 
Q 2709 -91 1959 -91 
Q 1206 -91 779 398 
Q 353 888 353 1747 
Q 353 2609 779 3096 
Q 1206 3584 1959 3584 
z
" transform="scale(0.015625)"/>
      <path id="DejaVuSans-6e" d="M 3513 2113 
L 3513 0 
L 2938 0 
L 2938 2094 
Q 2938 2591 2744 2837 
Q 2550 3084 2163 3084 
Q 1697 3084 1428 2787 
Q 1159 2491 1159 1978 
L 1159 0 
L 581 0 
L 581 3500 
L 1159 3500 
L 1159 2956 
Q 1366 3272 1645 3428 
Q 1925 3584 2291 3584 
Q 2894 3584 3203 3211 
Q 3513 2838 3513 2113 
z
" transform="scale(0.015625)"/>
      <path id="DejaVuSans-65" d="M 3597 1894 
L 3597 1613 
L 953 1613 
Q 991 1019 1311 708 
Q 1631 397 2203 397 
Q 2534 397 2845 478 
Q 3156 559 3463 722 
L 3463 178 
Q 3153 47 2828 -22 
Q 2503 -91 2169 -91 
Q 1331 -91 842 396 
Q 353 884 353 1716 
Q 353 2575 817 3079 
Q 1281 3584 2069 3584 
Q 2775 3584 3186 3129 
Q 3597 2675 3597 1894 
z
M 3022 2063 
Q 3016 2534 2758 2815 
Q 2500 3097 2075 3097 
Q 1594 3097 1305 2825 
Q 1016 2553 972 2059 
L 3022 2063 
z
" transform="scale(0.015625)"/>
      <path id="DejaVuSans-67" d="M 2906 1791 
Q 2906 2416 2648 2759 
Q 2391 3103 1925 3103 
Q 1463 3103 1205 2759 
Q 947 2416 947 1791 
Q 947 1169 1205 825 
Q 1463 481 1925 481 
Q 2391 481 2648 825 
Q 2906 1169 2906 1791 
z
M 3481 434 
Q 3481 -459 3084 -895 
Q 2688 -1331 1869 -1331 
Q 1566 -1331 1297 -1286 
Q 1028 -1241 775 -1147 
L 775 -588 
Q 1028 -725 1275 -790 
Q 1522 -856 1778 -856 
Q 2344 -856 2625 -561 
Q 2906 -266 2906 331 
L 2906 616 
Q 2728 306 2450 153 
Q 2172 0 1784 0 
Q 1141 0 747 490 
Q 353 981 353 1791 
Q 353 2603 747 3093 
Q 1141 3584 1784 3584 
Q 2172 3584 2450 3431 
Q 2728 3278 2906 2969 
L 2906 3500 
L 3481 3500 
L 3481 434 
z
" transform="scale(0.015625)"/>
      <path id="DejaVuSans-6c" d="M 603 4863 
L 1178 4863 
L 1178 0 
L 603 0 
L 603 4863 
z
" transform="scale(0.015625)"/>
      <path id="DejaVuSans-62" d="M 3116 1747 
Q 3116 2381 2855 2742 
Q 2594 3103 2138 3103 
Q 1681 3103 1420 2742 
Q 1159 2381 1159 1747 
Q 1159 1113 1420 752 
Q 1681 391 2138 391 
Q 2594 391 2855 752 
Q 3116 1113 3116 1747 
z
M 1159 2969 
Q 1341 3281 1617 3432 
Q 1894 3584 2278 3584 
Q 2916 3584 3314 3078 
Q 3713 2572 3713 1747 
Q 3713 922 3314 415 
Q 2916 -91 2278 -91 
Q 1894 -91 1617 61 
Q 1341 213 1159 525 
L 1159 0 
L 581 0 
L 581 4863 
L 1159 4863 
L 1159 2969 
z
" transform="scale(0.015625)"/>
      <path id="Cmmi10-b4" d="M 684 -72 
Q 606 -72 550 -22 
Q 494 28 494 109 
Q 494 147 500 166 
L 978 2075 
Q 1025 2253 1025 2388 
Q 1025 2663 838 2663 
Q 638 2663 541 2423 
Q 444 2184 353 1819 
Q 353 1800 334 1789 
Q 316 1778 300 1778 
L 225 1778 
Q 203 1778 187 1801 
Q 172 1825 172 1844 
Q 241 2122 305 2315 
Q 369 2509 505 2668 
Q 641 2828 844 2828 
Q 1081 2828 1267 2678 
Q 1453 2528 1453 2291 
Q 1641 2541 1894 2684 
Q 2147 2828 2444 2828 
Q 2778 2828 2979 2648 
Q 3181 2469 3181 2138 
Q 3181 1947 3138 1784 
L 2394 -1178 
Q 2375 -1269 2300 -1325 
Q 2225 -1381 2131 -1381 
Q 2053 -1381 1997 -1332 
Q 1941 -1284 1941 -1203 
Q 1941 -1166 1947 -1153 
L 2681 1797 
Q 2747 2059 2747 2234 
Q 2747 2413 2672 2538 
Q 2597 2663 2431 2663 
Q 1803 2663 1388 1888 
L 953 141 
Q 931 53 854 -9 
Q 778 -72 684 -72 
z
" transform="scale(0.015625)"/>
      <path id="DejaVuSans-3a" d="M 750 794 
L 1409 794 
L 1409 0 
L 750 0 
L 750 794 
z
M 750 3309 
L 1409 3309 
L 1409 2516 
L 750 2516 
L 750 3309 
z
" transform="scale(0.015625)"/>
      <path id="DejaVuSans-7a" d="M 353 3500 
L 3084 3500 
L 3084 2975 
L 922 459 
L 3084 459 
L 3084 0 
L 275 0 
L 275 525 
L 2438 3041 
L 353 3041 
L 353 3500 
z
" transform="scale(0.015625)"/>
      <path id="DejaVuSans-69" d="M 603 3500 
L 1178 3500 
L 1178 0 
L 603 0 
L 603 3500 
z
M 603 4863 
L 1178 4863 
L 1178 4134 
L 603 4134 
L 603 4863 
z
" transform="scale(0.015625)"/>
      <path id="DejaVuSans-2d" d="M 313 2009 
L 1997 2009 
L 1997 1497 
L 313 1497 
L 313 2009 
z
" transform="scale(0.015625)"/>
     </defs>
     <use xlink:href="#DejaVuSans-28" transform="translate(0 0.015625)"/>
     <use xlink:href="#DejaVuSans-61" transform="translate(39.013672 0.015625)"/>
     <use xlink:href="#DejaVuSans-29" transform="translate(100.292969 0.015625)"/>
     <use xlink:href="#DejaVuSans-20" transform="translate(139.306641 0.015625)"/>
     <use xlink:href="#DejaVuSans-6f" transform="translate(171.09375 0.015625)"/>
     <use xlink:href="#DejaVuSans-6e" transform="translate(232.275391 0.015625)"/>
     <use xlink:href="#DejaVuSans-65" transform="translate(295.654297 0.015625)"/>
     <use xlink:href="#DejaVuSans-20" transform="translate(357.177734 0.015625)"/>
     <use xlink:href="#DejaVuSans-67" transform="translate(388.964844 0.015625)"/>
     <use xlink:href="#DejaVuSans-6c" transform="translate(452.441406 0.015625)"/>
     <use xlink:href="#DejaVuSans-6f" transform="translate(480.224609 0.015625)"/>
     <use xlink:href="#DejaVuSans-62" transform="translate(541.40625 0.015625)"/>
     <use xlink:href="#DejaVuSans-61" transform="translate(604.882812 0.015625)"/>
     <use xlink:href="#DejaVuSans-6c" transform="translate(666.162109 0.015625)"/>
     <use xlink:href="#DejaVuSans-20" transform="translate(693.945312 0.015625)"/>
     <use xlink:href="#Cmmi10-b4" transform="translate(725.732422 0.015625)"/>
     <use xlink:href="#DejaVuSans-3a" transform="translate(775.341797 0.015625)"/>
     <use xlink:href="#DejaVuSans-20" transform="translate(809.033203 0.015625)"/>
     <use xlink:href="#DejaVuSans-7a" transform="translate(840.820312 0.015625)"/>
     <use xlink:href="#DejaVuSans-69" transform="translate(893.310547 0.015625)"/>
     <use xlink:href="#DejaVuSans-67" transform="translate(921.09375 0.015625)"/>
     <use xlink:href="#DejaVuSans-2d" transform="translate(984.570312 0.015625)"/>
     <use xlink:href="#DejaVuSans-7a" transform="translate(1020.654297 0.015625)"/>
     <use xlink:href="#DejaVuSans-61" transform="translate(1073.144531 0.015625)"/>
     <use xlink:href="#DejaVuSans-67" transform="translate(1134.423828 0.015625)"/>
    </g>
   </g>
   <g id="line2d_1">
    <path d="M 27.341711 69.317326 
L 36.459193 199.567059 
L 44.692278 77.13231 
L 52.126754 192.220974 
L 58.840087 84.03763 
L 64.902225 185.729973 
L 70.376337 90.139171 
L 75.319459 179.994525 
L 79.783099 95.530492 
L 83.813766 174.926683 
L 87.453458 100.294263 
L 90.7401 170.448738 
L 93.707937 104.503532 
L 96.387895 166.492026 
L 98.807896 108.222841 
L 100.993157 162.995875 
L 102.966448 111.509223 
L 104.74833 159.906675 
L 106.357369 114.413071 
L 107.810332 157.177059 
L 109.122357 116.97891 
L 110.307116 154.76517 
L 111.376953 119.246085 
L 112.343016 152.634025 
L 113.21537 121.249362 
L 114.003107 150.750945 
L 114.714433 123.019457 
" clip-path="url(#p9e7ddd142f)" style="fill: none; stroke: #ff7f0e; stroke-width: 1.6; stroke-linecap: square"/>
    <defs>
     <path id="mf1fae3c340" d="M 0 1.75 
C 0.464105 1.75 0.909265 1.565609 1.237437 1.237437 
C 1.565609 0.909265 1.75 0.464105 1.75 0 
C 1.75 -0.464105 1.565609 -0.909265 1.237437 -1.237437 
C 0.909265 -1.565609 0.464105 -1.75 0 -1.75 
C -0.464105 -1.75 -0.909265 -1.565609 -1.237437 -1.237437 
C -1.565609 -0.909265 -1.75 -0.464105 -1.75 0 
C -1.75 0.464105 -1.565609 0.909265 -1.237437 1.237437 
C -0.909265 1.565609 -0.464105 1.75 0 1.75 
z
" style="stroke: #ff7f0e"/>
    </defs>
    <g clip-path="url(#p9e7ddd142f)">
     <use xlink:href="#mf1fae3c340" x="27.341711" y="69.317326" style="fill: #ff7f0e; stroke: #ff7f0e"/>
     <use xlink:href="#mf1fae3c340" x="36.459193" y="199.567059" style="fill: #ff7f0e; stroke: #ff7f0e"/>
     <use xlink:href="#mf1fae3c340" x="44.692278" y="77.13231" style="fill: #ff7f0e; stroke: #ff7f0e"/>
     <use xlink:href="#mf1fae3c340" x="52.126754" y="192.220974" style="fill: #ff7f0e; stroke: #ff7f0e"/>
     <use xlink:href="#mf1fae3c340" x="58.840087" y="84.03763" style="fill: #ff7f0e; stroke: #ff7f0e"/>
     <use xlink:href="#mf1fae3c340" x="64.902225" y="185.729973" style="fill: #ff7f0e; stroke: #ff7f0e"/>
     <use xlink:href="#mf1fae3c340" x="70.376337" y="90.139171" style="fill: #ff7f0e; stroke: #ff7f0e"/>
     <use xlink:href="#mf1fae3c340" x="75.319459" y="179.994525" style="fill: #ff7f0e; stroke: #ff7f0e"/>
     <use xlink:href="#mf1fae3c340" x="79.783099" y="95.530492" style="fill: #ff7f0e; stroke: #ff7f0e"/>
     <use xlink:href="#mf1fae3c340" x="83.813766" y="174.926683" style="fill: #ff7f0e; stroke: #ff7f0e"/>
     <use xlink:href="#mf1fae3c340" x="87.453458" y="100.294263" style="fill: #ff7f0e; stroke: #ff7f0e"/>
     <use xlink:href="#mf1fae3c340" x="90.7401" y="170.448738" style="fill: #ff7f0e; stroke: #ff7f0e"/>
     <use xlink:href="#mf1fae3c340" x="93.707937" y="104.503532" style="fill: #ff7f0e; stroke: #ff7f0e"/>
     <use xlink:href="#mf1fae3c340" x="96.387895" y="166.492026" style="fill: #ff7f0e; stroke: #ff7f0e"/>
     <use xlink:href="#mf1fae3c340" x="98.807896" y="108.222841" style="fill: #ff7f0e; stroke: #ff7f0e"/>
     <use xlink:href="#mf1fae3c340" x="100.993157" y="162.995875" style="fill: #ff7f0e; stroke: #ff7f0e"/>
     <use xlink:href="#mf1fae3c340" x="102.966448" y="111.509223" style="fill: #ff7f0e; stroke: #ff7f0e"/>
     <use xlink:href="#mf1fae3c340" x="104.74833" y="159.906675" style="fill: #ff7f0e; stroke: #ff7f0e"/>
     <use xlink:href="#mf1fae3c340" x="106.357369" y="114.413071" style="fill: #ff7f0e; stroke: #ff7f0e"/>
     <use xlink:href="#mf1fae3c340" x="107.810332" y="157.177059" style="fill: #ff7f0e; stroke: #ff7f0e"/>
     <use xlink:href="#mf1fae3c340" x="109.122357" y="116.97891" style="fill: #ff7f0e; stroke: #ff7f0e"/>
     <use xlink:href="#mf1fae3c340" x="110.307116" y="154.76517" style="fill: #ff7f0e; stroke: #ff7f0e"/>
     <use xlink:href="#mf1fae3c340" x="111.376953" y="119.246085" style="fill: #ff7f0e; stroke: #ff7f0e"/>
     <use xlink:href="#mf1fae3c340" x="112.343016" y="152.634025" style="fill: #ff7f0e; stroke: #ff7f0e"/>
     <use xlink:href="#mf1fae3c340" x="113.21537" y="121.249362" style="fill: #ff7f0e; stroke: #ff7f0e"/>
     <use xlink:href="#mf1fae3c340" x="114.003107" y="150.750945" style="fill: #ff7f0e; stroke: #ff7f0e"/>
     <use xlink:href="#mf1fae3c340" x="114.714433" y="123.019457" style="fill: #ff7f0e; stroke: #ff7f0e"/>
    </g>
   </g>
   <g id="line2d_2">
    <defs>
     <path id="m71e938d9f7" d="M 0 -6.5 
L -1.459341 -2.00861 
L -6.181867 -2.00861 
L -2.361263 0.767221 
L -3.820604 5.25861 
L -0 2.482779 
L 3.820604 5.25861 
L 2.361263 0.767221 
L 6.181867 -2.00861 
L 1.459341 -2.00861 
z
" style="stroke: #2ca02c; stroke-linejoin: bevel"/>
    </defs>
    <g clip-path="url(#p9e7ddd142f)">
     <use xlink:href="#m71e938d9f7" x="121.336364" y="136.456364" style="fill: #2ca02c; stroke: #2ca02c; stroke-linejoin: bevel"/>
    </g>
   </g>
  </g>
  <g id="axes_2">
   <g id="QuadContourSet_2">
    <path clip-path="url(#pffaf3b9885)" style="fill: none; stroke: #cfcfcf; stroke-width: 0.9"/>
    <path d="M 509.4 158.257584 
L 502.103611 160.037212 
L 493.764882 161.786479 
L 486.468493 163.119379 
L 477.087422 164.596804 
L 467.706351 165.855158 
L 458.32528 166.917103 
L 447.901868 167.890879 
L 437.478456 168.667336 
L 426.012702 169.313831 
L 413.504608 169.773113 
L 400.996513 169.997868 
L 388.488418 169.988096 
L 375.980324 169.743797 
L 363.472229 169.26416 
L 350.964134 168.527797 
L 340.540722 167.711944 
L 330.11731 166.696055 
L 319.693898 165.458696 
L 309.949742 164.078406 
L 300.931756 162.566101 
L 292.593026 160.948127 
L 284.254296 159.052814 
L 281.127273 158.257584 
M 281.127273 114.655143 
L 288.423661 112.875515 
L 296.762391 111.126248 
L 304.05878 109.793348 
L 313.439851 108.315923 
L 322.820922 107.05757 
L 332.201993 105.995624 
L 342.625405 105.021848 
L 353.048817 104.245391 
L 364.51457 103.598896 
L 377.022665 103.139614 
L 389.53076 102.91486 
L 402.038854 102.924632 
L 414.546949 103.16893 
L 427.055044 103.648567 
L 439.563138 104.38493 
L 449.98655 105.200783 
L 460.409963 106.216673 
L 470.833375 107.454031 
L 480.577531 108.834321 
L 489.595517 110.346626 
L 497.934247 111.9646 
L 506.272976 113.859914 
L 509.4 114.655143 
L 509.4 114.655143 
" clip-path="url(#pffaf3b9885)" style="fill: none; stroke: #cfcfcf; stroke-width: 0.9"/>
    <path d="M 509.4 176.486041 
L 498.976588 177.878681 
L 486.468493 179.324238 
L 473.960399 180.54709 
L 461.452304 181.562774 
L 447.901868 182.445823 
L 434.351432 183.11706 
L 419.758655 183.611593 
L 405.165878 183.879128 
L 390.573101 183.918864 
L 375.980324 183.7332 
L 361.387547 183.319738 
L 346.79477 182.675612 
L 332.201993 181.78821 
L 318.651557 180.731981 
L 305.101121 179.434828 
L 292.593026 178.007671 
L 281.127273 176.486041 
M 281.127273 96.426686 
L 291.550685 95.034046 
L 304.05878 93.588489 
L 316.566874 92.365638 
L 329.074969 91.349954 
L 342.625405 90.466904 
L 356.175841 89.795667 
L 370.768618 89.301134 
L 385.361395 89.0336 
L 399.954172 88.993864 
L 414.546949 89.179527 
L 429.139726 89.592989 
L 443.732503 90.237115 
L 458.32528 91.124517 
L 471.875716 92.180746 
L 485.426152 93.477899 
L 497.934247 94.905057 
L 509.4 96.426686 
L 509.4 96.426686 
" clip-path="url(#pffaf3b9885)" style="fill: none; stroke: #cfcfcf; stroke-width: 0.9"/>
    <path d="M 509.4 188.697401 
L 495.175742 190.136936 
L 480.214446 191.408338 
L 464.579328 192.494694 
L 448.944209 193.347291 
L 433.309091 193.972696 
L 417.673973 194.383491 
L 402.038854 194.57893 
L 386.403736 194.56497 
L 370.768618 194.341611 
L 355.133499 193.901627 
L 339.498381 193.247496 
L 323.863263 192.364401 
L 309.270486 191.327704 
L 295.351531 190.136936 
L 281.127273 188.697401 
M 281.127273 84.215326 
L 295.351531 82.775791 
L 310.312827 81.504389 
L 325.947945 80.418034 
L 341.583064 79.565436 
L 357.218182 78.940031 
L 372.8533 78.529236 
L 388.488418 78.333797 
L 404.123537 78.347757 
L 419.758655 78.571116 
L 435.393773 79.0111 
L 451.028892 79.665232 
L 466.66401 80.548326 
L 481.256787 81.585023 
L 495.175742 82.775791 
L 509.4 84.215326 
L 509.4 84.215326 
" clip-path="url(#pffaf3b9885)" style="fill: none; stroke: #cfcfcf; stroke-width: 0.9"/>
    <path d="M 509.4 198.554823 
L 493.764882 199.877811 
L 477.087422 201.052207 
L 460.409963 201.994088 
L 443.732503 202.714354 
L 426.012702 203.240411 
L 408.292902 203.531126 
L 390.573101 203.586501 
L 372.8533 203.406534 
L 355.133499 202.991226 
L 338.45604 202.381244 
L 321.77858 201.553203 
L 305.101121 200.496381 
L 288.423661 199.199337 
L 281.127273 198.554823 
M 281.127273 74.357904 
L 296.762391 73.034916 
L 313.439851 71.86052 
L 330.11731 70.918639 
L 346.79477 70.198373 
L 364.51457 69.672316 
L 382.234371 69.381601 
L 399.954172 69.326226 
L 417.673973 69.506193 
L 435.393773 69.921501 
L 452.071233 70.531483 
L 468.748692 71.359524 
L 485.426152 72.416346 
L 502.103611 73.71339 
L 509.4 74.357904 
L 509.4 74.357904 
" clip-path="url(#pffaf3b9885)" style="fill: none; stroke: #cfcfcf; stroke-width: 0.9"/>
    <path d="M 509.4 207.046867 
L 492.72254 208.285244 
L 475.00274 209.369858 
L 457.282939 210.226462 
L 439.563138 210.862877 
L 421.843337 211.28294 
L 403.081196 211.497923 
L 384.319054 211.478379 
L 365.556912 211.224309 
L 347.837111 210.765983 
L 330.11731 210.092132 
L 312.397509 209.195638 
L 295.72005 208.142488 
L 281.127273 207.046867 
M 281.127273 65.86586 
L 297.804732 64.627484 
L 315.524533 63.54287 
L 333.244334 62.686266 
L 350.964134 62.04985 
L 368.683935 61.629787 
L 387.446077 61.414804 
L 406.208219 61.434348 
L 424.970361 61.688419 
L 442.690162 62.146744 
L 460.409963 62.820595 
L 478.129763 63.717089 
L 494.807223 64.770239 
L 509.4 65.86586 
L 509.4 65.86586 
" clip-path="url(#pffaf3b9885)" style="fill: none; stroke: #cfcfcf; stroke-width: 0.9"/>
    <path d="M 509.4 214.621884 
L 491.680199 215.806308 
L 473.960399 216.777896 
L 455.198257 217.583589 
L 436.436115 218.166899 
L 417.673973 218.530514 
L 398.911831 218.678948 
L 380.149689 218.613637 
L 361.387547 218.33458 
L 342.625405 217.836157 
L 323.863263 217.119026 
L 305.101121 216.174556 
L 286.338979 214.993652 
L 281.127273 214.621884 
M 281.127273 58.290844 
L 298.847073 57.106419 
L 316.566874 56.134831 
L 335.329016 55.329138 
L 354.091158 54.745828 
L 372.8533 54.382214 
L 391.615442 54.233779 
L 410.377584 54.29909 
L 429.139726 54.578148 
L 447.901868 55.076571 
L 466.66401 55.793701 
L 485.426152 56.738171 
L 504.188294 57.919075 
L 509.4 58.290844 
L 509.4 58.290844 
" clip-path="url(#pffaf3b9885)" style="fill: none; stroke: #cfcfcf; stroke-width: 0.9"/>
    <path d="M 509.4 221.526467 
L 490.637858 222.673489 
L 470.833375 223.649879 
L 451.028892 224.392547 
L 431.224408 224.9068 
L 411.419925 225.198042 
L 391.615442 225.267941 
L 371.810959 225.116495 
L 352.006476 224.743704 
L 332.201993 224.144991 
L 312.397509 223.317731 
L 292.593026 222.253564 
L 281.127273 221.526467 
M 281.127273 51.38626 
L 299.889415 50.239238 
L 319.693898 49.262848 
L 339.498381 48.52018 
L 359.302864 48.005927 
L 379.107347 47.714685 
L 398.911831 47.644787 
L 418.716314 47.796233 
L 438.520797 48.169023 
L 458.32528 48.767736 
L 478.129763 49.594996 
L 497.934247 50.659164 
L 509.4 51.38626 
L 509.4 51.38626 
" clip-path="url(#pffaf3b9885)" style="fill: none; stroke: #cfcfcf; stroke-width: 0.9"/>
    <path d="M 509.4 227.909892 
L 489.595517 229.031421 
L 469.791034 229.930562 
L 448.944209 230.642828 
L 429.139726 231.101453 
L 408.292902 231.359174 
L 387.446077 231.38781 
L 366.599253 231.18736 
L 345.752428 230.757486 
L 324.905604 230.091545 
L 305.101121 229.238718 
L 285.296638 228.164555 
L 281.127273 227.909892 
M 281.127273 45.002835 
L 300.931756 43.881306 
L 320.736239 42.982166 
L 341.583064 42.269899 
L 361.387547 41.811275 
L 382.234371 41.553553 
L 403.081196 41.524917 
L 423.92802 41.725367 
L 444.774844 42.155242 
L 465.621669 42.821182 
L 485.426152 43.674009 
L 505.230635 44.748172 
L 509.4 45.002835 
L 509.4 45.002835 
" clip-path="url(#pffaf3b9885)" style="fill: none; stroke: #cfcfcf; stroke-width: 0.9"/>
    <path d="M 509.4 233.877201 
L 489.595517 234.931036 
L 469.791034 235.775612 
L 448.944209 236.445699 
L 428.097385 236.896294 
L 407.25056 237.128834 
L 386.403736 237.144952 
L 365.556912 236.945154 
L 344.710087 236.527132 
L 323.863263 235.890818 
L 303.016438 235.029515 
L 283.211955 233.997919 
L 281.127273 233.877201 
M 281.127273 39.035526 
L 300.931756 37.981691 
L 320.736239 37.137115 
L 341.583064 36.467028 
L 362.429888 36.016433 
L 383.276712 35.783893 
L 404.123537 35.767775 
L 424.970361 35.967573 
L 445.817186 36.385596 
L 466.66401 37.021909 
L 487.510834 37.883212 
L 507.315318 38.914808 
L 509.4 39.035526 
L 509.4 39.035526 
" clip-path="url(#pffaf3b9885)" style="fill: none; stroke: #cfcfcf; stroke-width: 0.9"/>
    <path d="M 509.4 239.497721 
L 488.553176 240.541567 
L 467.706351 241.368658 
L 445.817186 242.007995 
L 423.92802 242.418146 
L 402.038854 242.600556 
L 380.149689 242.557636 
L 358.260523 242.289386 
L 337.413699 241.820167 
L 315.524533 241.10391 
L 293.635367 240.151554 
L 281.127273 239.497721 
M 281.127273 33.415006 
L 301.974097 32.37116 
L 322.820922 31.544069 
L 344.710087 30.904732 
L 366.599253 30.494581 
L 388.488418 30.312171 
L 410.377584 30.355091 
L 432.26675 30.623341 
L 453.113574 31.09256 
L 475.00274 31.808817 
L 496.891905 32.761174 
L 509.4 33.415006 
L 509.4 33.415006 
" clip-path="url(#pffaf3b9885)" style="fill: none; stroke: #cfcfcf; stroke-width: 0.9"/>
    <path d="M 509.4 244.828004 
L 487.510834 245.865188 
L 465.621669 246.67581 
L 443.732503 247.26434 
L 421.843337 247.634451 
L 399.954172 247.787879 
L 378.065006 247.726508 
L 356.175841 247.450191 
L 334.286675 246.954587 
L 312.397509 246.240431 
L 290.508344 245.301567 
L 281.127273 244.828004 
M 281.127273 28.084724 
L 303.016438 27.047539 
L 324.905604 26.236917 
L 346.79477 25.648388 
L 368.683935 25.278277 
L 390.573101 25.124848 
L 412.462267 25.186219 
L 434.351432 25.462536 
L 456.240598 25.95814 
L 478.129763 26.672296 
L 500.018929 27.61116 
L 509.4 28.084724 
L 509.4 28.084724 
" clip-path="url(#pffaf3b9885)" style="fill: none; stroke: #cfcfcf; stroke-width: 0.9"/>
    <path d="M 295.68055 250.592727 
L 294.677709 250.548565 
L 293.635367 250.502186 
L 292.593026 250.455329 
L 291.550685 250.407993 
L 290.508344 250.360179 
L 289.466002 250.311887 
L 288.423661 250.263117 
L 287.38132 250.213869 
L 286.338979 250.164142 
L 285.296638 250.113938 
L 284.254296 250.063255 
L 283.211955 250.012094 
L 282.169614 249.960456 
L 281.127273 249.908338 
M 509.4 249.908338 
L 508.357659 249.960456 
L 507.315318 250.012094 
L 506.272976 250.063255 
L 505.230635 250.113938 
L 504.188294 250.164142 
L 503.145953 250.213869 
L 502.103611 250.263117 
L 501.06127 250.311887 
L 500.018929 250.360179 
L 498.976588 250.407993 
L 497.934247 250.455329 
L 496.891905 250.502186 
L 495.849564 250.548565 
L 494.846723 250.592727 
M 281.127273 23.004389 
L 282.169614 22.952272 
L 283.211955 22.900633 
L 284.254296 22.849472 
L 285.296638 22.798789 
L 286.338979 22.748585 
L 287.38132 22.698859 
L 288.423661 22.64961 
L 289.466002 22.60084 
L 290.508344 22.552548 
L 291.550685 22.504734 
L 292.593026 22.457399 
L 293.635367 22.410541 
L 294.677709 22.364162 
L 295.68055 22.32 
M 494.846723 22.32 
L 495.849564 22.364162 
L 496.891905 22.410541 
L 497.934247 22.457399 
L 498.976588 22.504734 
L 500.018929 22.552548 
L 501.06127 22.60084 
L 502.103611 22.64961 
L 503.145953 22.698859 
L 504.188294 22.748585 
L 505.230635 22.798789 
L 506.272976 22.849472 
L 507.315318 22.900633 
L 508.357659 22.952272 
L 509.4 23.004389 
" clip-path="url(#pffaf3b9885)" style="fill: none; stroke: #cfcfcf; stroke-width: 0.9"/>
    <path clip-path="url(#pffaf3b9885)" style="fill: none; stroke: #cfcfcf; stroke-width: 0.9"/>
   </g>
   <g id="patch_2">
    <path d="M 374.566493 78.532013 
Q 357.190132 91.129875 339.81377 103.727737 
" style="fill: none; stroke: #1f77b4; stroke-width: 0.9; stroke-linecap: round"/>
   </g>
   <g id="text_2">
    <!-- equal speed on -->
    <g style="fill: #1f77b4" transform="translate(357.360044 63.404796) scale(0.09 -0.09)">
     <defs>
      <path id="DejaVuSans-71" d="M 947 1747 
Q 947 1113 1208 752 
Q 1469 391 1925 391 
Q 2381 391 2643 752 
Q 2906 1113 2906 1747 
Q 2906 2381 2643 2742 
Q 2381 3103 1925 3103 
Q 1469 3103 1208 2742 
Q 947 2381 947 1747 
z
M 2906 525 
Q 2725 213 2448 61 
Q 2172 -91 1784 -91 
Q 1150 -91 751 415 
Q 353 922 353 1747 
Q 353 2572 751 3078 
Q 1150 3584 1784 3584 
Q 2172 3584 2448 3432 
Q 2725 3281 2906 2969 
L 2906 3500 
L 3481 3500 
L 3481 -1331 
L 2906 -1331 
L 2906 525 
z
" transform="scale(0.015625)"/>
      <path id="DejaVuSans-75" d="M 544 1381 
L 544 3500 
L 1119 3500 
L 1119 1403 
Q 1119 906 1312 657 
Q 1506 409 1894 409 
Q 2359 409 2629 706 
Q 2900 1003 2900 1516 
L 2900 3500 
L 3475 3500 
L 3475 0 
L 2900 0 
L 2900 538 
Q 2691 219 2414 64 
Q 2138 -91 1772 -91 
Q 1169 -91 856 284 
Q 544 659 544 1381 
z
M 1991 3584 
L 1991 3584 
z
" transform="scale(0.015625)"/>
      <path id="DejaVuSans-73" d="M 2834 3397 
L 2834 2853 
Q 2591 2978 2328 3040 
Q 2066 3103 1784 3103 
Q 1356 3103 1142 2972 
Q 928 2841 928 2578 
Q 928 2378 1081 2264 
Q 1234 2150 1697 2047 
L 1894 2003 
Q 2506 1872 2764 1633 
Q 3022 1394 3022 966 
Q 3022 478 2636 193 
Q 2250 -91 1575 -91 
Q 1294 -91 989 -36 
Q 684 19 347 128 
L 347 722 
Q 666 556 975 473 
Q 1284 391 1588 391 
Q 1994 391 2212 530 
Q 2431 669 2431 922 
Q 2431 1156 2273 1281 
Q 2116 1406 1581 1522 
L 1381 1569 
Q 847 1681 609 1914 
Q 372 2147 372 2553 
Q 372 3047 722 3315 
Q 1072 3584 1716 3584 
Q 2034 3584 2315 3537 
Q 2597 3491 2834 3397 
z
" transform="scale(0.015625)"/>
      <path id="DejaVuSans-70" d="M 1159 525 
L 1159 -1331 
L 581 -1331 
L 581 3500 
L 1159 3500 
L 1159 2969 
Q 1341 3281 1617 3432 
Q 1894 3584 2278 3584 
Q 2916 3584 3314 3078 
Q 3713 2572 3713 1747 
Q 3713 922 3314 415 
Q 2916 -91 2278 -91 
Q 1894 -91 1617 61 
Q 1341 213 1159 525 
z
M 3116 1747 
Q 3116 2381 2855 2742 
Q 2594 3103 2138 3103 
Q 1681 3103 1420 2742 
Q 1159 2381 1159 1747 
Q 1159 1113 1420 752 
Q 1681 391 2138 391 
Q 2594 391 2855 752 
Q 3116 1113 3116 1747 
z
" transform="scale(0.015625)"/>
      <path id="DejaVuSans-64" d="M 2906 2969 
L 2906 4863 
L 3481 4863 
L 3481 0 
L 2906 0 
L 2906 525 
Q 2725 213 2448 61 
Q 2172 -91 1784 -91 
Q 1150 -91 751 415 
Q 353 922 353 1747 
Q 353 2572 751 3078 
Q 1150 3584 1784 3584 
Q 2172 3584 2448 3432 
Q 2725 3281 2906 2969 
z
M 947 1747 
Q 947 1113 1208 752 
Q 1469 391 1925 391 
Q 2381 391 2643 752 
Q 2906 1113 2906 1747 
Q 2906 2381 2643 2742 
Q 2381 3103 1925 3103 
Q 1469 3103 1208 2742 
Q 947 2381 947 1747 
z
" transform="scale(0.015625)"/>
     </defs>
     <use xlink:href="#DejaVuSans-65"/>
     <use xlink:href="#DejaVuSans-71" transform="translate(61.523438 0)"/>
     <use xlink:href="#DejaVuSans-75" transform="translate(125 0)"/>
     <use xlink:href="#DejaVuSans-61" transform="translate(188.378906 0)"/>
     <use xlink:href="#DejaVuSans-6c" transform="translate(249.658203 0)"/>
     <use xlink:href="#DejaVuSans-20" transform="translate(277.441406 0)"/>
     <use xlink:href="#DejaVuSans-73" transform="translate(309.228516 0)"/>
     <use xlink:href="#DejaVuSans-70" transform="translate(361.328125 0)"/>
     <use xlink:href="#DejaVuSans-65" transform="translate(424.804688 0)"/>
     <use xlink:href="#DejaVuSans-65" transform="translate(486.328125 0)"/>
     <use xlink:href="#DejaVuSans-64" transform="translate(547.851562 0)"/>
     <use xlink:href="#DejaVuSans-20" transform="translate(611.328125 0)"/>
     <use xlink:href="#DejaVuSans-6f" transform="translate(643.115234 0)"/>
     <use xlink:href="#DejaVuSans-6e" transform="translate(704.296875 0)"/>
    </g>
    <!-- both coordinates -->
    <g style="fill: #1f77b4" transform="translate(353.904184 73.482827) scale(0.09 -0.09)">
     <defs>
      <path id="DejaVuSans-74" d="M 1172 4494 
L 1172 3500 
L 2356 3500 
L 2356 3053 
L 1172 3053 
L 1172 1153 
Q 1172 725 1289 603 
Q 1406 481 1766 481 
L 2356 481 
L 2356 0 
L 1766 0 
Q 1100 0 847 248 
Q 594 497 594 1153 
L 594 3053 
L 172 3053 
L 172 3500 
L 594 3500 
L 594 4494 
L 1172 4494 
z
" transform="scale(0.015625)"/>
      <path id="DejaVuSans-68" d="M 3513 2113 
L 3513 0 
L 2938 0 
L 2938 2094 
Q 2938 2591 2744 2837 
Q 2550 3084 2163 3084 
Q 1697 3084 1428 2787 
Q 1159 2491 1159 1978 
L 1159 0 
L 581 0 
L 581 4863 
L 1159 4863 
L 1159 2956 
Q 1366 3272 1645 3428 
Q 1925 3584 2291 3584 
Q 2894 3584 3203 3211 
Q 3513 2838 3513 2113 
z
" transform="scale(0.015625)"/>
      <path id="DejaVuSans-63" d="M 3122 3366 
L 3122 2828 
Q 2878 2963 2633 3030 
Q 2388 3097 2138 3097 
Q 1578 3097 1268 2742 
Q 959 2388 959 1747 
Q 959 1106 1268 751 
Q 1578 397 2138 397 
Q 2388 397 2633 464 
Q 2878 531 3122 666 
L 3122 134 
Q 2881 22 2623 -34 
Q 2366 -91 2075 -91 
Q 1284 -91 818 406 
Q 353 903 353 1747 
Q 353 2603 823 3093 
Q 1294 3584 2113 3584 
Q 2378 3584 2631 3529 
Q 2884 3475 3122 3366 
z
" transform="scale(0.015625)"/>
      <path id="DejaVuSans-72" d="M 2631 2963 
Q 2534 3019 2420 3045 
Q 2306 3072 2169 3072 
Q 1681 3072 1420 2755 
Q 1159 2438 1159 1844 
L 1159 0 
L 581 0 
L 581 3500 
L 1159 3500 
L 1159 2956 
Q 1341 3275 1631 3429 
Q 1922 3584 2338 3584 
Q 2397 3584 2469 3576 
Q 2541 3569 2628 3553 
L 2631 2963 
z
" transform="scale(0.015625)"/>
     </defs>
     <use xlink:href="#DejaVuSans-62"/>
     <use xlink:href="#DejaVuSans-6f" transform="translate(63.476562 0)"/>
     <use xlink:href="#DejaVuSans-74" transform="translate(124.658203 0)"/>
     <use xlink:href="#DejaVuSans-68" transform="translate(163.867188 0)"/>
     <use xlink:href="#DejaVuSans-20" transform="translate(227.246094 0)"/>
     <use xlink:href="#DejaVuSans-63" transform="translate(259.033203 0)"/>
     <use xlink:href="#DejaVuSans-6f" transform="translate(314.013672 0)"/>
     <use xlink:href="#DejaVuSans-6f" transform="translate(375.195312 0)"/>
     <use xlink:href="#DejaVuSans-72" transform="translate(436.376953 0)"/>
     <use xlink:href="#DejaVuSans-64" transform="translate(475.740234 0)"/>
     <use xlink:href="#DejaVuSans-69" transform="translate(539.216797 0)"/>
     <use xlink:href="#DejaVuSans-6e" transform="translate(567 0)"/>
     <use xlink:href="#DejaVuSans-61" transform="translate(630.378906 0)"/>
     <use xlink:href="#DejaVuSans-74" transform="translate(691.658203 0)"/>
     <use xlink:href="#DejaVuSans-65" transform="translate(730.867188 0)"/>
     <use xlink:href="#DejaVuSans-73" transform="translate(792.390625 0)"/>
    </g>
   </g>
   <g id="text_3">
    <!-- (b) per-coordinate steps (Adam): rounded -->
    <g transform="translate(270.338011 16.32) scale(0.12 -0.12)">
     <defs>
      <path id="DejaVuSans-41" d="M 2188 4044 
L 1331 1722 
L 3047 1722 
L 2188 4044 
z
M 1831 4666 
L 2547 4666 
L 4325 0 
L 3669 0 
L 3244 1197 
L 1141 1197 
L 716 0 
L 50 0 
L 1831 4666 
z
" transform="scale(0.015625)"/>
      <path id="DejaVuSans-6d" d="M 3328 2828 
Q 3544 3216 3844 3400 
Q 4144 3584 4550 3584 
Q 5097 3584 5394 3201 
Q 5691 2819 5691 2113 
L 5691 0 
L 5113 0 
L 5113 2094 
Q 5113 2597 4934 2840 
Q 4756 3084 4391 3084 
Q 3944 3084 3684 2787 
Q 3425 2491 3425 1978 
L 3425 0 
L 2847 0 
L 2847 2094 
Q 2847 2600 2669 2842 
Q 2491 3084 2119 3084 
Q 1678 3084 1418 2786 
Q 1159 2488 1159 1978 
L 1159 0 
L 581 0 
L 581 3500 
L 1159 3500 
L 1159 2956 
Q 1356 3278 1631 3431 
Q 1906 3584 2284 3584 
Q 2666 3584 2933 3390 
Q 3200 3197 3328 2828 
z
" transform="scale(0.015625)"/>
     </defs>
     <use xlink:href="#DejaVuSans-28"/>
     <use xlink:href="#DejaVuSans-62" transform="translate(39.013672 0)"/>
     <use xlink:href="#DejaVuSans-29" transform="translate(102.490234 0)"/>
     <use xlink:href="#DejaVuSans-20" transform="translate(141.503906 0)"/>
     <use xlink:href="#DejaVuSans-70" transform="translate(173.291016 0)"/>
     <use xlink:href="#DejaVuSans-65" transform="translate(236.767578 0)"/>
     <use xlink:href="#DejaVuSans-72" transform="translate(298.291016 0)"/>
     <use xlink:href="#DejaVuSans-2d" transform="translate(333.029297 0)"/>
     <use xlink:href="#DejaVuSans-63" transform="translate(369.113281 0)"/>
     <use xlink:href="#DejaVuSans-6f" transform="translate(424.09375 0)"/>
     <use xlink:href="#DejaVuSans-6f" transform="translate(485.275391 0)"/>
     <use xlink:href="#DejaVuSans-72" transform="translate(546.457031 0)"/>
     <use xlink:href="#DejaVuSans-64" transform="translate(585.820312 0)"/>
     <use xlink:href="#DejaVuSans-69" transform="translate(649.296875 0)"/>
     <use xlink:href="#DejaVuSans-6e" transform="translate(677.080078 0)"/>
     <use xlink:href="#DejaVuSans-61" transform="translate(740.458984 0)"/>
     <use xlink:href="#DejaVuSans-74" transform="translate(801.738281 0)"/>
     <use xlink:href="#DejaVuSans-65" transform="translate(840.947266 0)"/>
     <use xlink:href="#DejaVuSans-20" transform="translate(902.470703 0)"/>
     <use xlink:href="#DejaVuSans-73" transform="translate(934.257812 0)"/>
     <use xlink:href="#DejaVuSans-74" transform="translate(986.357422 0)"/>
     <use xlink:href="#DejaVuSans-65" transform="translate(1025.566406 0)"/>
     <use xlink:href="#DejaVuSans-70" transform="translate(1087.089844 0)"/>
     <use xlink:href="#DejaVuSans-73" transform="translate(1150.566406 0)"/>
     <use xlink:href="#DejaVuSans-20" transform="translate(1202.666016 0)"/>
     <use xlink:href="#DejaVuSans-28" transform="translate(1234.453125 0)"/>
     <use xlink:href="#DejaVuSans-41" transform="translate(1273.466797 0)"/>
     <use xlink:href="#DejaVuSans-64" transform="translate(1340.125 0)"/>
     <use xlink:href="#DejaVuSans-61" transform="translate(1403.601562 0)"/>
     <use xlink:href="#DejaVuSans-6d" transform="translate(1464.880859 0)"/>
     <use xlink:href="#DejaVuSans-29" transform="translate(1562.292969 0)"/>
     <use xlink:href="#DejaVuSans-3a" transform="translate(1601.306641 0)"/>
     <use xlink:href="#DejaVuSans-20" transform="translate(1634.998047 0)"/>
     <use xlink:href="#DejaVuSans-72" transform="translate(1666.785156 0)"/>
     <use xlink:href="#DejaVuSans-6f" transform="translate(1705.648438 0)"/>
     <use xlink:href="#DejaVuSans-75" transform="translate(1766.830078 0)"/>
     <use xlink:href="#DejaVuSans-6e" transform="translate(1830.208984 0)"/>
     <use xlink:href="#DejaVuSans-64" transform="translate(1893.587891 0)"/>
     <use xlink:href="#DejaVuSans-65" transform="translate(1957.064453 0)"/>
     <use xlink:href="#DejaVuSans-64" transform="translate(2018.587891 0)"/>
    </g>
   </g>
   <g id="line2d_3">
    <path d="M 301.268984 69.317326 
L 309.325668 77.374011 
L 317.014074 84.90136 
L 324.319599 91.871194 
L 331.229383 98.261246 
L 337.73278 104.057009 
L 343.821802 109.253326 
L 349.491532 113.855482 
L 354.740463 117.879595 
L 359.570738 121.352176 
L 363.988264 124.30889 
L 368.002681 126.792649 
L 371.627197 128.851284 
L 374.878274 130.535096 
L 377.775198 131.894539 
L 380.339553 132.978244 
L 382.594645 133.831516 
L 384.564892 134.495309 
L 386.275234 135.005685 
L 387.750585 135.393652 
L 389.015339 135.685308 
L 390.092965 135.902197 
L 391.005681 136.061785 
L 391.774218 136.177997 
L 392.41766 136.261767 
L 392.95336 136.32155 
L 393.396923 136.363797 
L 393.762228 136.393365 
L 394.061505 136.413863 
L 394.305425 136.42794 
L 394.503224 136.437517 
L 394.662826 136.443974 
L 394.790979 136.448288 
L 394.893385 136.451144 
L 394.974831 136.453018 
L 395.039304 136.454237 
L 395.090108 136.455023 
L 395.129958 136.455526 
L 395.161077 136.455844 
L 395.185269 136.456044 
L 395.203996 136.456169 
" clip-path="url(#pffaf3b9885)" style="fill: none; stroke: #1f77b4; stroke-width: 1.6; stroke-linecap: square"/>
    <defs>
     <path id="m88e01eec72" d="M 0 1.75 
C 0.464105 1.75 0.909265 1.565609 1.237437 1.237437 
C 1.565609 0.909265 1.75 0.464105 1.75 0 
C 1.75 -0.464105 1.565609 -0.909265 1.237437 -1.237437 
C 0.909265 -1.565609 0.464105 -1.75 0 -1.75 
C -0.464105 -1.75 -0.909265 -1.565609 -1.237437 -1.237437 
C -1.565609 -0.909265 -1.75 -0.464105 -1.75 0 
C -1.75 0.464105 -1.565609 0.909265 -1.237437 1.237437 
C -0.909265 1.565609 -0.464105 1.75 0 1.75 
z
" style="stroke: #1f77b4"/>
    </defs>
    <g clip-path="url(#pffaf3b9885)">
     <use xlink:href="#m88e01eec72" x="301.268984" y="69.317326" style="fill: #1f77b4; stroke: #1f77b4"/>
     <use xlink:href="#m88e01eec72" x="309.325668" y="77.374011" style="fill: #1f77b4; stroke: #1f77b4"/>
     <use xlink:href="#m88e01eec72" x="317.014074" y="84.90136" style="fill: #1f77b4; stroke: #1f77b4"/>
     <use xlink:href="#m88e01eec72" x="324.319599" y="91.871194" style="fill: #1f77b4; stroke: #1f77b4"/>
     <use xlink:href="#m88e01eec72" x="331.229383" y="98.261246" style="fill: #1f77b4; stroke: #1f77b4"/>
     <use xlink:href="#m88e01eec72" x="337.73278" y="104.057009" style="fill: #1f77b4; stroke: #1f77b4"/>
     <use xlink:href="#m88e01eec72" x="343.821802" y="109.253326" style="fill: #1f77b4; stroke: #1f77b4"/>
     <use xlink:href="#m88e01eec72" x="349.491532" y="113.855482" style="fill: #1f77b4; stroke: #1f77b4"/>
     <use xlink:href="#m88e01eec72" x="354.740463" y="117.879595" style="fill: #1f77b4; stroke: #1f77b4"/>
     <use xlink:href="#m88e01eec72" x="359.570738" y="121.352176" style="fill: #1f77b4; stroke: #1f77b4"/>
     <use xlink:href="#m88e01eec72" x="363.988264" y="124.30889" style="fill: #1f77b4; stroke: #1f77b4"/>
     <use xlink:href="#m88e01eec72" x="368.002681" y="126.792649" style="fill: #1f77b4; stroke: #1f77b4"/>
     <use xlink:href="#m88e01eec72" x="371.627197" y="128.851284" style="fill: #1f77b4; stroke: #1f77b4"/>
     <use xlink:href="#m88e01eec72" x="374.878274" y="130.535096" style="fill: #1f77b4; stroke: #1f77b4"/>
     <use xlink:href="#m88e01eec72" x="377.775198" y="131.894539" style="fill: #1f77b4; stroke: #1f77b4"/>
     <use xlink:href="#m88e01eec72" x="380.339553" y="132.978244" style="fill: #1f77b4; stroke: #1f77b4"/>
     <use xlink:href="#m88e01eec72" x="382.594645" y="133.831516" style="fill: #1f77b4; stroke: #1f77b4"/>
     <use xlink:href="#m88e01eec72" x="384.564892" y="134.495309" style="fill: #1f77b4; stroke: #1f77b4"/>
     <use xlink:href="#m88e01eec72" x="386.275234" y="135.005685" style="fill: #1f77b4; stroke: #1f77b4"/>
     <use xlink:href="#m88e01eec72" x="387.750585" y="135.393652" style="fill: #1f77b4; stroke: #1f77b4"/>
     <use xlink:href="#m88e01eec72" x="389.015339" y="135.685308" style="fill: #1f77b4; stroke: #1f77b4"/>
     <use xlink:href="#m88e01eec72" x="390.092965" y="135.902197" style="fill: #1f77b4; stroke: #1f77b4"/>
     <use xlink:href="#m88e01eec72" x="391.005681" y="136.061785" style="fill: #1f77b4; stroke: #1f77b4"/>
     <use xlink:href="#m88e01eec72" x="391.774218" y="136.177997" style="fill: #1f77b4; stroke: #1f77b4"/>
     <use xlink:href="#m88e01eec72" x="392.41766" y="136.261767" style="fill: #1f77b4; stroke: #1f77b4"/>
     <use xlink:href="#m88e01eec72" x="392.95336" y="136.32155" style="fill: #1f77b4; stroke: #1f77b4"/>
     <use xlink:href="#m88e01eec72" x="393.396923" y="136.363797" style="fill: #1f77b4; stroke: #1f77b4"/>
     <use xlink:href="#m88e01eec72" x="393.762228" y="136.393365" style="fill: #1f77b4; stroke: #1f77b4"/>
     <use xlink:href="#m88e01eec72" x="394.061505" y="136.413863" style="fill: #1f77b4; stroke: #1f77b4"/>
     <use xlink:href="#m88e01eec72" x="394.305425" y="136.42794" style="fill: #1f77b4; stroke: #1f77b4"/>
     <use xlink:href="#m88e01eec72" x="394.503224" y="136.437517" style="fill: #1f77b4; stroke: #1f77b4"/>
     <use xlink:href="#m88e01eec72" x="394.662826" y="136.443974" style="fill: #1f77b4; stroke: #1f77b4"/>
     <use xlink:href="#m88e01eec72" x="394.790979" y="136.448288" style="fill: #1f77b4; stroke: #1f77b4"/>
     <use xlink:href="#m88e01eec72" x="394.893385" y="136.451144" style="fill: #1f77b4; stroke: #1f77b4"/>
     <use xlink:href="#m88e01eec72" x="394.974831" y="136.453018" style="fill: #1f77b4; stroke: #1f77b4"/>
     <use xlink:href="#m88e01eec72" x="395.039304" y="136.454237" style="fill: #1f77b4; stroke: #1f77b4"/>
     <use xlink:href="#m88e01eec72" x="395.090108" y="136.455023" style="fill: #1f77b4; stroke: #1f77b4"/>
     <use xlink:href="#m88e01eec72" x="395.129958" y="136.455526" style="fill: #1f77b4; stroke: #1f77b4"/>
     <use xlink:href="#m88e01eec72" x="395.161077" y="136.455844" style="fill: #1f77b4; stroke: #1f77b4"/>
     <use xlink:href="#m88e01eec72" x="395.185269" y="136.456044" style="fill: #1f77b4; stroke: #1f77b4"/>
     <use xlink:href="#m88e01eec72" x="395.203996" y="136.456169" style="fill: #1f77b4; stroke: #1f77b4"/>
    </g>
   </g>
   <g id="line2d_4">
    <g clip-path="url(#pffaf3b9885)">
     <use xlink:href="#m71e938d9f7" x="395.263636" y="136.456364" style="fill: #2ca02c; stroke: #2ca02c; stroke-linejoin: bevel"/>
    </g>
   </g>
  </g>
 </g>
 <defs>
  <clipPath id="p9e7ddd142f">
   <rect x="7.2" y="22.32" width="228.272727" height="228.272727"/>
  </clipPath>
  <clipPath id="pffaf3b9885">
   <rect x="281.127273" y="22.32" width="228.272727" height="228.272727"/>
  </clipPath>
 </defs>
</svg>
