<?xml version="1.0" encoding="utf-8" standalone="no"?>
<!DOCTYPE svg PUBLIC "-//W3C//DTD SVG 1.1//EN"
  "http://www.w3.org/Graphics/SVG/1.1/DTD/svg11.dtd">
<svg xmlns:xlink="http://www.w3.org/1999/xlink" width="564.40487pt" height="347.198pt" viewBox="0 0 564.40487 347.198" xmlns="http://www.w3.org/2000/svg" version="1.1">
 <metadata>
  <rdf:RDF xmlns:dc="http://purl.org/dc/elements/1.1/" xmlns:cc="http://creativecommons.org/ns#" xmlns:rdf="http://www.w3.org/1999/02/22-rdf-syntax-ns#">
   <cc:Work>
    <dc:type rdf:resource="http://purl.org/dc/dcmitype/StillImage"/>
    <dc:format>image/svg+xml</dc:format>
    <dc:creator>
     <cc:Agent>
      <dc:title>Matplotlib v3.10.8, https://matplotlib.org/</dc:title>
     </cc:Agent>
    </dc:creator>
   </cc:Work>
  </rdf:RDF>
 </metadata>
 <defs>
  <style type="text/css">*{stroke-linejoin: round; stroke-linecap: butt}</style>
 </defs>
 <g id="figure_1">
  <g id="patch_1">
   <path d="M 0 347.198 
L 564.40487 347.198 
L 564.40487 0 
L 0 0 
z
" style="fill: #ffffff"/>
  </g>
  <g id="axes_1">
   <g id="line2d_1">
    <path d="M 65.313391 297.766957 
L 65.313391 249.90887 
" clip-path="url(#p167bfb78e1)" style="fill: none; stroke: #7f7f7f; stroke-width: 1.6; stroke-linecap: square"/>
   </g>
   <g id="line2d_2">
    <path d="M 65.313391 282.384 
L 126.845217 282.384 
" clip-path="url(#p167bfb78e1)" style="fill: none; stroke: #ff7f0e; stroke-width: 1.6; stroke-linecap: square"/>
   </g>
   <g id="line2d_3">
    <path d="M 126.845217 282.384 
L 126.845217 271.445009 
" clip-path="url(#p167bfb78e1)" style="fill: none; stroke: #ff7f0e; stroke-width: 1.6; stroke-linecap: square"/>
   </g>
   <g id="line2d_4">
    <path d="M 126.845217 245.464904 
L 126.845217 234.525913 
" clip-path="url(#p167bfb78e1)" style="fill: none; stroke: #ff7f0e; stroke-width: 1.6; stroke-linecap: square"/>
   </g>
   <g id="line2d_5">
    <path d="M 65.313391 208.887652 
L 65.313391 161.029565 
" clip-path="url(#p167bfb78e1)" style="fill: none; stroke: #7f7f7f; stroke-width: 1.6; stroke-linecap: square"/>
   </g>
   <g id="line2d_6">
    <path d="M 65.313391 193.504696 
L 126.845217 193.504696 
" clip-path="url(#p167bfb78e1)" style="fill: none; stroke: #ff7f0e; stroke-width: 1.6; stroke-linecap: square"/>
   </g>
   <g id="line2d_7">
    <path d="M 126.845217 193.504696 
L 126.845217 182.565704 
" clip-path="url(#p167bfb78e1)" style="fill: none; stroke: #ff7f0e; stroke-width: 1.6; stroke-linecap: square"/>
   </g>
   <g id="line2d_8">
    <path d="M 126.845217 156.5856 
L 126.845217 145.646609 
" clip-path="url(#p167bfb78e1)" style="fill: none; stroke: #ff7f0e; stroke-width: 1.6; stroke-linecap: square"/>
   </g>
   <g id="line2d_9">
    <path d="M 65.313391 120.008348 
L 65.313391 72.150261 
" clip-path="url(#p167bfb78e1)" style="fill: none; stroke: #7f7f7f; stroke-width: 1.6; stroke-linecap: square"/>
   </g>
   <g id="line2d_10">
    <path d="M 65.313391 104.625391 
L 126.845217 104.625391 
" clip-path="url(#p167bfb78e1)" style="fill: none; stroke: #ff7f0e; stroke-width: 1.6; stroke-linecap: square"/>
   </g>
   <g id="line2d_11">
    <path d="M 126.845217 104.625391 
L 126.845217 93.6864 
" clip-path="url(#p167bfb78e1)" style="fill: none; stroke: #ff7f0e; stroke-width: 1.6; stroke-linecap: square"/>
   </g>
   <g id="line2d_12">
    <path d="M 126.845217 67.706296 
L 126.845217 56.767304 
" clip-path="url(#p167bfb78e1)" style="fill: none; stroke: #ff7f0e; stroke-width: 1.6; stroke-linecap: square"/>
   </g>
   <g id="patch_2">
    <path d="M 65.313391 249.90887 
Q 65.313391 246.661357 65.313391 245.202698 
" style="fill: none; stroke: #7f7f7f; stroke-width: 1.6; stroke-linecap: round"/>
    <path d="M 63.113391 249.602698 
L 65.313391 245.202698 
L 67.513391 249.602698 
" style="fill: none; stroke: #7f7f7f; stroke-width: 1.6; stroke-linecap: round"/>
   </g>
   <g id="patch_3">
    <path d="M 65.313391 243.413843 
C 67.670498 243.413843 69.931381 242.477355 71.598107 240.810629 
C 73.264833 239.143903 74.201322 236.88302 74.201322 234.525913 
C 74.201322 232.168806 73.264833 229.907923 71.598107 228.241197 
C 69.931381 226.574471 67.670498 225.637983 65.313391 225.637983 
C 62.956285 225.637983 60.695402 226.574471 59.028675 228.241197 
C 57.361949 229.907923 56.425461 232.168806 56.425461 234.525913 
C 56.425461 236.88302 57.361949 239.143903 59.028675 240.810629 
C 60.695402 242.477355 62.956285 243.413843 65.313391 243.413843 
L 65.313391 243.413843 
z
" clip-path="url(#p167bfb78e1)" style="fill: none; stroke: #000000; stroke-width: 1.2; stroke-linejoin: miter"/>
   </g>
   <g id="text_1">
    <!-- + -->
    <g transform="translate(60.285579 237.837163) scale(0.12 -0.12)">
     <defs>
      <path id="DejaVuSans-2b" d="M 2944 4013 
L 2944 2272 
L 4684 2272 
L 4684 1741 
L 2944 1741 
L 2944 0 
L 2419 0 
L 2419 1741 
L 678 1741 
L 678 2272 
L 2419 2272 
L 2419 4013 
L 2944 4013 
z
" transform="scale(0.015625)"/>
     </defs>
     <use xlink:href="#DejaVuSans-2b"/>
    </g>
   </g>
   <g id="patch_4">
    <path d="M 65.313391 225.637983 
Q 65.313391 218.630191 65.313391 213.411254 
" style="fill: none; stroke: #7f7f7f; stroke-width: 1.6; stroke-linecap: round"/>
    <path d="M 63.113391 217.811254 
L 65.313391 213.411254 
L 67.513391 217.811254 
" style="fill: none; stroke: #7f7f7f; stroke-width: 1.6; stroke-linecap: round"/>
   </g>
   <g id="patch_5">
    <path d="M 101.206957 271.445009 
L 152.483478 271.445009 
L 152.483478 245.464904 
L 101.206957 245.464904 
z
" clip-path="url(#p167bfb78e1)" style="fill: #ffffff; stroke: #ff7f0e; stroke-width: 1.5; stroke-linejoin: miter"/>
   </g>
   <g id="patch_6">
    <path d="M 126.845217 234.525913 
Q 100.52327 234.525913 75.990176 234.525913 
" style="fill: none; stroke: #ff7f0e; stroke-width: 1.6; stroke-linecap: round"/>
    <path d="M 80.390176 236.725913 
L 75.990176 234.525913 
L 80.390176 232.325913 
" style="fill: none; stroke: #ff7f0e; stroke-width: 1.6; stroke-linecap: round"/>
   </g>
   <g id="text_2">
    <!-- $\mathbf{x}_0$ -->
    <g style="fill: #1f77b4" transform="translate(42.800713 300.802269) scale(0.11 -0.11)">
     <defs>
      <path id="Cmb10-78" d="M 109 0 
L 109 325 
Q 628 325 678 384 
L 1381 1350 
L 588 2516 
L 141 2516 
L 141 2841 
L 1606 2841 
L 1606 2516 
L 1331 2516 
L 1766 1881 
L 2181 2463 
Q 2181 2491 2072 2503 
Q 1963 2516 1888 2516 
L 1888 2841 
L 3156 2841 
L 3156 2516 
Q 2638 2516 2584 2456 
L 1959 1594 
L 2816 325 
L 3272 325 
L 3272 0 
L 1797 0 
L 1797 325 
L 2075 325 
L 1575 1063 
L 1081 378 
Q 1081 356 1193 340 
Q 1306 325 1381 325 
L 1381 0 
L 109 0 
z
" transform="scale(0.015625)"/>
      <path id="Cmr10-30" d="M 1600 -141 
Q 816 -141 533 504 
Q 250 1150 250 2041 
Q 250 2597 351 3087 
Q 453 3578 754 3920 
Q 1056 4263 1600 4263 
Q 2022 4263 2290 4056 
Q 2559 3850 2700 3523 
Q 2841 3197 2892 2823 
Q 2944 2450 2944 2041 
Q 2944 1491 2842 1011 
Q 2741 531 2444 195 
Q 2147 -141 1600 -141 
z
M 1600 25 
Q 1956 25 2131 390 
Q 2306 756 2347 1200 
Q 2388 1644 2388 2144 
Q 2388 2625 2347 3031 
Q 2306 3438 2132 3767 
Q 1959 4097 1600 4097 
Q 1238 4097 1063 3765 
Q 888 3434 847 3029 
Q 806 2625 806 2144 
Q 806 1788 823 1472 
Q 841 1156 916 820 
Q 991 484 1158 254 
Q 1325 25 1600 25 
z
" transform="scale(0.015625)"/>
     </defs>
     <use xlink:href="#Cmb10-78" transform="translate(0 0.609375)"/>
     <use xlink:href="#Cmr10-30" transform="translate(57.149687 -16.396875) scale(0.7)"/>
    </g>
   </g>
   <g id="patch_7">
    <path d="M 65.313391 161.029565 
Q 65.313391 157.782052 65.313391 156.323394 
" style="fill: none; stroke: #7f7f7f; stroke-width: 1.6; stroke-linecap: round"/>
    <path d="M 63.113391 160.723394 
L 65.313391 156.323394 
L 67.513391 160.723394 
" style="fill: none; stroke: #7f7f7f; stroke-width: 1.6; stroke-linecap: round"/>
   </g>
   <g id="patch_8">
    <path d="M 65.313391 154.534539 
C 67.670498 154.534539 69.931381 153.598051 71.598107 151.931325 
C 73.264833 150.264598 74.201322 148.003715 74.201322 145.646609 
C 74.201322 143.289502 73.264833 141.028619 71.598107 139.361893 
C 69.931381 137.695167 67.670498 136.758678 65.313391 136.758678 
C 62.956285 136.758678 60.695402 137.695167 59.028675 139.361893 
C 57.361949 141.028619 56.425461 143.289502 56.425461 145.646609 
C 56.425461 148.003715 57.361949 150.264598 59.028675 151.931325 
C 60.695402 153.598051 62.956285 154.534539 65.313391 154.534539 
L 65.313391 154.534539 
z
" clip-path="url(#p167bfb78e1)" style="fill: none; stroke: #000000; stroke-width: 1.2; stroke-linejoin: miter"/>
   </g>
   <g id="text_3">
    <!-- + -->
    <g transform="translate(60.285579 148.957859) scale(0.12 -0.12)">
     <use xlink:href="#DejaVuSans-2b"/>
    </g>
   </g>
   <g id="patch_9">
    <path d="M 65.313391 136.758678 
Q 65.313391 129.750887 65.313391 124.53195 
" style="fill: none; stroke: #7f7f7f; stroke-width: 1.6; stroke-linecap: round"/>
    <path d="M 63.113391 128.93195 
L 65.313391 124.53195 
L 67.513391 128.93195 
" style="fill: none; stroke: #7f7f7f; stroke-width: 1.6; stroke-linecap: round"/>
   </g>
   <g id="patch_10">
    <path d="M 101.206957 182.565704 
L 152.483478 182.565704 
L 152.483478 156.5856 
L 101.206957 156.5856 
z
" clip-path="url(#p167bfb78e1)" style="fill: #ffffff; stroke: #ff7f0e; stroke-width: 1.5; stroke-linejoin: miter"/>
   </g>
   <g id="patch_11">
    <path d="M 126.845217 145.646609 
Q 100.52327 145.646609 75.990176 145.646609 
" style="fill: none; stroke: #ff7f0e; stroke-width: 1.6; stroke-linecap: round"/>
    <path d="M 80.390176 147.846609 
L 75.990176 145.646609 
L 80.390176 143.446609 
" style="fill: none; stroke: #ff7f0e; stroke-width: 1.6; stroke-linecap: round"/>
   </g>
   <g id="text_4">
    <!-- $\mathbf{x}_1$ -->
    <g style="fill: #1f77b4" transform="translate(42.800713 211.922965) scale(0.11 -0.11)">
     <defs>
      <path id="Cmr10-31" d="M 594 0 
L 594 225 
Q 1394 225 1394 428 
L 1394 3788 
Q 1063 3628 556 3628 
L 556 3853 
Q 1341 3853 1741 4263 
L 1831 4263 
Q 1853 4263 1873 4245 
Q 1894 4228 1894 4206 
L 1894 428 
Q 1894 225 2694 225 
L 2694 0 
L 594 0 
z
" transform="scale(0.015625)"/>
     </defs>
     <use xlink:href="#Cmb10-78" transform="translate(0 0.609375)"/>
     <use xlink:href="#Cmr10-31" transform="translate(57.149687 -16.396875) scale(0.7)"/>
    </g>
   </g>
   <g id="patch_12">
    <path d="M 65.313391 72.150261 
Q 65.313391 68.902748 65.313391 67.444089 
" style="fill: none; stroke: #7f7f7f; stroke-width: 1.6; stroke-linecap: round"/>
    <path d="M 63.113391 71.844089 
L 65.313391 67.444089 
L 67.513391 71.844089 
" style="fill: none; stroke: #7f7f7f; stroke-width: 1.6; stroke-linecap: round"/>
   </g>
   <g id="patch_13">
    <path d="M 65.313391 65.655235 
C 67.670498 65.655235 69.931381 64.718746 71.598107 63.05202 
C 73.264833 61.385294 74.201322 59.124411 74.201322 56.767304 
C 74.201322 54.410198 73.264833 52.149315 71.598107 50.482588 
C 69.931381 48.815862 67.670498 47.879374 65.313391 47.879374 
C 62.956285 47.879374 60.695402 48.815862 59.028675 50.482588 
C 57.361949 52.149315 56.425461 54.410198 56.425461 56.767304 
C 56.425461 59.124411 57.361949 61.385294 59.028675 63.05202 
C 60.695402 64.718746 62.956285 65.655235 65.313391 65.655235 
L 65.313391 65.655235 
z
" clip-path="url(#p167bfb78e1)" style="fill: none; stroke: #000000; stroke-width: 1.2; stroke-linejoin: miter"/>
   </g>
   <g id="text_5">
    <!-- + -->
    <g transform="translate(60.285579 60.078554) scale(0.12 -0.12)">
     <use xlink:href="#DejaVuSans-2b"/>
    </g>
   </g>
   <g id="patch_14">
    <path d="M 65.313391 47.879374 
Q 65.313391 40.871583 65.313391 35.652646 
" style="fill: none; stroke: #7f7f7f; stroke-width: 1.6; stroke-linecap: round"/>
    <path d="M 63.113391 40.052646 
L 65.313391 35.652646 
L 67.513391 40.052646 
" style="fill: none; stroke: #7f7f7f; stroke-width: 1.6; stroke-linecap: round"/>
   </g>
   <g id="patch_15">
    <path d="M 101.206957 93.6864 
L 152.483478 93.6864 
L 152.483478 67.706296 
L 101.206957 67.706296 
z
" clip-path="url(#p167bfb78e1)" style="fill: #ffffff; stroke: #ff7f0e; stroke-width: 1.5; stroke-linejoin: miter"/>
   </g>
   <g id="patch_16">
    <path d="M 126.845217 56.767304 
Q 100.52327 56.767304 75.990176 56.767304 
" style="fill: none; stroke: #ff7f0e; stroke-width: 1.6; stroke-linecap: round"/>
    <path d="M 80.390176 58.967304 
L 75.990176 56.767304 
L 80.390176 54.567304 
" style="fill: none; stroke: #ff7f0e; stroke-width: 1.6; stroke-linecap: round"/>
   </g>
   <g id="text_6">
    <!-- $\mathbf{x}_2$ -->
    <g style="fill: #1f77b4" transform="translate(42.800713 123.04366) scale(0.11 -0.11)">
     <defs>
      <path id="Cmr10-32" d="M 319 0 
L 319 172 
Q 319 188 331 206 
L 1325 1306 
Q 1550 1550 1690 1715 
Q 1831 1881 1968 2097 
Q 2106 2313 2186 2536 
Q 2266 2759 2266 3009 
Q 2266 3272 2169 3511 
Q 2072 3750 1880 3894 
Q 1688 4038 1416 4038 
Q 1138 4038 916 3870 
Q 694 3703 603 3438 
Q 628 3444 672 3444 
Q 816 3444 917 3347 
Q 1019 3250 1019 3097 
Q 1019 2950 917 2848 
Q 816 2747 672 2747 
Q 522 2747 420 2851 
Q 319 2956 319 3097 
Q 319 3338 409 3548 
Q 500 3759 670 3923 
Q 841 4088 1055 4175 
Q 1269 4263 1509 4263 
Q 1875 4263 2190 4108 
Q 2506 3953 2690 3670 
Q 2875 3388 2875 3009 
Q 2875 2731 2753 2481 
Q 2631 2231 2440 2026 
Q 2250 1822 1953 1562 
Q 1656 1303 1563 1216 
L 838 519 
L 1453 519 
Q 1906 519 2211 526 
Q 2516 534 2534 550 
Q 2609 631 2688 1141 
L 2875 1141 
L 2694 0 
L 319 0 
z
" transform="scale(0.015625)"/>
     </defs>
     <use xlink:href="#Cmb10-78" transform="translate(0 0.609375)"/>
     <use xlink:href="#Cmr10-32" transform="translate(57.149687 -16.396875) scale(0.7)"/>
    </g>
   </g>
   <g id="text_7">
    <!-- $\mathbf{x}_3$ -->
    <g style="fill: #1f77b4" transform="translate(42.800713 34.164356) scale(0.11 -0.11)">
     <defs>
      <path id="Cmr10-33" d="M 609 494 
Q 759 275 1012 169 
Q 1266 63 1556 63 
Q 1928 63 2084 380 
Q 2241 697 2241 1100 
Q 2241 1281 2208 1462 
Q 2175 1644 2097 1800 
Q 2019 1956 1883 2050 
Q 1747 2144 1550 2144 
L 1125 2144 
Q 1069 2144 1069 2203 
L 1069 2259 
Q 1069 2309 1125 2309 
L 1478 2338 
Q 1703 2338 1851 2506 
Q 2000 2675 2069 2917 
Q 2138 3159 2138 3378 
Q 2138 3684 1994 3881 
Q 1850 4078 1556 4078 
Q 1313 4078 1091 3986 
Q 869 3894 738 3706 
Q 750 3709 759 3711 
Q 769 3713 781 3713 
Q 925 3713 1022 3613 
Q 1119 3513 1119 3372 
Q 1119 3234 1022 3134 
Q 925 3034 781 3034 
Q 641 3034 541 3134 
Q 441 3234 441 3372 
Q 441 3647 606 3850 
Q 772 4053 1033 4158 
Q 1294 4263 1556 4263 
Q 1750 4263 1965 4205 
Q 2181 4147 2356 4039 
Q 2531 3931 2642 3762 
Q 2753 3594 2753 3378 
Q 2753 3109 2633 2881 
Q 2513 2653 2303 2487 
Q 2094 2322 1844 2241 
Q 2122 2188 2372 2031 
Q 2622 1875 2773 1631 
Q 2925 1388 2925 1106 
Q 2925 753 2731 467 
Q 2538 181 2222 20 
Q 1906 -141 1556 -141 
Q 1256 -141 954 -26 
Q 653 88 461 316 
Q 269 544 269 863 
Q 269 1022 375 1128 
Q 481 1234 641 1234 
Q 744 1234 830 1186 
Q 916 1138 964 1050 
Q 1013 963 1013 863 
Q 1013 706 903 600 
Q 794 494 641 494 
L 609 494 
z
" transform="scale(0.015625)"/>
     </defs>
     <use xlink:href="#Cmb10-78" transform="translate(0 0.609375)"/>
     <use xlink:href="#Cmr10-33" transform="translate(57.149687 -16.396875) scale(0.7)"/>
    </g>
   </g>
   <g id="text_8">
    <!-- identity skip -->
    <g style="fill: #7f7f7f" transform="translate(50.823354 285.593476) rotate(-90) scale(0.105 -0.105)">
     <defs>
      <path id="DejaVuSans-69" d="M 603 3500 
L 1178 3500 
L 1178 0 
L 603 0 
L 603 3500 
z
M 603 4863 
L 1178 4863 
L 1178 4134 
L 603 4134 
L 603 4863 
z
" transform="scale(0.015625)"/>
      <path id="DejaVuSans-64" d="M 2906 2969 
L 2906 4863 
L 3481 4863 
L 3481 0 
L 2906 0 
L 2906 525 
Q 2725 213 2448 61 
Q 2172 -91 1784 -91 
Q 1150 -91 751 415 
Q 353 922 353 1747 
Q 353 2572 751 3078 
Q 1150 3584 1784 3584 
Q 2172 3584 2448 3432 
Q 2725 3281 2906 2969 
z
M 947 1747 
Q 947 1113 1208 752 
Q 1469 391 1925 391 
Q 2381 391 2643 752 
Q 2906 1113 2906 1747 
Q 2906 2381 2643 2742 
Q 2381 3103 1925 3103 
Q 1469 3103 1208 2742 
Q 947 2381 947 1747 
z
" transform="scale(0.015625)"/>
      <path id="DejaVuSans-65" d="M 3597 1894 
L 3597 1613 
L 953 1613 
Q 991 1019 1311 708 
Q 1631 397 2203 397 
Q 2534 397 2845 478 
Q 3156 559 3463 722 
L 3463 178 
Q 3153 47 2828 -22 
Q 2503 -91 2169 -91 
Q 1331 -91 842 396 
Q 353 884 353 1716 
Q 353 2575 817 3079 
Q 1281 3584 2069 3584 
Q 2775 3584 3186 3129 
Q 3597 2675 3597 1894 
z
M 3022 2063 
Q 3016 2534 2758 2815 
Q 2500 3097 2075 3097 
Q 1594 3097 1305 2825 
Q 1016 2553 972 2059 
L 3022 2063 
z
" transform="scale(0.015625)"/>
      <path id="DejaVuSans-6e" d="M 3513 2113 
L 3513 0 
L 2938 0 
L 2938 2094 
Q 2938 2591 2744 2837 
Q 2550 3084 2163 3084 
Q 1697 3084 1428 2787 
Q 1159 2491 1159 1978 
L 1159 0 
L 581 0 
L 581 3500 
L 1159 3500 
L 1159 2956 
Q 1366 3272 1645 3428 
Q 1925 3584 2291 3584 
Q 2894 3584 3203 3211 
Q 3513 2838 3513 2113 
z
" transform="scale(0.015625)"/>
      <path id="DejaVuSans-74" d="M 1172 4494 
L 1172 3500 
L 2356 3500 
L 2356 3053 
L 1172 3053 
L 1172 1153 
Q 1172 725 1289 603 
Q 1406 481 1766 481 
L 2356 481 
L 2356 0 
L 1766 0 
Q 1100 0 847 248 
Q 594 497 594 1153 
L 594 3053 
L 172 3053 
L 172 3500 
L 594 3500 
L 594 4494 
L 1172 4494 
z
" transform="scale(0.015625)"/>
      <path id="DejaVuSans-79" d="M 2059 -325 
Q 1816 -950 1584 -1140 
Q 1353 -1331 966 -1331 
L 506 -1331 
L 506 -850 
L 844 -850 
Q 1081 -850 1212 -737 
Q 1344 -625 1503 -206 
L 1606 56 
L 191 3500 
L 800 3500 
L 1894 763 
L 2988 3500 
L 3597 3500 
L 2059 -325 
z
" transform="scale(0.015625)"/>
      <path id="DejaVuSans-20" transform="scale(0.015625)"/>
      <path id="DejaVuSans-73" d="M 2834 3397 
L 2834 2853 
Q 2591 2978 2328 3040 
Q 2066 3103 1784 3103 
Q 1356 3103 1142 2972 
Q 928 2841 928 2578 
Q 928 2378 1081 2264 
Q 1234 2150 1697 2047 
L 1894 2003 
Q 2506 1872 2764 1633 
Q 3022 1394 3022 966 
Q 3022 478 2636 193 
Q 2250 -91 1575 -91 
Q 1294 -91 989 -36 
Q 684 19 347 128 
L 347 722 
Q 666 556 975 473 
Q 1284 391 1588 391 
Q 1994 391 2212 530 
Q 2431 669 2431 922 
Q 2431 1156 2273 1281 
Q 2116 1406 1581 1522 
L 1381 1569 
Q 847 1681 609 1914 
Q 372 2147 372 2553 
Q 372 3047 722 3315 
Q 1072 3584 1716 3584 
Q 2034 3584 2315 3537 
Q 2597 3491 2834 3397 
z
" transform="scale(0.015625)"/>
      <path id="DejaVuSans-6b" d="M 581 4863 
L 1159 4863 
L 1159 1991 
L 2875 3500 
L 3609 3500 
L 1753 1863 
L 3688 0 
L 2938 0 
L 1159 1709 
L 1159 0 
L 581 0 
L 581 4863 
z
" transform="scale(0.015625)"/>
      <path id="DejaVuSans-70" d="M 1159 525 
L 1159 -1331 
L 581 -1331 
L 581 3500 
L 1159 3500 
L 1159 2969 
Q 1341 3281 1617 3432 
Q 1894 3584 2278 3584 
Q 2916 3584 3314 3078 
Q 3713 2572 3713 1747 
Q 3713 922 3314 415 
Q 2916 -91 2278 -91 
Q 1894 -91 1617 61 
Q 1341 213 1159 525 
z
M 3116 1747 
Q 3116 2381 2855 2742 
Q 2594 3103 2138 3103 
Q 1681 3103 1420 2742 
Q 1159 2381 1159 1747 
Q 1159 1113 1420 752 
Q 1681 391 2138 391 
Q 2594 391 2855 752 
Q 3116 1113 3116 1747 
z
" transform="scale(0.015625)"/>
     </defs>
     <use xlink:href="#DejaVuSans-69"/>
     <use xlink:href="#DejaVuSans-64" transform="translate(27.783203 0)"/>
     <use xlink:href="#DejaVuSans-65" transform="translate(91.259766 0)"/>
     <use xlink:href="#DejaVuSans-6e" transform="translate(152.783203 0)"/>
     <use xlink:href="#DejaVuSans-74" transform="translate(216.162109 0)"/>
     <use xlink:href="#DejaVuSans-69" transform="translate(255.371094 0)"/>
     <use xlink:href="#DejaVuSans-74" transform="translate(283.154297 0)"/>
     <use xlink:href="#DejaVuSans-79" transform="translate(322.363281 0)"/>
     <use xlink:href="#DejaVuSans-20" transform="translate(381.542969 0)"/>
     <use xlink:href="#DejaVuSans-73" transform="translate(413.330078 0)"/>
     <use xlink:href="#DejaVuSans-6b" transform="translate(465.429688 0)"/>
     <use xlink:href="#DejaVuSans-69" transform="translate(523.339844 0)"/>
     <use xlink:href="#DejaVuSans-70" transform="translate(551.123047 0)"/>
    </g>
   </g>
   <g id="text_9">
    <!-- $\mathbf{f}_\theta$ -->
    <g style="fill: #ff7f0e" transform="translate(122.720217 261.490269) scale(0.11 -0.11)">
     <defs>
      <path id="Cmb10-66" d="M 159 0 
L 159 325 
L 603 325 
L 603 2516 
L 244 2516 
L 244 2841 
L 603 2841 
L 603 3525 
Q 603 3853 801 4070 
Q 1000 4288 1304 4384 
Q 1609 4481 1931 4481 
Q 2188 4481 2380 4318 
Q 2572 4156 2572 3909 
Q 2572 3738 2453 3619 
Q 2334 3500 2169 3500 
Q 2003 3500 1881 3622 
Q 1759 3744 1759 3909 
Q 1759 4106 1900 4225 
L 1869 4225 
Q 1581 4225 1431 4014 
Q 1281 3803 1281 3506 
L 1281 2841 
L 1900 2841 
L 1900 2516 
L 1319 2516 
L 1319 325 
L 1875 325 
L 1875 0 
L 159 0 
z
" transform="scale(0.015625)"/>
      <path id="Cmmi10-b5" d="M 1031 -72 
Q 741 -72 566 140 
Q 391 353 323 653 
Q 256 953 256 1247 
L 256 1253 
Q 256 1572 317 1915 
Q 378 2259 493 2601 
Q 609 2944 744 3213 
Q 838 3400 986 3631 
Q 1134 3863 1317 4064 
Q 1500 4266 1711 4389 
Q 1922 4513 2138 4513 
L 2144 4513 
Q 2375 4513 2529 4384 
Q 2684 4256 2770 4056 
Q 2856 3856 2890 3628 
Q 2925 3400 2925 3194 
Q 2925 2709 2794 2204 
Q 2663 1700 2431 1228 
Q 2344 1050 2189 809 
Q 2034 569 1861 378 
Q 1688 188 1472 58 
Q 1256 -72 1038 -72 
L 1031 -72 
z
M 1044 97 
Q 1256 97 1451 323 
Q 1647 550 1794 873 
Q 1941 1197 2052 1536 
Q 2163 1875 2216 2113 
L 909 2113 
Q 809 1709 753 1417 
Q 697 1125 697 844 
Q 697 97 1044 97 
z
M 959 2338 
L 2272 2338 
Q 2341 2619 2381 2808 
Q 2422 2997 2450 3206 
Q 2478 3416 2478 3597 
Q 2478 4347 2138 4347 
Q 1731 4347 1436 3692 
Q 1141 3038 959 2338 
z
" transform="scale(0.015625)"/>
     </defs>
     <use xlink:href="#Cmb10-66" transform="translate(0 0.984375)"/>
     <use xlink:href="#Cmmi10-b5" transform="translate(34.981719 -16.021875) scale(0.7)"/>
    </g>
   </g>
   <g id="text_10">
    <!-- $\mathbf{f}_\theta$ -->
    <g style="fill: #ff7f0e" transform="translate(122.720217 172.610965) scale(0.11 -0.11)">
     <use xlink:href="#Cmb10-66" transform="translate(0 0.984375)"/>
     <use xlink:href="#Cmmi10-b5" transform="translate(34.981719 -16.021875) scale(0.7)"/>
    </g>
   </g>
   <g id="text_11">
    <!-- $\mathbf{f}_\theta$ -->
    <g style="fill: #ff7f0e" transform="translate(122.720217 83.73166) scale(0.11 -0.11)">
     <use xlink:href="#Cmb10-66" transform="translate(0 0.984375)"/>
     <use xlink:href="#Cmmi10-b5" transform="translate(34.981719 -16.021875) scale(0.7)"/>
    </g>
   </g>
   <g id="line2d_13">
    <defs>
     <path id="m02aa2b9f1b" d="M 0 3 
C 0.795609 3 1.55874 2.683901 2.12132 2.12132 
C 2.683901 1.55874 3 0.795609 3 0 
C 3 -0.795609 2.683901 -1.55874 2.12132 -2.12132 
C 1.55874 -2.683901 0.795609 -3 0 -3 
C -0.795609 -3 -1.55874 -2.683901 -2.12132 -2.12132 
C -2.683901 -1.55874 -3 -0.795609 -3 0 
C -3 0.795609 -2.683901 1.55874 -2.12132 2.12132 
C -1.55874 2.683901 -0.795609 3 0 3 
z
" style="stroke: #1f77b4"/>
    </defs>
    <g clip-path="url(#p167bfb78e1)">
     <use xlink:href="#m02aa2b9f1b" x="65.313391" y="297.766957" style="fill: #1f77b4; stroke: #1f77b4"/>
    </g>
   </g>
   <g id="line2d_14">
    <g clip-path="url(#p167bfb78e1)">
     <use xlink:href="#m02aa2b9f1b" x="65.313391" y="208.887652" style="fill: #1f77b4; stroke: #1f77b4"/>
    </g>
   </g>
   <g id="line2d_15">
    <g clip-path="url(#p167bfb78e1)">
     <use xlink:href="#m02aa2b9f1b" x="65.313391" y="120.008348" style="fill: #1f77b4; stroke: #1f77b4"/>
    </g>
   </g>
   <g id="line2d_16">
    <g clip-path="url(#p167bfb78e1)">
     <use xlink:href="#m02aa2b9f1b" x="65.313391" y="31.129043" style="fill: #1f77b4; stroke: #1f77b4"/>
    </g>
   </g>
  </g>
  <g id="axes_2">
   <g id="patch_17">
    <path d="M 242.70887 321.696 
L 557.20487 321.696 
L 557.20487 7.2 
L 242.70887 7.2 
z
" style="fill: #ffffff"/>
   </g>
   <g id="Quiver_1">
    <path d="M 243.659997 303.257834 
L 257.144155 316.741992 
L 258.033684 314.962934 
L 260.702271 321.189637 
L 254.475568 318.52105 
L 256.254626 317.631521 
L 242.770468 304.147363 
L 243.659997 303.257834 
" clip-path="url(#p33eb929ac2)" style="fill: #cfcfcf"/>
    <path d="M 270.522283 304.805516 
L 283.628005 315.52838 
L 284.336097 313.66964 
L 287.61102 319.599906 
L 281.149685 317.564143 
L 282.831402 316.502006 
L 269.72568 305.779142 
L 270.522283 304.805516 
" clip-path="url(#p33eb929ac2)" style="fill: #cfcfcf"/>
    <path d="M 297.37042 306.351403 
L 310.081552 314.440306 
L 310.563967 312.510646 
L 314.519769 318.010176 
L 307.862444 316.755897 
L 309.406171 315.501618 
L 296.695039 307.412716 
L 297.37042 306.351403 
" clip-path="url(#p33eb929ac2)" style="fill: #cfcfcf"/>
    <path d="M 324.201757 307.899177 
L 336.535277 313.505323 
L 336.7435 311.527204 
L 341.428517 316.420445 
L 334.66127 316.10811 
L 336.01472 314.650549 
L 323.6812 309.044404 
L 324.201757 307.899177 
" clip-path="url(#p33eb929ac2)" style="fill: #cfcfcf"/>
    <path d="M 351.015726 309.454693 
L 363.041306 312.734396 
L 362.930974 310.748412 
L 368.337266 314.830714 
L 361.606984 315.603041 
L 362.710309 313.948054 
L 350.684728 310.66835 
L 351.015726 309.454693 
" clip-path="url(#p33eb929ac2)" style="fill: #cfcfcf"/>
    <path d="M 377.815922 311.024843 
L 389.665281 312.102058 
L 389.209711 310.165885 
L 395.246015 313.240983 
L 388.754141 315.177156 
L 389.551389 313.354876 
L 377.702029 312.277661 
L 377.815922 311.024843 
" clip-path="url(#p33eb929ac2)" style="fill: #cfcfcf"/>
    <path d="M 404.610778 312.614574 
L 416.460137 311.53736 
L 415.66289 309.715079 
L 422.154763 311.651252 
L 416.11846 314.72635 
L 416.57403 312.790177 
L 404.724671 313.867392 
L 404.610778 312.614574 
" clip-path="url(#p33eb929ac2)" style="fill: #cfcfcf"/>
    <path d="M 431.410974 314.223885 
L 443.436555 310.944181 
L 442.33323 309.289194 
L 449.063512 310.061521 
L 443.65722 314.143824 
L 443.767552 312.157839 
L 431.741972 315.437543 
L 431.410974 314.223885 
" clip-path="url(#p33eb929ac2)" style="fill: #cfcfcf"/>
    <path d="M 458.224943 315.847831 
L 470.558463 310.241686 
L 469.205013 308.784125 
L 475.972261 308.471791 
L 471.287243 313.365031 
L 471.07902 311.386913 
L 458.7455 316.993058 
L 458.224943 315.847831 
" clip-path="url(#p33eb929ac2)" style="fill: #cfcfcf"/>
    <path d="M 485.05628 317.479519 
L 497.767412 309.390617 
L 496.223685 308.136338 
L 502.881009 306.88206 
L 498.925208 312.381589 
L 498.442793 310.45193 
L 485.731661 318.540832 
L 485.05628 317.479519 
" clip-path="url(#p33eb929ac2)" style="fill: #cfcfcf"/>
    <path d="M 511.904418 319.113093 
L 525.01014 308.39023 
L 523.328423 307.328092 
L 529.789758 305.292329 
L 526.514835 311.222596 
L 525.806743 309.363855 
L 512.701021 320.086719 
L 511.904418 319.113093 
" clip-path="url(#p33eb929ac2)" style="fill: #cfcfcf"/>
    <path d="M 538.766703 320.744873 
L 552.250862 307.260714 
L 550.471804 306.371185 
L 556.698507 303.702598 
L 554.02992 309.929301 
L 553.140391 308.150243 
L 539.656232 321.634402 
L 538.766703 320.744873 
" clip-path="url(#p33eb929ac2)" style="fill: #cfcfcf"/>
    <path d="M 245.291776 276.395548 
L 256.01464 289.50127 
L 257.076777 287.819553 
L 259.112541 294.280888 
L 253.182274 291.005965 
L 255.041014 290.297873 
L 244.31815 277.192151 
L 245.291776 276.395548 
" clip-path="url(#p33eb929ac2)" style="fill: #cfcfcf"/>
    <path d="M 272.158476 277.938816 
L 282.463173 288.243513 
L 283.352702 286.464455 
L 286.021289 292.691158 
L 279.794586 290.022571 
L 281.573644 289.133042 
L 271.268947 278.828345 
L 272.158476 277.938816 
" clip-path="url(#p33eb929ac2)" style="fill: #cfcfcf"/>
    <path d="M 299.008624 279.476815 
L 308.847736 287.129457 
L 309.509731 285.253805 
L 312.930038 291.101427 
L 306.420421 289.225774 
L 308.075408 288.122449 
L 298.236297 280.469807 
L 299.008624 279.476815 
" clip-path="url(#p33eb929ac2)" style="fill: #cfcfcf"/>
    <path d="M 325.836675 281.013204 
L 335.195711 286.212668 
L 335.562269 284.257689 
L 339.838787 289.511696 
L 333.118545 288.656393 
L 334.58478 287.312344 
L 325.225744 282.11288 
L 325.836675 281.013204 
" clip-path="url(#p33eb929ac2)" style="fill: #cfcfcf"/>
    <path d="M 352.638863 282.556059 
L 361.576012 285.535108 
L 361.576012 283.546061 
L 366.747535 287.921965 
L 359.984774 288.319775 
L 361.178203 286.728537 
L 352.241053 283.749487 
L 352.638863 282.556059 
" clip-path="url(#p33eb929ac2)" style="fill: #cfcfcf"/>
    <path d="M 379.418167 284.117359 
L 388.09944 285.081945 
L 387.682677 283.137049 
L 393.656284 286.332234 
L 387.126993 288.138209 
L 387.960519 286.332234 
L 379.279246 285.367648 
L 379.418167 284.117359 
" clip-path="url(#p33eb929ac2)" style="fill: #cfcfcf"/>
    <path d="M 406.187995 285.707089 
L 414.869268 284.742504 
L 414.035741 282.936529 
L 420.565033 284.742504 
L 414.591426 287.937689 
L 415.008189 285.992793 
L 406.326916 286.957379 
L 406.187995 285.707089 
" clip-path="url(#p33eb929ac2)" style="fill: #cfcfcf"/>
    <path d="M 432.967299 287.325251 
L 441.904449 284.346201 
L 440.71102 282.754963 
L 447.473781 283.152773 
L 442.302258 287.528677 
L 442.302258 285.53963 
L 433.365109 288.518679 
L 432.967299 287.325251 
" clip-path="url(#p33eb929ac2)" style="fill: #cfcfcf"/>
    <path d="M 459.769487 288.961858 
L 469.128523 283.762394 
L 467.662289 282.418345 
L 474.38253 281.563042 
L 470.106013 286.817049 
L 469.739454 284.86207 
L 460.380418 290.061534 
L 459.769487 288.961858 
" clip-path="url(#p33eb929ac2)" style="fill: #cfcfcf"/>
    <path d="M 486.597537 290.604931 
L 496.436649 282.952288 
L 494.781661 281.848964 
L 501.291279 279.973311 
L 497.870971 285.820933 
L 497.208976 283.945281 
L 487.369865 291.597923 
L 486.597537 290.604931 
" clip-path="url(#p33eb929ac2)" style="fill: #cfcfcf"/>
    <path d="M 513.447685 292.246393 
L 523.752382 281.941696 
L 521.973324 281.052167 
L 528.200027 278.38358 
L 525.53144 284.610283 
L 524.641911 282.831225 
L 514.337214 293.135922 
L 513.447685 292.246393 
" clip-path="url(#p33eb929ac2)" style="fill: #cfcfcf"/>
    <path d="M 540.314386 293.882587 
L 551.037249 280.776865 
L 549.178509 280.068773 
L 555.108776 276.793849 
L 553.073013 283.255185 
L 552.010875 281.573468 
L 541.288011 294.67919 
L 540.314386 293.882587 
" clip-path="url(#p33eb929ac2)" style="fill: #cfcfcf"/>
    <path d="M 246.92535 249.54741 
L 255.014253 262.258543 
L 256.268531 260.714815 
L 257.52281 267.37214 
L 252.023281 263.416338 
L 253.95294 262.933923 
L 245.864038 250.222791 
L 246.92535 249.54741 
" clip-path="url(#p33eb929ac2)" style="fill: #cfcfcf"/>
    <path d="M 273.799939 251.088668 
L 281.452581 260.927779 
L 282.555906 259.272792 
L 284.431558 265.782409 
L 278.583936 262.362102 
L 280.459589 261.700107 
L 272.806946 251.860995 
L 273.799939 251.088668 
" clip-path="url(#p33eb929ac2)" style="fill: #cfcfcf"/>
    <path d="M 300.656956 252.619798 
L 307.782191 259.745033 
L 308.67172 257.965975 
L 311.340307 264.192678 
L 305.113604 261.524091 
L 306.892662 260.634562 
L 299.767427 253.509327 
L 300.656956 252.619798 
" clip-path="url(#p33eb929ac2)" style="fill: #cfcfcf"/>
    <path d="M 327.486534 254.142461 
L 334.008163 258.800768 
L 334.593114 256.899678 
L 338.249056 262.602947 
L 331.668361 260.994333 
L 333.276975 259.824432 
L 326.755346 255.166125 
L 327.486534 254.142461 
" clip-path="url(#p33eb929ac2)" style="fill: #cfcfcf"/>
    <path d="M 354.277461 255.665889 
L 360.202363 258.205133 
L 360.367544 256.222956 
L 365.157804 261.013217 
L 358.385367 260.848035 
L 359.706819 259.361403 
L 353.781917 256.822159 
L 354.277461 255.665889 
" clip-path="url(#p33eb929ac2)" style="fill: #cfcfcf"/>
    <path d="M 381.02739 257.211085 
L 386.551473 258.000239 
L 386.195662 256.043275 
L 392.066553 259.423486 
L 385.484038 261.024638 
L 386.373567 259.24558 
L 380.849484 258.456425 
L 381.02739 257.211085 
" clip-path="url(#p33eb929ac2)" style="fill: #cfcfcf"/>
    <path d="M 407.758233 258.800815 
L 413.282316 258.011661 
L 412.392787 256.232603 
L 418.975302 257.833755 
L 413.10441 261.213965 
L 413.460222 259.257001 
L 407.936139 260.046156 
L 407.758233 258.800815 
" clip-path="url(#p33eb929ac2)" style="fill: #cfcfcf"/>
    <path d="M 434.508163 260.435082 
L 440.433065 257.895838 
L 439.111613 256.409205 
L 445.88405 256.244024 
L 441.09379 261.034284 
L 440.928609 259.052108 
L 435.003707 261.591351 
L 434.508163 260.435082 
" clip-path="url(#p33eb929ac2)" style="fill: #cfcfcf"/>
    <path d="M 461.299089 262.091116 
L 467.820718 257.432809 
L 466.212104 256.262908 
L 472.792799 254.654293 
L 469.136857 260.357562 
L 468.551907 258.456473 
L 462.030278 263.114779 
L 461.299089 262.091116 
" clip-path="url(#p33eb929ac2)" style="fill: #cfcfcf"/>
    <path d="M 488.128668 263.747914 
L 495.253903 256.622679 
L 493.474845 255.733149 
L 499.701548 253.064562 
L 497.032961 259.291266 
L 496.143432 257.512208 
L 489.018197 264.637443 
L 488.128668 263.747914 
" clip-path="url(#p33eb929ac2)" style="fill: #cfcfcf"/>
    <path d="M 514.985684 265.396245 
L 522.638327 255.557134 
L 520.762674 254.895139 
L 526.610296 251.474832 
L 524.734644 257.984449 
L 523.631319 256.329461 
L 515.978677 266.168573 
L 514.985684 265.396245 
" clip-path="url(#p33eb929ac2)" style="fill: #cfcfcf"/>
    <path d="M 541.860273 267.034449 
L 549.949175 254.323317 
L 548.019516 253.840903 
L 553.519045 249.885101 
L 552.264766 256.542426 
L 551.010488 254.998698 
L 542.921586 267.70983 
L 541.860273 267.034449 
" clip-path="url(#p33eb929ac2)" style="fill: #cfcfcf"/>
    <path d="M 248.557038 222.716073 
L 254.163184 235.049593 
L 255.620744 233.696144 
L 255.933079 240.463391 
L 251.039839 235.778374 
L 253.017957 235.570151 
L 247.411812 223.236631 
L 248.557038 222.716073 
" clip-path="url(#p33eb929ac2)" style="fill: #cfcfcf"/>
    <path d="M 275.443011 224.260617 
L 280.642476 233.619653 
L 281.986524 232.153419 
L 282.841828 238.87366 
L 277.587821 234.597143 
L 279.5428 234.230584 
L 274.343336 224.871548 
L 275.443011 224.260617 
" clip-path="url(#p33eb929ac2)" style="fill: #cfcfcf"/>
    <path d="M 302.313754 225.79022 
L 306.972061 232.311849 
L 308.141962 230.703234 
L 309.750576 237.28393 
L 304.047307 233.627988 
L 305.948397 233.043037 
L 301.29009 226.521408 
L 302.313754 225.79022 
" clip-path="url(#p33eb929ac2)" style="fill: #cfcfcf"/>
    <path d="M 329.155435 227.30078 
L 333.101209 231.246554 
L 333.990738 229.467496 
L 336.659325 235.694199 
L 330.432622 233.025612 
L 332.21168 232.136083 
L 328.265906 228.190309 
L 329.155435 227.30078 
" clip-path="url(#p33eb929ac2)" style="fill: #cfcfcf"/>
    <path d="M 355.943033 228.795919 
L 359.037482 230.652588 
L 359.468967 228.710906 
L 363.568074 234.104468 
L 356.880057 233.025756 
L 358.390254 231.731301 
L 355.295806 229.874632 
L 355.943033 228.795919 
" clip-path="url(#p33eb929ac2)" style="fill: #cfcfcf"/>
    <path d="M 382.651524 230.308229 
L 385.049181 230.78776 
L 384.80247 228.814073 
L 390.476822 232.514737 
L 383.815626 233.748292 
L 384.80247 232.021315 
L 382.404813 231.541784 
L 382.651524 230.308229 
" clip-path="url(#p33eb929ac2)" style="fill: #cfcfcf"/>
    <path d="M 409.313561 231.89796 
L 411.711219 231.418428 
L 410.724375 229.691451 
L 417.385571 230.925006 
L 411.711219 234.625671 
L 411.95793 232.651983 
L 409.560272 233.131514 
L 409.313561 231.89796 
" clip-path="url(#p33eb929ac2)" style="fill: #cfcfcf"/>
    <path d="M 436.022052 233.565112 
L 439.1165 231.708443 
L 437.606303 230.413988 
L 444.29432 229.335275 
L 440.195213 234.728837 
L 439.763728 232.787155 
L 436.669279 234.643824 
L 436.022052 233.565112 
" clip-path="url(#p33eb929ac2)" style="fill: #cfcfcf"/>
    <path d="M 462.80965 235.249434 
L 466.755423 231.303661 
L 464.976365 230.414132 
L 471.203068 227.745545 
L 468.534481 233.972248 
L 467.644952 232.19319 
L 463.699179 236.138963 
L 462.80965 235.249434 
" clip-path="url(#p33eb929ac2)" style="fill: #cfcfcf"/>
    <path d="M 489.651331 236.918335 
L 494.309638 230.396706 
L 492.408548 229.811756 
L 498.111817 226.155814 
L 496.503203 232.736509 
L 495.333301 231.127895 
L 490.674995 237.649524 
L 489.651331 236.918335 
" clip-path="url(#p33eb929ac2)" style="fill: #cfcfcf"/>
    <path d="M 516.522074 238.568195 
L 521.721538 229.209159 
L 519.766559 228.8426 
L 525.020566 224.566083 
L 524.165262 231.286324 
L 522.821214 229.82009 
L 517.621749 239.179126 
L 516.522074 238.568195 
" clip-path="url(#p33eb929ac2)" style="fill: #cfcfcf"/>
    <path d="M 543.408047 240.203112 
L 549.014192 227.869592 
L 547.036074 227.661369 
L 551.929314 222.976352 
L 551.61698 229.743599 
L 550.159419 228.39015 
L 544.553273 240.72367 
L 543.408047 240.203112 
" clip-path="url(#p33eb929ac2)" style="fill: #cfcfcf"/>
    <path d="M 250.180984 195.902105 
L 253.460688 207.927685 
L 255.115676 206.82436 
L 254.343348 213.554643 
L 250.261046 208.14835 
L 252.247031 208.258683 
L 248.967327 196.233102 
L 250.180984 195.902105 
" clip-path="url(#p33eb929ac2)" style="fill: #cfcfcf"/>
    <path d="M 277.079619 197.45843 
L 280.058668 206.395579 
L 281.649906 205.202151 
L 281.252097 211.964912 
L 276.876193 206.793389 
L 278.86524 206.793389 
L 275.88619 197.856239 
L 277.079619 197.45843 
" clip-path="url(#p33eb929ac2)" style="fill: #cfcfcf"/>
    <path d="M 303.969788 198.999293 
L 306.509032 204.924195 
L 307.995664 203.602744 
L 308.160845 210.375181 
L 303.370585 205.584921 
L 305.352762 205.419739 
L 302.813518 199.494837 
L 303.969788 198.999293 
" clip-path="url(#p33eb929ac2)" style="fill: #cfcfcf"/>
    <path d="M 330.839758 200.513182 
L 332.696427 203.607631 
L 333.990882 202.097433 
L 335.069594 208.78545 
L 329.676032 204.686343 
L 331.617715 204.254858 
L 329.761045 201.16041 
L 330.839758 200.513182 
" clip-path="url(#p33eb929ac2)" style="fill: #cfcfcf"/>
    <path d="M 357.653915 201.981762 
L 358.420227 202.748074 
L 359.309756 200.969016 
L 361.978343 207.195719 
L 355.75164 204.527132 
L 357.530698 203.637603 
L 356.764386 202.871291 
L 357.653915 201.981762 
" clip-path="url(#p33eb929ac2)" style="fill: #cfcfcf"/>
    <path d="M 384.276872 203.539338 
L 384.753791 203.698311 
L 384.753791 202.108581 
L 388.887091 205.605988 
L 383.482007 205.923935 
L 384.435845 204.65215 
L 383.958926 204.493177 
L 384.276872 203.539338 
" clip-path="url(#p33eb929ac2)" style="fill: #cfcfcf"/>
    <path d="M 410.867675 205.129069 
L 411.344594 204.970096 
L 410.390755 203.698311 
L 415.79584 204.016258 
L 411.66254 207.513665 
L 411.66254 205.923935 
L 411.185621 206.082908 
L 410.867675 205.129069 
" clip-path="url(#p33eb929ac2)" style="fill: #cfcfcf"/>
    <path d="M 437.490632 206.750955 
L 438.256944 205.984643 
L 436.477886 205.095114 
L 442.704589 202.426527 
L 440.036002 208.65323 
L 439.146473 206.874172 
L 438.380161 207.640484 
L 437.490632 206.750955 
" clip-path="url(#p33eb929ac2)" style="fill: #cfcfcf"/>
    <path d="M 464.304789 208.461836 
L 466.161458 205.367388 
L 464.219776 204.935903 
L 469.613337 200.836796 
L 468.534625 207.524813 
L 467.24017 206.014615 
L 465.383501 209.109064 
L 464.304789 208.461836 
" clip-path="url(#p33eb929ac2)" style="fill: #cfcfcf"/>
    <path d="M 491.174759 210.127409 
L 493.714002 204.202507 
L 491.731826 204.037325 
L 496.522086 199.247065 
L 496.356905 206.019502 
L 494.870272 204.698051 
L 492.331029 210.622953 
L 491.174759 210.127409 
" clip-path="url(#p33eb929ac2)" style="fill: #cfcfcf"/>
    <path d="M 518.064928 211.766007 
L 521.043978 202.828857 
L 519.054931 202.828857 
L 523.430835 197.657334 
L 523.828644 204.420095 
L 522.237406 203.226667 
L 519.258357 212.163816 
L 518.064928 211.766007 
" clip-path="url(#p33eb929ac2)" style="fill: #cfcfcf"/>
    <path d="M 544.963562 213.389144 
L 548.243266 201.363563 
L 546.257281 201.473896 
L 550.339583 196.067603 
L 551.111911 202.797886 
L 549.456923 201.694561 
L 546.17722 213.720141 
L 544.963562 213.389144 
" clip-path="url(#p33eb929ac2)" style="fill: #cfcfcf"/>
    <path d="M 251.790295 169.101909 
L 252.86751 180.951268 
L 254.68979 180.15402 
L 252.753617 186.645894 
L 249.678519 180.60959 
L 251.614692 181.06516 
L 250.537478 169.215801 
L 251.790295 169.101909 
" clip-path="url(#p33eb929ac2)" style="fill: #cfcfcf"/>
    <path d="M 278.69778 170.679125 
L 279.662366 179.360398 
L 281.46834 178.526872 
L 279.662366 185.056163 
L 276.467181 179.082556 
L 278.412076 179.499319 
L 277.44749 170.818046 
L 278.69778 170.679125 
" clip-path="url(#p33eb929ac2)" style="fill: #cfcfcf"/>
    <path d="M 305.604054 172.249364 
L 306.393209 177.773446 
L 308.172267 176.883917 
L 306.571115 183.466432 
L 303.190904 177.595541 
L 305.147868 177.951352 
L 304.358714 172.427269 
L 305.604054 172.249364 
" clip-path="url(#p33eb929ac2)" style="fill: #cfcfcf"/>
    <path d="M 332.50691 173.804692 
L 332.986441 176.202349 
L 334.713418 175.215505 
L 333.479863 181.876701 
L 329.779199 176.202349 
L 331.752887 176.44906 
L 331.273355 174.051403 
L 332.50691 173.804692 
" clip-path="url(#p33eb929ac2)" style="fill: #cfcfcf"/>
    <path d="M 359.2758 175.358805 
L 359.434773 175.835724 
L 360.706558 174.881886 
L 360.388612 180.286971 
L 356.891204 176.15367 
L 358.480935 176.15367 
L 358.321962 175.676751 
L 359.2758 175.358805 
" clip-path="url(#p33eb929ac2)" style="fill: #cfcfcf"/>
    <path d="M 385.866603 176.948536 
L 386.025576 177.107509 
L 386.343522 176.471617 
L 387.297361 178.69724 
L 385.071737 177.743401 
L 385.70763 177.425455 
L 385.548657 177.266482 
L 385.866603 176.948536 
" clip-path="url(#p33eb929ac2)" style="fill: #cfcfcf"/>
    <path d="M 412.457405 178.538267 
L 412.616378 178.379294 
L 411.980486 178.061347 
L 414.206109 177.107509 
L 413.252271 179.333132 
L 412.934325 178.69724 
L 412.775352 178.856213 
L 412.457405 178.538267 
" clip-path="url(#p33eb929ac2)" style="fill: #cfcfcf"/>
    <path d="M 439.048208 180.127997 
L 439.207181 179.651078 
L 437.61745 179.651078 
L 441.114858 175.517778 
L 441.432804 180.922863 
L 440.161019 179.969024 
L 440.002046 180.445944 
L 439.048208 180.127997 
" clip-path="url(#p33eb929ac2)" style="fill: #cfcfcf"/>
    <path d="M 465.817098 181.753346 
L 466.29663 179.355688 
L 464.322942 179.602399 
L 468.023607 173.928047 
L 469.257161 180.589243 
L 467.530185 179.602399 
L 467.050653 182.000057 
L 465.817098 181.753346 
" clip-path="url(#p33eb929ac2)" style="fill: #cfcfcf"/>
    <path d="M 492.719954 183.377479 
L 493.509109 177.853396 
L 491.552145 178.209208 
L 494.932355 172.338316 
L 496.533508 178.920831 
L 494.754449 178.031302 
L 493.965295 183.555385 
L 492.719954 183.377479 
" clip-path="url(#p33eb929ac2)" style="fill: #cfcfcf"/>
    <path d="M 519.626228 184.986702 
L 520.590814 176.305429 
L 518.645919 176.722193 
L 521.841104 170.748586 
L 523.647078 177.277877 
L 521.841104 176.44435 
L 520.876518 185.125624 
L 519.626228 184.986702 
" clip-path="url(#p33eb929ac2)" style="fill: #cfcfcf"/>
    <path d="M 546.533713 186.588948 
L 547.610927 174.739588 
L 545.674755 175.195158 
L 548.749853 169.158855 
L 550.686025 175.650728 
L 548.863745 174.853481 
L 547.786531 186.70284 
L 546.533713 186.588948 
" clip-path="url(#p33eb929ac2)" style="fill: #cfcfcf"/>
    <path d="M 253.380026 142.307052 
L 252.302812 154.156412 
L 254.238985 153.700842 
L 251.163887 159.737145 
L 249.227714 153.245272 
L 251.049994 154.042519 
L 252.127208 142.19316 
L 253.380026 142.307052 
" clip-path="url(#p33eb929ac2)" style="fill: #cfcfcf"/>
    <path d="M 280.287511 143.909298 
L 279.322925 152.590571 
L 281.26782 152.173807 
L 278.072635 158.147414 
L 276.266661 151.618123 
L 278.072635 152.45165 
L 279.037221 143.770376 
L 280.287511 143.909298 
" clip-path="url(#p33eb929ac2)" style="fill: #cfcfcf"/>
    <path d="M 307.193785 145.518521 
L 306.40463 151.042604 
L 308.361594 150.686792 
L 304.981384 156.557684 
L 303.380232 149.975169 
L 305.15929 150.864698 
L 305.948444 145.340615 
L 307.193785 145.518521 
" clip-path="url(#p33eb929ac2)" style="fill: #cfcfcf"/>
    <path d="M 334.096641 147.142654 
L 333.617109 149.540312 
L 335.590797 149.293601 
L 331.890132 154.967953 
L 330.656578 148.306757 
L 332.383554 149.293601 
L 332.863086 146.895943 
L 334.096641 147.142654 
" clip-path="url(#p33eb929ac2)" style="fill: #cfcfcf"/>
    <path d="M 360.865531 148.768003 
L 360.706558 149.244922 
L 362.296289 149.244922 
L 358.798881 153.378222 
L 358.480935 147.973137 
L 359.75272 148.926976 
L 359.911693 148.450056 
L 360.865531 148.768003 
" clip-path="url(#p33eb929ac2)" style="fill: #cfcfcf"/>
    <path d="M 387.456334 150.357733 
L 387.297361 150.516706 
L 387.933253 150.834653 
L 385.70763 151.788491 
L 386.661468 149.562868 
L 386.979414 150.19876 
L 387.138388 150.039787 
L 387.456334 150.357733 
" clip-path="url(#p33eb929ac2)" style="fill: #cfcfcf"/>
    <path d="M 414.047136 151.947464 
L 413.888163 151.788491 
L 413.570217 152.424383 
L 412.616378 150.19876 
L 414.842002 151.152599 
L 414.206109 151.470545 
L 414.365082 151.629518 
L 414.047136 151.947464 
" clip-path="url(#p33eb929ac2)" style="fill: #cfcfcf"/>
    <path d="M 440.637939 153.537195 
L 440.478966 153.060276 
L 439.207181 154.014114 
L 439.525127 148.609029 
L 443.022535 152.74233 
L 441.432804 152.74233 
L 441.591777 153.219249 
L 440.637939 153.537195 
" clip-path="url(#p33eb929ac2)" style="fill: #cfcfcf"/>
    <path d="M 467.406829 155.091308 
L 466.927298 152.693651 
L 465.200321 153.680495 
L 466.433876 147.019299 
L 470.13454 152.693651 
L 468.160853 152.44694 
L 468.640384 154.844597 
L 467.406829 155.091308 
" clip-path="url(#p33eb929ac2)" style="fill: #cfcfcf"/>
    <path d="M 494.309685 156.646636 
L 493.52053 151.122554 
L 491.741472 152.012083 
L 493.342624 145.429568 
L 496.722835 151.300459 
L 494.765871 150.944648 
L 495.555026 156.468731 
L 494.309685 156.646636 
" clip-path="url(#p33eb929ac2)" style="fill: #cfcfcf"/>
    <path d="M 521.215959 158.216875 
L 520.251373 149.535602 
L 518.445399 150.369128 
L 520.251373 143.839837 
L 523.446558 149.813444 
L 521.501663 149.396681 
L 522.466249 158.077954 
L 521.215959 158.216875 
" clip-path="url(#p33eb929ac2)" style="fill: #cfcfcf"/>
    <path d="M 548.123444 159.794091 
L 547.046229 147.944732 
L 545.223949 148.74198 
L 547.160122 142.250106 
L 550.23522 148.28641 
L 548.299047 147.83084 
L 549.376261 159.680199 
L 548.123444 159.794091 
" clip-path="url(#p33eb929ac2)" style="fill: #cfcfcf"/>
    <path d="M 254.950177 115.506856 
L 251.670473 127.532437 
L 253.656458 127.422104 
L 249.574156 132.828397 
L 248.801828 126.098114 
L 250.456816 127.201439 
L 253.736519 115.175859 
L 254.950177 115.506856 
" clip-path="url(#p33eb929ac2)" style="fill: #cfcfcf"/>
    <path d="M 281.848811 117.129993 
L 278.869761 126.067143 
L 280.858809 126.067143 
L 276.482904 131.238666 
L 276.085095 124.475905 
L 277.676333 125.669333 
L 280.655383 116.732184 
L 281.848811 117.129993 
" clip-path="url(#p33eb929ac2)" style="fill: #cfcfcf"/>
    <path d="M 308.73898 118.768591 
L 306.199737 124.693493 
L 308.181913 124.858675 
L 303.391653 129.648935 
L 303.556834 122.876498 
L 305.043467 124.197949 
L 307.582711 118.273047 
L 308.73898 118.768591 
" clip-path="url(#p33eb929ac2)" style="fill: #cfcfcf"/>
    <path d="M 335.60895 120.434164 
L 333.752281 123.528612 
L 335.693964 123.960097 
L 330.300402 128.059204 
L 331.379114 121.371187 
L 332.673569 122.881385 
L 334.530238 119.786936 
L 335.60895 120.434164 
" clip-path="url(#p33eb929ac2)" style="fill: #cfcfcf"/>
    <path d="M 362.423107 122.145045 
L 361.656795 122.911357 
L 363.435853 123.800886 
L 357.20915 126.469473 
L 359.877737 120.24277 
L 360.767266 122.021828 
L 361.533578 121.255516 
L 362.423107 122.145045 
" clip-path="url(#p33eb929ac2)" style="fill: #cfcfcf"/>
    <path d="M 389.046065 123.766931 
L 388.569145 123.925904 
L 389.522984 125.197689 
L 384.117899 124.879742 
L 388.251199 121.382335 
L 388.251199 122.972065 
L 388.728118 122.813092 
L 389.046065 123.766931 
" clip-path="url(#p33eb929ac2)" style="fill: #cfcfcf"/>
    <path d="M 415.636867 125.356662 
L 415.159948 125.197689 
L 415.159948 126.787419 
L 411.026648 123.290012 
L 416.431732 122.972065 
L 415.477894 124.24385 
L 415.954813 124.402823 
L 415.636867 125.356662 
" clip-path="url(#p33eb929ac2)" style="fill: #cfcfcf"/>
    <path d="M 442.259824 126.914238 
L 441.493512 126.147926 
L 440.603983 127.926984 
L 437.935396 121.700281 
L 444.162099 124.368868 
L 442.383041 125.258397 
L 443.149353 126.024709 
L 442.259824 126.914238 
" clip-path="url(#p33eb929ac2)" style="fill: #cfcfcf"/>
    <path d="M 469.073981 128.382818 
L 467.217312 125.288369 
L 465.922857 126.798567 
L 464.844145 120.11055 
L 470.237707 124.209657 
L 468.296025 124.641142 
L 470.152694 127.73559 
L 469.073981 128.382818 
" clip-path="url(#p33eb929ac2)" style="fill: #cfcfcf"/>
    <path d="M 495.943951 129.896707 
L 493.404708 123.971805 
L 491.918075 125.293256 
L 491.752894 118.520819 
L 496.543154 123.311079 
L 494.560977 123.476261 
L 497.100221 129.401163 
L 495.943951 129.896707 
" clip-path="url(#p33eb929ac2)" style="fill: #cfcfcf"/>
    <path d="M 522.834121 131.43757 
L 519.855071 122.500421 
L 518.263833 123.693849 
L 518.661642 116.931088 
L 523.037546 122.102611 
L 521.048499 122.102611 
L 524.027549 131.039761 
L 522.834121 131.43757 
" clip-path="url(#p33eb929ac2)" style="fill: #cfcfcf"/>
    <path d="M 549.732755 132.993895 
L 546.453051 120.968315 
L 544.798064 122.07164 
L 545.570391 115.341357 
L 549.652693 120.74765 
L 547.666708 120.637317 
L 550.946412 132.662898 
L 549.732755 132.993895 
" clip-path="url(#p33eb929ac2)" style="fill: #cfcfcf"/>
    <path d="M 256.505692 88.692888 
L 250.899547 101.026408 
L 252.877665 101.234631 
L 247.984425 105.919648 
L 248.296759 99.152401 
L 249.75432 100.50585 
L 255.360466 88.17233 
L 256.505692 88.692888 
" clip-path="url(#p33eb929ac2)" style="fill: #cfcfcf"/>
    <path d="M 283.391666 90.327805 
L 278.192201 99.686841 
L 280.14718 100.0534 
L 274.893174 104.329917 
L 275.748477 97.609676 
L 277.092525 99.07591 
L 282.29199 89.716874 
L 283.391666 90.327805 
" clip-path="url(#p33eb929ac2)" style="fill: #cfcfcf"/>
    <path d="M 310.262408 91.977665 
L 305.604102 98.499294 
L 307.505191 99.084244 
L 301.801922 102.740186 
L 303.410537 96.159491 
L 304.580438 97.768105 
L 309.238744 91.246476 
L 310.262408 91.977665 
" clip-path="url(#p33eb929ac2)" style="fill: #cfcfcf"/>
    <path d="M 337.104089 93.646566 
L 333.158316 97.592339 
L 334.937374 98.481868 
L 328.710671 101.150455 
L 331.379258 94.923752 
L 332.268787 96.70281 
L 336.21456 92.757037 
L 337.104089 93.646566 
" clip-path="url(#p33eb929ac2)" style="fill: #cfcfcf"/>
    <path d="M 363.891687 95.330888 
L 360.797239 97.187557 
L 362.307436 98.482012 
L 355.61942 99.560725 
L 359.718527 94.167163 
L 360.150012 96.108845 
L 363.24446 94.252176 
L 363.891687 95.330888 
" clip-path="url(#p33eb929ac2)" style="fill: #cfcfcf"/>
    <path d="M 390.600178 96.99804 
L 388.20252 97.477572 
L 389.189364 99.204549 
L 382.528168 97.970994 
L 388.20252 94.270329 
L 387.955809 96.244017 
L 390.353467 95.764486 
L 390.600178 96.99804 
" clip-path="url(#p33eb929ac2)" style="fill: #cfcfcf"/>
    <path d="M 417.262215 98.587771 
L 414.864558 98.10824 
L 415.111269 100.081927 
L 409.436917 96.381263 
L 416.098113 95.147708 
L 415.111269 96.874685 
L 417.508926 97.354216 
L 417.262215 98.587771 
" clip-path="url(#p33eb929ac2)" style="fill: #cfcfcf"/>
    <path d="M 443.970706 100.100081 
L 440.876258 98.243412 
L 440.444773 100.185094 
L 436.345666 94.791532 
L 443.033682 95.870244 
L 441.523485 97.164699 
L 444.617933 99.021368 
L 443.970706 100.100081 
" clip-path="url(#p33eb929ac2)" style="fill: #cfcfcf"/>
    <path d="M 470.758304 101.59522 
L 466.81253 97.649446 
L 465.923001 99.428504 
L 463.254414 93.201801 
L 469.481117 95.870388 
L 467.702059 96.759917 
L 471.647833 100.705691 
L 470.758304 101.59522 
" clip-path="url(#p33eb929ac2)" style="fill: #cfcfcf"/>
    <path d="M 497.599985 103.10578 
L 492.941679 96.584151 
L 491.771777 98.192766 
L 490.163163 91.61207 
L 495.866432 95.268012 
L 493.965342 95.852963 
L 498.623649 102.374592 
L 497.599985 103.10578 
" clip-path="url(#p33eb929ac2)" style="fill: #cfcfcf"/>
    <path d="M 524.470728 104.635383 
L 519.271263 95.276347 
L 517.927215 96.742581 
L 517.071911 90.02234 
L 522.325918 94.298857 
L 520.370939 94.665416 
L 525.570404 104.024452 
L 524.470728 104.635383 
" clip-path="url(#p33eb929ac2)" style="fill: #cfcfcf"/>
    <path d="M 551.356701 106.179927 
L 545.750556 93.846407 
L 544.292995 95.199856 
L 543.98066 88.432609 
L 548.873901 93.117626 
L 546.895782 93.325849 
L 552.501927 105.659369 
L 551.356701 106.179927 
" clip-path="url(#p33eb929ac2)" style="fill: #cfcfcf"/>
    <path d="M 258.053466 61.861551 
L 249.964564 74.572683 
L 251.894223 75.055097 
L 246.394694 79.010899 
L 247.648973 72.353574 
L 248.903251 73.897302 
L 256.992153 61.18617 
L 258.053466 61.861551 
" clip-path="url(#p33eb929ac2)" style="fill: #cfcfcf"/>
    <path d="M 284.928055 63.499755 
L 277.275413 73.338866 
L 279.151065 74.000861 
L 273.303443 77.421168 
L 275.179095 70.911551 
L 276.28242 72.566539 
L 283.935062 62.727427 
L 284.928055 63.499755 
" clip-path="url(#p33eb929ac2)" style="fill: #cfcfcf"/>
    <path d="M 311.785072 65.148086 
L 304.659836 72.273321 
L 306.438894 73.162851 
L 300.212191 75.831438 
L 302.880778 69.604734 
L 303.770307 71.383792 
L 310.895543 64.258557 
L 311.785072 65.148086 
" clip-path="url(#p33eb929ac2)" style="fill: #cfcfcf"/>
    <path d="M 338.61465 66.804884 
L 332.093021 71.463191 
L 333.701635 72.633092 
L 327.12094 74.241707 
L 330.776882 68.538438 
L 331.361832 70.439527 
L 337.883462 65.781221 
L 338.61465 66.804884 
" clip-path="url(#p33eb929ac2)" style="fill: #cfcfcf"/>
    <path d="M 365.405577 68.460918 
L 359.480675 71.000162 
L 360.802126 72.486795 
L 354.029689 72.651976 
L 358.819949 67.861716 
L 358.98513 69.843892 
L 364.910032 67.304649 
L 365.405577 68.460918 
" clip-path="url(#p33eb929ac2)" style="fill: #cfcfcf"/>
    <path d="M 392.155506 70.095185 
L 386.631423 70.884339 
L 387.520952 72.663397 
L 380.938437 71.062245 
L 386.809329 67.682035 
L 386.453517 69.638999 
L 391.9776 68.849844 
L 392.155506 70.095185 
" clip-path="url(#p33eb929ac2)" style="fill: #cfcfcf"/>
    <path d="M 418.886349 71.684915 
L 413.362266 70.895761 
L 413.718078 72.852725 
L 407.847186 69.472514 
L 414.429701 67.871362 
L 413.540172 69.65042 
L 419.064255 70.439575 
L 418.886349 71.684915 
" clip-path="url(#p33eb929ac2)" style="fill: #cfcfcf"/>
    <path d="M 445.636278 73.230111 
L 439.711376 70.690867 
L 439.546195 72.673044 
L 434.755935 67.882783 
L 441.528372 68.047965 
L 440.206921 69.534597 
L 446.131823 72.073841 
L 445.636278 73.230111 
" clip-path="url(#p33eb929ac2)" style="fill: #cfcfcf"/>
    <path d="M 472.427205 74.753539 
L 465.905576 70.095232 
L 465.320625 71.996322 
L 461.664683 66.293053 
L 468.245378 67.901667 
L 466.636764 69.071568 
L 473.158393 73.729875 
L 472.427205 74.753539 
" clip-path="url(#p33eb929ac2)" style="fill: #cfcfcf"/>
    <path d="M 499.256783 76.276202 
L 492.131548 69.150967 
L 491.242019 70.930025 
L 488.573432 64.703322 
L 494.800135 67.371909 
L 493.021077 68.261438 
L 500.146312 75.386673 
L 499.256783 76.276202 
" clip-path="url(#p33eb929ac2)" style="fill: #cfcfcf"/>
    <path d="M 526.1138 77.807332 
L 518.461158 67.968221 
L 517.357833 69.623208 
L 515.482181 63.113591 
L 521.329803 66.533898 
L 519.454151 67.195893 
L 527.106793 77.035005 
L 526.1138 77.807332 
" clip-path="url(#p33eb929ac2)" style="fill: #cfcfcf"/>
    <path d="M 552.988389 79.34859 
L 544.899487 66.637457 
L 543.645208 68.181185 
L 542.390929 61.52386 
L 547.890459 65.479662 
L 545.960799 65.962077 
L 554.049701 78.673209 
L 552.988389 79.34859 
" clip-path="url(#p33eb929ac2)" style="fill: #cfcfcf"/>
    <path d="M 259.599354 35.013413 
L 248.87649 48.119135 
L 250.73523 48.827227 
L 244.804963 52.102151 
L 246.840726 45.640815 
L 247.902864 47.322532 
L 258.625728 34.21681 
L 259.599354 35.013413 
" clip-path="url(#p33eb929ac2)" style="fill: #cfcfcf"/>
    <path d="M 286.466054 36.649607 
L 276.161357 46.954304 
L 277.940415 47.843833 
L 271.713712 50.51242 
L 274.382299 44.285717 
L 275.271828 46.064775 
L 285.576525 35.760078 
L 286.466054 36.649607 
" clip-path="url(#p33eb929ac2)" style="fill: #cfcfcf"/>
    <path d="M 313.316202 38.291069 
L 303.47709 45.943712 
L 305.132078 47.047036 
L 298.622461 48.922689 
L 302.042768 43.075067 
L 302.704763 44.950719 
L 312.543874 37.298077 
L 313.316202 38.291069 
" clip-path="url(#p33eb929ac2)" style="fill: #cfcfcf"/>
    <path d="M 340.144252 39.934142 
L 330.785216 45.133606 
L 332.251451 46.477655 
L 325.531209 47.332958 
L 329.807726 42.078951 
L 330.174285 44.03393 
L 339.533321 38.834466 
L 340.144252 39.934142 
" clip-path="url(#p33eb929ac2)" style="fill: #cfcfcf"/>
    <path d="M 366.94644 41.570749 
L 358.00929 44.549799 
L 359.202719 46.141037 
L 352.439958 45.743227 
L 357.611481 41.367323 
L 357.611481 43.35637 
L 366.548631 40.377321 
L 366.94644 41.570749 
" clip-path="url(#p33eb929ac2)" style="fill: #cfcfcf"/>
    <path d="M 393.725744 43.188911 
L 385.044471 44.153496 
L 385.877998 45.959471 
L 379.348707 44.153496 
L 385.322314 40.958311 
L 384.90555 42.903207 
L 393.586823 41.938621 
L 393.725744 43.188911 
" clip-path="url(#p33eb929ac2)" style="fill: #cfcfcf"/>
    <path d="M 420.495572 44.778641 
L 411.814299 43.814055 
L 412.231062 45.758951 
L 406.257455 42.563766 
L 412.786747 40.757791 
L 411.95322 42.563766 
L 420.634493 43.528352 
L 420.495572 44.778641 
" clip-path="url(#p33eb929ac2)" style="fill: #cfcfcf"/>
    <path d="M 447.274877 46.339941 
L 438.337727 43.360892 
L 438.337727 45.349939 
L 433.166204 40.974035 
L 439.928965 40.576225 
L 438.735536 42.167463 
L 447.672686 45.146513 
L 447.274877 46.339941 
" clip-path="url(#p33eb929ac2)" style="fill: #cfcfcf"/>
    <path d="M 474.077064 47.882796 
L 464.718028 42.683332 
L 464.35147 44.638311 
L 460.074953 39.384304 
L 466.795194 40.239607 
L 465.328959 41.583656 
L 474.687995 46.78312 
L 474.077064 47.882796 
" clip-path="url(#p33eb929ac2)" style="fill: #cfcfcf"/>
    <path d="M 500.905115 49.419185 
L 491.066004 41.766543 
L 490.404009 43.642195 
L 486.983701 37.794573 
L 493.493318 39.670226 
L 491.838331 40.773551 
L 501.677442 48.426193 
L 500.905115 49.419185 
" clip-path="url(#p33eb929ac2)" style="fill: #cfcfcf"/>
    <path d="M 527.755263 50.957184 
L 517.450566 40.652487 
L 516.561037 42.431545 
L 513.89245 36.204842 
L 520.119153 38.873429 
L 518.340095 39.762958 
L 528.644792 50.067655 
L 527.755263 50.957184 
" clip-path="url(#p33eb929ac2)" style="fill: #cfcfcf"/>
    <path d="M 554.621963 52.500452 
L 543.899099 39.39473 
L 542.836962 41.076447 
L 540.801199 34.615112 
L 546.731465 37.890035 
L 544.872725 38.598127 
L 555.595589 51.703849 
L 554.621963 52.500452 
" clip-path="url(#p33eb929ac2)" style="fill: #cfcfcf"/>
    <path d="M 261.147036 8.151127 
L 247.662877 21.635286 
L 249.441936 22.524815 
L 243.215232 25.193402 
L 245.883819 18.966699 
L 246.773348 20.745757 
L 260.257507 7.261598 
L 261.147036 8.151127 
" clip-path="url(#p33eb929ac2)" style="fill: #cfcfcf"/>
    <path d="M 288.009322 9.782907 
L 274.903599 20.50577 
L 276.585317 21.567908 
L 270.123981 23.603671 
L 273.398905 17.673404 
L 274.106996 19.532145 
L 287.212719 8.809281 
L 288.009322 9.782907 
" clip-path="url(#p33eb929ac2)" style="fill: #cfcfcf"/>
    <path d="M 314.857459 11.416481 
L 302.146327 19.505383 
L 303.690055 20.759662 
L 297.03273 22.01394 
L 300.988531 16.514411 
L 301.470946 18.44407 
L 314.182078 10.355168 
L 314.857459 11.416481 
" clip-path="url(#p33eb929ac2)" style="fill: #cfcfcf"/>
    <path d="M 341.688796 13.048169 
L 329.355276 18.654314 
L 330.708726 20.111875 
L 323.941478 20.424209 
L 328.626496 15.530969 
L 328.834719 17.509087 
L 341.168239 11.902942 
L 341.688796 13.048169 
" clip-path="url(#p33eb929ac2)" style="fill: #cfcfcf"/>
    <path d="M 368.502765 14.672115 
L 356.477184 17.951819 
L 357.580509 19.606806 
L 350.850227 18.834479 
L 356.256519 14.752176 
L 356.146187 16.738161 
L 368.171767 13.458457 
L 368.502765 14.672115 
" clip-path="url(#p33eb929ac2)" style="fill: #cfcfcf"/>
    <path d="M 395.302961 16.281426 
L 383.453602 17.35864 
L 384.250849 19.180921 
L 377.758976 17.244748 
L 383.795279 14.16965 
L 383.339709 16.105823 
L 395.189068 15.028608 
L 395.302961 16.281426 
" clip-path="url(#p33eb929ac2)" style="fill: #cfcfcf"/>
    <path d="M 422.097817 17.871157 
L 410.248458 16.793942 
L 410.704028 18.730115 
L 404.667724 15.655017 
L 411.159598 13.718844 
L 410.36235 15.541124 
L 422.21171 16.618339 
L 422.097817 17.871157 
" clip-path="url(#p33eb929ac2)" style="fill: #cfcfcf"/>
    <path d="M 448.898013 19.441307 
L 436.872433 16.161604 
L 436.982765 18.147588 
L 431.576473 14.065286 
L 438.306755 13.292959 
L 437.20343 14.947946 
L 449.229011 18.22765 
L 448.898013 19.441307 
" clip-path="url(#p33eb929ac2)" style="fill: #cfcfcf"/>
    <path d="M 475.711982 20.996823 
L 463.378462 15.390677 
L 463.170239 17.368796 
L 458.485222 12.475555 
L 465.252469 12.78789 
L 463.89902 14.245451 
L 476.232539 19.851596 
L 475.711982 20.996823 
" clip-path="url(#p33eb929ac2)" style="fill: #cfcfcf"/>
    <path d="M 502.543319 22.544597 
L 489.832187 14.455694 
L 489.349772 16.385354 
L 485.39397 10.885824 
L 492.051295 12.140103 
L 490.507568 13.394382 
L 503.2187 21.483284 
L 502.543319 22.544597 
" clip-path="url(#p33eb929ac2)" style="fill: #cfcfcf"/>
    <path d="M 529.391457 24.090484 
L 516.285734 13.36762 
L 515.577643 15.22636 
L 512.302719 9.296094 
L 518.764055 11.331857 
L 517.082337 12.393994 
L 530.18806 23.116858 
L 529.391457 24.090484 
" clip-path="url(#p33eb929ac2)" style="fill: #cfcfcf"/>
    <path d="M 556.253742 25.638166 
L 542.769584 12.154008 
L 541.880055 13.933066 
L 539.211468 7.706363 
L 545.438171 10.37495 
L 543.659113 11.264479 
L 557.143271 24.748637 
L 556.253742 25.638166 
" clip-path="url(#p33eb929ac2)" style="fill: #cfcfcf"/>
   </g>
   <g id="matplotlib.axis_1"/>
   <g id="matplotlib.axis_2"/>
   <g id="patch_18">
    <path d="M 242.70887 321.696 
L 242.70887 7.2 
" style="fill: none; stroke: #000000; stroke-width: 0.8; stroke-linejoin: miter; stroke-linecap: square"/>
   </g>
   <g id="patch_19">
    <path d="M 242.70887 321.696 
L 557.20487 321.696 
" style="fill: none; stroke: #000000; stroke-width: 0.8; stroke-linejoin: miter; stroke-linecap: square"/>
   </g>
   <g id="line2d_17">
    <path d="M 492.455693 213.009882 
L 494.546601 208.799679 
L 496.445997 204.499679 
L 498.150036 200.118588 
L 499.655267 195.665277 
L 500.958643 191.148761 
L 502.057524 186.578185 
L 502.949687 181.962803 
L 503.633325 177.311959 
L 504.107053 172.635071 
L 504.369912 167.941606 
L 504.421371 163.241068 
L 504.261325 158.542974 
L 503.890098 153.856835 
L 503.308442 149.19214 
L 502.517534 144.558332 
L 501.518976 139.964795 
L 500.314789 135.420828 
L 498.907412 130.93563 
L 497.299694 126.518284 
L 495.49489 122.177733 
L 493.496654 117.922764 
L 491.309031 113.761993 
L 488.936452 109.703844 
L 486.38372 105.756533 
L 483.656003 101.928052 
L 480.758824 98.226153 
L 477.698048 94.658331 
L 474.479873 91.231808 
L 471.110814 87.953524 
L 467.597693 84.830114 
L 463.947623 81.867904 
L 460.167993 79.07289 
L 456.266456 76.450732 
L 454.940212 75.616019 
L 454.940212 75.616019 
" clip-path="url(#p33eb929ac2)" style="fill: none; stroke: #1f77b4; stroke-width: 2.2; stroke-linecap: square"/>
   </g>
   <g id="patch_20">
    <path d="M 499.237583 131.926795 
Q 498.988098 131.184047 498.738614 130.441299 
" style="fill: none"/>
    <path d="M 497.929675 136.198522 
L 498.738614 130.441299 
L 502.859029 134.542783 
" style="fill: none"/>
   </g>
   <g id="text_12">
    <!-- $\mathbf{x}_0$ -->
    <g transform="translate(499.047933 222.632652) scale(0.115 -0.115)">
     <use xlink:href="#Cmb10-78" transform="translate(0 0.609375)"/>
     <use xlink:href="#Cmr10-30" transform="translate(57.149687 -16.396875) scale(0.7)"/>
    </g>
   </g>
   <g id="text_13">
    <!-- $\mathbf{x}_1$ -->
    <g style="fill: #ff7f0e" transform="translate(524.916238 170.208447) scale(0.115 -0.115)">
     <use xlink:href="#Cmb10-78" transform="translate(0 0.609375)"/>
     <use xlink:href="#Cmr10-31" transform="translate(57.149687 -16.396875) scale(0.7)"/>
    </g>
   </g>
   <g id="text_14">
    <!-- $\mathbf{x}_2$ -->
    <g style="fill: #ff7f0e" transform="translate(524.730804 105.585771) scale(0.115 -0.115)">
     <use xlink:href="#Cmb10-78" transform="translate(0 0.609375)"/>
     <use xlink:href="#Cmr10-32" transform="translate(57.149687 -16.396875) scale(0.7)"/>
    </g>
   </g>
   <g id="text_15">
    <!-- $\mathbf{x}_3$ -->
    <g style="fill: #ff7f0e" transform="translate(492.704682 41.643003) scale(0.115 -0.115)">
     <use xlink:href="#Cmb10-78" transform="translate(0 0.609375)"/>
     <use xlink:href="#Cmr10-33" transform="translate(57.149687 -16.396875) scale(0.7)"/>
    </g>
   </g>
   <g id="text_16">
    <!-- exact flow -->
    <g style="fill: #1f77b4" transform="translate(405.194046 246.245281) scale(0.115 -0.115)">
     <defs>
      <path id="DejaVuSans-78" d="M 3513 3500 
L 2247 1797 
L 3578 0 
L 2900 0 
L 1881 1375 
L 863 0 
L 184 0 
L 1544 1831 
L 300 3500 
L 978 3500 
L 1906 2253 
L 2834 3500 
L 3513 3500 
z
" transform="scale(0.015625)"/>
      <path id="DejaVuSans-61" d="M 2194 1759 
Q 1497 1759 1228 1600 
Q 959 1441 959 1056 
Q 959 750 1161 570 
Q 1363 391 1709 391 
Q 2188 391 2477 730 
Q 2766 1069 2766 1631 
L 2766 1759 
L 2194 1759 
z
M 3341 1997 
L 3341 0 
L 2766 0 
L 2766 531 
Q 2569 213 2275 61 
Q 1981 -91 1556 -91 
Q 1019 -91 701 211 
Q 384 513 384 1019 
Q 384 1609 779 1909 
Q 1175 2209 1959 2209 
L 2766 2209 
L 2766 2266 
Q 2766 2663 2505 2880 
Q 2244 3097 1772 3097 
Q 1472 3097 1187 3025 
Q 903 2953 641 2809 
L 641 3341 
Q 956 3463 1253 3523 
Q 1550 3584 1831 3584 
Q 2591 3584 2966 3190 
Q 3341 2797 3341 1997 
z
" transform="scale(0.015625)"/>
      <path id="DejaVuSans-63" d="M 3122 3366 
L 3122 2828 
Q 2878 2963 2633 3030 
Q 2388 3097 2138 3097 
Q 1578 3097 1268 2742 
Q 959 2388 959 1747 
Q 959 1106 1268 751 
Q 1578 397 2138 397 
Q 2388 397 2633 464 
Q 2878 531 3122 666 
L 3122 134 
Q 2881 22 2623 -34 
Q 2366 -91 2075 -91 
Q 1284 -91 818 406 
Q 353 903 353 1747 
Q 353 2603 823 3093 
Q 1294 3584 2113 3584 
Q 2378 3584 2631 3529 
Q 2884 3475 3122 3366 
z
" transform="scale(0.015625)"/>
      <path id="DejaVuSans-66" d="M 2375 4863 
L 2375 4384 
L 1825 4384 
Q 1516 4384 1395 4259 
Q 1275 4134 1275 3809 
L 1275 3500 
L 2222 3500 
L 2222 3053 
L 1275 3053 
L 1275 0 
L 697 0 
L 697 3053 
L 147 3053 
L 147 3500 
L 697 3500 
L 697 3744 
Q 697 4328 969 4595 
Q 1241 4863 1831 4863 
L 2375 4863 
z
" transform="scale(0.015625)"/>
      <path id="DejaVuSans-6c" d="M 603 4863 
L 1178 4863 
L 1178 0 
L 603 0 
L 603 4863 
z
" transform="scale(0.015625)"/>
      <path id="DejaVuSans-6f" d="M 1959 3097 
Q 1497 3097 1228 2736 
Q 959 2375 959 1747 
Q 959 1119 1226 758 
Q 1494 397 1959 397 
Q 2419 397 2687 759 
Q 2956 1122 2956 1747 
Q 2956 2369 2687 2733 
Q 2419 3097 1959 3097 
z
M 1959 3584 
Q 2709 3584 3137 3096 
Q 3566 2609 3566 1747 
Q 3566 888 3137 398 
Q 2709 -91 1959 -91 
Q 1206 -91 779 398 
Q 353 888 353 1747 
Q 353 2609 779 3096 
Q 1206 3584 1959 3584 
z
" transform="scale(0.015625)"/>
      <path id="DejaVuSans-77" d="M 269 3500 
L 844 3500 
L 1563 769 
L 2278 3500 
L 2956 3500 
L 3675 769 
L 4391 3500 
L 4966 3500 
L 4050 0 
L 3372 0 
L 2619 2869 
L 1863 0 
L 1184 0 
L 269 3500 
z
" transform="scale(0.015625)"/>
     </defs>
     <use xlink:href="#DejaVuSans-65"/>
     <use xlink:href="#DejaVuSans-78" transform="translate(59.773438 0)"/>
     <use xlink:href="#DejaVuSans-61" transform="translate(118.953125 0)"/>
     <use xlink:href="#DejaVuSans-63" transform="translate(180.232422 0)"/>
     <use xlink:href="#DejaVuSans-74" transform="translate(235.212891 0)"/>
     <use xlink:href="#DejaVuSans-20" transform="translate(274.421875 0)"/>
     <use xlink:href="#DejaVuSans-66" transform="translate(306.208984 0)"/>
     <use xlink:href="#DejaVuSans-6c" transform="translate(341.414062 0)"/>
     <use xlink:href="#DejaVuSans-6f" transform="translate(369.197266 0)"/>
     <use xlink:href="#DejaVuSans-77" transform="translate(430.378906 0)"/>
    </g>
   </g>
   <g id="text_17">
    <!-- Euler, $h=1$ -->
    <g style="fill: #ff7f0e" transform="translate(327.224899 28.873046) scale(0.115 -0.115)">
     <defs>
      <path id="DejaVuSans-45" d="M 628 4666 
L 3578 4666 
L 3578 4134 
L 1259 4134 
L 1259 2753 
L 3481 2753 
L 3481 2222 
L 1259 2222 
L 1259 531 
L 3634 531 
L 3634 0 
L 628 0 
L 628 4666 
z
" transform="scale(0.015625)"/>
      <path id="DejaVuSans-75" d="M 544 1381 
L 544 3500 
L 1119 3500 
L 1119 1403 
Q 1119 906 1312 657 
Q 1506 409 1894 409 
Q 2359 409 2629 706 
Q 2900 1003 2900 1516 
L 2900 3500 
L 3475 3500 
L 3475 0 
L 2900 0 
L 2900 538 
Q 2691 219 2414 64 
Q 2138 -91 1772 -91 
Q 1169 -91 856 284 
Q 544 659 544 1381 
z
M 1991 3584 
L 1991 3584 
z
" transform="scale(0.015625)"/>
      <path id="DejaVuSans-72" d="M 2631 2963 
Q 2534 3019 2420 3045 
Q 2306 3072 2169 3072 
Q 1681 3072 1420 2755 
Q 1159 2438 1159 1844 
L 1159 0 
L 581 0 
L 581 3500 
L 1159 3500 
L 1159 2956 
Q 1341 3275 1631 3429 
Q 1922 3584 2338 3584 
Q 2397 3584 2469 3576 
Q 2541 3569 2628 3553 
L 2631 2963 
z
" transform="scale(0.015625)"/>
      <path id="DejaVuSans-2c" d="M 750 794 
L 1409 794 
L 1409 256 
L 897 -744 
L 494 -744 
L 750 256 
L 750 794 
z
" transform="scale(0.015625)"/>
      <path id="Cmmi10-68" d="M 341 116 
Q 341 153 347 172 
L 1275 3872 
Q 1300 3981 1306 4044 
Q 1306 4147 891 4147 
Q 825 4147 825 4231 
Q 828 4247 839 4287 
Q 850 4328 867 4350 
Q 884 4372 916 4372 
L 1778 4441 
L 1797 4441 
Q 1797 4434 1819 4423 
Q 1841 4413 1844 4409 
Q 1856 4378 1856 4359 
L 1356 2363 
Q 1750 2828 2291 2828 
Q 2516 2828 2680 2750 
Q 2844 2672 2936 2514 
Q 3028 2356 3028 2138 
Q 3028 1875 2911 1503 
Q 2794 1131 2619 672 
Q 2528 463 2528 288 
Q 2528 97 2675 97 
Q 2925 97 3092 364 
Q 3259 631 3328 941 
Q 3341 978 3378 978 
L 3456 978 
Q 3481 978 3497 961 
Q 3513 944 3513 922 
Q 3513 916 3506 903 
Q 3450 672 3339 448 
Q 3228 225 3059 76 
Q 2891 -72 2663 -72 
Q 2438 -72 2278 83 
Q 2119 238 2119 459 
Q 2119 578 2169 709 
Q 2350 1191 2470 1569 
Q 2591 1947 2591 2234 
Q 2591 2419 2519 2541 
Q 2447 2663 2278 2663 
Q 1934 2663 1678 2452 
Q 1422 2241 1234 1894 
L 800 147 
Q 775 50 703 -11 
Q 631 -72 538 -72 
Q 456 -72 398 -17 
Q 341 38 341 116 
z
" transform="scale(0.015625)"/>
      <path id="Cmr10-3d" d="M 481 850 
Q 428 850 393 890 
Q 359 931 359 978 
Q 359 1031 393 1068 
Q 428 1106 481 1106 
L 4500 1106 
Q 4547 1106 4581 1068 
Q 4616 1031 4616 978 
Q 4616 931 4581 890 
Q 4547 850 4500 850 
L 481 850 
z
M 481 2094 
Q 428 2094 393 2131 
Q 359 2169 359 2222 
Q 359 2269 393 2309 
Q 428 2350 481 2350 
L 4500 2350 
Q 4547 2350 4581 2309 
Q 4616 2269 4616 2222 
Q 4616 2169 4581 2131 
Q 4547 2094 4500 2094 
L 481 2094 
z
" transform="scale(0.015625)"/>
     </defs>
     <use xlink:href="#DejaVuSans-45" transform="translate(0 0.015625)"/>
     <use xlink:href="#DejaVuSans-75" transform="translate(63.183594 0.015625)"/>
     <use xlink:href="#DejaVuSans-6c" transform="translate(126.5625 0.015625)"/>
     <use xlink:href="#DejaVuSans-65" transform="translate(154.345703 0.015625)"/>
     <use xlink:href="#DejaVuSans-72" transform="translate(215.869141 0.015625)"/>
     <use xlink:href="#DejaVuSans-2c" transform="translate(256.982422 0.015625)"/>
     <use xlink:href="#DejaVuSans-20" transform="translate(288.769531 0.015625)"/>
     <use xlink:href="#Cmmi10-68" transform="translate(320.556641 0.015625)"/>
     <use xlink:href="#Cmr10-3d" transform="translate(395.732422 0.015625)"/>
     <use xlink:href="#Cmr10-31" transform="translate(490.976562 0.015625)"/>
    </g>
   </g>
   <g id="line2d_18">
    <path d="M 492.455693 213.009882 
L 516.736634 166.760471 
L 517.89287 108.370588 
L 489.854164 49.402588 
" clip-path="url(#p33eb929ac2)" style="fill: none; stroke: #ff7f0e; stroke-width: 1.8; stroke-linecap: square"/>
    <defs>
     <path id="mb4056238e5" d="M 0 2.5 
C 0.663008 2.5 1.29895 2.236584 1.767767 1.767767 
C 2.236584 1.29895 2.5 0.663008 2.5 0 
C 2.5 -0.663008 2.236584 -1.29895 1.767767 -1.767767 
C 1.29895 -2.236584 0.663008 -2.5 0 -2.5 
C -0.663008 -2.5 -1.29895 -2.236584 -1.767767 -1.767767 
C -2.236584 -1.29895 -2.5 -0.663008 -2.5 0 
C -2.5 0.663008 -2.236584 1.29895 -1.767767 1.767767 
C -1.29895 2.236584 -0.663008 2.5 0 2.5 
z
" style="stroke: #ff7f0e"/>
    </defs>
    <g clip-path="url(#p33eb929ac2)">
     <use xlink:href="#mb4056238e5" x="492.455693" y="213.009882" style="fill: #ff7f0e; stroke: #ff7f0e"/>
     <use xlink:href="#mb4056238e5" x="516.736634" y="166.760471" style="fill: #ff7f0e; stroke: #ff7f0e"/>
     <use xlink:href="#mb4056238e5" x="517.89287" y="108.370588" style="fill: #ff7f0e; stroke: #ff7f0e"/>
     <use xlink:href="#mb4056238e5" x="489.854164" y="49.402588" style="fill: #ff7f0e; stroke: #ff7f0e"/>
    </g>
   </g>
   <g id="line2d_19">
    <defs>
     <path id="m1c2d251369" d="M 0 3 
C 0.795609 3 1.55874 2.683901 2.12132 2.12132 
C 2.683901 1.55874 3 0.795609 3 0 
C 3 -0.795609 2.683901 -1.55874 2.12132 -2.12132 
C 1.55874 -2.683901 0.795609 -3 0 -3 
C -0.795609 -3 -1.55874 -2.683901 -2.12132 -2.12132 
C -2.683901 -1.55874 -3 -0.795609 -3 0 
C -3 0.795609 -2.683901 1.55874 -2.12132 2.12132 
C -1.55874 2.683901 -0.795609 3 0 3 
z
" style="stroke: #000000"/>
    </defs>
    <g clip-path="url(#p33eb929ac2)">
     <use xlink:href="#m1c2d251369" x="492.455693" y="213.009882" style="stroke: #000000"/>
    </g>
   </g>
  </g>
  <g id="text_18">
   <!-- $\mathbf{x}_{l+1}=\mathbf{x}_l+\mathbf{f}_\theta(\mathbf{x}_l)\quad\Leftrightarrow\quad\mathbf{x}_{n+1}=\mathbf{x}_n+h\,\mathbf{f}(\mathbf{x}_n)\ \ \mathrm{with}\ h=1$ -->
   <g transform="translate(132.363274 337.248) scale(0.11 -0.11)">
    <defs>
     <path id="Cmmi10-6c" d="M 281 519 
Q 281 538 286 575 
Q 291 613 295 648 
Q 300 684 300 703 
L 1094 3872 
Q 1119 3981 1125 4044 
Q 1125 4147 709 4147 
Q 647 4147 647 4231 
Q 650 4247 661 4287 
Q 672 4328 689 4350 
Q 706 4372 738 4372 
L 1600 4441 
Q 1678 4441 1678 4359 
L 756 678 
Q 709 575 709 372 
Q 709 97 897 97 
Q 1094 97 1192 342 
Q 1291 588 1369 941 
Q 1381 978 1422 978 
L 1497 978 
Q 1522 978 1539 958 
Q 1556 938 1556 916 
Q 1481 606 1420 426 
Q 1359 247 1225 87 
Q 1091 -72 884 -72 
Q 628 -72 454 93 
Q 281 259 281 519 
z
" transform="scale(0.015625)"/>
     <path id="Cmr10-2b" d="M 481 1472 
Q 428 1472 393 1512 
Q 359 1553 359 1600 
Q 359 1647 393 1687 
Q 428 1728 481 1728 
L 2363 1728 
L 2363 3616 
Q 2363 3666 2400 3698 
Q 2438 3731 2491 3731 
Q 2538 3731 2578 3698 
Q 2619 3666 2619 3616 
L 2619 1728 
L 4500 1728 
Q 4547 1728 4581 1687 
Q 4616 1647 4616 1600 
Q 4616 1553 4581 1512 
Q 4547 1472 4500 1472 
L 2619 1472 
L 2619 -416 
Q 2619 -466 2578 -498 
Q 2538 -531 2491 -531 
Q 2438 -531 2400 -498 
Q 2363 -466 2363 -416 
L 2363 1472 
L 481 1472 
z
" transform="scale(0.015625)"/>
     <path id="Cmr10-28" d="M 1984 -1588 
Q 1628 -1306 1370 -942 
Q 1113 -578 948 -165 
Q 784 247 703 697 
Q 622 1147 622 1600 
Q 622 2059 703 2509 
Q 784 2959 951 3375 
Q 1119 3791 1378 4153 
Q 1638 4516 1984 4788 
Q 1984 4800 2016 4800 
L 2075 4800 
Q 2094 4800 2109 4783 
Q 2125 4766 2125 4744 
Q 2125 4716 2113 4703 
Q 1800 4397 1592 4047 
Q 1384 3697 1257 3301 
Q 1131 2906 1075 2482 
Q 1019 2059 1019 1600 
Q 1019 -434 2106 -1491 
Q 2125 -1509 2125 -1544 
Q 2125 -1559 2108 -1579 
Q 2091 -1600 2075 -1600 
L 2016 -1600 
Q 1984 -1600 1984 -1588 
z
" transform="scale(0.015625)"/>
     <path id="Cmr10-29" d="M 416 -1600 
Q 359 -1600 359 -1544 
Q 359 -1516 372 -1503 
Q 1466 -434 1466 1600 
Q 1466 3634 384 4691 
Q 359 4706 359 4744 
Q 359 4766 376 4783 
Q 394 4800 416 4800 
L 475 4800 
Q 494 4800 506 4788 
Q 966 4425 1272 3906 
Q 1578 3388 1720 2800 
Q 1863 2213 1863 1600 
Q 1863 1147 1786 708 
Q 1709 269 1542 -157 
Q 1375 -584 1119 -945 
Q 863 -1306 506 -1588 
Q 494 -1600 475 -1600 
L 416 -1600 
z
" transform="scale(0.015625)"/>
     <path id="Cmsy10-2c" d="M 269 1538 
Q 219 1547 219 1600 
Q 219 1647 269 1672 
Q 841 1891 1280 2322 
Q 1719 2753 1947 3316 
Q 1963 3359 2003 3359 
L 2131 3359 
Q 2153 3359 2173 3339 
Q 2194 3319 2194 3291 
Q 2194 3178 1983 2843 
Q 1772 2509 1631 2350 
L 4763 2350 
Q 4609 2534 4403 2856 
Q 4197 3178 4197 3291 
Q 4197 3316 4219 3337 
Q 4241 3359 4263 3359 
L 4391 3359 
Q 4431 3359 4447 3316 
Q 4603 2934 4850 2617 
Q 5097 2300 5419 2061 
Q 5741 1822 6131 1672 
Q 6175 1644 6175 1600 
Q 6175 1550 6131 1538 
Q 5563 1319 5123 889 
Q 4684 459 4447 -116 
Q 4431 -159 4391 -159 
L 4263 -159 
Q 4241 -159 4219 -134 
Q 4197 -109 4197 -91 
Q 4197 28 4412 361 
Q 4628 694 4763 850 
L 1631 850 
Q 1756 713 1975 370 
Q 2194 28 2194 -91 
Q 2194 -113 2173 -136 
Q 2153 -159 2131 -159 
L 2003 -159 
Q 1963 -159 1947 -116 
Q 1716 453 1277 884 
Q 838 1316 269 1538 
z
M 703 1600 
Q 1084 1394 1388 1106 
L 5006 1106 
Q 5309 1394 5691 1600 
Q 5309 1806 5006 2094 
L 1388 2094 
Q 1084 1806 703 1600 
z
" transform="scale(0.015625)"/>
     <path id="Cmmi10-6e" d="M 494 109 
Q 494 147 500 166 
L 978 2075 
Q 1025 2253 1025 2388 
Q 1025 2663 838 2663 
Q 638 2663 541 2423 
Q 444 2184 353 1819 
Q 353 1800 334 1789 
Q 316 1778 300 1778 
L 225 1778 
Q 203 1778 187 1801 
Q 172 1825 172 1844 
Q 241 2122 305 2315 
Q 369 2509 505 2668 
Q 641 2828 844 2828 
Q 1084 2828 1268 2676 
Q 1453 2525 1453 2291 
Q 1644 2541 1900 2684 
Q 2156 2828 2444 2828 
Q 2672 2828 2837 2750 
Q 3003 2672 3095 2514 
Q 3188 2356 3188 2138 
Q 3188 1875 3070 1503 
Q 2953 1131 2778 672 
Q 2688 463 2688 288 
Q 2688 97 2834 97 
Q 3084 97 3251 365 
Q 3419 634 3488 941 
Q 3500 978 3541 978 
L 3616 978 
Q 3641 978 3658 962 
Q 3675 947 3675 922 
Q 3675 916 3669 903 
Q 3581 541 3364 234 
Q 3147 -72 2822 -72 
Q 2597 -72 2437 83 
Q 2278 238 2278 459 
Q 2278 578 2328 709 
Q 2409 919 2514 1209 
Q 2619 1500 2686 1765 
Q 2753 2031 2753 2234 
Q 2753 2413 2679 2538 
Q 2606 2663 2431 2663 
Q 2197 2663 2000 2559 
Q 1803 2456 1656 2286 
Q 1509 2116 1388 1881 
L 953 141 
Q 931 53 854 -9 
Q 778 -72 684 -72 
Q 606 -72 550 -22 
Q 494 28 494 109 
z
" transform="scale(0.015625)"/>
     <path id="Cmr10-77" d="M 1416 0 
L 588 2328 
Q 531 2469 425 2501 
Q 319 2534 116 2534 
L 116 2759 
L 1434 2759 
L 1434 2534 
Q 1056 2534 1056 2375 
Q 1059 2366 1061 2356 
Q 1063 2347 1063 2328 
L 1678 603 
L 2209 2106 
L 2125 2328 
Q 2075 2469 1965 2501 
Q 1856 2534 1656 2534 
L 1656 2759 
L 2919 2759 
L 2919 2534 
Q 2541 2534 2541 2375 
Q 2541 2350 2547 2328 
L 3188 525 
L 3769 2156 
Q 3781 2206 3781 2247 
Q 3781 2381 3667 2457 
Q 3553 2534 3413 2534 
L 3413 2759 
L 4500 2759 
L 4500 2534 
Q 4306 2534 4167 2432 
Q 4028 2331 3963 2156 
L 3200 0 
Q 3178 -72 3103 -72 
L 3053 -72 
Q 2978 -72 2956 0 
L 2309 1825 
L 1663 0 
Q 1631 -72 1563 -72 
L 1516 -72 
Q 1438 -72 1416 0 
z
" transform="scale(0.015625)"/>
     <path id="Cmr10-69" d="M 197 0 
L 197 225 
Q 416 225 556 259 
Q 697 294 697 428 
L 697 2175 
Q 697 2422 601 2478 
Q 506 2534 225 2534 
L 225 2759 
L 1147 2828 
L 1147 428 
Q 1147 294 1269 259 
Q 1391 225 1594 225 
L 1594 0 
L 197 0 
z
M 469 3928 
Q 469 4069 575 4175 
Q 681 4281 819 4281 
Q 909 4281 993 4234 
Q 1078 4188 1125 4103 
Q 1172 4019 1172 3928 
Q 1172 3791 1065 3684 
Q 959 3578 819 3578 
Q 681 3578 575 3684 
Q 469 3791 469 3928 
z
" transform="scale(0.015625)"/>
     <path id="Cmr10-74" d="M 653 769 
L 653 2534 
L 122 2534 
L 122 2700 
Q 541 2700 737 3090 
Q 934 3481 934 3938 
L 1119 3938 
L 1119 2759 
L 2022 2759 
L 2022 2534 
L 1119 2534 
L 1119 781 
Q 1119 516 1208 316 
Q 1297 116 1528 116 
Q 1747 116 1844 327 
Q 1941 538 1941 781 
L 1941 1159 
L 2125 1159 
L 2125 769 
Q 2125 569 2051 373 
Q 1978 178 1834 53 
Q 1691 -72 1484 -72 
Q 1100 -72 876 158 
Q 653 388 653 769 
z
" transform="scale(0.015625)"/>
     <path id="Cmr10-68" d="M 191 0 
L 191 225 
Q 409 225 550 259 
Q 691 294 691 428 
L 691 3788 
Q 691 3959 639 4036 
Q 588 4113 491 4130 
Q 394 4147 191 4147 
L 191 4372 
L 1141 4441 
L 1141 2241 
Q 1275 2506 1515 2667 
Q 1756 2828 2047 2828 
Q 2491 2828 2714 2615 
Q 2938 2403 2938 1966 
L 2938 428 
Q 2938 294 3078 259 
Q 3219 225 3438 225 
L 3438 0 
L 1972 0 
L 1972 225 
Q 2191 225 2331 259 
Q 2472 294 2472 428 
L 2472 1947 
Q 2472 2259 2381 2461 
Q 2291 2663 2009 2663 
Q 1638 2663 1398 2366 
Q 1159 2069 1159 1691 
L 1159 428 
Q 1159 294 1300 259 
Q 1441 225 1656 225 
L 1656 0 
L 191 0 
z
" transform="scale(0.015625)"/>
    </defs>
    <use xlink:href="#Cmb10-78"/>
    <use xlink:href="#Cmmi10-6c" transform="translate(57.149687 -17.00625) scale(0.7)"/>
    <use xlink:href="#Cmr10-2b" transform="translate(90.290312 -17.00625) scale(0.7)"/>
    <use xlink:href="#Cmr10-31" transform="translate(156.961211 -17.00625) scale(0.7)"/>
    <use xlink:href="#Cmr10-3d" transform="translate(215.897148 0)"/>
    <use xlink:href="#Cmb10-78" transform="translate(311.141289 0)"/>
    <use xlink:href="#Cmmi10-6c" transform="translate(368.290977 -17.00625) scale(0.7)"/>
    <use xlink:href="#Cmr10-2b" transform="translate(413.076523 0)"/>
    <use xlink:href="#Cmb10-66" transform="translate(508.320664 0)"/>
    <use xlink:href="#Cmmi10-b5" transform="translate(543.302383 -17.00625) scale(0.7)"/>
    <use xlink:href="#Cmr10-28" transform="translate(582.526406 0)"/>
    <use xlink:href="#Cmb10-78" transform="translate(621.344766 0)"/>
    <use xlink:href="#Cmmi10-6c" transform="translate(678.494453 -17.00625) scale(0.7)"/>
    <use xlink:href="#Cmr10-29" transform="translate(705.721406 0)"/>
    <use xlink:href="#Cmsy10-2c" transform="translate(849.891328 0)"/>
    <use xlink:href="#Cmb10-78" transform="translate(1055.242891 0)"/>
    <use xlink:href="#Cmmi10-6e" transform="translate(1112.392578 -17.00625) scale(0.7)"/>
    <use xlink:href="#Cmr10-2b" transform="translate(1166.69043 -17.00625) scale(0.7)"/>
    <use xlink:href="#Cmr10-31" transform="translate(1233.361328 -17.00625) scale(0.7)"/>
    <use xlink:href="#Cmr10-3d" transform="translate(1292.297266 0)"/>
    <use xlink:href="#Cmb10-78" transform="translate(1387.541406 0)"/>
    <use xlink:href="#Cmmi10-6e" transform="translate(1444.691094 -17.00625) scale(0.7)"/>
    <use xlink:href="#Cmr10-2b" transform="translate(1510.633867 0)"/>
    <use xlink:href="#Cmmi10-68" transform="translate(1605.878008 0)"/>
    <use xlink:href="#Cmb10-66" transform="translate(1678.127649 0)"/>
    <use xlink:href="#Cmr10-28" transform="translate(1708.645228 0)"/>
    <use xlink:href="#Cmb10-78" transform="translate(1747.463587 0)"/>
    <use xlink:href="#Cmmi10-6e" transform="translate(1804.613274 -17.00625) scale(0.7)"/>
    <use xlink:href="#Cmr10-29" transform="translate(1852.997454 0)"/>
    <use xlink:href="#Cmr10-77" transform="translate(1950.343874 0)"/>
    <use xlink:href="#Cmr10-69" transform="translate(2022.560671 0)"/>
    <use xlink:href="#Cmr10-74" transform="translate(2050.246218 0)"/>
    <use xlink:href="#Cmr10-68" transform="translate(2089.064577 0)"/>
    <use xlink:href="#Cmmi10-68" transform="translate(2173.846186 0)"/>
    <use xlink:href="#Cmr10-3d" transform="translate(2249.021967 0)"/>
    <use xlink:href="#Cmr10-31" transform="translate(2344.266107 0)"/>
   </g>
  </g>
 </g>
 <defs>
  <clipPath id="p167bfb78e1">
   <rect x="7.2" y="7.2" width="170.921739" height="314.496"/>
  </clipPath>
  <clipPath id="p33eb929ac2">
   <rect x="242.70887" y="7.2" width="314.496" height="314.496"/>
  </clipPath>
 </defs>
</svg>
