<?xml version="1.0" encoding="utf-8" standalone="no"?>
<!DOCTYPE svg PUBLIC "-//W3C//DTD SVG 1.1//EN"
  "http://www.w3.org/Graphics/SVG/1.1/DTD/svg11.dtd">
<svg xmlns:xlink="http://www.w3.org/1999/xlink" width="429.572187pt" height="254.186065pt" viewBox="0 0 429.572187 254.186065" xmlns="http://www.w3.org/2000/svg" version="1.1">
 <metadata>
  <rdf:RDF xmlns:dc="http://purl.org/dc/elements/1.1/" xmlns:cc="http://creativecommons.org/ns#" xmlns:rdf="http://www.w3.org/1999/02/22-rdf-syntax-ns#">
   <cc:Work>
    <dc:type rdf:resource="http://purl.org/dc/dcmitype/StillImage"/>
    <dc:format>image/svg+xml</dc:format>
    <dc:creator>
     <cc:Agent>
      <dc:title>Matplotlib v3.10.8, https://matplotlib.org/</dc:title>
     </cc:Agent>
    </dc:creator>
   </cc:Work>
  </rdf:RDF>
 </metadata>
 <defs>
  <style type="text/css">*{stroke-linejoin: round; stroke-linecap: butt}</style>
 </defs>
 <g id="figure_1">
  <g id="patch_1">
   <path d="M 0 254.186065 
L 429.572187 254.186065 
L 429.572187 0 
L 0 0 
z
" style="fill: #ffffff"/>
  </g>
  <g id="axes_1">
   <g id="patch_2">
    <path d="M 54.092188 217.113721 
L 422.372187 217.113721 
L 422.372187 17.529721 
L 54.092188 17.529721 
z
" style="fill: #ffffff"/>
   </g>
   <g id="patch_3">
    <path d="M 218.528215 217.113721 
L 372.190848 217.113721 
L 372.190848 17.529721 
L 218.528215 17.529721 
z
" clip-path="url(#pd840b8f427)" style="fill: #cfcfcf; opacity: 0.18"/>
   </g>
   <g id="line2d_1">
    <path d="M 54.092188 215.378208 
L 422.372187 215.378208 
" clip-path="url(#pd840b8f427)" style="fill: none; stroke: #cfcfcf; stroke-linecap: square"/>
   </g>
   <g id="matplotlib.axis_1">
    <g id="xtick_1">
     <g id="line2d_2">
      <defs>
       <path id="m0e0d04b24a" d="M 0 0 
L 0 3.5 
" style="stroke: #000000; stroke-width: 0.8"/>
      </defs>
      <g>
       <use xlink:href="#m0e0d04b24a" x="54.092188" y="217.113721" style="stroke: #000000; stroke-width: 0.8"/>
      </g>
     </g>
     <g id="text_1">
      <!-- $10^0$ -->
      <g transform="translate(47.522188 230.952315) scale(0.09 -0.09)">
       <defs>
        <path id="Cmr10-31" d="M 594 0 
L 594 225 
Q 1394 225 1394 428 
L 1394 3788 
Q 1063 3628 556 3628 
L 556 3853 
Q 1341 3853 1741 4263 
L 1831 4263 
Q 1853 4263 1873 4245 
Q 1894 4228 1894 4206 
L 1894 428 
Q 1894 225 2694 225 
L 2694 0 
L 594 0 
z
" transform="scale(0.015625)"/>
        <path id="Cmr10-30" d="M 1600 -141 
Q 816 -141 533 504 
Q 250 1150 250 2041 
Q 250 2597 351 3087 
Q 453 3578 754 3920 
Q 1056 4263 1600 4263 
Q 2022 4263 2290 4056 
Q 2559 3850 2700 3523 
Q 2841 3197 2892 2823 
Q 2944 2450 2944 2041 
Q 2944 1491 2842 1011 
Q 2741 531 2444 195 
Q 2147 -141 1600 -141 
z
M 1600 25 
Q 1956 25 2131 390 
Q 2306 756 2347 1200 
Q 2388 1644 2388 2144 
Q 2388 2625 2347 3031 
Q 2306 3438 2132 3767 
Q 1959 4097 1600 4097 
Q 1238 4097 1063 3765 
Q 888 3434 847 3029 
Q 806 2625 806 2144 
Q 806 1788 823 1472 
Q 841 1156 916 820 
Q 991 484 1158 254 
Q 1325 25 1600 25 
z
" transform="scale(0.015625)"/>
       </defs>
       <use xlink:href="#Cmr10-31" transform="translate(0 0.109375)"/>
       <use xlink:href="#Cmr10-30" transform="translate(50 0.109375)"/>
       <use xlink:href="#Cmr10-30" transform="translate(104.464141 38.373438) scale(0.7)"/>
      </g>
     </g>
    </g>
    <g id="xtick_2">
     <g id="line2d_3">
      <g>
       <use xlink:href="#m0e0d04b24a" x="110.750649" y="217.113721" style="stroke: #000000; stroke-width: 0.8"/>
      </g>
     </g>
     <g id="text_2">
      <!-- $10^1$ -->
      <g transform="translate(104.180649 230.952315) scale(0.09 -0.09)">
       <use xlink:href="#Cmr10-31" transform="translate(0 0.109375)"/>
       <use xlink:href="#Cmr10-30" transform="translate(50 0.109375)"/>
       <use xlink:href="#Cmr10-31" transform="translate(104.464141 38.373438) scale(0.7)"/>
      </g>
     </g>
    </g>
    <g id="xtick_3">
     <g id="line2d_4">
      <g>
       <use xlink:href="#m0e0d04b24a" x="167.409111" y="217.113721" style="stroke: #000000; stroke-width: 0.8"/>
      </g>
     </g>
     <g id="text_3">
      <!-- $10^2$ -->
      <g transform="translate(160.839111 230.952315) scale(0.09 -0.09)">
       <defs>
        <path id="Cmr10-32" d="M 319 0 
L 319 172 
Q 319 188 331 206 
L 1325 1306 
Q 1550 1550 1690 1715 
Q 1831 1881 1968 2097 
Q 2106 2313 2186 2536 
Q 2266 2759 2266 3009 
Q 2266 3272 2169 3511 
Q 2072 3750 1880 3894 
Q 1688 4038 1416 4038 
Q 1138 4038 916 3870 
Q 694 3703 603 3438 
Q 628 3444 672 3444 
Q 816 3444 917 3347 
Q 1019 3250 1019 3097 
Q 1019 2950 917 2848 
Q 816 2747 672 2747 
Q 522 2747 420 2851 
Q 319 2956 319 3097 
Q 319 3338 409 3548 
Q 500 3759 670 3923 
Q 841 4088 1055 4175 
Q 1269 4263 1509 4263 
Q 1875 4263 2190 4108 
Q 2506 3953 2690 3670 
Q 2875 3388 2875 3009 
Q 2875 2731 2753 2481 
Q 2631 2231 2440 2026 
Q 2250 1822 1953 1562 
Q 1656 1303 1563 1216 
L 838 519 
L 1453 519 
Q 1906 519 2211 526 
Q 2516 534 2534 550 
Q 2609 631 2688 1141 
L 2875 1141 
L 2694 0 
L 319 0 
z
" transform="scale(0.015625)"/>
       </defs>
       <use xlink:href="#Cmr10-31" transform="translate(0 0.109375)"/>
       <use xlink:href="#Cmr10-30" transform="translate(50 0.109375)"/>
       <use xlink:href="#Cmr10-32" transform="translate(104.464141 38.373438) scale(0.7)"/>
      </g>
     </g>
    </g>
    <g id="xtick_4">
     <g id="line2d_5">
      <g>
       <use xlink:href="#m0e0d04b24a" x="224.067572" y="217.113721" style="stroke: #000000; stroke-width: 0.8"/>
      </g>
     </g>
     <g id="text_4">
      <!-- $10^3$ -->
      <g transform="translate(217.497572 230.952315) scale(0.09 -0.09)">
       <defs>
        <path id="Cmr10-33" d="M 609 494 
Q 759 275 1012 169 
Q 1266 63 1556 63 
Q 1928 63 2084 380 
Q 2241 697 2241 1100 
Q 2241 1281 2208 1462 
Q 2175 1644 2097 1800 
Q 2019 1956 1883 2050 
Q 1747 2144 1550 2144 
L 1125 2144 
Q 1069 2144 1069 2203 
L 1069 2259 
Q 1069 2309 1125 2309 
L 1478 2338 
Q 1703 2338 1851 2506 
Q 2000 2675 2069 2917 
Q 2138 3159 2138 3378 
Q 2138 3684 1994 3881 
Q 1850 4078 1556 4078 
Q 1313 4078 1091 3986 
Q 869 3894 738 3706 
Q 750 3709 759 3711 
Q 769 3713 781 3713 
Q 925 3713 1022 3613 
Q 1119 3513 1119 3372 
Q 1119 3234 1022 3134 
Q 925 3034 781 3034 
Q 641 3034 541 3134 
Q 441 3234 441 3372 
Q 441 3647 606 3850 
Q 772 4053 1033 4158 
Q 1294 4263 1556 4263 
Q 1750 4263 1965 4205 
Q 2181 4147 2356 4039 
Q 2531 3931 2642 3762 
Q 2753 3594 2753 3378 
Q 2753 3109 2633 2881 
Q 2513 2653 2303 2487 
Q 2094 2322 1844 2241 
Q 2122 2188 2372 2031 
Q 2622 1875 2773 1631 
Q 2925 1388 2925 1106 
Q 2925 753 2731 467 
Q 2538 181 2222 20 
Q 1906 -141 1556 -141 
Q 1256 -141 954 -26 
Q 653 88 461 316 
Q 269 544 269 863 
Q 269 1022 375 1128 
Q 481 1234 641 1234 
Q 744 1234 830 1186 
Q 916 1138 964 1050 
Q 1013 963 1013 863 
Q 1013 706 903 600 
Q 794 494 641 494 
L 609 494 
z
" transform="scale(0.015625)"/>
       </defs>
       <use xlink:href="#Cmr10-31" transform="translate(0 0.109375)"/>
       <use xlink:href="#Cmr10-30" transform="translate(50 0.109375)"/>
       <use xlink:href="#Cmr10-33" transform="translate(104.464141 38.373438) scale(0.7)"/>
      </g>
     </g>
    </g>
    <g id="xtick_5">
     <g id="line2d_6">
      <g>
       <use xlink:href="#m0e0d04b24a" x="280.726034" y="217.113721" style="stroke: #000000; stroke-width: 0.8"/>
      </g>
     </g>
     <g id="text_5">
      <!-- $10^4$ -->
      <g transform="translate(274.156034 230.952315) scale(0.09 -0.09)">
       <defs>
        <path id="Cmr10-34" d="M 178 1056 
L 178 1281 
L 2156 4231 
Q 2178 4263 2222 4263 
L 2316 4263 
Q 2388 4263 2388 4191 
L 2388 1281 
L 3016 1281 
L 3016 1056 
L 2388 1056 
L 2388 428 
Q 2388 297 2575 261 
Q 2763 225 3009 225 
L 3009 0 
L 1247 0 
L 1247 225 
Q 1494 225 1681 261 
Q 1869 297 1869 428 
L 1869 1056 
L 178 1056 
z
M 391 1281 
L 1906 1281 
L 1906 3547 
L 391 1281 
z
" transform="scale(0.015625)"/>
       </defs>
       <use xlink:href="#Cmr10-31" transform="translate(0 0.109375)"/>
       <use xlink:href="#Cmr10-30" transform="translate(50 0.109375)"/>
       <use xlink:href="#Cmr10-34" transform="translate(104.464141 38.373438) scale(0.7)"/>
      </g>
     </g>
    </g>
    <g id="xtick_6">
     <g id="line2d_7">
      <g>
       <use xlink:href="#m0e0d04b24a" x="337.384495" y="217.113721" style="stroke: #000000; stroke-width: 0.8"/>
      </g>
     </g>
     <g id="text_6">
      <!-- $10^5$ -->
      <g transform="translate(330.814495 230.952315) scale(0.09 -0.09)">
       <defs>
        <path id="Cmr10-35" d="M 556 728 
Q 622 541 758 387 
Q 894 234 1080 148 
Q 1266 63 1466 63 
Q 1928 63 2103 422 
Q 2278 781 2278 1294 
Q 2278 1516 2270 1667 
Q 2263 1819 2228 1959 
Q 2169 2184 2020 2353 
Q 1872 2522 1656 2522 
Q 1441 2522 1286 2456 
Q 1131 2391 1034 2303 
Q 938 2216 863 2119 
Q 788 2022 769 2016 
L 697 2016 
Q 681 2016 657 2036 
Q 634 2056 634 2075 
L 634 4213 
Q 634 4228 654 4245 
Q 675 4263 697 4263 
L 716 4263 
Q 1147 4056 1631 4056 
Q 2106 4056 2547 4263 
L 2566 4263 
Q 2588 4263 2606 4247 
Q 2625 4231 2625 4213 
L 2625 4153 
Q 2625 4122 2613 4122 
Q 2394 3831 2064 3668 
Q 1734 3506 1381 3506 
Q 1125 3506 856 3578 
L 856 2369 
Q 1069 2541 1236 2614 
Q 1403 2688 1663 2688 
Q 2016 2688 2295 2484 
Q 2575 2281 2725 1954 
Q 2875 1628 2875 1288 
Q 2875 903 2686 575 
Q 2497 247 2172 53 
Q 1847 -141 1466 -141 
Q 1150 -141 886 21 
Q 622 184 470 459 
Q 319 734 319 1044 
Q 319 1188 412 1278 
Q 506 1369 647 1369 
Q 788 1369 883 1276 
Q 978 1184 978 1044 
Q 978 906 883 811 
Q 788 716 647 716 
Q 625 716 597 720 
Q 569 725 556 728 
z
" transform="scale(0.015625)"/>
       </defs>
       <use xlink:href="#Cmr10-31" transform="translate(0 0.109375)"/>
       <use xlink:href="#Cmr10-30" transform="translate(50 0.109375)"/>
       <use xlink:href="#Cmr10-35" transform="translate(104.464141 38.373438) scale(0.7)"/>
      </g>
     </g>
    </g>
    <g id="xtick_7">
     <g id="line2d_8">
      <g>
       <use xlink:href="#m0e0d04b24a" x="394.042957" y="217.113721" style="stroke: #000000; stroke-width: 0.8"/>
      </g>
     </g>
     <g id="text_7">
      <!-- $10^6$ -->
      <g transform="translate(387.472957 230.952315) scale(0.09 -0.09)">
       <defs>
        <path id="Cmr10-36" d="M 1600 -141 
Q 1203 -141 937 70 
Q 672 281 526 617 
Q 381 953 325 1322 
Q 269 1691 269 2069 
Q 269 2575 466 3084 
Q 663 3594 1045 3928 
Q 1428 4263 1953 4263 
Q 2172 4263 2361 4180 
Q 2550 4097 2658 3936 
Q 2766 3775 2766 3547 
Q 2766 3416 2677 3327 
Q 2588 3238 2456 3238 
Q 2331 3238 2240 3328 
Q 2150 3419 2150 3547 
Q 2150 3672 2240 3762 
Q 2331 3853 2456 3853 
L 2491 3853 
Q 2409 3969 2261 4023 
Q 2113 4078 1953 4078 
Q 1759 4078 1595 3993 
Q 1431 3909 1300 3765 
Q 1169 3622 1081 3448 
Q 994 3275 945 3053 
Q 897 2831 884 2637 
Q 872 2444 872 2150 
Q 984 2413 1190 2580 
Q 1397 2747 1656 2747 
Q 1941 2747 2175 2631 
Q 2409 2516 2578 2311 
Q 2747 2106 2836 1843 
Q 2925 1581 2925 1313 
Q 2925 938 2758 598 
Q 2591 259 2287 59 
Q 1984 -141 1600 -141 
z
M 1600 63 
Q 1847 63 1997 175 
Q 2147 288 2217 473 
Q 2288 659 2305 848 
Q 2322 1038 2322 1313 
Q 2322 1675 2287 1931 
Q 2253 2188 2100 2383 
Q 1947 2578 1631 2578 
Q 1372 2578 1205 2403 
Q 1038 2228 961 1961 
Q 884 1694 884 1447 
Q 884 1363 891 1319 
Q 891 1309 889 1303 
Q 888 1297 884 1288 
Q 884 1013 940 731 
Q 997 450 1156 256 
Q 1316 63 1600 63 
z
" transform="scale(0.015625)"/>
       </defs>
       <use xlink:href="#Cmr10-31" transform="translate(0 0.109375)"/>
       <use xlink:href="#Cmr10-30" transform="translate(50 0.109375)"/>
       <use xlink:href="#Cmr10-36" transform="translate(104.464141 38.373438) scale(0.7)"/>
      </g>
     </g>
    </g>
    <g id="text_8">
     <!-- optimization steps (log scale) -->
     <g transform="translate(160.843906 244.802393) scale(0.105 -0.105)">
      <defs>
       <path id="DejaVuSans-6f" d="M 1959 3097 
Q 1497 3097 1228 2736 
Q 959 2375 959 1747 
Q 959 1119 1226 758 
Q 1494 397 1959 397 
Q 2419 397 2687 759 
Q 2956 1122 2956 1747 
Q 2956 2369 2687 2733 
Q 2419 3097 1959 3097 
z
M 1959 3584 
Q 2709 3584 3137 3096 
Q 3566 2609 3566 1747 
Q 3566 888 3137 398 
Q 2709 -91 1959 -91 
Q 1206 -91 779 398 
Q 353 888 353 1747 
Q 353 2609 779 3096 
Q 1206 3584 1959 3584 
z
" transform="scale(0.015625)"/>
       <path id="DejaVuSans-70" d="M 1159 525 
L 1159 -1331 
L 581 -1331 
L 581 3500 
L 1159 3500 
L 1159 2969 
Q 1341 3281 1617 3432 
Q 1894 3584 2278 3584 
Q 2916 3584 3314 3078 
Q 3713 2572 3713 1747 
Q 3713 922 3314 415 
Q 2916 -91 2278 -91 
Q 1894 -91 1617 61 
Q 1341 213 1159 525 
z
M 3116 1747 
Q 3116 2381 2855 2742 
Q 2594 3103 2138 3103 
Q 1681 3103 1420 2742 
Q 1159 2381 1159 1747 
Q 1159 1113 1420 752 
Q 1681 391 2138 391 
Q 2594 391 2855 752 
Q 3116 1113 3116 1747 
z
" transform="scale(0.015625)"/>
       <path id="DejaVuSans-74" d="M 1172 4494 
L 1172 3500 
L 2356 3500 
L 2356 3053 
L 1172 3053 
L 1172 1153 
Q 1172 725 1289 603 
Q 1406 481 1766 481 
L 2356 481 
L 2356 0 
L 1766 0 
Q 1100 0 847 248 
Q 594 497 594 1153 
L 594 3053 
L 172 3053 
L 172 3500 
L 594 3500 
L 594 4494 
L 1172 4494 
z
" transform="scale(0.015625)"/>
       <path id="DejaVuSans-69" d="M 603 3500 
L 1178 3500 
L 1178 0 
L 603 0 
L 603 3500 
z
M 603 4863 
L 1178 4863 
L 1178 4134 
L 603 4134 
L 603 4863 
z
" transform="scale(0.015625)"/>
       <path id="DejaVuSans-6d" d="M 3328 2828 
Q 3544 3216 3844 3400 
Q 4144 3584 4550 3584 
Q 5097 3584 5394 3201 
Q 5691 2819 5691 2113 
L 5691 0 
L 5113 0 
L 5113 2094 
Q 5113 2597 4934 2840 
Q 4756 3084 4391 3084 
Q 3944 3084 3684 2787 
Q 3425 2491 3425 1978 
L 3425 0 
L 2847 0 
L 2847 2094 
Q 2847 2600 2669 2842 
Q 2491 3084 2119 3084 
Q 1678 3084 1418 2786 
Q 1159 2488 1159 1978 
L 1159 0 
L 581 0 
L 581 3500 
L 1159 3500 
L 1159 2956 
Q 1356 3278 1631 3431 
Q 1906 3584 2284 3584 
Q 2666 3584 2933 3390 
Q 3200 3197 3328 2828 
z
" transform="scale(0.015625)"/>
       <path id="DejaVuSans-7a" d="M 353 3500 
L 3084 3500 
L 3084 2975 
L 922 459 
L 3084 459 
L 3084 0 
L 275 0 
L 275 525 
L 2438 3041 
L 353 3041 
L 353 3500 
z
" transform="scale(0.015625)"/>
       <path id="DejaVuSans-61" d="M 2194 1759 
Q 1497 1759 1228 1600 
Q 959 1441 959 1056 
Q 959 750 1161 570 
Q 1363 391 1709 391 
Q 2188 391 2477 730 
Q 2766 1069 2766 1631 
L 2766 1759 
L 2194 1759 
z
M 3341 1997 
L 3341 0 
L 2766 0 
L 2766 531 
Q 2569 213 2275 61 
Q 1981 -91 1556 -91 
Q 1019 -91 701 211 
Q 384 513 384 1019 
Q 384 1609 779 1909 
Q 1175 2209 1959 2209 
L 2766 2209 
L 2766 2266 
Q 2766 2663 2505 2880 
Q 2244 3097 1772 3097 
Q 1472 3097 1187 3025 
Q 903 2953 641 2809 
L 641 3341 
Q 956 3463 1253 3523 
Q 1550 3584 1831 3584 
Q 2591 3584 2966 3190 
Q 3341 2797 3341 1997 
z
" transform="scale(0.015625)"/>
       <path id="DejaVuSans-6e" d="M 3513 2113 
L 3513 0 
L 2938 0 
L 2938 2094 
Q 2938 2591 2744 2837 
Q 2550 3084 2163 3084 
Q 1697 3084 1428 2787 
Q 1159 2491 1159 1978 
L 1159 0 
L 581 0 
L 581 3500 
L 1159 3500 
L 1159 2956 
Q 1366 3272 1645 3428 
Q 1925 3584 2291 3584 
Q 2894 3584 3203 3211 
Q 3513 2838 3513 2113 
z
" transform="scale(0.015625)"/>
       <path id="DejaVuSans-20" transform="scale(0.015625)"/>
       <path id="DejaVuSans-73" d="M 2834 3397 
L 2834 2853 
Q 2591 2978 2328 3040 
Q 2066 3103 1784 3103 
Q 1356 3103 1142 2972 
Q 928 2841 928 2578 
Q 928 2378 1081 2264 
Q 1234 2150 1697 2047 
L 1894 2003 
Q 2506 1872 2764 1633 
Q 3022 1394 3022 966 
Q 3022 478 2636 193 
Q 2250 -91 1575 -91 
Q 1294 -91 989 -36 
Q 684 19 347 128 
L 347 722 
Q 666 556 975 473 
Q 1284 391 1588 391 
Q 1994 391 2212 530 
Q 2431 669 2431 922 
Q 2431 1156 2273 1281 
Q 2116 1406 1581 1522 
L 1381 1569 
Q 847 1681 609 1914 
Q 372 2147 372 2553 
Q 372 3047 722 3315 
Q 1072 3584 1716 3584 
Q 2034 3584 2315 3537 
Q 2597 3491 2834 3397 
z
" transform="scale(0.015625)"/>
       <path id="DejaVuSans-65" d="M 3597 1894 
L 3597 1613 
L 953 1613 
Q 991 1019 1311 708 
Q 1631 397 2203 397 
Q 2534 397 2845 478 
Q 3156 559 3463 722 
L 3463 178 
Q 3153 47 2828 -22 
Q 2503 -91 2169 -91 
Q 1331 -91 842 396 
Q 353 884 353 1716 
Q 353 2575 817 3079 
Q 1281 3584 2069 3584 
Q 2775 3584 3186 3129 
Q 3597 2675 3597 1894 
z
M 3022 2063 
Q 3016 2534 2758 2815 
Q 2500 3097 2075 3097 
Q 1594 3097 1305 2825 
Q 1016 2553 972 2059 
L 3022 2063 
z
" transform="scale(0.015625)"/>
       <path id="DejaVuSans-28" d="M 1984 4856 
Q 1566 4138 1362 3434 
Q 1159 2731 1159 2009 
Q 1159 1288 1364 580 
Q 1569 -128 1984 -844 
L 1484 -844 
Q 1016 -109 783 600 
Q 550 1309 550 2009 
Q 550 2706 781 3412 
Q 1013 4119 1484 4856 
L 1984 4856 
z
" transform="scale(0.015625)"/>
       <path id="DejaVuSans-6c" d="M 603 4863 
L 1178 4863 
L 1178 0 
L 603 0 
L 603 4863 
z
" transform="scale(0.015625)"/>
       <path id="DejaVuSans-67" d="M 2906 1791 
Q 2906 2416 2648 2759 
Q 2391 3103 1925 3103 
Q 1463 3103 1205 2759 
Q 947 2416 947 1791 
Q 947 1169 1205 825 
Q 1463 481 1925 481 
Q 2391 481 2648 825 
Q 2906 1169 2906 1791 
z
M 3481 434 
Q 3481 -459 3084 -895 
Q 2688 -1331 1869 -1331 
Q 1566 -1331 1297 -1286 
Q 1028 -1241 775 -1147 
L 775 -588 
Q 1028 -725 1275 -790 
Q 1522 -856 1778 -856 
Q 2344 -856 2625 -561 
Q 2906 -266 2906 331 
L 2906 616 
Q 2728 306 2450 153 
Q 2172 0 1784 0 
Q 1141 0 747 490 
Q 353 981 353 1791 
Q 353 2603 747 3093 
Q 1141 3584 1784 3584 
Q 2172 3584 2450 3431 
Q 2728 3278 2906 2969 
L 2906 3500 
L 3481 3500 
L 3481 434 
z
" transform="scale(0.015625)"/>
       <path id="DejaVuSans-63" d="M 3122 3366 
L 3122 2828 
Q 2878 2963 2633 3030 
Q 2388 3097 2138 3097 
Q 1578 3097 1268 2742 
Q 959 2388 959 1747 
Q 959 1106 1268 751 
Q 1578 397 2138 397 
Q 2388 397 2633 464 
Q 2878 531 3122 666 
L 3122 134 
Q 2881 22 2623 -34 
Q 2366 -91 2075 -91 
Q 1284 -91 818 406 
Q 353 903 353 1747 
Q 353 2603 823 3093 
Q 1294 3584 2113 3584 
Q 2378 3584 2631 3529 
Q 2884 3475 3122 3366 
z
" transform="scale(0.015625)"/>
       <path id="DejaVuSans-29" d="M 513 4856 
L 1013 4856 
Q 1481 4119 1714 3412 
Q 1947 2706 1947 2009 
Q 1947 1309 1714 600 
Q 1481 -109 1013 -844 
L 513 -844 
Q 928 -128 1133 580 
Q 1338 1288 1338 2009 
Q 1338 2731 1133 3434 
Q 928 4138 513 4856 
z
" transform="scale(0.015625)"/>
      </defs>
      <use xlink:href="#DejaVuSans-6f"/>
      <use xlink:href="#DejaVuSans-70" transform="translate(61.181641 0)"/>
      <use xlink:href="#DejaVuSans-74" transform="translate(124.658203 0)"/>
      <use xlink:href="#DejaVuSans-69" transform="translate(163.867188 0)"/>
      <use xlink:href="#DejaVuSans-6d" transform="translate(191.650391 0)"/>
      <use xlink:href="#DejaVuSans-69" transform="translate(289.0625 0)"/>
      <use xlink:href="#DejaVuSans-7a" transform="translate(316.845703 0)"/>
      <use xlink:href="#DejaVuSans-61" transform="translate(369.335938 0)"/>
      <use xlink:href="#DejaVuSans-74" transform="translate(430.615234 0)"/>
      <use xlink:href="#DejaVuSans-69" transform="translate(469.824219 0)"/>
      <use xlink:href="#DejaVuSans-6f" transform="translate(497.607422 0)"/>
      <use xlink:href="#DejaVuSans-6e" transform="translate(558.789062 0)"/>
      <use xlink:href="#DejaVuSans-20" transform="translate(622.167969 0)"/>
      <use xlink:href="#DejaVuSans-73" transform="translate(653.955078 0)"/>
      <use xlink:href="#DejaVuSans-74" transform="translate(706.054688 0)"/>
      <use xlink:href="#DejaVuSans-65" transform="translate(745.263672 0)"/>
      <use xlink:href="#DejaVuSans-70" transform="translate(806.787109 0)"/>
      <use xlink:href="#DejaVuSans-73" transform="translate(870.263672 0)"/>
      <use xlink:href="#DejaVuSans-20" transform="translate(922.363281 0)"/>
      <use xlink:href="#DejaVuSans-28" transform="translate(954.150391 0)"/>
      <use xlink:href="#DejaVuSans-6c" transform="translate(993.164062 0)"/>
      <use xlink:href="#DejaVuSans-6f" transform="translate(1020.947266 0)"/>
      <use xlink:href="#DejaVuSans-67" transform="translate(1082.128906 0)"/>
      <use xlink:href="#DejaVuSans-20" transform="translate(1145.605469 0)"/>
      <use xlink:href="#DejaVuSans-73" transform="translate(1177.392578 0)"/>
      <use xlink:href="#DejaVuSans-63" transform="translate(1229.492188 0)"/>
      <use xlink:href="#DejaVuSans-61" transform="translate(1284.472656 0)"/>
      <use xlink:href="#DejaVuSans-6c" transform="translate(1345.751953 0)"/>
      <use xlink:href="#DejaVuSans-65" transform="translate(1373.535156 0)"/>
      <use xlink:href="#DejaVuSans-29" transform="translate(1435.058594 0)"/>
     </g>
    </g>
   </g>
   <g id="matplotlib.axis_2">
    <g id="ytick_1">
     <g id="line2d_9">
      <defs>
       <path id="m5d09d475d1" d="M 0 0 
L -3.5 0 
" style="stroke: #000000; stroke-width: 0.8"/>
      </defs>
      <g>
       <use xlink:href="#m5d09d475d1" x="54.092188" y="217.113721" style="stroke: #000000; stroke-width: 0.8"/>
      </g>
     </g>
     <g id="text_9">
      <!-- 0% -->
      <g transform="translate(32.814531 220.533018) scale(0.09 -0.09)">
       <defs>
        <path id="DejaVuSans-30" d="M 2034 4250 
Q 1547 4250 1301 3770 
Q 1056 3291 1056 2328 
Q 1056 1369 1301 889 
Q 1547 409 2034 409 
Q 2525 409 2770 889 
Q 3016 1369 3016 2328 
Q 3016 3291 2770 3770 
Q 2525 4250 2034 4250 
z
M 2034 4750 
Q 2819 4750 3233 4129 
Q 3647 3509 3647 2328 
Q 3647 1150 3233 529 
Q 2819 -91 2034 -91 
Q 1250 -91 836 529 
Q 422 1150 422 2328 
Q 422 3509 836 4129 
Q 1250 4750 2034 4750 
z
" transform="scale(0.015625)"/>
        <path id="DejaVuSans-25" d="M 4653 2053 
Q 4381 2053 4226 1822 
Q 4072 1591 4072 1178 
Q 4072 772 4226 539 
Q 4381 306 4653 306 
Q 4919 306 5073 539 
Q 5228 772 5228 1178 
Q 5228 1588 5073 1820 
Q 4919 2053 4653 2053 
z
M 4653 2450 
Q 5147 2450 5437 2106 
Q 5728 1763 5728 1178 
Q 5728 594 5436 251 
Q 5144 -91 4653 -91 
Q 4153 -91 3862 251 
Q 3572 594 3572 1178 
Q 3572 1766 3864 2108 
Q 4156 2450 4653 2450 
z
M 1428 4353 
Q 1159 4353 1004 4120 
Q 850 3888 850 3481 
Q 850 3069 1003 2837 
Q 1156 2606 1428 2606 
Q 1700 2606 1854 2837 
Q 2009 3069 2009 3481 
Q 2009 3884 1853 4118 
Q 1697 4353 1428 4353 
z
M 4250 4750 
L 4750 4750 
L 1831 -91 
L 1331 -91 
L 4250 4750 
z
M 1428 4750 
Q 1922 4750 2215 4408 
Q 2509 4066 2509 3481 
Q 2509 2891 2217 2550 
Q 1925 2209 1428 2209 
Q 931 2209 642 2551 
Q 353 2894 353 3481 
Q 353 4063 643 4406 
Q 934 4750 1428 4750 
z
" transform="scale(0.015625)"/>
       </defs>
       <use xlink:href="#DejaVuSans-30"/>
       <use xlink:href="#DejaVuSans-25" transform="translate(63.623047 0)"/>
      </g>
     </g>
    </g>
    <g id="ytick_2">
     <g id="line2d_10">
      <g>
       <use xlink:href="#m5d09d475d1" x="54.092188" y="130.338069" style="stroke: #000000; stroke-width: 0.8"/>
      </g>
     </g>
     <g id="text_10">
      <!-- 50% -->
      <g transform="translate(27.088281 133.757366) scale(0.09 -0.09)">
       <defs>
        <path id="DejaVuSans-35" d="M 691 4666 
L 3169 4666 
L 3169 4134 
L 1269 4134 
L 1269 2991 
Q 1406 3038 1543 3061 
Q 1681 3084 1819 3084 
Q 2600 3084 3056 2656 
Q 3513 2228 3513 1497 
Q 3513 744 3044 326 
Q 2575 -91 1722 -91 
Q 1428 -91 1123 -41 
Q 819 9 494 109 
L 494 744 
Q 775 591 1075 516 
Q 1375 441 1709 441 
Q 2250 441 2565 725 
Q 2881 1009 2881 1497 
Q 2881 1984 2565 2268 
Q 2250 2553 1709 2553 
Q 1456 2553 1204 2497 
Q 953 2441 691 2322 
L 691 4666 
z
" transform="scale(0.015625)"/>
       </defs>
       <use xlink:href="#DejaVuSans-35"/>
       <use xlink:href="#DejaVuSans-30" transform="translate(63.623047 0)"/>
       <use xlink:href="#DejaVuSans-25" transform="translate(127.246094 0)"/>
      </g>
     </g>
    </g>
    <g id="ytick_3">
     <g id="line2d_11">
      <g>
       <use xlink:href="#m5d09d475d1" x="54.092188" y="43.562416" style="stroke: #000000; stroke-width: 0.8"/>
      </g>
     </g>
     <g id="text_11">
      <!-- 100% -->
      <g transform="translate(21.362031 46.981713) scale(0.09 -0.09)">
       <defs>
        <path id="DejaVuSans-31" d="M 794 531 
L 1825 531 
L 1825 4091 
L 703 3866 
L 703 4441 
L 1819 4666 
L 2450 4666 
L 2450 531 
L 3481 531 
L 3481 0 
L 794 0 
L 794 531 
z
" transform="scale(0.015625)"/>
       </defs>
       <use xlink:href="#DejaVuSans-31"/>
       <use xlink:href="#DejaVuSans-30" transform="translate(63.623047 0)"/>
       <use xlink:href="#DejaVuSans-30" transform="translate(127.246094 0)"/>
       <use xlink:href="#DejaVuSans-25" transform="translate(190.869141 0)"/>
      </g>
     </g>
    </g>
    <g id="text_12">
     <!-- accuracy -->
     <g transform="translate(15.178359 141.009065) rotate(-90) scale(0.105 -0.105)">
      <defs>
       <path id="DejaVuSans-75" d="M 544 1381 
L 544 3500 
L 1119 3500 
L 1119 1403 
Q 1119 906 1312 657 
Q 1506 409 1894 409 
Q 2359 409 2629 706 
Q 2900 1003 2900 1516 
L 2900 3500 
L 3475 3500 
L 3475 0 
L 2900 0 
L 2900 538 
Q 2691 219 2414 64 
Q 2138 -91 1772 -91 
Q 1169 -91 856 284 
Q 544 659 544 1381 
z
M 1991 3584 
L 1991 3584 
z
" transform="scale(0.015625)"/>
       <path id="DejaVuSans-72" d="M 2631 2963 
Q 2534 3019 2420 3045 
Q 2306 3072 2169 3072 
Q 1681 3072 1420 2755 
Q 1159 2438 1159 1844 
L 1159 0 
L 581 0 
L 581 3500 
L 1159 3500 
L 1159 2956 
Q 1341 3275 1631 3429 
Q 1922 3584 2338 3584 
Q 2397 3584 2469 3576 
Q 2541 3569 2628 3553 
L 2631 2963 
z
" transform="scale(0.015625)"/>
       <path id="DejaVuSans-79" d="M 2059 -325 
Q 1816 -950 1584 -1140 
Q 1353 -1331 966 -1331 
L 506 -1331 
L 506 -850 
L 844 -850 
Q 1081 -850 1212 -737 
Q 1344 -625 1503 -206 
L 1606 56 
L 191 3500 
L 800 3500 
L 1894 763 
L 2988 3500 
L 3597 3500 
L 2059 -325 
z
" transform="scale(0.015625)"/>
      </defs>
      <use xlink:href="#DejaVuSans-61"/>
      <use xlink:href="#DejaVuSans-63" transform="translate(61.279297 0)"/>
      <use xlink:href="#DejaVuSans-63" transform="translate(116.259766 0)"/>
      <use xlink:href="#DejaVuSans-75" transform="translate(171.240234 0)"/>
      <use xlink:href="#DejaVuSans-72" transform="translate(234.619141 0)"/>
      <use xlink:href="#DejaVuSans-61" transform="translate(275.732422 0)"/>
      <use xlink:href="#DejaVuSans-63" transform="translate(337.011719 0)"/>
      <use xlink:href="#DejaVuSans-79" transform="translate(391.992188 0)"/>
     </g>
    </g>
   </g>
   <g id="line2d_12">
    <path d="M 218.528215 217.113721 
L 218.528215 17.529721 
" clip-path="url(#pd840b8f427)" style="fill: none; stroke-dasharray: 4.44,1.92; stroke-dashoffset: 0; stroke: #7f7f7f; stroke-width: 1.2"/>
   </g>
   <g id="line2d_13">
    <path d="M 372.190848 217.113721 
L 372.190848 17.529721 
" clip-path="url(#pd840b8f427)" style="fill: none; stroke-dasharray: 4.44,1.92; stroke-dashoffset: 0; stroke: #7f7f7f; stroke-width: 1.2"/>
   </g>
   <g id="patch_4">
    <path d="M 54.092188 217.113721 
L 54.092188 17.529721 
" style="fill: none; stroke: #000000; stroke-width: 0.8; stroke-linejoin: miter; stroke-linecap: square"/>
   </g>
   <g id="patch_5">
    <path d="M 54.092188 217.113721 
L 422.372187 217.113721 
" style="fill: none; stroke: #000000; stroke-width: 0.8; stroke-linejoin: miter; stroke-linecap: square"/>
   </g>
   <g id="line2d_14">
    <path d="M 54.092188 215.36153 
L 84.99482 215.213532 
L 98.036298 214.945888 
L 106.54161 214.567878 
L 113.062349 214.068072 
L 118.449047 213.43235 
L 122.985213 212.666862 
L 126.670848 211.8326 
L 130.072973 210.842407 
L 133.191587 209.701696 
L 136.026691 208.427793 
L 138.578284 207.050742 
L 141.129878 205.417347 
L 143.397961 203.71739 
L 145.666044 201.751737 
L 147.934127 199.487613 
L 150.202211 196.891255 
L 152.470294 193.929034 
L 154.738377 190.568967 
L 157.00646 186.782638 
L 159.274543 182.5475 
L 161.542626 177.849478 
L 164.09422 172.007834 
L 166.645813 165.593997 
L 169.480917 157.84915 
L 172.883042 147.8344 
L 177.419208 133.675048 
L 185.357499 108.814501 
L 188.759624 98.959024 
L 191.594728 91.38114 
L 194.146321 85.134259 
L 196.697915 79.467147 
L 198.965998 74.924945 
L 201.234081 70.842027 
L 203.502164 67.201184 
L 205.770248 63.977627 
L 208.038331 61.141507 
L 210.306414 58.660097 
L 212.574497 56.499575 
L 214.84258 54.626402 
L 217.394174 52.822464 
L 219.945767 51.298496 
L 222.780871 49.886116 
L 225.615975 48.723485 
L 228.734589 47.683784 
L 232.136714 46.782323 
L 236.10586 45.973109 
L 240.642026 45.291636 
L 246.028723 44.726206 
L 252.549462 44.281994 
L 260.771264 43.954357 
L 272.39519 43.728214 
L 291.957407 43.601332 
L 344.123319 43.563231 
L 422.372187 43.562419 
L 422.372187 43.562419 
" clip-path="url(#pd840b8f427)" style="fill: none; stroke: #7f7f7f; stroke-width: 2.2; stroke-linecap: square"/>
   </g>
   <g id="text_13">
    <!-- training accuracy -->
    <g style="fill: #7f7f7f" transform="translate(94.631499 80.46332) rotate(-52) scale(0.1 -0.1)">
     <use xlink:href="#DejaVuSans-74"/>
     <use xlink:href="#DejaVuSans-72" transform="translate(39.208984 0)"/>
     <use xlink:href="#DejaVuSans-61" transform="translate(80.322266 0)"/>
     <use xlink:href="#DejaVuSans-69" transform="translate(141.601562 0)"/>
     <use xlink:href="#DejaVuSans-6e" transform="translate(169.384766 0)"/>
     <use xlink:href="#DejaVuSans-69" transform="translate(232.763672 0)"/>
     <use xlink:href="#DejaVuSans-6e" transform="translate(260.546875 0)"/>
     <use xlink:href="#DejaVuSans-67" transform="translate(323.925781 0)"/>
     <use xlink:href="#DejaVuSans-20" transform="translate(387.402344 0)"/>
     <use xlink:href="#DejaVuSans-61" transform="translate(419.189453 0)"/>
     <use xlink:href="#DejaVuSans-63" transform="translate(480.46875 0)"/>
     <use xlink:href="#DejaVuSans-63" transform="translate(535.449219 0)"/>
     <use xlink:href="#DejaVuSans-75" transform="translate(590.429688 0)"/>
     <use xlink:href="#DejaVuSans-72" transform="translate(653.808594 0)"/>
     <use xlink:href="#DejaVuSans-61" transform="translate(694.921875 0)"/>
     <use xlink:href="#DejaVuSans-63" transform="translate(756.201172 0)"/>
     <use xlink:href="#DejaVuSans-79" transform="translate(811.181641 0)"/>
    </g>
   </g>
   <g id="text_14">
    <!-- validation accuracy -->
    <g style="fill: #1f77b4" transform="translate(206.464101 202.885442) scale(0.1 -0.1)">
     <defs>
      <path id="DejaVuSans-76" d="M 191 3500 
L 800 3500 
L 1894 563 
L 2988 3500 
L 3597 3500 
L 2284 0 
L 1503 0 
L 191 3500 
z
" transform="scale(0.015625)"/>
      <path id="DejaVuSans-64" d="M 2906 2969 
L 2906 4863 
L 3481 4863 
L 3481 0 
L 2906 0 
L 2906 525 
Q 2725 213 2448 61 
Q 2172 -91 1784 -91 
Q 1150 -91 751 415 
Q 353 922 353 1747 
Q 353 2572 751 3078 
Q 1150 3584 1784 3584 
Q 2172 3584 2448 3432 
Q 2725 3281 2906 2969 
z
M 947 1747 
Q 947 1113 1208 752 
Q 1469 391 1925 391 
Q 2381 391 2643 752 
Q 2906 1113 2906 1747 
Q 2906 2381 2643 2742 
Q 2381 3103 1925 3103 
Q 1469 3103 1208 2742 
Q 947 2381 947 1747 
z
" transform="scale(0.015625)"/>
     </defs>
     <use xlink:href="#DejaVuSans-76"/>
     <use xlink:href="#DejaVuSans-61" transform="translate(59.179688 0)"/>
     <use xlink:href="#DejaVuSans-6c" transform="translate(120.458984 0)"/>
     <use xlink:href="#DejaVuSans-69" transform="translate(148.242188 0)"/>
     <use xlink:href="#DejaVuSans-64" transform="translate(176.025391 0)"/>
     <use xlink:href="#DejaVuSans-61" transform="translate(239.501953 0)"/>
     <use xlink:href="#DejaVuSans-74" transform="translate(300.78125 0)"/>
     <use xlink:href="#DejaVuSans-69" transform="translate(339.990234 0)"/>
     <use xlink:href="#DejaVuSans-6f" transform="translate(367.773438 0)"/>
     <use xlink:href="#DejaVuSans-6e" transform="translate(428.955078 0)"/>
     <use xlink:href="#DejaVuSans-20" transform="translate(492.333984 0)"/>
     <use xlink:href="#DejaVuSans-61" transform="translate(524.121094 0)"/>
     <use xlink:href="#DejaVuSans-63" transform="translate(585.400391 0)"/>
     <use xlink:href="#DejaVuSans-63" transform="translate(640.380859 0)"/>
     <use xlink:href="#DejaVuSans-75" transform="translate(695.361328 0)"/>
     <use xlink:href="#DejaVuSans-72" transform="translate(758.740234 0)"/>
     <use xlink:href="#DejaVuSans-61" transform="translate(799.853516 0)"/>
     <use xlink:href="#DejaVuSans-63" transform="translate(861.132812 0)"/>
     <use xlink:href="#DejaVuSans-79" transform="translate(916.113281 0)"/>
    </g>
   </g>
   <g id="text_15">
    <!-- memorization -->
    <g style="fill: #7f7f7f" transform="translate(187.400168 31.277619) scale(0.09 -0.09)">
     <use xlink:href="#DejaVuSans-6d"/>
     <use xlink:href="#DejaVuSans-65" transform="translate(97.412109 0)"/>
     <use xlink:href="#DejaVuSans-6d" transform="translate(158.935547 0)"/>
     <use xlink:href="#DejaVuSans-6f" transform="translate(256.347656 0)"/>
     <use xlink:href="#DejaVuSans-72" transform="translate(317.529297 0)"/>
     <use xlink:href="#DejaVuSans-69" transform="translate(358.642578 0)"/>
     <use xlink:href="#DejaVuSans-7a" transform="translate(386.425781 0)"/>
     <use xlink:href="#DejaVuSans-61" transform="translate(438.916016 0)"/>
     <use xlink:href="#DejaVuSans-74" transform="translate(500.195312 0)"/>
     <use xlink:href="#DejaVuSans-69" transform="translate(539.404297 0)"/>
     <use xlink:href="#DejaVuSans-6f" transform="translate(567.1875 0)"/>
     <use xlink:href="#DejaVuSans-6e" transform="translate(628.369141 0)"/>
    </g>
   </g>
   <g id="text_16">
    <!-- generalization -->
    <g style="fill: #7f7f7f" transform="translate(340.097411 31.277619) scale(0.09 -0.09)">
     <use xlink:href="#DejaVuSans-67"/>
     <use xlink:href="#DejaVuSans-65" transform="translate(63.476562 0)"/>
     <use xlink:href="#DejaVuSans-6e" transform="translate(125 0)"/>
     <use xlink:href="#DejaVuSans-65" transform="translate(188.378906 0)"/>
     <use xlink:href="#DejaVuSans-72" transform="translate(249.902344 0)"/>
     <use xlink:href="#DejaVuSans-61" transform="translate(291.015625 0)"/>
     <use xlink:href="#DejaVuSans-6c" transform="translate(352.294922 0)"/>
     <use xlink:href="#DejaVuSans-69" transform="translate(380.078125 0)"/>
     <use xlink:href="#DejaVuSans-7a" transform="translate(407.861328 0)"/>
     <use xlink:href="#DejaVuSans-61" transform="translate(460.351562 0)"/>
     <use xlink:href="#DejaVuSans-74" transform="translate(521.630859 0)"/>
     <use xlink:href="#DejaVuSans-69" transform="translate(560.839844 0)"/>
     <use xlink:href="#DejaVuSans-6f" transform="translate(588.623047 0)"/>
     <use xlink:href="#DejaVuSans-6e" transform="translate(649.804688 0)"/>
    </g>
   </g>
   <g id="text_17">
    <!-- training set interpolated, -->
    <g style="fill: #7f7f7f" transform="translate(239.266328 114.06591) scale(0.09 -0.09)">
     <defs>
      <path id="DejaVuSans-2c" d="M 750 794 
L 1409 794 
L 1409 256 
L 897 -744 
L 494 -744 
L 750 256 
L 750 794 
z
" transform="scale(0.015625)"/>
     </defs>
     <use xlink:href="#DejaVuSans-74"/>
     <use xlink:href="#DejaVuSans-72" transform="translate(39.208984 0)"/>
     <use xlink:href="#DejaVuSans-61" transform="translate(80.322266 0)"/>
     <use xlink:href="#DejaVuSans-69" transform="translate(141.601562 0)"/>
     <use xlink:href="#DejaVuSans-6e" transform="translate(169.384766 0)"/>
     <use xlink:href="#DejaVuSans-69" transform="translate(232.763672 0)"/>
     <use xlink:href="#DejaVuSans-6e" transform="translate(260.546875 0)"/>
     <use xlink:href="#DejaVuSans-67" transform="translate(323.925781 0)"/>
     <use xlink:href="#DejaVuSans-20" transform="translate(387.402344 0)"/>
     <use xlink:href="#DejaVuSans-73" transform="translate(419.189453 0)"/>
     <use xlink:href="#DejaVuSans-65" transform="translate(471.289062 0)"/>
     <use xlink:href="#DejaVuSans-74" transform="translate(532.8125 0)"/>
     <use xlink:href="#DejaVuSans-20" transform="translate(572.021484 0)"/>
     <use xlink:href="#DejaVuSans-69" transform="translate(603.808594 0)"/>
     <use xlink:href="#DejaVuSans-6e" transform="translate(631.591797 0)"/>
     <use xlink:href="#DejaVuSans-74" transform="translate(694.970703 0)"/>
     <use xlink:href="#DejaVuSans-65" transform="translate(734.179688 0)"/>
     <use xlink:href="#DejaVuSans-72" transform="translate(795.703125 0)"/>
     <use xlink:href="#DejaVuSans-70" transform="translate(836.816406 0)"/>
     <use xlink:href="#DejaVuSans-6f" transform="translate(900.292969 0)"/>
     <use xlink:href="#DejaVuSans-6c" transform="translate(961.474609 0)"/>
     <use xlink:href="#DejaVuSans-61" transform="translate(989.257812 0)"/>
     <use xlink:href="#DejaVuSans-74" transform="translate(1050.537109 0)"/>
     <use xlink:href="#DejaVuSans-65" transform="translate(1089.746094 0)"/>
     <use xlink:href="#DejaVuSans-64" transform="translate(1151.269531 0)"/>
     <use xlink:href="#DejaVuSans-2c" transform="translate(1214.746094 0)"/>
    </g>
    <!-- yet no generalization -->
    <g style="fill: #7f7f7f" transform="translate(247.603985 124.143941) scale(0.09 -0.09)">
     <use xlink:href="#DejaVuSans-79"/>
     <use xlink:href="#DejaVuSans-65" transform="translate(59.179688 0)"/>
     <use xlink:href="#DejaVuSans-74" transform="translate(120.703125 0)"/>
     <use xlink:href="#DejaVuSans-20" transform="translate(159.912109 0)"/>
     <use xlink:href="#DejaVuSans-6e" transform="translate(191.699219 0)"/>
     <use xlink:href="#DejaVuSans-6f" transform="translate(255.078125 0)"/>
     <use xlink:href="#DejaVuSans-20" transform="translate(316.259766 0)"/>
     <use xlink:href="#DejaVuSans-67" transform="translate(348.046875 0)"/>
     <use xlink:href="#DejaVuSans-65" transform="translate(411.523438 0)"/>
     <use xlink:href="#DejaVuSans-6e" transform="translate(473.046875 0)"/>
     <use xlink:href="#DejaVuSans-65" transform="translate(536.425781 0)"/>
     <use xlink:href="#DejaVuSans-72" transform="translate(597.949219 0)"/>
     <use xlink:href="#DejaVuSans-61" transform="translate(639.0625 0)"/>
     <use xlink:href="#DejaVuSans-6c" transform="translate(700.341797 0)"/>
     <use xlink:href="#DejaVuSans-69" transform="translate(728.125 0)"/>
     <use xlink:href="#DejaVuSans-7a" transform="translate(755.908203 0)"/>
     <use xlink:href="#DejaVuSans-61" transform="translate(808.398438 0)"/>
     <use xlink:href="#DejaVuSans-74" transform="translate(869.677734 0)"/>
     <use xlink:href="#DejaVuSans-69" transform="translate(908.886719 0)"/>
     <use xlink:href="#DejaVuSans-6f" transform="translate(936.669922 0)"/>
     <use xlink:href="#DejaVuSans-6e" transform="translate(997.851562 0)"/>
    </g>
    <!-- for ~3 decades of steps -->
    <g style="fill: #7f7f7f" transform="translate(241.573985 134.221972) scale(0.09 -0.09)">
     <defs>
      <path id="DejaVuSans-66" d="M 2375 4863 
L 2375 4384 
L 1825 4384 
Q 1516 4384 1395 4259 
Q 1275 4134 1275 3809 
L 1275 3500 
L 2222 3500 
L 2222 3053 
L 1275 3053 
L 1275 0 
L 697 0 
L 697 3053 
L 147 3053 
L 147 3500 
L 697 3500 
L 697 3744 
Q 697 4328 969 4595 
Q 1241 4863 1831 4863 
L 2375 4863 
z
" transform="scale(0.015625)"/>
      <path id="DejaVuSans-7e" d="M 4684 2553 
L 4684 1997 
Q 4356 1750 4076 1644 
Q 3797 1538 3494 1538 
Q 3150 1538 2694 1722 
Q 2659 1734 2644 1741 
Q 2622 1750 2575 1766 
Q 2091 1959 1797 1959 
Q 1522 1959 1253 1839 
Q 984 1719 678 1459 
L 678 2016 
Q 1006 2263 1286 2370 
Q 1566 2478 1869 2478 
Q 2213 2478 2672 2291 
Q 2703 2278 2719 2272 
Q 2744 2263 2788 2247 
Q 3272 2053 3566 2053 
Q 3834 2053 4098 2172 
Q 4363 2291 4684 2553 
z
" transform="scale(0.015625)"/>
      <path id="DejaVuSans-33" d="M 2597 2516 
Q 3050 2419 3304 2112 
Q 3559 1806 3559 1356 
Q 3559 666 3084 287 
Q 2609 -91 1734 -91 
Q 1441 -91 1130 -33 
Q 819 25 488 141 
L 488 750 
Q 750 597 1062 519 
Q 1375 441 1716 441 
Q 2309 441 2620 675 
Q 2931 909 2931 1356 
Q 2931 1769 2642 2001 
Q 2353 2234 1838 2234 
L 1294 2234 
L 1294 2753 
L 1863 2753 
Q 2328 2753 2575 2939 
Q 2822 3125 2822 3475 
Q 2822 3834 2567 4026 
Q 2313 4219 1838 4219 
Q 1578 4219 1281 4162 
Q 984 4106 628 3988 
L 628 4550 
Q 988 4650 1302 4700 
Q 1616 4750 1894 4750 
Q 2613 4750 3031 4423 
Q 3450 4097 3450 3541 
Q 3450 3153 3228 2886 
Q 3006 2619 2597 2516 
z
" transform="scale(0.015625)"/>
     </defs>
     <use xlink:href="#DejaVuSans-66"/>
     <use xlink:href="#DejaVuSans-6f" transform="translate(35.205078 0)"/>
     <use xlink:href="#DejaVuSans-72" transform="translate(96.386719 0)"/>
     <use xlink:href="#DejaVuSans-20" transform="translate(137.5 0)"/>
     <use xlink:href="#DejaVuSans-7e" transform="translate(169.287109 0)"/>
     <use xlink:href="#DejaVuSans-33" transform="translate(253.076172 0)"/>
     <use xlink:href="#DejaVuSans-20" transform="translate(316.699219 0)"/>
     <use xlink:href="#DejaVuSans-64" transform="translate(348.486328 0)"/>
     <use xlink:href="#DejaVuSans-65" transform="translate(411.962891 0)"/>
     <use xlink:href="#DejaVuSans-63" transform="translate(473.486328 0)"/>
     <use xlink:href="#DejaVuSans-61" transform="translate(528.466797 0)"/>
     <use xlink:href="#DejaVuSans-64" transform="translate(589.746094 0)"/>
     <use xlink:href="#DejaVuSans-65" transform="translate(653.222656 0)"/>
     <use xlink:href="#DejaVuSans-73" transform="translate(714.746094 0)"/>
     <use xlink:href="#DejaVuSans-20" transform="translate(766.845703 0)"/>
     <use xlink:href="#DejaVuSans-6f" transform="translate(798.632812 0)"/>
     <use xlink:href="#DejaVuSans-66" transform="translate(859.814453 0)"/>
     <use xlink:href="#DejaVuSans-20" transform="translate(895.019531 0)"/>
     <use xlink:href="#DejaVuSans-73" transform="translate(926.806641 0)"/>
     <use xlink:href="#DejaVuSans-74" transform="translate(978.90625 0)"/>
     <use xlink:href="#DejaVuSans-65" transform="translate(1018.115234 0)"/>
     <use xlink:href="#DejaVuSans-70" transform="translate(1079.638672 0)"/>
     <use xlink:href="#DejaVuSans-73" transform="translate(1143.115234 0)"/>
    </g>
   </g>
   <g id="text_18">
    <!-- chance -->
    <g style="fill: #7f7f7f" transform="translate(60.891203 210.139447) scale(0.085 -0.085)">
     <defs>
      <path id="DejaVuSans-68" d="M 3513 2113 
L 3513 0 
L 2938 0 
L 2938 2094 
Q 2938 2591 2744 2837 
Q 2550 3084 2163 3084 
Q 1697 3084 1428 2787 
Q 1159 2491 1159 1978 
L 1159 0 
L 581 0 
L 581 4863 
L 1159 4863 
L 1159 2956 
Q 1366 3272 1645 3428 
Q 1925 3584 2291 3584 
Q 2894 3584 3203 3211 
Q 3513 2838 3513 2113 
z
" transform="scale(0.015625)"/>
     </defs>
     <use xlink:href="#DejaVuSans-63"/>
     <use xlink:href="#DejaVuSans-68" transform="translate(54.980469 0)"/>
     <use xlink:href="#DejaVuSans-61" transform="translate(118.359375 0)"/>
     <use xlink:href="#DejaVuSans-6e" transform="translate(179.638672 0)"/>
     <use xlink:href="#DejaVuSans-63" transform="translate(243.017578 0)"/>
     <use xlink:href="#DejaVuSans-65" transform="translate(297.998047 0)"/>
    </g>
   </g>
   <g id="line2d_15">
    <path d="M 54.092188 215.377991 
L 104.557037 215.265635 
L 118.732557 215.00997 
L 130.072973 214.584626 
L 141.129878 213.940359 
L 170.898469 212.037536 
L 178.269739 211.907421 
L 185.357499 212.00014 
L 193.29579 212.335501 
L 203.785675 213.027883 
L 223.914913 214.393304 
L 234.404797 214.846668 
L 245.178192 215.08674 
L 256.518608 215.116412 
L 266.441472 214.928858 
L 273.812742 214.582146 
L 279.48295 214.108674 
L 284.019116 213.525834 
L 287.988261 212.799345 
L 291.390386 211.956457 
L 294.509 210.949246 
L 297.344104 209.786476 
L 299.895698 208.49152 
L 302.163781 207.103026 
L 304.431864 205.451347 
L 306.699947 203.493898 
L 308.68452 201.493892 
L 310.669093 199.191349 
L 312.653666 196.552458 
L 314.638238 193.543702 
L 316.622811 190.133421 
L 318.607384 186.29378 
L 320.591957 182.003119 
L 322.86004 176.531241 
L 325.128123 170.453362 
L 327.679716 162.922322 
L 330.51482 153.786418 
L 333.916945 141.998685 
L 345.540871 100.916623 
L 348.375975 92.132304 
L 350.927569 84.965645 
L 353.195652 79.230279 
L 355.463735 74.103344 
L 357.731818 69.572569 
L 359.716391 66.074763 
L 361.700963 62.984679 
L 363.685536 60.271278 
L 365.670109 57.901287 
L 367.654682 55.840845 
L 369.922765 53.822568 
L 372.190848 52.118255 
L 374.458931 50.684565 
L 377.010525 49.34664 
L 379.562118 48.252891 
L 382.397222 47.273022 
L 385.515836 46.425842 
L 389.201472 45.667296 
L 393.454127 45.035995 
L 398.557315 44.521647 
L 404.794543 44.129224 
L 413.016345 43.84533 
L 422.372187 43.690596 
L 422.372187 43.690596 
" clip-path="url(#pd840b8f427)" style="fill: none; stroke: #1f77b4; stroke-width: 2.6; stroke-linecap: square"/>
   </g>
  </g>
 </g>
 <defs>
  <clipPath id="pd840b8f427">
   <rect x="54.092188" y="17.529721" width="368.28" height="199.584"/>
  </clipPath>
 </defs>
</svg>
