<?xml version="1.0" encoding="utf-8" standalone="no"?>
<!DOCTYPE svg PUBLIC "-//W3C//DTD SVG 1.1//EN"
  "http://www.w3.org/Graphics/SVG/1.1/DTD/svg11.dtd">
<svg xmlns:xlink="http://www.w3.org/1999/xlink" width="494.28pt" height="247.647273pt" viewBox="0 0 494.28 247.647273" xmlns="http://www.w3.org/2000/svg" version="1.1">
 <metadata>
  <rdf:RDF xmlns:dc="http://purl.org/dc/elements/1.1/" xmlns:cc="http://creativecommons.org/ns#" xmlns:rdf="http://www.w3.org/1999/02/22-rdf-syntax-ns#">
   <cc:Work>
    <dc:type rdf:resource="http://purl.org/dc/dcmitype/StillImage"/>
    <dc:format>image/svg+xml</dc:format>
    <dc:creator>
     <cc:Agent>
      <dc:title>Matplotlib v3.10.8, https://matplotlib.org/</dc:title>
     </cc:Agent>
    </dc:creator>
   </cc:Work>
  </rdf:RDF>
 </metadata>
 <defs>
  <style type="text/css">*{stroke-linejoin: round; stroke-linecap: butt}</style>
 </defs>
 <g id="figure_1">
  <g id="patch_1">
   <path d="M 0 247.647273 
L 494.28 247.647273 
L 494.28 0 
L 0 0 
z
" style="fill: #ffffff"/>
  </g>
  <g id="axes_1">
   <g id="line2d_1">
    <path d="M 158.211189 131.383636 
L 158.08123 128.084238 
L 157.692158 124.805283 
L 157.046385 121.56709 
L 156.147911 118.389722 
L 155.002304 115.292868 
L 153.616662 112.295717 
L 151.99957 109.416839 
L 150.16105 106.674074 
L 148.112493 104.084415 
L 145.866592 101.663909 
L 143.437263 99.427554 
L 140.839559 97.389208 
L 138.089577 95.5615 
L 135.204356 93.955755 
L 132.201772 92.581923 
L 129.100432 91.448516 
L 125.919552 90.562558 
L 122.678842 89.929538 
L 119.398381 89.553378 
L 116.098496 89.436409 
L 112.799635 89.579356 
L 109.522237 89.981333 
L 106.286611 90.63985 
L 103.112806 91.550826 
L 100.020486 92.708616 
L 97.028813 94.106046 
L 94.156324 95.734459 
L 91.420817 97.583762 
L 88.839243 99.642499 
L 86.427598 101.897912 
L 84.200824 104.336026 
L 82.17272 106.941734 
L 80.355853 109.69889 
L 78.761479 112.590411 
L 77.399478 115.598379 
L 76.278289 118.704157 
L 75.404861 121.8885 
L 74.784603 125.131678 
L 74.421361 128.413594 
L 74.317384 131.713914 
L 74.473317 135.012187 
L 74.888194 138.287977 
L 75.559443 141.520985 
L 76.482907 144.69118 
L 77.652862 147.778918 
L 79.062059 150.765066 
L 80.701767 153.631122 
L 82.561826 156.359327 
L 84.63071 158.932776 
L 86.895599 161.335524 
L 89.342461 163.552682 
L 91.956133 165.570512 
L 94.720421 167.376511 
L 97.618196 168.959489 
L 100.631503 170.309637 
L 103.741671 171.41859 
L 106.929428 172.279476 
L 110.175022 172.886961 
L 113.458343 173.23728 
L 116.759046 173.328263 
L 120.05668 173.159347 
L 123.330811 172.731577 
L 126.561152 172.047605 
L 129.727686 171.111668 
L 132.810795 169.929566 
L 135.791372 168.508624 
L 138.650951 166.857645 
L 141.371812 164.986861 
L 143.937096 162.907862 
L 146.330908 160.63353 
L 148.538416 158.177959 
L 150.545941 155.556364 
L 152.341044 152.784987 
L 153.912602 149.881003 
L 155.250877 146.862404 
L 156.347577 143.747895 
L 157.195906 140.556773 
L 157.790609 137.308812 
L 158.128 134.024138 
L 158.211189 131.383636 
L 158.211189 131.383636 
" clip-path="url(#p5624ae833f)" style="fill: none; stroke-dasharray: 5.18,2.24; stroke-dashoffset: 0; stroke: #cfcfcf; stroke-width: 1.4"/>
   </g>
   <g id="line2d_2">
    <path d="M 200.158741 131.383636 
L 200.06514 133.364585 
L 199.784545 135.341114 
L 199.317581 137.308812 
L 198.665292 139.263289 
L 197.829133 141.200183 
L 196.810969 143.115172 
L 195.613073 145.003984 
L 193.740971 147.474404 
L 191.561567 149.881003 
L 189.083506 152.214235 
L 186.316615 154.464845 
L 183.271871 156.623907 
L 179.961349 158.682858 
L 176.39818 160.63353 
L 172.596497 162.468188 
L 168.571379 164.179553 
L 164.33879 165.760839 
L 159.915518 167.205773 
L 155.319108 168.508624 
L 150.56779 169.664224 
L 144.439567 170.894728 
L 138.136759 171.880411 
L 131.698419 172.615166 
L 125.164441 173.094439 
L 118.575311 173.315262 
L 111.971857 173.276265 
L 105.394997 172.97769 
L 98.885481 172.421388 
L 92.483645 171.610806 
L 86.229156 170.550965 
L 80.160769 169.248434 
L 75.465365 168.037046 
L 70.93178 166.680277 
L 66.577998 165.18351 
L 62.421285 163.552682 
L 58.47813 161.794259 
L 54.764173 159.915218 
L 51.294143 157.923011 
L 48.081804 155.825539 
L 45.139898 153.631122 
L 42.480094 151.348465 
L 40.11294 148.986619 
L 38.047826 146.554955 
L 36.292943 144.063116 
L 35.184603 142.160684 
L 34.257183 140.234205 
L 33.512751 138.287977 
L 32.952969 136.326342 
L 32.579086 134.353678 
L 32.391935 132.374387 
L 32.391935 130.392885 
L 32.579086 128.413594 
L 32.952969 126.440931 
L 33.512751 124.479296 
L 34.257183 122.533068 
L 35.184603 120.606589 
L 36.292943 118.704157 
L 38.047826 116.212318 
L 40.11294 113.780653 
L 42.480094 111.418808 
L 45.139898 109.13615 
L 48.081804 106.941734 
L 51.294143 104.844262 
L 54.764173 102.852055 
L 58.47813 100.973013 
L 62.421285 99.214591 
L 66.577998 97.583762 
L 70.93178 96.086995 
L 75.465365 94.730227 
L 80.160769 93.518839 
L 84.999369 92.457635 
L 91.219705 91.348682 
L 97.595219 90.487797 
L 104.086408 89.880312 
L 110.65305 89.529993 
L 117.254456 89.439009 
L 123.849724 89.607926 
L 130.397985 90.035696 
L 136.858667 90.719668 
L 143.191737 91.655605 
L 149.357953 92.837706 
L 155.319108 94.258649 
L 159.915518 95.5615 
L 164.33879 97.006434 
L 168.571379 98.587719 
L 172.596497 100.299085 
L 176.39818 102.133742 
L 179.961349 104.084415 
L 183.271871 106.143366 
L 186.316615 108.302428 
L 189.083506 110.553038 
L 191.561567 112.88627 
L 193.740971 115.292868 
L 195.613073 117.763288 
L 197.170448 120.287731 
L 198.128176 122.2105 
L 198.903233 124.153737 
L 199.493888 126.113107 
L 199.898823 128.084238 
L 200.117136 130.062731 
L 200.158741 131.383636 
L 200.158741 131.383636 
" clip-path="url(#p5624ae833f)" style="fill: none; stroke: #1f77b4; stroke-width: 2.2; stroke-linecap: square"/>
   </g>
   <g id="patch_2">
    <path d="M 116.263636 131.383636 
Q 158.211189 131.383636 197.251853 131.383636 
" style="fill: none; stroke: #2ca02c; stroke-width: 2.6; stroke-linecap: round"/>
    <path d="M 191.651853 128.583636 
L 197.251853 131.383636 
L 191.651853 134.183636 
" style="fill: none; stroke: #2ca02c; stroke-width: 2.6; stroke-linecap: round"/>
   </g>
   <g id="text_1">
    <!-- $\lambda_1$$=2$ -->
    <g style="fill: #2ca02c" transform="translate(200.250507 121.420777) scale(0.095 -0.095)">
     <defs>
      <path id="Cmmi10-b8" d="M 325 109 
Q 325 203 409 288 
L 2209 2053 
L 1575 3834 
Q 1500 4038 1417 4156 
Q 1334 4275 1178 4275 
Q 1106 4275 1106 4359 
Q 1113 4397 1138 4419 
Q 1163 4441 1203 4441 
Q 1875 4441 2016 4044 
L 3316 416 
Q 3400 144 3488 50 
Q 3519 3 3519 -13 
Q 3519 -72 3469 -72 
L 3122 -72 
Q 2963 -25 2869 206 
L 2284 1844 
L 738 25 
Q 622 -84 531 -84 
Q 450 -84 387 -28 
Q 325 28 325 109 
z
" transform="scale(0.015625)"/>
      <path id="Cmr10-31" d="M 594 0 
L 594 225 
Q 1394 225 1394 428 
L 1394 3788 
Q 1063 3628 556 3628 
L 556 3853 
Q 1341 3853 1741 4263 
L 1831 4263 
Q 1853 4263 1873 4245 
Q 1894 4228 1894 4206 
L 1894 428 
Q 1894 225 2694 225 
L 2694 0 
L 594 0 
z
" transform="scale(0.015625)"/>
      <path id="Cmr10-3d" d="M 481 850 
Q 428 850 393 890 
Q 359 931 359 978 
Q 359 1031 393 1068 
Q 428 1106 481 1106 
L 4500 1106 
Q 4547 1106 4581 1068 
Q 4616 1031 4616 978 
Q 4616 931 4581 890 
Q 4547 850 4500 850 
L 481 850 
z
M 481 2094 
Q 428 2094 393 2131 
Q 359 2169 359 2222 
Q 359 2269 393 2309 
Q 428 2350 481 2350 
L 4500 2350 
Q 4547 2350 4581 2309 
Q 4616 2269 4616 2222 
Q 4616 2169 4581 2131 
Q 4547 2094 4500 2094 
L 481 2094 
z
" transform="scale(0.015625)"/>
      <path id="Cmr10-32" d="M 319 0 
L 319 172 
Q 319 188 331 206 
L 1325 1306 
Q 1550 1550 1690 1715 
Q 1831 1881 1968 2097 
Q 2106 2313 2186 2536 
Q 2266 2759 2266 3009 
Q 2266 3272 2169 3511 
Q 2072 3750 1880 3894 
Q 1688 4038 1416 4038 
Q 1138 4038 916 3870 
Q 694 3703 603 3438 
Q 628 3444 672 3444 
Q 816 3444 917 3347 
Q 1019 3250 1019 3097 
Q 1019 2950 917 2848 
Q 816 2747 672 2747 
Q 522 2747 420 2851 
Q 319 2956 319 3097 
Q 319 3338 409 3548 
Q 500 3759 670 3923 
Q 841 4088 1055 4175 
Q 1269 4263 1509 4263 
Q 1875 4263 2190 4108 
Q 2506 3953 2690 3670 
Q 2875 3388 2875 3009 
Q 2875 2731 2753 2481 
Q 2631 2231 2440 2026 
Q 2250 1822 1953 1562 
Q 1656 1303 1563 1216 
L 838 519 
L 1453 519 
Q 1906 519 2211 526 
Q 2516 534 2534 550 
Q 2609 631 2688 1141 
L 2875 1141 
L 2694 0 
L 319 0 
z
" transform="scale(0.015625)"/>
     </defs>
     <use xlink:href="#Cmmi10-b8" transform="translate(0 0.609375)"/>
     <use xlink:href="#Cmr10-31" transform="translate(58.300781 -16.396875) scale(0.7)"/>
     <use xlink:href="#Cmr10-3d" transform="translate(117.236719 0.609375)"/>
     <use xlink:href="#Cmr10-32" transform="translate(212.480859 0.609375)"/>
    </g>
   </g>
   <g id="patch_3">
    <path d="M 116.263636 131.383636 
Q 116.263636 152.357413 116.263636 170.4243 
" style="fill: none; stroke: #ff7f0e; stroke-width: 2.6; stroke-linecap: round"/>
    <path d="M 119.063636 164.8243 
L 116.263636 170.4243 
L 113.463636 164.8243 
" style="fill: none; stroke: #ff7f0e; stroke-width: 2.6; stroke-linecap: round"/>
   </g>
   <g id="text_2">
    <!-- $\lambda_2$$=-1$ (flip) -->
    <g style="fill: #ff7f0e" transform="translate(100.110402 188.527955) scale(0.095 -0.095)">
     <defs>
      <path id="Cmsy10-a1" d="M 653 1472 
Q 600 1472 565 1512 
Q 531 1553 531 1600 
Q 531 1647 565 1687 
Q 600 1728 653 1728 
L 4325 1728 
Q 4375 1728 4408 1687 
Q 4441 1647 4441 1600 
Q 4441 1553 4408 1512 
Q 4375 1472 4325 1472 
L 653 1472 
z
" transform="scale(0.015625)"/>
      <path id="DejaVuSans-20" transform="scale(0.015625)"/>
      <path id="DejaVuSans-28" d="M 1984 4856 
Q 1566 4138 1362 3434 
Q 1159 2731 1159 2009 
Q 1159 1288 1364 580 
Q 1569 -128 1984 -844 
L 1484 -844 
Q 1016 -109 783 600 
Q 550 1309 550 2009 
Q 550 2706 781 3412 
Q 1013 4119 1484 4856 
L 1984 4856 
z
" transform="scale(0.015625)"/>
      <path id="DejaVuSans-66" d="M 2375 4863 
L 2375 4384 
L 1825 4384 
Q 1516 4384 1395 4259 
Q 1275 4134 1275 3809 
L 1275 3500 
L 2222 3500 
L 2222 3053 
L 1275 3053 
L 1275 0 
L 697 0 
L 697 3053 
L 147 3053 
L 147 3500 
L 697 3500 
L 697 3744 
Q 697 4328 969 4595 
Q 1241 4863 1831 4863 
L 2375 4863 
z
" transform="scale(0.015625)"/>
      <path id="DejaVuSans-6c" d="M 603 4863 
L 1178 4863 
L 1178 0 
L 603 0 
L 603 4863 
z
" transform="scale(0.015625)"/>
      <path id="DejaVuSans-69" d="M 603 3500 
L 1178 3500 
L 1178 0 
L 603 0 
L 603 3500 
z
M 603 4863 
L 1178 4863 
L 1178 4134 
L 603 4134 
L 603 4863 
z
" transform="scale(0.015625)"/>
      <path id="DejaVuSans-70" d="M 1159 525 
L 1159 -1331 
L 581 -1331 
L 581 3500 
L 1159 3500 
L 1159 2969 
Q 1341 3281 1617 3432 
Q 1894 3584 2278 3584 
Q 2916 3584 3314 3078 
Q 3713 2572 3713 1747 
Q 3713 922 3314 415 
Q 2916 -91 2278 -91 
Q 1894 -91 1617 61 
Q 1341 213 1159 525 
z
M 3116 1747 
Q 3116 2381 2855 2742 
Q 2594 3103 2138 3103 
Q 1681 3103 1420 2742 
Q 1159 2381 1159 1747 
Q 1159 1113 1420 752 
Q 1681 391 2138 391 
Q 2594 391 2855 752 
Q 3116 1113 3116 1747 
z
" transform="scale(0.015625)"/>
      <path id="DejaVuSans-29" d="M 513 4856 
L 1013 4856 
Q 1481 4119 1714 3412 
Q 1947 2706 1947 2009 
Q 1947 1309 1714 600 
Q 1481 -109 1013 -844 
L 513 -844 
Q 928 -128 1133 580 
Q 1338 1288 1338 2009 
Q 1338 2731 1133 3434 
Q 928 4138 513 4856 
z
" transform="scale(0.015625)"/>
     </defs>
     <use xlink:href="#Cmmi10-b8" transform="translate(0 0.015625)"/>
     <use xlink:href="#Cmr10-32" transform="translate(58.300781 -16.990625) scale(0.7)"/>
     <use xlink:href="#Cmr10-3d" transform="translate(117.236719 0.015625)"/>
     <use xlink:href="#Cmsy10-a1" transform="translate(212.480859 0.015625)"/>
     <use xlink:href="#Cmr10-31" transform="translate(290.166406 0.015625)"/>
     <use xlink:href="#DejaVuSans-20" transform="translate(340.166406 0.015625)"/>
     <use xlink:href="#DejaVuSans-28" transform="translate(371.953516 0.015625)"/>
     <use xlink:href="#DejaVuSans-66" transform="translate(410.967188 0.015625)"/>
     <use xlink:href="#DejaVuSans-6c" transform="translate(446.172266 0.015625)"/>
     <use xlink:href="#DejaVuSans-69" transform="translate(473.955469 0.015625)"/>
     <use xlink:href="#DejaVuSans-70" transform="translate(501.738672 0.015625)"/>
     <use xlink:href="#DejaVuSans-29" transform="translate(565.215234 0.015625)"/>
    </g>
   </g>
   <g id="patch_4">
    <path d="M 9.200343 131.383636 
Q 116.262915 131.383636 222.43106 131.383636 
" style="fill: none; stroke: #7f7f7f; stroke-width: 0.8; stroke-linecap: round"/>
    <path d="M 218.03106 129.183636 
L 222.43106 131.383636 
L 218.03106 133.583636 
" style="fill: none; stroke: #7f7f7f; stroke-width: 0.8; stroke-linecap: round"/>
   </g>
   <g id="patch_5">
    <path d="M 116.263636 238.44693 
Q 116.263636 131.384358 116.263636 25.216213 
" style="fill: none; stroke: #7f7f7f; stroke-width: 0.8; stroke-linecap: round"/>
    <path d="M 114.063636 29.616213 
L 116.263636 25.216213 
L 118.463636 29.616213 
" style="fill: none; stroke: #7f7f7f; stroke-width: 0.8; stroke-linecap: round"/>
   </g>
   <g id="text_3">
    <!-- (a) $\mathrm{diag}(2,-1)$ -->
    <g transform="translate(74.863636 16.32) scale(0.12 -0.12)">
     <defs>
      <path id="DejaVuSans-61" d="M 2194 1759 
Q 1497 1759 1228 1600 
Q 959 1441 959 1056 
Q 959 750 1161 570 
Q 1363 391 1709 391 
Q 2188 391 2477 730 
Q 2766 1069 2766 1631 
L 2766 1759 
L 2194 1759 
z
M 3341 1997 
L 3341 0 
L 2766 0 
L 2766 531 
Q 2569 213 2275 61 
Q 1981 -91 1556 -91 
Q 1019 -91 701 211 
Q 384 513 384 1019 
Q 384 1609 779 1909 
Q 1175 2209 1959 2209 
L 2766 2209 
L 2766 2266 
Q 2766 2663 2505 2880 
Q 2244 3097 1772 3097 
Q 1472 3097 1187 3025 
Q 903 2953 641 2809 
L 641 3341 
Q 956 3463 1253 3523 
Q 1550 3584 1831 3584 
Q 2591 3584 2966 3190 
Q 3341 2797 3341 1997 
z
" transform="scale(0.015625)"/>
      <path id="Cmr10-64" d="M 1563 -72 
Q 1184 -72 871 133 
Q 559 338 386 672 
Q 213 1006 213 1381 
Q 213 1769 402 2101 
Q 591 2434 916 2631 
Q 1241 2828 1631 2828 
Q 1866 2828 2075 2729 
Q 2284 2631 2438 2456 
L 2438 3788 
Q 2438 3959 2386 4036 
Q 2334 4113 2239 4130 
Q 2144 4147 1941 4147 
L 1941 4372 
L 2888 4441 
L 2888 581 
Q 2888 413 2939 336 
Q 2991 259 3086 242 
Q 3181 225 3384 225 
L 3384 0 
L 2419 -72 
L 2419 331 
Q 2253 141 2025 34 
Q 1797 -72 1563 -72 
z
M 909 556 
Q 1019 347 1201 222 
Q 1384 97 1600 97 
Q 1866 97 2087 250 
Q 2309 403 2419 647 
L 2419 2181 
Q 2344 2322 2230 2433 
Q 2116 2544 1973 2603 
Q 1831 2663 1672 2663 
Q 1338 2663 1134 2473 
Q 931 2284 850 1990 
Q 769 1697 769 1375 
Q 769 1119 795 928 
Q 822 738 909 556 
z
" transform="scale(0.015625)"/>
      <path id="Cmr10-69" d="M 197 0 
L 197 225 
Q 416 225 556 259 
Q 697 294 697 428 
L 697 2175 
Q 697 2422 601 2478 
Q 506 2534 225 2534 
L 225 2759 
L 1147 2828 
L 1147 428 
Q 1147 294 1269 259 
Q 1391 225 1594 225 
L 1594 0 
L 197 0 
z
M 469 3928 
Q 469 4069 575 4175 
Q 681 4281 819 4281 
Q 909 4281 993 4234 
Q 1078 4188 1125 4103 
Q 1172 4019 1172 3928 
Q 1172 3791 1065 3684 
Q 959 3578 819 3578 
Q 681 3578 575 3684 
Q 469 3791 469 3928 
z
" transform="scale(0.015625)"/>
      <path id="Cmr10-61" d="M 256 628 
Q 256 1009 556 1248 
Q 856 1488 1276 1586 
Q 1697 1684 2075 1684 
L 2075 1947 
Q 2075 2131 1994 2304 
Q 1913 2478 1759 2589 
Q 1606 2700 1422 2700 
Q 997 2700 775 2509 
Q 897 2509 976 2417 
Q 1056 2325 1056 2203 
Q 1056 2075 965 1984 
Q 875 1894 750 1894 
Q 622 1894 531 1984 
Q 441 2075 441 2203 
Q 441 2541 747 2705 
Q 1053 2869 1422 2869 
Q 1681 2869 1943 2758 
Q 2206 2647 2373 2440 
Q 2541 2234 2541 1959 
L 2541 519 
Q 2541 394 2594 289 
Q 2647 184 2759 184 
Q 2866 184 2917 290 
Q 2969 397 2969 519 
L 2969 928 
L 3156 928 
L 3156 519 
Q 3156 375 3081 245 
Q 3006 116 2879 39 
Q 2753 -38 2606 -38 
Q 2419 -38 2283 107 
Q 2147 253 2131 453 
Q 2013 213 1781 70 
Q 1550 -72 1288 -72 
Q 1044 -72 808 0 
Q 572 72 414 226 
Q 256 381 256 628 
z
M 775 628 
Q 775 403 940 250 
Q 1106 97 1331 97 
Q 1538 97 1706 200 
Q 1875 303 1975 481 
Q 2075 659 2075 856 
L 2075 1522 
Q 1784 1522 1479 1426 
Q 1175 1331 975 1128 
Q 775 925 775 628 
z
" transform="scale(0.015625)"/>
      <path id="Cmr10-67" d="M 178 -500 
Q 178 -272 343 -101 
Q 509 69 738 141 
Q 609 238 542 384 
Q 475 531 475 697 
Q 475 997 666 1228 
Q 372 1516 372 1888 
Q 372 2088 458 2263 
Q 544 2438 697 2566 
Q 850 2694 1037 2761 
Q 1225 2828 1422 2828 
Q 1803 2828 2106 2606 
Q 2238 2747 2417 2823 
Q 2597 2900 2791 2900 
Q 2928 2900 3015 2801 
Q 3103 2703 3103 2566 
Q 3103 2488 3043 2428 
Q 2984 2369 2906 2369 
Q 2825 2369 2765 2428 
Q 2706 2488 2706 2566 
Q 2706 2684 2784 2731 
Q 2453 2731 2216 2503 
Q 2331 2388 2401 2220 
Q 2472 2053 2472 1888 
Q 2472 1616 2322 1398 
Q 2172 1181 1926 1061 
Q 1681 941 1422 941 
Q 1072 941 781 1131 
Q 691 1006 691 850 
Q 691 681 802 554 
Q 913 428 1081 428 
L 1606 428 
Q 1988 428 2294 359 
Q 2600 291 2808 84 
Q 3016 -122 3016 -500 
Q 3016 -781 2778 -967 
Q 2541 -1153 2211 -1236 
Q 1881 -1319 1600 -1319 
Q 1316 -1319 984 -1236 
Q 653 -1153 415 -967 
Q 178 -781 178 -500 
z
M 538 -500 
Q 538 -716 713 -861 
Q 888 -1006 1134 -1076 
Q 1381 -1147 1600 -1147 
Q 1816 -1147 2062 -1076 
Q 2309 -1006 2482 -861 
Q 2656 -716 2656 -500 
Q 2656 -166 2350 -67 
Q 2044 31 1606 31 
L 1081 31 
Q 934 31 811 -39 
Q 688 -109 613 -236 
Q 538 -363 538 -500 
z
M 1422 1113 
Q 1966 1113 1966 1888 
Q 1966 2222 1850 2439 
Q 1734 2656 1422 2656 
Q 1109 2656 993 2439 
Q 878 2222 878 1888 
Q 878 1675 922 1503 
Q 966 1331 1084 1222 
Q 1203 1113 1422 1113 
z
" transform="scale(0.015625)"/>
      <path id="Cmr10-28" d="M 1984 -1588 
Q 1628 -1306 1370 -942 
Q 1113 -578 948 -165 
Q 784 247 703 697 
Q 622 1147 622 1600 
Q 622 2059 703 2509 
Q 784 2959 951 3375 
Q 1119 3791 1378 4153 
Q 1638 4516 1984 4788 
Q 1984 4800 2016 4800 
L 2075 4800 
Q 2094 4800 2109 4783 
Q 2125 4766 2125 4744 
Q 2125 4716 2113 4703 
Q 1800 4397 1592 4047 
Q 1384 3697 1257 3301 
Q 1131 2906 1075 2482 
Q 1019 2059 1019 1600 
Q 1019 -434 2106 -1491 
Q 2125 -1509 2125 -1544 
Q 2125 -1559 2108 -1579 
Q 2091 -1600 2075 -1600 
L 2016 -1600 
Q 1984 -1600 1984 -1588 
z
" transform="scale(0.015625)"/>
      <path id="Cmmi10-3b" d="M 634 -1153 
Q 634 -1125 659 -1100 
Q 891 -878 1019 -587 
Q 1147 -297 1147 25 
L 1147 103 
Q 1044 0 891 0 
Q 744 0 641 103 
Q 538 206 538 353 
Q 538 503 641 603 
Q 744 703 891 703 
Q 1119 703 1216 492 
Q 1313 281 1313 25 
Q 1313 -331 1170 -651 
Q 1028 -972 769 -1228 
Q 744 -1241 728 -1241 
Q 697 -1241 665 -1212 
Q 634 -1184 634 -1153 
z
" transform="scale(0.015625)"/>
      <path id="Cmr10-29" d="M 416 -1600 
Q 359 -1600 359 -1544 
Q 359 -1516 372 -1503 
Q 1466 -434 1466 1600 
Q 1466 3634 384 4691 
Q 359 4706 359 4744 
Q 359 4766 376 4783 
Q 394 4800 416 4800 
L 475 4800 
Q 494 4800 506 4788 
Q 966 4425 1272 3906 
Q 1578 3388 1720 2800 
Q 1863 2213 1863 1600 
Q 1863 1147 1786 708 
Q 1709 269 1542 -157 
Q 1375 -584 1119 -945 
Q 863 -1306 506 -1588 
Q 494 -1600 475 -1600 
L 416 -1600 
z
" transform="scale(0.015625)"/>
     </defs>
     <use xlink:href="#DejaVuSans-28" transform="translate(0 0.125)"/>
     <use xlink:href="#DejaVuSans-61" transform="translate(39.013672 0.125)"/>
     <use xlink:href="#DejaVuSans-29" transform="translate(100.292969 0.125)"/>
     <use xlink:href="#DejaVuSans-20" transform="translate(139.306641 0.125)"/>
     <use xlink:href="#Cmr10-64" transform="translate(171.09375 0.125)"/>
     <use xlink:href="#Cmr10-69" transform="translate(226.611328 0.125)"/>
     <use xlink:href="#Cmr10-61" transform="translate(254.296875 0.125)"/>
     <use xlink:href="#Cmr10-67" transform="translate(304.296875 0.125)"/>
     <use xlink:href="#Cmr10-28" transform="translate(354.296875 0.125)"/>
     <use xlink:href="#Cmr10-32" transform="translate(393.115234 0.125)"/>
     <use xlink:href="#Cmmi10-3b" transform="translate(443.115234 0.125)"/>
     <use xlink:href="#Cmsy10-a1" transform="translate(505.917969 0.125)"/>
     <use xlink:href="#Cmr10-31" transform="translate(601.162109 0.125)"/>
     <use xlink:href="#Cmr10-29" transform="translate(651.162109 0.125)"/>
    </g>
   </g>
  </g>
  <g id="axes_2">
   <g id="line2d_3">
    <path d="M 419.963916 131.383636 
L 419.833957 128.084238 
L 419.444886 124.805283 
L 418.799112 121.56709 
L 417.900638 118.389722 
L 416.755031 115.292868 
L 415.369389 112.295717 
L 413.752298 109.416839 
L 411.913778 106.674074 
L 409.86522 104.084415 
L 407.619319 101.663909 
L 405.18999 99.427554 
L 402.592287 97.389208 
L 399.842304 95.5615 
L 396.957083 93.955755 
L 393.9545 92.581923 
L 390.85316 91.448516 
L 387.67228 90.562558 
L 384.431569 89.929538 
L 381.151108 89.553378 
L 377.851224 89.436409 
L 374.552362 89.579356 
L 371.274965 89.981333 
L 368.039339 90.63985 
L 364.865533 91.550826 
L 361.773213 92.708616 
L 358.78154 94.106046 
L 355.909051 95.734459 
L 353.173544 97.583762 
L 350.59197 99.642499 
L 348.180325 101.897912 
L 345.953552 104.336026 
L 343.925448 106.941734 
L 342.10858 109.69889 
L 340.514206 112.590411 
L 339.152205 115.598379 
L 338.031017 118.704157 
L 337.157588 121.8885 
L 336.537331 125.131678 
L 336.174088 128.413594 
L 336.070111 131.713914 
L 336.226044 135.012187 
L 336.640921 138.287977 
L 337.312171 141.520985 
L 338.235634 144.69118 
L 339.405589 147.778918 
L 340.814787 150.765066 
L 342.454495 153.631122 
L 344.314553 156.359327 
L 346.383437 158.932776 
L 348.648327 161.335524 
L 351.095188 163.552682 
L 353.70886 165.570512 
L 356.473148 167.376511 
L 359.370923 168.959489 
L 362.38423 170.309637 
L 365.494398 171.41859 
L 368.682155 172.279476 
L 371.927749 172.886961 
L 375.21107 173.23728 
L 378.511774 173.328263 
L 381.809407 173.159347 
L 385.083538 172.731577 
L 388.313879 172.047605 
L 391.480414 171.111668 
L 394.563522 169.929566 
L 397.544099 168.508624 
L 400.403678 166.857645 
L 403.124539 164.986861 
L 405.689823 162.907862 
L 408.083636 160.63353 
L 410.291143 158.177959 
L 412.298668 155.556364 
L 414.093771 152.784987 
L 415.665329 149.881003 
L 417.003604 146.862404 
L 418.100304 143.747895 
L 418.948634 140.556773 
L 419.543336 137.308812 
L 419.880727 134.024138 
L 419.963916 131.383636 
L 419.963916 131.383636 
" clip-path="url(#p911f405439)" style="fill: none; stroke-dasharray: 5.18,2.24; stroke-dashoffset: 0; stroke: #cfcfcf; stroke-width: 1.4"/>
   </g>
   <g id="line2d_4">
    <path d="M 461.911469 89.436084 
L 464.385591 84.238271 
L 466.517144 79.227452 
L 468.297672 74.423503 
L 469.720114 69.845478 
L 470.778827 65.511534 
L 471.331584 62.431633 
L 471.676118 59.505592 
L 471.811661 56.739938 
L 471.73791 54.140844 
L 471.455029 51.714108 
L 470.96365 49.465147 
L 470.264869 47.398977 
L 469.360246 45.520211 
L 468.251799 43.833039 
L 466.942002 42.341226 
L 465.433776 41.048103 
L 463.730488 39.956553 
L 461.835939 39.069012 
L 459.754355 38.387462 
L 457.490382 37.913423 
L 455.049071 37.647952 
L 452.43587 37.591642 
L 449.65661 37.744618 
L 446.717493 38.10654 
L 443.625076 38.6766 
L 440.386261 39.453525 
L 435.852646 40.808154 
L 431.089632 42.522037 
L 426.116111 44.588375 
L 420.951811 46.998973 
L 415.617213 49.744269 
L 410.133478 52.813375 
L 404.522355 56.194118 
L 398.8061 59.873089 
L 393.007386 63.835694 
L 387.149213 68.066218 
L 381.254815 72.547881 
L 373.871501 78.475954 
L 366.51387 84.731856 
L 359.227511 91.276825 
L 352.057572 98.070306 
L 345.048482 105.070205 
L 338.243668 112.233149 
L 331.685297 119.514754 
L 325.414005 126.869902 
L 319.46865 134.253018 
L 313.886073 141.618355 
L 309.704536 147.467144 
L 305.793948 153.25214 
L 302.169819 158.950398 
L 298.846523 164.539317 
L 295.837242 169.996729 
L 293.153911 175.300989 
L 290.807175 180.431057 
L 288.806339 185.366586 
L 287.159342 190.088 
L 285.872714 194.576573 
L 284.95156 198.8145 
L 284.50279 201.818309 
L 284.262684 204.664951 
L 284.23178 207.348073 
L 284.410145 209.861689 
L 284.797383 212.20019 
L 285.392629 214.358358 
L 286.194555 216.331376 
L 287.201371 218.114843 
L 288.41083 219.704778 
L 289.820235 221.097635 
L 291.42644 222.290305 
L 293.22586 223.280126 
L 295.214482 224.06489 
L 297.387867 224.642846 
L 299.741165 225.012705 
L 302.269126 225.17364 
L 304.966109 225.125293 
L 307.826096 224.867772 
L 310.842704 224.401651 
L 314.009203 223.727971 
L 318.452107 222.509524 
L 323.131263 220.929641 
L 328.028112 218.994588 
L 333.123232 216.71204 
L 338.396413 214.09105 
L 343.82674 211.142014 
L 349.392676 207.876628 
L 355.072143 204.307846 
L 360.842614 200.44982 
L 366.681202 196.317855 
L 372.56475 191.928338 
L 379.946848 186.105876 
L 387.316983 179.94434 
L 394.62949 173.48191 
L 401.839058 166.758627 
L 408.901014 159.816153 
L 415.7716 152.697503 
L 422.408246 145.446786 
L 428.769827 138.108931 
L 434.816928 130.729404 
L 440.512077 123.353931 
L 444.790998 117.48719 
L 448.805069 111.675567 
L 452.538367 105.942113 
L 455.976086 100.309569 
L 459.104589 94.800275 
L 461.911469 89.436084 
L 461.911469 89.436084 
" clip-path="url(#p911f405439)" style="fill: none; stroke: #1f77b4; stroke-width: 2.2; stroke-linecap: square"/>
   </g>
   <g id="patch_6">
    <path d="M 378.016364 131.383636 
Q 422.508462 86.891538 464.94508 44.45492 
" style="fill: none; stroke: #2ca02c; stroke-width: 2.6; stroke-linecap: round"/>
    <path d="M 459.005383 46.434819 
L 464.94508 44.45492 
L 462.965181 50.394617 
" style="fill: none; stroke: #2ca02c; stroke-width: 2.6; stroke-linecap: round"/>
   </g>
   <g id="text_4">
    <!-- $\lambda_1$$=3$ -->
    <g style="fill: #2ca02c" transform="translate(454.50806 27.224007) scale(0.095 -0.095)">
     <defs>
      <path id="Cmr10-33" d="M 609 494 
Q 759 275 1012 169 
Q 1266 63 1556 63 
Q 1928 63 2084 380 
Q 2241 697 2241 1100 
Q 2241 1281 2208 1462 
Q 2175 1644 2097 1800 
Q 2019 1956 1883 2050 
Q 1747 2144 1550 2144 
L 1125 2144 
Q 1069 2144 1069 2203 
L 1069 2259 
Q 1069 2309 1125 2309 
L 1478 2338 
Q 1703 2338 1851 2506 
Q 2000 2675 2069 2917 
Q 2138 3159 2138 3378 
Q 2138 3684 1994 3881 
Q 1850 4078 1556 4078 
Q 1313 4078 1091 3986 
Q 869 3894 738 3706 
Q 750 3709 759 3711 
Q 769 3713 781 3713 
Q 925 3713 1022 3613 
Q 1119 3513 1119 3372 
Q 1119 3234 1022 3134 
Q 925 3034 781 3034 
Q 641 3034 541 3134 
Q 441 3234 441 3372 
Q 441 3647 606 3850 
Q 772 4053 1033 4158 
Q 1294 4263 1556 4263 
Q 1750 4263 1965 4205 
Q 2181 4147 2356 4039 
Q 2531 3931 2642 3762 
Q 2753 3594 2753 3378 
Q 2753 3109 2633 2881 
Q 2513 2653 2303 2487 
Q 2094 2322 1844 2241 
Q 2122 2188 2372 2031 
Q 2622 1875 2773 1631 
Q 2925 1388 2925 1106 
Q 2925 753 2731 467 
Q 2538 181 2222 20 
Q 1906 -141 1556 -141 
Q 1256 -141 954 -26 
Q 653 88 461 316 
Q 269 544 269 863 
Q 269 1022 375 1128 
Q 481 1234 641 1234 
Q 744 1234 830 1186 
Q 916 1138 964 1050 
Q 1013 963 1013 863 
Q 1013 706 903 600 
Q 794 494 641 494 
L 609 494 
z
" transform="scale(0.015625)"/>
     </defs>
     <use xlink:href="#Cmmi10-b8" transform="translate(0 0.609375)"/>
     <use xlink:href="#Cmr10-31" transform="translate(58.300781 -16.396875) scale(0.7)"/>
     <use xlink:href="#Cmr10-3d" transform="translate(117.236719 0.609375)"/>
     <use xlink:href="#Cmr10-33" transform="translate(212.480859 0.609375)"/>
    </g>
   </g>
   <g id="patch_7">
    <path d="M 378.016364 131.383636 
Q 363.185664 116.552937 350.410445 103.777718 
" style="fill: none; stroke: #2ca02c; stroke-width: 2.6; stroke-linecap: round"/>
    <path d="M 352.390344 109.717415 
L 350.410445 103.777718 
L 356.350142 105.757617 
" style="fill: none; stroke: #2ca02c; stroke-width: 2.6; stroke-linecap: round"/>
   </g>
   <g id="text_5">
    <!-- $\lambda_2$$=1$ -->
    <g style="fill: #2ca02c" transform="translate(318.065626 104.343644) scale(0.095 -0.095)">
     <use xlink:href="#Cmmi10-b8" transform="translate(0 0.609375)"/>
     <use xlink:href="#Cmr10-32" transform="translate(58.300781 -16.396875) scale(0.7)"/>
     <use xlink:href="#Cmr10-3d" transform="translate(117.236719 0.609375)"/>
     <use xlink:href="#Cmr10-31" transform="translate(212.480859 0.609375)"/>
    </g>
   </g>
   <g id="patch_8">
    <path d="M 270.95307 131.383636 
Q 378.015642 131.383636 484.183787 131.383636 
" style="fill: none; stroke: #7f7f7f; stroke-width: 0.8; stroke-linecap: round"/>
    <path d="M 479.783787 129.183636 
L 484.183787 131.383636 
L 479.783787 133.583636 
" style="fill: none; stroke: #7f7f7f; stroke-width: 0.8; stroke-linecap: round"/>
   </g>
   <g id="patch_9">
    <path d="M 378.016364 238.44693 
Q 378.016364 131.384358 378.016364 25.216213 
" style="fill: none; stroke: #7f7f7f; stroke-width: 0.8; stroke-linecap: round"/>
    <path d="M 375.816364 29.616213 
L 378.016364 25.216213 
L 380.216364 29.616213 
" style="fill: none; stroke: #7f7f7f; stroke-width: 0.8; stroke-linecap: round"/>
   </g>
   <g id="text_6">
    <!-- (b) $[[2,1],[1,2]]$ -->
    <g transform="translate(337.456364 16.32) scale(0.12 -0.12)">
     <defs>
      <path id="DejaVuSans-62" d="M 3116 1747 
Q 3116 2381 2855 2742 
Q 2594 3103 2138 3103 
Q 1681 3103 1420 2742 
Q 1159 2381 1159 1747 
Q 1159 1113 1420 752 
Q 1681 391 2138 391 
Q 2594 391 2855 752 
Q 3116 1113 3116 1747 
z
M 1159 2969 
Q 1341 3281 1617 3432 
Q 1894 3584 2278 3584 
Q 2916 3584 3314 3078 
Q 3713 2572 3713 1747 
Q 3713 922 3314 415 
Q 2916 -91 2278 -91 
Q 1894 -91 1617 61 
Q 1341 213 1159 525 
L 1159 0 
L 581 0 
L 581 4863 
L 1159 4863 
L 1159 2969 
z
" transform="scale(0.015625)"/>
      <path id="Cmr10-5b" d="M 756 -1600 
L 756 4800 
L 1631 4800 
L 1631 4544 
L 1013 4544 
L 1013 -1344 
L 1631 -1344 
L 1631 -1600 
L 756 -1600 
z
" transform="scale(0.015625)"/>
      <path id="Cmr10-5d" d="M 141 -1600 
L 141 -1344 
L 763 -1344 
L 763 4544 
L 141 4544 
L 141 4800 
L 1019 4800 
L 1019 -1600 
L 141 -1600 
z
" transform="scale(0.015625)"/>
     </defs>
     <use xlink:href="#DejaVuSans-28" transform="translate(0 0.015625)"/>
     <use xlink:href="#DejaVuSans-62" transform="translate(39.013672 0.015625)"/>
     <use xlink:href="#DejaVuSans-29" transform="translate(102.490234 0.015625)"/>
     <use xlink:href="#DejaVuSans-20" transform="translate(141.503906 0.015625)"/>
     <use xlink:href="#Cmr10-5b" transform="translate(173.291016 0.015625)"/>
     <use xlink:href="#Cmr10-5b" transform="translate(200.976562 0.015625)"/>
     <use xlink:href="#Cmr10-32" transform="translate(228.662109 0.015625)"/>
     <use xlink:href="#Cmmi10-3b" transform="translate(278.662109 0.015625)"/>
     <use xlink:href="#Cmr10-31" transform="translate(323.90625 0.015625)"/>
     <use xlink:href="#Cmr10-5d" transform="translate(373.90625 0.015625)"/>
     <use xlink:href="#Cmmi10-3b" transform="translate(401.591797 0.015625)"/>
     <use xlink:href="#Cmr10-5b" transform="translate(446.835938 0.015625)"/>
     <use xlink:href="#Cmr10-31" transform="translate(474.521484 0.015625)"/>
     <use xlink:href="#Cmmi10-3b" transform="translate(524.521484 0.015625)"/>
     <use xlink:href="#Cmr10-32" transform="translate(569.765625 0.015625)"/>
     <use xlink:href="#Cmr10-5d" transform="translate(619.765625 0.015625)"/>
     <use xlink:href="#Cmr10-5d" transform="translate(647.451172 0.015625)"/>
    </g>
   </g>
  </g>
 </g>
 <defs>
  <clipPath id="p5624ae833f">
   <rect x="7.2" y="22.32" width="218.127273" height="218.127273"/>
  </clipPath>
  <clipPath id="p911f405439">
   <rect x="268.952727" y="22.32" width="218.127273" height="218.127273"/>
  </clipPath>
 </defs>
</svg>
