<?xml version="1.0" encoding="utf-8" standalone="no"?>
<!DOCTYPE svg PUBLIC "-//W3C//DTD SVG 1.1//EN"
  "http://www.w3.org/Graphics/SVG/1.1/DTD/svg11.dtd">
<svg xmlns:xlink="http://www.w3.org/1999/xlink" width="501.597975pt" height="234.576674pt" viewBox="0 0 501.597975 234.576674" xmlns="http://www.w3.org/2000/svg" version="1.1">
 <metadata>
  <rdf:RDF xmlns:dc="http://purl.org/dc/elements/1.1/" xmlns:cc="http://creativecommons.org/ns#" xmlns:rdf="http://www.w3.org/1999/02/22-rdf-syntax-ns#">
   <cc:Work>
    <dc:type rdf:resource="http://purl.org/dc/dcmitype/StillImage"/>
    <dc:format>image/svg+xml</dc:format>
    <dc:creator>
     <cc:Agent>
      <dc:title>Matplotlib v3.10.8, https://matplotlib.org/</dc:title>
     </cc:Agent>
    </dc:creator>
   </cc:Work>
  </rdf:RDF>
 </metadata>
 <defs>
  <style type="text/css">*{stroke-linejoin: round; stroke-linecap: butt}</style>
 </defs>
 <g id="figure_1">
  <g id="patch_1">
   <path d="M 0 234.576674 
L 501.597975 234.576674 
L 501.597975 0 
L 0 0 
z
" style="fill: #ffffff"/>
  </g>
  <g id="axes_1">
   <g id="line2d_1">
    <path d="M 152.618182 118.313038 
L 152.505551 115.453559 
L 152.168355 112.611799 
L 151.608685 109.805364 
L 150.830008 107.051646 
L 149.837148 104.367706 
L 148.636258 101.770175 
L 147.234779 99.275147 
L 145.641395 96.898084 
L 143.865979 94.653713 
L 141.919531 92.555941 
L 139.814113 90.617767 
L 137.56277 88.8512 
L 135.179452 87.267186 
L 132.678926 85.875541 
L 130.076688 84.684886 
L 127.38886 83.702601 
L 124.632097 82.93477 
L 121.823481 82.386153 
L 118.980415 82.060147 
L 116.120515 81.958774 
L 113.261502 82.082662 
L 110.421091 82.431042 
L 107.616881 83.001757 
L 104.86625 83.791269 
L 102.186239 84.794687 
L 99.593456 86.005793 
L 97.103965 87.417084 
L 94.733193 89.019814 
L 92.495829 90.804052 
L 90.405736 92.758743 
L 88.475866 94.871775 
L 86.718176 97.130056 
L 85.143557 99.519591 
L 83.761766 102.025576 
L 82.581366 104.632482 
L 81.609669 107.324156 
L 80.852697 110.08392 
L 80.315141 112.894674 
L 80.000331 115.739002 
L 79.910218 118.599279 
L 80.04536 121.457782 
L 80.40492 124.2968 
L 80.986669 127.09874 
L 81.787004 129.846242 
L 82.800965 132.522282 
L 84.02227 135.110277 
L 85.44335 137.594193 
L 87.055401 139.958637 
L 88.848433 142.188959 
L 90.811338 144.27134 
L 92.931951 146.192877 
L 95.197133 147.941663 
L 97.59285 149.506863 
L 100.104255 150.878777 
L 102.715787 152.048906 
L 105.411266 153.009998 
L 108.173989 153.756099 
L 110.986837 154.282586 
L 113.832382 154.586196 
L 116.692992 154.665048 
L 119.550941 154.518654 
L 122.388521 154.14792 
L 125.18815 153.555144 
L 127.93248 152.743999 
L 130.604507 151.719511 
L 133.187674 150.488027 
L 135.665975 149.057179 
L 138.024055 147.435832 
L 140.247301 145.634033 
L 142.321939 143.662946 
L 144.235112 141.534785 
L 145.974967 139.262735 
L 147.530723 136.860876 
L 148.89274 134.344089 
L 150.052578 131.72797 
L 151.003051 129.028728 
L 151.73827 126.26309 
L 152.253679 123.44819 
L 152.546085 120.601472 
L 152.618182 118.313038 
L 152.618182 118.313038 
" clip-path="url(#pfb5a993a51)" style="fill: none; stroke-dasharray: 3.7,1.6; stroke-dashoffset: 0; stroke: #000000; stroke-opacity: 0.5"/>
   </g>
   <g id="line2d_2">
    <path d="M 188.972727 118.313038 
L 188.828533 120.601472 
L 188.396521 122.88083 
L 187.678405 125.14207 
L 186.677034 127.376224 
L 185.396379 129.57443 
L 183.84152 131.72797 
L 182.018623 133.828301 
L 179.93492 135.867094 
L 177.598675 137.836261 
L 175.019154 139.727992 
L 172.206588 141.534785 
L 169.172133 143.249471 
L 165.927825 144.865252 
L 162.486532 146.375717 
L 157.928769 148.106614 
L 153.112838 149.652902 
L 148.06858 151.005 
L 142.82725 152.15453 
L 137.421325 153.09437 
L 131.884302 153.818695 
L 126.250489 154.323018 
L 120.554794 154.604214 
L 114.832511 154.660541 
L 109.119095 154.491649 
L 103.449949 154.098584 
L 97.8602 153.483784 
L 92.384483 152.651056 
L 87.056727 151.605561 
L 81.909945 150.353777 
L 76.976028 148.90346 
L 72.285546 147.263597 
L 67.867565 145.444349 
L 63.749458 143.456988 
L 60.688096 141.754301 
L 57.847165 139.958637 
L 55.237935 138.077119 
L 52.870753 136.11721 
L 50.755009 134.086684 
L 48.899095 131.993594 
L 47.310372 129.846242 
L 45.995141 127.653146 
L 44.958619 125.423004 
L 44.204918 123.164661 
L 43.737026 120.887074 
L 43.556799 118.599279 
L 43.664953 116.310348 
L 44.061058 114.02936 
L 44.743543 111.765363 
L 45.709702 109.527336 
L 46.955702 107.324156 
L 48.476601 105.164562 
L 50.266366 103.057119 
L 52.317899 101.010187 
L 54.623064 99.031884 
L 57.172715 97.130056 
L 59.956742 95.312247 
L 62.964101 93.585667 
L 66.182865 91.957165 
L 69.600266 90.433199 
L 74.130631 88.684413 
L 78.922063 87.119213 
L 83.944873 85.747299 
L 89.167938 84.57717 
L 94.558896 83.616078 
L 100.084342 82.869977 
L 105.710038 82.34349 
L 111.401128 82.03988 
L 117.122347 81.961028 
L 122.838245 82.107422 
L 128.513405 82.478156 
L 134.112663 83.070932 
L 139.601323 83.882077 
L 144.945377 84.906565 
L 150.111712 86.138049 
L 155.068315 87.568897 
L 159.784474 89.190244 
L 164.230967 90.992043 
L 168.380241 92.96313 
L 171.468321 94.653713 
L 174.33744 96.438137 
L 176.976218 98.309324 
L 179.37419 100.259853 
L 181.521843 102.281987 
L 183.41066 104.367706 
L 185.033148 106.508736 
L 186.382873 108.696587 
L 187.454481 110.92258 
L 188.243722 113.177886 
L 188.747465 115.453559 
L 188.963712 117.740575 
L 188.972727 118.313038 
L 188.972727 118.313038 
" clip-path="url(#pfb5a993a51)" style="fill: none; stroke: #1f77b4; stroke-width: 2.4; stroke-linecap: square"/>
   </g>
   <g id="patch_2">
    <path d="M 116.263636 118.313038 
Q 152.618182 118.313038 186.065839 118.313038 
" style="fill: none; stroke: #2ca02c; stroke-width: 2.6; stroke-linecap: round"/>
    <path d="M 180.465839 115.513038 
L 186.065839 118.313038 
L 180.465839 121.113038 
" style="fill: none; stroke: #2ca02c; stroke-width: 2.6; stroke-linecap: round"/>
   </g>
   <g id="text_1">
    <!-- $\lambda_1$$=2$ -->
    <g style="fill: #2ca02c" transform="translate(175.791545 85.370464) scale(0.15 -0.15)">
     <defs>
      <path id="Cmmi10-b8" d="M 325 109 
Q 325 203 409 288 
L 2209 2053 
L 1575 3834 
Q 1500 4038 1417 4156 
Q 1334 4275 1178 4275 
Q 1106 4275 1106 4359 
Q 1113 4397 1138 4419 
Q 1163 4441 1203 4441 
Q 1875 4441 2016 4044 
L 3316 416 
Q 3400 144 3488 50 
Q 3519 3 3519 -13 
Q 3519 -72 3469 -72 
L 3122 -72 
Q 2963 -25 2869 206 
L 2284 1844 
L 738 25 
Q 622 -84 531 -84 
Q 450 -84 387 -28 
Q 325 28 325 109 
z
" transform="scale(0.015625)"/>
      <path id="Cmr10-31" d="M 594 0 
L 594 225 
Q 1394 225 1394 428 
L 1394 3788 
Q 1063 3628 556 3628 
L 556 3853 
Q 1341 3853 1741 4263 
L 1831 4263 
Q 1853 4263 1873 4245 
Q 1894 4228 1894 4206 
L 1894 428 
Q 1894 225 2694 225 
L 2694 0 
L 594 0 
z
" transform="scale(0.015625)"/>
      <path id="Cmr10-3d" d="M 481 850 
Q 428 850 393 890 
Q 359 931 359 978 
Q 359 1031 393 1068 
Q 428 1106 481 1106 
L 4500 1106 
Q 4547 1106 4581 1068 
Q 4616 1031 4616 978 
Q 4616 931 4581 890 
Q 4547 850 4500 850 
L 481 850 
z
M 481 2094 
Q 428 2094 393 2131 
Q 359 2169 359 2222 
Q 359 2269 393 2309 
Q 428 2350 481 2350 
L 4500 2350 
Q 4547 2350 4581 2309 
Q 4616 2269 4616 2222 
Q 4616 2169 4581 2131 
Q 4547 2094 4500 2094 
L 481 2094 
z
" transform="scale(0.015625)"/>
      <path id="Cmr10-32" d="M 319 0 
L 319 172 
Q 319 188 331 206 
L 1325 1306 
Q 1550 1550 1690 1715 
Q 1831 1881 1968 2097 
Q 2106 2313 2186 2536 
Q 2266 2759 2266 3009 
Q 2266 3272 2169 3511 
Q 2072 3750 1880 3894 
Q 1688 4038 1416 4038 
Q 1138 4038 916 3870 
Q 694 3703 603 3438 
Q 628 3444 672 3444 
Q 816 3444 917 3347 
Q 1019 3250 1019 3097 
Q 1019 2950 917 2848 
Q 816 2747 672 2747 
Q 522 2747 420 2851 
Q 319 2956 319 3097 
Q 319 3338 409 3548 
Q 500 3759 670 3923 
Q 841 4088 1055 4175 
Q 1269 4263 1509 4263 
Q 1875 4263 2190 4108 
Q 2506 3953 2690 3670 
Q 2875 3388 2875 3009 
Q 2875 2731 2753 2481 
Q 2631 2231 2440 2026 
Q 2250 1822 1953 1562 
Q 1656 1303 1563 1216 
L 838 519 
L 1453 519 
Q 1906 519 2211 526 
Q 2516 534 2534 550 
Q 2609 631 2688 1141 
L 2875 1141 
L 2694 0 
L 319 0 
z
" transform="scale(0.015625)"/>
     </defs>
     <use xlink:href="#Cmmi10-b8" transform="translate(0 0.609375)"/>
     <use xlink:href="#Cmr10-31" transform="translate(58.300781 -16.396875) scale(0.7)"/>
     <use xlink:href="#Cmr10-3d" transform="translate(117.236719 0.609375)"/>
     <use xlink:href="#Cmr10-32" transform="translate(212.480859 0.609375)"/>
    </g>
   </g>
   <g id="patch_3">
    <path d="M 116.263636 118.313038 
Q 116.263636 136.490311 116.263636 151.760695 
" style="fill: none; stroke: #ff7f0e; stroke-width: 2.6; stroke-linecap: round"/>
    <path d="M 119.063636 146.160695 
L 116.263636 151.760695 
L 113.463636 146.160695 
" style="fill: none; stroke: #ff7f0e; stroke-width: 2.6; stroke-linecap: round"/>
   </g>
   <g id="text_2">
    <!-- $\lambda_2$$=-1$ (flip) -->
    <g style="fill: #ff7f0e" transform="translate(20.060455 178.787584) scale(0.15 -0.15)">
     <defs>
      <path id="Cmsy10-a1" d="M 653 1472 
Q 600 1472 565 1512 
Q 531 1553 531 1600 
Q 531 1647 565 1687 
Q 600 1728 653 1728 
L 4325 1728 
Q 4375 1728 4408 1687 
Q 4441 1647 4441 1600 
Q 4441 1553 4408 1512 
Q 4375 1472 4325 1472 
L 653 1472 
z
" transform="scale(0.015625)"/>
      <path id="DejaVuSans-20" transform="scale(0.015625)"/>
      <path id="DejaVuSans-28" d="M 1984 4856 
Q 1566 4138 1362 3434 
Q 1159 2731 1159 2009 
Q 1159 1288 1364 580 
Q 1569 -128 1984 -844 
L 1484 -844 
Q 1016 -109 783 600 
Q 550 1309 550 2009 
Q 550 2706 781 3412 
Q 1013 4119 1484 4856 
L 1984 4856 
z
" transform="scale(0.015625)"/>
      <path id="DejaVuSans-66" d="M 2375 4863 
L 2375 4384 
L 1825 4384 
Q 1516 4384 1395 4259 
Q 1275 4134 1275 3809 
L 1275 3500 
L 2222 3500 
L 2222 3053 
L 1275 3053 
L 1275 0 
L 697 0 
L 697 3053 
L 147 3053 
L 147 3500 
L 697 3500 
L 697 3744 
Q 697 4328 969 4595 
Q 1241 4863 1831 4863 
L 2375 4863 
z
" transform="scale(0.015625)"/>
      <path id="DejaVuSans-6c" d="M 603 4863 
L 1178 4863 
L 1178 0 
L 603 0 
L 603 4863 
z
" transform="scale(0.015625)"/>
      <path id="DejaVuSans-69" d="M 603 3500 
L 1178 3500 
L 1178 0 
L 603 0 
L 603 3500 
z
M 603 4863 
L 1178 4863 
L 1178 4134 
L 603 4134 
L 603 4863 
z
" transform="scale(0.015625)"/>
      <path id="DejaVuSans-70" d="M 1159 525 
L 1159 -1331 
L 581 -1331 
L 581 3500 
L 1159 3500 
L 1159 2969 
Q 1341 3281 1617 3432 
Q 1894 3584 2278 3584 
Q 2916 3584 3314 3078 
Q 3713 2572 3713 1747 
Q 3713 922 3314 415 
Q 2916 -91 2278 -91 
Q 1894 -91 1617 61 
Q 1341 213 1159 525 
z
M 3116 1747 
Q 3116 2381 2855 2742 
Q 2594 3103 2138 3103 
Q 1681 3103 1420 2742 
Q 1159 2381 1159 1747 
Q 1159 1113 1420 752 
Q 1681 391 2138 391 
Q 2594 391 2855 752 
Q 3116 1113 3116 1747 
z
" transform="scale(0.015625)"/>
      <path id="DejaVuSans-29" d="M 513 4856 
L 1013 4856 
Q 1481 4119 1714 3412 
Q 1947 2706 1947 2009 
Q 1947 1309 1714 600 
Q 1481 -109 1013 -844 
L 513 -844 
Q 928 -128 1133 580 
Q 1338 1288 1338 2009 
Q 1338 2731 1133 3434 
Q 928 4138 513 4856 
z
" transform="scale(0.015625)"/>
     </defs>
     <use xlink:href="#Cmmi10-b8" transform="translate(0 0.015625)"/>
     <use xlink:href="#Cmr10-32" transform="translate(58.300781 -16.990625) scale(0.7)"/>
     <use xlink:href="#Cmr10-3d" transform="translate(117.236719 0.015625)"/>
     <use xlink:href="#Cmsy10-a1" transform="translate(212.480859 0.015625)"/>
     <use xlink:href="#Cmr10-31" transform="translate(290.166406 0.015625)"/>
     <use xlink:href="#DejaVuSans-20" transform="translate(340.166406 0.015625)"/>
     <use xlink:href="#DejaVuSans-28" transform="translate(371.953516 0.015625)"/>
     <use xlink:href="#DejaVuSans-66" transform="translate(410.967188 0.015625)"/>
     <use xlink:href="#DejaVuSans-6c" transform="translate(446.172266 0.015625)"/>
     <use xlink:href="#DejaVuSans-69" transform="translate(473.955469 0.015625)"/>
     <use xlink:href="#DejaVuSans-70" transform="translate(501.738672 0.015625)"/>
     <use xlink:href="#DejaVuSans-29" transform="translate(565.215234 0.015625)"/>
    </g>
   </g>
   <g id="patch_4">
    <path d="M 9.200343 118.313038 
Q 116.262915 118.313038 222.319256 118.313038 
" style="fill: none; stroke: #000000; stroke-width: 0.9; stroke-linecap: round"/>
    <path d="M 217.919256 116.113038 
L 222.319256 118.313038 
L 217.919256 120.513038 
" style="fill: none; stroke: #000000; stroke-width: 0.9; stroke-linecap: round"/>
   </g>
   <g id="patch_5">
    <path d="M 116.263636 225.376331 
Q 116.263636 118.313759 116.263636 12.257418 
" style="fill: none; stroke: #000000; stroke-width: 0.9; stroke-linecap: round"/>
    <path d="M 114.063636 16.657418 
L 116.263636 12.257418 
L 118.463636 16.657418 
" style="fill: none; stroke: #000000; stroke-width: 0.9; stroke-linecap: round"/>
   </g>
  </g>
  <g id="axes_2">
   <g id="line2d_3">
    <path d="M 414.370909 118.313038 
L 414.258278 115.453559 
L 413.921083 112.611799 
L 413.361412 109.805364 
L 412.582735 107.051646 
L 411.589875 104.367706 
L 410.388985 101.770175 
L 408.987507 99.275147 
L 407.394122 96.898084 
L 405.618706 94.653713 
L 403.672258 92.555941 
L 401.56684 90.617767 
L 399.315497 88.8512 
L 396.932179 87.267186 
L 394.431654 85.875541 
L 391.829415 84.684886 
L 389.141587 83.702601 
L 386.384824 82.93477 
L 383.576208 82.386153 
L 380.733142 82.060147 
L 377.873242 81.958774 
L 375.014229 82.082662 
L 372.173818 82.431042 
L 369.369609 83.001757 
L 366.618977 83.791269 
L 363.938966 84.794687 
L 361.346183 86.005793 
L 358.856693 87.417084 
L 356.48592 89.019814 
L 354.248556 90.804052 
L 352.158464 92.758743 
L 350.228593 94.871775 
L 348.470903 97.130056 
L 346.896284 99.519591 
L 345.514494 102.025576 
L 344.334093 104.632482 
L 343.362396 107.324156 
L 342.605425 110.08392 
L 342.067868 112.894674 
L 341.753058 115.739002 
L 341.662945 118.599279 
L 341.798087 121.457782 
L 342.157647 124.2968 
L 342.739396 127.09874 
L 343.539731 129.846242 
L 344.553692 132.522282 
L 345.774997 135.110277 
L 347.196077 137.594193 
L 348.808128 139.958637 
L 350.601161 142.188959 
L 352.564065 144.27134 
L 354.684678 146.192877 
L 356.949861 147.941663 
L 359.345577 149.506863 
L 361.856982 150.878777 
L 364.468515 152.048906 
L 367.163993 153.009998 
L 369.926716 153.756099 
L 372.739565 154.282586 
L 375.585109 154.586196 
L 378.445719 154.665048 
L 381.303668 154.518654 
L 384.141248 154.14792 
L 386.940877 153.555144 
L 389.685207 152.743999 
L 392.357234 151.719511 
L 394.940401 150.488027 
L 397.418703 149.057179 
L 399.776782 147.435832 
L 402.000029 145.634033 
L 404.074666 143.662946 
L 405.987839 141.534785 
L 407.727694 139.262735 
L 409.28345 136.860876 
L 410.645467 134.344089 
L 411.805305 131.72797 
L 412.755779 129.028728 
L 413.490998 126.26309 
L 414.006406 123.44819 
L 414.298812 120.601472 
L 414.370909 118.313038 
L 414.370909 118.313038 
" clip-path="url(#p460def9364)" style="fill: none; stroke-dasharray: 3.7,1.6; stroke-dashoffset: 0; stroke: #000000; stroke-opacity: 0.5"/>
   </g>
   <g id="line2d_4">
    <path d="M 450.725455 81.958493 
L 452.869694 77.453721 
L 454.71704 73.111012 
L 456.260164 68.947589 
L 457.492947 64.979967 
L 458.410498 61.223882 
L 459.009179 57.694233 
L 459.286614 54.405018 
L 459.283163 52.103778 
L 459.098374 49.950276 
L 458.73266 47.949319 
L 458.186835 46.105371 
L 457.462119 44.422546 
L 456.560129 42.9046 
L 455.482877 41.554919 
L 454.232766 40.376516 
L 452.812587 39.37202 
L 451.225509 38.543672 
L 449.475072 37.89332 
L 447.565183 37.422417 
L 445.500103 37.132012 
L 443.284441 37.022753 
L 440.92314 37.094886 
L 438.421469 37.348247 
L 434.877248 37.96694 
L 431.107496 38.904313 
L 427.127167 40.156648 
L 422.952048 41.718978 
L 418.598698 43.585107 
L 414.084385 45.747632 
L 409.427013 48.197977 
L 404.645056 50.926422 
L 398.521348 54.711468 
L 392.270585 58.890607 
L 385.931499 63.437942 
L 379.54337 68.325298 
L 373.145778 73.522391 
L 366.778366 78.997018 
L 360.480587 84.715258 
L 354.291465 90.641678 
L 348.249348 96.739557 
L 342.391676 102.97111 
L 336.754743 109.297727 
L 331.373478 115.680204 
L 326.281224 122.078996 
L 321.509535 128.454452 
L 317.087976 134.76707 
L 313.043946 140.977734 
L 309.402502 147.047962 
L 306.794458 151.777719 
L 304.468905 156.374743 
L 302.435067 160.820802 
L 300.701009 165.098261 
L 299.273611 169.190153 
L 298.158534 173.080249 
L 297.360201 176.75312 
L 296.881777 180.194197 
L 296.73409 182.614644 
L 296.767776 184.891609 
L 296.982758 187.020011 
L 297.378559 188.995101 
L 297.954294 190.812471 
L 298.708678 192.468067 
L 299.640029 193.958194 
L 300.746269 195.279528 
L 302.024928 196.429118 
L 303.473154 197.404402 
L 305.087715 198.203201 
L 306.865008 198.823735 
L 308.801067 199.264617 
L 310.891573 199.524865 
L 313.131861 199.603898 
L 315.516931 199.501539 
L 318.041463 199.218016 
L 321.614663 198.559328 
L 325.411572 197.582356 
L 329.41713 196.290974 
L 333.615449 194.690306 
L 337.989877 192.786698 
L 342.523064 190.587703 
L 347.19703 188.102041 
L 351.993236 185.339572 
L 358.131372 181.514019 
L 364.392721 177.296857 
L 370.738485 172.714215 
L 377.129345 167.79449 
L 383.525702 162.568165 
L 389.887921 157.067623 
L 396.17658 151.326948 
L 402.352715 145.38171 
L 408.378055 139.268748 
L 414.215266 133.025939 
L 419.828179 126.691965 
L 425.182016 120.306073 
L 430.243601 113.907831 
L 434.981574 107.536885 
L 439.366575 101.232711 
L 443.371434 95.034372 
L 446.971337 88.980273 
L 449.544612 84.266091 
L 450.725455 81.958493 
L 450.725455 81.958493 
" clip-path="url(#p460def9364)" style="fill: none; stroke: #1f77b4; stroke-width: 2.4; stroke-linecap: square"/>
   </g>
   <g id="patch_6">
    <path d="M 378.016364 118.313038 
Q 416.576182 79.75322 453.08052 43.248882 
" style="fill: none; stroke: #2ca02c; stroke-width: 2.6; stroke-linecap: round"/>
    <path d="M 447.140823 45.228781 
L 453.08052 43.248882 
L 451.100621 49.188579 
" style="fill: none; stroke: #2ca02c; stroke-width: 2.6; stroke-linecap: round"/>
   </g>
   <g id="text_3">
    <!-- $\lambda_1$$=3$ -->
    <g style="fill: #2ca02c" transform="translate(454.947975 18.597656) scale(0.15 -0.15)">
     <defs>
      <path id="Cmr10-33" d="M 609 494 
Q 759 275 1012 169 
Q 1266 63 1556 63 
Q 1928 63 2084 380 
Q 2241 697 2241 1100 
Q 2241 1281 2208 1462 
Q 2175 1644 2097 1800 
Q 2019 1956 1883 2050 
Q 1747 2144 1550 2144 
L 1125 2144 
Q 1069 2144 1069 2203 
L 1069 2259 
Q 1069 2309 1125 2309 
L 1478 2338 
Q 1703 2338 1851 2506 
Q 2000 2675 2069 2917 
Q 2138 3159 2138 3378 
Q 2138 3684 1994 3881 
Q 1850 4078 1556 4078 
Q 1313 4078 1091 3986 
Q 869 3894 738 3706 
Q 750 3709 759 3711 
Q 769 3713 781 3713 
Q 925 3713 1022 3613 
Q 1119 3513 1119 3372 
Q 1119 3234 1022 3134 
Q 925 3034 781 3034 
Q 641 3034 541 3134 
Q 441 3234 441 3372 
Q 441 3647 606 3850 
Q 772 4053 1033 4158 
Q 1294 4263 1556 4263 
Q 1750 4263 1965 4205 
Q 2181 4147 2356 4039 
Q 2531 3931 2642 3762 
Q 2753 3594 2753 3378 
Q 2753 3109 2633 2881 
Q 2513 2653 2303 2487 
Q 2094 2322 1844 2241 
Q 2122 2188 2372 2031 
Q 2622 1875 2773 1631 
Q 2925 1388 2925 1106 
Q 2925 753 2731 467 
Q 2538 181 2222 20 
Q 1906 -141 1556 -141 
Q 1256 -141 954 -26 
Q 653 88 461 316 
Q 269 544 269 863 
Q 269 1022 375 1128 
Q 481 1234 641 1234 
Q 744 1234 830 1186 
Q 916 1138 964 1050 
Q 1013 963 1013 863 
Q 1013 706 903 600 
Q 794 494 641 494 
L 609 494 
z
" transform="scale(0.015625)"/>
     </defs>
     <use xlink:href="#Cmmi10-b8" transform="translate(0 0.609375)"/>
     <use xlink:href="#Cmr10-31" transform="translate(58.300781 -16.396875) scale(0.7)"/>
     <use xlink:href="#Cmr10-3d" transform="translate(117.236719 0.609375)"/>
     <use xlink:href="#Cmr10-33" transform="translate(212.480859 0.609375)"/>
    </g>
   </g>
   <g id="patch_7">
    <path d="M 378.016364 118.313038 
Q 365.163091 105.459765 354.365298 94.661973 
" style="fill: none; stroke: #2ca02c; stroke-width: 2.6; stroke-linecap: round"/>
    <path d="M 356.345197 100.60167 
L 354.365298 94.661973 
L 360.304995 96.641872 
" style="fill: none; stroke: #2ca02c; stroke-width: 2.6; stroke-linecap: round"/>
   </g>
   <g id="text_4">
    <!-- $\lambda_2$$=1$ -->
    <g style="fill: #2ca02c" transform="translate(305.850011 77.20858) scale(0.15 -0.15)">
     <use xlink:href="#Cmmi10-b8" transform="translate(0 0.609375)"/>
     <use xlink:href="#Cmr10-32" transform="translate(58.300781 -16.396875) scale(0.7)"/>
     <use xlink:href="#Cmr10-3d" transform="translate(117.236719 0.609375)"/>
     <use xlink:href="#Cmr10-31" transform="translate(212.480859 0.609375)"/>
    </g>
   </g>
   <g id="patch_8">
    <path d="M 270.95307 118.313038 
Q 378.015642 118.313038 484.071983 118.313038 
" style="fill: none; stroke: #000000; stroke-width: 0.9; stroke-linecap: round"/>
    <path d="M 479.671983 116.113038 
L 484.071983 118.313038 
L 479.671983 120.513038 
" style="fill: none; stroke: #000000; stroke-width: 0.9; stroke-linecap: round"/>
   </g>
   <g id="patch_9">
    <path d="M 378.016364 225.376331 
Q 378.016364 118.313759 378.016364 12.257418 
" style="fill: none; stroke: #000000; stroke-width: 0.9; stroke-linecap: round"/>
    <path d="M 375.816364 16.657418 
L 378.016364 12.257418 
L 380.216364 16.657418 
" style="fill: none; stroke: #000000; stroke-width: 0.9; stroke-linecap: round"/>
   </g>
  </g>
 </g>
 <defs>
  <clipPath id="pfb5a993a51">
   <rect x="7.2" y="9.249402" width="218.127273" height="218.127273"/>
  </clipPath>
  <clipPath id="p460def9364">
   <rect x="268.952727" y="9.249402" width="218.127273" height="218.127273"/>
  </clipPath>
 </defs>
</svg>
