<?xml version="1.0" encoding="utf-8" standalone="no"?>
<!DOCTYPE svg PUBLIC "-//W3C//DTD SVG 1.1//EN"
  "http://www.w3.org/Graphics/SVG/1.1/DTD/svg11.dtd">
<svg xmlns:xlink="http://www.w3.org/1999/xlink" width="512.352pt" height="347.04pt" viewBox="0 0 512.352 347.04" xmlns="http://www.w3.org/2000/svg" version="1.1">
 <metadata>
  <rdf:RDF xmlns:dc="http://purl.org/dc/elements/1.1/" xmlns:cc="http://creativecommons.org/ns#" xmlns:rdf="http://www.w3.org/1999/02/22-rdf-syntax-ns#">
   <cc:Work>
    <dc:type rdf:resource="http://purl.org/dc/dcmitype/StillImage"/>
    <dc:format>image/svg+xml</dc:format>
    <dc:creator>
     <cc:Agent>
      <dc:title>Matplotlib v3.10.8, https://matplotlib.org/</dc:title>
     </cc:Agent>
    </dc:creator>
   </cc:Work>
  </rdf:RDF>
 </metadata>
 <defs>
  <style type="text/css">*{stroke-linejoin: round; stroke-linecap: butt}</style>
 </defs>
 <g id="figure_1">
  <g id="patch_1">
   <path d="M 0 347.04 
L 512.352 347.04 
L 512.352 -0 
L 0 -0 
z
" style="fill: #ffffff"/>
  </g>
  <g id="axes_1">
   <g id="patch_2">
    <path d="M 21.312 245.8944 
L 65.664 245.8944 
Q 70.5024 245.8944 70.5024 241.056 
L 70.5024 214.848 
Q 70.5024 210.0096 65.664 210.0096 
L 21.312 210.0096 
Q 16.4736 210.0096 16.4736 214.848 
L 16.4736 241.056 
Q 16.4736 245.8944 21.312 245.8944 
z
" clip-path="url(#pb076c58d31)" style="fill: #1f77b4; opacity: 0.12; stroke: #1f77b4; stroke-width: 1.8; stroke-linejoin: miter"/>
   </g>
   <g id="patch_3">
    <path d="M 21.312 245.8944 
L 65.664 245.8944 
Q 70.5024 245.8944 70.5024 241.056 
L 70.5024 214.848 
Q 70.5024 210.0096 65.664 210.0096 
L 21.312 210.0096 
Q 16.4736 210.0096 16.4736 214.848 
L 16.4736 241.056 
Q 16.4736 245.8944 21.312 245.8944 
L 21.312 245.8944 
z
" clip-path="url(#pb076c58d31)" style="fill: none; stroke: #1f77b4; stroke-width: 1.8; stroke-linejoin: miter"/>
   </g>
   <g id="patch_4">
    <path d="M 166.464 245.8944 
L 210.816 245.8944 
Q 215.6544 245.8944 215.6544 241.056 
L 215.6544 214.848 
Q 215.6544 210.0096 210.816 210.0096 
L 166.464 210.0096 
Q 161.6256 210.0096 161.6256 214.848 
L 161.6256 241.056 
Q 161.6256 245.8944 166.464 245.8944 
z
" clip-path="url(#pb076c58d31)" style="fill: #2ca02c; opacity: 0.12; stroke: #2ca02c; stroke-width: 1.8; stroke-linejoin: miter"/>
   </g>
   <g id="patch_5">
    <path d="M 166.464 245.8944 
L 210.816 245.8944 
Q 215.6544 245.8944 215.6544 241.056 
L 215.6544 214.848 
Q 215.6544 210.0096 210.816 210.0096 
L 166.464 210.0096 
Q 161.6256 210.0096 161.6256 214.848 
L 161.6256 241.056 
Q 161.6256 245.8944 166.464 245.8944 
L 166.464 245.8944 
z
" clip-path="url(#pb076c58d31)" style="fill: none; stroke: #2ca02c; stroke-width: 1.8; stroke-linejoin: miter"/>
   </g>
   <g id="patch_6">
    <path d="M 311.616 245.8944 
L 355.968 245.8944 
Q 360.8064 245.8944 360.8064 241.056 
L 360.8064 214.848 
Q 360.8064 210.0096 355.968 210.0096 
L 311.616 210.0096 
Q 306.7776 210.0096 306.7776 214.848 
L 306.7776 241.056 
Q 306.7776 245.8944 311.616 245.8944 
z
" clip-path="url(#pb076c58d31)" style="fill: #ff7f0e; opacity: 0.12; stroke: #ff7f0e; stroke-width: 1.8; stroke-linejoin: miter"/>
   </g>
   <g id="patch_7">
    <path d="M 311.616 245.8944 
L 355.968 245.8944 
Q 360.8064 245.8944 360.8064 241.056 
L 360.8064 214.848 
Q 360.8064 210.0096 355.968 210.0096 
L 311.616 210.0096 
Q 306.7776 210.0096 306.7776 214.848 
L 306.7776 241.056 
Q 306.7776 245.8944 311.616 245.8944 
L 311.616 245.8944 
z
" clip-path="url(#pb076c58d31)" style="fill: none; stroke: #ff7f0e; stroke-width: 1.8; stroke-linejoin: miter"/>
   </g>
   <g id="patch_8">
    <path d="M 21.312 161.2224 
L 65.664 161.2224 
Q 70.5024 161.2224 70.5024 156.384 
L 70.5024 130.176 
Q 70.5024 125.3376 65.664 125.3376 
L 21.312 125.3376 
Q 16.4736 125.3376 16.4736 130.176 
L 16.4736 156.384 
Q 16.4736 161.2224 21.312 161.2224 
z
" clip-path="url(#pb076c58d31)" style="fill: #1f77b4; opacity: 0.12; stroke: #1f77b4; stroke-width: 1.8; stroke-linejoin: miter"/>
   </g>
   <g id="patch_9">
    <path d="M 21.312 161.2224 
L 65.664 161.2224 
Q 70.5024 161.2224 70.5024 156.384 
L 70.5024 130.176 
Q 70.5024 125.3376 65.664 125.3376 
L 21.312 125.3376 
Q 16.4736 125.3376 16.4736 130.176 
L 16.4736 156.384 
Q 16.4736 161.2224 21.312 161.2224 
L 21.312 161.2224 
z
" clip-path="url(#pb076c58d31)" style="fill: none; stroke: #1f77b4; stroke-width: 1.8; stroke-linejoin: miter"/>
   </g>
   <g id="patch_10">
    <path d="M 166.464 161.2224 
L 210.816 161.2224 
Q 215.6544 161.2224 215.6544 156.384 
L 215.6544 130.176 
Q 215.6544 125.3376 210.816 125.3376 
L 166.464 125.3376 
Q 161.6256 125.3376 161.6256 130.176 
L 161.6256 156.384 
Q 161.6256 161.2224 166.464 161.2224 
z
" clip-path="url(#pb076c58d31)" style="fill: #2ca02c; opacity: 0.12; stroke: #2ca02c; stroke-width: 1.8; stroke-linejoin: miter"/>
   </g>
   <g id="patch_11">
    <path d="M 166.464 161.2224 
L 210.816 161.2224 
Q 215.6544 161.2224 215.6544 156.384 
L 215.6544 130.176 
Q 215.6544 125.3376 210.816 125.3376 
L 166.464 125.3376 
Q 161.6256 125.3376 161.6256 130.176 
L 161.6256 156.384 
Q 161.6256 161.2224 166.464 161.2224 
L 166.464 161.2224 
z
" clip-path="url(#pb076c58d31)" style="fill: none; stroke: #2ca02c; stroke-width: 1.8; stroke-linejoin: miter"/>
   </g>
   <g id="patch_12">
    <path d="M 311.616 161.2224 
L 355.968 161.2224 
Q 360.8064 161.2224 360.8064 156.384 
L 360.8064 130.176 
Q 360.8064 125.3376 355.968 125.3376 
L 311.616 125.3376 
Q 306.7776 125.3376 306.7776 130.176 
L 306.7776 156.384 
Q 306.7776 161.2224 311.616 161.2224 
z
" clip-path="url(#pb076c58d31)" style="fill: #ff7f0e; opacity: 0.12; stroke: #ff7f0e; stroke-width: 1.8; stroke-linejoin: miter"/>
   </g>
   <g id="patch_13">
    <path d="M 311.616 161.2224 
L 355.968 161.2224 
Q 360.8064 161.2224 360.8064 156.384 
L 360.8064 130.176 
Q 360.8064 125.3376 355.968 125.3376 
L 311.616 125.3376 
Q 306.7776 125.3376 306.7776 130.176 
L 306.7776 156.384 
Q 306.7776 161.2224 311.616 161.2224 
L 311.616 161.2224 
z
" clip-path="url(#pb076c58d31)" style="fill: none; stroke: #ff7f0e; stroke-width: 1.8; stroke-linejoin: miter"/>
   </g>
   <g id="patch_14">
    <path d="M 21.312 76.5504 
L 65.664 76.5504 
Q 70.5024 76.5504 70.5024 71.712 
L 70.5024 45.504 
Q 70.5024 40.6656 65.664 40.6656 
L 21.312 40.6656 
Q 16.4736 40.6656 16.4736 45.504 
L 16.4736 71.712 
Q 16.4736 76.5504 21.312 76.5504 
z
" clip-path="url(#pb076c58d31)" style="fill: #1f77b4; opacity: 0.12; stroke: #1f77b4; stroke-width: 1.8; stroke-linejoin: miter"/>
   </g>
   <g id="patch_15">
    <path d="M 21.312 76.5504 
L 65.664 76.5504 
Q 70.5024 76.5504 70.5024 71.712 
L 70.5024 45.504 
Q 70.5024 40.6656 65.664 40.6656 
L 21.312 40.6656 
Q 16.4736 40.6656 16.4736 45.504 
L 16.4736 71.712 
Q 16.4736 76.5504 21.312 76.5504 
L 21.312 76.5504 
z
" clip-path="url(#pb076c58d31)" style="fill: none; stroke: #1f77b4; stroke-width: 1.8; stroke-linejoin: miter"/>
   </g>
   <g id="patch_16">
    <path d="M 166.464 76.5504 
L 210.816 76.5504 
Q 215.6544 76.5504 215.6544 71.712 
L 215.6544 45.504 
Q 215.6544 40.6656 210.816 40.6656 
L 166.464 40.6656 
Q 161.6256 40.6656 161.6256 45.504 
L 161.6256 71.712 
Q 161.6256 76.5504 166.464 76.5504 
z
" clip-path="url(#pb076c58d31)" style="fill: #2ca02c; opacity: 0.12; stroke: #2ca02c; stroke-width: 1.8; stroke-linejoin: miter"/>
   </g>
   <g id="patch_17">
    <path d="M 166.464 76.5504 
L 210.816 76.5504 
Q 215.6544 76.5504 215.6544 71.712 
L 215.6544 45.504 
Q 215.6544 40.6656 210.816 40.6656 
L 166.464 40.6656 
Q 161.6256 40.6656 161.6256 45.504 
L 161.6256 71.712 
Q 161.6256 76.5504 166.464 76.5504 
L 166.464 76.5504 
z
" clip-path="url(#pb076c58d31)" style="fill: none; stroke: #2ca02c; stroke-width: 1.8; stroke-linejoin: miter"/>
   </g>
   <g id="patch_18">
    <path d="M 311.616 76.5504 
L 355.968 76.5504 
Q 360.8064 76.5504 360.8064 71.712 
L 360.8064 45.504 
Q 360.8064 40.6656 355.968 40.6656 
L 311.616 40.6656 
Q 306.7776 40.6656 306.7776 45.504 
L 306.7776 71.712 
Q 306.7776 76.5504 311.616 76.5504 
z
" clip-path="url(#pb076c58d31)" style="fill: #ff7f0e; opacity: 0.12; stroke: #ff7f0e; stroke-width: 1.8; stroke-linejoin: miter"/>
   </g>
   <g id="patch_19">
    <path d="M 311.616 76.5504 
L 355.968 76.5504 
Q 360.8064 76.5504 360.8064 71.712 
L 360.8064 45.504 
Q 360.8064 40.6656 355.968 40.6656 
L 311.616 40.6656 
Q 306.7776 40.6656 306.7776 45.504 
L 306.7776 71.712 
Q 306.7776 76.5504 311.616 76.5504 
L 311.616 76.5504 
z
" clip-path="url(#pb076c58d31)" style="fill: none; stroke: #ff7f0e; stroke-width: 1.8; stroke-linejoin: miter"/>
   </g>
   <g id="patch_20">
    <path d="M 448.704 161.2224 
L 493.056 161.2224 
Q 497.8944 161.2224 497.8944 156.384 
L 497.8944 130.176 
Q 497.8944 125.3376 493.056 125.3376 
L 448.704 125.3376 
Q 443.8656 125.3376 443.8656 130.176 
L 443.8656 156.384 
Q 443.8656 161.2224 448.704 161.2224 
z
" clip-path="url(#pb076c58d31)" style="fill: #7f7f7f; opacity: 0.12; stroke: #7f7f7f; stroke-width: 1.8; stroke-linejoin: miter"/>
   </g>
   <g id="patch_21">
    <path d="M 448.704 161.2224 
L 493.056 161.2224 
Q 497.8944 161.2224 497.8944 156.384 
L 497.8944 130.176 
Q 497.8944 125.3376 493.056 125.3376 
L 448.704 125.3376 
Q 443.8656 125.3376 443.8656 130.176 
L 443.8656 156.384 
Q 443.8656 161.2224 448.704 161.2224 
L 448.704 161.2224 
z
" clip-path="url(#pb076c58d31)" style="fill: none; stroke: #7f7f7f; stroke-width: 1.8; stroke-linejoin: miter"/>
   </g>
   <g id="patch_22">
    <path d="M 172.512 332.5824 
L 204.768 332.5824 
Q 209.6064 332.5824 209.6064 327.744 
L 209.6064 301.536 
Q 209.6064 296.6976 204.768 296.6976 
L 172.512 296.6976 
Q 167.6736 296.6976 167.6736 301.536 
L 167.6736 327.744 
Q 167.6736 332.5824 172.512 332.5824 
z
" clip-path="url(#pb076c58d31)" style="fill: #2ca02c; opacity: 0.12; stroke: #2ca02c; stroke-width: 1.8; stroke-linejoin: miter"/>
   </g>
   <g id="patch_23">
    <path d="M 172.512 332.5824 
L 204.768 332.5824 
Q 209.6064 332.5824 209.6064 327.744 
L 209.6064 301.536 
Q 209.6064 296.6976 204.768 296.6976 
L 172.512 296.6976 
Q 167.6736 296.6976 167.6736 301.536 
L 167.6736 327.744 
Q 167.6736 332.5824 172.512 332.5824 
L 172.512 332.5824 
z
" clip-path="url(#pb076c58d31)" style="fill: none; stroke: #2ca02c; stroke-width: 1.8; stroke-linejoin: miter"/>
   </g>
   <g id="text_1">
    <!-- inputs -->
    <g transform="translate(23.382688 22.883188) scale(0.13 -0.13)">
     <defs>
      <path id="DejaVuSans-69" d="M 603 3500 
L 1178 3500 
L 1178 0 
L 603 0 
L 603 3500 
z
M 603 4863 
L 1178 4863 
L 1178 4134 
L 603 4134 
L 603 4863 
z
" transform="scale(0.015625)"/>
      <path id="DejaVuSans-6e" d="M 3513 2113 
L 3513 0 
L 2938 0 
L 2938 2094 
Q 2938 2591 2744 2837 
Q 2550 3084 2163 3084 
Q 1697 3084 1428 2787 
Q 1159 2491 1159 1978 
L 1159 0 
L 581 0 
L 581 3500 
L 1159 3500 
L 1159 2956 
Q 1366 3272 1645 3428 
Q 1925 3584 2291 3584 
Q 2894 3584 3203 3211 
Q 3513 2838 3513 2113 
z
" transform="scale(0.015625)"/>
      <path id="DejaVuSans-70" d="M 1159 525 
L 1159 -1331 
L 581 -1331 
L 581 3500 
L 1159 3500 
L 1159 2969 
Q 1341 3281 1617 3432 
Q 1894 3584 2278 3584 
Q 2916 3584 3314 3078 
Q 3713 2572 3713 1747 
Q 3713 922 3314 415 
Q 2916 -91 2278 -91 
Q 1894 -91 1617 61 
Q 1341 213 1159 525 
z
M 3116 1747 
Q 3116 2381 2855 2742 
Q 2594 3103 2138 3103 
Q 1681 3103 1420 2742 
Q 1159 2381 1159 1747 
Q 1159 1113 1420 752 
Q 1681 391 2138 391 
Q 2594 391 2855 752 
Q 3116 1113 3116 1747 
z
" transform="scale(0.015625)"/>
      <path id="DejaVuSans-75" d="M 544 1381 
L 544 3500 
L 1119 3500 
L 1119 1403 
Q 1119 906 1312 657 
Q 1506 409 1894 409 
Q 2359 409 2629 706 
Q 2900 1003 2900 1516 
L 2900 3500 
L 3475 3500 
L 3475 0 
L 2900 0 
L 2900 538 
Q 2691 219 2414 64 
Q 2138 -91 1772 -91 
Q 1169 -91 856 284 
Q 544 659 544 1381 
z
M 1991 3584 
L 1991 3584 
z
" transform="scale(0.015625)"/>
      <path id="DejaVuSans-74" d="M 1172 4494 
L 1172 3500 
L 2356 3500 
L 2356 3053 
L 1172 3053 
L 1172 1153 
Q 1172 725 1289 603 
Q 1406 481 1766 481 
L 2356 481 
L 2356 0 
L 1766 0 
Q 1100 0 847 248 
Q 594 497 594 1153 
L 594 3053 
L 172 3053 
L 172 3500 
L 594 3500 
L 594 4494 
L 1172 4494 
z
" transform="scale(0.015625)"/>
      <path id="DejaVuSans-73" d="M 2834 3397 
L 2834 2853 
Q 2591 2978 2328 3040 
Q 2066 3103 1784 3103 
Q 1356 3103 1142 2972 
Q 928 2841 928 2578 
Q 928 2378 1081 2264 
Q 1234 2150 1697 2047 
L 1894 2003 
Q 2506 1872 2764 1633 
Q 3022 1394 3022 966 
Q 3022 478 2636 193 
Q 2250 -91 1575 -91 
Q 1294 -91 989 -36 
Q 684 19 347 128 
L 347 722 
Q 666 556 975 473 
Q 1284 391 1588 391 
Q 1994 391 2212 530 
Q 2431 669 2431 922 
Q 2431 1156 2273 1281 
Q 2116 1406 1581 1522 
L 1381 1569 
Q 847 1681 609 1914 
Q 372 2147 372 2553 
Q 372 3047 722 3315 
Q 1072 3584 1716 3584 
Q 2034 3584 2315 3537 
Q 2597 3491 2834 3397 
z
" transform="scale(0.015625)"/>
     </defs>
     <use xlink:href="#DejaVuSans-69"/>
     <use xlink:href="#DejaVuSans-6e" transform="translate(27.783203 0)"/>
     <use xlink:href="#DejaVuSans-70" transform="translate(91.162109 0)"/>
     <use xlink:href="#DejaVuSans-75" transform="translate(154.638672 0)"/>
     <use xlink:href="#DejaVuSans-74" transform="translate(218.017578 0)"/>
     <use xlink:href="#DejaVuSans-73" transform="translate(257.226562 0)"/>
    </g>
   </g>
   <g id="text_2">
    <!-- hidden state -->
    <g transform="translate(147.811875 22.883188) scale(0.13 -0.13)">
     <defs>
      <path id="DejaVuSans-68" d="M 3513 2113 
L 3513 0 
L 2938 0 
L 2938 2094 
Q 2938 2591 2744 2837 
Q 2550 3084 2163 3084 
Q 1697 3084 1428 2787 
Q 1159 2491 1159 1978 
L 1159 0 
L 581 0 
L 581 4863 
L 1159 4863 
L 1159 2956 
Q 1366 3272 1645 3428 
Q 1925 3584 2291 3584 
Q 2894 3584 3203 3211 
Q 3513 2838 3513 2113 
z
" transform="scale(0.015625)"/>
      <path id="DejaVuSans-64" d="M 2906 2969 
L 2906 4863 
L 3481 4863 
L 3481 0 
L 2906 0 
L 2906 525 
Q 2725 213 2448 61 
Q 2172 -91 1784 -91 
Q 1150 -91 751 415 
Q 353 922 353 1747 
Q 353 2572 751 3078 
Q 1150 3584 1784 3584 
Q 2172 3584 2448 3432 
Q 2725 3281 2906 2969 
z
M 947 1747 
Q 947 1113 1208 752 
Q 1469 391 1925 391 
Q 2381 391 2643 752 
Q 2906 1113 2906 1747 
Q 2906 2381 2643 2742 
Q 2381 3103 1925 3103 
Q 1469 3103 1208 2742 
Q 947 2381 947 1747 
z
" transform="scale(0.015625)"/>
      <path id="DejaVuSans-65" d="M 3597 1894 
L 3597 1613 
L 953 1613 
Q 991 1019 1311 708 
Q 1631 397 2203 397 
Q 2534 397 2845 478 
Q 3156 559 3463 722 
L 3463 178 
Q 3153 47 2828 -22 
Q 2503 -91 2169 -91 
Q 1331 -91 842 396 
Q 353 884 353 1716 
Q 353 2575 817 3079 
Q 1281 3584 2069 3584 
Q 2775 3584 3186 3129 
Q 3597 2675 3597 1894 
z
M 3022 2063 
Q 3016 2534 2758 2815 
Q 2500 3097 2075 3097 
Q 1594 3097 1305 2825 
Q 1016 2553 972 2059 
L 3022 2063 
z
" transform="scale(0.015625)"/>
      <path id="DejaVuSans-20" transform="scale(0.015625)"/>
      <path id="DejaVuSans-61" d="M 2194 1759 
Q 1497 1759 1228 1600 
Q 959 1441 959 1056 
Q 959 750 1161 570 
Q 1363 391 1709 391 
Q 2188 391 2477 730 
Q 2766 1069 2766 1631 
L 2766 1759 
L 2194 1759 
z
M 3341 1997 
L 3341 0 
L 2766 0 
L 2766 531 
Q 2569 213 2275 61 
Q 1981 -91 1556 -91 
Q 1019 -91 701 211 
Q 384 513 384 1019 
Q 384 1609 779 1909 
Q 1175 2209 1959 2209 
L 2766 2209 
L 2766 2266 
Q 2766 2663 2505 2880 
Q 2244 3097 1772 3097 
Q 1472 3097 1187 3025 
Q 903 2953 641 2809 
L 641 3341 
Q 956 3463 1253 3523 
Q 1550 3584 1831 3584 
Q 2591 3584 2966 3190 
Q 3341 2797 3341 1997 
z
" transform="scale(0.015625)"/>
     </defs>
     <use xlink:href="#DejaVuSans-68"/>
     <use xlink:href="#DejaVuSans-69" transform="translate(63.378906 0)"/>
     <use xlink:href="#DejaVuSans-64" transform="translate(91.162109 0)"/>
     <use xlink:href="#DejaVuSans-64" transform="translate(154.638672 0)"/>
     <use xlink:href="#DejaVuSans-65" transform="translate(218.115234 0)"/>
     <use xlink:href="#DejaVuSans-6e" transform="translate(279.638672 0)"/>
     <use xlink:href="#DejaVuSans-20" transform="translate(343.017578 0)"/>
     <use xlink:href="#DejaVuSans-73" transform="translate(374.804688 0)"/>
     <use xlink:href="#DejaVuSans-74" transform="translate(426.904297 0)"/>
     <use xlink:href="#DejaVuSans-61" transform="translate(466.113281 0)"/>
     <use xlink:href="#DejaVuSans-74" transform="translate(527.392578 0)"/>
     <use xlink:href="#DejaVuSans-65" transform="translate(566.601562 0)"/>
    </g>
   </g>
   <g id="text_3">
    <!-- outputs -->
    <g transform="translate(308.967078 22.883188) scale(0.13 -0.13)">
     <defs>
      <path id="DejaVuSans-6f" d="M 1959 3097 
Q 1497 3097 1228 2736 
Q 959 2375 959 1747 
Q 959 1119 1226 758 
Q 1494 397 1959 397 
Q 2419 397 2687 759 
Q 2956 1122 2956 1747 
Q 2956 2369 2687 2733 
Q 2419 3097 1959 3097 
z
M 1959 3584 
Q 2709 3584 3137 3096 
Q 3566 2609 3566 1747 
Q 3566 888 3137 398 
Q 2709 -91 1959 -91 
Q 1206 -91 779 398 
Q 353 888 353 1747 
Q 353 2609 779 3096 
Q 1206 3584 1959 3584 
z
" transform="scale(0.015625)"/>
     </defs>
     <use xlink:href="#DejaVuSans-6f"/>
     <use xlink:href="#DejaVuSans-75" transform="translate(61.181641 0)"/>
     <use xlink:href="#DejaVuSans-74" transform="translate(124.560547 0)"/>
     <use xlink:href="#DejaVuSans-70" transform="translate(163.769531 0)"/>
     <use xlink:href="#DejaVuSans-75" transform="translate(227.246094 0)"/>
     <use xlink:href="#DejaVuSans-74" transform="translate(290.625 0)"/>
     <use xlink:href="#DejaVuSans-73" transform="translate(329.833984 0)"/>
    </g>
   </g>
   <g id="text_4">
    <!-- loss -->
    <g transform="translate(458.324844 22.883188) scale(0.13 -0.13)">
     <defs>
      <path id="DejaVuSans-6c" d="M 603 4863 
L 1178 4863 
L 1178 0 
L 603 0 
L 603 4863 
z
" transform="scale(0.015625)"/>
     </defs>
     <use xlink:href="#DejaVuSans-6c"/>
     <use xlink:href="#DejaVuSans-6f" transform="translate(27.783203 0)"/>
     <use xlink:href="#DejaVuSans-73" transform="translate(88.964844 0)"/>
     <use xlink:href="#DejaVuSans-73" transform="translate(141.064453 0)"/>
    </g>
   </g>
   <g id="text_5">
    <!-- $\mathbf{X}_{1}$ -->
    <g transform="translate(34.338 232.091062) scale(0.15 -0.15)">
     <defs>
      <path id="Cmb10-58" d="M 184 0 
L 184 325 
Q 856 325 909 384 
L 2009 2106 
L 825 4063 
L 269 4063 
L 269 4391 
L 2291 4391 
L 2291 4063 
L 1838 4063 
L 2528 2919 
L 3225 4013 
Q 3225 4028 3158 4036 
Q 3091 4044 3053 4044 
Q 2872 4063 2688 4063 
L 2688 4391 
L 4384 4391 
L 4384 4063 
Q 4159 4063 3925 4053 
Q 3691 4044 3653 4006 
L 2741 2572 
L 4091 325 
L 4653 325 
L 4653 0 
L 2625 0 
L 2625 325 
L 3084 325 
L 2222 1759 
L 1344 378 
Q 1344 369 1411 358 
Q 1478 347 1509 347 
Q 1681 325 1881 325 
L 1881 0 
L 184 0 
z
" transform="scale(0.015625)"/>
      <path id="Cmr10-31" d="M 594 0 
L 594 225 
Q 1394 225 1394 428 
L 1394 3788 
Q 1063 3628 556 3628 
L 556 3853 
Q 1341 3853 1741 4263 
L 1831 4263 
Q 1853 4263 1873 4245 
Q 1894 4228 1894 4206 
L 1894 428 
Q 1894 225 2694 225 
L 2694 0 
L 594 0 
z
" transform="scale(0.015625)"/>
     </defs>
     <use xlink:href="#Cmb10-58" transform="translate(0 0.390625)"/>
     <use xlink:href="#Cmr10-31" transform="translate(79.952422 -16.615625) scale(0.7)"/>
    </g>
   </g>
   <g id="text_6">
    <!-- $\mathbf{H}_{1}$ -->
    <g transform="translate(179.265 232.091062) scale(0.15 -0.15)">
     <defs>
      <path id="Cmb10-48" d="M 219 0 
L 219 325 
L 819 325 
L 819 4063 
L 219 4063 
L 219 4391 
L 2356 4391 
L 2356 4063 
L 1753 4063 
L 1753 2444 
L 3250 2444 
L 3250 4063 
L 2650 4063 
L 2650 4391 
L 4788 4391 
L 4788 4063 
L 4184 4063 
L 4184 325 
L 4788 325 
L 4788 0 
L 2650 0 
L 2650 325 
L 3250 325 
L 3250 2119 
L 1753 2119 
L 1753 325 
L 2356 325 
L 2356 0 
L 219 0 
z
" transform="scale(0.015625)"/>
     </defs>
     <use xlink:href="#Cmb10-48" transform="translate(0 0.390625)"/>
     <use xlink:href="#Cmr10-31" transform="translate(82.784453 -16.615625) scale(0.7)"/>
    </g>
   </g>
   <g id="text_7">
    <!-- $\mathbf{O}_{1}$ -->
    <g transform="translate(324.717 232.091062) scale(0.15 -0.15)">
     <defs>
      <path id="Cmb10-4f" d="M 2400 -72 
Q 1919 -72 1541 97 
Q 1163 266 894 577 
Q 625 888 492 1297 
Q 359 1706 359 2169 
Q 359 2803 593 3328 
Q 828 3853 1287 4156 
Q 1747 4459 2400 4459 
Q 3050 4459 3508 4156 
Q 3966 3853 4200 3328 
Q 4434 2803 4434 2169 
Q 4434 1534 4196 1025 
Q 3959 516 3496 222 
Q 3034 -72 2400 -72 
z
M 1600 769 
Q 1725 531 1937 378 
Q 2150 225 2400 225 
Q 2566 225 2720 298 
Q 2875 372 2997 495 
Q 3119 619 3194 769 
Q 3347 1081 3389 1422 
Q 3431 1763 3431 2284 
Q 3431 2763 3389 3077 
Q 3347 3391 3194 3675 
Q 3113 3825 2989 3937 
Q 2866 4050 2709 4114 
Q 2553 4178 2400 4178 
Q 2150 4178 1939 4039 
Q 1728 3900 1600 3675 
Q 1494 3488 1441 3252 
Q 1388 3016 1375 2808 
Q 1363 2600 1363 2284 
Q 1363 1938 1375 1711 
Q 1388 1484 1441 1229 
Q 1494 975 1600 769 
z
" transform="scale(0.015625)"/>
     </defs>
     <use xlink:href="#Cmb10-4f" transform="translate(0 0.328125)"/>
     <use xlink:href="#Cmr10-31" transform="translate(79.464141 -16.678125) scale(0.7)"/>
    </g>
   </g>
   <g id="patch_24">
    <path d="M 69.696 227.952 
Q 85.824 227.952 99.827735 227.952 
" style="fill: none; stroke: #7f7f7f; stroke-width: 1.9; stroke-linecap: round"/>
    <path d="M 93.827735 224.952 
L 99.827735 227.952 
L 93.827735 230.952 
" style="fill: none; stroke: #7f7f7f; stroke-width: 1.9; stroke-linecap: round"/>
   </g>
   <g id="patch_25">
    <path d="M 130.176 227.952 
Q 146.304 227.952 160.307735 227.952 
" style="fill: none; stroke: #7f7f7f; stroke-width: 1.9; stroke-linecap: round"/>
    <path d="M 154.307735 224.952 
L 160.307735 227.952 
L 154.307735 230.952 
" style="fill: none; stroke: #7f7f7f; stroke-width: 1.9; stroke-linecap: round"/>
   </g>
   <g id="patch_26">
    <path d="M 214.848 227.952 
Q 230.976 227.952 244.979735 227.952 
" style="fill: none; stroke: #7f7f7f; stroke-width: 1.9; stroke-linecap: round"/>
    <path d="M 238.979735 224.952 
L 244.979735 227.952 
L 238.979735 230.952 
" style="fill: none; stroke: #7f7f7f; stroke-width: 1.9; stroke-linecap: round"/>
   </g>
   <g id="patch_27">
    <path d="M 275.328 227.952 
Q 291.456 227.952 305.459735 227.952 
" style="fill: none; stroke: #7f7f7f; stroke-width: 1.9; stroke-linecap: round"/>
    <path d="M 299.459735 224.952 
L 305.459735 227.952 
L 299.459735 230.952 
" style="fill: none; stroke: #7f7f7f; stroke-width: 1.9; stroke-linecap: round"/>
   </g>
   <g id="patch_28">
    <path d="M 360 227.952 
Q 382.494042 191.615471 403.869967 157.08513 
" style="fill: none; stroke: #7f7f7f; stroke-width: 1.9; stroke-linecap: round"/>
    <path d="M 398.161044 160.607657 
L 403.869967 157.08513 
L 403.262635 163.765785 
" style="fill: none; stroke: #7f7f7f; stroke-width: 1.9; stroke-linecap: round"/>
   </g>
   <g id="text_8">
    <!-- $\mathbf{X}_{2}$ -->
    <g transform="translate(34.338 147.419062) scale(0.15 -0.15)">
     <defs>
      <path id="Cmr10-32" d="M 319 0 
L 319 172 
Q 319 188 331 206 
L 1325 1306 
Q 1550 1550 1690 1715 
Q 1831 1881 1968 2097 
Q 2106 2313 2186 2536 
Q 2266 2759 2266 3009 
Q 2266 3272 2169 3511 
Q 2072 3750 1880 3894 
Q 1688 4038 1416 4038 
Q 1138 4038 916 3870 
Q 694 3703 603 3438 
Q 628 3444 672 3444 
Q 816 3444 917 3347 
Q 1019 3250 1019 3097 
Q 1019 2950 917 2848 
Q 816 2747 672 2747 
Q 522 2747 420 2851 
Q 319 2956 319 3097 
Q 319 3338 409 3548 
Q 500 3759 670 3923 
Q 841 4088 1055 4175 
Q 1269 4263 1509 4263 
Q 1875 4263 2190 4108 
Q 2506 3953 2690 3670 
Q 2875 3388 2875 3009 
Q 2875 2731 2753 2481 
Q 2631 2231 2440 2026 
Q 2250 1822 1953 1562 
Q 1656 1303 1563 1216 
L 838 519 
L 1453 519 
Q 1906 519 2211 526 
Q 2516 534 2534 550 
Q 2609 631 2688 1141 
L 2875 1141 
L 2694 0 
L 319 0 
z
" transform="scale(0.015625)"/>
     </defs>
     <use xlink:href="#Cmb10-58" transform="translate(0 0.390625)"/>
     <use xlink:href="#Cmr10-32" transform="translate(79.952422 -16.615625) scale(0.7)"/>
    </g>
   </g>
   <g id="text_9">
    <!-- $\mathbf{H}_{2}$ -->
    <g transform="translate(179.265 147.419062) scale(0.15 -0.15)">
     <use xlink:href="#Cmb10-48" transform="translate(0 0.390625)"/>
     <use xlink:href="#Cmr10-32" transform="translate(82.784453 -16.615625) scale(0.7)"/>
    </g>
   </g>
   <g id="text_10">
    <!-- $\mathbf{O}_{2}$ -->
    <g transform="translate(324.717 147.419062) scale(0.15 -0.15)">
     <use xlink:href="#Cmb10-4f" transform="translate(0 0.328125)"/>
     <use xlink:href="#Cmr10-32" transform="translate(79.464141 -16.678125) scale(0.7)"/>
    </g>
   </g>
   <g id="patch_29">
    <path d="M 69.696 143.28 
Q 85.824 143.28 99.827735 143.28 
" style="fill: none; stroke: #7f7f7f; stroke-width: 1.9; stroke-linecap: round"/>
    <path d="M 93.827735 140.28 
L 99.827735 143.28 
L 93.827735 146.28 
" style="fill: none; stroke: #7f7f7f; stroke-width: 1.9; stroke-linecap: round"/>
   </g>
   <g id="patch_30">
    <path d="M 130.176 143.28 
Q 146.304 143.28 160.307735 143.28 
" style="fill: none; stroke: #7f7f7f; stroke-width: 1.9; stroke-linecap: round"/>
    <path d="M 154.307735 140.28 
L 160.307735 143.28 
L 154.307735 146.28 
" style="fill: none; stroke: #7f7f7f; stroke-width: 1.9; stroke-linecap: round"/>
   </g>
   <g id="patch_31">
    <path d="M 214.848 143.28 
Q 230.976 143.28 244.979735 143.28 
" style="fill: none; stroke: #7f7f7f; stroke-width: 1.9; stroke-linecap: round"/>
    <path d="M 238.979735 140.28 
L 244.979735 143.28 
L 238.979735 146.28 
" style="fill: none; stroke: #7f7f7f; stroke-width: 1.9; stroke-linecap: round"/>
   </g>
   <g id="patch_32">
    <path d="M 275.328 143.28 
Q 291.456 143.28 305.459735 143.28 
" style="fill: none; stroke: #7f7f7f; stroke-width: 1.9; stroke-linecap: round"/>
    <path d="M 299.459735 140.28 
L 305.459735 143.28 
L 299.459735 146.28 
" style="fill: none; stroke: #7f7f7f; stroke-width: 1.9; stroke-linecap: round"/>
   </g>
   <g id="patch_33">
    <path d="M 360 143.28 
Q 379.152 143.28 396.179735 143.28 
" style="fill: none; stroke: #7f7f7f; stroke-width: 1.9; stroke-linecap: round"/>
    <path d="M 390.179735 140.28 
L 396.179735 143.28 
L 390.179735 146.28 
" style="fill: none; stroke: #7f7f7f; stroke-width: 1.9; stroke-linecap: round"/>
   </g>
   <g id="text_11">
    <!-- $\mathbf{X}_{3}$ -->
    <g transform="translate(34.338 62.747062) scale(0.15 -0.15)">
     <defs>
      <path id="Cmr10-33" d="M 609 494 
Q 759 275 1012 169 
Q 1266 63 1556 63 
Q 1928 63 2084 380 
Q 2241 697 2241 1100 
Q 2241 1281 2208 1462 
Q 2175 1644 2097 1800 
Q 2019 1956 1883 2050 
Q 1747 2144 1550 2144 
L 1125 2144 
Q 1069 2144 1069 2203 
L 1069 2259 
Q 1069 2309 1125 2309 
L 1478 2338 
Q 1703 2338 1851 2506 
Q 2000 2675 2069 2917 
Q 2138 3159 2138 3378 
Q 2138 3684 1994 3881 
Q 1850 4078 1556 4078 
Q 1313 4078 1091 3986 
Q 869 3894 738 3706 
Q 750 3709 759 3711 
Q 769 3713 781 3713 
Q 925 3713 1022 3613 
Q 1119 3513 1119 3372 
Q 1119 3234 1022 3134 
Q 925 3034 781 3034 
Q 641 3034 541 3134 
Q 441 3234 441 3372 
Q 441 3647 606 3850 
Q 772 4053 1033 4158 
Q 1294 4263 1556 4263 
Q 1750 4263 1965 4205 
Q 2181 4147 2356 4039 
Q 2531 3931 2642 3762 
Q 2753 3594 2753 3378 
Q 2753 3109 2633 2881 
Q 2513 2653 2303 2487 
Q 2094 2322 1844 2241 
Q 2122 2188 2372 2031 
Q 2622 1875 2773 1631 
Q 2925 1388 2925 1106 
Q 2925 753 2731 467 
Q 2538 181 2222 20 
Q 1906 -141 1556 -141 
Q 1256 -141 954 -26 
Q 653 88 461 316 
Q 269 544 269 863 
Q 269 1022 375 1128 
Q 481 1234 641 1234 
Q 744 1234 830 1186 
Q 916 1138 964 1050 
Q 1013 963 1013 863 
Q 1013 706 903 600 
Q 794 494 641 494 
L 609 494 
z
" transform="scale(0.015625)"/>
     </defs>
     <use xlink:href="#Cmb10-58" transform="translate(0 0.390625)"/>
     <use xlink:href="#Cmr10-33" transform="translate(79.952422 -16.615625) scale(0.7)"/>
    </g>
   </g>
   <g id="text_12">
    <!-- $\mathbf{H}_{3}$ -->
    <g transform="translate(179.265 62.747062) scale(0.15 -0.15)">
     <use xlink:href="#Cmb10-48" transform="translate(0 0.390625)"/>
     <use xlink:href="#Cmr10-33" transform="translate(82.784453 -16.615625) scale(0.7)"/>
    </g>
   </g>
   <g id="text_13">
    <!-- $\mathbf{O}_{3}$ -->
    <g transform="translate(324.717 62.747062) scale(0.15 -0.15)">
     <use xlink:href="#Cmb10-4f" transform="translate(0 0.328125)"/>
     <use xlink:href="#Cmr10-33" transform="translate(79.464141 -16.678125) scale(0.7)"/>
    </g>
   </g>
   <g id="patch_34">
    <path d="M 69.696 58.608 
Q 85.824 58.608 99.827735 58.608 
" style="fill: none; stroke: #7f7f7f; stroke-width: 1.9; stroke-linecap: round"/>
    <path d="M 93.827735 55.608 
L 99.827735 58.608 
L 93.827735 61.608 
" style="fill: none; stroke: #7f7f7f; stroke-width: 1.9; stroke-linecap: round"/>
   </g>
   <g id="patch_35">
    <path d="M 130.176 58.608 
Q 146.304 58.608 160.307735 58.608 
" style="fill: none; stroke: #7f7f7f; stroke-width: 1.9; stroke-linecap: round"/>
    <path d="M 154.307735 55.608 
L 160.307735 58.608 
L 154.307735 61.608 
" style="fill: none; stroke: #7f7f7f; stroke-width: 1.9; stroke-linecap: round"/>
   </g>
   <g id="patch_36">
    <path d="M 214.848 58.608 
Q 230.976 58.608 244.979735 58.608 
" style="fill: none; stroke: #7f7f7f; stroke-width: 1.9; stroke-linecap: round"/>
    <path d="M 238.979735 55.608 
L 244.979735 58.608 
L 238.979735 61.608 
" style="fill: none; stroke: #7f7f7f; stroke-width: 1.9; stroke-linecap: round"/>
   </g>
   <g id="patch_37">
    <path d="M 275.328 58.608 
Q 291.456 58.608 305.459735 58.608 
" style="fill: none; stroke: #7f7f7f; stroke-width: 1.9; stroke-linecap: round"/>
    <path d="M 299.459735 55.608 
L 305.459735 58.608 
L 299.459735 61.608 
" style="fill: none; stroke: #7f7f7f; stroke-width: 1.9; stroke-linecap: round"/>
   </g>
   <g id="patch_38">
    <path d="M 360 58.608 
Q 382.494042 94.944529 403.869967 129.47487 
" style="fill: none; stroke: #7f7f7f; stroke-width: 1.9; stroke-linecap: round"/>
    <path d="M 403.262635 122.794215 
L 403.869967 129.47487 
L 398.161044 125.952343 
" style="fill: none; stroke: #7f7f7f; stroke-width: 1.9; stroke-linecap: round"/>
   </g>
   <g id="text_14">
    <!-- $L$ -->
    <g transform="translate(465.705 147.419062) scale(0.15 -0.15)">
     <defs>
      <path id="Cmmi10-4c" d="M 300 0 
Q 238 0 238 84 
Q 241 100 250 139 
Q 259 178 276 201 
Q 294 225 319 225 
Q 709 225 863 269 
Q 947 297 984 441 
L 1863 3956 
Q 1875 4019 1875 4044 
Q 1875 4113 1797 4122 
Q 1678 4147 1338 4147 
Q 1275 4147 1275 4231 
Q 1297 4313 1309 4342 
Q 1322 4372 1381 4372 
L 3272 4372 
Q 3328 4372 3328 4288 
Q 3319 4222 3306 4184 
Q 3294 4147 3244 4147 
Q 2772 4147 2613 4116 
Q 2456 4088 2419 3928 
L 1544 416 
Q 1516 338 1516 275 
Q 1516 225 1734 225 
L 2328 225 
Q 2831 225 3143 425 
Q 3456 625 3606 876 
Q 3756 1128 3857 1398 
Q 3959 1669 4006 1678 
L 4063 1678 
Q 4128 1678 4128 1594 
L 3559 44 
Q 3550 0 3500 0 
L 300 0 
z
" transform="scale(0.015625)"/>
     </defs>
     <use xlink:href="#Cmmi10-4c" transform="translate(0 0.6875)"/>
    </g>
   </g>
   <g id="patch_39">
    <path d="M 426.528 143.28 
Q 435.6 143.28 442.547735 143.28 
" style="fill: none; stroke: #7f7f7f; stroke-width: 1.9; stroke-linecap: round"/>
    <path d="M 436.547735 140.28 
L 442.547735 143.28 
L 436.547735 146.28 
" style="fill: none; stroke: #7f7f7f; stroke-width: 1.9; stroke-linecap: round"/>
   </g>
   <g id="text_15">
    <!-- $\mathbf{H}_0$ -->
    <g transform="translate(179.265 318.779063) scale(0.15 -0.15)">
     <defs>
      <path id="Cmr10-30" d="M 1600 -141 
Q 816 -141 533 504 
Q 250 1150 250 2041 
Q 250 2597 351 3087 
Q 453 3578 754 3920 
Q 1056 4263 1600 4263 
Q 2022 4263 2290 4056 
Q 2559 3850 2700 3523 
Q 2841 3197 2892 2823 
Q 2944 2450 2944 2041 
Q 2944 1491 2842 1011 
Q 2741 531 2444 195 
Q 2147 -141 1600 -141 
z
M 1600 25 
Q 1956 25 2131 390 
Q 2306 756 2347 1200 
Q 2388 1644 2388 2144 
Q 2388 2625 2347 3031 
Q 2306 3438 2132 3767 
Q 1959 4097 1600 4097 
Q 1238 4097 1063 3765 
Q 888 3434 847 3029 
Q 806 2625 806 2144 
Q 806 1788 823 1472 
Q 841 1156 916 820 
Q 991 484 1158 254 
Q 1325 25 1600 25 
z
" transform="scale(0.015625)"/>
     </defs>
     <use xlink:href="#Cmb10-48" transform="translate(0 0.390625)"/>
     <use xlink:href="#Cmr10-30" transform="translate(82.784453 -16.615625) scale(0.7)"/>
    </g>
   </g>
   <g id="patch_40">
    <path d="M 176.544 297.504 
Q 160.358478 259.857296 126.948954 239.586897 
" style="fill: none; stroke: #7f7f7f; stroke-width: 1.7; stroke-linecap: round"/>
    <path d="M 130.284243 244.885562 
L 126.948954 239.586897 
L 133.189059 240.097865 
" style="fill: none; stroke: #7f7f7f; stroke-width: 1.7; stroke-linecap: round"/>
   </g>
   <g id="patch_41">
    <path d="M 176.544 210.816 
Q 160.134919 174.133873 127.117567 154.754829 
" style="fill: none; stroke: #7f7f7f; stroke-width: 1.7; stroke-linecap: round"/>
    <path d="M 130.529817 160.004262 
L 127.117567 154.754829 
L 133.364464 155.174688 
" style="fill: none; stroke: #7f7f7f; stroke-width: 1.7; stroke-linecap: round"/>
   </g>
   <g id="patch_42">
    <path d="M 176.544 126.144 
Q 160.134919 89.461873 127.117567 70.082829 
" style="fill: none; stroke: #7f7f7f; stroke-width: 1.7; stroke-linecap: round"/>
    <path d="M 130.529817 75.332262 
L 127.117567 70.082829 
L 133.364464 70.502688 
" style="fill: none; stroke: #7f7f7f; stroke-width: 1.7; stroke-linecap: round"/>
   </g>
   <g id="patch_43">
    <path d="M 78.768 332.5824 
L 153.36 332.5824 
Q 158.1984 332.5824 158.1984 327.744 
L 158.1984 301.536 
Q 158.1984 296.6976 153.36 296.6976 
L 78.768 296.6976 
Q 73.9296 296.6976 73.9296 301.536 
L 73.9296 327.744 
Q 73.9296 332.5824 78.768 332.5824 
z
" clip-path="url(#pb076c58d31)" style="fill: #7f7f7f; opacity: 0.32; stroke: #7f7f7f; stroke-width: 1.6; stroke-linejoin: miter"/>
   </g>
   <g id="patch_44">
    <path d="M 128.16 297.504 
Q 123.320983 269.679654 118.807628 243.727859 
" style="fill: none; stroke: #7f7f7f; stroke-width: 1.7; stroke-linecap: round"/>
    <path d="M 117.008545 249.7248 
L 118.807628 243.727859 
L 122.525731 248.765289 
" style="fill: none; stroke: #7f7f7f; stroke-width: 1.7; stroke-linecap: round"/>
   </g>
   <g id="patch_45">
    <path d="M 101.18592 297.504 
Q 121.96513 228.767692 114.900959 159.217717 
" style="fill: none; stroke: #7f7f7f; stroke-width: 1.7; stroke-linecap: round"/>
    <path d="M 112.68117 165.071992 
L 114.900959 159.217717 
L 118.252506 164.506113 
" style="fill: none; stroke: #7f7f7f; stroke-width: 1.7; stroke-linecap: round"/>
   </g>
   <g id="patch_46">
    <path d="M 83.0016 297.504 
Q 121.057217 188.15816 114.243116 74.484015 
" style="fill: none; stroke: #7f7f7f; stroke-width: 1.7; stroke-linecap: round"/>
    <path d="M 111.783218 80.241524 
L 114.243116 74.484015 
L 117.373184 79.906438 
" style="fill: none; stroke: #7f7f7f; stroke-width: 1.7; stroke-linecap: round"/>
   </g>
   <g id="patch_47">
    <path d="M 242.064 332.5824 
L 280.368 332.5824 
Q 285.2064 332.5824 285.2064 327.744 
L 285.2064 301.536 
Q 285.2064 296.6976 280.368 296.6976 
L 242.064 296.6976 
Q 237.2256 296.6976 237.2256 301.536 
L 237.2256 327.744 
Q 237.2256 332.5824 242.064 332.5824 
z
" clip-path="url(#pb076c58d31)" style="fill: #7f7f7f; opacity: 0.32; stroke: #7f7f7f; stroke-width: 1.6; stroke-linejoin: miter"/>
   </g>
   <g id="patch_48">
    <path d="M 273.312 297.504 
Q 268.472983 269.679654 263.959628 243.727859 
" style="fill: none; stroke: #7f7f7f; stroke-width: 1.7; stroke-linecap: round"/>
    <path d="M 262.160545 249.7248 
L 263.959628 243.727859 
L 267.677731 248.765289 
" style="fill: none; stroke: #7f7f7f; stroke-width: 1.7; stroke-linecap: round"/>
   </g>
   <g id="patch_49">
    <path d="M 252.86976 297.504 
Q 270.674846 228.196055 260.724898 159.252548 
" style="fill: none; stroke: #7f7f7f; stroke-width: 1.7; stroke-linecap: round"/>
    <path d="M 258.753517 165.195077 
L 260.724898 159.252548 
L 264.296093 164.395171 
" style="fill: none; stroke: #7f7f7f; stroke-width: 1.7; stroke-linecap: round"/>
   </g>
   <g id="patch_50">
    <path d="M 242.6688 297.504 
Q 273.87887 186.836318 260.351041 74.56467 
" style="fill: none; stroke: #7f7f7f; stroke-width: 1.7; stroke-linecap: round"/>
    <path d="M 258.241058 80.459411 
L 260.351041 74.56467 
L 263.800844 79.789502 
" style="fill: none; stroke: #7f7f7f; stroke-width: 1.7; stroke-linecap: round"/>
   </g>
   <g id="patch_51">
    <path d="M 116.064 242.064 
C 119.806546 242.064 123.396311 240.577071 126.042691 237.930691 
C 128.689071 235.284311 130.176 231.694546 130.176 227.952 
C 130.176 224.209454 128.689071 220.619689 126.042691 217.973309 
C 123.396311 215.326929 119.806546 213.84 116.064 213.84 
C 112.321454 213.84 108.731689 215.326929 106.085309 217.973309 
C 103.438929 220.619689 101.952 224.209454 101.952 227.952 
C 101.952 231.694546 103.438929 235.284311 106.085309 237.930691 
C 108.731689 240.577071 112.321454 242.064 116.064 242.064 
z
" clip-path="url(#pb076c58d31)" style="fill: #ffffff; stroke: #7f7f7f; stroke-width: 1.8; stroke-linejoin: miter"/>
   </g>
   <g id="patch_52">
    <path d="M 261.216 242.064 
C 264.958546 242.064 268.548311 240.577071 271.194691 237.930691 
C 273.841071 235.284311 275.328 231.694546 275.328 227.952 
C 275.328 224.209454 273.841071 220.619689 271.194691 217.973309 
C 268.548311 215.326929 264.958546 213.84 261.216 213.84 
C 257.473454 213.84 253.883689 215.326929 251.237309 217.973309 
C 248.590929 220.619689 247.104 224.209454 247.104 227.952 
C 247.104 231.694546 248.590929 235.284311 251.237309 237.930691 
C 253.883689 240.577071 257.473454 242.064 261.216 242.064 
z
" clip-path="url(#pb076c58d31)" style="fill: #ffffff; stroke: #7f7f7f; stroke-width: 1.8; stroke-linejoin: miter"/>
   </g>
   <g id="patch_53">
    <path d="M 116.064 157.392 
C 119.806546 157.392 123.396311 155.905071 126.042691 153.258691 
C 128.689071 150.612311 130.176 147.022546 130.176 143.28 
C 130.176 139.537454 128.689071 135.947689 126.042691 133.301309 
C 123.396311 130.654929 119.806546 129.168 116.064 129.168 
C 112.321454 129.168 108.731689 130.654929 106.085309 133.301309 
C 103.438929 135.947689 101.952 139.537454 101.952 143.28 
C 101.952 147.022546 103.438929 150.612311 106.085309 153.258691 
C 108.731689 155.905071 112.321454 157.392 116.064 157.392 
z
" clip-path="url(#pb076c58d31)" style="fill: #ffffff; stroke: #7f7f7f; stroke-width: 1.8; stroke-linejoin: miter"/>
   </g>
   <g id="patch_54">
    <path d="M 261.216 157.392 
C 264.958546 157.392 268.548311 155.905071 271.194691 153.258691 
C 273.841071 150.612311 275.328 147.022546 275.328 143.28 
C 275.328 139.537454 273.841071 135.947689 271.194691 133.301309 
C 268.548311 130.654929 264.958546 129.168 261.216 129.168 
C 257.473454 129.168 253.883689 130.654929 251.237309 133.301309 
C 248.590929 135.947689 247.104 139.537454 247.104 143.28 
C 247.104 147.022546 248.590929 150.612311 251.237309 153.258691 
C 253.883689 155.905071 257.473454 157.392 261.216 157.392 
z
" clip-path="url(#pb076c58d31)" style="fill: #ffffff; stroke: #7f7f7f; stroke-width: 1.8; stroke-linejoin: miter"/>
   </g>
   <g id="patch_55">
    <path d="M 116.064 72.72 
C 119.806546 72.72 123.396311 71.233071 126.042691 68.586691 
C 128.689071 65.940311 130.176 62.350546 130.176 58.608 
C 130.176 54.865454 128.689071 51.275689 126.042691 48.629309 
C 123.396311 45.982929 119.806546 44.496 116.064 44.496 
C 112.321454 44.496 108.731689 45.982929 106.085309 48.629309 
C 103.438929 51.275689 101.952 54.865454 101.952 58.608 
C 101.952 62.350546 103.438929 65.940311 106.085309 68.586691 
C 108.731689 71.233071 112.321454 72.72 116.064 72.72 
z
" clip-path="url(#pb076c58d31)" style="fill: #ffffff; stroke: #7f7f7f; stroke-width: 1.8; stroke-linejoin: miter"/>
   </g>
   <g id="patch_56">
    <path d="M 261.216 72.72 
C 264.958546 72.72 268.548311 71.233071 271.194691 68.586691 
C 273.841071 65.940311 275.328 62.350546 275.328 58.608 
C 275.328 54.865454 273.841071 51.275689 271.194691 48.629309 
C 268.548311 45.982929 264.958546 44.496 261.216 44.496 
C 257.473454 44.496 253.883689 45.982929 251.237309 48.629309 
C 248.590929 51.275689 247.104 54.865454 247.104 58.608 
C 247.104 62.350546 248.590929 65.940311 251.237309 68.586691 
C 253.883689 71.233071 257.473454 72.72 261.216 72.72 
z
" clip-path="url(#pb076c58d31)" style="fill: #ffffff; stroke: #7f7f7f; stroke-width: 1.8; stroke-linejoin: miter"/>
   </g>
   <g id="patch_57">
    <path d="M 412.416 157.392 
C 416.158546 157.392 419.748311 155.905071 422.394691 153.258691 
C 425.041071 150.612311 426.528 147.022546 426.528 143.28 
C 426.528 139.537454 425.041071 135.947689 422.394691 133.301309 
C 419.748311 130.654929 416.158546 129.168 412.416 129.168 
C 408.673454 129.168 405.083689 130.654929 402.437309 133.301309 
C 399.790929 135.947689 398.304 139.537454 398.304 143.28 
C 398.304 147.022546 399.790929 150.612311 402.437309 153.258691 
C 405.083689 155.905071 408.673454 157.392 412.416 157.392 
z
" clip-path="url(#pb076c58d31)" style="fill: #ffffff; stroke: #7f7f7f; stroke-width: 1.8; stroke-linejoin: miter"/>
   </g>
   <g id="text_16">
    <!-- $\mathbf{W}_{hx},\mathbf{W}_{hh}$ -->
    <g transform="translate(87.789 318.227188) scale(0.13 -0.13)">
     <defs>
      <path id="Cmb10-57" d="M 1966 63 
L 622 4063 
L 134 4063 
L 134 4391 
L 2100 4391 
L 2100 4063 
L 1569 4063 
L 2484 1356 
L 3128 3291 
L 2869 4063 
L 2381 4063 
L 2381 4391 
L 4347 4391 
L 4347 4063 
L 3822 4063 
L 4728 1356 
L 5619 4013 
Q 5603 4028 5459 4044 
Q 5259 4063 5050 4063 
L 5050 4391 
L 6472 4391 
L 6472 4063 
Q 6316 4063 6147 4053 
Q 5978 4044 5966 4006 
L 4641 63 
Q 4600 -50 4481 -50 
L 4378 -50 
Q 4250 -50 4219 63 
L 3303 2778 
L 2388 63 
Q 2356 -50 2228 -50 
L 2125 -50 
Q 2006 -50 1966 63 
z
" transform="scale(0.015625)"/>
      <path id="Cmmi10-68" d="M 341 116 
Q 341 153 347 172 
L 1275 3872 
Q 1300 3981 1306 4044 
Q 1306 4147 891 4147 
Q 825 4147 825 4231 
Q 828 4247 839 4287 
Q 850 4328 867 4350 
Q 884 4372 916 4372 
L 1778 4441 
L 1797 4441 
Q 1797 4434 1819 4423 
Q 1841 4413 1844 4409 
Q 1856 4378 1856 4359 
L 1356 2363 
Q 1750 2828 2291 2828 
Q 2516 2828 2680 2750 
Q 2844 2672 2936 2514 
Q 3028 2356 3028 2138 
Q 3028 1875 2911 1503 
Q 2794 1131 2619 672 
Q 2528 463 2528 288 
Q 2528 97 2675 97 
Q 2925 97 3092 364 
Q 3259 631 3328 941 
Q 3341 978 3378 978 
L 3456 978 
Q 3481 978 3497 961 
Q 3513 944 3513 922 
Q 3513 916 3506 903 
Q 3450 672 3339 448 
Q 3228 225 3059 76 
Q 2891 -72 2663 -72 
Q 2438 -72 2278 83 
Q 2119 238 2119 459 
Q 2119 578 2169 709 
Q 2350 1191 2470 1569 
Q 2591 1947 2591 2234 
Q 2591 2419 2519 2541 
Q 2447 2663 2278 2663 
Q 1934 2663 1678 2452 
Q 1422 2241 1234 1894 
L 800 147 
Q 775 50 703 -11 
Q 631 -72 538 -72 
Q 456 -72 398 -17 
Q 341 38 341 116 
z
" transform="scale(0.015625)"/>
      <path id="Cmmi10-78" d="M 500 184 
Q 613 97 819 97 
Q 1019 97 1172 289 
Q 1325 481 1381 709 
L 1672 1844 
Q 1741 2153 1741 2266 
Q 1741 2425 1652 2544 
Q 1563 2663 1403 2663 
Q 1200 2663 1022 2536 
Q 844 2409 722 2214 
Q 600 2019 550 1819 
Q 538 1778 500 1778 
L 422 1778 
Q 372 1778 372 1838 
L 372 1856 
Q 434 2094 584 2320 
Q 734 2547 951 2687 
Q 1169 2828 1416 2828 
Q 1650 2828 1839 2703 
Q 2028 2578 2106 2363 
Q 2216 2559 2386 2693 
Q 2556 2828 2759 2828 
Q 2897 2828 3040 2779 
Q 3184 2731 3275 2631 
Q 3366 2531 3366 2381 
Q 3366 2219 3261 2101 
Q 3156 1984 2994 1984 
Q 2891 1984 2822 2050 
Q 2753 2116 2753 2216 
Q 2753 2350 2845 2451 
Q 2938 2553 3066 2572 
Q 2950 2663 2747 2663 
Q 2541 2663 2389 2472 
Q 2238 2281 2175 2047 
L 1894 916 
Q 1825 659 1825 494 
Q 1825 331 1917 214 
Q 2009 97 2163 97 
Q 2463 97 2698 361 
Q 2934 625 3009 941 
Q 3022 978 3059 978 
L 3138 978 
Q 3163 978 3178 961 
Q 3194 944 3194 922 
Q 3194 916 3188 903 
Q 3097 522 2806 225 
Q 2516 -72 2150 -72 
Q 1916 -72 1727 54 
Q 1538 181 1459 397 
Q 1359 209 1182 68 
Q 1006 -72 806 -72 
Q 669 -72 523 -23 
Q 378 25 287 125 
Q 197 225 197 378 
Q 197 528 301 651 
Q 406 775 563 775 
Q 669 775 741 711 
Q 813 647 813 544 
Q 813 409 723 309 
Q 634 209 500 184 
z
" transform="scale(0.015625)"/>
      <path id="Cmmi10-3b" d="M 634 -1153 
Q 634 -1125 659 -1100 
Q 891 -878 1019 -587 
Q 1147 -297 1147 25 
L 1147 103 
Q 1044 0 891 0 
Q 744 0 641 103 
Q 538 206 538 353 
Q 538 503 641 603 
Q 744 703 891 703 
Q 1119 703 1216 492 
Q 1313 281 1313 25 
Q 1313 -331 1170 -651 
Q 1028 -972 769 -1228 
Q 744 -1241 728 -1241 
Q 697 -1241 665 -1212 
Q 634 -1184 634 -1153 
z
" transform="scale(0.015625)"/>
     </defs>
     <use xlink:href="#Cmb10-57" transform="translate(0 0.390625)"/>
     <use xlink:href="#Cmmi10-68" transform="translate(107.784453 -16.615625) scale(0.7)"/>
     <use xlink:href="#Cmmi10-78" transform="translate(148.116484 -16.615625) scale(0.7)"/>
     <use xlink:href="#Cmmi10-3b" transform="translate(194.449883 0.390625)"/>
     <use xlink:href="#Cmb10-57" transform="translate(239.694023 0.390625)"/>
     <use xlink:href="#Cmmi10-68" transform="translate(347.478477 -16.615625) scale(0.7)"/>
     <use xlink:href="#Cmmi10-68" transform="translate(387.810508 -16.615625) scale(0.7)"/>
    </g>
   </g>
   <g id="text_17">
    <!-- $\mathbf{W}_{qh}$ -->
    <g transform="translate(249.126 317.11) scale(0.13 -0.13)">
     <defs>
      <path id="Cmmi10-71" d="M 941 -1159 
Q 963 -1019 1025 -1019 
Q 1256 -1019 1389 -981 
Q 1522 -944 1563 -800 
L 1838 288 
Q 1472 -72 1106 -72 
Q 703 -72 473 233 
Q 244 538 244 953 
Q 244 1363 455 1803 
Q 666 2244 1027 2536 
Q 1388 2828 1806 2828 
Q 2000 2828 2156 2712 
Q 2313 2597 2394 2406 
Q 2431 2481 2601 2654 
Q 2772 2828 2841 2828 
Q 2913 2828 2913 2747 
L 2016 -825 
Q 2000 -919 1997 -934 
Q 1997 -1019 2419 -1019 
Q 2450 -1019 2467 -1044 
Q 2484 -1069 2484 -1100 
Q 2463 -1184 2448 -1212 
Q 2434 -1241 2375 -1241 
L 1006 -1241 
Q 941 -1241 941 -1159 
z
M 1119 97 
Q 1344 97 1558 267 
Q 1772 438 1931 672 
L 2291 2113 
Q 2253 2338 2126 2500 
Q 2000 2663 1791 2663 
Q 1575 2663 1389 2486 
Q 1203 2309 1075 2069 
Q 950 1813 836 1366 
Q 722 919 722 672 
Q 722 450 817 273 
Q 913 97 1119 97 
z
" transform="scale(0.015625)"/>
     </defs>
     <use xlink:href="#Cmb10-57" transform="translate(0 0.390625)"/>
     <use xlink:href="#Cmmi10-71" transform="translate(107.784453 -16.615625) scale(0.7)"/>
     <use xlink:href="#Cmmi10-68" transform="translate(138.990508 -16.615625) scale(0.7)"/>
    </g>
   </g>
  </g>
 </g>
 <defs>
  <clipPath id="pb076c58d31">
   <rect x="7.2" y="7.2" width="497.952" height="332.64"/>
  </clipPath>
 </defs>
</svg>
