<?xml version="1.0" encoding="utf-8" standalone="no"?>
<!DOCTYPE svg PUBLIC "-//W3C//DTD SVG 1.1//EN"
  "http://www.w3.org/Graphics/SVG/1.1/DTD/svg11.dtd">
<svg xmlns:xlink="http://www.w3.org/1999/xlink" width="550.08pt" height="303.819526pt" viewBox="0 0 550.08 303.819526" xmlns="http://www.w3.org/2000/svg" version="1.1">
 <metadata>
  <rdf:RDF xmlns:dc="http://purl.org/dc/elements/1.1/" xmlns:cc="http://creativecommons.org/ns#" xmlns:rdf="http://www.w3.org/1999/02/22-rdf-syntax-ns#">
   <cc:Work>
    <dc:type rdf:resource="http://purl.org/dc/dcmitype/StillImage"/>
    <dc:format>image/svg+xml</dc:format>
    <dc:creator>
     <cc:Agent>
      <dc:title>Matplotlib v3.10.8, https://matplotlib.org/</dc:title>
     </cc:Agent>
    </dc:creator>
   </cc:Work>
  </rdf:RDF>
 </metadata>
 <defs>
  <style type="text/css">*{stroke-linejoin: round; stroke-linecap: butt}</style>
 </defs>
 <g id="figure_1">
  <g id="patch_1">
   <path d="M 0 303.819526 
L 550.08 303.819526 
L 550.08 0 
L 0 0 
z
" style="fill: #ffffff"/>
  </g>
  <g id="axes_1">
   <g id="patch_2">
    <path d="M 23.701991 62.799014 
L 77.016114 62.799014 
Q 83.109156 62.799014 83.109156 56.705972 
L 83.109156 23.701991 
Q 83.109156 17.608948 77.016114 17.608948 
L 23.701991 17.608948 
Q 17.608948 17.608948 17.608948 23.701991 
L 17.608948 56.705972 
Q 17.608948 62.799014 23.701991 62.799014 
z
" clip-path="url(#pcfc7ecccf1)" style="fill: #ff7f0e; opacity: 0.12; stroke: #ff7f0e; stroke-width: 1.8; stroke-linejoin: miter"/>
   </g>
   <g id="patch_3">
    <path d="M 23.701991 62.799014 
L 77.016114 62.799014 
Q 83.109156 62.799014 83.109156 56.705972 
L 83.109156 23.701991 
Q 83.109156 17.608948 77.016114 17.608948 
L 23.701991 17.608948 
Q 17.608948 17.608948 17.608948 23.701991 
L 17.608948 56.705972 
Q 17.608948 62.799014 23.701991 62.799014 
L 23.701991 62.799014 
z
" clip-path="url(#pcfc7ecccf1)" style="fill: none; stroke: #ff7f0e; stroke-width: 1.8; stroke-linejoin: miter"/>
   </g>
   <g id="patch_4">
    <path d="M 473.063886 62.799014 
L 526.378009 62.799014 
Q 532.471052 62.799014 532.471052 56.705972 
L 532.471052 23.701991 
Q 532.471052 17.608948 526.378009 17.608948 
L 473.063886 17.608948 
Q 466.970844 17.608948 466.970844 23.701991 
L 466.970844 56.705972 
Q 466.970844 62.799014 473.063886 62.799014 
z
" clip-path="url(#pcfc7ecccf1)" style="fill: #ff7f0e; opacity: 0.12; stroke: #ff7f0e; stroke-width: 1.8; stroke-linejoin: miter"/>
   </g>
   <g id="patch_5">
    <path d="M 473.063886 62.799014 
L 526.378009 62.799014 
Q 532.471052 62.799014 532.471052 56.705972 
L 532.471052 23.701991 
Q 532.471052 17.608948 526.378009 17.608948 
L 473.063886 17.608948 
Q 466.970844 17.608948 466.970844 23.701991 
L 466.970844 56.705972 
Q 466.970844 62.799014 473.063886 62.799014 
L 473.063886 62.799014 
z
" clip-path="url(#pcfc7ecccf1)" style="fill: none; stroke: #ff7f0e; stroke-width: 1.8; stroke-linejoin: miter"/>
   </g>
   <g id="patch_6">
    <path d="M 23.701991 225.280152 
L 77.016114 225.280152 
Q 83.109156 225.280152 83.109156 219.187109 
L 83.109156 186.183128 
Q 83.109156 180.090085 77.016114 180.090085 
L 23.701991 180.090085 
Q 17.608948 180.090085 17.608948 186.183128 
L 17.608948 219.187109 
Q 17.608948 225.280152 23.701991 225.280152 
z
" clip-path="url(#pcfc7ecccf1)" style="fill: #2ca02c; opacity: 0.12; stroke: #2ca02c; stroke-width: 1.8; stroke-linejoin: miter"/>
   </g>
   <g id="patch_7">
    <path d="M 23.701991 225.280152 
L 77.016114 225.280152 
Q 83.109156 225.280152 83.109156 219.187109 
L 83.109156 186.183128 
Q 83.109156 180.090085 77.016114 180.090085 
L 23.701991 180.090085 
Q 17.608948 180.090085 17.608948 186.183128 
L 17.608948 219.187109 
Q 17.608948 225.280152 23.701991 225.280152 
L 23.701991 225.280152 
z
" clip-path="url(#pcfc7ecccf1)" style="fill: none; stroke: #2ca02c; stroke-width: 1.8; stroke-linejoin: miter"/>
   </g>
   <g id="patch_8">
    <path d="M 23.701991 291.288114 
L 77.016114 291.288114 
Q 83.109156 291.288114 83.109156 285.195071 
L 83.109156 252.19109 
Q 83.109156 246.098047 77.016114 246.098047 
L 23.701991 246.098047 
Q 17.608948 246.098047 17.608948 252.19109 
L 17.608948 285.195071 
Q 17.608948 291.288114 23.701991 291.288114 
z
" clip-path="url(#pcfc7ecccf1)" style="fill: #1f77b4; opacity: 0.12; stroke: #1f77b4; stroke-width: 1.8; stroke-linejoin: miter"/>
   </g>
   <g id="patch_9">
    <path d="M 23.701991 291.288114 
L 77.016114 291.288114 
Q 83.109156 291.288114 83.109156 285.195071 
L 83.109156 252.19109 
Q 83.109156 246.098047 77.016114 246.098047 
L 23.701991 246.098047 
Q 17.608948 246.098047 17.608948 252.19109 
L 17.608948 285.195071 
Q 17.608948 291.288114 23.701991 291.288114 
L 23.701991 291.288114 
z
" clip-path="url(#pcfc7ecccf1)" style="fill: none; stroke: #1f77b4; stroke-width: 1.8; stroke-linejoin: miter"/>
   </g>
   <g id="line2d_1">
    <path d="M 106.211943 238.227867 
L 382.93763 238.227867 
" clip-path="url(#pcfc7ecccf1)" style="fill: none; stroke: #7f7f7f; stroke-width: 1.8; stroke-linecap: square"/>
   </g>
   <g id="patch_10">
    <path d="M 133.630635 176.281934 
L 165.111355 176.281934 
Q 171.204398 176.281934 171.204398 170.188891 
L 171.204398 143.785706 
Q 171.204398 137.692664 165.111355 137.692664 
L 133.630635 137.692664 
Q 127.537592 137.692664 127.537592 143.785706 
L 127.537592 170.188891 
Q 127.537592 176.281934 133.630635 176.281934 
z
" clip-path="url(#pcfc7ecccf1)" style="fill: #7f7f7f; opacity: 0.12; stroke: #7f7f7f; stroke-width: 1.8; stroke-linejoin: miter"/>
   </g>
   <g id="patch_11">
    <path d="M 133.630635 176.281934 
L 165.111355 176.281934 
Q 171.204398 176.281934 171.204398 170.188891 
L 171.204398 143.785706 
Q 171.204398 137.692664 165.111355 137.692664 
L 133.630635 137.692664 
Q 127.537592 137.692664 127.537592 143.785706 
L 127.537592 170.188891 
Q 127.537592 176.281934 133.630635 176.281934 
L 133.630635 176.281934 
z
" clip-path="url(#pcfc7ecccf1)" style="fill: none; stroke: #7f7f7f; stroke-width: 1.8; stroke-linejoin: miter"/>
   </g>
   <g id="patch_12">
    <path d="M 209.793668 176.281934 
L 241.274389 176.281934 
Q 247.367431 176.281934 247.367431 170.188891 
L 247.367431 143.785706 
Q 247.367431 137.692664 241.274389 137.692664 
L 209.793668 137.692664 
Q 203.700626 137.692664 203.700626 143.785706 
L 203.700626 170.188891 
Q 203.700626 176.281934 209.793668 176.281934 
z
" clip-path="url(#pcfc7ecccf1)" style="fill: #7f7f7f; opacity: 0.12; stroke: #7f7f7f; stroke-width: 1.8; stroke-linejoin: miter"/>
   </g>
   <g id="patch_13">
    <path d="M 209.793668 176.281934 
L 241.274389 176.281934 
Q 247.367431 176.281934 247.367431 170.188891 
L 247.367431 143.785706 
Q 247.367431 137.692664 241.274389 137.692664 
L 209.793668 137.692664 
Q 203.700626 137.692664 203.700626 143.785706 
L 203.700626 170.188891 
Q 203.700626 176.281934 209.793668 176.281934 
L 209.793668 176.281934 
z
" clip-path="url(#pcfc7ecccf1)" style="fill: none; stroke: #7f7f7f; stroke-width: 1.8; stroke-linejoin: miter"/>
   </g>
   <g id="patch_14">
    <path d="M 263.615545 176.281934 
L 309.313365 176.281934 
Q 315.406408 176.281934 315.406408 170.188891 
L 315.406408 143.785706 
Q 315.406408 137.692664 309.313365 137.692664 
L 263.615545 137.692664 
Q 257.522502 137.692664 257.522502 143.785706 
L 257.522502 170.188891 
Q 257.522502 176.281934 263.615545 176.281934 
z
" clip-path="url(#pcfc7ecccf1)" style="fill: #7f7f7f; opacity: 0.12; stroke: #7f7f7f; stroke-width: 1.8; stroke-linejoin: miter"/>
   </g>
   <g id="patch_15">
    <path d="M 263.615545 176.281934 
L 309.313365 176.281934 
Q 315.406408 176.281934 315.406408 170.188891 
L 315.406408 143.785706 
Q 315.406408 137.692664 309.313365 137.692664 
L 263.615545 137.692664 
Q 257.522502 137.692664 257.522502 143.785706 
L 257.522502 170.188891 
Q 257.522502 176.281934 263.615545 176.281934 
L 263.615545 176.281934 
z
" clip-path="url(#pcfc7ecccf1)" style="fill: none; stroke: #7f7f7f; stroke-width: 1.8; stroke-linejoin: miter"/>
   </g>
   <g id="patch_16">
    <path d="M 367.19727 176.281934 
L 398.677991 176.281934 
Q 404.771033 176.281934 404.771033 170.188891 
L 404.771033 143.785706 
Q 404.771033 137.692664 398.677991 137.692664 
L 367.19727 137.692664 
Q 361.104227 137.692664 361.104227 143.785706 
L 361.104227 170.188891 
Q 361.104227 176.281934 367.19727 176.281934 
z
" clip-path="url(#pcfc7ecccf1)" style="fill: #7f7f7f; opacity: 0.12; stroke: #7f7f7f; stroke-width: 1.8; stroke-linejoin: miter"/>
   </g>
   <g id="patch_17">
    <path d="M 367.19727 176.281934 
L 398.677991 176.281934 
Q 404.771033 176.281934 404.771033 170.188891 
L 404.771033 143.785706 
Q 404.771033 137.692664 398.677991 137.692664 
L 367.19727 137.692664 
Q 361.104227 137.692664 361.104227 143.785706 
L 361.104227 170.188891 
Q 361.104227 176.281934 367.19727 176.281934 
L 367.19727 176.281934 
z
" clip-path="url(#pcfc7ecccf1)" style="fill: none; stroke: #7f7f7f; stroke-width: 1.8; stroke-linejoin: miter"/>
   </g>
   <g id="patch_18">
    <path d="M 418.480379 112.812739 
L 464.178199 112.812739 
Q 470.271242 112.812739 470.271242 106.719697 
L 470.271242 85.394047 
Q 470.271242 79.301005 464.178199 79.301005 
L 418.480379 79.301005 
Q 412.387336 79.301005 412.387336 85.394047 
L 412.387336 106.719697 
Q 412.387336 112.812739 418.480379 112.812739 
z
" clip-path="url(#pcfc7ecccf1)" style="fill: #7f7f7f; opacity: 0.12; stroke: #7f7f7f; stroke-width: 1.8; stroke-linejoin: miter"/>
   </g>
   <g id="patch_19">
    <path d="M 418.480379 112.812739 
L 464.178199 112.812739 
Q 470.271242 112.812739 470.271242 106.719697 
L 470.271242 85.394047 
Q 470.271242 79.301005 464.178199 79.301005 
L 418.480379 79.301005 
Q 412.387336 79.301005 412.387336 85.394047 
L 412.387336 106.719697 
Q 412.387336 112.812739 418.480379 112.812739 
L 418.480379 112.812739 
z
" clip-path="url(#pcfc7ecccf1)" style="fill: none; stroke: #7f7f7f; stroke-width: 1.8; stroke-linejoin: miter"/>
   </g>
   <g id="line2d_2">
    <path d="M 441.329289 40.203981 
L 441.329289 80.316512 
" clip-path="url(#pcfc7ecccf1)" style="fill: none; stroke: #7f7f7f; stroke-width: 1.8; stroke-linecap: square"/>
   </g>
   <g id="patch_20">
    <path d="M 473.063886 179.582332 
L 526.378009 179.582332 
Q 532.471052 179.582332 532.471052 173.489289 
L 532.471052 140.485308 
Q 532.471052 134.392265 526.378009 134.392265 
L 473.063886 134.392265 
Q 466.970844 134.392265 466.970844 140.485308 
L 466.970844 173.489289 
Q 466.970844 179.582332 473.063886 179.582332 
z
" clip-path="url(#pcfc7ecccf1)" style="fill: #2ca02c; opacity: 0.12; stroke: #2ca02c; stroke-width: 1.8; stroke-linejoin: miter"/>
   </g>
   <g id="patch_21">
    <path d="M 473.063886 179.582332 
L 526.378009 179.582332 
Q 532.471052 179.582332 532.471052 173.489289 
L 532.471052 140.485308 
Q 532.471052 134.392265 526.378009 134.392265 
L 473.063886 134.392265 
Q 466.970844 134.392265 466.970844 140.485308 
L 466.970844 173.489289 
Q 466.970844 179.582332 473.063886 179.582332 
L 473.063886 179.582332 
z
" clip-path="url(#pcfc7ecccf1)" style="fill: none; stroke: #2ca02c; stroke-width: 1.8; stroke-linejoin: miter"/>
   </g>
   <g id="text_1">
    <!-- $\mathbf{C}_{t-1}$ -->
    <g transform="translate(34.749052 44.067106) scale(0.14 -0.14)">
     <defs>
      <path id="Cmb10-43" d="M 1606 856 
Q 1794 563 2098 409 
Q 2403 256 2766 256 
Q 3100 256 3364 432 
Q 3628 609 3778 903 
Q 3928 1197 3928 1522 
Q 3950 1584 4013 1600 
L 4178 1600 
Q 4256 1581 4256 1503 
Q 4256 1175 4128 887 
Q 4000 600 3767 383 
Q 3534 166 3240 47 
Q 2947 -72 2631 -72 
Q 2125 -72 1708 89 
Q 1291 250 987 551 
Q 684 853 521 1270 
Q 359 1688 359 2194 
Q 359 2703 523 3122 
Q 688 3541 984 3837 
Q 1281 4134 1703 4296 
Q 2125 4459 2631 4459 
Q 3194 4459 3634 4072 
L 4044 4434 
Q 4069 4450 4103 4459 
L 4178 4459 
Q 4241 4444 4256 4384 
L 4256 2797 
Q 4241 2728 4178 2713 
L 3975 2713 
Q 3906 2728 3891 2797 
Q 3891 2975 3803 3223 
Q 3716 3472 3609 3634 
Q 3456 3859 3232 3996 
Q 3009 4134 2753 4134 
Q 2397 4134 2095 3981 
Q 1794 3828 1606 3531 
Q 1503 3359 1447 3134 
Q 1391 2909 1377 2709 
Q 1363 2509 1363 2209 
L 1363 2188 
Q 1363 1750 1409 1434 
Q 1456 1119 1606 856 
z
" transform="scale(0.015625)"/>
      <path id="Cmmi10-74" d="M 397 519 
Q 397 613 416 697 
L 878 2534 
L 206 2534 
Q 141 2534 141 2619 
Q 166 2759 225 2759 
L 934 2759 
L 1191 3803 
Q 1216 3888 1291 3947 
Q 1366 4006 1459 4006 
Q 1541 4006 1595 3957 
Q 1650 3909 1650 3828 
Q 1650 3809 1648 3798 
Q 1647 3788 1644 3775 
L 1388 2759 
L 2047 2759 
Q 2113 2759 2113 2675 
Q 2109 2659 2100 2621 
Q 2091 2584 2075 2559 
Q 2059 2534 2028 2534 
L 1331 2534 
L 872 684 
Q 825 503 825 372 
Q 825 97 1013 97 
Q 1294 97 1511 361 
Q 1728 625 1844 941 
Q 1869 978 1894 978 
L 1972 978 
Q 1997 978 2012 961 
Q 2028 944 2028 922 
Q 2028 909 2022 903 
Q 1881 516 1612 222 
Q 1344 -72 997 -72 
Q 744 -72 570 93 
Q 397 259 397 519 
z
" transform="scale(0.015625)"/>
      <path id="Cmsy10-a1" d="M 653 1472 
Q 600 1472 565 1512 
Q 531 1553 531 1600 
Q 531 1647 565 1687 
Q 600 1728 653 1728 
L 4325 1728 
Q 4375 1728 4408 1687 
Q 4441 1647 4441 1600 
Q 4441 1553 4408 1512 
Q 4375 1472 4325 1472 
L 653 1472 
z
" transform="scale(0.015625)"/>
      <path id="Cmr10-31" d="M 594 0 
L 594 225 
Q 1394 225 1394 428 
L 1394 3788 
Q 1063 3628 556 3628 
L 556 3853 
Q 1341 3853 1741 4263 
L 1831 4263 
Q 1853 4263 1873 4245 
Q 1894 4228 1894 4206 
L 1894 428 
Q 1894 225 2694 225 
L 2694 0 
L 594 0 
z
" transform="scale(0.015625)"/>
     </defs>
     <use xlink:href="#Cmb10-43" transform="translate(0 0.328125)"/>
     <use xlink:href="#Cmmi10-74" transform="translate(76.680937 -16.678125) scale(0.7)"/>
     <use xlink:href="#Cmsy10-a1" transform="translate(114.230742 -16.678125) scale(0.7)"/>
     <use xlink:href="#Cmr10-31" transform="translate(180.901641 -16.678125) scale(0.7)"/>
    </g>
   </g>
   <g id="text_2">
    <!-- $\mathbf{C}_{t}$ -->
    <g transform="translate(492.090948 44.067106) scale(0.14 -0.14)">
     <use xlink:href="#Cmb10-43" transform="translate(0 0.328125)"/>
     <use xlink:href="#Cmmi10-74" transform="translate(76.680937 -16.678125) scale(0.7)"/>
    </g>
   </g>
   <g id="patch_22">
    <path d="M 82.093649 40.203981 
Q 109.131526 40.203981 133.933335 40.203981 
" style="fill: none; stroke: #7f7f7f; stroke-width: 2; stroke-linecap: round"/>
    <path d="M 128.333335 37.403981 
L 133.933335 40.203981 
L 128.333335 43.003981 
" style="fill: none; stroke: #7f7f7f; stroke-width: 2; stroke-linecap: round"/>
   </g>
   <g id="patch_23">
    <path d="M 162.572588 40.203981 
Q 202.685118 40.203981 240.561581 40.203981 
" style="fill: none; stroke: #7f7f7f; stroke-width: 2; stroke-linecap: round"/>
    <path d="M 234.961581 37.403981 
L 240.561581 40.203981 
L 234.961581 43.003981 
" style="fill: none; stroke: #7f7f7f; stroke-width: 2; stroke-linecap: round"/>
   </g>
   <g id="patch_24">
    <path d="M 269.200834 40.203981 
Q 368.593592 40.203981 465.750283 40.203981 
" style="fill: none; stroke: #7f7f7f; stroke-width: 2; stroke-linecap: round"/>
    <path d="M 460.150283 37.403981 
L 465.750283 40.203981 
L 460.150283 43.003981 
" style="fill: none; stroke: #7f7f7f; stroke-width: 2; stroke-linecap: round"/>
   </g>
   <g id="text_3">
    <!-- $\mathbf{H}_{t-1}$ -->
    <g transform="translate(34.329052 206.548243) scale(0.14 -0.14)">
     <defs>
      <path id="Cmb10-48" d="M 219 0 
L 219 325 
L 819 325 
L 819 4063 
L 219 4063 
L 219 4391 
L 2356 4391 
L 2356 4063 
L 1753 4063 
L 1753 2444 
L 3250 2444 
L 3250 4063 
L 2650 4063 
L 2650 4391 
L 4788 4391 
L 4788 4063 
L 4184 4063 
L 4184 325 
L 4788 325 
L 4788 0 
L 2650 0 
L 2650 325 
L 3250 325 
L 3250 2119 
L 1753 2119 
L 1753 325 
L 2356 325 
L 2356 0 
L 219 0 
z
" transform="scale(0.015625)"/>
     </defs>
     <use xlink:href="#Cmb10-48" transform="translate(0 0.390625)"/>
     <use xlink:href="#Cmmi10-74" transform="translate(82.784453 -16.615625) scale(0.7)"/>
     <use xlink:href="#Cmsy10-a1" transform="translate(120.334258 -16.615625) scale(0.7)"/>
     <use xlink:href="#Cmr10-31" transform="translate(187.005156 -16.615625) scale(0.7)"/>
    </g>
   </g>
   <g id="text_4">
    <!-- $\mathbf{X}_{t}$ -->
    <g transform="translate(42.519052 272.556206) scale(0.14 -0.14)">
     <defs>
      <path id="Cmb10-58" d="M 184 0 
L 184 325 
Q 856 325 909 384 
L 2009 2106 
L 825 4063 
L 269 4063 
L 269 4391 
L 2291 4391 
L 2291 4063 
L 1838 4063 
L 2528 2919 
L 3225 4013 
Q 3225 4028 3158 4036 
Q 3091 4044 3053 4044 
Q 2872 4063 2688 4063 
L 2688 4391 
L 4384 4391 
L 4384 4063 
Q 4159 4063 3925 4053 
Q 3691 4044 3653 4006 
L 2741 2572 
L 4091 325 
L 4653 325 
L 4653 0 
L 2625 0 
L 2625 325 
L 3084 325 
L 2222 1759 
L 1344 378 
Q 1344 369 1411 358 
Q 1478 347 1509 347 
Q 1681 325 1881 325 
L 1881 0 
L 184 0 
z
" transform="scale(0.015625)"/>
     </defs>
     <use xlink:href="#Cmb10-58" transform="translate(0 0.390625)"/>
     <use xlink:href="#Cmmi10-74" transform="translate(79.952422 -16.615625) scale(0.7)"/>
    </g>
   </g>
   <g id="patch_25">
    <path d="M 82.093649 202.685118 
Q 93.391166 219.440986 103.563634 234.528241 
" style="fill: none; stroke: #7f7f7f; stroke-width: 1.8; stroke-linecap: round"/>
    <path d="M 102.870171 229.206671 
L 103.563634 234.528241 
L 98.8903 231.890069 
" style="fill: none; stroke: #7f7f7f; stroke-width: 1.8; stroke-linecap: round"/>
   </g>
   <g id="patch_26">
    <path d="M 82.093649 268.693081 
Q 93.391166 254.475981 103.436661 241.834459 
" style="fill: none; stroke: #7f7f7f; stroke-width: 1.8; stroke-linecap: round"/>
    <path d="M 98.571431 244.099307 
L 103.436661 241.834459 
L 102.329402 247.085552 
" style="fill: none; stroke: #7f7f7f; stroke-width: 1.8; stroke-linecap: round"/>
   </g>
   <g id="patch_27">
    <path d="M 149.370995 238.227867 
Q 149.370995 206.747147 149.370995 177.278888 
" style="fill: none; stroke: #7f7f7f; stroke-width: 1.8; stroke-linecap: round"/>
    <path d="M 146.970995 182.078888 
L 149.370995 177.278888 
L 151.770995 182.078888 
" style="fill: none; stroke: #7f7f7f; stroke-width: 1.8; stroke-linecap: round"/>
   </g>
   <g id="patch_28">
    <path d="M 225.534028 238.227867 
Q 225.534028 206.747147 225.534028 177.278888 
" style="fill: none; stroke: #7f7f7f; stroke-width: 1.8; stroke-linecap: round"/>
    <path d="M 223.134028 182.078888 
L 225.534028 177.278888 
L 227.934028 182.078888 
" style="fill: none; stroke: #7f7f7f; stroke-width: 1.8; stroke-linecap: round"/>
   </g>
   <g id="patch_29">
    <path d="M 286.464455 238.227867 
Q 286.464455 206.747147 286.464455 177.278888 
" style="fill: none; stroke: #7f7f7f; stroke-width: 1.8; stroke-linecap: round"/>
    <path d="M 284.064455 182.078888 
L 286.464455 177.278888 
L 288.864455 182.078888 
" style="fill: none; stroke: #7f7f7f; stroke-width: 1.8; stroke-linecap: round"/>
   </g>
   <g id="patch_30">
    <path d="M 382.93763 238.227867 
Q 382.93763 206.747147 382.93763 177.278888 
" style="fill: none; stroke: #7f7f7f; stroke-width: 1.8; stroke-linecap: round"/>
    <path d="M 380.53763 182.078888 
L 382.93763 177.278888 
L 385.33763 182.078888 
" style="fill: none; stroke: #7f7f7f; stroke-width: 1.8; stroke-linecap: round"/>
   </g>
   <g id="text_5">
    <!-- $\sigma$ -->
    <g transform="translate(145.600995 160.574486) scale(0.13 -0.13)">
     <defs>
      <path id="Cmmi10-be" d="M 1197 -72 
Q 913 -72 692 64 
Q 472 200 351 431 
Q 231 663 231 941 
Q 231 1238 365 1566 
Q 500 1894 733 2166 
Q 966 2438 1259 2598 
Q 1553 2759 1863 2759 
L 3475 2759 
Q 3541 2759 3587 2715 
Q 3634 2672 3634 2597 
Q 3634 2503 3567 2433 
Q 3500 2363 3406 2363 
L 2625 2363 
Q 2809 2088 2809 1697 
Q 2809 1375 2684 1062 
Q 2559 750 2337 492 
Q 2116 234 1820 81 
Q 1525 -72 1197 -72 
z
M 1203 97 
Q 1553 97 1823 370 
Q 2094 644 2237 1039 
Q 2381 1434 2381 1772 
Q 2381 2047 2229 2205 
Q 2078 2363 1806 2363 
Q 1434 2363 1173 2113 
Q 913 1863 783 1484 
Q 653 1106 653 756 
Q 653 481 798 289 
Q 944 97 1203 97 
z
" transform="scale(0.015625)"/>
     </defs>
     <use xlink:href="#Cmmi10-be" transform="translate(0 0.890625)"/>
    </g>
   </g>
   <g id="text_6">
    <!-- $\sigma$ -->
    <g transform="translate(221.764028 160.574486) scale(0.13 -0.13)">
     <use xlink:href="#Cmmi10-be" transform="translate(0 0.890625)"/>
    </g>
   </g>
   <g id="text_7">
    <!-- $\tanh$ -->
    <g transform="translate(273.564455 160.298549) scale(0.12 -0.12)">
     <defs>
      <path id="Cmr10-74" d="M 653 769 
L 653 2534 
L 122 2534 
L 122 2700 
Q 541 2700 737 3090 
Q 934 3481 934 3938 
L 1119 3938 
L 1119 2759 
L 2022 2759 
L 2022 2534 
L 1119 2534 
L 1119 781 
Q 1119 516 1208 316 
Q 1297 116 1528 116 
Q 1747 116 1844 327 
Q 1941 538 1941 781 
L 1941 1159 
L 2125 1159 
L 2125 769 
Q 2125 569 2051 373 
Q 1978 178 1834 53 
Q 1691 -72 1484 -72 
Q 1100 -72 876 158 
Q 653 388 653 769 
z
" transform="scale(0.015625)"/>
      <path id="Cmr10-61" d="M 256 628 
Q 256 1009 556 1248 
Q 856 1488 1276 1586 
Q 1697 1684 2075 1684 
L 2075 1947 
Q 2075 2131 1994 2304 
Q 1913 2478 1759 2589 
Q 1606 2700 1422 2700 
Q 997 2700 775 2509 
Q 897 2509 976 2417 
Q 1056 2325 1056 2203 
Q 1056 2075 965 1984 
Q 875 1894 750 1894 
Q 622 1894 531 1984 
Q 441 2075 441 2203 
Q 441 2541 747 2705 
Q 1053 2869 1422 2869 
Q 1681 2869 1943 2758 
Q 2206 2647 2373 2440 
Q 2541 2234 2541 1959 
L 2541 519 
Q 2541 394 2594 289 
Q 2647 184 2759 184 
Q 2866 184 2917 290 
Q 2969 397 2969 519 
L 2969 928 
L 3156 928 
L 3156 519 
Q 3156 375 3081 245 
Q 3006 116 2879 39 
Q 2753 -38 2606 -38 
Q 2419 -38 2283 107 
Q 2147 253 2131 453 
Q 2013 213 1781 70 
Q 1550 -72 1288 -72 
Q 1044 -72 808 0 
Q 572 72 414 226 
Q 256 381 256 628 
z
M 775 628 
Q 775 403 940 250 
Q 1106 97 1331 97 
Q 1538 97 1706 200 
Q 1875 303 1975 481 
Q 2075 659 2075 856 
L 2075 1522 
Q 1784 1522 1479 1426 
Q 1175 1331 975 1128 
Q 775 925 775 628 
z
" transform="scale(0.015625)"/>
      <path id="Cmr10-6e" d="M 191 0 
L 191 225 
Q 409 225 550 259 
Q 691 294 691 428 
L 691 2175 
Q 691 2347 639 2423 
Q 588 2500 491 2517 
Q 394 2534 191 2534 
L 191 2759 
L 1119 2828 
L 1119 2203 
Q 1247 2478 1498 2653 
Q 1750 2828 2047 2828 
Q 2491 2828 2714 2615 
Q 2938 2403 2938 1966 
L 2938 428 
Q 2938 294 3078 259 
Q 3219 225 3438 225 
L 3438 0 
L 1972 0 
L 1972 225 
Q 2191 225 2331 259 
Q 2472 294 2472 428 
L 2472 1947 
Q 2472 2259 2381 2461 
Q 2291 2663 2009 2663 
Q 1638 2663 1398 2366 
Q 1159 2069 1159 1691 
L 1159 428 
Q 1159 294 1300 259 
Q 1441 225 1656 225 
L 1656 0 
L 191 0 
z
" transform="scale(0.015625)"/>
      <path id="Cmr10-68" d="M 191 0 
L 191 225 
Q 409 225 550 259 
Q 691 294 691 428 
L 691 3788 
Q 691 3959 639 4036 
Q 588 4113 491 4130 
Q 394 4147 191 4147 
L 191 4372 
L 1141 4441 
L 1141 2241 
Q 1275 2506 1515 2667 
Q 1756 2828 2047 2828 
Q 2491 2828 2714 2615 
Q 2938 2403 2938 1966 
L 2938 428 
Q 2938 294 3078 259 
Q 3219 225 3438 225 
L 3438 0 
L 1972 0 
L 1972 225 
Q 2191 225 2331 259 
Q 2472 294 2472 428 
L 2472 1947 
Q 2472 2259 2381 2461 
Q 2291 2663 2009 2663 
Q 1638 2663 1398 2366 
Q 1159 2069 1159 1691 
L 1159 428 
Q 1159 294 1300 259 
Q 1441 225 1656 225 
L 1656 0 
L 191 0 
z
" transform="scale(0.015625)"/>
     </defs>
     <use xlink:href="#Cmr10-74" transform="translate(0 0.609375)"/>
     <use xlink:href="#Cmr10-61" transform="translate(38.818359 0.609375)"/>
     <use xlink:href="#Cmr10-6e" transform="translate(88.818359 0.609375)"/>
     <use xlink:href="#Cmr10-68" transform="translate(144.335938 0.609375)"/>
    </g>
   </g>
   <g id="text_8">
    <!-- $\sigma$ -->
    <g transform="translate(379.16763 160.574486) scale(0.13 -0.13)">
     <use xlink:href="#Cmmi10-be" transform="translate(0 0.890625)"/>
    </g>
   </g>
   <g id="patch_31">
    <path d="M 149.370995 138.708171 
Q 149.370995 96.056872 149.370995 55.641641 
" style="fill: none; stroke: #7f7f7f; stroke-width: 2; stroke-linecap: round"/>
    <path d="M 146.570995 61.241641 
L 149.370995 55.641641 
L 152.170995 61.241641 
" style="fill: none; stroke: #7f7f7f; stroke-width: 2; stroke-linecap: round"/>
   </g>
   <g id="text_9">
    <!-- $\mathbf{F}_t$ -->
    <g transform="translate(126.371431 96.365722) scale(0.14 -0.14)">
     <defs>
      <path id="Cmb10-46" d="M 219 0 
L 219 325 
L 819 325 
L 819 4063 
L 219 4063 
L 219 4391 
L 3547 4391 
L 3744 2822 
L 3419 2822 
Q 3359 3275 3267 3531 
Q 3175 3788 2944 3925 
Q 2713 4063 2272 4063 
L 1753 4063 
L 1753 2363 
L 1856 2363 
Q 2116 2363 2237 2450 
Q 2359 2538 2392 2689 
Q 2425 2841 2425 3109 
L 2753 3109 
L 2753 1288 
L 2425 1288 
Q 2425 1556 2392 1707 
Q 2359 1859 2239 1946 
Q 2119 2034 1856 2034 
L 1753 2034 
L 1753 325 
L 2509 325 
L 2509 0 
L 219 0 
z
" transform="scale(0.015625)"/>
     </defs>
     <use xlink:href="#Cmb10-46" transform="translate(0 0.390625)"/>
     <use xlink:href="#Cmmi10-74" transform="translate(67.159453 -16.615625) scale(0.7)"/>
    </g>
   </g>
   <g id="patch_32">
    <path d="M 225.534028 138.708171 
Q 236.014062 122.135095 245.418514 107.262938 
" style="fill: none; stroke: #7f7f7f; stroke-width: 1.8; stroke-linecap: round"/>
    <path d="M 240.824639 110.037161 
L 245.418514 107.262938 
L 244.881568 112.602571 
" style="fill: none; stroke: #7f7f7f; stroke-width: 1.8; stroke-linecap: round"/>
   </g>
   <g id="patch_33">
    <path d="M 286.464455 138.708171 
Q 275.984422 122.135095 266.579969 107.262938 
" style="fill: none; stroke: #7f7f7f; stroke-width: 1.8; stroke-linecap: round"/>
    <path d="M 267.116916 112.602571 
L 266.579969 107.262938 
L 271.173844 110.037161 
" style="fill: none; stroke: #7f7f7f; stroke-width: 1.8; stroke-linecap: round"/>
   </g>
   <g id="patch_34">
    <path d="M 255.999242 82.85528 
Q 255.999242 68.130427 255.999242 55.641641 
" style="fill: none; stroke: #7f7f7f; stroke-width: 2; stroke-linecap: round"/>
    <path d="M 253.199242 61.241641 
L 255.999242 55.641641 
L 258.799242 61.241641 
" style="fill: none; stroke: #7f7f7f; stroke-width: 2; stroke-linecap: round"/>
   </g>
   <g id="text_10">
    <!-- $\mathbf{I}_t$ -->
    <g transform="translate(198.888379 125.307675) scale(0.14 -0.14)">
     <defs>
      <path id="Cmb10-49" d="M 166 0 
L 166 325 
L 800 325 
L 800 4063 
L 166 4063 
L 166 4391 
L 2369 4391 
L 2369 4063 
L 1734 4063 
L 1734 325 
L 2369 325 
L 2369 0 
L 166 0 
z
" transform="scale(0.015625)"/>
     </defs>
     <use xlink:href="#Cmb10-49" transform="translate(0 0.390625)"/>
     <use xlink:href="#Cmmi10-74" transform="translate(44.161406 -16.615625) scale(0.7)"/>
    </g>
   </g>
   <g id="text_11">
    <!-- $\tilde{\mathbf{C}}_t$ -->
    <g transform="translate(305.23764 126.232987) scale(0.14 -0.14)">
     <defs>
      <path id="Cmr10-7e" d="M 531 3769 
L 716 3988 
Q 966 4275 1216 4275 
Q 1338 4275 1483 4203 
Q 1628 4131 1773 4059 
Q 1919 3988 2041 3988 
Q 2297 3988 2534 4275 
L 2663 4166 
L 2478 3950 
Q 2225 3659 1978 3659 
Q 1856 3659 1711 3732 
Q 1566 3806 1420 3878 
Q 1275 3950 1153 3950 
Q 897 3950 659 3659 
L 531 3769 
z
" transform="scale(0.015625)"/>
     </defs>
     <use xlink:href="#Cmr10-7e" transform="translate(19.757324 25.203125)"/>
     <use xlink:href="#Cmb10-43" transform="translate(0 0.203125)"/>
     <use xlink:href="#Cmmi10-74" transform="translate(76.680937 -16.803125) scale(0.7)"/>
    </g>
   </g>
   <g id="text_12">
    <!-- $\tanh$ -->
    <g transform="translate(428.429289 99.368122) scale(0.12 -0.12)">
     <use xlink:href="#Cmr10-74" transform="translate(0 0.609375)"/>
     <use xlink:href="#Cmr10-61" transform="translate(38.818359 0.609375)"/>
     <use xlink:href="#Cmr10-6e" transform="translate(88.818359 0.609375)"/>
     <use xlink:href="#Cmr10-68" transform="translate(144.335938 0.609375)"/>
    </g>
   </g>
   <g id="patch_35">
    <path d="M 441.329289 111.797232 
Q 441.329289 127.791469 441.329289 141.773245 
" style="fill: none; stroke: #7f7f7f; stroke-width: 1.8; stroke-linecap: round"/>
    <path d="M 443.729289 136.973245 
L 441.329289 141.773245 
L 438.929289 136.973245 
" style="fill: none; stroke: #7f7f7f; stroke-width: 1.8; stroke-linecap: round"/>
   </g>
   <g id="patch_36">
    <path d="M 403.755526 156.987299 
Q 415.941611 156.987299 426.115236 156.987299 
" style="fill: none; stroke: #7f7f7f; stroke-width: 1.8; stroke-linecap: round"/>
    <path d="M 421.315236 154.587299 
L 426.115236 156.987299 
L 421.315236 159.387299 
" style="fill: none; stroke: #7f7f7f; stroke-width: 1.8; stroke-linecap: round"/>
   </g>
   <g id="text_13">
    <!-- $\mathbf{O}_t$ -->
    <g transform="translate(408.101611 184.207087) scale(0.14 -0.14)">
     <defs>
      <path id="Cmb10-4f" d="M 2400 -72 
Q 1919 -72 1541 97 
Q 1163 266 894 577 
Q 625 888 492 1297 
Q 359 1706 359 2169 
Q 359 2803 593 3328 
Q 828 3853 1287 4156 
Q 1747 4459 2400 4459 
Q 3050 4459 3508 4156 
Q 3966 3853 4200 3328 
Q 4434 2803 4434 2169 
Q 4434 1534 4196 1025 
Q 3959 516 3496 222 
Q 3034 -72 2400 -72 
z
M 1600 769 
Q 1725 531 1937 378 
Q 2150 225 2400 225 
Q 2566 225 2720 298 
Q 2875 372 2997 495 
Q 3119 619 3194 769 
Q 3347 1081 3389 1422 
Q 3431 1763 3431 2284 
Q 3431 2763 3389 3077 
Q 3347 3391 3194 3675 
Q 3113 3825 2989 3937 
Q 2866 4050 2709 4114 
Q 2553 4178 2400 4178 
Q 2150 4178 1939 4039 
Q 1728 3900 1600 3675 
Q 1494 3488 1441 3252 
Q 1388 3016 1375 2808 
Q 1363 2600 1363 2284 
Q 1363 1938 1375 1711 
Q 1388 1484 1441 1229 
Q 1494 975 1600 769 
z
" transform="scale(0.015625)"/>
     </defs>
     <use xlink:href="#Cmb10-4f" transform="translate(0 0.328125)"/>
     <use xlink:href="#Cmmi10-74" transform="translate(79.464141 -16.678125) scale(0.7)"/>
    </g>
   </g>
   <g id="patch_37">
    <path d="M 454.530882 156.987299 
Q 461.258616 156.987299 465.750283 156.987299 
" style="fill: none; stroke: #7f7f7f; stroke-width: 2; stroke-linecap: round"/>
    <path d="M 460.150283 154.187299 
L 465.750283 156.987299 
L 460.150283 159.787299 
" style="fill: none; stroke: #7f7f7f; stroke-width: 2; stroke-linecap: round"/>
   </g>
   <g id="text_14">
    <!-- $\mathbf{H}_{t}$ -->
    <g transform="translate(491.670948 160.850424) scale(0.14 -0.14)">
     <use xlink:href="#Cmb10-48" transform="translate(0 0.390625)"/>
     <use xlink:href="#Cmmi10-74" transform="translate(82.784453 -16.615625) scale(0.7)"/>
    </g>
   </g>
   <g id="patch_38">
    <path d="M 149.370995 53.405573 
C 152.872098 53.405573 156.230277 52.01457 158.705931 49.538917 
C 161.181585 47.063263 162.572588 43.705084 162.572588 40.203981 
C 162.572588 36.702878 161.181585 33.344699 158.705931 30.869046 
C 156.230277 28.393392 152.872098 27.002389 149.370995 27.002389 
C 145.869892 27.002389 142.511714 28.393392 140.03606 30.869046 
C 137.560406 33.344699 136.169403 36.702878 136.169403 40.203981 
C 136.169403 43.705084 137.560406 47.063263 140.03606 49.538917 
C 142.511714 52.01457 145.869892 53.405573 149.370995 53.405573 
z
" clip-path="url(#pcfc7ecccf1)" style="fill: #ffffff; stroke: #7f7f7f; stroke-width: 1.6; stroke-linejoin: miter"/>
   </g>
   <g id="patch_39">
    <path d="M 255.999242 53.405573 
C 259.500345 53.405573 262.858523 52.01457 265.334177 49.538917 
C 267.809831 47.063263 269.200834 43.705084 269.200834 40.203981 
C 269.200834 36.702878 267.809831 33.344699 265.334177 30.869046 
C 262.858523 28.393392 259.500345 27.002389 255.999242 27.002389 
C 252.498138 27.002389 249.13996 28.393392 246.664306 30.869046 
C 244.188652 33.344699 242.797649 36.702878 242.797649 40.203981 
C 242.797649 43.705084 244.188652 47.063263 246.664306 49.538917 
C 249.13996 52.01457 252.498138 53.405573 255.999242 53.405573 
z
" clip-path="url(#pcfc7ecccf1)" style="fill: #ffffff; stroke: #7f7f7f; stroke-width: 1.6; stroke-linejoin: miter"/>
   </g>
   <g id="patch_40">
    <path d="M 106.211943 241.274389 
C 107.01989 241.274389 107.794854 240.953388 108.366159 240.382083 
C 108.937464 239.810778 109.258464 239.035814 109.258464 238.227867 
C 109.258464 237.41992 108.937464 236.644956 108.366159 236.073651 
C 107.794854 235.502347 107.01989 235.181346 106.211943 235.181346 
C 105.403996 235.181346 104.629032 235.502347 104.057727 236.073651 
C 103.486423 236.644956 103.165422 237.41992 103.165422 238.227867 
C 103.165422 239.035814 103.486423 239.810778 104.057727 240.382083 
C 104.629032 240.953388 105.403996 241.274389 106.211943 241.274389 
z
" clip-path="url(#pcfc7ecccf1)" style="fill: #7f7f7f"/>
   </g>
   <g id="patch_41">
    <path d="M 149.370995 241.274389 
C 150.178942 241.274389 150.953906 240.953388 151.525211 240.382083 
C 152.096516 239.810778 152.417517 239.035814 152.417517 238.227867 
C 152.417517 237.41992 152.096516 236.644956 151.525211 236.073651 
C 150.953906 235.502347 150.178942 235.181346 149.370995 235.181346 
C 148.563048 235.181346 147.788084 235.502347 147.216779 236.073651 
C 146.645475 236.644956 146.324474 237.41992 146.324474 238.227867 
C 146.324474 239.035814 146.645475 239.810778 147.216779 240.382083 
C 147.788084 240.953388 148.563048 241.274389 149.370995 241.274389 
z
" clip-path="url(#pcfc7ecccf1)" style="fill: #7f7f7f"/>
   </g>
   <g id="patch_42">
    <path d="M 225.534028 241.274389 
C 226.341975 241.274389 227.11694 240.953388 227.688244 240.382083 
C 228.259549 239.810778 228.58055 239.035814 228.58055 238.227867 
C 228.58055 237.41992 228.259549 236.644956 227.688244 236.073651 
C 227.11694 235.502347 226.341975 235.181346 225.534028 235.181346 
C 224.726082 235.181346 223.951117 235.502347 223.379813 236.073651 
C 222.808508 236.644956 222.487507 237.41992 222.487507 238.227867 
C 222.487507 239.035814 222.808508 239.810778 223.379813 240.382083 
C 223.951117 240.953388 224.726082 241.274389 225.534028 241.274389 
z
" clip-path="url(#pcfc7ecccf1)" style="fill: #7f7f7f"/>
   </g>
   <g id="patch_43">
    <path d="M 286.464455 241.274389 
C 287.272402 241.274389 288.047366 240.953388 288.618671 240.382083 
C 289.189976 239.810778 289.510976 239.035814 289.510976 238.227867 
C 289.510976 237.41992 289.189976 236.644956 288.618671 236.073651 
C 288.047366 235.502347 287.272402 235.181346 286.464455 235.181346 
C 285.656508 235.181346 284.881544 235.502347 284.310239 236.073651 
C 283.738934 236.644956 283.417934 237.41992 283.417934 238.227867 
C 283.417934 239.035814 283.738934 239.810778 284.310239 240.382083 
C 284.881544 240.953388 285.656508 241.274389 286.464455 241.274389 
z
" clip-path="url(#pcfc7ecccf1)" style="fill: #7f7f7f"/>
   </g>
   <g id="patch_44">
    <path d="M 255.999242 109.258464 
C 259.500345 109.258464 262.858523 107.867461 265.334177 105.391808 
C 267.809831 102.916154 269.200834 99.557975 269.200834 96.056872 
C 269.200834 92.555769 267.809831 89.19759 265.334177 86.721937 
C 262.858523 84.246283 259.500345 82.85528 255.999242 82.85528 
C 252.498138 82.85528 249.13996 84.246283 246.664306 86.721937 
C 244.188652 89.19759 242.797649 92.555769 242.797649 96.056872 
C 242.797649 99.557975 244.188652 102.916154 246.664306 105.391808 
C 249.13996 107.867461 252.498138 109.258464 255.999242 109.258464 
z
" clip-path="url(#pcfc7ecccf1)" style="fill: #ffffff; stroke: #7f7f7f; stroke-width: 1.6; stroke-linejoin: miter"/>
   </g>
   <g id="patch_45">
    <path d="M 441.329289 43.250502 
C 442.137236 43.250502 442.9122 42.929502 443.483505 42.358197 
C 444.05481 41.786892 444.37581 41.011928 444.37581 40.203981 
C 444.37581 39.396034 444.05481 38.62107 443.483505 38.049765 
C 442.9122 37.47846 442.137236 37.15746 441.329289 37.15746 
C 440.521342 37.15746 439.746378 37.47846 439.175073 38.049765 
C 438.603768 38.62107 438.282768 39.396034 438.282768 40.203981 
C 438.282768 41.011928 438.603768 41.786892 439.175073 42.358197 
C 439.746378 42.929502 440.521342 43.250502 441.329289 43.250502 
z
" clip-path="url(#pcfc7ecccf1)" style="fill: #7f7f7f"/>
   </g>
   <g id="patch_46">
    <path d="M 441.329289 170.188891 
C 444.830392 170.188891 448.188571 168.797888 450.664225 166.322234 
C 453.139878 163.84658 454.530882 160.488402 454.530882 156.987299 
C 454.530882 153.486195 453.139878 150.128017 450.664225 147.652363 
C 448.188571 145.176709 444.830392 143.785706 441.329289 143.785706 
C 437.828186 143.785706 434.470007 145.176709 431.994354 147.652363 
C 429.5187 150.128017 428.127697 153.486195 428.127697 156.987299 
C 428.127697 160.488402 429.5187 163.84658 431.994354 166.322234 
C 434.470007 168.797888 437.828186 170.188891 441.329289 170.188891 
z
" clip-path="url(#pcfc7ecccf1)" style="fill: #ffffff; stroke: #7f7f7f; stroke-width: 1.6; stroke-linejoin: miter"/>
   </g>
   <g id="text_15">
    <!-- $\odot$ -->
    <g transform="translate(144.300995 43.791169) scale(0.13 -0.13)">
     <defs>
      <path id="Cmsy10-af" d="M 2491 -531 
Q 2053 -531 1668 -365 
Q 1284 -200 986 95 
Q 688 391 523 780 
Q 359 1169 359 1600 
Q 359 2038 521 2422 
Q 684 2806 984 3106 
Q 1284 3406 1668 3568 
Q 2053 3731 2491 3731 
Q 2925 3731 3312 3565 
Q 3700 3400 3994 3104 
Q 4288 2809 4452 2421 
Q 4616 2034 4616 1600 
Q 4616 1172 4450 780 
Q 4284 388 3992 95 
Q 3700 -197 3312 -364 
Q 2925 -531 2491 -531 
z
M 2491 -347 
Q 2878 -347 3234 -195 
Q 3591 -44 3859 225 
Q 4128 494 4278 848 
Q 4428 1203 4428 1600 
Q 4428 1997 4276 2355 
Q 4125 2713 3862 2977 
Q 3600 3241 3245 3394 
Q 2891 3547 2491 3547 
Q 2091 3547 1734 3394 
Q 1378 3241 1115 2978 
Q 853 2716 698 2350 
Q 544 1984 544 1600 
Q 544 1216 695 855 
Q 847 494 1117 225 
Q 1388 -44 1745 -195 
Q 2103 -347 2491 -347 
z
M 2491 1141 
Q 2306 1141 2167 1277 
Q 2028 1413 2028 1600 
Q 2028 1728 2090 1831 
Q 2153 1934 2259 1996 
Q 2366 2059 2491 2059 
Q 2609 2059 2714 1996 
Q 2819 1934 2881 1831 
Q 2944 1728 2944 1600 
Q 2944 1413 2808 1277 
Q 2672 1141 2491 1141 
z
" transform="scale(0.015625)"/>
     </defs>
     <use xlink:href="#Cmsy10-af" transform="translate(0 0.703125)"/>
    </g>
   </g>
   <g id="text_16">
    <!-- $+$ -->
    <g transform="translate(250.929242 43.791169) scale(0.13 -0.13)">
     <defs>
      <path id="Cmr10-2b" d="M 481 1472 
Q 428 1472 393 1512 
Q 359 1553 359 1600 
Q 359 1647 393 1687 
Q 428 1728 481 1728 
L 2363 1728 
L 2363 3616 
Q 2363 3666 2400 3698 
Q 2438 3731 2491 3731 
Q 2538 3731 2578 3698 
Q 2619 3666 2619 3616 
L 2619 1728 
L 4500 1728 
Q 4547 1728 4581 1687 
Q 4616 1647 4616 1600 
Q 4616 1553 4581 1512 
Q 4547 1472 4500 1472 
L 2619 1472 
L 2619 -416 
Q 2619 -466 2578 -498 
Q 2538 -531 2491 -531 
Q 2438 -531 2400 -498 
Q 2363 -466 2363 -416 
L 2363 1472 
L 481 1472 
z
" transform="scale(0.015625)"/>
     </defs>
     <use xlink:href="#Cmr10-2b" transform="translate(0 0.703125)"/>
    </g>
   </g>
   <g id="text_17">
    <!-- $\odot$ -->
    <g transform="translate(250.929242 99.64406) scale(0.13 -0.13)">
     <use xlink:href="#Cmsy10-af" transform="translate(0 0.703125)"/>
    </g>
   </g>
   <g id="text_18">
    <!-- $\odot$ -->
    <g transform="translate(436.259289 160.574486) scale(0.13 -0.13)">
     <use xlink:href="#Cmsy10-af" transform="translate(0 0.703125)"/>
    </g>
   </g>
  </g>
 </g>
 <defs>
  <clipPath id="pcfc7ecccf1">
   <rect x="7.2" y="7.2" width="535.68" height="289.419526"/>
  </clipPath>
 </defs>
</svg>
