<?xml version="1.0" encoding="utf-8" standalone="no"?>
<!DOCTYPE svg PUBLIC "-//W3C//DTD SVG 1.1//EN"
  "http://www.w3.org/Graphics/SVG/1.1/DTD/svg11.dtd">
<svg xmlns:xlink="http://www.w3.org/1999/xlink" width="253.2pt" height="302.688pt" viewBox="0 0 253.2 302.688" xmlns="http://www.w3.org/2000/svg" version="1.1">
 <metadata>
  <rdf:RDF xmlns:dc="http://purl.org/dc/elements/1.1/" xmlns:cc="http://creativecommons.org/ns#" xmlns:rdf="http://www.w3.org/1999/02/22-rdf-syntax-ns#">
   <cc:Work>
    <dc:type rdf:resource="http://purl.org/dc/dcmitype/StillImage"/>
    <dc:format>image/svg+xml</dc:format>
    <dc:creator>
     <cc:Agent>
      <dc:title>Matplotlib v3.10.8, https://matplotlib.org/</dc:title>
     </cc:Agent>
    </dc:creator>
   </cc:Work>
  </rdf:RDF>
 </metadata>
 <defs>
  <style type="text/css">*{stroke-linejoin: round; stroke-linecap: butt}</style>
 </defs>
 <g id="figure_1">
  <g id="patch_1">
   <path d="M -0 302.688 
L 253.2 302.688 
L 253.2 0 
L -0 0 
z
" style="fill: #ffffff"/>
  </g>
  <g id="axes_1">
   <g id="patch_2">
    <path d="M 53.2176 73.2816 
L 199.9824 73.2816 
Q 206.7216 73.2816 206.7216 66.5424 
L 206.7216 30.2256 
Q 206.7216 23.4864 199.9824 23.4864 
L 53.2176 23.4864 
Q 46.4784 23.4864 46.4784 30.2256 
L 46.4784 66.5424 
Q 46.4784 73.2816 53.2176 73.2816 
z
" clip-path="url(#pe09a03ee21)" style="fill: #1f77b4; opacity: 0.12; stroke: #1f77b4; stroke-width: 1.8; stroke-linejoin: miter"/>
   </g>
   <g id="patch_3">
    <path d="M 53.2176 73.2816 
L 199.9824 73.2816 
Q 206.7216 73.2816 206.7216 66.5424 
L 206.7216 30.2256 
Q 206.7216 23.4864 199.9824 23.4864 
L 53.2176 23.4864 
Q 46.4784 23.4864 46.4784 30.2256 
L 46.4784 66.5424 
Q 46.4784 73.2816 53.2176 73.2816 
L 53.2176 73.2816 
z
" clip-path="url(#pe09a03ee21)" style="fill: none; stroke: #1f77b4; stroke-width: 1.8; stroke-linejoin: miter"/>
   </g>
   <g id="patch_4">
    <path d="M 53.2176 176.2416 
L 199.9824 176.2416 
Q 206.7216 176.2416 206.7216 169.5024 
L 206.7216 133.1856 
Q 206.7216 126.4464 199.9824 126.4464 
L 53.2176 126.4464 
Q 46.4784 126.4464 46.4784 133.1856 
L 46.4784 169.5024 
Q 46.4784 176.2416 53.2176 176.2416 
z
" clip-path="url(#pe09a03ee21)" style="fill: #2ca02c; opacity: 0.12; stroke: #2ca02c; stroke-width: 1.8; stroke-linejoin: miter"/>
   </g>
   <g id="patch_5">
    <path d="M 53.2176 176.2416 
L 199.9824 176.2416 
Q 206.7216 176.2416 206.7216 169.5024 
L 206.7216 133.1856 
Q 206.7216 126.4464 199.9824 126.4464 
L 53.2176 126.4464 
Q 46.4784 126.4464 46.4784 133.1856 
L 46.4784 169.5024 
Q 46.4784 176.2416 53.2176 176.2416 
L 53.2176 176.2416 
z
" clip-path="url(#pe09a03ee21)" style="fill: none; stroke: #2ca02c; stroke-width: 1.8; stroke-linejoin: miter"/>
   </g>
   <g id="patch_6">
    <path d="M 53.2176 279.2016 
L 199.9824 279.2016 
Q 206.7216 279.2016 206.7216 272.4624 
L 206.7216 236.1456 
Q 206.7216 229.4064 199.9824 229.4064 
L 53.2176 229.4064 
Q 46.4784 229.4064 46.4784 236.1456 
L 46.4784 272.4624 
Q 46.4784 279.2016 53.2176 279.2016 
z
" clip-path="url(#pe09a03ee21)" style="fill: #ff7f0e; opacity: 0.12; stroke: #ff7f0e; stroke-width: 1.8; stroke-linejoin: miter"/>
   </g>
   <g id="patch_7">
    <path d="M 53.2176 279.2016 
L 199.9824 279.2016 
Q 206.7216 279.2016 206.7216 272.4624 
L 206.7216 236.1456 
Q 206.7216 229.4064 199.9824 229.4064 
L 53.2176 229.4064 
Q 46.4784 229.4064 46.4784 236.1456 
L 46.4784 272.4624 
Q 46.4784 279.2016 53.2176 279.2016 
L 53.2176 279.2016 
z
" clip-path="url(#pe09a03ee21)" style="fill: none; stroke: #ff7f0e; stroke-width: 1.8; stroke-linejoin: miter"/>
   </g>
   <g id="text_1">
    <!-- $\mathbf{X}$ -->
    <g style="fill: #1f77b4" transform="translate(121.66 42.985588) scale(0.13 -0.13)">
     <defs>
      <path id="Cmb10-58" d="M 184 0 
L 184 325 
Q 856 325 909 384 
L 2009 2106 
L 825 4063 
L 269 4063 
L 269 4391 
L 2291 4391 
L 2291 4063 
L 1838 4063 
L 2528 2919 
L 3225 4013 
Q 3225 4028 3158 4036 
Q 3091 4044 3053 4044 
Q 2872 4063 2688 4063 
L 2688 4391 
L 4384 4391 
L 4384 4063 
Q 4159 4063 3925 4053 
Q 3691 4044 3653 4006 
L 2741 2572 
L 4091 325 
L 4653 325 
L 4653 0 
L 2625 0 
L 2625 325 
L 3084 325 
L 2222 1759 
L 1344 378 
Q 1344 369 1411 358 
Q 1478 347 1509 347 
Q 1681 325 1881 325 
L 1881 0 
L 184 0 
z
" transform="scale(0.015625)"/>
     </defs>
     <use xlink:href="#Cmb10-58" transform="translate(0 0.390625)"/>
    </g>
   </g>
   <g id="text_2">
    <!-- input  $n \times 784$ -->
    <g transform="translate(87.96 64.4136) scale(0.12 -0.12)">
     <defs>
      <path id="DejaVuSans-69" d="M 603 3500 
L 1178 3500 
L 1178 0 
L 603 0 
L 603 3500 
z
M 603 4863 
L 1178 4863 
L 1178 4134 
L 603 4134 
L 603 4863 
z
" transform="scale(0.015625)"/>
      <path id="DejaVuSans-6e" d="M 3513 2113 
L 3513 0 
L 2938 0 
L 2938 2094 
Q 2938 2591 2744 2837 
Q 2550 3084 2163 3084 
Q 1697 3084 1428 2787 
Q 1159 2491 1159 1978 
L 1159 0 
L 581 0 
L 581 3500 
L 1159 3500 
L 1159 2956 
Q 1366 3272 1645 3428 
Q 1925 3584 2291 3584 
Q 2894 3584 3203 3211 
Q 3513 2838 3513 2113 
z
" transform="scale(0.015625)"/>
      <path id="DejaVuSans-70" d="M 1159 525 
L 1159 -1331 
L 581 -1331 
L 581 3500 
L 1159 3500 
L 1159 2969 
Q 1341 3281 1617 3432 
Q 1894 3584 2278 3584 
Q 2916 3584 3314 3078 
Q 3713 2572 3713 1747 
Q 3713 922 3314 415 
Q 2916 -91 2278 -91 
Q 1894 -91 1617 61 
Q 1341 213 1159 525 
z
M 3116 1747 
Q 3116 2381 2855 2742 
Q 2594 3103 2138 3103 
Q 1681 3103 1420 2742 
Q 1159 2381 1159 1747 
Q 1159 1113 1420 752 
Q 1681 391 2138 391 
Q 2594 391 2855 752 
Q 3116 1113 3116 1747 
z
" transform="scale(0.015625)"/>
      <path id="DejaVuSans-75" d="M 544 1381 
L 544 3500 
L 1119 3500 
L 1119 1403 
Q 1119 906 1312 657 
Q 1506 409 1894 409 
Q 2359 409 2629 706 
Q 2900 1003 2900 1516 
L 2900 3500 
L 3475 3500 
L 3475 0 
L 2900 0 
L 2900 538 
Q 2691 219 2414 64 
Q 2138 -91 1772 -91 
Q 1169 -91 856 284 
Q 544 659 544 1381 
z
M 1991 3584 
L 1991 3584 
z
" transform="scale(0.015625)"/>
      <path id="DejaVuSans-74" d="M 1172 4494 
L 1172 3500 
L 2356 3500 
L 2356 3053 
L 1172 3053 
L 1172 1153 
Q 1172 725 1289 603 
Q 1406 481 1766 481 
L 2356 481 
L 2356 0 
L 1766 0 
Q 1100 0 847 248 
Q 594 497 594 1153 
L 594 3053 
L 172 3053 
L 172 3500 
L 594 3500 
L 594 4494 
L 1172 4494 
z
" transform="scale(0.015625)"/>
      <path id="DejaVuSans-20" transform="scale(0.015625)"/>
      <path id="Cmmi10-6e" d="M 494 109 
Q 494 147 500 166 
L 978 2075 
Q 1025 2253 1025 2388 
Q 1025 2663 838 2663 
Q 638 2663 541 2423 
Q 444 2184 353 1819 
Q 353 1800 334 1789 
Q 316 1778 300 1778 
L 225 1778 
Q 203 1778 187 1801 
Q 172 1825 172 1844 
Q 241 2122 305 2315 
Q 369 2509 505 2668 
Q 641 2828 844 2828 
Q 1084 2828 1268 2676 
Q 1453 2525 1453 2291 
Q 1644 2541 1900 2684 
Q 2156 2828 2444 2828 
Q 2672 2828 2837 2750 
Q 3003 2672 3095 2514 
Q 3188 2356 3188 2138 
Q 3188 1875 3070 1503 
Q 2953 1131 2778 672 
Q 2688 463 2688 288 
Q 2688 97 2834 97 
Q 3084 97 3251 365 
Q 3419 634 3488 941 
Q 3500 978 3541 978 
L 3616 978 
Q 3641 978 3658 962 
Q 3675 947 3675 922 
Q 3675 916 3669 903 
Q 3581 541 3364 234 
Q 3147 -72 2822 -72 
Q 2597 -72 2437 83 
Q 2278 238 2278 459 
Q 2278 578 2328 709 
Q 2409 919 2514 1209 
Q 2619 1500 2686 1765 
Q 2753 2031 2753 2234 
Q 2753 2413 2679 2538 
Q 2606 2663 2431 2663 
Q 2197 2663 2000 2559 
Q 1803 2456 1656 2286 
Q 1509 2116 1388 1881 
L 953 141 
Q 931 53 854 -9 
Q 778 -72 684 -72 
Q 606 -72 550 -22 
Q 494 28 494 109 
z
" transform="scale(0.015625)"/>
      <path id="Cmsy10-a3" d="M 941 184 
Q 941 234 972 275 
L 2303 1600 
L 972 2931 
Q 941 2963 941 3016 
Q 941 3063 978 3103 
Q 1016 3144 1069 3144 
Q 1113 3144 1166 3103 
L 2491 1778 
L 3809 3103 
Q 3863 3144 3903 3144 
Q 3956 3144 3993 3106 
Q 4031 3069 4031 3016 
Q 4031 2963 4000 2931 
L 2669 1600 
L 4000 275 
Q 4031 234 4031 184 
Q 4031 131 3993 93 
Q 3956 56 3903 56 
Q 3856 56 3809 103 
L 2491 1422 
L 1166 103 
Q 1119 56 1069 56 
Q 1016 56 978 97 
Q 941 138 941 184 
z
" transform="scale(0.015625)"/>
      <path id="Cmr10-37" d="M 1113 166 
Q 1113 522 1175 862 
Q 1238 1203 1358 1536 
Q 1478 1869 1648 2189 
Q 1819 2509 2022 2791 
L 2606 3603 
L 1875 3603 
Q 738 3603 703 3572 
Q 619 3469 544 2981 
L 359 2981 
L 569 4325 
L 756 4325 
L 756 4306 
Q 756 4191 1147 4156 
Q 1538 4122 1913 4122 
L 3103 4122 
L 3103 3956 
Q 3103 3950 3101 3947 
Q 3100 3944 3097 3938 
L 2216 2700 
Q 1891 2219 1809 1631 
Q 1728 1044 1728 166 
Q 1728 41 1637 -50 
Q 1547 -141 1422 -141 
Q 1294 -141 1203 -50 
Q 1113 41 1113 166 
z
" transform="scale(0.015625)"/>
      <path id="Cmr10-38" d="M 269 972 
Q 269 1356 522 1651 
Q 775 1947 1172 2144 
L 934 2297 
Q 716 2441 578 2680 
Q 441 2919 441 3181 
Q 441 3488 602 3734 
Q 763 3981 1030 4122 
Q 1297 4263 1600 4263 
Q 1884 4263 2148 4147 
Q 2413 4031 2583 3815 
Q 2753 3600 2753 3303 
Q 2753 3088 2651 2903 
Q 2550 2719 2373 2572 
Q 2197 2425 1997 2322 
L 2363 2088 
Q 2616 1922 2770 1653 
Q 2925 1384 2925 1088 
Q 2925 741 2739 456 
Q 2553 172 2247 15 
Q 1941 -141 1600 -141 
Q 1269 -141 961 -6 
Q 653 128 461 383 
Q 269 638 269 972 
z
M 616 972 
Q 616 719 755 509 
Q 894 300 1122 181 
Q 1350 63 1600 63 
Q 1972 63 2275 280 
Q 2578 497 2578 856 
Q 2578 978 2529 1098 
Q 2481 1219 2395 1317 
Q 2309 1416 2203 1478 
L 1344 2034 
Q 1144 1928 976 1765 
Q 809 1603 712 1400 
Q 616 1197 616 972 
z
M 1056 2925 
L 1831 2425 
Q 2100 2581 2272 2803 
Q 2444 3025 2444 3303 
Q 2444 3519 2323 3698 
Q 2203 3878 2009 3978 
Q 1816 4078 1594 4078 
Q 1400 4078 1203 4003 
Q 1006 3928 878 3779 
Q 750 3631 750 3431 
Q 750 3131 1056 2925 
z
" transform="scale(0.015625)"/>
      <path id="Cmr10-34" d="M 178 1056 
L 178 1281 
L 2156 4231 
Q 2178 4263 2222 4263 
L 2316 4263 
Q 2388 4263 2388 4191 
L 2388 1281 
L 3016 1281 
L 3016 1056 
L 2388 1056 
L 2388 428 
Q 2388 297 2575 261 
Q 2763 225 3009 225 
L 3009 0 
L 1247 0 
L 1247 225 
Q 1494 225 1681 261 
Q 1869 297 1869 428 
L 1869 1056 
L 178 1056 
z
M 391 1281 
L 1906 1281 
L 1906 3547 
L 391 1281 
z
" transform="scale(0.015625)"/>
     </defs>
     <use xlink:href="#DejaVuSans-69" transform="translate(0 0.015625)"/>
     <use xlink:href="#DejaVuSans-6e" transform="translate(27.783203 0.015625)"/>
     <use xlink:href="#DejaVuSans-70" transform="translate(91.162109 0.015625)"/>
     <use xlink:href="#DejaVuSans-75" transform="translate(154.638672 0.015625)"/>
     <use xlink:href="#DejaVuSans-74" transform="translate(218.017578 0.015625)"/>
     <use xlink:href="#DejaVuSans-20" transform="translate(257.226562 0.015625)"/>
     <use xlink:href="#DejaVuSans-20" transform="translate(289.013672 0.015625)"/>
     <use xlink:href="#Cmmi10-6e" transform="translate(320.800781 0.015625)"/>
     <use xlink:href="#Cmsy10-a3" transform="translate(398.369141 0.015625)"/>
     <use xlink:href="#Cmr10-37" transform="translate(493.613281 0.015625)"/>
     <use xlink:href="#Cmr10-38" transform="translate(543.613281 0.015625)"/>
     <use xlink:href="#Cmr10-34" transform="translate(593.613281 0.015625)"/>
    </g>
   </g>
   <g id="text_3">
    <!-- $\mathbf{H}$ -->
    <g style="fill: #2ca02c" transform="translate(121.465 145.945588) scale(0.13 -0.13)">
     <defs>
      <path id="Cmb10-48" d="M 219 0 
L 219 325 
L 819 325 
L 819 4063 
L 219 4063 
L 219 4391 
L 2356 4391 
L 2356 4063 
L 1753 4063 
L 1753 2444 
L 3250 2444 
L 3250 4063 
L 2650 4063 
L 2650 4391 
L 4788 4391 
L 4788 4063 
L 4184 4063 
L 4184 325 
L 4788 325 
L 4788 0 
L 2650 0 
L 2650 325 
L 3250 325 
L 3250 2119 
L 1753 2119 
L 1753 325 
L 2356 325 
L 2356 0 
L 219 0 
z
" transform="scale(0.015625)"/>
     </defs>
     <use xlink:href="#Cmb10-48" transform="translate(0 0.390625)"/>
    </g>
   </g>
   <g id="text_4">
    <!-- hidden  $n \times 256$ -->
    <g transform="translate(82.8 167.38485) scale(0.12 -0.12)">
     <defs>
      <path id="DejaVuSans-68" d="M 3513 2113 
L 3513 0 
L 2938 0 
L 2938 2094 
Q 2938 2591 2744 2837 
Q 2550 3084 2163 3084 
Q 1697 3084 1428 2787 
Q 1159 2491 1159 1978 
L 1159 0 
L 581 0 
L 581 4863 
L 1159 4863 
L 1159 2956 
Q 1366 3272 1645 3428 
Q 1925 3584 2291 3584 
Q 2894 3584 3203 3211 
Q 3513 2838 3513 2113 
z
" transform="scale(0.015625)"/>
      <path id="DejaVuSans-64" d="M 2906 2969 
L 2906 4863 
L 3481 4863 
L 3481 0 
L 2906 0 
L 2906 525 
Q 2725 213 2448 61 
Q 2172 -91 1784 -91 
Q 1150 -91 751 415 
Q 353 922 353 1747 
Q 353 2572 751 3078 
Q 1150 3584 1784 3584 
Q 2172 3584 2448 3432 
Q 2725 3281 2906 2969 
z
M 947 1747 
Q 947 1113 1208 752 
Q 1469 391 1925 391 
Q 2381 391 2643 752 
Q 2906 1113 2906 1747 
Q 2906 2381 2643 2742 
Q 2381 3103 1925 3103 
Q 1469 3103 1208 2742 
Q 947 2381 947 1747 
z
" transform="scale(0.015625)"/>
      <path id="DejaVuSans-65" d="M 3597 1894 
L 3597 1613 
L 953 1613 
Q 991 1019 1311 708 
Q 1631 397 2203 397 
Q 2534 397 2845 478 
Q 3156 559 3463 722 
L 3463 178 
Q 3153 47 2828 -22 
Q 2503 -91 2169 -91 
Q 1331 -91 842 396 
Q 353 884 353 1716 
Q 353 2575 817 3079 
Q 1281 3584 2069 3584 
Q 2775 3584 3186 3129 
Q 3597 2675 3597 1894 
z
M 3022 2063 
Q 3016 2534 2758 2815 
Q 2500 3097 2075 3097 
Q 1594 3097 1305 2825 
Q 1016 2553 972 2059 
L 3022 2063 
z
" transform="scale(0.015625)"/>
      <path id="Cmr10-32" d="M 319 0 
L 319 172 
Q 319 188 331 206 
L 1325 1306 
Q 1550 1550 1690 1715 
Q 1831 1881 1968 2097 
Q 2106 2313 2186 2536 
Q 2266 2759 2266 3009 
Q 2266 3272 2169 3511 
Q 2072 3750 1880 3894 
Q 1688 4038 1416 4038 
Q 1138 4038 916 3870 
Q 694 3703 603 3438 
Q 628 3444 672 3444 
Q 816 3444 917 3347 
Q 1019 3250 1019 3097 
Q 1019 2950 917 2848 
Q 816 2747 672 2747 
Q 522 2747 420 2851 
Q 319 2956 319 3097 
Q 319 3338 409 3548 
Q 500 3759 670 3923 
Q 841 4088 1055 4175 
Q 1269 4263 1509 4263 
Q 1875 4263 2190 4108 
Q 2506 3953 2690 3670 
Q 2875 3388 2875 3009 
Q 2875 2731 2753 2481 
Q 2631 2231 2440 2026 
Q 2250 1822 1953 1562 
Q 1656 1303 1563 1216 
L 838 519 
L 1453 519 
Q 1906 519 2211 526 
Q 2516 534 2534 550 
Q 2609 631 2688 1141 
L 2875 1141 
L 2694 0 
L 319 0 
z
" transform="scale(0.015625)"/>
      <path id="Cmr10-35" d="M 556 728 
Q 622 541 758 387 
Q 894 234 1080 148 
Q 1266 63 1466 63 
Q 1928 63 2103 422 
Q 2278 781 2278 1294 
Q 2278 1516 2270 1667 
Q 2263 1819 2228 1959 
Q 2169 2184 2020 2353 
Q 1872 2522 1656 2522 
Q 1441 2522 1286 2456 
Q 1131 2391 1034 2303 
Q 938 2216 863 2119 
Q 788 2022 769 2016 
L 697 2016 
Q 681 2016 657 2036 
Q 634 2056 634 2075 
L 634 4213 
Q 634 4228 654 4245 
Q 675 4263 697 4263 
L 716 4263 
Q 1147 4056 1631 4056 
Q 2106 4056 2547 4263 
L 2566 4263 
Q 2588 4263 2606 4247 
Q 2625 4231 2625 4213 
L 2625 4153 
Q 2625 4122 2613 4122 
Q 2394 3831 2064 3668 
Q 1734 3506 1381 3506 
Q 1125 3506 856 3578 
L 856 2369 
Q 1069 2541 1236 2614 
Q 1403 2688 1663 2688 
Q 2016 2688 2295 2484 
Q 2575 2281 2725 1954 
Q 2875 1628 2875 1288 
Q 2875 903 2686 575 
Q 2497 247 2172 53 
Q 1847 -141 1466 -141 
Q 1150 -141 886 21 
Q 622 184 470 459 
Q 319 734 319 1044 
Q 319 1188 412 1278 
Q 506 1369 647 1369 
Q 788 1369 883 1276 
Q 978 1184 978 1044 
Q 978 906 883 811 
Q 788 716 647 716 
Q 625 716 597 720 
Q 569 725 556 728 
z
" transform="scale(0.015625)"/>
      <path id="Cmr10-36" d="M 1600 -141 
Q 1203 -141 937 70 
Q 672 281 526 617 
Q 381 953 325 1322 
Q 269 1691 269 2069 
Q 269 2575 466 3084 
Q 663 3594 1045 3928 
Q 1428 4263 1953 4263 
Q 2172 4263 2361 4180 
Q 2550 4097 2658 3936 
Q 2766 3775 2766 3547 
Q 2766 3416 2677 3327 
Q 2588 3238 2456 3238 
Q 2331 3238 2240 3328 
Q 2150 3419 2150 3547 
Q 2150 3672 2240 3762 
Q 2331 3853 2456 3853 
L 2491 3853 
Q 2409 3969 2261 4023 
Q 2113 4078 1953 4078 
Q 1759 4078 1595 3993 
Q 1431 3909 1300 3765 
Q 1169 3622 1081 3448 
Q 994 3275 945 3053 
Q 897 2831 884 2637 
Q 872 2444 872 2150 
Q 984 2413 1190 2580 
Q 1397 2747 1656 2747 
Q 1941 2747 2175 2631 
Q 2409 2516 2578 2311 
Q 2747 2106 2836 1843 
Q 2925 1581 2925 1313 
Q 2925 938 2758 598 
Q 2591 259 2287 59 
Q 1984 -141 1600 -141 
z
M 1600 63 
Q 1847 63 1997 175 
Q 2147 288 2217 473 
Q 2288 659 2305 848 
Q 2322 1038 2322 1313 
Q 2322 1675 2287 1931 
Q 2253 2188 2100 2383 
Q 1947 2578 1631 2578 
Q 1372 2578 1205 2403 
Q 1038 2228 961 1961 
Q 884 1694 884 1447 
Q 884 1363 891 1319 
Q 891 1309 889 1303 
Q 888 1297 884 1288 
Q 884 1013 940 731 
Q 997 450 1156 256 
Q 1316 63 1600 63 
z
" transform="scale(0.015625)"/>
     </defs>
     <use xlink:href="#DejaVuSans-68" transform="translate(0 0.015625)"/>
     <use xlink:href="#DejaVuSans-69" transform="translate(63.378906 0.015625)"/>
     <use xlink:href="#DejaVuSans-64" transform="translate(91.162109 0.015625)"/>
     <use xlink:href="#DejaVuSans-64" transform="translate(154.638672 0.015625)"/>
     <use xlink:href="#DejaVuSans-65" transform="translate(218.115234 0.015625)"/>
     <use xlink:href="#DejaVuSans-6e" transform="translate(279.638672 0.015625)"/>
     <use xlink:href="#DejaVuSans-20" transform="translate(343.017578 0.015625)"/>
     <use xlink:href="#DejaVuSans-20" transform="translate(374.804688 0.015625)"/>
     <use xlink:href="#Cmmi10-6e" transform="translate(406.591797 0.015625)"/>
     <use xlink:href="#Cmsy10-a3" transform="translate(484.160156 0.015625)"/>
     <use xlink:href="#Cmr10-32" transform="translate(579.404297 0.015625)"/>
     <use xlink:href="#Cmr10-35" transform="translate(629.404297 0.015625)"/>
     <use xlink:href="#Cmr10-36" transform="translate(679.404297 0.015625)"/>
    </g>
   </g>
   <g id="text_5">
    <!-- $\mathbf{O}$ -->
    <g style="fill: #ff7f0e" transform="translate(121.725 248.905588) scale(0.13 -0.13)">
     <defs>
      <path id="Cmb10-4f" d="M 2400 -72 
Q 1919 -72 1541 97 
Q 1163 266 894 577 
Q 625 888 492 1297 
Q 359 1706 359 2169 
Q 359 2803 593 3328 
Q 828 3853 1287 4156 
Q 1747 4459 2400 4459 
Q 3050 4459 3508 4156 
Q 3966 3853 4200 3328 
Q 4434 2803 4434 2169 
Q 4434 1534 4196 1025 
Q 3959 516 3496 222 
Q 3034 -72 2400 -72 
z
M 1600 769 
Q 1725 531 1937 378 
Q 2150 225 2400 225 
Q 2566 225 2720 298 
Q 2875 372 2997 495 
Q 3119 619 3194 769 
Q 3347 1081 3389 1422 
Q 3431 1763 3431 2284 
Q 3431 2763 3389 3077 
Q 3347 3391 3194 3675 
Q 3113 3825 2989 3937 
Q 2866 4050 2709 4114 
Q 2553 4178 2400 4178 
Q 2150 4178 1939 4039 
Q 1728 3900 1600 3675 
Q 1494 3488 1441 3252 
Q 1388 3016 1375 2808 
Q 1363 2600 1363 2284 
Q 1363 1938 1375 1711 
Q 1388 1484 1441 1229 
Q 1494 975 1600 769 
z
" transform="scale(0.015625)"/>
     </defs>
     <use xlink:href="#Cmb10-4f" transform="translate(0 0.328125)"/>
    </g>
   </g>
   <g id="text_6">
    <!-- logits  $n \times 10$ -->
    <g transform="translate(90.12 270.3336) scale(0.12 -0.12)">
     <defs>
      <path id="DejaVuSans-6c" d="M 603 4863 
L 1178 4863 
L 1178 0 
L 603 0 
L 603 4863 
z
" transform="scale(0.015625)"/>
      <path id="DejaVuSans-6f" d="M 1959 3097 
Q 1497 3097 1228 2736 
Q 959 2375 959 1747 
Q 959 1119 1226 758 
Q 1494 397 1959 397 
Q 2419 397 2687 759 
Q 2956 1122 2956 1747 
Q 2956 2369 2687 2733 
Q 2419 3097 1959 3097 
z
M 1959 3584 
Q 2709 3584 3137 3096 
Q 3566 2609 3566 1747 
Q 3566 888 3137 398 
Q 2709 -91 1959 -91 
Q 1206 -91 779 398 
Q 353 888 353 1747 
Q 353 2609 779 3096 
Q 1206 3584 1959 3584 
z
" transform="scale(0.015625)"/>
      <path id="DejaVuSans-67" d="M 2906 1791 
Q 2906 2416 2648 2759 
Q 2391 3103 1925 3103 
Q 1463 3103 1205 2759 
Q 947 2416 947 1791 
Q 947 1169 1205 825 
Q 1463 481 1925 481 
Q 2391 481 2648 825 
Q 2906 1169 2906 1791 
z
M 3481 434 
Q 3481 -459 3084 -895 
Q 2688 -1331 1869 -1331 
Q 1566 -1331 1297 -1286 
Q 1028 -1241 775 -1147 
L 775 -588 
Q 1028 -725 1275 -790 
Q 1522 -856 1778 -856 
Q 2344 -856 2625 -561 
Q 2906 -266 2906 331 
L 2906 616 
Q 2728 306 2450 153 
Q 2172 0 1784 0 
Q 1141 0 747 490 
Q 353 981 353 1791 
Q 353 2603 747 3093 
Q 1141 3584 1784 3584 
Q 2172 3584 2450 3431 
Q 2728 3278 2906 2969 
L 2906 3500 
L 3481 3500 
L 3481 434 
z
" transform="scale(0.015625)"/>
      <path id="DejaVuSans-73" d="M 2834 3397 
L 2834 2853 
Q 2591 2978 2328 3040 
Q 2066 3103 1784 3103 
Q 1356 3103 1142 2972 
Q 928 2841 928 2578 
Q 928 2378 1081 2264 
Q 1234 2150 1697 2047 
L 1894 2003 
Q 2506 1872 2764 1633 
Q 3022 1394 3022 966 
Q 3022 478 2636 193 
Q 2250 -91 1575 -91 
Q 1294 -91 989 -36 
Q 684 19 347 128 
L 347 722 
Q 666 556 975 473 
Q 1284 391 1588 391 
Q 1994 391 2212 530 
Q 2431 669 2431 922 
Q 2431 1156 2273 1281 
Q 2116 1406 1581 1522 
L 1381 1569 
Q 847 1681 609 1914 
Q 372 2147 372 2553 
Q 372 3047 722 3315 
Q 1072 3584 1716 3584 
Q 2034 3584 2315 3537 
Q 2597 3491 2834 3397 
z
" transform="scale(0.015625)"/>
      <path id="Cmr10-31" d="M 594 0 
L 594 225 
Q 1394 225 1394 428 
L 1394 3788 
Q 1063 3628 556 3628 
L 556 3853 
Q 1341 3853 1741 4263 
L 1831 4263 
Q 1853 4263 1873 4245 
Q 1894 4228 1894 4206 
L 1894 428 
Q 1894 225 2694 225 
L 2694 0 
L 594 0 
z
" transform="scale(0.015625)"/>
      <path id="Cmr10-30" d="M 1600 -141 
Q 816 -141 533 504 
Q 250 1150 250 2041 
Q 250 2597 351 3087 
Q 453 3578 754 3920 
Q 1056 4263 1600 4263 
Q 2022 4263 2290 4056 
Q 2559 3850 2700 3523 
Q 2841 3197 2892 2823 
Q 2944 2450 2944 2041 
Q 2944 1491 2842 1011 
Q 2741 531 2444 195 
Q 2147 -141 1600 -141 
z
M 1600 25 
Q 1956 25 2131 390 
Q 2306 756 2347 1200 
Q 2388 1644 2388 2144 
Q 2388 2625 2347 3031 
Q 2306 3438 2132 3767 
Q 1959 4097 1600 4097 
Q 1238 4097 1063 3765 
Q 888 3434 847 3029 
Q 806 2625 806 2144 
Q 806 1788 823 1472 
Q 841 1156 916 820 
Q 991 484 1158 254 
Q 1325 25 1600 25 
z
" transform="scale(0.015625)"/>
     </defs>
     <use xlink:href="#DejaVuSans-6c" transform="translate(0 0.015625)"/>
     <use xlink:href="#DejaVuSans-6f" transform="translate(27.783203 0.015625)"/>
     <use xlink:href="#DejaVuSans-67" transform="translate(88.964844 0.015625)"/>
     <use xlink:href="#DejaVuSans-69" transform="translate(152.441406 0.015625)"/>
     <use xlink:href="#DejaVuSans-74" transform="translate(180.224609 0.015625)"/>
     <use xlink:href="#DejaVuSans-73" transform="translate(219.433594 0.015625)"/>
     <use xlink:href="#DejaVuSans-20" transform="translate(271.533203 0.015625)"/>
     <use xlink:href="#DejaVuSans-20" transform="translate(303.320312 0.015625)"/>
     <use xlink:href="#Cmmi10-6e" transform="translate(335.107422 0.015625)"/>
     <use xlink:href="#Cmsy10-a3" transform="translate(412.675781 0.015625)"/>
     <use xlink:href="#Cmr10-31" transform="translate(507.919922 0.015625)"/>
     <use xlink:href="#Cmr10-30" transform="translate(557.919922 0.015625)"/>
    </g>
   </g>
   <g id="patch_8">
    <path d="M 126.6 71.784 
Q 126.6 99.864 126.6 125.707932 
" style="fill: none; stroke: #7f7f7f; stroke-width: 2; stroke-linecap: round"/>
    <path d="M 129.8 119.307932 
L 126.6 125.707932 
L 123.4 119.307932 
" style="fill: none; stroke: #7f7f7f; stroke-width: 2; stroke-linecap: round"/>
   </g>
   <g id="text_7">
    <!-- affine  $784 \to 256$ -->
    <g transform="translate(143.448 95.31285) scale(0.12 -0.12)">
     <defs>
      <path id="DejaVuSans-61" d="M 2194 1759 
Q 1497 1759 1228 1600 
Q 959 1441 959 1056 
Q 959 750 1161 570 
Q 1363 391 1709 391 
Q 2188 391 2477 730 
Q 2766 1069 2766 1631 
L 2766 1759 
L 2194 1759 
z
M 3341 1997 
L 3341 0 
L 2766 0 
L 2766 531 
Q 2569 213 2275 61 
Q 1981 -91 1556 -91 
Q 1019 -91 701 211 
Q 384 513 384 1019 
Q 384 1609 779 1909 
Q 1175 2209 1959 2209 
L 2766 2209 
L 2766 2266 
Q 2766 2663 2505 2880 
Q 2244 3097 1772 3097 
Q 1472 3097 1187 3025 
Q 903 2953 641 2809 
L 641 3341 
Q 956 3463 1253 3523 
Q 1550 3584 1831 3584 
Q 2591 3584 2966 3190 
Q 3341 2797 3341 1997 
z
" transform="scale(0.015625)"/>
      <path id="DejaVuSans-66" d="M 2375 4863 
L 2375 4384 
L 1825 4384 
Q 1516 4384 1395 4259 
Q 1275 4134 1275 3809 
L 1275 3500 
L 2222 3500 
L 2222 3053 
L 1275 3053 
L 1275 0 
L 697 0 
L 697 3053 
L 147 3053 
L 147 3500 
L 697 3500 
L 697 3744 
Q 697 4328 969 4595 
Q 1241 4863 1831 4863 
L 2375 4863 
z
" transform="scale(0.015625)"/>
      <path id="Cmsy10-21" d="M 481 1472 
Q 428 1472 393 1512 
Q 359 1553 359 1600 
Q 359 1647 393 1687 
Q 428 1728 481 1728 
L 5338 1728 
Q 5094 1903 4906 2133 
Q 4719 2363 4594 2627 
Q 4469 2891 4416 3188 
Q 4416 3272 4481 3272 
L 4609 3272 
Q 4631 3272 4648 3253 
Q 4666 3234 4672 3213 
Q 4725 2938 4839 2702 
Q 4953 2466 5125 2262 
Q 5297 2059 5509 1912 
Q 5722 1766 5991 1672 
Q 6034 1644 6034 1600 
Q 6034 1550 5991 1538 
Q 5656 1422 5378 1192 
Q 5100 963 4919 652 
Q 4738 341 4672 -13 
Q 4666 -34 4647 -53 
Q 4628 -72 4609 -72 
L 4481 -72 
Q 4416 -72 4416 13 
Q 4497 450 4740 836 
Q 4984 1222 5338 1472 
L 481 1472 
z
" transform="scale(0.015625)"/>
     </defs>
     <use xlink:href="#DejaVuSans-61" transform="translate(0 0.015625)"/>
     <use xlink:href="#DejaVuSans-66" transform="translate(61.279297 0.015625)"/>
     <use xlink:href="#DejaVuSans-66" transform="translate(96.484375 0.015625)"/>
     <use xlink:href="#DejaVuSans-69" transform="translate(131.689453 0.015625)"/>
     <use xlink:href="#DejaVuSans-6e" transform="translate(159.472656 0.015625)"/>
     <use xlink:href="#DejaVuSans-65" transform="translate(222.851562 0.015625)"/>
     <use xlink:href="#DejaVuSans-20" transform="translate(284.375 0.015625)"/>
     <use xlink:href="#DejaVuSans-20" transform="translate(316.162109 0.015625)"/>
     <use xlink:href="#Cmr10-37" transform="translate(347.949219 0.015625)"/>
     <use xlink:href="#Cmr10-38" transform="translate(397.949219 0.015625)"/>
     <use xlink:href="#Cmr10-34" transform="translate(447.949219 0.015625)"/>
     <use xlink:href="#Cmsy10-21" transform="translate(515.507812 0.015625)"/>
     <use xlink:href="#Cmr10-32" transform="translate(633.066406 0.015625)"/>
     <use xlink:href="#Cmr10-35" transform="translate(683.066406 0.015625)"/>
     <use xlink:href="#Cmr10-36" transform="translate(733.066406 0.015625)"/>
    </g>
   </g>
   <g id="text_8">
    <!-- ReLU -->
    <g style="fill: #ff7f0e" transform="translate(143.448 111.03765) scale(0.12 -0.12)">
     <defs>
      <path id="DejaVuSans-Bold-52" d="M 2297 2597 
Q 2675 2597 2839 2737 
Q 3003 2878 3003 3200 
Q 3003 3519 2839 3656 
Q 2675 3794 2297 3794 
L 1791 3794 
L 1791 2597 
L 2297 2597 
z
M 1791 1766 
L 1791 0 
L 588 0 
L 588 4666 
L 2425 4666 
Q 3347 4666 3776 4356 
Q 4206 4047 4206 3378 
Q 4206 2916 3982 2619 
Q 3759 2322 3309 2181 
Q 3556 2125 3751 1926 
Q 3947 1728 4147 1325 
L 4800 0 
L 3519 0 
L 2950 1159 
Q 2778 1509 2601 1637 
Q 2425 1766 2131 1766 
L 1791 1766 
z
" transform="scale(0.015625)"/>
      <path id="DejaVuSans-Bold-65" d="M 4031 1759 
L 4031 1441 
L 1416 1441 
Q 1456 1047 1700 850 
Q 1944 653 2381 653 
Q 2734 653 3104 758 
Q 3475 863 3866 1075 
L 3866 213 
Q 3469 63 3072 -14 
Q 2675 -91 2278 -91 
Q 1328 -91 801 392 
Q 275 875 275 1747 
Q 275 2603 792 3093 
Q 1309 3584 2216 3584 
Q 3041 3584 3536 3087 
Q 4031 2591 4031 1759 
z
M 2881 2131 
Q 2881 2450 2695 2645 
Q 2509 2841 2209 2841 
Q 1884 2841 1681 2658 
Q 1478 2475 1428 2131 
L 2881 2131 
z
" transform="scale(0.015625)"/>
      <path id="DejaVuSans-Bold-4c" d="M 588 4666 
L 1791 4666 
L 1791 909 
L 3903 909 
L 3903 0 
L 588 0 
L 588 4666 
z
" transform="scale(0.015625)"/>
      <path id="DejaVuSans-Bold-55" d="M 588 4666 
L 1791 4666 
L 1791 1869 
Q 1791 1291 1980 1042 
Q 2169 794 2597 794 
Q 3028 794 3217 1042 
Q 3406 1291 3406 1869 
L 3406 4666 
L 4609 4666 
L 4609 1869 
Q 4609 878 4112 393 
Q 3616 -91 2597 -91 
Q 1581 -91 1084 393 
Q 588 878 588 1869 
L 588 4666 
z
" transform="scale(0.015625)"/>
     </defs>
     <use xlink:href="#DejaVuSans-Bold-52"/>
     <use xlink:href="#DejaVuSans-Bold-65" transform="translate(77.001953 0)"/>
     <use xlink:href="#DejaVuSans-Bold-4c" transform="translate(144.824219 0)"/>
     <use xlink:href="#DejaVuSans-Bold-55" transform="translate(204.919922 0)"/>
    </g>
   </g>
   <g id="patch_9">
    <path d="M 126.6 174.744 
Q 126.6 202.824 126.6 228.667932 
" style="fill: none; stroke: #7f7f7f; stroke-width: 2; stroke-linecap: round"/>
    <path d="M 129.8 222.267932 
L 126.6 228.667932 
L 123.4 222.267932 
" style="fill: none; stroke: #7f7f7f; stroke-width: 2; stroke-linecap: round"/>
   </g>
   <g id="text_9">
    <!-- affine  $256 \to 10$ -->
    <g transform="translate(143.448 206.13525) scale(0.12 -0.12)">
     <use xlink:href="#DejaVuSans-61" transform="translate(0 0.015625)"/>
     <use xlink:href="#DejaVuSans-66" transform="translate(61.279297 0.015625)"/>
     <use xlink:href="#DejaVuSans-66" transform="translate(96.484375 0.015625)"/>
     <use xlink:href="#DejaVuSans-69" transform="translate(131.689453 0.015625)"/>
     <use xlink:href="#DejaVuSans-6e" transform="translate(159.472656 0.015625)"/>
     <use xlink:href="#DejaVuSans-65" transform="translate(222.851562 0.015625)"/>
     <use xlink:href="#DejaVuSans-20" transform="translate(284.375 0.015625)"/>
     <use xlink:href="#DejaVuSans-20" transform="translate(316.162109 0.015625)"/>
     <use xlink:href="#Cmr10-32" transform="translate(347.949219 0.015625)"/>
     <use xlink:href="#Cmr10-35" transform="translate(397.949219 0.015625)"/>
     <use xlink:href="#Cmr10-36" transform="translate(447.949219 0.015625)"/>
     <use xlink:href="#Cmsy10-21" transform="translate(515.507812 0.015625)"/>
     <use xlink:href="#Cmr10-31" transform="translate(633.066406 0.015625)"/>
     <use xlink:href="#Cmr10-30" transform="translate(683.066406 0.015625)"/>
    </g>
   </g>
   <g id="text_10">
    <!-- 203,530 parameters ($\mathbf{W}^{(1)}, \mathbf{b}^{(1)}, \mathbf{W}^{(2)}, \mathbf{b}^{(2)}$) -->
    <g style="fill: #7f7f7f" transform="translate(7.2 292.2) scale(0.12 -0.12)">
     <defs>
      <path id="DejaVuSans-32" d="M 1228 531 
L 3431 531 
L 3431 0 
L 469 0 
L 469 531 
Q 828 903 1448 1529 
Q 2069 2156 2228 2338 
Q 2531 2678 2651 2914 
Q 2772 3150 2772 3378 
Q 2772 3750 2511 3984 
Q 2250 4219 1831 4219 
Q 1534 4219 1204 4116 
Q 875 4013 500 3803 
L 500 4441 
Q 881 4594 1212 4672 
Q 1544 4750 1819 4750 
Q 2544 4750 2975 4387 
Q 3406 4025 3406 3419 
Q 3406 3131 3298 2873 
Q 3191 2616 2906 2266 
Q 2828 2175 2409 1742 
Q 1991 1309 1228 531 
z
" transform="scale(0.015625)"/>
      <path id="DejaVuSans-30" d="M 2034 4250 
Q 1547 4250 1301 3770 
Q 1056 3291 1056 2328 
Q 1056 1369 1301 889 
Q 1547 409 2034 409 
Q 2525 409 2770 889 
Q 3016 1369 3016 2328 
Q 3016 3291 2770 3770 
Q 2525 4250 2034 4250 
z
M 2034 4750 
Q 2819 4750 3233 4129 
Q 3647 3509 3647 2328 
Q 3647 1150 3233 529 
Q 2819 -91 2034 -91 
Q 1250 -91 836 529 
Q 422 1150 422 2328 
Q 422 3509 836 4129 
Q 1250 4750 2034 4750 
z
" transform="scale(0.015625)"/>
      <path id="DejaVuSans-33" d="M 2597 2516 
Q 3050 2419 3304 2112 
Q 3559 1806 3559 1356 
Q 3559 666 3084 287 
Q 2609 -91 1734 -91 
Q 1441 -91 1130 -33 
Q 819 25 488 141 
L 488 750 
Q 750 597 1062 519 
Q 1375 441 1716 441 
Q 2309 441 2620 675 
Q 2931 909 2931 1356 
Q 2931 1769 2642 2001 
Q 2353 2234 1838 2234 
L 1294 2234 
L 1294 2753 
L 1863 2753 
Q 2328 2753 2575 2939 
Q 2822 3125 2822 3475 
Q 2822 3834 2567 4026 
Q 2313 4219 1838 4219 
Q 1578 4219 1281 4162 
Q 984 4106 628 3988 
L 628 4550 
Q 988 4650 1302 4700 
Q 1616 4750 1894 4750 
Q 2613 4750 3031 4423 
Q 3450 4097 3450 3541 
Q 3450 3153 3228 2886 
Q 3006 2619 2597 2516 
z
" transform="scale(0.015625)"/>
      <path id="DejaVuSans-2c" d="M 750 794 
L 1409 794 
L 1409 256 
L 897 -744 
L 494 -744 
L 750 256 
L 750 794 
z
" transform="scale(0.015625)"/>
      <path id="DejaVuSans-35" d="M 691 4666 
L 3169 4666 
L 3169 4134 
L 1269 4134 
L 1269 2991 
Q 1406 3038 1543 3061 
Q 1681 3084 1819 3084 
Q 2600 3084 3056 2656 
Q 3513 2228 3513 1497 
Q 3513 744 3044 326 
Q 2575 -91 1722 -91 
Q 1428 -91 1123 -41 
Q 819 9 494 109 
L 494 744 
Q 775 591 1075 516 
Q 1375 441 1709 441 
Q 2250 441 2565 725 
Q 2881 1009 2881 1497 
Q 2881 1984 2565 2268 
Q 2250 2553 1709 2553 
Q 1456 2553 1204 2497 
Q 953 2441 691 2322 
L 691 4666 
z
" transform="scale(0.015625)"/>
      <path id="DejaVuSans-72" d="M 2631 2963 
Q 2534 3019 2420 3045 
Q 2306 3072 2169 3072 
Q 1681 3072 1420 2755 
Q 1159 2438 1159 1844 
L 1159 0 
L 581 0 
L 581 3500 
L 1159 3500 
L 1159 2956 
Q 1341 3275 1631 3429 
Q 1922 3584 2338 3584 
Q 2397 3584 2469 3576 
Q 2541 3569 2628 3553 
L 2631 2963 
z
" transform="scale(0.015625)"/>
      <path id="DejaVuSans-6d" d="M 3328 2828 
Q 3544 3216 3844 3400 
Q 4144 3584 4550 3584 
Q 5097 3584 5394 3201 
Q 5691 2819 5691 2113 
L 5691 0 
L 5113 0 
L 5113 2094 
Q 5113 2597 4934 2840 
Q 4756 3084 4391 3084 
Q 3944 3084 3684 2787 
Q 3425 2491 3425 1978 
L 3425 0 
L 2847 0 
L 2847 2094 
Q 2847 2600 2669 2842 
Q 2491 3084 2119 3084 
Q 1678 3084 1418 2786 
Q 1159 2488 1159 1978 
L 1159 0 
L 581 0 
L 581 3500 
L 1159 3500 
L 1159 2956 
Q 1356 3278 1631 3431 
Q 1906 3584 2284 3584 
Q 2666 3584 2933 3390 
Q 3200 3197 3328 2828 
z
" transform="scale(0.015625)"/>
      <path id="DejaVuSans-28" d="M 1984 4856 
Q 1566 4138 1362 3434 
Q 1159 2731 1159 2009 
Q 1159 1288 1364 580 
Q 1569 -128 1984 -844 
L 1484 -844 
Q 1016 -109 783 600 
Q 550 1309 550 2009 
Q 550 2706 781 3412 
Q 1013 4119 1484 4856 
L 1984 4856 
z
" transform="scale(0.015625)"/>
      <path id="Cmb10-57" d="M 1966 63 
L 622 4063 
L 134 4063 
L 134 4391 
L 2100 4391 
L 2100 4063 
L 1569 4063 
L 2484 1356 
L 3128 3291 
L 2869 4063 
L 2381 4063 
L 2381 4391 
L 4347 4391 
L 4347 4063 
L 3822 4063 
L 4728 1356 
L 5619 4013 
Q 5603 4028 5459 4044 
Q 5259 4063 5050 4063 
L 5050 4391 
L 6472 4391 
L 6472 4063 
Q 6316 4063 6147 4053 
Q 5978 4044 5966 4006 
L 4641 63 
Q 4600 -50 4481 -50 
L 4378 -50 
Q 4250 -50 4219 63 
L 3303 2778 
L 2388 63 
Q 2356 -50 2228 -50 
L 2125 -50 
Q 2006 -50 1966 63 
z
" transform="scale(0.015625)"/>
      <path id="Cmr10-28" d="M 1984 -1588 
Q 1628 -1306 1370 -942 
Q 1113 -578 948 -165 
Q 784 247 703 697 
Q 622 1147 622 1600 
Q 622 2059 703 2509 
Q 784 2959 951 3375 
Q 1119 3791 1378 4153 
Q 1638 4516 1984 4788 
Q 1984 4800 2016 4800 
L 2075 4800 
Q 2094 4800 2109 4783 
Q 2125 4766 2125 4744 
Q 2125 4716 2113 4703 
Q 1800 4397 1592 4047 
Q 1384 3697 1257 3301 
Q 1131 2906 1075 2482 
Q 1019 2059 1019 1600 
Q 1019 -434 2106 -1491 
Q 2125 -1509 2125 -1544 
Q 2125 -1559 2108 -1579 
Q 2091 -1600 2075 -1600 
L 2016 -1600 
Q 1984 -1600 1984 -1588 
z
" transform="scale(0.015625)"/>
      <path id="Cmr10-29" d="M 416 -1600 
Q 359 -1600 359 -1544 
Q 359 -1516 372 -1503 
Q 1466 -434 1466 1600 
Q 1466 3634 384 4691 
Q 359 4706 359 4744 
Q 359 4766 376 4783 
Q 394 4800 416 4800 
L 475 4800 
Q 494 4800 506 4788 
Q 966 4425 1272 3906 
Q 1578 3388 1720 2800 
Q 1863 2213 1863 1600 
Q 1863 1147 1786 708 
Q 1709 269 1542 -157 
Q 1375 -584 1119 -945 
Q 863 -1306 506 -1588 
Q 494 -1600 475 -1600 
L 416 -1600 
z
" transform="scale(0.015625)"/>
      <path id="Cmmi10-3b" d="M 634 -1153 
Q 634 -1125 659 -1100 
Q 891 -878 1019 -587 
Q 1147 -297 1147 25 
L 1147 103 
Q 1044 0 891 0 
Q 744 0 641 103 
Q 538 206 538 353 
Q 538 503 641 603 
Q 744 703 891 703 
Q 1119 703 1216 492 
Q 1313 281 1313 25 
Q 1313 -331 1170 -651 
Q 1028 -972 769 -1228 
Q 744 -1241 728 -1241 
Q 697 -1241 665 -1212 
Q 634 -1184 634 -1153 
z
" transform="scale(0.015625)"/>
      <path id="Cmb10-62" d="M 531 0 
L 531 3884 
Q 531 4003 406 4033 
Q 281 4063 91 4063 
L 91 4391 
L 1247 4441 
L 1247 2625 
Q 1594 2881 2022 2881 
Q 2438 2881 2734 2687 
Q 3031 2494 3186 2162 
Q 3341 1831 3341 1422 
Q 3341 1000 3170 667 
Q 3000 334 2679 148 
Q 2359 -38 1941 -38 
Q 1716 -38 1517 51 
Q 1319 141 1159 300 
L 856 0 
L 531 0 
z
M 1288 581 
Q 1519 219 1881 219 
Q 2159 219 2296 408 
Q 2434 597 2465 842 
Q 2497 1088 2497 1416 
L 2497 1434 
Q 2497 1928 2403 2276 
Q 2309 2625 1953 2625 
Q 1756 2625 1584 2531 
Q 1413 2438 1288 2272 
L 1288 581 
z
" transform="scale(0.015625)"/>
      <path id="DejaVuSans-29" d="M 513 4856 
L 1013 4856 
Q 1481 4119 1714 3412 
Q 1947 2706 1947 2009 
Q 1947 1309 1714 600 
Q 1481 -109 1013 -844 
L 513 -844 
Q 928 -128 1133 580 
Q 1338 1288 1338 2009 
Q 1338 2731 1133 3434 
Q 928 4138 513 4856 
z
" transform="scale(0.015625)"/>
     </defs>
     <use xlink:href="#DejaVuSans-32" transform="translate(0 0.235938)"/>
     <use xlink:href="#DejaVuSans-30" transform="translate(63.623047 0.235938)"/>
     <use xlink:href="#DejaVuSans-33" transform="translate(127.246094 0.235938)"/>
     <use xlink:href="#DejaVuSans-2c" transform="translate(190.869141 0.235938)"/>
     <use xlink:href="#DejaVuSans-35" transform="translate(222.65625 0.235938)"/>
     <use xlink:href="#DejaVuSans-33" transform="translate(286.279297 0.235938)"/>
     <use xlink:href="#DejaVuSans-30" transform="translate(349.902344 0.235938)"/>
     <use xlink:href="#DejaVuSans-20" transform="translate(413.525391 0.235938)"/>
     <use xlink:href="#DejaVuSans-70" transform="translate(445.3125 0.235938)"/>
     <use xlink:href="#DejaVuSans-61" transform="translate(508.789062 0.235938)"/>
     <use xlink:href="#DejaVuSans-72" transform="translate(570.068359 0.235938)"/>
     <use xlink:href="#DejaVuSans-61" transform="translate(611.181641 0.235938)"/>
     <use xlink:href="#DejaVuSans-6d" transform="translate(672.460938 0.235938)"/>
     <use xlink:href="#DejaVuSans-65" transform="translate(769.873047 0.235938)"/>
     <use xlink:href="#DejaVuSans-74" transform="translate(831.396484 0.235938)"/>
     <use xlink:href="#DejaVuSans-65" transform="translate(870.605469 0.235938)"/>
     <use xlink:href="#DejaVuSans-72" transform="translate(932.128906 0.235938)"/>
     <use xlink:href="#DejaVuSans-73" transform="translate(973.242188 0.235938)"/>
     <use xlink:href="#DejaVuSans-20" transform="translate(1025.341797 0.235938)"/>
     <use xlink:href="#DejaVuSans-28" transform="translate(1057.128906 0.235938)"/>
     <use xlink:href="#Cmb10-57" transform="translate(1096.142578 0.235938)"/>
     <use xlink:href="#Cmr10-28" transform="translate(1203.927031 38.5) scale(0.7)"/>
     <use xlink:href="#Cmr10-31" transform="translate(1231.099883 38.5) scale(0.7)"/>
     <use xlink:href="#Cmr10-29" transform="translate(1266.099883 38.5) scale(0.7)"/>
     <use xlink:href="#Cmmi10-3b" transform="translate(1299.650078 0.235938)"/>
     <use xlink:href="#Cmb10-62" transform="translate(1344.894219 0.235938)"/>
     <use xlink:href="#Cmr10-28" transform="translate(1404.875937 38.5) scale(0.7)"/>
     <use xlink:href="#Cmr10-31" transform="translate(1432.048789 38.5) scale(0.7)"/>
     <use xlink:href="#Cmr10-29" transform="translate(1467.048789 38.5) scale(0.7)"/>
     <use xlink:href="#Cmmi10-3b" transform="translate(1500.598984 0.235938)"/>
     <use xlink:href="#Cmb10-57" transform="translate(1545.843125 0.235938)"/>
     <use xlink:href="#Cmr10-28" transform="translate(1653.627578 38.5) scale(0.7)"/>
     <use xlink:href="#Cmr10-32" transform="translate(1680.80043 38.5) scale(0.7)"/>
     <use xlink:href="#Cmr10-29" transform="translate(1715.80043 38.5) scale(0.7)"/>
     <use xlink:href="#Cmmi10-3b" transform="translate(1749.350625 0.235938)"/>
     <use xlink:href="#Cmb10-62" transform="translate(1794.594766 0.235938)"/>
     <use xlink:href="#Cmr10-28" transform="translate(1854.576484 38.5) scale(0.7)"/>
     <use xlink:href="#Cmr10-32" transform="translate(1881.749336 38.5) scale(0.7)"/>
     <use xlink:href="#Cmr10-29" transform="translate(1916.749336 38.5) scale(0.7)"/>
     <use xlink:href="#DejaVuSans-29" transform="translate(1950.299531 0.235938)"/>
    </g>
   </g>
  </g>
 </g>
 <defs>
  <clipPath id="pe09a03ee21">
   <rect x="14.28" y="7.2" width="224.64" height="288.288"/>
  </clipPath>
 </defs>
</svg>
