<?xml version="1.0" encoding="utf-8" standalone="no"?>
<!DOCTYPE svg PUBLIC "-//W3C//DTD SVG 1.1//EN"
  "http://www.w3.org/Graphics/SVG/1.1/DTD/svg11.dtd">
<svg xmlns:xlink="http://www.w3.org/1999/xlink" width="541.104601pt" height="214.345555pt" viewBox="0 0 541.104601 214.345555" xmlns="http://www.w3.org/2000/svg" version="1.1">
 <metadata>
  <rdf:RDF xmlns:dc="http://purl.org/dc/elements/1.1/" xmlns:cc="http://creativecommons.org/ns#" xmlns:rdf="http://www.w3.org/1999/02/22-rdf-syntax-ns#">
   <cc:Work>
    <dc:type rdf:resource="http://purl.org/dc/dcmitype/StillImage"/>
    <dc:format>image/svg+xml</dc:format>
    <dc:creator>
     <cc:Agent>
      <dc:title>Matplotlib v3.10.8, https://matplotlib.org/</dc:title>
     </cc:Agent>
    </dc:creator>
   </cc:Work>
  </rdf:RDF>
 </metadata>
 <defs>
  <style type="text/css">*{stroke-linejoin: round; stroke-linecap: butt}</style>
 </defs>
 <g id="figure_1">
  <g id="patch_1">
   <path d="M 0 214.345555 
L 541.104601 214.345555 
L 541.104601 0 
L 0 0 
z
" style="fill: #ffffff"/>
  </g>
  <g id="axes_1">
   <g id="patch_2">
    <path d="M 34.572187 176.789305 
L 246.22736 176.789305 
L 246.22736 24.12 
L 34.572187 24.12 
z
" style="fill: #ffffff"/>
   </g>
   <g id="matplotlib.axis_1">
    <g id="xtick_1">
     <g id="line2d_1">
      <defs>
       <path id="m0e0d04b24a" d="M 0 0 
L 0 3.5 
" style="stroke: #000000; stroke-width: 0.8"/>
      </defs>
      <g>
       <use xlink:href="#m0e0d04b24a" x="69.269757" y="176.789305" style="stroke: #000000; stroke-width: 0.8"/>
      </g>
     </g>
     <g id="text_1">
      <!-- 0 -->
      <g transform="translate(66.406632 190.627898) scale(0.09 -0.09)">
       <defs>
        <path id="DejaVuSans-30" d="M 2034 4250 
Q 1547 4250 1301 3770 
Q 1056 3291 1056 2328 
Q 1056 1369 1301 889 
Q 1547 409 2034 409 
Q 2525 409 2770 889 
Q 3016 1369 3016 2328 
Q 3016 3291 2770 3770 
Q 2525 4250 2034 4250 
z
M 2034 4750 
Q 2819 4750 3233 4129 
Q 3647 3509 3647 2328 
Q 3647 1150 3233 529 
Q 2819 -91 2034 -91 
Q 1250 -91 836 529 
Q 422 1150 422 2328 
Q 422 3509 836 4129 
Q 1250 4750 2034 4750 
z
" transform="scale(0.015625)"/>
       </defs>
       <use xlink:href="#DejaVuSans-30"/>
      </g>
     </g>
    </g>
    <g id="xtick_2">
     <g id="line2d_2">
      <g>
       <use xlink:href="#m0e0d04b24a" x="138.664895" y="176.789305" style="stroke: #000000; stroke-width: 0.8"/>
      </g>
     </g>
     <g id="text_2">
      <!-- 1 -->
      <g transform="translate(135.80177 190.627898) scale(0.09 -0.09)">
       <defs>
        <path id="DejaVuSans-31" d="M 794 531 
L 1825 531 
L 1825 4091 
L 703 3866 
L 703 4441 
L 1819 4666 
L 2450 4666 
L 2450 531 
L 3481 531 
L 3481 0 
L 794 0 
L 794 531 
z
" transform="scale(0.015625)"/>
       </defs>
       <use xlink:href="#DejaVuSans-31"/>
      </g>
     </g>
    </g>
    <g id="text_3">
     <!-- $x_1$ -->
     <g transform="translate(134.954774 204.857898) scale(0.11 -0.11)">
      <defs>
       <path id="Cmmi10-78" d="M 500 184 
Q 613 97 819 97 
Q 1019 97 1172 289 
Q 1325 481 1381 709 
L 1672 1844 
Q 1741 2153 1741 2266 
Q 1741 2425 1652 2544 
Q 1563 2663 1403 2663 
Q 1200 2663 1022 2536 
Q 844 2409 722 2214 
Q 600 2019 550 1819 
Q 538 1778 500 1778 
L 422 1778 
Q 372 1778 372 1838 
L 372 1856 
Q 434 2094 584 2320 
Q 734 2547 951 2687 
Q 1169 2828 1416 2828 
Q 1650 2828 1839 2703 
Q 2028 2578 2106 2363 
Q 2216 2559 2386 2693 
Q 2556 2828 2759 2828 
Q 2897 2828 3040 2779 
Q 3184 2731 3275 2631 
Q 3366 2531 3366 2381 
Q 3366 2219 3261 2101 
Q 3156 1984 2994 1984 
Q 2891 1984 2822 2050 
Q 2753 2116 2753 2216 
Q 2753 2350 2845 2451 
Q 2938 2553 3066 2572 
Q 2950 2663 2747 2663 
Q 2541 2663 2389 2472 
Q 2238 2281 2175 2047 
L 1894 916 
Q 1825 659 1825 494 
Q 1825 331 1917 214 
Q 2009 97 2163 97 
Q 2463 97 2698 361 
Q 2934 625 3009 941 
Q 3022 978 3059 978 
L 3138 978 
Q 3163 978 3178 961 
Q 3194 944 3194 922 
Q 3194 916 3188 903 
Q 3097 522 2806 225 
Q 2516 -72 2150 -72 
Q 1916 -72 1727 54 
Q 1538 181 1459 397 
Q 1359 209 1182 68 
Q 1006 -72 806 -72 
Q 669 -72 523 -23 
Q 378 25 287 125 
Q 197 225 197 378 
Q 197 528 301 651 
Q 406 775 563 775 
Q 669 775 741 711 
Q 813 647 813 544 
Q 813 409 723 309 
Q 634 209 500 184 
z
" transform="scale(0.015625)"/>
       <path id="Cmr10-31" d="M 594 0 
L 594 225 
Q 1394 225 1394 428 
L 1394 3788 
Q 1063 3628 556 3628 
L 556 3853 
Q 1341 3853 1741 4263 
L 1831 4263 
Q 1853 4263 1873 4245 
Q 1894 4228 1894 4206 
L 1894 428 
Q 1894 225 2694 225 
L 2694 0 
L 594 0 
z
" transform="scale(0.015625)"/>
      </defs>
      <use xlink:href="#Cmmi10-78" transform="translate(0 0.8125)"/>
      <use xlink:href="#Cmr10-31" transform="translate(57.080078 -16.19375) scale(0.7)"/>
     </g>
    </g>
   </g>
   <g id="matplotlib.axis_2">
    <g id="ytick_1">
     <g id="line2d_3">
      <defs>
       <path id="m5d09d475d1" d="M 0 0 
L -3.5 0 
" style="stroke: #000000; stroke-width: 0.8"/>
      </defs>
      <g>
       <use xlink:href="#m5d09d475d1" x="34.572187" y="135.152222" style="stroke: #000000; stroke-width: 0.8"/>
      </g>
     </g>
     <g id="text_4">
      <!-- 0 -->
      <g transform="translate(21.845937 138.571518) scale(0.09 -0.09)">
       <use xlink:href="#DejaVuSans-30"/>
      </g>
     </g>
    </g>
    <g id="ytick_2">
     <g id="line2d_4">
      <g>
       <use xlink:href="#m5d09d475d1" x="34.572187" y="65.757083" style="stroke: #000000; stroke-width: 0.8"/>
      </g>
     </g>
     <g id="text_5">
      <!-- 1 -->
      <g transform="translate(21.845937 69.17638) scale(0.09 -0.09)">
       <use xlink:href="#DejaVuSans-31"/>
      </g>
     </g>
    </g>
    <g id="text_6">
     <!-- $x_2$ -->
     <g transform="translate(15.558281 105.899652) rotate(-90) scale(0.11 -0.11)">
      <defs>
       <path id="Cmr10-32" d="M 319 0 
L 319 172 
Q 319 188 331 206 
L 1325 1306 
Q 1550 1550 1690 1715 
Q 1831 1881 1968 2097 
Q 2106 2313 2186 2536 
Q 2266 2759 2266 3009 
Q 2266 3272 2169 3511 
Q 2072 3750 1880 3894 
Q 1688 4038 1416 4038 
Q 1138 4038 916 3870 
Q 694 3703 603 3438 
Q 628 3444 672 3444 
Q 816 3444 917 3347 
Q 1019 3250 1019 3097 
Q 1019 2950 917 2848 
Q 816 2747 672 2747 
Q 522 2747 420 2851 
Q 319 2956 319 3097 
Q 319 3338 409 3548 
Q 500 3759 670 3923 
Q 841 4088 1055 4175 
Q 1269 4263 1509 4263 
Q 1875 4263 2190 4108 
Q 2506 3953 2690 3670 
Q 2875 3388 2875 3009 
Q 2875 2731 2753 2481 
Q 2631 2231 2440 2026 
Q 2250 1822 1953 1562 
Q 1656 1303 1563 1216 
L 838 519 
L 1453 519 
Q 1906 519 2211 526 
Q 2516 534 2534 550 
Q 2609 631 2688 1141 
L 2875 1141 
L 2694 0 
L 319 0 
z
" transform="scale(0.015625)"/>
      </defs>
      <use xlink:href="#Cmmi10-78" transform="translate(0 0.8125)"/>
      <use xlink:href="#Cmr10-32" transform="translate(57.080078 -16.19375) scale(0.7)"/>
     </g>
    </g>
   </g>
   <g id="line2d_5">
    <path d="M 41.511701 3.301458 
L 166.422951 128.212708 
" clip-path="url(#pfeede2225a)" style="fill: none; stroke-dasharray: 5.55,2.4; stroke-dashoffset: 0; stroke: #7f7f7f; stroke-width: 1.5"/>
   </g>
   <g id="line2d_6">
    <path d="M 41.511701 3.301458 
L 166.422951 128.212708 
" clip-path="url(#pfeede2225a)" style="fill: none; stroke-dasharray: 5.55,2.4; stroke-dashoffset: 0; stroke: #7f7f7f; stroke-opacity: 0; stroke-width: 1.5"/>
   </g>
   <g id="line2d_7">
    <path d="M 41.511701 100.454652 
L 166.422951 100.454652 
" clip-path="url(#pfeede2225a)" style="fill: none; stroke-dasharray: 5.55,2.4; stroke-dashoffset: 0; stroke: #7f7f7f; stroke-width: 1.5"/>
   </g>
   <g id="patch_3">
    <path d="M 34.572187 176.789305 
L 34.572187 24.12 
" style="fill: none; stroke: #000000; stroke-width: 0.8; stroke-linejoin: miter; stroke-linecap: square"/>
   </g>
   <g id="patch_4">
    <path d="M 34.572188 176.789305 
L 246.22736 176.789305 
" style="fill: none; stroke: #000000; stroke-width: 0.8; stroke-linejoin: miter; stroke-linecap: square"/>
   </g>
   <g id="text_7">
    <!-- two candidate -->
    <g style="fill: #7f7f7f" transform="translate(176.175902 57.996965) scale(0.08 -0.08)">
     <defs>
      <path id="DejaVuSans-74" d="M 1172 4494 
L 1172 3500 
L 2356 3500 
L 2356 3053 
L 1172 3053 
L 1172 1153 
Q 1172 725 1289 603 
Q 1406 481 1766 481 
L 2356 481 
L 2356 0 
L 1766 0 
Q 1100 0 847 248 
Q 594 497 594 1153 
L 594 3053 
L 172 3053 
L 172 3500 
L 594 3500 
L 594 4494 
L 1172 4494 
z
" transform="scale(0.015625)"/>
      <path id="DejaVuSans-77" d="M 269 3500 
L 844 3500 
L 1563 769 
L 2278 3500 
L 2956 3500 
L 3675 769 
L 4391 3500 
L 4966 3500 
L 4050 0 
L 3372 0 
L 2619 2869 
L 1863 0 
L 1184 0 
L 269 3500 
z
" transform="scale(0.015625)"/>
      <path id="DejaVuSans-6f" d="M 1959 3097 
Q 1497 3097 1228 2736 
Q 959 2375 959 1747 
Q 959 1119 1226 758 
Q 1494 397 1959 397 
Q 2419 397 2687 759 
Q 2956 1122 2956 1747 
Q 2956 2369 2687 2733 
Q 2419 3097 1959 3097 
z
M 1959 3584 
Q 2709 3584 3137 3096 
Q 3566 2609 3566 1747 
Q 3566 888 3137 398 
Q 2709 -91 1959 -91 
Q 1206 -91 779 398 
Q 353 888 353 1747 
Q 353 2609 779 3096 
Q 1206 3584 1959 3584 
z
" transform="scale(0.015625)"/>
      <path id="DejaVuSans-20" transform="scale(0.015625)"/>
      <path id="DejaVuSans-63" d="M 3122 3366 
L 3122 2828 
Q 2878 2963 2633 3030 
Q 2388 3097 2138 3097 
Q 1578 3097 1268 2742 
Q 959 2388 959 1747 
Q 959 1106 1268 751 
Q 1578 397 2138 397 
Q 2388 397 2633 464 
Q 2878 531 3122 666 
L 3122 134 
Q 2881 22 2623 -34 
Q 2366 -91 2075 -91 
Q 1284 -91 818 406 
Q 353 903 353 1747 
Q 353 2603 823 3093 
Q 1294 3584 2113 3584 
Q 2378 3584 2631 3529 
Q 2884 3475 3122 3366 
z
" transform="scale(0.015625)"/>
      <path id="DejaVuSans-61" d="M 2194 1759 
Q 1497 1759 1228 1600 
Q 959 1441 959 1056 
Q 959 750 1161 570 
Q 1363 391 1709 391 
Q 2188 391 2477 730 
Q 2766 1069 2766 1631 
L 2766 1759 
L 2194 1759 
z
M 3341 1997 
L 3341 0 
L 2766 0 
L 2766 531 
Q 2569 213 2275 61 
Q 1981 -91 1556 -91 
Q 1019 -91 701 211 
Q 384 513 384 1019 
Q 384 1609 779 1909 
Q 1175 2209 1959 2209 
L 2766 2209 
L 2766 2266 
Q 2766 2663 2505 2880 
Q 2244 3097 1772 3097 
Q 1472 3097 1187 3025 
Q 903 2953 641 2809 
L 641 3341 
Q 956 3463 1253 3523 
Q 1550 3584 1831 3584 
Q 2591 3584 2966 3190 
Q 3341 2797 3341 1997 
z
" transform="scale(0.015625)"/>
      <path id="DejaVuSans-6e" d="M 3513 2113 
L 3513 0 
L 2938 0 
L 2938 2094 
Q 2938 2591 2744 2837 
Q 2550 3084 2163 3084 
Q 1697 3084 1428 2787 
Q 1159 2491 1159 1978 
L 1159 0 
L 581 0 
L 581 3500 
L 1159 3500 
L 1159 2956 
Q 1366 3272 1645 3428 
Q 1925 3584 2291 3584 
Q 2894 3584 3203 3211 
Q 3513 2838 3513 2113 
z
" transform="scale(0.015625)"/>
      <path id="DejaVuSans-64" d="M 2906 2969 
L 2906 4863 
L 3481 4863 
L 3481 0 
L 2906 0 
L 2906 525 
Q 2725 213 2448 61 
Q 2172 -91 1784 -91 
Q 1150 -91 751 415 
Q 353 922 353 1747 
Q 353 2572 751 3078 
Q 1150 3584 1784 3584 
Q 2172 3584 2448 3432 
Q 2725 3281 2906 2969 
z
M 947 1747 
Q 947 1113 1208 752 
Q 1469 391 1925 391 
Q 2381 391 2643 752 
Q 2906 1113 2906 1747 
Q 2906 2381 2643 2742 
Q 2381 3103 1925 3103 
Q 1469 3103 1208 2742 
Q 947 2381 947 1747 
z
" transform="scale(0.015625)"/>
      <path id="DejaVuSans-69" d="M 603 3500 
L 1178 3500 
L 1178 0 
L 603 0 
L 603 3500 
z
M 603 4863 
L 1178 4863 
L 1178 4134 
L 603 4134 
L 603 4863 
z
" transform="scale(0.015625)"/>
      <path id="DejaVuSans-65" d="M 3597 1894 
L 3597 1613 
L 953 1613 
Q 991 1019 1311 708 
Q 1631 397 2203 397 
Q 2534 397 2845 478 
Q 3156 559 3463 722 
L 3463 178 
Q 3153 47 2828 -22 
Q 2503 -91 2169 -91 
Q 1331 -91 842 396 
Q 353 884 353 1716 
Q 353 2575 817 3079 
Q 1281 3584 2069 3584 
Q 2775 3584 3186 3129 
Q 3597 2675 3597 1894 
z
M 3022 2063 
Q 3016 2534 2758 2815 
Q 2500 3097 2075 3097 
Q 1594 3097 1305 2825 
Q 1016 2553 972 2059 
L 3022 2063 
z
" transform="scale(0.015625)"/>
     </defs>
     <use xlink:href="#DejaVuSans-74"/>
     <use xlink:href="#DejaVuSans-77" transform="translate(39.208984 0)"/>
     <use xlink:href="#DejaVuSans-6f" transform="translate(120.996094 0)"/>
     <use xlink:href="#DejaVuSans-20" transform="translate(182.177734 0)"/>
     <use xlink:href="#DejaVuSans-63" transform="translate(213.964844 0)"/>
     <use xlink:href="#DejaVuSans-61" transform="translate(268.945312 0)"/>
     <use xlink:href="#DejaVuSans-6e" transform="translate(330.224609 0)"/>
     <use xlink:href="#DejaVuSans-64" transform="translate(393.603516 0)"/>
     <use xlink:href="#DejaVuSans-69" transform="translate(457.080078 0)"/>
     <use xlink:href="#DejaVuSans-64" transform="translate(484.863281 0)"/>
     <use xlink:href="#DejaVuSans-61" transform="translate(548.339844 0)"/>
     <use xlink:href="#DejaVuSans-74" transform="translate(609.619141 0)"/>
     <use xlink:href="#DejaVuSans-65" transform="translate(648.828125 0)"/>
    </g>
    <!-- lines, each -->
    <g style="fill: #7f7f7f" transform="translate(183.098402 66.955215) scale(0.08 -0.08)">
     <defs>
      <path id="DejaVuSans-6c" d="M 603 4863 
L 1178 4863 
L 1178 0 
L 603 0 
L 603 4863 
z
" transform="scale(0.015625)"/>
      <path id="DejaVuSans-73" d="M 2834 3397 
L 2834 2853 
Q 2591 2978 2328 3040 
Q 2066 3103 1784 3103 
Q 1356 3103 1142 2972 
Q 928 2841 928 2578 
Q 928 2378 1081 2264 
Q 1234 2150 1697 2047 
L 1894 2003 
Q 2506 1872 2764 1633 
Q 3022 1394 3022 966 
Q 3022 478 2636 193 
Q 2250 -91 1575 -91 
Q 1294 -91 989 -36 
Q 684 19 347 128 
L 347 722 
Q 666 556 975 473 
Q 1284 391 1588 391 
Q 1994 391 2212 530 
Q 2431 669 2431 922 
Q 2431 1156 2273 1281 
Q 2116 1406 1581 1522 
L 1381 1569 
Q 847 1681 609 1914 
Q 372 2147 372 2553 
Q 372 3047 722 3315 
Q 1072 3584 1716 3584 
Q 2034 3584 2315 3537 
Q 2597 3491 2834 3397 
z
" transform="scale(0.015625)"/>
      <path id="DejaVuSans-2c" d="M 750 794 
L 1409 794 
L 1409 256 
L 897 -744 
L 494 -744 
L 750 256 
L 750 794 
z
" transform="scale(0.015625)"/>
      <path id="DejaVuSans-68" d="M 3513 2113 
L 3513 0 
L 2938 0 
L 2938 2094 
Q 2938 2591 2744 2837 
Q 2550 3084 2163 3084 
Q 1697 3084 1428 2787 
Q 1159 2491 1159 1978 
L 1159 0 
L 581 0 
L 581 4863 
L 1159 4863 
L 1159 2956 
Q 1366 3272 1645 3428 
Q 1925 3584 2291 3584 
Q 2894 3584 3203 3211 
Q 3513 2838 3513 2113 
z
" transform="scale(0.015625)"/>
     </defs>
     <use xlink:href="#DejaVuSans-6c"/>
     <use xlink:href="#DejaVuSans-69" transform="translate(27.783203 0)"/>
     <use xlink:href="#DejaVuSans-6e" transform="translate(55.566406 0)"/>
     <use xlink:href="#DejaVuSans-65" transform="translate(118.945312 0)"/>
     <use xlink:href="#DejaVuSans-73" transform="translate(180.46875 0)"/>
     <use xlink:href="#DejaVuSans-2c" transform="translate(232.568359 0)"/>
     <use xlink:href="#DejaVuSans-20" transform="translate(264.355469 0)"/>
     <use xlink:href="#DejaVuSans-65" transform="translate(296.142578 0)"/>
     <use xlink:href="#DejaVuSans-61" transform="translate(357.666016 0)"/>
     <use xlink:href="#DejaVuSans-63" transform="translate(418.945312 0)"/>
     <use xlink:href="#DejaVuSans-68" transform="translate(473.925781 0)"/>
    </g>
    <!-- misclassifies -->
    <g style="fill: #7f7f7f" transform="translate(179.394027 75.913465) scale(0.08 -0.08)">
     <defs>
      <path id="DejaVuSans-6d" d="M 3328 2828 
Q 3544 3216 3844 3400 
Q 4144 3584 4550 3584 
Q 5097 3584 5394 3201 
Q 5691 2819 5691 2113 
L 5691 0 
L 5113 0 
L 5113 2094 
Q 5113 2597 4934 2840 
Q 4756 3084 4391 3084 
Q 3944 3084 3684 2787 
Q 3425 2491 3425 1978 
L 3425 0 
L 2847 0 
L 2847 2094 
Q 2847 2600 2669 2842 
Q 2491 3084 2119 3084 
Q 1678 3084 1418 2786 
Q 1159 2488 1159 1978 
L 1159 0 
L 581 0 
L 581 3500 
L 1159 3500 
L 1159 2956 
Q 1356 3278 1631 3431 
Q 1906 3584 2284 3584 
Q 2666 3584 2933 3390 
Q 3200 3197 3328 2828 
z
" transform="scale(0.015625)"/>
      <path id="DejaVuSans-66" d="M 2375 4863 
L 2375 4384 
L 1825 4384 
Q 1516 4384 1395 4259 
Q 1275 4134 1275 3809 
L 1275 3500 
L 2222 3500 
L 2222 3053 
L 1275 3053 
L 1275 0 
L 697 0 
L 697 3053 
L 147 3053 
L 147 3500 
L 697 3500 
L 697 3744 
Q 697 4328 969 4595 
Q 1241 4863 1831 4863 
L 2375 4863 
z
" transform="scale(0.015625)"/>
     </defs>
     <use xlink:href="#DejaVuSans-6d"/>
     <use xlink:href="#DejaVuSans-69" transform="translate(97.412109 0)"/>
     <use xlink:href="#DejaVuSans-73" transform="translate(125.195312 0)"/>
     <use xlink:href="#DejaVuSans-63" transform="translate(177.294922 0)"/>
     <use xlink:href="#DejaVuSans-6c" transform="translate(232.275391 0)"/>
     <use xlink:href="#DejaVuSans-61" transform="translate(260.058594 0)"/>
     <use xlink:href="#DejaVuSans-73" transform="translate(321.337891 0)"/>
     <use xlink:href="#DejaVuSans-73" transform="translate(373.4375 0)"/>
     <use xlink:href="#DejaVuSans-69" transform="translate(425.537109 0)"/>
     <use xlink:href="#DejaVuSans-66" transform="translate(453.320312 0)"/>
     <use xlink:href="#DejaVuSans-69" transform="translate(488.525391 0)"/>
     <use xlink:href="#DejaVuSans-65" transform="translate(516.308594 0)"/>
     <use xlink:href="#DejaVuSans-73" transform="translate(577.832031 0)"/>
    </g>
    <!-- a corner -->
    <g style="fill: #7f7f7f" transform="translate(188.005902 84.871715) scale(0.08 -0.08)">
     <defs>
      <path id="DejaVuSans-72" d="M 2631 2963 
Q 2534 3019 2420 3045 
Q 2306 3072 2169 3072 
Q 1681 3072 1420 2755 
Q 1159 2438 1159 1844 
L 1159 0 
L 581 0 
L 581 3500 
L 1159 3500 
L 1159 2956 
Q 1341 3275 1631 3429 
Q 1922 3584 2338 3584 
Q 2397 3584 2469 3576 
Q 2541 3569 2628 3553 
L 2631 2963 
z
" transform="scale(0.015625)"/>
     </defs>
     <use xlink:href="#DejaVuSans-61"/>
     <use xlink:href="#DejaVuSans-20" transform="translate(61.279297 0)"/>
     <use xlink:href="#DejaVuSans-63" transform="translate(93.066406 0)"/>
     <use xlink:href="#DejaVuSans-6f" transform="translate(148.046875 0)"/>
     <use xlink:href="#DejaVuSans-72" transform="translate(209.228516 0)"/>
     <use xlink:href="#DejaVuSans-6e" transform="translate(248.591797 0)"/>
     <use xlink:href="#DejaVuSans-65" transform="translate(311.970703 0)"/>
     <use xlink:href="#DejaVuSans-72" transform="translate(373.494141 0)"/>
    </g>
   </g>
   <g id="text_8">
    <!-- (a) input space: no line works -->
    <g transform="translate(51.503211 18.12) scale(0.12 -0.12)">
     <defs>
      <path id="DejaVuSans-28" d="M 1984 4856 
Q 1566 4138 1362 3434 
Q 1159 2731 1159 2009 
Q 1159 1288 1364 580 
Q 1569 -128 1984 -844 
L 1484 -844 
Q 1016 -109 783 600 
Q 550 1309 550 2009 
Q 550 2706 781 3412 
Q 1013 4119 1484 4856 
L 1984 4856 
z
" transform="scale(0.015625)"/>
      <path id="DejaVuSans-29" d="M 513 4856 
L 1013 4856 
Q 1481 4119 1714 3412 
Q 1947 2706 1947 2009 
Q 1947 1309 1714 600 
Q 1481 -109 1013 -844 
L 513 -844 
Q 928 -128 1133 580 
Q 1338 1288 1338 2009 
Q 1338 2731 1133 3434 
Q 928 4138 513 4856 
z
" transform="scale(0.015625)"/>
      <path id="DejaVuSans-70" d="M 1159 525 
L 1159 -1331 
L 581 -1331 
L 581 3500 
L 1159 3500 
L 1159 2969 
Q 1341 3281 1617 3432 
Q 1894 3584 2278 3584 
Q 2916 3584 3314 3078 
Q 3713 2572 3713 1747 
Q 3713 922 3314 415 
Q 2916 -91 2278 -91 
Q 1894 -91 1617 61 
Q 1341 213 1159 525 
z
M 3116 1747 
Q 3116 2381 2855 2742 
Q 2594 3103 2138 3103 
Q 1681 3103 1420 2742 
Q 1159 2381 1159 1747 
Q 1159 1113 1420 752 
Q 1681 391 2138 391 
Q 2594 391 2855 752 
Q 3116 1113 3116 1747 
z
" transform="scale(0.015625)"/>
      <path id="DejaVuSans-75" d="M 544 1381 
L 544 3500 
L 1119 3500 
L 1119 1403 
Q 1119 906 1312 657 
Q 1506 409 1894 409 
Q 2359 409 2629 706 
Q 2900 1003 2900 1516 
L 2900 3500 
L 3475 3500 
L 3475 0 
L 2900 0 
L 2900 538 
Q 2691 219 2414 64 
Q 2138 -91 1772 -91 
Q 1169 -91 856 284 
Q 544 659 544 1381 
z
M 1991 3584 
L 1991 3584 
z
" transform="scale(0.015625)"/>
      <path id="DejaVuSans-3a" d="M 750 794 
L 1409 794 
L 1409 0 
L 750 0 
L 750 794 
z
M 750 3309 
L 1409 3309 
L 1409 2516 
L 750 2516 
L 750 3309 
z
" transform="scale(0.015625)"/>
      <path id="DejaVuSans-6b" d="M 581 4863 
L 1159 4863 
L 1159 1991 
L 2875 3500 
L 3609 3500 
L 1753 1863 
L 3688 0 
L 2938 0 
L 1159 1709 
L 1159 0 
L 581 0 
L 581 4863 
z
" transform="scale(0.015625)"/>
     </defs>
     <use xlink:href="#DejaVuSans-28"/>
     <use xlink:href="#DejaVuSans-61" transform="translate(39.013672 0)"/>
     <use xlink:href="#DejaVuSans-29" transform="translate(100.292969 0)"/>
     <use xlink:href="#DejaVuSans-20" transform="translate(139.306641 0)"/>
     <use xlink:href="#DejaVuSans-69" transform="translate(171.09375 0)"/>
     <use xlink:href="#DejaVuSans-6e" transform="translate(198.876953 0)"/>
     <use xlink:href="#DejaVuSans-70" transform="translate(262.255859 0)"/>
     <use xlink:href="#DejaVuSans-75" transform="translate(325.732422 0)"/>
     <use xlink:href="#DejaVuSans-74" transform="translate(389.111328 0)"/>
     <use xlink:href="#DejaVuSans-20" transform="translate(428.320312 0)"/>
     <use xlink:href="#DejaVuSans-73" transform="translate(460.107422 0)"/>
     <use xlink:href="#DejaVuSans-70" transform="translate(512.207031 0)"/>
     <use xlink:href="#DejaVuSans-61" transform="translate(575.683594 0)"/>
     <use xlink:href="#DejaVuSans-63" transform="translate(636.962891 0)"/>
     <use xlink:href="#DejaVuSans-65" transform="translate(691.943359 0)"/>
     <use xlink:href="#DejaVuSans-3a" transform="translate(753.466797 0)"/>
     <use xlink:href="#DejaVuSans-20" transform="translate(787.158203 0)"/>
     <use xlink:href="#DejaVuSans-6e" transform="translate(818.945312 0)"/>
     <use xlink:href="#DejaVuSans-6f" transform="translate(882.324219 0)"/>
     <use xlink:href="#DejaVuSans-20" transform="translate(943.505859 0)"/>
     <use xlink:href="#DejaVuSans-6c" transform="translate(975.292969 0)"/>
     <use xlink:href="#DejaVuSans-69" transform="translate(1003.076172 0)"/>
     <use xlink:href="#DejaVuSans-6e" transform="translate(1030.859375 0)"/>
     <use xlink:href="#DejaVuSans-65" transform="translate(1094.238281 0)"/>
     <use xlink:href="#DejaVuSans-20" transform="translate(1155.761719 0)"/>
     <use xlink:href="#DejaVuSans-77" transform="translate(1187.548828 0)"/>
     <use xlink:href="#DejaVuSans-6f" transform="translate(1269.335938 0)"/>
     <use xlink:href="#DejaVuSans-72" transform="translate(1330.517578 0)"/>
     <use xlink:href="#DejaVuSans-6b" transform="translate(1371.630859 0)"/>
     <use xlink:href="#DejaVuSans-73" transform="translate(1429.541016 0)"/>
    </g>
   </g>
   <g id="line2d_8">
    <defs>
     <path id="m54f0bc1ed6" d="M 0 7 
C 1.856422 7 3.637059 6.262436 4.949747 4.949747 
C 6.262436 3.637059 7 1.856422 7 0 
C 7 -1.856422 6.262436 -3.637059 4.949747 -4.949747 
C 3.637059 -6.262436 1.856422 -7 0 -7 
C -1.856422 -7 -3.637059 -6.262436 -4.949747 -4.949747 
C -6.262436 -3.637059 -7 -1.856422 -7 0 
C -7 1.856422 -6.262436 3.637059 -4.949747 4.949747 
C -3.637059 6.262436 -1.856422 7 0 7 
z
" style="stroke: #1f77b4"/>
    </defs>
    <g clip-path="url(#pfeede2225a)">
     <use xlink:href="#m54f0bc1ed6" x="69.269757" y="135.152222" style="fill: #1f77b4; stroke: #1f77b4"/>
    </g>
   </g>
   <g id="line2d_9">
    <defs>
     <path id="mc44374418b" d="M 0 7 
C 1.856422 7 3.637059 6.262436 4.949747 4.949747 
C 6.262436 3.637059 7 1.856422 7 0 
C 7 -1.856422 6.262436 -3.637059 4.949747 -4.949747 
C 3.637059 -6.262436 1.856422 -7 0 -7 
C -1.856422 -7 -3.637059 -6.262436 -4.949747 -4.949747 
C -6.262436 -3.637059 -7 -1.856422 -7 0 
C -7 1.856422 -6.262436 3.637059 -4.949747 4.949747 
C -3.637059 6.262436 -1.856422 7 0 7 
z
" style="stroke: #ff7f0e"/>
    </defs>
    <g clip-path="url(#pfeede2225a)">
     <use xlink:href="#mc44374418b" x="69.269757" y="65.757083" style="fill: #ff7f0e; stroke: #ff7f0e"/>
    </g>
   </g>
   <g id="line2d_10">
    <g clip-path="url(#pfeede2225a)">
     <use xlink:href="#mc44374418b" x="138.664895" y="135.152222" style="fill: #ff7f0e; stroke: #ff7f0e"/>
    </g>
   </g>
   <g id="line2d_11">
    <g clip-path="url(#pfeede2225a)">
     <use xlink:href="#m54f0bc1ed6" x="138.664895" y="65.757083" style="fill: #1f77b4; stroke: #1f77b4"/>
    </g>
   </g>
   <g id="text_9">
    <!-- 0 -->
    <g style="fill: #ffffff" transform="translate(65.964796 137.773628) scale(0.095 -0.095)">
     <defs>
      <path id="DejaVuSans-Bold-30" d="M 2944 2338 
Q 2944 3213 2780 3570 
Q 2616 3928 2228 3928 
Q 1841 3928 1675 3570 
Q 1509 3213 1509 2338 
Q 1509 1453 1675 1090 
Q 1841 728 2228 728 
Q 2613 728 2778 1090 
Q 2944 1453 2944 2338 
z
M 4147 2328 
Q 4147 1169 3647 539 
Q 3147 -91 2228 -91 
Q 1306 -91 806 539 
Q 306 1169 306 2328 
Q 306 3491 806 4120 
Q 1306 4750 2228 4750 
Q 3147 4750 3647 4120 
Q 4147 3491 4147 2328 
z
" transform="scale(0.015625)"/>
     </defs>
     <use xlink:href="#DejaVuSans-Bold-30"/>
    </g>
   </g>
   <g id="text_10">
    <!-- 1 -->
    <g style="fill: #ffffff" transform="translate(65.964796 68.378489) scale(0.095 -0.095)">
     <defs>
      <path id="DejaVuSans-Bold-31" d="M 750 831 
L 1813 831 
L 1813 3847 
L 722 3622 
L 722 4441 
L 1806 4666 
L 2950 4666 
L 2950 831 
L 4013 831 
L 4013 0 
L 750 0 
L 750 831 
z
" transform="scale(0.015625)"/>
     </defs>
     <use xlink:href="#DejaVuSans-Bold-31"/>
    </g>
   </g>
   <g id="text_11">
    <!-- 1 -->
    <g style="fill: #ffffff" transform="translate(135.359934 137.773628) scale(0.095 -0.095)">
     <use xlink:href="#DejaVuSans-Bold-31"/>
    </g>
   </g>
   <g id="text_12">
    <!-- 0 -->
    <g style="fill: #ffffff" transform="translate(135.359934 68.378489) scale(0.095 -0.095)">
     <use xlink:href="#DejaVuSans-Bold-30"/>
    </g>
   </g>
  </g>
  <g id="axes_2">
   <g id="patch_5">
    <path d="M 313.957015 176.789305 
L 525.612188 176.789305 
L 525.612188 24.12 
L 313.957015 24.12 
z
" style="fill: #ffffff"/>
   </g>
   <g id="FillBetweenPolyCollection_1">
    <defs>
     <path id="m8c31207a6d" d="M 320.896529 -190.225555 
L 320.896529 -47.965521 
L 515.202917 -145.118715 
L 515.202917 -190.225555 
L 515.202917 -190.225555 
L 320.896529 -190.225555 
z
"/>
    </defs>
    <g clip-path="url(#pcbbfe34199)">
     <use xlink:href="#m8c31207a6d" x="0" y="214.345555" style="fill: #1f77b4; fill-opacity: 0.07"/>
    </g>
   </g>
   <g id="FillBetweenPolyCollection_2">
    <defs>
     <path id="ma513af12a1" d="M 320.896529 -47.965521 
L 320.896529 -37.55625 
L 515.202917 -37.55625 
L 515.202917 -145.118715 
L 515.202917 -145.118715 
L 320.896529 -47.965521 
z
"/>
    </defs>
    <g clip-path="url(#pcbbfe34199)">
     <use xlink:href="#ma513af12a1" x="0" y="214.345555" style="fill: #ff7f0e; fill-opacity: 0.07"/>
    </g>
   </g>
   <g id="matplotlib.axis_3">
    <g id="xtick_3">
     <g id="line2d_12">
      <g>
       <use xlink:href="#m0e0d04b24a" x="348.654584" y="176.789305" style="stroke: #000000; stroke-width: 0.8"/>
      </g>
     </g>
     <g id="text_13">
      <!-- 0 -->
      <g transform="translate(345.791459 190.627898) scale(0.09 -0.09)">
       <use xlink:href="#DejaVuSans-30"/>
      </g>
     </g>
    </g>
    <g id="xtick_4">
     <g id="line2d_13">
      <g>
       <use xlink:href="#m0e0d04b24a" x="418.049723" y="176.789305" style="stroke: #000000; stroke-width: 0.8"/>
      </g>
     </g>
     <g id="text_14">
      <!-- 1 -->
      <g transform="translate(415.186598 190.627898) scale(0.09 -0.09)">
       <use xlink:href="#DejaVuSans-31"/>
      </g>
     </g>
    </g>
    <g id="xtick_5">
     <g id="line2d_14">
      <g>
       <use xlink:href="#m0e0d04b24a" x="487.444861" y="176.789305" style="stroke: #000000; stroke-width: 0.8"/>
      </g>
     </g>
     <g id="text_15">
      <!-- 2 -->
      <g transform="translate(484.581736 190.627898) scale(0.09 -0.09)">
       <defs>
        <path id="DejaVuSans-32" d="M 1228 531 
L 3431 531 
L 3431 0 
L 469 0 
L 469 531 
Q 828 903 1448 1529 
Q 2069 2156 2228 2338 
Q 2531 2678 2651 2914 
Q 2772 3150 2772 3378 
Q 2772 3750 2511 3984 
Q 2250 4219 1831 4219 
Q 1534 4219 1204 4116 
Q 875 4013 500 3803 
L 500 4441 
Q 881 4594 1212 4672 
Q 1544 4750 1819 4750 
Q 2544 4750 2975 4387 
Q 3406 4025 3406 3419 
Q 3406 3131 3298 2873 
Q 3191 2616 2906 2266 
Q 2828 2175 2409 1742 
Q 1991 1309 1228 531 
z
" transform="scale(0.015625)"/>
       </defs>
       <use xlink:href="#DejaVuSans-32"/>
      </g>
     </g>
    </g>
    <g id="text_16">
     <!-- $h_1$ -->
     <g transform="translate(414.339601 204.857898) scale(0.11 -0.11)">
      <defs>
       <path id="Cmmi10-68" d="M 341 116 
Q 341 153 347 172 
L 1275 3872 
Q 1300 3981 1306 4044 
Q 1306 4147 891 4147 
Q 825 4147 825 4231 
Q 828 4247 839 4287 
Q 850 4328 867 4350 
Q 884 4372 916 4372 
L 1778 4441 
L 1797 4441 
Q 1797 4434 1819 4423 
Q 1841 4413 1844 4409 
Q 1856 4378 1856 4359 
L 1356 2363 
Q 1750 2828 2291 2828 
Q 2516 2828 2680 2750 
Q 2844 2672 2936 2514 
Q 3028 2356 3028 2138 
Q 3028 1875 2911 1503 
Q 2794 1131 2619 672 
Q 2528 463 2528 288 
Q 2528 97 2675 97 
Q 2925 97 3092 364 
Q 3259 631 3328 941 
Q 3341 978 3378 978 
L 3456 978 
Q 3481 978 3497 961 
Q 3513 944 3513 922 
Q 3513 916 3506 903 
Q 3450 672 3339 448 
Q 3228 225 3059 76 
Q 2891 -72 2663 -72 
Q 2438 -72 2278 83 
Q 2119 238 2119 459 
Q 2119 578 2169 709 
Q 2350 1191 2470 1569 
Q 2591 1947 2591 2234 
Q 2591 2419 2519 2541 
Q 2447 2663 2278 2663 
Q 1934 2663 1678 2452 
Q 1422 2241 1234 1894 
L 800 147 
Q 775 50 703 -11 
Q 631 -72 538 -72 
Q 456 -72 398 -17 
Q 341 38 341 116 
z
" transform="scale(0.015625)"/>
      </defs>
      <use xlink:href="#Cmmi10-68" transform="translate(0 0.609375)"/>
      <use xlink:href="#Cmr10-31" transform="translate(57.617188 -16.396875) scale(0.7)"/>
     </g>
    </g>
   </g>
   <g id="matplotlib.axis_4">
    <g id="ytick_3">
     <g id="line2d_15">
      <g>
       <use xlink:href="#m5d09d475d1" x="313.957015" y="135.152222" style="stroke: #000000; stroke-width: 0.8"/>
      </g>
     </g>
     <g id="text_17">
      <!-- 0 -->
      <g transform="translate(301.230765 138.571518) scale(0.09 -0.09)">
       <use xlink:href="#DejaVuSans-30"/>
      </g>
     </g>
    </g>
    <g id="ytick_4">
     <g id="line2d_16">
      <g>
       <use xlink:href="#m5d09d475d1" x="313.957015" y="65.757083" style="stroke: #000000; stroke-width: 0.8"/>
      </g>
     </g>
     <g id="text_18">
      <!-- 1 -->
      <g transform="translate(301.230765 69.17638) scale(0.09 -0.09)">
       <use xlink:href="#DejaVuSans-31"/>
      </g>
     </g>
    </g>
    <g id="text_19">
     <!-- $h_2$ -->
     <g transform="translate(294.943109 105.899652) rotate(-90) scale(0.11 -0.11)">
      <use xlink:href="#Cmmi10-68" transform="translate(0 0.609375)"/>
      <use xlink:href="#Cmr10-32" transform="translate(57.617188 -16.396875) scale(0.7)"/>
     </g>
    </g>
   </g>
   <g id="line2d_17">
    <path d="M 320.896529 166.380034 
L 515.202917 69.22684 
" clip-path="url(#pcbbfe34199)" style="fill: none; stroke-dasharray: 5.92,2.56; stroke-dashoffset: 0; stroke: #2ca02c; stroke-width: 1.6"/>
   </g>
   <g id="patch_6">
    <path d="M 313.957015 176.789305 
L 313.957015 24.12 
" style="fill: none; stroke: #000000; stroke-width: 0.8; stroke-linejoin: miter; stroke-linecap: square"/>
   </g>
   <g id="patch_7">
    <path d="M 313.957015 176.789305 
L 525.612188 176.789305 
" style="fill: none; stroke: #000000; stroke-width: 0.8; stroke-linejoin: miter; stroke-linecap: square"/>
   </g>
   <g id="text_20">
    <!-- $h_1-2h_2=\frac{1}{2}$ -->
    <g style="fill: #2ca02c" transform="translate(449.277514 134.93711) rotate(-26.565051) scale(0.09 -0.09)">
     <defs>
      <path id="Cmsy10-a1" d="M 653 1472 
Q 600 1472 565 1512 
Q 531 1553 531 1600 
Q 531 1647 565 1687 
Q 600 1728 653 1728 
L 4325 1728 
Q 4375 1728 4408 1687 
Q 4441 1647 4441 1600 
Q 4441 1553 4408 1512 
Q 4375 1472 4325 1472 
L 653 1472 
z
" transform="scale(0.015625)"/>
      <path id="Cmr10-3d" d="M 481 850 
Q 428 850 393 890 
Q 359 931 359 978 
Q 359 1031 393 1068 
Q 428 1106 481 1106 
L 4500 1106 
Q 4547 1106 4581 1068 
Q 4616 1031 4616 978 
Q 4616 931 4581 890 
Q 4547 850 4500 850 
L 481 850 
z
M 481 2094 
Q 428 2094 393 2131 
Q 359 2169 359 2222 
Q 359 2269 393 2309 
Q 428 2350 481 2350 
L 4500 2350 
Q 4547 2350 4581 2309 
Q 4616 2269 4616 2222 
Q 4616 2169 4581 2131 
Q 4547 2094 4500 2094 
L 481 2094 
z
" transform="scale(0.015625)"/>
     </defs>
     <use xlink:href="#Cmmi10-68" transform="translate(0 0.873437)"/>
     <use xlink:href="#Cmr10-31" transform="translate(57.617188 -16.132812) scale(0.7)"/>
     <use xlink:href="#Cmsy10-a1" transform="translate(116.553125 0.873437)"/>
     <use xlink:href="#Cmr10-32" transform="translate(211.797266 0.873437)"/>
     <use xlink:href="#Cmmi10-68" transform="translate(261.797266 0.873437)"/>
     <use xlink:href="#Cmr10-32" transform="translate(319.414453 -16.132812) scale(0.7)"/>
     <use xlink:href="#Cmr10-3d" transform="translate(378.350391 0.873437)"/>
     <use xlink:href="#Cmr10-31" transform="translate(473.594531 38.373438) scale(0.7)"/>
     <use xlink:href="#Cmr10-32" transform="translate(473.594531 -39.503125) scale(0.7)"/>
     <path d="M 473.594531 13.373437 
L 473.594531 19.623437 
L 508.594531 19.623437 
L 508.594531 13.373437 
L 473.594531 13.373437 
z
"/>
    </g>
   </g>
   <g id="patch_8">
    <path d="M 378.673077 81.712487 
Q 397.768972 107.628345 416.20165 132.644122 
" style="fill: none; stroke: #7f7f7f; stroke-linecap: round"/>
    <path d="M 415.553368 128.898494 
L 416.20165 132.644122 
L 412.816178 130.915371 
" style="fill: none; stroke: #7f7f7f; stroke-linecap: round"/>
   </g>
   <g id="text_21">
    <!-- two class-1 corners -->
    <g style="fill: #7f7f7f" transform="translate(328.362345 66.813238) scale(0.085 -0.085)">
     <defs>
      <path id="DejaVuSans-2d" d="M 313 2009 
L 1997 2009 
L 1997 1497 
L 313 1497 
L 313 2009 
z
" transform="scale(0.015625)"/>
     </defs>
     <use xlink:href="#DejaVuSans-74"/>
     <use xlink:href="#DejaVuSans-77" transform="translate(39.208984 0)"/>
     <use xlink:href="#DejaVuSans-6f" transform="translate(120.996094 0)"/>
     <use xlink:href="#DejaVuSans-20" transform="translate(182.177734 0)"/>
     <use xlink:href="#DejaVuSans-63" transform="translate(213.964844 0)"/>
     <use xlink:href="#DejaVuSans-6c" transform="translate(268.945312 0)"/>
     <use xlink:href="#DejaVuSans-61" transform="translate(296.728516 0)"/>
     <use xlink:href="#DejaVuSans-73" transform="translate(358.007812 0)"/>
     <use xlink:href="#DejaVuSans-73" transform="translate(410.107422 0)"/>
     <use xlink:href="#DejaVuSans-2d" transform="translate(462.207031 0)"/>
     <use xlink:href="#DejaVuSans-31" transform="translate(498.291016 0)"/>
     <use xlink:href="#DejaVuSans-20" transform="translate(561.914062 0)"/>
     <use xlink:href="#DejaVuSans-63" transform="translate(593.701172 0)"/>
     <use xlink:href="#DejaVuSans-6f" transform="translate(648.681641 0)"/>
     <use xlink:href="#DejaVuSans-72" transform="translate(709.863281 0)"/>
     <use xlink:href="#DejaVuSans-6e" transform="translate(749.226562 0)"/>
     <use xlink:href="#DejaVuSans-65" transform="translate(812.605469 0)"/>
     <use xlink:href="#DejaVuSans-72" transform="translate(874.128906 0)"/>
     <use xlink:href="#DejaVuSans-73" transform="translate(915.242188 0)"/>
    </g>
    <!-- land on the same point -->
    <g style="fill: #7f7f7f" transform="translate(320.21297 76.331379) scale(0.085 -0.085)">
     <use xlink:href="#DejaVuSans-6c"/>
     <use xlink:href="#DejaVuSans-61" transform="translate(27.783203 0)"/>
     <use xlink:href="#DejaVuSans-6e" transform="translate(89.0625 0)"/>
     <use xlink:href="#DejaVuSans-64" transform="translate(152.441406 0)"/>
     <use xlink:href="#DejaVuSans-20" transform="translate(215.917969 0)"/>
     <use xlink:href="#DejaVuSans-6f" transform="translate(247.705078 0)"/>
     <use xlink:href="#DejaVuSans-6e" transform="translate(308.886719 0)"/>
     <use xlink:href="#DejaVuSans-20" transform="translate(372.265625 0)"/>
     <use xlink:href="#DejaVuSans-74" transform="translate(404.052734 0)"/>
     <use xlink:href="#DejaVuSans-68" transform="translate(443.261719 0)"/>
     <use xlink:href="#DejaVuSans-65" transform="translate(506.640625 0)"/>
     <use xlink:href="#DejaVuSans-20" transform="translate(568.164062 0)"/>
     <use xlink:href="#DejaVuSans-73" transform="translate(599.951172 0)"/>
     <use xlink:href="#DejaVuSans-61" transform="translate(652.050781 0)"/>
     <use xlink:href="#DejaVuSans-6d" transform="translate(713.330078 0)"/>
     <use xlink:href="#DejaVuSans-65" transform="translate(810.742188 0)"/>
     <use xlink:href="#DejaVuSans-20" transform="translate(872.265625 0)"/>
     <use xlink:href="#DejaVuSans-70" transform="translate(904.052734 0)"/>
     <use xlink:href="#DejaVuSans-6f" transform="translate(967.529297 0)"/>
     <use xlink:href="#DejaVuSans-69" transform="translate(1028.710938 0)"/>
     <use xlink:href="#DejaVuSans-6e" transform="translate(1056.494141 0)"/>
     <use xlink:href="#DejaVuSans-74" transform="translate(1119.873047 0)"/>
    </g>
   </g>
   <g id="text_22">
    <!-- (b) hidden space $h=\mathrm{ReLU}(\mathbf{x}\mathbf{W}^{(1)}+\mathbf{b}^{(1)})$ -->
    <g transform="translate(305.664601 18.12) scale(0.12 -0.12)">
     <defs>
      <path id="DejaVuSans-62" d="M 3116 1747 
Q 3116 2381 2855 2742 
Q 2594 3103 2138 3103 
Q 1681 3103 1420 2742 
Q 1159 2381 1159 1747 
Q 1159 1113 1420 752 
Q 1681 391 2138 391 
Q 2594 391 2855 752 
Q 3116 1113 3116 1747 
z
M 1159 2969 
Q 1341 3281 1617 3432 
Q 1894 3584 2278 3584 
Q 2916 3584 3314 3078 
Q 3713 2572 3713 1747 
Q 3713 922 3314 415 
Q 2916 -91 2278 -91 
Q 1894 -91 1617 61 
Q 1341 213 1159 525 
L 1159 0 
L 581 0 
L 581 4863 
L 1159 4863 
L 1159 2969 
z
" transform="scale(0.015625)"/>
      <path id="Cmr10-52" d="M 213 0 
L 213 225 
Q 872 225 872 428 
L 872 3944 
Q 872 4147 213 4147 
L 213 4372 
L 2222 4372 
Q 2581 4372 2976 4242 
Q 3372 4113 3637 3847 
Q 3903 3581 3903 3213 
Q 3903 2944 3742 2733 
Q 3581 2522 3329 2380 
Q 3078 2238 2816 2175 
Q 3103 2075 3318 1856 
Q 3534 1638 3578 1356 
L 3669 788 
Q 3731 403 3800 214 
Q 3869 25 4103 25 
Q 4303 25 4401 211 
Q 4500 397 4500 616 
Q 4500 638 4520 655 
Q 4541 672 4563 672 
L 4622 672 
Q 4684 672 4684 588 
Q 4684 413 4615 245 
Q 4547 78 4417 -31 
Q 4288 -141 4109 -141 
Q 3647 -141 3314 89 
Q 2981 319 2981 763 
L 2981 1331 
Q 2981 1650 2759 1878 
Q 2538 2106 2216 2106 
L 1447 2106 
L 1447 428 
Q 1447 225 2106 225 
L 2106 0 
L 213 0 
z
M 1447 2272 
L 2131 2272 
Q 2663 2272 2941 2486 
Q 3219 2700 3219 3213 
Q 3219 3722 2944 3934 
Q 2669 4147 2131 4147 
L 1772 4147 
Q 1656 4147 1592 4137 
Q 1528 4128 1487 4083 
Q 1447 4038 1447 3944 
L 1447 2272 
z
" transform="scale(0.015625)"/>
      <path id="Cmr10-65" d="M 1594 -72 
Q 1203 -72 876 133 
Q 550 338 364 680 
Q 178 1022 178 1403 
Q 178 1778 348 2115 
Q 519 2453 823 2661 
Q 1128 2869 1503 2869 
Q 1797 2869 2014 2770 
Q 2231 2672 2372 2497 
Q 2513 2322 2584 2084 
Q 2656 1847 2656 1563 
Q 2656 1478 2591 1478 
L 738 1478 
L 738 1409 
Q 738 878 952 497 
Q 1166 116 1650 116 
Q 1847 116 2014 203 
Q 2181 291 2304 447 
Q 2428 603 2472 781 
Q 2478 803 2495 820 
Q 2513 838 2534 838 
L 2591 838 
Q 2656 838 2656 756 
Q 2566 394 2266 161 
Q 1966 -72 1594 -72 
z
M 744 1638 
L 2203 1638 
Q 2203 1878 2136 2125 
Q 2069 2372 1912 2536 
Q 1756 2700 1503 2700 
Q 1141 2700 942 2361 
Q 744 2022 744 1638 
z
" transform="scale(0.015625)"/>
      <path id="Cmr10-4c" d="M 197 0 
L 197 225 
Q 856 225 856 428 
L 856 3944 
Q 856 4147 197 4147 
L 197 4372 
L 2272 4372 
L 2272 4147 
Q 1453 4147 1453 3944 
L 1453 428 
Q 1453 291 1531 258 
Q 1609 225 1778 225 
L 2272 225 
Q 2750 225 3009 400 
Q 3269 575 3376 876 
Q 3484 1178 3541 1678 
L 3725 1678 
L 3547 0 
L 197 0 
z
" transform="scale(0.015625)"/>
      <path id="Cmr10-55" d="M 856 1447 
L 856 3944 
Q 856 4147 197 4147 
L 197 4372 
L 2113 4372 
L 2113 4147 
Q 1453 4147 1453 3944 
L 1453 1472 
Q 1453 1116 1551 798 
Q 1650 481 1883 282 
Q 2116 84 2491 84 
Q 2856 84 3134 276 
Q 3413 469 3563 787 
Q 3713 1106 3713 1472 
L 3713 3769 
Q 3713 4147 3053 4147 
L 3053 4372 
L 4594 4372 
L 4594 4147 
Q 3938 4147 3938 3769 
L 3938 1447 
Q 3938 1150 3833 865 
Q 3728 581 3529 351 
Q 3331 122 3062 -9 
Q 2794 -141 2491 -141 
Q 2066 -141 1686 71 
Q 1306 284 1081 650 
Q 856 1016 856 1447 
z
" transform="scale(0.015625)"/>
      <path id="Cmr10-28" d="M 1984 -1588 
Q 1628 -1306 1370 -942 
Q 1113 -578 948 -165 
Q 784 247 703 697 
Q 622 1147 622 1600 
Q 622 2059 703 2509 
Q 784 2959 951 3375 
Q 1119 3791 1378 4153 
Q 1638 4516 1984 4788 
Q 1984 4800 2016 4800 
L 2075 4800 
Q 2094 4800 2109 4783 
Q 2125 4766 2125 4744 
Q 2125 4716 2113 4703 
Q 1800 4397 1592 4047 
Q 1384 3697 1257 3301 
Q 1131 2906 1075 2482 
Q 1019 2059 1019 1600 
Q 1019 -434 2106 -1491 
Q 2125 -1509 2125 -1544 
Q 2125 -1559 2108 -1579 
Q 2091 -1600 2075 -1600 
L 2016 -1600 
Q 1984 -1600 1984 -1588 
z
" transform="scale(0.015625)"/>
      <path id="Cmb10-78" d="M 109 0 
L 109 325 
Q 628 325 678 384 
L 1381 1350 
L 588 2516 
L 141 2516 
L 141 2841 
L 1606 2841 
L 1606 2516 
L 1331 2516 
L 1766 1881 
L 2181 2463 
Q 2181 2491 2072 2503 
Q 1963 2516 1888 2516 
L 1888 2841 
L 3156 2841 
L 3156 2516 
Q 2638 2516 2584 2456 
L 1959 1594 
L 2816 325 
L 3272 325 
L 3272 0 
L 1797 0 
L 1797 325 
L 2075 325 
L 1575 1063 
L 1081 378 
Q 1081 356 1193 340 
Q 1306 325 1381 325 
L 1381 0 
L 109 0 
z
" transform="scale(0.015625)"/>
      <path id="Cmb10-57" d="M 1966 63 
L 622 4063 
L 134 4063 
L 134 4391 
L 2100 4391 
L 2100 4063 
L 1569 4063 
L 2484 1356 
L 3128 3291 
L 2869 4063 
L 2381 4063 
L 2381 4391 
L 4347 4391 
L 4347 4063 
L 3822 4063 
L 4728 1356 
L 5619 4013 
Q 5603 4028 5459 4044 
Q 5259 4063 5050 4063 
L 5050 4391 
L 6472 4391 
L 6472 4063 
Q 6316 4063 6147 4053 
Q 5978 4044 5966 4006 
L 4641 63 
Q 4600 -50 4481 -50 
L 4378 -50 
Q 4250 -50 4219 63 
L 3303 2778 
L 2388 63 
Q 2356 -50 2228 -50 
L 2125 -50 
Q 2006 -50 1966 63 
z
" transform="scale(0.015625)"/>
      <path id="Cmr10-29" d="M 416 -1600 
Q 359 -1600 359 -1544 
Q 359 -1516 372 -1503 
Q 1466 -434 1466 1600 
Q 1466 3634 384 4691 
Q 359 4706 359 4744 
Q 359 4766 376 4783 
Q 394 4800 416 4800 
L 475 4800 
Q 494 4800 506 4788 
Q 966 4425 1272 3906 
Q 1578 3388 1720 2800 
Q 1863 2213 1863 1600 
Q 1863 1147 1786 708 
Q 1709 269 1542 -157 
Q 1375 -584 1119 -945 
Q 863 -1306 506 -1588 
Q 494 -1600 475 -1600 
L 416 -1600 
z
" transform="scale(0.015625)"/>
      <path id="Cmr10-2b" d="M 481 1472 
Q 428 1472 393 1512 
Q 359 1553 359 1600 
Q 359 1647 393 1687 
Q 428 1728 481 1728 
L 2363 1728 
L 2363 3616 
Q 2363 3666 2400 3698 
Q 2438 3731 2491 3731 
Q 2538 3731 2578 3698 
Q 2619 3666 2619 3616 
L 2619 1728 
L 4500 1728 
Q 4547 1728 4581 1687 
Q 4616 1647 4616 1600 
Q 4616 1553 4581 1512 
Q 4547 1472 4500 1472 
L 2619 1472 
L 2619 -416 
Q 2619 -466 2578 -498 
Q 2538 -531 2491 -531 
Q 2438 -531 2400 -498 
Q 2363 -466 2363 -416 
L 2363 1472 
L 481 1472 
z
" transform="scale(0.015625)"/>
      <path id="Cmb10-62" d="M 531 0 
L 531 3884 
Q 531 4003 406 4033 
Q 281 4063 91 4063 
L 91 4391 
L 1247 4441 
L 1247 2625 
Q 1594 2881 2022 2881 
Q 2438 2881 2734 2687 
Q 3031 2494 3186 2162 
Q 3341 1831 3341 1422 
Q 3341 1000 3170 667 
Q 3000 334 2679 148 
Q 2359 -38 1941 -38 
Q 1716 -38 1517 51 
Q 1319 141 1159 300 
L 856 0 
L 531 0 
z
M 1288 581 
Q 1519 219 1881 219 
Q 2159 219 2296 408 
Q 2434 597 2465 842 
Q 2497 1088 2497 1416 
L 2497 1434 
Q 2497 1928 2403 2276 
Q 2309 2625 1953 2625 
Q 1756 2625 1584 2531 
Q 1413 2438 1288 2272 
L 1288 581 
z
" transform="scale(0.015625)"/>
     </defs>
     <use xlink:href="#DejaVuSans-28" transform="translate(0 0.235938)"/>
     <use xlink:href="#DejaVuSans-62" transform="translate(39.013672 0.235938)"/>
     <use xlink:href="#DejaVuSans-29" transform="translate(102.490234 0.235938)"/>
     <use xlink:href="#DejaVuSans-20" transform="translate(141.503906 0.235938)"/>
     <use xlink:href="#DejaVuSans-68" transform="translate(173.291016 0.235938)"/>
     <use xlink:href="#DejaVuSans-69" transform="translate(236.669922 0.235938)"/>
     <use xlink:href="#DejaVuSans-64" transform="translate(264.453125 0.235938)"/>
     <use xlink:href="#DejaVuSans-64" transform="translate(327.929688 0.235938)"/>
     <use xlink:href="#DejaVuSans-65" transform="translate(391.40625 0.235938)"/>
     <use xlink:href="#DejaVuSans-6e" transform="translate(452.929688 0.235938)"/>
     <use xlink:href="#DejaVuSans-20" transform="translate(516.308594 0.235938)"/>
     <use xlink:href="#DejaVuSans-73" transform="translate(548.095703 0.235938)"/>
     <use xlink:href="#DejaVuSans-70" transform="translate(600.195312 0.235938)"/>
     <use xlink:href="#DejaVuSans-61" transform="translate(663.671875 0.235938)"/>
     <use xlink:href="#DejaVuSans-63" transform="translate(724.951172 0.235938)"/>
     <use xlink:href="#DejaVuSans-65" transform="translate(779.931641 0.235938)"/>
     <use xlink:href="#DejaVuSans-20" transform="translate(841.455078 0.235938)"/>
     <use xlink:href="#Cmmi10-68" transform="translate(873.242188 0.235938)"/>
     <use xlink:href="#Cmr10-3d" transform="translate(948.417969 0.235938)"/>
     <use xlink:href="#Cmr10-52" transform="translate(1043.662109 0.235938)"/>
     <use xlink:href="#Cmr10-65" transform="translate(1117.246094 0.235938)"/>
     <use xlink:href="#Cmr10-4c" transform="translate(1161.630859 0.235938)"/>
     <use xlink:href="#Cmr10-55" transform="translate(1224.130859 0.235938)"/>
     <use xlink:href="#Cmr10-28" transform="translate(1299.130859 0.235938)"/>
     <use xlink:href="#Cmb10-78" transform="translate(1337.949219 0.235938)"/>
     <use xlink:href="#Cmb10-57" transform="translate(1390.634766 0.235938)"/>
     <use xlink:href="#Cmr10-28" transform="translate(1498.419219 38.5) scale(0.7)"/>
     <use xlink:href="#Cmr10-31" transform="translate(1525.59207 38.5) scale(0.7)"/>
     <use xlink:href="#Cmr10-29" transform="translate(1560.59207 38.5) scale(0.7)"/>
     <use xlink:href="#Cmr10-2b" transform="translate(1611.700859 0.235938)"/>
     <use xlink:href="#Cmb10-62" transform="translate(1706.945 0.235938)"/>
     <use xlink:href="#Cmr10-28" transform="translate(1766.926719 38.5) scale(0.7)"/>
     <use xlink:href="#Cmr10-31" transform="translate(1794.09957 38.5) scale(0.7)"/>
     <use xlink:href="#Cmr10-29" transform="translate(1829.09957 38.5) scale(0.7)"/>
     <use xlink:href="#Cmr10-29" transform="translate(1862.649766 0.235938)"/>
    </g>
   </g>
   <g id="line2d_18">
    <defs>
     <path id="me48abb3ebd" d="M 0 6.5 
C 1.72382 6.5 3.377269 5.815119 4.596194 4.596194 
C 5.815119 3.377269 6.5 1.72382 6.5 0 
C 6.5 -1.72382 5.815119 -3.377269 4.596194 -4.596194 
C 3.377269 -5.815119 1.72382 -6.5 0 -6.5 
C -1.72382 -6.5 -3.377269 -5.815119 -4.596194 -4.596194 
C -5.815119 -3.377269 -6.5 -1.72382 -6.5 0 
C -6.5 1.72382 -5.815119 3.377269 -4.596194 4.596194 
C -3.377269 5.815119 -1.72382 6.5 0 6.5 
z
" style="stroke: #1f77b4"/>
    </defs>
    <g clip-path="url(#pcbbfe34199)">
     <use xlink:href="#me48abb3ebd" x="348.654584" y="135.152222" style="fill: #1f77b4; stroke: #1f77b4"/>
    </g>
   </g>
   <g id="line2d_19">
    <defs>
     <path id="m3a6383b7d7" d="M 0 6.5 
C 1.72382 6.5 3.377269 5.815119 4.596194 4.596194 
C 5.815119 3.377269 6.5 1.72382 6.5 0 
C 6.5 -1.72382 5.815119 -3.377269 4.596194 -4.596194 
C 3.377269 -5.815119 1.72382 -6.5 0 -6.5 
C -1.72382 -6.5 -3.377269 -5.815119 -4.596194 -4.596194 
C -5.815119 -3.377269 -6.5 -1.72382 -6.5 0 
C -6.5 1.72382 -5.815119 3.377269 -4.596194 4.596194 
C -3.377269 5.815119 -1.72382 6.5 0 6.5 
z
" style="stroke: #ff7f0e"/>
    </defs>
    <g clip-path="url(#pcbbfe34199)">
     <use xlink:href="#m3a6383b7d7" x="418.049723" y="135.152222" style="fill: #ff7f0e; stroke: #ff7f0e"/>
    </g>
   </g>
   <g id="line2d_20">
    <g clip-path="url(#pcbbfe34199)">
     <use xlink:href="#m3a6383b7d7" x="418.049723" y="135.152222" style="fill: #ff7f0e; stroke: #ff7f0e"/>
    </g>
   </g>
   <g id="line2d_21">
    <g clip-path="url(#pcbbfe34199)">
     <use xlink:href="#me48abb3ebd" x="487.444861" y="65.757083" style="fill: #1f77b4; stroke: #1f77b4"/>
    </g>
   </g>
   <g id="text_23">
    <!-- $(0,0)$ -->
    <g style="fill: #1f77b4" transform="translate(359.757806 123.398194) scale(0.085 -0.085)">
     <defs>
      <path id="Cmr10-30" d="M 1600 -141 
Q 816 -141 533 504 
Q 250 1150 250 2041 
Q 250 2597 351 3087 
Q 453 3578 754 3920 
Q 1056 4263 1600 4263 
Q 2022 4263 2290 4056 
Q 2559 3850 2700 3523 
Q 2841 3197 2892 2823 
Q 2944 2450 2944 2041 
Q 2944 1491 2842 1011 
Q 2741 531 2444 195 
Q 2147 -141 1600 -141 
z
M 1600 25 
Q 1956 25 2131 390 
Q 2306 756 2347 1200 
Q 2388 1644 2388 2144 
Q 2388 2625 2347 3031 
Q 2306 3438 2132 3767 
Q 1959 4097 1600 4097 
Q 1238 4097 1063 3765 
Q 888 3434 847 3029 
Q 806 2625 806 2144 
Q 806 1788 823 1472 
Q 841 1156 916 820 
Q 991 484 1158 254 
Q 1325 25 1600 25 
z
" transform="scale(0.015625)"/>
      <path id="Cmmi10-3b" d="M 634 -1153 
Q 634 -1125 659 -1100 
Q 891 -878 1019 -587 
Q 1147 -297 1147 25 
L 1147 103 
Q 1044 0 891 0 
Q 744 0 641 103 
Q 538 206 538 353 
Q 538 503 641 603 
Q 744 703 891 703 
Q 1119 703 1216 492 
Q 1313 281 1313 25 
Q 1313 -331 1170 -651 
Q 1028 -972 769 -1228 
Q 744 -1241 728 -1241 
Q 697 -1241 665 -1212 
Q 634 -1184 634 -1153 
z
" transform="scale(0.015625)"/>
     </defs>
     <use xlink:href="#Cmr10-28"/>
     <use xlink:href="#Cmr10-30" transform="translate(38.818359 0)"/>
     <use xlink:href="#Cmmi10-3b" transform="translate(88.818359 0)"/>
     <use xlink:href="#Cmr10-30" transform="translate(134.0625 0)"/>
     <use xlink:href="#Cmr10-29" transform="translate(184.0625 0)"/>
    </g>
   </g>
   <g id="text_24">
    <!-- $(0,1)$ -->
    <g style="fill: #ff7f0e" transform="translate(429.152945 123.398194) scale(0.085 -0.085)">
     <use xlink:href="#Cmr10-28"/>
     <use xlink:href="#Cmr10-30" transform="translate(38.818359 0)"/>
     <use xlink:href="#Cmmi10-3b" transform="translate(88.818359 0)"/>
     <use xlink:href="#Cmr10-31" transform="translate(134.0625 0)"/>
     <use xlink:href="#Cmr10-29" transform="translate(184.0625 0)"/>
    </g>
   </g>
   <g id="text_25">
    <!-- $(1,0)$ -->
    <g style="fill: #ff7f0e" transform="translate(429.152945 158.095763) scale(0.085 -0.085)">
     <use xlink:href="#Cmr10-28"/>
     <use xlink:href="#Cmr10-31" transform="translate(38.818359 0)"/>
     <use xlink:href="#Cmmi10-3b" transform="translate(88.818359 0)"/>
     <use xlink:href="#Cmr10-30" transform="translate(134.0625 0)"/>
     <use xlink:href="#Cmr10-29" transform="translate(184.0625 0)"/>
    </g>
   </g>
   <g id="text_26">
    <!-- $(1,1)$ -->
    <g style="fill: #1f77b4" transform="translate(498.548083 54.003055) scale(0.085 -0.085)">
     <use xlink:href="#Cmr10-28"/>
     <use xlink:href="#Cmr10-31" transform="translate(38.818359 0)"/>
     <use xlink:href="#Cmmi10-3b" transform="translate(88.818359 0)"/>
     <use xlink:href="#Cmr10-31" transform="translate(134.0625 0)"/>
     <use xlink:href="#Cmr10-29" transform="translate(184.0625 0)"/>
    </g>
   </g>
  </g>
 </g>
 <defs>
  <clipPath id="pfeede2225a">
   <rect x="34.572187" y="24.12" width="211.655172" height="152.669305"/>
  </clipPath>
  <clipPath id="pcbbfe34199">
   <rect x="313.957015" y="24.12" width="211.655172" height="152.669305"/>
  </clipPath>
 </defs>
</svg>
