<?xml version="1.0" encoding="utf-8" standalone="no"?>
<!DOCTYPE svg PUBLIC "-//W3C//DTD SVG 1.1//EN"
  "http://www.w3.org/Graphics/SVG/1.1/DTD/svg11.dtd">
<svg xmlns:xlink="http://www.w3.org/1999/xlink" width="694.235781pt" height="226.0355pt" viewBox="0 0 694.235781 226.0355" xmlns="http://www.w3.org/2000/svg" version="1.1">
 <metadata>
  <rdf:RDF xmlns:dc="http://purl.org/dc/elements/1.1/" xmlns:cc="http://creativecommons.org/ns#" xmlns:rdf="http://www.w3.org/1999/02/22-rdf-syntax-ns#">
   <cc:Work>
    <dc:type rdf:resource="http://purl.org/dc/dcmitype/StillImage"/>
    <dc:format>image/svg+xml</dc:format>
    <dc:creator>
     <cc:Agent>
      <dc:title>Matplotlib v3.10.8, https://matplotlib.org/</dc:title>
     </cc:Agent>
    </dc:creator>
   </cc:Work>
  </rdf:RDF>
 </metadata>
 <defs>
  <style type="text/css">*{stroke-linejoin: round; stroke-linecap: butt}</style>
 </defs>
 <g id="figure_1">
  <g id="patch_1">
   <path d="M 0 226.0355 
L 694.235781 226.0355 
L 694.235781 0 
L 0 0 
z
" style="fill: #ffffff"/>
  </g>
  <g id="axes_1">
   <g id="patch_2">
    <path d="M 47.416406 184.608 
L 243.74974 184.608 
L 243.74974 7.2 
L 47.416406 7.2 
z
" style="fill: #ffffff"/>
   </g>
   <g id="matplotlib.axis_1">
    <g id="xtick_1">
     <g id="line2d_1">
      <defs>
       <path id="m0e0d04b24a" d="M 0 0 
L 0 3.5 
" style="stroke: #000000; stroke-width: 0.8"/>
      </defs>
      <g>
       <use xlink:href="#m0e0d04b24a" x="47.416406" y="184.608" style="stroke: #000000; stroke-width: 0.8"/>
      </g>
     </g>
     <g id="text_1">
      <!-- 0 -->
      <g transform="translate(43.917031 199.966281) scale(0.11 -0.11)">
       <defs>
        <path id="DejaVuSans-30" d="M 2034 4250 
Q 1547 4250 1301 3770 
Q 1056 3291 1056 2328 
Q 1056 1369 1301 889 
Q 1547 409 2034 409 
Q 2525 409 2770 889 
Q 3016 1369 3016 2328 
Q 3016 3291 2770 3770 
Q 2525 4250 2034 4250 
z
M 2034 4750 
Q 2819 4750 3233 4129 
Q 3647 3509 3647 2328 
Q 3647 1150 3233 529 
Q 2819 -91 2034 -91 
Q 1250 -91 836 529 
Q 422 1150 422 2328 
Q 422 3509 836 4129 
Q 1250 4750 2034 4750 
z
" transform="scale(0.015625)"/>
       </defs>
       <use xlink:href="#DejaVuSans-30"/>
      </g>
     </g>
    </g>
    <g id="xtick_2">
     <g id="line2d_2">
      <g>
       <use xlink:href="#m0e0d04b24a" x="145.583073" y="184.608" style="stroke: #000000; stroke-width: 0.8"/>
      </g>
     </g>
     <g id="text_2">
      <!-- 0.5 -->
      <g transform="translate(136.836354 199.966281) scale(0.11 -0.11)">
       <defs>
        <path id="DejaVuSans-2e" d="M 684 794 
L 1344 794 
L 1344 0 
L 684 0 
L 684 794 
z
" transform="scale(0.015625)"/>
        <path id="DejaVuSans-35" d="M 691 4666 
L 3169 4666 
L 3169 4134 
L 1269 4134 
L 1269 2991 
Q 1406 3038 1543 3061 
Q 1681 3084 1819 3084 
Q 2600 3084 3056 2656 
Q 3513 2228 3513 1497 
Q 3513 744 3044 326 
Q 2575 -91 1722 -91 
Q 1428 -91 1123 -41 
Q 819 9 494 109 
L 494 744 
Q 775 591 1075 516 
Q 1375 441 1709 441 
Q 2250 441 2565 725 
Q 2881 1009 2881 1497 
Q 2881 1984 2565 2268 
Q 2250 2553 1709 2553 
Q 1456 2553 1204 2497 
Q 953 2441 691 2322 
L 691 4666 
z
" transform="scale(0.015625)"/>
       </defs>
       <use xlink:href="#DejaVuSans-30"/>
       <use xlink:href="#DejaVuSans-2e" transform="translate(63.623047 0)"/>
       <use xlink:href="#DejaVuSans-35" transform="translate(95.410156 0)"/>
      </g>
     </g>
    </g>
    <g id="xtick_3">
     <g id="line2d_3">
      <g>
       <use xlink:href="#m0e0d04b24a" x="243.74974" y="184.608" style="stroke: #000000; stroke-width: 0.8"/>
      </g>
     </g>
     <g id="text_3">
      <!-- 1 -->
      <g transform="translate(240.250365 199.966281) scale(0.11 -0.11)">
       <defs>
        <path id="DejaVuSans-31" d="M 794 531 
L 1825 531 
L 1825 4091 
L 703 3866 
L 703 4441 
L 1819 4666 
L 2450 4666 
L 2450 531 
L 3481 531 
L 3481 0 
L 794 0 
L 794 531 
z
" transform="scale(0.015625)"/>
       </defs>
       <use xlink:href="#DejaVuSans-31"/>
      </g>
     </g>
    </g>
    <g id="text_4">
     <!-- $s$ -->
     <g transform="translate(142.528073 216.131906) scale(0.13 -0.13)">
      <defs>
       <path id="Cmmi10-73" d="M 556 391 
Q 728 97 1247 97 
Q 1472 97 1675 173 
Q 1878 250 2011 403 
Q 2144 556 2144 775 
Q 2144 941 2025 1047 
Q 1906 1153 1734 1191 
L 1388 1259 
Q 1150 1319 997 1481 
Q 844 1644 844 1875 
Q 844 2159 998 2378 
Q 1153 2597 1406 2712 
Q 1659 2828 1931 2828 
Q 2222 2828 2451 2689 
Q 2681 2550 2681 2278 
Q 2681 2131 2598 2018 
Q 2516 1906 2369 1906 
Q 2284 1906 2223 1961 
Q 2163 2016 2163 2100 
Q 2163 2175 2205 2245 
Q 2247 2316 2317 2358 
Q 2388 2400 2463 2400 
Q 2406 2538 2251 2600 
Q 2097 2663 1919 2663 
Q 1756 2663 1593 2597 
Q 1431 2531 1332 2404 
Q 1234 2278 1234 2106 
Q 1234 1991 1315 1903 
Q 1397 1816 1516 1778 
L 1888 1703 
Q 2066 1666 2214 1570 
Q 2363 1475 2448 1329 
Q 2534 1184 2534 997 
Q 2534 759 2401 528 
Q 2269 297 2075 159 
Q 1734 -72 1241 -72 
Q 900 -72 615 84 
Q 331 241 331 550 
Q 331 725 432 854 
Q 534 984 709 984 
Q 813 984 883 921 
Q 953 859 953 756 
Q 953 609 843 500 
Q 734 391 588 391 
L 556 391 
z
" transform="scale(0.015625)"/>
      </defs>
      <use xlink:href="#Cmmi10-73" transform="translate(0 0.8125)"/>
     </g>
    </g>
   </g>
   <g id="matplotlib.axis_2">
    <g id="ytick_1">
     <g id="line2d_4">
      <defs>
       <path id="m5d09d475d1" d="M 0 0 
L -3.5 0 
" style="stroke: #000000; stroke-width: 0.8"/>
      </defs>
      <g>
       <use xlink:href="#m5d09d475d1" x="47.416406" y="152.928" style="stroke: #000000; stroke-width: 0.8"/>
      </g>
     </g>
     <g id="text_5">
      <!-- −1 -->
      <g transform="translate(24.2 157.107141) scale(0.11 -0.11)">
       <defs>
        <path id="DejaVuSans-2212" d="M 678 2272 
L 4684 2272 
L 4684 1741 
L 678 1741 
L 678 2272 
z
" transform="scale(0.015625)"/>
       </defs>
       <use xlink:href="#DejaVuSans-2212"/>
       <use xlink:href="#DejaVuSans-31" transform="translate(83.789062 0)"/>
      </g>
     </g>
    </g>
    <g id="ytick_2">
     <g id="line2d_5">
      <g>
       <use xlink:href="#m5d09d475d1" x="47.416406" y="110.688" style="stroke: #000000; stroke-width: 0.8"/>
      </g>
     </g>
     <g id="text_6">
      <!-- 0 -->
      <g transform="translate(33.417656 114.867141) scale(0.11 -0.11)">
       <use xlink:href="#DejaVuSans-30"/>
      </g>
     </g>
    </g>
    <g id="ytick_3">
     <g id="line2d_6">
      <g>
       <use xlink:href="#m5d09d475d1" x="47.416406" y="68.448" style="stroke: #000000; stroke-width: 0.8"/>
      </g>
     </g>
     <g id="text_7">
      <!-- 1 -->
      <g transform="translate(33.417656 72.627141) scale(0.11 -0.11)">
       <use xlink:href="#DejaVuSans-31"/>
      </g>
     </g>
    </g>
    <g id="ytick_4">
     <g id="line2d_7">
      <g>
       <use xlink:href="#m5d09d475d1" x="47.416406" y="26.208" style="stroke: #000000; stroke-width: 0.8"/>
      </g>
     </g>
     <g id="text_8">
      <!-- 2 -->
      <g transform="translate(33.417656 30.387141) scale(0.11 -0.11)">
       <defs>
        <path id="DejaVuSans-32" d="M 1228 531 
L 3431 531 
L 3431 0 
L 469 0 
L 469 531 
Q 828 903 1448 1529 
Q 2069 2156 2228 2338 
Q 2531 2678 2651 2914 
Q 2772 3150 2772 3378 
Q 2772 3750 2511 3984 
Q 2250 4219 1831 4219 
Q 1534 4219 1204 4116 
Q 875 4013 500 3803 
L 500 4441 
Q 881 4594 1212 4672 
Q 1544 4750 1819 4750 
Q 2544 4750 2975 4387 
Q 3406 4025 3406 3419 
Q 3406 3131 3298 2873 
Q 3191 2616 2906 2266 
Q 2828 2175 2409 1742 
Q 1991 1309 1228 531 
z
" transform="scale(0.015625)"/>
       </defs>
       <use xlink:href="#DejaVuSans-32"/>
      </g>
     </g>
    </g>
    <g id="text_9">
     <!-- $f(s)$ -->
     <g transform="translate(16.95 107.214) rotate(-90) scale(0.13 -0.13)">
      <defs>
       <path id="Cmmi10-66" d="M 622 -1056 
Q 741 -1147 909 -1147 
Q 1138 -1147 1281 -641 
Q 1341 -397 1606 966 
L 1900 2534 
L 1350 2534 
Q 1288 2534 1288 2619 
Q 1313 2759 1369 2759 
L 1941 2759 
L 2016 3175 
Q 2053 3369 2084 3508 
Q 2116 3647 2152 3765 
Q 2188 3884 2259 4031 
Q 2369 4241 2555 4377 
Q 2741 4513 2956 4513 
Q 3097 4513 3230 4461 
Q 3363 4409 3447 4306 
Q 3531 4203 3531 4063 
Q 3531 3900 3423 3779 
Q 3316 3659 3163 3659 
Q 3059 3659 2986 3723 
Q 2913 3788 2913 3891 
Q 2913 4031 3008 4136 
Q 3103 4241 3244 4256 
Q 3125 4347 2950 4347 
Q 2853 4347 2767 4256 
Q 2681 4166 2656 4063 
Q 2616 3900 2478 3181 
L 2400 2759 
L 3059 2759 
Q 3122 2759 3122 2675 
Q 3119 2659 3109 2620 
Q 3100 2581 3083 2557 
Q 3066 2534 3041 2534 
L 2356 2534 
L 2059 972 
Q 2003 631 1929 279 
Q 1856 -72 1723 -442 
Q 1591 -813 1384 -1063 
Q 1178 -1313 897 -1313 
Q 681 -1313 511 -1189 
Q 341 -1066 341 -863 
Q 341 -700 445 -579 
Q 550 -459 709 -459 
Q 816 -459 887 -523 
Q 959 -588 959 -691 
Q 959 -828 857 -942 
Q 756 -1056 622 -1056 
z
" transform="scale(0.015625)"/>
       <path id="Cmr10-28" d="M 1984 -1588 
Q 1628 -1306 1370 -942 
Q 1113 -578 948 -165 
Q 784 247 703 697 
Q 622 1147 622 1600 
Q 622 2059 703 2509 
Q 784 2959 951 3375 
Q 1119 3791 1378 4153 
Q 1638 4516 1984 4788 
Q 1984 4800 2016 4800 
L 2075 4800 
Q 2094 4800 2109 4783 
Q 2125 4766 2125 4744 
Q 2125 4716 2113 4703 
Q 1800 4397 1592 4047 
Q 1384 3697 1257 3301 
Q 1131 2906 1075 2482 
Q 1019 2059 1019 1600 
Q 1019 -434 2106 -1491 
Q 2125 -1509 2125 -1544 
Q 2125 -1559 2108 -1579 
Q 2091 -1600 2075 -1600 
L 2016 -1600 
Q 1984 -1600 1984 -1588 
z
" transform="scale(0.015625)"/>
       <path id="Cmr10-29" d="M 416 -1600 
Q 359 -1600 359 -1544 
Q 359 -1516 372 -1503 
Q 1466 -434 1466 1600 
Q 1466 3634 384 4691 
Q 359 4706 359 4744 
Q 359 4766 376 4783 
Q 394 4800 416 4800 
L 475 4800 
Q 494 4800 506 4788 
Q 966 4425 1272 3906 
Q 1578 3388 1720 2800 
Q 1863 2213 1863 1600 
Q 1863 1147 1786 708 
Q 1709 269 1542 -157 
Q 1375 -584 1119 -945 
Q 863 -1306 506 -1588 
Q 494 -1600 475 -1600 
L 416 -1600 
z
" transform="scale(0.015625)"/>
      </defs>
      <use xlink:href="#Cmmi10-66"/>
      <use xlink:href="#Cmr10-28" transform="translate(48.876953 0)"/>
      <use xlink:href="#Cmmi10-73" transform="translate(87.695312 0)"/>
      <use xlink:href="#Cmr10-29" transform="translate(134.472656 0)"/>
     </g>
    </g>
   </g>
   <g id="line2d_8">
    <path d="M 47.61274 109.864366 
L 51.635559 93.442914 
L 53.892263 85.141883 
L 55.756497 79.103121 
L 57.326378 74.720452 
L 58.798141 71.26562 
L 60.07367 68.817689 
L 61.25108 67.023946 
L 62.330373 65.777302 
L 63.311549 64.97267 
L 64.194607 64.51182 
L 65.077665 64.293959 
L 65.960723 64.310509 
L 66.843781 64.550722 
L 67.824957 65.06433 
L 68.90425 65.905684 
L 70.081661 67.118708 
L 71.455306 68.865616 
L 73.123305 71.361404 
L 75.576244 75.485148 
L 79.697181 82.431919 
L 81.561415 85.110381 
L 83.033178 86.864513 
L 84.308707 88.074055 
L 85.486117 88.905812 
L 86.56541 89.412695 
L 87.644704 89.666735 
L 88.625879 89.675777 
L 89.607055 89.475052 
L 90.686348 89.018232 
L 91.863759 88.251498 
L 93.139287 87.12978 
L 94.61105 85.506211 
L 96.377166 83.186871 
L 98.830105 79.552312 
L 102.65669 73.896459 
L 104.324689 71.823058 
L 105.698334 70.442814 
L 106.875745 69.555179 
L 107.955038 69.019046 
L 108.936214 68.786936 
L 109.819272 68.801932 
L 110.70233 69.041015 
L 111.585388 69.513566 
L 112.468446 70.226747 
L 113.449622 71.307207 
L 114.528915 72.849382 
L 115.706325 74.952991 
L 116.981854 77.717875 
L 118.355499 81.236753 
L 119.92538 85.895529 
L 121.691496 91.853147 
L 123.850083 99.962394 
L 126.891727 112.358639 
L 131.99384 133.173819 
L 134.152426 141.031116 
L 136.01666 147.000259 
L 137.586541 151.312026 
L 138.960187 154.484339 
L 140.235715 156.894103 
L 141.413126 158.643573 
L 142.492419 159.840649 
L 143.473595 160.591745 
L 144.356653 160.996785 
L 145.239711 161.150998 
L 146.122769 161.062413 
L 147.005827 160.741268 
L 147.987002 160.126749 
L 149.066295 159.160418 
L 150.243706 157.793697 
L 151.617352 155.843906 
L 153.28535 153.067083 
L 155.640172 148.652716 
L 160.644167 139.14887 
L 162.508401 136.160244 
L 163.980164 134.184828 
L 165.157575 132.892505 
L 165.35381 120.031912 
L 166.531221 119.068899 
L 167.610514 118.447897 
L 168.689807 118.083248 
L 169.670983 117.974692 
L 170.652158 118.075045 
L 171.731451 118.418374 
L 172.810745 118.992097 
L 174.086273 119.941311 
L 175.459919 121.249279 
L 177.127917 123.152647 
L 179.580856 126.33176 
L 183.113088 130.889731 
L 184.781087 132.684359 
L 186.154733 133.849271 
L 187.332143 134.563145 
L 188.411436 134.949136 
L 189.392612 135.052604 
L 190.27567 134.928406 
L 191.158728 134.586509 
L 192.041786 134.017673 
L 193.022962 133.110999 
L 194.102255 131.772698 
L 195.181548 130.074113 
L 196.358959 127.812822 
L 197.732605 124.649894 
L 199.204368 120.666124 
L 200.872366 115.473328 
L 202.834718 108.577416 
L 205.287657 99.067543 
L 213.725767 65.511797 
L 215.59 59.354419 
L 217.257999 54.591826 
L 218.729762 51.061264 
L 220.00529 48.554511 
L 221.182701 46.718465 
L 222.261994 45.44809 
L 223.24317 44.638108 
L 224.126228 44.188363 
L 225.009286 43.999003 
L 225.794226 44.044111 
L 226.677284 44.327119 
L 227.560342 44.845684 
L 228.541518 45.682523 
L 229.620811 46.896311 
L 230.896339 48.68571 
L 232.368103 51.157077 
L 234.232336 54.768266 
L 236.979628 60.652908 
L 240.90433 69.001478 
L 242.866682 72.646021 
L 243.74974 74.097683 
L 243.74974 74.097683 
" clip-path="url(#p42e51e9fb5)" style="fill: none; stroke: #000000; stroke-width: 1.3; stroke-linecap: square"/>
   </g>
   <g id="line2d_9">
    <path d="M 47.61274 77.566375 
L 50.163796 76.509116 
L 52.714853 75.684264 
L 55.364027 75.063932 
L 58.013201 74.674251 
L 60.662375 74.505045 
L 63.409667 74.551565 
L 66.255076 74.826064 
L 69.198603 75.339095 
L 72.240247 76.099287 
L 75.380009 77.113114 
L 78.716006 78.426571 
L 82.248238 80.060468 
L 85.976705 82.030323 
L 90.097643 84.466911 
L 94.61105 87.404095 
L 99.713163 91.000977 
L 105.796452 95.575736 
L 114.627032 102.529909 
L 126.989845 112.237272 
L 133.073133 116.722489 
L 138.175246 120.213475 
L 142.688654 123.033563 
L 146.711474 125.292265 
L 150.439941 127.138874 
L 153.972173 128.642861 
L 157.30817 129.821877 
L 160.447932 130.698745 
L 163.489577 131.316617 
L 166.433103 131.682884 
L 169.278512 131.807065 
L 172.025804 131.700573 
L 174.674978 131.376488 
L 177.324152 130.824731 
L 179.875209 130.06873 
L 182.426265 129.083084 
L 184.977322 127.858708 
L 187.528378 126.386513 
L 190.079435 124.657413 
L 192.630491 122.66232 
L 195.279666 120.299215 
L 197.92884 117.629287 
L 200.578014 114.642359 
L 203.325305 111.199093 
L 206.072597 107.392617 
L 208.918006 103.055187 
L 211.763415 98.303356 
L 214.706942 92.938163 
L 217.650469 87.102042 
L 220.692113 80.561818 
L 223.733758 73.488439 
L 226.873519 65.611326 
L 230.013281 57.132752 
L 233.251161 47.741345 
L 236.587158 37.357866 
L 239.923155 26.236224 
L 243.357269 13.99499 
L 243.74974 12.543819 
L 243.74974 12.543819 
" clip-path="url(#p42e51e9fb5)" style="fill: none; stroke: #ff7f0e; stroke-opacity: 0.9; stroke-width: 2.4; stroke-linecap: square"/>
   </g>
   <g id="patch_3">
    <path d="M 47.416406 184.608 
L 47.416406 7.2 
" style="fill: none; stroke: #000000; stroke-width: 0.8; stroke-linejoin: miter; stroke-linecap: square"/>
   </g>
   <g id="patch_4">
    <path d="M 47.416406 184.608 
L 243.74974 184.608 
" style="fill: none; stroke: #000000; stroke-width: 0.8; stroke-linejoin: miter; stroke-linecap: square"/>
   </g>
   <g id="text_10">
    <!-- $N = 4$, error $56\,\%$ -->
    <g transform="translate(53.306406 29.5872) scale(0.13 -0.13)">
     <defs>
      <path id="Cmmi10-4e" d="M 300 0 
Q 238 0 238 84 
Q 241 100 250 139 
Q 259 178 276 201 
Q 294 225 319 225 
Q 931 225 1031 616 
L 1900 4116 
Q 1722 4147 1338 4147 
Q 1275 4147 1275 4231 
Q 1278 4247 1287 4286 
Q 1297 4325 1314 4348 
Q 1331 4372 1356 4372 
L 2463 4372 
Q 2509 4372 2522 4331 
L 3944 947 
L 4653 3781 
Q 4666 3850 4666 3878 
Q 4666 4147 4172 4147 
Q 4109 4147 4109 4231 
Q 4131 4313 4143 4342 
Q 4156 4372 4219 4372 
L 5588 4372 
Q 5650 4372 5650 4288 
Q 5647 4272 5637 4233 
Q 5628 4194 5611 4170 
Q 5594 4147 5569 4147 
Q 4956 4147 4856 3756 
L 3938 56 
Q 3916 0 3872 0 
L 3794 0 
Q 3750 0 3738 44 
L 2106 3916 
L 2094 3956 
Q 2081 3969 2081 3975 
L 1234 588 
Q 1228 572 1225 548 
Q 1222 525 1216 494 
Q 1216 328 1359 276 
Q 1503 225 1716 225 
Q 1778 225 1778 141 
Q 1756 53 1740 26 
Q 1725 0 1672 0 
L 300 0 
z
" transform="scale(0.015625)"/>
      <path id="Cmr10-3d" d="M 481 850 
Q 428 850 393 890 
Q 359 931 359 978 
Q 359 1031 393 1068 
Q 428 1106 481 1106 
L 4500 1106 
Q 4547 1106 4581 1068 
Q 4616 1031 4616 978 
Q 4616 931 4581 890 
Q 4547 850 4500 850 
L 481 850 
z
M 481 2094 
Q 428 2094 393 2131 
Q 359 2169 359 2222 
Q 359 2269 393 2309 
Q 428 2350 481 2350 
L 4500 2350 
Q 4547 2350 4581 2309 
Q 4616 2269 4616 2222 
Q 4616 2169 4581 2131 
Q 4547 2094 4500 2094 
L 481 2094 
z
" transform="scale(0.015625)"/>
      <path id="Cmr10-34" d="M 178 1056 
L 178 1281 
L 2156 4231 
Q 2178 4263 2222 4263 
L 2316 4263 
Q 2388 4263 2388 4191 
L 2388 1281 
L 3016 1281 
L 3016 1056 
L 2388 1056 
L 2388 428 
Q 2388 297 2575 261 
Q 2763 225 3009 225 
L 3009 0 
L 1247 0 
L 1247 225 
Q 1494 225 1681 261 
Q 1869 297 1869 428 
L 1869 1056 
L 178 1056 
z
M 391 1281 
L 1906 1281 
L 1906 3547 
L 391 1281 
z
" transform="scale(0.015625)"/>
      <path id="DejaVuSans-2c" d="M 750 794 
L 1409 794 
L 1409 256 
L 897 -744 
L 494 -744 
L 750 256 
L 750 794 
z
" transform="scale(0.015625)"/>
      <path id="DejaVuSans-20" transform="scale(0.015625)"/>
      <path id="DejaVuSans-65" d="M 3597 1894 
L 3597 1613 
L 953 1613 
Q 991 1019 1311 708 
Q 1631 397 2203 397 
Q 2534 397 2845 478 
Q 3156 559 3463 722 
L 3463 178 
Q 3153 47 2828 -22 
Q 2503 -91 2169 -91 
Q 1331 -91 842 396 
Q 353 884 353 1716 
Q 353 2575 817 3079 
Q 1281 3584 2069 3584 
Q 2775 3584 3186 3129 
Q 3597 2675 3597 1894 
z
M 3022 2063 
Q 3016 2534 2758 2815 
Q 2500 3097 2075 3097 
Q 1594 3097 1305 2825 
Q 1016 2553 972 2059 
L 3022 2063 
z
" transform="scale(0.015625)"/>
      <path id="DejaVuSans-72" d="M 2631 2963 
Q 2534 3019 2420 3045 
Q 2306 3072 2169 3072 
Q 1681 3072 1420 2755 
Q 1159 2438 1159 1844 
L 1159 0 
L 581 0 
L 581 3500 
L 1159 3500 
L 1159 2956 
Q 1341 3275 1631 3429 
Q 1922 3584 2338 3584 
Q 2397 3584 2469 3576 
Q 2541 3569 2628 3553 
L 2631 2963 
z
" transform="scale(0.015625)"/>
      <path id="DejaVuSans-6f" d="M 1959 3097 
Q 1497 3097 1228 2736 
Q 959 2375 959 1747 
Q 959 1119 1226 758 
Q 1494 397 1959 397 
Q 2419 397 2687 759 
Q 2956 1122 2956 1747 
Q 2956 2369 2687 2733 
Q 2419 3097 1959 3097 
z
M 1959 3584 
Q 2709 3584 3137 3096 
Q 3566 2609 3566 1747 
Q 3566 888 3137 398 
Q 2709 -91 1959 -91 
Q 1206 -91 779 398 
Q 353 888 353 1747 
Q 353 2609 779 3096 
Q 1206 3584 1959 3584 
z
" transform="scale(0.015625)"/>
      <path id="Cmr10-35" d="M 556 728 
Q 622 541 758 387 
Q 894 234 1080 148 
Q 1266 63 1466 63 
Q 1928 63 2103 422 
Q 2278 781 2278 1294 
Q 2278 1516 2270 1667 
Q 2263 1819 2228 1959 
Q 2169 2184 2020 2353 
Q 1872 2522 1656 2522 
Q 1441 2522 1286 2456 
Q 1131 2391 1034 2303 
Q 938 2216 863 2119 
Q 788 2022 769 2016 
L 697 2016 
Q 681 2016 657 2036 
Q 634 2056 634 2075 
L 634 4213 
Q 634 4228 654 4245 
Q 675 4263 697 4263 
L 716 4263 
Q 1147 4056 1631 4056 
Q 2106 4056 2547 4263 
L 2566 4263 
Q 2588 4263 2606 4247 
Q 2625 4231 2625 4213 
L 2625 4153 
Q 2625 4122 2613 4122 
Q 2394 3831 2064 3668 
Q 1734 3506 1381 3506 
Q 1125 3506 856 3578 
L 856 2369 
Q 1069 2541 1236 2614 
Q 1403 2688 1663 2688 
Q 2016 2688 2295 2484 
Q 2575 2281 2725 1954 
Q 2875 1628 2875 1288 
Q 2875 903 2686 575 
Q 2497 247 2172 53 
Q 1847 -141 1466 -141 
Q 1150 -141 886 21 
Q 622 184 470 459 
Q 319 734 319 1044 
Q 319 1188 412 1278 
Q 506 1369 647 1369 
Q 788 1369 883 1276 
Q 978 1184 978 1044 
Q 978 906 883 811 
Q 788 716 647 716 
Q 625 716 597 720 
Q 569 725 556 728 
z
" transform="scale(0.015625)"/>
      <path id="Cmr10-36" d="M 1600 -141 
Q 1203 -141 937 70 
Q 672 281 526 617 
Q 381 953 325 1322 
Q 269 1691 269 2069 
Q 269 2575 466 3084 
Q 663 3594 1045 3928 
Q 1428 4263 1953 4263 
Q 2172 4263 2361 4180 
Q 2550 4097 2658 3936 
Q 2766 3775 2766 3547 
Q 2766 3416 2677 3327 
Q 2588 3238 2456 3238 
Q 2331 3238 2240 3328 
Q 2150 3419 2150 3547 
Q 2150 3672 2240 3762 
Q 2331 3853 2456 3853 
L 2491 3853 
Q 2409 3969 2261 4023 
Q 2113 4078 1953 4078 
Q 1759 4078 1595 3993 
Q 1431 3909 1300 3765 
Q 1169 3622 1081 3448 
Q 994 3275 945 3053 
Q 897 2831 884 2637 
Q 872 2444 872 2150 
Q 984 2413 1190 2580 
Q 1397 2747 1656 2747 
Q 1941 2747 2175 2631 
Q 2409 2516 2578 2311 
Q 2747 2106 2836 1843 
Q 2925 1581 2925 1313 
Q 2925 938 2758 598 
Q 2591 259 2287 59 
Q 1984 -141 1600 -141 
z
M 1600 63 
Q 1847 63 1997 175 
Q 2147 288 2217 473 
Q 2288 659 2305 848 
Q 2322 1038 2322 1313 
Q 2322 1675 2287 1931 
Q 2253 2188 2100 2383 
Q 1947 2578 1631 2578 
Q 1372 2578 1205 2403 
Q 1038 2228 961 1961 
Q 884 1694 884 1447 
Q 884 1363 891 1319 
Q 891 1309 889 1303 
Q 888 1297 884 1288 
Q 884 1013 940 731 
Q 997 450 1156 256 
Q 1316 63 1600 63 
z
" transform="scale(0.015625)"/>
      <path id="Cmr10-25" d="M 891 -231 
Q 891 -194 909 -166 
L 3809 4153 
Q 3425 3938 2963 3938 
Q 2463 3938 2003 4197 
Q 2131 3891 2131 3513 
Q 2131 3306 2082 3086 
Q 2034 2866 1934 2670 
Q 1834 2475 1676 2348 
Q 1519 2222 1306 2222 
Q 1006 2222 790 2422 
Q 575 2622 467 2922 
Q 359 3222 359 3513 
Q 359 3797 467 4098 
Q 575 4400 790 4600 
Q 1006 4800 1306 4800 
Q 1544 4800 1741 4609 
Q 2256 4103 2963 4103 
Q 3341 4103 3669 4270 
Q 3997 4438 4206 4750 
Q 4238 4800 4306 4800 
Q 4363 4800 4398 4765 
Q 4434 4731 4434 4672 
Q 4434 4638 4416 4609 
L 1113 -319 
Q 1084 -359 1019 -359 
Q 966 -359 928 -318 
Q 891 -278 891 -231 
z
M 1306 2388 
Q 1622 2388 1784 2764 
Q 1947 3141 1947 3513 
Q 1947 3722 1880 3989 
Q 1813 4256 1669 4445 
Q 1525 4634 1306 4634 
Q 988 4634 884 4279 
Q 781 3925 781 3506 
Q 781 3103 887 2745 
Q 994 2388 1306 2388 
z
M 4141 -359 
Q 3841 -359 3625 -159 
Q 3409 41 3301 342 
Q 3194 644 3194 934 
Q 3194 1219 3301 1520 
Q 3409 1822 3625 2022 
Q 3841 2222 4141 2222 
Q 4419 2222 4606 2011 
Q 4794 1800 4880 1503 
Q 4966 1206 4966 934 
Q 4966 728 4917 509 
Q 4869 291 4770 92 
Q 4672 -106 4514 -232 
Q 4356 -359 4141 -359 
z
M 4141 -191 
Q 4356 -191 4503 1 
Q 4650 194 4715 459 
Q 4781 725 4781 934 
Q 4781 1303 4618 1678 
Q 4456 2053 4141 2053 
Q 3822 2053 3719 1698 
Q 3616 1344 3616 928 
Q 3616 522 3722 165 
Q 3828 -191 4141 -191 
z
" transform="scale(0.015625)"/>
     </defs>
     <use xlink:href="#Cmmi10-4e"/>
     <use xlink:href="#Cmr10-3d" transform="translate(97.880859 0)"/>
     <use xlink:href="#Cmr10-34" transform="translate(193.125 0)"/>
     <use xlink:href="#DejaVuSans-2c" transform="translate(243.125 0)"/>
     <use xlink:href="#DejaVuSans-20" transform="translate(274.912109 0)"/>
     <use xlink:href="#DejaVuSans-65" transform="translate(306.699219 0)"/>
     <use xlink:href="#DejaVuSans-72" transform="translate(368.222656 0)"/>
     <use xlink:href="#DejaVuSans-72" transform="translate(409.335938 0)"/>
     <use xlink:href="#DejaVuSans-6f" transform="translate(450.449219 0)"/>
     <use xlink:href="#DejaVuSans-72" transform="translate(511.630859 0)"/>
     <use xlink:href="#DejaVuSans-20" transform="translate(552.744141 0)"/>
     <use xlink:href="#Cmr10-35" transform="translate(584.53125 0)"/>
     <use xlink:href="#Cmr10-36" transform="translate(634.53125 0)"/>
     <use xlink:href="#Cmr10-25" transform="translate(699.163704 0)"/>
    </g>
   </g>
   <g id="legend_1">
    <g id="line2d_10">
     <path d="M 57.316406 152.402063 
L 68.316406 152.402063 
L 79.316406 152.402063 
" style="fill: none; stroke: #000000; stroke-width: 1.3; stroke-linecap: square"/>
    </g>
    <g id="text_11">
     <!-- signal $f$ -->
     <g transform="translate(88.116406 156.252063) scale(0.11 -0.11)">
      <defs>
       <path id="DejaVuSans-73" d="M 2834 3397 
L 2834 2853 
Q 2591 2978 2328 3040 
Q 2066 3103 1784 3103 
Q 1356 3103 1142 2972 
Q 928 2841 928 2578 
Q 928 2378 1081 2264 
Q 1234 2150 1697 2047 
L 1894 2003 
Q 2506 1872 2764 1633 
Q 3022 1394 3022 966 
Q 3022 478 2636 193 
Q 2250 -91 1575 -91 
Q 1294 -91 989 -36 
Q 684 19 347 128 
L 347 722 
Q 666 556 975 473 
Q 1284 391 1588 391 
Q 1994 391 2212 530 
Q 2431 669 2431 922 
Q 2431 1156 2273 1281 
Q 2116 1406 1581 1522 
L 1381 1569 
Q 847 1681 609 1914 
Q 372 2147 372 2553 
Q 372 3047 722 3315 
Q 1072 3584 1716 3584 
Q 2034 3584 2315 3537 
Q 2597 3491 2834 3397 
z
" transform="scale(0.015625)"/>
       <path id="DejaVuSans-69" d="M 603 3500 
L 1178 3500 
L 1178 0 
L 603 0 
L 603 3500 
z
M 603 4863 
L 1178 4863 
L 1178 4134 
L 603 4134 
L 603 4863 
z
" transform="scale(0.015625)"/>
       <path id="DejaVuSans-67" d="M 2906 1791 
Q 2906 2416 2648 2759 
Q 2391 3103 1925 3103 
Q 1463 3103 1205 2759 
Q 947 2416 947 1791 
Q 947 1169 1205 825 
Q 1463 481 1925 481 
Q 2391 481 2648 825 
Q 2906 1169 2906 1791 
z
M 3481 434 
Q 3481 -459 3084 -895 
Q 2688 -1331 1869 -1331 
Q 1566 -1331 1297 -1286 
Q 1028 -1241 775 -1147 
L 775 -588 
Q 1028 -725 1275 -790 
Q 1522 -856 1778 -856 
Q 2344 -856 2625 -561 
Q 2906 -266 2906 331 
L 2906 616 
Q 2728 306 2450 153 
Q 2172 0 1784 0 
Q 1141 0 747 490 
Q 353 981 353 1791 
Q 353 2603 747 3093 
Q 1141 3584 1784 3584 
Q 2172 3584 2450 3431 
Q 2728 3278 2906 2969 
L 2906 3500 
L 3481 3500 
L 3481 434 
z
" transform="scale(0.015625)"/>
       <path id="DejaVuSans-6e" d="M 3513 2113 
L 3513 0 
L 2938 0 
L 2938 2094 
Q 2938 2591 2744 2837 
Q 2550 3084 2163 3084 
Q 1697 3084 1428 2787 
Q 1159 2491 1159 1978 
L 1159 0 
L 581 0 
L 581 3500 
L 1159 3500 
L 1159 2956 
Q 1366 3272 1645 3428 
Q 1925 3584 2291 3584 
Q 2894 3584 3203 3211 
Q 3513 2838 3513 2113 
z
" transform="scale(0.015625)"/>
       <path id="DejaVuSans-61" d="M 2194 1759 
Q 1497 1759 1228 1600 
Q 959 1441 959 1056 
Q 959 750 1161 570 
Q 1363 391 1709 391 
Q 2188 391 2477 730 
Q 2766 1069 2766 1631 
L 2766 1759 
L 2194 1759 
z
M 3341 1997 
L 3341 0 
L 2766 0 
L 2766 531 
Q 2569 213 2275 61 
Q 1981 -91 1556 -91 
Q 1019 -91 701 211 
Q 384 513 384 1019 
Q 384 1609 779 1909 
Q 1175 2209 1959 2209 
L 2766 2209 
L 2766 2266 
Q 2766 2663 2505 2880 
Q 2244 3097 1772 3097 
Q 1472 3097 1187 3025 
Q 903 2953 641 2809 
L 641 3341 
Q 956 3463 1253 3523 
Q 1550 3584 1831 3584 
Q 2591 3584 2966 3190 
Q 3341 2797 3341 1997 
z
" transform="scale(0.015625)"/>
       <path id="DejaVuSans-6c" d="M 603 4863 
L 1178 4863 
L 1178 0 
L 603 0 
L 603 4863 
z
" transform="scale(0.015625)"/>
      </defs>
      <use xlink:href="#DejaVuSans-73" transform="translate(0 0.015625)"/>
      <use xlink:href="#DejaVuSans-69" transform="translate(52.099609 0.015625)"/>
      <use xlink:href="#DejaVuSans-67" transform="translate(79.882812 0.015625)"/>
      <use xlink:href="#DejaVuSans-6e" transform="translate(143.359375 0.015625)"/>
      <use xlink:href="#DejaVuSans-61" transform="translate(206.738281 0.015625)"/>
      <use xlink:href="#DejaVuSans-6c" transform="translate(268.017578 0.015625)"/>
      <use xlink:href="#DejaVuSans-20" transform="translate(295.800781 0.015625)"/>
      <use xlink:href="#Cmmi10-66" transform="translate(327.587891 0.015625)"/>
     </g>
    </g>
    <g id="line2d_11">
     <path d="M 57.316406 168.570344 
L 68.316406 168.570344 
L 79.316406 168.570344 
" style="fill: none; stroke: #ff7f0e; stroke-opacity: 0.9; stroke-width: 2.4; stroke-linecap: square"/>
    </g>
    <g id="text_12">
     <!-- reconstruction -->
     <g transform="translate(88.116406 172.420344) scale(0.11 -0.11)">
      <defs>
       <path id="DejaVuSans-63" d="M 3122 3366 
L 3122 2828 
Q 2878 2963 2633 3030 
Q 2388 3097 2138 3097 
Q 1578 3097 1268 2742 
Q 959 2388 959 1747 
Q 959 1106 1268 751 
Q 1578 397 2138 397 
Q 2388 397 2633 464 
Q 2878 531 3122 666 
L 3122 134 
Q 2881 22 2623 -34 
Q 2366 -91 2075 -91 
Q 1284 -91 818 406 
Q 353 903 353 1747 
Q 353 2603 823 3093 
Q 1294 3584 2113 3584 
Q 2378 3584 2631 3529 
Q 2884 3475 3122 3366 
z
" transform="scale(0.015625)"/>
       <path id="DejaVuSans-74" d="M 1172 4494 
L 1172 3500 
L 2356 3500 
L 2356 3053 
L 1172 3053 
L 1172 1153 
Q 1172 725 1289 603 
Q 1406 481 1766 481 
L 2356 481 
L 2356 0 
L 1766 0 
Q 1100 0 847 248 
Q 594 497 594 1153 
L 594 3053 
L 172 3053 
L 172 3500 
L 594 3500 
L 594 4494 
L 1172 4494 
z
" transform="scale(0.015625)"/>
       <path id="DejaVuSans-75" d="M 544 1381 
L 544 3500 
L 1119 3500 
L 1119 1403 
Q 1119 906 1312 657 
Q 1506 409 1894 409 
Q 2359 409 2629 706 
Q 2900 1003 2900 1516 
L 2900 3500 
L 3475 3500 
L 3475 0 
L 2900 0 
L 2900 538 
Q 2691 219 2414 64 
Q 2138 -91 1772 -91 
Q 1169 -91 856 284 
Q 544 659 544 1381 
z
M 1991 3584 
L 1991 3584 
z
" transform="scale(0.015625)"/>
      </defs>
      <use xlink:href="#DejaVuSans-72"/>
      <use xlink:href="#DejaVuSans-65" transform="translate(38.863281 0)"/>
      <use xlink:href="#DejaVuSans-63" transform="translate(100.386719 0)"/>
      <use xlink:href="#DejaVuSans-6f" transform="translate(155.367188 0)"/>
      <use xlink:href="#DejaVuSans-6e" transform="translate(216.548828 0)"/>
      <use xlink:href="#DejaVuSans-73" transform="translate(279.927734 0)"/>
      <use xlink:href="#DejaVuSans-74" transform="translate(332.027344 0)"/>
      <use xlink:href="#DejaVuSans-72" transform="translate(371.236328 0)"/>
      <use xlink:href="#DejaVuSans-75" transform="translate(412.349609 0)"/>
      <use xlink:href="#DejaVuSans-63" transform="translate(475.728516 0)"/>
      <use xlink:href="#DejaVuSans-74" transform="translate(530.708984 0)"/>
      <use xlink:href="#DejaVuSans-69" transform="translate(569.917969 0)"/>
      <use xlink:href="#DejaVuSans-6f" transform="translate(597.701172 0)"/>
      <use xlink:href="#DejaVuSans-6e" transform="translate(658.882812 0)"/>
     </g>
    </g>
   </g>
  </g>
  <g id="axes_2">
   <g id="patch_5">
    <path d="M 267.30974 184.608 
L 463.643073 184.608 
L 463.643073 7.2 
L 267.30974 7.2 
z
" style="fill: #ffffff"/>
   </g>
   <g id="matplotlib.axis_3">
    <g id="xtick_4">
     <g id="line2d_12">
      <g>
       <use xlink:href="#m0e0d04b24a" x="267.30974" y="184.608" style="stroke: #000000; stroke-width: 0.8"/>
      </g>
     </g>
     <g id="text_13">
      <!-- 0 -->
      <g transform="translate(263.810365 199.966281) scale(0.11 -0.11)">
       <use xlink:href="#DejaVuSans-30"/>
      </g>
     </g>
    </g>
    <g id="xtick_5">
     <g id="line2d_13">
      <g>
       <use xlink:href="#m0e0d04b24a" x="365.476406" y="184.608" style="stroke: #000000; stroke-width: 0.8"/>
      </g>
     </g>
     <g id="text_14">
      <!-- 0.5 -->
      <g transform="translate(356.729688 199.966281) scale(0.11 -0.11)">
       <use xlink:href="#DejaVuSans-30"/>
       <use xlink:href="#DejaVuSans-2e" transform="translate(63.623047 0)"/>
       <use xlink:href="#DejaVuSans-35" transform="translate(95.410156 0)"/>
      </g>
     </g>
    </g>
    <g id="xtick_6">
     <g id="line2d_14">
      <g>
       <use xlink:href="#m0e0d04b24a" x="463.643073" y="184.608" style="stroke: #000000; stroke-width: 0.8"/>
      </g>
     </g>
     <g id="text_15">
      <!-- 1 -->
      <g transform="translate(460.143698 199.966281) scale(0.11 -0.11)">
       <use xlink:href="#DejaVuSans-31"/>
      </g>
     </g>
    </g>
    <g id="text_16">
     <!-- $s$ -->
     <g transform="translate(362.421406 216.131906) scale(0.13 -0.13)">
      <use xlink:href="#Cmmi10-73" transform="translate(0 0.8125)"/>
     </g>
    </g>
   </g>
   <g id="matplotlib.axis_4">
    <g id="ytick_5">
     <g id="line2d_15">
      <g>
       <use xlink:href="#m5d09d475d1" x="267.30974" y="152.928" style="stroke: #000000; stroke-width: 0.8"/>
      </g>
     </g>
    </g>
    <g id="ytick_6">
     <g id="line2d_16">
      <g>
       <use xlink:href="#m5d09d475d1" x="267.30974" y="110.688" style="stroke: #000000; stroke-width: 0.8"/>
      </g>
     </g>
    </g>
    <g id="ytick_7">
     <g id="line2d_17">
      <g>
       <use xlink:href="#m5d09d475d1" x="267.30974" y="68.448" style="stroke: #000000; stroke-width: 0.8"/>
      </g>
     </g>
    </g>
    <g id="ytick_8">
     <g id="line2d_18">
      <g>
       <use xlink:href="#m5d09d475d1" x="267.30974" y="26.208" style="stroke: #000000; stroke-width: 0.8"/>
      </g>
     </g>
    </g>
   </g>
   <g id="line2d_19">
    <path d="M 267.506073 109.864366 
L 271.528893 93.442914 
L 273.785597 85.141883 
L 275.64983 79.103121 
L 277.219711 74.720452 
L 278.691475 71.26562 
L 279.967003 68.817689 
L 281.144414 67.023946 
L 282.223707 65.777302 
L 283.204882 64.97267 
L 284.08794 64.51182 
L 284.970998 64.293959 
L 285.854056 64.310509 
L 286.737114 64.550722 
L 287.71829 65.06433 
L 288.797583 65.905684 
L 289.974994 67.118708 
L 291.34864 68.865616 
L 293.016638 71.361404 
L 295.469577 75.485148 
L 299.590515 82.431919 
L 301.454748 85.110381 
L 302.926512 86.864513 
L 304.20204 88.074055 
L 305.379451 88.905812 
L 306.458744 89.412695 
L 307.538037 89.666735 
L 308.519212 89.675777 
L 309.500388 89.475052 
L 310.579681 89.018232 
L 311.757092 88.251498 
L 313.03262 87.12978 
L 314.504384 85.506211 
L 316.2705 83.186871 
L 318.723439 79.552312 
L 322.550023 73.896459 
L 324.218022 71.823058 
L 325.591668 70.442814 
L 326.769078 69.555179 
L 327.848372 69.019046 
L 328.829547 68.786936 
L 329.712605 68.801932 
L 330.595663 69.041015 
L 331.478721 69.513566 
L 332.361779 70.226747 
L 333.342955 71.307207 
L 334.422248 72.849382 
L 335.599659 74.952991 
L 336.875187 77.717875 
L 338.248833 81.236753 
L 339.818714 85.895529 
L 341.58483 91.853147 
L 343.743416 99.962394 
L 346.78506 112.358639 
L 351.887173 133.173819 
L 354.04576 141.031116 
L 355.909993 147.000259 
L 357.479874 151.312026 
L 358.85352 154.484339 
L 360.129048 156.894103 
L 361.306459 158.643573 
L 362.385752 159.840649 
L 363.366928 160.591745 
L 364.249986 160.996785 
L 365.133044 161.150998 
L 366.016102 161.062413 
L 366.89916 160.741268 
L 367.880336 160.126749 
L 368.959629 159.160418 
L 370.137039 157.793697 
L 371.510685 155.843906 
L 373.178684 153.067083 
L 375.533505 148.652716 
L 380.537501 139.14887 
L 382.401734 136.160244 
L 383.873498 134.184828 
L 385.050908 132.892505 
L 385.247143 120.031912 
L 386.424554 119.068899 
L 387.503847 118.447897 
L 388.58314 118.083248 
L 389.564316 117.974692 
L 390.545492 118.075045 
L 391.624785 118.418374 
L 392.704078 118.992097 
L 393.979606 119.941311 
L 395.353252 121.249279 
L 397.021251 123.152647 
L 399.474189 126.33176 
L 403.006422 130.889731 
L 404.67442 132.684359 
L 406.048066 133.849271 
L 407.225477 134.563145 
L 408.30477 134.949136 
L 409.285945 135.052604 
L 410.169003 134.928406 
L 411.052061 134.586509 
L 411.935119 134.017673 
L 412.916295 133.110999 
L 413.995588 131.772698 
L 415.074881 130.074113 
L 416.252292 127.812822 
L 417.625938 124.649894 
L 419.097701 120.666124 
L 420.7657 115.473328 
L 422.728051 108.577416 
L 425.18099 99.067543 
L 433.6191 65.511797 
L 435.483334 59.354419 
L 437.151332 54.591826 
L 438.623095 51.061264 
L 439.898624 48.554511 
L 441.076034 46.718465 
L 442.155328 45.44809 
L 443.136503 44.638108 
L 444.019561 44.188363 
L 444.902619 43.999003 
L 445.68756 44.044111 
L 446.570618 44.327119 
L 447.453676 44.845684 
L 448.434851 45.682523 
L 449.514144 46.896311 
L 450.789673 48.68571 
L 452.261436 51.157077 
L 454.12567 54.768266 
L 456.872961 60.652908 
L 460.797664 69.001478 
L 462.760015 72.646021 
L 463.643073 74.097683 
L 463.643073 74.097683 
" clip-path="url(#p708fa4345f)" style="fill: none; stroke: #000000; stroke-width: 1.3; stroke-linecap: square"/>
   </g>
   <g id="line2d_20">
    <path d="M 267.506073 109.844742 
L 272.510068 89.704756 
L 274.570537 82.46922 
L 276.238536 77.358161 
L 277.808417 73.251491 
L 279.182062 70.265244 
L 280.457591 68.024221 
L 281.536884 66.537239 
L 282.616177 65.427503 
L 283.597353 64.743408 
L 284.480411 64.387177 
L 285.363469 64.26981 
L 286.246527 64.382349 
L 287.129585 64.713694 
L 288.11076 65.322423 
L 289.190053 66.260324 
L 290.465582 67.689135 
L 291.937345 69.696732 
L 293.801579 72.645157 
L 297.530046 79.098897 
L 299.982985 83.090685 
L 301.749101 85.549681 
L 303.220864 87.224254 
L 304.496393 88.350358 
L 305.673803 89.095537 
L 306.753096 89.517188 
L 307.734272 89.678228 
L 308.715448 89.62691 
L 309.696623 89.366325 
L 310.775916 88.846042 
L 311.953327 88.015194 
L 313.228855 86.832816 
L 314.700619 85.154195 
L 316.564852 82.655135 
L 319.606497 78.116757 
L 322.451906 74.011652 
L 324.119904 71.965174 
L 325.49355 70.60284 
L 326.670961 69.72554 
L 327.750254 69.19347 
L 328.73143 68.959639 
L 329.614488 68.968077 
L 330.497546 69.195412 
L 331.380604 69.650701 
L 332.361779 70.432317 
L 333.342955 71.510258 
L 334.422248 73.04166 
L 335.599659 75.12395 
L 336.875187 77.854995 
L 338.248833 81.326326 
L 339.818714 85.919694 
L 341.58483 91.795469 
L 343.743416 99.804928 
L 346.686943 111.686534 
L 352.377761 134.806399 
L 354.536348 142.576768 
L 356.302464 148.177282 
L 357.872345 152.460673 
L 359.24599 155.606449 
L 360.521519 157.986646 
L 361.600812 159.576213 
L 362.581987 160.67599 
L 363.563163 161.444264 
L 364.446221 161.853072 
L 365.231161 161.994254 
L 366.016102 161.930176 
L 366.89916 161.619214 
L 367.782218 161.064417 
L 368.763394 160.17599 
L 369.842687 158.889616 
L 371.118215 156.990066 
L 372.589978 154.354767 
L 374.356094 150.690067 
L 376.710916 145.238332 
L 382.303617 132.088832 
L 384.16785 128.356708 
L 385.737731 125.681232 
L 387.111377 123.753789 
L 388.386905 122.343526 
L 389.564316 121.383002 
L 390.643609 120.796483 
L 391.624785 120.506945 
L 392.60596 120.444922 
L 393.587136 120.602124 
L 394.666429 121.013821 
L 395.84384 121.724054 
L 397.119368 122.762359 
L 398.689249 124.348875 
L 400.847835 126.888765 
L 404.772538 131.543438 
L 406.342419 133.025649 
L 407.617947 133.92648 
L 408.69724 134.422455 
L 409.678416 134.628482 
L 410.561474 134.593318 
L 411.444532 134.332811 
L 412.32759 133.833625 
L 413.210648 133.085015 
L 414.191823 131.951102 
L 415.271116 130.329035 
L 416.448527 128.109412 
L 417.724055 125.182599 
L 419.097701 121.447918 
L 420.667582 116.496665 
L 422.433698 110.169959 
L 424.690402 101.191758 
L 428.81134 83.620093 
L 431.852984 71.15715 
L 433.913453 63.626618 
L 435.581451 58.307845 
L 437.053214 54.292268 
L 438.42686 51.165681 
L 439.702389 48.819306 
L 440.879799 47.132031 
L 441.959092 45.982379 
L 442.940268 45.256499 
L 443.823326 44.852702 
L 444.706384 44.674302 
L 445.589442 44.709788 
L 446.570618 44.985731 
L 447.551793 45.495538 
L 448.631086 46.309671 
L 449.808497 47.483218 
L 451.084025 49.075377 
L 452.457671 51.153685 
L 453.929435 53.796222 
L 455.499316 57.081896 
L 457.363549 61.536974 
L 460.895781 70.164666 
L 461.778839 71.676323 
L 462.367545 72.310298 
L 462.858132 72.523551 
L 463.250603 72.436523 
L 463.643073 72.074679 
L 463.643073 72.074679 
" clip-path="url(#p708fa4345f)" style="fill: none; stroke: #1f77b4; stroke-opacity: 0.9; stroke-width: 2.4; stroke-linecap: square"/>
   </g>
   <g id="patch_6">
    <path d="M 267.30974 184.608 
L 267.30974 7.2 
" style="fill: none; stroke: #000000; stroke-width: 0.8; stroke-linejoin: miter; stroke-linecap: square"/>
   </g>
   <g id="patch_7">
    <path d="M 267.30974 184.608 
L 463.643073 184.608 
" style="fill: none; stroke: #000000; stroke-width: 0.8; stroke-linejoin: miter; stroke-linecap: square"/>
   </g>
   <g id="text_17">
    <!-- $N = 16$, error $3\,\%$ -->
    <g transform="translate(273.19974 29.5872) scale(0.13 -0.13)">
     <defs>
      <path id="Cmr10-31" d="M 594 0 
L 594 225 
Q 1394 225 1394 428 
L 1394 3788 
Q 1063 3628 556 3628 
L 556 3853 
Q 1341 3853 1741 4263 
L 1831 4263 
Q 1853 4263 1873 4245 
Q 1894 4228 1894 4206 
L 1894 428 
Q 1894 225 2694 225 
L 2694 0 
L 594 0 
z
" transform="scale(0.015625)"/>
      <path id="Cmr10-33" d="M 609 494 
Q 759 275 1012 169 
Q 1266 63 1556 63 
Q 1928 63 2084 380 
Q 2241 697 2241 1100 
Q 2241 1281 2208 1462 
Q 2175 1644 2097 1800 
Q 2019 1956 1883 2050 
Q 1747 2144 1550 2144 
L 1125 2144 
Q 1069 2144 1069 2203 
L 1069 2259 
Q 1069 2309 1125 2309 
L 1478 2338 
Q 1703 2338 1851 2506 
Q 2000 2675 2069 2917 
Q 2138 3159 2138 3378 
Q 2138 3684 1994 3881 
Q 1850 4078 1556 4078 
Q 1313 4078 1091 3986 
Q 869 3894 738 3706 
Q 750 3709 759 3711 
Q 769 3713 781 3713 
Q 925 3713 1022 3613 
Q 1119 3513 1119 3372 
Q 1119 3234 1022 3134 
Q 925 3034 781 3034 
Q 641 3034 541 3134 
Q 441 3234 441 3372 
Q 441 3647 606 3850 
Q 772 4053 1033 4158 
Q 1294 4263 1556 4263 
Q 1750 4263 1965 4205 
Q 2181 4147 2356 4039 
Q 2531 3931 2642 3762 
Q 2753 3594 2753 3378 
Q 2753 3109 2633 2881 
Q 2513 2653 2303 2487 
Q 2094 2322 1844 2241 
Q 2122 2188 2372 2031 
Q 2622 1875 2773 1631 
Q 2925 1388 2925 1106 
Q 2925 753 2731 467 
Q 2538 181 2222 20 
Q 1906 -141 1556 -141 
Q 1256 -141 954 -26 
Q 653 88 461 316 
Q 269 544 269 863 
Q 269 1022 375 1128 
Q 481 1234 641 1234 
Q 744 1234 830 1186 
Q 916 1138 964 1050 
Q 1013 963 1013 863 
Q 1013 706 903 600 
Q 794 494 641 494 
L 609 494 
z
" transform="scale(0.015625)"/>
     </defs>
     <use xlink:href="#Cmmi10-4e"/>
     <use xlink:href="#Cmr10-3d" transform="translate(97.880859 0)"/>
     <use xlink:href="#Cmr10-31" transform="translate(193.125 0)"/>
     <use xlink:href="#Cmr10-36" transform="translate(243.125 0)"/>
     <use xlink:href="#DejaVuSans-2c" transform="translate(293.125 0)"/>
     <use xlink:href="#DejaVuSans-20" transform="translate(324.912109 0)"/>
     <use xlink:href="#DejaVuSans-65" transform="translate(356.699219 0)"/>
     <use xlink:href="#DejaVuSans-72" transform="translate(418.222656 0)"/>
     <use xlink:href="#DejaVuSans-72" transform="translate(459.335938 0)"/>
     <use xlink:href="#DejaVuSans-6f" transform="translate(500.449219 0)"/>
     <use xlink:href="#DejaVuSans-72" transform="translate(561.630859 0)"/>
     <use xlink:href="#DejaVuSans-20" transform="translate(602.744141 0)"/>
     <use xlink:href="#Cmr10-33" transform="translate(634.53125 0)"/>
     <use xlink:href="#Cmr10-25" transform="translate(699.163704 0)"/>
    </g>
   </g>
  </g>
  <g id="axes_3">
   <g id="patch_8">
    <path d="M 487.203073 184.608 
L 683.536406 184.608 
L 683.536406 7.2 
L 487.203073 7.2 
z
" style="fill: #ffffff"/>
   </g>
   <g id="matplotlib.axis_5">
    <g id="xtick_7">
     <g id="line2d_21">
      <g>
       <use xlink:href="#m0e0d04b24a" x="487.203073" y="184.608" style="stroke: #000000; stroke-width: 0.8"/>
      </g>
     </g>
     <g id="text_18">
      <!-- 0 -->
      <g transform="translate(483.703698 199.966281) scale(0.11 -0.11)">
       <use xlink:href="#DejaVuSans-30"/>
      </g>
     </g>
    </g>
    <g id="xtick_8">
     <g id="line2d_22">
      <g>
       <use xlink:href="#m0e0d04b24a" x="585.36974" y="184.608" style="stroke: #000000; stroke-width: 0.8"/>
      </g>
     </g>
     <g id="text_19">
      <!-- 0.5 -->
      <g transform="translate(576.623021 199.966281) scale(0.11 -0.11)">
       <use xlink:href="#DejaVuSans-30"/>
       <use xlink:href="#DejaVuSans-2e" transform="translate(63.623047 0)"/>
       <use xlink:href="#DejaVuSans-35" transform="translate(95.410156 0)"/>
      </g>
     </g>
    </g>
    <g id="xtick_9">
     <g id="line2d_23">
      <g>
       <use xlink:href="#m0e0d04b24a" x="683.536406" y="184.608" style="stroke: #000000; stroke-width: 0.8"/>
      </g>
     </g>
     <g id="text_20">
      <!-- 1 -->
      <g transform="translate(680.037031 199.966281) scale(0.11 -0.11)">
       <use xlink:href="#DejaVuSans-31"/>
      </g>
     </g>
    </g>
    <g id="text_21">
     <!-- $s$ -->
     <g transform="translate(582.31474 216.131906) scale(0.13 -0.13)">
      <use xlink:href="#Cmmi10-73" transform="translate(0 0.8125)"/>
     </g>
    </g>
   </g>
   <g id="matplotlib.axis_6">
    <g id="ytick_9">
     <g id="line2d_24">
      <g>
       <use xlink:href="#m5d09d475d1" x="487.203073" y="152.928" style="stroke: #000000; stroke-width: 0.8"/>
      </g>
     </g>
    </g>
    <g id="ytick_10">
     <g id="line2d_25">
      <g>
       <use xlink:href="#m5d09d475d1" x="487.203073" y="110.688" style="stroke: #000000; stroke-width: 0.8"/>
      </g>
     </g>
    </g>
    <g id="ytick_11">
     <g id="line2d_26">
      <g>
       <use xlink:href="#m5d09d475d1" x="487.203073" y="68.448" style="stroke: #000000; stroke-width: 0.8"/>
      </g>
     </g>
    </g>
    <g id="ytick_12">
     <g id="line2d_27">
      <g>
       <use xlink:href="#m5d09d475d1" x="487.203073" y="26.208" style="stroke: #000000; stroke-width: 0.8"/>
      </g>
     </g>
    </g>
   </g>
   <g id="line2d_28">
    <path d="M 487.399406 109.864366 
L 491.422226 93.442914 
L 493.67893 85.141883 
L 495.543164 79.103121 
L 497.113045 74.720452 
L 498.584808 71.26562 
L 499.860336 68.817689 
L 501.037747 67.023946 
L 502.11704 65.777302 
L 503.098216 64.97267 
L 503.981274 64.51182 
L 504.864332 64.293959 
L 505.74739 64.310509 
L 506.630448 64.550722 
L 507.611623 65.06433 
L 508.690917 65.905684 
L 509.868327 67.118708 
L 511.241973 68.865616 
L 512.909972 71.361404 
L 515.362911 75.485148 
L 519.483848 82.431919 
L 521.348082 85.110381 
L 522.819845 86.864513 
L 524.095373 88.074055 
L 525.272784 88.905812 
L 526.352077 89.412695 
L 527.43137 89.666735 
L 528.412546 89.675777 
L 529.393721 89.475052 
L 530.473015 89.018232 
L 531.650425 88.251498 
L 532.925954 87.12978 
L 534.397717 85.506211 
L 536.163833 83.186871 
L 538.616772 79.552312 
L 542.443357 73.896459 
L 544.111355 71.823058 
L 545.485001 70.442814 
L 546.662412 69.555179 
L 547.741705 69.019046 
L 548.72288 68.786936 
L 549.605939 68.801932 
L 550.488997 69.041015 
L 551.372055 69.513566 
L 552.255113 70.226747 
L 553.236288 71.307207 
L 554.315581 72.849382 
L 555.492992 74.952991 
L 556.76852 77.717875 
L 558.142166 81.236753 
L 559.712047 85.895529 
L 561.478163 91.853147 
L 563.636749 99.962394 
L 566.678394 112.358639 
L 571.780507 133.173819 
L 573.939093 141.031116 
L 575.803327 147.000259 
L 577.373208 151.312026 
L 578.746853 154.484339 
L 580.022382 156.894103 
L 581.199792 158.643573 
L 582.279086 159.840649 
L 583.260261 160.591745 
L 584.143319 160.996785 
L 585.026377 161.150998 
L 585.909435 161.062413 
L 586.792493 160.741268 
L 587.773669 160.126749 
L 588.852962 159.160418 
L 590.030373 157.793697 
L 591.404019 155.843906 
L 593.072017 153.067083 
L 595.426838 148.652716 
L 600.430834 139.14887 
L 602.295068 136.160244 
L 603.766831 134.184828 
L 604.944242 132.892505 
L 605.140477 120.031912 
L 606.317887 119.068899 
L 607.397181 118.447897 
L 608.476474 118.083248 
L 609.457649 117.974692 
L 610.438825 118.075045 
L 611.518118 118.418374 
L 612.597411 118.992097 
L 613.87294 119.941311 
L 615.246585 121.249279 
L 616.914584 123.152647 
L 619.367523 126.33176 
L 622.899755 130.889731 
L 624.567753 132.684359 
L 625.941399 133.849271 
L 627.11881 134.563145 
L 628.198103 134.949136 
L 629.179279 135.052604 
L 630.062337 134.928406 
L 630.945395 134.586509 
L 631.828453 134.017673 
L 632.809628 133.110999 
L 633.888922 131.772698 
L 634.968215 130.074113 
L 636.145625 127.812822 
L 637.519271 124.649894 
L 638.991035 120.666124 
L 640.659033 115.473328 
L 642.621384 108.577416 
L 645.074323 99.067543 
L 653.512433 65.511797 
L 655.376667 59.354419 
L 657.044665 54.591826 
L 658.516429 51.061264 
L 659.791957 48.554511 
L 660.969368 46.718465 
L 662.048661 45.44809 
L 663.029836 44.638108 
L 663.912894 44.188363 
L 664.795953 43.999003 
L 665.580893 44.044111 
L 666.463951 44.327119 
L 667.347009 44.845684 
L 668.328185 45.682523 
L 669.407478 46.896311 
L 670.683006 48.68571 
L 672.154769 51.157077 
L 674.019003 54.768266 
L 676.766295 60.652908 
L 680.690997 69.001478 
L 682.653348 72.646021 
L 683.536406 74.097683 
L 683.536406 74.097683 
" clip-path="url(#pe6c8334c52)" style="fill: none; stroke: #000000; stroke-width: 1.3; stroke-linecap: square"/>
   </g>
   <g id="line2d_29">
    <path d="M 487.399406 110.259215 
L 487.889994 107.606241 
L 488.674935 104.646246 
L 489.754228 100.039569 
L 491.029756 94.985776 
L 492.305284 90.023797 
L 495.739399 78.452289 
L 497.70175 73.324626 
L 499.075396 70.150322 
L 500.056571 68.424179 
L 501.135864 66.972456 
L 502.607628 65.380724 
L 503.588803 64.613462 
L 504.373744 64.277772 
L 505.060567 64.207713 
L 505.845507 64.345044 
L 506.9248 64.78369 
L 508.200329 65.535064 
L 509.279622 66.412545 
L 510.260797 67.487604 
L 511.438208 69.124631 
L 513.891147 73.064494 
L 517.423379 78.990443 
L 519.974436 83.295827 
L 521.348082 85.172706 
L 522.819845 86.80036 
L 524.487843 88.299982 
L 525.763372 89.180091 
L 526.744547 89.621413 
L 527.627605 89.795761 
L 528.510663 89.745123 
L 529.491839 89.445086 
L 530.66925 88.8166 
L 532.141013 87.744412 
L 533.612776 86.405023 
L 534.986422 84.860066 
L 536.458186 82.846291 
L 538.813007 79.144119 
L 541.069711 75.745809 
L 543.032062 73.194553 
L 544.994413 70.984541 
L 546.368059 69.73165 
L 547.447352 69.034702 
L 548.33041 68.715108 
L 549.115351 68.646051 
L 549.900291 68.786101 
L 550.783349 69.185595 
L 551.764525 69.905235 
L 552.843818 70.996922 
L 554.021229 72.524388 
L 555.198639 74.423156 
L 556.37605 76.749192 
L 557.553461 79.556139 
L 558.927107 83.447747 
L 560.595105 88.926126 
L 562.949927 97.514571 
L 565.991571 109.433427 
L 569.523803 124.317472 
L 571.976742 134.198733 
L 573.840976 140.780794 
L 575.705209 146.564851 
L 577.66756 151.944819 
L 579.139324 155.400647 
L 580.316734 157.642902 
L 581.29791 159.06857 
L 582.180968 159.981888 
L 582.965909 160.510002 
L 583.750849 160.801208 
L 584.633907 160.897601 
L 585.7132 160.769998 
L 586.988728 160.371203 
L 588.166139 159.774776 
L 589.147315 159.047995 
L 590.12849 158.032983 
L 591.109666 156.673063 
L 592.188959 154.777733 
L 593.75884 151.499117 
L 595.917426 147.038181 
L 597.192955 144.92101 
L 598.959071 142.50655 
L 600.136481 140.748911 
L 601.117657 138.851758 
L 602.098832 136.389117 
L 603.178126 133.009364 
L 605.042359 126.221656 
L 606.416005 121.59207 
L 607.299063 119.29685 
L 607.985886 118.016083 
L 608.574591 117.297056 
L 609.163297 116.920652 
L 609.653884 116.848109 
L 610.24259 117.01071 
L 610.929413 117.470965 
L 611.910588 118.440963 
L 614.559762 121.185046 
L 618.190112 124.437428 
L 619.367523 125.996874 
L 623.684695 132.109446 
L 624.763989 133.052192 
L 625.941399 133.79477 
L 627.51128 134.499943 
L 628.884926 134.898291 
L 629.866102 134.973121 
L 630.651042 134.834789 
L 631.435983 134.471852 
L 632.220923 133.858073 
L 633.103981 132.866051 
L 634.183274 131.266832 
L 635.458802 128.951256 
L 637.028683 125.626641 
L 638.500447 122.005684 
L 639.874093 118.038072 
L 641.345856 113.097396 
L 643.504442 104.967018 
L 647.919732 87.355289 
L 652.138787 70.271663 
L 654.199256 63.105231 
L 656.357842 56.350941 
L 657.829606 52.424558 
L 659.007017 49.887229 
L 660.184427 47.871628 
L 661.459956 46.133197 
L 662.637366 44.891797 
L 663.520424 44.25922 
L 664.305365 43.970685 
L 664.992188 43.939551 
L 665.777128 44.124106 
L 666.758304 44.588572 
L 667.935714 45.380232 
L 668.91689 46.288107 
L 669.898066 47.532517 
L 671.173594 49.599705 
L 673.920885 54.575852 
L 675.588884 58.263439 
L 679.611704 66.941074 
L 681.083467 69.897602 
L 681.868408 71.367204 
L 682.555231 72.494613 
L 683.143936 73.595722 
L 683.340171 73.687124 
L 683.438289 73.915013 
L 683.536406 74.632974 
L 683.536406 74.632974 
" clip-path="url(#pe6c8334c52)" style="fill: none; stroke: #2ca02c; stroke-opacity: 0.9; stroke-width: 2.4; stroke-linecap: square"/>
   </g>
   <g id="patch_9">
    <path d="M 487.203073 184.608 
L 487.203073 7.2 
" style="fill: none; stroke: #000000; stroke-width: 0.8; stroke-linejoin: miter; stroke-linecap: square"/>
   </g>
   <g id="patch_10">
    <path d="M 487.203073 184.608 
L 683.536406 184.608 
" style="fill: none; stroke: #000000; stroke-width: 0.8; stroke-linejoin: miter; stroke-linecap: square"/>
   </g>
   <g id="text_22">
    <!-- $N = 64$, error $2\,\%$ -->
    <g transform="translate(493.093073 29.5872) scale(0.13 -0.13)">
     <defs>
      <path id="Cmr10-32" d="M 319 0 
L 319 172 
Q 319 188 331 206 
L 1325 1306 
Q 1550 1550 1690 1715 
Q 1831 1881 1968 2097 
Q 2106 2313 2186 2536 
Q 2266 2759 2266 3009 
Q 2266 3272 2169 3511 
Q 2072 3750 1880 3894 
Q 1688 4038 1416 4038 
Q 1138 4038 916 3870 
Q 694 3703 603 3438 
Q 628 3444 672 3444 
Q 816 3444 917 3347 
Q 1019 3250 1019 3097 
Q 1019 2950 917 2848 
Q 816 2747 672 2747 
Q 522 2747 420 2851 
Q 319 2956 319 3097 
Q 319 3338 409 3548 
Q 500 3759 670 3923 
Q 841 4088 1055 4175 
Q 1269 4263 1509 4263 
Q 1875 4263 2190 4108 
Q 2506 3953 2690 3670 
Q 2875 3388 2875 3009 
Q 2875 2731 2753 2481 
Q 2631 2231 2440 2026 
Q 2250 1822 1953 1562 
Q 1656 1303 1563 1216 
L 838 519 
L 1453 519 
Q 1906 519 2211 526 
Q 2516 534 2534 550 
Q 2609 631 2688 1141 
L 2875 1141 
L 2694 0 
L 319 0 
z
" transform="scale(0.015625)"/>
     </defs>
     <use xlink:href="#Cmmi10-4e"/>
     <use xlink:href="#Cmr10-3d" transform="translate(97.880859 0)"/>
     <use xlink:href="#Cmr10-36" transform="translate(193.125 0)"/>
     <use xlink:href="#Cmr10-34" transform="translate(243.125 0)"/>
     <use xlink:href="#DejaVuSans-2c" transform="translate(293.125 0)"/>
     <use xlink:href="#DejaVuSans-20" transform="translate(324.912109 0)"/>
     <use xlink:href="#DejaVuSans-65" transform="translate(356.699219 0)"/>
     <use xlink:href="#DejaVuSans-72" transform="translate(418.222656 0)"/>
     <use xlink:href="#DejaVuSans-72" transform="translate(459.335938 0)"/>
     <use xlink:href="#DejaVuSans-6f" transform="translate(500.449219 0)"/>
     <use xlink:href="#DejaVuSans-72" transform="translate(561.630859 0)"/>
     <use xlink:href="#DejaVuSans-20" transform="translate(602.744141 0)"/>
     <use xlink:href="#Cmr10-32" transform="translate(634.53125 0)"/>
     <use xlink:href="#Cmr10-25" transform="translate(699.163704 0)"/>
    </g>
   </g>
  </g>
 </g>
 <defs>
  <clipPath id="p42e51e9fb5">
   <rect x="47.416406" y="7.2" width="196.333333" height="177.408"/>
  </clipPath>
  <clipPath id="p708fa4345f">
   <rect x="267.30974" y="7.2" width="196.333333" height="177.408"/>
  </clipPath>
  <clipPath id="pe6c8334c52">
   <rect x="487.203073" y="7.2" width="196.333333" height="177.408"/>
  </clipPath>
 </defs>
</svg>
