<?xml version="1.0" encoding="utf-8" standalone="no"?>
<!DOCTYPE svg PUBLIC "-//W3C//DTD SVG 1.1//EN"
  "http://www.w3.org/Graphics/SVG/1.1/DTD/svg11.dtd">
<svg xmlns:xlink="http://www.w3.org/1999/xlink" width="416.16pt" height="247.248pt" viewBox="0 0 416.16 247.248" xmlns="http://www.w3.org/2000/svg" version="1.1">
 <metadata>
  <rdf:RDF xmlns:dc="http://purl.org/dc/elements/1.1/" xmlns:cc="http://creativecommons.org/ns#" xmlns:rdf="http://www.w3.org/1999/02/22-rdf-syntax-ns#">
   <cc:Work>
    <dc:type rdf:resource="http://purl.org/dc/dcmitype/StillImage"/>
    <dc:format>image/svg+xml</dc:format>
    <dc:creator>
     <cc:Agent>
      <dc:title>Matplotlib v3.10.8, https://matplotlib.org/</dc:title>
     </cc:Agent>
    </dc:creator>
   </cc:Work>
  </rdf:RDF>
 </metadata>
 <defs>
  <style type="text/css">*{stroke-linejoin: round; stroke-linecap: butt}</style>
 </defs>
 <g id="figure_1">
  <g id="patch_1">
   <path d="M 0 247.248 
L 416.16 247.248 
L 416.16 0 
L 0 0 
z
" style="fill: #ffffff"/>
  </g>
  <g id="axes_1">
   <g id="line2d_1">
    <path d="M 52.024463 198.783797 
L 52.024463 33.726987 
" clip-path="url(#p3b28e980af)" style="fill: none; stroke-dasharray: 1.8,2.7; stroke-dashoffset: 0; stroke: #7f7f7f; stroke-width: 0.9"/>
   </g>
   <g id="line2d_2">
    <path d="M 350.854215 198.783797 
L 350.854215 33.726987 
" clip-path="url(#p3b28e980af)" style="fill: none; stroke-dasharray: 1.8,2.7; stroke-dashoffset: 0; stroke: #7f7f7f; stroke-width: 0.9"/>
   </g>
   <g id="line2d_3">
    <path d="M 7.2 51.411646 
L 408.96 51.411646 
" clip-path="url(#p3b28e980af)" style="fill: none; stroke-dasharray: 6,3.6; stroke-dashoffset: 0; stroke: #7f7f7f; stroke-width: 1.2"/>
   </g>
   <g id="line2d_4">
    <path d="M 52.024463 78.206582 
L 350.854215 78.206582 
" clip-path="url(#p3b28e980af)" style="fill: none; stroke-dasharray: 2,3; stroke-dashoffset: 0; stroke: #2ca02c"/>
   </g>
   <g id="line2d_5">
    <path d="M 18.821157 198.783797 
L 403.979504 198.783797 
" clip-path="url(#p3b28e980af)" style="fill: none; stroke: #000000; stroke-linecap: square"/>
   </g>
   <g id="text_1">
    <!-- instability: $|1-\eta\lambda|=1$ -->
    <g style="fill: #7f7f7f" transform="translate(281.796694 38.845595) scale(0.09 -0.09)">
     <defs>
      <path id="DejaVuSans-69" d="M 603 3500 
L 1178 3500 
L 1178 0 
L 603 0 
L 603 3500 
z
M 603 4863 
L 1178 4863 
L 1178 4134 
L 603 4134 
L 603 4863 
z
" transform="scale(0.015625)"/>
      <path id="DejaVuSans-6e" d="M 3513 2113 
L 3513 0 
L 2938 0 
L 2938 2094 
Q 2938 2591 2744 2837 
Q 2550 3084 2163 3084 
Q 1697 3084 1428 2787 
Q 1159 2491 1159 1978 
L 1159 0 
L 581 0 
L 581 3500 
L 1159 3500 
L 1159 2956 
Q 1366 3272 1645 3428 
Q 1925 3584 2291 3584 
Q 2894 3584 3203 3211 
Q 3513 2838 3513 2113 
z
" transform="scale(0.015625)"/>
      <path id="DejaVuSans-73" d="M 2834 3397 
L 2834 2853 
Q 2591 2978 2328 3040 
Q 2066 3103 1784 3103 
Q 1356 3103 1142 2972 
Q 928 2841 928 2578 
Q 928 2378 1081 2264 
Q 1234 2150 1697 2047 
L 1894 2003 
Q 2506 1872 2764 1633 
Q 3022 1394 3022 966 
Q 3022 478 2636 193 
Q 2250 -91 1575 -91 
Q 1294 -91 989 -36 
Q 684 19 347 128 
L 347 722 
Q 666 556 975 473 
Q 1284 391 1588 391 
Q 1994 391 2212 530 
Q 2431 669 2431 922 
Q 2431 1156 2273 1281 
Q 2116 1406 1581 1522 
L 1381 1569 
Q 847 1681 609 1914 
Q 372 2147 372 2553 
Q 372 3047 722 3315 
Q 1072 3584 1716 3584 
Q 2034 3584 2315 3537 
Q 2597 3491 2834 3397 
z
" transform="scale(0.015625)"/>
      <path id="DejaVuSans-74" d="M 1172 4494 
L 1172 3500 
L 2356 3500 
L 2356 3053 
L 1172 3053 
L 1172 1153 
Q 1172 725 1289 603 
Q 1406 481 1766 481 
L 2356 481 
L 2356 0 
L 1766 0 
Q 1100 0 847 248 
Q 594 497 594 1153 
L 594 3053 
L 172 3053 
L 172 3500 
L 594 3500 
L 594 4494 
L 1172 4494 
z
" transform="scale(0.015625)"/>
      <path id="DejaVuSans-61" d="M 2194 1759 
Q 1497 1759 1228 1600 
Q 959 1441 959 1056 
Q 959 750 1161 570 
Q 1363 391 1709 391 
Q 2188 391 2477 730 
Q 2766 1069 2766 1631 
L 2766 1759 
L 2194 1759 
z
M 3341 1997 
L 3341 0 
L 2766 0 
L 2766 531 
Q 2569 213 2275 61 
Q 1981 -91 1556 -91 
Q 1019 -91 701 211 
Q 384 513 384 1019 
Q 384 1609 779 1909 
Q 1175 2209 1959 2209 
L 2766 2209 
L 2766 2266 
Q 2766 2663 2505 2880 
Q 2244 3097 1772 3097 
Q 1472 3097 1187 3025 
Q 903 2953 641 2809 
L 641 3341 
Q 956 3463 1253 3523 
Q 1550 3584 1831 3584 
Q 2591 3584 2966 3190 
Q 3341 2797 3341 1997 
z
" transform="scale(0.015625)"/>
      <path id="DejaVuSans-62" d="M 3116 1747 
Q 3116 2381 2855 2742 
Q 2594 3103 2138 3103 
Q 1681 3103 1420 2742 
Q 1159 2381 1159 1747 
Q 1159 1113 1420 752 
Q 1681 391 2138 391 
Q 2594 391 2855 752 
Q 3116 1113 3116 1747 
z
M 1159 2969 
Q 1341 3281 1617 3432 
Q 1894 3584 2278 3584 
Q 2916 3584 3314 3078 
Q 3713 2572 3713 1747 
Q 3713 922 3314 415 
Q 2916 -91 2278 -91 
Q 1894 -91 1617 61 
Q 1341 213 1159 525 
L 1159 0 
L 581 0 
L 581 4863 
L 1159 4863 
L 1159 2969 
z
" transform="scale(0.015625)"/>
      <path id="DejaVuSans-6c" d="M 603 4863 
L 1178 4863 
L 1178 0 
L 603 0 
L 603 4863 
z
" transform="scale(0.015625)"/>
      <path id="DejaVuSans-79" d="M 2059 -325 
Q 1816 -950 1584 -1140 
Q 1353 -1331 966 -1331 
L 506 -1331 
L 506 -850 
L 844 -850 
Q 1081 -850 1212 -737 
Q 1344 -625 1503 -206 
L 1606 56 
L 191 3500 
L 800 3500 
L 1894 763 
L 2988 3500 
L 3597 3500 
L 2059 -325 
z
" transform="scale(0.015625)"/>
      <path id="DejaVuSans-3a" d="M 750 794 
L 1409 794 
L 1409 0 
L 750 0 
L 750 794 
z
M 750 3309 
L 1409 3309 
L 1409 2516 
L 750 2516 
L 750 3309 
z
" transform="scale(0.015625)"/>
      <path id="DejaVuSans-20" transform="scale(0.015625)"/>
      <path id="Cmsy10-6a" d="M 763 -1484 
L 763 4684 
Q 763 4734 800 4767 
Q 838 4800 891 4800 
Q 938 4800 978 4767 
Q 1019 4734 1019 4684 
L 1019 -1484 
Q 1019 -1534 978 -1567 
Q 938 -1600 891 -1600 
Q 838 -1600 800 -1567 
Q 763 -1534 763 -1484 
z
" transform="scale(0.015625)"/>
      <path id="Cmr10-31" d="M 594 0 
L 594 225 
Q 1394 225 1394 428 
L 1394 3788 
Q 1063 3628 556 3628 
L 556 3853 
Q 1341 3853 1741 4263 
L 1831 4263 
Q 1853 4263 1873 4245 
Q 1894 4228 1894 4206 
L 1894 428 
Q 1894 225 2694 225 
L 2694 0 
L 594 0 
z
" transform="scale(0.015625)"/>
      <path id="Cmsy10-a1" d="M 653 1472 
Q 600 1472 565 1512 
Q 531 1553 531 1600 
Q 531 1647 565 1687 
Q 600 1728 653 1728 
L 4325 1728 
Q 4375 1728 4408 1687 
Q 4441 1647 4441 1600 
Q 4441 1553 4408 1512 
Q 4375 1472 4325 1472 
L 653 1472 
z
" transform="scale(0.015625)"/>
      <path id="Cmmi10-b4" d="M 684 -72 
Q 606 -72 550 -22 
Q 494 28 494 109 
Q 494 147 500 166 
L 978 2075 
Q 1025 2253 1025 2388 
Q 1025 2663 838 2663 
Q 638 2663 541 2423 
Q 444 2184 353 1819 
Q 353 1800 334 1789 
Q 316 1778 300 1778 
L 225 1778 
Q 203 1778 187 1801 
Q 172 1825 172 1844 
Q 241 2122 305 2315 
Q 369 2509 505 2668 
Q 641 2828 844 2828 
Q 1081 2828 1267 2678 
Q 1453 2528 1453 2291 
Q 1641 2541 1894 2684 
Q 2147 2828 2444 2828 
Q 2778 2828 2979 2648 
Q 3181 2469 3181 2138 
Q 3181 1947 3138 1784 
L 2394 -1178 
Q 2375 -1269 2300 -1325 
Q 2225 -1381 2131 -1381 
Q 2053 -1381 1997 -1332 
Q 1941 -1284 1941 -1203 
Q 1941 -1166 1947 -1153 
L 2681 1797 
Q 2747 2059 2747 2234 
Q 2747 2413 2672 2538 
Q 2597 2663 2431 2663 
Q 1803 2663 1388 1888 
L 953 141 
Q 931 53 854 -9 
Q 778 -72 684 -72 
z
" transform="scale(0.015625)"/>
      <path id="Cmmi10-b8" d="M 325 109 
Q 325 203 409 288 
L 2209 2053 
L 1575 3834 
Q 1500 4038 1417 4156 
Q 1334 4275 1178 4275 
Q 1106 4275 1106 4359 
Q 1113 4397 1138 4419 
Q 1163 4441 1203 4441 
Q 1875 4441 2016 4044 
L 3316 416 
Q 3400 144 3488 50 
Q 3519 3 3519 -13 
Q 3519 -72 3469 -72 
L 3122 -72 
Q 2963 -25 2869 206 
L 2284 1844 
L 738 25 
Q 622 -84 531 -84 
Q 450 -84 387 -28 
Q 325 28 325 109 
z
" transform="scale(0.015625)"/>
      <path id="Cmr10-3d" d="M 481 850 
Q 428 850 393 890 
Q 359 931 359 978 
Q 359 1031 393 1068 
Q 428 1106 481 1106 
L 4500 1106 
Q 4547 1106 4581 1068 
Q 4616 1031 4616 978 
Q 4616 931 4581 890 
Q 4547 850 4500 850 
L 481 850 
z
M 481 2094 
Q 428 2094 393 2131 
Q 359 2169 359 2222 
Q 359 2269 393 2309 
Q 428 2350 481 2350 
L 4500 2350 
Q 4547 2350 4581 2309 
Q 4616 2269 4616 2222 
Q 4616 2169 4581 2131 
Q 4547 2094 4500 2094 
L 481 2094 
z
" transform="scale(0.015625)"/>
     </defs>
     <use xlink:href="#DejaVuSans-69" transform="translate(0 0.015625)"/>
     <use xlink:href="#DejaVuSans-6e" transform="translate(27.783203 0.015625)"/>
     <use xlink:href="#DejaVuSans-73" transform="translate(91.162109 0.015625)"/>
     <use xlink:href="#DejaVuSans-74" transform="translate(143.261719 0.015625)"/>
     <use xlink:href="#DejaVuSans-61" transform="translate(182.470703 0.015625)"/>
     <use xlink:href="#DejaVuSans-62" transform="translate(243.75 0.015625)"/>
     <use xlink:href="#DejaVuSans-69" transform="translate(307.226562 0.015625)"/>
     <use xlink:href="#DejaVuSans-6c" transform="translate(335.009766 0.015625)"/>
     <use xlink:href="#DejaVuSans-69" transform="translate(362.792969 0.015625)"/>
     <use xlink:href="#DejaVuSans-74" transform="translate(390.576172 0.015625)"/>
     <use xlink:href="#DejaVuSans-79" transform="translate(429.785156 0.015625)"/>
     <use xlink:href="#DejaVuSans-3a" transform="translate(488.964844 0.015625)"/>
     <use xlink:href="#DejaVuSans-20" transform="translate(522.65625 0.015625)"/>
     <use xlink:href="#Cmsy10-6a" transform="translate(554.443359 0.015625)"/>
     <use xlink:href="#Cmr10-31" transform="translate(582.128906 0.015625)"/>
     <use xlink:href="#Cmsy10-a1" transform="translate(649.6875 0.015625)"/>
     <use xlink:href="#Cmmi10-b4" transform="translate(744.931641 0.015625)"/>
     <use xlink:href="#Cmmi10-b8" transform="translate(794.541016 0.015625)"/>
     <use xlink:href="#Cmsy10-6a" transform="translate(852.841797 0.015625)"/>
     <use xlink:href="#Cmr10-3d" transform="translate(898.085938 0.015625)"/>
     <use xlink:href="#Cmr10-31" transform="translate(993.330078 0.015625)"/>
    </g>
   </g>
   <g id="line2d_6">
    <path d="M 18.821157 51.411646 
L 350.887501 198.769023 
L 403.979504 175.204253 
L 403.979504 175.204253 
" clip-path="url(#p3b28e980af)" style="fill: none; stroke: #1f77b4; stroke-width: 2; stroke-linecap: square"/>
   </g>
   <g id="line2d_7">
    <path d="M 18.821157 51.411646 
L 201.264585 198.642771 
L 202.229894 198.145823 
L 403.979504 35.334684 
L 403.979504 35.334684 
" clip-path="url(#p3b28e980af)" style="fill: none; stroke: #2ca02c; stroke-width: 2; stroke-linecap: square"/>
   </g>
   <g id="text_2">
    <!-- $\lambda_{\min}$ -->
    <g transform="translate(42.924463 215.224564) scale(0.1 -0.1)">
     <defs>
      <path id="Cmr10-6d" d="M 191 0 
L 191 225 
Q 409 225 550 259 
Q 691 294 691 428 
L 691 2175 
Q 691 2347 639 2423 
Q 588 2500 491 2517 
Q 394 2534 191 2534 
L 191 2759 
L 1119 2828 
L 1119 2203 
Q 1247 2478 1498 2653 
Q 1750 2828 2047 2828 
Q 2784 2828 2913 2228 
Q 3041 2497 3287 2662 
Q 3534 2828 3828 2828 
Q 4119 2828 4317 2734 
Q 4516 2641 4616 2448 
Q 4716 2256 4716 1966 
L 4716 428 
Q 4716 294 4858 259 
Q 5000 225 5216 225 
L 5216 0 
L 3750 0 
L 3750 225 
Q 3969 225 4109 259 
Q 4250 294 4250 428 
L 4250 1947 
Q 4250 2269 4159 2466 
Q 4069 2663 3788 2663 
Q 3419 2663 3178 2366 
Q 2938 2069 2938 1691 
L 2938 428 
Q 2938 294 3078 259 
Q 3219 225 3438 225 
L 3438 0 
L 1972 0 
L 1972 225 
Q 2191 225 2331 259 
Q 2472 294 2472 428 
L 2472 1947 
Q 2472 2259 2381 2461 
Q 2291 2663 2009 2663 
Q 1638 2663 1398 2366 
Q 1159 2069 1159 1691 
L 1159 428 
Q 1159 294 1300 259 
Q 1441 225 1656 225 
L 1656 0 
L 191 0 
z
" transform="scale(0.015625)"/>
      <path id="Cmr10-69" d="M 197 0 
L 197 225 
Q 416 225 556 259 
Q 697 294 697 428 
L 697 2175 
Q 697 2422 601 2478 
Q 506 2534 225 2534 
L 225 2759 
L 1147 2828 
L 1147 428 
Q 1147 294 1269 259 
Q 1391 225 1594 225 
L 1594 0 
L 197 0 
z
M 469 3928 
Q 469 4069 575 4175 
Q 681 4281 819 4281 
Q 909 4281 993 4234 
Q 1078 4188 1125 4103 
Q 1172 4019 1172 3928 
Q 1172 3791 1065 3684 
Q 959 3578 819 3578 
Q 681 3578 575 3684 
Q 469 3791 469 3928 
z
" transform="scale(0.015625)"/>
      <path id="Cmr10-6e" d="M 191 0 
L 191 225 
Q 409 225 550 259 
Q 691 294 691 428 
L 691 2175 
Q 691 2347 639 2423 
Q 588 2500 491 2517 
Q 394 2534 191 2534 
L 191 2759 
L 1119 2828 
L 1119 2203 
Q 1247 2478 1498 2653 
Q 1750 2828 2047 2828 
Q 2491 2828 2714 2615 
Q 2938 2403 2938 1966 
L 2938 428 
Q 2938 294 3078 259 
Q 3219 225 3438 225 
L 3438 0 
L 1972 0 
L 1972 225 
Q 2191 225 2331 259 
Q 2472 294 2472 428 
L 2472 1947 
Q 2472 2259 2381 2461 
Q 2291 2663 2009 2663 
Q 1638 2663 1398 2366 
Q 1159 2069 1159 1691 
L 1159 428 
Q 1159 294 1300 259 
Q 1441 225 1656 225 
L 1656 0 
L 191 0 
z
" transform="scale(0.015625)"/>
     </defs>
     <use xlink:href="#Cmmi10-b8" transform="translate(0 0.609375)"/>
     <use xlink:href="#Cmr10-6d" transform="translate(58.300781 -16.396875) scale(0.7)"/>
     <use xlink:href="#Cmr10-69" transform="translate(116.611328 -16.396875) scale(0.7)"/>
     <use xlink:href="#Cmr10-6e" transform="translate(135.991211 -16.396875) scale(0.7)"/>
    </g>
   </g>
   <g id="text_3">
    <!-- $\lambda_{\max}$ -->
    <g transform="translate(341.104215 215.224564) scale(0.1 -0.1)">
     <defs>
      <path id="Cmr10-61" d="M 256 628 
Q 256 1009 556 1248 
Q 856 1488 1276 1586 
Q 1697 1684 2075 1684 
L 2075 1947 
Q 2075 2131 1994 2304 
Q 1913 2478 1759 2589 
Q 1606 2700 1422 2700 
Q 997 2700 775 2509 
Q 897 2509 976 2417 
Q 1056 2325 1056 2203 
Q 1056 2075 965 1984 
Q 875 1894 750 1894 
Q 622 1894 531 1984 
Q 441 2075 441 2203 
Q 441 2541 747 2705 
Q 1053 2869 1422 2869 
Q 1681 2869 1943 2758 
Q 2206 2647 2373 2440 
Q 2541 2234 2541 1959 
L 2541 519 
Q 2541 394 2594 289 
Q 2647 184 2759 184 
Q 2866 184 2917 290 
Q 2969 397 2969 519 
L 2969 928 
L 3156 928 
L 3156 519 
Q 3156 375 3081 245 
Q 3006 116 2879 39 
Q 2753 -38 2606 -38 
Q 2419 -38 2283 107 
Q 2147 253 2131 453 
Q 2013 213 1781 70 
Q 1550 -72 1288 -72 
Q 1044 -72 808 0 
Q 572 72 414 226 
Q 256 381 256 628 
z
M 775 628 
Q 775 403 940 250 
Q 1106 97 1331 97 
Q 1538 97 1706 200 
Q 1875 303 1975 481 
Q 2075 659 2075 856 
L 2075 1522 
Q 1784 1522 1479 1426 
Q 1175 1331 975 1128 
Q 775 925 775 628 
z
" transform="scale(0.015625)"/>
      <path id="Cmr10-78" d="M 78 0 
L 78 225 
Q 322 225 537 320 
Q 753 416 903 603 
L 1484 1344 
L 728 2328 
Q 616 2469 483 2501 
Q 350 2534 109 2534 
L 109 2759 
L 1441 2759 
L 1441 2534 
Q 1356 2534 1282 2496 
Q 1209 2459 1209 2388 
Q 1209 2363 1228 2328 
L 1741 1663 
L 2125 2156 
Q 2203 2250 2203 2344 
Q 2203 2422 2151 2478 
Q 2100 2534 2016 2534 
L 2016 2759 
L 3194 2759 
L 3194 2534 
Q 2947 2534 2730 2439 
Q 2513 2344 2363 2156 
L 1856 1509 
L 2675 428 
Q 2797 288 2928 256 
Q 3059 225 3303 225 
L 3303 0 
L 1972 0 
L 1972 225 
Q 2050 225 2122 262 
Q 2194 300 2194 372 
Q 2194 400 2175 428 
L 1600 1191 
L 1141 603 
Q 1069 522 1069 416 
Q 1069 338 1122 281 
Q 1175 225 1247 225 
L 1247 0 
L 78 0 
z
" transform="scale(0.015625)"/>
     </defs>
     <use xlink:href="#Cmmi10-b8" transform="translate(0 0.609375)"/>
     <use xlink:href="#Cmr10-6d" transform="translate(58.300781 -16.396875) scale(0.7)"/>
     <use xlink:href="#Cmr10-61" transform="translate(116.611328 -16.396875) scale(0.7)"/>
     <use xlink:href="#Cmr10-78" transform="translate(151.611328 -16.396875) scale(0.7)"/>
    </g>
   </g>
   <g id="patch_2">
    <path d="M 263.857551 106.986892 
Q 278.404912 93.282694 292.952274 79.578495 
" style="fill: none; stroke: #2ca02c; stroke-width: 0.9; stroke-linecap: round"/>
   </g>
   <g id="text_4">
    <!-- $\rho(\eta^\star)=\frac{\kappa-1}{\kappa+1}=\frac{9}{11}$ -->
    <g style="fill: #2ca02c" transform="translate(212.726467 118.530506) scale(0.095 -0.095)">
     <defs>
      <path id="Cmmi10-bd" d="M 178 -1203 
Q 178 -1166 184 -1153 
L 819 1403 
Q 909 1747 1129 2076 
Q 1350 2406 1662 2617 
Q 1975 2828 2322 2828 
Q 2600 2828 2808 2683 
Q 3016 2538 3120 2302 
Q 3225 2066 3225 1784 
Q 3225 1475 3098 1144 
Q 2972 813 2748 538 
Q 2525 263 2234 95 
Q 1944 -72 1625 -72 
Q 1438 -72 1272 39 
Q 1106 150 1013 331 
L 634 -1178 
Q 616 -1269 541 -1325 
Q 466 -1381 372 -1381 
Q 294 -1381 236 -1332 
Q 178 -1284 178 -1203 
z
M 1638 97 
Q 1978 97 2229 445 
Q 2481 794 2614 1264 
Q 2747 1734 2747 2059 
Q 2747 2303 2640 2483 
Q 2534 2663 2309 2663 
Q 2031 2663 1818 2452 
Q 1606 2241 1478 1956 
Q 1350 1672 1269 1363 
L 1094 647 
Q 1134 416 1276 256 
Q 1419 97 1638 97 
z
" transform="scale(0.015625)"/>
      <path id="Cmr10-28" d="M 1984 -1588 
Q 1628 -1306 1370 -942 
Q 1113 -578 948 -165 
Q 784 247 703 697 
Q 622 1147 622 1600 
Q 622 2059 703 2509 
Q 784 2959 951 3375 
Q 1119 3791 1378 4153 
Q 1638 4516 1984 4788 
Q 1984 4800 2016 4800 
L 2075 4800 
Q 2094 4800 2109 4783 
Q 2125 4766 2125 4744 
Q 2125 4716 2113 4703 
Q 1800 4397 1592 4047 
Q 1384 3697 1257 3301 
Q 1131 2906 1075 2482 
Q 1019 2059 1019 1600 
Q 1019 -434 2106 -1491 
Q 2125 -1509 2125 -1544 
Q 2125 -1559 2108 -1579 
Q 2091 -1600 2075 -1600 
L 2016 -1600 
Q 1984 -1600 1984 -1588 
z
" transform="scale(0.015625)"/>
      <path id="STIXGeneral-Regular-22c6" d="M 4256 2336 
L 2810 1459 
L 3494 -83 
L 2240 1062 
L 986 -83 
L 1670 1459 
L 224 2336 
L 1901 2144 
L 2240 3821 
L 2579 2144 
L 4256 2336 
z
" transform="scale(0.015625)"/>
      <path id="Cmr10-29" d="M 416 -1600 
Q 359 -1600 359 -1544 
Q 359 -1516 372 -1503 
Q 1466 -434 1466 1600 
Q 1466 3634 384 4691 
Q 359 4706 359 4744 
Q 359 4766 376 4783 
Q 394 4800 416 4800 
L 475 4800 
Q 494 4800 506 4788 
Q 966 4425 1272 3906 
Q 1578 3388 1720 2800 
Q 1863 2213 1863 1600 
Q 1863 1147 1786 708 
Q 1709 269 1542 -157 
Q 1375 -584 1119 -945 
Q 863 -1306 506 -1588 
Q 494 -1600 475 -1600 
L 416 -1600 
z
" transform="scale(0.015625)"/>
      <path id="Cmmi10-2219" d="M 341 109 
Q 341 147 347 166 
L 959 2625 
Q 984 2716 1059 2772 
Q 1134 2828 1228 2828 
Q 1309 2828 1365 2779 
Q 1422 2731 1422 2650 
Q 1422 2631 1420 2620 
Q 1419 2609 1416 2597 
L 1184 1672 
Q 1441 1756 1866 2111 
Q 2291 2466 2508 2612 
Q 2725 2759 3041 2759 
Q 3144 2759 3214 2695 
Q 3284 2631 3284 2522 
Q 3284 2372 3176 2267 
Q 3069 2163 2919 2163 
Q 2816 2163 2745 2230 
Q 2675 2297 2675 2400 
Q 2675 2472 2700 2522 
Q 2547 2459 2386 2346 
Q 2225 2234 2094 2120 
Q 1963 2006 1778 1853 
Q 1594 1700 1447 1619 
Q 1709 1619 1984 1562 
Q 2259 1506 2461 1356 
Q 2663 1206 2663 947 
Q 2663 844 2638 769 
Q 2578 513 2578 384 
Q 2578 97 2778 97 
Q 3006 97 3128 350 
Q 3250 603 3328 941 
Q 3341 978 3378 978 
L 3456 978 
Q 3481 978 3497 961 
Q 3513 944 3513 922 
Q 3513 916 3506 903 
Q 3272 -72 2766 -72 
Q 2584 -72 2445 12 
Q 2306 97 2231 242 
Q 2156 388 2156 569 
Q 2156 684 2181 781 
Q 2203 869 2203 928 
Q 2203 1134 2020 1253 
Q 1838 1372 1589 1415 
Q 1341 1459 1125 1459 
L 800 141 
Q 778 53 701 -9 
Q 625 -72 531 -72 
Q 453 -72 397 -22 
Q 341 28 341 109 
z
" transform="scale(0.015625)"/>
      <path id="Cmr10-2b" d="M 481 1472 
Q 428 1472 393 1512 
Q 359 1553 359 1600 
Q 359 1647 393 1687 
Q 428 1728 481 1728 
L 2363 1728 
L 2363 3616 
Q 2363 3666 2400 3698 
Q 2438 3731 2491 3731 
Q 2538 3731 2578 3698 
Q 2619 3666 2619 3616 
L 2619 1728 
L 4500 1728 
Q 4547 1728 4581 1687 
Q 4616 1647 4616 1600 
Q 4616 1553 4581 1512 
Q 4547 1472 4500 1472 
L 2619 1472 
L 2619 -416 
Q 2619 -466 2578 -498 
Q 2538 -531 2491 -531 
Q 2438 -531 2400 -498 
Q 2363 -466 2363 -416 
L 2363 1472 
L 481 1472 
z
" transform="scale(0.015625)"/>
      <path id="Cmr10-39" d="M 722 269 
Q 897 63 1331 63 
Q 1575 63 1786 228 
Q 1997 394 2113 634 
Q 2247 906 2284 1214 
Q 2322 1522 2322 1978 
Q 2213 1719 2008 1553 
Q 1803 1388 1538 1388 
Q 1166 1388 873 1589 
Q 581 1791 425 2120 
Q 269 2450 269 2822 
Q 269 3206 444 3539 
Q 619 3872 928 4067 
Q 1238 4263 1631 4263 
Q 2019 4263 2280 4052 
Q 2541 3841 2678 3508 
Q 2816 3175 2870 2803 
Q 2925 2431 2925 2069 
Q 2925 1575 2744 1061 
Q 2563 547 2202 203 
Q 1841 -141 1331 -141 
Q 953 -141 690 37 
Q 428 216 428 575 
Q 428 706 517 795 
Q 606 884 738 884 
Q 866 884 955 795 
Q 1044 706 1044 575 
Q 1044 450 953 359 
Q 863 269 738 269 
L 722 269 
z
M 1563 1556 
Q 1825 1556 1992 1732 
Q 2159 1909 2234 2171 
Q 2309 2434 2309 2694 
L 2309 2816 
L 2309 2841 
Q 2309 3322 2168 3700 
Q 2028 4078 1631 4078 
Q 1378 4078 1220 3967 
Q 1063 3856 988 3672 
Q 913 3488 892 3278 
Q 872 3069 872 2822 
Q 872 2459 906 2203 
Q 941 1947 1094 1751 
Q 1247 1556 1563 1556 
z
" transform="scale(0.015625)"/>
     </defs>
     <use xlink:href="#Cmmi10-bd" transform="translate(0 0.33125)"/>
     <use xlink:href="#Cmr10-28" transform="translate(51.708984 0.33125)"/>
     <use xlink:href="#Cmmi10-b4" transform="translate(90.527344 0.33125)"/>
     <use xlink:href="#STIXGeneral-Regular-22c6" transform="translate(158.731016 38.595313) scale(0.7)"/>
     <use xlink:href="#Cmr10-29" transform="translate(226.399364 0.33125)"/>
     <use xlink:href="#Cmr10-3d" transform="translate(282.776317 0.33125)"/>
     <use xlink:href="#Cmmi10-2219" transform="translate(378.020458 38.61875) scale(0.7)"/>
     <use xlink:href="#Cmsy10-a1" transform="translate(430.643505 38.61875) scale(0.7)"/>
     <use xlink:href="#Cmr10-31" transform="translate(497.314403 38.61875) scale(0.7)"/>
     <use xlink:href="#Cmmi10-2219" transform="translate(378.020458 -40.045312) scale(0.7)"/>
     <use xlink:href="#Cmr10-2b" transform="translate(430.643505 -40.045312) scale(0.7)"/>
     <use xlink:href="#Cmr10-31" transform="translate(497.314403 -40.045312) scale(0.7)"/>
     <use xlink:href="#Cmr10-3d" transform="translate(562.372997 0.33125)"/>
     <use xlink:href="#Cmr10-39" transform="translate(675.617138 39.373438) scale(0.7)"/>
     <use xlink:href="#Cmr10-31" transform="translate(657.617138 -40.045312) scale(0.7)"/>
     <use xlink:href="#Cmr10-31" transform="translate(692.617138 -40.045312) scale(0.7)"/>
     <path d="M 378.020458 12.83125 
L 378.020458 19.08125 
L 532.314403 19.08125 
L 532.314403 12.83125 
L 378.020458 12.83125 
z
"/>
     <path d="M 657.617138 12.83125 
L 657.617138 19.08125 
L 727.617138 19.08125 
L 727.617138 12.83125 
L 657.617138 12.83125 
z
"/>
    </g>
    <!-- both endpoints equal -->
    <g style="fill: #2ca02c" transform="translate(197.394358 131.657725) scale(0.095 -0.095)">
     <defs>
      <path id="DejaVuSans-6f" d="M 1959 3097 
Q 1497 3097 1228 2736 
Q 959 2375 959 1747 
Q 959 1119 1226 758 
Q 1494 397 1959 397 
Q 2419 397 2687 759 
Q 2956 1122 2956 1747 
Q 2956 2369 2687 2733 
Q 2419 3097 1959 3097 
z
M 1959 3584 
Q 2709 3584 3137 3096 
Q 3566 2609 3566 1747 
Q 3566 888 3137 398 
Q 2709 -91 1959 -91 
Q 1206 -91 779 398 
Q 353 888 353 1747 
Q 353 2609 779 3096 
Q 1206 3584 1959 3584 
z
" transform="scale(0.015625)"/>
      <path id="DejaVuSans-68" d="M 3513 2113 
L 3513 0 
L 2938 0 
L 2938 2094 
Q 2938 2591 2744 2837 
Q 2550 3084 2163 3084 
Q 1697 3084 1428 2787 
Q 1159 2491 1159 1978 
L 1159 0 
L 581 0 
L 581 4863 
L 1159 4863 
L 1159 2956 
Q 1366 3272 1645 3428 
Q 1925 3584 2291 3584 
Q 2894 3584 3203 3211 
Q 3513 2838 3513 2113 
z
" transform="scale(0.015625)"/>
      <path id="DejaVuSans-65" d="M 3597 1894 
L 3597 1613 
L 953 1613 
Q 991 1019 1311 708 
Q 1631 397 2203 397 
Q 2534 397 2845 478 
Q 3156 559 3463 722 
L 3463 178 
Q 3153 47 2828 -22 
Q 2503 -91 2169 -91 
Q 1331 -91 842 396 
Q 353 884 353 1716 
Q 353 2575 817 3079 
Q 1281 3584 2069 3584 
Q 2775 3584 3186 3129 
Q 3597 2675 3597 1894 
z
M 3022 2063 
Q 3016 2534 2758 2815 
Q 2500 3097 2075 3097 
Q 1594 3097 1305 2825 
Q 1016 2553 972 2059 
L 3022 2063 
z
" transform="scale(0.015625)"/>
      <path id="DejaVuSans-64" d="M 2906 2969 
L 2906 4863 
L 3481 4863 
L 3481 0 
L 2906 0 
L 2906 525 
Q 2725 213 2448 61 
Q 2172 -91 1784 -91 
Q 1150 -91 751 415 
Q 353 922 353 1747 
Q 353 2572 751 3078 
Q 1150 3584 1784 3584 
Q 2172 3584 2448 3432 
Q 2725 3281 2906 2969 
z
M 947 1747 
Q 947 1113 1208 752 
Q 1469 391 1925 391 
Q 2381 391 2643 752 
Q 2906 1113 2906 1747 
Q 2906 2381 2643 2742 
Q 2381 3103 1925 3103 
Q 1469 3103 1208 2742 
Q 947 2381 947 1747 
z
" transform="scale(0.015625)"/>
      <path id="DejaVuSans-70" d="M 1159 525 
L 1159 -1331 
L 581 -1331 
L 581 3500 
L 1159 3500 
L 1159 2969 
Q 1341 3281 1617 3432 
Q 1894 3584 2278 3584 
Q 2916 3584 3314 3078 
Q 3713 2572 3713 1747 
Q 3713 922 3314 415 
Q 2916 -91 2278 -91 
Q 1894 -91 1617 61 
Q 1341 213 1159 525 
z
M 3116 1747 
Q 3116 2381 2855 2742 
Q 2594 3103 2138 3103 
Q 1681 3103 1420 2742 
Q 1159 2381 1159 1747 
Q 1159 1113 1420 752 
Q 1681 391 2138 391 
Q 2594 391 2855 752 
Q 3116 1113 3116 1747 
z
" transform="scale(0.015625)"/>
      <path id="DejaVuSans-71" d="M 947 1747 
Q 947 1113 1208 752 
Q 1469 391 1925 391 
Q 2381 391 2643 752 
Q 2906 1113 2906 1747 
Q 2906 2381 2643 2742 
Q 2381 3103 1925 3103 
Q 1469 3103 1208 2742 
Q 947 2381 947 1747 
z
M 2906 525 
Q 2725 213 2448 61 
Q 2172 -91 1784 -91 
Q 1150 -91 751 415 
Q 353 922 353 1747 
Q 353 2572 751 3078 
Q 1150 3584 1784 3584 
Q 2172 3584 2448 3432 
Q 2725 3281 2906 2969 
L 2906 3500 
L 3481 3500 
L 3481 -1331 
L 2906 -1331 
L 2906 525 
z
" transform="scale(0.015625)"/>
      <path id="DejaVuSans-75" d="M 544 1381 
L 544 3500 
L 1119 3500 
L 1119 1403 
Q 1119 906 1312 657 
Q 1506 409 1894 409 
Q 2359 409 2629 706 
Q 2900 1003 2900 1516 
L 2900 3500 
L 3475 3500 
L 3475 0 
L 2900 0 
L 2900 538 
Q 2691 219 2414 64 
Q 2138 -91 1772 -91 
Q 1169 -91 856 284 
Q 544 659 544 1381 
z
M 1991 3584 
L 1991 3584 
z
" transform="scale(0.015625)"/>
     </defs>
     <use xlink:href="#DejaVuSans-62"/>
     <use xlink:href="#DejaVuSans-6f" transform="translate(63.476562 0)"/>
     <use xlink:href="#DejaVuSans-74" transform="translate(124.658203 0)"/>
     <use xlink:href="#DejaVuSans-68" transform="translate(163.867188 0)"/>
     <use xlink:href="#DejaVuSans-20" transform="translate(227.246094 0)"/>
     <use xlink:href="#DejaVuSans-65" transform="translate(259.033203 0)"/>
     <use xlink:href="#DejaVuSans-6e" transform="translate(320.556641 0)"/>
     <use xlink:href="#DejaVuSans-64" transform="translate(383.935547 0)"/>
     <use xlink:href="#DejaVuSans-70" transform="translate(447.412109 0)"/>
     <use xlink:href="#DejaVuSans-6f" transform="translate(510.888672 0)"/>
     <use xlink:href="#DejaVuSans-69" transform="translate(572.070312 0)"/>
     <use xlink:href="#DejaVuSans-6e" transform="translate(599.853516 0)"/>
     <use xlink:href="#DejaVuSans-74" transform="translate(663.232422 0)"/>
     <use xlink:href="#DejaVuSans-73" transform="translate(702.441406 0)"/>
     <use xlink:href="#DejaVuSans-20" transform="translate(754.541016 0)"/>
     <use xlink:href="#DejaVuSans-65" transform="translate(786.328125 0)"/>
     <use xlink:href="#DejaVuSans-71" transform="translate(847.851562 0)"/>
     <use xlink:href="#DejaVuSans-75" transform="translate(911.328125 0)"/>
     <use xlink:href="#DejaVuSans-61" transform="translate(974.707031 0)"/>
     <use xlink:href="#DejaVuSans-6c" transform="translate(1035.986328 0)"/>
    </g>
   </g>
   <g id="patch_3">
    <path d="M 337.918277 162.982313 
Q 344.027002 178.844911 350.135727 194.70751 
" style="fill: none; stroke: #1f77b4; stroke-width: 0.9; stroke-linecap: round"/>
   </g>
   <g id="text_5">
    <!-- stiff mode killed: $|1-0.1\cdot10|=0$ -->
    <g style="fill: #1f77b4" transform="translate(265.379504 156.867152) scale(0.09 -0.09)">
     <defs>
      <path id="DejaVuSans-66" d="M 2375 4863 
L 2375 4384 
L 1825 4384 
Q 1516 4384 1395 4259 
Q 1275 4134 1275 3809 
L 1275 3500 
L 2222 3500 
L 2222 3053 
L 1275 3053 
L 1275 0 
L 697 0 
L 697 3053 
L 147 3053 
L 147 3500 
L 697 3500 
L 697 3744 
Q 697 4328 969 4595 
Q 1241 4863 1831 4863 
L 2375 4863 
z
" transform="scale(0.015625)"/>
      <path id="DejaVuSans-6d" d="M 3328 2828 
Q 3544 3216 3844 3400 
Q 4144 3584 4550 3584 
Q 5097 3584 5394 3201 
Q 5691 2819 5691 2113 
L 5691 0 
L 5113 0 
L 5113 2094 
Q 5113 2597 4934 2840 
Q 4756 3084 4391 3084 
Q 3944 3084 3684 2787 
Q 3425 2491 3425 1978 
L 3425 0 
L 2847 0 
L 2847 2094 
Q 2847 2600 2669 2842 
Q 2491 3084 2119 3084 
Q 1678 3084 1418 2786 
Q 1159 2488 1159 1978 
L 1159 0 
L 581 0 
L 581 3500 
L 1159 3500 
L 1159 2956 
Q 1356 3278 1631 3431 
Q 1906 3584 2284 3584 
Q 2666 3584 2933 3390 
Q 3200 3197 3328 2828 
z
" transform="scale(0.015625)"/>
      <path id="DejaVuSans-6b" d="M 581 4863 
L 1159 4863 
L 1159 1991 
L 2875 3500 
L 3609 3500 
L 1753 1863 
L 3688 0 
L 2938 0 
L 1159 1709 
L 1159 0 
L 581 0 
L 581 4863 
z
" transform="scale(0.015625)"/>
      <path id="Cmr10-30" d="M 1600 -141 
Q 816 -141 533 504 
Q 250 1150 250 2041 
Q 250 2597 351 3087 
Q 453 3578 754 3920 
Q 1056 4263 1600 4263 
Q 2022 4263 2290 4056 
Q 2559 3850 2700 3523 
Q 2841 3197 2892 2823 
Q 2944 2450 2944 2041 
Q 2944 1491 2842 1011 
Q 2741 531 2444 195 
Q 2147 -141 1600 -141 
z
M 1600 25 
Q 1956 25 2131 390 
Q 2306 756 2347 1200 
Q 2388 1644 2388 2144 
Q 2388 2625 2347 3031 
Q 2306 3438 2132 3767 
Q 1959 4097 1600 4097 
Q 1238 4097 1063 3765 
Q 888 3434 847 3029 
Q 806 2625 806 2144 
Q 806 1788 823 1472 
Q 841 1156 916 820 
Q 991 484 1158 254 
Q 1325 25 1600 25 
z
" transform="scale(0.015625)"/>
      <path id="Cmmi10-3a" d="M 538 353 
Q 538 497 644 600 
Q 750 703 891 703 
Q 978 703 1062 656 
Q 1147 609 1194 525 
Q 1241 441 1241 353 
Q 1241 213 1137 106 
Q 1034 0 891 0 
Q 750 0 644 106 
Q 538 213 538 353 
z
" transform="scale(0.015625)"/>
      <path id="Cmsy10-a2" d="M 538 1600 
Q 538 1691 584 1772 
Q 631 1853 714 1903 
Q 797 1953 891 1953 
Q 981 1953 1064 1903 
Q 1147 1853 1194 1772 
Q 1241 1691 1241 1600 
Q 1241 1456 1139 1351 
Q 1038 1247 891 1247 
Q 747 1247 642 1351 
Q 538 1456 538 1600 
z
" transform="scale(0.015625)"/>
     </defs>
     <use xlink:href="#DejaVuSans-73" transform="translate(0 0.015625)"/>
     <use xlink:href="#DejaVuSans-74" transform="translate(52.099609 0.015625)"/>
     <use xlink:href="#DejaVuSans-69" transform="translate(91.308594 0.015625)"/>
     <use xlink:href="#DejaVuSans-66" transform="translate(119.091797 0.015625)"/>
     <use xlink:href="#DejaVuSans-66" transform="translate(154.296875 0.015625)"/>
     <use xlink:href="#DejaVuSans-20" transform="translate(189.501953 0.015625)"/>
     <use xlink:href="#DejaVuSans-6d" transform="translate(221.289062 0.015625)"/>
     <use xlink:href="#DejaVuSans-6f" transform="translate(318.701172 0.015625)"/>
     <use xlink:href="#DejaVuSans-64" transform="translate(379.882812 0.015625)"/>
     <use xlink:href="#DejaVuSans-65" transform="translate(443.359375 0.015625)"/>
     <use xlink:href="#DejaVuSans-20" transform="translate(504.882812 0.015625)"/>
     <use xlink:href="#DejaVuSans-6b" transform="translate(536.669922 0.015625)"/>
     <use xlink:href="#DejaVuSans-69" transform="translate(594.580078 0.015625)"/>
     <use xlink:href="#DejaVuSans-6c" transform="translate(622.363281 0.015625)"/>
     <use xlink:href="#DejaVuSans-6c" transform="translate(650.146484 0.015625)"/>
     <use xlink:href="#DejaVuSans-65" transform="translate(677.929688 0.015625)"/>
     <use xlink:href="#DejaVuSans-64" transform="translate(739.453125 0.015625)"/>
     <use xlink:href="#DejaVuSans-3a" transform="translate(802.929688 0.015625)"/>
     <use xlink:href="#DejaVuSans-20" transform="translate(836.621094 0.015625)"/>
     <use xlink:href="#Cmsy10-6a" transform="translate(868.408203 0.015625)"/>
     <use xlink:href="#Cmr10-31" transform="translate(896.09375 0.015625)"/>
     <use xlink:href="#Cmsy10-a1" transform="translate(963.652344 0.015625)"/>
     <use xlink:href="#Cmr10-30" transform="translate(1058.896484 0.015625)"/>
     <use xlink:href="#Cmmi10-3a" transform="translate(1108.896484 0.015625)"/>
     <use xlink:href="#Cmr10-31" transform="translate(1136.582031 0.015625)"/>
     <use xlink:href="#Cmsy10-a2" transform="translate(1204.140625 0.015625)"/>
     <use xlink:href="#Cmr10-31" transform="translate(1249.384766 0.015625)"/>
     <use xlink:href="#Cmr10-30" transform="translate(1299.384766 0.015625)"/>
     <use xlink:href="#Cmsy10-6a" transform="translate(1349.384766 0.015625)"/>
     <use xlink:href="#Cmr10-3d" transform="translate(1394.628906 0.015625)"/>
     <use xlink:href="#Cmr10-30" transform="translate(1489.873047 0.015625)"/>
    </g>
   </g>
   <g id="patch_4">
    <path d="M 167.555646 60.374006 
Q 110.7896 63.211471 54.023553 66.048936 
" style="fill: none; stroke: #1f77b4; stroke-width: 0.9; stroke-linecap: round"/>
   </g>
   <g id="text_6">
    <!-- ...but the slow mode barely moves: $0.9$ -->
    <g style="fill: #1f77b4" transform="translate(171.556364 58.30781) scale(0.09 -0.09)">
     <defs>
      <path id="DejaVuSans-2e" d="M 684 794 
L 1344 794 
L 1344 0 
L 684 0 
L 684 794 
z
" transform="scale(0.015625)"/>
      <path id="DejaVuSans-77" d="M 269 3500 
L 844 3500 
L 1563 769 
L 2278 3500 
L 2956 3500 
L 3675 769 
L 4391 3500 
L 4966 3500 
L 4050 0 
L 3372 0 
L 2619 2869 
L 1863 0 
L 1184 0 
L 269 3500 
z
" transform="scale(0.015625)"/>
      <path id="DejaVuSans-72" d="M 2631 2963 
Q 2534 3019 2420 3045 
Q 2306 3072 2169 3072 
Q 1681 3072 1420 2755 
Q 1159 2438 1159 1844 
L 1159 0 
L 581 0 
L 581 3500 
L 1159 3500 
L 1159 2956 
Q 1341 3275 1631 3429 
Q 1922 3584 2338 3584 
Q 2397 3584 2469 3576 
Q 2541 3569 2628 3553 
L 2631 2963 
z
" transform="scale(0.015625)"/>
      <path id="DejaVuSans-76" d="M 191 3500 
L 800 3500 
L 1894 563 
L 2988 3500 
L 3597 3500 
L 2284 0 
L 1503 0 
L 191 3500 
z
" transform="scale(0.015625)"/>
     </defs>
     <use xlink:href="#DejaVuSans-2e" transform="translate(0 0.015625)"/>
     <use xlink:href="#DejaVuSans-2e" transform="translate(31.787109 0.015625)"/>
     <use xlink:href="#DejaVuSans-2e" transform="translate(63.574219 0.015625)"/>
     <use xlink:href="#DejaVuSans-62" transform="translate(95.361328 0.015625)"/>
     <use xlink:href="#DejaVuSans-75" transform="translate(158.837891 0.015625)"/>
     <use xlink:href="#DejaVuSans-74" transform="translate(222.216797 0.015625)"/>
     <use xlink:href="#DejaVuSans-20" transform="translate(261.425781 0.015625)"/>
     <use xlink:href="#DejaVuSans-74" transform="translate(293.212891 0.015625)"/>
     <use xlink:href="#DejaVuSans-68" transform="translate(332.421875 0.015625)"/>
     <use xlink:href="#DejaVuSans-65" transform="translate(395.800781 0.015625)"/>
     <use xlink:href="#DejaVuSans-20" transform="translate(457.324219 0.015625)"/>
     <use xlink:href="#DejaVuSans-73" transform="translate(489.111328 0.015625)"/>
     <use xlink:href="#DejaVuSans-6c" transform="translate(541.210938 0.015625)"/>
     <use xlink:href="#DejaVuSans-6f" transform="translate(568.994141 0.015625)"/>
     <use xlink:href="#DejaVuSans-77" transform="translate(630.175781 0.015625)"/>
     <use xlink:href="#DejaVuSans-20" transform="translate(711.962891 0.015625)"/>
     <use xlink:href="#DejaVuSans-6d" transform="translate(743.75 0.015625)"/>
     <use xlink:href="#DejaVuSans-6f" transform="translate(841.162109 0.015625)"/>
     <use xlink:href="#DejaVuSans-64" transform="translate(902.34375 0.015625)"/>
     <use xlink:href="#DejaVuSans-65" transform="translate(965.820312 0.015625)"/>
     <use xlink:href="#DejaVuSans-20" transform="translate(1027.34375 0.015625)"/>
     <use xlink:href="#DejaVuSans-62" transform="translate(1059.130859 0.015625)"/>
     <use xlink:href="#DejaVuSans-61" transform="translate(1122.607422 0.015625)"/>
     <use xlink:href="#DejaVuSans-72" transform="translate(1183.886719 0.015625)"/>
     <use xlink:href="#DejaVuSans-65" transform="translate(1225 0.015625)"/>
     <use xlink:href="#DejaVuSans-6c" transform="translate(1286.523438 0.015625)"/>
     <use xlink:href="#DejaVuSans-79" transform="translate(1314.306641 0.015625)"/>
     <use xlink:href="#DejaVuSans-20" transform="translate(1373.486328 0.015625)"/>
     <use xlink:href="#DejaVuSans-6d" transform="translate(1405.273438 0.015625)"/>
     <use xlink:href="#DejaVuSans-6f" transform="translate(1502.685547 0.015625)"/>
     <use xlink:href="#DejaVuSans-76" transform="translate(1563.867188 0.015625)"/>
     <use xlink:href="#DejaVuSans-65" transform="translate(1623.046875 0.015625)"/>
     <use xlink:href="#DejaVuSans-73" transform="translate(1684.570312 0.015625)"/>
     <use xlink:href="#DejaVuSans-3a" transform="translate(1736.669922 0.015625)"/>
     <use xlink:href="#DejaVuSans-20" transform="translate(1770.361328 0.015625)"/>
     <use xlink:href="#Cmr10-30" transform="translate(1802.148438 0.015625)"/>
     <use xlink:href="#Cmmi10-3a" transform="translate(1852.148438 0.015625)"/>
     <use xlink:href="#Cmr10-39" transform="translate(1879.833984 0.015625)"/>
    </g>
   </g>
   <g id="text_7">
    <!-- $\eta^\star=\frac{2}{\lambda_{\min}+\lambda_{\max}}$ -->
    <g style="fill: #2ca02c" transform="translate(73.289587 145.756101) scale(0.1 -0.1)">
     <defs>
      <path id="Cmr10-32" d="M 319 0 
L 319 172 
Q 319 188 331 206 
L 1325 1306 
Q 1550 1550 1690 1715 
Q 1831 1881 1968 2097 
Q 2106 2313 2186 2536 
Q 2266 2759 2266 3009 
Q 2266 3272 2169 3511 
Q 2072 3750 1880 3894 
Q 1688 4038 1416 4038 
Q 1138 4038 916 3870 
Q 694 3703 603 3438 
Q 628 3444 672 3444 
Q 816 3444 917 3347 
Q 1019 3250 1019 3097 
Q 1019 2950 917 2848 
Q 816 2747 672 2747 
Q 522 2747 420 2851 
Q 319 2956 319 3097 
Q 319 3338 409 3548 
Q 500 3759 670 3923 
Q 841 4088 1055 4175 
Q 1269 4263 1509 4263 
Q 1875 4263 2190 4108 
Q 2506 3953 2690 3670 
Q 2875 3388 2875 3009 
Q 2875 2731 2753 2481 
Q 2631 2231 2440 2026 
Q 2250 1822 1953 1562 
Q 1656 1303 1563 1216 
L 838 519 
L 1453 519 
Q 1906 519 2211 526 
Q 2516 534 2534 550 
Q 2609 631 2688 1141 
L 2875 1141 
L 2694 0 
L 319 0 
z
" transform="scale(0.015625)"/>
     </defs>
     <use xlink:href="#Cmmi10-b4" transform="translate(0 0.873437)"/>
     <use xlink:href="#STIXGeneral-Regular-22c6" transform="translate(68.203672 39.1375) scale(0.7)"/>
     <use xlink:href="#Cmr10-3d" transform="translate(153.430614 0.873437)"/>
     <use xlink:href="#Cmr10-32" transform="translate(402.674755 38.373438) scale(0.7)"/>
     <use xlink:href="#Cmmi10-b8" transform="translate(248.674755 -41.45) scale(0.7)"/>
     <use xlink:href="#Cmr10-6d" transform="translate(289.485302 -53.354375) scale(0.49)"/>
     <use xlink:href="#Cmr10-69" transform="translate(330.302685 -53.354375) scale(0.49)"/>
     <use xlink:href="#Cmr10-6e" transform="translate(343.868603 -53.354375) scale(0.49)"/>
     <use xlink:href="#Cmr10-2b" transform="translate(387.827372 -41.45) scale(0.7)"/>
     <use xlink:href="#Cmmi10-b8" transform="translate(454.498271 -41.45) scale(0.7)"/>
     <use xlink:href="#Cmr10-6d" transform="translate(495.308817 -53.354375) scale(0.49)"/>
     <use xlink:href="#Cmr10-61" transform="translate(536.1262 -53.354375) scale(0.49)"/>
     <use xlink:href="#Cmr10-78" transform="translate(560.6262 -53.354375) scale(0.49)"/>
     <path d="M 248.674755 13.373437 
L 248.674755 19.623437 
L 590.906259 19.623437 
L 590.906259 13.373437 
L 248.674755 13.373437 
z
"/>
    </g>
   </g>
   <g id="text_8">
    <!-- $\lambda$ -->
    <g transform="translate(394.169174 215.984408) scale(0.11 -0.11)">
     <use xlink:href="#Cmmi10-b8" transform="translate(0 0.609375)"/>
    </g>
   </g>
   <g id="text_9">
    <!-- $|1-\eta\lambda|$ -->
    <g transform="translate(10.520331 31.101987) scale(0.105 -0.105)">
     <use xlink:href="#Cmsy10-6a"/>
     <use xlink:href="#Cmr10-31" transform="translate(27.685547 0)"/>
     <use xlink:href="#Cmsy10-a1" transform="translate(95.244141 0)"/>
     <use xlink:href="#Cmmi10-b4" transform="translate(190.488281 0)"/>
     <use xlink:href="#Cmmi10-b8" transform="translate(240.097656 0)"/>
     <use xlink:href="#Cmsy10-6a" transform="translate(298.398438 0)"/>
    </g>
   </g>
   <g id="line2d_8">
    <defs>
     <path id="m90bf77be86" d="M 0 3.25 
C 0.86191 3.25 1.688635 2.907559 2.298097 2.298097 
C 2.907559 1.688635 3.25 0.86191 3.25 0 
C 3.25 -0.86191 2.907559 -1.688635 2.298097 -2.298097 
C 1.688635 -2.907559 0.86191 -3.25 0 -3.25 
C -0.86191 -3.25 -1.688635 -2.907559 -2.298097 -2.298097 
C -2.907559 -1.688635 -3.25 -0.86191 -3.25 0 
C -3.25 0.86191 -2.907559 1.688635 -2.298097 2.298097 
C -1.688635 2.907559 -0.86191 3.25 0 3.25 
z
" style="stroke: #1f77b4"/>
    </defs>
    <g clip-path="url(#p3b28e980af)">
     <use xlink:href="#m90bf77be86" x="52.024463" y="66.148861" style="fill: #1f77b4; stroke: #1f77b4"/>
    </g>
   </g>
   <g id="line2d_9">
    <g clip-path="url(#p3b28e980af)">
     <use xlink:href="#m90bf77be86" x="350.854215" y="198.783797" style="fill: #1f77b4; stroke: #1f77b4"/>
    </g>
   </g>
   <g id="line2d_10">
    <defs>
     <path id="mc64d829271" d="M 0 3.25 
C 0.86191 3.25 1.688635 2.907559 2.298097 2.298097 
C 2.907559 1.688635 3.25 0.86191 3.25 0 
C 3.25 -0.86191 2.907559 -1.688635 2.298097 -2.298097 
C 1.688635 -2.907559 0.86191 -3.25 0 -3.25 
C -0.86191 -3.25 -1.688635 -2.907559 -2.298097 -2.298097 
C -2.907559 -1.688635 -3.25 -0.86191 -3.25 0 
C -3.25 0.86191 -2.907559 1.688635 -2.298097 2.298097 
C -1.688635 2.907559 -0.86191 3.25 0 3.25 
z
" style="stroke: #2ca02c"/>
    </defs>
    <g clip-path="url(#p3b28e980af)">
     <use xlink:href="#mc64d829271" x="52.024463" y="78.206582" style="fill: #2ca02c; stroke: #2ca02c"/>
    </g>
   </g>
   <g id="line2d_11">
    <g clip-path="url(#p3b28e980af)">
     <use xlink:href="#mc64d829271" x="350.854215" y="78.206582" style="fill: #2ca02c; stroke: #2ca02c"/>
    </g>
   </g>
  </g>
 </g>
 <defs>
  <clipPath id="p3b28e980af">
   <rect x="7.2" y="7.2" width="401.76" height="232.848"/>
  </clipPath>
 </defs>
</svg>
