<?xml version="1.0" encoding="utf-8" standalone="no"?>
<!DOCTYPE svg PUBLIC "-//W3C//DTD SVG 1.1//EN"
  "http://www.w3.org/Graphics/SVG/1.1/DTD/svg11.dtd">
<svg xmlns:xlink="http://www.w3.org/1999/xlink" width="340.361984pt" height="168.75759pt" viewBox="0 0 340.361984 168.75759" xmlns="http://www.w3.org/2000/svg" version="1.1">
 <metadata>
  <rdf:RDF xmlns:dc="http://purl.org/dc/elements/1.1/" xmlns:cc="http://creativecommons.org/ns#" xmlns:rdf="http://www.w3.org/1999/02/22-rdf-syntax-ns#">
   <cc:Work>
    <dc:type rdf:resource="http://purl.org/dc/dcmitype/StillImage"/>
    <dc:format>image/svg+xml</dc:format>
    <dc:creator>
     <cc:Agent>
      <dc:title>Matplotlib v3.10.8, https://matplotlib.org/</dc:title>
     </cc:Agent>
    </dc:creator>
   </cc:Work>
  </rdf:RDF>
 </metadata>
 <defs>
  <style type="text/css">*{stroke-linejoin: round; stroke-linecap: butt}</style>
 </defs>
 <g id="figure_1">
  <g id="patch_1">
   <path d="M 0 168.75759 
L 340.361984 168.75759 
L 340.361984 0 
L 0 0 
z
" style="fill: #ffffff"/>
  </g>
  <g id="axes_1">
   <g id="line2d_1">
    <path d="M 90.026024 112.61494 
L 71.201928 131.439036 
" clip-path="url(#p2301334f1e)" style="fill: none; stroke: #7f7f7f; stroke-width: 1.4; stroke-linecap: square"/>
   </g>
   <g id="line2d_2">
    <path d="M 90.026024 112.61494 
L 108.85012 131.439036 
" clip-path="url(#p2301334f1e)" style="fill: none; stroke: #7f7f7f; stroke-width: 1.4; stroke-linecap: square"/>
   </g>
   <g id="line2d_3">
    <path d="M 61.78988 74.966747 
L 33.553735 131.439036 
" clip-path="url(#p2301334f1e)" style="fill: none; stroke: #7f7f7f; stroke-width: 1.4; stroke-linecap: square"/>
   </g>
   <g id="line2d_4">
    <path d="M 61.78988 74.966747 
L 90.026024 93.790843 
" clip-path="url(#p2301334f1e)" style="fill: none; stroke: #7f7f7f; stroke-width: 1.4; stroke-linecap: square"/>
   </g>
   <g id="line2d_5">
    <path d="M 104.144096 37.318554 
L 61.78988 56.142651 
" clip-path="url(#p2301334f1e)" style="fill: none; stroke: #7f7f7f; stroke-width: 1.4; stroke-linecap: square"/>
   </g>
   <g id="line2d_6">
    <path d="M 104.144096 37.318554 
L 146.498313 131.439036 
" clip-path="url(#p2301334f1e)" style="fill: none; stroke: #7f7f7f; stroke-width: 1.4; stroke-linecap: square"/>
   </g>
   <g id="patch_2">
    <path d="M 20.000386 150.263133 
L 47.107084 150.263133 
L 47.107084 131.439036 
L 20.000386 131.439036 
z
" clip-path="url(#p2301334f1e)" style="fill: #dbe9f6; stroke: #000000; stroke-width: 1.1; stroke-linejoin: miter"/>
   </g>
   <g id="patch_3">
    <path d="M 57.648578 150.263133 
L 84.755277 150.263133 
L 84.755277 131.439036 
L 57.648578 131.439036 
z
" clip-path="url(#p2301334f1e)" style="fill: #dbe9f6; stroke: #000000; stroke-width: 1.1; stroke-linejoin: miter"/>
   </g>
   <g id="patch_4">
    <path d="M 95.296771 150.263133 
L 122.40347 150.263133 
L 122.40347 131.439036 
L 95.296771 131.439036 
z
" clip-path="url(#p2301334f1e)" style="fill: #dbe9f6; stroke: #000000; stroke-width: 1.1; stroke-linejoin: miter"/>
   </g>
   <g id="patch_5">
    <path d="M 132.944964 150.263133 
L 160.051663 150.263133 
L 160.051663 131.439036 
L 132.944964 131.439036 
z
" clip-path="url(#p2301334f1e)" style="fill: #dbe9f6; stroke: #000000; stroke-width: 1.1; stroke-linejoin: miter"/>
   </g>
   <g id="patch_6">
    <path d="M 76.472675 112.61494 
L 103.579373 112.61494 
L 103.579373 93.790843 
L 76.472675 93.790843 
z
" clip-path="url(#p2301334f1e)" style="fill: #fde3c8; stroke: #000000; stroke-width: 1.1; stroke-linejoin: miter"/>
   </g>
   <g id="patch_7">
    <path d="M 43.718747 74.966747 
L 79.861012 74.966747 
L 79.861012 56.142651 
L 43.718747 56.142651 
z
" clip-path="url(#p2301334f1e)" style="fill: #fde3c8; stroke: #000000; stroke-width: 1.1; stroke-linejoin: miter"/>
   </g>
   <g id="patch_8">
    <path d="M 81.555181 37.318554 
L 126.733012 37.318554 
L 126.733012 18.494458 
L 81.555181 18.494458 
z
" clip-path="url(#p2301334f1e)" style="fill: #fde3c8; stroke: #000000; stroke-width: 1.1; stroke-linejoin: miter"/>
   </g>
   <g id="text_1">
    <!-- merge rank -->
    <g transform="translate(206.735422 31.493694) scale(0.13 -0.13)">
     <defs>
      <path id="DejaVuSans-6d" d="M 3328 2828 
Q 3544 3216 3844 3400 
Q 4144 3584 4550 3584 
Q 5097 3584 5394 3201 
Q 5691 2819 5691 2113 
L 5691 0 
L 5113 0 
L 5113 2094 
Q 5113 2597 4934 2840 
Q 4756 3084 4391 3084 
Q 3944 3084 3684 2787 
Q 3425 2491 3425 1978 
L 3425 0 
L 2847 0 
L 2847 2094 
Q 2847 2600 2669 2842 
Q 2491 3084 2119 3084 
Q 1678 3084 1418 2786 
Q 1159 2488 1159 1978 
L 1159 0 
L 581 0 
L 581 3500 
L 1159 3500 
L 1159 2956 
Q 1356 3278 1631 3431 
Q 1906 3584 2284 3584 
Q 2666 3584 2933 3390 
Q 3200 3197 3328 2828 
z
" transform="scale(0.015625)"/>
      <path id="DejaVuSans-65" d="M 3597 1894 
L 3597 1613 
L 953 1613 
Q 991 1019 1311 708 
Q 1631 397 2203 397 
Q 2534 397 2845 478 
Q 3156 559 3463 722 
L 3463 178 
Q 3153 47 2828 -22 
Q 2503 -91 2169 -91 
Q 1331 -91 842 396 
Q 353 884 353 1716 
Q 353 2575 817 3079 
Q 1281 3584 2069 3584 
Q 2775 3584 3186 3129 
Q 3597 2675 3597 1894 
z
M 3022 2063 
Q 3016 2534 2758 2815 
Q 2500 3097 2075 3097 
Q 1594 3097 1305 2825 
Q 1016 2553 972 2059 
L 3022 2063 
z
" transform="scale(0.015625)"/>
      <path id="DejaVuSans-72" d="M 2631 2963 
Q 2534 3019 2420 3045 
Q 2306 3072 2169 3072 
Q 1681 3072 1420 2755 
Q 1159 2438 1159 1844 
L 1159 0 
L 581 0 
L 581 3500 
L 1159 3500 
L 1159 2956 
Q 1341 3275 1631 3429 
Q 1922 3584 2338 3584 
Q 2397 3584 2469 3576 
Q 2541 3569 2628 3553 
L 2631 2963 
z
" transform="scale(0.015625)"/>
      <path id="DejaVuSans-67" d="M 2906 1791 
Q 2906 2416 2648 2759 
Q 2391 3103 1925 3103 
Q 1463 3103 1205 2759 
Q 947 2416 947 1791 
Q 947 1169 1205 825 
Q 1463 481 1925 481 
Q 2391 481 2648 825 
Q 2906 1169 2906 1791 
z
M 3481 434 
Q 3481 -459 3084 -895 
Q 2688 -1331 1869 -1331 
Q 1566 -1331 1297 -1286 
Q 1028 -1241 775 -1147 
L 775 -588 
Q 1028 -725 1275 -790 
Q 1522 -856 1778 -856 
Q 2344 -856 2625 -561 
Q 2906 -266 2906 331 
L 2906 616 
Q 2728 306 2450 153 
Q 2172 0 1784 0 
Q 1141 0 747 490 
Q 353 981 353 1791 
Q 353 2603 747 3093 
Q 1141 3584 1784 3584 
Q 2172 3584 2450 3431 
Q 2728 3278 2906 2969 
L 2906 3500 
L 3481 3500 
L 3481 434 
z
" transform="scale(0.015625)"/>
      <path id="DejaVuSans-20" transform="scale(0.015625)"/>
      <path id="DejaVuSans-61" d="M 2194 1759 
Q 1497 1759 1228 1600 
Q 959 1441 959 1056 
Q 959 750 1161 570 
Q 1363 391 1709 391 
Q 2188 391 2477 730 
Q 2766 1069 2766 1631 
L 2766 1759 
L 2194 1759 
z
M 3341 1997 
L 3341 0 
L 2766 0 
L 2766 531 
Q 2569 213 2275 61 
Q 1981 -91 1556 -91 
Q 1019 -91 701 211 
Q 384 513 384 1019 
Q 384 1609 779 1909 
Q 1175 2209 1959 2209 
L 2766 2209 
L 2766 2266 
Q 2766 2663 2505 2880 
Q 2244 3097 1772 3097 
Q 1472 3097 1187 3025 
Q 903 2953 641 2809 
L 641 3341 
Q 956 3463 1253 3523 
Q 1550 3584 1831 3584 
Q 2591 3584 2966 3190 
Q 3341 2797 3341 1997 
z
" transform="scale(0.015625)"/>
      <path id="DejaVuSans-6e" d="M 3513 2113 
L 3513 0 
L 2938 0 
L 2938 2094 
Q 2938 2591 2744 2837 
Q 2550 3084 2163 3084 
Q 1697 3084 1428 2787 
Q 1159 2491 1159 1978 
L 1159 0 
L 581 0 
L 581 3500 
L 1159 3500 
L 1159 2956 
Q 1366 3272 1645 3428 
Q 1925 3584 2291 3584 
Q 2894 3584 3203 3211 
Q 3513 2838 3513 2113 
z
" transform="scale(0.015625)"/>
      <path id="DejaVuSans-6b" d="M 581 4863 
L 1159 4863 
L 1159 1991 
L 2875 3500 
L 3609 3500 
L 1753 1863 
L 3688 0 
L 2938 0 
L 1159 1709 
L 1159 0 
L 581 0 
L 581 4863 
z
" transform="scale(0.015625)"/>
     </defs>
     <use xlink:href="#DejaVuSans-6d"/>
     <use xlink:href="#DejaVuSans-65" transform="translate(97.412109 0)"/>
     <use xlink:href="#DejaVuSans-72" transform="translate(158.935547 0)"/>
     <use xlink:href="#DejaVuSans-67" transform="translate(198.298828 0)"/>
     <use xlink:href="#DejaVuSans-65" transform="translate(261.775391 0)"/>
     <use xlink:href="#DejaVuSans-20" transform="translate(323.298828 0)"/>
     <use xlink:href="#DejaVuSans-72" transform="translate(355.085938 0)"/>
     <use xlink:href="#DejaVuSans-61" transform="translate(396.199219 0)"/>
     <use xlink:href="#DejaVuSans-6e" transform="translate(457.478516 0)"/>
     <use xlink:href="#DejaVuSans-6b" transform="translate(520.857422 0)"/>
    </g>
   </g>
   <g id="patch_9">
    <path d="M 200.967969 27.906506 
Q 163.814161 27.906506 127.890191 27.906506 
" style="fill: none; stroke: #7f7f7f; stroke-width: 1.1; stroke-linecap: round"/>
    <path d="M 132.290191 30.106506 
L 127.890191 27.906506 
L 132.290191 25.706506 
" style="fill: none; stroke: #7f7f7f; stroke-width: 1.1; stroke-linecap: round"/>
   </g>
   <g id="text_2">
    <!-- new text: -->
    <g transform="translate(206.735422 80.613976) scale(0.13 -0.13)">
     <defs>
      <path id="DejaVuSans-77" d="M 269 3500 
L 844 3500 
L 1563 769 
L 2278 3500 
L 2956 3500 
L 3675 769 
L 4391 3500 
L 4966 3500 
L 4050 0 
L 3372 0 
L 2619 2869 
L 1863 0 
L 1184 0 
L 269 3500 
z
" transform="scale(0.015625)"/>
      <path id="DejaVuSans-74" d="M 1172 4494 
L 1172 3500 
L 2356 3500 
L 2356 3053 
L 1172 3053 
L 1172 1153 
Q 1172 725 1289 603 
Q 1406 481 1766 481 
L 2356 481 
L 2356 0 
L 1766 0 
Q 1100 0 847 248 
Q 594 497 594 1153 
L 594 3053 
L 172 3053 
L 172 3500 
L 594 3500 
L 594 4494 
L 1172 4494 
z
" transform="scale(0.015625)"/>
      <path id="DejaVuSans-78" d="M 3513 3500 
L 2247 1797 
L 3578 0 
L 2900 0 
L 1881 1375 
L 863 0 
L 184 0 
L 1544 1831 
L 300 3500 
L 978 3500 
L 1906 2253 
L 2834 3500 
L 3513 3500 
z
" transform="scale(0.015625)"/>
      <path id="DejaVuSans-3a" d="M 750 794 
L 1409 794 
L 1409 0 
L 750 0 
L 750 794 
z
M 750 3309 
L 1409 3309 
L 1409 2516 
L 750 2516 
L 750 3309 
z
" transform="scale(0.015625)"/>
     </defs>
     <use xlink:href="#DejaVuSans-6e"/>
     <use xlink:href="#DejaVuSans-65" transform="translate(63.378906 0)"/>
     <use xlink:href="#DejaVuSans-77" transform="translate(124.902344 0)"/>
     <use xlink:href="#DejaVuSans-20" transform="translate(206.689453 0)"/>
     <use xlink:href="#DejaVuSans-74" transform="translate(238.476562 0)"/>
     <use xlink:href="#DejaVuSans-65" transform="translate(277.685547 0)"/>
     <use xlink:href="#DejaVuSans-78" transform="translate(337.458984 0)"/>
     <use xlink:href="#DejaVuSans-74" transform="translate(396.638672 0)"/>
     <use xlink:href="#DejaVuSans-3a" transform="translate(435.847656 0)"/>
    </g>
   </g>
   <g id="text_3">
    <!-- hugs → hug | s -->
    <g transform="translate(206.735422 103.202892) scale(0.14 -0.14)">
     <defs>
      <path id="DejaVuSansMono-68" d="M 3284 2169 
L 3284 0 
L 2706 0 
L 2706 2169 
Q 2706 2641 2540 2862 
Q 2375 3084 2022 3084 
Q 1619 3084 1401 2798 
Q 1184 2513 1184 1978 
L 1184 0 
L 609 0 
L 609 4863 
L 1184 4863 
L 1184 2975 
Q 1338 3275 1600 3429 
Q 1863 3584 2222 3584 
Q 2756 3584 3020 3232 
Q 3284 2881 3284 2169 
z
" transform="scale(0.015625)"/>
      <path id="DejaVuSansMono-75" d="M 609 1325 
L 609 3494 
L 1184 3494 
L 1184 1325 
Q 1184 853 1351 631 
Q 1519 409 1869 409 
Q 2275 409 2490 695 
Q 2706 981 2706 1516 
L 2706 3494 
L 3284 3494 
L 3284 0 
L 2706 0 
L 2706 525 
Q 2553 222 2289 65 
Q 2025 -91 1672 -91 
Q 1134 -91 871 261 
Q 609 613 609 1325 
z
" transform="scale(0.015625)"/>
      <path id="DejaVuSansMono-67" d="M 2681 1778 
Q 2681 2425 2470 2761 
Q 2259 3097 1856 3097 
Q 1434 3097 1212 2761 
Q 991 2425 991 1778 
Q 991 1131 1214 792 
Q 1438 453 1863 453 
Q 2259 453 2470 793 
Q 2681 1134 2681 1778 
z
M 3256 225 
Q 3256 -563 2884 -969 
Q 2513 -1375 1791 -1375 
Q 1553 -1375 1293 -1331 
Q 1034 -1288 775 -1203 
L 775 -634 
Q 1081 -778 1331 -847 
Q 1581 -916 1791 -916 
Q 2256 -916 2468 -662 
Q 2681 -409 2681 141 
L 2681 166 
L 2681 556 
Q 2544 263 2306 119 
Q 2069 -25 1728 -25 
Q 1116 -25 750 465 
Q 384 956 384 1778 
Q 384 2603 750 3093 
Q 1116 3584 1728 3584 
Q 2066 3584 2300 3450 
Q 2534 3316 2681 3034 
L 2681 3488 
L 3256 3488 
L 3256 225 
z
" transform="scale(0.015625)"/>
      <path id="DejaVuSansMono-73" d="M 3041 3378 
L 3041 2816 
Q 2794 2959 2544 3031 
Q 2294 3103 2034 3103 
Q 1644 3103 1451 2976 
Q 1259 2850 1259 2591 
Q 1259 2356 1403 2240 
Q 1547 2125 2119 2016 
L 2350 1972 
Q 2778 1891 2998 1647 
Q 3219 1403 3219 1013 
Q 3219 494 2850 201 
Q 2481 -91 1825 -91 
Q 1566 -91 1281 -36 
Q 997 19 666 128 
L 666 722 
Q 988 556 1281 473 
Q 1575 391 1838 391 
Q 2219 391 2428 545 
Q 2638 700 2638 978 
Q 2638 1378 1872 1531 
L 1847 1538 
L 1631 1581 
Q 1134 1678 906 1908 
Q 678 2138 678 2534 
Q 678 3038 1018 3311 
Q 1359 3584 1991 3584 
Q 2272 3584 2531 3532 
Q 2791 3481 3041 3378 
z
" transform="scale(0.015625)"/>
      <path id="DejaVuSansMono-20" transform="scale(0.015625)"/>
      <path id="DejaVuSansMono-2192" d="M 3647 1625 
L 2738 716 
L 2456 997 
L 2956 1497 
L 206 1497 
L 206 2009 
L 2956 2009 
L 2456 2509 
L 2738 2791 
L 3647 1881 
L 3647 1625 
z
" transform="scale(0.015625)"/>
      <path id="DejaVuSansMono-7c" d="M 2194 4891 
L 2194 -1509 
L 1656 -1509 
L 1656 4891 
L 2194 4891 
z
" transform="scale(0.015625)"/>
     </defs>
     <use xlink:href="#DejaVuSansMono-68"/>
     <use xlink:href="#DejaVuSansMono-75" transform="translate(60.205078 0)"/>
     <use xlink:href="#DejaVuSansMono-67" transform="translate(120.410156 0)"/>
     <use xlink:href="#DejaVuSansMono-73" transform="translate(180.615234 0)"/>
     <use xlink:href="#DejaVuSansMono-20" transform="translate(240.820312 0)"/>
     <use xlink:href="#DejaVuSansMono-2192" transform="translate(301.025391 0)"/>
     <use xlink:href="#DejaVuSansMono-20" transform="translate(361.230469 0)"/>
     <use xlink:href="#DejaVuSansMono-68" transform="translate(421.435547 0)"/>
     <use xlink:href="#DejaVuSansMono-75" transform="translate(481.640625 0)"/>
     <use xlink:href="#DejaVuSansMono-67" transform="translate(541.845703 0)"/>
     <use xlink:href="#DejaVuSansMono-20" transform="translate(602.050781 0)"/>
     <use xlink:href="#DejaVuSansMono-7c" transform="translate(662.255859 0)"/>
     <use xlink:href="#DejaVuSansMono-20" transform="translate(722.460938 0)"/>
     <use xlink:href="#DejaVuSansMono-73" transform="translate(782.666016 0)"/>
    </g>
   </g>
   <g id="text_4">
    <!-- bun → b | u | n -->
    <g transform="translate(206.735422 125.791807) scale(0.14 -0.14)">
     <defs>
      <path id="DejaVuSansMono-62" d="M 2869 1747 
Q 2869 2416 2656 2756 
Q 2444 3097 2028 3097 
Q 1609 3097 1393 2755 
Q 1178 2413 1178 1747 
Q 1178 1084 1393 740 
Q 1609 397 2028 397 
Q 2444 397 2656 737 
Q 2869 1078 2869 1747 
z
M 1178 3053 
Q 1316 3309 1558 3446 
Q 1800 3584 2119 3584 
Q 2750 3584 3112 3098 
Q 3475 2613 3475 1759 
Q 3475 894 3111 401 
Q 2747 -91 2113 -91 
Q 1800 -91 1561 45 
Q 1322 181 1178 441 
L 1178 0 
L 603 0 
L 603 4863 
L 1178 4863 
L 1178 3053 
z
" transform="scale(0.015625)"/>
      <path id="DejaVuSansMono-6e" d="M 3284 2169 
L 3284 0 
L 2706 0 
L 2706 2169 
Q 2706 2641 2540 2862 
Q 2375 3084 2022 3084 
Q 1619 3084 1401 2798 
Q 1184 2513 1184 1978 
L 1184 0 
L 609 0 
L 609 3500 
L 1184 3500 
L 1184 2975 
Q 1338 3275 1600 3429 
Q 1863 3584 2222 3584 
Q 2756 3584 3020 3232 
Q 3284 2881 3284 2169 
z
" transform="scale(0.015625)"/>
     </defs>
     <use xlink:href="#DejaVuSansMono-62"/>
     <use xlink:href="#DejaVuSansMono-75" transform="translate(60.205078 0)"/>
     <use xlink:href="#DejaVuSansMono-6e" transform="translate(120.410156 0)"/>
     <use xlink:href="#DejaVuSansMono-20" transform="translate(180.615234 0)"/>
     <use xlink:href="#DejaVuSansMono-2192" transform="translate(240.820312 0)"/>
     <use xlink:href="#DejaVuSansMono-20" transform="translate(301.025391 0)"/>
     <use xlink:href="#DejaVuSansMono-62" transform="translate(361.230469 0)"/>
     <use xlink:href="#DejaVuSansMono-20" transform="translate(421.435547 0)"/>
     <use xlink:href="#DejaVuSansMono-7c" transform="translate(481.640625 0)"/>
     <use xlink:href="#DejaVuSansMono-20" transform="translate(541.845703 0)"/>
     <use xlink:href="#DejaVuSansMono-75" transform="translate(602.050781 0)"/>
     <use xlink:href="#DejaVuSansMono-20" transform="translate(662.255859 0)"/>
     <use xlink:href="#DejaVuSansMono-7c" transform="translate(722.460938 0)"/>
     <use xlink:href="#DejaVuSansMono-20" transform="translate(782.666016 0)"/>
     <use xlink:href="#DejaVuSansMono-6e" transform="translate(842.871094 0)"/>
    </g>
   </g>
   <g id="text_5">
    <!-- h -->
    <g transform="translate(29.339516 144.751397) scale(0.14 -0.14)">
     <use xlink:href="#DejaVuSansMono-68"/>
    </g>
   </g>
   <g id="text_6">
    <!-- u -->
    <g transform="translate(66.987709 144.751397) scale(0.14 -0.14)">
     <use xlink:href="#DejaVuSansMono-75"/>
    </g>
   </g>
   <g id="text_7">
    <!-- g -->
    <g transform="translate(104.635902 144.655147) scale(0.14 -0.14)">
     <use xlink:href="#DejaVuSansMono-67"/>
    </g>
   </g>
   <g id="text_8">
    <!-- ␣ -->
    <g transform="translate(142.284095 144.477959) scale(0.14 -0.14)">
     <defs>
      <path id="DejaVuSansMono-2423" d="M 469 -1456 
L 469 566 
L 994 566 
L 994 -919 
L 2856 -919 
L 2856 566 
L 3381 566 
L 3381 -1456 
L 469 -1456 
z
" transform="scale(0.015625)"/>
     </defs>
     <use xlink:href="#DejaVuSansMono-2423"/>
    </g>
   </g>
   <g id="text_9">
    <!-- ug -->
    <g transform="translate(81.597587 107.006954) scale(0.14 -0.14)">
     <use xlink:href="#DejaVuSansMono-75"/>
     <use xlink:href="#DejaVuSansMono-67" transform="translate(60.205078 0)"/>
    </g>
   </g>
   <g id="patch_10">
    <path d="M 114.120867 110.356048 
C 116.017907 110.356048 117.837504 109.602346 119.178913 108.260937 
C 120.520322 106.919528 121.274024 105.099931 121.274024 103.202892 
C 121.274024 101.305852 120.520322 99.486255 119.178913 98.144846 
C 117.837504 96.803437 116.017907 96.049735 114.120867 96.049735 
C 112.223828 96.049735 110.404231 96.803437 109.062822 98.144846 
C 107.721413 99.486255 106.967711 101.305852 106.967711 103.202892 
C 106.967711 105.099931 107.721413 106.919528 109.062822 108.260937 
C 110.404231 109.602346 112.223828 110.356048 114.120867 110.356048 
z
" clip-path="url(#p2301334f1e)" style="fill: #ffffff; stroke: #ff7f0e; stroke-width: 1.4; stroke-linejoin: miter"/>
   </g>
   <g id="text_10">
    <!-- hug -->
    <g transform="translate(49.147223 69.369699) scale(0.14 -0.14)">
     <use xlink:href="#DejaVuSansMono-68"/>
     <use xlink:href="#DejaVuSansMono-75" transform="translate(60.205078 0)"/>
     <use xlink:href="#DejaVuSansMono-67" transform="translate(120.410156 0)"/>
    </g>
   </g>
   <g id="patch_11">
    <path d="M 90.402506 72.707855 
C 92.299545 72.707855 94.119142 71.954154 95.460552 70.612744 
C 96.801961 69.271335 97.555663 67.451738 97.555663 65.554699 
C 97.555663 63.657659 96.801961 61.838063 95.460552 60.496653 
C 94.119142 59.155244 92.299545 58.401542 90.402506 58.401542 
C 88.505467 58.401542 86.68587 59.155244 85.34446 60.496653 
C 84.003051 61.838063 83.249349 63.657659 83.249349 65.554699 
C 83.249349 67.451738 84.003051 69.271335 85.34446 70.612744 
C 86.68587 71.954154 88.505467 72.707855 90.402506 72.707855 
z
" clip-path="url(#p2301334f1e)" style="fill: #ffffff; stroke: #ff7f0e; stroke-width: 1.4; stroke-linejoin: miter"/>
   </g>
   <g id="text_11">
    <!-- hug␣ -->
    <g transform="translate(87.287221 31.632912) scale(0.14 -0.14)">
     <use xlink:href="#DejaVuSansMono-68"/>
     <use xlink:href="#DejaVuSansMono-75" transform="translate(60.205078 0)"/>
     <use xlink:href="#DejaVuSansMono-67" transform="translate(120.410156 0)"/>
     <use xlink:href="#DejaVuSansMono-2423" transform="translate(180.615234 0)"/>
    </g>
   </g>
   <g id="patch_12">
    <path d="M 137.274506 35.059663 
C 139.171545 35.059663 140.991142 34.305961 142.332552 32.964552 
C 143.673961 31.623142 144.427663 29.803545 144.427663 27.906506 
C 144.427663 26.009467 143.673961 24.18987 142.332552 22.84846 
C 140.991142 21.507051 139.171545 20.753349 137.274506 20.753349 
C 135.377467 20.753349 133.55787 21.507051 132.21646 22.84846 
C 130.875051 24.18987 130.121349 26.009467 130.121349 27.906506 
C 130.121349 29.803545 130.875051 31.623142 132.21646 32.964552 
C 133.55787 34.305961 135.377467 35.059663 137.274506 35.059663 
z
" clip-path="url(#p2301334f1e)" style="fill: #ffffff; stroke: #ff7f0e; stroke-width: 1.4; stroke-linejoin: miter"/>
   </g>
   <g id="text_12">
    <!-- 1 -->
    <g transform="translate(110.303367 106.514142) scale(0.12 -0.12)">
     <defs>
      <path id="DejaVuSans-31" d="M 794 531 
L 1825 531 
L 1825 4091 
L 703 3866 
L 703 4441 
L 1819 4666 
L 2450 4666 
L 2450 531 
L 3481 531 
L 3481 0 
L 794 0 
L 794 531 
z
" transform="scale(0.015625)"/>
     </defs>
     <use xlink:href="#DejaVuSans-31"/>
    </g>
   </g>
   <g id="text_13">
    <!-- 2 -->
    <g transform="translate(86.585006 68.865949) scale(0.12 -0.12)">
     <defs>
      <path id="DejaVuSans-32" d="M 1228 531 
L 3431 531 
L 3431 0 
L 469 0 
L 469 531 
Q 828 903 1448 1529 
Q 2069 2156 2228 2338 
Q 2531 2678 2651 2914 
Q 2772 3150 2772 3378 
Q 2772 3750 2511 3984 
Q 2250 4219 1831 4219 
Q 1534 4219 1204 4116 
Q 875 4013 500 3803 
L 500 4441 
Q 881 4594 1212 4672 
Q 1544 4750 1819 4750 
Q 2544 4750 2975 4387 
Q 3406 4025 3406 3419 
Q 3406 3131 3298 2873 
Q 3191 2616 2906 2266 
Q 2828 2175 2409 1742 
Q 1991 1309 1228 531 
z
" transform="scale(0.015625)"/>
     </defs>
     <use xlink:href="#DejaVuSans-32"/>
    </g>
   </g>
   <g id="text_14">
    <!-- 3 -->
    <g transform="translate(133.457006 31.217756) scale(0.12 -0.12)">
     <defs>
      <path id="DejaVuSans-33" d="M 2597 2516 
Q 3050 2419 3304 2112 
Q 3559 1806 3559 1356 
Q 3559 666 3084 287 
Q 2609 -91 1734 -91 
Q 1441 -91 1130 -33 
Q 819 25 488 141 
L 488 750 
Q 750 597 1062 519 
Q 1375 441 1716 441 
Q 2309 441 2620 675 
Q 2931 909 2931 1356 
Q 2931 1769 2642 2001 
Q 2353 2234 1838 2234 
L 1294 2234 
L 1294 2753 
L 1863 2753 
Q 2328 2753 2575 2939 
Q 2822 3125 2822 3475 
Q 2822 3834 2567 4026 
Q 2313 4219 1838 4219 
Q 1578 4219 1281 4162 
Q 984 4106 628 3988 
L 628 4550 
Q 988 4650 1302 4700 
Q 1616 4750 1894 4750 
Q 2613 4750 3031 4423 
Q 3450 4097 3450 3541 
Q 3450 3153 3228 2886 
Q 3006 2619 2597 2516 
z
" transform="scale(0.015625)"/>
     </defs>
     <use xlink:href="#DejaVuSans-33"/>
    </g>
   </g>
  </g>
 </g>
 <defs>
  <clipPath id="p2301334f1e">
   <rect x="7.2" y="7.2" width="312.48" height="154.35759"/>
  </clipPath>
 </defs>
</svg>
