<?xml version="1.0" encoding="utf-8" standalone="no"?>
<!DOCTYPE svg PUBLIC "-//W3C//DTD SVG 1.1//EN"
  "http://www.w3.org/Graphics/SVG/1.1/DTD/svg11.dtd">
<svg xmlns:xlink="http://www.w3.org/1999/xlink" width="558.725487pt" height="286.056pt" viewBox="0 0 558.725487 286.056" xmlns="http://www.w3.org/2000/svg" version="1.1">
 <metadata>
  <rdf:RDF xmlns:dc="http://purl.org/dc/elements/1.1/" xmlns:cc="http://creativecommons.org/ns#" xmlns:rdf="http://www.w3.org/1999/02/22-rdf-syntax-ns#">
   <cc:Work>
    <dc:type rdf:resource="http://purl.org/dc/dcmitype/StillImage"/>
    <dc:format>image/svg+xml</dc:format>
    <dc:creator>
     <cc:Agent>
      <dc:title>Matplotlib v3.10.8, https://matplotlib.org/</dc:title>
     </cc:Agent>
    </dc:creator>
   </cc:Work>
  </rdf:RDF>
 </metadata>
 <defs>
  <style type="text/css">*{stroke-linejoin: round; stroke-linecap: butt}</style>
 </defs>
 <g id="figure_1">
  <g id="patch_1">
   <path d="M 0 286.056 
L 558.725487 286.056 
L 558.725487 0 
L 0 0 
z
" style="fill: #ffffff"/>
  </g>
  <g id="axes_1">
   <g id="patch_2">
    <path d="M 303.022815 267.98976 
L 317.327906 267.98976 
L 317.327906 257.12352 
L 303.022815 257.12352 
z
" clip-path="url(#pc74b0328d6)" style="fill: #7f7f7f"/>
   </g>
   <g id="patch_3">
    <path d="M 374.071434 267.98976 
L 388.376524 267.98976 
L 388.376524 257.12352 
L 374.071434 257.12352 
z
" clip-path="url(#pc74b0328d6)" style="fill: #ff7f0e"/>
   </g>
   <g id="patch_4">
    <path d="M 475.637579 267.98976 
L 489.94267 267.98976 
L 489.94267 257.12352 
L 475.637579 257.12352 
z
" clip-path="url(#pc74b0328d6)" style="fill: #1f77b4"/>
   </g>
   <g id="line2d_1">
    <path d="M 198.595652 135.421632 
L 198.595652 36.17664 
" clip-path="url(#pc74b0328d6)" style="fill: none; stroke-dasharray: 3.7,1.6; stroke-dashoffset: 0; stroke: #000000"/>
   </g>
   <g id="text_1">
    <!-- fp32 -->
    <g transform="translate(50.792344 59.823236) scale(0.135 -0.135)">
     <defs>
      <path id="DejaVuSans-66" d="M 2375 4863 
L 2375 4384 
L 1825 4384 
Q 1516 4384 1395 4259 
Q 1275 4134 1275 3809 
L 1275 3500 
L 2222 3500 
L 2222 3053 
L 1275 3053 
L 1275 0 
L 697 0 
L 697 3053 
L 147 3053 
L 147 3500 
L 697 3500 
L 697 3744 
Q 697 4328 969 4595 
Q 1241 4863 1831 4863 
L 2375 4863 
z
" transform="scale(0.015625)"/>
      <path id="DejaVuSans-70" d="M 1159 525 
L 1159 -1331 
L 581 -1331 
L 581 3500 
L 1159 3500 
L 1159 2969 
Q 1341 3281 1617 3432 
Q 1894 3584 2278 3584 
Q 2916 3584 3314 3078 
Q 3713 2572 3713 1747 
Q 3713 922 3314 415 
Q 2916 -91 2278 -91 
Q 1894 -91 1617 61 
Q 1341 213 1159 525 
z
M 3116 1747 
Q 3116 2381 2855 2742 
Q 2594 3103 2138 3103 
Q 1681 3103 1420 2742 
Q 1159 2381 1159 1747 
Q 1159 1113 1420 752 
Q 1681 391 2138 391 
Q 2594 391 2855 752 
Q 3116 1113 3116 1747 
z
" transform="scale(0.015625)"/>
      <path id="DejaVuSans-33" d="M 2597 2516 
Q 3050 2419 3304 2112 
Q 3559 1806 3559 1356 
Q 3559 666 3084 287 
Q 2609 -91 1734 -91 
Q 1441 -91 1130 -33 
Q 819 25 488 141 
L 488 750 
Q 750 597 1062 519 
Q 1375 441 1716 441 
Q 2309 441 2620 675 
Q 2931 909 2931 1356 
Q 2931 1769 2642 2001 
Q 2353 2234 1838 2234 
L 1294 2234 
L 1294 2753 
L 1863 2753 
Q 2328 2753 2575 2939 
Q 2822 3125 2822 3475 
Q 2822 3834 2567 4026 
Q 2313 4219 1838 4219 
Q 1578 4219 1281 4162 
Q 984 4106 628 3988 
L 628 4550 
Q 988 4650 1302 4700 
Q 1616 4750 1894 4750 
Q 2613 4750 3031 4423 
Q 3450 4097 3450 3541 
Q 3450 3153 3228 2886 
Q 3006 2619 2597 2516 
z
" transform="scale(0.015625)"/>
      <path id="DejaVuSans-32" d="M 1228 531 
L 3431 531 
L 3431 0 
L 469 0 
L 469 531 
Q 828 903 1448 1529 
Q 2069 2156 2228 2338 
Q 2531 2678 2651 2914 
Q 2772 3150 2772 3378 
Q 2772 3750 2511 3984 
Q 2250 4219 1831 4219 
Q 1534 4219 1204 4116 
Q 875 4013 500 3803 
L 500 4441 
Q 881 4594 1212 4672 
Q 1544 4750 1819 4750 
Q 2544 4750 2975 4387 
Q 3406 4025 3406 3419 
Q 3406 3131 3298 2873 
Q 3191 2616 2906 2266 
Q 2828 2175 2409 1742 
Q 1991 1309 1228 531 
z
" transform="scale(0.015625)"/>
     </defs>
     <use xlink:href="#DejaVuSans-66"/>
     <use xlink:href="#DejaVuSans-70" transform="translate(35.205078 0)"/>
     <use xlink:href="#DejaVuSans-33" transform="translate(98.681641 0)"/>
     <use xlink:href="#DejaVuSans-32" transform="translate(162.304688 0)"/>
    </g>
   </g>
   <g id="patch_5">
    <path d="M 93.214815 65.515488 
L 103.743362 65.515488 
L 103.743362 46.680672 
L 93.214815 46.680672 
z
" clip-path="url(#pc74b0328d6)" style="fill: #7f7f7f; stroke: #ffffff; stroke-width: 0.6; stroke-linejoin: miter"/>
   </g>
   <g id="patch_6">
    <path d="M 104.658888 65.515488 
L 115.187435 65.515488 
L 115.187435 46.680672 
L 104.658888 46.680672 
z
" clip-path="url(#pc74b0328d6)" style="fill: #ff7f0e; stroke: #ffffff; stroke-width: 0.6; stroke-linejoin: miter"/>
   </g>
   <g id="patch_7">
    <path d="M 116.102961 65.515488 
L 126.631508 65.515488 
L 126.631508 46.680672 
L 116.102961 46.680672 
z
" clip-path="url(#pc74b0328d6)" style="fill: #ff7f0e; stroke: #ffffff; stroke-width: 0.6; stroke-linejoin: miter"/>
   </g>
   <g id="patch_8">
    <path d="M 127.547034 65.515488 
L 138.07558 65.515488 
L 138.07558 46.680672 
L 127.547034 46.680672 
z
" clip-path="url(#pc74b0328d6)" style="fill: #ff7f0e; stroke: #ffffff; stroke-width: 0.6; stroke-linejoin: miter"/>
   </g>
   <g id="patch_9">
    <path d="M 138.991106 65.515488 
L 149.519653 65.515488 
L 149.519653 46.680672 
L 138.991106 46.680672 
z
" clip-path="url(#pc74b0328d6)" style="fill: #ff7f0e; stroke: #ffffff; stroke-width: 0.6; stroke-linejoin: miter"/>
   </g>
   <g id="patch_10">
    <path d="M 150.435179 65.515488 
L 160.963726 65.515488 
L 160.963726 46.680672 
L 150.435179 46.680672 
z
" clip-path="url(#pc74b0328d6)" style="fill: #ff7f0e; stroke: #ffffff; stroke-width: 0.6; stroke-linejoin: miter"/>
   </g>
   <g id="patch_11">
    <path d="M 161.879252 65.515488 
L 172.407799 65.515488 
L 172.407799 46.680672 
L 161.879252 46.680672 
z
" clip-path="url(#pc74b0328d6)" style="fill: #ff7f0e; stroke: #ffffff; stroke-width: 0.6; stroke-linejoin: miter"/>
   </g>
   <g id="patch_12">
    <path d="M 173.323324 65.515488 
L 183.851871 65.515488 
L 183.851871 46.680672 
L 173.323324 46.680672 
z
" clip-path="url(#pc74b0328d6)" style="fill: #ff7f0e; stroke: #ffffff; stroke-width: 0.6; stroke-linejoin: miter"/>
   </g>
   <g id="patch_13">
    <path d="M 184.767397 65.515488 
L 195.295944 65.515488 
L 195.295944 46.680672 
L 184.767397 46.680672 
z
" clip-path="url(#pc74b0328d6)" style="fill: #ff7f0e; stroke: #ffffff; stroke-width: 0.6; stroke-linejoin: miter"/>
   </g>
   <g id="patch_14">
    <path d="M 196.21147 65.515488 
L 206.740017 65.515488 
L 206.740017 46.680672 
L 196.21147 46.680672 
z
" clip-path="url(#pc74b0328d6)" style="fill: #1f77b4; stroke: #ffffff; stroke-width: 0.6; stroke-linejoin: miter"/>
   </g>
   <g id="patch_15">
    <path d="M 207.655543 65.515488 
L 218.18409 65.515488 
L 218.18409 46.680672 
L 207.655543 46.680672 
z
" clip-path="url(#pc74b0328d6)" style="fill: #1f77b4; stroke: #ffffff; stroke-width: 0.6; stroke-linejoin: miter"/>
   </g>
   <g id="patch_16">
    <path d="M 219.099615 65.515488 
L 229.628162 65.515488 
L 229.628162 46.680672 
L 219.099615 46.680672 
z
" clip-path="url(#pc74b0328d6)" style="fill: #1f77b4; stroke: #ffffff; stroke-width: 0.6; stroke-linejoin: miter"/>
   </g>
   <g id="patch_17">
    <path d="M 230.543688 65.515488 
L 241.072235 65.515488 
L 241.072235 46.680672 
L 230.543688 46.680672 
z
" clip-path="url(#pc74b0328d6)" style="fill: #1f77b4; stroke: #ffffff; stroke-width: 0.6; stroke-linejoin: miter"/>
   </g>
   <g id="patch_18">
    <path d="M 241.987761 65.515488 
L 252.516308 65.515488 
L 252.516308 46.680672 
L 241.987761 46.680672 
z
" clip-path="url(#pc74b0328d6)" style="fill: #1f77b4; stroke: #ffffff; stroke-width: 0.6; stroke-linejoin: miter"/>
   </g>
   <g id="patch_19">
    <path d="M 253.431834 65.515488 
L 263.96038 65.515488 
L 263.96038 46.680672 
L 253.431834 46.680672 
z
" clip-path="url(#pc74b0328d6)" style="fill: #1f77b4; stroke: #ffffff; stroke-width: 0.6; stroke-linejoin: miter"/>
   </g>
   <g id="patch_20">
    <path d="M 264.875906 65.515488 
L 275.404453 65.515488 
L 275.404453 46.680672 
L 264.875906 46.680672 
z
" clip-path="url(#pc74b0328d6)" style="fill: #1f77b4; stroke: #ffffff; stroke-width: 0.6; stroke-linejoin: miter"/>
   </g>
   <g id="patch_21">
    <path d="M 276.319979 65.515488 
L 286.848526 65.515488 
L 286.848526 46.680672 
L 276.319979 46.680672 
z
" clip-path="url(#pc74b0328d6)" style="fill: #1f77b4; stroke: #ffffff; stroke-width: 0.6; stroke-linejoin: miter"/>
   </g>
   <g id="patch_22">
    <path d="M 287.764052 65.515488 
L 298.292599 65.515488 
L 298.292599 46.680672 
L 287.764052 46.680672 
z
" clip-path="url(#pc74b0328d6)" style="fill: #1f77b4; stroke: #ffffff; stroke-width: 0.6; stroke-linejoin: miter"/>
   </g>
   <g id="patch_23">
    <path d="M 299.208124 65.515488 
L 309.736671 65.515488 
L 309.736671 46.680672 
L 299.208124 46.680672 
z
" clip-path="url(#pc74b0328d6)" style="fill: #1f77b4; stroke: #ffffff; stroke-width: 0.6; stroke-linejoin: miter"/>
   </g>
   <g id="patch_24">
    <path d="M 310.652197 65.515488 
L 321.180744 65.515488 
L 321.180744 46.680672 
L 310.652197 46.680672 
z
" clip-path="url(#pc74b0328d6)" style="fill: #1f77b4; stroke: #ffffff; stroke-width: 0.6; stroke-linejoin: miter"/>
   </g>
   <g id="patch_25">
    <path d="M 322.09627 65.515488 
L 332.624817 65.515488 
L 332.624817 46.680672 
L 322.09627 46.680672 
z
" clip-path="url(#pc74b0328d6)" style="fill: #1f77b4; stroke: #ffffff; stroke-width: 0.6; stroke-linejoin: miter"/>
   </g>
   <g id="patch_26">
    <path d="M 333.540343 65.515488 
L 344.06889 65.515488 
L 344.06889 46.680672 
L 333.540343 46.680672 
z
" clip-path="url(#pc74b0328d6)" style="fill: #1f77b4; stroke: #ffffff; stroke-width: 0.6; stroke-linejoin: miter"/>
   </g>
   <g id="patch_27">
    <path d="M 344.984415 65.515488 
L 355.512962 65.515488 
L 355.512962 46.680672 
L 344.984415 46.680672 
z
" clip-path="url(#pc74b0328d6)" style="fill: #1f77b4; stroke: #ffffff; stroke-width: 0.6; stroke-linejoin: miter"/>
   </g>
   <g id="patch_28">
    <path d="M 356.428488 65.515488 
L 366.957035 65.515488 
L 366.957035 46.680672 
L 356.428488 46.680672 
z
" clip-path="url(#pc74b0328d6)" style="fill: #1f77b4; stroke: #ffffff; stroke-width: 0.6; stroke-linejoin: miter"/>
   </g>
   <g id="patch_29">
    <path d="M 367.872561 65.515488 
L 378.401108 65.515488 
L 378.401108 46.680672 
L 367.872561 46.680672 
z
" clip-path="url(#pc74b0328d6)" style="fill: #1f77b4; stroke: #ffffff; stroke-width: 0.6; stroke-linejoin: miter"/>
   </g>
   <g id="patch_30">
    <path d="M 379.316634 65.515488 
L 389.84518 65.515488 
L 389.84518 46.680672 
L 379.316634 46.680672 
z
" clip-path="url(#pc74b0328d6)" style="fill: #1f77b4; stroke: #ffffff; stroke-width: 0.6; stroke-linejoin: miter"/>
   </g>
   <g id="patch_31">
    <path d="M 390.760706 65.515488 
L 401.289253 65.515488 
L 401.289253 46.680672 
L 390.760706 46.680672 
z
" clip-path="url(#pc74b0328d6)" style="fill: #1f77b4; stroke: #ffffff; stroke-width: 0.6; stroke-linejoin: miter"/>
   </g>
   <g id="patch_32">
    <path d="M 402.204779 65.515488 
L 412.733326 65.515488 
L 412.733326 46.680672 
L 402.204779 46.680672 
z
" clip-path="url(#pc74b0328d6)" style="fill: #1f77b4; stroke: #ffffff; stroke-width: 0.6; stroke-linejoin: miter"/>
   </g>
   <g id="patch_33">
    <path d="M 413.648852 65.515488 
L 424.177399 65.515488 
L 424.177399 46.680672 
L 413.648852 46.680672 
z
" clip-path="url(#pc74b0328d6)" style="fill: #1f77b4; stroke: #ffffff; stroke-width: 0.6; stroke-linejoin: miter"/>
   </g>
   <g id="patch_34">
    <path d="M 425.092924 65.515488 
L 435.621471 65.515488 
L 435.621471 46.680672 
L 425.092924 46.680672 
z
" clip-path="url(#pc74b0328d6)" style="fill: #1f77b4; stroke: #ffffff; stroke-width: 0.6; stroke-linejoin: miter"/>
   </g>
   <g id="patch_35">
    <path d="M 436.536997 65.515488 
L 447.065544 65.515488 
L 447.065544 46.680672 
L 436.536997 46.680672 
z
" clip-path="url(#pc74b0328d6)" style="fill: #1f77b4; stroke: #ffffff; stroke-width: 0.6; stroke-linejoin: miter"/>
   </g>
   <g id="patch_36">
    <path d="M 447.98107 65.515488 
L 458.509617 65.515488 
L 458.509617 46.680672 
L 447.98107 46.680672 
z
" clip-path="url(#pc74b0328d6)" style="fill: #1f77b4; stroke: #ffffff; stroke-width: 0.6; stroke-linejoin: miter"/>
   </g>
   <g id="text_2">
    <!-- 4 B -->
    <g transform="translate(465.147179 59.40933) scale(0.12 -0.12)">
     <defs>
      <path id="DejaVuSans-34" d="M 2419 4116 
L 825 1625 
L 2419 1625 
L 2419 4116 
z
M 2253 4666 
L 3047 4666 
L 3047 1625 
L 3713 1625 
L 3713 1100 
L 3047 1100 
L 3047 0 
L 2419 0 
L 2419 1100 
L 313 1100 
L 313 1709 
L 2253 4666 
z
" transform="scale(0.015625)"/>
      <path id="DejaVuSans-20" transform="scale(0.015625)"/>
      <path id="DejaVuSans-42" d="M 1259 2228 
L 1259 519 
L 2272 519 
Q 2781 519 3026 730 
Q 3272 941 3272 1375 
Q 3272 1813 3026 2020 
Q 2781 2228 2272 2228 
L 1259 2228 
z
M 1259 4147 
L 1259 2741 
L 2194 2741 
Q 2656 2741 2882 2914 
Q 3109 3088 3109 3444 
Q 3109 3797 2882 3972 
Q 2656 4147 2194 4147 
L 1259 4147 
z
M 628 4666 
L 2241 4666 
Q 2963 4666 3353 4366 
Q 3744 4066 3744 3513 
Q 3744 3084 3544 2831 
Q 3344 2578 2956 2516 
Q 3422 2416 3680 2098 
Q 3938 1781 3938 1306 
Q 3938 681 3513 340 
Q 3088 0 2303 0 
L 628 0 
L 628 4666 
z
" transform="scale(0.015625)"/>
     </defs>
     <use xlink:href="#DejaVuSans-34"/>
     <use xlink:href="#DejaVuSans-20" transform="translate(63.623047 0)"/>
     <use xlink:href="#DejaVuSans-42" transform="translate(95.410156 0)"/>
    </g>
   </g>
   <g id="text_3">
    <!-- tf32 -->
    <g transform="translate(54.070312 93.146372) scale(0.135 -0.135)">
     <defs>
      <path id="DejaVuSans-74" d="M 1172 4494 
L 1172 3500 
L 2356 3500 
L 2356 3053 
L 1172 3053 
L 1172 1153 
Q 1172 725 1289 603 
Q 1406 481 1766 481 
L 2356 481 
L 2356 0 
L 1766 0 
Q 1100 0 847 248 
Q 594 497 594 1153 
L 594 3053 
L 172 3053 
L 172 3500 
L 594 3500 
L 594 4494 
L 1172 4494 
z
" transform="scale(0.015625)"/>
     </defs>
     <use xlink:href="#DejaVuSans-74"/>
     <use xlink:href="#DejaVuSans-66" transform="translate(39.208984 0)"/>
     <use xlink:href="#DejaVuSans-33" transform="translate(74.414062 0)"/>
     <use xlink:href="#DejaVuSans-32" transform="translate(138.037109 0)"/>
    </g>
   </g>
   <g id="patch_37">
    <path d="M 93.214815 98.838624 
L 103.743362 98.838624 
L 103.743362 80.003808 
L 93.214815 80.003808 
z
" clip-path="url(#pc74b0328d6)" style="fill: #7f7f7f; stroke: #ffffff; stroke-width: 0.6; stroke-linejoin: miter"/>
   </g>
   <g id="patch_38">
    <path d="M 104.658888 98.838624 
L 115.187435 98.838624 
L 115.187435 80.003808 
L 104.658888 80.003808 
z
" clip-path="url(#pc74b0328d6)" style="fill: #ff7f0e; stroke: #ffffff; stroke-width: 0.6; stroke-linejoin: miter"/>
   </g>
   <g id="patch_39">
    <path d="M 116.102961 98.838624 
L 126.631508 98.838624 
L 126.631508 80.003808 
L 116.102961 80.003808 
z
" clip-path="url(#pc74b0328d6)" style="fill: #ff7f0e; stroke: #ffffff; stroke-width: 0.6; stroke-linejoin: miter"/>
   </g>
   <g id="patch_40">
    <path d="M 127.547034 98.838624 
L 138.07558 98.838624 
L 138.07558 80.003808 
L 127.547034 80.003808 
z
" clip-path="url(#pc74b0328d6)" style="fill: #ff7f0e; stroke: #ffffff; stroke-width: 0.6; stroke-linejoin: miter"/>
   </g>
   <g id="patch_41">
    <path d="M 138.991106 98.838624 
L 149.519653 98.838624 
L 149.519653 80.003808 
L 138.991106 80.003808 
z
" clip-path="url(#pc74b0328d6)" style="fill: #ff7f0e; stroke: #ffffff; stroke-width: 0.6; stroke-linejoin: miter"/>
   </g>
   <g id="patch_42">
    <path d="M 150.435179 98.838624 
L 160.963726 98.838624 
L 160.963726 80.003808 
L 150.435179 80.003808 
z
" clip-path="url(#pc74b0328d6)" style="fill: #ff7f0e; stroke: #ffffff; stroke-width: 0.6; stroke-linejoin: miter"/>
   </g>
   <g id="patch_43">
    <path d="M 161.879252 98.838624 
L 172.407799 98.838624 
L 172.407799 80.003808 
L 161.879252 80.003808 
z
" clip-path="url(#pc74b0328d6)" style="fill: #ff7f0e; stroke: #ffffff; stroke-width: 0.6; stroke-linejoin: miter"/>
   </g>
   <g id="patch_44">
    <path d="M 173.323324 98.838624 
L 183.851871 98.838624 
L 183.851871 80.003808 
L 173.323324 80.003808 
z
" clip-path="url(#pc74b0328d6)" style="fill: #ff7f0e; stroke: #ffffff; stroke-width: 0.6; stroke-linejoin: miter"/>
   </g>
   <g id="patch_45">
    <path d="M 184.767397 98.838624 
L 195.295944 98.838624 
L 195.295944 80.003808 
L 184.767397 80.003808 
z
" clip-path="url(#pc74b0328d6)" style="fill: #ff7f0e; stroke: #ffffff; stroke-width: 0.6; stroke-linejoin: miter"/>
   </g>
   <g id="patch_46">
    <path d="M 196.21147 98.838624 
L 206.740017 98.838624 
L 206.740017 80.003808 
L 196.21147 80.003808 
z
" clip-path="url(#pc74b0328d6)" style="fill: #1f77b4; stroke: #ffffff; stroke-width: 0.6; stroke-linejoin: miter"/>
   </g>
   <g id="patch_47">
    <path d="M 207.655543 98.838624 
L 218.18409 98.838624 
L 218.18409 80.003808 
L 207.655543 80.003808 
z
" clip-path="url(#pc74b0328d6)" style="fill: #1f77b4; stroke: #ffffff; stroke-width: 0.6; stroke-linejoin: miter"/>
   </g>
   <g id="patch_48">
    <path d="M 219.099615 98.838624 
L 229.628162 98.838624 
L 229.628162 80.003808 
L 219.099615 80.003808 
z
" clip-path="url(#pc74b0328d6)" style="fill: #1f77b4; stroke: #ffffff; stroke-width: 0.6; stroke-linejoin: miter"/>
   </g>
   <g id="patch_49">
    <path d="M 230.543688 98.838624 
L 241.072235 98.838624 
L 241.072235 80.003808 
L 230.543688 80.003808 
z
" clip-path="url(#pc74b0328d6)" style="fill: #1f77b4; stroke: #ffffff; stroke-width: 0.6; stroke-linejoin: miter"/>
   </g>
   <g id="patch_50">
    <path d="M 241.987761 98.838624 
L 252.516308 98.838624 
L 252.516308 80.003808 
L 241.987761 80.003808 
z
" clip-path="url(#pc74b0328d6)" style="fill: #1f77b4; stroke: #ffffff; stroke-width: 0.6; stroke-linejoin: miter"/>
   </g>
   <g id="patch_51">
    <path d="M 253.431834 98.838624 
L 263.96038 98.838624 
L 263.96038 80.003808 
L 253.431834 80.003808 
z
" clip-path="url(#pc74b0328d6)" style="fill: #1f77b4; stroke: #ffffff; stroke-width: 0.6; stroke-linejoin: miter"/>
   </g>
   <g id="patch_52">
    <path d="M 264.875906 98.838624 
L 275.404453 98.838624 
L 275.404453 80.003808 
L 264.875906 80.003808 
z
" clip-path="url(#pc74b0328d6)" style="fill: #1f77b4; stroke: #ffffff; stroke-width: 0.6; stroke-linejoin: miter"/>
   </g>
   <g id="patch_53">
    <path d="M 276.319979 98.838624 
L 286.848526 98.838624 
L 286.848526 80.003808 
L 276.319979 80.003808 
z
" clip-path="url(#pc74b0328d6)" style="fill: #1f77b4; stroke: #ffffff; stroke-width: 0.6; stroke-linejoin: miter"/>
   </g>
   <g id="patch_54">
    <path d="M 287.764052 98.838624 
L 298.292599 98.838624 
L 298.292599 80.003808 
L 287.764052 80.003808 
z
" clip-path="url(#pc74b0328d6)" style="fill: #1f77b4; stroke: #ffffff; stroke-width: 0.6; stroke-linejoin: miter"/>
   </g>
   <g id="patch_55">
    <path d="M 299.208124 98.838624 
L 309.736671 98.838624 
L 309.736671 80.003808 
L 299.208124 80.003808 
z
" clip-path="url(#pc74b0328d6)" style="fill: #1f77b4; stroke: #ffffff; stroke-width: 0.6; stroke-linejoin: miter"/>
   </g>
   <g id="text_4">
    <!-- (stored in 32 bits) -->
    <g transform="translate(316.374234 92.732466) scale(0.12 -0.12)">
     <defs>
      <path id="DejaVuSans-28" d="M 1984 4856 
Q 1566 4138 1362 3434 
Q 1159 2731 1159 2009 
Q 1159 1288 1364 580 
Q 1569 -128 1984 -844 
L 1484 -844 
Q 1016 -109 783 600 
Q 550 1309 550 2009 
Q 550 2706 781 3412 
Q 1013 4119 1484 4856 
L 1984 4856 
z
" transform="scale(0.015625)"/>
      <path id="DejaVuSans-73" d="M 2834 3397 
L 2834 2853 
Q 2591 2978 2328 3040 
Q 2066 3103 1784 3103 
Q 1356 3103 1142 2972 
Q 928 2841 928 2578 
Q 928 2378 1081 2264 
Q 1234 2150 1697 2047 
L 1894 2003 
Q 2506 1872 2764 1633 
Q 3022 1394 3022 966 
Q 3022 478 2636 193 
Q 2250 -91 1575 -91 
Q 1294 -91 989 -36 
Q 684 19 347 128 
L 347 722 
Q 666 556 975 473 
Q 1284 391 1588 391 
Q 1994 391 2212 530 
Q 2431 669 2431 922 
Q 2431 1156 2273 1281 
Q 2116 1406 1581 1522 
L 1381 1569 
Q 847 1681 609 1914 
Q 372 2147 372 2553 
Q 372 3047 722 3315 
Q 1072 3584 1716 3584 
Q 2034 3584 2315 3537 
Q 2597 3491 2834 3397 
z
" transform="scale(0.015625)"/>
      <path id="DejaVuSans-6f" d="M 1959 3097 
Q 1497 3097 1228 2736 
Q 959 2375 959 1747 
Q 959 1119 1226 758 
Q 1494 397 1959 397 
Q 2419 397 2687 759 
Q 2956 1122 2956 1747 
Q 2956 2369 2687 2733 
Q 2419 3097 1959 3097 
z
M 1959 3584 
Q 2709 3584 3137 3096 
Q 3566 2609 3566 1747 
Q 3566 888 3137 398 
Q 2709 -91 1959 -91 
Q 1206 -91 779 398 
Q 353 888 353 1747 
Q 353 2609 779 3096 
Q 1206 3584 1959 3584 
z
" transform="scale(0.015625)"/>
      <path id="DejaVuSans-72" d="M 2631 2963 
Q 2534 3019 2420 3045 
Q 2306 3072 2169 3072 
Q 1681 3072 1420 2755 
Q 1159 2438 1159 1844 
L 1159 0 
L 581 0 
L 581 3500 
L 1159 3500 
L 1159 2956 
Q 1341 3275 1631 3429 
Q 1922 3584 2338 3584 
Q 2397 3584 2469 3576 
Q 2541 3569 2628 3553 
L 2631 2963 
z
" transform="scale(0.015625)"/>
      <path id="DejaVuSans-65" d="M 3597 1894 
L 3597 1613 
L 953 1613 
Q 991 1019 1311 708 
Q 1631 397 2203 397 
Q 2534 397 2845 478 
Q 3156 559 3463 722 
L 3463 178 
Q 3153 47 2828 -22 
Q 2503 -91 2169 -91 
Q 1331 -91 842 396 
Q 353 884 353 1716 
Q 353 2575 817 3079 
Q 1281 3584 2069 3584 
Q 2775 3584 3186 3129 
Q 3597 2675 3597 1894 
z
M 3022 2063 
Q 3016 2534 2758 2815 
Q 2500 3097 2075 3097 
Q 1594 3097 1305 2825 
Q 1016 2553 972 2059 
L 3022 2063 
z
" transform="scale(0.015625)"/>
      <path id="DejaVuSans-64" d="M 2906 2969 
L 2906 4863 
L 3481 4863 
L 3481 0 
L 2906 0 
L 2906 525 
Q 2725 213 2448 61 
Q 2172 -91 1784 -91 
Q 1150 -91 751 415 
Q 353 922 353 1747 
Q 353 2572 751 3078 
Q 1150 3584 1784 3584 
Q 2172 3584 2448 3432 
Q 2725 3281 2906 2969 
z
M 947 1747 
Q 947 1113 1208 752 
Q 1469 391 1925 391 
Q 2381 391 2643 752 
Q 2906 1113 2906 1747 
Q 2906 2381 2643 2742 
Q 2381 3103 1925 3103 
Q 1469 3103 1208 2742 
Q 947 2381 947 1747 
z
" transform="scale(0.015625)"/>
      <path id="DejaVuSans-69" d="M 603 3500 
L 1178 3500 
L 1178 0 
L 603 0 
L 603 3500 
z
M 603 4863 
L 1178 4863 
L 1178 4134 
L 603 4134 
L 603 4863 
z
" transform="scale(0.015625)"/>
      <path id="DejaVuSans-6e" d="M 3513 2113 
L 3513 0 
L 2938 0 
L 2938 2094 
Q 2938 2591 2744 2837 
Q 2550 3084 2163 3084 
Q 1697 3084 1428 2787 
Q 1159 2491 1159 1978 
L 1159 0 
L 581 0 
L 581 3500 
L 1159 3500 
L 1159 2956 
Q 1366 3272 1645 3428 
Q 1925 3584 2291 3584 
Q 2894 3584 3203 3211 
Q 3513 2838 3513 2113 
z
" transform="scale(0.015625)"/>
      <path id="DejaVuSans-62" d="M 3116 1747 
Q 3116 2381 2855 2742 
Q 2594 3103 2138 3103 
Q 1681 3103 1420 2742 
Q 1159 2381 1159 1747 
Q 1159 1113 1420 752 
Q 1681 391 2138 391 
Q 2594 391 2855 752 
Q 3116 1113 3116 1747 
z
M 1159 2969 
Q 1341 3281 1617 3432 
Q 1894 3584 2278 3584 
Q 2916 3584 3314 3078 
Q 3713 2572 3713 1747 
Q 3713 922 3314 415 
Q 2916 -91 2278 -91 
Q 1894 -91 1617 61 
Q 1341 213 1159 525 
L 1159 0 
L 581 0 
L 581 4863 
L 1159 4863 
L 1159 2969 
z
" transform="scale(0.015625)"/>
      <path id="DejaVuSans-29" d="M 513 4856 
L 1013 4856 
Q 1481 4119 1714 3412 
Q 1947 2706 1947 2009 
Q 1947 1309 1714 600 
Q 1481 -109 1013 -844 
L 513 -844 
Q 928 -128 1133 580 
Q 1338 1288 1338 2009 
Q 1338 2731 1133 3434 
Q 928 4138 513 4856 
z
" transform="scale(0.015625)"/>
     </defs>
     <use xlink:href="#DejaVuSans-28"/>
     <use xlink:href="#DejaVuSans-73" transform="translate(39.013672 0)"/>
     <use xlink:href="#DejaVuSans-74" transform="translate(91.113281 0)"/>
     <use xlink:href="#DejaVuSans-6f" transform="translate(130.322266 0)"/>
     <use xlink:href="#DejaVuSans-72" transform="translate(191.503906 0)"/>
     <use xlink:href="#DejaVuSans-65" transform="translate(230.367188 0)"/>
     <use xlink:href="#DejaVuSans-64" transform="translate(291.890625 0)"/>
     <use xlink:href="#DejaVuSans-20" transform="translate(355.367188 0)"/>
     <use xlink:href="#DejaVuSans-69" transform="translate(387.154297 0)"/>
     <use xlink:href="#DejaVuSans-6e" transform="translate(414.9375 0)"/>
     <use xlink:href="#DejaVuSans-20" transform="translate(478.316406 0)"/>
     <use xlink:href="#DejaVuSans-33" transform="translate(510.103516 0)"/>
     <use xlink:href="#DejaVuSans-32" transform="translate(573.726562 0)"/>
     <use xlink:href="#DejaVuSans-20" transform="translate(637.349609 0)"/>
     <use xlink:href="#DejaVuSans-62" transform="translate(669.136719 0)"/>
     <use xlink:href="#DejaVuSans-69" transform="translate(732.613281 0)"/>
     <use xlink:href="#DejaVuSans-74" transform="translate(760.396484 0)"/>
     <use xlink:href="#DejaVuSans-73" transform="translate(799.605469 0)"/>
     <use xlink:href="#DejaVuSans-29" transform="translate(851.705078 0)"/>
    </g>
   </g>
   <g id="text_5">
    <!-- bf16 -->
    <g transform="translate(50.792344 126.469508) scale(0.135 -0.135)">
     <defs>
      <path id="DejaVuSans-31" d="M 794 531 
L 1825 531 
L 1825 4091 
L 703 3866 
L 703 4441 
L 1819 4666 
L 2450 4666 
L 2450 531 
L 3481 531 
L 3481 0 
L 794 0 
L 794 531 
z
" transform="scale(0.015625)"/>
      <path id="DejaVuSans-36" d="M 2113 2584 
Q 1688 2584 1439 2293 
Q 1191 2003 1191 1497 
Q 1191 994 1439 701 
Q 1688 409 2113 409 
Q 2538 409 2786 701 
Q 3034 994 3034 1497 
Q 3034 2003 2786 2293 
Q 2538 2584 2113 2584 
z
M 3366 4563 
L 3366 3988 
Q 3128 4100 2886 4159 
Q 2644 4219 2406 4219 
Q 1781 4219 1451 3797 
Q 1122 3375 1075 2522 
Q 1259 2794 1537 2939 
Q 1816 3084 2150 3084 
Q 2853 3084 3261 2657 
Q 3669 2231 3669 1497 
Q 3669 778 3244 343 
Q 2819 -91 2113 -91 
Q 1303 -91 875 529 
Q 447 1150 447 2328 
Q 447 3434 972 4092 
Q 1497 4750 2381 4750 
Q 2619 4750 2861 4703 
Q 3103 4656 3366 4563 
z
" transform="scale(0.015625)"/>
     </defs>
     <use xlink:href="#DejaVuSans-62"/>
     <use xlink:href="#DejaVuSans-66" transform="translate(63.476562 0)"/>
     <use xlink:href="#DejaVuSans-31" transform="translate(98.681641 0)"/>
     <use xlink:href="#DejaVuSans-36" transform="translate(162.304688 0)"/>
    </g>
   </g>
   <g id="patch_56">
    <path d="M 93.214815 132.16176 
L 103.743362 132.16176 
L 103.743362 113.326944 
L 93.214815 113.326944 
z
" clip-path="url(#pc74b0328d6)" style="fill: #7f7f7f; stroke: #ffffff; stroke-width: 0.6; stroke-linejoin: miter"/>
   </g>
   <g id="patch_57">
    <path d="M 104.658888 132.16176 
L 115.187435 132.16176 
L 115.187435 113.326944 
L 104.658888 113.326944 
z
" clip-path="url(#pc74b0328d6)" style="fill: #ff7f0e; stroke: #ffffff; stroke-width: 0.6; stroke-linejoin: miter"/>
   </g>
   <g id="patch_58">
    <path d="M 116.102961 132.16176 
L 126.631508 132.16176 
L 126.631508 113.326944 
L 116.102961 113.326944 
z
" clip-path="url(#pc74b0328d6)" style="fill: #ff7f0e; stroke: #ffffff; stroke-width: 0.6; stroke-linejoin: miter"/>
   </g>
   <g id="patch_59">
    <path d="M 127.547034 132.16176 
L 138.07558 132.16176 
L 138.07558 113.326944 
L 127.547034 113.326944 
z
" clip-path="url(#pc74b0328d6)" style="fill: #ff7f0e; stroke: #ffffff; stroke-width: 0.6; stroke-linejoin: miter"/>
   </g>
   <g id="patch_60">
    <path d="M 138.991106 132.16176 
L 149.519653 132.16176 
L 149.519653 113.326944 
L 138.991106 113.326944 
z
" clip-path="url(#pc74b0328d6)" style="fill: #ff7f0e; stroke: #ffffff; stroke-width: 0.6; stroke-linejoin: miter"/>
   </g>
   <g id="patch_61">
    <path d="M 150.435179 132.16176 
L 160.963726 132.16176 
L 160.963726 113.326944 
L 150.435179 113.326944 
z
" clip-path="url(#pc74b0328d6)" style="fill: #ff7f0e; stroke: #ffffff; stroke-width: 0.6; stroke-linejoin: miter"/>
   </g>
   <g id="patch_62">
    <path d="M 161.879252 132.16176 
L 172.407799 132.16176 
L 172.407799 113.326944 
L 161.879252 113.326944 
z
" clip-path="url(#pc74b0328d6)" style="fill: #ff7f0e; stroke: #ffffff; stroke-width: 0.6; stroke-linejoin: miter"/>
   </g>
   <g id="patch_63">
    <path d="M 173.323324 132.16176 
L 183.851871 132.16176 
L 183.851871 113.326944 
L 173.323324 113.326944 
z
" clip-path="url(#pc74b0328d6)" style="fill: #ff7f0e; stroke: #ffffff; stroke-width: 0.6; stroke-linejoin: miter"/>
   </g>
   <g id="patch_64">
    <path d="M 184.767397 132.16176 
L 195.295944 132.16176 
L 195.295944 113.326944 
L 184.767397 113.326944 
z
" clip-path="url(#pc74b0328d6)" style="fill: #ff7f0e; stroke: #ffffff; stroke-width: 0.6; stroke-linejoin: miter"/>
   </g>
   <g id="patch_65">
    <path d="M 196.21147 132.16176 
L 206.740017 132.16176 
L 206.740017 113.326944 
L 196.21147 113.326944 
z
" clip-path="url(#pc74b0328d6)" style="fill: #1f77b4; stroke: #ffffff; stroke-width: 0.6; stroke-linejoin: miter"/>
   </g>
   <g id="patch_66">
    <path d="M 207.655543 132.16176 
L 218.18409 132.16176 
L 218.18409 113.326944 
L 207.655543 113.326944 
z
" clip-path="url(#pc74b0328d6)" style="fill: #1f77b4; stroke: #ffffff; stroke-width: 0.6; stroke-linejoin: miter"/>
   </g>
   <g id="patch_67">
    <path d="M 219.099615 132.16176 
L 229.628162 132.16176 
L 229.628162 113.326944 
L 219.099615 113.326944 
z
" clip-path="url(#pc74b0328d6)" style="fill: #1f77b4; stroke: #ffffff; stroke-width: 0.6; stroke-linejoin: miter"/>
   </g>
   <g id="patch_68">
    <path d="M 230.543688 132.16176 
L 241.072235 132.16176 
L 241.072235 113.326944 
L 230.543688 113.326944 
z
" clip-path="url(#pc74b0328d6)" style="fill: #1f77b4; stroke: #ffffff; stroke-width: 0.6; stroke-linejoin: miter"/>
   </g>
   <g id="patch_69">
    <path d="M 241.987761 132.16176 
L 252.516308 132.16176 
L 252.516308 113.326944 
L 241.987761 113.326944 
z
" clip-path="url(#pc74b0328d6)" style="fill: #1f77b4; stroke: #ffffff; stroke-width: 0.6; stroke-linejoin: miter"/>
   </g>
   <g id="patch_70">
    <path d="M 253.431834 132.16176 
L 263.96038 132.16176 
L 263.96038 113.326944 
L 253.431834 113.326944 
z
" clip-path="url(#pc74b0328d6)" style="fill: #1f77b4; stroke: #ffffff; stroke-width: 0.6; stroke-linejoin: miter"/>
   </g>
   <g id="patch_71">
    <path d="M 264.875906 132.16176 
L 275.404453 132.16176 
L 275.404453 113.326944 
L 264.875906 113.326944 
z
" clip-path="url(#pc74b0328d6)" style="fill: #1f77b4; stroke: #ffffff; stroke-width: 0.6; stroke-linejoin: miter"/>
   </g>
   <g id="text_6">
    <!-- 2 B -->
    <g transform="translate(282.042015 126.055602) scale(0.12 -0.12)">
     <use xlink:href="#DejaVuSans-32"/>
     <use xlink:href="#DejaVuSans-20" transform="translate(63.623047 0)"/>
     <use xlink:href="#DejaVuSans-42" transform="translate(95.410156 0)"/>
    </g>
   </g>
   <g id="text_7">
    <!-- fp16 -->
    <g transform="translate(50.792344 159.792644) scale(0.135 -0.135)">
     <use xlink:href="#DejaVuSans-66"/>
     <use xlink:href="#DejaVuSans-70" transform="translate(35.205078 0)"/>
     <use xlink:href="#DejaVuSans-31" transform="translate(98.681641 0)"/>
     <use xlink:href="#DejaVuSans-36" transform="translate(162.304688 0)"/>
    </g>
   </g>
   <g id="patch_72">
    <path d="M 93.214815 165.484896 
L 103.743362 165.484896 
L 103.743362 146.65008 
L 93.214815 146.65008 
z
" clip-path="url(#pc74b0328d6)" style="fill: #7f7f7f; stroke: #ffffff; stroke-width: 0.6; stroke-linejoin: miter"/>
   </g>
   <g id="patch_73">
    <path d="M 104.658888 165.484896 
L 115.187435 165.484896 
L 115.187435 146.65008 
L 104.658888 146.65008 
z
" clip-path="url(#pc74b0328d6)" style="fill: #ff7f0e; stroke: #ffffff; stroke-width: 0.6; stroke-linejoin: miter"/>
   </g>
   <g id="patch_74">
    <path d="M 116.102961 165.484896 
L 126.631508 165.484896 
L 126.631508 146.65008 
L 116.102961 146.65008 
z
" clip-path="url(#pc74b0328d6)" style="fill: #ff7f0e; stroke: #ffffff; stroke-width: 0.6; stroke-linejoin: miter"/>
   </g>
   <g id="patch_75">
    <path d="M 127.547034 165.484896 
L 138.07558 165.484896 
L 138.07558 146.65008 
L 127.547034 146.65008 
z
" clip-path="url(#pc74b0328d6)" style="fill: #ff7f0e; stroke: #ffffff; stroke-width: 0.6; stroke-linejoin: miter"/>
   </g>
   <g id="patch_76">
    <path d="M 138.991106 165.484896 
L 149.519653 165.484896 
L 149.519653 146.65008 
L 138.991106 146.65008 
z
" clip-path="url(#pc74b0328d6)" style="fill: #ff7f0e; stroke: #ffffff; stroke-width: 0.6; stroke-linejoin: miter"/>
   </g>
   <g id="patch_77">
    <path d="M 150.435179 165.484896 
L 160.963726 165.484896 
L 160.963726 146.65008 
L 150.435179 146.65008 
z
" clip-path="url(#pc74b0328d6)" style="fill: #ff7f0e; stroke: #ffffff; stroke-width: 0.6; stroke-linejoin: miter"/>
   </g>
   <g id="patch_78">
    <path d="M 161.879252 165.484896 
L 172.407799 165.484896 
L 172.407799 146.65008 
L 161.879252 146.65008 
z
" clip-path="url(#pc74b0328d6)" style="fill: #1f77b4; stroke: #ffffff; stroke-width: 0.6; stroke-linejoin: miter"/>
   </g>
   <g id="patch_79">
    <path d="M 173.323324 165.484896 
L 183.851871 165.484896 
L 183.851871 146.65008 
L 173.323324 146.65008 
z
" clip-path="url(#pc74b0328d6)" style="fill: #1f77b4; stroke: #ffffff; stroke-width: 0.6; stroke-linejoin: miter"/>
   </g>
   <g id="patch_80">
    <path d="M 184.767397 165.484896 
L 195.295944 165.484896 
L 195.295944 146.65008 
L 184.767397 146.65008 
z
" clip-path="url(#pc74b0328d6)" style="fill: #1f77b4; stroke: #ffffff; stroke-width: 0.6; stroke-linejoin: miter"/>
   </g>
   <g id="patch_81">
    <path d="M 196.21147 165.484896 
L 206.740017 165.484896 
L 206.740017 146.65008 
L 196.21147 146.65008 
z
" clip-path="url(#pc74b0328d6)" style="fill: #1f77b4; stroke: #ffffff; stroke-width: 0.6; stroke-linejoin: miter"/>
   </g>
   <g id="patch_82">
    <path d="M 207.655543 165.484896 
L 218.18409 165.484896 
L 218.18409 146.65008 
L 207.655543 146.65008 
z
" clip-path="url(#pc74b0328d6)" style="fill: #1f77b4; stroke: #ffffff; stroke-width: 0.6; stroke-linejoin: miter"/>
   </g>
   <g id="patch_83">
    <path d="M 219.099615 165.484896 
L 229.628162 165.484896 
L 229.628162 146.65008 
L 219.099615 146.65008 
z
" clip-path="url(#pc74b0328d6)" style="fill: #1f77b4; stroke: #ffffff; stroke-width: 0.6; stroke-linejoin: miter"/>
   </g>
   <g id="patch_84">
    <path d="M 230.543688 165.484896 
L 241.072235 165.484896 
L 241.072235 146.65008 
L 230.543688 146.65008 
z
" clip-path="url(#pc74b0328d6)" style="fill: #1f77b4; stroke: #ffffff; stroke-width: 0.6; stroke-linejoin: miter"/>
   </g>
   <g id="patch_85">
    <path d="M 241.987761 165.484896 
L 252.516308 165.484896 
L 252.516308 146.65008 
L 241.987761 146.65008 
z
" clip-path="url(#pc74b0328d6)" style="fill: #1f77b4; stroke: #ffffff; stroke-width: 0.6; stroke-linejoin: miter"/>
   </g>
   <g id="patch_86">
    <path d="M 253.431834 165.484896 
L 263.96038 165.484896 
L 263.96038 146.65008 
L 253.431834 146.65008 
z
" clip-path="url(#pc74b0328d6)" style="fill: #1f77b4; stroke: #ffffff; stroke-width: 0.6; stroke-linejoin: miter"/>
   </g>
   <g id="patch_87">
    <path d="M 264.875906 165.484896 
L 275.404453 165.484896 
L 275.404453 146.65008 
L 264.875906 146.65008 
z
" clip-path="url(#pc74b0328d6)" style="fill: #1f77b4; stroke: #ffffff; stroke-width: 0.6; stroke-linejoin: miter"/>
   </g>
   <g id="text_8">
    <!-- 2 B -->
    <g transform="translate(282.042015 159.378738) scale(0.12 -0.12)">
     <use xlink:href="#DejaVuSans-32"/>
     <use xlink:href="#DejaVuSans-20" transform="translate(63.623047 0)"/>
     <use xlink:href="#DejaVuSans-42" transform="translate(95.410156 0)"/>
    </g>
   </g>
   <g id="text_9">
    <!-- fp8 (E4M3) -->
    <g transform="translate(7.2 193.11578) scale(0.135 -0.135)">
     <defs>
      <path id="DejaVuSans-38" d="M 2034 2216 
Q 1584 2216 1326 1975 
Q 1069 1734 1069 1313 
Q 1069 891 1326 650 
Q 1584 409 2034 409 
Q 2484 409 2743 651 
Q 3003 894 3003 1313 
Q 3003 1734 2745 1975 
Q 2488 2216 2034 2216 
z
M 1403 2484 
Q 997 2584 770 2862 
Q 544 3141 544 3541 
Q 544 4100 942 4425 
Q 1341 4750 2034 4750 
Q 2731 4750 3128 4425 
Q 3525 4100 3525 3541 
Q 3525 3141 3298 2862 
Q 3072 2584 2669 2484 
Q 3125 2378 3379 2068 
Q 3634 1759 3634 1313 
Q 3634 634 3220 271 
Q 2806 -91 2034 -91 
Q 1263 -91 848 271 
Q 434 634 434 1313 
Q 434 1759 690 2068 
Q 947 2378 1403 2484 
z
M 1172 3481 
Q 1172 3119 1398 2916 
Q 1625 2713 2034 2713 
Q 2441 2713 2670 2916 
Q 2900 3119 2900 3481 
Q 2900 3844 2670 4047 
Q 2441 4250 2034 4250 
Q 1625 4250 1398 4047 
Q 1172 3844 1172 3481 
z
" transform="scale(0.015625)"/>
      <path id="DejaVuSans-45" d="M 628 4666 
L 3578 4666 
L 3578 4134 
L 1259 4134 
L 1259 2753 
L 3481 2753 
L 3481 2222 
L 1259 2222 
L 1259 531 
L 3634 531 
L 3634 0 
L 628 0 
L 628 4666 
z
" transform="scale(0.015625)"/>
      <path id="DejaVuSans-4d" d="M 628 4666 
L 1569 4666 
L 2759 1491 
L 3956 4666 
L 4897 4666 
L 4897 0 
L 4281 0 
L 4281 4097 
L 3078 897 
L 2444 897 
L 1241 4097 
L 1241 0 
L 628 0 
L 628 4666 
z
" transform="scale(0.015625)"/>
     </defs>
     <use xlink:href="#DejaVuSans-66"/>
     <use xlink:href="#DejaVuSans-70" transform="translate(35.205078 0)"/>
     <use xlink:href="#DejaVuSans-38" transform="translate(98.681641 0)"/>
     <use xlink:href="#DejaVuSans-20" transform="translate(162.304688 0)"/>
     <use xlink:href="#DejaVuSans-28" transform="translate(194.091797 0)"/>
     <use xlink:href="#DejaVuSans-45" transform="translate(233.105469 0)"/>
     <use xlink:href="#DejaVuSans-34" transform="translate(296.289062 0)"/>
     <use xlink:href="#DejaVuSans-4d" transform="translate(359.912109 0)"/>
     <use xlink:href="#DejaVuSans-33" transform="translate(446.191406 0)"/>
     <use xlink:href="#DejaVuSans-29" transform="translate(509.814453 0)"/>
    </g>
   </g>
   <g id="patch_88">
    <path d="M 93.214815 198.808032 
L 103.743362 198.808032 
L 103.743362 179.973216 
L 93.214815 179.973216 
z
" clip-path="url(#pc74b0328d6)" style="fill: #7f7f7f; stroke: #ffffff; stroke-width: 0.6; stroke-linejoin: miter"/>
   </g>
   <g id="patch_89">
    <path d="M 104.658888 198.808032 
L 115.187435 198.808032 
L 115.187435 179.973216 
L 104.658888 179.973216 
z
" clip-path="url(#pc74b0328d6)" style="fill: #ff7f0e; stroke: #ffffff; stroke-width: 0.6; stroke-linejoin: miter"/>
   </g>
   <g id="patch_90">
    <path d="M 116.102961 198.808032 
L 126.631508 198.808032 
L 126.631508 179.973216 
L 116.102961 179.973216 
z
" clip-path="url(#pc74b0328d6)" style="fill: #ff7f0e; stroke: #ffffff; stroke-width: 0.6; stroke-linejoin: miter"/>
   </g>
   <g id="patch_91">
    <path d="M 127.547034 198.808032 
L 138.07558 198.808032 
L 138.07558 179.973216 
L 127.547034 179.973216 
z
" clip-path="url(#pc74b0328d6)" style="fill: #ff7f0e; stroke: #ffffff; stroke-width: 0.6; stroke-linejoin: miter"/>
   </g>
   <g id="patch_92">
    <path d="M 138.991106 198.808032 
L 149.519653 198.808032 
L 149.519653 179.973216 
L 138.991106 179.973216 
z
" clip-path="url(#pc74b0328d6)" style="fill: #ff7f0e; stroke: #ffffff; stroke-width: 0.6; stroke-linejoin: miter"/>
   </g>
   <g id="patch_93">
    <path d="M 150.435179 198.808032 
L 160.963726 198.808032 
L 160.963726 179.973216 
L 150.435179 179.973216 
z
" clip-path="url(#pc74b0328d6)" style="fill: #1f77b4; stroke: #ffffff; stroke-width: 0.6; stroke-linejoin: miter"/>
   </g>
   <g id="patch_94">
    <path d="M 161.879252 198.808032 
L 172.407799 198.808032 
L 172.407799 179.973216 
L 161.879252 179.973216 
z
" clip-path="url(#pc74b0328d6)" style="fill: #1f77b4; stroke: #ffffff; stroke-width: 0.6; stroke-linejoin: miter"/>
   </g>
   <g id="patch_95">
    <path d="M 173.323324 198.808032 
L 183.851871 198.808032 
L 183.851871 179.973216 
L 173.323324 179.973216 
z
" clip-path="url(#pc74b0328d6)" style="fill: #1f77b4; stroke: #ffffff; stroke-width: 0.6; stroke-linejoin: miter"/>
   </g>
   <g id="text_10">
    <!-- 1 B -->
    <g transform="translate(190.489434 192.701874) scale(0.12 -0.12)">
     <use xlink:href="#DejaVuSans-31"/>
     <use xlink:href="#DejaVuSans-20" transform="translate(63.623047 0)"/>
     <use xlink:href="#DejaVuSans-42" transform="translate(95.410156 0)"/>
    </g>
   </g>
   <g id="text_11">
    <!-- fp8 (E5M2) -->
    <g transform="translate(7.2 226.438916) scale(0.135 -0.135)">
     <defs>
      <path id="DejaVuSans-35" d="M 691 4666 
L 3169 4666 
L 3169 4134 
L 1269 4134 
L 1269 2991 
Q 1406 3038 1543 3061 
Q 1681 3084 1819 3084 
Q 2600 3084 3056 2656 
Q 3513 2228 3513 1497 
Q 3513 744 3044 326 
Q 2575 -91 1722 -91 
Q 1428 -91 1123 -41 
Q 819 9 494 109 
L 494 744 
Q 775 591 1075 516 
Q 1375 441 1709 441 
Q 2250 441 2565 725 
Q 2881 1009 2881 1497 
Q 2881 1984 2565 2268 
Q 2250 2553 1709 2553 
Q 1456 2553 1204 2497 
Q 953 2441 691 2322 
L 691 4666 
z
" transform="scale(0.015625)"/>
     </defs>
     <use xlink:href="#DejaVuSans-66"/>
     <use xlink:href="#DejaVuSans-70" transform="translate(35.205078 0)"/>
     <use xlink:href="#DejaVuSans-38" transform="translate(98.681641 0)"/>
     <use xlink:href="#DejaVuSans-20" transform="translate(162.304688 0)"/>
     <use xlink:href="#DejaVuSans-28" transform="translate(194.091797 0)"/>
     <use xlink:href="#DejaVuSans-45" transform="translate(233.105469 0)"/>
     <use xlink:href="#DejaVuSans-35" transform="translate(296.289062 0)"/>
     <use xlink:href="#DejaVuSans-4d" transform="translate(359.912109 0)"/>
     <use xlink:href="#DejaVuSans-32" transform="translate(446.191406 0)"/>
     <use xlink:href="#DejaVuSans-29" transform="translate(509.814453 0)"/>
    </g>
   </g>
   <g id="patch_96">
    <path d="M 93.214815 232.131168 
L 103.743362 232.131168 
L 103.743362 213.296352 
L 93.214815 213.296352 
z
" clip-path="url(#pc74b0328d6)" style="fill: #7f7f7f; stroke: #ffffff; stroke-width: 0.6; stroke-linejoin: miter"/>
   </g>
   <g id="patch_97">
    <path d="M 104.658888 232.131168 
L 115.187435 232.131168 
L 115.187435 213.296352 
L 104.658888 213.296352 
z
" clip-path="url(#pc74b0328d6)" style="fill: #ff7f0e; stroke: #ffffff; stroke-width: 0.6; stroke-linejoin: miter"/>
   </g>
   <g id="patch_98">
    <path d="M 116.102961 232.131168 
L 126.631508 232.131168 
L 126.631508 213.296352 
L 116.102961 213.296352 
z
" clip-path="url(#pc74b0328d6)" style="fill: #ff7f0e; stroke: #ffffff; stroke-width: 0.6; stroke-linejoin: miter"/>
   </g>
   <g id="patch_99">
    <path d="M 127.547034 232.131168 
L 138.07558 232.131168 
L 138.07558 213.296352 
L 127.547034 213.296352 
z
" clip-path="url(#pc74b0328d6)" style="fill: #ff7f0e; stroke: #ffffff; stroke-width: 0.6; stroke-linejoin: miter"/>
   </g>
   <g id="patch_100">
    <path d="M 138.991106 232.131168 
L 149.519653 232.131168 
L 149.519653 213.296352 
L 138.991106 213.296352 
z
" clip-path="url(#pc74b0328d6)" style="fill: #ff7f0e; stroke: #ffffff; stroke-width: 0.6; stroke-linejoin: miter"/>
   </g>
   <g id="patch_101">
    <path d="M 150.435179 232.131168 
L 160.963726 232.131168 
L 160.963726 213.296352 
L 150.435179 213.296352 
z
" clip-path="url(#pc74b0328d6)" style="fill: #ff7f0e; stroke: #ffffff; stroke-width: 0.6; stroke-linejoin: miter"/>
   </g>
   <g id="patch_102">
    <path d="M 161.879252 232.131168 
L 172.407799 232.131168 
L 172.407799 213.296352 
L 161.879252 213.296352 
z
" clip-path="url(#pc74b0328d6)" style="fill: #1f77b4; stroke: #ffffff; stroke-width: 0.6; stroke-linejoin: miter"/>
   </g>
   <g id="patch_103">
    <path d="M 173.323324 232.131168 
L 183.851871 232.131168 
L 183.851871 213.296352 
L 173.323324 213.296352 
z
" clip-path="url(#pc74b0328d6)" style="fill: #1f77b4; stroke: #ffffff; stroke-width: 0.6; stroke-linejoin: miter"/>
   </g>
   <g id="text_12">
    <!-- 1 B -->
    <g transform="translate(190.489434 226.02501) scale(0.12 -0.12)">
     <use xlink:href="#DejaVuSans-31"/>
     <use xlink:href="#DejaVuSans-20" transform="translate(63.623047 0)"/>
     <use xlink:href="#DejaVuSans-42" transform="translate(95.410156 0)"/>
    </g>
   </g>
   <g id="text_13">
    <!-- fp4 (E2M1) -->
    <g transform="translate(7.2 259.762052) scale(0.135 -0.135)">
     <use xlink:href="#DejaVuSans-66"/>
     <use xlink:href="#DejaVuSans-70" transform="translate(35.205078 0)"/>
     <use xlink:href="#DejaVuSans-34" transform="translate(98.681641 0)"/>
     <use xlink:href="#DejaVuSans-20" transform="translate(162.304688 0)"/>
     <use xlink:href="#DejaVuSans-28" transform="translate(194.091797 0)"/>
     <use xlink:href="#DejaVuSans-45" transform="translate(233.105469 0)"/>
     <use xlink:href="#DejaVuSans-32" transform="translate(296.289062 0)"/>
     <use xlink:href="#DejaVuSans-4d" transform="translate(359.912109 0)"/>
     <use xlink:href="#DejaVuSans-31" transform="translate(446.191406 0)"/>
     <use xlink:href="#DejaVuSans-29" transform="translate(509.814453 0)"/>
    </g>
   </g>
   <g id="patch_104">
    <path d="M 93.214815 265.454304 
L 103.743362 265.454304 
L 103.743362 246.619488 
L 93.214815 246.619488 
z
" clip-path="url(#pc74b0328d6)" style="fill: #7f7f7f; stroke: #ffffff; stroke-width: 0.6; stroke-linejoin: miter"/>
   </g>
   <g id="patch_105">
    <path d="M 104.658888 265.454304 
L 115.187435 265.454304 
L 115.187435 246.619488 
L 104.658888 246.619488 
z
" clip-path="url(#pc74b0328d6)" style="fill: #ff7f0e; stroke: #ffffff; stroke-width: 0.6; stroke-linejoin: miter"/>
   </g>
   <g id="patch_106">
    <path d="M 116.102961 265.454304 
L 126.631508 265.454304 
L 126.631508 246.619488 
L 116.102961 246.619488 
z
" clip-path="url(#pc74b0328d6)" style="fill: #ff7f0e; stroke: #ffffff; stroke-width: 0.6; stroke-linejoin: miter"/>
   </g>
   <g id="patch_107">
    <path d="M 127.547034 265.454304 
L 138.07558 265.454304 
L 138.07558 246.619488 
L 127.547034 246.619488 
z
" clip-path="url(#pc74b0328d6)" style="fill: #1f77b4; stroke: #ffffff; stroke-width: 0.6; stroke-linejoin: miter"/>
   </g>
   <g id="text_14">
    <!-- 0.5 B -->
    <g transform="translate(144.713143 259.348146) scale(0.12 -0.12)">
     <defs>
      <path id="DejaVuSans-30" d="M 2034 4250 
Q 1547 4250 1301 3770 
Q 1056 3291 1056 2328 
Q 1056 1369 1301 889 
Q 1547 409 2034 409 
Q 2525 409 2770 889 
Q 3016 1369 3016 2328 
Q 3016 3291 2770 3770 
Q 2525 4250 2034 4250 
z
M 2034 4750 
Q 2819 4750 3233 4129 
Q 3647 3509 3647 2328 
Q 3647 1150 3233 529 
Q 2819 -91 2034 -91 
Q 1250 -91 836 529 
Q 422 1150 422 2328 
Q 422 3509 836 4129 
Q 1250 4750 2034 4750 
z
" transform="scale(0.015625)"/>
      <path id="DejaVuSans-2e" d="M 684 794 
L 1344 794 
L 1344 0 
L 684 0 
L 684 794 
z
" transform="scale(0.015625)"/>
     </defs>
     <use xlink:href="#DejaVuSans-30"/>
     <use xlink:href="#DejaVuSans-2e" transform="translate(63.623047 0)"/>
     <use xlink:href="#DejaVuSans-35" transform="translate(95.410156 0)"/>
     <use xlink:href="#DejaVuSans-20" transform="translate(159.033203 0)"/>
     <use xlink:href="#DejaVuSans-42" transform="translate(190.820312 0)"/>
    </g>
   </g>
   <g id="text_15">
    <!-- same 8-bit exponent $\Rightarrow$ same range -->
    <g transform="translate(204.317688 31.016184) scale(0.125 -0.125)">
     <defs>
      <path id="DejaVuSans-61" d="M 2194 1759 
Q 1497 1759 1228 1600 
Q 959 1441 959 1056 
Q 959 750 1161 570 
Q 1363 391 1709 391 
Q 2188 391 2477 730 
Q 2766 1069 2766 1631 
L 2766 1759 
L 2194 1759 
z
M 3341 1997 
L 3341 0 
L 2766 0 
L 2766 531 
Q 2569 213 2275 61 
Q 1981 -91 1556 -91 
Q 1019 -91 701 211 
Q 384 513 384 1019 
Q 384 1609 779 1909 
Q 1175 2209 1959 2209 
L 2766 2209 
L 2766 2266 
Q 2766 2663 2505 2880 
Q 2244 3097 1772 3097 
Q 1472 3097 1187 3025 
Q 903 2953 641 2809 
L 641 3341 
Q 956 3463 1253 3523 
Q 1550 3584 1831 3584 
Q 2591 3584 2966 3190 
Q 3341 2797 3341 1997 
z
" transform="scale(0.015625)"/>
      <path id="DejaVuSans-6d" d="M 3328 2828 
Q 3544 3216 3844 3400 
Q 4144 3584 4550 3584 
Q 5097 3584 5394 3201 
Q 5691 2819 5691 2113 
L 5691 0 
L 5113 0 
L 5113 2094 
Q 5113 2597 4934 2840 
Q 4756 3084 4391 3084 
Q 3944 3084 3684 2787 
Q 3425 2491 3425 1978 
L 3425 0 
L 2847 0 
L 2847 2094 
Q 2847 2600 2669 2842 
Q 2491 3084 2119 3084 
Q 1678 3084 1418 2786 
Q 1159 2488 1159 1978 
L 1159 0 
L 581 0 
L 581 3500 
L 1159 3500 
L 1159 2956 
Q 1356 3278 1631 3431 
Q 1906 3584 2284 3584 
Q 2666 3584 2933 3390 
Q 3200 3197 3328 2828 
z
" transform="scale(0.015625)"/>
      <path id="DejaVuSans-2d" d="M 313 2009 
L 1997 2009 
L 1997 1497 
L 313 1497 
L 313 2009 
z
" transform="scale(0.015625)"/>
      <path id="DejaVuSans-78" d="M 3513 3500 
L 2247 1797 
L 3578 0 
L 2900 0 
L 1881 1375 
L 863 0 
L 184 0 
L 1544 1831 
L 300 3500 
L 978 3500 
L 1906 2253 
L 2834 3500 
L 3513 3500 
z
" transform="scale(0.015625)"/>
      <path id="Cmsy10-29" d="M 481 850 
Q 428 850 393 890 
Q 359 931 359 978 
Q 359 1031 393 1068 
Q 428 1106 481 1106 
L 4634 1106 
Q 5009 1416 5453 1600 
Q 5009 1784 4634 2094 
L 481 2094 
Q 428 2094 393 2131 
Q 359 2169 359 2222 
Q 359 2269 393 2309 
Q 428 2350 481 2350 
L 4353 2350 
Q 4194 2516 3950 2850 
Q 3706 3184 3706 3291 
Q 3706 3319 3723 3339 
Q 3741 3359 3769 3359 
L 3897 3359 
Q 3938 3359 3950 3322 
Q 4109 3009 4314 2750 
Q 4519 2491 4787 2272 
Q 5056 2053 5353 1906 
Q 5650 1759 5991 1672 
Q 6034 1644 6034 1600 
Q 6034 1550 5991 1538 
Q 5325 1369 4792 934 
Q 4259 500 3950 -122 
Q 3938 -159 3897 -159 
L 3769 -159 
Q 3706 -159 3706 -91 
Q 3706 -16 3832 179 
Q 3959 375 4111 567 
Q 4263 759 4353 850 
L 481 850 
z
" transform="scale(0.015625)"/>
      <path id="DejaVuSans-67" d="M 2906 1791 
Q 2906 2416 2648 2759 
Q 2391 3103 1925 3103 
Q 1463 3103 1205 2759 
Q 947 2416 947 1791 
Q 947 1169 1205 825 
Q 1463 481 1925 481 
Q 2391 481 2648 825 
Q 2906 1169 2906 1791 
z
M 3481 434 
Q 3481 -459 3084 -895 
Q 2688 -1331 1869 -1331 
Q 1566 -1331 1297 -1286 
Q 1028 -1241 775 -1147 
L 775 -588 
Q 1028 -725 1275 -790 
Q 1522 -856 1778 -856 
Q 2344 -856 2625 -561 
Q 2906 -266 2906 331 
L 2906 616 
Q 2728 306 2450 153 
Q 2172 0 1784 0 
Q 1141 0 747 490 
Q 353 981 353 1791 
Q 353 2603 747 3093 
Q 1141 3584 1784 3584 
Q 2172 3584 2450 3431 
Q 2728 3278 2906 2969 
L 2906 3500 
L 3481 3500 
L 3481 434 
z
" transform="scale(0.015625)"/>
     </defs>
     <use xlink:href="#DejaVuSans-73" transform="translate(0 0.015625)"/>
     <use xlink:href="#DejaVuSans-61" transform="translate(52.099609 0.015625)"/>
     <use xlink:href="#DejaVuSans-6d" transform="translate(113.378906 0.015625)"/>
     <use xlink:href="#DejaVuSans-65" transform="translate(210.791016 0.015625)"/>
     <use xlink:href="#DejaVuSans-20" transform="translate(272.314453 0.015625)"/>
     <use xlink:href="#DejaVuSans-38" transform="translate(304.101562 0.015625)"/>
     <use xlink:href="#DejaVuSans-2d" transform="translate(367.724609 0.015625)"/>
     <use xlink:href="#DejaVuSans-62" transform="translate(403.808594 0.015625)"/>
     <use xlink:href="#DejaVuSans-69" transform="translate(467.285156 0.015625)"/>
     <use xlink:href="#DejaVuSans-74" transform="translate(495.068359 0.015625)"/>
     <use xlink:href="#DejaVuSans-20" transform="translate(534.277344 0.015625)"/>
     <use xlink:href="#DejaVuSans-65" transform="translate(566.064453 0.015625)"/>
     <use xlink:href="#DejaVuSans-78" transform="translate(627.587891 0.015625)"/>
     <use xlink:href="#DejaVuSans-70" transform="translate(686.767578 0.015625)"/>
     <use xlink:href="#DejaVuSans-6f" transform="translate(750.244141 0.015625)"/>
     <use xlink:href="#DejaVuSans-6e" transform="translate(811.425781 0.015625)"/>
     <use xlink:href="#DejaVuSans-65" transform="translate(874.804688 0.015625)"/>
     <use xlink:href="#DejaVuSans-6e" transform="translate(936.328125 0.015625)"/>
     <use xlink:href="#DejaVuSans-74" transform="translate(999.707031 0.015625)"/>
     <use xlink:href="#DejaVuSans-20" transform="translate(1038.916016 0.015625)"/>
     <use xlink:href="#Cmsy10-29" transform="translate(1088.261719 0.015625)"/>
     <use xlink:href="#DejaVuSans-20" transform="translate(1205.820312 0.015625)"/>
     <use xlink:href="#DejaVuSans-73" transform="translate(1237.607422 0.015625)"/>
     <use xlink:href="#DejaVuSans-61" transform="translate(1289.707031 0.015625)"/>
     <use xlink:href="#DejaVuSans-6d" transform="translate(1350.986328 0.015625)"/>
     <use xlink:href="#DejaVuSans-65" transform="translate(1448.398438 0.015625)"/>
     <use xlink:href="#DejaVuSans-20" transform="translate(1509.921875 0.015625)"/>
     <use xlink:href="#DejaVuSans-72" transform="translate(1541.708984 0.015625)"/>
     <use xlink:href="#DejaVuSans-61" transform="translate(1582.822266 0.015625)"/>
     <use xlink:href="#DejaVuSans-6e" transform="translate(1644.101562 0.015625)"/>
     <use xlink:href="#DejaVuSans-67" transform="translate(1707.480469 0.015625)"/>
     <use xlink:href="#DejaVuSans-65" transform="translate(1770.957031 0.015625)"/>
    </g>
   </g>
   <g id="text_16">
    <!-- sign -->
    <g transform="translate(322.09627 266.005859) scale(0.125 -0.125)">
     <use xlink:href="#DejaVuSans-73"/>
     <use xlink:href="#DejaVuSans-69" transform="translate(52.099609 0)"/>
     <use xlink:href="#DejaVuSans-67" transform="translate(79.882812 0)"/>
     <use xlink:href="#DejaVuSans-6e" transform="translate(143.359375 0)"/>
    </g>
   </g>
   <g id="text_17">
    <!-- exponent -->
    <g transform="translate(393.144888 266.005859) scale(0.125 -0.125)">
     <use xlink:href="#DejaVuSans-65"/>
     <use xlink:href="#DejaVuSans-78" transform="translate(59.773438 0)"/>
     <use xlink:href="#DejaVuSans-70" transform="translate(118.953125 0)"/>
     <use xlink:href="#DejaVuSans-6f" transform="translate(182.429688 0)"/>
     <use xlink:href="#DejaVuSans-6e" transform="translate(243.611328 0)"/>
     <use xlink:href="#DejaVuSans-65" transform="translate(306.990234 0)"/>
     <use xlink:href="#DejaVuSans-6e" transform="translate(368.513672 0)"/>
     <use xlink:href="#DejaVuSans-74" transform="translate(431.892578 0)"/>
    </g>
   </g>
   <g id="text_18">
    <!-- mantissa -->
    <g transform="translate(494.711034 266.005859) scale(0.125 -0.125)">
     <use xlink:href="#DejaVuSans-6d"/>
     <use xlink:href="#DejaVuSans-61" transform="translate(97.412109 0)"/>
     <use xlink:href="#DejaVuSans-6e" transform="translate(158.691406 0)"/>
     <use xlink:href="#DejaVuSans-74" transform="translate(222.070312 0)"/>
     <use xlink:href="#DejaVuSans-69" transform="translate(261.279297 0)"/>
     <use xlink:href="#DejaVuSans-73" transform="translate(289.0625 0)"/>
     <use xlink:href="#DejaVuSans-73" transform="translate(341.162109 0)"/>
     <use xlink:href="#DejaVuSans-61" transform="translate(393.261719 0)"/>
    </g>
   </g>
  </g>
 </g>
 <defs>
  <clipPath id="pc74b0328d6">
   <rect x="7.38427" y="7.2" width="524.52" height="271.656"/>
  </clipPath>
 </defs>
</svg>
