<?xml version="1.0" encoding="utf-8" standalone="no"?>
<!DOCTYPE svg PUBLIC "-//W3C//DTD SVG 1.1//EN"
  "http://www.w3.org/Graphics/SVG/1.1/DTD/svg11.dtd">
<svg xmlns:xlink="http://www.w3.org/1999/xlink" width="338.04pt" height="268.772304pt" viewBox="0 0 338.04 268.772304" xmlns="http://www.w3.org/2000/svg" version="1.1">
 <metadata>
  <rdf:RDF xmlns:dc="http://purl.org/dc/elements/1.1/" xmlns:cc="http://creativecommons.org/ns#" xmlns:rdf="http://www.w3.org/1999/02/22-rdf-syntax-ns#">
   <cc:Work>
    <dc:type rdf:resource="http://purl.org/dc/dcmitype/StillImage"/>
    <dc:format>image/svg+xml</dc:format>
    <dc:creator>
     <cc:Agent>
      <dc:title>Matplotlib v3.10.8, https://matplotlib.org/</dc:title>
     </cc:Agent>
    </dc:creator>
   </cc:Work>
  </rdf:RDF>
 </metadata>
 <defs>
  <style type="text/css">*{stroke-linejoin: round; stroke-linecap: butt}</style>
 </defs>
 <g id="figure_1">
  <g id="patch_1">
   <path d="M 0 268.772304 
L 338.04 268.772304 
L 338.04 0 
L 0 0 
z
" style="fill: #ffffff"/>
  </g>
  <g id="axes_1">
   <g id="patch_2">
    <path d="M 7.2 228.96 
L 330.84 228.96 
L 330.84 7.2 
L 7.2 7.2 
z
" style="fill: #ffffff"/>
   </g>
   <g id="matplotlib.axis_1"/>
   <g id="matplotlib.axis_2"/>
   <g id="line2d_1">
    <path d="M 28.776 143.351497 
L 287.688 214.659099 
" clip-path="url(#p0a1ff520ed)" style="fill: none; stroke: #7f7f7f; stroke-width: 1.6; stroke-linecap: square"/>
   </g>
   <g id="patch_3">
    <path d="M 7.2 228.96 
L 7.2 7.2 
" style="fill: none; stroke: #000000; stroke-width: 0.8; stroke-linejoin: miter; stroke-linecap: square"/>
   </g>
   <g id="patch_4">
    <path d="M 7.2 228.96 
L 330.84 228.96 
" style="fill: none; stroke: #000000; stroke-width: 0.8; stroke-linejoin: miter; stroke-linecap: square"/>
   </g>
   <g id="line2d_2">
    <path d="M 7.2 189.11371 
L 15.131028 171.704866 
L 22.268952 156.583238 
L 28.613774 143.674246 
L 34.165494 132.853829 
L 39.717213 122.528303 
L 44.47583 114.10686 
L 49.234446 106.110242 
L 53.993063 98.563817 
L 58.751679 91.490985 
L 62.717193 85.97418 
L 66.682707 80.812304 
L 70.648221 76.015473 
L 74.613734 71.592696 
L 78.579248 67.551843 
L 81.751659 64.598696 
L 84.92407 61.89719 
L 88.096481 59.449728 
L 91.268892 57.258218 
L 94.441303 55.324072 
L 97.613714 53.648197 
L 100.786125 52.231003 
L 103.958536 51.072393 
L 107.130947 50.171768 
L 110.303358 49.528028 
L 113.475769 49.139572 
L 116.64818 49.004302 
L 119.820591 49.119629 
L 122.993003 49.482476 
L 126.165414 50.089284 
L 129.337825 50.93602 
L 132.510236 52.018183 
L 135.682647 53.330816 
L 138.855058 54.868511 
L 142.027469 56.625426 
L 145.19988 58.595288 
L 149.165393 61.34685 
L 153.130907 64.406735 
L 157.096421 67.760069 
L 161.061935 71.391089 
L 165.820551 76.091419 
L 170.579168 81.137463 
L 175.337784 86.497513 
L 180.889504 93.103565 
L 187.234326 101.051311 
L 194.372251 110.398559 
L 203.096381 122.231109 
L 231.64808 161.309135 
L 238.786005 170.495534 
L 244.337724 177.312308 
L 249.889444 183.780559 
L 254.64806 189.006526 
L 259.406677 193.904367 
L 264.165293 198.44302 
L 268.130807 201.929526 
L 272.096321 205.12992 
L 276.061835 208.028903 
L 280.027348 210.612091 
L 283.199759 212.442217 
L 286.37217 214.055211 
L 289.544581 215.445082 
L 292.716992 216.606275 
L 295.889404 217.533678 
L 299.061815 218.222632 
L 302.234226 218.668945 
L 305.406637 218.868897 
L 308.579048 218.819244 
L 311.751459 218.517231 
L 314.92387 217.960593 
L 318.096281 217.147559 
L 321.268692 216.076858 
L 323.648 215.104256 
L 323.648 215.104256 
" clip-path="url(#p0a1ff520ed)" style="fill: none; stroke: #1f77b4; stroke-width: 2.4; stroke-linecap: square"/>
   </g>
   <g id="text_1">
    <!-- $a$ -->
    <g transform="translate(26.126 188.185013) scale(0.1 -0.1)">
     <defs>
      <path id="Cmmi10-61" d="M 1113 -72 
Q 709 -72 476 233 
Q 244 538 244 953 
Q 244 1363 456 1803 
Q 669 2244 1030 2536 
Q 1391 2828 1806 2828 
Q 1997 2828 2147 2725 
Q 2297 2622 2381 2444 
Q 2453 2700 2663 2700 
Q 2744 2700 2798 2651 
Q 2853 2603 2853 2522 
Q 2853 2503 2851 2493 
Q 2850 2484 2847 2472 
L 2400 684 
Q 2356 494 2356 372 
Q 2356 97 2541 97 
Q 2741 97 2845 351 
Q 2950 606 3022 941 
Q 3034 978 3072 978 
L 3150 978 
Q 3175 978 3190 956 
Q 3206 934 3206 916 
Q 3094 469 2961 198 
Q 2828 -72 2528 -72 
Q 2313 -72 2147 54 
Q 1981 181 1941 391 
Q 1528 -72 1113 -72 
z
M 1119 97 
Q 1350 97 1567 270 
Q 1784 444 1941 678 
Q 1947 684 1947 697 
L 2291 2088 
L 2297 2106 
Q 2259 2334 2132 2498 
Q 2006 2663 1791 2663 
Q 1575 2663 1389 2486 
Q 1203 2309 1075 2069 
Q 950 1813 836 1366 
Q 722 919 722 672 
Q 722 450 817 273 
Q 913 97 1119 97 
z
" transform="scale(0.015625)"/>
     </defs>
     <use xlink:href="#Cmmi10-61" transform="translate(0 0.8125)"/>
    </g>
   </g>
   <g id="text_2">
    <!-- $b$ -->
    <g transform="translate(285.538 259.492616) scale(0.1 -0.1)">
     <defs>
      <path id="Cmmi10-62" d="M 1106 -72 
Q 719 -72 503 231 
Q 288 534 288 941 
Q 288 1000 317 1173 
Q 347 1347 347 1388 
L 966 3872 
Q 991 3981 997 4044 
Q 997 4147 581 4147 
Q 519 4147 519 4231 
Q 522 4247 533 4287 
Q 544 4328 561 4350 
Q 578 4372 609 4372 
L 1472 4441 
Q 1550 4441 1550 4359 
L 1075 2472 
Q 1438 2828 1806 2828 
Q 2078 2828 2273 2684 
Q 2469 2541 2566 2306 
Q 2663 2072 2663 1806 
Q 2663 1497 2542 1167 
Q 2422 838 2209 555 
Q 1997 272 1712 100 
Q 1428 -72 1106 -72 
z
M 1119 97 
Q 1338 97 1528 280 
Q 1719 463 1838 691 
Q 1966 947 2077 1386 
Q 2188 1825 2188 2088 
Q 2188 2316 2092 2489 
Q 1997 2663 1791 2663 
Q 1559 2663 1348 2492 
Q 1138 2322 978 2088 
L 800 1363 
Q 697 959 691 716 
Q 691 475 795 286 
Q 900 97 1119 97 
z
" transform="scale(0.015625)"/>
     </defs>
     <use xlink:href="#Cmmi10-62" transform="translate(0 0.609375)"/>
    </g>
   </g>
   <g id="text_3">
    <!-- $\xi$ -->
    <g style="fill: #ff7f0e" transform="translate(125.453581 26.778416) scale(0.12 -0.12)">
     <defs>
      <path id="Cmmi10-bb" d="M 1044 -997 
Q 1053 -922 1131 -922 
Q 1138 -922 1252 -984 
Q 1366 -1047 1503 -1097 
Q 1641 -1147 1778 -1147 
Q 1897 -1147 1978 -1045 
Q 2059 -944 2059 -825 
Q 2059 -656 1881 -588 
L 794 -166 
Q 513 -56 330 161 
Q 147 378 147 653 
Q 147 900 278 1167 
Q 409 1434 615 1651 
Q 822 1869 1056 2003 
Q 869 2116 764 2292 
Q 659 2469 659 2681 
Q 659 2906 751 3100 
Q 844 3294 1003 3453 
Q 1163 3613 1359 3723 
Q 1556 3834 1759 3891 
Q 1728 4022 1728 4128 
Q 1728 4475 1863 4475 
Q 1897 4475 1922 4450 
Q 1947 4425 1947 4391 
Q 1947 4359 1930 4253 
Q 1913 4147 1913 4122 
Q 1913 4013 1941 3928 
Q 2106 3963 2259 3963 
Q 2847 3963 2847 3781 
Q 2847 3566 2194 3566 
Q 1994 3566 1869 3700 
Q 1684 3606 1528 3434 
Q 1372 3263 1284 3052 
Q 1197 2841 1197 2625 
Q 1197 2325 1369 2144 
Q 1597 2222 1825 2222 
Q 2413 2222 2413 2041 
Q 2413 1825 1759 1825 
Q 1494 1825 1259 1906 
Q 975 1753 737 1440 
Q 500 1128 500 838 
Q 500 650 636 508 
Q 772 366 972 281 
L 2106 -159 
Q 2253 -216 2345 -339 
Q 2438 -463 2438 -622 
Q 2438 -884 2236 -1098 
Q 2034 -1313 1772 -1313 
Q 1691 -1313 1506 -1269 
Q 1322 -1225 1183 -1153 
Q 1044 -1081 1044 -997 
z
M 1563 2022 
Q 1647 1991 1772 1991 
Q 2081 1991 2216 2028 
Q 2094 2053 1819 2053 
Q 1709 2053 1563 2022 
z
M 2053 3769 
Q 2109 3731 2209 3731 
Q 2516 3731 2650 3769 
L 2053 3769 
z
" transform="scale(0.015625)"/>
     </defs>
     <use xlink:href="#Cmmi10-bb" transform="translate(0 0.078125)"/>
    </g>
   </g>
   <g id="text_4">
    <!-- secant -->
    <g style="fill: #7f7f7f" transform="translate(164.846906 161.859897) scale(0.09 -0.09)">
     <defs>
      <path id="DejaVuSans-73" d="M 2834 3397 
L 2834 2853 
Q 2591 2978 2328 3040 
Q 2066 3103 1784 3103 
Q 1356 3103 1142 2972 
Q 928 2841 928 2578 
Q 928 2378 1081 2264 
Q 1234 2150 1697 2047 
L 1894 2003 
Q 2506 1872 2764 1633 
Q 3022 1394 3022 966 
Q 3022 478 2636 193 
Q 2250 -91 1575 -91 
Q 1294 -91 989 -36 
Q 684 19 347 128 
L 347 722 
Q 666 556 975 473 
Q 1284 391 1588 391 
Q 1994 391 2212 530 
Q 2431 669 2431 922 
Q 2431 1156 2273 1281 
Q 2116 1406 1581 1522 
L 1381 1569 
Q 847 1681 609 1914 
Q 372 2147 372 2553 
Q 372 3047 722 3315 
Q 1072 3584 1716 3584 
Q 2034 3584 2315 3537 
Q 2597 3491 2834 3397 
z
" transform="scale(0.015625)"/>
      <path id="DejaVuSans-65" d="M 3597 1894 
L 3597 1613 
L 953 1613 
Q 991 1019 1311 708 
Q 1631 397 2203 397 
Q 2534 397 2845 478 
Q 3156 559 3463 722 
L 3463 178 
Q 3153 47 2828 -22 
Q 2503 -91 2169 -91 
Q 1331 -91 842 396 
Q 353 884 353 1716 
Q 353 2575 817 3079 
Q 1281 3584 2069 3584 
Q 2775 3584 3186 3129 
Q 3597 2675 3597 1894 
z
M 3022 2063 
Q 3016 2534 2758 2815 
Q 2500 3097 2075 3097 
Q 1594 3097 1305 2825 
Q 1016 2553 972 2059 
L 3022 2063 
z
" transform="scale(0.015625)"/>
      <path id="DejaVuSans-63" d="M 3122 3366 
L 3122 2828 
Q 2878 2963 2633 3030 
Q 2388 3097 2138 3097 
Q 1578 3097 1268 2742 
Q 959 2388 959 1747 
Q 959 1106 1268 751 
Q 1578 397 2138 397 
Q 2388 397 2633 464 
Q 2878 531 3122 666 
L 3122 134 
Q 2881 22 2623 -34 
Q 2366 -91 2075 -91 
Q 1284 -91 818 406 
Q 353 903 353 1747 
Q 353 2603 823 3093 
Q 1294 3584 2113 3584 
Q 2378 3584 2631 3529 
Q 2884 3475 3122 3366 
z
" transform="scale(0.015625)"/>
      <path id="DejaVuSans-61" d="M 2194 1759 
Q 1497 1759 1228 1600 
Q 959 1441 959 1056 
Q 959 750 1161 570 
Q 1363 391 1709 391 
Q 2188 391 2477 730 
Q 2766 1069 2766 1631 
L 2766 1759 
L 2194 1759 
z
M 3341 1997 
L 3341 0 
L 2766 0 
L 2766 531 
Q 2569 213 2275 61 
Q 1981 -91 1556 -91 
Q 1019 -91 701 211 
Q 384 513 384 1019 
Q 384 1609 779 1909 
Q 1175 2209 1959 2209 
L 2766 2209 
L 2766 2266 
Q 2766 2663 2505 2880 
Q 2244 3097 1772 3097 
Q 1472 3097 1187 3025 
Q 903 2953 641 2809 
L 641 3341 
Q 956 3463 1253 3523 
Q 1550 3584 1831 3584 
Q 2591 3584 2966 3190 
Q 3341 2797 3341 1997 
z
" transform="scale(0.015625)"/>
      <path id="DejaVuSans-6e" d="M 3513 2113 
L 3513 0 
L 2938 0 
L 2938 2094 
Q 2938 2591 2744 2837 
Q 2550 3084 2163 3084 
Q 1697 3084 1428 2787 
Q 1159 2491 1159 1978 
L 1159 0 
L 581 0 
L 581 3500 
L 1159 3500 
L 1159 2956 
Q 1366 3272 1645 3428 
Q 1925 3584 2291 3584 
Q 2894 3584 3203 3211 
Q 3513 2838 3513 2113 
z
" transform="scale(0.015625)"/>
      <path id="DejaVuSans-74" d="M 1172 4494 
L 1172 3500 
L 2356 3500 
L 2356 3053 
L 1172 3053 
L 1172 1153 
Q 1172 725 1289 603 
Q 1406 481 1766 481 
L 2356 481 
L 2356 0 
L 1766 0 
Q 1100 0 847 248 
Q 594 497 594 1153 
L 594 3053 
L 172 3053 
L 172 3500 
L 594 3500 
L 594 4494 
L 1172 4494 
z
" transform="scale(0.015625)"/>
     </defs>
     <use xlink:href="#DejaVuSans-73"/>
     <use xlink:href="#DejaVuSans-65" transform="translate(52.099609 0)"/>
     <use xlink:href="#DejaVuSans-63" transform="translate(113.623047 0)"/>
     <use xlink:href="#DejaVuSans-61" transform="translate(168.603516 0)"/>
     <use xlink:href="#DejaVuSans-6e" transform="translate(229.882812 0)"/>
     <use xlink:href="#DejaVuSans-74" transform="translate(293.261719 0)"/>
    </g>
   </g>
   <g id="line2d_3">
    <path d="M 7.2 17.28 
L 323.648 104.433737 
L 323.648 104.433737 
" clip-path="url(#p0a1ff520ed)" style="fill: none; stroke-dasharray: 7.4,3.2; stroke-dashoffset: 0; stroke: #ff7f0e; stroke-width: 2"/>
   </g>
   <g id="line2d_4">
    <defs>
     <path id="m419cd5582a" d="M 0 2.5 
C 0.663008 2.5 1.29895 2.236584 1.767767 1.767767 
C 2.236584 1.29895 2.5 0.663008 2.5 0 
C 2.5 -0.663008 2.236584 -1.29895 1.767767 -1.767767 
C 1.29895 -2.236584 0.663008 -2.5 0 -2.5 
C -0.663008 -2.5 -1.29895 -2.236584 -1.767767 -1.767767 
C -2.236584 -1.29895 -2.5 -0.663008 -2.5 0 
C -2.5 0.663008 -2.236584 1.29895 -1.767767 1.767767 
C -1.29895 2.236584 -0.663008 2.5 0 2.5 
z
" style="stroke: #000000"/>
    </defs>
    <g clip-path="url(#p0a1ff520ed)">
     <use xlink:href="#m419cd5582a" x="28.776" y="143.351497" style="stroke: #000000"/>
    </g>
   </g>
   <g id="line2d_5">
    <g clip-path="url(#p0a1ff520ed)">
     <use xlink:href="#m419cd5582a" x="287.688" y="214.659099" style="stroke: #000000"/>
    </g>
   </g>
   <g id="line2d_6">
    <defs>
     <path id="m5d3d54e168" d="M 0 3 
C 0.795609 3 1.55874 2.683901 2.12132 2.12132 
C 2.683901 1.55874 3 0.795609 3 0 
C 3 -0.795609 2.683901 -1.55874 2.12132 -2.12132 
C 1.55874 -2.683901 0.795609 -3 0 -3 
C -0.795609 -3 -1.55874 -2.683901 -2.12132 -2.12132 
C -2.683901 -1.55874 -3 -0.795609 -3 0 
C -3 0.795609 -2.683901 1.55874 -2.12132 2.12132 
C -1.55874 2.683901 -0.795609 3 0 3 
z
" style="stroke: #ff7f0e"/>
    </defs>
    <g clip-path="url(#p0a1ff520ed)">
     <use xlink:href="#m5d3d54e168" x="128.093581" y="50.575604" style="fill: #ff7f0e; stroke: #ff7f0e"/>
    </g>
   </g>
  </g>
 </g>
 <defs>
  <clipPath id="p0a1ff520ed">
   <rect x="7.2" y="7.2" width="323.64" height="221.76"/>
  </clipPath>
 </defs>
</svg>
