<?xml version="1.0" encoding="utf-8" standalone="no"?>
<!DOCTYPE svg PUBLIC "-//W3C//DTD SVG 1.1//EN"
  "http://www.w3.org/Graphics/SVG/1.1/DTD/svg11.dtd">
<svg xmlns:xlink="http://www.w3.org/1999/xlink" width="538.92pt" height="235.212243pt" viewBox="0 0 538.92 235.212243" xmlns="http://www.w3.org/2000/svg" version="1.1">
 <metadata>
  <rdf:RDF xmlns:dc="http://purl.org/dc/elements/1.1/" xmlns:cc="http://creativecommons.org/ns#" xmlns:rdf="http://www.w3.org/1999/02/22-rdf-syntax-ns#">
   <cc:Work>
    <dc:type rdf:resource="http://purl.org/dc/dcmitype/StillImage"/>
    <dc:format>image/svg+xml</dc:format>
    <dc:creator>
     <cc:Agent>
      <dc:title>Matplotlib v3.10.8, https://matplotlib.org/</dc:title>
     </cc:Agent>
    </dc:creator>
   </cc:Work>
  </rdf:RDF>
 </metadata>
 <defs>
  <style type="text/css">*{stroke-linejoin: round; stroke-linecap: butt}</style>
 </defs>
 <g id="figure_1">
  <g id="patch_1">
   <path d="M 0 235.212243 
L 538.92 235.212243 
L 538.92 -0 
L 0 -0 
z
" style="fill: #ffffff"/>
  </g>
  <g id="axes_1">
   <g id="patch_2">
    <path d="M 39.924064 190.613312 
L 86.672727 190.613312 
L 86.672727 143.864649 
L 39.924064 143.864649 
z
" clip-path="url(#p8b8ba17cfe)" style="fill: #2ca02c; opacity: 0.18"/>
   </g>
   <g id="line2d_1">
    <path d="M 39.924064 190.613312 
L 39.924064 50.367323 
L 39.924064 50.367323 
" clip-path="url(#p8b8ba17cfe)" style="fill: none; stroke: #cfcfcf; stroke-linecap: square"/>
   </g>
   <g id="line2d_2">
    <path d="M 86.672727 190.613312 
L 86.672727 50.367323 
L 86.672727 50.367323 
" clip-path="url(#p8b8ba17cfe)" style="fill: none; stroke: #cfcfcf; stroke-linecap: square"/>
   </g>
   <g id="line2d_3">
    <path d="M 133.42139 190.613312 
L 133.42139 50.367323 
L 133.42139 50.367323 
" clip-path="url(#p8b8ba17cfe)" style="fill: none; stroke: #cfcfcf; stroke-linecap: square"/>
   </g>
   <g id="line2d_4">
    <path d="M 180.170053 190.613312 
L 180.170053 50.367323 
L 180.170053 50.367323 
" clip-path="url(#p8b8ba17cfe)" style="fill: none; stroke: #cfcfcf; stroke-linecap: square"/>
   </g>
   <g id="line2d_5">
    <path d="M 39.924064 190.613312 
L 180.170053 190.613312 
L 180.170053 190.613312 
" clip-path="url(#p8b8ba17cfe)" style="fill: none; stroke: #cfcfcf; stroke-linecap: square"/>
   </g>
   <g id="line2d_6">
    <path d="M 39.924064 143.864649 
L 180.170053 143.864649 
L 180.170053 143.864649 
" clip-path="url(#p8b8ba17cfe)" style="fill: none; stroke: #cfcfcf; stroke-linecap: square"/>
   </g>
   <g id="line2d_7">
    <path d="M 39.924064 97.115986 
L 180.170053 97.115986 
L 180.170053 97.115986 
" clip-path="url(#p8b8ba17cfe)" style="fill: none; stroke: #cfcfcf; stroke-linecap: square"/>
   </g>
   <g id="line2d_8">
    <path d="M 39.924064 50.367323 
L 180.170053 50.367323 
L 180.170053 50.367323 
" clip-path="url(#p8b8ba17cfe)" style="fill: none; stroke: #cfcfcf; stroke-linecap: square"/>
   </g>
   <g id="line2d_9">
    <path d="M 23.562032 190.613312 
L 203.544385 190.613312 
" clip-path="url(#p8b8ba17cfe)" style="fill: none; stroke: #2ca02c; stroke-opacity: 0.85; stroke-width: 3; stroke-linecap: round"/>
   </g>
   <g id="patch_3">
    <path d="M 39.924064 190.613312 
Q 63.298396 190.613312 84.213052 190.613312 
" style="fill: none; stroke: #1f77b4; stroke-width: 2.2; stroke-linecap: round"/>
    <path d="M 78.613052 187.813312 
L 84.213052 190.613312 
L 78.613052 193.413312 
" style="fill: none; stroke: #1f77b4; stroke-width: 2.2; stroke-linecap: round"/>
   </g>
   <g id="patch_4">
    <path d="M 39.924064 190.613312 
Q 39.924064 167.238981 39.924064 146.324324 
" style="fill: none; stroke: #ff7f0e; stroke-width: 2.2; stroke-linecap: round"/>
    <path d="M 37.124064 151.924324 
L 39.924064 146.324324 
L 42.724064 151.924324 
" style="fill: none; stroke: #ff7f0e; stroke-width: 2.2; stroke-linecap: round"/>
   </g>
   <g id="text_1">
    <!-- $\mathbf{e}_1$ -->
    <g style="fill: #1f77b4" transform="translate(81.557727 209.54317) scale(0.11 -0.11)">
     <defs>
      <path id="Cmb10-65" d="M 178 1441 
Q 178 1856 350 2189 
Q 522 2522 842 2711 
Q 1163 2900 1581 2900 
Q 2003 2900 2275 2726 
Q 2547 2553 2675 2242 
Q 2803 1931 2803 1522 
Q 2803 1428 2700 1394 
L 1025 1394 
Q 1025 1078 1070 829 
Q 1116 581 1275 412 
Q 1434 244 1741 244 
Q 2000 244 2208 394 
Q 2416 544 2484 788 
Q 2519 847 2578 863 
L 2700 863 
Q 2803 841 2803 750 
Q 2803 744 2797 709 
Q 2722 475 2553 308 
Q 2384 141 2150 51 
Q 1916 -38 1672 -38 
Q 1347 -38 1072 67 
Q 797 172 597 367 
Q 397 563 287 836 
Q 178 1109 178 1441 
z
M 1025 1631 
L 2169 1631 
Q 2169 1869 2120 2095 
Q 2072 2322 1940 2483 
Q 1809 2644 1581 2644 
Q 1250 2644 1137 2341 
Q 1025 2038 1025 1631 
z
" transform="scale(0.015625)"/>
      <path id="Cmr10-31" d="M 594 0 
L 594 225 
Q 1394 225 1394 428 
L 1394 3788 
Q 1063 3628 556 3628 
L 556 3853 
Q 1341 3853 1741 4263 
L 1831 4263 
Q 1853 4263 1873 4245 
Q 1894 4228 1894 4206 
L 1894 428 
Q 1894 225 2694 225 
L 2694 0 
L 594 0 
z
" transform="scale(0.015625)"/>
     </defs>
     <use xlink:href="#Cmb10-65" transform="translate(0 0.6875)"/>
     <use xlink:href="#Cmr10-31" transform="translate(51.046172 -16.31875) scale(0.7)"/>
    </g>
   </g>
   <g id="text_2">
    <!-- $\mathbf{e}_2$ -->
    <g style="fill: #ff7f0e" transform="translate(18.447032 146.899962) scale(0.11 -0.11)">
     <defs>
      <path id="Cmr10-32" d="M 319 0 
L 319 172 
Q 319 188 331 206 
L 1325 1306 
Q 1550 1550 1690 1715 
Q 1831 1881 1968 2097 
Q 2106 2313 2186 2536 
Q 2266 2759 2266 3009 
Q 2266 3272 2169 3511 
Q 2072 3750 1880 3894 
Q 1688 4038 1416 4038 
Q 1138 4038 916 3870 
Q 694 3703 603 3438 
Q 628 3444 672 3444 
Q 816 3444 917 3347 
Q 1019 3250 1019 3097 
Q 1019 2950 917 2848 
Q 816 2747 672 2747 
Q 522 2747 420 2851 
Q 319 2956 319 3097 
Q 319 3338 409 3548 
Q 500 3759 670 3923 
Q 841 4088 1055 4175 
Q 1269 4263 1509 4263 
Q 1875 4263 2190 4108 
Q 2506 3953 2690 3670 
Q 2875 3388 2875 3009 
Q 2875 2731 2753 2481 
Q 2631 2231 2440 2026 
Q 2250 1822 1953 1562 
Q 1656 1303 1563 1216 
L 838 519 
L 1453 519 
Q 1906 519 2211 526 
Q 2516 534 2534 550 
Q 2609 631 2688 1141 
L 2875 1141 
L 2694 0 
L 319 0 
z
" transform="scale(0.015625)"/>
     </defs>
     <use xlink:href="#Cmb10-65" transform="translate(0 0.6875)"/>
     <use xlink:href="#Cmr10-32" transform="translate(51.046172 -16.31875) scale(0.7)"/>
    </g>
   </g>
   <g id="text_3">
    <!-- (a) original grid -->
    <g transform="translate(80.058153 16.318125) scale(0.12 -0.12)">
     <defs>
      <path id="DejaVuSans-28" d="M 1984 4856 
Q 1566 4138 1362 3434 
Q 1159 2731 1159 2009 
Q 1159 1288 1364 580 
Q 1569 -128 1984 -844 
L 1484 -844 
Q 1016 -109 783 600 
Q 550 1309 550 2009 
Q 550 2706 781 3412 
Q 1013 4119 1484 4856 
L 1984 4856 
z
" transform="scale(0.015625)"/>
      <path id="DejaVuSans-61" d="M 2194 1759 
Q 1497 1759 1228 1600 
Q 959 1441 959 1056 
Q 959 750 1161 570 
Q 1363 391 1709 391 
Q 2188 391 2477 730 
Q 2766 1069 2766 1631 
L 2766 1759 
L 2194 1759 
z
M 3341 1997 
L 3341 0 
L 2766 0 
L 2766 531 
Q 2569 213 2275 61 
Q 1981 -91 1556 -91 
Q 1019 -91 701 211 
Q 384 513 384 1019 
Q 384 1609 779 1909 
Q 1175 2209 1959 2209 
L 2766 2209 
L 2766 2266 
Q 2766 2663 2505 2880 
Q 2244 3097 1772 3097 
Q 1472 3097 1187 3025 
Q 903 2953 641 2809 
L 641 3341 
Q 956 3463 1253 3523 
Q 1550 3584 1831 3584 
Q 2591 3584 2966 3190 
Q 3341 2797 3341 1997 
z
" transform="scale(0.015625)"/>
      <path id="DejaVuSans-29" d="M 513 4856 
L 1013 4856 
Q 1481 4119 1714 3412 
Q 1947 2706 1947 2009 
Q 1947 1309 1714 600 
Q 1481 -109 1013 -844 
L 513 -844 
Q 928 -128 1133 580 
Q 1338 1288 1338 2009 
Q 1338 2731 1133 3434 
Q 928 4138 513 4856 
z
" transform="scale(0.015625)"/>
      <path id="DejaVuSans-20" transform="scale(0.015625)"/>
      <path id="DejaVuSans-6f" d="M 1959 3097 
Q 1497 3097 1228 2736 
Q 959 2375 959 1747 
Q 959 1119 1226 758 
Q 1494 397 1959 397 
Q 2419 397 2687 759 
Q 2956 1122 2956 1747 
Q 2956 2369 2687 2733 
Q 2419 3097 1959 3097 
z
M 1959 3584 
Q 2709 3584 3137 3096 
Q 3566 2609 3566 1747 
Q 3566 888 3137 398 
Q 2709 -91 1959 -91 
Q 1206 -91 779 398 
Q 353 888 353 1747 
Q 353 2609 779 3096 
Q 1206 3584 1959 3584 
z
" transform="scale(0.015625)"/>
      <path id="DejaVuSans-72" d="M 2631 2963 
Q 2534 3019 2420 3045 
Q 2306 3072 2169 3072 
Q 1681 3072 1420 2755 
Q 1159 2438 1159 1844 
L 1159 0 
L 581 0 
L 581 3500 
L 1159 3500 
L 1159 2956 
Q 1341 3275 1631 3429 
Q 1922 3584 2338 3584 
Q 2397 3584 2469 3576 
Q 2541 3569 2628 3553 
L 2631 2963 
z
" transform="scale(0.015625)"/>
      <path id="DejaVuSans-69" d="M 603 3500 
L 1178 3500 
L 1178 0 
L 603 0 
L 603 3500 
z
M 603 4863 
L 1178 4863 
L 1178 4134 
L 603 4134 
L 603 4863 
z
" transform="scale(0.015625)"/>
      <path id="DejaVuSans-67" d="M 2906 1791 
Q 2906 2416 2648 2759 
Q 2391 3103 1925 3103 
Q 1463 3103 1205 2759 
Q 947 2416 947 1791 
Q 947 1169 1205 825 
Q 1463 481 1925 481 
Q 2391 481 2648 825 
Q 2906 1169 2906 1791 
z
M 3481 434 
Q 3481 -459 3084 -895 
Q 2688 -1331 1869 -1331 
Q 1566 -1331 1297 -1286 
Q 1028 -1241 775 -1147 
L 775 -588 
Q 1028 -725 1275 -790 
Q 1522 -856 1778 -856 
Q 2344 -856 2625 -561 
Q 2906 -266 2906 331 
L 2906 616 
Q 2728 306 2450 153 
Q 2172 0 1784 0 
Q 1141 0 747 490 
Q 353 981 353 1791 
Q 353 2603 747 3093 
Q 1141 3584 1784 3584 
Q 2172 3584 2450 3431 
Q 2728 3278 2906 2969 
L 2906 3500 
L 3481 3500 
L 3481 434 
z
" transform="scale(0.015625)"/>
      <path id="DejaVuSans-6e" d="M 3513 2113 
L 3513 0 
L 2938 0 
L 2938 2094 
Q 2938 2591 2744 2837 
Q 2550 3084 2163 3084 
Q 1697 3084 1428 2787 
Q 1159 2491 1159 1978 
L 1159 0 
L 581 0 
L 581 3500 
L 1159 3500 
L 1159 2956 
Q 1366 3272 1645 3428 
Q 1925 3584 2291 3584 
Q 2894 3584 3203 3211 
Q 3513 2838 3513 2113 
z
" transform="scale(0.015625)"/>
      <path id="DejaVuSans-6c" d="M 603 4863 
L 1178 4863 
L 1178 0 
L 603 0 
L 603 4863 
z
" transform="scale(0.015625)"/>
      <path id="DejaVuSans-64" d="M 2906 2969 
L 2906 4863 
L 3481 4863 
L 3481 0 
L 2906 0 
L 2906 525 
Q 2725 213 2448 61 
Q 2172 -91 1784 -91 
Q 1150 -91 751 415 
Q 353 922 353 1747 
Q 353 2572 751 3078 
Q 1150 3584 1784 3584 
Q 2172 3584 2448 3432 
Q 2725 3281 2906 2969 
z
M 947 1747 
Q 947 1113 1208 752 
Q 1469 391 1925 391 
Q 2381 391 2643 752 
Q 2906 1113 2906 1747 
Q 2906 2381 2643 2742 
Q 2381 3103 1925 3103 
Q 1469 3103 1208 2742 
Q 947 2381 947 1747 
z
" transform="scale(0.015625)"/>
     </defs>
     <use xlink:href="#DejaVuSans-28"/>
     <use xlink:href="#DejaVuSans-61" transform="translate(39.013672 0)"/>
     <use xlink:href="#DejaVuSans-29" transform="translate(100.292969 0)"/>
     <use xlink:href="#DejaVuSans-20" transform="translate(139.306641 0)"/>
     <use xlink:href="#DejaVuSans-6f" transform="translate(171.09375 0)"/>
     <use xlink:href="#DejaVuSans-72" transform="translate(232.275391 0)"/>
     <use xlink:href="#DejaVuSans-69" transform="translate(273.388672 0)"/>
     <use xlink:href="#DejaVuSans-67" transform="translate(301.171875 0)"/>
     <use xlink:href="#DejaVuSans-69" transform="translate(364.648438 0)"/>
     <use xlink:href="#DejaVuSans-6e" transform="translate(392.431641 0)"/>
     <use xlink:href="#DejaVuSans-61" transform="translate(455.810547 0)"/>
     <use xlink:href="#DejaVuSans-6c" transform="translate(517.089844 0)"/>
     <use xlink:href="#DejaVuSans-20" transform="translate(544.873047 0)"/>
     <use xlink:href="#DejaVuSans-67" transform="translate(576.660156 0)"/>
     <use xlink:href="#DejaVuSans-72" transform="translate(640.136719 0)"/>
     <use xlink:href="#DejaVuSans-69" transform="translate(681.25 0)"/>
     <use xlink:href="#DejaVuSans-64" transform="translate(709.033203 0)"/>
    </g>
   </g>
  </g>
  <g id="axes_2">
   <g id="patch_5">
    <path d="M 315.554182 169.669911 
L 347.343273 169.669911 
L 379.132364 137.88082 
L 347.343273 137.88082 
z
" clip-path="url(#p7d88756103)" style="fill: #2ca02c; opacity: 0.18"/>
   </g>
   <g id="line2d_10">
    <path d="M 315.554182 169.669911 
L 410.921455 74.302638 
L 410.921455 74.302638 
" clip-path="url(#p7d88756103)" style="fill: none; stroke: #cfcfcf; stroke-linecap: square"/>
   </g>
   <g id="line2d_11">
    <path d="M 347.343273 169.669911 
L 442.710545 74.302638 
L 442.710545 74.302638 
" clip-path="url(#p7d88756103)" style="fill: none; stroke: #cfcfcf; stroke-linecap: square"/>
   </g>
   <g id="line2d_12">
    <path d="M 379.132364 169.669911 
L 474.499636 74.302638 
L 474.499636 74.302638 
" clip-path="url(#p7d88756103)" style="fill: none; stroke: #cfcfcf; stroke-linecap: square"/>
   </g>
   <g id="line2d_13">
    <path d="M 410.921455 169.669911 
L 506.288727 74.302638 
L 506.288727 74.302638 
" clip-path="url(#p7d88756103)" style="fill: none; stroke: #cfcfcf; stroke-linecap: square"/>
   </g>
   <g id="line2d_14">
    <path d="M 315.554182 169.669911 
L 410.921455 169.669911 
L 410.921455 169.669911 
" clip-path="url(#p7d88756103)" style="fill: none; stroke: #cfcfcf; stroke-linecap: square"/>
   </g>
   <g id="line2d_15">
    <path d="M 347.343273 137.88082 
L 442.710545 137.88082 
L 442.710545 137.88082 
" clip-path="url(#p7d88756103)" style="fill: none; stroke: #cfcfcf; stroke-linecap: square"/>
   </g>
   <g id="line2d_16">
    <path d="M 379.132364 106.091729 
L 474.499636 106.091729 
L 474.499636 106.091729 
" clip-path="url(#p7d88756103)" style="fill: none; stroke: #cfcfcf; stroke-linecap: square"/>
   </g>
   <g id="line2d_17">
    <path d="M 410.921455 74.302638 
L 506.288727 74.302638 
L 506.288727 74.302638 
" clip-path="url(#p7d88756103)" style="fill: none; stroke: #cfcfcf; stroke-linecap: square"/>
   </g>
   <g id="line2d_18">
    <path d="M 304.428 169.669911 
L 522.183273 169.669911 
" clip-path="url(#p7d88756103)" style="fill: none; stroke: #2ca02c; stroke-opacity: 0.85; stroke-width: 3; stroke-linecap: round"/>
   </g>
   <g id="patch_6">
    <path d="M 315.554182 169.669911 
Q 331.448727 169.669911 344.659991 169.669911 
" style="fill: none; stroke: #1f77b4; stroke-width: 2.4; stroke-linecap: round"/>
    <path d="M 339.059991 166.869911 
L 344.659991 169.669911 
L 339.059991 172.469911 
" style="fill: none; stroke: #1f77b4; stroke-width: 2.4; stroke-linecap: round"/>
   </g>
   <g id="patch_7">
    <path d="M 315.554182 169.669911 
Q 331.448727 153.775366 345.445906 139.778187 
" style="fill: none; stroke: #ff7f0e; stroke-width: 2.4; stroke-linecap: round"/>
    <path d="M 339.506209 141.758086 
L 345.445906 139.778187 
L 343.466007 145.717884 
" style="fill: none; stroke: #ff7f0e; stroke-width: 2.4; stroke-linecap: round"/>
   </g>
   <g id="text_4">
    <!-- $\mathbf{A}\mathbf{e}_1=\mathbf{e}_1$ -->
    <g style="fill: #1f77b4" transform="translate(337.899455 184.785078) scale(0.11 -0.11)">
     <defs>
      <path id="Cmb10-41" d="M 225 0 
L 225 325 
Q 775 325 794 384 
L 2181 4353 
Q 2228 4469 2344 4469 
L 2491 4469 
Q 2541 4469 2586 4436 
Q 2631 4403 2650 4353 
L 4056 325 
L 4609 325 
L 4609 0 
L 2578 0 
L 2578 325 
L 3103 325 
L 2822 1131 
L 1441 1131 
L 1184 378 
Q 1184 325 1684 325 
L 1684 0 
L 225 0 
z
M 1556 1459 
L 2706 1459 
L 2131 3103 
L 1556 1459 
z
" transform="scale(0.015625)"/>
      <path id="Cmr10-3d" d="M 481 850 
Q 428 850 393 890 
Q 359 931 359 978 
Q 359 1031 393 1068 
Q 428 1106 481 1106 
L 4500 1106 
Q 4547 1106 4581 1068 
Q 4616 1031 4616 978 
Q 4616 931 4581 890 
Q 4547 850 4500 850 
L 481 850 
z
M 481 2094 
Q 428 2094 393 2131 
Q 359 2169 359 2222 
Q 359 2269 393 2309 
Q 428 2350 481 2350 
L 4500 2350 
Q 4547 2350 4581 2309 
Q 4616 2269 4616 2222 
Q 4616 2169 4581 2131 
Q 4547 2094 4500 2094 
L 481 2094 
z
" transform="scale(0.015625)"/>
     </defs>
     <use xlink:href="#Cmb10-41" transform="translate(0 0.171875)"/>
     <use xlink:href="#Cmb10-65" transform="translate(75.488281 0.171875)"/>
     <use xlink:href="#Cmr10-31" transform="translate(126.534453 -16.834375) scale(0.7)"/>
     <use xlink:href="#Cmr10-3d" transform="translate(185.470391 0.171875)"/>
     <use xlink:href="#Cmb10-65" transform="translate(280.714531 0.171875)"/>
     <use xlink:href="#Cmr10-31" transform="translate(331.760703 -16.834375) scale(0.7)"/>
    </g>
   </g>
   <g id="text_5">
    <!-- $\mathbf{A}\mathbf{e}_2$ -->
    <g style="fill: #ff7f0e" transform="translate(342.871636 132.015187) scale(0.11 -0.11)">
     <use xlink:href="#Cmb10-41" transform="translate(0 0.171875)"/>
     <use xlink:href="#Cmb10-65" transform="translate(75.488281 0.171875)"/>
     <use xlink:href="#Cmr10-32" transform="translate(126.534453 -16.834375) scale(0.7)"/>
    </g>
   </g>
   <g id="text_6">
    <!-- eigenspace of $\lambda=1$ -->
    <g style="fill: #2ca02c" transform="translate(426.053227 162.109902) scale(0.095 -0.095)">
     <defs>
      <path id="DejaVuSans-65" d="M 3597 1894 
L 3597 1613 
L 953 1613 
Q 991 1019 1311 708 
Q 1631 397 2203 397 
Q 2534 397 2845 478 
Q 3156 559 3463 722 
L 3463 178 
Q 3153 47 2828 -22 
Q 2503 -91 2169 -91 
Q 1331 -91 842 396 
Q 353 884 353 1716 
Q 353 2575 817 3079 
Q 1281 3584 2069 3584 
Q 2775 3584 3186 3129 
Q 3597 2675 3597 1894 
z
M 3022 2063 
Q 3016 2534 2758 2815 
Q 2500 3097 2075 3097 
Q 1594 3097 1305 2825 
Q 1016 2553 972 2059 
L 3022 2063 
z
" transform="scale(0.015625)"/>
      <path id="DejaVuSans-73" d="M 2834 3397 
L 2834 2853 
Q 2591 2978 2328 3040 
Q 2066 3103 1784 3103 
Q 1356 3103 1142 2972 
Q 928 2841 928 2578 
Q 928 2378 1081 2264 
Q 1234 2150 1697 2047 
L 1894 2003 
Q 2506 1872 2764 1633 
Q 3022 1394 3022 966 
Q 3022 478 2636 193 
Q 2250 -91 1575 -91 
Q 1294 -91 989 -36 
Q 684 19 347 128 
L 347 722 
Q 666 556 975 473 
Q 1284 391 1588 391 
Q 1994 391 2212 530 
Q 2431 669 2431 922 
Q 2431 1156 2273 1281 
Q 2116 1406 1581 1522 
L 1381 1569 
Q 847 1681 609 1914 
Q 372 2147 372 2553 
Q 372 3047 722 3315 
Q 1072 3584 1716 3584 
Q 2034 3584 2315 3537 
Q 2597 3491 2834 3397 
z
" transform="scale(0.015625)"/>
      <path id="DejaVuSans-70" d="M 1159 525 
L 1159 -1331 
L 581 -1331 
L 581 3500 
L 1159 3500 
L 1159 2969 
Q 1341 3281 1617 3432 
Q 1894 3584 2278 3584 
Q 2916 3584 3314 3078 
Q 3713 2572 3713 1747 
Q 3713 922 3314 415 
Q 2916 -91 2278 -91 
Q 1894 -91 1617 61 
Q 1341 213 1159 525 
z
M 3116 1747 
Q 3116 2381 2855 2742 
Q 2594 3103 2138 3103 
Q 1681 3103 1420 2742 
Q 1159 2381 1159 1747 
Q 1159 1113 1420 752 
Q 1681 391 2138 391 
Q 2594 391 2855 752 
Q 3116 1113 3116 1747 
z
" transform="scale(0.015625)"/>
      <path id="DejaVuSans-63" d="M 3122 3366 
L 3122 2828 
Q 2878 2963 2633 3030 
Q 2388 3097 2138 3097 
Q 1578 3097 1268 2742 
Q 959 2388 959 1747 
Q 959 1106 1268 751 
Q 1578 397 2138 397 
Q 2388 397 2633 464 
Q 2878 531 3122 666 
L 3122 134 
Q 2881 22 2623 -34 
Q 2366 -91 2075 -91 
Q 1284 -91 818 406 
Q 353 903 353 1747 
Q 353 2603 823 3093 
Q 1294 3584 2113 3584 
Q 2378 3584 2631 3529 
Q 2884 3475 3122 3366 
z
" transform="scale(0.015625)"/>
      <path id="DejaVuSans-66" d="M 2375 4863 
L 2375 4384 
L 1825 4384 
Q 1516 4384 1395 4259 
Q 1275 4134 1275 3809 
L 1275 3500 
L 2222 3500 
L 2222 3053 
L 1275 3053 
L 1275 0 
L 697 0 
L 697 3053 
L 147 3053 
L 147 3500 
L 697 3500 
L 697 3744 
Q 697 4328 969 4595 
Q 1241 4863 1831 4863 
L 2375 4863 
z
" transform="scale(0.015625)"/>
      <path id="Cmmi10-b8" d="M 325 109 
Q 325 203 409 288 
L 2209 2053 
L 1575 3834 
Q 1500 4038 1417 4156 
Q 1334 4275 1178 4275 
Q 1106 4275 1106 4359 
Q 1113 4397 1138 4419 
Q 1163 4441 1203 4441 
Q 1875 4441 2016 4044 
L 3316 416 
Q 3400 144 3488 50 
Q 3519 3 3519 -13 
Q 3519 -72 3469 -72 
L 3122 -72 
Q 2963 -25 2869 206 
L 2284 1844 
L 738 25 
Q 622 -84 531 -84 
Q 450 -84 387 -28 
Q 325 28 325 109 
z
" transform="scale(0.015625)"/>
     </defs>
     <use xlink:href="#DejaVuSans-65" transform="translate(0 0.015625)"/>
     <use xlink:href="#DejaVuSans-69" transform="translate(61.523438 0.015625)"/>
     <use xlink:href="#DejaVuSans-67" transform="translate(89.306641 0.015625)"/>
     <use xlink:href="#DejaVuSans-65" transform="translate(152.783203 0.015625)"/>
     <use xlink:href="#DejaVuSans-6e" transform="translate(214.306641 0.015625)"/>
     <use xlink:href="#DejaVuSans-73" transform="translate(277.685547 0.015625)"/>
     <use xlink:href="#DejaVuSans-70" transform="translate(329.785156 0.015625)"/>
     <use xlink:href="#DejaVuSans-61" transform="translate(393.261719 0.015625)"/>
     <use xlink:href="#DejaVuSans-63" transform="translate(454.541016 0.015625)"/>
     <use xlink:href="#DejaVuSans-65" transform="translate(509.521484 0.015625)"/>
     <use xlink:href="#DejaVuSans-20" transform="translate(571.044922 0.015625)"/>
     <use xlink:href="#DejaVuSans-6f" transform="translate(602.832031 0.015625)"/>
     <use xlink:href="#DejaVuSans-66" transform="translate(664.013672 0.015625)"/>
     <use xlink:href="#DejaVuSans-20" transform="translate(699.21875 0.015625)"/>
     <use xlink:href="#Cmmi10-b8" transform="translate(731.005859 0.015625)"/>
     <use xlink:href="#Cmr10-3d" transform="translate(806.865234 0.015625)"/>
     <use xlink:href="#Cmr10-31" transform="translate(902.109375 0.015625)"/>
    </g>
   </g>
   <g id="text_7">
    <!-- (b) image under the shear -->
    <g transform="translate(333.520909 49.229184) scale(0.12 -0.12)">
     <defs>
      <path id="DejaVuSans-62" d="M 3116 1747 
Q 3116 2381 2855 2742 
Q 2594 3103 2138 3103 
Q 1681 3103 1420 2742 
Q 1159 2381 1159 1747 
Q 1159 1113 1420 752 
Q 1681 391 2138 391 
Q 2594 391 2855 752 
Q 3116 1113 3116 1747 
z
M 1159 2969 
Q 1341 3281 1617 3432 
Q 1894 3584 2278 3584 
Q 2916 3584 3314 3078 
Q 3713 2572 3713 1747 
Q 3713 922 3314 415 
Q 2916 -91 2278 -91 
Q 1894 -91 1617 61 
Q 1341 213 1159 525 
L 1159 0 
L 581 0 
L 581 4863 
L 1159 4863 
L 1159 2969 
z
" transform="scale(0.015625)"/>
      <path id="DejaVuSans-6d" d="M 3328 2828 
Q 3544 3216 3844 3400 
Q 4144 3584 4550 3584 
Q 5097 3584 5394 3201 
Q 5691 2819 5691 2113 
L 5691 0 
L 5113 0 
L 5113 2094 
Q 5113 2597 4934 2840 
Q 4756 3084 4391 3084 
Q 3944 3084 3684 2787 
Q 3425 2491 3425 1978 
L 3425 0 
L 2847 0 
L 2847 2094 
Q 2847 2600 2669 2842 
Q 2491 3084 2119 3084 
Q 1678 3084 1418 2786 
Q 1159 2488 1159 1978 
L 1159 0 
L 581 0 
L 581 3500 
L 1159 3500 
L 1159 2956 
Q 1356 3278 1631 3431 
Q 1906 3584 2284 3584 
Q 2666 3584 2933 3390 
Q 3200 3197 3328 2828 
z
" transform="scale(0.015625)"/>
      <path id="DejaVuSans-75" d="M 544 1381 
L 544 3500 
L 1119 3500 
L 1119 1403 
Q 1119 906 1312 657 
Q 1506 409 1894 409 
Q 2359 409 2629 706 
Q 2900 1003 2900 1516 
L 2900 3500 
L 3475 3500 
L 3475 0 
L 2900 0 
L 2900 538 
Q 2691 219 2414 64 
Q 2138 -91 1772 -91 
Q 1169 -91 856 284 
Q 544 659 544 1381 
z
M 1991 3584 
L 1991 3584 
z
" transform="scale(0.015625)"/>
      <path id="DejaVuSans-74" d="M 1172 4494 
L 1172 3500 
L 2356 3500 
L 2356 3053 
L 1172 3053 
L 1172 1153 
Q 1172 725 1289 603 
Q 1406 481 1766 481 
L 2356 481 
L 2356 0 
L 1766 0 
Q 1100 0 847 248 
Q 594 497 594 1153 
L 594 3053 
L 172 3053 
L 172 3500 
L 594 3500 
L 594 4494 
L 1172 4494 
z
" transform="scale(0.015625)"/>
      <path id="DejaVuSans-68" d="M 3513 2113 
L 3513 0 
L 2938 0 
L 2938 2094 
Q 2938 2591 2744 2837 
Q 2550 3084 2163 3084 
Q 1697 3084 1428 2787 
Q 1159 2491 1159 1978 
L 1159 0 
L 581 0 
L 581 4863 
L 1159 4863 
L 1159 2956 
Q 1366 3272 1645 3428 
Q 1925 3584 2291 3584 
Q 2894 3584 3203 3211 
Q 3513 2838 3513 2113 
z
" transform="scale(0.015625)"/>
     </defs>
     <use xlink:href="#DejaVuSans-28"/>
     <use xlink:href="#DejaVuSans-62" transform="translate(39.013672 0)"/>
     <use xlink:href="#DejaVuSans-29" transform="translate(102.490234 0)"/>
     <use xlink:href="#DejaVuSans-20" transform="translate(141.503906 0)"/>
     <use xlink:href="#DejaVuSans-69" transform="translate(173.291016 0)"/>
     <use xlink:href="#DejaVuSans-6d" transform="translate(201.074219 0)"/>
     <use xlink:href="#DejaVuSans-61" transform="translate(298.486328 0)"/>
     <use xlink:href="#DejaVuSans-67" transform="translate(359.765625 0)"/>
     <use xlink:href="#DejaVuSans-65" transform="translate(423.242188 0)"/>
     <use xlink:href="#DejaVuSans-20" transform="translate(484.765625 0)"/>
     <use xlink:href="#DejaVuSans-75" transform="translate(516.552734 0)"/>
     <use xlink:href="#DejaVuSans-6e" transform="translate(579.931641 0)"/>
     <use xlink:href="#DejaVuSans-64" transform="translate(643.310547 0)"/>
     <use xlink:href="#DejaVuSans-65" transform="translate(706.787109 0)"/>
     <use xlink:href="#DejaVuSans-72" transform="translate(768.310547 0)"/>
     <use xlink:href="#DejaVuSans-20" transform="translate(809.423828 0)"/>
     <use xlink:href="#DejaVuSans-74" transform="translate(841.210938 0)"/>
     <use xlink:href="#DejaVuSans-68" transform="translate(880.419922 0)"/>
     <use xlink:href="#DejaVuSans-65" transform="translate(943.798828 0)"/>
     <use xlink:href="#DejaVuSans-20" transform="translate(1005.322266 0)"/>
     <use xlink:href="#DejaVuSans-73" transform="translate(1037.109375 0)"/>
     <use xlink:href="#DejaVuSans-68" transform="translate(1089.208984 0)"/>
     <use xlink:href="#DejaVuSans-65" transform="translate(1152.587891 0)"/>
     <use xlink:href="#DejaVuSans-61" transform="translate(1214.111328 0)"/>
     <use xlink:href="#DejaVuSans-72" transform="translate(1275.390625 0)"/>
    </g>
   </g>
  </g>
 </g>
 <defs>
  <clipPath id="p8b8ba17cfe">
   <rect x="7.2" y="22.318125" width="238.418182" height="205.694118"/>
  </clipPath>
  <clipPath id="p7d88756103">
   <rect x="293.301818" y="55.229184" width="238.418182" height="139.872"/>
  </clipPath>
 </defs>
</svg>
