<?xml version="1.0" encoding="utf-8" standalone="no"?>
<!DOCTYPE svg PUBLIC "-//W3C//DTD SVG 1.1//EN"
  "http://www.w3.org/Graphics/SVG/1.1/DTD/svg11.dtd">
<svg xmlns:xlink="http://www.w3.org/1999/xlink" width="635.328pt" height="324.864pt" viewBox="0 0 635.328 324.864" xmlns="http://www.w3.org/2000/svg" version="1.1">
 <metadata>
  <rdf:RDF xmlns:dc="http://purl.org/dc/elements/1.1/" xmlns:cc="http://creativecommons.org/ns#" xmlns:rdf="http://www.w3.org/1999/02/22-rdf-syntax-ns#">
   <cc:Work>
    <dc:type rdf:resource="http://purl.org/dc/dcmitype/StillImage"/>
    <dc:format>image/svg+xml</dc:format>
    <dc:creator>
     <cc:Agent>
      <dc:title>Matplotlib v3.10.8, https://matplotlib.org/</dc:title>
     </cc:Agent>
    </dc:creator>
   </cc:Work>
  </rdf:RDF>
 </metadata>
 <defs>
  <style type="text/css">*{stroke-linejoin: round; stroke-linecap: butt}</style>
 </defs>
 <g id="figure_1">
  <g id="patch_1">
   <path d="M 0 324.864 
L 635.328 324.864 
L 635.328 0 
L 0 0 
z
" style="fill: #ffffff"/>
  </g>
  <g id="axes_1">
   <g id="patch_2">
    <path d="M 31.455 282.54276 
L 103.2498 282.54276 
Q 107.90676 282.54276 107.90676 277.8858 
L 107.90676 244.899 
Q 107.90676 240.24204 103.2498 240.24204 
L 31.455 240.24204 
Q 26.79804 240.24204 26.79804 244.899 
L 26.79804 277.8858 
Q 26.79804 282.54276 31.455 282.54276 
z
" clip-path="url(#p1f1e374781)" style="fill: #2ca02c; opacity: 0.12; stroke: #2ca02c; stroke-width: 1.8; stroke-linejoin: miter"/>
   </g>
   <g id="patch_3">
    <path d="M 31.455 282.54276 
L 103.2498 282.54276 
Q 107.90676 282.54276 107.90676 277.8858 
L 107.90676 244.899 
Q 107.90676 240.24204 103.2498 240.24204 
L 31.455 240.24204 
Q 26.79804 240.24204 26.79804 244.899 
L 26.79804 277.8858 
Q 26.79804 282.54276 31.455 282.54276 
L 31.455 282.54276 
z
" clip-path="url(#p1f1e374781)" style="fill: none; stroke: #2ca02c; stroke-width: 1.8; stroke-linejoin: miter"/>
   </g>
   <g id="patch_4">
    <path d="M 165.3426 282.54276 
L 237.1374 282.54276 
Q 241.79436 282.54276 241.79436 277.8858 
L 241.79436 244.899 
Q 241.79436 240.24204 237.1374 240.24204 
L 165.3426 240.24204 
Q 160.68564 240.24204 160.68564 244.899 
L 160.68564 277.8858 
Q 160.68564 282.54276 165.3426 282.54276 
z
" clip-path="url(#p1f1e374781)" style="fill: #1f77b4; opacity: 0.12; stroke: #1f77b4; stroke-width: 1.8; stroke-linejoin: miter"/>
   </g>
   <g id="patch_5">
    <path d="M 165.3426 282.54276 
L 237.1374 282.54276 
Q 241.79436 282.54276 241.79436 277.8858 
L 241.79436 244.899 
Q 241.79436 240.24204 237.1374 240.24204 
L 165.3426 240.24204 
Q 160.68564 240.24204 160.68564 244.899 
L 160.68564 277.8858 
Q 160.68564 282.54276 165.3426 282.54276 
L 165.3426 282.54276 
z
" clip-path="url(#p1f1e374781)" style="fill: none; stroke: #1f77b4; stroke-width: 1.8; stroke-linejoin: miter"/>
   </g>
   <g id="patch_6">
    <path d="M 281.7666 282.54276 
L 353.5614 282.54276 
Q 358.21836 282.54276 358.21836 277.8858 
L 358.21836 244.899 
Q 358.21836 240.24204 353.5614 240.24204 
L 281.7666 240.24204 
Q 277.10964 240.24204 277.10964 244.899 
L 277.10964 277.8858 
Q 277.10964 282.54276 281.7666 282.54276 
z
" clip-path="url(#p1f1e374781)" style="fill: #1f77b4; opacity: 0.12; stroke: #1f77b4; stroke-width: 1.8; stroke-linejoin: miter"/>
   </g>
   <g id="patch_7">
    <path d="M 281.7666 282.54276 
L 353.5614 282.54276 
Q 358.21836 282.54276 358.21836 277.8858 
L 358.21836 244.899 
Q 358.21836 240.24204 353.5614 240.24204 
L 281.7666 240.24204 
Q 277.10964 240.24204 277.10964 244.899 
L 277.10964 277.8858 
Q 277.10964 282.54276 281.7666 282.54276 
L 281.7666 282.54276 
z
" clip-path="url(#p1f1e374781)" style="fill: none; stroke: #1f77b4; stroke-width: 1.8; stroke-linejoin: miter"/>
   </g>
   <g id="patch_8">
    <path d="M 398.1906 282.54276 
L 469.9854 282.54276 
Q 474.64236 282.54276 474.64236 277.8858 
L 474.64236 244.899 
Q 474.64236 240.24204 469.9854 240.24204 
L 398.1906 240.24204 
Q 393.53364 240.24204 393.53364 244.899 
L 393.53364 277.8858 
Q 393.53364 282.54276 398.1906 282.54276 
z
" clip-path="url(#p1f1e374781)" style="fill: #1f77b4; opacity: 0.12; stroke: #1f77b4; stroke-width: 1.8; stroke-linejoin: miter"/>
   </g>
   <g id="patch_9">
    <path d="M 398.1906 282.54276 
L 469.9854 282.54276 
Q 474.64236 282.54276 474.64236 277.8858 
L 474.64236 244.899 
Q 474.64236 240.24204 469.9854 240.24204 
L 398.1906 240.24204 
Q 393.53364 240.24204 393.53364 244.899 
L 393.53364 277.8858 
Q 393.53364 282.54276 398.1906 282.54276 
L 398.1906 282.54276 
z
" clip-path="url(#p1f1e374781)" style="fill: none; stroke: #1f77b4; stroke-width: 1.8; stroke-linejoin: miter"/>
   </g>
   <g id="patch_10">
    <path d="M 526.257 282.54276 
L 598.0518 282.54276 
Q 602.70876 282.54276 602.70876 277.8858 
L 602.70876 244.899 
Q 602.70876 240.24204 598.0518 240.24204 
L 526.257 240.24204 
Q 521.60004 240.24204 521.60004 244.899 
L 521.60004 277.8858 
Q 521.60004 282.54276 526.257 282.54276 
z
" clip-path="url(#p1f1e374781)" style="fill: #ff7f0e; opacity: 0.12; stroke: #ff7f0e; stroke-width: 1.8; stroke-linejoin: miter"/>
   </g>
   <g id="patch_11">
    <path d="M 526.257 282.54276 
L 598.0518 282.54276 
Q 602.70876 282.54276 602.70876 277.8858 
L 602.70876 244.899 
Q 602.70876 240.24204 598.0518 240.24204 
L 526.257 240.24204 
Q 521.60004 240.24204 521.60004 244.899 
L 521.60004 277.8858 
Q 521.60004 282.54276 526.257 282.54276 
L 526.257 282.54276 
z
" clip-path="url(#p1f1e374781)" style="fill: none; stroke: #ff7f0e; stroke-width: 1.8; stroke-linejoin: miter"/>
   </g>
   <g id="patch_12">
    <path d="M 98.3988 175.82076 
L 170.1936 175.82076 
Q 174.85056 175.82076 174.85056 171.1638 
L 174.85056 138.177 
Q 174.85056 133.52004 170.1936 133.52004 
L 98.3988 133.52004 
Q 93.74184 133.52004 93.74184 138.177 
L 93.74184 171.1638 
Q 93.74184 175.82076 98.3988 175.82076 
z
" clip-path="url(#p1f1e374781)" style="fill: #7f7f7f; opacity: 0.12; stroke: #7f7f7f; stroke-width: 1.8; stroke-linejoin: miter"/>
   </g>
   <g id="patch_13">
    <path d="M 98.3988 175.82076 
L 170.1936 175.82076 
Q 174.85056 175.82076 174.85056 171.1638 
L 174.85056 138.177 
Q 174.85056 133.52004 170.1936 133.52004 
L 98.3988 133.52004 
Q 93.74184 133.52004 93.74184 138.177 
L 93.74184 171.1638 
Q 93.74184 175.82076 98.3988 175.82076 
L 98.3988 175.82076 
z
" clip-path="url(#p1f1e374781)" style="fill: none; stroke: #7f7f7f; stroke-width: 1.8; stroke-linejoin: miter"/>
   </g>
   <g id="patch_14">
    <path d="M 339.9786 175.82076 
L 411.7734 175.82076 
Q 416.43036 175.82076 416.43036 171.1638 
L 416.43036 138.177 
Q 416.43036 133.52004 411.7734 133.52004 
L 339.9786 133.52004 
Q 335.32164 133.52004 335.32164 138.177 
L 335.32164 171.1638 
Q 335.32164 175.82076 339.9786 175.82076 
z
" clip-path="url(#p1f1e374781)" style="fill: #7f7f7f; opacity: 0.12; stroke: #7f7f7f; stroke-width: 1.8; stroke-linejoin: miter"/>
   </g>
   <g id="patch_15">
    <path d="M 339.9786 175.82076 
L 411.7734 175.82076 
Q 416.43036 175.82076 416.43036 171.1638 
L 416.43036 138.177 
Q 416.43036 133.52004 411.7734 133.52004 
L 339.9786 133.52004 
Q 335.32164 133.52004 335.32164 138.177 
L 335.32164 171.1638 
Q 335.32164 175.82076 339.9786 175.82076 
L 339.9786 175.82076 
z
" clip-path="url(#p1f1e374781)" style="fill: none; stroke: #7f7f7f; stroke-width: 1.8; stroke-linejoin: miter"/>
   </g>
   <g id="patch_16">
    <path d="M 219.1887 84.62196 
L 290.9835 84.62196 
Q 295.64046 84.62196 295.64046 79.965 
L 295.64046 46.9782 
Q 295.64046 42.32124 290.9835 42.32124 
L 219.1887 42.32124 
Q 214.53174 42.32124 214.53174 46.9782 
L 214.53174 79.965 
Q 214.53174 84.62196 219.1887 84.62196 
z
" clip-path="url(#p1f1e374781)" style="fill: #1f77b4; opacity: 0.12; stroke: #1f77b4; stroke-width: 1.8; stroke-linejoin: miter"/>
   </g>
   <g id="patch_17">
    <path d="M 219.1887 84.62196 
L 290.9835 84.62196 
Q 295.64046 84.62196 295.64046 79.965 
L 295.64046 46.9782 
Q 295.64046 42.32124 290.9835 42.32124 
L 219.1887 42.32124 
Q 214.53174 42.32124 214.53174 46.9782 
L 214.53174 79.965 
Q 214.53174 84.62196 219.1887 84.62196 
L 219.1887 84.62196 
z
" clip-path="url(#p1f1e374781)" style="fill: none; stroke: #1f77b4; stroke-width: 1.8; stroke-linejoin: miter"/>
   </g>
   <g id="patch_18">
    <path d="M 526.257 84.62196 
L 598.0518 84.62196 
Q 602.70876 84.62196 602.70876 79.965 
L 602.70876 46.9782 
Q 602.70876 42.32124 598.0518 42.32124 
L 526.257 42.32124 
Q 521.60004 42.32124 521.60004 46.9782 
L 521.60004 79.965 
Q 521.60004 84.62196 526.257 84.62196 
z
" clip-path="url(#p1f1e374781)" style="fill: #ff7f0e; opacity: 0.12; stroke: #ff7f0e; stroke-width: 1.8; stroke-linejoin: miter"/>
   </g>
   <g id="patch_19">
    <path d="M 526.257 84.62196 
L 598.0518 84.62196 
Q 602.70876 84.62196 602.70876 79.965 
L 602.70876 46.9782 
Q 602.70876 42.32124 598.0518 42.32124 
L 526.257 42.32124 
Q 521.60004 42.32124 521.60004 46.9782 
L 521.60004 79.965 
Q 521.60004 84.62196 526.257 84.62196 
L 526.257 84.62196 
z
" clip-path="url(#p1f1e374781)" style="fill: none; stroke: #ff7f0e; stroke-width: 1.8; stroke-linejoin: miter"/>
   </g>
   <g id="text_1">
    <!-- $\mathbf{x}$ -->
    <g style="fill: #2ca02c" transform="translate(63.9074 264.979587) scale(0.13 -0.13)">
     <defs>
      <path id="Cmb10-78" d="M 109 0 
L 109 325 
Q 628 325 678 384 
L 1381 1350 
L 588 2516 
L 141 2516 
L 141 2841 
L 1606 2841 
L 1606 2516 
L 1331 2516 
L 1766 1881 
L 2181 2463 
Q 2181 2491 2072 2503 
Q 1963 2516 1888 2516 
L 1888 2841 
L 3156 2841 
L 3156 2516 
Q 2638 2516 2584 2456 
L 1959 1594 
L 2816 325 
L 3272 325 
L 3272 0 
L 1797 0 
L 1797 325 
L 2075 325 
L 1575 1063 
L 1081 378 
Q 1081 356 1193 340 
Q 1306 325 1381 325 
L 1381 0 
L 109 0 
z
" transform="scale(0.015625)"/>
     </defs>
     <use xlink:href="#Cmb10-78" transform="translate(0 0.609375)"/>
    </g>
   </g>
   <g id="text_2">
    <!-- $\mathbf{z}$ -->
    <g style="fill: #1f77b4" transform="translate(198.315 264.979587) scale(0.13 -0.13)">
     <defs>
      <path id="Cmb10-7a" d="M 294 0 
Q 247 0 212 31 
Q 178 63 178 116 
L 178 184 
Q 178 222 197 250 
L 1684 2584 
L 1409 2584 
Q 947 2584 770 2376 
Q 594 2169 594 1697 
L 269 1697 
L 347 2841 
L 2438 2841 
Q 2491 2841 2522 2809 
Q 2553 2778 2553 2725 
L 2553 2669 
Q 2553 2634 2534 2606 
L 1056 281 
L 1363 281 
Q 1806 281 2009 488 
Q 2122 603 2169 814 
Q 2216 1025 2241 1319 
L 2566 1319 
L 2450 0 
L 294 0 
z
" transform="scale(0.015625)"/>
     </defs>
     <use xlink:href="#Cmb10-7a" transform="translate(0 0.609375)"/>
    </g>
   </g>
   <g id="text_3">
    <!-- $\mathbf{h}$ -->
    <g style="fill: #1f77b4" transform="translate(314.024 264.979587) scale(0.13 -0.13)">
     <defs>
      <path id="Cmb10-68" d="M 141 0 
L 141 325 
L 581 325 
L 581 3884 
Q 581 4003 456 4033 
Q 331 4063 141 4063 
L 141 4391 
L 1300 4441 
L 1300 2316 
Q 1450 2575 1694 2728 
Q 1938 2881 2228 2881 
Q 2541 2881 2733 2782 
Q 2925 2684 3017 2482 
Q 3109 2281 3109 1966 
L 3109 325 
L 3553 325 
L 3553 0 
L 1966 0 
L 1966 325 
L 2356 325 
L 2356 1947 
L 2356 1966 
Q 2356 2625 2150 2625 
Q 1969 2625 1817 2545 
Q 1666 2466 1558 2327 
Q 1450 2188 1394 2020 
Q 1338 1853 1338 1672 
L 1338 325 
L 1778 325 
L 1778 0 
L 141 0 
z
" transform="scale(0.015625)"/>
     </defs>
     <use xlink:href="#Cmb10-68" transform="translate(0 0.609375)"/>
    </g>
   </g>
   <g id="text_4">
    <!-- $\mathbf{o}$ -->
    <g style="fill: #1f77b4" transform="translate(430.838 264.979587) scale(0.13 -0.13)">
     <defs>
      <path id="Cmb10-6f" d="M 1600 -38 
Q 1172 -38 851 140 
Q 531 319 354 647 
Q 178 975 178 1394 
Q 178 1713 273 1991 
Q 369 2269 553 2472 
Q 738 2675 1006 2787 
Q 1275 2900 1600 2900 
Q 1928 2900 2195 2787 
Q 2463 2675 2644 2472 
Q 2825 2269 2920 1997 
Q 3016 1725 3016 1394 
Q 3016 975 2841 647 
Q 2666 319 2344 140 
Q 2022 -38 1600 -38 
z
M 1600 244 
Q 1859 244 1986 441 
Q 2113 638 2141 891 
Q 2169 1144 2169 1478 
Q 2169 1719 2156 1901 
Q 2144 2084 2092 2253 
Q 2041 2422 1922 2533 
Q 1803 2644 1600 2644 
Q 1338 2644 1209 2459 
Q 1081 2275 1053 2039 
Q 1025 1803 1025 1478 
Q 1025 1144 1053 892 
Q 1081 641 1209 442 
Q 1338 244 1600 244 
z
" transform="scale(0.015625)"/>
     </defs>
     <use xlink:href="#Cmb10-6f" transform="translate(0 0.6875)"/>
    </g>
   </g>
   <g id="text_5">
    <!-- $L$ -->
    <g style="fill: #ff7f0e" transform="translate(557.6694 264.979587) scale(0.13 -0.13)">
     <defs>
      <path id="Cmmi10-4c" d="M 300 0 
Q 238 0 238 84 
Q 241 100 250 139 
Q 259 178 276 201 
Q 294 225 319 225 
Q 709 225 863 269 
Q 947 297 984 441 
L 1863 3956 
Q 1875 4019 1875 4044 
Q 1875 4113 1797 4122 
Q 1678 4147 1338 4147 
Q 1275 4147 1275 4231 
Q 1297 4313 1309 4342 
Q 1322 4372 1381 4372 
L 3272 4372 
Q 3328 4372 3328 4288 
Q 3319 4222 3306 4184 
Q 3294 4147 3244 4147 
Q 2772 4147 2613 4116 
Q 2456 4088 2419 3928 
L 1544 416 
Q 1516 338 1516 275 
Q 1516 225 1734 225 
L 2328 225 
Q 2831 225 3143 425 
Q 3456 625 3606 876 
Q 3756 1128 3857 1398 
Q 3959 1669 4006 1678 
L 4063 1678 
Q 4128 1678 4128 1594 
L 3559 44 
Q 3550 0 3500 0 
L 300 0 
z
" transform="scale(0.015625)"/>
     </defs>
     <use xlink:href="#Cmmi10-4c" transform="translate(0 0.6875)"/>
    </g>
   </g>
   <g id="patch_20">
    <path d="M 111.78756 239.0778 
Q 134.2962 239.0778 154.568772 239.0778 
" style="fill: none; stroke: #15181c; stroke-width: 2; stroke-linecap: round"/>
    <path d="M 149.368772 236.4778 
L 154.568772 239.0778 
L 149.368772 241.6778 
" style="fill: none; stroke: #15181c; stroke-width: 2; stroke-linecap: round"/>
   </g>
   <g id="text_6">
    <!-- $\times\,\mathbf{W}^{(1)}$ -->
    <g style="fill: #15181c" transform="translate(95.9318 225.043759) scale(0.115 -0.115)">
     <defs>
      <path id="Cmsy10-a3" d="M 941 184 
Q 941 234 972 275 
L 2303 1600 
L 972 2931 
Q 941 2963 941 3016 
Q 941 3063 978 3103 
Q 1016 3144 1069 3144 
Q 1113 3144 1166 3103 
L 2491 1778 
L 3809 3103 
Q 3863 3144 3903 3144 
Q 3956 3144 3993 3106 
Q 4031 3069 4031 3016 
Q 4031 2963 4000 2931 
L 2669 1600 
L 4000 275 
Q 4031 234 4031 184 
Q 4031 131 3993 93 
Q 3956 56 3903 56 
Q 3856 56 3809 103 
L 2491 1422 
L 1166 103 
Q 1119 56 1069 56 
Q 1016 56 978 97 
Q 941 138 941 184 
z
" transform="scale(0.015625)"/>
      <path id="Cmb10-57" d="M 1966 63 
L 622 4063 
L 134 4063 
L 134 4391 
L 2100 4391 
L 2100 4063 
L 1569 4063 
L 2484 1356 
L 3128 3291 
L 2869 4063 
L 2381 4063 
L 2381 4391 
L 4347 4391 
L 4347 4063 
L 3822 4063 
L 4728 1356 
L 5619 4013 
Q 5603 4028 5459 4044 
Q 5259 4063 5050 4063 
L 5050 4391 
L 6472 4391 
L 6472 4063 
Q 6316 4063 6147 4053 
Q 5978 4044 5966 4006 
L 4641 63 
Q 4600 -50 4481 -50 
L 4378 -50 
Q 4250 -50 4219 63 
L 3303 2778 
L 2388 63 
Q 2356 -50 2228 -50 
L 2125 -50 
Q 2006 -50 1966 63 
z
" transform="scale(0.015625)"/>
      <path id="Cmr10-28" d="M 1984 -1588 
Q 1628 -1306 1370 -942 
Q 1113 -578 948 -165 
Q 784 247 703 697 
Q 622 1147 622 1600 
Q 622 2059 703 2509 
Q 784 2959 951 3375 
Q 1119 3791 1378 4153 
Q 1638 4516 1984 4788 
Q 1984 4800 2016 4800 
L 2075 4800 
Q 2094 4800 2109 4783 
Q 2125 4766 2125 4744 
Q 2125 4716 2113 4703 
Q 1800 4397 1592 4047 
Q 1384 3697 1257 3301 
Q 1131 2906 1075 2482 
Q 1019 2059 1019 1600 
Q 1019 -434 2106 -1491 
Q 2125 -1509 2125 -1544 
Q 2125 -1559 2108 -1579 
Q 2091 -1600 2075 -1600 
L 2016 -1600 
Q 1984 -1600 1984 -1588 
z
" transform="scale(0.015625)"/>
      <path id="Cmr10-31" d="M 594 0 
L 594 225 
Q 1394 225 1394 428 
L 1394 3788 
Q 1063 3628 556 3628 
L 556 3853 
Q 1341 3853 1741 4263 
L 1831 4263 
Q 1853 4263 1873 4245 
Q 1894 4228 1894 4206 
L 1894 428 
Q 1894 225 2694 225 
L 2694 0 
L 594 0 
z
" transform="scale(0.015625)"/>
      <path id="Cmr10-29" d="M 416 -1600 
Q 359 -1600 359 -1544 
Q 359 -1516 372 -1503 
Q 1466 -434 1466 1600 
Q 1466 3634 384 4691 
Q 359 4706 359 4744 
Q 359 4766 376 4783 
Q 394 4800 416 4800 
L 475 4800 
Q 494 4800 506 4788 
Q 966 4425 1272 3906 
Q 1578 3388 1720 2800 
Q 1863 2213 1863 1600 
Q 1863 1147 1786 708 
Q 1709 269 1542 -157 
Q 1375 -584 1119 -945 
Q 863 -1306 506 -1588 
Q 494 -1600 475 -1600 
L 416 -1600 
z
" transform="scale(0.015625)"/>
     </defs>
     <use xlink:href="#Cmsy10-a3" transform="translate(0 0.235938)"/>
     <use xlink:href="#Cmb10-57" transform="translate(92.318001 0.235938)"/>
     <use xlink:href="#Cmr10-28" transform="translate(200.102454 38.5) scale(0.7)"/>
     <use xlink:href="#Cmr10-31" transform="translate(227.275306 38.5) scale(0.7)"/>
     <use xlink:href="#Cmr10-29" transform="translate(262.275306 38.5) scale(0.7)"/>
    </g>
   </g>
   <g id="patch_21">
    <path d="M 245.67516 239.0778 
Q 259.452 239.0778 270.992772 239.0778 
" style="fill: none; stroke: #15181c; stroke-width: 2; stroke-linecap: round"/>
    <path d="M 265.792772 236.4778 
L 270.992772 239.0778 
L 265.792772 241.6778 
" style="fill: none; stroke: #15181c; stroke-width: 2; stroke-linecap: round"/>
   </g>
   <g id="text_7">
    <!-- $\phi$ -->
    <g style="fill: #15181c" transform="translate(256.002 225.0204) scale(0.115 -0.115)">
     <defs>
      <path id="Cmmi10-c1" d="M 1241 -1247 
L 1528 -91 
Q 1203 -91 922 61 
Q 641 213 470 484 
Q 300 756 300 1075 
Q 300 1422 472 1737 
Q 644 2053 942 2311 
Q 1241 2569 1584 2708 
Q 1928 2847 2266 2847 
L 2650 4403 
Q 2663 4441 2700 4441 
L 2778 4441 
Q 2803 4441 2818 4419 
Q 2834 4397 2834 4378 
L 2450 2847 
Q 2691 2847 2916 2759 
Q 3141 2672 3314 2514 
Q 3488 2356 3584 2142 
Q 3681 1928 3681 1684 
Q 3681 1338 3509 1022 
Q 3338 706 3047 453 
Q 2756 200 2398 54 
Q 2041 -91 1716 -91 
L 1422 -1275 
Q 1409 -1313 1369 -1313 
L 1294 -1313 
Q 1269 -1313 1255 -1289 
Q 1241 -1266 1241 -1247 
z
M 1569 78 
L 2222 2681 
Q 2059 2681 1881 2615 
Q 1703 2550 1545 2450 
Q 1388 2350 1259 2222 
Q 1103 2066 984 1853 
Q 866 1641 805 1405 
Q 744 1169 744 941 
Q 744 700 847 503 
Q 950 306 1137 192 
Q 1325 78 1569 78 
z
M 1759 78 
Q 2000 78 2272 215 
Q 2544 353 2719 538 
Q 2959 775 3098 1120 
Q 3238 1466 3238 1819 
Q 3238 2056 3134 2254 
Q 3031 2453 2843 2567 
Q 2656 2681 2413 2681 
L 1759 78 
z
" transform="scale(0.015625)"/>
     </defs>
     <use xlink:href="#Cmmi10-c1" transform="translate(0 0.609375)"/>
    </g>
   </g>
   <g id="patch_22">
    <path d="M 362.09916 239.0778 
Q 375.876 239.0778 387.416772 239.0778 
" style="fill: none; stroke: #15181c; stroke-width: 2; stroke-linecap: round"/>
    <path d="M 382.216772 236.4778 
L 387.416772 239.0778 
L 382.216772 241.6778 
" style="fill: none; stroke: #15181c; stroke-width: 2; stroke-linecap: round"/>
   </g>
   <g id="text_8">
    <!-- $\times\,\mathbf{W}^{(2)}$ -->
    <g style="fill: #15181c" transform="translate(337.5116 225.043759) scale(0.115 -0.115)">
     <defs>
      <path id="Cmr10-32" d="M 319 0 
L 319 172 
Q 319 188 331 206 
L 1325 1306 
Q 1550 1550 1690 1715 
Q 1831 1881 1968 2097 
Q 2106 2313 2186 2536 
Q 2266 2759 2266 3009 
Q 2266 3272 2169 3511 
Q 2072 3750 1880 3894 
Q 1688 4038 1416 4038 
Q 1138 4038 916 3870 
Q 694 3703 603 3438 
Q 628 3444 672 3444 
Q 816 3444 917 3347 
Q 1019 3250 1019 3097 
Q 1019 2950 917 2848 
Q 816 2747 672 2747 
Q 522 2747 420 2851 
Q 319 2956 319 3097 
Q 319 3338 409 3548 
Q 500 3759 670 3923 
Q 841 4088 1055 4175 
Q 1269 4263 1509 4263 
Q 1875 4263 2190 4108 
Q 2506 3953 2690 3670 
Q 2875 3388 2875 3009 
Q 2875 2731 2753 2481 
Q 2631 2231 2440 2026 
Q 2250 1822 1953 1562 
Q 1656 1303 1563 1216 
L 838 519 
L 1453 519 
Q 1906 519 2211 526 
Q 2516 534 2534 550 
Q 2609 631 2688 1141 
L 2875 1141 
L 2694 0 
L 319 0 
z
" transform="scale(0.015625)"/>
     </defs>
     <use xlink:href="#Cmsy10-a3" transform="translate(0 0.235938)"/>
     <use xlink:href="#Cmb10-57" transform="translate(92.318001 0.235938)"/>
     <use xlink:href="#Cmr10-28" transform="translate(200.102454 38.5) scale(0.7)"/>
     <use xlink:href="#Cmr10-32" transform="translate(227.275306 38.5) scale(0.7)"/>
     <use xlink:href="#Cmr10-29" transform="translate(262.275306 38.5) scale(0.7)"/>
    </g>
   </g>
   <g id="patch_23">
    <path d="M 478.52316 239.0778 
Q 498.1212 239.0778 515.483172 239.0778 
" style="fill: none; stroke: #15181c; stroke-width: 2; stroke-linecap: round"/>
    <path d="M 510.283172 236.4778 
L 515.483172 239.0778 
L 510.283172 241.6778 
" style="fill: none; stroke: #15181c; stroke-width: 2; stroke-linecap: round"/>
   </g>
   <g id="text_9">
    <!-- $l(\mathbf{o},y)$ -->
    <g style="fill: #15181c" transform="translate(483.6312 224.5604) scale(0.115 -0.115)">
     <defs>
      <path id="Cmmi10-6c" d="M 281 519 
Q 281 538 286 575 
Q 291 613 295 648 
Q 300 684 300 703 
L 1094 3872 
Q 1119 3981 1125 4044 
Q 1125 4147 709 4147 
Q 647 4147 647 4231 
Q 650 4247 661 4287 
Q 672 4328 689 4350 
Q 706 4372 738 4372 
L 1600 4441 
Q 1678 4441 1678 4359 
L 756 678 
Q 709 575 709 372 
Q 709 97 897 97 
Q 1094 97 1192 342 
Q 1291 588 1369 941 
Q 1381 978 1422 978 
L 1497 978 
Q 1522 978 1539 958 
Q 1556 938 1556 916 
Q 1481 606 1420 426 
Q 1359 247 1225 87 
Q 1091 -72 884 -72 
Q 628 -72 454 93 
Q 281 259 281 519 
z
" transform="scale(0.015625)"/>
      <path id="Cmmi10-3b" d="M 634 -1153 
Q 634 -1125 659 -1100 
Q 891 -878 1019 -587 
Q 1147 -297 1147 25 
L 1147 103 
Q 1044 0 891 0 
Q 744 0 641 103 
Q 538 206 538 353 
Q 538 503 641 603 
Q 744 703 891 703 
Q 1119 703 1216 492 
Q 1313 281 1313 25 
Q 1313 -331 1170 -651 
Q 1028 -972 769 -1228 
Q 744 -1241 728 -1241 
Q 697 -1241 665 -1212 
Q 634 -1184 634 -1153 
z
" transform="scale(0.015625)"/>
      <path id="Cmmi10-79" d="M 538 -916 
Q 672 -1147 1006 -1147 
Q 1309 -1147 1531 -934 
Q 1753 -722 1889 -420 
Q 2025 -119 2100 197 
Q 1816 -72 1484 -72 
Q 1231 -72 1053 15 
Q 875 103 776 276 
Q 678 450 678 697 
Q 678 906 734 1126 
Q 791 1347 892 1617 
Q 994 1888 1069 2088 
Q 1153 2322 1153 2472 
Q 1153 2663 1013 2663 
Q 759 2663 595 2402 
Q 431 2141 353 1819 
Q 341 1778 300 1778 
L 225 1778 
Q 172 1778 172 1838 
L 172 1856 
Q 275 2238 487 2533 
Q 700 2828 1025 2828 
Q 1253 2828 1411 2678 
Q 1569 2528 1569 2297 
Q 1569 2178 1516 2047 
Q 1488 1969 1388 1706 
Q 1288 1444 1234 1272 
Q 1181 1100 1147 934 
Q 1113 769 1113 603 
Q 1113 391 1203 244 
Q 1294 97 1491 97 
Q 1888 97 2203 581 
L 2688 2553 
Q 2709 2638 2787 2698 
Q 2866 2759 2956 2759 
Q 3034 2759 3092 2709 
Q 3150 2659 3150 2578 
Q 3150 2541 3144 2528 
L 2509 -19 
Q 2425 -347 2200 -647 
Q 1975 -947 1658 -1130 
Q 1341 -1313 997 -1313 
Q 831 -1313 668 -1248 
Q 506 -1184 406 -1056 
Q 306 -928 306 -756 
Q 306 -581 409 -453 
Q 513 -325 684 -325 
Q 788 -325 858 -389 
Q 928 -453 928 -556 
Q 928 -703 818 -812 
Q 709 -922 563 -922 
Q 556 -919 550 -917 
Q 544 -916 538 -916 
z
" transform="scale(0.015625)"/>
     </defs>
     <use xlink:href="#Cmmi10-6c"/>
     <use xlink:href="#Cmr10-28" transform="translate(29.785156 0)"/>
     <use xlink:href="#Cmb10-6f" transform="translate(68.603516 0)"/>
     <use xlink:href="#Cmmi10-3b" transform="translate(118.603516 0)"/>
     <use xlink:href="#Cmmi10-79" transform="translate(163.847656 0)"/>
     <use xlink:href="#Cmr10-29" transform="translate(212.871094 0)"/>
    </g>
   </g>
   <g id="text_10">
    <!-- $\mathbf{W}^{(1)}$ -->
    <g style="fill: #7f7f7f" transform="translate(121.0362 158.257587) scale(0.13 -0.13)">
     <use xlink:href="#Cmb10-57" transform="translate(0 0.235938)"/>
     <use xlink:href="#Cmr10-28" transform="translate(107.784453 38.5) scale(0.7)"/>
     <use xlink:href="#Cmr10-31" transform="translate(134.957305 38.5) scale(0.7)"/>
     <use xlink:href="#Cmr10-29" transform="translate(169.957305 38.5) scale(0.7)"/>
    </g>
   </g>
   <g id="text_11">
    <!-- $\mathbf{W}^{(2)}$ -->
    <g style="fill: #7f7f7f" transform="translate(362.616 158.257587) scale(0.13 -0.13)">
     <use xlink:href="#Cmb10-57" transform="translate(0 0.235938)"/>
     <use xlink:href="#Cmr10-28" transform="translate(107.784453 38.5) scale(0.7)"/>
     <use xlink:href="#Cmr10-32" transform="translate(134.957305 38.5) scale(0.7)"/>
     <use xlink:href="#Cmr10-29" transform="translate(169.957305 38.5) scale(0.7)"/>
    </g>
   </g>
   <g id="patch_24">
    <path d="M 134.2962 175.82076 
Q 134.2962 207.0612 134.2962 236.289179 
" style="fill: none; stroke: #15181c; stroke-width: 1.8; stroke-linecap: round"/>
    <path d="M 136.6962 231.489179 
L 134.2962 236.289179 
L 131.8962 231.489179 
" style="fill: none; stroke: #15181c; stroke-width: 1.8; stroke-linecap: round"/>
   </g>
   <g id="patch_25">
    <path d="M 375.876 175.82076 
Q 375.876 207.0612 375.876 236.289179 
" style="fill: none; stroke: #15181c; stroke-width: 1.8; stroke-linecap: round"/>
    <path d="M 378.276 231.489179 
L 375.876 236.289179 
L 373.476 231.489179 
" style="fill: none; stroke: #15181c; stroke-width: 1.8; stroke-linecap: round"/>
   </g>
   <g id="text_12">
    <!-- $s$ -->
    <g style="fill: #1f77b4" transform="translate(252.0311 67.058787) scale(0.13 -0.13)">
     <defs>
      <path id="Cmmi10-73" d="M 556 391 
Q 728 97 1247 97 
Q 1472 97 1675 173 
Q 1878 250 2011 403 
Q 2144 556 2144 775 
Q 2144 941 2025 1047 
Q 1906 1153 1734 1191 
L 1388 1259 
Q 1150 1319 997 1481 
Q 844 1644 844 1875 
Q 844 2159 998 2378 
Q 1153 2597 1406 2712 
Q 1659 2828 1931 2828 
Q 2222 2828 2451 2689 
Q 2681 2550 2681 2278 
Q 2681 2131 2598 2018 
Q 2516 1906 2369 1906 
Q 2284 1906 2223 1961 
Q 2163 2016 2163 2100 
Q 2163 2175 2205 2245 
Q 2247 2316 2317 2358 
Q 2388 2400 2463 2400 
Q 2406 2538 2251 2600 
Q 2097 2663 1919 2663 
Q 1756 2663 1593 2597 
Q 1431 2531 1332 2404 
Q 1234 2278 1234 2106 
Q 1234 1991 1315 1903 
Q 1397 1816 1516 1778 
L 1888 1703 
Q 2066 1666 2214 1570 
Q 2363 1475 2448 1329 
Q 2534 1184 2534 997 
Q 2534 759 2401 528 
Q 2269 297 2075 159 
Q 1734 -72 1241 -72 
Q 900 -72 615 84 
Q 331 241 331 550 
Q 331 725 432 854 
Q 534 984 709 984 
Q 813 984 883 921 
Q 953 859 953 756 
Q 953 609 843 500 
Q 734 391 588 391 
L 556 391 
z
" transform="scale(0.015625)"/>
     </defs>
     <use xlink:href="#Cmmi10-73" transform="translate(0 0.8125)"/>
    </g>
   </g>
   <g id="text_13">
    <!-- $J$ -->
    <g style="fill: #ff7f0e" transform="translate(558.5144 67.058787) scale(0.13 -0.13)">
     <defs>
      <path id="Cmmi10-4a" d="M 697 384 
Q 759 206 928 115 
Q 1097 25 1294 25 
Q 1494 25 1680 164 
Q 1866 303 1995 512 
Q 2125 722 2175 928 
L 2931 3956 
Q 2938 3981 2939 3993 
Q 2941 4006 2944 4019 
Q 2944 4088 2894 4103 
Q 2725 4147 2209 4147 
Q 2144 4147 2144 4231 
Q 2156 4281 2164 4309 
Q 2172 4338 2192 4355 
Q 2213 4372 2253 4372 
L 3988 4372 
Q 4050 4372 4050 4288 
Q 4025 4147 3969 4147 
Q 3744 4147 3628 4112 
Q 3513 4078 3469 3928 
L 2713 903 
Q 2641 606 2420 367 
Q 2200 128 1897 -6 
Q 1594 -141 1288 -141 
Q 950 -141 695 46 
Q 441 234 441 556 
Q 441 769 556 922 
Q 672 1075 884 1075 
Q 1006 1075 1089 1000 
Q 1172 925 1172 806 
Q 1172 634 1044 506 
Q 916 378 744 378 
Q 709 378 697 384 
z
" transform="scale(0.015625)"/>
     </defs>
     <use xlink:href="#Cmmi10-4a" transform="translate(0 0.6875)"/>
    </g>
   </g>
   <g id="patch_26">
    <path d="M 134.2962 133.52004 
Q 194.69115 109.071 253.220693 85.377113 
" style="fill: none; stroke: #15181c; stroke-width: 1.8; stroke-linecap: round"/>
    <path d="M 247.870865 84.953629 
L 253.220693 85.377113 
L 249.672009 89.402885 
" style="fill: none; stroke: #15181c; stroke-width: 1.8; stroke-linecap: round"/>
   </g>
   <g id="patch_27">
    <path d="M 375.876 133.52004 
Q 315.48105 109.071 256.951507 85.377113 
" style="fill: none; stroke: #15181c; stroke-width: 1.8; stroke-linecap: round"/>
    <path d="M 260.500191 89.402885 
L 256.951507 85.377113 
L 262.301335 84.953629 
" style="fill: none; stroke: #15181c; stroke-width: 1.8; stroke-linecap: round"/>
   </g>
   <g id="text_14">
    <!-- $\frac{\lambda}{2}\|\cdot\|_\mathrm{F}^2$ -->
    <g style="fill: #15181c" transform="translate(239.3886 31.39696) scale(0.115 -0.115)">
     <defs>
      <path id="Cmmi10-b8" d="M 325 109 
Q 325 203 409 288 
L 2209 2053 
L 1575 3834 
Q 1500 4038 1417 4156 
Q 1334 4275 1178 4275 
Q 1106 4275 1106 4359 
Q 1113 4397 1138 4419 
Q 1163 4441 1203 4441 
Q 1875 4441 2016 4044 
L 3316 416 
Q 3400 144 3488 50 
Q 3519 3 3519 -13 
Q 3519 -72 3469 -72 
L 3122 -72 
Q 2963 -25 2869 206 
L 2284 1844 
L 738 25 
Q 622 -84 531 -84 
Q 450 -84 387 -28 
Q 325 28 325 109 
z
" transform="scale(0.015625)"/>
      <path id="Cmsy10-6b" d="M 850 -1484 
L 850 4684 
Q 850 4734 890 4767 
Q 931 4800 978 4800 
Q 1031 4800 1068 4767 
Q 1106 4734 1106 4684 
L 1106 -1484 
Q 1106 -1534 1068 -1567 
Q 1031 -1600 978 -1600 
Q 931 -1600 890 -1567 
Q 850 -1534 850 -1484 
z
M 2094 -1484 
L 2094 4684 
Q 2094 4734 2131 4767 
Q 2169 4800 2222 4800 
Q 2269 4800 2309 4767 
Q 2350 4734 2350 4684 
L 2350 -1484 
Q 2350 -1534 2309 -1567 
Q 2269 -1600 2222 -1600 
Q 2169 -1600 2131 -1567 
Q 2094 -1534 2094 -1484 
z
" transform="scale(0.015625)"/>
      <path id="Cmsy10-a2" d="M 538 1600 
Q 538 1691 584 1772 
Q 631 1853 714 1903 
Q 797 1953 891 1953 
Q 981 1953 1064 1903 
Q 1147 1853 1194 1772 
Q 1241 1691 1241 1600 
Q 1241 1456 1139 1351 
Q 1038 1247 891 1247 
Q 747 1247 642 1351 
Q 538 1456 538 1600 
z
" transform="scale(0.015625)"/>
      <path id="Cmr10-46" d="M 197 0 
L 197 225 
Q 856 225 856 428 
L 856 3944 
Q 856 4147 197 4147 
L 197 4372 
L 3725 4372 
L 3903 2906 
L 3719 2906 
Q 3675 3309 3601 3542 
Q 3528 3775 3387 3908 
Q 3247 4041 3011 4094 
Q 2775 4147 2363 4147 
L 1778 4147 
Q 1663 4147 1598 4137 
Q 1534 4128 1493 4083 
Q 1453 4038 1453 3944 
L 1453 2297 
L 1906 2297 
Q 2234 2297 2387 2355 
Q 2541 2413 2598 2566 
Q 2656 2719 2656 3047 
L 2841 3047 
L 2841 1325 
L 2656 1325 
Q 2656 1653 2598 1806 
Q 2541 1959 2387 2017 
Q 2234 2075 1906 2075 
L 1453 2075 
L 1453 428 
Q 1453 225 2272 225 
L 2272 0 
L 197 0 
z
" transform="scale(0.015625)"/>
     </defs>
     <use xlink:href="#Cmmi10-b8" transform="translate(0 38.426563) scale(0.7)"/>
     <use xlink:href="#Cmr10-32" transform="translate(3 -40.36875) scale(0.7)"/>
     <use xlink:href="#Cmsy10-6b" transform="translate(53.310547 0.007812)"/>
     <use xlink:href="#Cmsy10-a2" transform="translate(120.869141 0.007812)"/>
     <use xlink:href="#Cmsy10-6b" transform="translate(166.113281 0.007812)"/>
     <use xlink:href="#Cmr10-32" transform="translate(220.577422 38.271875) scale(0.7)"/>
     <use xlink:href="#Cmr10-46" transform="translate(220.577422 -25.501563) scale(0.7)"/>
     <path d="M 0 12.507812 
L 0 18.757812 
L 40.810547 18.757812 
L 40.810547 12.507812 
L 0 12.507812 
z
"/>
    </g>
   </g>
   <g id="patch_28">
    <path d="M 299.52126 63.4716 
Q 408.62025 63.4716 515.483172 63.4716 
" style="fill: none; stroke: #15181c; stroke-width: 2; stroke-linecap: round"/>
    <path d="M 510.283172 60.8716 
L 515.483172 63.4716 
L 510.283172 66.0716 
" style="fill: none; stroke: #15181c; stroke-width: 2; stroke-linecap: round"/>
   </g>
   <g id="patch_29">
    <path d="M 562.1544 240.24204 
Q 562.1544 162.432 562.1544 86.858028 
" style="fill: none; stroke: #15181c; stroke-width: 2; stroke-linecap: round"/>
    <path d="M 559.5544 92.058028 
L 562.1544 86.858028 
L 564.7544 92.058028 
" style="fill: none; stroke: #15181c; stroke-width: 2; stroke-linecap: round"/>
   </g>
   <g id="text_15">
    <!-- $J=L+s$ -->
    <g style="fill: #15181c" transform="translate(385.85025 49.437559) scale(0.115 -0.115)">
     <defs>
      <path id="Cmr10-3d" d="M 481 850 
Q 428 850 393 890 
Q 359 931 359 978 
Q 359 1031 393 1068 
Q 428 1106 481 1106 
L 4500 1106 
Q 4547 1106 4581 1068 
Q 4616 1031 4616 978 
Q 4616 931 4581 890 
Q 4547 850 4500 850 
L 481 850 
z
M 481 2094 
Q 428 2094 393 2131 
Q 359 2169 359 2222 
Q 359 2269 393 2309 
Q 428 2350 481 2350 
L 4500 2350 
Q 4547 2350 4581 2309 
Q 4616 2269 4616 2222 
Q 4616 2169 4581 2131 
Q 4547 2094 4500 2094 
L 481 2094 
z
" transform="scale(0.015625)"/>
      <path id="Cmr10-2b" d="M 481 1472 
Q 428 1472 393 1512 
Q 359 1553 359 1600 
Q 359 1647 393 1687 
Q 428 1728 481 1728 
L 2363 1728 
L 2363 3616 
Q 2363 3666 2400 3698 
Q 2438 3731 2491 3731 
Q 2538 3731 2578 3698 
Q 2619 3666 2619 3616 
L 2619 1728 
L 4500 1728 
Q 4547 1728 4581 1687 
Q 4616 1647 4616 1600 
Q 4616 1553 4581 1512 
Q 4547 1472 4500 1472 
L 2619 1472 
L 2619 -416 
Q 2619 -466 2578 -498 
Q 2538 -531 2491 -531 
Q 2438 -531 2400 -498 
Q 2363 -466 2363 -416 
L 2363 1472 
L 481 1472 
z
" transform="scale(0.015625)"/>
     </defs>
     <use xlink:href="#Cmmi10-4a" transform="translate(0 0.6875)"/>
     <use xlink:href="#Cmr10-3d" transform="translate(72.978516 0.6875)"/>
     <use xlink:href="#Cmmi10-4c" transform="translate(168.222656 0.6875)"/>
     <use xlink:href="#Cmr10-2b" transform="translate(253.798828 0.6875)"/>
     <use xlink:href="#Cmmi10-73" transform="translate(349.042969 0.6875)"/>
    </g>
   </g>
   <g id="text_16">
    <!-- forward $\rightarrow$ -->
    <g style="fill: #15181c" transform="translate(27.5742 29.639312) scale(0.11 -0.11)">
     <defs>
      <path id="DejaVuSans-Bold-66" d="M 2841 4863 
L 2841 4128 
L 2222 4128 
Q 1984 4128 1890 4042 
Q 1797 3956 1797 3744 
L 1797 3500 
L 2753 3500 
L 2753 2700 
L 1797 2700 
L 1797 0 
L 678 0 
L 678 2700 
L 122 2700 
L 122 3500 
L 678 3500 
L 678 3744 
Q 678 4316 997 4589 
Q 1316 4863 1984 4863 
L 2841 4863 
z
" transform="scale(0.015625)"/>
      <path id="DejaVuSans-Bold-6f" d="M 2203 2784 
Q 1831 2784 1636 2517 
Q 1441 2250 1441 1747 
Q 1441 1244 1636 976 
Q 1831 709 2203 709 
Q 2569 709 2762 976 
Q 2956 1244 2956 1747 
Q 2956 2250 2762 2517 
Q 2569 2784 2203 2784 
z
M 2203 3584 
Q 3106 3584 3614 3096 
Q 4122 2609 4122 1747 
Q 4122 884 3614 396 
Q 3106 -91 2203 -91 
Q 1297 -91 786 396 
Q 275 884 275 1747 
Q 275 2609 786 3096 
Q 1297 3584 2203 3584 
z
" transform="scale(0.015625)"/>
      <path id="DejaVuSans-Bold-72" d="M 3138 2547 
Q 2991 2616 2845 2648 
Q 2700 2681 2553 2681 
Q 2122 2681 1889 2404 
Q 1656 2128 1656 1613 
L 1656 0 
L 538 0 
L 538 3500 
L 1656 3500 
L 1656 2925 
Q 1872 3269 2151 3426 
Q 2431 3584 2822 3584 
Q 2878 3584 2943 3579 
Q 3009 3575 3134 3559 
L 3138 2547 
z
" transform="scale(0.015625)"/>
      <path id="DejaVuSans-Bold-77" d="M 225 3500 
L 1313 3500 
L 1900 1088 
L 2491 3500 
L 3425 3500 
L 4013 1113 
L 4603 3500 
L 5691 3500 
L 4769 0 
L 3547 0 
L 2956 2406 
L 2369 0 
L 1147 0 
L 225 3500 
z
" transform="scale(0.015625)"/>
      <path id="DejaVuSans-Bold-61" d="M 2106 1575 
Q 1756 1575 1579 1456 
Q 1403 1338 1403 1106 
Q 1403 894 1545 773 
Q 1688 653 1941 653 
Q 2256 653 2472 879 
Q 2688 1106 2688 1447 
L 2688 1575 
L 2106 1575 
z
M 3816 1997 
L 3816 0 
L 2688 0 
L 2688 519 
Q 2463 200 2181 54 
Q 1900 -91 1497 -91 
Q 953 -91 614 226 
Q 275 544 275 1050 
Q 275 1666 698 1953 
Q 1122 2241 2028 2241 
L 2688 2241 
L 2688 2328 
Q 2688 2594 2478 2717 
Q 2269 2841 1825 2841 
Q 1466 2841 1156 2769 
Q 847 2697 581 2553 
L 581 3406 
Q 941 3494 1303 3539 
Q 1666 3584 2028 3584 
Q 2975 3584 3395 3211 
Q 3816 2838 3816 1997 
z
" transform="scale(0.015625)"/>
      <path id="DejaVuSans-Bold-64" d="M 2919 2988 
L 2919 4863 
L 4044 4863 
L 4044 0 
L 2919 0 
L 2919 506 
Q 2688 197 2409 53 
Q 2131 -91 1766 -91 
Q 1119 -91 703 423 
Q 288 938 288 1747 
Q 288 2556 703 3070 
Q 1119 3584 1766 3584 
Q 2128 3584 2408 3439 
Q 2688 3294 2919 2988 
z
M 2181 722 
Q 2541 722 2730 984 
Q 2919 1247 2919 1747 
Q 2919 2247 2730 2509 
Q 2541 2772 2181 2772 
Q 1825 2772 1636 2509 
Q 1447 2247 1447 1747 
Q 1447 1247 1636 984 
Q 1825 722 2181 722 
z
" transform="scale(0.015625)"/>
      <path id="DejaVuSans-Bold-20" transform="scale(0.015625)"/>
      <path id="Cmsy10-21" d="M 481 1472 
Q 428 1472 393 1512 
Q 359 1553 359 1600 
Q 359 1647 393 1687 
Q 428 1728 481 1728 
L 5338 1728 
Q 5094 1903 4906 2133 
Q 4719 2363 4594 2627 
Q 4469 2891 4416 3188 
Q 4416 3272 4481 3272 
L 4609 3272 
Q 4631 3272 4648 3253 
Q 4666 3234 4672 3213 
Q 4725 2938 4839 2702 
Q 4953 2466 5125 2262 
Q 5297 2059 5509 1912 
Q 5722 1766 5991 1672 
Q 6034 1644 6034 1600 
Q 6034 1550 5991 1538 
Q 5656 1422 5378 1192 
Q 5100 963 4919 652 
Q 4738 341 4672 -13 
Q 4666 -34 4647 -53 
Q 4628 -72 4609 -72 
L 4481 -72 
Q 4416 -72 4416 13 
Q 4497 450 4740 836 
Q 4984 1222 5338 1472 
L 481 1472 
z
" transform="scale(0.015625)"/>
     </defs>
     <use xlink:href="#DejaVuSans-Bold-66" transform="translate(0 0.015625)"/>
     <use xlink:href="#DejaVuSans-Bold-6f" transform="translate(43.505859 0.015625)"/>
     <use xlink:href="#DejaVuSans-Bold-72" transform="translate(112.207031 0.015625)"/>
     <use xlink:href="#DejaVuSans-Bold-77" transform="translate(161.523438 0.015625)"/>
     <use xlink:href="#DejaVuSans-Bold-61" transform="translate(253.90625 0.015625)"/>
     <use xlink:href="#DejaVuSans-Bold-72" transform="translate(321.386719 0.015625)"/>
     <use xlink:href="#DejaVuSans-Bold-64" transform="translate(370.703125 0.015625)"/>
     <use xlink:href="#DejaVuSans-Bold-20" transform="translate(442.285156 0.015625)"/>
     <use xlink:href="#Cmsy10-21" transform="translate(494.658203 0.015625)"/>
    </g>
   </g>
  </g>
 </g>
 <defs>
  <clipPath id="p1f1e374781">
   <rect x="7.2" y="7.2" width="620.928" height="310.464"/>
  </clipPath>
 </defs>
</svg>
