<?xml version="1.0" encoding="utf-8" standalone="no"?>
<!DOCTYPE svg PUBLIC "-//W3C//DTD SVG 1.1//EN"
  "http://www.w3.org/Graphics/SVG/1.1/DTD/svg11.dtd">
<svg xmlns:xlink="http://www.w3.org/1999/xlink" width="432.402812pt" height="266.51625pt" viewBox="0 0 432.402812 266.51625" xmlns="http://www.w3.org/2000/svg" version="1.1">
 <metadata>
  <rdf:RDF xmlns:dc="http://purl.org/dc/elements/1.1/" xmlns:cc="http://creativecommons.org/ns#" xmlns:rdf="http://www.w3.org/1999/02/22-rdf-syntax-ns#">
   <cc:Work>
    <dc:type rdf:resource="http://purl.org/dc/dcmitype/StillImage"/>
    <dc:format>image/svg+xml</dc:format>
    <dc:creator>
     <cc:Agent>
      <dc:title>Matplotlib v3.10.8, https://matplotlib.org/</dc:title>
     </cc:Agent>
    </dc:creator>
   </cc:Work>
  </rdf:RDF>
 </metadata>
 <defs>
  <style type="text/css">*{stroke-linejoin: round; stroke-linecap: butt}</style>
 </defs>
 <g id="figure_1">
  <g id="patch_1">
   <path d="M 0 266.51625 
L 432.402812 266.51625 
L 432.402812 0 
L 0 0 
z
" style="fill: #ffffff"/>
  </g>
  <g id="axes_1">
   <g id="patch_2">
    <path d="M 43.512812 228.96 
L 422.952812 228.96 
L 422.952812 7.2 
L 43.512812 7.2 
z
" style="fill: #ffffff"/>
   </g>
   <g id="FillBetweenPolyCollection_1">
    <defs>
     <path id="mf64f396237" d="M 43.512813 -37.576283 
L 43.512813 -37.55625 
L 44.146268 -37.55625 
L 44.779724 -37.55625 
L 45.41318 -37.55625 
L 46.046636 -37.55625 
L 46.680091 -37.55625 
L 47.313547 -37.55625 
L 47.947003 -37.55625 
L 48.580459 -37.55625 
L 49.213914 -37.55625 
L 49.84737 -37.55625 
L 50.480826 -37.55625 
L 51.114282 -37.55625 
L 51.747737 -37.55625 
L 52.381193 -37.55625 
L 53.014649 -37.55625 
L 53.648105 -37.55625 
L 54.28156 -37.55625 
L 54.915016 -37.55625 
L 55.548472 -37.55625 
L 56.181928 -37.55625 
L 56.815383 -37.55625 
L 57.448839 -37.55625 
L 58.082295 -37.55625 
L 58.715751 -37.55625 
L 59.349206 -37.55625 
L 59.982662 -37.55625 
L 60.616118 -37.55625 
L 61.249574 -37.55625 
L 61.88303 -37.55625 
L 62.516485 -37.55625 
L 63.149941 -37.55625 
L 63.783397 -37.55625 
L 64.416853 -37.55625 
L 65.050308 -37.55625 
L 65.683764 -37.55625 
L 66.31722 -37.55625 
L 66.950676 -37.55625 
L 67.584131 -37.55625 
L 68.217587 -37.55625 
L 68.851043 -37.55625 
L 69.484499 -37.55625 
L 70.117954 -37.55625 
L 70.75141 -37.55625 
L 71.384866 -37.55625 
L 72.018322 -37.55625 
L 72.651777 -37.55625 
L 73.285233 -37.55625 
L 73.918689 -37.55625 
L 74.552145 -37.55625 
L 75.1856 -37.55625 
L 75.819056 -37.55625 
L 76.452512 -37.55625 
L 77.085968 -37.55625 
L 77.719424 -37.55625 
L 78.352879 -37.55625 
L 78.986335 -37.55625 
L 79.619791 -37.55625 
L 80.253247 -37.55625 
L 80.886702 -37.55625 
L 81.520158 -37.55625 
L 82.153614 -37.55625 
L 82.78707 -37.55625 
L 83.420525 -37.55625 
L 84.053981 -37.55625 
L 84.687437 -37.55625 
L 85.320893 -37.55625 
L 85.954348 -37.55625 
L 86.587804 -37.55625 
L 87.22126 -37.55625 
L 87.854716 -37.55625 
L 88.488171 -37.55625 
L 89.121627 -37.55625 
L 89.755083 -37.55625 
L 90.388539 -37.55625 
L 91.021994 -37.55625 
L 91.65545 -37.55625 
L 92.288906 -37.55625 
L 92.922362 -37.55625 
L 93.555818 -37.55625 
L 94.189273 -37.55625 
L 94.822729 -37.55625 
L 95.456185 -37.55625 
L 96.089641 -37.55625 
L 96.723096 -37.55625 
L 97.356552 -37.55625 
L 97.990008 -37.55625 
L 98.623464 -37.55625 
L 99.256919 -37.55625 
L 99.890375 -37.55625 
L 100.523831 -37.55625 
L 101.157287 -37.55625 
L 101.790742 -37.55625 
L 102.424198 -37.55625 
L 103.057654 -37.55625 
L 103.69111 -37.55625 
L 104.324565 -37.55625 
L 104.958021 -37.55625 
L 105.591477 -37.55625 
L 106.224933 -37.55625 
L 106.858388 -37.55625 
L 107.491844 -37.55625 
L 108.1253 -37.55625 
L 108.758756 -37.55625 
L 109.392211 -37.55625 
L 110.025667 -37.55625 
L 110.659123 -37.55625 
L 111.292579 -37.55625 
L 111.926035 -37.55625 
L 112.55949 -37.55625 
L 113.192946 -37.55625 
L 113.826402 -37.55625 
L 114.459858 -37.55625 
L 115.093313 -37.55625 
L 115.726769 -37.55625 
L 116.360225 -37.55625 
L 116.993681 -37.55625 
L 117.627136 -37.55625 
L 118.260592 -37.55625 
L 118.894048 -37.55625 
L 119.527504 -37.55625 
L 120.160959 -37.55625 
L 120.794415 -37.55625 
L 121.427871 -37.55625 
L 122.061327 -37.55625 
L 122.694782 -37.55625 
L 123.328238 -37.55625 
L 123.961694 -37.55625 
L 124.59515 -37.55625 
L 125.228605 -37.55625 
L 125.862061 -37.55625 
L 126.495517 -37.55625 
L 127.128973 -37.55625 
L 127.762429 -37.55625 
L 128.395884 -37.55625 
L 129.02934 -37.55625 
L 129.662796 -37.55625 
L 130.296252 -37.55625 
L 130.929707 -37.55625 
L 131.563163 -37.55625 
L 132.196619 -37.55625 
L 132.830075 -37.55625 
L 133.46353 -37.55625 
L 134.096986 -37.55625 
L 134.730442 -37.55625 
L 135.363898 -37.55625 
L 135.997353 -37.55625 
L 136.630809 -37.55625 
L 137.264265 -37.55625 
L 137.897721 -37.55625 
L 138.531176 -37.55625 
L 139.164632 -37.55625 
L 139.798088 -37.55625 
L 140.431544 -37.55625 
L 141.064999 -37.55625 
L 141.698455 -37.55625 
L 142.331911 -37.55625 
L 142.965367 -37.55625 
L 143.598823 -37.55625 
L 144.232278 -37.55625 
L 144.865734 -37.55625 
L 145.49919 -37.55625 
L 146.132646 -37.55625 
L 146.766101 -37.55625 
L 147.399557 -37.55625 
L 148.033013 -37.55625 
L 148.666469 -37.55625 
L 149.299924 -37.55625 
L 149.93338 -37.55625 
L 150.566836 -37.55625 
L 151.200292 -37.55625 
L 151.833747 -37.55625 
L 152.467203 -37.55625 
L 153.100659 -37.55625 
L 153.734115 -37.55625 
L 154.36757 -37.55625 
L 155.001026 -37.55625 
L 155.634482 -37.55625 
L 156.267938 -37.55625 
L 156.901393 -37.55625 
L 157.534849 -37.55625 
L 158.168305 -37.55625 
L 158.801761 -37.55625 
L 159.435217 -37.55625 
L 160.068672 -37.55625 
L 160.702128 -37.55625 
L 161.335584 -37.55625 
L 161.96904 -37.55625 
L 162.602495 -37.55625 
L 163.235951 -37.55625 
L 163.869407 -37.55625 
L 164.502863 -37.55625 
L 165.136318 -37.55625 
L 165.769774 -37.55625 
L 166.40323 -37.55625 
L 167.036686 -37.55625 
L 167.670141 -37.55625 
L 168.303597 -37.55625 
L 168.937053 -37.55625 
L 169.570509 -37.55625 
L 170.203964 -37.55625 
L 170.83742 -37.55625 
L 171.470876 -37.55625 
L 172.104332 -37.55625 
L 172.737787 -37.55625 
L 173.371243 -37.55625 
L 174.004699 -37.55625 
L 174.638155 -37.55625 
L 175.27161 -37.55625 
L 175.905066 -37.55625 
L 176.538522 -37.55625 
L 177.171978 -37.55625 
L 177.805434 -37.55625 
L 178.438889 -37.55625 
L 179.072345 -37.55625 
L 179.705801 -37.55625 
L 180.339257 -37.55625 
L 180.972712 -37.55625 
L 181.606168 -37.55625 
L 182.239624 -37.55625 
L 182.87308 -37.55625 
L 183.506535 -37.55625 
L 184.139991 -37.55625 
L 184.773447 -37.55625 
L 185.406903 -37.55625 
L 186.040358 -37.55625 
L 186.673814 -37.55625 
L 187.30727 -37.55625 
L 187.940726 -37.55625 
L 188.574181 -37.55625 
L 189.207637 -37.55625 
L 189.841093 -37.55625 
L 190.474549 -37.55625 
L 191.108004 -37.55625 
L 191.74146 -37.55625 
L 192.374916 -37.55625 
L 193.008372 -37.55625 
L 193.641828 -37.55625 
L 194.275283 -37.55625 
L 194.908739 -37.55625 
L 195.542195 -37.55625 
L 196.175651 -37.55625 
L 196.809106 -37.55625 
L 197.442562 -37.55625 
L 198.076018 -37.55625 
L 198.709474 -37.55625 
L 199.342929 -37.55625 
L 199.976385 -37.55625 
L 200.609841 -37.55625 
L 201.243297 -37.55625 
L 201.876752 -37.55625 
L 202.510208 -37.55625 
L 203.143664 -37.55625 
L 203.77712 -37.55625 
L 204.410575 -37.55625 
L 205.044031 -37.55625 
L 205.677487 -37.55625 
L 206.310943 -37.55625 
L 206.944398 -37.55625 
L 207.577854 -37.55625 
L 208.21131 -37.55625 
L 208.844766 -37.55625 
L 209.478222 -37.55625 
L 210.111677 -37.55625 
L 210.745133 -37.55625 
L 211.378589 -37.55625 
L 212.012045 -37.55625 
L 212.6455 -37.55625 
L 213.278956 -37.55625 
L 213.912412 -37.55625 
L 214.545868 -37.55625 
L 215.179323 -37.55625 
L 215.812779 -37.55625 
L 216.446235 -37.55625 
L 217.079691 -37.55625 
L 217.713146 -37.55625 
L 218.346602 -37.55625 
L 218.980058 -37.55625 
L 219.613514 -37.55625 
L 220.246969 -37.55625 
L 220.880425 -37.55625 
L 221.513881 -37.55625 
L 222.147337 -37.55625 
L 222.780792 -37.55625 
L 223.414248 -37.55625 
L 224.047704 -37.55625 
L 224.68116 -37.55625 
L 225.314616 -37.55625 
L 225.948071 -37.55625 
L 226.581527 -37.55625 
L 227.214983 -37.55625 
L 227.848439 -37.55625 
L 228.481894 -37.55625 
L 229.11535 -37.55625 
L 229.748806 -37.55625 
L 230.382262 -37.55625 
L 231.015717 -37.55625 
L 231.649173 -37.55625 
L 232.282629 -37.55625 
L 232.916085 -37.55625 
L 233.54954 -37.55625 
L 234.182996 -37.55625 
L 234.816452 -37.55625 
L 235.449908 -37.55625 
L 236.083363 -37.55625 
L 236.716819 -37.55625 
L 237.350275 -37.55625 
L 237.983731 -37.55625 
L 238.617186 -37.55625 
L 239.250642 -37.55625 
L 239.884098 -37.55625 
L 240.517554 -37.55625 
L 241.151009 -37.55625 
L 241.784465 -37.55625 
L 242.417921 -37.55625 
L 243.051377 -37.55625 
L 243.684833 -37.55625 
L 244.318288 -37.55625 
L 244.951744 -37.55625 
L 245.5852 -37.55625 
L 246.218656 -37.55625 
L 246.852111 -37.55625 
L 247.485567 -37.55625 
L 248.119023 -37.55625 
L 248.752479 -37.55625 
L 249.385934 -37.55625 
L 250.01939 -37.55625 
L 250.652846 -37.55625 
L 251.286302 -37.55625 
L 251.919757 -37.55625 
L 252.553213 -37.55625 
L 253.186669 -37.55625 
L 253.820125 -37.55625 
L 254.45358 -37.55625 
L 255.087036 -37.55625 
L 255.720492 -37.55625 
L 256.353948 -37.55625 
L 256.987403 -37.55625 
L 257.620859 -37.55625 
L 258.254315 -37.55625 
L 258.887771 -37.55625 
L 259.521227 -37.55625 
L 260.154682 -37.55625 
L 260.788138 -37.55625 
L 261.421594 -37.55625 
L 262.05505 -37.55625 
L 262.688505 -37.55625 
L 263.321961 -37.55625 
L 263.955417 -37.55625 
L 264.588873 -37.55625 
L 265.222328 -37.55625 
L 265.855784 -37.55625 
L 266.48924 -37.55625 
L 267.122696 -37.55625 
L 267.756151 -37.55625 
L 268.389607 -37.55625 
L 269.023063 -37.55625 
L 269.656519 -37.55625 
L 270.289974 -37.55625 
L 270.92343 -37.55625 
L 271.556886 -37.55625 
L 272.190342 -37.55625 
L 272.823797 -37.55625 
L 273.457253 -37.55625 
L 274.090709 -37.55625 
L 274.724165 -37.55625 
L 275.357621 -37.55625 
L 275.991076 -37.55625 
L 276.624532 -37.55625 
L 277.257988 -37.55625 
L 277.891444 -37.55625 
L 278.524899 -37.55625 
L 279.158355 -37.55625 
L 279.791811 -37.55625 
L 280.425267 -37.55625 
L 281.058722 -37.55625 
L 281.692178 -37.55625 
L 282.325634 -37.55625 
L 282.95909 -37.55625 
L 283.592545 -37.55625 
L 284.226001 -37.55625 
L 284.859457 -37.55625 
L 285.492913 -37.55625 
L 286.126368 -37.55625 
L 286.759824 -37.55625 
L 287.39328 -37.55625 
L 288.026736 -37.55625 
L 288.660191 -37.55625 
L 289.293647 -37.55625 
L 289.927103 -37.55625 
L 290.560559 -37.55625 
L 291.194015 -37.55625 
L 291.82747 -37.55625 
L 292.460926 -37.55625 
L 293.094382 -37.55625 
L 293.727838 -37.55625 
L 294.361293 -37.55625 
L 294.994749 -37.55625 
L 295.628205 -37.55625 
L 296.261661 -37.55625 
L 296.895116 -37.55625 
L 297.528572 -37.55625 
L 298.162028 -37.55625 
L 298.795484 -37.55625 
L 299.428939 -37.55625 
L 300.062395 -37.55625 
L 300.695851 -37.55625 
L 301.329307 -37.55625 
L 301.962762 -37.55625 
L 302.596218 -37.55625 
L 303.229674 -37.55625 
L 303.86313 -37.55625 
L 304.496585 -37.55625 
L 305.130041 -37.55625 
L 305.763497 -37.55625 
L 306.396953 -37.55625 
L 307.030408 -37.55625 
L 307.663864 -37.55625 
L 308.29732 -37.55625 
L 308.930776 -37.55625 
L 309.564232 -37.55625 
L 310.197687 -37.55625 
L 310.831143 -37.55625 
L 311.464599 -37.55625 
L 312.098055 -37.55625 
L 312.73151 -37.55625 
L 313.364966 -37.55625 
L 313.998422 -37.55625 
L 314.631878 -37.55625 
L 315.265333 -37.55625 
L 315.898789 -37.55625 
L 316.532245 -37.55625 
L 317.165701 -37.55625 
L 317.799156 -37.55625 
L 318.432612 -37.55625 
L 319.066068 -37.55625 
L 319.699524 -37.55625 
L 320.332979 -37.55625 
L 320.966435 -37.55625 
L 321.599891 -37.55625 
L 322.233347 -37.55625 
L 322.866802 -37.55625 
L 323.500258 -37.55625 
L 324.133714 -37.55625 
L 324.76717 -37.55625 
L 325.400626 -37.55625 
L 326.034081 -37.55625 
L 326.667537 -37.55625 
L 327.300993 -37.55625 
L 327.934449 -37.55625 
L 328.567904 -37.55625 
L 329.20136 -37.55625 
L 329.834816 -37.55625 
L 330.468272 -37.55625 
L 331.101727 -37.55625 
L 331.735183 -37.55625 
L 332.368639 -37.55625 
L 333.002095 -37.55625 
L 333.63555 -37.55625 
L 334.269006 -37.55625 
L 334.902462 -37.55625 
L 335.535918 -37.55625 
L 336.169373 -37.55625 
L 336.802829 -37.55625 
L 337.436285 -37.55625 
L 338.069741 -37.55625 
L 338.703196 -37.55625 
L 339.336652 -37.55625 
L 339.970108 -37.55625 
L 340.603564 -37.55625 
L 341.23702 -37.55625 
L 341.870475 -37.55625 
L 342.503931 -37.55625 
L 343.137387 -37.55625 
L 343.770843 -37.55625 
L 344.404298 -37.55625 
L 345.037754 -37.55625 
L 345.67121 -37.55625 
L 346.304666 -37.55625 
L 346.938121 -37.55625 
L 347.571577 -37.55625 
L 348.205033 -37.55625 
L 348.838489 -37.55625 
L 349.471944 -37.55625 
L 350.1054 -37.55625 
L 350.738856 -37.55625 
L 351.372312 -37.55625 
L 352.005767 -37.55625 
L 352.639223 -37.55625 
L 353.272679 -37.55625 
L 353.906135 -37.55625 
L 354.53959 -37.55625 
L 355.173046 -37.55625 
L 355.806502 -37.55625 
L 356.439958 -37.55625 
L 357.073414 -37.55625 
L 357.706869 -37.55625 
L 358.340325 -37.55625 
L 358.973781 -37.55625 
L 359.607237 -37.55625 
L 360.240692 -37.55625 
L 360.874148 -37.55625 
L 361.507604 -37.55625 
L 362.14106 -37.55625 
L 362.774515 -37.55625 
L 363.407971 -37.55625 
L 364.041427 -37.55625 
L 364.674883 -37.55625 
L 365.308338 -37.55625 
L 365.941794 -37.55625 
L 366.57525 -37.55625 
L 367.208706 -37.55625 
L 367.842161 -37.55625 
L 368.475617 -37.55625 
L 369.109073 -37.55625 
L 369.742529 -37.55625 
L 370.375984 -37.55625 
L 371.00944 -37.55625 
L 371.642896 -37.55625 
L 372.276352 -37.55625 
L 372.909807 -37.55625 
L 373.543263 -37.55625 
L 374.176719 -37.55625 
L 374.810175 -37.55625 
L 375.443631 -37.55625 
L 376.077086 -37.55625 
L 376.710542 -37.55625 
L 377.343998 -37.55625 
L 377.977454 -37.55625 
L 378.610909 -37.55625 
L 379.244365 -37.55625 
L 379.877821 -37.55625 
L 380.511277 -37.55625 
L 381.144732 -37.55625 
L 381.778188 -37.55625 
L 382.411644 -37.55625 
L 383.0451 -37.55625 
L 383.678555 -37.55625 
L 384.312011 -37.55625 
L 384.945467 -37.55625 
L 385.578923 -37.55625 
L 386.212378 -37.55625 
L 386.845834 -37.55625 
L 387.47929 -37.55625 
L 388.112746 -37.55625 
L 388.746201 -37.55625 
L 389.379657 -37.55625 
L 390.013113 -37.55625 
L 390.646569 -37.55625 
L 391.280025 -37.55625 
L 391.91348 -37.55625 
L 392.546936 -37.55625 
L 393.180392 -37.55625 
L 393.813848 -37.55625 
L 394.447303 -37.55625 
L 395.080759 -37.55625 
L 395.714215 -37.55625 
L 396.347671 -37.55625 
L 396.981126 -37.55625 
L 397.614582 -37.55625 
L 398.248038 -37.55625 
L 398.881494 -37.55625 
L 399.514949 -37.55625 
L 400.148405 -37.55625 
L 400.781861 -37.55625 
L 401.415317 -37.55625 
L 402.048772 -37.55625 
L 402.682228 -37.55625 
L 403.315684 -37.55625 
L 403.94914 -37.55625 
L 404.582595 -37.55625 
L 405.216051 -37.55625 
L 405.849507 -37.55625 
L 406.482963 -37.55625 
L 407.116419 -37.55625 
L 407.749874 -37.55625 
L 408.38333 -37.55625 
L 409.016786 -37.55625 
L 409.650242 -37.55625 
L 410.283697 -37.55625 
L 410.917153 -37.55625 
L 411.550609 -37.55625 
L 412.184065 -37.55625 
L 412.81752 -37.55625 
L 413.450976 -37.55625 
L 414.084432 -37.55625 
L 414.717888 -37.55625 
L 415.351343 -37.55625 
L 415.984799 -37.55625 
L 416.618255 -37.55625 
L 417.251711 -37.55625 
L 417.885166 -37.55625 
L 418.518622 -37.55625 
L 419.152078 -37.55625 
L 419.785534 -37.55625 
L 420.418989 -37.55625 
L 421.052445 -37.55625 
L 421.685901 -37.55625 
L 422.319357 -37.55625 
L 422.952812 -37.55625 
L 422.952812 -37.659149 
L 422.952812 -37.659149 
L 422.319357 -37.664621 
L 421.685901 -37.670363 
L 421.052445 -37.676388 
L 420.418989 -37.682707 
L 419.785534 -37.689335 
L 419.152078 -37.696284 
L 418.518622 -37.70357 
L 417.885166 -37.711206 
L 417.251711 -37.719209 
L 416.618255 -37.727593 
L 415.984799 -37.736376 
L 415.351343 -37.745575 
L 414.717888 -37.755207 
L 414.084432 -37.765291 
L 413.450976 -37.775846 
L 412.81752 -37.786892 
L 412.184065 -37.79845 
L 411.550609 -37.81054 
L 410.917153 -37.823185 
L 410.283697 -37.836408 
L 409.650242 -37.850232 
L 409.016786 -37.864682 
L 408.38333 -37.879783 
L 407.749874 -37.895561 
L 407.116419 -37.912044 
L 406.482963 -37.92926 
L 405.849507 -37.947238 
L 405.216051 -37.966007 
L 404.582595 -37.985599 
L 403.94914 -38.006046 
L 403.315684 -38.02738 
L 402.682228 -38.049636 
L 402.048772 -38.07285 
L 401.415317 -38.097056 
L 400.781861 -38.122294 
L 400.148405 -38.148602 
L 399.514949 -38.176019 
L 398.881494 -38.204587 
L 398.248038 -38.234348 
L 397.614582 -38.265346 
L 396.981126 -38.297626 
L 396.347671 -38.331233 
L 395.714215 -38.366217 
L 395.080759 -38.402625 
L 394.447303 -38.440508 
L 393.813848 -38.479919 
L 393.180392 -38.52091 
L 392.546936 -38.563536 
L 391.91348 -38.607854 
L 391.280025 -38.653922 
L 390.646569 -38.701798 
L 390.013113 -38.751545 
L 389.379657 -38.803225 
L 388.746201 -38.856902 
L 388.112746 -38.912641 
L 387.47929 -38.970512 
L 386.845834 -39.030583 
L 386.212378 -39.092925 
L 385.578923 -39.15761 
L 384.945467 -39.224715 
L 384.312011 -39.294314 
L 383.678555 -39.366486 
L 383.0451 -39.441311 
L 382.411644 -39.518871 
L 381.778188 -39.59925 
L 381.144732 -39.682532 
L 380.511277 -39.768806 
L 379.877821 -39.85816 
L 379.244365 -39.950686 
L 378.610909 -40.046477 
L 377.977454 -40.145628 
L 377.343998 -40.248235 
L 376.710542 -40.354398 
L 376.077086 -40.464217 
L 375.443631 -40.577794 
L 374.810175 -40.695235 
L 374.176719 -40.816646 
L 373.543263 -40.942136 
L 372.909807 -41.071813 
L 372.276352 -41.205792 
L 371.642896 -41.344185 
L 371.00944 -41.487109 
L 370.375984 -41.634682 
L 369.742529 -41.787023 
L 369.109073 -41.944254 
L 368.475617 -42.106498 
L 367.842161 -42.27388 
L 367.208706 -42.446527 
L 366.57525 -42.624568 
L 365.941794 -42.808132 
L 365.308338 -42.997353 
L 364.674883 -43.192362 
L 364.041427 -43.393296 
L 363.407971 -43.60029 
L 362.774515 -43.813483 
L 362.14106 -44.033015 
L 361.507604 -44.259026 
L 360.874148 -44.491658 
L 360.240692 -44.731056 
L 359.607237 -44.977363 
L 358.973781 -45.230725 
L 358.340325 -45.49129 
L 357.706869 -45.759205 
L 357.073414 -46.034619 
L 356.439958 -46.317681 
L 355.806502 -46.608542 
L 355.173046 -46.907354 
L 354.53959 -47.214266 
L 353.906135 -47.529433 
L 353.272679 -47.853006 
L 352.639223 -48.185137 
L 352.005767 -48.525981 
L 351.372312 -48.875689 
L 350.738856 -49.234415 
L 350.1054 -49.602312 
L 349.471944 -49.979532 
L 348.838489 -50.366228 
L 348.205033 -50.762551 
L 347.571577 -51.168652 
L 346.938121 -51.584682 
L 346.304666 -52.010789 
L 345.67121 -52.447123 
L 345.037754 -52.89383 
L 344.404298 -53.351055 
L 343.770843 -53.818944 
L 343.137387 -54.297639 
L 342.503931 -54.787281 
L 341.870475 -55.288008 
L 341.23702 -55.799958 
L 340.603564 -56.323265 
L 339.970108 -56.858061 
L 339.336652 -57.404476 
L 338.703196 -57.962637 
L 338.069741 -58.532666 
L 337.436285 -59.114686 
L 336.802829 -59.708813 
L 336.169373 -60.315161 
L 335.535918 -60.933841 
L 334.902462 -61.564959 
L 334.269006 -62.208617 
L 333.63555 -62.864914 
L 333.002095 -63.533944 
L 332.368639 -64.215795 
L 331.735183 -64.910553 
L 331.101727 -65.618297 
L 330.468272 -66.339101 
L 329.834816 -67.073035 
L 329.20136 -67.820162 
L 328.567904 -68.58054 
L 327.934449 -69.354221 
L 327.300993 -70.141251 
L 326.667537 -70.94167 
L 326.034081 -71.755511 
L 325.400626 -72.582801 
L 324.76717 -73.423559 
L 324.133714 -74.2778 
L 323.500258 -75.145527 
L 322.866802 -76.02674 
L 322.233347 -76.92143 
L 321.599891 -77.829579 
L 320.966435 -78.751164 
L 320.332979 -79.686151 
L 319.699524 -80.6345 
L 319.066068 -81.596162 
L 318.432612 -82.571079 
L 317.799156 -83.559184 
L 317.165701 -84.560404 
L 316.532245 -85.574654 
L 315.898789 -86.601842 
L 315.265333 -87.641865 
L 314.631878 -88.694612 
L 313.998422 -89.759962 
L 313.364966 -90.837786 
L 312.73151 -91.927943 
L 312.098055 -93.030284 
L 311.464599 -94.144651 
L 310.831143 -95.270873 
L 310.197687 -96.408772 
L 309.564232 -97.558159 
L 308.930776 -98.718835 
L 308.29732 -99.890591 
L 307.663864 -101.073206 
L 307.030408 -102.266453 
L 306.396953 -103.470091 
L 305.763497 -104.68387 
L 305.130041 -105.907531 
L 304.496585 -107.140802 
L 303.86313 -108.383403 
L 303.229674 -109.635044 
L 302.596218 -110.895423 
L 301.962762 -112.16423 
L 301.329307 -113.441143 
L 300.695851 -114.725831 
L 300.062395 -116.017954 
L 299.428939 -117.31716 
L 298.795484 -118.623089 
L 298.162028 -119.935371 
L 297.528572 -121.253626 
L 296.895116 -122.577464 
L 296.261661 -123.906487 
L 295.628205 -125.240288 
L 294.994749 -126.57845 
L 294.361293 -127.920547 
L 293.727838 -129.266146 
L 293.094382 -130.614805 
L 292.460926 -131.966072 
L 291.82747 -133.319489 
L 291.194015 -134.674589 
L 290.560559 -136.030899 
L 289.927103 -137.387937 
L 289.293647 -138.745214 
L 288.660191 -140.102236 
L 288.026736 -141.458501 
L 287.39328 -142.813499 
L 286.759824 -144.166719 
L 286.126368 -145.517639 
L 285.492913 -146.865734 
L 284.859457 -148.210475 
L 284.226001 -149.551326 
L 283.592545 -150.887749 
L 282.95909 -152.2192 
L 282.325634 -153.545132 
L 281.692178 -154.864994 
L 281.058722 -156.178234 
L 280.425267 -157.484295 
L 279.791811 -158.782619 
L 279.158355 -160.072647 
L 278.524899 -161.353816 
L 277.891444 -162.625565 
L 277.257988 -163.88733 
L 276.624532 -165.138548 
L 275.991076 -166.378656 
L 275.357621 -167.607091 
L 274.724165 -168.823291 
L 274.090709 -170.026697 
L 273.457253 -171.21675 
L 272.823797 -172.392894 
L 272.190342 -173.554575 
L 271.556886 -174.701244 
L 270.92343 -175.832354 
L 270.289974 -176.947361 
L 269.656519 -178.045729 
L 269.023063 -179.126922 
L 268.389607 -180.190414 
L 267.756151 -181.235682 
L 267.122696 -182.262209 
L 266.48924 -183.269486 
L 265.855784 -184.257011 
L 265.222328 -185.224286 
L 264.588873 -186.170827 
L 263.955417 -187.096151 
L 263.321961 -187.99979 
L 262.688505 -188.881282 
L 262.05505 -189.740173 
L 261.421594 -190.576022 
L 260.788138 -191.388397 
L 260.154682 -192.176875 
L 259.521227 -192.941045 
L 258.887771 -193.680509 
L 258.254315 -194.394877 
L 257.620859 -195.083775 
L 256.987403 -195.746838 
L 256.353948 -196.383715 
L 255.720492 -196.994067 
L 255.087036 -197.577571 
L 254.45358 -198.133914 
L 253.820125 -198.662798 
L 253.186669 -199.163941 
L 252.553213 -199.637071 
L 251.919757 -200.081936 
L 251.286302 -200.498294 
L 250.652846 -200.88592 
L 250.01939 -201.244604 
L 249.385934 -201.574153 
L 248.752479 -201.874386 
L 248.119023 -202.145141 
L 247.485567 -202.38627 
L 246.852111 -202.597642 
L 246.218656 -202.779142 
L 245.5852 -202.930669 
L 244.951744 -203.052142 
L 244.318288 -203.143494 
L 243.684833 -203.204675 
L 243.051377 -203.235652 
L 242.417921 -203.236408 
L 241.784465 -203.206942 
L 241.151009 -203.14727 
L 240.517554 -203.057426 
L 239.884098 -202.937457 
L 239.250642 -202.78743 
L 238.617186 -202.607428 
L 237.983731 -202.397547 
L 237.350275 -202.157903 
L 236.716819 -201.888626 
L 236.083363 -201.589862 
L 235.449908 -201.261775 
L 234.816452 -200.904543 
L 234.182996 -200.518359 
L 233.54954 -200.103433 
L 232.916085 -199.659988 
L 232.282629 -199.188265 
L 231.649173 -198.688517 
L 231.015717 -198.161013 
L 230.382262 -197.606036 
L 229.748806 -197.023883 
L 229.11535 -196.414865 
L 228.481894 -195.779306 
L 227.848439 -195.117545 
L 227.214983 -194.42993 
L 226.581527 -193.716826 
L 225.948071 -192.978609 
L 225.314616 -192.215664 
L 224.68116 -191.428392 
L 224.047704 -190.617202 
L 223.414248 -189.782517 
L 222.780792 -188.924767 
L 222.147337 -188.044395 
L 221.513881 -187.141852 
L 220.880425 -186.217601 
L 220.246969 -185.27211 
L 219.613514 -184.305859 
L 218.980058 -183.319336 
L 218.346602 -182.313035 
L 217.713146 -181.287458 
L 217.079691 -180.243115 
L 216.446235 -179.180522 
L 215.812779 -178.100201 
L 215.179323 -177.002679 
L 214.545868 -175.888491 
L 213.912412 -174.758174 
L 213.278956 -173.61227 
L 212.6455 -172.451326 
L 212.012045 -171.275892 
L 211.378589 -170.086522 
L 210.745133 -168.88377 
L 210.111677 -167.668196 
L 209.478222 -166.44036 
L 208.844766 -165.200822 
L 208.21131 -163.950146 
L 207.577854 -162.688895 
L 206.944398 -161.417632 
L 206.310943 -160.13692 
L 205.677487 -158.847322 
L 205.044031 -157.549399 
L 204.410575 -156.243712 
L 203.77712 -154.930818 
L 203.143664 -153.611273 
L 202.510208 -152.285632 
L 201.876752 -150.954444 
L 201.243297 -149.618257 
L 200.609841 -148.277614 
L 199.976385 -146.933055 
L 199.342929 -145.585115 
L 198.709474 -144.234324 
L 198.076018 -142.881207 
L 197.442562 -141.526285 
L 196.809106 -140.170072 
L 196.175651 -138.813076 
L 195.542195 -137.455799 
L 194.908739 -136.098737 
L 194.275283 -134.74238 
L 193.641828 -133.387207 
L 193.008372 -132.033695 
L 192.374916 -130.68231 
L 191.74146 -129.33351 
L 191.108004 -127.987747 
L 190.474549 -126.645465 
L 189.841093 -125.307096 
L 189.207637 -123.973067 
L 188.574181 -122.643795 
L 187.940726 -121.319688 
L 187.30727 -120.001145 
L 186.673814 -118.688556 
L 186.040358 -117.3823 
L 185.406903 -116.082749 
L 184.773447 -114.790264 
L 184.139991 -113.505195 
L 183.506535 -112.227886 
L 182.87308 -110.958666 
L 182.239624 -109.697858 
L 181.606168 -108.445773 
L 180.972712 -107.202713 
L 180.339257 -105.968968 
L 179.705801 -104.744821 
L 179.072345 -103.530541 
L 178.438889 -102.32639 
L 177.805434 -101.132618 
L 177.171978 -99.949465 
L 176.538522 -98.777162 
L 175.905066 -97.615927 
L 175.27161 -96.46597 
L 174.638155 -95.327492 
L 174.004699 -94.200682 
L 173.371243 -93.085718 
L 172.737787 -91.982772 
L 172.104332 -90.892002 
L 171.470876 -89.813558 
L 170.83742 -88.747581 
L 170.203964 -87.694201 
L 169.570509 -86.653539 
L 168.937053 -85.625707 
L 168.303597 -84.610808 
L 167.670141 -83.608935 
L 167.036686 -82.620171 
L 166.40323 -81.644593 
L 165.769774 -80.682267 
L 165.136318 -79.733252 
L 164.502863 -78.797595 
L 163.869407 -77.87534 
L 163.235951 -76.966518 
L 162.602495 -76.071155 
L 161.96904 -75.189267 
L 161.335584 -74.320866 
L 160.702128 -73.465951 
L 160.068672 -72.624519 
L 159.435217 -71.796556 
L 158.801761 -70.982043 
L 158.168305 -70.180954 
L 157.534849 -69.393255 
L 156.901393 -68.618907 
L 156.267938 -67.857866 
L 155.634482 -67.110077 
L 155.001026 -66.375486 
L 154.36757 -65.654027 
L 153.734115 -64.945631 
L 153.100659 -64.250226 
L 152.467203 -63.567731 
L 151.833747 -62.898063 
L 151.200292 -62.241131 
L 150.566836 -61.596843 
L 149.93338 -60.965101 
L 149.299924 -60.345801 
L 148.666469 -59.738839 
L 148.033013 -59.144104 
L 147.399557 -58.561481 
L 146.766101 -57.990855 
L 146.132646 -57.432104 
L 145.49919 -56.885105 
L 144.865734 -56.349731 
L 144.232278 -55.825853 
L 143.598823 -55.313338 
L 142.965367 -54.812053 
L 142.331911 -54.32186 
L 141.698455 -53.842621 
L 141.064999 -53.374195 
L 140.431544 -52.91644 
L 139.798088 -52.469211 
L 139.164632 -52.032362 
L 138.531176 -51.605747 
L 137.897721 -51.189217 
L 137.264265 -50.782623 
L 136.630809 -50.385814 
L 135.997353 -49.998641 
L 135.363898 -49.62095 
L 134.730442 -49.252591 
L 134.096986 -48.89341 
L 133.46353 -48.543254 
L 132.830075 -48.201971 
L 132.196619 -47.869408 
L 131.563163 -47.545411 
L 130.929707 -47.229827 
L 130.296252 -46.922506 
L 129.662796 -46.623293 
L 129.02934 -46.332038 
L 128.395884 -46.048589 
L 127.762429 -45.772796 
L 127.128973 -45.50451 
L 126.495517 -45.243581 
L 125.862061 -44.989862 
L 125.228605 -44.743206 
L 124.59515 -44.503466 
L 123.961694 -44.270499 
L 123.328238 -44.04416 
L 122.694782 -43.824308 
L 122.061327 -43.610801 
L 121.427871 -43.4035 
L 120.794415 -43.202267 
L 120.160959 -43.006965 
L 119.527504 -42.817458 
L 118.894048 -42.633614 
L 118.260592 -42.4553 
L 117.627136 -42.282386 
L 116.993681 -42.114744 
L 116.360225 -41.952246 
L 115.726769 -41.794767 
L 115.093313 -41.642185 
L 114.459858 -41.494376 
L 113.826402 -41.351223 
L 113.192946 -41.212605 
L 112.55949 -41.078409 
L 111.926035 -40.948519 
L 111.292579 -40.822823 
L 110.659123 -40.701211 
L 110.025667 -40.583574 
L 109.392211 -40.469806 
L 108.758756 -40.359801 
L 108.1253 -40.253458 
L 107.491844 -40.150675 
L 106.858388 -40.051354 
L 106.224933 -39.955398 
L 105.591477 -39.862711 
L 104.958021 -39.7732 
L 104.324565 -39.686774 
L 103.69111 -39.603344 
L 103.057654 -39.522823 
L 102.424198 -39.445124 
L 101.790742 -39.370164 
L 101.157287 -39.297861 
L 100.523831 -39.228135 
L 99.890375 -39.160908 
L 99.256919 -39.096103 
L 98.623464 -39.033645 
L 97.990008 -38.973463 
L 97.356552 -38.915484 
L 96.723096 -38.859639 
L 96.089641 -38.805861 
L 95.456185 -38.754083 
L 94.822729 -38.704241 
L 94.189273 -38.656272 
L 93.555818 -38.610115 
L 92.922362 -38.565711 
L 92.288906 -38.523002 
L 91.65545 -38.48193 
L 91.021994 -38.442442 
L 90.388539 -38.404484 
L 89.755083 -38.368003 
L 89.121627 -38.332949 
L 88.488171 -38.299274 
L 87.854716 -38.266929 
L 87.22126 -38.235868 
L 86.587804 -38.206047 
L 85.954348 -38.17742 
L 85.320893 -38.149946 
L 84.687437 -38.123584 
L 84.053981 -38.098294 
L 83.420525 -38.074036 
L 82.78707 -38.050774 
L 82.153614 -38.028471 
L 81.520158 -38.007091 
L 80.886702 -37.986601 
L 80.253247 -37.966967 
L 79.619791 -37.948157 
L 78.986335 -37.930141 
L 78.352879 -37.912888 
L 77.719424 -37.896369 
L 77.085968 -37.880555 
L 76.452512 -37.865421 
L 75.819056 -37.850939 
L 75.1856 -37.837084 
L 74.552145 -37.823832 
L 73.918689 -37.811159 
L 73.285233 -37.799042 
L 72.651777 -37.787458 
L 72.018322 -37.776387 
L 71.384866 -37.765808 
L 70.75141 -37.755701 
L 70.117954 -37.746046 
L 69.484499 -37.736826 
L 68.851043 -37.728023 
L 68.217587 -37.719619 
L 67.584131 -37.711598 
L 66.950676 -37.703943 
L 66.31722 -37.696641 
L 65.683764 -37.689675 
L 65.050308 -37.683031 
L 64.416853 -37.676696 
L 63.783397 -37.670657 
L 63.149941 -37.664901 
L 62.516485 -37.659416 
L 61.88303 -37.65419 
L 61.249574 -37.649211 
L 60.616118 -37.64447 
L 59.982662 -37.639955 
L 59.349206 -37.635657 
L 58.715751 -37.631565 
L 58.082295 -37.627672 
L 57.448839 -37.623967 
L 56.815383 -37.620443 
L 56.181928 -37.617091 
L 55.548472 -37.613904 
L 54.915016 -37.610873 
L 54.28156 -37.607993 
L 53.648105 -37.605255 
L 53.014649 -37.602654 
L 52.381193 -37.600183 
L 51.747737 -37.597836 
L 51.114282 -37.595607 
L 50.480826 -37.59349 
L 49.84737 -37.591482 
L 49.213914 -37.589575 
L 48.580459 -37.587766 
L 47.947003 -37.586049 
L 47.313547 -37.584421 
L 46.680091 -37.582877 
L 46.046636 -37.581413 
L 45.41318 -37.580026 
L 44.779724 -37.57871 
L 44.146268 -37.577464 
L 43.512813 -37.576283 
z
" style="stroke: #1f77b4; stroke-opacity: 0.1"/>
    </defs>
    <g clip-path="url(#p2ed7a055c4)">
     <use xlink:href="#mf64f396237" x="0" y="266.51625" style="fill: #1f77b4; fill-opacity: 0.1; stroke: #1f77b4; stroke-opacity: 0.1"/>
    </g>
   </g>
   <g id="matplotlib.axis_1">
    <g id="xtick_1">
     <g id="line2d_1">
      <defs>
       <path id="m0e0d04b24a" d="M 0 0 
L 0 3.5 
" style="stroke: #000000; stroke-width: 0.8"/>
      </defs>
      <g>
       <use xlink:href="#m0e0d04b24a" x="43.512813" y="228.96" style="stroke: #000000; stroke-width: 0.8"/>
      </g>
     </g>
     <g id="text_1">
      <!-- $-3$ -->
      <g transform="translate(37.752813 242.798594) scale(0.09 -0.09)">
       <defs>
        <path id="Cmsy10-a1" d="M 653 1472 
Q 600 1472 565 1512 
Q 531 1553 531 1600 
Q 531 1647 565 1687 
Q 600 1728 653 1728 
L 4325 1728 
Q 4375 1728 4408 1687 
Q 4441 1647 4441 1600 
Q 4441 1553 4408 1512 
Q 4375 1472 4325 1472 
L 653 1472 
z
" transform="scale(0.015625)"/>
        <path id="Cmr10-33" d="M 609 494 
Q 759 275 1012 169 
Q 1266 63 1556 63 
Q 1928 63 2084 380 
Q 2241 697 2241 1100 
Q 2241 1281 2208 1462 
Q 2175 1644 2097 1800 
Q 2019 1956 1883 2050 
Q 1747 2144 1550 2144 
L 1125 2144 
Q 1069 2144 1069 2203 
L 1069 2259 
Q 1069 2309 1125 2309 
L 1478 2338 
Q 1703 2338 1851 2506 
Q 2000 2675 2069 2917 
Q 2138 3159 2138 3378 
Q 2138 3684 1994 3881 
Q 1850 4078 1556 4078 
Q 1313 4078 1091 3986 
Q 869 3894 738 3706 
Q 750 3709 759 3711 
Q 769 3713 781 3713 
Q 925 3713 1022 3613 
Q 1119 3513 1119 3372 
Q 1119 3234 1022 3134 
Q 925 3034 781 3034 
Q 641 3034 541 3134 
Q 441 3234 441 3372 
Q 441 3647 606 3850 
Q 772 4053 1033 4158 
Q 1294 4263 1556 4263 
Q 1750 4263 1965 4205 
Q 2181 4147 2356 4039 
Q 2531 3931 2642 3762 
Q 2753 3594 2753 3378 
Q 2753 3109 2633 2881 
Q 2513 2653 2303 2487 
Q 2094 2322 1844 2241 
Q 2122 2188 2372 2031 
Q 2622 1875 2773 1631 
Q 2925 1388 2925 1106 
Q 2925 753 2731 467 
Q 2538 181 2222 20 
Q 1906 -141 1556 -141 
Q 1256 -141 954 -26 
Q 653 88 461 316 
Q 269 544 269 863 
Q 269 1022 375 1128 
Q 481 1234 641 1234 
Q 744 1234 830 1186 
Q 916 1138 964 1050 
Q 1013 963 1013 863 
Q 1013 706 903 600 
Q 794 494 641 494 
L 609 494 
z
" transform="scale(0.015625)"/>
       </defs>
       <use xlink:href="#Cmsy10-a1" transform="translate(0 0.390625)"/>
       <use xlink:href="#Cmr10-33" transform="translate(77.685547 0.390625)"/>
      </g>
     </g>
    </g>
    <g id="xtick_2">
     <g id="line2d_2">
      <g>
       <use xlink:href="#m0e0d04b24a" x="106.752813" y="228.96" style="stroke: #000000; stroke-width: 0.8"/>
      </g>
     </g>
     <g id="text_2">
      <!-- $-2$ -->
      <g transform="translate(100.992812 242.798594) scale(0.09 -0.09)">
       <defs>
        <path id="Cmr10-32" d="M 319 0 
L 319 172 
Q 319 188 331 206 
L 1325 1306 
Q 1550 1550 1690 1715 
Q 1831 1881 1968 2097 
Q 2106 2313 2186 2536 
Q 2266 2759 2266 3009 
Q 2266 3272 2169 3511 
Q 2072 3750 1880 3894 
Q 1688 4038 1416 4038 
Q 1138 4038 916 3870 
Q 694 3703 603 3438 
Q 628 3444 672 3444 
Q 816 3444 917 3347 
Q 1019 3250 1019 3097 
Q 1019 2950 917 2848 
Q 816 2747 672 2747 
Q 522 2747 420 2851 
Q 319 2956 319 3097 
Q 319 3338 409 3548 
Q 500 3759 670 3923 
Q 841 4088 1055 4175 
Q 1269 4263 1509 4263 
Q 1875 4263 2190 4108 
Q 2506 3953 2690 3670 
Q 2875 3388 2875 3009 
Q 2875 2731 2753 2481 
Q 2631 2231 2440 2026 
Q 2250 1822 1953 1562 
Q 1656 1303 1563 1216 
L 838 519 
L 1453 519 
Q 1906 519 2211 526 
Q 2516 534 2534 550 
Q 2609 631 2688 1141 
L 2875 1141 
L 2694 0 
L 319 0 
z
" transform="scale(0.015625)"/>
       </defs>
       <use xlink:href="#Cmsy10-a1" transform="translate(0 0.390625)"/>
       <use xlink:href="#Cmr10-32" transform="translate(77.685547 0.390625)"/>
      </g>
     </g>
    </g>
    <g id="xtick_3">
     <g id="line2d_3">
      <g>
       <use xlink:href="#m0e0d04b24a" x="188.964812" y="228.96" style="stroke: #000000; stroke-width: 0.8"/>
      </g>
     </g>
     <g id="text_3">
      <!-- $a$ -->
      <g transform="translate(186.579813 242.798594) scale(0.09 -0.09)">
       <defs>
        <path id="Cmmi10-61" d="M 1113 -72 
Q 709 -72 476 233 
Q 244 538 244 953 
Q 244 1363 456 1803 
Q 669 2244 1030 2536 
Q 1391 2828 1806 2828 
Q 1997 2828 2147 2725 
Q 2297 2622 2381 2444 
Q 2453 2700 2663 2700 
Q 2744 2700 2798 2651 
Q 2853 2603 2853 2522 
Q 2853 2503 2851 2493 
Q 2850 2484 2847 2472 
L 2400 684 
Q 2356 494 2356 372 
Q 2356 97 2541 97 
Q 2741 97 2845 351 
Q 2950 606 3022 941 
Q 3034 978 3072 978 
L 3150 978 
Q 3175 978 3190 956 
Q 3206 934 3206 916 
Q 3094 469 2961 198 
Q 2828 -72 2528 -72 
Q 2313 -72 2147 54 
Q 1981 181 1941 391 
Q 1528 -72 1113 -72 
z
M 1119 97 
Q 1350 97 1567 270 
Q 1784 444 1941 678 
Q 1947 684 1947 697 
L 2291 2088 
L 2297 2106 
Q 2259 2334 2132 2498 
Q 2006 2663 1791 2663 
Q 1575 2663 1389 2486 
Q 1203 2309 1075 2069 
Q 950 1813 836 1366 
Q 722 919 722 672 
Q 722 450 817 273 
Q 913 97 1119 97 
z
" transform="scale(0.015625)"/>
       </defs>
       <use xlink:href="#Cmmi10-61" transform="translate(0 0.8125)"/>
      </g>
     </g>
    </g>
    <g id="xtick_4">
     <g id="line2d_4">
      <g>
       <use xlink:href="#m0e0d04b24a" x="296.472812" y="228.96" style="stroke: #000000; stroke-width: 0.8"/>
      </g>
     </g>
     <g id="text_4">
      <!-- $b$ -->
      <g transform="translate(294.537812 242.798594) scale(0.09 -0.09)">
       <defs>
        <path id="Cmmi10-62" d="M 1106 -72 
Q 719 -72 503 231 
Q 288 534 288 941 
Q 288 1000 317 1173 
Q 347 1347 347 1388 
L 966 3872 
Q 991 3981 997 4044 
Q 997 4147 581 4147 
Q 519 4147 519 4231 
Q 522 4247 533 4287 
Q 544 4328 561 4350 
Q 578 4372 609 4372 
L 1472 4441 
Q 1550 4441 1550 4359 
L 1075 2472 
Q 1438 2828 1806 2828 
Q 2078 2828 2273 2684 
Q 2469 2541 2566 2306 
Q 2663 2072 2663 1806 
Q 2663 1497 2542 1167 
Q 2422 838 2209 555 
Q 1997 272 1712 100 
Q 1428 -72 1106 -72 
z
M 1119 97 
Q 1338 97 1528 280 
Q 1719 463 1838 691 
Q 1966 947 2077 1386 
Q 2188 1825 2188 2088 
Q 2188 2316 2092 2489 
Q 1997 2663 1791 2663 
Q 1559 2663 1348 2492 
Q 1138 2322 978 2088 
L 800 1363 
Q 697 959 691 716 
Q 691 475 795 286 
Q 900 97 1119 97 
z
" transform="scale(0.015625)"/>
       </defs>
       <use xlink:href="#Cmmi10-62" transform="translate(0 0.609375)"/>
      </g>
     </g>
    </g>
    <g id="xtick_5">
     <g id="line2d_5">
      <g>
       <use xlink:href="#m0e0d04b24a" x="359.712812" y="228.96" style="stroke: #000000; stroke-width: 0.8"/>
      </g>
     </g>
     <g id="text_5">
      <!-- $2$ -->
      <g transform="translate(357.462812 242.798594) scale(0.09 -0.09)">
       <use xlink:href="#Cmr10-32" transform="translate(0 0.390625)"/>
      </g>
     </g>
    </g>
    <g id="xtick_6">
     <g id="line2d_6">
      <g>
       <use xlink:href="#m0e0d04b24a" x="422.952812" y="228.96" style="stroke: #000000; stroke-width: 0.8"/>
      </g>
     </g>
     <g id="text_6">
      <!-- $3$ -->
      <g transform="translate(420.702812 242.798594) scale(0.09 -0.09)">
       <use xlink:href="#Cmr10-33" transform="translate(0 0.390625)"/>
      </g>
     </g>
    </g>
    <g id="text_7">
     <!-- $x$ -->
     <g transform="translate(230.042812 257.028594) scale(0.11 -0.11)">
      <defs>
       <path id="Cmmi10-78" d="M 500 184 
Q 613 97 819 97 
Q 1019 97 1172 289 
Q 1325 481 1381 709 
L 1672 1844 
Q 1741 2153 1741 2266 
Q 1741 2425 1652 2544 
Q 1563 2663 1403 2663 
Q 1200 2663 1022 2536 
Q 844 2409 722 2214 
Q 600 2019 550 1819 
Q 538 1778 500 1778 
L 422 1778 
Q 372 1778 372 1838 
L 372 1856 
Q 434 2094 584 2320 
Q 734 2547 951 2687 
Q 1169 2828 1416 2828 
Q 1650 2828 1839 2703 
Q 2028 2578 2106 2363 
Q 2216 2559 2386 2693 
Q 2556 2828 2759 2828 
Q 2897 2828 3040 2779 
Q 3184 2731 3275 2631 
Q 3366 2531 3366 2381 
Q 3366 2219 3261 2101 
Q 3156 1984 2994 1984 
Q 2891 1984 2822 2050 
Q 2753 2116 2753 2216 
Q 2753 2350 2845 2451 
Q 2938 2553 3066 2572 
Q 2950 2663 2747 2663 
Q 2541 2663 2389 2472 
Q 2238 2281 2175 2047 
L 1894 916 
Q 1825 659 1825 494 
Q 1825 331 1917 214 
Q 2009 97 2163 97 
Q 2463 97 2698 361 
Q 2934 625 3009 941 
Q 3022 978 3059 978 
L 3138 978 
Q 3163 978 3178 961 
Q 3194 944 3194 922 
Q 3194 916 3188 903 
Q 3097 522 2806 225 
Q 2516 -72 2150 -72 
Q 1916 -72 1727 54 
Q 1538 181 1459 397 
Q 1359 209 1182 68 
Q 1006 -72 806 -72 
Q 669 -72 523 -23 
Q 378 25 287 125 
Q 197 225 197 378 
Q 197 528 301 651 
Q 406 775 563 775 
Q 669 775 741 711 
Q 813 647 813 544 
Q 813 409 723 309 
Q 634 209 500 184 
z
" transform="scale(0.015625)"/>
      </defs>
      <use xlink:href="#Cmmi10-78" transform="translate(0 0.8125)"/>
     </g>
    </g>
   </g>
   <g id="matplotlib.axis_2">
    <g id="ytick_1">
     <g id="line2d_7">
      <defs>
       <path id="m5d09d475d1" d="M 0 0 
L -3.5 0 
" style="stroke: #000000; stroke-width: 0.8"/>
      </defs>
      <g>
       <use xlink:href="#m5d09d475d1" x="43.512812" y="228.96" style="stroke: #000000; stroke-width: 0.8"/>
      </g>
     </g>
     <g id="text_8">
      <!-- 0.0 -->
      <g transform="translate(22.2 232.379297) scale(0.09 -0.09)">
       <defs>
        <path id="DejaVuSans-30" d="M 2034 4250 
Q 1547 4250 1301 3770 
Q 1056 3291 1056 2328 
Q 1056 1369 1301 889 
Q 1547 409 2034 409 
Q 2525 409 2770 889 
Q 3016 1369 3016 2328 
Q 3016 3291 2770 3770 
Q 2525 4250 2034 4250 
z
M 2034 4750 
Q 2819 4750 3233 4129 
Q 3647 3509 3647 2328 
Q 3647 1150 3233 529 
Q 2819 -91 2034 -91 
Q 1250 -91 836 529 
Q 422 1150 422 2328 
Q 422 3509 836 4129 
Q 1250 4750 2034 4750 
z
" transform="scale(0.015625)"/>
        <path id="DejaVuSans-2e" d="M 684 794 
L 1344 794 
L 1344 0 
L 684 0 
L 684 794 
z
" transform="scale(0.015625)"/>
       </defs>
       <use xlink:href="#DejaVuSans-30"/>
       <use xlink:href="#DejaVuSans-2e" transform="translate(63.623047 0)"/>
       <use xlink:href="#DejaVuSans-30" transform="translate(95.410156 0)"/>
      </g>
     </g>
    </g>
    <g id="ytick_2">
     <g id="line2d_8">
      <g>
       <use xlink:href="#m5d09d475d1" x="43.512812" y="198.16" style="stroke: #000000; stroke-width: 0.8"/>
      </g>
     </g>
     <g id="text_9">
      <!-- 0.1 -->
      <g transform="translate(22.2 201.579297) scale(0.09 -0.09)">
       <defs>
        <path id="DejaVuSans-31" d="M 794 531 
L 1825 531 
L 1825 4091 
L 703 3866 
L 703 4441 
L 1819 4666 
L 2450 4666 
L 2450 531 
L 3481 531 
L 3481 0 
L 794 0 
L 794 531 
z
" transform="scale(0.015625)"/>
       </defs>
       <use xlink:href="#DejaVuSans-30"/>
       <use xlink:href="#DejaVuSans-2e" transform="translate(63.623047 0)"/>
       <use xlink:href="#DejaVuSans-31" transform="translate(95.410156 0)"/>
      </g>
     </g>
    </g>
    <g id="ytick_3">
     <g id="line2d_9">
      <g>
       <use xlink:href="#m5d09d475d1" x="43.512812" y="167.36" style="stroke: #000000; stroke-width: 0.8"/>
      </g>
     </g>
     <g id="text_10">
      <!-- 0.2 -->
      <g transform="translate(22.2 170.779297) scale(0.09 -0.09)">
       <defs>
        <path id="DejaVuSans-32" d="M 1228 531 
L 3431 531 
L 3431 0 
L 469 0 
L 469 531 
Q 828 903 1448 1529 
Q 2069 2156 2228 2338 
Q 2531 2678 2651 2914 
Q 2772 3150 2772 3378 
Q 2772 3750 2511 3984 
Q 2250 4219 1831 4219 
Q 1534 4219 1204 4116 
Q 875 4013 500 3803 
L 500 4441 
Q 881 4594 1212 4672 
Q 1544 4750 1819 4750 
Q 2544 4750 2975 4387 
Q 3406 4025 3406 3419 
Q 3406 3131 3298 2873 
Q 3191 2616 2906 2266 
Q 2828 2175 2409 1742 
Q 1991 1309 1228 531 
z
" transform="scale(0.015625)"/>
       </defs>
       <use xlink:href="#DejaVuSans-30"/>
       <use xlink:href="#DejaVuSans-2e" transform="translate(63.623047 0)"/>
       <use xlink:href="#DejaVuSans-32" transform="translate(95.410156 0)"/>
      </g>
     </g>
    </g>
    <g id="ytick_4">
     <g id="line2d_10">
      <g>
       <use xlink:href="#m5d09d475d1" x="43.512812" y="136.56" style="stroke: #000000; stroke-width: 0.8"/>
      </g>
     </g>
     <g id="text_11">
      <!-- 0.3 -->
      <g transform="translate(22.2 139.979297) scale(0.09 -0.09)">
       <defs>
        <path id="DejaVuSans-33" d="M 2597 2516 
Q 3050 2419 3304 2112 
Q 3559 1806 3559 1356 
Q 3559 666 3084 287 
Q 2609 -91 1734 -91 
Q 1441 -91 1130 -33 
Q 819 25 488 141 
L 488 750 
Q 750 597 1062 519 
Q 1375 441 1716 441 
Q 2309 441 2620 675 
Q 2931 909 2931 1356 
Q 2931 1769 2642 2001 
Q 2353 2234 1838 2234 
L 1294 2234 
L 1294 2753 
L 1863 2753 
Q 2328 2753 2575 2939 
Q 2822 3125 2822 3475 
Q 2822 3834 2567 4026 
Q 2313 4219 1838 4219 
Q 1578 4219 1281 4162 
Q 984 4106 628 3988 
L 628 4550 
Q 988 4650 1302 4700 
Q 1616 4750 1894 4750 
Q 2613 4750 3031 4423 
Q 3450 4097 3450 3541 
Q 3450 3153 3228 2886 
Q 3006 2619 2597 2516 
z
" transform="scale(0.015625)"/>
       </defs>
       <use xlink:href="#DejaVuSans-30"/>
       <use xlink:href="#DejaVuSans-2e" transform="translate(63.623047 0)"/>
       <use xlink:href="#DejaVuSans-33" transform="translate(95.410156 0)"/>
      </g>
     </g>
    </g>
    <g id="ytick_5">
     <g id="line2d_11">
      <g>
       <use xlink:href="#m5d09d475d1" x="43.512812" y="105.76" style="stroke: #000000; stroke-width: 0.8"/>
      </g>
     </g>
     <g id="text_12">
      <!-- 0.4 -->
      <g transform="translate(22.2 109.179297) scale(0.09 -0.09)">
       <defs>
        <path id="DejaVuSans-34" d="M 2419 4116 
L 825 1625 
L 2419 1625 
L 2419 4116 
z
M 2253 4666 
L 3047 4666 
L 3047 1625 
L 3713 1625 
L 3713 1100 
L 3047 1100 
L 3047 0 
L 2419 0 
L 2419 1100 
L 313 1100 
L 313 1709 
L 2253 4666 
z
" transform="scale(0.015625)"/>
       </defs>
       <use xlink:href="#DejaVuSans-30"/>
       <use xlink:href="#DejaVuSans-2e" transform="translate(63.623047 0)"/>
       <use xlink:href="#DejaVuSans-34" transform="translate(95.410156 0)"/>
      </g>
     </g>
    </g>
    <g id="ytick_6">
     <g id="line2d_12">
      <g>
       <use xlink:href="#m5d09d475d1" x="43.512812" y="74.96" style="stroke: #000000; stroke-width: 0.8"/>
      </g>
     </g>
     <g id="text_13">
      <!-- 0.5 -->
      <g transform="translate(22.2 78.379297) scale(0.09 -0.09)">
       <defs>
        <path id="DejaVuSans-35" d="M 691 4666 
L 3169 4666 
L 3169 4134 
L 1269 4134 
L 1269 2991 
Q 1406 3038 1543 3061 
Q 1681 3084 1819 3084 
Q 2600 3084 3056 2656 
Q 3513 2228 3513 1497 
Q 3513 744 3044 326 
Q 2575 -91 1722 -91 
Q 1428 -91 1123 -41 
Q 819 9 494 109 
L 494 744 
Q 775 591 1075 516 
Q 1375 441 1709 441 
Q 2250 441 2565 725 
Q 2881 1009 2881 1497 
Q 2881 1984 2565 2268 
Q 2250 2553 1709 2553 
Q 1456 2553 1204 2497 
Q 953 2441 691 2322 
L 691 4666 
z
" transform="scale(0.015625)"/>
       </defs>
       <use xlink:href="#DejaVuSans-30"/>
       <use xlink:href="#DejaVuSans-2e" transform="translate(63.623047 0)"/>
       <use xlink:href="#DejaVuSans-35" transform="translate(95.410156 0)"/>
      </g>
     </g>
    </g>
    <g id="ytick_7">
     <g id="line2d_13">
      <g>
       <use xlink:href="#m5d09d475d1" x="43.512812" y="44.16" style="stroke: #000000; stroke-width: 0.8"/>
      </g>
     </g>
     <g id="text_14">
      <!-- 0.6 -->
      <g transform="translate(22.2 47.579297) scale(0.09 -0.09)">
       <defs>
        <path id="DejaVuSans-36" d="M 2113 2584 
Q 1688 2584 1439 2293 
Q 1191 2003 1191 1497 
Q 1191 994 1439 701 
Q 1688 409 2113 409 
Q 2538 409 2786 701 
Q 3034 994 3034 1497 
Q 3034 2003 2786 2293 
Q 2538 2584 2113 2584 
z
M 3366 4563 
L 3366 3988 
Q 3128 4100 2886 4159 
Q 2644 4219 2406 4219 
Q 1781 4219 1451 3797 
Q 1122 3375 1075 2522 
Q 1259 2794 1537 2939 
Q 1816 3084 2150 3084 
Q 2853 3084 3261 2657 
Q 3669 2231 3669 1497 
Q 3669 778 3244 343 
Q 2819 -91 2113 -91 
Q 1303 -91 875 529 
Q 447 1150 447 2328 
Q 447 3434 972 4092 
Q 1497 4750 2381 4750 
Q 2619 4750 2861 4703 
Q 3103 4656 3366 4563 
z
" transform="scale(0.015625)"/>
       </defs>
       <use xlink:href="#DejaVuSans-30"/>
       <use xlink:href="#DejaVuSans-2e" transform="translate(63.623047 0)"/>
       <use xlink:href="#DejaVuSans-36" transform="translate(95.410156 0)"/>
      </g>
     </g>
    </g>
    <g id="ytick_8">
     <g id="line2d_14">
      <g>
       <use xlink:href="#m5d09d475d1" x="43.512812" y="13.36" style="stroke: #000000; stroke-width: 0.8"/>
      </g>
     </g>
     <g id="text_15">
      <!-- 0.7 -->
      <g transform="translate(22.2 16.779297) scale(0.09 -0.09)">
       <defs>
        <path id="DejaVuSans-37" d="M 525 4666 
L 3525 4666 
L 3525 4397 
L 1831 0 
L 1172 0 
L 2766 4134 
L 525 4134 
L 525 4666 
z
" transform="scale(0.015625)"/>
       </defs>
       <use xlink:href="#DejaVuSans-30"/>
       <use xlink:href="#DejaVuSans-2e" transform="translate(63.623047 0)"/>
       <use xlink:href="#DejaVuSans-37" transform="translate(95.410156 0)"/>
      </g>
     </g>
    </g>
    <g id="text_16">
     <!-- $p(x)$ -->
     <g transform="translate(15.45 128.31) rotate(-90) scale(0.11 -0.11)">
      <defs>
       <path id="Cmmi10-70" d="M -159 -1241 
Q -219 -1241 -219 -1159 
Q -197 -1019 -134 -1019 
Q 66 -1019 145 -983 
Q 225 -947 269 -800 
L 991 2081 
Q 1038 2200 1038 2388 
Q 1038 2663 850 2663 
Q 650 2663 553 2423 
Q 456 2184 366 1819 
Q 366 1778 313 1778 
L 238 1778 
Q 222 1778 203 1801 
Q 184 1825 184 1844 
Q 253 2122 317 2315 
Q 381 2509 517 2668 
Q 653 2828 856 2828 
Q 1075 2828 1240 2704 
Q 1406 2581 1453 2369 
Q 1628 2572 1840 2700 
Q 2053 2828 2278 2828 
Q 2547 2828 2745 2684 
Q 2944 2541 3044 2308 
Q 3144 2075 3144 1806 
Q 3144 1394 2933 953 
Q 2722 513 2361 220 
Q 2000 -72 1588 -72 
Q 1400 -72 1248 34 
Q 1097 141 1013 313 
L 722 -825 
Q 706 -919 703 -934 
Q 703 -1019 1125 -1019 
Q 1191 -1019 1191 -1100 
Q 1169 -1184 1155 -1212 
Q 1141 -1241 1081 -1241 
L -159 -1241 
z
M 1594 97 
Q 1816 97 2006 280 
Q 2197 463 2316 691 
Q 2403 863 2479 1111 
Q 2556 1359 2612 1640 
Q 2669 1922 2669 2088 
Q 2669 2234 2630 2362 
Q 2591 2491 2502 2577 
Q 2413 2663 2266 2663 
Q 2031 2663 1823 2495 
Q 1616 2328 1447 2081 
L 1447 2059 
L 1094 647 
Q 1138 419 1263 258 
Q 1388 97 1594 97 
z
" transform="scale(0.015625)"/>
       <path id="Cmr10-28" d="M 1984 -1588 
Q 1628 -1306 1370 -942 
Q 1113 -578 948 -165 
Q 784 247 703 697 
Q 622 1147 622 1600 
Q 622 2059 703 2509 
Q 784 2959 951 3375 
Q 1119 3791 1378 4153 
Q 1638 4516 1984 4788 
Q 1984 4800 2016 4800 
L 2075 4800 
Q 2094 4800 2109 4783 
Q 2125 4766 2125 4744 
Q 2125 4716 2113 4703 
Q 1800 4397 1592 4047 
Q 1384 3697 1257 3301 
Q 1131 2906 1075 2482 
Q 1019 2059 1019 1600 
Q 1019 -434 2106 -1491 
Q 2125 -1509 2125 -1544 
Q 2125 -1559 2108 -1579 
Q 2091 -1600 2075 -1600 
L 2016 -1600 
Q 1984 -1600 1984 -1588 
z
" transform="scale(0.015625)"/>
       <path id="Cmr10-29" d="M 416 -1600 
Q 359 -1600 359 -1544 
Q 359 -1516 372 -1503 
Q 1466 -434 1466 1600 
Q 1466 3634 384 4691 
Q 359 4706 359 4744 
Q 359 4766 376 4783 
Q 394 4800 416 4800 
L 475 4800 
Q 494 4800 506 4788 
Q 966 4425 1272 3906 
Q 1578 3388 1720 2800 
Q 1863 2213 1863 1600 
Q 1863 1147 1786 708 
Q 1709 269 1542 -157 
Q 1375 -584 1119 -945 
Q 863 -1306 506 -1588 
Q 494 -1600 475 -1600 
L 416 -1600 
z
" transform="scale(0.015625)"/>
      </defs>
      <use xlink:href="#Cmmi10-70"/>
      <use xlink:href="#Cmr10-28" transform="translate(50.292969 0)"/>
      <use xlink:href="#Cmmi10-78" transform="translate(89.111328 0)"/>
      <use xlink:href="#Cmr10-29" transform="translate(146.191406 0)"/>
     </g>
    </g>
   </g>
   <g id="FillBetweenPolyCollection_2">
    <defs>
     <path id="m52de0956d3" d="M 189.207637 -123.973067 
L 189.207637 -37.55625 
L 189.841093 -37.55625 
L 190.474549 -37.55625 
L 191.108004 -37.55625 
L 191.74146 -37.55625 
L 192.374916 -37.55625 
L 193.008372 -37.55625 
L 193.641828 -37.55625 
L 194.275283 -37.55625 
L 194.908739 -37.55625 
L 195.542195 -37.55625 
L 196.175651 -37.55625 
L 196.809106 -37.55625 
L 197.442562 -37.55625 
L 198.076018 -37.55625 
L 198.709474 -37.55625 
L 199.342929 -37.55625 
L 199.976385 -37.55625 
L 200.609841 -37.55625 
L 201.243297 -37.55625 
L 201.876752 -37.55625 
L 202.510208 -37.55625 
L 203.143664 -37.55625 
L 203.77712 -37.55625 
L 204.410575 -37.55625 
L 205.044031 -37.55625 
L 205.677487 -37.55625 
L 206.310943 -37.55625 
L 206.944398 -37.55625 
L 207.577854 -37.55625 
L 208.21131 -37.55625 
L 208.844766 -37.55625 
L 209.478222 -37.55625 
L 210.111677 -37.55625 
L 210.745133 -37.55625 
L 211.378589 -37.55625 
L 212.012045 -37.55625 
L 212.6455 -37.55625 
L 213.278956 -37.55625 
L 213.912412 -37.55625 
L 214.545868 -37.55625 
L 215.179323 -37.55625 
L 215.812779 -37.55625 
L 216.446235 -37.55625 
L 217.079691 -37.55625 
L 217.713146 -37.55625 
L 218.346602 -37.55625 
L 218.980058 -37.55625 
L 219.613514 -37.55625 
L 220.246969 -37.55625 
L 220.880425 -37.55625 
L 221.513881 -37.55625 
L 222.147337 -37.55625 
L 222.780792 -37.55625 
L 223.414248 -37.55625 
L 224.047704 -37.55625 
L 224.68116 -37.55625 
L 225.314616 -37.55625 
L 225.948071 -37.55625 
L 226.581527 -37.55625 
L 227.214983 -37.55625 
L 227.848439 -37.55625 
L 228.481894 -37.55625 
L 229.11535 -37.55625 
L 229.748806 -37.55625 
L 230.382262 -37.55625 
L 231.015717 -37.55625 
L 231.649173 -37.55625 
L 232.282629 -37.55625 
L 232.916085 -37.55625 
L 233.54954 -37.55625 
L 234.182996 -37.55625 
L 234.816452 -37.55625 
L 235.449908 -37.55625 
L 236.083363 -37.55625 
L 236.716819 -37.55625 
L 237.350275 -37.55625 
L 237.983731 -37.55625 
L 238.617186 -37.55625 
L 239.250642 -37.55625 
L 239.884098 -37.55625 
L 240.517554 -37.55625 
L 241.151009 -37.55625 
L 241.784465 -37.55625 
L 242.417921 -37.55625 
L 243.051377 -37.55625 
L 243.684833 -37.55625 
L 244.318288 -37.55625 
L 244.951744 -37.55625 
L 245.5852 -37.55625 
L 246.218656 -37.55625 
L 246.852111 -37.55625 
L 247.485567 -37.55625 
L 248.119023 -37.55625 
L 248.752479 -37.55625 
L 249.385934 -37.55625 
L 250.01939 -37.55625 
L 250.652846 -37.55625 
L 251.286302 -37.55625 
L 251.919757 -37.55625 
L 252.553213 -37.55625 
L 253.186669 -37.55625 
L 253.820125 -37.55625 
L 254.45358 -37.55625 
L 255.087036 -37.55625 
L 255.720492 -37.55625 
L 256.353948 -37.55625 
L 256.987403 -37.55625 
L 257.620859 -37.55625 
L 258.254315 -37.55625 
L 258.887771 -37.55625 
L 259.521227 -37.55625 
L 260.154682 -37.55625 
L 260.788138 -37.55625 
L 261.421594 -37.55625 
L 262.05505 -37.55625 
L 262.688505 -37.55625 
L 263.321961 -37.55625 
L 263.955417 -37.55625 
L 264.588873 -37.55625 
L 265.222328 -37.55625 
L 265.855784 -37.55625 
L 266.48924 -37.55625 
L 267.122696 -37.55625 
L 267.756151 -37.55625 
L 268.389607 -37.55625 
L 269.023063 -37.55625 
L 269.656519 -37.55625 
L 270.289974 -37.55625 
L 270.92343 -37.55625 
L 271.556886 -37.55625 
L 272.190342 -37.55625 
L 272.823797 -37.55625 
L 273.457253 -37.55625 
L 274.090709 -37.55625 
L 274.724165 -37.55625 
L 275.357621 -37.55625 
L 275.991076 -37.55625 
L 276.624532 -37.55625 
L 277.257988 -37.55625 
L 277.891444 -37.55625 
L 278.524899 -37.55625 
L 279.158355 -37.55625 
L 279.791811 -37.55625 
L 280.425267 -37.55625 
L 281.058722 -37.55625 
L 281.692178 -37.55625 
L 282.325634 -37.55625 
L 282.95909 -37.55625 
L 283.592545 -37.55625 
L 284.226001 -37.55625 
L 284.859457 -37.55625 
L 285.492913 -37.55625 
L 286.126368 -37.55625 
L 286.759824 -37.55625 
L 287.39328 -37.55625 
L 288.026736 -37.55625 
L 288.660191 -37.55625 
L 289.293647 -37.55625 
L 289.927103 -37.55625 
L 290.560559 -37.55625 
L 291.194015 -37.55625 
L 291.82747 -37.55625 
L 292.460926 -37.55625 
L 293.094382 -37.55625 
L 293.727838 -37.55625 
L 294.361293 -37.55625 
L 294.994749 -37.55625 
L 295.628205 -37.55625 
L 296.261661 -37.55625 
L 296.261661 -123.906487 
L 296.261661 -123.906487 
L 295.628205 -125.240288 
L 294.994749 -126.57845 
L 294.361293 -127.920547 
L 293.727838 -129.266146 
L 293.094382 -130.614805 
L 292.460926 -131.966072 
L 291.82747 -133.319489 
L 291.194015 -134.674589 
L 290.560559 -136.030899 
L 289.927103 -137.387937 
L 289.293647 -138.745214 
L 288.660191 -140.102236 
L 288.026736 -141.458501 
L 287.39328 -142.813499 
L 286.759824 -144.166719 
L 286.126368 -145.517639 
L 285.492913 -146.865734 
L 284.859457 -148.210475 
L 284.226001 -149.551326 
L 283.592545 -150.887749 
L 282.95909 -152.2192 
L 282.325634 -153.545132 
L 281.692178 -154.864994 
L 281.058722 -156.178234 
L 280.425267 -157.484295 
L 279.791811 -158.782619 
L 279.158355 -160.072647 
L 278.524899 -161.353816 
L 277.891444 -162.625565 
L 277.257988 -163.88733 
L 276.624532 -165.138548 
L 275.991076 -166.378656 
L 275.357621 -167.607091 
L 274.724165 -168.823291 
L 274.090709 -170.026697 
L 273.457253 -171.21675 
L 272.823797 -172.392894 
L 272.190342 -173.554575 
L 271.556886 -174.701244 
L 270.92343 -175.832354 
L 270.289974 -176.947361 
L 269.656519 -178.045729 
L 269.023063 -179.126922 
L 268.389607 -180.190414 
L 267.756151 -181.235682 
L 267.122696 -182.262209 
L 266.48924 -183.269486 
L 265.855784 -184.257011 
L 265.222328 -185.224286 
L 264.588873 -186.170827 
L 263.955417 -187.096151 
L 263.321961 -187.99979 
L 262.688505 -188.881282 
L 262.05505 -189.740173 
L 261.421594 -190.576022 
L 260.788138 -191.388397 
L 260.154682 -192.176875 
L 259.521227 -192.941045 
L 258.887771 -193.680509 
L 258.254315 -194.394877 
L 257.620859 -195.083775 
L 256.987403 -195.746838 
L 256.353948 -196.383715 
L 255.720492 -196.994067 
L 255.087036 -197.577571 
L 254.45358 -198.133914 
L 253.820125 -198.662798 
L 253.186669 -199.163941 
L 252.553213 -199.637071 
L 251.919757 -200.081936 
L 251.286302 -200.498294 
L 250.652846 -200.88592 
L 250.01939 -201.244604 
L 249.385934 -201.574153 
L 248.752479 -201.874386 
L 248.119023 -202.145141 
L 247.485567 -202.38627 
L 246.852111 -202.597642 
L 246.218656 -202.779142 
L 245.5852 -202.930669 
L 244.951744 -203.052142 
L 244.318288 -203.143494 
L 243.684833 -203.204675 
L 243.051377 -203.235652 
L 242.417921 -203.236408 
L 241.784465 -203.206942 
L 241.151009 -203.14727 
L 240.517554 -203.057426 
L 239.884098 -202.937457 
L 239.250642 -202.78743 
L 238.617186 -202.607428 
L 237.983731 -202.397547 
L 237.350275 -202.157903 
L 236.716819 -201.888626 
L 236.083363 -201.589862 
L 235.449908 -201.261775 
L 234.816452 -200.904543 
L 234.182996 -200.518359 
L 233.54954 -200.103433 
L 232.916085 -199.659988 
L 232.282629 -199.188265 
L 231.649173 -198.688517 
L 231.015717 -198.161013 
L 230.382262 -197.606036 
L 229.748806 -197.023883 
L 229.11535 -196.414865 
L 228.481894 -195.779306 
L 227.848439 -195.117545 
L 227.214983 -194.42993 
L 226.581527 -193.716826 
L 225.948071 -192.978609 
L 225.314616 -192.215664 
L 224.68116 -191.428392 
L 224.047704 -190.617202 
L 223.414248 -189.782517 
L 222.780792 -188.924767 
L 222.147337 -188.044395 
L 221.513881 -187.141852 
L 220.880425 -186.217601 
L 220.246969 -185.27211 
L 219.613514 -184.305859 
L 218.980058 -183.319336 
L 218.346602 -182.313035 
L 217.713146 -181.287458 
L 217.079691 -180.243115 
L 216.446235 -179.180522 
L 215.812779 -178.100201 
L 215.179323 -177.002679 
L 214.545868 -175.888491 
L 213.912412 -174.758174 
L 213.278956 -173.61227 
L 212.6455 -172.451326 
L 212.012045 -171.275892 
L 211.378589 -170.086522 
L 210.745133 -168.88377 
L 210.111677 -167.668196 
L 209.478222 -166.44036 
L 208.844766 -165.200822 
L 208.21131 -163.950146 
L 207.577854 -162.688895 
L 206.944398 -161.417632 
L 206.310943 -160.13692 
L 205.677487 -158.847322 
L 205.044031 -157.549399 
L 204.410575 -156.243712 
L 203.77712 -154.930818 
L 203.143664 -153.611273 
L 202.510208 -152.285632 
L 201.876752 -150.954444 
L 201.243297 -149.618257 
L 200.609841 -148.277614 
L 199.976385 -146.933055 
L 199.342929 -145.585115 
L 198.709474 -144.234324 
L 198.076018 -142.881207 
L 197.442562 -141.526285 
L 196.809106 -140.170072 
L 196.175651 -138.813076 
L 195.542195 -137.455799 
L 194.908739 -136.098737 
L 194.275283 -134.74238 
L 193.641828 -133.387207 
L 193.008372 -132.033695 
L 192.374916 -130.68231 
L 191.74146 -129.33351 
L 191.108004 -127.987747 
L 190.474549 -126.645465 
L 189.841093 -125.307096 
L 189.207637 -123.973067 
z
" style="stroke: #ff7f0e; stroke-opacity: 0.22"/>
    </defs>
    <g clip-path="url(#p2ed7a055c4)">
     <use xlink:href="#m52de0956d3" x="0" y="266.51625" style="fill: #ff7f0e; fill-opacity: 0.22; stroke: #ff7f0e; stroke-opacity: 0.22"/>
    </g>
   </g>
   <g id="patch_3">
    <path d="M 43.512812 228.96 
L 43.512812 7.2 
" style="fill: none; stroke: #000000; stroke-width: 0.8; stroke-linejoin: miter; stroke-linecap: square"/>
   </g>
   <g id="patch_4">
    <path d="M 43.512813 228.96 
L 422.952812 228.96 
" style="fill: none; stroke: #000000; stroke-width: 0.8; stroke-linejoin: miter; stroke-linecap: square"/>
   </g>
   <g id="line2d_15">
    <path d="M 188.964812 228.96 
L 188.964812 7.2 
" clip-path="url(#p2ed7a055c4)" style="fill: none; stroke-dasharray: 4.44,1.92; stroke-dashoffset: 0; stroke: #7f7f7f; stroke-width: 1.2"/>
   </g>
   <g id="line2d_16">
    <path d="M 296.472812 228.96 
L 296.472812 7.2 
" clip-path="url(#p2ed7a055c4)" style="fill: none; stroke-dasharray: 4.44,1.92; stroke-dashoffset: 0; stroke: #7f7f7f; stroke-width: 1.2"/>
   </g>
   <g id="patch_5">
    <path d="M 188.964812 105.76 
Q 202.370271 105.76 212.421627 105.76 
" style="fill: none; stroke: #2ca02c; stroke-width: 3; stroke-linecap: round"/>
    <path d="M 206.821627 102.96 
L 212.421627 105.76 
L 206.821627 108.56 
" style="fill: none; stroke: #2ca02c; stroke-width: 3; stroke-linecap: round"/>
   </g>
   <g id="patch_6">
    <path d="M 296.472812 105.76 
Q 309.878271 105.76 319.929627 105.76 
" style="fill: none; stroke: #2ca02c; stroke-width: 3; stroke-linecap: round"/>
    <path d="M 314.329627 102.96 
L 319.929627 105.76 
L 314.329627 108.56 
" style="fill: none; stroke: #2ca02c; stroke-width: 3; stroke-linecap: round"/>
   </g>
   <g id="text_17">
    <!-- $j(a)=f\,p(a)$ -->
    <g style="fill: #2ca02c" transform="translate(123.186013 108.51) scale(0.11 -0.11)">
     <defs>
      <path id="Cmmi10-6a" d="M -84 -909 
Q -84 -753 23 -639 
Q 131 -525 288 -525 
Q 391 -525 461 -589 
Q 531 -653 531 -756 
Q 531 -878 454 -976 
Q 378 -1075 263 -1106 
Q 375 -1147 488 -1147 
Q 759 -1147 959 -895 
Q 1159 -644 1241 -331 
L 1844 2075 
Q 1888 2259 1888 2388 
Q 1888 2663 1697 2663 
Q 1416 2663 1205 2408 
Q 994 2153 863 1819 
Q 850 1778 813 1778 
L 738 1778 
Q 684 1778 684 1838 
L 684 1856 
Q 828 2241 1093 2534 
Q 1359 2828 1709 2828 
Q 1975 2828 2145 2662 
Q 2316 2497 2316 2241 
Q 2316 2150 2297 2059 
L 1691 -372 
Q 1625 -631 1440 -847 
Q 1256 -1063 1000 -1188 
Q 744 -1313 475 -1313 
Q 259 -1313 87 -1209 
Q -84 -1106 -84 -909 
z
M 1941 3878 
Q 1941 4019 2050 4125 
Q 2159 4231 2297 4231 
Q 2406 4231 2476 4164 
Q 2547 4097 2547 3994 
Q 2547 3850 2433 3742 
Q 2319 3634 2181 3634 
Q 2078 3634 2009 3706 
Q 1941 3778 1941 3878 
z
" transform="scale(0.015625)"/>
      <path id="Cmr10-3d" d="M 481 850 
Q 428 850 393 890 
Q 359 931 359 978 
Q 359 1031 393 1068 
Q 428 1106 481 1106 
L 4500 1106 
Q 4547 1106 4581 1068 
Q 4616 1031 4616 978 
Q 4616 931 4581 890 
Q 4547 850 4500 850 
L 481 850 
z
M 481 2094 
Q 428 2094 393 2131 
Q 359 2169 359 2222 
Q 359 2269 393 2309 
Q 428 2350 481 2350 
L 4500 2350 
Q 4547 2350 4581 2309 
Q 4616 2269 4616 2222 
Q 4616 2169 4581 2131 
Q 4547 2094 4500 2094 
L 481 2094 
z
" transform="scale(0.015625)"/>
      <path id="Cmmi10-66" d="M 622 -1056 
Q 741 -1147 909 -1147 
Q 1138 -1147 1281 -641 
Q 1341 -397 1606 966 
L 1900 2534 
L 1350 2534 
Q 1288 2534 1288 2619 
Q 1313 2759 1369 2759 
L 1941 2759 
L 2016 3175 
Q 2053 3369 2084 3508 
Q 2116 3647 2152 3765 
Q 2188 3884 2259 4031 
Q 2369 4241 2555 4377 
Q 2741 4513 2956 4513 
Q 3097 4513 3230 4461 
Q 3363 4409 3447 4306 
Q 3531 4203 3531 4063 
Q 3531 3900 3423 3779 
Q 3316 3659 3163 3659 
Q 3059 3659 2986 3723 
Q 2913 3788 2913 3891 
Q 2913 4031 3008 4136 
Q 3103 4241 3244 4256 
Q 3125 4347 2950 4347 
Q 2853 4347 2767 4256 
Q 2681 4166 2656 4063 
Q 2616 3900 2478 3181 
L 2400 2759 
L 3059 2759 
Q 3122 2759 3122 2675 
Q 3119 2659 3109 2620 
Q 3100 2581 3083 2557 
Q 3066 2534 3041 2534 
L 2356 2534 
L 2059 972 
Q 2003 631 1929 279 
Q 1856 -72 1723 -442 
Q 1591 -813 1384 -1063 
Q 1178 -1313 897 -1313 
Q 681 -1313 511 -1189 
Q 341 -1066 341 -863 
Q 341 -700 445 -579 
Q 550 -459 709 -459 
Q 816 -459 887 -523 
Q 959 -588 959 -691 
Q 959 -828 857 -942 
Q 756 -1056 622 -1056 
z
" transform="scale(0.015625)"/>
     </defs>
     <use xlink:href="#Cmmi10-6a"/>
     <use xlink:href="#Cmr10-28" transform="translate(41.113281 0)"/>
     <use xlink:href="#Cmmi10-61" transform="translate(79.931641 0)"/>
     <use xlink:href="#Cmr10-29" transform="translate(132.714844 0)"/>
     <use xlink:href="#Cmr10-3d" transform="translate(189.091797 0)"/>
     <use xlink:href="#Cmmi10-66" transform="translate(284.335938 0)"/>
     <use xlink:href="#Cmmi10-70" transform="translate(347.845345 0)"/>
     <use xlink:href="#Cmr10-28" transform="translate(398.138313 0)"/>
     <use xlink:href="#Cmmi10-61" transform="translate(436.956673 0)"/>
     <use xlink:href="#Cmr10-29" transform="translate(489.739876 0)"/>
    </g>
   </g>
   <g id="text_18">
    <!-- $j(b)=f\,p(b)$ -->
    <g style="fill: #2ca02c" transform="translate(333.152012 108.51) scale(0.11 -0.11)">
     <use xlink:href="#Cmmi10-6a"/>
     <use xlink:href="#Cmr10-28" transform="translate(41.113281 0)"/>
     <use xlink:href="#Cmmi10-62" transform="translate(79.931641 0)"/>
     <use xlink:href="#Cmr10-29" transform="translate(122.851562 0)"/>
     <use xlink:href="#Cmr10-3d" transform="translate(179.228516 0)"/>
     <use xlink:href="#Cmmi10-66" transform="translate(274.472656 0)"/>
     <use xlink:href="#Cmmi10-70" transform="translate(337.982063 0)"/>
     <use xlink:href="#Cmr10-28" transform="translate(388.275032 0)"/>
     <use xlink:href="#Cmmi10-62" transform="translate(427.093392 0)"/>
     <use xlink:href="#Cmr10-29" transform="translate(470.013313 0)"/>
    </g>
   </g>
   <g id="text_19">
    <!-- mass in $[a,b]$ -->
    <g style="fill: #ff7f0e" transform="translate(207.413812 201.0925) scale(0.115 -0.115)">
     <defs>
      <path id="DejaVuSans-6d" d="M 3328 2828 
Q 3544 3216 3844 3400 
Q 4144 3584 4550 3584 
Q 5097 3584 5394 3201 
Q 5691 2819 5691 2113 
L 5691 0 
L 5113 0 
L 5113 2094 
Q 5113 2597 4934 2840 
Q 4756 3084 4391 3084 
Q 3944 3084 3684 2787 
Q 3425 2491 3425 1978 
L 3425 0 
L 2847 0 
L 2847 2094 
Q 2847 2600 2669 2842 
Q 2491 3084 2119 3084 
Q 1678 3084 1418 2786 
Q 1159 2488 1159 1978 
L 1159 0 
L 581 0 
L 581 3500 
L 1159 3500 
L 1159 2956 
Q 1356 3278 1631 3431 
Q 1906 3584 2284 3584 
Q 2666 3584 2933 3390 
Q 3200 3197 3328 2828 
z
" transform="scale(0.015625)"/>
      <path id="DejaVuSans-61" d="M 2194 1759 
Q 1497 1759 1228 1600 
Q 959 1441 959 1056 
Q 959 750 1161 570 
Q 1363 391 1709 391 
Q 2188 391 2477 730 
Q 2766 1069 2766 1631 
L 2766 1759 
L 2194 1759 
z
M 3341 1997 
L 3341 0 
L 2766 0 
L 2766 531 
Q 2569 213 2275 61 
Q 1981 -91 1556 -91 
Q 1019 -91 701 211 
Q 384 513 384 1019 
Q 384 1609 779 1909 
Q 1175 2209 1959 2209 
L 2766 2209 
L 2766 2266 
Q 2766 2663 2505 2880 
Q 2244 3097 1772 3097 
Q 1472 3097 1187 3025 
Q 903 2953 641 2809 
L 641 3341 
Q 956 3463 1253 3523 
Q 1550 3584 1831 3584 
Q 2591 3584 2966 3190 
Q 3341 2797 3341 1997 
z
" transform="scale(0.015625)"/>
      <path id="DejaVuSans-73" d="M 2834 3397 
L 2834 2853 
Q 2591 2978 2328 3040 
Q 2066 3103 1784 3103 
Q 1356 3103 1142 2972 
Q 928 2841 928 2578 
Q 928 2378 1081 2264 
Q 1234 2150 1697 2047 
L 1894 2003 
Q 2506 1872 2764 1633 
Q 3022 1394 3022 966 
Q 3022 478 2636 193 
Q 2250 -91 1575 -91 
Q 1294 -91 989 -36 
Q 684 19 347 128 
L 347 722 
Q 666 556 975 473 
Q 1284 391 1588 391 
Q 1994 391 2212 530 
Q 2431 669 2431 922 
Q 2431 1156 2273 1281 
Q 2116 1406 1581 1522 
L 1381 1569 
Q 847 1681 609 1914 
Q 372 2147 372 2553 
Q 372 3047 722 3315 
Q 1072 3584 1716 3584 
Q 2034 3584 2315 3537 
Q 2597 3491 2834 3397 
z
" transform="scale(0.015625)"/>
      <path id="DejaVuSans-20" transform="scale(0.015625)"/>
      <path id="DejaVuSans-69" d="M 603 3500 
L 1178 3500 
L 1178 0 
L 603 0 
L 603 3500 
z
M 603 4863 
L 1178 4863 
L 1178 4134 
L 603 4134 
L 603 4863 
z
" transform="scale(0.015625)"/>
      <path id="DejaVuSans-6e" d="M 3513 2113 
L 3513 0 
L 2938 0 
L 2938 2094 
Q 2938 2591 2744 2837 
Q 2550 3084 2163 3084 
Q 1697 3084 1428 2787 
Q 1159 2491 1159 1978 
L 1159 0 
L 581 0 
L 581 3500 
L 1159 3500 
L 1159 2956 
Q 1366 3272 1645 3428 
Q 1925 3584 2291 3584 
Q 2894 3584 3203 3211 
Q 3513 2838 3513 2113 
z
" transform="scale(0.015625)"/>
      <path id="Cmr10-5b" d="M 756 -1600 
L 756 4800 
L 1631 4800 
L 1631 4544 
L 1013 4544 
L 1013 -1344 
L 1631 -1344 
L 1631 -1600 
L 756 -1600 
z
" transform="scale(0.015625)"/>
      <path id="Cmmi10-3b" d="M 634 -1153 
Q 634 -1125 659 -1100 
Q 891 -878 1019 -587 
Q 1147 -297 1147 25 
L 1147 103 
Q 1044 0 891 0 
Q 744 0 641 103 
Q 538 206 538 353 
Q 538 503 641 603 
Q 744 703 891 703 
Q 1119 703 1216 492 
Q 1313 281 1313 25 
Q 1313 -331 1170 -651 
Q 1028 -972 769 -1228 
Q 744 -1241 728 -1241 
Q 697 -1241 665 -1212 
Q 634 -1184 634 -1153 
z
" transform="scale(0.015625)"/>
      <path id="Cmr10-5d" d="M 141 -1600 
L 141 -1344 
L 763 -1344 
L 763 4544 
L 141 4544 
L 141 4800 
L 1019 4800 
L 1019 -1600 
L 141 -1600 
z
" transform="scale(0.015625)"/>
     </defs>
     <use xlink:href="#DejaVuSans-6d" transform="translate(0 0.015625)"/>
     <use xlink:href="#DejaVuSans-61" transform="translate(97.412109 0.015625)"/>
     <use xlink:href="#DejaVuSans-73" transform="translate(158.691406 0.015625)"/>
     <use xlink:href="#DejaVuSans-73" transform="translate(210.791016 0.015625)"/>
     <use xlink:href="#DejaVuSans-20" transform="translate(262.890625 0.015625)"/>
     <use xlink:href="#DejaVuSans-69" transform="translate(294.677734 0.015625)"/>
     <use xlink:href="#DejaVuSans-6e" transform="translate(322.460938 0.015625)"/>
     <use xlink:href="#DejaVuSans-20" transform="translate(385.839844 0.015625)"/>
     <use xlink:href="#Cmr10-5b" transform="translate(417.626953 0.015625)"/>
     <use xlink:href="#Cmmi10-61" transform="translate(445.3125 0.015625)"/>
     <use xlink:href="#Cmmi10-3b" transform="translate(498.095703 0.015625)"/>
     <use xlink:href="#Cmmi10-62" transform="translate(543.339844 0.015625)"/>
     <use xlink:href="#Cmr10-5d" transform="translate(586.259766 0.015625)"/>
    </g>
   </g>
   <g id="text_20">
    <!-- $\partial_t\!\!\int_a^b p\,dx = j(a)-j(b)$ -->
    <g transform="translate(191.788812 33.215) scale(0.11 -0.11)">
     <defs>
      <path id="STIXGeneral-Regular-2202" d="M 1248 4000 
L 1184 4128 
Q 1427 4275 1811 4275 
Q 3014 4275 3014 2611 
Q 3014 2298 2963 1965 
Q 2912 1632 2777 1261 
Q 2643 890 2438 598 
Q 2234 307 1894 118 
Q 1555 -70 1126 -70 
Q 685 -70 470 224 
Q 256 518 256 966 
Q 256 1664 739 2224 
Q 1222 2784 1901 2784 
Q 2342 2784 2515 2477 
Q 2560 2726 2560 2925 
Q 2560 3418 2365 3750 
Q 2170 4083 1722 4083 
Q 1510 4083 1248 4000 
z
M 2349 2042 
Q 2349 2323 2230 2457 
Q 2112 2592 1958 2592 
Q 1491 2592 1132 2013 
Q 774 1434 774 749 
Q 774 122 1203 122 
Q 1549 122 1827 499 
Q 2106 877 2253 1414 
Q 2349 1766 2349 2042 
z
" transform="scale(0.015625)"/>
      <path id="Cmmi10-74" d="M 397 519 
Q 397 613 416 697 
L 878 2534 
L 206 2534 
Q 141 2534 141 2619 
Q 166 2759 225 2759 
L 934 2759 
L 1191 3803 
Q 1216 3888 1291 3947 
Q 1366 4006 1459 4006 
Q 1541 4006 1595 3957 
Q 1650 3909 1650 3828 
Q 1650 3809 1648 3798 
Q 1647 3788 1644 3775 
L 1388 2759 
L 2047 2759 
Q 2113 2759 2113 2675 
Q 2109 2659 2100 2621 
Q 2091 2584 2075 2559 
Q 2059 2534 2028 2534 
L 1331 2534 
L 872 684 
Q 825 503 825 372 
Q 825 97 1013 97 
Q 1294 97 1511 361 
Q 1728 625 1844 941 
Q 1869 978 1894 978 
L 1972 978 
Q 1997 978 2012 961 
Q 2028 944 2028 922 
Q 2028 909 2022 903 
Q 1881 516 1612 222 
Q 1344 -72 997 -72 
Q 744 -72 570 93 
Q 397 259 397 519 
z
" transform="scale(0.015625)"/>
      <path id="Cmex10-5a" d="M 678 -13894 
Q 838 -14053 1069 -14053 
Q 1300 -14053 1490 -13736 
Q 1681 -13419 1825 -12944 
Q 1969 -12469 2036 -12148 
Q 2103 -11828 2203 -11322 
Q 2294 -10850 2378 -10375 
Q 2463 -9900 2552 -9364 
Q 2641 -8828 2739 -8276 
Q 2838 -7725 2963 -7103 
Q 3131 -6284 3204 -5932 
Q 3278 -5581 3428 -4917 
Q 3578 -4253 3626 -4042 
Q 3675 -3831 3903 -2888 
L 3988 -2553 
Q 4131 -1991 4209 -1702 
Q 4288 -1413 4452 -995 
Q 4616 -578 4837 -289 
Q 5059 0 5325 0 
Q 5513 0 5673 -84 
Q 5834 -169 5934 -316 
Q 6034 -463 6034 -653 
Q 6034 -791 5943 -881 
Q 5853 -972 5716 -972 
Q 5575 -972 5481 -881 
Q 5388 -791 5388 -653 
Q 5388 -513 5481 -419 
Q 5575 -325 5716 -325 
Q 5550 -166 5331 -166 
Q 5213 -166 5070 -512 
Q 4928 -859 4808 -1329 
Q 4688 -1800 4623 -2114 
Q 4559 -2428 4469 -2900 
Q 4363 -3434 4292 -3831 
Q 4222 -4228 4122 -4812 
Q 4022 -5397 3926 -5925 
Q 3831 -6453 3700 -7116 
Q 3616 -7534 3456 -8292 
Q 3297 -9050 3245 -9278 
Q 3194 -9506 2983 -10393 
Q 2772 -11281 2759 -11334 
L 2681 -11628 
Q 2516 -12306 2348 -12820 
Q 2181 -13334 1857 -13778 
Q 1534 -14222 1069 -14222 
Q 791 -14222 575 -14034 
Q 359 -13847 359 -13575 
Q 359 -13434 453 -13340 
Q 547 -13247 684 -13247 
Q 775 -13247 848 -13290 
Q 922 -13334 964 -13409 
Q 1006 -13484 1006 -13575 
Q 1006 -13713 912 -13803 
Q 819 -13894 678 -13894 
z
" transform="scale(0.015625)"/>
      <path id="Cmmi10-64" d="M 1113 -72 
Q 709 -72 476 233 
Q 244 538 244 953 
Q 244 1363 456 1803 
Q 669 2244 1030 2536 
Q 1391 2828 1806 2828 
Q 1994 2828 2145 2723 
Q 2297 2619 2381 2444 
L 2741 3872 
Q 2766 3981 2772 4044 
Q 2772 4147 2356 4147 
Q 2291 4147 2291 4231 
Q 2294 4247 2305 4287 
Q 2316 4328 2333 4350 
Q 2350 4372 2381 4372 
L 3244 4441 
Q 3322 4441 3322 4359 
L 2400 678 
Q 2356 572 2356 372 
Q 2356 97 2541 97 
Q 2741 97 2845 351 
Q 2950 606 3022 941 
Q 3034 978 3072 978 
L 3150 978 
Q 3175 978 3190 956 
Q 3206 934 3206 916 
Q 3094 469 2961 198 
Q 2828 -72 2528 -72 
Q 2313 -72 2147 54 
Q 1981 181 1941 391 
Q 1528 -72 1113 -72 
z
M 1119 97 
Q 1350 97 1567 270 
Q 1784 444 1941 678 
Q 1947 684 1947 703 
L 2297 2113 
Q 2259 2338 2131 2500 
Q 2003 2663 1791 2663 
Q 1575 2663 1389 2486 
Q 1203 2309 1075 2069 
Q 950 1813 836 1366 
Q 722 919 722 672 
Q 722 450 817 273 
Q 913 97 1119 97 
z
" transform="scale(0.015625)"/>
     </defs>
     <use xlink:href="#STIXGeneral-Regular-2202" transform="translate(0 0.990104)"/>
     <use xlink:href="#Cmmi10-74" transform="translate(51.564131 -16.016146) scale(0.7)"/>
     <use xlink:href="#Cmex10-5a" transform="translate(53.935356 145.432813)"/>
     <use xlink:href="#Cmmi10-62" transform="translate(162.53563 128.426562) scale(0.7)"/>
     <use xlink:href="#Cmmi10-61" transform="translate(101.869692 -93.792187) scale(0.7)"/>
     <use xlink:href="#Cmmi10-70" transform="translate(192.579575 0.990104)"/>
     <use xlink:href="#Cmmi10-64" transform="translate(257.504998 0.990104)"/>
     <use xlink:href="#Cmmi10-78" transform="translate(309.506951 0.990104)"/>
     <use xlink:href="#Cmr10-3d" transform="translate(384.145623 0.990104)"/>
     <use xlink:href="#Cmmi10-6a" transform="translate(479.389763 0.990104)"/>
     <use xlink:href="#Cmr10-28" transform="translate(520.503045 0.990104)"/>
     <use xlink:href="#Cmmi10-61" transform="translate(559.321404 0.990104)"/>
     <use xlink:href="#Cmr10-29" transform="translate(612.104607 0.990104)"/>
     <use xlink:href="#Cmsy10-a1" transform="translate(668.48156 0.990104)"/>
     <use xlink:href="#Cmmi10-6a" transform="translate(763.725701 0.990104)"/>
     <use xlink:href="#Cmr10-28" transform="translate(804.838982 0.990104)"/>
     <use xlink:href="#Cmmi10-62" transform="translate(843.657341 0.990104)"/>
     <use xlink:href="#Cmr10-29" transform="translate(886.577263 0.990104)"/>
    </g>
   </g>
   <g id="line2d_17">
    <path d="M 43.512813 228.939967 
L 68.851043 228.788227 
L 81.520158 228.509159 
L 90.388539 228.111766 
L 97.356552 227.600766 
L 103.69111 226.912906 
L 108.758756 226.156449 
L 113.826402 225.165027 
L 118.260592 224.06095 
L 122.061327 222.905449 
L 125.862061 221.526388 
L 129.662796 219.892957 
L 132.830075 218.314279 
L 135.997353 216.517609 
L 139.164632 214.483888 
L 142.331911 212.19439 
L 145.49919 209.631145 
L 148.666469 206.777411 
L 151.833747 203.618187 
L 155.001026 200.140764 
L 158.168305 196.335296 
L 161.335584 192.195384 
L 164.502863 187.718655 
L 167.670141 182.907315 
L 171.470876 176.702692 
L 175.27161 170.05028 
L 179.705801 161.771429 
L 184.139991 153.011055 
L 189.841093 141.209154 
L 208.844766 101.315428 
L 212.6455 94.064924 
L 215.812779 88.416049 
L 218.980058 83.196914 
L 221.513881 79.374398 
L 224.047704 75.899048 
L 226.581527 72.799424 
L 229.11535 70.101385 
L 231.015717 68.355237 
L 232.916085 66.856262 
L 234.816452 65.611707 
L 236.716819 64.627624 
L 238.617186 63.908822 
L 240.517554 63.458824 
L 242.417921 63.279842 
L 244.318288 63.372756 
L 246.218656 63.737108 
L 248.119023 64.371109 
L 250.01939 65.271646 
L 251.919757 66.434314 
L 253.820125 67.853452 
L 255.720492 69.522183 
L 257.620859 71.432475 
L 260.154682 74.339375 
L 262.688505 77.634968 
L 265.222328 81.291964 
L 268.389607 86.325836 
L 271.556886 91.815006 
L 275.357621 98.909159 
L 279.791811 107.733631 
L 285.492913 119.650516 
L 300.695851 151.790419 
L 305.763497 161.83238 
L 310.197687 170.107478 
L 313.998422 176.756288 
L 317.799156 182.957066 
L 321.599891 188.686671 
L 324.76717 193.092691 
L 327.934449 197.162029 
L 331.101727 200.897953 
L 334.269006 204.307633 
L 337.436285 207.401564 
L 340.603564 210.192985 
L 343.770843 212.697306 
L 346.938121 214.931568 
L 350.1054 216.913938 
L 353.272679 218.663244 
L 357.073414 220.481631 
L 360.874148 222.024592 
L 364.674883 223.323888 
L 368.475617 224.409752 
L 372.909807 225.444437 
L 377.977454 226.370622 
L 383.0451 227.074939 
L 389.379657 227.713025 
L 396.347671 228.185017 
L 405.216051 228.550243 
L 417.251711 228.797041 
L 422.952812 228.857101 
L 422.952812 228.857101 
" clip-path="url(#p2ed7a055c4)" style="fill: none; stroke: #1f77b4; stroke-width: 2.4; stroke-linecap: square"/>
   </g>
  </g>
 </g>
 <defs>
  <clipPath id="p2ed7a055c4">
   <rect x="43.512812" y="7.2" width="379.44" height="221.76"/>
  </clipPath>
 </defs>
</svg>
