<?xml version="1.0" encoding="utf-8" standalone="no"?>
<!DOCTYPE svg PUBLIC "-//W3C//DTD SVG 1.1//EN"
  "http://www.w3.org/Graphics/SVG/1.1/DTD/svg11.dtd">
<svg xmlns:xlink="http://www.w3.org/1999/xlink" width="332.46pt" height="236.16pt" viewBox="0 0 332.46 236.16" xmlns="http://www.w3.org/2000/svg" version="1.1">
 <metadata>
  <rdf:RDF xmlns:dc="http://purl.org/dc/elements/1.1/" xmlns:cc="http://creativecommons.org/ns#" xmlns:rdf="http://www.w3.org/1999/02/22-rdf-syntax-ns#">
   <cc:Work>
    <dc:type rdf:resource="http://purl.org/dc/dcmitype/StillImage"/>
    <dc:format>image/svg+xml</dc:format>
    <dc:creator>
     <cc:Agent>
      <dc:title>Matplotlib v3.10.8, https://matplotlib.org/</dc:title>
     </cc:Agent>
    </dc:creator>
   </cc:Work>
  </rdf:RDF>
 </metadata>
 <defs>
  <style type="text/css">*{stroke-linejoin: round; stroke-linecap: butt}</style>
 </defs>
 <g id="figure_1">
  <g id="patch_1">
   <path d="M 0 236.16 
L 332.46 236.16 
L 332.46 0 
L 0 0 
z
" style="fill: #ffffff"/>
  </g>
  <g id="axes_1">
   <g id="line2d_1">
    <path d="M 182.133 34.08 
L 86.715 78.88 
" clip-path="url(#pf6d44bc617)" style="fill: none; stroke: #7f7f7f; stroke-width: 1.6; stroke-linecap: square"/>
   </g>
   <g id="line2d_2">
    <path d="M 182.133 34.08 
L 205.9875 78.88 
" clip-path="url(#pf6d44bc617)" style="fill: none; stroke: #7f7f7f; stroke-width: 1.6; stroke-linecap: square"/>
   </g>
   <g id="line2d_3">
    <path d="M 205.9875 78.88 
L 158.2785 123.68 
" clip-path="url(#pf6d44bc617)" style="fill: none; stroke: #7f7f7f; stroke-width: 1.6; stroke-linecap: square"/>
   </g>
   <g id="line2d_4">
    <path d="M 205.9875 78.88 
L 253.6965 123.68 
" clip-path="url(#pf6d44bc617)" style="fill: none; stroke: #7f7f7f; stroke-width: 1.6; stroke-linecap: square"/>
   </g>
   <g id="line2d_5">
    <path d="M 253.6965 123.68 
L 217.91475 168.48 
" clip-path="url(#pf6d44bc617)" style="fill: none; stroke: #7f7f7f; stroke-width: 1.6; stroke-linecap: square"/>
   </g>
   <g id="line2d_6">
    <path d="M 253.6965 123.68 
L 289.47825 168.48 
" clip-path="url(#pf6d44bc617)" style="fill: none; stroke: #7f7f7f; stroke-width: 1.6; stroke-linecap: square"/>
   </g>
   <g id="text_1">
    <!-- 0 -->
    <g style="fill: #7f7f7f" transform="translate(124.88155 52.608312) scale(0.1 -0.1)">
     <defs>
      <path id="DejaVuSans-30" d="M 2034 4250 
Q 1547 4250 1301 3770 
Q 1056 3291 1056 2328 
Q 1056 1369 1301 889 
Q 1547 409 2034 409 
Q 2525 409 2770 889 
Q 3016 1369 3016 2328 
Q 3016 3291 2770 3770 
Q 2525 4250 2034 4250 
z
M 2034 4750 
Q 2819 4750 3233 4129 
Q 3647 3509 3647 2328 
Q 3647 1150 3233 529 
Q 2819 -91 2034 -91 
Q 1250 -91 836 529 
Q 422 1150 422 2328 
Q 422 3509 836 4129 
Q 1250 4750 2034 4750 
z
" transform="scale(0.015625)"/>
     </defs>
     <use xlink:href="#DejaVuSans-30"/>
    </g>
   </g>
   <g id="text_2">
    <!-- 1 -->
    <g style="fill: #7f7f7f" transform="translate(197.2402 52.608312) scale(0.1 -0.1)">
     <defs>
      <path id="DejaVuSans-31" d="M 794 531 
L 1825 531 
L 1825 4091 
L 703 3866 
L 703 4441 
L 1819 4666 
L 2450 4666 
L 2450 531 
L 3481 531 
L 3481 0 
L 794 0 
L 794 531 
z
" transform="scale(0.015625)"/>
     </defs>
     <use xlink:href="#DejaVuSans-31"/>
    </g>
   </g>
   <g id="text_3">
    <!-- 0 -->
    <g style="fill: #7f7f7f" transform="translate(172.59055 97.408312) scale(0.1 -0.1)">
     <use xlink:href="#DejaVuSans-30"/>
    </g>
   </g>
   <g id="text_4">
    <!-- 1 -->
    <g style="fill: #7f7f7f" transform="translate(233.02195 97.408312) scale(0.1 -0.1)">
     <use xlink:href="#DejaVuSans-31"/>
    </g>
   </g>
   <g id="text_5">
    <!-- 0 -->
    <g style="fill: #7f7f7f" transform="translate(226.263175 142.208313) scale(0.1 -0.1)">
     <use xlink:href="#DejaVuSans-30"/>
    </g>
   </g>
   <g id="text_6">
    <!-- 1 -->
    <g style="fill: #7f7f7f" transform="translate(274.767325 142.208313) scale(0.1 -0.1)">
     <use xlink:href="#DejaVuSans-31"/>
    </g>
   </g>
   <g id="line2d_7">
    <defs>
     <path id="m74beca7d86" d="M 0 3.5 
C 0.928211 3.5 1.81853 3.131218 2.474874 2.474874 
C 3.131218 1.81853 3.5 0.928211 3.5 0 
C 3.5 -0.928211 3.131218 -1.81853 2.474874 -2.474874 
C 1.81853 -3.131218 0.928211 -3.5 0 -3.5 
C -0.928211 -3.5 -1.81853 -3.131218 -2.474874 -2.474874 
C -3.131218 -1.81853 -3.5 -0.928211 -3.5 0 
C -3.5 0.928211 -3.131218 1.81853 -2.474874 2.474874 
C -1.81853 3.131218 -0.928211 3.5 0 3.5 
z
" style="stroke: #7f7f7f"/>
    </defs>
    <g clip-path="url(#pf6d44bc617)">
     <use xlink:href="#m74beca7d86" x="182.133" y="34.08" style="fill: #7f7f7f; stroke: #7f7f7f"/>
    </g>
   </g>
   <g id="line2d_8">
    <g clip-path="url(#pf6d44bc617)">
     <use xlink:href="#m74beca7d86" x="205.9875" y="78.88" style="fill: #7f7f7f; stroke: #7f7f7f"/>
    </g>
   </g>
   <g id="line2d_9">
    <g clip-path="url(#pf6d44bc617)">
     <use xlink:href="#m74beca7d86" x="253.6965" y="123.68" style="fill: #7f7f7f; stroke: #7f7f7f"/>
    </g>
   </g>
   <g id="text_7">
    <!-- $p=1/2$ -->
    <g style="fill: #7f7f7f" transform="translate(73.37 108.551) scale(0.085 -0.085)">
     <defs>
      <path id="Cmmi10-70" d="M -159 -1241 
Q -219 -1241 -219 -1159 
Q -197 -1019 -134 -1019 
Q 66 -1019 145 -983 
Q 225 -947 269 -800 
L 991 2081 
Q 1038 2200 1038 2388 
Q 1038 2663 850 2663 
Q 650 2663 553 2423 
Q 456 2184 366 1819 
Q 366 1778 313 1778 
L 238 1778 
Q 222 1778 203 1801 
Q 184 1825 184 1844 
Q 253 2122 317 2315 
Q 381 2509 517 2668 
Q 653 2828 856 2828 
Q 1075 2828 1240 2704 
Q 1406 2581 1453 2369 
Q 1628 2572 1840 2700 
Q 2053 2828 2278 2828 
Q 2547 2828 2745 2684 
Q 2944 2541 3044 2308 
Q 3144 2075 3144 1806 
Q 3144 1394 2933 953 
Q 2722 513 2361 220 
Q 2000 -72 1588 -72 
Q 1400 -72 1248 34 
Q 1097 141 1013 313 
L 722 -825 
Q 706 -919 703 -934 
Q 703 -1019 1125 -1019 
Q 1191 -1019 1191 -1100 
Q 1169 -1184 1155 -1212 
Q 1141 -1241 1081 -1241 
L -159 -1241 
z
M 1594 97 
Q 1816 97 2006 280 
Q 2197 463 2316 691 
Q 2403 863 2479 1111 
Q 2556 1359 2612 1640 
Q 2669 1922 2669 2088 
Q 2669 2234 2630 2362 
Q 2591 2491 2502 2577 
Q 2413 2663 2266 2663 
Q 2031 2663 1823 2495 
Q 1616 2328 1447 2081 
L 1447 2059 
L 1094 647 
Q 1138 419 1263 258 
Q 1388 97 1594 97 
z
" transform="scale(0.015625)"/>
      <path id="Cmr10-3d" d="M 481 850 
Q 428 850 393 890 
Q 359 931 359 978 
Q 359 1031 393 1068 
Q 428 1106 481 1106 
L 4500 1106 
Q 4547 1106 4581 1068 
Q 4616 1031 4616 978 
Q 4616 931 4581 890 
Q 4547 850 4500 850 
L 481 850 
z
M 481 2094 
Q 428 2094 393 2131 
Q 359 2169 359 2222 
Q 359 2269 393 2309 
Q 428 2350 481 2350 
L 4500 2350 
Q 4547 2350 4581 2309 
Q 4616 2269 4616 2222 
Q 4616 2169 4581 2131 
Q 4547 2094 4500 2094 
L 481 2094 
z
" transform="scale(0.015625)"/>
      <path id="Cmr10-31" d="M 594 0 
L 594 225 
Q 1394 225 1394 428 
L 1394 3788 
Q 1063 3628 556 3628 
L 556 3853 
Q 1341 3853 1741 4263 
L 1831 4263 
Q 1853 4263 1873 4245 
Q 1894 4228 1894 4206 
L 1894 428 
Q 1894 225 2694 225 
L 2694 0 
L 594 0 
z
" transform="scale(0.015625)"/>
      <path id="Cmmi10-3d" d="M 359 -1472 
Q 359 -1453 366 -1447 
L 2591 4722 
Q 2603 4759 2634 4779 
Q 2666 4800 2706 4800 
Q 2763 4800 2798 4765 
Q 2834 4731 2834 4672 
L 2834 4647 
L 609 -1522 
Q 572 -1600 488 -1600 
Q 434 -1600 396 -1562 
Q 359 -1525 359 -1472 
z
" transform="scale(0.015625)"/>
      <path id="Cmr10-32" d="M 319 0 
L 319 172 
Q 319 188 331 206 
L 1325 1306 
Q 1550 1550 1690 1715 
Q 1831 1881 1968 2097 
Q 2106 2313 2186 2536 
Q 2266 2759 2266 3009 
Q 2266 3272 2169 3511 
Q 2072 3750 1880 3894 
Q 1688 4038 1416 4038 
Q 1138 4038 916 3870 
Q 694 3703 603 3438 
Q 628 3444 672 3444 
Q 816 3444 917 3347 
Q 1019 3250 1019 3097 
Q 1019 2950 917 2848 
Q 816 2747 672 2747 
Q 522 2747 420 2851 
Q 319 2956 319 3097 
Q 319 3338 409 3548 
Q 500 3759 670 3923 
Q 841 4088 1055 4175 
Q 1269 4263 1509 4263 
Q 1875 4263 2190 4108 
Q 2506 3953 2690 3670 
Q 2875 3388 2875 3009 
Q 2875 2731 2753 2481 
Q 2631 2231 2440 2026 
Q 2250 1822 1953 1562 
Q 1656 1303 1563 1216 
L 838 519 
L 1453 519 
Q 1906 519 2211 526 
Q 2516 534 2534 550 
Q 2609 631 2688 1141 
L 2875 1141 
L 2694 0 
L 319 0 
z
" transform="scale(0.015625)"/>
     </defs>
     <use xlink:href="#Cmmi10-70"/>
     <use xlink:href="#Cmr10-3d" transform="translate(67.851562 0)"/>
     <use xlink:href="#Cmr10-31" transform="translate(163.095703 0)"/>
     <use xlink:href="#Cmmi10-3d" transform="translate(213.095703 0)"/>
     <use xlink:href="#Cmr10-32" transform="translate(263.095703 0)"/>
    </g>
   </g>
   <g id="text_8">
    <!-- $p=1/4$ -->
    <g style="fill: #7f7f7f" transform="translate(144.9335 153.351) scale(0.085 -0.085)">
     <defs>
      <path id="Cmr10-34" d="M 178 1056 
L 178 1281 
L 2156 4231 
Q 2178 4263 2222 4263 
L 2316 4263 
Q 2388 4263 2388 4191 
L 2388 1281 
L 3016 1281 
L 3016 1056 
L 2388 1056 
L 2388 428 
Q 2388 297 2575 261 
Q 2763 225 3009 225 
L 3009 0 
L 1247 0 
L 1247 225 
Q 1494 225 1681 261 
Q 1869 297 1869 428 
L 1869 1056 
L 178 1056 
z
M 391 1281 
L 1906 1281 
L 1906 3547 
L 391 1281 
z
" transform="scale(0.015625)"/>
     </defs>
     <use xlink:href="#Cmmi10-70"/>
     <use xlink:href="#Cmr10-3d" transform="translate(67.851562 0)"/>
     <use xlink:href="#Cmr10-31" transform="translate(163.095703 0)"/>
     <use xlink:href="#Cmmi10-3d" transform="translate(213.095703 0)"/>
     <use xlink:href="#Cmr10-34" transform="translate(263.095703 0)"/>
    </g>
   </g>
   <g id="text_9">
    <!-- $p=1/8$ -->
    <g style="fill: #7f7f7f" transform="translate(204.56975 198.151) scale(0.085 -0.085)">
     <defs>
      <path id="Cmr10-38" d="M 269 972 
Q 269 1356 522 1651 
Q 775 1947 1172 2144 
L 934 2297 
Q 716 2441 578 2680 
Q 441 2919 441 3181 
Q 441 3488 602 3734 
Q 763 3981 1030 4122 
Q 1297 4263 1600 4263 
Q 1884 4263 2148 4147 
Q 2413 4031 2583 3815 
Q 2753 3600 2753 3303 
Q 2753 3088 2651 2903 
Q 2550 2719 2373 2572 
Q 2197 2425 1997 2322 
L 2363 2088 
Q 2616 1922 2770 1653 
Q 2925 1384 2925 1088 
Q 2925 741 2739 456 
Q 2553 172 2247 15 
Q 1941 -141 1600 -141 
Q 1269 -141 961 -6 
Q 653 128 461 383 
Q 269 638 269 972 
z
M 616 972 
Q 616 719 755 509 
Q 894 300 1122 181 
Q 1350 63 1600 63 
Q 1972 63 2275 280 
Q 2578 497 2578 856 
Q 2578 978 2529 1098 
Q 2481 1219 2395 1317 
Q 2309 1416 2203 1478 
L 1344 2034 
Q 1144 1928 976 1765 
Q 809 1603 712 1400 
Q 616 1197 616 972 
z
M 1056 2925 
L 1831 2425 
Q 2100 2581 2272 2803 
Q 2444 3025 2444 3303 
Q 2444 3519 2323 3698 
Q 2203 3878 2009 3978 
Q 1816 4078 1594 4078 
Q 1400 4078 1203 4003 
Q 1006 3928 878 3779 
Q 750 3631 750 3431 
Q 750 3131 1056 2925 
z
" transform="scale(0.015625)"/>
     </defs>
     <use xlink:href="#Cmmi10-70"/>
     <use xlink:href="#Cmr10-3d" transform="translate(67.851562 0)"/>
     <use xlink:href="#Cmr10-31" transform="translate(163.095703 0)"/>
     <use xlink:href="#Cmmi10-3d" transform="translate(213.095703 0)"/>
     <use xlink:href="#Cmr10-38" transform="translate(263.095703 0)"/>
    </g>
   </g>
   <g id="text_10">
    <!-- $p=1/8$ -->
    <g style="fill: #7f7f7f" transform="translate(276.13325 198.151) scale(0.085 -0.085)">
     <use xlink:href="#Cmmi10-70"/>
     <use xlink:href="#Cmr10-3d" transform="translate(67.851562 0)"/>
     <use xlink:href="#Cmr10-31" transform="translate(163.095703 0)"/>
     <use xlink:href="#Cmmi10-3d" transform="translate(213.095703 0)"/>
     <use xlink:href="#Cmr10-38" transform="translate(263.095703 0)"/>
    </g>
   </g>
   <g id="text_11">
    <!-- $\ell=1$ -->
    <g style="fill: #7f7f7f" transform="translate(16.58025 81.363438) scale(0.09 -0.09)">
     <defs>
      <path id="Cmmi10-60" d="M 153 475 
Q 125 475 94 509 
Q 63 544 63 575 
Q 63 628 594 1113 
Q 594 1141 592 1159 
Q 591 1178 588 1197 
Q 588 1472 631 1758 
Q 675 2044 751 2328 
Q 828 2613 943 2922 
Q 1059 3231 1178 3463 
Q 1384 3884 1628 4198 
Q 1872 4513 2169 4513 
Q 2372 4513 2459 4373 
Q 2547 4234 2547 4025 
Q 2547 2853 991 1269 
Q 966 994 966 878 
Q 966 78 1331 78 
Q 1488 78 1642 161 
Q 1797 244 1908 341 
Q 2019 438 2216 628 
Q 2228 641 2253 641 
Q 2288 641 2319 603 
Q 2350 566 2350 531 
Q 2350 509 2322 488 
Q 2038 209 1809 56 
Q 1581 -97 1319 -97 
Q 981 -97 817 193 
Q 653 484 609 884 
Q 438 713 191 488 
Q 184 475 153 475 
z
M 1044 1575 
Q 1384 1938 1681 2338 
Q 1978 2738 2176 3180 
Q 2375 3622 2375 4044 
Q 2375 4347 2163 4347 
Q 1934 4347 1696 3801 
Q 1459 3256 1290 2622 
Q 1122 1988 1044 1575 
z
" transform="scale(0.015625)"/>
     </defs>
     <use xlink:href="#Cmmi10-60" transform="translate(0 0.484375)"/>
     <use xlink:href="#Cmr10-3d" transform="translate(59.160156 0.484375)"/>
     <use xlink:href="#Cmr10-31" transform="translate(154.404297 0.484375)"/>
    </g>
   </g>
   <g id="text_12">
    <!-- $\ell=2$ -->
    <g style="fill: #7f7f7f" transform="translate(16.58025 126.163438) scale(0.09 -0.09)">
     <use xlink:href="#Cmmi10-60" transform="translate(0 0.484375)"/>
     <use xlink:href="#Cmr10-3d" transform="translate(59.160156 0.484375)"/>
     <use xlink:href="#Cmr10-32" transform="translate(154.404297 0.484375)"/>
    </g>
   </g>
   <g id="text_13">
    <!-- $\ell=3$ -->
    <g style="fill: #7f7f7f" transform="translate(16.58025 170.963437) scale(0.09 -0.09)">
     <defs>
      <path id="Cmr10-33" d="M 609 494 
Q 759 275 1012 169 
Q 1266 63 1556 63 
Q 1928 63 2084 380 
Q 2241 697 2241 1100 
Q 2241 1281 2208 1462 
Q 2175 1644 2097 1800 
Q 2019 1956 1883 2050 
Q 1747 2144 1550 2144 
L 1125 2144 
Q 1069 2144 1069 2203 
L 1069 2259 
Q 1069 2309 1125 2309 
L 1478 2338 
Q 1703 2338 1851 2506 
Q 2000 2675 2069 2917 
Q 2138 3159 2138 3378 
Q 2138 3684 1994 3881 
Q 1850 4078 1556 4078 
Q 1313 4078 1091 3986 
Q 869 3894 738 3706 
Q 750 3709 759 3711 
Q 769 3713 781 3713 
Q 925 3713 1022 3613 
Q 1119 3513 1119 3372 
Q 1119 3234 1022 3134 
Q 925 3034 781 3034 
Q 641 3034 541 3134 
Q 441 3234 441 3372 
Q 441 3647 606 3850 
Q 772 4053 1033 4158 
Q 1294 4263 1556 4263 
Q 1750 4263 1965 4205 
Q 2181 4147 2356 4039 
Q 2531 3931 2642 3762 
Q 2753 3594 2753 3378 
Q 2753 3109 2633 2881 
Q 2513 2653 2303 2487 
Q 2094 2322 1844 2241 
Q 2122 2188 2372 2031 
Q 2622 1875 2773 1631 
Q 2925 1388 2925 1106 
Q 2925 753 2731 467 
Q 2538 181 2222 20 
Q 1906 -141 1556 -141 
Q 1256 -141 954 -26 
Q 653 88 461 316 
Q 269 544 269 863 
Q 269 1022 375 1128 
Q 481 1234 641 1234 
Q 744 1234 830 1186 
Q 916 1138 964 1050 
Q 1013 963 1013 863 
Q 1013 706 903 600 
Q 794 494 641 494 
L 609 494 
z
" transform="scale(0.015625)"/>
     </defs>
     <use xlink:href="#Cmmi10-60" transform="translate(0 0.484375)"/>
     <use xlink:href="#Cmr10-3d" transform="translate(59.160156 0.484375)"/>
     <use xlink:href="#Cmr10-33" transform="translate(154.404297 0.484375)"/>
    </g>
   </g>
   <g id="text_14">
    <!-- root -->
    <g style="fill: #7f7f7f" transform="translate(16.990875 36.563437) scale(0.09 -0.09)">
     <defs>
      <path id="DejaVuSans-72" d="M 2631 2963 
Q 2534 3019 2420 3045 
Q 2306 3072 2169 3072 
Q 1681 3072 1420 2755 
Q 1159 2438 1159 1844 
L 1159 0 
L 581 0 
L 581 3500 
L 1159 3500 
L 1159 2956 
Q 1341 3275 1631 3429 
Q 1922 3584 2338 3584 
Q 2397 3584 2469 3576 
Q 2541 3569 2628 3553 
L 2631 2963 
z
" transform="scale(0.015625)"/>
      <path id="DejaVuSans-6f" d="M 1959 3097 
Q 1497 3097 1228 2736 
Q 959 2375 959 1747 
Q 959 1119 1226 758 
Q 1494 397 1959 397 
Q 2419 397 2687 759 
Q 2956 1122 2956 1747 
Q 2956 2369 2687 2733 
Q 2419 3097 1959 3097 
z
M 1959 3584 
Q 2709 3584 3137 3096 
Q 3566 2609 3566 1747 
Q 3566 888 3137 398 
Q 2709 -91 1959 -91 
Q 1206 -91 779 398 
Q 353 888 353 1747 
Q 353 2609 779 3096 
Q 1206 3584 1959 3584 
z
" transform="scale(0.015625)"/>
      <path id="DejaVuSans-74" d="M 1172 4494 
L 1172 3500 
L 2356 3500 
L 2356 3053 
L 1172 3053 
L 1172 1153 
Q 1172 725 1289 603 
Q 1406 481 1766 481 
L 2356 481 
L 2356 0 
L 1766 0 
Q 1100 0 847 248 
Q 594 497 594 1153 
L 594 3053 
L 172 3053 
L 172 3500 
L 594 3500 
L 594 4494 
L 1172 4494 
z
" transform="scale(0.015625)"/>
     </defs>
     <use xlink:href="#DejaVuSans-72"/>
     <use xlink:href="#DejaVuSans-6f" transform="translate(38.863281 0)"/>
     <use xlink:href="#DejaVuSans-6f" transform="translate(100.044922 0)"/>
     <use xlink:href="#DejaVuSans-74" transform="translate(161.226562 0)"/>
    </g>
   </g>
   <g id="text_15">
    <!-- $\sum_i 2^{-\ell_i} = \frac{1}{2}+\frac{1}{4}+\frac{1}{8}+\frac{1}{8} = 1$   (Kraft, tight) -->
    <g style="fill: #1f77b4" transform="translate(86.793 211.0925) scale(0.105 -0.105)">
     <defs>
      <path id="Cmex10-58" d="M 422 -8959 
Q 359 -8959 359 -8891 
Q 359 -8863 378 -8844 
L 3756 -4909 
L 378 -281 
Q 359 -263 359 -250 
L 359 -56 
Q 359 -34 379 -17 
Q 400 0 422 0 
L 8103 0 
L 8878 -1797 
L 8691 -1797 
Q 8394 -1116 7697 -787 
Q 7000 -459 6242 -382 
Q 5484 -306 4481 -306 
L 1522 -306 
L 4544 -4434 
Q 4556 -4459 4556 -4481 
Q 4556 -4500 4544 -4525 
L 1222 -8391 
L 4544 -8391 
Q 5528 -8391 6289 -8314 
Q 7050 -8238 7739 -7908 
Q 8428 -7578 8691 -6900 
L 8878 -6900 
L 8103 -8959 
L 422 -8959 
z
" transform="scale(0.015625)"/>
      <path id="Cmmi10-69" d="M 500 459 
Q 500 578 550 709 
L 1069 2088 
Q 1153 2322 1153 2472 
Q 1153 2663 1013 2663 
Q 759 2663 595 2402 
Q 431 2141 353 1819 
Q 341 1778 300 1778 
L 225 1778 
Q 172 1778 172 1838 
L 172 1856 
Q 275 2238 487 2533 
Q 700 2828 1025 2828 
Q 1253 2828 1411 2678 
Q 1569 2528 1569 2297 
Q 1569 2178 1516 2047 
L 997 672 
Q 909 459 909 288 
Q 909 97 1056 97 
Q 1306 97 1473 364 
Q 1641 631 1709 941 
Q 1722 978 1759 978 
L 1838 978 
Q 1863 978 1878 961 
Q 1894 944 1894 922 
Q 1894 916 1888 903 
Q 1800 541 1583 234 
Q 1366 -72 1044 -72 
Q 819 -72 659 83 
Q 500 238 500 459 
z
M 1222 3878 
Q 1222 4013 1334 4122 
Q 1447 4231 1581 4231 
Q 1691 4231 1761 4164 
Q 1831 4097 1831 3994 
Q 1831 3850 1717 3742 
Q 1603 3634 1466 3634 
Q 1363 3634 1292 3704 
Q 1222 3775 1222 3878 
z
" transform="scale(0.015625)"/>
      <path id="Cmsy10-a1" d="M 653 1472 
Q 600 1472 565 1512 
Q 531 1553 531 1600 
Q 531 1647 565 1687 
Q 600 1728 653 1728 
L 4325 1728 
Q 4375 1728 4408 1687 
Q 4441 1647 4441 1600 
Q 4441 1553 4408 1512 
Q 4375 1472 4325 1472 
L 653 1472 
z
" transform="scale(0.015625)"/>
      <path id="Cmr10-2b" d="M 481 1472 
Q 428 1472 393 1512 
Q 359 1553 359 1600 
Q 359 1647 393 1687 
Q 428 1728 481 1728 
L 2363 1728 
L 2363 3616 
Q 2363 3666 2400 3698 
Q 2438 3731 2491 3731 
Q 2538 3731 2578 3698 
Q 2619 3666 2619 3616 
L 2619 1728 
L 4500 1728 
Q 4547 1728 4581 1687 
Q 4616 1647 4616 1600 
Q 4616 1553 4581 1512 
Q 4547 1472 4500 1472 
L 2619 1472 
L 2619 -416 
Q 2619 -466 2578 -498 
Q 2538 -531 2491 -531 
Q 2438 -531 2400 -498 
Q 2363 -466 2363 -416 
L 2363 1472 
L 481 1472 
z
" transform="scale(0.015625)"/>
      <path id="DejaVuSans-20" transform="scale(0.015625)"/>
      <path id="DejaVuSans-28" d="M 1984 4856 
Q 1566 4138 1362 3434 
Q 1159 2731 1159 2009 
Q 1159 1288 1364 580 
Q 1569 -128 1984 -844 
L 1484 -844 
Q 1016 -109 783 600 
Q 550 1309 550 2009 
Q 550 2706 781 3412 
Q 1013 4119 1484 4856 
L 1984 4856 
z
" transform="scale(0.015625)"/>
      <path id="DejaVuSans-4b" d="M 628 4666 
L 1259 4666 
L 1259 2694 
L 3353 4666 
L 4166 4666 
L 1850 2491 
L 4331 0 
L 3500 0 
L 1259 2247 
L 1259 0 
L 628 0 
L 628 4666 
z
" transform="scale(0.015625)"/>
      <path id="DejaVuSans-61" d="M 2194 1759 
Q 1497 1759 1228 1600 
Q 959 1441 959 1056 
Q 959 750 1161 570 
Q 1363 391 1709 391 
Q 2188 391 2477 730 
Q 2766 1069 2766 1631 
L 2766 1759 
L 2194 1759 
z
M 3341 1997 
L 3341 0 
L 2766 0 
L 2766 531 
Q 2569 213 2275 61 
Q 1981 -91 1556 -91 
Q 1019 -91 701 211 
Q 384 513 384 1019 
Q 384 1609 779 1909 
Q 1175 2209 1959 2209 
L 2766 2209 
L 2766 2266 
Q 2766 2663 2505 2880 
Q 2244 3097 1772 3097 
Q 1472 3097 1187 3025 
Q 903 2953 641 2809 
L 641 3341 
Q 956 3463 1253 3523 
Q 1550 3584 1831 3584 
Q 2591 3584 2966 3190 
Q 3341 2797 3341 1997 
z
" transform="scale(0.015625)"/>
      <path id="DejaVuSans-66" d="M 2375 4863 
L 2375 4384 
L 1825 4384 
Q 1516 4384 1395 4259 
Q 1275 4134 1275 3809 
L 1275 3500 
L 2222 3500 
L 2222 3053 
L 1275 3053 
L 1275 0 
L 697 0 
L 697 3053 
L 147 3053 
L 147 3500 
L 697 3500 
L 697 3744 
Q 697 4328 969 4595 
Q 1241 4863 1831 4863 
L 2375 4863 
z
" transform="scale(0.015625)"/>
      <path id="DejaVuSans-2c" d="M 750 794 
L 1409 794 
L 1409 256 
L 897 -744 
L 494 -744 
L 750 256 
L 750 794 
z
" transform="scale(0.015625)"/>
      <path id="DejaVuSans-69" d="M 603 3500 
L 1178 3500 
L 1178 0 
L 603 0 
L 603 3500 
z
M 603 4863 
L 1178 4863 
L 1178 4134 
L 603 4134 
L 603 4863 
z
" transform="scale(0.015625)"/>
      <path id="DejaVuSans-67" d="M 2906 1791 
Q 2906 2416 2648 2759 
Q 2391 3103 1925 3103 
Q 1463 3103 1205 2759 
Q 947 2416 947 1791 
Q 947 1169 1205 825 
Q 1463 481 1925 481 
Q 2391 481 2648 825 
Q 2906 1169 2906 1791 
z
M 3481 434 
Q 3481 -459 3084 -895 
Q 2688 -1331 1869 -1331 
Q 1566 -1331 1297 -1286 
Q 1028 -1241 775 -1147 
L 775 -588 
Q 1028 -725 1275 -790 
Q 1522 -856 1778 -856 
Q 2344 -856 2625 -561 
Q 2906 -266 2906 331 
L 2906 616 
Q 2728 306 2450 153 
Q 2172 0 1784 0 
Q 1141 0 747 490 
Q 353 981 353 1791 
Q 353 2603 747 3093 
Q 1141 3584 1784 3584 
Q 2172 3584 2450 3431 
Q 2728 3278 2906 2969 
L 2906 3500 
L 3481 3500 
L 3481 434 
z
" transform="scale(0.015625)"/>
      <path id="DejaVuSans-68" d="M 3513 2113 
L 3513 0 
L 2938 0 
L 2938 2094 
Q 2938 2591 2744 2837 
Q 2550 3084 2163 3084 
Q 1697 3084 1428 2787 
Q 1159 2491 1159 1978 
L 1159 0 
L 581 0 
L 581 4863 
L 1159 4863 
L 1159 2956 
Q 1366 3272 1645 3428 
Q 1925 3584 2291 3584 
Q 2894 3584 3203 3211 
Q 3513 2838 3513 2113 
z
" transform="scale(0.015625)"/>
      <path id="DejaVuSans-29" d="M 513 4856 
L 1013 4856 
Q 1481 4119 1714 3412 
Q 1947 2706 1947 2009 
Q 1947 1309 1714 600 
Q 1481 -109 1013 -844 
L 513 -844 
Q 928 -128 1133 580 
Q 1338 1288 1338 2009 
Q 1338 2731 1133 3434 
Q 928 4138 513 4856 
z
" transform="scale(0.015625)"/>
     </defs>
     <use xlink:href="#Cmex10-58" transform="translate(0 104)"/>
     <use xlink:href="#Cmmi10-69" transform="translate(57 -101.010938) scale(0.7)"/>
     <use xlink:href="#Cmr10-32" transform="translate(133.09375 0.674479)"/>
     <use xlink:href="#Cmsy10-a1" transform="translate(187.557891 38.938542) scale(0.7)"/>
     <use xlink:href="#Cmmi10-60" transform="translate(241.937773 38.938542) scale(0.7)"/>
     <use xlink:href="#Cmmi10-69" transform="translate(271.058867 27.034167) scale(0.49)"/>
     <use xlink:href="#Cmr10-3d" transform="translate(316.326621 0.674479)"/>
     <use xlink:href="#Cmr10-31" transform="translate(411.570762 38.174479) scale(0.7)"/>
     <use xlink:href="#Cmr10-32" transform="translate(411.570762 -39.702083) scale(0.7)"/>
     <use xlink:href="#Cmr10-2b" transform="translate(476.629355 0.674479)"/>
     <use xlink:href="#Cmr10-31" transform="translate(571.873496 38.174479) scale(0.7)"/>
     <use xlink:href="#Cmr10-34" transform="translate(571.873496 -39.702083) scale(0.7)"/>
     <use xlink:href="#Cmr10-2b" transform="translate(636.93209 0.674479)"/>
     <use xlink:href="#Cmr10-31" transform="translate(732.17623 38.174479) scale(0.7)"/>
     <use xlink:href="#Cmr10-38" transform="translate(732.17623 -39.702083) scale(0.7)"/>
     <use xlink:href="#Cmr10-2b" transform="translate(797.234824 0.674479)"/>
     <use xlink:href="#Cmr10-31" transform="translate(892.478965 38.174479) scale(0.7)"/>
     <use xlink:href="#Cmr10-38" transform="translate(892.478965 -39.702083) scale(0.7)"/>
     <use xlink:href="#Cmr10-3d" transform="translate(957.537559 0.674479)"/>
     <use xlink:href="#Cmr10-31" transform="translate(1052.781699 0.674479)"/>
     <use xlink:href="#DejaVuSans-20" transform="translate(1102.781699 0.674479)"/>
     <use xlink:href="#DejaVuSans-20" transform="translate(1134.568809 0.674479)"/>
     <use xlink:href="#DejaVuSans-20" transform="translate(1166.355918 0.674479)"/>
     <use xlink:href="#DejaVuSans-28" transform="translate(1198.143027 0.674479)"/>
     <use xlink:href="#DejaVuSans-4b" transform="translate(1237.156699 0.674479)"/>
     <use xlink:href="#DejaVuSans-72" transform="translate(1302.732871 0.674479)"/>
     <use xlink:href="#DejaVuSans-61" transform="translate(1343.846152 0.674479)"/>
     <use xlink:href="#DejaVuSans-66" transform="translate(1405.125449 0.674479)"/>
     <use xlink:href="#DejaVuSans-74" transform="translate(1440.330527 0.674479)"/>
     <use xlink:href="#DejaVuSans-2c" transform="translate(1479.539512 0.674479)"/>
     <use xlink:href="#DejaVuSans-20" transform="translate(1511.326621 0.674479)"/>
     <use xlink:href="#DejaVuSans-74" transform="translate(1543.11373 0.674479)"/>
     <use xlink:href="#DejaVuSans-69" transform="translate(1582.322715 0.674479)"/>
     <use xlink:href="#DejaVuSans-67" transform="translate(1610.105918 0.674479)"/>
     <use xlink:href="#DejaVuSans-68" transform="translate(1673.58248 0.674479)"/>
     <use xlink:href="#DejaVuSans-74" transform="translate(1736.961387 0.674479)"/>
     <use xlink:href="#DejaVuSans-29" transform="translate(1776.170371 0.674479)"/>
     <path d="M 411.570762 13.174479 
L 411.570762 19.424479 
L 446.570762 19.424479 
L 446.570762 13.174479 
L 411.570762 13.174479 
z
"/>
     <path d="M 571.873496 13.174479 
L 571.873496 19.424479 
L 606.873496 19.424479 
L 606.873496 13.174479 
L 571.873496 13.174479 
z
"/>
     <path d="M 732.17623 13.174479 
L 732.17623 19.424479 
L 767.17623 19.424479 
L 767.17623 13.174479 
L 732.17623 13.174479 
z
"/>
     <path d="M 892.478965 13.174479 
L 892.478965 19.424479 
L 927.478965 19.424479 
L 927.478965 13.174479 
L 892.478965 13.174479 
z
"/>
    </g>
   </g>
   <g id="patch_2">
    <path d="M 63.65565 94.112 
L 109.77435 94.112 
L 109.77435 63.648 
L 63.65565 63.648 
z
" clip-path="url(#pf6d44bc617)" style="fill: #1f77b4; opacity: 0.16; stroke: #1f77b4; stroke-width: 1.6"/>
   </g>
   <g id="patch_3">
    <path d="M 135.21915 138.912 
L 181.33785 138.912 
L 181.33785 108.448 
L 135.21915 108.448 
z
" clip-path="url(#pf6d44bc617)" style="fill: #1f77b4; opacity: 0.16; stroke: #1f77b4; stroke-width: 1.6"/>
   </g>
   <g id="patch_4">
    <path d="M 194.8554 183.712 
L 240.9741 183.712 
L 240.9741 153.248 
L 194.8554 153.248 
z
" clip-path="url(#pf6d44bc617)" style="fill: #1f77b4; opacity: 0.16; stroke: #1f77b4; stroke-width: 1.6"/>
   </g>
   <g id="patch_5">
    <path d="M 266.4189 183.712 
L 312.5376 183.712 
L 312.5376 153.248 
L 266.4189 153.248 
z
" clip-path="url(#pf6d44bc617)" style="fill: #1f77b4; opacity: 0.16; stroke: #1f77b4; stroke-width: 1.6"/>
   </g>
   <g id="text_16">
    <!-- a -->
    <g style="fill: #1f77b4" transform="translate(82.665937 76.36725) scale(0.12 -0.12)">
     <defs>
      <path id="DejaVuSans-Bold-61" d="M 2106 1575 
Q 1756 1575 1579 1456 
Q 1403 1338 1403 1106 
Q 1403 894 1545 773 
Q 1688 653 1941 653 
Q 2256 653 2472 879 
Q 2688 1106 2688 1447 
L 2688 1575 
L 2106 1575 
z
M 3816 1997 
L 3816 0 
L 2688 0 
L 2688 519 
Q 2463 200 2181 54 
Q 1900 -91 1497 -91 
Q 953 -91 614 226 
Q 275 544 275 1050 
Q 275 1666 698 1953 
Q 1122 2241 2028 2241 
L 2688 2241 
L 2688 2328 
Q 2688 2594 2478 2717 
Q 2269 2841 1825 2841 
Q 1466 2841 1156 2769 
Q 847 2697 581 2553 
L 581 3406 
Q 941 3494 1303 3539 
Q 1666 3584 2028 3584 
Q 2975 3584 3395 3211 
Q 3816 2838 3816 1997 
z
" transform="scale(0.015625)"/>
     </defs>
     <use xlink:href="#DejaVuSans-Bold-61"/>
    </g>
   </g>
   <g id="text_17">
    <!-- 0 -->
    <g style="fill: #ff7f0e" transform="translate(83.855352 88.246641) scale(0.095 -0.095)">
     <defs>
      <path id="DejaVuSansMono-30" d="M 1509 2344 
Q 1509 2516 1629 2641 
Q 1750 2766 1919 2766 
Q 2094 2766 2219 2641 
Q 2344 2516 2344 2344 
Q 2344 2169 2220 2047 
Q 2097 1925 1919 1925 
Q 1744 1925 1626 2044 
Q 1509 2163 1509 2344 
z
M 1925 4250 
Q 1484 4250 1267 3775 
Q 1050 3300 1050 2328 
Q 1050 1359 1267 884 
Q 1484 409 1925 409 
Q 2369 409 2586 884 
Q 2803 1359 2803 2328 
Q 2803 3300 2586 3775 
Q 2369 4250 1925 4250 
z
M 1925 4750 
Q 2672 4750 3055 4137 
Q 3438 3525 3438 2328 
Q 3438 1134 3055 521 
Q 2672 -91 1925 -91 
Q 1178 -91 797 521 
Q 416 1134 416 2328 
Q 416 3525 797 4137 
Q 1178 4750 1925 4750 
z
" transform="scale(0.015625)"/>
     </defs>
     <use xlink:href="#DejaVuSansMono-30"/>
    </g>
   </g>
   <g id="text_18">
    <!-- b -->
    <g style="fill: #1f77b4" transform="translate(153.983812 121.16725) scale(0.12 -0.12)">
     <defs>
      <path id="DejaVuSans-Bold-62" d="M 2400 722 
Q 2759 722 2948 984 
Q 3138 1247 3138 1747 
Q 3138 2247 2948 2509 
Q 2759 2772 2400 2772 
Q 2041 2772 1848 2508 
Q 1656 2244 1656 1747 
Q 1656 1250 1848 986 
Q 2041 722 2400 722 
z
M 1656 2988 
Q 1888 3294 2169 3439 
Q 2450 3584 2816 3584 
Q 3463 3584 3878 3070 
Q 4294 2556 4294 1747 
Q 4294 938 3878 423 
Q 3463 -91 2816 -91 
Q 2450 -91 2169 54 
Q 1888 200 1656 506 
L 1656 0 
L 538 0 
L 538 4863 
L 1656 4863 
L 1656 2988 
z
" transform="scale(0.015625)"/>
     </defs>
     <use xlink:href="#DejaVuSans-Bold-62"/>
    </g>
   </g>
   <g id="text_19">
    <!-- 10 -->
    <g style="fill: #ff7f0e" transform="translate(152.559203 133.046641) scale(0.095 -0.095)">
     <defs>
      <path id="DejaVuSansMono-31" d="M 844 531 
L 1825 531 
L 1825 4097 
L 769 3859 
L 769 4434 
L 1819 4666 
L 2450 4666 
L 2450 531 
L 3419 531 
L 3419 0 
L 844 0 
L 844 531 
z
" transform="scale(0.015625)"/>
     </defs>
     <use xlink:href="#DejaVuSansMono-31"/>
     <use xlink:href="#DejaVuSansMono-30" transform="translate(60.205078 0)"/>
    </g>
   </g>
   <g id="text_20">
    <!-- c -->
    <g style="fill: #1f77b4" transform="translate(214.357875 165.96725) scale(0.12 -0.12)">
     <defs>
      <path id="DejaVuSans-Bold-63" d="M 3366 3391 
L 3366 2478 
Q 3138 2634 2908 2709 
Q 2678 2784 2431 2784 
Q 1963 2784 1702 2511 
Q 1441 2238 1441 1747 
Q 1441 1256 1702 982 
Q 1963 709 2431 709 
Q 2694 709 2930 787 
Q 3166 866 3366 1019 
L 3366 103 
Q 3103 6 2833 -42 
Q 2563 -91 2291 -91 
Q 1344 -91 809 395 
Q 275 881 275 1747 
Q 275 2613 809 3098 
Q 1344 3584 2291 3584 
Q 2566 3584 2833 3536 
Q 3100 3488 3366 3391 
z
" transform="scale(0.015625)"/>
     </defs>
     <use xlink:href="#DejaVuSans-Bold-63"/>
    </g>
   </g>
   <g id="text_21">
    <!-- 110 -->
    <g style="fill: #ff7f0e" transform="translate(209.335805 177.846641) scale(0.095 -0.095)">
     <use xlink:href="#DejaVuSansMono-31"/>
     <use xlink:href="#DejaVuSansMono-31" transform="translate(60.205078 0)"/>
     <use xlink:href="#DejaVuSansMono-30" transform="translate(120.410156 0)"/>
    </g>
   </g>
   <g id="text_22">
    <!-- d -->
    <g style="fill: #1f77b4" transform="translate(285.183562 165.96725) scale(0.12 -0.12)">
     <defs>
      <path id="DejaVuSans-Bold-64" d="M 2919 2988 
L 2919 4863 
L 4044 4863 
L 4044 0 
L 2919 0 
L 2919 506 
Q 2688 197 2409 53 
Q 2131 -91 1766 -91 
Q 1119 -91 703 423 
Q 288 938 288 1747 
Q 288 2556 703 3070 
Q 1119 3584 1766 3584 
Q 2128 3584 2408 3439 
Q 2688 3294 2919 2988 
z
M 2181 722 
Q 2541 722 2730 984 
Q 2919 1247 2919 1747 
Q 2919 2247 2730 2509 
Q 2541 2772 2181 2772 
Q 1825 2772 1636 2509 
Q 1447 2247 1447 1747 
Q 1447 1247 1636 984 
Q 1825 722 2181 722 
z
" transform="scale(0.015625)"/>
     </defs>
     <use xlink:href="#DejaVuSans-Bold-64"/>
    </g>
   </g>
   <g id="text_23">
    <!-- 111 -->
    <g style="fill: #ff7f0e" transform="translate(280.899305 177.846641) scale(0.095 -0.095)">
     <use xlink:href="#DejaVuSansMono-31"/>
     <use xlink:href="#DejaVuSansMono-31" transform="translate(60.205078 0)"/>
     <use xlink:href="#DejaVuSansMono-31" transform="translate(120.410156 0)"/>
    </g>
   </g>
  </g>
 </g>
 <defs>
  <clipPath id="pf6d44bc617">
   <rect x="7.2" y="7.2" width="318.06" height="221.76"/>
  </clipPath>
 </defs>
</svg>
