<?xml version="1.0" encoding="utf-8" standalone="no"?>
<!DOCTYPE svg PUBLIC "-//W3C//DTD SVG 1.1//EN"
  "http://www.w3.org/Graphics/SVG/1.1/DTD/svg11.dtd">
<svg xmlns:xlink="http://www.w3.org/1999/xlink" width="326.88pt" height="293.987368pt" viewBox="0 0 326.88 293.987368" xmlns="http://www.w3.org/2000/svg" version="1.1">
 <metadata>
  <rdf:RDF xmlns:dc="http://purl.org/dc/elements/1.1/" xmlns:cc="http://creativecommons.org/ns#" xmlns:rdf="http://www.w3.org/1999/02/22-rdf-syntax-ns#">
   <cc:Work>
    <dc:type rdf:resource="http://purl.org/dc/dcmitype/StillImage"/>
    <dc:format>image/svg+xml</dc:format>
    <dc:creator>
     <cc:Agent>
      <dc:title>Matplotlib v3.10.8, https://matplotlib.org/</dc:title>
     </cc:Agent>
    </dc:creator>
   </cc:Work>
  </rdf:RDF>
 </metadata>
 <defs>
  <style type="text/css">*{stroke-linejoin: round; stroke-linecap: butt}</style>
 </defs>
 <g id="figure_1">
  <g id="patch_1">
   <path d="M 0 293.987368 
L 326.88 293.987368 
L 326.88 0 
L 0 0 
z
" style="fill: #ffffff"/>
  </g>
  <g id="axes_1">
   <g id="patch_2">
    <path d="M 7.2 286.787368 
L 319.68 286.787368 
L 319.68 7.2 
L 7.2 7.2 
z
" style="fill: #ffffff"/>
   </g>
   <g id="matplotlib.axis_1"/>
   <g id="matplotlib.axis_2"/>
   <g id="line2d_1">
    <path d="M 105.877895 253.894737 
L 105.747213 249.750249 
L 105.355687 245.622228 
L 104.704873 241.527072 
L 103.797356 237.481054 
L 102.636741 233.500246 
L 101.22764 229.600466 
L 99.575651 225.797205 
L 97.687337 222.105576 
L 95.570201 218.540244 
L 93.232654 215.115375 
L 90.683983 211.844576 
L 87.934313 208.740841 
L 84.99457 205.816501 
L 81.876432 203.083174 
L 78.592288 200.551721 
L 75.155186 198.232199 
L 71.578781 196.133822 
L 67.877283 194.264929 
L 64.065396 192.632943 
L 60.158267 191.244349 
L 56.171417 190.104663 
L 52.120686 189.218414 
L 48.022169 188.589122 
L 43.892147 188.219288 
L 39.74703 188.110381 
L 35.603286 188.262834 
L 31.477379 188.676041 
L 27.385699 189.34836 
L 23.344504 190.277121 
L 19.369848 191.458633 
L 15.477524 192.888202 
L 11.682995 194.560148 
L 8.001337 196.46783 
L 4.447177 198.603667 
L 1.034635 200.959174 
L -1 202.524875 
M 91.462991 294.987368 
L 93.232654 292.674098 
L 95.570201 289.249229 
L 97.687337 285.683898 
L 99.575651 281.992268 
L 101.22764 278.189008 
L 102.636741 274.289227 
L 103.797356 270.30842 
L 104.704873 266.262401 
L 105.355687 262.167246 
L 105.747213 258.039224 
L 105.877895 253.894737 
L 105.877895 253.894737 
" clip-path="url(#pfe820945d1)" style="fill: none; stroke: #7f7f7f; stroke-opacity: 0.8; stroke-linecap: square"/>
   </g>
   <g id="line2d_2">
    <path d="M 156.385646 253.894737 
L 156.282954 249.008613 
L 155.975059 244.131119 
L 155.462505 239.270868 
L 154.746197 234.436445 
L 153.8274 229.636386 
L 152.707737 224.87917 
L 151.389186 220.173198 
L 149.874074 215.526782 
L 148.165079 210.948127 
L 146.265217 206.445319 
L 144.177845 202.026312 
L 141.906649 197.698909 
L 139.45564 193.470753 
L 136.829146 189.349312 
L 134.031807 185.341863 
L 131.068563 181.455485 
L 127.944646 177.697042 
L 124.665575 174.073171 
L 121.237141 170.590272 
L 117.665397 167.254497 
L 113.956653 164.071736 
L 110.117458 161.047611 
L 106.154593 158.187462 
L 102.075057 155.496342 
L 97.886053 152.979002 
L 93.594982 150.639889 
L 89.20942 148.483133 
L 84.737113 146.512544 
L 80.18596 144.731601 
L 75.563998 143.143451 
L 70.879391 141.750898 
L 66.140412 140.556401 
L 61.35543 139.562071 
L 56.532895 138.769662 
L 51.681326 138.180575 
L 46.80929 137.795849 
L 41.925392 137.616166 
L 37.038256 137.64184 
L 32.156516 137.872828 
L 27.288791 138.308722 
L 22.443679 138.948751 
L 17.629736 139.791786 
L 12.855465 140.836336 
L 8.129298 142.080559 
L 3.45958 143.522255 
L -1 145.105463 
M 148.879363 294.987368 
L 149.874074 292.262692 
L 151.389186 287.616275 
L 152.707737 282.910303 
L 153.8274 278.153087 
L 154.746197 273.353029 
L 155.462505 268.518605 
L 155.975059 263.658355 
L 156.282954 258.78086 
L 156.385646 253.894737 
L 156.385646 253.894737 
" clip-path="url(#pfe820945d1)" style="fill: none; stroke: #ff7f0e; stroke-opacity: 0.9; stroke-width: 1.6; stroke-linecap: square"/>
   </g>
   <g id="line2d_3">
    <path d="M 196.332632 253.894737 
L 196.194664 247.330216 
L 195.781007 240.777288 
L 195.092389 234.247527 
L 194.130027 227.752465 
L 192.895621 221.303573 
L 191.391351 214.912239 
L 189.619873 208.589753 
L 187.584317 202.347279 
L 185.288276 196.195842 
L 182.735807 190.146308 
L 179.931416 184.209359 
L 176.880057 178.39548 
L 173.587119 172.71494 
L 170.058418 167.177772 
L 166.300185 161.793753 
L 162.319057 156.572394 
L 158.122067 151.522914 
L 153.716625 146.654233 
L 149.110513 141.974948 
L 144.311866 137.493324 
L 139.329157 133.217276 
L 134.171188 129.154355 
L 128.847068 125.311738 
L 123.366198 121.696209 
L 117.73826 118.314156 
L 111.973193 115.17155 
L 106.081178 112.273943 
L 100.072621 109.62645 
L 93.958134 107.233749 
L 87.748515 105.100065 
L 81.454732 103.229166 
L 75.087899 101.624356 
L 68.659262 100.28847 
L 62.180173 99.223867 
L 55.662076 98.432426 
L 49.116481 97.915547 
L 42.55495 97.674141 
L 35.98907 97.708635 
L 29.430437 98.018968 
L 22.890634 98.604593 
L 16.381212 99.464474 
L 9.913667 100.597093 
L 3.49942 102.00045 
L -1 103.164132 
M 190.823962 294.987368 
L 192.177064 289.68947 
L 193.546705 283.26794 
L 194.645331 276.794533 
L 195.471003 270.280684 
L 196.022263 263.737895 
L 196.298136 257.177722 
L 196.332632 253.894737 
L 196.332632 253.894737 
" clip-path="url(#pfe820945d1)" style="fill: none; stroke: #7f7f7f; stroke-opacity: 0.8; stroke-linecap: square"/>
   </g>
   <g id="line2d_4">
    <path d="M 245.671579 253.894737 
L 245.490043 245.257209 
L 244.945757 236.634936 
L 244.039681 228.043145 
L 242.773415 219.497011 
L 241.149197 211.011626 
L 239.169894 202.601977 
L 236.839002 194.282916 
L 234.160638 186.069134 
L 231.139532 177.975139 
L 227.78102 170.015225 
L 224.091032 162.20345 
L 220.076087 154.55361 
L 215.743273 147.079215 
L 211.100245 139.793467 
L 206.155201 132.709232 
L 200.916876 125.839022 
L 195.39452 119.19497 
L 189.597886 112.788811 
L 183.537213 106.631857 
L 177.223203 100.734984 
L 170.667008 95.108604 
L 163.880206 89.762656 
L 156.874784 84.70658 
L 149.663114 79.949306 
L 142.257933 75.499236 
L 134.672318 71.364228 
L 126.919666 67.551587 
L 119.01367 64.068044 
L 110.968293 60.919753 
L 102.797742 58.112274 
L 94.516448 55.650565 
L 86.139037 53.538973 
L 77.680303 51.781228 
L 69.155186 50.380434 
L 60.578742 49.339065 
L 51.966118 48.65896 
L 43.332524 48.341321 
L 34.693208 48.386708 
L 26.063428 48.795041 
L 17.458425 49.5656 
L 8.893396 50.697022 
L 0.383467 52.18731 
L -1 52.474798 
M 241.511461 294.987368 
L 242.773415 288.292463 
L 244.039681 279.746328 
L 244.945757 271.154538 
L 245.490043 262.532265 
L 245.671579 253.894737 
L 245.671579 253.894737 
" clip-path="url(#pfe820945d1)" style="fill: none; stroke: #7f7f7f; stroke-opacity: 0.8; stroke-linecap: square"/>
   </g>
   <g id="patch_3">
    <path d="M 7.2 286.787368 
L 7.2 7.2 
" style="fill: none; stroke: #000000; stroke-width: 0.8; stroke-linejoin: miter; stroke-linecap: square"/>
   </g>
   <g id="patch_4">
    <path d="M 7.2 286.787368 
L 319.68 286.787368 
" style="fill: none; stroke: #000000; stroke-width: 0.8; stroke-linejoin: miter; stroke-linecap: square"/>
   </g>
   <g id="line2d_5">
    <path d="M 68.051368 12.037152 
L 69.56949 24.493336 
L 71.846672 40.944433 
L 74.123854 55.193896 
L 76.401036 67.655969 
L 78.678219 78.64711 
L 80.955401 88.413231 
L 83.232583 97.148325 
L 85.509765 105.007477 
L 87.786947 112.116152 
L 90.06413 118.576949 
L 92.341312 124.474576 
L 94.618494 129.879595 
L 97.654737 136.421053 
L 100.69098 142.306999 
L 103.727223 147.631265 
L 106.763466 152.470588 
L 109.799709 156.888337 
L 112.835951 160.9373 
L 115.872194 164.661805 
L 119.667498 168.917747 
L 123.462802 172.786199 
L 127.258105 176.317776 
L 131.053409 179.554645 
L 134.848713 182.532218 
L 139.403077 185.804894 
L 143.957441 188.790563 
L 148.511806 191.525395 
L 153.825231 194.439201 
L 159.138656 197.092902 
L 165.211142 199.849715 
L 171.283628 202.351317 
L 178.115174 204.902504 
L 184.946721 207.213054 
L 192.537328 209.537454 
L 200.886996 211.840822 
L 209.236664 213.916781 
L 218.345393 215.959658 
L 228.213182 217.949527 
L 238.840032 219.871486 
L 250.985004 221.830834 
L 263.889036 223.679629 
L 278.31119 225.508902 
L 293.492405 227.209502 
L 295.010526 227.368421 
L 295.010526 227.368421 
" clip-path="url(#pfe820945d1)" style="fill: none; stroke: #1f77b4; stroke-width: 2.4; stroke-linecap: square"/>
   </g>
   <g id="text_1">
    <!-- $g(x,y)=c$ -->
    <g style="fill: #1f77b4" transform="translate(91.076211 44.204211) scale(0.11 -0.11)">
     <defs>
      <path id="Cmmi10-67" d="M 91 -916 
Q 91 -759 198 -642 
Q 306 -525 459 -525 
Q 563 -525 633 -589 
Q 703 -653 703 -756 
Q 703 -872 637 -964 
Q 572 -1056 469 -1094 
Q 641 -1147 1006 -1147 
Q 1300 -1147 1544 -920 
Q 1788 -694 1863 -397 
L 2047 353 
Q 1700 0 1325 0 
Q 1050 0 854 140 
Q 659 281 556 515 
Q 453 750 453 1013 
Q 453 1306 573 1628 
Q 694 1950 911 2225 
Q 1128 2500 1409 2664 
Q 1691 2828 2003 2828 
Q 2191 2828 2341 2725 
Q 2491 2622 2578 2450 
Q 2641 2700 2853 2700 
Q 2934 2700 2990 2651 
Q 3047 2603 3047 2522 
Q 3047 2503 3045 2493 
Q 3044 2484 3041 2472 
L 2309 -434 
Q 2259 -634 2125 -800 
Q 1991 -966 1809 -1077 
Q 1628 -1188 1412 -1250 
Q 1197 -1313 997 -1313 
Q 631 -1313 361 -1242 
Q 91 -1172 91 -916 
z
M 1338 166 
Q 1747 166 2144 728 
L 2497 2125 
Q 2453 2347 2322 2505 
Q 2191 2663 1991 2663 
Q 1778 2663 1589 2489 
Q 1400 2316 1275 2075 
Q 1156 1844 1045 1411 
Q 934 978 934 728 
Q 934 509 1034 337 
Q 1134 166 1338 166 
z
" transform="scale(0.015625)"/>
      <path id="Cmr10-28" d="M 1984 -1588 
Q 1628 -1306 1370 -942 
Q 1113 -578 948 -165 
Q 784 247 703 697 
Q 622 1147 622 1600 
Q 622 2059 703 2509 
Q 784 2959 951 3375 
Q 1119 3791 1378 4153 
Q 1638 4516 1984 4788 
Q 1984 4800 2016 4800 
L 2075 4800 
Q 2094 4800 2109 4783 
Q 2125 4766 2125 4744 
Q 2125 4716 2113 4703 
Q 1800 4397 1592 4047 
Q 1384 3697 1257 3301 
Q 1131 2906 1075 2482 
Q 1019 2059 1019 1600 
Q 1019 -434 2106 -1491 
Q 2125 -1509 2125 -1544 
Q 2125 -1559 2108 -1579 
Q 2091 -1600 2075 -1600 
L 2016 -1600 
Q 1984 -1600 1984 -1588 
z
" transform="scale(0.015625)"/>
      <path id="Cmmi10-78" d="M 500 184 
Q 613 97 819 97 
Q 1019 97 1172 289 
Q 1325 481 1381 709 
L 1672 1844 
Q 1741 2153 1741 2266 
Q 1741 2425 1652 2544 
Q 1563 2663 1403 2663 
Q 1200 2663 1022 2536 
Q 844 2409 722 2214 
Q 600 2019 550 1819 
Q 538 1778 500 1778 
L 422 1778 
Q 372 1778 372 1838 
L 372 1856 
Q 434 2094 584 2320 
Q 734 2547 951 2687 
Q 1169 2828 1416 2828 
Q 1650 2828 1839 2703 
Q 2028 2578 2106 2363 
Q 2216 2559 2386 2693 
Q 2556 2828 2759 2828 
Q 2897 2828 3040 2779 
Q 3184 2731 3275 2631 
Q 3366 2531 3366 2381 
Q 3366 2219 3261 2101 
Q 3156 1984 2994 1984 
Q 2891 1984 2822 2050 
Q 2753 2116 2753 2216 
Q 2753 2350 2845 2451 
Q 2938 2553 3066 2572 
Q 2950 2663 2747 2663 
Q 2541 2663 2389 2472 
Q 2238 2281 2175 2047 
L 1894 916 
Q 1825 659 1825 494 
Q 1825 331 1917 214 
Q 2009 97 2163 97 
Q 2463 97 2698 361 
Q 2934 625 3009 941 
Q 3022 978 3059 978 
L 3138 978 
Q 3163 978 3178 961 
Q 3194 944 3194 922 
Q 3194 916 3188 903 
Q 3097 522 2806 225 
Q 2516 -72 2150 -72 
Q 1916 -72 1727 54 
Q 1538 181 1459 397 
Q 1359 209 1182 68 
Q 1006 -72 806 -72 
Q 669 -72 523 -23 
Q 378 25 287 125 
Q 197 225 197 378 
Q 197 528 301 651 
Q 406 775 563 775 
Q 669 775 741 711 
Q 813 647 813 544 
Q 813 409 723 309 
Q 634 209 500 184 
z
" transform="scale(0.015625)"/>
      <path id="Cmmi10-3b" d="M 634 -1153 
Q 634 -1125 659 -1100 
Q 891 -878 1019 -587 
Q 1147 -297 1147 25 
L 1147 103 
Q 1044 0 891 0 
Q 744 0 641 103 
Q 538 206 538 353 
Q 538 503 641 603 
Q 744 703 891 703 
Q 1119 703 1216 492 
Q 1313 281 1313 25 
Q 1313 -331 1170 -651 
Q 1028 -972 769 -1228 
Q 744 -1241 728 -1241 
Q 697 -1241 665 -1212 
Q 634 -1184 634 -1153 
z
" transform="scale(0.015625)"/>
      <path id="Cmmi10-79" d="M 538 -916 
Q 672 -1147 1006 -1147 
Q 1309 -1147 1531 -934 
Q 1753 -722 1889 -420 
Q 2025 -119 2100 197 
Q 1816 -72 1484 -72 
Q 1231 -72 1053 15 
Q 875 103 776 276 
Q 678 450 678 697 
Q 678 906 734 1126 
Q 791 1347 892 1617 
Q 994 1888 1069 2088 
Q 1153 2322 1153 2472 
Q 1153 2663 1013 2663 
Q 759 2663 595 2402 
Q 431 2141 353 1819 
Q 341 1778 300 1778 
L 225 1778 
Q 172 1778 172 1838 
L 172 1856 
Q 275 2238 487 2533 
Q 700 2828 1025 2828 
Q 1253 2828 1411 2678 
Q 1569 2528 1569 2297 
Q 1569 2178 1516 2047 
Q 1488 1969 1388 1706 
Q 1288 1444 1234 1272 
Q 1181 1100 1147 934 
Q 1113 769 1113 603 
Q 1113 391 1203 244 
Q 1294 97 1491 97 
Q 1888 97 2203 581 
L 2688 2553 
Q 2709 2638 2787 2698 
Q 2866 2759 2956 2759 
Q 3034 2759 3092 2709 
Q 3150 2659 3150 2578 
Q 3150 2541 3144 2528 
L 2509 -19 
Q 2425 -347 2200 -647 
Q 1975 -947 1658 -1130 
Q 1341 -1313 997 -1313 
Q 831 -1313 668 -1248 
Q 506 -1184 406 -1056 
Q 306 -928 306 -756 
Q 306 -581 409 -453 
Q 513 -325 684 -325 
Q 788 -325 858 -389 
Q 928 -453 928 -556 
Q 928 -703 818 -812 
Q 709 -922 563 -922 
Q 556 -919 550 -917 
Q 544 -916 538 -916 
z
" transform="scale(0.015625)"/>
      <path id="Cmr10-29" d="M 416 -1600 
Q 359 -1600 359 -1544 
Q 359 -1516 372 -1503 
Q 1466 -434 1466 1600 
Q 1466 3634 384 4691 
Q 359 4706 359 4744 
Q 359 4766 376 4783 
Q 394 4800 416 4800 
L 475 4800 
Q 494 4800 506 4788 
Q 966 4425 1272 3906 
Q 1578 3388 1720 2800 
Q 1863 2213 1863 1600 
Q 1863 1147 1786 708 
Q 1709 269 1542 -157 
Q 1375 -584 1119 -945 
Q 863 -1306 506 -1588 
Q 494 -1600 475 -1600 
L 416 -1600 
z
" transform="scale(0.015625)"/>
      <path id="Cmr10-3d" d="M 481 850 
Q 428 850 393 890 
Q 359 931 359 978 
Q 359 1031 393 1068 
Q 428 1106 481 1106 
L 4500 1106 
Q 4547 1106 4581 1068 
Q 4616 1031 4616 978 
Q 4616 931 4581 890 
Q 4547 850 4500 850 
L 481 850 
z
M 481 2094 
Q 428 2094 393 2131 
Q 359 2169 359 2222 
Q 359 2269 393 2309 
Q 428 2350 481 2350 
L 4500 2350 
Q 4547 2350 4581 2309 
Q 4616 2269 4616 2222 
Q 4616 2169 4581 2131 
Q 4547 2094 4500 2094 
L 481 2094 
z
" transform="scale(0.015625)"/>
      <path id="Cmmi10-63" d="M 750 763 
Q 750 484 892 290 
Q 1034 97 1300 97 
Q 1681 97 2032 272 
Q 2384 447 2606 756 
Q 2625 775 2656 775 
Q 2688 775 2720 739 
Q 2753 703 2753 672 
Q 2753 647 2741 634 
Q 2506 306 2109 117 
Q 1713 -72 1288 -72 
Q 981 -72 747 73 
Q 513 219 384 462 
Q 256 706 256 1013 
Q 256 1444 497 1869 
Q 738 2294 1138 2561 
Q 1538 2828 1978 2828 
Q 2266 2828 2495 2689 
Q 2725 2550 2725 2278 
Q 2725 2103 2623 1979 
Q 2522 1856 2350 1856 
Q 2247 1856 2176 1920 
Q 2106 1984 2106 2088 
Q 2106 2238 2215 2344 
Q 2325 2450 2472 2450 
L 2484 2450 
Q 2409 2559 2267 2611 
Q 2125 2663 1972 2663 
Q 1597 2663 1315 2342 
Q 1034 2022 892 1576 
Q 750 1131 750 763 
z
" transform="scale(0.015625)"/>
     </defs>
     <use xlink:href="#Cmmi10-67"/>
     <use xlink:href="#Cmr10-28" transform="translate(47.705078 0)"/>
     <use xlink:href="#Cmmi10-78" transform="translate(86.523438 0)"/>
     <use xlink:href="#Cmmi10-3b" transform="translate(143.603516 0)"/>
     <use xlink:href="#Cmmi10-79" transform="translate(188.847656 0)"/>
     <use xlink:href="#Cmr10-29" transform="translate(237.871094 0)"/>
     <use xlink:href="#Cmr10-3d" transform="translate(294.248047 0)"/>
     <use xlink:href="#Cmmi10-63" transform="translate(389.492188 0)"/>
    </g>
   </g>
   <g id="patch_5">
    <path d="M 122.324211 171.663158 
Q 149.943801 144.043567 175.82414 118.163229 
" style="fill: none; stroke: #ff7f0e; stroke-width: 2.2; stroke-linecap: round"/>
    <path d="M 170.308707 120.001706 
L 175.82414 118.163229 
L 173.985662 123.678662 
" style="fill: none; stroke: #ff7f0e; stroke-width: 2.2; stroke-linecap: round"/>
   </g>
   <g id="patch_6">
    <path d="M 122.324211 171.663158 
Q 138.3145 155.672868 152.565537 141.421832 
" style="fill: none; stroke: #2ca02c; stroke-width: 2.2; stroke-linecap: round"/>
    <path d="M 147.898632 142.977467 
L 152.565537 141.421832 
L 151.009902 146.088736 
" style="fill: none; stroke: #2ca02c; stroke-width: 2.2; stroke-linecap: round"/>
   </g>
   <g id="text_2">
    <!-- $\nabla f\parallel\nabla g$ -->
    <g style="fill: #ff7f0e" transform="translate(193.043368 120.679579) scale(0.11 -0.11)">
     <defs>
      <path id="Cmsy10-72" d="M 2503 -141 
L 300 4300 
Q 300 4306 298 4311 
Q 297 4316 294 4319 
Q 294 4372 347 4372 
L 4978 4372 
Q 5031 4372 5031 4319 
Q 5031 4313 5029 4309 
Q 5028 4306 5025 4300 
L 2822 -141 
Q 2791 -213 2706 -213 
L 2619 -213 
Q 2534 -213 2503 -141 
z
M 2847 416 
L 4569 3891 
L 1125 3891 
L 2847 416 
z
" transform="scale(0.015625)"/>
      <path id="Cmmi10-66" d="M 622 -1056 
Q 741 -1147 909 -1147 
Q 1138 -1147 1281 -641 
Q 1341 -397 1606 966 
L 1900 2534 
L 1350 2534 
Q 1288 2534 1288 2619 
Q 1313 2759 1369 2759 
L 1941 2759 
L 2016 3175 
Q 2053 3369 2084 3508 
Q 2116 3647 2152 3765 
Q 2188 3884 2259 4031 
Q 2369 4241 2555 4377 
Q 2741 4513 2956 4513 
Q 3097 4513 3230 4461 
Q 3363 4409 3447 4306 
Q 3531 4203 3531 4063 
Q 3531 3900 3423 3779 
Q 3316 3659 3163 3659 
Q 3059 3659 2986 3723 
Q 2913 3788 2913 3891 
Q 2913 4031 3008 4136 
Q 3103 4241 3244 4256 
Q 3125 4347 2950 4347 
Q 2853 4347 2767 4256 
Q 2681 4166 2656 4063 
Q 2616 3900 2478 3181 
L 2400 2759 
L 3059 2759 
Q 3122 2759 3122 2675 
Q 3119 2659 3109 2620 
Q 3100 2581 3083 2557 
Q 3066 2534 3041 2534 
L 2356 2534 
L 2059 972 
Q 2003 631 1929 279 
Q 1856 -72 1723 -442 
Q 1591 -813 1384 -1063 
Q 1178 -1313 897 -1313 
Q 681 -1313 511 -1189 
Q 341 -1066 341 -863 
Q 341 -700 445 -579 
Q 550 -459 709 -459 
Q 816 -459 887 -523 
Q 959 -588 959 -691 
Q 959 -828 857 -942 
Q 756 -1056 622 -1056 
z
" transform="scale(0.015625)"/>
      <path id="STIXGeneral-Regular-2225" d="M 2522 -1210 
L 2099 -1210 
L 2099 4416 
L 2522 4416 
L 2522 -1210 
z
M 1248 -1210 
L 826 -1210 
L 826 4416 
L 1248 4416 
L 1248 -1210 
z
" transform="scale(0.015625)"/>
     </defs>
     <use xlink:href="#Cmsy10-72" transform="translate(0 0.484375)"/>
     <use xlink:href="#Cmmi10-66" transform="translate(83.300781 0.484375)"/>
     <use xlink:href="#STIXGeneral-Regular-2225" transform="translate(149.736328 0.484375)"/>
     <use xlink:href="#Cmsy10-72" transform="translate(219.59491 0.484375)"/>
     <use xlink:href="#Cmmi10-67" transform="translate(302.895691 0.484375)"/>
    </g>
   </g>
   <g id="text_3">
    <!-- optimum -->
    <g transform="translate(41.593398 221.137229) scale(0.11 -0.11)">
     <defs>
      <path id="DejaVuSans-6f" d="M 1959 3097 
Q 1497 3097 1228 2736 
Q 959 2375 959 1747 
Q 959 1119 1226 758 
Q 1494 397 1959 397 
Q 2419 397 2687 759 
Q 2956 1122 2956 1747 
Q 2956 2369 2687 2733 
Q 2419 3097 1959 3097 
z
M 1959 3584 
Q 2709 3584 3137 3096 
Q 3566 2609 3566 1747 
Q 3566 888 3137 398 
Q 2709 -91 1959 -91 
Q 1206 -91 779 398 
Q 353 888 353 1747 
Q 353 2609 779 3096 
Q 1206 3584 1959 3584 
z
" transform="scale(0.015625)"/>
      <path id="DejaVuSans-70" d="M 1159 525 
L 1159 -1331 
L 581 -1331 
L 581 3500 
L 1159 3500 
L 1159 2969 
Q 1341 3281 1617 3432 
Q 1894 3584 2278 3584 
Q 2916 3584 3314 3078 
Q 3713 2572 3713 1747 
Q 3713 922 3314 415 
Q 2916 -91 2278 -91 
Q 1894 -91 1617 61 
Q 1341 213 1159 525 
z
M 3116 1747 
Q 3116 2381 2855 2742 
Q 2594 3103 2138 3103 
Q 1681 3103 1420 2742 
Q 1159 2381 1159 1747 
Q 1159 1113 1420 752 
Q 1681 391 2138 391 
Q 2594 391 2855 752 
Q 3116 1113 3116 1747 
z
" transform="scale(0.015625)"/>
      <path id="DejaVuSans-74" d="M 1172 4494 
L 1172 3500 
L 2356 3500 
L 2356 3053 
L 1172 3053 
L 1172 1153 
Q 1172 725 1289 603 
Q 1406 481 1766 481 
L 2356 481 
L 2356 0 
L 1766 0 
Q 1100 0 847 248 
Q 594 497 594 1153 
L 594 3053 
L 172 3053 
L 172 3500 
L 594 3500 
L 594 4494 
L 1172 4494 
z
" transform="scale(0.015625)"/>
      <path id="DejaVuSans-69" d="M 603 3500 
L 1178 3500 
L 1178 0 
L 603 0 
L 603 3500 
z
M 603 4863 
L 1178 4863 
L 1178 4134 
L 603 4134 
L 603 4863 
z
" transform="scale(0.015625)"/>
      <path id="DejaVuSans-6d" d="M 3328 2828 
Q 3544 3216 3844 3400 
Q 4144 3584 4550 3584 
Q 5097 3584 5394 3201 
Q 5691 2819 5691 2113 
L 5691 0 
L 5113 0 
L 5113 2094 
Q 5113 2597 4934 2840 
Q 4756 3084 4391 3084 
Q 3944 3084 3684 2787 
Q 3425 2491 3425 1978 
L 3425 0 
L 2847 0 
L 2847 2094 
Q 2847 2600 2669 2842 
Q 2491 3084 2119 3084 
Q 1678 3084 1418 2786 
Q 1159 2488 1159 1978 
L 1159 0 
L 581 0 
L 581 3500 
L 1159 3500 
L 1159 2956 
Q 1356 3278 1631 3431 
Q 1906 3584 2284 3584 
Q 2666 3584 2933 3390 
Q 3200 3197 3328 2828 
z
" transform="scale(0.015625)"/>
      <path id="DejaVuSans-75" d="M 544 1381 
L 544 3500 
L 1119 3500 
L 1119 1403 
Q 1119 906 1312 657 
Q 1506 409 1894 409 
Q 2359 409 2629 706 
Q 2900 1003 2900 1516 
L 2900 3500 
L 3475 3500 
L 3475 0 
L 2900 0 
L 2900 538 
Q 2691 219 2414 64 
Q 2138 -91 1772 -91 
Q 1169 -91 856 284 
Q 544 659 544 1381 
z
M 1991 3584 
L 1991 3584 
z
" transform="scale(0.015625)"/>
     </defs>
     <use xlink:href="#DejaVuSans-6f"/>
     <use xlink:href="#DejaVuSans-70" transform="translate(61.181641 0)"/>
     <use xlink:href="#DejaVuSans-74" transform="translate(124.658203 0)"/>
     <use xlink:href="#DejaVuSans-69" transform="translate(163.867188 0)"/>
     <use xlink:href="#DejaVuSans-6d" transform="translate(191.650391 0)"/>
     <use xlink:href="#DejaVuSans-75" transform="translate(289.0625 0)"/>
     <use xlink:href="#DejaVuSans-6d" transform="translate(352.441406 0)"/>
    </g>
   </g>
   <g id="patch_7">
    <path d="M 221.002105 216.516746 
Q 245.966616 211.35879 268.741311 206.653274 
" style="fill: none; stroke: #ff7f0e; stroke-width: 2; stroke-linecap: round"/>
    <path d="M 263.554984 205.274139 
L 268.741311 206.653274 
L 264.526206 209.974854 
" style="fill: none; stroke: #ff7f0e; stroke-width: 2; stroke-linecap: round"/>
   </g>
   <g id="text_4">
    <!-- $\nabla f$ -->
    <g style="fill: #ff7f0e" transform="translate(272.171785 195.919796) scale(0.105 -0.105)">
     <use xlink:href="#Cmsy10-72" transform="translate(0 0.484375)"/>
     <use xlink:href="#Cmmi10-66" transform="translate(83.300781 0.484375)"/>
    </g>
   </g>
   <g id="patch_8">
    <path d="M 221.002105 216.516746 
Q 226.160062 191.552235 230.865577 168.777541 
" style="fill: none; stroke: #2ca02c; stroke-width: 2; stroke-linecap: round"/>
    <path d="M 227.543997 172.992645 
L 230.865577 168.777541 
L 232.244713 173.963868 
" style="fill: none; stroke: #2ca02c; stroke-width: 2; stroke-linecap: round"/>
   </g>
   <g id="text_5">
    <!-- $\nabla g$ -->
    <g style="fill: #2ca02c" transform="translate(237.545072 180.976161) scale(0.105 -0.105)">
     <use xlink:href="#Cmsy10-72" transform="translate(0 0.6875)"/>
     <use xlink:href="#Cmmi10-67" transform="translate(83.300781 0.6875)"/>
    </g>
   </g>
   <g id="text_6">
    <!-- not optimal: -->
    <g style="fill: #7f7f7f" transform="translate(187.59734 254.02986) scale(0.11 -0.11)">
     <defs>
      <path id="DejaVuSans-6e" d="M 3513 2113 
L 3513 0 
L 2938 0 
L 2938 2094 
Q 2938 2591 2744 2837 
Q 2550 3084 2163 3084 
Q 1697 3084 1428 2787 
Q 1159 2491 1159 1978 
L 1159 0 
L 581 0 
L 581 3500 
L 1159 3500 
L 1159 2956 
Q 1366 3272 1645 3428 
Q 1925 3584 2291 3584 
Q 2894 3584 3203 3211 
Q 3513 2838 3513 2113 
z
" transform="scale(0.015625)"/>
      <path id="DejaVuSans-20" transform="scale(0.015625)"/>
      <path id="DejaVuSans-61" d="M 2194 1759 
Q 1497 1759 1228 1600 
Q 959 1441 959 1056 
Q 959 750 1161 570 
Q 1363 391 1709 391 
Q 2188 391 2477 730 
Q 2766 1069 2766 1631 
L 2766 1759 
L 2194 1759 
z
M 3341 1997 
L 3341 0 
L 2766 0 
L 2766 531 
Q 2569 213 2275 61 
Q 1981 -91 1556 -91 
Q 1019 -91 701 211 
Q 384 513 384 1019 
Q 384 1609 779 1909 
Q 1175 2209 1959 2209 
L 2766 2209 
L 2766 2266 
Q 2766 2663 2505 2880 
Q 2244 3097 1772 3097 
Q 1472 3097 1187 3025 
Q 903 2953 641 2809 
L 641 3341 
Q 956 3463 1253 3523 
Q 1550 3584 1831 3584 
Q 2591 3584 2966 3190 
Q 3341 2797 3341 1997 
z
" transform="scale(0.015625)"/>
      <path id="DejaVuSans-6c" d="M 603 4863 
L 1178 4863 
L 1178 0 
L 603 0 
L 603 4863 
z
" transform="scale(0.015625)"/>
      <path id="DejaVuSans-3a" d="M 750 794 
L 1409 794 
L 1409 0 
L 750 0 
L 750 794 
z
M 750 3309 
L 1409 3309 
L 1409 2516 
L 750 2516 
L 750 3309 
z
" transform="scale(0.015625)"/>
     </defs>
     <use xlink:href="#DejaVuSans-6e"/>
     <use xlink:href="#DejaVuSans-6f" transform="translate(63.378906 0)"/>
     <use xlink:href="#DejaVuSans-74" transform="translate(124.560547 0)"/>
     <use xlink:href="#DejaVuSans-20" transform="translate(163.769531 0)"/>
     <use xlink:href="#DejaVuSans-6f" transform="translate(195.556641 0)"/>
     <use xlink:href="#DejaVuSans-70" transform="translate(256.738281 0)"/>
     <use xlink:href="#DejaVuSans-74" transform="translate(320.214844 0)"/>
     <use xlink:href="#DejaVuSans-69" transform="translate(359.423828 0)"/>
     <use xlink:href="#DejaVuSans-6d" transform="translate(387.207031 0)"/>
     <use xlink:href="#DejaVuSans-61" transform="translate(484.619141 0)"/>
     <use xlink:href="#DejaVuSans-6c" transform="translate(545.898438 0)"/>
     <use xlink:href="#DejaVuSans-3a" transform="translate(573.681641 0)"/>
    </g>
    <!-- gradients disagree -->
    <g style="fill: #7f7f7f" transform="translate(169.567652 266.347454) scale(0.11 -0.11)">
     <defs>
      <path id="DejaVuSans-67" d="M 2906 1791 
Q 2906 2416 2648 2759 
Q 2391 3103 1925 3103 
Q 1463 3103 1205 2759 
Q 947 2416 947 1791 
Q 947 1169 1205 825 
Q 1463 481 1925 481 
Q 2391 481 2648 825 
Q 2906 1169 2906 1791 
z
M 3481 434 
Q 3481 -459 3084 -895 
Q 2688 -1331 1869 -1331 
Q 1566 -1331 1297 -1286 
Q 1028 -1241 775 -1147 
L 775 -588 
Q 1028 -725 1275 -790 
Q 1522 -856 1778 -856 
Q 2344 -856 2625 -561 
Q 2906 -266 2906 331 
L 2906 616 
Q 2728 306 2450 153 
Q 2172 0 1784 0 
Q 1141 0 747 490 
Q 353 981 353 1791 
Q 353 2603 747 3093 
Q 1141 3584 1784 3584 
Q 2172 3584 2450 3431 
Q 2728 3278 2906 2969 
L 2906 3500 
L 3481 3500 
L 3481 434 
z
" transform="scale(0.015625)"/>
      <path id="DejaVuSans-72" d="M 2631 2963 
Q 2534 3019 2420 3045 
Q 2306 3072 2169 3072 
Q 1681 3072 1420 2755 
Q 1159 2438 1159 1844 
L 1159 0 
L 581 0 
L 581 3500 
L 1159 3500 
L 1159 2956 
Q 1341 3275 1631 3429 
Q 1922 3584 2338 3584 
Q 2397 3584 2469 3576 
Q 2541 3569 2628 3553 
L 2631 2963 
z
" transform="scale(0.015625)"/>
      <path id="DejaVuSans-64" d="M 2906 2969 
L 2906 4863 
L 3481 4863 
L 3481 0 
L 2906 0 
L 2906 525 
Q 2725 213 2448 61 
Q 2172 -91 1784 -91 
Q 1150 -91 751 415 
Q 353 922 353 1747 
Q 353 2572 751 3078 
Q 1150 3584 1784 3584 
Q 2172 3584 2448 3432 
Q 2725 3281 2906 2969 
z
M 947 1747 
Q 947 1113 1208 752 
Q 1469 391 1925 391 
Q 2381 391 2643 752 
Q 2906 1113 2906 1747 
Q 2906 2381 2643 2742 
Q 2381 3103 1925 3103 
Q 1469 3103 1208 2742 
Q 947 2381 947 1747 
z
" transform="scale(0.015625)"/>
      <path id="DejaVuSans-65" d="M 3597 1894 
L 3597 1613 
L 953 1613 
Q 991 1019 1311 708 
Q 1631 397 2203 397 
Q 2534 397 2845 478 
Q 3156 559 3463 722 
L 3463 178 
Q 3153 47 2828 -22 
Q 2503 -91 2169 -91 
Q 1331 -91 842 396 
Q 353 884 353 1716 
Q 353 2575 817 3079 
Q 1281 3584 2069 3584 
Q 2775 3584 3186 3129 
Q 3597 2675 3597 1894 
z
M 3022 2063 
Q 3016 2534 2758 2815 
Q 2500 3097 2075 3097 
Q 1594 3097 1305 2825 
Q 1016 2553 972 2059 
L 3022 2063 
z
" transform="scale(0.015625)"/>
      <path id="DejaVuSans-73" d="M 2834 3397 
L 2834 2853 
Q 2591 2978 2328 3040 
Q 2066 3103 1784 3103 
Q 1356 3103 1142 2972 
Q 928 2841 928 2578 
Q 928 2378 1081 2264 
Q 1234 2150 1697 2047 
L 1894 2003 
Q 2506 1872 2764 1633 
Q 3022 1394 3022 966 
Q 3022 478 2636 193 
Q 2250 -91 1575 -91 
Q 1294 -91 989 -36 
Q 684 19 347 128 
L 347 722 
Q 666 556 975 473 
Q 1284 391 1588 391 
Q 1994 391 2212 530 
Q 2431 669 2431 922 
Q 2431 1156 2273 1281 
Q 2116 1406 1581 1522 
L 1381 1569 
Q 847 1681 609 1914 
Q 372 2147 372 2553 
Q 372 3047 722 3315 
Q 1072 3584 1716 3584 
Q 2034 3584 2315 3537 
Q 2597 3491 2834 3397 
z
" transform="scale(0.015625)"/>
     </defs>
     <use xlink:href="#DejaVuSans-67"/>
     <use xlink:href="#DejaVuSans-72" transform="translate(63.476562 0)"/>
     <use xlink:href="#DejaVuSans-61" transform="translate(104.589844 0)"/>
     <use xlink:href="#DejaVuSans-64" transform="translate(165.869141 0)"/>
     <use xlink:href="#DejaVuSans-69" transform="translate(229.345703 0)"/>
     <use xlink:href="#DejaVuSans-65" transform="translate(257.128906 0)"/>
     <use xlink:href="#DejaVuSans-6e" transform="translate(318.652344 0)"/>
     <use xlink:href="#DejaVuSans-74" transform="translate(382.03125 0)"/>
     <use xlink:href="#DejaVuSans-73" transform="translate(421.240234 0)"/>
     <use xlink:href="#DejaVuSans-20" transform="translate(473.339844 0)"/>
     <use xlink:href="#DejaVuSans-64" transform="translate(505.126953 0)"/>
     <use xlink:href="#DejaVuSans-69" transform="translate(568.603516 0)"/>
     <use xlink:href="#DejaVuSans-73" transform="translate(596.386719 0)"/>
     <use xlink:href="#DejaVuSans-61" transform="translate(648.486328 0)"/>
     <use xlink:href="#DejaVuSans-67" transform="translate(709.765625 0)"/>
     <use xlink:href="#DejaVuSans-72" transform="translate(773.242188 0)"/>
     <use xlink:href="#DejaVuSans-65" transform="translate(812.105469 0)"/>
     <use xlink:href="#DejaVuSans-65" transform="translate(873.628906 0)"/>
    </g>
   </g>
   <g id="line2d_6">
    <defs>
     <path id="m419cd5582a" d="M 0 2.5 
C 0.663008 2.5 1.29895 2.236584 1.767767 1.767767 
C 2.236584 1.29895 2.5 0.663008 2.5 0 
C 2.5 -0.663008 2.236584 -1.29895 1.767767 -1.767767 
C 1.29895 -2.236584 0.663008 -2.5 0 -2.5 
C -0.663008 -2.5 -1.29895 -2.236584 -1.767767 -1.767767 
C -2.236584 -1.29895 -2.5 -0.663008 -2.5 0 
C -2.5 0.663008 -2.236584 1.29895 -1.767767 1.767767 
C -1.29895 2.236584 -0.663008 2.5 0 2.5 
z
" style="stroke: #000000"/>
    </defs>
    <g clip-path="url(#pfe820945d1)">
     <use xlink:href="#m419cd5582a" x="122.324211" y="171.663158" style="stroke: #000000"/>
    </g>
   </g>
   <g id="line2d_7">
    <g clip-path="url(#pfe820945d1)">
     <use xlink:href="#m419cd5582a" x="221.002105" y="216.516746" style="stroke: #000000"/>
    </g>
   </g>
  </g>
 </g>
 <defs>
  <clipPath id="pfe820945d1">
   <rect x="7.2" y="7.2" width="312.48" height="279.587368"/>
  </clipPath>
 </defs>
</svg>
