<?xml version="1.0" encoding="utf-8" standalone="no"?>
<!DOCTYPE svg PUBLIC "-//W3C//DTD SVG 1.1//EN"
  "http://www.w3.org/Graphics/SVG/1.1/DTD/svg11.dtd">
<svg xmlns:xlink="http://www.w3.org/1999/xlink" width="494.28pt" height="232.586312pt" viewBox="0 0 494.28 232.586312" xmlns="http://www.w3.org/2000/svg" version="1.1">
 <metadata>
  <rdf:RDF xmlns:dc="http://purl.org/dc/elements/1.1/" xmlns:cc="http://creativecommons.org/ns#" xmlns:rdf="http://www.w3.org/1999/02/22-rdf-syntax-ns#">
   <cc:Work>
    <dc:type rdf:resource="http://purl.org/dc/dcmitype/StillImage"/>
    <dc:format>image/svg+xml</dc:format>
    <dc:creator>
     <cc:Agent>
      <dc:title>Matplotlib v3.10.8, https://matplotlib.org/</dc:title>
     </cc:Agent>
    </dc:creator>
   </cc:Work>
  </rdf:RDF>
 </metadata>
 <defs>
  <style type="text/css">*{stroke-linejoin: round; stroke-linecap: butt}</style>
 </defs>
 <g id="figure_1">
  <g id="patch_1">
   <path d="M 0 232.586312 
L 494.28 232.586312 
L 494.28 0 
L 0 0 
z
" style="fill: #ffffff"/>
  </g>
  <g id="axes_1">
   <g id="patch_2">
    <path d="M 7.2 209.676 
L 225.327273 209.676 
L 225.327273 21.18 
L 7.2 21.18 
z
" style="fill: #ffffff"/>
   </g>
   <g id="FillBetweenPolyCollection_1">
    <defs>
     <path id="m2ca522da7f" d="M 98.238094 -135.027205 
L 98.238094 -31.478312 
L 98.602246 -31.478312 
L 98.966399 -31.478312 
L 99.330551 -31.478312 
L 99.694703 -31.478312 
L 100.058856 -31.478312 
L 100.423008 -31.478312 
L 100.78716 -31.478312 
L 101.151313 -31.478312 
L 101.515465 -31.478312 
L 101.879618 -31.478312 
L 102.24377 -31.478312 
L 102.607922 -31.478312 
L 102.972075 -31.478312 
L 103.336227 -31.478312 
L 103.700379 -31.478312 
L 104.064532 -31.478312 
L 104.428684 -31.478312 
L 104.792837 -31.478312 
L 105.156989 -31.478312 
L 105.521141 -31.478312 
L 105.885294 -31.478312 
L 106.249446 -31.478312 
L 106.613598 -31.478312 
L 106.977751 -31.478312 
L 107.341903 -31.478312 
L 107.706056 -31.478312 
L 108.070208 -31.478312 
L 108.43436 -31.478312 
L 108.798513 -31.478312 
L 109.162665 -31.478312 
L 109.526817 -31.478312 
L 109.89097 -31.478312 
L 110.255122 -31.478312 
L 110.619275 -31.478312 
L 110.983427 -31.478312 
L 111.347579 -31.478312 
L 111.711732 -31.478312 
L 112.075884 -31.478312 
L 112.440036 -31.478312 
L 112.804189 -31.478312 
L 113.168341 -31.478312 
L 113.532494 -31.478312 
L 113.896646 -31.478312 
L 114.260798 -31.478312 
L 114.624951 -31.478312 
L 114.989103 -31.478312 
L 115.353255 -31.478312 
L 115.717408 -31.478312 
L 116.08156 -31.478312 
L 116.445713 -31.478312 
L 116.809865 -31.478312 
L 117.174017 -31.478312 
L 117.53817 -31.478312 
L 117.902322 -31.478312 
L 118.266474 -31.478312 
L 118.630627 -31.478312 
L 118.994779 -31.478312 
L 119.358932 -31.478312 
L 119.723084 -31.478312 
L 120.087236 -31.478312 
L 120.451389 -31.478312 
L 120.815541 -31.478312 
L 121.179693 -31.478312 
L 121.543846 -31.478312 
L 121.907998 -31.478312 
L 122.272151 -31.478312 
L 122.636303 -31.478312 
L 123.000455 -31.478312 
L 123.364608 -31.478312 
L 123.72876 -31.478312 
L 124.092912 -31.478312 
L 124.457065 -31.478312 
L 124.821217 -31.478312 
L 125.18537 -31.478312 
L 125.549522 -31.478312 
L 125.913674 -31.478312 
L 126.277827 -31.478312 
L 126.641979 -31.478312 
L 127.006131 -31.478312 
L 127.370284 -31.478312 
L 127.734436 -31.478312 
L 128.098589 -31.478312 
L 128.462741 -31.478312 
L 128.826893 -31.478312 
L 129.191046 -31.478312 
L 129.555198 -31.478312 
L 129.91935 -31.478312 
L 130.283503 -31.478312 
L 130.647655 -31.478312 
L 131.011808 -31.478312 
L 131.37596 -31.478312 
L 131.740112 -31.478312 
L 132.104265 -31.478312 
L 132.468417 -31.478312 
L 132.832569 -31.478312 
L 133.196722 -31.478312 
L 133.560874 -31.478312 
L 133.925027 -31.478312 
L 134.289179 -31.478312 
L 134.653331 -31.478312 
L 135.017484 -31.478312 
L 135.381636 -31.478312 
L 135.745788 -31.478312 
L 136.109941 -31.478312 
L 136.474093 -31.478312 
L 136.838246 -31.478312 
L 137.202398 -31.478312 
L 137.56655 -31.478312 
L 137.930703 -31.478312 
L 138.294855 -31.478312 
L 138.659007 -31.478312 
L 139.02316 -31.478312 
L 139.387312 -31.478312 
L 139.751465 -31.478312 
L 140.115617 -31.478312 
L 140.479769 -31.478312 
L 140.843922 -31.478312 
L 141.208074 -31.478312 
L 141.572226 -31.478312 
L 141.936379 -31.478312 
L 142.300531 -31.478312 
L 142.664684 -31.478312 
L 143.028836 -31.478312 
L 143.392988 -31.478312 
L 143.757141 -31.478312 
L 144.121293 -31.478312 
L 144.485445 -31.478312 
L 144.849598 -31.478312 
L 145.21375 -31.478312 
L 145.577903 -31.478312 
L 145.942055 -31.478312 
L 146.306207 -31.478312 
L 146.67036 -31.478312 
L 147.034512 -31.478312 
L 147.398664 -31.478312 
L 147.762817 -31.478312 
L 148.126969 -31.478312 
L 148.491122 -31.478312 
L 148.855274 -31.478312 
L 149.219426 -31.478312 
L 149.583579 -31.478312 
L 149.947731 -31.478312 
L 150.311883 -31.478312 
L 150.676036 -31.478312 
L 151.040188 -31.478312 
L 151.404341 -31.478312 
L 151.768493 -31.478312 
L 152.132645 -31.478312 
L 152.496798 -31.478312 
L 152.86095 -31.478312 
L 153.225102 -31.478312 
L 153.589255 -31.478312 
L 153.953407 -31.478312 
L 154.31756 -31.478312 
L 154.681712 -31.478312 
L 155.045864 -31.478312 
L 155.410017 -31.478312 
L 155.774169 -31.478312 
L 156.138321 -31.478312 
L 156.502474 -31.478312 
L 156.866626 -31.478312 
L 157.230779 -31.478312 
L 157.594931 -31.478312 
L 157.959083 -31.478312 
L 158.323236 -31.478312 
L 158.687388 -31.478312 
L 159.05154 -31.478312 
L 159.415693 -31.478312 
L 159.779845 -31.478312 
L 160.143998 -31.478312 
L 160.50815 -31.478312 
L 160.872302 -31.478312 
L 161.236455 -31.478312 
L 161.600607 -31.478312 
L 161.964759 -31.478312 
L 162.328912 -31.478312 
L 162.693064 -31.478312 
L 163.057217 -31.478312 
L 163.421369 -31.478312 
L 163.785521 -31.478312 
L 164.149674 -31.478312 
L 164.513826 -31.478312 
L 164.877978 -31.478312 
L 165.242131 -31.478312 
L 165.606283 -31.478312 
L 165.970436 -31.478312 
L 166.334588 -31.478312 
L 166.69874 -31.478312 
L 167.062893 -31.478312 
L 167.427045 -31.478312 
L 167.791197 -31.478312 
L 168.15535 -31.478312 
L 168.519502 -31.478312 
L 168.883655 -31.478312 
L 169.247807 -31.478312 
L 169.611959 -31.478312 
L 169.976112 -31.478312 
L 170.340264 -31.478312 
L 170.704416 -31.478312 
L 170.704416 -57.591208 
L 170.704416 -57.591208 
L 170.340264 -58.111651 
L 169.976112 -58.631572 
L 169.611959 -59.150539 
L 169.247807 -59.668115 
L 168.883655 -60.183855 
L 168.519502 -60.697308 
L 168.15535 -61.20802 
L 167.791197 -61.715528 
L 167.427045 -62.21937 
L 167.062893 -62.719077 
L 166.69874 -63.214179 
L 166.334588 -63.704204 
L 165.970436 -64.188679 
L 165.606283 -64.667129 
L 165.242131 -65.139083 
L 164.877978 -65.604067 
L 164.513826 -66.061613 
L 164.149674 -66.511252 
L 163.785521 -66.952521 
L 163.421369 -67.384962 
L 163.057217 -67.80812 
L 162.693064 -68.221547 
L 162.328912 -68.624802 
L 161.964759 -69.017453 
L 161.600607 -69.399074 
L 161.236455 -69.769249 
L 160.872302 -70.127574 
L 160.50815 -70.473653 
L 160.143998 -70.807103 
L 159.779845 -71.127554 
L 159.415693 -71.434648 
L 159.05154 -71.728042 
L 158.687388 -72.007406 
L 158.323236 -72.272425 
L 157.959083 -72.522803 
L 157.594931 -72.758256 
L 157.230779 -72.978521 
L 156.866626 -73.18335 
L 156.502474 -73.372515 
L 156.138321 -73.545806 
L 155.774169 -73.703031 
L 155.410017 -73.844019 
L 155.045864 -73.96862 
L 154.681712 -74.076703 
L 154.31756 -74.168158 
L 153.953407 -74.242896 
L 153.589255 -74.300849 
L 153.225102 -74.341973 
L 152.86095 -74.366244 
L 152.496798 -74.373659 
L 152.132645 -74.364239 
L 151.768493 -74.338026 
L 151.404341 -74.295086 
L 151.040188 -74.235506 
L 150.676036 -74.159394 
L 150.311883 -74.066883 
L 149.947731 -73.958126 
L 149.583579 -73.833299 
L 149.219426 -73.6926 
L 148.855274 -73.536247 
L 148.491122 -73.364482 
L 148.126969 -73.177565 
L 147.762817 -72.975778 
L 147.398664 -72.759426 
L 147.034512 -72.528831 
L 146.67036 -72.284334 
L 146.306207 -72.0263 
L 145.942055 -71.755107 
L 145.577903 -71.471156 
L 145.21375 -71.174863 
L 144.849598 -70.866663 
L 144.485445 -70.547009 
L 144.121293 -70.216366 
L 143.757141 -69.87522 
L 143.392988 -69.524069 
L 143.028836 -69.163427 
L 142.664684 -68.793822 
L 142.300531 -68.415794 
L 141.936379 -68.029898 
L 141.572226 -67.636701 
L 141.208074 -67.236779 
L 140.843922 -66.830724 
L 140.479769 -66.419134 
L 140.115617 -66.002619 
L 139.751465 -65.581798 
L 139.387312 -65.157298 
L 139.02316 -64.729755 
L 138.659007 -64.299812 
L 138.294855 -63.86812 
L 137.930703 -63.435334 
L 137.56655 -63.002118 
L 137.202398 -62.569138 
L 136.838246 -62.137067 
L 136.474093 -61.706582 
L 136.109941 -61.278363 
L 135.745788 -60.853093 
L 135.381636 -60.431459 
L 135.017484 -60.01415 
L 134.653331 -59.601857 
L 134.289179 -59.195271 
L 133.925027 -58.795085 
L 133.560874 -58.401994 
L 133.196722 -58.016691 
L 132.832569 -57.639871 
L 132.468417 -57.272227 
L 132.104265 -56.914453 
L 131.740112 -56.567239 
L 131.37596 -56.231276 
L 131.011808 -55.907253 
L 130.647655 -55.595857 
L 130.283503 -55.297771 
L 129.91935 -55.013679 
L 129.555198 -54.744258 
L 129.191046 -54.490185 
L 128.826893 -54.252132 
L 128.462741 -54.030769 
L 128.098589 -53.82676 
L 127.734436 -53.640766 
L 127.370284 -53.473445 
L 127.006131 -53.325447 
L 126.641979 -53.19742 
L 126.277827 -53.090006 
L 125.913674 -53.00384 
L 125.549522 -52.939554 
L 125.18537 -52.897771 
L 124.821217 -52.87911 
L 124.457065 -52.884182 
L 124.092912 -52.913589 
L 123.72876 -52.967929 
L 123.364608 -53.047791 
L 123.000455 -53.153753 
L 122.636303 -53.286386 
L 122.272151 -53.446254 
L 121.907998 -53.633907 
L 121.543846 -53.849887 
L 121.179693 -54.094725 
L 120.815541 -54.368939 
L 120.451389 -54.673037 
L 120.087236 -55.007514 
L 119.723084 -55.372849 
L 119.358932 -55.769509 
L 118.994779 -56.197947 
L 118.630627 -56.658597 
L 118.266474 -57.15188 
L 117.902322 -57.678198 
L 117.53817 -58.237936 
L 117.174017 -58.831457 
L 116.809865 -59.459108 
L 116.445713 -60.121212 
L 116.08156 -60.818072 
L 115.717408 -61.549968 
L 115.353255 -62.317155 
L 114.989103 -63.119864 
L 114.624951 -63.9583 
L 114.260798 -64.832641 
L 113.896646 -65.743036 
L 113.532494 -66.689606 
L 113.168341 -67.672442 
L 112.804189 -68.691603 
L 112.440036 -69.747115 
L 112.075884 -70.838971 
L 111.711732 -71.967131 
L 111.347579 -73.131516 
L 110.983427 -74.332013 
L 110.619275 -75.568469 
L 110.255122 -76.840695 
L 109.89097 -78.14846 
L 109.526817 -79.491492 
L 109.162665 -80.869479 
L 108.798513 -82.282064 
L 108.43436 -83.728848 
L 108.070208 -85.209388 
L 107.706056 -86.723195 
L 107.341903 -88.269734 
L 106.977751 -89.848424 
L 106.613598 -91.458638 
L 106.249446 -93.099698 
L 105.885294 -94.770882 
L 105.521141 -96.471417 
L 105.156989 -98.200483 
L 104.792837 -99.957208 
L 104.428684 -101.740675 
L 104.064532 -103.549915 
L 103.700379 -105.383911 
L 103.336227 -107.241596 
L 102.972075 -109.121857 
L 102.607922 -111.023529 
L 102.24377 -112.945402 
L 101.879618 -114.886217 
L 101.515465 -116.84467 
L 101.151313 -118.81941 
L 100.78716 -120.80904 
L 100.423008 -122.812121 
L 100.058856 -124.82717 
L 99.694703 -126.852663 
L 99.330551 -128.887035 
L 98.966399 -130.928683 
L 98.602246 -132.975965 
L 98.238094 -135.027205 
z
" style="stroke: #1f77b4; stroke-opacity: 0.32"/>
    </defs>
    <g clip-path="url(#p92188347c6)">
     <use xlink:href="#m2ca522da7f" x="0" y="232.586312" style="fill: #1f77b4; fill-opacity: 0.32; stroke: #1f77b4; stroke-opacity: 0.32"/>
    </g>
   </g>
   <g id="matplotlib.axis_1">
    <g id="xtick_1">
     <g id="line2d_1">
      <defs>
       <path id="m0e0d04b24a" d="M 0 0 
L 0 3.5 
" style="stroke: #000000; stroke-width: 0.8"/>
      </defs>
      <g>
       <use xlink:href="#m0e0d04b24a" x="98.086364" y="209.676" style="stroke: #000000; stroke-width: 0.8"/>
      </g>
     </g>
     <g id="text_1">
      <!-- $a$ -->
      <g transform="translate(95.701364 223.514594) scale(0.09 -0.09)">
       <defs>
        <path id="Cmmi10-61" d="M 1113 -72 
Q 709 -72 476 233 
Q 244 538 244 953 
Q 244 1363 456 1803 
Q 669 2244 1030 2536 
Q 1391 2828 1806 2828 
Q 1997 2828 2147 2725 
Q 2297 2622 2381 2444 
Q 2453 2700 2663 2700 
Q 2744 2700 2798 2651 
Q 2853 2603 2853 2522 
Q 2853 2503 2851 2493 
Q 2850 2484 2847 2472 
L 2400 684 
Q 2356 494 2356 372 
Q 2356 97 2541 97 
Q 2741 97 2845 351 
Q 2950 606 3022 941 
Q 3034 978 3072 978 
L 3150 978 
Q 3175 978 3190 956 
Q 3206 934 3206 916 
Q 3094 469 2961 198 
Q 2828 -72 2528 -72 
Q 2313 -72 2147 54 
Q 1981 181 1941 391 
Q 1528 -72 1113 -72 
z
M 1119 97 
Q 1350 97 1567 270 
Q 1784 444 1941 678 
Q 1947 684 1947 697 
L 2291 2088 
L 2297 2106 
Q 2259 2334 2132 2498 
Q 2006 2663 1791 2663 
Q 1575 2663 1389 2486 
Q 1203 2309 1075 2069 
Q 950 1813 836 1366 
Q 722 919 722 672 
Q 722 450 817 273 
Q 913 97 1119 97 
z
" transform="scale(0.015625)"/>
       </defs>
       <use xlink:href="#Cmmi10-61" transform="translate(0 0.8125)"/>
      </g>
     </g>
    </g>
    <g id="xtick_2">
     <g id="line2d_2">
      <g>
       <use xlink:href="#m0e0d04b24a" x="170.795455" y="209.676" style="stroke: #000000; stroke-width: 0.8"/>
      </g>
     </g>
     <g id="text_2">
      <!-- $b$ -->
      <g transform="translate(168.860455 223.514594) scale(0.09 -0.09)">
       <defs>
        <path id="Cmmi10-62" d="M 1106 -72 
Q 719 -72 503 231 
Q 288 534 288 941 
Q 288 1000 317 1173 
Q 347 1347 347 1388 
L 966 3872 
Q 991 3981 997 4044 
Q 997 4147 581 4147 
Q 519 4147 519 4231 
Q 522 4247 533 4287 
Q 544 4328 561 4350 
Q 578 4372 609 4372 
L 1472 4441 
Q 1550 4441 1550 4359 
L 1075 2472 
Q 1438 2828 1806 2828 
Q 2078 2828 2273 2684 
Q 2469 2541 2566 2306 
Q 2663 2072 2663 1806 
Q 2663 1497 2542 1167 
Q 2422 838 2209 555 
Q 1997 272 1712 100 
Q 1428 -72 1106 -72 
z
M 1119 97 
Q 1338 97 1528 280 
Q 1719 463 1838 691 
Q 1966 947 2077 1386 
Q 2188 1825 2188 2088 
Q 2188 2316 2092 2489 
Q 1997 2663 1791 2663 
Q 1559 2663 1348 2492 
Q 1138 2322 978 2088 
L 800 1363 
Q 697 959 691 716 
Q 691 475 795 286 
Q 900 97 1119 97 
z
" transform="scale(0.015625)"/>
       </defs>
       <use xlink:href="#Cmmi10-62" transform="translate(0 0.609375)"/>
      </g>
     </g>
    </g>
   </g>
   <g id="matplotlib.axis_2"/>
   <g id="line2d_3">
    <path d="M 7.2 201.050519 
L 14.483048 200.84455 
L 18.852876 200.499956 
L 22.130247 200.011794 
L 24.679314 199.412846 
L 26.864228 198.683159 
L 28.68499 197.876146 
L 30.505752 196.843552 
L 32.326514 195.537214 
L 34.147276 193.903354 
L 35.603885 192.32117 
L 37.060495 190.460124 
L 38.517104 188.287499 
L 39.973714 185.77037 
L 41.430323 182.876486 
L 43.251085 178.683044 
L 45.071847 173.800432 
L 46.892609 168.186698 
L 48.713371 161.815152 
L 50.534133 154.678653 
L 52.719047 145.130227 
L 54.903961 134.586207 
L 57.453028 121.221548 
L 61.094552 100.821496 
L 66.192685 72.212359 
L 68.741751 59.226453 
L 70.562513 50.975588 
L 72.383275 43.830604 
L 73.839885 39.045247 
L 74.932342 36.057674 
L 76.024799 33.620814 
L 77.117256 31.760418 
L 77.845561 30.850441 
L 78.573866 30.209911 
L 79.30217 29.841857 
L 80.030475 29.748 
L 80.75878 29.928734 
L 81.487085 30.383125 
L 82.215389 31.108917 
L 82.943694 32.102546 
L 84.036151 34.084255 
L 85.128608 36.635887 
L 86.221065 39.730008 
L 87.677675 44.641843 
L 89.134284 50.367973 
L 90.955046 58.511573 
L 93.139961 69.432715 
L 96.05318 85.266459 
L 102.972075 123.464456 
L 105.521141 136.114895 
L 107.706056 145.863118 
L 109.526817 153.09482 
L 111.347579 159.454797 
L 113.168341 164.91387 
L 114.624951 168.628013 
L 116.08156 171.76824 
L 117.53817 174.348377 
L 118.994779 176.388366 
L 120.087236 177.578799 
L 121.179693 178.491588 
L 122.272151 179.140059 
L 123.364608 179.538522 
L 124.457065 179.702131 
L 125.549522 179.646759 
L 126.641979 179.388893 
L 128.098589 178.759553 
L 129.555198 177.842054 
L 131.011808 176.679059 
L 132.832569 174.946441 
L 135.381636 172.154853 
L 143.028836 163.422885 
L 145.21375 161.41145 
L 147.034512 160.057482 
L 148.491122 159.221831 
L 149.947731 158.628186 
L 151.404341 158.291226 
L 152.86095 158.220069 
L 154.31756 158.418155 
L 155.774169 158.883282 
L 157.230779 159.607792 
L 158.687388 160.578907 
L 160.50815 162.11266 
L 162.328912 163.96151 
L 164.513826 166.5247 
L 167.062893 169.867235 
L 171.432721 176.035872 
L 176.166702 182.598844 
L 179.079921 186.261051 
L 181.628988 189.121113 
L 184.178054 191.618675 
L 186.362969 193.461501 
L 188.547883 195.034832 
L 190.732797 196.353627 
L 192.917711 197.439433 
L 195.466778 198.446031 
L 198.015845 199.214048 
L 200.929064 199.85498 
L 204.206435 200.344539 
L 208.212111 200.709318 
L 213.674397 200.955989 
L 222.049901 201.078918 
L 225.327273 201.09363 
L 225.327273 201.09363 
" clip-path="url(#p92188347c6)" style="fill: none; stroke: #1f77b4; stroke-width: 2.2; stroke-linecap: square"/>
   </g>
   <g id="patch_3">
    <path d="M 7.2 209.676 
L 7.2 21.18 
" style="fill: none; stroke: #000000; stroke-width: 0.8; stroke-linejoin: miter; stroke-linecap: square"/>
   </g>
   <g id="patch_4">
    <path d="M 7.2 209.676 
L 225.327273 209.676 
" style="fill: none; stroke: #000000; stroke-width: 0.8; stroke-linejoin: miter; stroke-linecap: square"/>
   </g>
   <g id="text_3">
    <!-- density $p$ -->
    <g transform="translate(92.691136 15.18) scale(0.105 -0.105)">
     <defs>
      <path id="DejaVuSans-64" d="M 2906 2969 
L 2906 4863 
L 3481 4863 
L 3481 0 
L 2906 0 
L 2906 525 
Q 2725 213 2448 61 
Q 2172 -91 1784 -91 
Q 1150 -91 751 415 
Q 353 922 353 1747 
Q 353 2572 751 3078 
Q 1150 3584 1784 3584 
Q 2172 3584 2448 3432 
Q 2725 3281 2906 2969 
z
M 947 1747 
Q 947 1113 1208 752 
Q 1469 391 1925 391 
Q 2381 391 2643 752 
Q 2906 1113 2906 1747 
Q 2906 2381 2643 2742 
Q 2381 3103 1925 3103 
Q 1469 3103 1208 2742 
Q 947 2381 947 1747 
z
" transform="scale(0.015625)"/>
      <path id="DejaVuSans-65" d="M 3597 1894 
L 3597 1613 
L 953 1613 
Q 991 1019 1311 708 
Q 1631 397 2203 397 
Q 2534 397 2845 478 
Q 3156 559 3463 722 
L 3463 178 
Q 3153 47 2828 -22 
Q 2503 -91 2169 -91 
Q 1331 -91 842 396 
Q 353 884 353 1716 
Q 353 2575 817 3079 
Q 1281 3584 2069 3584 
Q 2775 3584 3186 3129 
Q 3597 2675 3597 1894 
z
M 3022 2063 
Q 3016 2534 2758 2815 
Q 2500 3097 2075 3097 
Q 1594 3097 1305 2825 
Q 1016 2553 972 2059 
L 3022 2063 
z
" transform="scale(0.015625)"/>
      <path id="DejaVuSans-6e" d="M 3513 2113 
L 3513 0 
L 2938 0 
L 2938 2094 
Q 2938 2591 2744 2837 
Q 2550 3084 2163 3084 
Q 1697 3084 1428 2787 
Q 1159 2491 1159 1978 
L 1159 0 
L 581 0 
L 581 3500 
L 1159 3500 
L 1159 2956 
Q 1366 3272 1645 3428 
Q 1925 3584 2291 3584 
Q 2894 3584 3203 3211 
Q 3513 2838 3513 2113 
z
" transform="scale(0.015625)"/>
      <path id="DejaVuSans-73" d="M 2834 3397 
L 2834 2853 
Q 2591 2978 2328 3040 
Q 2066 3103 1784 3103 
Q 1356 3103 1142 2972 
Q 928 2841 928 2578 
Q 928 2378 1081 2264 
Q 1234 2150 1697 2047 
L 1894 2003 
Q 2506 1872 2764 1633 
Q 3022 1394 3022 966 
Q 3022 478 2636 193 
Q 2250 -91 1575 -91 
Q 1294 -91 989 -36 
Q 684 19 347 128 
L 347 722 
Q 666 556 975 473 
Q 1284 391 1588 391 
Q 1994 391 2212 530 
Q 2431 669 2431 922 
Q 2431 1156 2273 1281 
Q 2116 1406 1581 1522 
L 1381 1569 
Q 847 1681 609 1914 
Q 372 2147 372 2553 
Q 372 3047 722 3315 
Q 1072 3584 1716 3584 
Q 2034 3584 2315 3537 
Q 2597 3491 2834 3397 
z
" transform="scale(0.015625)"/>
      <path id="DejaVuSans-69" d="M 603 3500 
L 1178 3500 
L 1178 0 
L 603 0 
L 603 3500 
z
M 603 4863 
L 1178 4863 
L 1178 4134 
L 603 4134 
L 603 4863 
z
" transform="scale(0.015625)"/>
      <path id="DejaVuSans-74" d="M 1172 4494 
L 1172 3500 
L 2356 3500 
L 2356 3053 
L 1172 3053 
L 1172 1153 
Q 1172 725 1289 603 
Q 1406 481 1766 481 
L 2356 481 
L 2356 0 
L 1766 0 
Q 1100 0 847 248 
Q 594 497 594 1153 
L 594 3053 
L 172 3053 
L 172 3500 
L 594 3500 
L 594 4494 
L 1172 4494 
z
" transform="scale(0.015625)"/>
      <path id="DejaVuSans-79" d="M 2059 -325 
Q 1816 -950 1584 -1140 
Q 1353 -1331 966 -1331 
L 506 -1331 
L 506 -850 
L 844 -850 
Q 1081 -850 1212 -737 
Q 1344 -625 1503 -206 
L 1606 56 
L 191 3500 
L 800 3500 
L 1894 763 
L 2988 3500 
L 3597 3500 
L 2059 -325 
z
" transform="scale(0.015625)"/>
      <path id="DejaVuSans-20" transform="scale(0.015625)"/>
      <path id="Cmmi10-70" d="M -159 -1241 
Q -219 -1241 -219 -1159 
Q -197 -1019 -134 -1019 
Q 66 -1019 145 -983 
Q 225 -947 269 -800 
L 991 2081 
Q 1038 2200 1038 2388 
Q 1038 2663 850 2663 
Q 650 2663 553 2423 
Q 456 2184 366 1819 
Q 366 1778 313 1778 
L 238 1778 
Q 222 1778 203 1801 
Q 184 1825 184 1844 
Q 253 2122 317 2315 
Q 381 2509 517 2668 
Q 653 2828 856 2828 
Q 1075 2828 1240 2704 
Q 1406 2581 1453 2369 
Q 1628 2572 1840 2700 
Q 2053 2828 2278 2828 
Q 2547 2828 2745 2684 
Q 2944 2541 3044 2308 
Q 3144 2075 3144 1806 
Q 3144 1394 2933 953 
Q 2722 513 2361 220 
Q 2000 -72 1588 -72 
Q 1400 -72 1248 34 
Q 1097 141 1013 313 
L 722 -825 
Q 706 -919 703 -934 
Q 703 -1019 1125 -1019 
Q 1191 -1019 1191 -1100 
Q 1169 -1184 1155 -1212 
Q 1141 -1241 1081 -1241 
L -159 -1241 
z
M 1594 97 
Q 1816 97 2006 280 
Q 2197 463 2316 691 
Q 2403 863 2479 1111 
Q 2556 1359 2612 1640 
Q 2669 1922 2669 2088 
Q 2669 2234 2630 2362 
Q 2591 2491 2502 2577 
Q 2413 2663 2266 2663 
Q 2031 2663 1823 2495 
Q 1616 2328 1447 2081 
L 1447 2059 
L 1094 647 
Q 1138 419 1263 258 
Q 1388 97 1594 97 
z
" transform="scale(0.015625)"/>
     </defs>
     <use xlink:href="#DejaVuSans-64" transform="translate(0 0.015625)"/>
     <use xlink:href="#DejaVuSans-65" transform="translate(63.476562 0.015625)"/>
     <use xlink:href="#DejaVuSans-6e" transform="translate(125 0.015625)"/>
     <use xlink:href="#DejaVuSans-73" transform="translate(188.378906 0.015625)"/>
     <use xlink:href="#DejaVuSans-69" transform="translate(240.478516 0.015625)"/>
     <use xlink:href="#DejaVuSans-74" transform="translate(268.261719 0.015625)"/>
     <use xlink:href="#DejaVuSans-79" transform="translate(307.470703 0.015625)"/>
     <use xlink:href="#DejaVuSans-20" transform="translate(366.650391 0.015625)"/>
     <use xlink:href="#Cmmi10-70" transform="translate(398.4375 0.015625)"/>
    </g>
   </g>
  </g>
  <g id="axes_2">
   <g id="patch_5">
    <path d="M 268.952727 209.676 
L 487.08 209.676 
L 487.08 21.18 
L 268.952727 21.18 
z
" style="fill: #ffffff"/>
   </g>
   <g id="matplotlib.axis_3">
    <g id="xtick_3">
     <g id="line2d_4">
      <g>
       <use xlink:href="#m0e0d04b24a" x="359.839091" y="209.676" style="stroke: #000000; stroke-width: 0.8"/>
      </g>
     </g>
     <g id="text_4">
      <!-- $a$ -->
      <g transform="translate(357.454091 223.514594) scale(0.09 -0.09)">
       <use xlink:href="#Cmmi10-61" transform="translate(0 0.8125)"/>
      </g>
     </g>
    </g>
    <g id="xtick_4">
     <g id="line2d_5">
      <g>
       <use xlink:href="#m0e0d04b24a" x="432.548182" y="209.676" style="stroke: #000000; stroke-width: 0.8"/>
      </g>
     </g>
     <g id="text_5">
      <!-- $b$ -->
      <g transform="translate(430.613182 223.514594) scale(0.09 -0.09)">
       <use xlink:href="#Cmmi10-62" transform="translate(0 0.609375)"/>
      </g>
     </g>
    </g>
   </g>
   <g id="matplotlib.axis_4">
    <g id="ytick_1">
     <g id="line2d_6">
      <defs>
       <path id="m5d09d475d1" d="M 0 0 
L -3.5 0 
" style="stroke: #000000; stroke-width: 0.8"/>
      </defs>
      <g>
       <use xlink:href="#m5d09d475d1" x="268.952727" y="201.108" style="stroke: #000000; stroke-width: 0.8"/>
      </g>
     </g>
     <g id="text_6">
      <!-- 0 -->
      <g transform="translate(256.226477 204.527297) scale(0.09 -0.09)">
       <defs>
        <path id="DejaVuSans-30" d="M 2034 4250 
Q 1547 4250 1301 3770 
Q 1056 3291 1056 2328 
Q 1056 1369 1301 889 
Q 1547 409 2034 409 
Q 2525 409 2770 889 
Q 3016 1369 3016 2328 
Q 3016 3291 2770 3770 
Q 2525 4250 2034 4250 
z
M 2034 4750 
Q 2819 4750 3233 4129 
Q 3647 3509 3647 2328 
Q 3647 1150 3233 529 
Q 2819 -91 2034 -91 
Q 1250 -91 836 529 
Q 422 1150 422 2328 
Q 422 3509 836 4129 
Q 1250 4750 2034 4750 
z
" transform="scale(0.015625)"/>
       </defs>
       <use xlink:href="#DejaVuSans-30"/>
      </g>
     </g>
    </g>
    <g id="ytick_2">
     <g id="line2d_7">
      <g>
       <use xlink:href="#m5d09d475d1" x="268.952727" y="29.748" style="stroke: #000000; stroke-width: 0.8"/>
      </g>
     </g>
     <g id="text_7">
      <!-- 1 -->
      <g transform="translate(256.226477 33.167297) scale(0.09 -0.09)">
       <defs>
        <path id="DejaVuSans-31" d="M 794 531 
L 1825 531 
L 1825 4091 
L 703 3866 
L 703 4441 
L 1819 4666 
L 2450 4666 
L 2450 531 
L 3481 531 
L 3481 0 
L 794 0 
L 794 531 
z
" transform="scale(0.015625)"/>
       </defs>
       <use xlink:href="#DejaVuSans-31"/>
      </g>
     </g>
    </g>
   </g>
   <g id="line2d_8">
    <path d="M 268.952727 201.107632 
L 284.975432 200.983296 
L 291.166022 200.725542 
L 295.535851 200.324916 
L 298.813222 199.815899 
L 301.726441 199.142048 
L 304.275508 198.323719 
L 306.460422 197.408449 
L 308.645336 196.254991 
L 310.83025 194.822186 
L 312.651012 193.384371 
L 314.471774 191.699214 
L 316.292536 189.743864 
L 318.113298 187.497634 
L 319.93406 184.942992 
L 322.118974 181.451851 
L 324.303888 177.484472 
L 326.488803 173.040485 
L 329.037869 167.273065 
L 331.586936 160.92557 
L 334.500155 153.061605 
L 338.141679 142.553168 
L 349.430402 109.378816 
L 352.343621 101.712894 
L 354.892688 95.571311 
L 357.441754 90.027473 
L 359.626669 85.779258 
L 361.811583 82.002579 
L 363.996497 78.688734 
L 366.181411 75.816453 
L 368.366326 73.354068 
L 370.55124 71.261895 
L 372.736154 69.494624 
L 374.921068 68.0036 
L 377.470135 66.546571 
L 380.383354 65.158169 
L 384.38903 63.537592 
L 393.128687 60.101756 
L 396.770211 58.390404 
L 400.411735 56.415846 
L 404.053258 54.169789 
L 408.058935 51.425644 
L 413.885373 47.116394 
L 421.16842 41.760347 
L 425.174096 39.097109 
L 428.451468 37.161301 
L 431.728839 35.480304 
L 435.00621 34.067111 
L 438.283582 32.916947 
L 441.560953 32.010714 
L 445.202477 31.254457 
L 449.208153 30.672888 
L 453.577981 30.265105 
L 459.040267 29.980128 
L 467.051619 29.809248 
L 483.074324 29.749544 
L 487.08 29.748 
L 487.08 29.748 
" clip-path="url(#p6f1bc3dbb2)" style="fill: none; stroke: #ff7f0e; stroke-width: 2.2; stroke-linecap: square"/>
   </g>
   <g id="line2d_9">
    <path d="M 359.839091 201.108 
L 359.839091 85.117132 
" clip-path="url(#p6f1bc3dbb2)" style="fill: none; stroke-dasharray: 1,1.65; stroke-dashoffset: 0; stroke: #7f7f7f"/>
   </g>
   <g id="line2d_10">
    <path d="M 432.548182 201.108 
L 432.548182 34.979381 
" clip-path="url(#p6f1bc3dbb2)" style="fill: none; stroke-dasharray: 1,1.65; stroke-dashoffset: 0; stroke: #7f7f7f"/>
   </g>
   <g id="patch_6">
    <path d="M 268.952727 209.676 
L 268.952727 21.18 
" style="fill: none; stroke: #000000; stroke-width: 0.8; stroke-linejoin: miter; stroke-linecap: square"/>
   </g>
   <g id="patch_7">
    <path d="M 268.952727 209.676 
L 487.08 209.676 
" style="fill: none; stroke: #000000; stroke-width: 0.8; stroke-linejoin: miter; stroke-linecap: square"/>
   </g>
   <g id="patch_8">
    <path d="M 439.819091 81.665399 
Q 439.819091 60.049569 439.819091 38.433739 
" style="fill: none; stroke: #1f77b4; stroke-width: 1.3; stroke-linecap: round"/>
    <path d="M 442.019091 77.265399 
L 439.819091 81.665399 
L 437.619091 77.265399 
" style="fill: none; stroke: #1f77b4; stroke-width: 1.3; stroke-linecap: round"/>
    <path d="M 437.619091 42.833739 
L 439.819091 38.433739 
L 442.019091 42.833739 
" style="fill: none; stroke: #1f77b4; stroke-width: 1.3; stroke-linecap: round"/>
   </g>
   <g id="text_8">
    <!-- $F(b)-F(a)$ -->
    <g style="fill: #1f77b4" transform="translate(443.454545 62.173256) scale(0.085 -0.085)">
     <defs>
      <path id="Cmmi10-46" d="M 300 0 
Q 238 0 238 84 
Q 241 100 250 139 
Q 259 178 276 201 
Q 294 225 319 225 
Q 709 225 863 269 
Q 947 297 984 441 
L 1863 3956 
Q 1875 4019 1875 4044 
Q 1875 4113 1797 4122 
Q 1678 4147 1338 4147 
Q 1275 4147 1275 4231 
Q 1278 4247 1287 4286 
Q 1297 4325 1314 4348 
Q 1331 4372 1356 4372 
L 4738 4372 
Q 4800 4372 4800 4288 
L 4647 2963 
Q 4647 2944 4625 2925 
Q 4603 2906 4581 2906 
L 4525 2906 
Q 4459 2906 4459 2988 
Q 4500 3278 4500 3463 
Q 4500 3781 4362 3931 
Q 4225 4081 4015 4114 
Q 3806 4147 3438 4147 
L 2753 4147 
Q 2578 4147 2522 4117 
Q 2466 4088 2419 3928 
L 2009 2297 
L 2491 2297 
Q 2728 2297 2875 2322 
Q 3022 2347 3119 2419 
Q 3216 2491 3280 2627 
Q 3344 2763 3397 2988 
Q 3416 3047 3463 3047 
L 3519 3047 
Q 3584 3047 3584 2963 
L 3194 1381 
Q 3166 1325 3128 1325 
L 3072 1325 
Q 3009 1325 3009 1409 
Q 3025 1475 3034 1519 
Q 3044 1563 3058 1645 
Q 3072 1728 3072 1791 
Q 3072 1975 2909 2025 
Q 2747 2075 2484 2075 
L 1959 2075 
L 1544 416 
Q 1528 353 1528 353 
Q 1528 278 1575 269 
Q 1741 225 2228 225 
Q 2291 225 2291 141 
Q 2269 50 2256 25 
Q 2244 0 2181 0 
L 300 0 
z
" transform="scale(0.015625)"/>
      <path id="Cmr10-28" d="M 1984 -1588 
Q 1628 -1306 1370 -942 
Q 1113 -578 948 -165 
Q 784 247 703 697 
Q 622 1147 622 1600 
Q 622 2059 703 2509 
Q 784 2959 951 3375 
Q 1119 3791 1378 4153 
Q 1638 4516 1984 4788 
Q 1984 4800 2016 4800 
L 2075 4800 
Q 2094 4800 2109 4783 
Q 2125 4766 2125 4744 
Q 2125 4716 2113 4703 
Q 1800 4397 1592 4047 
Q 1384 3697 1257 3301 
Q 1131 2906 1075 2482 
Q 1019 2059 1019 1600 
Q 1019 -434 2106 -1491 
Q 2125 -1509 2125 -1544 
Q 2125 -1559 2108 -1579 
Q 2091 -1600 2075 -1600 
L 2016 -1600 
Q 1984 -1600 1984 -1588 
z
" transform="scale(0.015625)"/>
      <path id="Cmr10-29" d="M 416 -1600 
Q 359 -1600 359 -1544 
Q 359 -1516 372 -1503 
Q 1466 -434 1466 1600 
Q 1466 3634 384 4691 
Q 359 4706 359 4744 
Q 359 4766 376 4783 
Q 394 4800 416 4800 
L 475 4800 
Q 494 4800 506 4788 
Q 966 4425 1272 3906 
Q 1578 3388 1720 2800 
Q 1863 2213 1863 1600 
Q 1863 1147 1786 708 
Q 1709 269 1542 -157 
Q 1375 -584 1119 -945 
Q 863 -1306 506 -1588 
Q 494 -1600 475 -1600 
L 416 -1600 
z
" transform="scale(0.015625)"/>
      <path id="Cmsy10-a1" d="M 653 1472 
Q 600 1472 565 1512 
Q 531 1553 531 1600 
Q 531 1647 565 1687 
Q 600 1728 653 1728 
L 4325 1728 
Q 4375 1728 4408 1687 
Q 4441 1647 4441 1600 
Q 4441 1553 4408 1512 
Q 4375 1472 4325 1472 
L 653 1472 
z
" transform="scale(0.015625)"/>
     </defs>
     <use xlink:href="#Cmmi10-46"/>
     <use xlink:href="#Cmr10-28" transform="translate(64.306641 0)"/>
     <use xlink:href="#Cmmi10-62" transform="translate(103.125 0)"/>
     <use xlink:href="#Cmr10-29" transform="translate(146.044922 0)"/>
     <use xlink:href="#Cmsy10-a1" transform="translate(202.421875 0)"/>
     <use xlink:href="#Cmmi10-46" transform="translate(297.666016 0)"/>
     <use xlink:href="#Cmr10-28" transform="translate(361.972656 0)"/>
     <use xlink:href="#Cmmi10-61" transform="translate(400.791016 0)"/>
     <use xlink:href="#Cmr10-29" transform="translate(453.574219 0)"/>
    </g>
   </g>
   <g id="text_9">
    <!-- c.d.f. $F$ -->
    <g transform="translate(359.851364 15.18) scale(0.105 -0.105)">
     <defs>
      <path id="DejaVuSans-63" d="M 3122 3366 
L 3122 2828 
Q 2878 2963 2633 3030 
Q 2388 3097 2138 3097 
Q 1578 3097 1268 2742 
Q 959 2388 959 1747 
Q 959 1106 1268 751 
Q 1578 397 2138 397 
Q 2388 397 2633 464 
Q 2878 531 3122 666 
L 3122 134 
Q 2881 22 2623 -34 
Q 2366 -91 2075 -91 
Q 1284 -91 818 406 
Q 353 903 353 1747 
Q 353 2603 823 3093 
Q 1294 3584 2113 3584 
Q 2378 3584 2631 3529 
Q 2884 3475 3122 3366 
z
" transform="scale(0.015625)"/>
      <path id="DejaVuSans-2e" d="M 684 794 
L 1344 794 
L 1344 0 
L 684 0 
L 684 794 
z
" transform="scale(0.015625)"/>
      <path id="DejaVuSans-66" d="M 2375 4863 
L 2375 4384 
L 1825 4384 
Q 1516 4384 1395 4259 
Q 1275 4134 1275 3809 
L 1275 3500 
L 2222 3500 
L 2222 3053 
L 1275 3053 
L 1275 0 
L 697 0 
L 697 3053 
L 147 3053 
L 147 3500 
L 697 3500 
L 697 3744 
Q 697 4328 969 4595 
Q 1241 4863 1831 4863 
L 2375 4863 
z
" transform="scale(0.015625)"/>
     </defs>
     <use xlink:href="#DejaVuSans-63" transform="translate(0 0.015625)"/>
     <use xlink:href="#DejaVuSans-2e" transform="translate(54.980469 0.015625)"/>
     <use xlink:href="#DejaVuSans-64" transform="translate(86.767578 0.015625)"/>
     <use xlink:href="#DejaVuSans-2e" transform="translate(150.244141 0.015625)"/>
     <use xlink:href="#DejaVuSans-66" transform="translate(182.03125 0.015625)"/>
     <use xlink:href="#DejaVuSans-2e" transform="translate(217.236328 0.015625)"/>
     <use xlink:href="#DejaVuSans-20" transform="translate(249.023438 0.015625)"/>
     <use xlink:href="#Cmmi10-46" transform="translate(280.810547 0.015625)"/>
    </g>
   </g>
  </g>
 </g>
 <defs>
  <clipPath id="p92188347c6">
   <rect x="7.2" y="21.18" width="218.127273" height="188.496"/>
  </clipPath>
  <clipPath id="p6f1bc3dbb2">
   <rect x="268.952727" y="21.18" width="218.127273" height="188.496"/>
  </clipPath>
 </defs>
</svg>
