<?xml version="1.0" encoding="utf-8" standalone="no"?>
<!DOCTYPE svg PUBLIC "-//W3C//DTD SVG 1.1//EN"
  "http://www.w3.org/Graphics/SVG/1.1/DTD/svg11.dtd">
<svg xmlns:xlink="http://www.w3.org/1999/xlink" width="505.44pt" height="175.364144pt" viewBox="0 0 505.44 175.364144" xmlns="http://www.w3.org/2000/svg" version="1.1">
 <metadata>
  <rdf:RDF xmlns:dc="http://purl.org/dc/elements/1.1/" xmlns:cc="http://creativecommons.org/ns#" xmlns:rdf="http://www.w3.org/1999/02/22-rdf-syntax-ns#">
   <cc:Work>
    <dc:type rdf:resource="http://purl.org/dc/dcmitype/StillImage"/>
    <dc:format>image/svg+xml</dc:format>
    <dc:creator>
     <cc:Agent>
      <dc:title>Matplotlib v3.10.8, https://matplotlib.org/</dc:title>
     </cc:Agent>
    </dc:creator>
   </cc:Work>
  </rdf:RDF>
 </metadata>
 <defs>
  <style type="text/css">*{stroke-linejoin: round; stroke-linecap: butt}</style>
 </defs>
 <g id="figure_1">
  <g id="patch_1">
   <path d="M 0 175.364144 
L 505.44 175.364144 
L 505.44 0 
L 0 0 
z
" style="fill: #ffffff"/>
  </g>
  <g id="axes_1">
   <g id="patch_2">
    <path d="M 28.562525 91.656495 
L 476.877475 91.656495 
Q 481.845504 91.656495 481.845504 86.688466 
L 481.845504 63.835532 
Q 481.845504 58.867503 476.877475 58.867503 
L 28.562525 58.867503 
Q 23.594496 58.867503 23.594496 63.835532 
L 23.594496 86.688466 
Q 23.594496 91.656495 28.562525 91.656495 
z
" clip-path="url(#p517629c46c)" style="fill: #7f7f7f; opacity: 0.12"/>
   </g>
   <g id="patch_3">
    <path d="M 28.562525 157.731283 
L 244.089824 157.731283 
Q 249.057853 157.731283 249.057853 152.763254 
L 249.057853 129.91032 
Q 249.057853 124.942291 244.089824 124.942291 
L 28.562525 124.942291 
Q 23.594496 124.942291 23.594496 129.91032 
L 23.594496 152.763254 
Q 23.594496 157.731283 28.562525 157.731283 
z
" clip-path="url(#p517629c46c)" style="fill: #7f7f7f; opacity: 0.12"/>
   </g>
   <g id="patch_4">
    <path d="M 261.350176 157.731283 
L 476.877475 157.731283 
Q 481.845504 157.731283 481.845504 152.763254 
L 481.845504 129.91032 
Q 481.845504 124.942291 476.877475 124.942291 
L 261.350176 124.942291 
Q 256.382147 124.942291 256.382147 129.91032 
L 256.382147 152.763254 
Q 256.382147 157.731283 261.350176 157.731283 
z
" clip-path="url(#p517629c46c)" style="fill: #7f7f7f; opacity: 0.12"/>
   </g>
   <g id="text_1">
    <!-- the -->
    <g transform="translate(38.363696 30.659304) scale(0.13 -0.13)">
     <defs>
      <path id="DejaVuSans-74" d="M 1172 4494 
L 1172 3500 
L 2356 3500 
L 2356 3053 
L 1172 3053 
L 1172 1153 
Q 1172 725 1289 603 
Q 1406 481 1766 481 
L 2356 481 
L 2356 0 
L 1766 0 
Q 1100 0 847 248 
Q 594 497 594 1153 
L 594 3053 
L 172 3053 
L 172 3500 
L 594 3500 
L 594 4494 
L 1172 4494 
z
" transform="scale(0.015625)"/>
      <path id="DejaVuSans-68" d="M 3513 2113 
L 3513 0 
L 2938 0 
L 2938 2094 
Q 2938 2591 2744 2837 
Q 2550 3084 2163 3084 
Q 1697 3084 1428 2787 
Q 1159 2491 1159 1978 
L 1159 0 
L 581 0 
L 581 4863 
L 1159 4863 
L 1159 2956 
Q 1366 3272 1645 3428 
Q 1925 3584 2291 3584 
Q 2894 3584 3203 3211 
Q 3513 2838 3513 2113 
z
" transform="scale(0.015625)"/>
      <path id="DejaVuSans-65" d="M 3597 1894 
L 3597 1613 
L 953 1613 
Q 991 1019 1311 708 
Q 1631 397 2203 397 
Q 2534 397 2845 478 
Q 3156 559 3463 722 
L 3463 178 
Q 3153 47 2828 -22 
Q 2503 -91 2169 -91 
Q 1331 -91 842 396 
Q 353 884 353 1716 
Q 353 2575 817 3079 
Q 1281 3584 2069 3584 
Q 2775 3584 3186 3129 
Q 3597 2675 3597 1894 
z
M 3022 2063 
Q 3016 2534 2758 2815 
Q 2500 3097 2075 3097 
Q 1594 3097 1305 2825 
Q 1016 2553 972 2059 
L 3022 2063 
z
" transform="scale(0.015625)"/>
     </defs>
     <use xlink:href="#DejaVuSans-74"/>
     <use xlink:href="#DejaVuSans-68" transform="translate(39.208984 0)"/>
     <use xlink:href="#DejaVuSans-65" transform="translate(102.587891 0)"/>
    </g>
   </g>
   <g id="text_2">
    <!-- time -->
    <g transform="translate(92.542796 30.659304) scale(0.13 -0.13)">
     <defs>
      <path id="DejaVuSans-69" d="M 603 3500 
L 1178 3500 
L 1178 0 
L 603 0 
L 603 3500 
z
M 603 4863 
L 1178 4863 
L 1178 4134 
L 603 4134 
L 603 4863 
z
" transform="scale(0.015625)"/>
      <path id="DejaVuSans-6d" d="M 3328 2828 
Q 3544 3216 3844 3400 
Q 4144 3584 4550 3584 
Q 5097 3584 5394 3201 
Q 5691 2819 5691 2113 
L 5691 0 
L 5113 0 
L 5113 2094 
Q 5113 2597 4934 2840 
Q 4756 3084 4391 3084 
Q 3944 3084 3684 2787 
Q 3425 2491 3425 1978 
L 3425 0 
L 2847 0 
L 2847 2094 
Q 2847 2600 2669 2842 
Q 2491 3084 2119 3084 
Q 1678 3084 1418 2786 
Q 1159 2488 1159 1978 
L 1159 0 
L 581 0 
L 581 3500 
L 1159 3500 
L 1159 2956 
Q 1356 3278 1631 3431 
Q 1906 3584 2284 3584 
Q 2666 3584 2933 3390 
Q 3200 3197 3328 2828 
z
" transform="scale(0.015625)"/>
     </defs>
     <use xlink:href="#DejaVuSans-74"/>
     <use xlink:href="#DejaVuSans-69" transform="translate(39.208984 0)"/>
     <use xlink:href="#DejaVuSans-6d" transform="translate(66.992188 0)"/>
     <use xlink:href="#DejaVuSans-65" transform="translate(164.404297 0)"/>
    </g>
   </g>
   <g id="text_3">
    <!-- mach -->
    <g transform="translate(147.416584 30.659304) scale(0.13 -0.13)">
     <defs>
      <path id="DejaVuSans-61" d="M 2194 1759 
Q 1497 1759 1228 1600 
Q 959 1441 959 1056 
Q 959 750 1161 570 
Q 1363 391 1709 391 
Q 2188 391 2477 730 
Q 2766 1069 2766 1631 
L 2766 1759 
L 2194 1759 
z
M 3341 1997 
L 3341 0 
L 2766 0 
L 2766 531 
Q 2569 213 2275 61 
Q 1981 -91 1556 -91 
Q 1019 -91 701 211 
Q 384 513 384 1019 
Q 384 1609 779 1909 
Q 1175 2209 1959 2209 
L 2766 2209 
L 2766 2266 
Q 2766 2663 2505 2880 
Q 2244 3097 1772 3097 
Q 1472 3097 1187 3025 
Q 903 2953 641 2809 
L 641 3341 
Q 956 3463 1253 3523 
Q 1550 3584 1831 3584 
Q 2591 3584 2966 3190 
Q 3341 2797 3341 1997 
z
" transform="scale(0.015625)"/>
      <path id="DejaVuSans-63" d="M 3122 3366 
L 3122 2828 
Q 2878 2963 2633 3030 
Q 2388 3097 2138 3097 
Q 1578 3097 1268 2742 
Q 959 2388 959 1747 
Q 959 1106 1268 751 
Q 1578 397 2138 397 
Q 2388 397 2633 464 
Q 2878 531 3122 666 
L 3122 134 
Q 2881 22 2623 -34 
Q 2366 -91 2075 -91 
Q 1284 -91 818 406 
Q 353 903 353 1747 
Q 353 2603 823 3093 
Q 1294 3584 2113 3584 
Q 2378 3584 2631 3529 
Q 2884 3475 3122 3366 
z
" transform="scale(0.015625)"/>
     </defs>
     <use xlink:href="#DejaVuSans-6d"/>
     <use xlink:href="#DejaVuSans-61" transform="translate(97.412109 0)"/>
     <use xlink:href="#DejaVuSans-63" transform="translate(158.691406 0)"/>
     <use xlink:href="#DejaVuSans-68" transform="translate(213.671875 0)"/>
    </g>
   </g>
   <g id="text_4">
    <!-- ine -->
    <g transform="translate(213.696856 30.659304) scale(0.13 -0.13)">
     <defs>
      <path id="DejaVuSans-6e" d="M 3513 2113 
L 3513 0 
L 2938 0 
L 2938 2094 
Q 2938 2591 2744 2837 
Q 2550 3084 2163 3084 
Q 1697 3084 1428 2787 
Q 1159 2491 1159 1978 
L 1159 0 
L 581 0 
L 581 3500 
L 1159 3500 
L 1159 2956 
Q 1366 3272 1645 3428 
Q 1925 3584 2291 3584 
Q 2894 3584 3203 3211 
Q 3513 2838 3513 2113 
z
" transform="scale(0.015625)"/>
     </defs>
     <use xlink:href="#DejaVuSans-69"/>
     <use xlink:href="#DejaVuSans-6e" transform="translate(27.783203 0)"/>
     <use xlink:href="#DejaVuSans-65" transform="translate(91.162109 0)"/>
    </g>
   </g>
   <g id="text_5">
    <!-- by -->
    <g transform="translate(273.844785 30.659304) scale(0.13 -0.13)">
     <defs>
      <path id="DejaVuSans-62" d="M 3116 1747 
Q 3116 2381 2855 2742 
Q 2594 3103 2138 3103 
Q 1681 3103 1420 2742 
Q 1159 2381 1159 1747 
Q 1159 1113 1420 752 
Q 1681 391 2138 391 
Q 2594 391 2855 752 
Q 3116 1113 3116 1747 
z
M 1159 2969 
Q 1341 3281 1617 3432 
Q 1894 3584 2278 3584 
Q 2916 3584 3314 3078 
Q 3713 2572 3713 1747 
Q 3713 922 3314 415 
Q 2916 -91 2278 -91 
Q 1894 -91 1617 61 
Q 1341 213 1159 525 
L 1159 0 
L 581 0 
L 581 4863 
L 1159 4863 
L 1159 2969 
z
" transform="scale(0.015625)"/>
      <path id="DejaVuSans-79" d="M 2059 -325 
Q 1816 -950 1584 -1140 
Q 1353 -1331 966 -1331 
L 506 -1331 
L 506 -850 
L 844 -850 
Q 1081 -850 1212 -737 
Q 1344 -625 1503 -206 
L 1606 56 
L 191 3500 
L 800 3500 
L 1894 763 
L 2988 3500 
L 3597 3500 
L 2059 -325 
z
" transform="scale(0.015625)"/>
     </defs>
     <use xlink:href="#DejaVuSans-62"/>
     <use xlink:href="#DejaVuSans-79" transform="translate(63.476562 0)"/>
    </g>
   </g>
   <g id="text_6">
    <!-- h -->
    <g transform="translate(335.895994 30.659304) scale(0.13 -0.13)">
     <use xlink:href="#DejaVuSans-68"/>
    </g>
   </g>
   <g id="text_7">
    <!-- g -->
    <g transform="translate(394.085798 30.659304) scale(0.13 -0.13)">
     <defs>
      <path id="DejaVuSans-67" d="M 2906 1791 
Q 2906 2416 2648 2759 
Q 2391 3103 1925 3103 
Q 1463 3103 1205 2759 
Q 947 2416 947 1791 
Q 947 1169 1205 825 
Q 1463 481 1925 481 
Q 2391 481 2648 825 
Q 2906 1169 2906 1791 
z
M 3481 434 
Q 3481 -459 3084 -895 
Q 2688 -1331 1869 -1331 
Q 1566 -1331 1297 -1286 
Q 1028 -1241 775 -1147 
L 775 -588 
Q 1028 -725 1275 -790 
Q 1522 -856 1778 -856 
Q 2344 -856 2625 -561 
Q 2906 -266 2906 331 
L 2906 616 
Q 2728 306 2450 153 
Q 2172 0 1784 0 
Q 1141 0 747 490 
Q 353 981 353 1791 
Q 353 2603 747 3093 
Q 1141 3584 1784 3584 
Q 2172 3584 2450 3431 
Q 2728 3278 2906 2969 
L 2906 3500 
L 3481 3500 
L 3481 434 
z
" transform="scale(0.015625)"/>
     </defs>
     <use xlink:href="#DejaVuSans-67"/>
    </g>
   </g>
   <g id="text_8">
    <!-- wells -->
    <g transform="translate(440.096226 30.659304) scale(0.13 -0.13)">
     <defs>
      <path id="DejaVuSans-77" d="M 269 3500 
L 844 3500 
L 1563 769 
L 2278 3500 
L 2956 3500 
L 3675 769 
L 4391 3500 
L 4966 3500 
L 4050 0 
L 3372 0 
L 2619 2869 
L 1863 0 
L 1184 0 
L 269 3500 
z
" transform="scale(0.015625)"/>
      <path id="DejaVuSans-6c" d="M 603 4863 
L 1178 4863 
L 1178 0 
L 603 0 
L 603 4863 
z
" transform="scale(0.015625)"/>
      <path id="DejaVuSans-73" d="M 2834 3397 
L 2834 2853 
Q 2591 2978 2328 3040 
Q 2066 3103 1784 3103 
Q 1356 3103 1142 2972 
Q 928 2841 928 2578 
Q 928 2378 1081 2264 
Q 1234 2150 1697 2047 
L 1894 2003 
Q 2506 1872 2764 1633 
Q 3022 1394 3022 966 
Q 3022 478 2636 193 
Q 2250 -91 1575 -91 
Q 1294 -91 989 -36 
Q 684 19 347 128 
L 347 722 
Q 666 556 975 473 
Q 1284 391 1588 391 
Q 1994 391 2212 530 
Q 2431 669 2431 922 
Q 2431 1156 2273 1281 
Q 2116 1406 1581 1522 
L 1381 1569 
Q 847 1681 609 1914 
Q 372 2147 372 2553 
Q 372 3047 722 3315 
Q 1072 3584 1716 3584 
Q 2034 3584 2315 3537 
Q 2597 3491 2834 3397 
z
" transform="scale(0.015625)"/>
     </defs>
     <use xlink:href="#DejaVuSans-77"/>
     <use xlink:href="#DejaVuSans-65" transform="translate(81.787109 0)"/>
     <use xlink:href="#DejaVuSans-6c" transform="translate(143.310547 0)"/>
     <use xlink:href="#DejaVuSans-6c" transform="translate(171.09375 0)"/>
     <use xlink:href="#DejaVuSans-73" transform="translate(198.876953 0)"/>
    </g>
   </g>
   <g id="patch_5">
    <path d="M 49.030805 79.484824 
C 50.150712 79.484824 51.2249 79.039881 52.016793 78.247987 
C 52.808687 77.456094 53.25363 76.381905 53.25363 75.261999 
C 53.25363 74.142093 52.808687 73.067904 52.016793 72.276011 
C 51.2249 71.484118 50.150712 71.039174 49.030805 71.039174 
C 47.910899 71.039174 46.836711 71.484118 46.044817 72.276011 
C 45.252924 73.067904 44.807981 74.142093 44.807981 75.261999 
C 44.807981 76.381905 45.252924 77.456094 46.044817 78.247987 
C 46.836711 79.039881 47.910899 79.484824 49.030805 79.484824 
z
" clip-path="url(#p517629c46c)" style="fill: #2ca02c"/>
   </g>
   <g id="patch_6">
    <path d="M 107.227718 79.484824 
C 108.347624 79.484824 109.421813 79.039881 110.213706 78.247987 
C 111.005599 77.456094 111.450543 76.381905 111.450543 75.261999 
C 111.450543 74.142093 111.005599 73.067904 110.213706 72.276011 
C 109.421813 71.484118 108.347624 71.039174 107.227718 71.039174 
C 106.107812 71.039174 105.033623 71.484118 104.24173 72.276011 
C 103.449837 73.067904 103.004893 74.142093 103.004893 75.261999 
C 103.004893 76.381905 103.449837 77.456094 104.24173 78.247987 
C 105.033623 79.039881 106.107812 79.484824 107.227718 79.484824 
z
" clip-path="url(#p517629c46c)" style="fill: #2ca02c"/>
   </g>
   <g id="patch_7">
    <path d="M 165.424631 79.484824 
C 166.544537 79.484824 167.618726 79.039881 168.410619 78.247987 
C 169.202512 77.456094 169.647456 76.381905 169.647456 75.261999 
C 169.647456 74.142093 169.202512 73.067904 168.410619 72.276011 
C 167.618726 71.484118 166.544537 71.039174 165.424631 71.039174 
C 164.304725 71.039174 163.230536 71.484118 162.438643 72.276011 
C 161.64675 73.067904 161.201806 74.142093 161.201806 75.261999 
C 161.201806 76.381905 161.64675 77.456094 162.438643 78.247987 
C 163.230536 79.039881 164.304725 79.484824 165.424631 79.484824 
z
" clip-path="url(#p517629c46c)" style="fill: #2ca02c"/>
   </g>
   <g id="patch_8">
    <path d="M 223.621544 79.484824 
C 224.74145 79.484824 225.815638 79.039881 226.607532 78.247987 
C 227.399425 77.456094 227.844368 76.381905 227.844368 75.261999 
C 227.844368 74.142093 227.399425 73.067904 226.607532 72.276011 
C 225.815638 71.484118 224.74145 71.039174 223.621544 71.039174 
C 222.501637 71.039174 221.427449 71.484118 220.635556 72.276011 
C 219.843662 73.067904 219.398719 74.142093 219.398719 75.261999 
C 219.398719 76.381905 219.843662 77.456094 220.635556 78.247987 
C 221.427449 79.039881 222.501637 79.484824 223.621544 79.484824 
z
" clip-path="url(#p517629c46c)" style="fill: #2ca02c"/>
   </g>
   <g id="patch_9">
    <path d="M 281.818456 79.484824 
C 282.938363 79.484824 284.012551 79.039881 284.804444 78.247987 
C 285.596338 77.456094 286.041281 76.381905 286.041281 75.261999 
C 286.041281 74.142093 285.596338 73.067904 284.804444 72.276011 
C 284.012551 71.484118 282.938363 71.039174 281.818456 71.039174 
C 280.69855 71.039174 279.624362 71.484118 278.832468 72.276011 
C 278.040575 73.067904 277.595632 74.142093 277.595632 75.261999 
C 277.595632 76.381905 278.040575 77.456094 278.832468 78.247987 
C 279.624362 79.039881 280.69855 79.484824 281.818456 79.484824 
z
" clip-path="url(#p517629c46c)" style="fill: #2ca02c"/>
   </g>
   <g id="patch_10">
    <path d="M 340.015369 79.484824 
C 341.135275 79.484824 342.209464 79.039881 343.001357 78.247987 
C 343.79325 77.456094 344.238194 76.381905 344.238194 75.261999 
C 344.238194 74.142093 343.79325 73.067904 343.001357 72.276011 
C 342.209464 71.484118 341.135275 71.039174 340.015369 71.039174 
C 338.895463 71.039174 337.821274 71.484118 337.029381 72.276011 
C 336.237488 73.067904 335.792544 74.142093 335.792544 75.261999 
C 335.792544 76.381905 336.237488 77.456094 337.029381 78.247987 
C 337.821274 79.039881 338.895463 79.484824 340.015369 79.484824 
z
" clip-path="url(#p517629c46c)" style="fill: #2ca02c"/>
   </g>
   <g id="patch_11">
    <path d="M 398.212282 79.484824 
C 399.332188 79.484824 400.406377 79.039881 401.19827 78.247987 
C 401.990163 77.456094 402.435107 76.381905 402.435107 75.261999 
C 402.435107 74.142093 401.990163 73.067904 401.19827 72.276011 
C 400.406377 71.484118 399.332188 71.039174 398.212282 71.039174 
C 397.092376 71.039174 396.018187 71.484118 395.226294 72.276011 
C 394.434401 73.067904 393.989457 74.142093 393.989457 75.261999 
C 393.989457 76.381905 394.434401 77.456094 395.226294 78.247987 
C 396.018187 79.039881 397.092376 79.484824 398.212282 79.484824 
z
" clip-path="url(#p517629c46c)" style="fill: #2ca02c"/>
   </g>
   <g id="patch_12">
    <path d="M 456.409195 79.484824 
C 457.529101 79.484824 458.603289 79.039881 459.395183 78.247987 
C 460.187076 77.456094 460.632019 76.381905 460.632019 75.261999 
C 460.632019 74.142093 460.187076 73.067904 459.395183 72.276011 
C 458.603289 71.484118 457.529101 71.039174 456.409195 71.039174 
C 455.289288 71.039174 454.2151 71.484118 453.423207 72.276011 
C 452.631313 73.067904 452.18637 74.142093 452.18637 75.261999 
C 452.18637 76.381905 452.631313 77.456094 453.423207 78.247987 
C 454.2151 79.039881 455.289288 79.484824 456.409195 79.484824 
z
" clip-path="url(#p517629c46c)" style="fill: #2ca02c"/>
   </g>
   <g id="patch_13">
    <path d="M 54.247236 75.261999 
Q 78.129262 75.261999 99.77522 75.261999 
" style="fill: none; stroke: #1f77b4; stroke-width: 2; stroke-linecap: round"/>
    <path d="M 94.57522 72.661999 
L 99.77522 75.261999 
L 94.57522 77.861999 
" style="fill: none; stroke: #1f77b4; stroke-width: 2; stroke-linecap: round"/>
   </g>
   <g id="patch_14">
    <path d="M 112.444149 75.261999 
Q 136.326174 75.261999 157.972132 75.261999 
" style="fill: none; stroke: #1f77b4; stroke-width: 2; stroke-linecap: round"/>
    <path d="M 152.772132 72.661999 
L 157.972132 75.261999 
L 152.772132 77.861999 
" style="fill: none; stroke: #1f77b4; stroke-width: 2; stroke-linecap: round"/>
   </g>
   <g id="patch_15">
    <path d="M 170.641061 75.261999 
Q 194.523087 75.261999 216.169045 75.261999 
" style="fill: none; stroke: #1f77b4; stroke-width: 2; stroke-linecap: round"/>
    <path d="M 210.969045 72.661999 
L 216.169045 75.261999 
L 210.969045 77.861999 
" style="fill: none; stroke: #1f77b4; stroke-width: 2; stroke-linecap: round"/>
   </g>
   <g id="patch_16">
    <path d="M 228.837974 75.261999 
Q 252.72 75.261999 274.365958 75.261999 
" style="fill: none; stroke: #1f77b4; stroke-width: 2; stroke-linecap: round"/>
    <path d="M 269.165958 72.661999 
L 274.365958 75.261999 
L 269.165958 77.861999 
" style="fill: none; stroke: #1f77b4; stroke-width: 2; stroke-linecap: round"/>
   </g>
   <g id="patch_17">
    <path d="M 287.034887 75.261999 
Q 310.916913 75.261999 332.562871 75.261999 
" style="fill: none; stroke: #1f77b4; stroke-width: 2; stroke-linecap: round"/>
    <path d="M 327.362871 72.661999 
L 332.562871 75.261999 
L 327.362871 77.861999 
" style="fill: none; stroke: #1f77b4; stroke-width: 2; stroke-linecap: round"/>
   </g>
   <g id="patch_18">
    <path d="M 345.2318 75.261999 
Q 369.113826 75.261999 390.759783 75.261999 
" style="fill: none; stroke: #1f77b4; stroke-width: 2; stroke-linecap: round"/>
    <path d="M 385.559783 72.661999 
L 390.759783 75.261999 
L 385.559783 77.861999 
" style="fill: none; stroke: #1f77b4; stroke-width: 2; stroke-linecap: round"/>
   </g>
   <g id="patch_19">
    <path d="M 403.428712 75.261999 
Q 427.310738 75.261999 448.956696 75.261999 
" style="fill: none; stroke: #1f77b4; stroke-width: 2; stroke-linecap: round"/>
    <path d="M 443.756696 72.661999 
L 448.956696 75.261999 
L 443.756696 77.861999 
" style="fill: none; stroke: #1f77b4; stroke-width: 2; stroke-linecap: round"/>
   </g>
   <g id="patch_20">
    <path d="M 49.030805 145.559611 
C 50.150712 145.559611 51.2249 145.114668 52.016793 144.322775 
C 52.808687 143.530881 53.25363 142.456693 53.25363 141.336787 
C 53.25363 140.216881 52.808687 139.142692 52.016793 138.350799 
C 51.2249 137.558905 50.150712 137.113962 49.030805 137.113962 
C 47.910899 137.113962 46.836711 137.558905 46.044817 138.350799 
C 45.252924 139.142692 44.807981 140.216881 44.807981 141.336787 
C 44.807981 142.456693 45.252924 143.530881 46.044817 144.322775 
C 46.836711 145.114668 47.910899 145.559611 49.030805 145.559611 
z
" clip-path="url(#p517629c46c)" style="fill: #2ca02c"/>
   </g>
   <g id="patch_21">
    <path d="M 107.227718 145.559611 
C 108.347624 145.559611 109.421813 145.114668 110.213706 144.322775 
C 111.005599 143.530881 111.450543 142.456693 111.450543 141.336787 
C 111.450543 140.216881 111.005599 139.142692 110.213706 138.350799 
C 109.421813 137.558905 108.347624 137.113962 107.227718 137.113962 
C 106.107812 137.113962 105.033623 137.558905 104.24173 138.350799 
C 103.449837 139.142692 103.004893 140.216881 103.004893 141.336787 
C 103.004893 142.456693 103.449837 143.530881 104.24173 144.322775 
C 105.033623 145.114668 106.107812 145.559611 107.227718 145.559611 
z
" clip-path="url(#p517629c46c)" style="fill: #2ca02c"/>
   </g>
   <g id="patch_22">
    <path d="M 165.424631 145.559611 
C 166.544537 145.559611 167.618726 145.114668 168.410619 144.322775 
C 169.202512 143.530881 169.647456 142.456693 169.647456 141.336787 
C 169.647456 140.216881 169.202512 139.142692 168.410619 138.350799 
C 167.618726 137.558905 166.544537 137.113962 165.424631 137.113962 
C 164.304725 137.113962 163.230536 137.558905 162.438643 138.350799 
C 161.64675 139.142692 161.201806 140.216881 161.201806 141.336787 
C 161.201806 142.456693 161.64675 143.530881 162.438643 144.322775 
C 163.230536 145.114668 164.304725 145.559611 165.424631 145.559611 
z
" clip-path="url(#p517629c46c)" style="fill: #2ca02c"/>
   </g>
   <g id="patch_23">
    <path d="M 223.621544 145.559611 
C 224.74145 145.559611 225.815638 145.114668 226.607532 144.322775 
C 227.399425 143.530881 227.844368 142.456693 227.844368 141.336787 
C 227.844368 140.216881 227.399425 139.142692 226.607532 138.350799 
C 225.815638 137.558905 224.74145 137.113962 223.621544 137.113962 
C 222.501637 137.113962 221.427449 137.558905 220.635556 138.350799 
C 219.843662 139.142692 219.398719 140.216881 219.398719 141.336787 
C 219.398719 142.456693 219.843662 143.530881 220.635556 144.322775 
C 221.427449 145.114668 222.501637 145.559611 223.621544 145.559611 
z
" clip-path="url(#p517629c46c)" style="fill: #2ca02c"/>
   </g>
   <g id="patch_24">
    <path d="M 54.247236 141.336787 
Q 78.129262 141.336787 99.77522 141.336787 
" style="fill: none; stroke: #1f77b4; stroke-width: 2; stroke-linecap: round"/>
    <path d="M 94.57522 138.736787 
L 99.77522 141.336787 
L 94.57522 143.936787 
" style="fill: none; stroke: #1f77b4; stroke-width: 2; stroke-linecap: round"/>
   </g>
   <g id="patch_25">
    <path d="M 112.444149 141.336787 
Q 136.326174 141.336787 157.972132 141.336787 
" style="fill: none; stroke: #1f77b4; stroke-width: 2; stroke-linecap: round"/>
    <path d="M 152.772132 138.736787 
L 157.972132 141.336787 
L 152.772132 143.936787 
" style="fill: none; stroke: #1f77b4; stroke-width: 2; stroke-linecap: round"/>
   </g>
   <g id="patch_26">
    <path d="M 170.641061 141.336787 
Q 194.523087 141.336787 216.169045 141.336787 
" style="fill: none; stroke: #1f77b4; stroke-width: 2; stroke-linecap: round"/>
    <path d="M 210.969045 138.736787 
L 216.169045 141.336787 
L 210.969045 143.936787 
" style="fill: none; stroke: #1f77b4; stroke-width: 2; stroke-linecap: round"/>
   </g>
   <g id="patch_27">
    <path d="M 281.818456 145.559611 
C 282.938363 145.559611 284.012551 145.114668 284.804444 144.322775 
C 285.596338 143.530881 286.041281 142.456693 286.041281 141.336787 
C 286.041281 140.216881 285.596338 139.142692 284.804444 138.350799 
C 284.012551 137.558905 282.938363 137.113962 281.818456 137.113962 
C 280.69855 137.113962 279.624362 137.558905 278.832468 138.350799 
C 278.040575 139.142692 277.595632 140.216881 277.595632 141.336787 
C 277.595632 142.456693 278.040575 143.530881 278.832468 144.322775 
C 279.624362 145.114668 280.69855 145.559611 281.818456 145.559611 
z
" clip-path="url(#p517629c46c)" style="fill: #2ca02c"/>
   </g>
   <g id="patch_28">
    <path d="M 340.015369 145.559611 
C 341.135275 145.559611 342.209464 145.114668 343.001357 144.322775 
C 343.79325 143.530881 344.238194 142.456693 344.238194 141.336787 
C 344.238194 140.216881 343.79325 139.142692 343.001357 138.350799 
C 342.209464 137.558905 341.135275 137.113962 340.015369 137.113962 
C 338.895463 137.113962 337.821274 137.558905 337.029381 138.350799 
C 336.237488 139.142692 335.792544 140.216881 335.792544 141.336787 
C 335.792544 142.456693 336.237488 143.530881 337.029381 144.322775 
C 337.821274 145.114668 338.895463 145.559611 340.015369 145.559611 
z
" clip-path="url(#p517629c46c)" style="fill: #2ca02c"/>
   </g>
   <g id="patch_29">
    <path d="M 398.212282 145.559611 
C 399.332188 145.559611 400.406377 145.114668 401.19827 144.322775 
C 401.990163 143.530881 402.435107 142.456693 402.435107 141.336787 
C 402.435107 140.216881 401.990163 139.142692 401.19827 138.350799 
C 400.406377 137.558905 399.332188 137.113962 398.212282 137.113962 
C 397.092376 137.113962 396.018187 137.558905 395.226294 138.350799 
C 394.434401 139.142692 393.989457 140.216881 393.989457 141.336787 
C 393.989457 142.456693 394.434401 143.530881 395.226294 144.322775 
C 396.018187 145.114668 397.092376 145.559611 398.212282 145.559611 
z
" clip-path="url(#p517629c46c)" style="fill: #2ca02c"/>
   </g>
   <g id="patch_30">
    <path d="M 456.409195 145.559611 
C 457.529101 145.559611 458.603289 145.114668 459.395183 144.322775 
C 460.187076 143.530881 460.632019 142.456693 460.632019 141.336787 
C 460.632019 140.216881 460.187076 139.142692 459.395183 138.350799 
C 458.603289 137.558905 457.529101 137.113962 456.409195 137.113962 
C 455.289288 137.113962 454.2151 137.558905 453.423207 138.350799 
C 452.631313 139.142692 452.18637 140.216881 452.18637 141.336787 
C 452.18637 142.456693 452.631313 143.530881 453.423207 144.322775 
C 454.2151 145.114668 455.289288 145.559611 456.409195 145.559611 
z
" clip-path="url(#p517629c46c)" style="fill: #2ca02c"/>
   </g>
   <g id="patch_31">
    <path d="M 287.034887 141.336787 
Q 310.916913 141.336787 332.562871 141.336787 
" style="fill: none; stroke: #1f77b4; stroke-width: 2; stroke-linecap: round"/>
    <path d="M 327.362871 138.736787 
L 332.562871 141.336787 
L 327.362871 143.936787 
" style="fill: none; stroke: #1f77b4; stroke-width: 2; stroke-linecap: round"/>
   </g>
   <g id="patch_32">
    <path d="M 345.2318 141.336787 
Q 369.113826 141.336787 390.759783 141.336787 
" style="fill: none; stroke: #1f77b4; stroke-width: 2; stroke-linecap: round"/>
    <path d="M 385.559783 138.736787 
L 390.759783 141.336787 
L 385.559783 143.936787 
" style="fill: none; stroke: #1f77b4; stroke-width: 2; stroke-linecap: round"/>
   </g>
   <g id="patch_33">
    <path d="M 403.428712 141.336787 
Q 427.310738 141.336787 448.956696 141.336787 
" style="fill: none; stroke: #1f77b4; stroke-width: 2; stroke-linecap: round"/>
    <path d="M 443.756696 138.736787 
L 448.956696 141.336787 
L 443.756696 143.936787 
" style="fill: none; stroke: #1f77b4; stroke-width: 2; stroke-linecap: round"/>
   </g>
   <g id="patch_34">
    <path d="M 252.72 105.59063 
Q 252.72 114.267223 252.72 121.490372 
" style="fill: none; stroke: #ff7f0e; stroke-width: 1.3; stroke-linecap: round"/>
    <path d="M 255.02 116.890372 
L 252.72 121.490372 
L 250.42 116.890372 
" style="fill: none; stroke: #ff7f0e; stroke-width: 1.3; stroke-linecap: round"/>
   </g>
   <g id="text_9">
    <!-- detach -->
    <g transform="translate(232.948086 99.200913) scale(0.115 -0.115)">
     <defs>
      <path id="DejaVuSans-64" d="M 2906 2969 
L 2906 4863 
L 3481 4863 
L 3481 0 
L 2906 0 
L 2906 525 
Q 2725 213 2448 61 
Q 2172 -91 1784 -91 
Q 1150 -91 751 415 
Q 353 922 353 1747 
Q 353 2572 751 3078 
Q 1150 3584 1784 3584 
Q 2172 3584 2448 3432 
Q 2725 3281 2906 2969 
z
M 947 1747 
Q 947 1113 1208 752 
Q 1469 391 1925 391 
Q 2381 391 2643 752 
Q 2906 1113 2906 1747 
Q 2906 2381 2643 2742 
Q 2381 3103 1925 3103 
Q 1469 3103 1208 2742 
Q 947 2381 947 1747 
z
" transform="scale(0.015625)"/>
     </defs>
     <use xlink:href="#DejaVuSans-64"/>
     <use xlink:href="#DejaVuSans-65" transform="translate(63.476562 0)"/>
     <use xlink:href="#DejaVuSans-74" transform="translate(125 0)"/>
     <use xlink:href="#DejaVuSans-61" transform="translate(164.208984 0)"/>
     <use xlink:href="#DejaVuSans-63" transform="translate(225.488281 0)"/>
     <use xlink:href="#DejaVuSans-68" transform="translate(280.46875 0)"/>
    </g>
   </g>
   <g id="line2d_1">
    <path d="M 252.72 156.737677 
L 252.72 125.935896 
" clip-path="url(#p517629c46c)" style="fill: none; stroke: #ff7f0e; stroke-width: 2.6; stroke-linecap: square"/>
   </g>
  </g>
 </g>
 <defs>
  <clipPath id="p517629c46c">
   <rect x="7.2" y="7.2" width="491.04" height="160.964144"/>
  </clipPath>
 </defs>
</svg>
