<?xml version="1.0" encoding="utf-8" standalone="no"?>
<!DOCTYPE svg PUBLIC "-//W3C//DTD SVG 1.1//EN"
  "http://www.w3.org/Graphics/SVG/1.1/DTD/svg11.dtd">
<svg xmlns:xlink="http://www.w3.org/1999/xlink" width="393.84pt" height="144.082025pt" viewBox="0 0 393.84 144.082025" xmlns="http://www.w3.org/2000/svg" version="1.1">
 <metadata>
  <rdf:RDF xmlns:dc="http://purl.org/dc/elements/1.1/" xmlns:cc="http://creativecommons.org/ns#" xmlns:rdf="http://www.w3.org/1999/02/22-rdf-syntax-ns#">
   <cc:Work>
    <dc:type rdf:resource="http://purl.org/dc/dcmitype/StillImage"/>
    <dc:format>image/svg+xml</dc:format>
    <dc:creator>
     <cc:Agent>
      <dc:title>Matplotlib v3.10.8, https://matplotlib.org/</dc:title>
     </cc:Agent>
    </dc:creator>
   </cc:Work>
  </rdf:RDF>
 </metadata>
 <defs>
  <style type="text/css">*{stroke-linejoin: round; stroke-linecap: butt}</style>
 </defs>
 <g id="figure_1">
  <g id="patch_1">
   <path d="M 0 144.082025 
L 393.84 144.082025 
L 393.84 0 
L 0 0 
z
" style="fill: #ffffff"/>
  </g>
  <g id="axes_1">
   <g id="patch_2">
    <path d="M 63.604075 48.415536 
Q 86.696603 56.113045 108.304206 63.315579 
" style="fill: none; stroke: #7f7f7f; stroke-width: 1.4; stroke-linecap: round"/>
    <path d="M 104.509473 59.520846 
L 108.304206 63.315579 
L 102.991579 64.074526 
" style="fill: none; stroke: #7f7f7f; stroke-width: 1.4; stroke-linecap: round"/>
   </g>
   <g id="patch_3">
    <path d="M 63.604075 100.469528 
Q 86.696603 92.772019 108.304206 85.569484 
" style="fill: none; stroke: #7f7f7f; stroke-width: 1.4; stroke-linecap: round"/>
    <path d="M 102.991579 84.810538 
L 108.304206 85.569484 
L 104.509473 89.364217 
" style="fill: none; stroke: #7f7f7f; stroke-width: 1.4; stroke-linecap: round"/>
   </g>
   <g id="patch_4">
    <path d="M 175.306329 74.442532 
Q 188.514684 74.442532 200.15779 74.442532 
" style="fill: none; stroke: #7f7f7f; stroke-width: 1.4; stroke-linecap: round"/>
    <path d="M 195.35779 72.042532 
L 200.15779 74.442532 
L 195.35779 76.842532 
" style="fill: none; stroke: #7f7f7f; stroke-width: 1.4; stroke-linecap: round"/>
   </g>
   <g id="patch_5">
    <path d="M 64.493913 44.862937 
Q 133.365382 56.621481 200.69393 68.116599 
" style="fill: none; stroke: #7f7f7f; stroke-width: 1.4; stroke-linecap: round"/>
    <path d="M 196.366307 64.943008 
L 200.69393 68.116599 
L 195.558484 69.674543 
" style="fill: none; stroke: #7f7f7f; stroke-width: 1.4; stroke-linecap: round"/>
   </g>
   <g id="patch_6">
    <path d="M 273.768608 74.442532 
Q 290.579241 82.847848 305.989873 75.142532 
" style="fill: none; stroke: #7f7f7f; stroke-width: 1.4; stroke-linecap: round"/>
    <path d="M 300.62331 75.142532 
L 305.989873 75.142532 
L 302.769936 79.435782 
" style="fill: none; stroke: #7f7f7f; stroke-width: 1.4; stroke-linecap: round"/>
   </g>
   <g id="patch_7">
    <path d="M 273.768608 74.442532 
Q 290.579241 66.037215 305.989873 73.742532 
" style="fill: none; stroke: #7f7f7f; stroke-width: 1.4; stroke-linecap: round"/>
    <path d="M 302.769936 69.449281 
L 305.989873 73.742532 
L 300.62331 73.742532 
" style="fill: none; stroke: #7f7f7f; stroke-width: 1.4; stroke-linecap: round"/>
   </g>
   <g id="patch_8">
    <path d="M 24.010633 56.190987 
L 57.631899 56.190987 
Q 63.395544 56.190987 63.395544 50.427342 
L 63.395544 31.21519 
Q 63.395544 25.451544 57.631899 25.451544 
L 24.010633 25.451544 
Q 18.246987 25.451544 18.246987 31.21519 
L 18.246987 50.427342 
Q 18.246987 56.190987 24.010633 56.190987 
z
" clip-path="url(#pdd368ff829)" style="fill: #cfcfcf; stroke: #000000; stroke-width: 1.2; stroke-linejoin: miter"/>
   </g>
   <g id="patch_9">
    <path d="M 24.010633 123.433519 
L 57.631899 123.433519 
Q 63.395544 123.433519 63.395544 117.669873 
L 63.395544 98.457722 
Q 63.395544 92.694076 57.631899 92.694076 
L 24.010633 92.694076 
Q 18.246987 92.694076 18.246987 98.457722 
L 18.246987 117.669873 
Q 18.246987 123.433519 24.010633 123.433519 
z
" clip-path="url(#pdd368ff829)" style="fill: #cfcfcf; stroke: #000000; stroke-width: 1.2; stroke-linejoin: miter"/>
   </g>
   <g id="patch_10">
    <path d="M 115.268354 89.812253 
L 168.101772 89.812253 
Q 173.865418 89.812253 173.865418 84.048608 
L 173.865418 64.836456 
Q 173.865418 59.07281 168.101772 59.07281 
L 115.268354 59.07281 
Q 109.504709 59.07281 109.504709 64.836456 
L 109.504709 84.048608 
Q 109.504709 89.812253 115.268354 89.812253 
z
" clip-path="url(#pdd368ff829)" style="fill: #1f77b4; stroke: #000000; stroke-width: 1.2; stroke-linejoin: miter"/>
   </g>
   <g id="patch_11">
    <path d="M 208.927595 89.812253 
L 266.564051 89.812253 
Q 272.327696 89.812253 272.327696 84.048608 
L 272.327696 64.836456 
Q 272.327696 59.07281 266.564051 59.07281 
L 208.927595 59.07281 
Q 203.163949 59.07281 203.163949 64.836456 
L 203.163949 84.048608 
Q 203.163949 89.812253 208.927595 89.812253 
z
" clip-path="url(#pdd368ff829)" style="fill: #1f77b4; stroke: #000000; stroke-width: 1.2; stroke-linejoin: miter"/>
   </g>
   <g id="patch_12">
    <path d="M 314.59443 89.812253 
L 372.230886 89.812253 
Q 377.994532 89.812253 377.994532 84.048608 
L 377.994532 64.836456 
Q 377.994532 59.07281 372.230886 59.07281 
L 314.59443 59.07281 
Q 308.830785 59.07281 308.830785 64.836456 
L 308.830785 84.048608 
Q 308.830785 89.812253 314.59443 89.812253 
z
" clip-path="url(#pdd368ff829)" style="fill: #ff7f0e; stroke: #000000; stroke-width: 1.2; stroke-linejoin: miter"/>
   </g>
   <g id="text_1">
    <!-- $u$ fans out (diamond) -->
    <g style="fill: #7f7f7f" transform="translate(44.439146 24.010633) scale(0.085 -0.085)">
     <defs>
      <path id="Cmmi10-75" d="M 678 697 
Q 678 906 734 1126 
Q 791 1347 892 1617 
Q 994 1888 1069 2088 
Q 1153 2322 1153 2472 
Q 1153 2663 1013 2663 
Q 759 2663 595 2402 
Q 431 2141 353 1819 
Q 341 1778 300 1778 
L 225 1778 
Q 172 1778 172 1838 
L 172 1856 
Q 275 2238 487 2533 
Q 700 2828 1025 2828 
Q 1253 2828 1411 2678 
Q 1569 2528 1569 2297 
Q 1569 2178 1516 2047 
Q 1488 1969 1388 1706 
Q 1288 1444 1234 1272 
Q 1181 1100 1147 934 
Q 1113 769 1113 603 
Q 1113 391 1203 244 
Q 1294 97 1497 97 
Q 1906 97 2216 603 
Q 2222 628 2226 651 
Q 2231 675 2234 697 
L 2694 2553 
Q 2716 2638 2794 2698 
Q 2872 2759 2963 2759 
Q 3041 2759 3098 2709 
Q 3156 2659 3156 2578 
Q 3156 2541 3150 2528 
L 2688 684 
Q 2644 494 2644 372 
Q 2644 97 2828 97 
Q 3034 97 3136 351 
Q 3238 606 3309 941 
Q 3322 978 3359 978 
L 3438 978 
Q 3463 978 3478 956 
Q 3494 934 3494 916 
Q 3425 641 3361 444 
Q 3297 247 3159 87 
Q 3022 -72 2816 -72 
Q 2613 -72 2452 39 
Q 2291 150 2234 341 
Q 2088 153 1894 40 
Q 1700 -72 1484 -72 
Q 1116 -72 897 129 
Q 678 331 678 697 
z
" transform="scale(0.015625)"/>
      <path id="DejaVuSans-20" transform="scale(0.015625)"/>
      <path id="DejaVuSans-66" d="M 2375 4863 
L 2375 4384 
L 1825 4384 
Q 1516 4384 1395 4259 
Q 1275 4134 1275 3809 
L 1275 3500 
L 2222 3500 
L 2222 3053 
L 1275 3053 
L 1275 0 
L 697 0 
L 697 3053 
L 147 3053 
L 147 3500 
L 697 3500 
L 697 3744 
Q 697 4328 969 4595 
Q 1241 4863 1831 4863 
L 2375 4863 
z
" transform="scale(0.015625)"/>
      <path id="DejaVuSans-61" d="M 2194 1759 
Q 1497 1759 1228 1600 
Q 959 1441 959 1056 
Q 959 750 1161 570 
Q 1363 391 1709 391 
Q 2188 391 2477 730 
Q 2766 1069 2766 1631 
L 2766 1759 
L 2194 1759 
z
M 3341 1997 
L 3341 0 
L 2766 0 
L 2766 531 
Q 2569 213 2275 61 
Q 1981 -91 1556 -91 
Q 1019 -91 701 211 
Q 384 513 384 1019 
Q 384 1609 779 1909 
Q 1175 2209 1959 2209 
L 2766 2209 
L 2766 2266 
Q 2766 2663 2505 2880 
Q 2244 3097 1772 3097 
Q 1472 3097 1187 3025 
Q 903 2953 641 2809 
L 641 3341 
Q 956 3463 1253 3523 
Q 1550 3584 1831 3584 
Q 2591 3584 2966 3190 
Q 3341 2797 3341 1997 
z
" transform="scale(0.015625)"/>
      <path id="DejaVuSans-6e" d="M 3513 2113 
L 3513 0 
L 2938 0 
L 2938 2094 
Q 2938 2591 2744 2837 
Q 2550 3084 2163 3084 
Q 1697 3084 1428 2787 
Q 1159 2491 1159 1978 
L 1159 0 
L 581 0 
L 581 3500 
L 1159 3500 
L 1159 2956 
Q 1366 3272 1645 3428 
Q 1925 3584 2291 3584 
Q 2894 3584 3203 3211 
Q 3513 2838 3513 2113 
z
" transform="scale(0.015625)"/>
      <path id="DejaVuSans-73" d="M 2834 3397 
L 2834 2853 
Q 2591 2978 2328 3040 
Q 2066 3103 1784 3103 
Q 1356 3103 1142 2972 
Q 928 2841 928 2578 
Q 928 2378 1081 2264 
Q 1234 2150 1697 2047 
L 1894 2003 
Q 2506 1872 2764 1633 
Q 3022 1394 3022 966 
Q 3022 478 2636 193 
Q 2250 -91 1575 -91 
Q 1294 -91 989 -36 
Q 684 19 347 128 
L 347 722 
Q 666 556 975 473 
Q 1284 391 1588 391 
Q 1994 391 2212 530 
Q 2431 669 2431 922 
Q 2431 1156 2273 1281 
Q 2116 1406 1581 1522 
L 1381 1569 
Q 847 1681 609 1914 
Q 372 2147 372 2553 
Q 372 3047 722 3315 
Q 1072 3584 1716 3584 
Q 2034 3584 2315 3537 
Q 2597 3491 2834 3397 
z
" transform="scale(0.015625)"/>
      <path id="DejaVuSans-6f" d="M 1959 3097 
Q 1497 3097 1228 2736 
Q 959 2375 959 1747 
Q 959 1119 1226 758 
Q 1494 397 1959 397 
Q 2419 397 2687 759 
Q 2956 1122 2956 1747 
Q 2956 2369 2687 2733 
Q 2419 3097 1959 3097 
z
M 1959 3584 
Q 2709 3584 3137 3096 
Q 3566 2609 3566 1747 
Q 3566 888 3137 398 
Q 2709 -91 1959 -91 
Q 1206 -91 779 398 
Q 353 888 353 1747 
Q 353 2609 779 3096 
Q 1206 3584 1959 3584 
z
" transform="scale(0.015625)"/>
      <path id="DejaVuSans-75" d="M 544 1381 
L 544 3500 
L 1119 3500 
L 1119 1403 
Q 1119 906 1312 657 
Q 1506 409 1894 409 
Q 2359 409 2629 706 
Q 2900 1003 2900 1516 
L 2900 3500 
L 3475 3500 
L 3475 0 
L 2900 0 
L 2900 538 
Q 2691 219 2414 64 
Q 2138 -91 1772 -91 
Q 1169 -91 856 284 
Q 544 659 544 1381 
z
M 1991 3584 
L 1991 3584 
z
" transform="scale(0.015625)"/>
      <path id="DejaVuSans-74" d="M 1172 4494 
L 1172 3500 
L 2356 3500 
L 2356 3053 
L 1172 3053 
L 1172 1153 
Q 1172 725 1289 603 
Q 1406 481 1766 481 
L 2356 481 
L 2356 0 
L 1766 0 
Q 1100 0 847 248 
Q 594 497 594 1153 
L 594 3053 
L 172 3053 
L 172 3500 
L 594 3500 
L 594 4494 
L 1172 4494 
z
" transform="scale(0.015625)"/>
      <path id="DejaVuSans-28" d="M 1984 4856 
Q 1566 4138 1362 3434 
Q 1159 2731 1159 2009 
Q 1159 1288 1364 580 
Q 1569 -128 1984 -844 
L 1484 -844 
Q 1016 -109 783 600 
Q 550 1309 550 2009 
Q 550 2706 781 3412 
Q 1013 4119 1484 4856 
L 1984 4856 
z
" transform="scale(0.015625)"/>
      <path id="DejaVuSans-64" d="M 2906 2969 
L 2906 4863 
L 3481 4863 
L 3481 0 
L 2906 0 
L 2906 525 
Q 2725 213 2448 61 
Q 2172 -91 1784 -91 
Q 1150 -91 751 415 
Q 353 922 353 1747 
Q 353 2572 751 3078 
Q 1150 3584 1784 3584 
Q 2172 3584 2448 3432 
Q 2725 3281 2906 2969 
z
M 947 1747 
Q 947 1113 1208 752 
Q 1469 391 1925 391 
Q 2381 391 2643 752 
Q 2906 1113 2906 1747 
Q 2906 2381 2643 2742 
Q 2381 3103 1925 3103 
Q 1469 3103 1208 2742 
Q 947 2381 947 1747 
z
" transform="scale(0.015625)"/>
      <path id="DejaVuSans-69" d="M 603 3500 
L 1178 3500 
L 1178 0 
L 603 0 
L 603 3500 
z
M 603 4863 
L 1178 4863 
L 1178 4134 
L 603 4134 
L 603 4863 
z
" transform="scale(0.015625)"/>
      <path id="DejaVuSans-6d" d="M 3328 2828 
Q 3544 3216 3844 3400 
Q 4144 3584 4550 3584 
Q 5097 3584 5394 3201 
Q 5691 2819 5691 2113 
L 5691 0 
L 5113 0 
L 5113 2094 
Q 5113 2597 4934 2840 
Q 4756 3084 4391 3084 
Q 3944 3084 3684 2787 
Q 3425 2491 3425 1978 
L 3425 0 
L 2847 0 
L 2847 2094 
Q 2847 2600 2669 2842 
Q 2491 3084 2119 3084 
Q 1678 3084 1418 2786 
Q 1159 2488 1159 1978 
L 1159 0 
L 581 0 
L 581 3500 
L 1159 3500 
L 1159 2956 
Q 1356 3278 1631 3431 
Q 1906 3584 2284 3584 
Q 2666 3584 2933 3390 
Q 3200 3197 3328 2828 
z
" transform="scale(0.015625)"/>
      <path id="DejaVuSans-29" d="M 513 4856 
L 1013 4856 
Q 1481 4119 1714 3412 
Q 1947 2706 1947 2009 
Q 1947 1309 1714 600 
Q 1481 -109 1013 -844 
L 513 -844 
Q 928 -128 1133 580 
Q 1338 1288 1338 2009 
Q 1338 2731 1133 3434 
Q 928 4138 513 4856 
z
" transform="scale(0.015625)"/>
     </defs>
     <use xlink:href="#Cmmi10-75" transform="translate(0 0.015625)"/>
     <use xlink:href="#DejaVuSans-20" transform="translate(57.177734 0.015625)"/>
     <use xlink:href="#DejaVuSans-66" transform="translate(88.964844 0.015625)"/>
     <use xlink:href="#DejaVuSans-61" transform="translate(124.169922 0.015625)"/>
     <use xlink:href="#DejaVuSans-6e" transform="translate(185.449219 0.015625)"/>
     <use xlink:href="#DejaVuSans-73" transform="translate(248.828125 0.015625)"/>
     <use xlink:href="#DejaVuSans-20" transform="translate(300.927734 0.015625)"/>
     <use xlink:href="#DejaVuSans-6f" transform="translate(332.714844 0.015625)"/>
     <use xlink:href="#DejaVuSans-75" transform="translate(393.896484 0.015625)"/>
     <use xlink:href="#DejaVuSans-74" transform="translate(457.275391 0.015625)"/>
     <use xlink:href="#DejaVuSans-20" transform="translate(496.484375 0.015625)"/>
     <use xlink:href="#DejaVuSans-28" transform="translate(528.271484 0.015625)"/>
     <use xlink:href="#DejaVuSans-64" transform="translate(567.285156 0.015625)"/>
     <use xlink:href="#DejaVuSans-69" transform="translate(630.761719 0.015625)"/>
     <use xlink:href="#DejaVuSans-61" transform="translate(658.544922 0.015625)"/>
     <use xlink:href="#DejaVuSans-6d" transform="translate(719.824219 0.015625)"/>
     <use xlink:href="#DejaVuSans-6f" transform="translate(817.236328 0.015625)"/>
     <use xlink:href="#DejaVuSans-6e" transform="translate(878.417969 0.015625)"/>
     <use xlink:href="#DejaVuSans-64" transform="translate(941.796875 0.015625)"/>
     <use xlink:href="#DejaVuSans-29" transform="translate(1005.273438 0.015625)"/>
    </g>
   </g>
   <g id="text_2">
    <!-- $\bar r=\bar y\,r+\bar y\,r$  (+= twice) -->
    <g style="fill: #ff7f0e" transform="translate(244.041741 110.465316) scale(0.085 -0.085)">
     <defs>
      <path id="Cmr10-b9" d="M 441 3553 
L 441 3775 
L 2753 3775 
L 2753 3553 
L 441 3553 
z
" transform="scale(0.015625)"/>
      <path id="Cmmi10-72" d="M 494 109 
Q 494 147 500 166 
L 978 2075 
Q 1025 2253 1025 2388 
Q 1025 2663 838 2663 
Q 638 2663 541 2423 
Q 444 2184 353 1819 
Q 353 1800 334 1789 
Q 316 1778 300 1778 
L 225 1778 
Q 203 1778 187 1801 
Q 172 1825 172 1844 
Q 241 2122 305 2315 
Q 369 2509 505 2668 
Q 641 2828 844 2828 
Q 1066 2828 1233 2700 
Q 1400 2572 1441 2363 
Q 1603 2575 1811 2701 
Q 2019 2828 2266 2828 
Q 2469 2828 2623 2709 
Q 2778 2591 2778 2388 
Q 2778 2225 2676 2104 
Q 2575 1984 2406 1984 
Q 2303 1984 2233 2048 
Q 2163 2113 2163 2216 
Q 2163 2356 2266 2467 
Q 2369 2578 2503 2578 
Q 2400 2663 2253 2663 
Q 1978 2663 1775 2467 
Q 1572 2272 1409 1972 
L 953 141 
Q 931 53 854 -9 
Q 778 -72 684 -72 
Q 606 -72 550 -22 
Q 494 28 494 109 
z
" transform="scale(0.015625)"/>
      <path id="Cmr10-3d" d="M 481 850 
Q 428 850 393 890 
Q 359 931 359 978 
Q 359 1031 393 1068 
Q 428 1106 481 1106 
L 4500 1106 
Q 4547 1106 4581 1068 
Q 4616 1031 4616 978 
Q 4616 931 4581 890 
Q 4547 850 4500 850 
L 481 850 
z
M 481 2094 
Q 428 2094 393 2131 
Q 359 2169 359 2222 
Q 359 2269 393 2309 
Q 428 2350 481 2350 
L 4500 2350 
Q 4547 2350 4581 2309 
Q 4616 2269 4616 2222 
Q 4616 2169 4581 2131 
Q 4547 2094 4500 2094 
L 481 2094 
z
" transform="scale(0.015625)"/>
      <path id="Cmmi10-79" d="M 538 -916 
Q 672 -1147 1006 -1147 
Q 1309 -1147 1531 -934 
Q 1753 -722 1889 -420 
Q 2025 -119 2100 197 
Q 1816 -72 1484 -72 
Q 1231 -72 1053 15 
Q 875 103 776 276 
Q 678 450 678 697 
Q 678 906 734 1126 
Q 791 1347 892 1617 
Q 994 1888 1069 2088 
Q 1153 2322 1153 2472 
Q 1153 2663 1013 2663 
Q 759 2663 595 2402 
Q 431 2141 353 1819 
Q 341 1778 300 1778 
L 225 1778 
Q 172 1778 172 1838 
L 172 1856 
Q 275 2238 487 2533 
Q 700 2828 1025 2828 
Q 1253 2828 1411 2678 
Q 1569 2528 1569 2297 
Q 1569 2178 1516 2047 
Q 1488 1969 1388 1706 
Q 1288 1444 1234 1272 
Q 1181 1100 1147 934 
Q 1113 769 1113 603 
Q 1113 391 1203 244 
Q 1294 97 1491 97 
Q 1888 97 2203 581 
L 2688 2553 
Q 2709 2638 2787 2698 
Q 2866 2759 2956 2759 
Q 3034 2759 3092 2709 
Q 3150 2659 3150 2578 
Q 3150 2541 3144 2528 
L 2509 -19 
Q 2425 -347 2200 -647 
Q 1975 -947 1658 -1130 
Q 1341 -1313 997 -1313 
Q 831 -1313 668 -1248 
Q 506 -1184 406 -1056 
Q 306 -928 306 -756 
Q 306 -581 409 -453 
Q 513 -325 684 -325 
Q 788 -325 858 -389 
Q 928 -453 928 -556 
Q 928 -703 818 -812 
Q 709 -922 563 -922 
Q 556 -919 550 -917 
Q 544 -916 538 -916 
z
" transform="scale(0.015625)"/>
      <path id="Cmr10-2b" d="M 481 1472 
Q 428 1472 393 1512 
Q 359 1553 359 1600 
Q 359 1647 393 1687 
Q 428 1728 481 1728 
L 2363 1728 
L 2363 3616 
Q 2363 3666 2400 3698 
Q 2438 3731 2491 3731 
Q 2538 3731 2578 3698 
Q 2619 3666 2619 3616 
L 2619 1728 
L 4500 1728 
Q 4547 1728 4581 1687 
Q 4616 1647 4616 1600 
Q 4616 1553 4581 1512 
Q 4547 1472 4500 1472 
L 2619 1472 
L 2619 -416 
Q 2619 -466 2578 -498 
Q 2538 -531 2491 -531 
Q 2438 -531 2400 -498 
Q 2363 -466 2363 -416 
L 2363 1472 
L 481 1472 
z
" transform="scale(0.015625)"/>
      <path id="DejaVuSans-2b" d="M 2944 4013 
L 2944 2272 
L 4684 2272 
L 4684 1741 
L 2944 1741 
L 2944 0 
L 2419 0 
L 2419 1741 
L 678 1741 
L 678 2272 
L 2419 2272 
L 2419 4013 
L 2944 4013 
z
" transform="scale(0.015625)"/>
      <path id="DejaVuSans-3d" d="M 678 2906 
L 4684 2906 
L 4684 2381 
L 678 2381 
L 678 2906 
z
M 678 1631 
L 4684 1631 
L 4684 1100 
L 678 1100 
L 678 1631 
z
" transform="scale(0.015625)"/>
      <path id="DejaVuSans-77" d="M 269 3500 
L 844 3500 
L 1563 769 
L 2278 3500 
L 2956 3500 
L 3675 769 
L 4391 3500 
L 4966 3500 
L 4050 0 
L 3372 0 
L 2619 2869 
L 1863 0 
L 1184 0 
L 269 3500 
z
" transform="scale(0.015625)"/>
      <path id="DejaVuSans-63" d="M 3122 3366 
L 3122 2828 
Q 2878 2963 2633 3030 
Q 2388 3097 2138 3097 
Q 1578 3097 1268 2742 
Q 959 2388 959 1747 
Q 959 1106 1268 751 
Q 1578 397 2138 397 
Q 2388 397 2633 464 
Q 2878 531 3122 666 
L 3122 134 
Q 2881 22 2623 -34 
Q 2366 -91 2075 -91 
Q 1284 -91 818 406 
Q 353 903 353 1747 
Q 353 2603 823 3093 
Q 1294 3584 2113 3584 
Q 2378 3584 2631 3529 
Q 2884 3475 3122 3366 
z
" transform="scale(0.015625)"/>
      <path id="DejaVuSans-65" d="M 3597 1894 
L 3597 1613 
L 953 1613 
Q 991 1019 1311 708 
Q 1631 397 2203 397 
Q 2534 397 2845 478 
Q 3156 559 3463 722 
L 3463 178 
Q 3153 47 2828 -22 
Q 2503 -91 2169 -91 
Q 1331 -91 842 396 
Q 353 884 353 1716 
Q 353 2575 817 3079 
Q 1281 3584 2069 3584 
Q 2775 3584 3186 3129 
Q 3597 2675 3597 1894 
z
M 3022 2063 
Q 3016 2534 2758 2815 
Q 2500 3097 2075 3097 
Q 1594 3097 1305 2825 
Q 1016 2553 972 2059 
L 3022 2063 
z
" transform="scale(0.015625)"/>
     </defs>
     <use xlink:href="#Cmr10-b9" transform="translate(0.289062 1.1875)"/>
     <use xlink:href="#Cmmi10-72" transform="translate(0 0.015625)"/>
     <use xlink:href="#Cmr10-3d" transform="translate(62.675781 0.015625)"/>
     <use xlink:href="#Cmr10-b9" transform="translate(161.662109 1.1875)"/>
     <use xlink:href="#Cmmi10-79" transform="translate(157.919922 0.015625)"/>
     <use xlink:href="#Cmmi10-72" transform="translate(221.575813 0.015625)"/>
     <use xlink:href="#Cmr10-2b" transform="translate(284.251595 0.015625)"/>
     <use xlink:href="#Cmr10-b9" transform="translate(383.237923 1.1875)"/>
     <use xlink:href="#Cmmi10-79" transform="translate(379.495735 0.015625)"/>
     <use xlink:href="#Cmmi10-72" transform="translate(443.151627 0.015625)"/>
     <use xlink:href="#DejaVuSans-20" transform="translate(488.268814 0.015625)"/>
     <use xlink:href="#DejaVuSans-20" transform="translate(520.055924 0.015625)"/>
     <use xlink:href="#DejaVuSans-28" transform="translate(551.843033 0.015625)"/>
     <use xlink:href="#DejaVuSans-2b" transform="translate(590.856705 0.015625)"/>
     <use xlink:href="#DejaVuSans-3d" transform="translate(674.645768 0.015625)"/>
     <use xlink:href="#DejaVuSans-20" transform="translate(758.43483 0.015625)"/>
     <use xlink:href="#DejaVuSans-74" transform="translate(790.221939 0.015625)"/>
     <use xlink:href="#DejaVuSans-77" transform="translate(829.430924 0.015625)"/>
     <use xlink:href="#DejaVuSans-69" transform="translate(911.218033 0.015625)"/>
     <use xlink:href="#DejaVuSans-63" transform="translate(939.001236 0.015625)"/>
     <use xlink:href="#DejaVuSans-65" transform="translate(993.981705 0.015625)"/>
     <use xlink:href="#DejaVuSans-29" transform="translate(1055.505143 0.015625)"/>
    </g>
   </g>
   <g id="text_3">
    <!-- $u$ -->
    <g transform="translate(37.776266 43.71861) scale(0.105 -0.105)">
     <use xlink:href="#Cmmi10-75" transform="translate(0 0.8125)"/>
    </g>
   </g>
   <g id="text_4">
    <!-- $v$ -->
    <g transform="translate(38.248766 110.961141) scale(0.105 -0.105)">
     <defs>
      <path id="Cmmi10-76" d="M 684 722 
Q 684 866 718 1037 
Q 753 1209 787 1320 
Q 822 1431 944 1753 
Q 1066 2075 1069 2088 
Q 1153 2322 1153 2472 
Q 1153 2663 1013 2663 
Q 759 2663 595 2402 
Q 431 2141 353 1819 
Q 341 1778 300 1778 
L 225 1778 
Q 172 1778 172 1838 
L 172 1856 
Q 275 2238 487 2533 
Q 700 2828 1025 2828 
Q 1253 2828 1411 2678 
Q 1569 2528 1569 2297 
Q 1569 2178 1516 2047 
Q 1391 1722 1319 1526 
Q 1247 1331 1186 1089 
Q 1125 847 1125 641 
Q 1125 400 1236 248 
Q 1347 97 1581 97 
Q 2025 97 2381 781 
Q 2494 1003 2594 1303 
Q 2694 1603 2694 1791 
Q 2694 1984 2631 2092 
Q 2569 2200 2469 2317 
Q 2369 2434 2369 2503 
Q 2369 2628 2472 2731 
Q 2575 2834 2700 2834 
Q 2853 2834 2920 2693 
Q 2988 2553 2988 2375 
Q 2988 2163 2927 1869 
Q 2866 1575 2758 1259 
Q 2650 944 2559 763 
Q 2138 -72 1575 -72 
Q 1172 -72 928 129 
Q 684 331 684 722 
z
" transform="scale(0.015625)"/>
     </defs>
     <use xlink:href="#Cmmi10-76" transform="translate(0 0.71875)"/>
    </g>
   </g>
   <g id="text_5">
    <!-- $t=uv$ -->
    <g transform="translate(128.297563 77.339875) scale(0.105 -0.105)">
     <defs>
      <path id="Cmmi10-74" d="M 397 519 
Q 397 613 416 697 
L 878 2534 
L 206 2534 
Q 141 2534 141 2619 
Q 166 2759 225 2759 
L 934 2759 
L 1191 3803 
Q 1216 3888 1291 3947 
Q 1366 4006 1459 4006 
Q 1541 4006 1595 3957 
Q 1650 3909 1650 3828 
Q 1650 3809 1648 3798 
Q 1647 3788 1644 3775 
L 1388 2759 
L 2047 2759 
Q 2113 2759 2113 2675 
Q 2109 2659 2100 2621 
Q 2091 2584 2075 2559 
Q 2059 2534 2028 2534 
L 1331 2534 
L 872 684 
Q 825 503 825 372 
Q 825 97 1013 97 
Q 1294 97 1511 361 
Q 1728 625 1844 941 
Q 1869 978 1894 978 
L 1972 978 
Q 1997 978 2012 961 
Q 2028 944 2028 922 
Q 2028 909 2022 903 
Q 1881 516 1612 222 
Q 1344 -72 997 -72 
Q 744 -72 570 93 
Q 397 259 397 519 
z
" transform="scale(0.015625)"/>
     </defs>
     <use xlink:href="#Cmmi10-74" transform="translate(0 0.40625)"/>
     <use xlink:href="#Cmr10-3d" transform="translate(53.642578 0.40625)"/>
     <use xlink:href="#Cmmi10-75" transform="translate(148.886719 0.40625)"/>
     <use xlink:href="#Cmmi10-76" transform="translate(206.064453 0.40625)"/>
    </g>
   </g>
   <g id="text_6">
    <!-- $r=t+u$ -->
    <g transform="translate(218.635823 77.339875) scale(0.105 -0.105)">
     <use xlink:href="#Cmmi10-72" transform="translate(0 0.40625)"/>
     <use xlink:href="#Cmr10-3d" transform="translate(62.675781 0.40625)"/>
     <use xlink:href="#Cmmi10-74" transform="translate(157.919922 0.40625)"/>
     <use xlink:href="#Cmr10-2b" transform="translate(211.5625 0.40625)"/>
     <use xlink:href="#Cmmi10-75" transform="translate(306.806641 0.40625)"/>
    </g>
   </g>
   <g id="text_7">
    <!-- $y=r\cdot r$ -->
    <g transform="translate(326.875158 77.318547) scale(0.105 -0.105)">
     <defs>
      <path id="Cmsy10-a2" d="M 538 1600 
Q 538 1691 584 1772 
Q 631 1853 714 1903 
Q 797 1953 891 1953 
Q 981 1953 1064 1903 
Q 1147 1853 1194 1772 
Q 1241 1691 1241 1600 
Q 1241 1456 1139 1351 
Q 1038 1247 891 1247 
Q 747 1247 642 1351 
Q 538 1456 538 1600 
z
" transform="scale(0.015625)"/>
     </defs>
     <use xlink:href="#Cmmi10-79" transform="translate(0 0.8125)"/>
     <use xlink:href="#Cmr10-3d" transform="translate(66.582031 0.8125)"/>
     <use xlink:href="#Cmmi10-72" transform="translate(161.826172 0.8125)"/>
     <use xlink:href="#Cmsy10-a2" transform="translate(224.501953 0.8125)"/>
     <use xlink:href="#Cmmi10-72" transform="translate(269.746094 0.8125)"/>
    </g>
   </g>
  </g>
 </g>
 <defs>
  <clipPath id="pdd368ff829">
   <rect x="7.2" y="7.2" width="379.44" height="129.682025"/>
  </clipPath>
 </defs>
</svg>
