<?xml version="1.0" encoding="utf-8" standalone="no"?>
<!DOCTYPE svg PUBLIC "-//W3C//DTD SVG 1.1//EN"
  "http://www.w3.org/Graphics/SVG/1.1/DTD/svg11.dtd">
<svg xmlns:xlink="http://www.w3.org/1999/xlink" width="438.48pt" height="213.141131pt" viewBox="0 0 438.48 213.141131" xmlns="http://www.w3.org/2000/svg" version="1.1">
 <metadata>
  <rdf:RDF xmlns:dc="http://purl.org/dc/elements/1.1/" xmlns:cc="http://creativecommons.org/ns#" xmlns:rdf="http://www.w3.org/1999/02/22-rdf-syntax-ns#">
   <cc:Work>
    <dc:type rdf:resource="http://purl.org/dc/dcmitype/StillImage"/>
    <dc:format>image/svg+xml</dc:format>
    <dc:creator>
     <cc:Agent>
      <dc:title>Matplotlib v3.10.8, https://matplotlib.org/</dc:title>
     </cc:Agent>
    </dc:creator>
   </cc:Work>
  </rdf:RDF>
 </metadata>
 <defs>
  <style type="text/css">*{stroke-linejoin: round; stroke-linecap: butt}</style>
 </defs>
 <g id="figure_1">
  <g id="patch_1">
   <path d="M 0 213.141131 
L 438.48 213.141131 
L 438.48 0 
L 0 0 
z
" style="fill: #ffffff"/>
  </g>
  <g id="axes_1">
   <g id="patch_2">
    <path d="M 7.2 205.941131 
L 207.237736 205.941131 
L 207.237736 23.837812 
L 7.2 23.837812 
z
" style="fill: #ffffff"/>
   </g>
   <g id="line2d_1">
    <path d="M 176.197398 128.685177 
L 176.059913 124.332244 
L 175.648008 119.996662 
L 174.963325 115.695716 
L 174.008592 111.446549 
L 172.787616 107.2661 
L 171.305263 103.171034 
L 169.567443 99.177675 
L 167.581084 95.301942 
L 165.354103 91.559284 
L 162.895378 87.964621 
L 160.21471 84.532281 
L 157.322785 81.275948 
L 154.231132 78.208603 
L 150.952073 75.342471 
L 147.498681 72.68898 
L 143.884722 70.258705 
L 140.124602 68.061336 
L 136.233311 66.105631 
L 132.226359 64.399386 
L 128.11972 62.949404 
L 123.929764 61.761463 
L 119.673193 60.840301 
L 115.366976 60.189587 
L 111.028278 59.811918 
L 106.674395 59.708797 
L 102.322682 59.880636 
L 97.990487 60.326751 
L 93.695079 61.045362 
L 89.45358 62.033605 
L 85.2829 63.287541 
L 81.199662 64.802171 
L 77.220145 66.571458 
L 73.360211 68.588348 
L 69.635248 70.844802 
L 66.060104 73.331824 
L 62.649032 76.039501 
L 59.415627 78.957039 
L 56.37278 82.072809 
L 53.532621 85.374388 
L 50.906471 88.848618 
L 48.504799 92.481647 
L 46.337178 96.258994 
L 44.412249 100.165602 
L 42.737686 104.185897 
L 41.320164 108.303853 
L 40.165333 112.503056 
L 39.277798 116.766765 
L 38.661096 121.077984 
L 38.317684 125.419528 
L 38.248934 129.774089 
L 38.455117 134.12431 
L 38.935414 138.452849 
L 39.687908 142.742451 
L 40.7096 146.976017 
L 41.996418 151.13667 
L 43.543231 155.207825 
L 45.343874 159.173252 
L 47.391169 163.017146 
L 49.676955 166.724182 
L 52.19212 170.279583 
L 54.926638 173.669177 
L 57.869608 176.879452 
L 61.009298 179.897609 
L 64.333193 182.71162 
L 67.828043 185.310265 
L 71.479917 187.683185 
L 75.274257 189.820923 
L 79.195937 191.714955 
L 83.229324 193.357732 
L 87.358341 194.742706 
L 91.566528 195.864354 
L 95.83711 196.718207 
L 100.153063 197.30086 
L 104.497182 197.609991 
L 108.852151 197.644368 
L 113.200609 197.403853 
L 117.525222 196.889405 
L 121.80875 196.103075 
L 126.034119 195.047997 
L 130.184486 193.728378 
L 134.243304 192.149478 
L 138.194395 190.31759 
L 142.022009 188.240017 
L 145.710887 185.925042 
L 149.246324 183.381891 
L 152.614228 180.620703 
L 155.801172 177.652485 
L 158.794454 174.489069 
L 161.582139 171.143066 
L 164.153117 167.627812 
L 166.497138 163.957322 
L 168.604859 160.146227 
L 170.467877 156.209719 
L 172.078766 152.16349 
L 173.431105 148.023669 
L 174.519502 143.80676 
L 175.339619 139.529571 
L 175.888186 135.209154 
L 176.163018 130.86273 
L 176.197398 128.685177 
L 176.197398 128.685177 
" clip-path="url(#pe4cd4ee7f1)" style="fill: none; stroke: #cfcfcf; stroke-width: 1.2; stroke-linecap: square"/>
   </g>
   <g id="matplotlib.axis_1"/>
   <g id="matplotlib.axis_2"/>
   <g id="line2d_2">
    <path d="M 132.559671 109.589512 
L 132.112355 109.009938 
L 131.651785 108.440837 
L 131.178208 107.882515 
L 130.691875 107.335267 
L 130.193046 106.799386 
L 129.681986 106.275156 
L 129.158968 105.762857 
L 128.624268 105.262761 
L 128.078173 104.775135 
L 127.520973 104.300238 
L 126.952964 103.838323 
L 126.37445 103.389636 
L 125.785737 102.954415 
L 125.18714 102.532894 
L 124.578977 102.125295 
L 123.961571 101.731836 
L 123.335253 101.352726 
L 122.700354 100.988168 
L 122.057213 100.638355 
L 121.406173 100.303473 
L 120.747579 99.983702 
L 120.081783 99.67921 
L 119.40914 99.390161 
L 118.730006 99.116707 
L 118.044744 98.858995 
L 117.353719 98.617162 
L 116.657298 98.391337 
L 115.955852 98.181639 
L 115.249755 97.988181 
L 114.539382 97.811065 
L 113.825113 97.650386 
L 113.107326 97.506229 
L 112.386404 97.378672 
L 111.662731 97.267781 
L 110.936692 97.173616 
L 110.208674 97.096227 
L 109.479064 97.035655 
L 108.748251 96.991933 
L 108.016624 96.965084 
L 107.284572 96.955122 
L 106.552485 96.962052 
L 105.820753 96.985871 
L 105.089766 97.026566 
L 104.359911 97.084116 
L 103.631579 97.158489 
L 102.905157 97.249646 
L 102.181031 97.357539 
L 101.459587 97.48211 
L 100.741209 97.623293 
L 100.02628 97.781012 
L 99.31518 97.955185 
L 98.608287 98.145717 
L 97.905979 98.352508 
L 97.208629 98.575447 
L 96.516608 98.814416 
L 95.830285 99.069288 
L 95.150024 99.339926 
L 94.476189 99.626188 
L 93.809138 99.927919 
" clip-path="url(#pe4cd4ee7f1)" style="fill: none; stroke: #2ca02c; stroke-width: 2.2; stroke-linecap: square"/>
   </g>
   <g id="patch_3">
    <path d="M 107.218868 128.685177 
Q 133.110558 109.174389 157.037865 91.14387 
" style="fill: none; stroke: #1f77b4; stroke-width: 2.2; stroke-linecap: round"/>
    <path d="M 150.880424 92.277855 
L 157.037865 91.14387 
L 154.250588 96.750214 
" style="fill: none; stroke: #1f77b4; stroke-width: 2.2; stroke-linecap: round"/>
   </g>
   <g id="patch_4">
    <path d="M 107.218868 128.685177 
Q 95.558233 103.678866 84.937102 80.901777 
" style="fill: none; stroke: #ff7f0e; stroke-width: 2.2; stroke-linecap: round"/>
    <path d="M 84.766103 87.160432 
L 84.937102 80.901777 
L 89.841426 84.79377 
" style="fill: none; stroke: #ff7f0e; stroke-width: 2.2; stroke-linecap: round"/>
   </g>
   <g id="text_1">
    <!-- $R_{1}\,\mathbf{q}$ -->
    <g style="fill: #1f77b4" transform="translate(161.65386 81.348969) scale(0.15 -0.15)">
     <defs>
      <path id="Cmmi10-52" d="M 313 0 
Q 250 0 250 84 
Q 253 100 262 139 
Q 272 178 289 201 
Q 306 225 331 225 
Q 722 225 878 269 
Q 959 297 997 441 
L 1875 3956 
Q 1888 4019 1888 4044 
Q 1888 4113 1813 4122 
Q 1691 4147 1350 4147 
Q 1288 4147 1288 4231 
Q 1291 4247 1300 4286 
Q 1309 4325 1326 4348 
Q 1344 4372 1369 4372 
L 3309 4372 
Q 3541 4372 3791 4319 
Q 4041 4266 4250 4152 
Q 4459 4038 4593 3848 
Q 4728 3659 4728 3406 
Q 4728 3084 4515 2831 
Q 4303 2578 3978 2408 
Q 3653 2238 3347 2169 
Q 3597 2078 3756 1879 
Q 3916 1681 3916 1422 
Q 3916 1388 3914 1370 
Q 3913 1353 3909 1331 
L 3859 763 
Q 3853 638 3847 550 
Q 3841 463 3841 409 
Q 3841 234 3892 129 
Q 3944 25 4097 25 
Q 4297 25 4448 211 
Q 4600 397 4647 616 
Q 4675 672 4709 672 
L 4769 672 
Q 4831 672 4831 588 
Q 4784 403 4682 237 
Q 4581 72 4426 -34 
Q 4272 -141 4091 -141 
Q 3716 -141 3452 26 
Q 3188 194 3188 550 
Q 3188 684 3213 788 
L 3353 1356 
Q 3378 1434 3378 1538 
Q 3378 1803 3198 1954 
Q 3019 2106 2747 2106 
L 1959 2106 
L 1538 416 
Q 1522 363 1522 325 
Q 1522 259 1600 250 
Q 1722 225 2059 225 
Q 2125 225 2125 141 
Q 2103 50 2090 25 
Q 2078 0 2016 0 
L 313 0 
z
M 1997 2272 
L 2706 2272 
Q 3403 2272 3756 2625 
Q 3919 2788 4014 3039 
Q 4109 3291 4109 3541 
Q 4109 3778 3970 3912 
Q 3831 4047 3626 4097 
Q 3422 4147 3175 4147 
L 2747 4147 
Q 2572 4147 2515 4117 
Q 2459 4088 2413 3928 
L 1997 2272 
z
" transform="scale(0.015625)"/>
      <path id="Cmr10-31" d="M 594 0 
L 594 225 
Q 1394 225 1394 428 
L 1394 3788 
Q 1063 3628 556 3628 
L 556 3853 
Q 1341 3853 1741 4263 
L 1831 4263 
Q 1853 4263 1873 4245 
Q 1894 4228 1894 4206 
L 1894 428 
Q 1894 225 2694 225 
L 2694 0 
L 594 0 
z
" transform="scale(0.015625)"/>
      <path id="Cmb10-71" d="M 1825 -1241 
L 1825 -916 
L 2266 -916 
L 2266 231 
Q 1938 -38 1544 -38 
Q 1131 -38 829 154 
Q 528 347 370 681 
Q 213 1016 213 1422 
Q 213 1831 380 2167 
Q 547 2503 864 2692 
Q 1181 2881 1600 2881 
Q 1838 2881 2053 2761 
Q 2269 2641 2406 2444 
L 2731 2881 
L 3022 2881 
L 3022 -916 
L 3463 -916 
L 3463 -1241 
L 1825 -1241 
z
M 1600 219 
Q 1834 219 2015 364 
Q 2197 509 2303 738 
L 2303 1972 
Q 2231 2234 2072 2415 
Q 1913 2597 1672 2597 
Q 1441 2597 1300 2397 
Q 1159 2197 1107 1926 
Q 1056 1656 1056 1422 
Q 1056 1013 1176 616 
Q 1297 219 1600 219 
z
" transform="scale(0.015625)"/>
     </defs>
     <use xlink:href="#Cmmi10-52" transform="translate(0 0.6875)"/>
     <use xlink:href="#Cmr10-31" transform="translate(75.878906 -16.31875) scale(0.7)"/>
     <use xlink:href="#Cmb10-71" transform="translate(131.888704 0.6875)"/>
    </g>
   </g>
   <g id="text_2">
    <!-- $R_{3}\,\mathbf{k}$ -->
    <g style="fill: #ff7f0e" transform="translate(61.277123 64.056884) scale(0.15 -0.15)">
     <defs>
      <path id="Cmr10-33" d="M 609 494 
Q 759 275 1012 169 
Q 1266 63 1556 63 
Q 1928 63 2084 380 
Q 2241 697 2241 1100 
Q 2241 1281 2208 1462 
Q 2175 1644 2097 1800 
Q 2019 1956 1883 2050 
Q 1747 2144 1550 2144 
L 1125 2144 
Q 1069 2144 1069 2203 
L 1069 2259 
Q 1069 2309 1125 2309 
L 1478 2338 
Q 1703 2338 1851 2506 
Q 2000 2675 2069 2917 
Q 2138 3159 2138 3378 
Q 2138 3684 1994 3881 
Q 1850 4078 1556 4078 
Q 1313 4078 1091 3986 
Q 869 3894 738 3706 
Q 750 3709 759 3711 
Q 769 3713 781 3713 
Q 925 3713 1022 3613 
Q 1119 3513 1119 3372 
Q 1119 3234 1022 3134 
Q 925 3034 781 3034 
Q 641 3034 541 3134 
Q 441 3234 441 3372 
Q 441 3647 606 3850 
Q 772 4053 1033 4158 
Q 1294 4263 1556 4263 
Q 1750 4263 1965 4205 
Q 2181 4147 2356 4039 
Q 2531 3931 2642 3762 
Q 2753 3594 2753 3378 
Q 2753 3109 2633 2881 
Q 2513 2653 2303 2487 
Q 2094 2322 1844 2241 
Q 2122 2188 2372 2031 
Q 2622 1875 2773 1631 
Q 2925 1388 2925 1106 
Q 2925 753 2731 467 
Q 2538 181 2222 20 
Q 1906 -141 1556 -141 
Q 1256 -141 954 -26 
Q 653 88 461 316 
Q 269 544 269 863 
Q 269 1022 375 1128 
Q 481 1234 641 1234 
Q 744 1234 830 1186 
Q 916 1138 964 1050 
Q 1013 963 1013 863 
Q 1013 706 903 600 
Q 794 494 641 494 
L 609 494 
z
" transform="scale(0.015625)"/>
      <path id="Cmb10-6b" d="M 91 0 
L 91 325 
L 531 325 
L 531 3884 
Q 531 4003 406 4033 
Q 281 4063 91 4063 
L 91 4391 
L 1247 4441 
L 1247 1619 
L 2150 2463 
Q 2150 2491 2040 2503 
Q 1931 2516 1863 2516 
L 1863 2841 
L 3122 2841 
L 3122 2516 
Q 2688 2516 2625 2456 
L 1906 1784 
L 2847 384 
Q 2913 325 3272 325 
L 3272 0 
L 1838 0 
L 1838 325 
Q 2075 325 2075 378 
L 1428 1338 
L 1216 1141 
L 1216 325 
L 1650 325 
L 1650 0 
L 91 0 
z
" transform="scale(0.015625)"/>
     </defs>
     <use xlink:href="#Cmmi10-52" transform="translate(0 0.609375)"/>
     <use xlink:href="#Cmr10-33" transform="translate(75.878906 -16.396875) scale(0.7)"/>
     <use xlink:href="#Cmb10-6b" transform="translate(131.888704 0.609375)"/>
    </g>
   </g>
   <g id="text_3">
    <g id="patch_5">
     <path d="M 93.186271 60.146873 
L 159.966271 60.146873 
Q 162.066271 60.146873 162.066271 58.046873 
L 162.066271 44.046873 
Q 162.066271 41.946873 159.966271 41.946873 
L 93.186271 41.946873 
Q 91.086271 41.946873 91.086271 44.046873 
L 91.086271 58.046873 
Q 91.086271 60.146873 93.186271 60.146873 
z
" style="fill: #ffffff"/>
    </g>
    <!-- $(j\!-\!i)\,\theta + \varphi$ -->
    <g style="fill: #2ca02c" transform="translate(93.186271 54.546873) scale(0.14 -0.14)">
     <defs>
      <path id="Cmr10-28" d="M 1984 -1588 
Q 1628 -1306 1370 -942 
Q 1113 -578 948 -165 
Q 784 247 703 697 
Q 622 1147 622 1600 
Q 622 2059 703 2509 
Q 784 2959 951 3375 
Q 1119 3791 1378 4153 
Q 1638 4516 1984 4788 
Q 1984 4800 2016 4800 
L 2075 4800 
Q 2094 4800 2109 4783 
Q 2125 4766 2125 4744 
Q 2125 4716 2113 4703 
Q 1800 4397 1592 4047 
Q 1384 3697 1257 3301 
Q 1131 2906 1075 2482 
Q 1019 2059 1019 1600 
Q 1019 -434 2106 -1491 
Q 2125 -1509 2125 -1544 
Q 2125 -1559 2108 -1579 
Q 2091 -1600 2075 -1600 
L 2016 -1600 
Q 1984 -1600 1984 -1588 
z
" transform="scale(0.015625)"/>
      <path id="Cmmi10-6a" d="M -84 -909 
Q -84 -753 23 -639 
Q 131 -525 288 -525 
Q 391 -525 461 -589 
Q 531 -653 531 -756 
Q 531 -878 454 -976 
Q 378 -1075 263 -1106 
Q 375 -1147 488 -1147 
Q 759 -1147 959 -895 
Q 1159 -644 1241 -331 
L 1844 2075 
Q 1888 2259 1888 2388 
Q 1888 2663 1697 2663 
Q 1416 2663 1205 2408 
Q 994 2153 863 1819 
Q 850 1778 813 1778 
L 738 1778 
Q 684 1778 684 1838 
L 684 1856 
Q 828 2241 1093 2534 
Q 1359 2828 1709 2828 
Q 1975 2828 2145 2662 
Q 2316 2497 2316 2241 
Q 2316 2150 2297 2059 
L 1691 -372 
Q 1625 -631 1440 -847 
Q 1256 -1063 1000 -1188 
Q 744 -1313 475 -1313 
Q 259 -1313 87 -1209 
Q -84 -1106 -84 -909 
z
M 1941 3878 
Q 1941 4019 2050 4125 
Q 2159 4231 2297 4231 
Q 2406 4231 2476 4164 
Q 2547 4097 2547 3994 
Q 2547 3850 2433 3742 
Q 2319 3634 2181 3634 
Q 2078 3634 2009 3706 
Q 1941 3778 1941 3878 
z
" transform="scale(0.015625)"/>
      <path id="Cmsy10-a1" d="M 653 1472 
Q 600 1472 565 1512 
Q 531 1553 531 1600 
Q 531 1647 565 1687 
Q 600 1728 653 1728 
L 4325 1728 
Q 4375 1728 4408 1687 
Q 4441 1647 4441 1600 
Q 4441 1553 4408 1512 
Q 4375 1472 4325 1472 
L 653 1472 
z
" transform="scale(0.015625)"/>
      <path id="Cmmi10-69" d="M 500 459 
Q 500 578 550 709 
L 1069 2088 
Q 1153 2322 1153 2472 
Q 1153 2663 1013 2663 
Q 759 2663 595 2402 
Q 431 2141 353 1819 
Q 341 1778 300 1778 
L 225 1778 
Q 172 1778 172 1838 
L 172 1856 
Q 275 2238 487 2533 
Q 700 2828 1025 2828 
Q 1253 2828 1411 2678 
Q 1569 2528 1569 2297 
Q 1569 2178 1516 2047 
L 997 672 
Q 909 459 909 288 
Q 909 97 1056 97 
Q 1306 97 1473 364 
Q 1641 631 1709 941 
Q 1722 978 1759 978 
L 1838 978 
Q 1863 978 1878 961 
Q 1894 944 1894 922 
Q 1894 916 1888 903 
Q 1800 541 1583 234 
Q 1366 -72 1044 -72 
Q 819 -72 659 83 
Q 500 238 500 459 
z
M 1222 3878 
Q 1222 4013 1334 4122 
Q 1447 4231 1581 4231 
Q 1691 4231 1761 4164 
Q 1831 4097 1831 3994 
Q 1831 3850 1717 3742 
Q 1603 3634 1466 3634 
Q 1363 3634 1292 3704 
Q 1222 3775 1222 3878 
z
" transform="scale(0.015625)"/>
      <path id="Cmr10-29" d="M 416 -1600 
Q 359 -1600 359 -1544 
Q 359 -1516 372 -1503 
Q 1466 -434 1466 1600 
Q 1466 3634 384 4691 
Q 359 4706 359 4744 
Q 359 4766 376 4783 
Q 394 4800 416 4800 
L 475 4800 
Q 494 4800 506 4788 
Q 966 4425 1272 3906 
Q 1578 3388 1720 2800 
Q 1863 2213 1863 1600 
Q 1863 1147 1786 708 
Q 1709 269 1542 -157 
Q 1375 -584 1119 -945 
Q 863 -1306 506 -1588 
Q 494 -1600 475 -1600 
L 416 -1600 
z
" transform="scale(0.015625)"/>
      <path id="Cmmi10-b5" d="M 1031 -72 
Q 741 -72 566 140 
Q 391 353 323 653 
Q 256 953 256 1247 
L 256 1253 
Q 256 1572 317 1915 
Q 378 2259 493 2601 
Q 609 2944 744 3213 
Q 838 3400 986 3631 
Q 1134 3863 1317 4064 
Q 1500 4266 1711 4389 
Q 1922 4513 2138 4513 
L 2144 4513 
Q 2375 4513 2529 4384 
Q 2684 4256 2770 4056 
Q 2856 3856 2890 3628 
Q 2925 3400 2925 3194 
Q 2925 2709 2794 2204 
Q 2663 1700 2431 1228 
Q 2344 1050 2189 809 
Q 2034 569 1861 378 
Q 1688 188 1472 58 
Q 1256 -72 1038 -72 
L 1031 -72 
z
M 1044 97 
Q 1256 97 1451 323 
Q 1647 550 1794 873 
Q 1941 1197 2052 1536 
Q 2163 1875 2216 2113 
L 909 2113 
Q 809 1709 753 1417 
Q 697 1125 697 844 
Q 697 97 1044 97 
z
M 959 2338 
L 2272 2338 
Q 2341 2619 2381 2808 
Q 2422 2997 2450 3206 
Q 2478 3416 2478 3597 
Q 2478 4347 2138 4347 
Q 1731 4347 1436 3692 
Q 1141 3038 959 2338 
z
" transform="scale(0.015625)"/>
      <path id="Cmr10-2b" d="M 481 1472 
Q 428 1472 393 1512 
Q 359 1553 359 1600 
Q 359 1647 393 1687 
Q 428 1728 481 1728 
L 2363 1728 
L 2363 3616 
Q 2363 3666 2400 3698 
Q 2438 3731 2491 3731 
Q 2538 3731 2578 3698 
Q 2619 3666 2619 3616 
L 2619 1728 
L 4500 1728 
Q 4547 1728 4581 1687 
Q 4616 1647 4616 1600 
Q 4616 1553 4581 1512 
Q 4547 1472 4500 1472 
L 2619 1472 
L 2619 -416 
Q 2619 -466 2578 -498 
Q 2538 -531 2491 -531 
Q 2438 -531 2400 -498 
Q 2363 -466 2363 -416 
L 2363 1472 
L 481 1472 
z
" transform="scale(0.015625)"/>
      <path id="Cmmi10-27" d="M 1044 -1216 
Q 1044 -1191 1056 -1141 
L 1416 -13 
Q 938 106 628 428 
Q 319 750 319 1216 
Q 319 1450 406 1744 
Q 494 2038 631 2302 
Q 769 2566 928 2741 
Q 966 2759 972 2759 
L 1050 2759 
Q 1069 2759 1084 2740 
Q 1100 2722 1100 2700 
Q 1100 2675 1088 2663 
Q 981 2547 879 2380 
Q 778 2213 698 2028 
Q 619 1844 566 1641 
Q 513 1438 513 1288 
Q 513 909 814 676 
Q 1116 444 1528 366 
L 1709 941 
Q 1828 1313 1945 1605 
Q 2063 1897 2239 2176 
Q 2416 2456 2666 2642 
Q 2916 2828 3225 2828 
Q 3469 2828 3633 2706 
Q 3797 2584 3876 2381 
Q 3956 2178 3956 1947 
Q 3956 1566 3787 1202 
Q 3619 838 3325 548 
Q 3031 259 2662 93 
Q 2294 -72 1919 -72 
Q 1869 -69 1811 -66 
Q 1753 -63 1716 -63 
L 1503 -1178 
Q 1484 -1272 1407 -1333 
Q 1331 -1394 1234 -1394 
Q 1156 -1394 1100 -1345 
Q 1044 -1297 1044 -1216 
z
M 1784 331 
Q 1856 325 1991 325 
Q 2388 325 2798 520 
Q 3209 716 3479 1056 
Q 3750 1397 3750 1797 
Q 3750 1978 3676 2122 
Q 3603 2266 3470 2348 
Q 3338 2431 3163 2431 
Q 2666 2431 2331 1950 
Q 1997 1469 1894 916 
L 1784 331 
z
" transform="scale(0.015625)"/>
     </defs>
     <use xlink:href="#Cmr10-28"/>
     <use xlink:href="#Cmmi10-6a" transform="translate(38.818359 0)"/>
     <use xlink:href="#Cmsy10-a1" transform="translate(82.85778 0)"/>
     <use xlink:href="#Cmmi10-69" transform="translate(163.469467 0)"/>
     <use xlink:href="#Cmr10-29" transform="translate(197.893295 0)"/>
     <use xlink:href="#Cmmi10-b5" transform="translate(251.344108 0)"/>
     <use xlink:href="#Cmr10-2b" transform="translate(315.82653 0)"/>
     <use xlink:href="#Cmmi10-27" transform="translate(411.070671 0)"/>
    </g>
   </g>
   <g id="text_4">
    <!-- positions (1, 3) -->
    <g transform="translate(54.801993 17.837813) scale(0.14 -0.14)">
     <defs>
      <path id="DejaVuSans-70" d="M 1159 525 
L 1159 -1331 
L 581 -1331 
L 581 3500 
L 1159 3500 
L 1159 2969 
Q 1341 3281 1617 3432 
Q 1894 3584 2278 3584 
Q 2916 3584 3314 3078 
Q 3713 2572 3713 1747 
Q 3713 922 3314 415 
Q 2916 -91 2278 -91 
Q 1894 -91 1617 61 
Q 1341 213 1159 525 
z
M 3116 1747 
Q 3116 2381 2855 2742 
Q 2594 3103 2138 3103 
Q 1681 3103 1420 2742 
Q 1159 2381 1159 1747 
Q 1159 1113 1420 752 
Q 1681 391 2138 391 
Q 2594 391 2855 752 
Q 3116 1113 3116 1747 
z
" transform="scale(0.015625)"/>
      <path id="DejaVuSans-6f" d="M 1959 3097 
Q 1497 3097 1228 2736 
Q 959 2375 959 1747 
Q 959 1119 1226 758 
Q 1494 397 1959 397 
Q 2419 397 2687 759 
Q 2956 1122 2956 1747 
Q 2956 2369 2687 2733 
Q 2419 3097 1959 3097 
z
M 1959 3584 
Q 2709 3584 3137 3096 
Q 3566 2609 3566 1747 
Q 3566 888 3137 398 
Q 2709 -91 1959 -91 
Q 1206 -91 779 398 
Q 353 888 353 1747 
Q 353 2609 779 3096 
Q 1206 3584 1959 3584 
z
" transform="scale(0.015625)"/>
      <path id="DejaVuSans-73" d="M 2834 3397 
L 2834 2853 
Q 2591 2978 2328 3040 
Q 2066 3103 1784 3103 
Q 1356 3103 1142 2972 
Q 928 2841 928 2578 
Q 928 2378 1081 2264 
Q 1234 2150 1697 2047 
L 1894 2003 
Q 2506 1872 2764 1633 
Q 3022 1394 3022 966 
Q 3022 478 2636 193 
Q 2250 -91 1575 -91 
Q 1294 -91 989 -36 
Q 684 19 347 128 
L 347 722 
Q 666 556 975 473 
Q 1284 391 1588 391 
Q 1994 391 2212 530 
Q 2431 669 2431 922 
Q 2431 1156 2273 1281 
Q 2116 1406 1581 1522 
L 1381 1569 
Q 847 1681 609 1914 
Q 372 2147 372 2553 
Q 372 3047 722 3315 
Q 1072 3584 1716 3584 
Q 2034 3584 2315 3537 
Q 2597 3491 2834 3397 
z
" transform="scale(0.015625)"/>
      <path id="DejaVuSans-69" d="M 603 3500 
L 1178 3500 
L 1178 0 
L 603 0 
L 603 3500 
z
M 603 4863 
L 1178 4863 
L 1178 4134 
L 603 4134 
L 603 4863 
z
" transform="scale(0.015625)"/>
      <path id="DejaVuSans-74" d="M 1172 4494 
L 1172 3500 
L 2356 3500 
L 2356 3053 
L 1172 3053 
L 1172 1153 
Q 1172 725 1289 603 
Q 1406 481 1766 481 
L 2356 481 
L 2356 0 
L 1766 0 
Q 1100 0 847 248 
Q 594 497 594 1153 
L 594 3053 
L 172 3053 
L 172 3500 
L 594 3500 
L 594 4494 
L 1172 4494 
z
" transform="scale(0.015625)"/>
      <path id="DejaVuSans-6e" d="M 3513 2113 
L 3513 0 
L 2938 0 
L 2938 2094 
Q 2938 2591 2744 2837 
Q 2550 3084 2163 3084 
Q 1697 3084 1428 2787 
Q 1159 2491 1159 1978 
L 1159 0 
L 581 0 
L 581 3500 
L 1159 3500 
L 1159 2956 
Q 1366 3272 1645 3428 
Q 1925 3584 2291 3584 
Q 2894 3584 3203 3211 
Q 3513 2838 3513 2113 
z
" transform="scale(0.015625)"/>
      <path id="DejaVuSans-20" transform="scale(0.015625)"/>
      <path id="DejaVuSans-28" d="M 1984 4856 
Q 1566 4138 1362 3434 
Q 1159 2731 1159 2009 
Q 1159 1288 1364 580 
Q 1569 -128 1984 -844 
L 1484 -844 
Q 1016 -109 783 600 
Q 550 1309 550 2009 
Q 550 2706 781 3412 
Q 1013 4119 1484 4856 
L 1984 4856 
z
" transform="scale(0.015625)"/>
      <path id="DejaVuSans-31" d="M 794 531 
L 1825 531 
L 1825 4091 
L 703 3866 
L 703 4441 
L 1819 4666 
L 2450 4666 
L 2450 531 
L 3481 531 
L 3481 0 
L 794 0 
L 794 531 
z
" transform="scale(0.015625)"/>
      <path id="DejaVuSans-2c" d="M 750 794 
L 1409 794 
L 1409 256 
L 897 -744 
L 494 -744 
L 750 256 
L 750 794 
z
" transform="scale(0.015625)"/>
      <path id="DejaVuSans-33" d="M 2597 2516 
Q 3050 2419 3304 2112 
Q 3559 1806 3559 1356 
Q 3559 666 3084 287 
Q 2609 -91 1734 -91 
Q 1441 -91 1130 -33 
Q 819 25 488 141 
L 488 750 
Q 750 597 1062 519 
Q 1375 441 1716 441 
Q 2309 441 2620 675 
Q 2931 909 2931 1356 
Q 2931 1769 2642 2001 
Q 2353 2234 1838 2234 
L 1294 2234 
L 1294 2753 
L 1863 2753 
Q 2328 2753 2575 2939 
Q 2822 3125 2822 3475 
Q 2822 3834 2567 4026 
Q 2313 4219 1838 4219 
Q 1578 4219 1281 4162 
Q 984 4106 628 3988 
L 628 4550 
Q 988 4650 1302 4700 
Q 1616 4750 1894 4750 
Q 2613 4750 3031 4423 
Q 3450 4097 3450 3541 
Q 3450 3153 3228 2886 
Q 3006 2619 2597 2516 
z
" transform="scale(0.015625)"/>
      <path id="DejaVuSans-29" d="M 513 4856 
L 1013 4856 
Q 1481 4119 1714 3412 
Q 1947 2706 1947 2009 
Q 1947 1309 1714 600 
Q 1481 -109 1013 -844 
L 513 -844 
Q 928 -128 1133 580 
Q 1338 1288 1338 2009 
Q 1338 2731 1133 3434 
Q 928 4138 513 4856 
z
" transform="scale(0.015625)"/>
     </defs>
     <use xlink:href="#DejaVuSans-70"/>
     <use xlink:href="#DejaVuSans-6f" transform="translate(63.476562 0)"/>
     <use xlink:href="#DejaVuSans-73" transform="translate(124.658203 0)"/>
     <use xlink:href="#DejaVuSans-69" transform="translate(176.757812 0)"/>
     <use xlink:href="#DejaVuSans-74" transform="translate(204.541016 0)"/>
     <use xlink:href="#DejaVuSans-69" transform="translate(243.75 0)"/>
     <use xlink:href="#DejaVuSans-6f" transform="translate(271.533203 0)"/>
     <use xlink:href="#DejaVuSans-6e" transform="translate(332.714844 0)"/>
     <use xlink:href="#DejaVuSans-73" transform="translate(396.09375 0)"/>
     <use xlink:href="#DejaVuSans-20" transform="translate(448.193359 0)"/>
     <use xlink:href="#DejaVuSans-28" transform="translate(479.980469 0)"/>
     <use xlink:href="#DejaVuSans-31" transform="translate(518.994141 0)"/>
     <use xlink:href="#DejaVuSans-2c" transform="translate(582.617188 0)"/>
     <use xlink:href="#DejaVuSans-20" transform="translate(614.404297 0)"/>
     <use xlink:href="#DejaVuSans-33" transform="translate(646.191406 0)"/>
     <use xlink:href="#DejaVuSans-29" transform="translate(709.814453 0)"/>
    </g>
   </g>
  </g>
  <g id="axes_2">
   <g id="patch_6">
    <path d="M 231.242264 205.941131 
L 431.28 205.941131 
L 431.28 23.837812 
L 231.242264 23.837812 
z
" style="fill: #ffffff"/>
   </g>
   <g id="line2d_3">
    <path d="M 400.239662 128.685177 
L 400.102177 124.332244 
L 399.690272 119.996662 
L 399.005589 115.695716 
L 398.050856 111.446549 
L 396.82988 107.2661 
L 395.347527 103.171034 
L 393.609708 99.177675 
L 391.623348 95.301942 
L 389.396367 91.559284 
L 386.937642 87.964621 
L 384.256974 84.532281 
L 381.365049 81.275948 
L 378.273396 78.208603 
L 374.994337 75.342471 
L 371.540945 72.68898 
L 367.926986 70.258705 
L 364.166867 68.061336 
L 360.275575 66.105631 
L 356.268623 64.399386 
L 352.161984 62.949404 
L 347.972028 61.761463 
L 343.715457 60.840301 
L 339.40924 60.189587 
L 335.070542 59.811918 
L 330.716659 59.708797 
L 326.364946 59.880636 
L 322.032751 60.326751 
L 317.737343 61.045362 
L 313.495845 62.033605 
L 309.325164 63.287541 
L 305.241926 64.802171 
L 301.262409 66.571458 
L 297.402475 68.588348 
L 293.677512 70.844802 
L 290.102369 73.331824 
L 286.691296 76.039501 
L 283.457891 78.957039 
L 280.415045 82.072809 
L 277.574885 85.374388 
L 274.948735 88.848618 
L 272.547063 92.481647 
L 270.379442 96.258994 
L 268.454513 100.165602 
L 266.77995 104.185897 
L 265.362428 108.303853 
L 264.207598 112.503056 
L 263.320062 116.766765 
L 262.70336 121.077984 
L 262.359949 125.419528 
L 262.291198 129.774089 
L 262.497382 134.12431 
L 262.977678 138.452849 
L 263.730172 142.742451 
L 264.751864 146.976017 
L 266.038682 151.13667 
L 267.585495 155.207825 
L 269.386138 159.173252 
L 271.433434 163.017146 
L 273.719219 166.724182 
L 276.234384 170.279583 
L 278.968902 173.669177 
L 281.911872 176.879452 
L 285.051562 179.897609 
L 288.375457 182.71162 
L 291.870308 185.310265 
L 295.522181 187.683185 
L 299.316521 189.820923 
L 303.238201 191.714955 
L 307.271588 193.357732 
L 311.400606 194.742706 
L 315.608793 195.864354 
L 319.879374 196.718207 
L 324.195327 197.30086 
L 328.539446 197.609991 
L 332.894415 197.644368 
L 337.242873 197.403853 
L 341.567486 196.889405 
L 345.851014 196.103075 
L 350.076384 195.047997 
L 354.22675 193.728378 
L 358.285568 192.149478 
L 362.236659 190.31759 
L 366.064273 188.240017 
L 369.753151 185.925042 
L 373.288588 183.381891 
L 376.656492 180.620703 
L 379.843437 177.652485 
L 382.836718 174.489069 
L 385.624404 171.143066 
L 388.195381 167.627812 
L 390.539403 163.957322 
L 392.647123 160.146227 
L 394.510141 156.209719 
L 396.12103 152.16349 
L 397.473369 148.023669 
L 398.561766 143.80676 
L 399.381883 139.529571 
L 399.93045 135.209154 
L 400.205282 130.86273 
L 400.239662 128.685177 
L 400.239662 128.685177 
" clip-path="url(#pcfb583ef12)" style="fill: none; stroke: #cfcfcf; stroke-width: 1.2; stroke-linecap: square"/>
   </g>
   <g id="matplotlib.axis_3"/>
   <g id="matplotlib.axis_4"/>
   <g id="line2d_4">
    <path d="M 319.374819 99.265519 
L 318.699218 99.547589 
L 318.030306 99.845171 
L 317.368437 100.158107 
L 316.713964 100.48623 
L 316.067236 100.829365 
L 315.428597 101.187331 
L 314.798386 101.559936 
L 314.176941 101.946981 
L 313.56459 102.348262 
L 312.961661 102.763563 
L 312.368473 103.192665 
L 311.785344 103.635338 
L 311.212584 104.091348 
L 310.650497 104.56045 
L 310.099382 105.042397 
L 309.559534 105.53693 
L 309.031239 106.043786 
L 308.514779 106.562697 
L 308.010428 107.093385 
L 307.518456 107.635568 
L 307.039123 108.188957 
L 306.572687 108.753258 
L 306.119393 109.328171 
L 305.679485 109.913389 
L 305.253195 110.5086 
L 304.840752 111.113488 
L 304.442374 111.727731 
L 304.058275 112.351002 
L 303.688657 112.982969 
L 303.333718 113.623295 
L 302.993647 114.27164 
L 302.668626 114.927659 
L 302.358826 115.591001 
L 302.064413 116.261315 
L 301.785544 116.938243 
L 301.522368 117.621424 
L 301.275023 118.310496 
L 301.043643 119.005091 
L 300.828349 119.70484 
L 300.629257 120.409369 
L 300.446474 121.118304 
L 300.280095 121.831268 
L 300.13021 122.547881 
L 299.996898 123.267761 
L 299.880231 123.990525 
L 299.78027 124.715788 
L 299.697069 125.443165 
L 299.630672 126.172268 
L 299.581114 126.902708 
L 299.548422 127.634098 
L 299.532613 128.366047 
L 299.533696 129.098166 
L 299.55167 129.830065 
L 299.586525 130.561354 
L 299.638244 131.291645 
L 299.706797 132.020548 
L 299.79215 132.747675 
L 299.894255 133.47264 
L 300.01306 134.195056 
" clip-path="url(#pcfb583ef12)" style="fill: none; stroke: #2ca02c; stroke-width: 2.2; stroke-linecap: square"/>
   </g>
   <g id="patch_7">
    <path d="M 331.261132 128.685177 
Q 319.11642 98.625961 307.893119 70.847316 
" style="fill: none; stroke: #1f77b4; stroke-width: 2.2; stroke-linecap: round"/>
    <path d="M 307.394801 77.088444 
L 307.893119 70.847316 
L 312.587031 74.990647 
" style="fill: none; stroke: #1f77b4; stroke-width: 2.2; stroke-linecap: round"/>
   </g>
   <g id="patch_8">
    <path d="M 331.261132 128.685177 
Q 304.088896 133.476376 279.338966 137.840456 
" style="fill: none; stroke: #ff7f0e; stroke-width: 2.2; stroke-linecap: round"/>
    <path d="M 285.340105 139.625488 
L 279.338966 137.840456 
L 284.367675 134.110565 
" style="fill: none; stroke: #ff7f0e; stroke-width: 2.2; stroke-linecap: round"/>
   </g>
   <g id="text_5">
    <!-- $R_{4}\,\mathbf{q}$ -->
    <g style="fill: #1f77b4" transform="translate(285.344765 53.519074) scale(0.15 -0.15)">
     <defs>
      <path id="Cmr10-34" d="M 178 1056 
L 178 1281 
L 2156 4231 
Q 2178 4263 2222 4263 
L 2316 4263 
Q 2388 4263 2388 4191 
L 2388 1281 
L 3016 1281 
L 3016 1056 
L 2388 1056 
L 2388 428 
Q 2388 297 2575 261 
Q 2763 225 3009 225 
L 3009 0 
L 1247 0 
L 1247 225 
Q 1494 225 1681 261 
Q 1869 297 1869 428 
L 1869 1056 
L 178 1056 
z
M 391 1281 
L 1906 1281 
L 1906 3547 
L 391 1281 
z
" transform="scale(0.015625)"/>
     </defs>
     <use xlink:href="#Cmmi10-52" transform="translate(0 0.6875)"/>
     <use xlink:href="#Cmr10-34" transform="translate(75.878906 -16.31875) scale(0.7)"/>
     <use xlink:href="#Cmb10-71" transform="translate(131.888704 0.6875)"/>
    </g>
   </g>
   <g id="text_6">
    <!-- $R_{6}\,\mathbf{k}$ -->
    <g style="fill: #ff7f0e" transform="translate(242.662482 146.000036) scale(0.15 -0.15)">
     <defs>
      <path id="Cmr10-36" d="M 1600 -141 
Q 1203 -141 937 70 
Q 672 281 526 617 
Q 381 953 325 1322 
Q 269 1691 269 2069 
Q 269 2575 466 3084 
Q 663 3594 1045 3928 
Q 1428 4263 1953 4263 
Q 2172 4263 2361 4180 
Q 2550 4097 2658 3936 
Q 2766 3775 2766 3547 
Q 2766 3416 2677 3327 
Q 2588 3238 2456 3238 
Q 2331 3238 2240 3328 
Q 2150 3419 2150 3547 
Q 2150 3672 2240 3762 
Q 2331 3853 2456 3853 
L 2491 3853 
Q 2409 3969 2261 4023 
Q 2113 4078 1953 4078 
Q 1759 4078 1595 3993 
Q 1431 3909 1300 3765 
Q 1169 3622 1081 3448 
Q 994 3275 945 3053 
Q 897 2831 884 2637 
Q 872 2444 872 2150 
Q 984 2413 1190 2580 
Q 1397 2747 1656 2747 
Q 1941 2747 2175 2631 
Q 2409 2516 2578 2311 
Q 2747 2106 2836 1843 
Q 2925 1581 2925 1313 
Q 2925 938 2758 598 
Q 2591 259 2287 59 
Q 1984 -141 1600 -141 
z
M 1600 63 
Q 1847 63 1997 175 
Q 2147 288 2217 473 
Q 2288 659 2305 848 
Q 2322 1038 2322 1313 
Q 2322 1675 2287 1931 
Q 2253 2188 2100 2383 
Q 1947 2578 1631 2578 
Q 1372 2578 1205 2403 
Q 1038 2228 961 1961 
Q 884 1694 884 1447 
Q 884 1363 891 1319 
Q 891 1309 889 1303 
Q 888 1297 884 1288 
Q 884 1013 940 731 
Q 997 450 1156 256 
Q 1316 63 1600 63 
z
" transform="scale(0.015625)"/>
     </defs>
     <use xlink:href="#Cmmi10-52" transform="translate(0 0.609375)"/>
     <use xlink:href="#Cmr10-36" transform="translate(75.878906 -16.396875) scale(0.7)"/>
     <use xlink:href="#Cmb10-6b" transform="translate(131.888704 0.609375)"/>
    </g>
   </g>
   <g id="text_7">
    <g id="patch_9">
     <path d="M 227.888354 98.99309 
L 294.668354 98.99309 
Q 296.768354 98.99309 296.768354 96.89309 
L 296.768354 82.89309 
Q 296.768354 80.79309 294.668354 80.79309 
L 227.888354 80.79309 
Q 225.788354 80.79309 225.788354 82.89309 
L 225.788354 96.89309 
Q 225.788354 98.99309 227.888354 98.99309 
z
" style="fill: #ffffff"/>
    </g>
    <!-- $(j\!-\!i)\,\theta + \varphi$ -->
    <g style="fill: #2ca02c" transform="translate(227.888354 93.39309) scale(0.14 -0.14)">
     <use xlink:href="#Cmr10-28"/>
     <use xlink:href="#Cmmi10-6a" transform="translate(38.818359 0)"/>
     <use xlink:href="#Cmsy10-a1" transform="translate(82.85778 0)"/>
     <use xlink:href="#Cmmi10-69" transform="translate(163.469467 0)"/>
     <use xlink:href="#Cmr10-29" transform="translate(197.893295 0)"/>
     <use xlink:href="#Cmmi10-b5" transform="translate(251.344108 0)"/>
     <use xlink:href="#Cmr10-2b" transform="translate(315.82653 0)"/>
     <use xlink:href="#Cmmi10-27" transform="translate(411.070671 0)"/>
    </g>
   </g>
   <g id="text_8">
    <!-- shifted by 3: positions (4, 6) -->
    <g transform="translate(232.906757 17.837813) scale(0.14 -0.14)">
     <defs>
      <path id="DejaVuSans-68" d="M 3513 2113 
L 3513 0 
L 2938 0 
L 2938 2094 
Q 2938 2591 2744 2837 
Q 2550 3084 2163 3084 
Q 1697 3084 1428 2787 
Q 1159 2491 1159 1978 
L 1159 0 
L 581 0 
L 581 4863 
L 1159 4863 
L 1159 2956 
Q 1366 3272 1645 3428 
Q 1925 3584 2291 3584 
Q 2894 3584 3203 3211 
Q 3513 2838 3513 2113 
z
" transform="scale(0.015625)"/>
      <path id="DejaVuSans-66" d="M 2375 4863 
L 2375 4384 
L 1825 4384 
Q 1516 4384 1395 4259 
Q 1275 4134 1275 3809 
L 1275 3500 
L 2222 3500 
L 2222 3053 
L 1275 3053 
L 1275 0 
L 697 0 
L 697 3053 
L 147 3053 
L 147 3500 
L 697 3500 
L 697 3744 
Q 697 4328 969 4595 
Q 1241 4863 1831 4863 
L 2375 4863 
z
" transform="scale(0.015625)"/>
      <path id="DejaVuSans-65" d="M 3597 1894 
L 3597 1613 
L 953 1613 
Q 991 1019 1311 708 
Q 1631 397 2203 397 
Q 2534 397 2845 478 
Q 3156 559 3463 722 
L 3463 178 
Q 3153 47 2828 -22 
Q 2503 -91 2169 -91 
Q 1331 -91 842 396 
Q 353 884 353 1716 
Q 353 2575 817 3079 
Q 1281 3584 2069 3584 
Q 2775 3584 3186 3129 
Q 3597 2675 3597 1894 
z
M 3022 2063 
Q 3016 2534 2758 2815 
Q 2500 3097 2075 3097 
Q 1594 3097 1305 2825 
Q 1016 2553 972 2059 
L 3022 2063 
z
" transform="scale(0.015625)"/>
      <path id="DejaVuSans-64" d="M 2906 2969 
L 2906 4863 
L 3481 4863 
L 3481 0 
L 2906 0 
L 2906 525 
Q 2725 213 2448 61 
Q 2172 -91 1784 -91 
Q 1150 -91 751 415 
Q 353 922 353 1747 
Q 353 2572 751 3078 
Q 1150 3584 1784 3584 
Q 2172 3584 2448 3432 
Q 2725 3281 2906 2969 
z
M 947 1747 
Q 947 1113 1208 752 
Q 1469 391 1925 391 
Q 2381 391 2643 752 
Q 2906 1113 2906 1747 
Q 2906 2381 2643 2742 
Q 2381 3103 1925 3103 
Q 1469 3103 1208 2742 
Q 947 2381 947 1747 
z
" transform="scale(0.015625)"/>
      <path id="DejaVuSans-62" d="M 3116 1747 
Q 3116 2381 2855 2742 
Q 2594 3103 2138 3103 
Q 1681 3103 1420 2742 
Q 1159 2381 1159 1747 
Q 1159 1113 1420 752 
Q 1681 391 2138 391 
Q 2594 391 2855 752 
Q 3116 1113 3116 1747 
z
M 1159 2969 
Q 1341 3281 1617 3432 
Q 1894 3584 2278 3584 
Q 2916 3584 3314 3078 
Q 3713 2572 3713 1747 
Q 3713 922 3314 415 
Q 2916 -91 2278 -91 
Q 1894 -91 1617 61 
Q 1341 213 1159 525 
L 1159 0 
L 581 0 
L 581 4863 
L 1159 4863 
L 1159 2969 
z
" transform="scale(0.015625)"/>
      <path id="DejaVuSans-79" d="M 2059 -325 
Q 1816 -950 1584 -1140 
Q 1353 -1331 966 -1331 
L 506 -1331 
L 506 -850 
L 844 -850 
Q 1081 -850 1212 -737 
Q 1344 -625 1503 -206 
L 1606 56 
L 191 3500 
L 800 3500 
L 1894 763 
L 2988 3500 
L 3597 3500 
L 2059 -325 
z
" transform="scale(0.015625)"/>
      <path id="DejaVuSans-3a" d="M 750 794 
L 1409 794 
L 1409 0 
L 750 0 
L 750 794 
z
M 750 3309 
L 1409 3309 
L 1409 2516 
L 750 2516 
L 750 3309 
z
" transform="scale(0.015625)"/>
      <path id="DejaVuSans-34" d="M 2419 4116 
L 825 1625 
L 2419 1625 
L 2419 4116 
z
M 2253 4666 
L 3047 4666 
L 3047 1625 
L 3713 1625 
L 3713 1100 
L 3047 1100 
L 3047 0 
L 2419 0 
L 2419 1100 
L 313 1100 
L 313 1709 
L 2253 4666 
z
" transform="scale(0.015625)"/>
      <path id="DejaVuSans-36" d="M 2113 2584 
Q 1688 2584 1439 2293 
Q 1191 2003 1191 1497 
Q 1191 994 1439 701 
Q 1688 409 2113 409 
Q 2538 409 2786 701 
Q 3034 994 3034 1497 
Q 3034 2003 2786 2293 
Q 2538 2584 2113 2584 
z
M 3366 4563 
L 3366 3988 
Q 3128 4100 2886 4159 
Q 2644 4219 2406 4219 
Q 1781 4219 1451 3797 
Q 1122 3375 1075 2522 
Q 1259 2794 1537 2939 
Q 1816 3084 2150 3084 
Q 2853 3084 3261 2657 
Q 3669 2231 3669 1497 
Q 3669 778 3244 343 
Q 2819 -91 2113 -91 
Q 1303 -91 875 529 
Q 447 1150 447 2328 
Q 447 3434 972 4092 
Q 1497 4750 2381 4750 
Q 2619 4750 2861 4703 
Q 3103 4656 3366 4563 
z
" transform="scale(0.015625)"/>
     </defs>
     <use xlink:href="#DejaVuSans-73"/>
     <use xlink:href="#DejaVuSans-68" transform="translate(52.099609 0)"/>
     <use xlink:href="#DejaVuSans-69" transform="translate(115.478516 0)"/>
     <use xlink:href="#DejaVuSans-66" transform="translate(143.261719 0)"/>
     <use xlink:href="#DejaVuSans-74" transform="translate(176.716797 0)"/>
     <use xlink:href="#DejaVuSans-65" transform="translate(215.925781 0)"/>
     <use xlink:href="#DejaVuSans-64" transform="translate(277.449219 0)"/>
     <use xlink:href="#DejaVuSans-20" transform="translate(340.925781 0)"/>
     <use xlink:href="#DejaVuSans-62" transform="translate(372.712891 0)"/>
     <use xlink:href="#DejaVuSans-79" transform="translate(436.189453 0)"/>
     <use xlink:href="#DejaVuSans-20" transform="translate(495.369141 0)"/>
     <use xlink:href="#DejaVuSans-33" transform="translate(527.15625 0)"/>
     <use xlink:href="#DejaVuSans-3a" transform="translate(590.779297 0)"/>
     <use xlink:href="#DejaVuSans-20" transform="translate(624.470703 0)"/>
     <use xlink:href="#DejaVuSans-70" transform="translate(656.257812 0)"/>
     <use xlink:href="#DejaVuSans-6f" transform="translate(719.734375 0)"/>
     <use xlink:href="#DejaVuSans-73" transform="translate(780.916016 0)"/>
     <use xlink:href="#DejaVuSans-69" transform="translate(833.015625 0)"/>
     <use xlink:href="#DejaVuSans-74" transform="translate(860.798828 0)"/>
     <use xlink:href="#DejaVuSans-69" transform="translate(900.007812 0)"/>
     <use xlink:href="#DejaVuSans-6f" transform="translate(927.791016 0)"/>
     <use xlink:href="#DejaVuSans-6e" transform="translate(988.972656 0)"/>
     <use xlink:href="#DejaVuSans-73" transform="translate(1052.351562 0)"/>
     <use xlink:href="#DejaVuSans-20" transform="translate(1104.451172 0)"/>
     <use xlink:href="#DejaVuSans-28" transform="translate(1136.238281 0)"/>
     <use xlink:href="#DejaVuSans-34" transform="translate(1175.251953 0)"/>
     <use xlink:href="#DejaVuSans-2c" transform="translate(1238.875 0)"/>
     <use xlink:href="#DejaVuSans-20" transform="translate(1270.662109 0)"/>
     <use xlink:href="#DejaVuSans-36" transform="translate(1302.449219 0)"/>
     <use xlink:href="#DejaVuSans-29" transform="translate(1366.072266 0)"/>
    </g>
   </g>
  </g>
 </g>
 <defs>
  <clipPath id="pe4cd4ee7f1">
   <rect x="7.2" y="23.837813" width="200.037736" height="182.103318"/>
  </clipPath>
  <clipPath id="pcfb583ef12">
   <rect x="231.242264" y="23.837813" width="200.037736" height="182.103318"/>
  </clipPath>
 </defs>
</svg>
