<?xml version="1.0" encoding="utf-8" standalone="no"?>
<!DOCTYPE svg PUBLIC "-//W3C//DTD SVG 1.1//EN"
  "http://www.w3.org/Graphics/SVG/1.1/DTD/svg11.dtd">
<svg xmlns:xlink="http://www.w3.org/1999/xlink" width="527.76pt" height="230.616pt" viewBox="0 0 527.76 230.616" xmlns="http://www.w3.org/2000/svg" version="1.1">
 <metadata>
  <rdf:RDF xmlns:dc="http://purl.org/dc/elements/1.1/" xmlns:cc="http://creativecommons.org/ns#" xmlns:rdf="http://www.w3.org/1999/02/22-rdf-syntax-ns#">
   <cc:Work>
    <dc:type rdf:resource="http://purl.org/dc/dcmitype/StillImage"/>
    <dc:format>image/svg+xml</dc:format>
    <dc:creator>
     <cc:Agent>
      <dc:title>Matplotlib v3.10.8, https://matplotlib.org/</dc:title>
     </cc:Agent>
    </dc:creator>
   </cc:Work>
  </rdf:RDF>
 </metadata>
 <defs>
  <style type="text/css">*{stroke-linejoin: round; stroke-linecap: butt}</style>
 </defs>
 <g id="figure_1">
  <g id="patch_1">
   <path d="M 0 230.616 
L 527.76 230.616 
L 527.76 0 
L 0 0 
z
" style="fill: #ffffff"/>
  </g>
  <g id="axes_1">
   <g id="line2d_1">
    <path d="M 496.401882 88.32 
L 496.401882 29.04 
" clip-path="url(#pf6e28695c8)" style="fill: none; stroke-dasharray: 4.44,1.92; stroke-dashoffset: 0; stroke: #000000; stroke-width: 1.2"/>
   </g>
   <g id="patch_2">
    <path d="M 94.974494 50.88 
L 152.953976 50.88 
L 152.953976 35.28 
L 94.974494 35.28 
z
" clip-path="url(#pf6e28695c8)" style="fill: #1f77b4"/>
   </g>
   <g id="patch_3">
    <path d="M 155.369788 50.88 
L 213.349271 50.88 
L 213.349271 35.28 
L 155.369788 35.28 
z
" clip-path="url(#pf6e28695c8)" style="fill: #1f77b4"/>
   </g>
   <g id="patch_4">
    <path d="M 215.765082 50.88 
L 273.744565 50.88 
L 273.744565 35.28 
L 215.765082 35.28 
z
" clip-path="url(#pf6e28695c8)" style="fill: #1f77b4"/>
   </g>
   <g id="patch_5">
    <path d="M 276.160376 50.88 
L 334.139859 50.88 
L 334.139859 35.28 
L 276.160376 35.28 
z
" clip-path="url(#pf6e28695c8)" style="fill: #1f77b4"/>
   </g>
   <g id="patch_6">
    <path d="M 336.555671 82.08 
L 495.193976 82.08 
L 495.193976 66.48 
L 336.555671 66.48 
z
" clip-path="url(#pf6e28695c8)" style="fill: #ff7f0e"/>
   </g>
   <g id="text_1">
    <!-- backward -->
    <g transform="translate(28.091018 39.814539) scale(0.115 -0.115)">
     <defs>
      <path id="DejaVuSans-62" d="M 3116 1747 
Q 3116 2381 2855 2742 
Q 2594 3103 2138 3103 
Q 1681 3103 1420 2742 
Q 1159 2381 1159 1747 
Q 1159 1113 1420 752 
Q 1681 391 2138 391 
Q 2594 391 2855 752 
Q 3116 1113 3116 1747 
z
M 1159 2969 
Q 1341 3281 1617 3432 
Q 1894 3584 2278 3584 
Q 2916 3584 3314 3078 
Q 3713 2572 3713 1747 
Q 3713 922 3314 415 
Q 2916 -91 2278 -91 
Q 1894 -91 1617 61 
Q 1341 213 1159 525 
L 1159 0 
L 581 0 
L 581 4863 
L 1159 4863 
L 1159 2969 
z
" transform="scale(0.015625)"/>
      <path id="DejaVuSans-61" d="M 2194 1759 
Q 1497 1759 1228 1600 
Q 959 1441 959 1056 
Q 959 750 1161 570 
Q 1363 391 1709 391 
Q 2188 391 2477 730 
Q 2766 1069 2766 1631 
L 2766 1759 
L 2194 1759 
z
M 3341 1997 
L 3341 0 
L 2766 0 
L 2766 531 
Q 2569 213 2275 61 
Q 1981 -91 1556 -91 
Q 1019 -91 701 211 
Q 384 513 384 1019 
Q 384 1609 779 1909 
Q 1175 2209 1959 2209 
L 2766 2209 
L 2766 2266 
Q 2766 2663 2505 2880 
Q 2244 3097 1772 3097 
Q 1472 3097 1187 3025 
Q 903 2953 641 2809 
L 641 3341 
Q 956 3463 1253 3523 
Q 1550 3584 1831 3584 
Q 2591 3584 2966 3190 
Q 3341 2797 3341 1997 
z
" transform="scale(0.015625)"/>
      <path id="DejaVuSans-63" d="M 3122 3366 
L 3122 2828 
Q 2878 2963 2633 3030 
Q 2388 3097 2138 3097 
Q 1578 3097 1268 2742 
Q 959 2388 959 1747 
Q 959 1106 1268 751 
Q 1578 397 2138 397 
Q 2388 397 2633 464 
Q 2878 531 3122 666 
L 3122 134 
Q 2881 22 2623 -34 
Q 2366 -91 2075 -91 
Q 1284 -91 818 406 
Q 353 903 353 1747 
Q 353 2603 823 3093 
Q 1294 3584 2113 3584 
Q 2378 3584 2631 3529 
Q 2884 3475 3122 3366 
z
" transform="scale(0.015625)"/>
      <path id="DejaVuSans-6b" d="M 581 4863 
L 1159 4863 
L 1159 1991 
L 2875 3500 
L 3609 3500 
L 1753 1863 
L 3688 0 
L 2938 0 
L 1159 1709 
L 1159 0 
L 581 0 
L 581 4863 
z
" transform="scale(0.015625)"/>
      <path id="DejaVuSans-77" d="M 269 3500 
L 844 3500 
L 1563 769 
L 2278 3500 
L 2956 3500 
L 3675 769 
L 4391 3500 
L 4966 3500 
L 4050 0 
L 3372 0 
L 2619 2869 
L 1863 0 
L 1184 0 
L 269 3500 
z
" transform="scale(0.015625)"/>
      <path id="DejaVuSans-72" d="M 2631 2963 
Q 2534 3019 2420 3045 
Q 2306 3072 2169 3072 
Q 1681 3072 1420 2755 
Q 1159 2438 1159 1844 
L 1159 0 
L 581 0 
L 581 3500 
L 1159 3500 
L 1159 2956 
Q 1341 3275 1631 3429 
Q 1922 3584 2338 3584 
Q 2397 3584 2469 3576 
Q 2541 3569 2628 3553 
L 2631 2963 
z
" transform="scale(0.015625)"/>
      <path id="DejaVuSans-64" d="M 2906 2969 
L 2906 4863 
L 3481 4863 
L 3481 0 
L 2906 0 
L 2906 525 
Q 2725 213 2448 61 
Q 2172 -91 1784 -91 
Q 1150 -91 751 415 
Q 353 922 353 1747 
Q 353 2572 751 3078 
Q 1150 3584 1784 3584 
Q 2172 3584 2448 3432 
Q 2725 3281 2906 2969 
z
M 947 1747 
Q 947 1113 1208 752 
Q 1469 391 1925 391 
Q 2381 391 2643 752 
Q 2906 1113 2906 1747 
Q 2906 2381 2643 2742 
Q 2381 3103 1925 3103 
Q 1469 3103 1208 2742 
Q 947 2381 947 1747 
z
" transform="scale(0.015625)"/>
     </defs>
     <use xlink:href="#DejaVuSans-62"/>
     <use xlink:href="#DejaVuSans-61" transform="translate(63.476562 0)"/>
     <use xlink:href="#DejaVuSans-63" transform="translate(124.755859 0)"/>
     <use xlink:href="#DejaVuSans-6b" transform="translate(179.736328 0)"/>
     <use xlink:href="#DejaVuSans-77" transform="translate(237.646484 0)"/>
     <use xlink:href="#DejaVuSans-61" transform="translate(319.433594 0)"/>
     <use xlink:href="#DejaVuSans-72" transform="translate(380.712891 0)"/>
     <use xlink:href="#DejaVuSans-64" transform="translate(420.076172 0)"/>
    </g>
    <!-- (compute) -->
    <g transform="translate(23.992347 52.692023) scale(0.115 -0.115)">
     <defs>
      <path id="DejaVuSans-28" d="M 1984 4856 
Q 1566 4138 1362 3434 
Q 1159 2731 1159 2009 
Q 1159 1288 1364 580 
Q 1569 -128 1984 -844 
L 1484 -844 
Q 1016 -109 783 600 
Q 550 1309 550 2009 
Q 550 2706 781 3412 
Q 1013 4119 1484 4856 
L 1984 4856 
z
" transform="scale(0.015625)"/>
      <path id="DejaVuSans-6f" d="M 1959 3097 
Q 1497 3097 1228 2736 
Q 959 2375 959 1747 
Q 959 1119 1226 758 
Q 1494 397 1959 397 
Q 2419 397 2687 759 
Q 2956 1122 2956 1747 
Q 2956 2369 2687 2733 
Q 2419 3097 1959 3097 
z
M 1959 3584 
Q 2709 3584 3137 3096 
Q 3566 2609 3566 1747 
Q 3566 888 3137 398 
Q 2709 -91 1959 -91 
Q 1206 -91 779 398 
Q 353 888 353 1747 
Q 353 2609 779 3096 
Q 1206 3584 1959 3584 
z
" transform="scale(0.015625)"/>
      <path id="DejaVuSans-6d" d="M 3328 2828 
Q 3544 3216 3844 3400 
Q 4144 3584 4550 3584 
Q 5097 3584 5394 3201 
Q 5691 2819 5691 2113 
L 5691 0 
L 5113 0 
L 5113 2094 
Q 5113 2597 4934 2840 
Q 4756 3084 4391 3084 
Q 3944 3084 3684 2787 
Q 3425 2491 3425 1978 
L 3425 0 
L 2847 0 
L 2847 2094 
Q 2847 2600 2669 2842 
Q 2491 3084 2119 3084 
Q 1678 3084 1418 2786 
Q 1159 2488 1159 1978 
L 1159 0 
L 581 0 
L 581 3500 
L 1159 3500 
L 1159 2956 
Q 1356 3278 1631 3431 
Q 1906 3584 2284 3584 
Q 2666 3584 2933 3390 
Q 3200 3197 3328 2828 
z
" transform="scale(0.015625)"/>
      <path id="DejaVuSans-70" d="M 1159 525 
L 1159 -1331 
L 581 -1331 
L 581 3500 
L 1159 3500 
L 1159 2969 
Q 1341 3281 1617 3432 
Q 1894 3584 2278 3584 
Q 2916 3584 3314 3078 
Q 3713 2572 3713 1747 
Q 3713 922 3314 415 
Q 2916 -91 2278 -91 
Q 1894 -91 1617 61 
Q 1341 213 1159 525 
z
M 3116 1747 
Q 3116 2381 2855 2742 
Q 2594 3103 2138 3103 
Q 1681 3103 1420 2742 
Q 1159 2381 1159 1747 
Q 1159 1113 1420 752 
Q 1681 391 2138 391 
Q 2594 391 2855 752 
Q 3116 1113 3116 1747 
z
" transform="scale(0.015625)"/>
      <path id="DejaVuSans-75" d="M 544 1381 
L 544 3500 
L 1119 3500 
L 1119 1403 
Q 1119 906 1312 657 
Q 1506 409 1894 409 
Q 2359 409 2629 706 
Q 2900 1003 2900 1516 
L 2900 3500 
L 3475 3500 
L 3475 0 
L 2900 0 
L 2900 538 
Q 2691 219 2414 64 
Q 2138 -91 1772 -91 
Q 1169 -91 856 284 
Q 544 659 544 1381 
z
M 1991 3584 
L 1991 3584 
z
" transform="scale(0.015625)"/>
      <path id="DejaVuSans-74" d="M 1172 4494 
L 1172 3500 
L 2356 3500 
L 2356 3053 
L 1172 3053 
L 1172 1153 
Q 1172 725 1289 603 
Q 1406 481 1766 481 
L 2356 481 
L 2356 0 
L 1766 0 
Q 1100 0 847 248 
Q 594 497 594 1153 
L 594 3053 
L 172 3053 
L 172 3500 
L 594 3500 
L 594 4494 
L 1172 4494 
z
" transform="scale(0.015625)"/>
      <path id="DejaVuSans-65" d="M 3597 1894 
L 3597 1613 
L 953 1613 
Q 991 1019 1311 708 
Q 1631 397 2203 397 
Q 2534 397 2845 478 
Q 3156 559 3463 722 
L 3463 178 
Q 3153 47 2828 -22 
Q 2503 -91 2169 -91 
Q 1331 -91 842 396 
Q 353 884 353 1716 
Q 353 2575 817 3079 
Q 1281 3584 2069 3584 
Q 2775 3584 3186 3129 
Q 3597 2675 3597 1894 
z
M 3022 2063 
Q 3016 2534 2758 2815 
Q 2500 3097 2075 3097 
Q 1594 3097 1305 2825 
Q 1016 2553 972 2059 
L 3022 2063 
z
" transform="scale(0.015625)"/>
      <path id="DejaVuSans-29" d="M 513 4856 
L 1013 4856 
Q 1481 4119 1714 3412 
Q 1947 2706 1947 2009 
Q 1947 1309 1714 600 
Q 1481 -109 1013 -844 
L 513 -844 
Q 928 -128 1133 580 
Q 1338 1288 1338 2009 
Q 1338 2731 1133 3434 
Q 928 4138 513 4856 
z
" transform="scale(0.015625)"/>
     </defs>
     <use xlink:href="#DejaVuSans-28"/>
     <use xlink:href="#DejaVuSans-63" transform="translate(39.013672 0)"/>
     <use xlink:href="#DejaVuSans-6f" transform="translate(93.994141 0)"/>
     <use xlink:href="#DejaVuSans-6d" transform="translate(155.175781 0)"/>
     <use xlink:href="#DejaVuSans-70" transform="translate(252.587891 0)"/>
     <use xlink:href="#DejaVuSans-75" transform="translate(316.064453 0)"/>
     <use xlink:href="#DejaVuSans-74" transform="translate(379.443359 0)"/>
     <use xlink:href="#DejaVuSans-65" transform="translate(418.652344 0)"/>
     <use xlink:href="#DejaVuSans-29" transform="translate(480.175781 0)"/>
    </g>
   </g>
   <g id="text_2">
    <!-- allreduce -->
    <g transform="translate(30.730628 71.014539) scale(0.115 -0.115)">
     <defs>
      <path id="DejaVuSans-6c" d="M 603 4863 
L 1178 4863 
L 1178 0 
L 603 0 
L 603 4863 
z
" transform="scale(0.015625)"/>
     </defs>
     <use xlink:href="#DejaVuSans-61"/>
     <use xlink:href="#DejaVuSans-6c" transform="translate(61.279297 0)"/>
     <use xlink:href="#DejaVuSans-6c" transform="translate(89.0625 0)"/>
     <use xlink:href="#DejaVuSans-72" transform="translate(116.845703 0)"/>
     <use xlink:href="#DejaVuSans-65" transform="translate(155.708984 0)"/>
     <use xlink:href="#DejaVuSans-64" transform="translate(217.232422 0)"/>
     <use xlink:href="#DejaVuSans-75" transform="translate(280.708984 0)"/>
     <use xlink:href="#DejaVuSans-63" transform="translate(344.087891 0)"/>
     <use xlink:href="#DejaVuSans-65" transform="translate(399.068359 0)"/>
    </g>
    <!-- (comm.) -->
    <g transform="translate(35.309065 83.892023) scale(0.115 -0.115)">
     <defs>
      <path id="DejaVuSans-2e" d="M 684 794 
L 1344 794 
L 1344 0 
L 684 0 
L 684 794 
z
" transform="scale(0.015625)"/>
     </defs>
     <use xlink:href="#DejaVuSans-28"/>
     <use xlink:href="#DejaVuSans-63" transform="translate(39.013672 0)"/>
     <use xlink:href="#DejaVuSans-6f" transform="translate(93.994141 0)"/>
     <use xlink:href="#DejaVuSans-6d" transform="translate(155.175781 0)"/>
     <use xlink:href="#DejaVuSans-6d" transform="translate(252.587891 0)"/>
     <use xlink:href="#DejaVuSans-2e" transform="translate(350 0)"/>
     <use xlink:href="#DejaVuSans-29" transform="translate(381.787109 0)"/>
    </g>
   </g>
   <g id="text_3">
    <!-- no overlap: wait for the whole backward, then communicate -->
    <g transform="translate(93.766588 22.193219) scale(0.125 -0.125)">
     <defs>
      <path id="DejaVuSans-6e" d="M 3513 2113 
L 3513 0 
L 2938 0 
L 2938 2094 
Q 2938 2591 2744 2837 
Q 2550 3084 2163 3084 
Q 1697 3084 1428 2787 
Q 1159 2491 1159 1978 
L 1159 0 
L 581 0 
L 581 3500 
L 1159 3500 
L 1159 2956 
Q 1366 3272 1645 3428 
Q 1925 3584 2291 3584 
Q 2894 3584 3203 3211 
Q 3513 2838 3513 2113 
z
" transform="scale(0.015625)"/>
      <path id="DejaVuSans-20" transform="scale(0.015625)"/>
      <path id="DejaVuSans-76" d="M 191 3500 
L 800 3500 
L 1894 563 
L 2988 3500 
L 3597 3500 
L 2284 0 
L 1503 0 
L 191 3500 
z
" transform="scale(0.015625)"/>
      <path id="DejaVuSans-3a" d="M 750 794 
L 1409 794 
L 1409 0 
L 750 0 
L 750 794 
z
M 750 3309 
L 1409 3309 
L 1409 2516 
L 750 2516 
L 750 3309 
z
" transform="scale(0.015625)"/>
      <path id="DejaVuSans-69" d="M 603 3500 
L 1178 3500 
L 1178 0 
L 603 0 
L 603 3500 
z
M 603 4863 
L 1178 4863 
L 1178 4134 
L 603 4134 
L 603 4863 
z
" transform="scale(0.015625)"/>
      <path id="DejaVuSans-66" d="M 2375 4863 
L 2375 4384 
L 1825 4384 
Q 1516 4384 1395 4259 
Q 1275 4134 1275 3809 
L 1275 3500 
L 2222 3500 
L 2222 3053 
L 1275 3053 
L 1275 0 
L 697 0 
L 697 3053 
L 147 3053 
L 147 3500 
L 697 3500 
L 697 3744 
Q 697 4328 969 4595 
Q 1241 4863 1831 4863 
L 2375 4863 
z
" transform="scale(0.015625)"/>
      <path id="DejaVuSans-68" d="M 3513 2113 
L 3513 0 
L 2938 0 
L 2938 2094 
Q 2938 2591 2744 2837 
Q 2550 3084 2163 3084 
Q 1697 3084 1428 2787 
Q 1159 2491 1159 1978 
L 1159 0 
L 581 0 
L 581 4863 
L 1159 4863 
L 1159 2956 
Q 1366 3272 1645 3428 
Q 1925 3584 2291 3584 
Q 2894 3584 3203 3211 
Q 3513 2838 3513 2113 
z
" transform="scale(0.015625)"/>
      <path id="DejaVuSans-2c" d="M 750 794 
L 1409 794 
L 1409 256 
L 897 -744 
L 494 -744 
L 750 256 
L 750 794 
z
" transform="scale(0.015625)"/>
     </defs>
     <use xlink:href="#DejaVuSans-6e"/>
     <use xlink:href="#DejaVuSans-6f" transform="translate(63.378906 0)"/>
     <use xlink:href="#DejaVuSans-20" transform="translate(124.560547 0)"/>
     <use xlink:href="#DejaVuSans-6f" transform="translate(156.347656 0)"/>
     <use xlink:href="#DejaVuSans-76" transform="translate(217.529297 0)"/>
     <use xlink:href="#DejaVuSans-65" transform="translate(276.708984 0)"/>
     <use xlink:href="#DejaVuSans-72" transform="translate(338.232422 0)"/>
     <use xlink:href="#DejaVuSans-6c" transform="translate(379.345703 0)"/>
     <use xlink:href="#DejaVuSans-61" transform="translate(407.128906 0)"/>
     <use xlink:href="#DejaVuSans-70" transform="translate(468.408203 0)"/>
     <use xlink:href="#DejaVuSans-3a" transform="translate(531.884766 0)"/>
     <use xlink:href="#DejaVuSans-20" transform="translate(565.576172 0)"/>
     <use xlink:href="#DejaVuSans-77" transform="translate(597.363281 0)"/>
     <use xlink:href="#DejaVuSans-61" transform="translate(679.150391 0)"/>
     <use xlink:href="#DejaVuSans-69" transform="translate(740.429688 0)"/>
     <use xlink:href="#DejaVuSans-74" transform="translate(768.212891 0)"/>
     <use xlink:href="#DejaVuSans-20" transform="translate(807.421875 0)"/>
     <use xlink:href="#DejaVuSans-66" transform="translate(839.208984 0)"/>
     <use xlink:href="#DejaVuSans-6f" transform="translate(874.414062 0)"/>
     <use xlink:href="#DejaVuSans-72" transform="translate(935.595703 0)"/>
     <use xlink:href="#DejaVuSans-20" transform="translate(976.708984 0)"/>
     <use xlink:href="#DejaVuSans-74" transform="translate(1008.496094 0)"/>
     <use xlink:href="#DejaVuSans-68" transform="translate(1047.705078 0)"/>
     <use xlink:href="#DejaVuSans-65" transform="translate(1111.083984 0)"/>
     <use xlink:href="#DejaVuSans-20" transform="translate(1172.607422 0)"/>
     <use xlink:href="#DejaVuSans-77" transform="translate(1204.394531 0)"/>
     <use xlink:href="#DejaVuSans-68" transform="translate(1286.181641 0)"/>
     <use xlink:href="#DejaVuSans-6f" transform="translate(1349.560547 0)"/>
     <use xlink:href="#DejaVuSans-6c" transform="translate(1410.742188 0)"/>
     <use xlink:href="#DejaVuSans-65" transform="translate(1438.525391 0)"/>
     <use xlink:href="#DejaVuSans-20" transform="translate(1500.048828 0)"/>
     <use xlink:href="#DejaVuSans-62" transform="translate(1531.835938 0)"/>
     <use xlink:href="#DejaVuSans-61" transform="translate(1595.3125 0)"/>
     <use xlink:href="#DejaVuSans-63" transform="translate(1656.591797 0)"/>
     <use xlink:href="#DejaVuSans-6b" transform="translate(1711.572266 0)"/>
     <use xlink:href="#DejaVuSans-77" transform="translate(1769.482422 0)"/>
     <use xlink:href="#DejaVuSans-61" transform="translate(1851.269531 0)"/>
     <use xlink:href="#DejaVuSans-72" transform="translate(1912.548828 0)"/>
     <use xlink:href="#DejaVuSans-64" transform="translate(1951.912109 0)"/>
     <use xlink:href="#DejaVuSans-2c" transform="translate(2015.388672 0)"/>
     <use xlink:href="#DejaVuSans-20" transform="translate(2047.175781 0)"/>
     <use xlink:href="#DejaVuSans-74" transform="translate(2078.962891 0)"/>
     <use xlink:href="#DejaVuSans-68" transform="translate(2118.171875 0)"/>
     <use xlink:href="#DejaVuSans-65" transform="translate(2181.550781 0)"/>
     <use xlink:href="#DejaVuSans-6e" transform="translate(2243.074219 0)"/>
     <use xlink:href="#DejaVuSans-20" transform="translate(2306.453125 0)"/>
     <use xlink:href="#DejaVuSans-63" transform="translate(2338.240234 0)"/>
     <use xlink:href="#DejaVuSans-6f" transform="translate(2393.220703 0)"/>
     <use xlink:href="#DejaVuSans-6d" transform="translate(2454.402344 0)"/>
     <use xlink:href="#DejaVuSans-6d" transform="translate(2551.814453 0)"/>
     <use xlink:href="#DejaVuSans-75" transform="translate(2649.226562 0)"/>
     <use xlink:href="#DejaVuSans-6e" transform="translate(2712.605469 0)"/>
     <use xlink:href="#DejaVuSans-69" transform="translate(2775.984375 0)"/>
     <use xlink:href="#DejaVuSans-63" transform="translate(2803.767578 0)"/>
     <use xlink:href="#DejaVuSans-61" transform="translate(2858.748047 0)"/>
     <use xlink:href="#DejaVuSans-74" transform="translate(2920.027344 0)"/>
     <use xlink:href="#DejaVuSans-65" transform="translate(2959.236328 0)"/>
    </g>
   </g>
   <g id="text_4">
    <!-- $\nabla L_4$ -->
    <g style="fill: #ffffff" transform="translate(112.866735 46.253281) scale(0.115 -0.115)">
     <defs>
      <path id="Cmsy10-72" d="M 2503 -141 
L 300 4300 
Q 300 4306 298 4311 
Q 297 4316 294 4319 
Q 294 4372 347 4372 
L 4978 4372 
Q 5031 4372 5031 4319 
Q 5031 4313 5029 4309 
Q 5028 4306 5025 4300 
L 2822 -141 
Q 2791 -213 2706 -213 
L 2619 -213 
Q 2534 -213 2503 -141 
z
M 2847 416 
L 4569 3891 
L 1125 3891 
L 2847 416 
z
" transform="scale(0.015625)"/>
      <path id="Cmmi10-4c" d="M 300 0 
Q 238 0 238 84 
Q 241 100 250 139 
Q 259 178 276 201 
Q 294 225 319 225 
Q 709 225 863 269 
Q 947 297 984 441 
L 1863 3956 
Q 1875 4019 1875 4044 
Q 1875 4113 1797 4122 
Q 1678 4147 1338 4147 
Q 1275 4147 1275 4231 
Q 1297 4313 1309 4342 
Q 1322 4372 1381 4372 
L 3272 4372 
Q 3328 4372 3328 4288 
Q 3319 4222 3306 4184 
Q 3294 4147 3244 4147 
Q 2772 4147 2613 4116 
Q 2456 4088 2419 3928 
L 1544 416 
Q 1516 338 1516 275 
Q 1516 225 1734 225 
L 2328 225 
Q 2831 225 3143 425 
Q 3456 625 3606 876 
Q 3756 1128 3857 1398 
Q 3959 1669 4006 1678 
L 4063 1678 
Q 4128 1678 4128 1594 
L 3559 44 
Q 3550 0 3500 0 
L 300 0 
z
" transform="scale(0.015625)"/>
      <path id="Cmr10-34" d="M 178 1056 
L 178 1281 
L 2156 4231 
Q 2178 4263 2222 4263 
L 2316 4263 
Q 2388 4263 2388 4191 
L 2388 1281 
L 3016 1281 
L 3016 1056 
L 2388 1056 
L 2388 428 
Q 2388 297 2575 261 
Q 2763 225 3009 225 
L 3009 0 
L 1247 0 
L 1247 225 
Q 1494 225 1681 261 
Q 1869 297 1869 428 
L 1869 1056 
L 178 1056 
z
M 391 1281 
L 1906 1281 
L 1906 3547 
L 391 1281 
z
" transform="scale(0.015625)"/>
     </defs>
     <use xlink:href="#Cmsy10-72" transform="translate(0 0.6875)"/>
     <use xlink:href="#Cmmi10-4c" transform="translate(83.300781 0.6875)"/>
     <use xlink:href="#Cmr10-34" transform="translate(151.318359 -16.31875) scale(0.7)"/>
    </g>
   </g>
   <g id="text_5">
    <!-- $\nabla L_3$ -->
    <g style="fill: #ffffff" transform="translate(173.262029 46.253281) scale(0.115 -0.115)">
     <defs>
      <path id="Cmr10-33" d="M 609 494 
Q 759 275 1012 169 
Q 1266 63 1556 63 
Q 1928 63 2084 380 
Q 2241 697 2241 1100 
Q 2241 1281 2208 1462 
Q 2175 1644 2097 1800 
Q 2019 1956 1883 2050 
Q 1747 2144 1550 2144 
L 1125 2144 
Q 1069 2144 1069 2203 
L 1069 2259 
Q 1069 2309 1125 2309 
L 1478 2338 
Q 1703 2338 1851 2506 
Q 2000 2675 2069 2917 
Q 2138 3159 2138 3378 
Q 2138 3684 1994 3881 
Q 1850 4078 1556 4078 
Q 1313 4078 1091 3986 
Q 869 3894 738 3706 
Q 750 3709 759 3711 
Q 769 3713 781 3713 
Q 925 3713 1022 3613 
Q 1119 3513 1119 3372 
Q 1119 3234 1022 3134 
Q 925 3034 781 3034 
Q 641 3034 541 3134 
Q 441 3234 441 3372 
Q 441 3647 606 3850 
Q 772 4053 1033 4158 
Q 1294 4263 1556 4263 
Q 1750 4263 1965 4205 
Q 2181 4147 2356 4039 
Q 2531 3931 2642 3762 
Q 2753 3594 2753 3378 
Q 2753 3109 2633 2881 
Q 2513 2653 2303 2487 
Q 2094 2322 1844 2241 
Q 2122 2188 2372 2031 
Q 2622 1875 2773 1631 
Q 2925 1388 2925 1106 
Q 2925 753 2731 467 
Q 2538 181 2222 20 
Q 1906 -141 1556 -141 
Q 1256 -141 954 -26 
Q 653 88 461 316 
Q 269 544 269 863 
Q 269 1022 375 1128 
Q 481 1234 641 1234 
Q 744 1234 830 1186 
Q 916 1138 964 1050 
Q 1013 963 1013 863 
Q 1013 706 903 600 
Q 794 494 641 494 
L 609 494 
z
" transform="scale(0.015625)"/>
     </defs>
     <use xlink:href="#Cmsy10-72" transform="translate(0 0.6875)"/>
     <use xlink:href="#Cmmi10-4c" transform="translate(83.300781 0.6875)"/>
     <use xlink:href="#Cmr10-33" transform="translate(151.318359 -16.31875) scale(0.7)"/>
    </g>
   </g>
   <g id="text_6">
    <!-- $\nabla L_2$ -->
    <g style="fill: #ffffff" transform="translate(233.657324 46.253281) scale(0.115 -0.115)">
     <defs>
      <path id="Cmr10-32" d="M 319 0 
L 319 172 
Q 319 188 331 206 
L 1325 1306 
Q 1550 1550 1690 1715 
Q 1831 1881 1968 2097 
Q 2106 2313 2186 2536 
Q 2266 2759 2266 3009 
Q 2266 3272 2169 3511 
Q 2072 3750 1880 3894 
Q 1688 4038 1416 4038 
Q 1138 4038 916 3870 
Q 694 3703 603 3438 
Q 628 3444 672 3444 
Q 816 3444 917 3347 
Q 1019 3250 1019 3097 
Q 1019 2950 917 2848 
Q 816 2747 672 2747 
Q 522 2747 420 2851 
Q 319 2956 319 3097 
Q 319 3338 409 3548 
Q 500 3759 670 3923 
Q 841 4088 1055 4175 
Q 1269 4263 1509 4263 
Q 1875 4263 2190 4108 
Q 2506 3953 2690 3670 
Q 2875 3388 2875 3009 
Q 2875 2731 2753 2481 
Q 2631 2231 2440 2026 
Q 2250 1822 1953 1562 
Q 1656 1303 1563 1216 
L 838 519 
L 1453 519 
Q 1906 519 2211 526 
Q 2516 534 2534 550 
Q 2609 631 2688 1141 
L 2875 1141 
L 2694 0 
L 319 0 
z
" transform="scale(0.015625)"/>
     </defs>
     <use xlink:href="#Cmsy10-72" transform="translate(0 0.6875)"/>
     <use xlink:href="#Cmmi10-4c" transform="translate(83.300781 0.6875)"/>
     <use xlink:href="#Cmr10-32" transform="translate(151.318359 -16.31875) scale(0.7)"/>
    </g>
   </g>
   <g id="text_7">
    <!-- $\nabla L_1$ -->
    <g style="fill: #ffffff" transform="translate(294.052618 46.253281) scale(0.115 -0.115)">
     <defs>
      <path id="Cmr10-31" d="M 594 0 
L 594 225 
Q 1394 225 1394 428 
L 1394 3788 
Q 1063 3628 556 3628 
L 556 3853 
Q 1341 3853 1741 4263 
L 1831 4263 
Q 1853 4263 1873 4245 
Q 1894 4228 1894 4206 
L 1894 428 
Q 1894 225 2694 225 
L 2694 0 
L 594 0 
z
" transform="scale(0.015625)"/>
     </defs>
     <use xlink:href="#Cmsy10-72" transform="translate(0 0.6875)"/>
     <use xlink:href="#Cmmi10-4c" transform="translate(83.300781 0.6875)"/>
     <use xlink:href="#Cmr10-31" transform="translate(151.318359 -16.31875) scale(0.7)"/>
    </g>
   </g>
   <g id="text_8">
    <!-- allreduce: all gradients -->
    <g transform="translate(349.862128 77.453281) scale(0.115 -0.115)">
     <defs>
      <path id="DejaVuSans-67" d="M 2906 1791 
Q 2906 2416 2648 2759 
Q 2391 3103 1925 3103 
Q 1463 3103 1205 2759 
Q 947 2416 947 1791 
Q 947 1169 1205 825 
Q 1463 481 1925 481 
Q 2391 481 2648 825 
Q 2906 1169 2906 1791 
z
M 3481 434 
Q 3481 -459 3084 -895 
Q 2688 -1331 1869 -1331 
Q 1566 -1331 1297 -1286 
Q 1028 -1241 775 -1147 
L 775 -588 
Q 1028 -725 1275 -790 
Q 1522 -856 1778 -856 
Q 2344 -856 2625 -561 
Q 2906 -266 2906 331 
L 2906 616 
Q 2728 306 2450 153 
Q 2172 0 1784 0 
Q 1141 0 747 490 
Q 353 981 353 1791 
Q 353 2603 747 3093 
Q 1141 3584 1784 3584 
Q 2172 3584 2450 3431 
Q 2728 3278 2906 2969 
L 2906 3500 
L 3481 3500 
L 3481 434 
z
" transform="scale(0.015625)"/>
      <path id="DejaVuSans-73" d="M 2834 3397 
L 2834 2853 
Q 2591 2978 2328 3040 
Q 2066 3103 1784 3103 
Q 1356 3103 1142 2972 
Q 928 2841 928 2578 
Q 928 2378 1081 2264 
Q 1234 2150 1697 2047 
L 1894 2003 
Q 2506 1872 2764 1633 
Q 3022 1394 3022 966 
Q 3022 478 2636 193 
Q 2250 -91 1575 -91 
Q 1294 -91 989 -36 
Q 684 19 347 128 
L 347 722 
Q 666 556 975 473 
Q 1284 391 1588 391 
Q 1994 391 2212 530 
Q 2431 669 2431 922 
Q 2431 1156 2273 1281 
Q 2116 1406 1581 1522 
L 1381 1569 
Q 847 1681 609 1914 
Q 372 2147 372 2553 
Q 372 3047 722 3315 
Q 1072 3584 1716 3584 
Q 2034 3584 2315 3537 
Q 2597 3491 2834 3397 
z
" transform="scale(0.015625)"/>
     </defs>
     <use xlink:href="#DejaVuSans-61"/>
     <use xlink:href="#DejaVuSans-6c" transform="translate(61.279297 0)"/>
     <use xlink:href="#DejaVuSans-6c" transform="translate(89.0625 0)"/>
     <use xlink:href="#DejaVuSans-72" transform="translate(116.845703 0)"/>
     <use xlink:href="#DejaVuSans-65" transform="translate(155.708984 0)"/>
     <use xlink:href="#DejaVuSans-64" transform="translate(217.232422 0)"/>
     <use xlink:href="#DejaVuSans-75" transform="translate(280.708984 0)"/>
     <use xlink:href="#DejaVuSans-63" transform="translate(344.087891 0)"/>
     <use xlink:href="#DejaVuSans-65" transform="translate(399.068359 0)"/>
     <use xlink:href="#DejaVuSans-3a" transform="translate(460.591797 0)"/>
     <use xlink:href="#DejaVuSans-20" transform="translate(494.283203 0)"/>
     <use xlink:href="#DejaVuSans-61" transform="translate(526.070312 0)"/>
     <use xlink:href="#DejaVuSans-6c" transform="translate(587.349609 0)"/>
     <use xlink:href="#DejaVuSans-6c" transform="translate(615.132812 0)"/>
     <use xlink:href="#DejaVuSans-20" transform="translate(642.916016 0)"/>
     <use xlink:href="#DejaVuSans-67" transform="translate(674.703125 0)"/>
     <use xlink:href="#DejaVuSans-72" transform="translate(738.179688 0)"/>
     <use xlink:href="#DejaVuSans-61" transform="translate(779.292969 0)"/>
     <use xlink:href="#DejaVuSans-64" transform="translate(840.572266 0)"/>
     <use xlink:href="#DejaVuSans-69" transform="translate(904.048828 0)"/>
     <use xlink:href="#DejaVuSans-65" transform="translate(931.832031 0)"/>
     <use xlink:href="#DejaVuSans-6e" transform="translate(993.355469 0)"/>
     <use xlink:href="#DejaVuSans-74" transform="translate(1056.734375 0)"/>
     <use xlink:href="#DejaVuSans-73" transform="translate(1095.943359 0)"/>
    </g>
   </g>
  </g>
  <g id="axes_2">
   <g id="line2d_2">
    <path d="M 415.874824 206.256 
L 415.874824 146.976 
" clip-path="url(#peffd28dfcd)" style="fill: none; stroke-dasharray: 4.44,1.92; stroke-dashoffset: 0; stroke: #000000; stroke-width: 1.2"/>
   </g>
   <g id="patch_7">
    <path d="M 94.974494 168.816 
L 152.953976 168.816 
L 152.953976 153.216 
L 94.974494 153.216 
z
" clip-path="url(#peffd28dfcd)" style="fill: #1f77b4"/>
   </g>
   <g id="patch_8">
    <path d="M 155.369788 168.816 
L 213.349271 168.816 
L 213.349271 153.216 
L 155.369788 153.216 
z
" clip-path="url(#peffd28dfcd)" style="fill: #1f77b4"/>
   </g>
   <g id="patch_9">
    <path d="M 215.765082 168.816 
L 273.744565 168.816 
L 273.744565 153.216 
L 215.765082 153.216 
z
" clip-path="url(#peffd28dfcd)" style="fill: #1f77b4"/>
   </g>
   <g id="patch_10">
    <path d="M 276.160376 168.816 
L 334.139859 168.816 
L 334.139859 153.216 
L 276.160376 153.216 
z
" clip-path="url(#peffd28dfcd)" style="fill: #1f77b4"/>
   </g>
   <g id="patch_11">
    <path d="M 215.765082 200.016 
L 318.034447 200.016 
L 318.034447 184.416 
L 215.765082 184.416 
z
" clip-path="url(#peffd28dfcd)" style="fill: #ff7f0e"/>
   </g>
   <g id="patch_12">
    <path d="M 336.555671 200.016 
L 414.666918 200.016 
L 414.666918 184.416 
L 336.555671 184.416 
z
" clip-path="url(#peffd28dfcd)" style="fill: #ff7f0e"/>
   </g>
   <g id="text_9">
    <!-- backward -->
    <g transform="translate(28.091018 157.750539) scale(0.115 -0.115)">
     <use xlink:href="#DejaVuSans-62"/>
     <use xlink:href="#DejaVuSans-61" transform="translate(63.476562 0)"/>
     <use xlink:href="#DejaVuSans-63" transform="translate(124.755859 0)"/>
     <use xlink:href="#DejaVuSans-6b" transform="translate(179.736328 0)"/>
     <use xlink:href="#DejaVuSans-77" transform="translate(237.646484 0)"/>
     <use xlink:href="#DejaVuSans-61" transform="translate(319.433594 0)"/>
     <use xlink:href="#DejaVuSans-72" transform="translate(380.712891 0)"/>
     <use xlink:href="#DejaVuSans-64" transform="translate(420.076172 0)"/>
    </g>
    <!-- (compute) -->
    <g transform="translate(23.992347 170.628023) scale(0.115 -0.115)">
     <use xlink:href="#DejaVuSans-28"/>
     <use xlink:href="#DejaVuSans-63" transform="translate(39.013672 0)"/>
     <use xlink:href="#DejaVuSans-6f" transform="translate(93.994141 0)"/>
     <use xlink:href="#DejaVuSans-6d" transform="translate(155.175781 0)"/>
     <use xlink:href="#DejaVuSans-70" transform="translate(252.587891 0)"/>
     <use xlink:href="#DejaVuSans-75" transform="translate(316.064453 0)"/>
     <use xlink:href="#DejaVuSans-74" transform="translate(379.443359 0)"/>
     <use xlink:href="#DejaVuSans-65" transform="translate(418.652344 0)"/>
     <use xlink:href="#DejaVuSans-29" transform="translate(480.175781 0)"/>
    </g>
   </g>
   <g id="text_10">
    <!-- allreduce -->
    <g transform="translate(30.730628 188.950539) scale(0.115 -0.115)">
     <use xlink:href="#DejaVuSans-61"/>
     <use xlink:href="#DejaVuSans-6c" transform="translate(61.279297 0)"/>
     <use xlink:href="#DejaVuSans-6c" transform="translate(89.0625 0)"/>
     <use xlink:href="#DejaVuSans-72" transform="translate(116.845703 0)"/>
     <use xlink:href="#DejaVuSans-65" transform="translate(155.708984 0)"/>
     <use xlink:href="#DejaVuSans-64" transform="translate(217.232422 0)"/>
     <use xlink:href="#DejaVuSans-75" transform="translate(280.708984 0)"/>
     <use xlink:href="#DejaVuSans-63" transform="translate(344.087891 0)"/>
     <use xlink:href="#DejaVuSans-65" transform="translate(399.068359 0)"/>
    </g>
    <!-- (comm.) -->
    <g transform="translate(35.309065 201.828023) scale(0.115 -0.115)">
     <use xlink:href="#DejaVuSans-28"/>
     <use xlink:href="#DejaVuSans-63" transform="translate(39.013672 0)"/>
     <use xlink:href="#DejaVuSans-6f" transform="translate(93.994141 0)"/>
     <use xlink:href="#DejaVuSans-6d" transform="translate(155.175781 0)"/>
     <use xlink:href="#DejaVuSans-6d" transform="translate(252.587891 0)"/>
     <use xlink:href="#DejaVuSans-2e" transform="translate(350 0)"/>
     <use xlink:href="#DejaVuSans-29" transform="translate(381.787109 0)"/>
    </g>
   </g>
   <g id="text_11">
    <!-- DDP bucketing: communication overlaps the rest of the backward -->
    <g transform="translate(93.766588 140.129219) scale(0.125 -0.125)">
     <defs>
      <path id="DejaVuSans-44" d="M 1259 4147 
L 1259 519 
L 2022 519 
Q 2988 519 3436 956 
Q 3884 1394 3884 2338 
Q 3884 3275 3436 3711 
Q 2988 4147 2022 4147 
L 1259 4147 
z
M 628 4666 
L 1925 4666 
Q 3281 4666 3915 4102 
Q 4550 3538 4550 2338 
Q 4550 1131 3912 565 
Q 3275 0 1925 0 
L 628 0 
L 628 4666 
z
" transform="scale(0.015625)"/>
      <path id="DejaVuSans-50" d="M 1259 4147 
L 1259 2394 
L 2053 2394 
Q 2494 2394 2734 2622 
Q 2975 2850 2975 3272 
Q 2975 3691 2734 3919 
Q 2494 4147 2053 4147 
L 1259 4147 
z
M 628 4666 
L 2053 4666 
Q 2838 4666 3239 4311 
Q 3641 3956 3641 3272 
Q 3641 2581 3239 2228 
Q 2838 1875 2053 1875 
L 1259 1875 
L 1259 0 
L 628 0 
L 628 4666 
z
" transform="scale(0.015625)"/>
     </defs>
     <use xlink:href="#DejaVuSans-44"/>
     <use xlink:href="#DejaVuSans-44" transform="translate(77.001953 0)"/>
     <use xlink:href="#DejaVuSans-50" transform="translate(154.003906 0)"/>
     <use xlink:href="#DejaVuSans-20" transform="translate(214.306641 0)"/>
     <use xlink:href="#DejaVuSans-62" transform="translate(246.09375 0)"/>
     <use xlink:href="#DejaVuSans-75" transform="translate(309.570312 0)"/>
     <use xlink:href="#DejaVuSans-63" transform="translate(372.949219 0)"/>
     <use xlink:href="#DejaVuSans-6b" transform="translate(427.929688 0)"/>
     <use xlink:href="#DejaVuSans-65" transform="translate(482.214844 0)"/>
     <use xlink:href="#DejaVuSans-74" transform="translate(543.738281 0)"/>
     <use xlink:href="#DejaVuSans-69" transform="translate(582.947266 0)"/>
     <use xlink:href="#DejaVuSans-6e" transform="translate(610.730469 0)"/>
     <use xlink:href="#DejaVuSans-67" transform="translate(674.109375 0)"/>
     <use xlink:href="#DejaVuSans-3a" transform="translate(737.585938 0)"/>
     <use xlink:href="#DejaVuSans-20" transform="translate(771.277344 0)"/>
     <use xlink:href="#DejaVuSans-63" transform="translate(803.064453 0)"/>
     <use xlink:href="#DejaVuSans-6f" transform="translate(858.044922 0)"/>
     <use xlink:href="#DejaVuSans-6d" transform="translate(919.226562 0)"/>
     <use xlink:href="#DejaVuSans-6d" transform="translate(1016.638672 0)"/>
     <use xlink:href="#DejaVuSans-75" transform="translate(1114.050781 0)"/>
     <use xlink:href="#DejaVuSans-6e" transform="translate(1177.429688 0)"/>
     <use xlink:href="#DejaVuSans-69" transform="translate(1240.808594 0)"/>
     <use xlink:href="#DejaVuSans-63" transform="translate(1268.591797 0)"/>
     <use xlink:href="#DejaVuSans-61" transform="translate(1323.572266 0)"/>
     <use xlink:href="#DejaVuSans-74" transform="translate(1384.851562 0)"/>
     <use xlink:href="#DejaVuSans-69" transform="translate(1424.060547 0)"/>
     <use xlink:href="#DejaVuSans-6f" transform="translate(1451.84375 0)"/>
     <use xlink:href="#DejaVuSans-6e" transform="translate(1513.025391 0)"/>
     <use xlink:href="#DejaVuSans-20" transform="translate(1576.404297 0)"/>
     <use xlink:href="#DejaVuSans-6f" transform="translate(1608.191406 0)"/>
     <use xlink:href="#DejaVuSans-76" transform="translate(1669.373047 0)"/>
     <use xlink:href="#DejaVuSans-65" transform="translate(1728.552734 0)"/>
     <use xlink:href="#DejaVuSans-72" transform="translate(1790.076172 0)"/>
     <use xlink:href="#DejaVuSans-6c" transform="translate(1831.189453 0)"/>
     <use xlink:href="#DejaVuSans-61" transform="translate(1858.972656 0)"/>
     <use xlink:href="#DejaVuSans-70" transform="translate(1920.251953 0)"/>
     <use xlink:href="#DejaVuSans-73" transform="translate(1983.728516 0)"/>
     <use xlink:href="#DejaVuSans-20" transform="translate(2035.828125 0)"/>
     <use xlink:href="#DejaVuSans-74" transform="translate(2067.615234 0)"/>
     <use xlink:href="#DejaVuSans-68" transform="translate(2106.824219 0)"/>
     <use xlink:href="#DejaVuSans-65" transform="translate(2170.203125 0)"/>
     <use xlink:href="#DejaVuSans-20" transform="translate(2231.726562 0)"/>
     <use xlink:href="#DejaVuSans-72" transform="translate(2263.513672 0)"/>
     <use xlink:href="#DejaVuSans-65" transform="translate(2302.376953 0)"/>
     <use xlink:href="#DejaVuSans-73" transform="translate(2363.900391 0)"/>
     <use xlink:href="#DejaVuSans-74" transform="translate(2416 0)"/>
     <use xlink:href="#DejaVuSans-20" transform="translate(2455.208984 0)"/>
     <use xlink:href="#DejaVuSans-6f" transform="translate(2486.996094 0)"/>
     <use xlink:href="#DejaVuSans-66" transform="translate(2548.177734 0)"/>
     <use xlink:href="#DejaVuSans-20" transform="translate(2583.382812 0)"/>
     <use xlink:href="#DejaVuSans-74" transform="translate(2615.169922 0)"/>
     <use xlink:href="#DejaVuSans-68" transform="translate(2654.378906 0)"/>
     <use xlink:href="#DejaVuSans-65" transform="translate(2717.757812 0)"/>
     <use xlink:href="#DejaVuSans-20" transform="translate(2779.28125 0)"/>
     <use xlink:href="#DejaVuSans-62" transform="translate(2811.068359 0)"/>
     <use xlink:href="#DejaVuSans-61" transform="translate(2874.544922 0)"/>
     <use xlink:href="#DejaVuSans-63" transform="translate(2935.824219 0)"/>
     <use xlink:href="#DejaVuSans-6b" transform="translate(2990.804688 0)"/>
     <use xlink:href="#DejaVuSans-77" transform="translate(3048.714844 0)"/>
     <use xlink:href="#DejaVuSans-61" transform="translate(3130.501953 0)"/>
     <use xlink:href="#DejaVuSans-72" transform="translate(3191.78125 0)"/>
     <use xlink:href="#DejaVuSans-64" transform="translate(3231.144531 0)"/>
    </g>
   </g>
   <g id="patch_13">
    <path d="M 419.664075 203.136 
Q 456.139235 203.136 492.614394 203.136 
" style="fill: none; stroke: #2ca02c; stroke-width: 1.6; stroke-linecap: round"/>
    <path d="M 424.064075 205.336 
L 419.664075 203.136 
L 424.064075 200.936 
" style="fill: none; stroke: #2ca02c; stroke-width: 1.6; stroke-linecap: round"/>
    <path d="M 488.214394 200.936 
L 492.614394 203.136 
L 488.214394 205.336 
" style="fill: none; stroke: #2ca02c; stroke-width: 1.6; stroke-linecap: round"/>
   </g>
   <g id="text_12">
    <!-- time saved -->
    <g style="fill: #2ca02c" transform="translate(422.821478 220.678125) scale(0.12 -0.12)">
     <use xlink:href="#DejaVuSans-74"/>
     <use xlink:href="#DejaVuSans-69" transform="translate(39.208984 0)"/>
     <use xlink:href="#DejaVuSans-6d" transform="translate(66.992188 0)"/>
     <use xlink:href="#DejaVuSans-65" transform="translate(164.404297 0)"/>
     <use xlink:href="#DejaVuSans-20" transform="translate(225.927734 0)"/>
     <use xlink:href="#DejaVuSans-73" transform="translate(257.714844 0)"/>
     <use xlink:href="#DejaVuSans-61" transform="translate(309.814453 0)"/>
     <use xlink:href="#DejaVuSans-76" transform="translate(371.09375 0)"/>
     <use xlink:href="#DejaVuSans-65" transform="translate(430.273438 0)"/>
     <use xlink:href="#DejaVuSans-64" transform="translate(491.796875 0)"/>
    </g>
   </g>
   <g id="text_13">
    <!-- $\nabla L_4$ -->
    <g style="fill: #ffffff" transform="translate(112.866735 164.189281) scale(0.115 -0.115)">
     <use xlink:href="#Cmsy10-72" transform="translate(0 0.6875)"/>
     <use xlink:href="#Cmmi10-4c" transform="translate(83.300781 0.6875)"/>
     <use xlink:href="#Cmr10-34" transform="translate(151.318359 -16.31875) scale(0.7)"/>
    </g>
   </g>
   <g id="text_14">
    <!-- $\nabla L_3$ -->
    <g style="fill: #ffffff" transform="translate(173.262029 164.189281) scale(0.115 -0.115)">
     <use xlink:href="#Cmsy10-72" transform="translate(0 0.6875)"/>
     <use xlink:href="#Cmmi10-4c" transform="translate(83.300781 0.6875)"/>
     <use xlink:href="#Cmr10-33" transform="translate(151.318359 -16.31875) scale(0.7)"/>
    </g>
   </g>
   <g id="text_15">
    <!-- $\nabla L_2$ -->
    <g style="fill: #ffffff" transform="translate(233.657324 164.189281) scale(0.115 -0.115)">
     <use xlink:href="#Cmsy10-72" transform="translate(0 0.6875)"/>
     <use xlink:href="#Cmmi10-4c" transform="translate(83.300781 0.6875)"/>
     <use xlink:href="#Cmr10-32" transform="translate(151.318359 -16.31875) scale(0.7)"/>
    </g>
   </g>
   <g id="text_16">
    <!-- $\nabla L_1$ -->
    <g style="fill: #ffffff" transform="translate(294.052618 164.189281) scale(0.115 -0.115)">
     <use xlink:href="#Cmsy10-72" transform="translate(0 0.6875)"/>
     <use xlink:href="#Cmmi10-4c" transform="translate(83.300781 0.6875)"/>
     <use xlink:href="#Cmr10-31" transform="translate(151.318359 -16.31875) scale(0.7)"/>
    </g>
   </g>
   <g id="text_17">
    <!-- bucket 1 -->
    <g transform="translate(242.044491 195.389281) scale(0.115 -0.115)">
     <defs>
      <path id="DejaVuSans-31" d="M 794 531 
L 1825 531 
L 1825 4091 
L 703 3866 
L 703 4441 
L 1819 4666 
L 2450 4666 
L 2450 531 
L 3481 531 
L 3481 0 
L 794 0 
L 794 531 
z
" transform="scale(0.015625)"/>
     </defs>
     <use xlink:href="#DejaVuSans-62"/>
     <use xlink:href="#DejaVuSans-75" transform="translate(63.476562 0)"/>
     <use xlink:href="#DejaVuSans-63" transform="translate(126.855469 0)"/>
     <use xlink:href="#DejaVuSans-6b" transform="translate(181.835938 0)"/>
     <use xlink:href="#DejaVuSans-65" transform="translate(236.121094 0)"/>
     <use xlink:href="#DejaVuSans-74" transform="translate(297.644531 0)"/>
     <use xlink:href="#DejaVuSans-20" transform="translate(336.853516 0)"/>
     <use xlink:href="#DejaVuSans-31" transform="translate(368.640625 0)"/>
    </g>
   </g>
   <g id="text_18">
    <!-- bucket 2 -->
    <g transform="translate(350.756021 195.389281) scale(0.115 -0.115)">
     <defs>
      <path id="DejaVuSans-32" d="M 1228 531 
L 3431 531 
L 3431 0 
L 469 0 
L 469 531 
Q 828 903 1448 1529 
Q 2069 2156 2228 2338 
Q 2531 2678 2651 2914 
Q 2772 3150 2772 3378 
Q 2772 3750 2511 3984 
Q 2250 4219 1831 4219 
Q 1534 4219 1204 4116 
Q 875 4013 500 3803 
L 500 4441 
Q 881 4594 1212 4672 
Q 1544 4750 1819 4750 
Q 2544 4750 2975 4387 
Q 3406 4025 3406 3419 
Q 3406 3131 3298 2873 
Q 3191 2616 2906 2266 
Q 2828 2175 2409 1742 
Q 1991 1309 1228 531 
z
" transform="scale(0.015625)"/>
     </defs>
     <use xlink:href="#DejaVuSans-62"/>
     <use xlink:href="#DejaVuSans-75" transform="translate(63.476562 0)"/>
     <use xlink:href="#DejaVuSans-63" transform="translate(126.855469 0)"/>
     <use xlink:href="#DejaVuSans-6b" transform="translate(181.835938 0)"/>
     <use xlink:href="#DejaVuSans-65" transform="translate(236.121094 0)"/>
     <use xlink:href="#DejaVuSans-74" transform="translate(297.644531 0)"/>
     <use xlink:href="#DejaVuSans-20" transform="translate(336.853516 0)"/>
     <use xlink:href="#DejaVuSans-32" transform="translate(368.640625 0)"/>
    </g>
   </g>
  </g>
 </g>
 <defs>
  <clipPath id="pf6e28695c8">
   <rect x="7.2" y="7.2" width="513.36" height="98.28"/>
  </clipPath>
  <clipPath id="peffd28dfcd">
   <rect x="7.2" y="125.136" width="513.36" height="98.28"/>
  </clipPath>
 </defs>
</svg>
