<?xml version="1.0" encoding="utf-8" standalone="no"?>
<!DOCTYPE svg PUBLIC "-//W3C//DTD SVG 1.1//EN"
  "http://www.w3.org/Graphics/SVG/1.1/DTD/svg11.dtd">
<svg xmlns:xlink="http://www.w3.org/1999/xlink" width="513.343636pt" height="304.669173pt" viewBox="0 0 513.343636 304.669173" xmlns="http://www.w3.org/2000/svg" version="1.1">
 <metadata>
  <rdf:RDF xmlns:dc="http://purl.org/dc/elements/1.1/" xmlns:cc="http://creativecommons.org/ns#" xmlns:rdf="http://www.w3.org/1999/02/22-rdf-syntax-ns#">
   <cc:Work>
    <dc:type rdf:resource="http://purl.org/dc/dcmitype/StillImage"/>
    <dc:format>image/svg+xml</dc:format>
    <dc:creator>
     <cc:Agent>
      <dc:title>Matplotlib v3.10.8, https://matplotlib.org/</dc:title>
     </cc:Agent>
    </dc:creator>
   </cc:Work>
  </rdf:RDF>
 </metadata>
 <defs>
  <style type="text/css">*{stroke-linejoin: round; stroke-linecap: butt}</style>
 </defs>
 <g id="figure_1">
  <g id="patch_1">
   <path d="M 0 304.669173 
L 513.343636 304.669173 
L 513.343636 0 
L 0 0 
z
" style="fill: #ffffff"/>
  </g>
  <g id="axes_1">
   <g id="line2d_1">
    <path d="M 45.707077 228.605846 
L 190.452923 83.86 
" clip-path="url(#pf617f65844)" style="fill: none; stroke-dasharray: 4.44,1.92; stroke-dashoffset: 0; stroke: #7f7f7f; stroke-width: 1.2"/>
   </g>
   <g id="patch_2">
    <path d="M 9.199819 156.232923 
Q 118.078957 156.232923 226.063668 156.232923 
" style="fill: none; stroke: #7f7f7f; stroke-width: 0.8; stroke-linecap: round"/>
    <path d="M 221.663668 154.032923 
L 226.063668 156.232923 
L 221.663668 158.432923 
" style="fill: none; stroke: #7f7f7f; stroke-width: 0.8; stroke-linecap: round"/>
   </g>
   <g id="patch_3">
    <path d="M 118.08 265.113104 
Q 118.08 156.233966 118.08 48.249255 
" style="fill: none; stroke: #7f7f7f; stroke-width: 0.8; stroke-linecap: round"/>
    <path d="M 115.88 52.649255 
L 118.08 48.249255 
L 120.28 52.649255 
" style="fill: none; stroke: #7f7f7f; stroke-width: 0.8; stroke-linecap: round"/>
   </g>
   <g id="patch_4">
    <path d="M 118.08 156.232923 
Q 118.08 113.586769 118.08 73.40029 
" style="fill: none; stroke: #463480; stroke-width: 2.2; stroke-linecap: round"/>
    <path d="M 115.28 79.00029 
L 118.08 73.40029 
L 120.88 79.00029 
" style="fill: none; stroke: #463480; stroke-width: 2.2; stroke-linecap: round"/>
   </g>
   <g id="patch_5">
    <path d="M 118.08 156.232923 
Q 137.15194 118.089043 155.12388 82.145164 
" style="fill: none; stroke: #38598c; stroke-width: 2.2; stroke-linecap: round"/>
    <path d="M 150.115087 85.901758 
L 155.12388 82.145164 
L 155.12388 88.406154 
" style="fill: none; stroke: #38598c; stroke-width: 2.2; stroke-linecap: round"/>
   </g>
   <g id="patch_6">
    <path d="M 118.08 156.232923 
Q 144.720841 122.931872 169.825136 91.551504 
" style="fill: none; stroke: #2a788e; stroke-width: 2.2; stroke-linecap: round"/>
    <path d="M 164.140411 94.175223 
L 169.825136 91.551504 
L 168.513276 97.673515 
" style="fill: none; stroke: #2a788e; stroke-width: 2.2; stroke-linecap: round"/>
   </g>
   <g id="patch_7">
    <path d="M 118.08 156.232923 
Q 147.098622 124.982099 174.443556 95.533709 
" style="fill: none; stroke: #1f968b; stroke-width: 2.2; stroke-linecap: round"/>
    <path d="M 168.581208 97.732089 
L 174.443556 95.533709 
L 172.684852 101.542615 
" style="fill: none; stroke: #1f968b; stroke-width: 2.2; stroke-linecap: round"/>
   </g>
   <g id="patch_8">
    <path d="M 118.08 156.232923 
Q 147.860826 125.707576 175.924003 96.94282 
" style="fill: none; stroke: #2fb47c; stroke-width: 2.2; stroke-linecap: round"/>
    <path d="M 170.0092 98.995892 
L 175.924003 96.94282 
L 174.017579 102.906505 
" style="fill: none; stroke: #2fb47c; stroke-width: 2.2; stroke-linecap: round"/>
   </g>
   <g id="patch_9">
    <path d="M 118.08 156.232923 
Q 148.111034 125.953699 176.409987 97.42087 
" style="fill: none; stroke: #6ccd5a; stroke-width: 2.2; stroke-linecap: round"/>
    <path d="M 170.478488 99.425195 
L 176.409987 97.42087 
L 174.454548 103.368664 
" style="fill: none; stroke: #6ccd5a; stroke-width: 2.2; stroke-linecap: round"/>
   </g>
   <g id="patch_10">
    <path d="M 118.08 156.232923 
Q 148.193991 126.036201 176.571116 97.581117 
" style="fill: none; stroke: #bddf26; stroke-width: 2.2; stroke-linecap: round"/>
    <path d="M 170.634141 99.569162 
L 176.571116 97.581117 
L 174.599367 103.523524 
" style="fill: none; stroke: #bddf26; stroke-width: 2.2; stroke-linecap: round"/>
   </g>
   <g id="patch_11">
    <path d="M 118.08 156.232923 
Q 148.235385 126.077538 176.335289 97.977634 
" style="fill: none; stroke: #ff7f0e; stroke-width: 2.6; stroke-linecap: round"/>
    <path d="M 170.395592 99.957533 
L 176.335289 97.977634 
L 174.35539 103.917331 
" style="fill: none; stroke: #ff7f0e; stroke-width: 2.6; stroke-linecap: round"/>
   </g>
   <g id="text_1">
    <!-- $\mathbf{v}_1$ -->
    <g style="fill: #ff7f0e" transform="translate(185.670923 92.906615) scale(0.1 -0.1)">
     <defs>
      <path id="Cmb10-76" d="M 1466 91 
L 544 2516 
L 141 2516 
L 141 2841 
L 1672 2841 
L 1672 2516 
L 1319 2516 
L 1894 984 
L 2456 2463 
Q 2456 2494 2342 2505 
Q 2228 2516 2119 2516 
L 2119 2841 
L 3231 2841 
L 3231 2516 
Q 2828 2516 2803 2456 
L 1906 91 
Q 1866 -25 1741 -25 
L 1631 -25 
Q 1506 -25 1466 91 
z
" transform="scale(0.015625)"/>
      <path id="Cmr10-31" d="M 594 0 
L 594 225 
Q 1394 225 1394 428 
L 1394 3788 
Q 1063 3628 556 3628 
L 556 3853 
Q 1341 3853 1741 4263 
L 1831 4263 
Q 1853 4263 1873 4245 
Q 1894 4228 1894 4206 
L 1894 428 
Q 1894 225 2694 225 
L 2694 0 
L 594 0 
z
" transform="scale(0.015625)"/>
     </defs>
     <use xlink:href="#Cmb10-76" transform="translate(0 0.609375)"/>
     <use xlink:href="#Cmr10-31" transform="translate(57.149687 -16.396875) scale(0.7)"/>
    </g>
   </g>
   <g id="text_2">
    <!-- $\mathbf{x}_0$ -->
    <g style="fill: #7f7f7f" transform="translate(123.197538 58.999692) scale(0.095 -0.095)">
     <defs>
      <path id="Cmb10-78" d="M 109 0 
L 109 325 
Q 628 325 678 384 
L 1381 1350 
L 588 2516 
L 141 2516 
L 141 2841 
L 1606 2841 
L 1606 2516 
L 1331 2516 
L 1766 1881 
L 2181 2463 
Q 2181 2491 2072 2503 
Q 1963 2516 1888 2516 
L 1888 2841 
L 3156 2841 
L 3156 2516 
Q 2638 2516 2584 2456 
L 1959 1594 
L 2816 325 
L 3272 325 
L 3272 0 
L 1797 0 
L 1797 325 
L 2075 325 
L 1575 1063 
L 1081 378 
Q 1081 356 1193 340 
Q 1306 325 1381 325 
L 1381 0 
L 109 0 
z
" transform="scale(0.015625)"/>
      <path id="Cmr10-30" d="M 1600 -141 
Q 816 -141 533 504 
Q 250 1150 250 2041 
Q 250 2597 351 3087 
Q 453 3578 754 3920 
Q 1056 4263 1600 4263 
Q 2022 4263 2290 4056 
Q 2559 3850 2700 3523 
Q 2841 3197 2892 2823 
Q 2944 2450 2944 2041 
Q 2944 1491 2842 1011 
Q 2741 531 2444 195 
Q 2147 -141 1600 -141 
z
M 1600 25 
Q 1956 25 2131 390 
Q 2306 756 2347 1200 
Q 2388 1644 2388 2144 
Q 2388 2625 2347 3031 
Q 2306 3438 2132 3767 
Q 1959 4097 1600 4097 
Q 1238 4097 1063 3765 
Q 888 3434 847 3029 
Q 806 2625 806 2144 
Q 806 1788 823 1472 
Q 841 1156 916 820 
Q 991 484 1158 254 
Q 1325 25 1600 25 
z
" transform="scale(0.015625)"/>
     </defs>
     <use xlink:href="#Cmb10-78" transform="translate(0 0.609375)"/>
     <use xlink:href="#Cmr10-30" transform="translate(57.149687 -16.396875) scale(0.7)"/>
    </g>
   </g>
   <g id="text_3">
    <!-- (a) direction converges -->
    <g transform="translate(48.612188 39.352923) scale(0.12 -0.12)">
     <defs>
      <path id="DejaVuSans-28" d="M 1984 4856 
Q 1566 4138 1362 3434 
Q 1159 2731 1159 2009 
Q 1159 1288 1364 580 
Q 1569 -128 1984 -844 
L 1484 -844 
Q 1016 -109 783 600 
Q 550 1309 550 2009 
Q 550 2706 781 3412 
Q 1013 4119 1484 4856 
L 1984 4856 
z
" transform="scale(0.015625)"/>
      <path id="DejaVuSans-61" d="M 2194 1759 
Q 1497 1759 1228 1600 
Q 959 1441 959 1056 
Q 959 750 1161 570 
Q 1363 391 1709 391 
Q 2188 391 2477 730 
Q 2766 1069 2766 1631 
L 2766 1759 
L 2194 1759 
z
M 3341 1997 
L 3341 0 
L 2766 0 
L 2766 531 
Q 2569 213 2275 61 
Q 1981 -91 1556 -91 
Q 1019 -91 701 211 
Q 384 513 384 1019 
Q 384 1609 779 1909 
Q 1175 2209 1959 2209 
L 2766 2209 
L 2766 2266 
Q 2766 2663 2505 2880 
Q 2244 3097 1772 3097 
Q 1472 3097 1187 3025 
Q 903 2953 641 2809 
L 641 3341 
Q 956 3463 1253 3523 
Q 1550 3584 1831 3584 
Q 2591 3584 2966 3190 
Q 3341 2797 3341 1997 
z
" transform="scale(0.015625)"/>
      <path id="DejaVuSans-29" d="M 513 4856 
L 1013 4856 
Q 1481 4119 1714 3412 
Q 1947 2706 1947 2009 
Q 1947 1309 1714 600 
Q 1481 -109 1013 -844 
L 513 -844 
Q 928 -128 1133 580 
Q 1338 1288 1338 2009 
Q 1338 2731 1133 3434 
Q 928 4138 513 4856 
z
" transform="scale(0.015625)"/>
      <path id="DejaVuSans-20" transform="scale(0.015625)"/>
      <path id="DejaVuSans-64" d="M 2906 2969 
L 2906 4863 
L 3481 4863 
L 3481 0 
L 2906 0 
L 2906 525 
Q 2725 213 2448 61 
Q 2172 -91 1784 -91 
Q 1150 -91 751 415 
Q 353 922 353 1747 
Q 353 2572 751 3078 
Q 1150 3584 1784 3584 
Q 2172 3584 2448 3432 
Q 2725 3281 2906 2969 
z
M 947 1747 
Q 947 1113 1208 752 
Q 1469 391 1925 391 
Q 2381 391 2643 752 
Q 2906 1113 2906 1747 
Q 2906 2381 2643 2742 
Q 2381 3103 1925 3103 
Q 1469 3103 1208 2742 
Q 947 2381 947 1747 
z
" transform="scale(0.015625)"/>
      <path id="DejaVuSans-69" d="M 603 3500 
L 1178 3500 
L 1178 0 
L 603 0 
L 603 3500 
z
M 603 4863 
L 1178 4863 
L 1178 4134 
L 603 4134 
L 603 4863 
z
" transform="scale(0.015625)"/>
      <path id="DejaVuSans-72" d="M 2631 2963 
Q 2534 3019 2420 3045 
Q 2306 3072 2169 3072 
Q 1681 3072 1420 2755 
Q 1159 2438 1159 1844 
L 1159 0 
L 581 0 
L 581 3500 
L 1159 3500 
L 1159 2956 
Q 1341 3275 1631 3429 
Q 1922 3584 2338 3584 
Q 2397 3584 2469 3576 
Q 2541 3569 2628 3553 
L 2631 2963 
z
" transform="scale(0.015625)"/>
      <path id="DejaVuSans-65" d="M 3597 1894 
L 3597 1613 
L 953 1613 
Q 991 1019 1311 708 
Q 1631 397 2203 397 
Q 2534 397 2845 478 
Q 3156 559 3463 722 
L 3463 178 
Q 3153 47 2828 -22 
Q 2503 -91 2169 -91 
Q 1331 -91 842 396 
Q 353 884 353 1716 
Q 353 2575 817 3079 
Q 1281 3584 2069 3584 
Q 2775 3584 3186 3129 
Q 3597 2675 3597 1894 
z
M 3022 2063 
Q 3016 2534 2758 2815 
Q 2500 3097 2075 3097 
Q 1594 3097 1305 2825 
Q 1016 2553 972 2059 
L 3022 2063 
z
" transform="scale(0.015625)"/>
      <path id="DejaVuSans-63" d="M 3122 3366 
L 3122 2828 
Q 2878 2963 2633 3030 
Q 2388 3097 2138 3097 
Q 1578 3097 1268 2742 
Q 959 2388 959 1747 
Q 959 1106 1268 751 
Q 1578 397 2138 397 
Q 2388 397 2633 464 
Q 2878 531 3122 666 
L 3122 134 
Q 2881 22 2623 -34 
Q 2366 -91 2075 -91 
Q 1284 -91 818 406 
Q 353 903 353 1747 
Q 353 2603 823 3093 
Q 1294 3584 2113 3584 
Q 2378 3584 2631 3529 
Q 2884 3475 3122 3366 
z
" transform="scale(0.015625)"/>
      <path id="DejaVuSans-74" d="M 1172 4494 
L 1172 3500 
L 2356 3500 
L 2356 3053 
L 1172 3053 
L 1172 1153 
Q 1172 725 1289 603 
Q 1406 481 1766 481 
L 2356 481 
L 2356 0 
L 1766 0 
Q 1100 0 847 248 
Q 594 497 594 1153 
L 594 3053 
L 172 3053 
L 172 3500 
L 594 3500 
L 594 4494 
L 1172 4494 
z
" transform="scale(0.015625)"/>
      <path id="DejaVuSans-6f" d="M 1959 3097 
Q 1497 3097 1228 2736 
Q 959 2375 959 1747 
Q 959 1119 1226 758 
Q 1494 397 1959 397 
Q 2419 397 2687 759 
Q 2956 1122 2956 1747 
Q 2956 2369 2687 2733 
Q 2419 3097 1959 3097 
z
M 1959 3584 
Q 2709 3584 3137 3096 
Q 3566 2609 3566 1747 
Q 3566 888 3137 398 
Q 2709 -91 1959 -91 
Q 1206 -91 779 398 
Q 353 888 353 1747 
Q 353 2609 779 3096 
Q 1206 3584 1959 3584 
z
" transform="scale(0.015625)"/>
      <path id="DejaVuSans-6e" d="M 3513 2113 
L 3513 0 
L 2938 0 
L 2938 2094 
Q 2938 2591 2744 2837 
Q 2550 3084 2163 3084 
Q 1697 3084 1428 2787 
Q 1159 2491 1159 1978 
L 1159 0 
L 581 0 
L 581 3500 
L 1159 3500 
L 1159 2956 
Q 1366 3272 1645 3428 
Q 1925 3584 2291 3584 
Q 2894 3584 3203 3211 
Q 3513 2838 3513 2113 
z
" transform="scale(0.015625)"/>
      <path id="DejaVuSans-76" d="M 191 3500 
L 800 3500 
L 1894 563 
L 2988 3500 
L 3597 3500 
L 2284 0 
L 1503 0 
L 191 3500 
z
" transform="scale(0.015625)"/>
      <path id="DejaVuSans-67" d="M 2906 1791 
Q 2906 2416 2648 2759 
Q 2391 3103 1925 3103 
Q 1463 3103 1205 2759 
Q 947 2416 947 1791 
Q 947 1169 1205 825 
Q 1463 481 1925 481 
Q 2391 481 2648 825 
Q 2906 1169 2906 1791 
z
M 3481 434 
Q 3481 -459 3084 -895 
Q 2688 -1331 1869 -1331 
Q 1566 -1331 1297 -1286 
Q 1028 -1241 775 -1147 
L 775 -588 
Q 1028 -725 1275 -790 
Q 1522 -856 1778 -856 
Q 2344 -856 2625 -561 
Q 2906 -266 2906 331 
L 2906 616 
Q 2728 306 2450 153 
Q 2172 0 1784 0 
Q 1141 0 747 490 
Q 353 981 353 1791 
Q 353 2603 747 3093 
Q 1141 3584 1784 3584 
Q 2172 3584 2450 3431 
Q 2728 3278 2906 2969 
L 2906 3500 
L 3481 3500 
L 3481 434 
z
" transform="scale(0.015625)"/>
      <path id="DejaVuSans-73" d="M 2834 3397 
L 2834 2853 
Q 2591 2978 2328 3040 
Q 2066 3103 1784 3103 
Q 1356 3103 1142 2972 
Q 928 2841 928 2578 
Q 928 2378 1081 2264 
Q 1234 2150 1697 2047 
L 1894 2003 
Q 2506 1872 2764 1633 
Q 3022 1394 3022 966 
Q 3022 478 2636 193 
Q 2250 -91 1575 -91 
Q 1294 -91 989 -36 
Q 684 19 347 128 
L 347 722 
Q 666 556 975 473 
Q 1284 391 1588 391 
Q 1994 391 2212 530 
Q 2431 669 2431 922 
Q 2431 1156 2273 1281 
Q 2116 1406 1581 1522 
L 1381 1569 
Q 847 1681 609 1914 
Q 372 2147 372 2553 
Q 372 3047 722 3315 
Q 1072 3584 1716 3584 
Q 2034 3584 2315 3537 
Q 2597 3491 2834 3397 
z
" transform="scale(0.015625)"/>
     </defs>
     <use xlink:href="#DejaVuSans-28"/>
     <use xlink:href="#DejaVuSans-61" transform="translate(39.013672 0)"/>
     <use xlink:href="#DejaVuSans-29" transform="translate(100.292969 0)"/>
     <use xlink:href="#DejaVuSans-20" transform="translate(139.306641 0)"/>
     <use xlink:href="#DejaVuSans-64" transform="translate(171.09375 0)"/>
     <use xlink:href="#DejaVuSans-69" transform="translate(234.570312 0)"/>
     <use xlink:href="#DejaVuSans-72" transform="translate(262.353516 0)"/>
     <use xlink:href="#DejaVuSans-65" transform="translate(301.216797 0)"/>
     <use xlink:href="#DejaVuSans-63" transform="translate(362.740234 0)"/>
     <use xlink:href="#DejaVuSans-74" transform="translate(417.720703 0)"/>
     <use xlink:href="#DejaVuSans-69" transform="translate(456.929688 0)"/>
     <use xlink:href="#DejaVuSans-6f" transform="translate(484.712891 0)"/>
     <use xlink:href="#DejaVuSans-6e" transform="translate(545.894531 0)"/>
     <use xlink:href="#DejaVuSans-20" transform="translate(609.273438 0)"/>
     <use xlink:href="#DejaVuSans-63" transform="translate(641.060547 0)"/>
     <use xlink:href="#DejaVuSans-6f" transform="translate(696.041016 0)"/>
     <use xlink:href="#DejaVuSans-6e" transform="translate(757.222656 0)"/>
     <use xlink:href="#DejaVuSans-76" transform="translate(820.601562 0)"/>
     <use xlink:href="#DejaVuSans-65" transform="translate(879.78125 0)"/>
     <use xlink:href="#DejaVuSans-72" transform="translate(941.304688 0)"/>
     <use xlink:href="#DejaVuSans-67" transform="translate(980.667969 0)"/>
     <use xlink:href="#DejaVuSans-65" transform="translate(1044.144531 0)"/>
     <use xlink:href="#DejaVuSans-73" transform="translate(1105.667969 0)"/>
    </g>
   </g>
  </g>
  <g id="axes_2">
   <g id="patch_12">
    <path d="M 277.870909 267.112923 
L 506.143636 267.112923 
L 506.143636 45.352923 
L 277.870909 45.352923 
z
" style="fill: #ffffff"/>
   </g>
   <g id="matplotlib.axis_1">
    <g id="xtick_1">
     <g id="line2d_2">
      <defs>
       <path id="m0e0d04b24a" d="M 0 0 
L 0 3.5 
" style="stroke: #000000; stroke-width: 0.8"/>
      </defs>
      <g>
       <use xlink:href="#m0e0d04b24a" x="304.21007" y="267.112923" style="stroke: #000000; stroke-width: 0.8"/>
      </g>
     </g>
     <g id="text_4">
      <!-- 2 -->
      <g transform="translate(301.346945 280.951517) scale(0.09 -0.09)">
       <defs>
        <path id="DejaVuSans-32" d="M 1228 531 
L 3431 531 
L 3431 0 
L 469 0 
L 469 531 
Q 828 903 1448 1529 
Q 2069 2156 2228 2338 
Q 2531 2678 2651 2914 
Q 2772 3150 2772 3378 
Q 2772 3750 2511 3984 
Q 2250 4219 1831 4219 
Q 1534 4219 1204 4116 
Q 875 4013 500 3803 
L 500 4441 
Q 881 4594 1212 4672 
Q 1544 4750 1819 4750 
Q 2544 4750 2975 4387 
Q 3406 4025 3406 3419 
Q 3406 3131 3298 2873 
Q 3191 2616 2906 2266 
Q 2828 2175 2409 1742 
Q 1991 1309 1228 531 
z
" transform="scale(0.015625)"/>
       </defs>
       <use xlink:href="#DejaVuSans-32"/>
      </g>
     </g>
    </g>
    <g id="xtick_2">
     <g id="line2d_3">
      <g>
       <use xlink:href="#m0e0d04b24a" x="336.136325" y="267.112923" style="stroke: #000000; stroke-width: 0.8"/>
      </g>
     </g>
     <g id="text_5">
      <!-- 4 -->
      <g transform="translate(333.2732 280.951517) scale(0.09 -0.09)">
       <defs>
        <path id="DejaVuSans-34" d="M 2419 4116 
L 825 1625 
L 2419 1625 
L 2419 4116 
z
M 2253 4666 
L 3047 4666 
L 3047 1625 
L 3713 1625 
L 3713 1100 
L 3047 1100 
L 3047 0 
L 2419 0 
L 2419 1100 
L 313 1100 
L 313 1709 
L 2253 4666 
z
" transform="scale(0.015625)"/>
       </defs>
       <use xlink:href="#DejaVuSans-34"/>
      </g>
     </g>
    </g>
    <g id="xtick_3">
     <g id="line2d_4">
      <g>
       <use xlink:href="#m0e0d04b24a" x="368.062581" y="267.112923" style="stroke: #000000; stroke-width: 0.8"/>
      </g>
     </g>
     <g id="text_6">
      <!-- 6 -->
      <g transform="translate(365.199456 280.951517) scale(0.09 -0.09)">
       <defs>
        <path id="DejaVuSans-36" d="M 2113 2584 
Q 1688 2584 1439 2293 
Q 1191 2003 1191 1497 
Q 1191 994 1439 701 
Q 1688 409 2113 409 
Q 2538 409 2786 701 
Q 3034 994 3034 1497 
Q 3034 2003 2786 2293 
Q 2538 2584 2113 2584 
z
M 3366 4563 
L 3366 3988 
Q 3128 4100 2886 4159 
Q 2644 4219 2406 4219 
Q 1781 4219 1451 3797 
Q 1122 3375 1075 2522 
Q 1259 2794 1537 2939 
Q 1816 3084 2150 3084 
Q 2853 3084 3261 2657 
Q 3669 2231 3669 1497 
Q 3669 778 3244 343 
Q 2819 -91 2113 -91 
Q 1303 -91 875 529 
Q 447 1150 447 2328 
Q 447 3434 972 4092 
Q 1497 4750 2381 4750 
Q 2619 4750 2861 4703 
Q 3103 4656 3366 4563 
z
" transform="scale(0.015625)"/>
       </defs>
       <use xlink:href="#DejaVuSans-36"/>
      </g>
     </g>
    </g>
    <g id="xtick_4">
     <g id="line2d_5">
      <g>
       <use xlink:href="#m0e0d04b24a" x="399.988837" y="267.112923" style="stroke: #000000; stroke-width: 0.8"/>
      </g>
     </g>
     <g id="text_7">
      <!-- 8 -->
      <g transform="translate(397.125712 280.951517) scale(0.09 -0.09)">
       <defs>
        <path id="DejaVuSans-38" d="M 2034 2216 
Q 1584 2216 1326 1975 
Q 1069 1734 1069 1313 
Q 1069 891 1326 650 
Q 1584 409 2034 409 
Q 2484 409 2743 651 
Q 3003 894 3003 1313 
Q 3003 1734 2745 1975 
Q 2488 2216 2034 2216 
z
M 1403 2484 
Q 997 2584 770 2862 
Q 544 3141 544 3541 
Q 544 4100 942 4425 
Q 1341 4750 2034 4750 
Q 2731 4750 3128 4425 
Q 3525 4100 3525 3541 
Q 3525 3141 3298 2862 
Q 3072 2584 2669 2484 
Q 3125 2378 3379 2068 
Q 3634 1759 3634 1313 
Q 3634 634 3220 271 
Q 2806 -91 2034 -91 
Q 1263 -91 848 271 
Q 434 634 434 1313 
Q 434 1759 690 2068 
Q 947 2378 1403 2484 
z
M 1172 3481 
Q 1172 3119 1398 2916 
Q 1625 2713 2034 2713 
Q 2441 2713 2670 2916 
Q 2900 3119 2900 3481 
Q 2900 3844 2670 4047 
Q 2441 4250 2034 4250 
Q 1625 4250 1398 4047 
Q 1172 3844 1172 3481 
z
" transform="scale(0.015625)"/>
       </defs>
       <use xlink:href="#DejaVuSans-38"/>
      </g>
     </g>
    </g>
    <g id="xtick_5">
     <g id="line2d_6">
      <g>
       <use xlink:href="#m0e0d04b24a" x="431.915092" y="267.112923" style="stroke: #000000; stroke-width: 0.8"/>
      </g>
     </g>
     <g id="text_8">
      <!-- 10 -->
      <g transform="translate(426.188842 280.951517) scale(0.09 -0.09)">
       <defs>
        <path id="DejaVuSans-31" d="M 794 531 
L 1825 531 
L 1825 4091 
L 703 3866 
L 703 4441 
L 1819 4666 
L 2450 4666 
L 2450 531 
L 3481 531 
L 3481 0 
L 794 0 
L 794 531 
z
" transform="scale(0.015625)"/>
        <path id="DejaVuSans-30" d="M 2034 4250 
Q 1547 4250 1301 3770 
Q 1056 3291 1056 2328 
Q 1056 1369 1301 889 
Q 1547 409 2034 409 
Q 2525 409 2770 889 
Q 3016 1369 3016 2328 
Q 3016 3291 2770 3770 
Q 2525 4250 2034 4250 
z
M 2034 4750 
Q 2819 4750 3233 4129 
Q 3647 3509 3647 2328 
Q 3647 1150 3233 529 
Q 2819 -91 2034 -91 
Q 1250 -91 836 529 
Q 422 1150 422 2328 
Q 422 3509 836 4129 
Q 1250 4750 2034 4750 
z
" transform="scale(0.015625)"/>
       </defs>
       <use xlink:href="#DejaVuSans-31"/>
       <use xlink:href="#DejaVuSans-30" transform="translate(63.623047 0)"/>
      </g>
     </g>
    </g>
    <g id="xtick_6">
     <g id="line2d_7">
      <g>
       <use xlink:href="#m0e0d04b24a" x="463.841348" y="267.112923" style="stroke: #000000; stroke-width: 0.8"/>
      </g>
     </g>
     <g id="text_9">
      <!-- 12 -->
      <g transform="translate(458.115098 280.951517) scale(0.09 -0.09)">
       <use xlink:href="#DejaVuSans-31"/>
       <use xlink:href="#DejaVuSans-32" transform="translate(63.623047 0)"/>
      </g>
     </g>
    </g>
    <g id="xtick_7">
     <g id="line2d_8">
      <g>
       <use xlink:href="#m0e0d04b24a" x="495.767603" y="267.112923" style="stroke: #000000; stroke-width: 0.8"/>
      </g>
     </g>
     <g id="text_10">
      <!-- 14 -->
      <g transform="translate(490.041353 280.951517) scale(0.09 -0.09)">
       <use xlink:href="#DejaVuSans-31"/>
       <use xlink:href="#DejaVuSans-34" transform="translate(63.623047 0)"/>
      </g>
     </g>
    </g>
    <g id="text_11">
     <!-- iteration $k$ -->
     <g transform="translate(364.122273 295.181517) scale(0.11 -0.11)">
      <defs>
       <path id="Cmmi10-6b" d="M 341 116 
Q 341 153 347 172 
L 1275 3872 
Q 1300 3981 1306 4044 
Q 1306 4147 891 4147 
Q 825 4147 825 4231 
Q 828 4247 839 4287 
Q 850 4328 867 4350 
Q 884 4372 916 4372 
L 1778 4441 
L 1797 4441 
Q 1797 4434 1819 4423 
Q 1841 4413 1844 4409 
Q 1856 4378 1856 4359 
L 1184 1684 
Q 1416 1781 1767 2145 
Q 2119 2509 2317 2668 
Q 2516 2828 2816 2828 
Q 2994 2828 3119 2706 
Q 3244 2584 3244 2406 
Q 3244 2294 3197 2198 
Q 3150 2103 3065 2043 
Q 2981 1984 2869 1984 
Q 2766 1984 2695 2048 
Q 2625 2113 2625 2216 
Q 2625 2369 2733 2473 
Q 2841 2578 2994 2578 
Q 2931 2663 2803 2663 
Q 2613 2663 2436 2553 
Q 2259 2444 2054 2239 
Q 1850 2034 1681 1864 
Q 1513 1694 1369 1606 
Q 1747 1563 2025 1408 
Q 2303 1253 2303 934 
Q 2303 869 2278 769 
Q 2222 528 2222 384 
Q 2222 97 2419 97 
Q 2650 97 2770 350 
Q 2891 603 2969 941 
Q 2981 978 3022 978 
L 3097 978 
Q 3122 978 3139 962 
Q 3156 947 3156 922 
Q 3156 916 3150 903 
Q 2909 -72 2406 -72 
Q 2225 -72 2086 12 
Q 1947 97 1872 242 
Q 1797 388 1797 569 
Q 1797 672 1825 781 
Q 1844 856 1844 922 
Q 1844 1169 1625 1297 
Q 1406 1425 1125 1453 
L 800 147 
Q 775 50 703 -11 
Q 631 -72 538 -72 
Q 456 -72 398 -17 
Q 341 38 341 116 
z
" transform="scale(0.015625)"/>
      </defs>
      <use xlink:href="#DejaVuSans-69" transform="translate(0 0.015625)"/>
      <use xlink:href="#DejaVuSans-74" transform="translate(27.783203 0.015625)"/>
      <use xlink:href="#DejaVuSans-65" transform="translate(66.992188 0.015625)"/>
      <use xlink:href="#DejaVuSans-72" transform="translate(128.515625 0.015625)"/>
      <use xlink:href="#DejaVuSans-61" transform="translate(169.628906 0.015625)"/>
      <use xlink:href="#DejaVuSans-74" transform="translate(230.908203 0.015625)"/>
      <use xlink:href="#DejaVuSans-69" transform="translate(270.117188 0.015625)"/>
      <use xlink:href="#DejaVuSans-6f" transform="translate(297.900391 0.015625)"/>
      <use xlink:href="#DejaVuSans-6e" transform="translate(359.082031 0.015625)"/>
      <use xlink:href="#DejaVuSans-20" transform="translate(422.460938 0.015625)"/>
      <use xlink:href="#Cmmi10-6b" transform="translate(454.248047 0.015625)"/>
     </g>
    </g>
   </g>
   <g id="matplotlib.axis_2">
    <g id="ytick_1">
     <g id="line2d_9">
      <defs>
       <path id="m5d09d475d1" d="M 0 0 
L -3.5 0 
" style="stroke: #000000; stroke-width: 0.8"/>
      </defs>
      <g>
       <use xlink:href="#m5d09d475d1" x="277.870909" y="246.597538" style="stroke: #000000; stroke-width: 0.8"/>
      </g>
     </g>
     <g id="text_12">
      <!-- 2.70 -->
      <g transform="translate(250.831847 250.016835) scale(0.09 -0.09)">
       <defs>
        <path id="DejaVuSans-2e" d="M 684 794 
L 1344 794 
L 1344 0 
L 684 0 
L 684 794 
z
" transform="scale(0.015625)"/>
        <path id="DejaVuSans-37" d="M 525 4666 
L 3525 4666 
L 3525 4397 
L 1831 0 
L 1172 0 
L 2766 4134 
L 525 4134 
L 525 4666 
z
" transform="scale(0.015625)"/>
       </defs>
       <use xlink:href="#DejaVuSans-32"/>
       <use xlink:href="#DejaVuSans-2e" transform="translate(63.623047 0)"/>
       <use xlink:href="#DejaVuSans-37" transform="translate(95.410156 0)"/>
       <use xlink:href="#DejaVuSans-30" transform="translate(159.033203 0)"/>
      </g>
     </g>
    </g>
    <g id="ytick_2">
     <g id="line2d_10">
      <g>
       <use xlink:href="#m5d09d475d1" x="277.870909" y="214.736769" style="stroke: #000000; stroke-width: 0.8"/>
      </g>
     </g>
     <g id="text_13">
      <!-- 2.75 -->
      <g transform="translate(250.831847 218.156066) scale(0.09 -0.09)">
       <defs>
        <path id="DejaVuSans-35" d="M 691 4666 
L 3169 4666 
L 3169 4134 
L 1269 4134 
L 1269 2991 
Q 1406 3038 1543 3061 
Q 1681 3084 1819 3084 
Q 2600 3084 3056 2656 
Q 3513 2228 3513 1497 
Q 3513 744 3044 326 
Q 2575 -91 1722 -91 
Q 1428 -91 1123 -41 
Q 819 9 494 109 
L 494 744 
Q 775 591 1075 516 
Q 1375 441 1709 441 
Q 2250 441 2565 725 
Q 2881 1009 2881 1497 
Q 2881 1984 2565 2268 
Q 2250 2553 1709 2553 
Q 1456 2553 1204 2497 
Q 953 2441 691 2322 
L 691 4666 
z
" transform="scale(0.015625)"/>
       </defs>
       <use xlink:href="#DejaVuSans-32"/>
       <use xlink:href="#DejaVuSans-2e" transform="translate(63.623047 0)"/>
       <use xlink:href="#DejaVuSans-37" transform="translate(95.410156 0)"/>
       <use xlink:href="#DejaVuSans-35" transform="translate(159.033203 0)"/>
      </g>
     </g>
    </g>
    <g id="ytick_3">
     <g id="line2d_11">
      <g>
       <use xlink:href="#m5d09d475d1" x="277.870909" y="182.876" style="stroke: #000000; stroke-width: 0.8"/>
      </g>
     </g>
     <g id="text_14">
      <!-- 2.80 -->
      <g transform="translate(250.831847 186.295297) scale(0.09 -0.09)">
       <use xlink:href="#DejaVuSans-32"/>
       <use xlink:href="#DejaVuSans-2e" transform="translate(63.623047 0)"/>
       <use xlink:href="#DejaVuSans-38" transform="translate(95.410156 0)"/>
       <use xlink:href="#DejaVuSans-30" transform="translate(159.033203 0)"/>
      </g>
     </g>
    </g>
    <g id="ytick_4">
     <g id="line2d_12">
      <g>
       <use xlink:href="#m5d09d475d1" x="277.870909" y="151.015231" style="stroke: #000000; stroke-width: 0.8"/>
      </g>
     </g>
     <g id="text_15">
      <!-- 2.85 -->
      <g transform="translate(250.831847 154.434528) scale(0.09 -0.09)">
       <use xlink:href="#DejaVuSans-32"/>
       <use xlink:href="#DejaVuSans-2e" transform="translate(63.623047 0)"/>
       <use xlink:href="#DejaVuSans-38" transform="translate(95.410156 0)"/>
       <use xlink:href="#DejaVuSans-35" transform="translate(159.033203 0)"/>
      </g>
     </g>
    </g>
    <g id="ytick_5">
     <g id="line2d_13">
      <g>
       <use xlink:href="#m5d09d475d1" x="277.870909" y="119.154461" style="stroke: #000000; stroke-width: 0.8"/>
      </g>
     </g>
     <g id="text_16">
      <!-- 2.90 -->
      <g transform="translate(250.831847 122.573758) scale(0.09 -0.09)">
       <defs>
        <path id="DejaVuSans-39" d="M 703 97 
L 703 672 
Q 941 559 1184 500 
Q 1428 441 1663 441 
Q 2288 441 2617 861 
Q 2947 1281 2994 2138 
Q 2813 1869 2534 1725 
Q 2256 1581 1919 1581 
Q 1219 1581 811 2004 
Q 403 2428 403 3163 
Q 403 3881 828 4315 
Q 1253 4750 1959 4750 
Q 2769 4750 3195 4129 
Q 3622 3509 3622 2328 
Q 3622 1225 3098 567 
Q 2575 -91 1691 -91 
Q 1453 -91 1209 -44 
Q 966 3 703 97 
z
M 1959 2075 
Q 2384 2075 2632 2365 
Q 2881 2656 2881 3163 
Q 2881 3666 2632 3958 
Q 2384 4250 1959 4250 
Q 1534 4250 1286 3958 
Q 1038 3666 1038 3163 
Q 1038 2656 1286 2365 
Q 1534 2075 1959 2075 
z
" transform="scale(0.015625)"/>
       </defs>
       <use xlink:href="#DejaVuSans-32"/>
       <use xlink:href="#DejaVuSans-2e" transform="translate(63.623047 0)"/>
       <use xlink:href="#DejaVuSans-39" transform="translate(95.410156 0)"/>
       <use xlink:href="#DejaVuSans-30" transform="translate(159.033203 0)"/>
      </g>
     </g>
    </g>
    <g id="ytick_6">
     <g id="line2d_14">
      <g>
       <use xlink:href="#m5d09d475d1" x="277.870909" y="87.293692" style="stroke: #000000; stroke-width: 0.8"/>
      </g>
     </g>
     <g id="text_17">
      <!-- 2.95 -->
      <g transform="translate(250.831847 90.712989) scale(0.09 -0.09)">
       <use xlink:href="#DejaVuSans-32"/>
       <use xlink:href="#DejaVuSans-2e" transform="translate(63.623047 0)"/>
       <use xlink:href="#DejaVuSans-39" transform="translate(95.410156 0)"/>
       <use xlink:href="#DejaVuSans-35" transform="translate(159.033203 0)"/>
      </g>
     </g>
    </g>
    <g id="ytick_7">
     <g id="line2d_15">
      <g>
       <use xlink:href="#m5d09d475d1" x="277.870909" y="55.432923" style="stroke: #000000; stroke-width: 0.8"/>
      </g>
     </g>
     <g id="text_18">
      <!-- 3.00 -->
      <g transform="translate(250.831847 58.85222) scale(0.09 -0.09)">
       <defs>
        <path id="DejaVuSans-33" d="M 2597 2516 
Q 3050 2419 3304 2112 
Q 3559 1806 3559 1356 
Q 3559 666 3084 287 
Q 2609 -91 1734 -91 
Q 1441 -91 1130 -33 
Q 819 25 488 141 
L 488 750 
Q 750 597 1062 519 
Q 1375 441 1716 441 
Q 2309 441 2620 675 
Q 2931 909 2931 1356 
Q 2931 1769 2642 2001 
Q 2353 2234 1838 2234 
L 1294 2234 
L 1294 2753 
L 1863 2753 
Q 2328 2753 2575 2939 
Q 2822 3125 2822 3475 
Q 2822 3834 2567 4026 
Q 2313 4219 1838 4219 
Q 1578 4219 1281 4162 
Q 984 4106 628 3988 
L 628 4550 
Q 988 4650 1302 4700 
Q 1616 4750 1894 4750 
Q 2613 4750 3031 4423 
Q 3450 4097 3450 3541 
Q 3450 3153 3228 2886 
Q 3006 2619 2597 2516 
z
" transform="scale(0.015625)"/>
       </defs>
       <use xlink:href="#DejaVuSans-33"/>
       <use xlink:href="#DejaVuSans-2e" transform="translate(63.623047 0)"/>
       <use xlink:href="#DejaVuSans-30" transform="translate(95.410156 0)"/>
       <use xlink:href="#DejaVuSans-30" transform="translate(159.033203 0)"/>
      </g>
     </g>
    </g>
    <g id="text_19">
     <!-- $\|A^{k+1}v\|/\|A^k v\|$ -->
     <g transform="translate(244.081847 195.887923) rotate(-90) scale(0.11 -0.11)">
      <defs>
       <path id="Cmsy10-6b" d="M 850 -1484 
L 850 4684 
Q 850 4734 890 4767 
Q 931 4800 978 4800 
Q 1031 4800 1068 4767 
Q 1106 4734 1106 4684 
L 1106 -1484 
Q 1106 -1534 1068 -1567 
Q 1031 -1600 978 -1600 
Q 931 -1600 890 -1567 
Q 850 -1534 850 -1484 
z
M 2094 -1484 
L 2094 4684 
Q 2094 4734 2131 4767 
Q 2169 4800 2222 4800 
Q 2269 4800 2309 4767 
Q 2350 4734 2350 4684 
L 2350 -1484 
Q 2350 -1534 2309 -1567 
Q 2269 -1600 2222 -1600 
Q 2169 -1600 2131 -1567 
Q 2094 -1534 2094 -1484 
z
" transform="scale(0.015625)"/>
       <path id="Cmmi10-41" d="M 288 0 
Q 225 0 225 84 
Q 250 225 306 225 
Q 566 225 755 328 
Q 944 431 1081 647 
Q 1094 659 1094 659 
L 3378 4513 
Q 3428 4581 3500 4581 
L 3584 4581 
Q 3603 4581 3622 4573 
Q 3641 4566 3655 4548 
Q 3669 4531 3669 4513 
L 4056 378 
Q 4056 350 4084 294 
Q 4147 225 4563 225 
Q 4628 225 4628 141 
Q 4606 56 4592 28 
Q 4578 0 4519 0 
L 2919 0 
Q 2859 0 2859 84 
Q 2894 225 2944 225 
Q 3450 225 3481 397 
L 3384 1453 
L 1806 1453 
L 1294 594 
Q 1247 525 1247 434 
Q 1247 322 1355 273 
Q 1463 225 1594 225 
Q 1656 225 1656 141 
Q 1634 50 1621 25 
Q 1609 0 1550 0 
L 288 0 
z
M 1931 1678 
L 3359 1678 
L 3169 3750 
L 1931 1678 
z
" transform="scale(0.015625)"/>
       <path id="Cmr10-2b" d="M 481 1472 
Q 428 1472 393 1512 
Q 359 1553 359 1600 
Q 359 1647 393 1687 
Q 428 1728 481 1728 
L 2363 1728 
L 2363 3616 
Q 2363 3666 2400 3698 
Q 2438 3731 2491 3731 
Q 2538 3731 2578 3698 
Q 2619 3666 2619 3616 
L 2619 1728 
L 4500 1728 
Q 4547 1728 4581 1687 
Q 4616 1647 4616 1600 
Q 4616 1553 4581 1512 
Q 4547 1472 4500 1472 
L 2619 1472 
L 2619 -416 
Q 2619 -466 2578 -498 
Q 2538 -531 2491 -531 
Q 2438 -531 2400 -498 
Q 2363 -466 2363 -416 
L 2363 1472 
L 481 1472 
z
" transform="scale(0.015625)"/>
       <path id="Cmmi10-76" d="M 684 722 
Q 684 866 718 1037 
Q 753 1209 787 1320 
Q 822 1431 944 1753 
Q 1066 2075 1069 2088 
Q 1153 2322 1153 2472 
Q 1153 2663 1013 2663 
Q 759 2663 595 2402 
Q 431 2141 353 1819 
Q 341 1778 300 1778 
L 225 1778 
Q 172 1778 172 1838 
L 172 1856 
Q 275 2238 487 2533 
Q 700 2828 1025 2828 
Q 1253 2828 1411 2678 
Q 1569 2528 1569 2297 
Q 1569 2178 1516 2047 
Q 1391 1722 1319 1526 
Q 1247 1331 1186 1089 
Q 1125 847 1125 641 
Q 1125 400 1236 248 
Q 1347 97 1581 97 
Q 2025 97 2381 781 
Q 2494 1003 2594 1303 
Q 2694 1603 2694 1791 
Q 2694 1984 2631 2092 
Q 2569 2200 2469 2317 
Q 2369 2434 2369 2503 
Q 2369 2628 2472 2731 
Q 2575 2834 2700 2834 
Q 2853 2834 2920 2693 
Q 2988 2553 2988 2375 
Q 2988 2163 2927 1869 
Q 2866 1575 2758 1259 
Q 2650 944 2559 763 
Q 2138 -72 1575 -72 
Q 1172 -72 928 129 
Q 684 331 684 722 
z
" transform="scale(0.015625)"/>
       <path id="Cmmi10-3d" d="M 359 -1472 
Q 359 -1453 366 -1447 
L 2591 4722 
Q 2603 4759 2634 4779 
Q 2666 4800 2706 4800 
Q 2763 4800 2798 4765 
Q 2834 4731 2834 4672 
L 2834 4647 
L 609 -1522 
Q 572 -1600 488 -1600 
Q 434 -1600 396 -1562 
Q 359 -1525 359 -1472 
z
" transform="scale(0.015625)"/>
      </defs>
      <use xlink:href="#Cmsy10-6b" transform="translate(0 0.1625)"/>
      <use xlink:href="#Cmmi10-41" transform="translate(50 0.1625)"/>
      <use xlink:href="#Cmmi10-6b" transform="translate(137.055312 38.426562) scale(0.7)"/>
      <use xlink:href="#Cmr10-2b" transform="translate(185.747695 38.426562) scale(0.7)"/>
      <use xlink:href="#Cmr10-31" transform="translate(252.418594 38.426562) scale(0.7)"/>
      <use xlink:href="#Cmmi10-76" transform="translate(293.795937 0.1625)"/>
      <use xlink:href="#Cmsy10-6b" transform="translate(342.184609 0.1625)"/>
      <use xlink:href="#Cmmi10-3d" transform="translate(392.184609 0.1625)"/>
      <use xlink:href="#Cmsy10-6b" transform="translate(442.184609 0.1625)"/>
      <use xlink:href="#Cmmi10-41" transform="translate(492.184609 0.1625)"/>
      <use xlink:href="#Cmmi10-6b" transform="translate(579.239922 38.426562) scale(0.7)"/>
      <use xlink:href="#Cmmi10-76" transform="translate(622.018633 0.1625)"/>
      <use xlink:href="#Cmsy10-6b" transform="translate(670.407305 0.1625)"/>
     </g>
    </g>
   </g>
   <g id="line2d_16">
    <path d="M 288.246942 257.032923 
L 304.21007 82.136248 
L 320.173198 58.465712 
L 336.136325 55.770733 
L 352.099453 55.470468 
L 368.062581 55.437095 
L 384.025709 55.433387 
L 399.988837 55.432975 
L 415.951964 55.432929 
L 431.915092 55.432924 
L 447.87822 55.432923 
L 463.841348 55.432923 
L 479.804476 55.432923 
L 495.767603 55.432923 
" clip-path="url(#pe62859aacc)" style="fill: none; stroke: #1f77b4; stroke-width: 2; stroke-linecap: square"/>
    <defs>
     <path id="m9a1dc8a108" d="M 0 2.5 
C 0.663008 2.5 1.29895 2.236584 1.767767 1.767767 
C 2.236584 1.29895 2.5 0.663008 2.5 0 
C 2.5 -0.663008 2.236584 -1.29895 1.767767 -1.767767 
C 1.29895 -2.236584 0.663008 -2.5 0 -2.5 
C -0.663008 -2.5 -1.29895 -2.236584 -1.767767 -1.767767 
C -2.236584 -1.29895 -2.5 -0.663008 -2.5 0 
C -2.5 0.663008 -2.236584 1.29895 -1.767767 1.767767 
C -1.29895 2.236584 -0.663008 2.5 0 2.5 
z
" style="stroke: #1f77b4"/>
    </defs>
    <g clip-path="url(#pe62859aacc)">
     <use xlink:href="#m9a1dc8a108" x="288.246942" y="257.032923" style="fill: #1f77b4; stroke: #1f77b4"/>
     <use xlink:href="#m9a1dc8a108" x="304.21007" y="82.136248" style="fill: #1f77b4; stroke: #1f77b4"/>
     <use xlink:href="#m9a1dc8a108" x="320.173198" y="58.465712" style="fill: #1f77b4; stroke: #1f77b4"/>
     <use xlink:href="#m9a1dc8a108" x="336.136325" y="55.770733" style="fill: #1f77b4; stroke: #1f77b4"/>
     <use xlink:href="#m9a1dc8a108" x="352.099453" y="55.470468" style="fill: #1f77b4; stroke: #1f77b4"/>
     <use xlink:href="#m9a1dc8a108" x="368.062581" y="55.437095" style="fill: #1f77b4; stroke: #1f77b4"/>
     <use xlink:href="#m9a1dc8a108" x="384.025709" y="55.433387" style="fill: #1f77b4; stroke: #1f77b4"/>
     <use xlink:href="#m9a1dc8a108" x="399.988837" y="55.432975" style="fill: #1f77b4; stroke: #1f77b4"/>
     <use xlink:href="#m9a1dc8a108" x="415.951964" y="55.432929" style="fill: #1f77b4; stroke: #1f77b4"/>
     <use xlink:href="#m9a1dc8a108" x="431.915092" y="55.432924" style="fill: #1f77b4; stroke: #1f77b4"/>
     <use xlink:href="#m9a1dc8a108" x="447.87822" y="55.432923" style="fill: #1f77b4; stroke: #1f77b4"/>
     <use xlink:href="#m9a1dc8a108" x="463.841348" y="55.432923" style="fill: #1f77b4; stroke: #1f77b4"/>
     <use xlink:href="#m9a1dc8a108" x="479.804476" y="55.432923" style="fill: #1f77b4; stroke: #1f77b4"/>
     <use xlink:href="#m9a1dc8a108" x="495.767603" y="55.432923" style="fill: #1f77b4; stroke: #1f77b4"/>
    </g>
   </g>
   <g id="line2d_17">
    <path d="M 277.870909 55.432923 
L 506.143636 55.432923 
" clip-path="url(#pe62859aacc)" style="fill: none; stroke-dasharray: 5.18,2.24; stroke-dashoffset: 0; stroke: #7f7f7f; stroke-width: 1.4"/>
   </g>
   <g id="patch_13">
    <path d="M 277.870909 267.112923 
L 277.870909 45.352923 
" style="fill: none; stroke: #000000; stroke-width: 0.8; stroke-linejoin: miter; stroke-linecap: square"/>
   </g>
   <g id="patch_14">
    <path d="M 277.870909 267.112923 
L 506.143636 267.112923 
" style="fill: none; stroke: #000000; stroke-width: 0.8; stroke-linejoin: miter; stroke-linecap: square"/>
   </g>
   <g id="text_20">
    <!-- $|\lambda_1|=3$ -->
    <g style="fill: #7f7f7f" transform="translate(463.967603 14.7) scale(0.1 -0.1)">
     <defs>
      <path id="Cmsy10-6a" d="M 763 -1484 
L 763 4684 
Q 763 4734 800 4767 
Q 838 4800 891 4800 
Q 938 4800 978 4767 
Q 1019 4734 1019 4684 
L 1019 -1484 
Q 1019 -1534 978 -1567 
Q 938 -1600 891 -1600 
Q 838 -1600 800 -1567 
Q 763 -1534 763 -1484 
z
" transform="scale(0.015625)"/>
      <path id="Cmmi10-b8" d="M 325 109 
Q 325 203 409 288 
L 2209 2053 
L 1575 3834 
Q 1500 4038 1417 4156 
Q 1334 4275 1178 4275 
Q 1106 4275 1106 4359 
Q 1113 4397 1138 4419 
Q 1163 4441 1203 4441 
Q 1875 4441 2016 4044 
L 3316 416 
Q 3400 144 3488 50 
Q 3519 3 3519 -13 
Q 3519 -72 3469 -72 
L 3122 -72 
Q 2963 -25 2869 206 
L 2284 1844 
L 738 25 
Q 622 -84 531 -84 
Q 450 -84 387 -28 
Q 325 28 325 109 
z
" transform="scale(0.015625)"/>
      <path id="Cmr10-3d" d="M 481 850 
Q 428 850 393 890 
Q 359 931 359 978 
Q 359 1031 393 1068 
Q 428 1106 481 1106 
L 4500 1106 
Q 4547 1106 4581 1068 
Q 4616 1031 4616 978 
Q 4616 931 4581 890 
Q 4547 850 4500 850 
L 481 850 
z
M 481 2094 
Q 428 2094 393 2131 
Q 359 2169 359 2222 
Q 359 2269 393 2309 
Q 428 2350 481 2350 
L 4500 2350 
Q 4547 2350 4581 2309 
Q 4616 2269 4616 2222 
Q 4616 2169 4581 2131 
Q 4547 2094 4500 2094 
L 481 2094 
z
" transform="scale(0.015625)"/>
      <path id="Cmr10-33" d="M 609 494 
Q 759 275 1012 169 
Q 1266 63 1556 63 
Q 1928 63 2084 380 
Q 2241 697 2241 1100 
Q 2241 1281 2208 1462 
Q 2175 1644 2097 1800 
Q 2019 1956 1883 2050 
Q 1747 2144 1550 2144 
L 1125 2144 
Q 1069 2144 1069 2203 
L 1069 2259 
Q 1069 2309 1125 2309 
L 1478 2338 
Q 1703 2338 1851 2506 
Q 2000 2675 2069 2917 
Q 2138 3159 2138 3378 
Q 2138 3684 1994 3881 
Q 1850 4078 1556 4078 
Q 1313 4078 1091 3986 
Q 869 3894 738 3706 
Q 750 3709 759 3711 
Q 769 3713 781 3713 
Q 925 3713 1022 3613 
Q 1119 3513 1119 3372 
Q 1119 3234 1022 3134 
Q 925 3034 781 3034 
Q 641 3034 541 3134 
Q 441 3234 441 3372 
Q 441 3647 606 3850 
Q 772 4053 1033 4158 
Q 1294 4263 1556 4263 
Q 1750 4263 1965 4205 
Q 2181 4147 2356 4039 
Q 2531 3931 2642 3762 
Q 2753 3594 2753 3378 
Q 2753 3109 2633 2881 
Q 2513 2653 2303 2487 
Q 2094 2322 1844 2241 
Q 2122 2188 2372 2031 
Q 2622 1875 2773 1631 
Q 2925 1388 2925 1106 
Q 2925 753 2731 467 
Q 2538 181 2222 20 
Q 1906 -141 1556 -141 
Q 1256 -141 954 -26 
Q 653 88 461 316 
Q 269 544 269 863 
Q 269 1022 375 1128 
Q 481 1234 641 1234 
Q 744 1234 830 1186 
Q 916 1138 964 1050 
Q 1013 963 1013 863 
Q 1013 706 903 600 
Q 794 494 641 494 
L 609 494 
z
" transform="scale(0.015625)"/>
     </defs>
     <use xlink:href="#Cmsy10-6a"/>
     <use xlink:href="#Cmmi10-b8" transform="translate(27.685547 0)"/>
     <use xlink:href="#Cmr10-31" transform="translate(85.986328 -17.00625) scale(0.7)"/>
     <use xlink:href="#Cmsy10-6a" transform="translate(127.363672 0)"/>
     <use xlink:href="#Cmr10-3d" transform="translate(172.607812 0)"/>
     <use xlink:href="#Cmr10-33" transform="translate(267.851953 0)"/>
    </g>
   </g>
   <g id="text_21">
    <!-- gap $\sim|\lambda_2/\lambda_1|^k=(0.33)^k$ -->
    <g style="fill: #7f7f7f" transform="translate(380.593636 189.496923) scale(0.095 -0.095)">
     <defs>
      <path id="DejaVuSans-70" d="M 1159 525 
L 1159 -1331 
L 581 -1331 
L 581 3500 
L 1159 3500 
L 1159 2969 
Q 1341 3281 1617 3432 
Q 1894 3584 2278 3584 
Q 2916 3584 3314 3078 
Q 3713 2572 3713 1747 
Q 3713 922 3314 415 
Q 2916 -91 2278 -91 
Q 1894 -91 1617 61 
Q 1341 213 1159 525 
z
M 3116 1747 
Q 3116 2381 2855 2742 
Q 2594 3103 2138 3103 
Q 1681 3103 1420 2742 
Q 1159 2381 1159 1747 
Q 1159 1113 1420 752 
Q 1681 391 2138 391 
Q 2594 391 2855 752 
Q 3116 1113 3116 1747 
z
" transform="scale(0.015625)"/>
      <path id="Cmsy10-bb" d="M 447 850 
Q 378 850 359 1013 
L 359 1050 
Q 359 1544 654 1947 
Q 950 2350 1422 2350 
Q 1716 2350 1955 2204 
Q 2194 2059 2516 1768 
Q 2838 1478 3055 1343 
Q 3272 1209 3553 1209 
Q 3806 1209 4006 1346 
Q 4206 1484 4320 1712 
Q 4434 1941 4434 2188 
Q 4453 2350 4525 2350 
Q 4597 2350 4616 2188 
L 4616 2150 
Q 4616 1841 4486 1537 
Q 4356 1234 4115 1042 
Q 3875 850 3553 850 
Q 3259 850 3031 989 
Q 2803 1128 2481 1417 
Q 2159 1706 1931 1848 
Q 1703 1991 1422 1991 
Q 1172 1991 969 1853 
Q 766 1716 652 1487 
Q 538 1259 538 1013 
Q 519 850 447 850 
z
" transform="scale(0.015625)"/>
      <path id="Cmr10-32" d="M 319 0 
L 319 172 
Q 319 188 331 206 
L 1325 1306 
Q 1550 1550 1690 1715 
Q 1831 1881 1968 2097 
Q 2106 2313 2186 2536 
Q 2266 2759 2266 3009 
Q 2266 3272 2169 3511 
Q 2072 3750 1880 3894 
Q 1688 4038 1416 4038 
Q 1138 4038 916 3870 
Q 694 3703 603 3438 
Q 628 3444 672 3444 
Q 816 3444 917 3347 
Q 1019 3250 1019 3097 
Q 1019 2950 917 2848 
Q 816 2747 672 2747 
Q 522 2747 420 2851 
Q 319 2956 319 3097 
Q 319 3338 409 3548 
Q 500 3759 670 3923 
Q 841 4088 1055 4175 
Q 1269 4263 1509 4263 
Q 1875 4263 2190 4108 
Q 2506 3953 2690 3670 
Q 2875 3388 2875 3009 
Q 2875 2731 2753 2481 
Q 2631 2231 2440 2026 
Q 2250 1822 1953 1562 
Q 1656 1303 1563 1216 
L 838 519 
L 1453 519 
Q 1906 519 2211 526 
Q 2516 534 2534 550 
Q 2609 631 2688 1141 
L 2875 1141 
L 2694 0 
L 319 0 
z
" transform="scale(0.015625)"/>
      <path id="Cmr10-28" d="M 1984 -1588 
Q 1628 -1306 1370 -942 
Q 1113 -578 948 -165 
Q 784 247 703 697 
Q 622 1147 622 1600 
Q 622 2059 703 2509 
Q 784 2959 951 3375 
Q 1119 3791 1378 4153 
Q 1638 4516 1984 4788 
Q 1984 4800 2016 4800 
L 2075 4800 
Q 2094 4800 2109 4783 
Q 2125 4766 2125 4744 
Q 2125 4716 2113 4703 
Q 1800 4397 1592 4047 
Q 1384 3697 1257 3301 
Q 1131 2906 1075 2482 
Q 1019 2059 1019 1600 
Q 1019 -434 2106 -1491 
Q 2125 -1509 2125 -1544 
Q 2125 -1559 2108 -1579 
Q 2091 -1600 2075 -1600 
L 2016 -1600 
Q 1984 -1600 1984 -1588 
z
" transform="scale(0.015625)"/>
      <path id="Cmmi10-3a" d="M 538 353 
Q 538 497 644 600 
Q 750 703 891 703 
Q 978 703 1062 656 
Q 1147 609 1194 525 
Q 1241 441 1241 353 
Q 1241 213 1137 106 
Q 1034 0 891 0 
Q 750 0 644 106 
Q 538 213 538 353 
z
" transform="scale(0.015625)"/>
      <path id="Cmr10-29" d="M 416 -1600 
Q 359 -1600 359 -1544 
Q 359 -1516 372 -1503 
Q 1466 -434 1466 1600 
Q 1466 3634 384 4691 
Q 359 4706 359 4744 
Q 359 4766 376 4783 
Q 394 4800 416 4800 
L 475 4800 
Q 494 4800 506 4788 
Q 966 4425 1272 3906 
Q 1578 3388 1720 2800 
Q 1863 2213 1863 1600 
Q 1863 1147 1786 708 
Q 1709 269 1542 -157 
Q 1375 -584 1119 -945 
Q 863 -1306 506 -1588 
Q 494 -1600 475 -1600 
L 416 -1600 
z
" transform="scale(0.015625)"/>
     </defs>
     <use xlink:href="#DejaVuSans-67" transform="translate(0 0.1625)"/>
     <use xlink:href="#DejaVuSans-61" transform="translate(63.476562 0.1625)"/>
     <use xlink:href="#DejaVuSans-70" transform="translate(124.755859 0.1625)"/>
     <use xlink:href="#DejaVuSans-20" transform="translate(188.232422 0.1625)"/>
     <use xlink:href="#Cmsy10-bb" transform="translate(237.578125 0.1625)"/>
     <use xlink:href="#Cmsy10-6a" transform="translate(332.822266 0.1625)"/>
     <use xlink:href="#Cmmi10-b8" transform="translate(360.507812 0.1625)"/>
     <use xlink:href="#Cmr10-32" transform="translate(418.808594 -16.84375) scale(0.7)"/>
     <use xlink:href="#Cmmi10-3d" transform="translate(460.185938 0.1625)"/>
     <use xlink:href="#Cmmi10-b8" transform="translate(510.185938 0.1625)"/>
     <use xlink:href="#Cmr10-31" transform="translate(568.486719 -16.84375) scale(0.7)"/>
     <use xlink:href="#Cmsy10-6a" transform="translate(609.864063 0.1625)"/>
     <use xlink:href="#Cmmi10-6b" transform="translate(642.01375 38.426562) scale(0.7)"/>
     <use xlink:href="#Cmr10-3d" transform="translate(702.351055 0.1625)"/>
     <use xlink:href="#Cmr10-28" transform="translate(797.595195 0.1625)"/>
     <use xlink:href="#Cmr10-30" transform="translate(836.413555 0.1625)"/>
     <use xlink:href="#Cmmi10-3a" transform="translate(886.413555 0.1625)"/>
     <use xlink:href="#Cmr10-33" transform="translate(914.099102 0.1625)"/>
     <use xlink:href="#Cmr10-33" transform="translate(964.099102 0.1625)"/>
     <use xlink:href="#Cmr10-29" transform="translate(1014.099102 0.1625)"/>
     <use xlink:href="#Cmmi10-6b" transform="translate(1057.381602 38.426562) scale(0.7)"/>
    </g>
   </g>
   <g id="text_22">
    <!-- (b) ratio $\to|\lambda_1|$ -->
    <g transform="translate(348.447273 39.352923) scale(0.12 -0.12)">
     <defs>
      <path id="DejaVuSans-62" d="M 3116 1747 
Q 3116 2381 2855 2742 
Q 2594 3103 2138 3103 
Q 1681 3103 1420 2742 
Q 1159 2381 1159 1747 
Q 1159 1113 1420 752 
Q 1681 391 2138 391 
Q 2594 391 2855 752 
Q 3116 1113 3116 1747 
z
M 1159 2969 
Q 1341 3281 1617 3432 
Q 1894 3584 2278 3584 
Q 2916 3584 3314 3078 
Q 3713 2572 3713 1747 
Q 3713 922 3314 415 
Q 2916 -91 2278 -91 
Q 1894 -91 1617 61 
Q 1341 213 1159 525 
L 1159 0 
L 581 0 
L 581 4863 
L 1159 4863 
L 1159 2969 
z
" transform="scale(0.015625)"/>
      <path id="Cmsy10-21" d="M 481 1472 
Q 428 1472 393 1512 
Q 359 1553 359 1600 
Q 359 1647 393 1687 
Q 428 1728 481 1728 
L 5338 1728 
Q 5094 1903 4906 2133 
Q 4719 2363 4594 2627 
Q 4469 2891 4416 3188 
Q 4416 3272 4481 3272 
L 4609 3272 
Q 4631 3272 4648 3253 
Q 4666 3234 4672 3213 
Q 4725 2938 4839 2702 
Q 4953 2466 5125 2262 
Q 5297 2059 5509 1912 
Q 5722 1766 5991 1672 
Q 6034 1644 6034 1600 
Q 6034 1550 5991 1538 
Q 5656 1422 5378 1192 
Q 5100 963 4919 652 
Q 4738 341 4672 -13 
Q 4666 -34 4647 -53 
Q 4628 -72 4609 -72 
L 4481 -72 
Q 4416 -72 4416 13 
Q 4497 450 4740 836 
Q 4984 1222 5338 1472 
L 481 1472 
z
" transform="scale(0.015625)"/>
     </defs>
     <use xlink:href="#DejaVuSans-28" transform="translate(0 0.015625)"/>
     <use xlink:href="#DejaVuSans-62" transform="translate(39.013672 0.015625)"/>
     <use xlink:href="#DejaVuSans-29" transform="translate(102.490234 0.015625)"/>
     <use xlink:href="#DejaVuSans-20" transform="translate(141.503906 0.015625)"/>
     <use xlink:href="#DejaVuSans-72" transform="translate(173.291016 0.015625)"/>
     <use xlink:href="#DejaVuSans-61" transform="translate(214.404297 0.015625)"/>
     <use xlink:href="#DejaVuSans-74" transform="translate(275.683594 0.015625)"/>
     <use xlink:href="#DejaVuSans-69" transform="translate(314.892578 0.015625)"/>
     <use xlink:href="#DejaVuSans-6f" transform="translate(342.675781 0.015625)"/>
     <use xlink:href="#DejaVuSans-20" transform="translate(403.857422 0.015625)"/>
     <use xlink:href="#Cmsy10-21" transform="translate(453.203125 0.015625)"/>
     <use xlink:href="#Cmsy10-6a" transform="translate(570.761719 0.015625)"/>
     <use xlink:href="#Cmmi10-b8" transform="translate(598.447266 0.015625)"/>
     <use xlink:href="#Cmr10-31" transform="translate(656.748047 -16.990625) scale(0.7)"/>
     <use xlink:href="#Cmsy10-6a" transform="translate(698.125391 0.015625)"/>
    </g>
   </g>
  </g>
 </g>
 <defs>
  <clipPath id="pf617f65844">
   <rect x="7.2" y="45.352923" width="221.76" height="221.76"/>
  </clipPath>
  <clipPath id="pe62859aacc">
   <rect x="277.870909" y="45.352923" width="228.272727" height="221.76"/>
  </clipPath>
 </defs>
</svg>
