<?xml version="1.0" encoding="utf-8" standalone="no"?>
<!DOCTYPE svg PUBLIC "-//W3C//DTD SVG 1.1//EN"
  "http://www.w3.org/Graphics/SVG/1.1/DTD/svg11.dtd">
<svg xmlns:xlink="http://www.w3.org/1999/xlink" width="397.325937pt" height="306.245937pt" viewBox="0 0 397.325937 306.245937" xmlns="http://www.w3.org/2000/svg" version="1.1">
 <metadata>
  <rdf:RDF xmlns:dc="http://purl.org/dc/elements/1.1/" xmlns:cc="http://creativecommons.org/ns#" xmlns:rdf="http://www.w3.org/1999/02/22-rdf-syntax-ns#">
   <cc:Work>
    <dc:type rdf:resource="http://purl.org/dc/dcmitype/StillImage"/>
    <dc:format>image/svg+xml</dc:format>
    <dc:creator>
     <cc:Agent>
      <dc:title>Matplotlib v3.10.8, https://matplotlib.org/</dc:title>
     </cc:Agent>
    </dc:creator>
   </cc:Work>
  </rdf:RDF>
 </metadata>
 <defs>
  <style type="text/css">*{stroke-linejoin: round; stroke-linecap: butt}</style>
 </defs>
 <g id="figure_1">
  <g id="patch_1">
   <path d="M 0 306.245937 
L 397.325937 306.245937 
L 397.325937 0 
L 0 0 
z
" style="fill: #ffffff"/>
  </g>
  <g id="axes_1">
   <g id="patch_2">
    <path d="M 21.845938 284.4 
L 390.125938 284.4 
L 390.125938 7.2 
L 21.845938 7.2 
z
" style="fill: #ffffff"/>
   </g>
   <g id="matplotlib.axis_1">
    <g id="text_1">
     <!-- $\theta_0$ -->
     <g transform="translate(201.090938 296.758281) scale(0.11 -0.11)">
      <defs>
       <path id="Cmmi10-b5" d="M 1031 -72 
Q 741 -72 566 140 
Q 391 353 323 653 
Q 256 953 256 1247 
L 256 1253 
Q 256 1572 317 1915 
Q 378 2259 493 2601 
Q 609 2944 744 3213 
Q 838 3400 986 3631 
Q 1134 3863 1317 4064 
Q 1500 4266 1711 4389 
Q 1922 4513 2138 4513 
L 2144 4513 
Q 2375 4513 2529 4384 
Q 2684 4256 2770 4056 
Q 2856 3856 2890 3628 
Q 2925 3400 2925 3194 
Q 2925 2709 2794 2204 
Q 2663 1700 2431 1228 
Q 2344 1050 2189 809 
Q 2034 569 1861 378 
Q 1688 188 1472 58 
Q 1256 -72 1038 -72 
L 1031 -72 
z
M 1044 97 
Q 1256 97 1451 323 
Q 1647 550 1794 873 
Q 1941 1197 2052 1536 
Q 2163 1875 2216 2113 
L 909 2113 
Q 809 1709 753 1417 
Q 697 1125 697 844 
Q 697 97 1044 97 
z
M 959 2338 
L 2272 2338 
Q 2341 2619 2381 2808 
Q 2422 2997 2450 3206 
Q 2478 3416 2478 3597 
Q 2478 4347 2138 4347 
Q 1731 4347 1436 3692 
Q 1141 3038 959 2338 
z
" transform="scale(0.015625)"/>
       <path id="Cmr10-30" d="M 1600 -141 
Q 816 -141 533 504 
Q 250 1150 250 2041 
Q 250 2597 351 3087 
Q 453 3578 754 3920 
Q 1056 4263 1600 4263 
Q 2022 4263 2290 4056 
Q 2559 3850 2700 3523 
Q 2841 3197 2892 2823 
Q 2944 2450 2944 2041 
Q 2944 1491 2842 1011 
Q 2741 531 2444 195 
Q 2147 -141 1600 -141 
z
M 1600 25 
Q 1956 25 2131 390 
Q 2306 756 2347 1200 
Q 2388 1644 2388 2144 
Q 2388 2625 2347 3031 
Q 2306 3438 2132 3767 
Q 1959 4097 1600 4097 
Q 1238 4097 1063 3765 
Q 888 3434 847 3029 
Q 806 2625 806 2144 
Q 806 1788 823 1472 
Q 841 1156 916 820 
Q 991 484 1158 254 
Q 1325 25 1600 25 
z
" transform="scale(0.015625)"/>
      </defs>
      <use xlink:href="#Cmmi10-b5" transform="translate(0 0.484375)"/>
      <use xlink:href="#Cmr10-30" transform="translate(46.923828 -16.521875) scale(0.7)"/>
     </g>
    </g>
   </g>
   <g id="matplotlib.axis_2">
    <g id="text_2">
     <!-- $\theta_1$ -->
     <g transform="translate(15.558281 150.695) rotate(-90) scale(0.11 -0.11)">
      <defs>
       <path id="Cmr10-31" d="M 594 0 
L 594 225 
Q 1394 225 1394 428 
L 1394 3788 
Q 1063 3628 556 3628 
L 556 3853 
Q 1341 3853 1741 4263 
L 1831 4263 
Q 1853 4263 1873 4245 
Q 1894 4228 1894 4206 
L 1894 428 
Q 1894 225 2694 225 
L 2694 0 
L 594 0 
z
" transform="scale(0.015625)"/>
      </defs>
      <use xlink:href="#Cmmi10-b5" transform="translate(0 0.484375)"/>
      <use xlink:href="#Cmr10-31" transform="translate(46.923828 -16.521875) scale(0.7)"/>
     </g>
    </g>
   </g>
   <g id="QuadContourSet_1">
    <path d="M 293.907329 243.710089 
L 295.071851 243.850222 
L 296.236372 243.976755 
L 297.400894 244.089554 
L 298.565416 244.188417 
L 299.729938 244.273074 
L 300.894459 244.34318 
L 302.058981 244.398315 
L 303.223503 244.437974 
L 304.388024 244.461567 
L 305.552546 244.468412 
L 306.717068 244.457724 
L 307.88159 244.428611 
L 309.046111 244.380066 
L 310.210633 244.310952 
L 311.375155 244.219993 
L 312.539677 244.105763 
L 313.704198 243.966667 
L 314.86872 243.800926 
L 315.865062 243.635294 
L 316.033242 243.607186 
L 317.197764 243.386556 
L 318.362285 243.132664 
L 319.526807 242.842674 
L 320.076696 242.690026 
L 320.691329 242.515946 
L 321.855851 242.148425 
L 322.990254 241.744757 
L 323.020372 241.733716 
L 324.184894 241.270537 
L 325.241417 240.799488 
L 325.349416 240.749374 
L 326.513938 240.164835 
L 327.078089 239.85422 
L 327.678459 239.506393 
L 328.624702 238.908951 
L 328.842981 238.762748 
L 329.948292 237.963683 
L 330.007503 237.917876 
L 331.094358 237.018414 
L 331.172024 236.948983 
L 332.095499 236.073146 
L 332.336546 235.823644 
L 332.97512 235.127877 
L 333.501068 234.49531 
L 333.749896 234.182609 
L 334.43346 233.23734 
L 334.66559 232.881278 
L 335.037065 232.292072 
L 335.568128 231.346803 
L 335.830111 230.821467 
L 336.034638 230.401535 
L 336.443635 229.456266 
L 336.796849 228.510997 
L 336.994633 227.899083 
L 337.101177 227.565729 
L 337.36227 226.62046 
L 337.579845 225.675192 
L 337.757106 224.729923 
L 337.896899 223.784655 
L 338.001749 222.839386 
L 338.073891 221.894118 
L 338.115297 220.948849 
L 338.1277 220.003581 
L 338.112616 219.058312 
L 338.071359 218.113043 
L 338.005062 217.167775 
L 337.914685 216.222506 
L 337.80103 215.277238 
L 337.664752 214.331969 
L 337.506365 213.386701 
L 337.326251 212.441432 
L 337.124664 211.496164 
L 336.994633 210.945438 
L 336.905634 210.550895 
L 336.671995 209.605627 
L 336.418397 208.660358 
L 336.144697 207.71509 
L 335.85064 206.769821 
L 335.830111 206.707975 
L 335.549406 205.824552 
L 335.229569 204.879284 
L 334.889713 203.934015 
L 334.66559 203.344809 
L 334.535768 202.988747 
L 334.172793 202.043478 
L 333.789571 201.09821 
L 333.501068 200.421752 
L 333.391036 200.152941 
L 332.986492 199.207673 
L 332.560952 198.262404 
L 332.336546 197.785369 
L 332.124869 197.317136 
L 331.679041 196.371867 
L 331.210961 195.426598 
L 331.172024 195.350596 
L 330.7435 194.48133 
L 330.255467 193.536061 
L 330.007503 193.074019 
L 329.75772 192.590793 
L 329.250034 191.645524 
L 328.842981 190.91934 
L 328.724586 190.700256 
L 328.197319 189.754987 
L 327.678459 188.866409 
L 327.646515 188.809719 
L 327.099526 187.86445 
L 326.526185 186.919182 
L 326.513938 186.899464 
L 325.958434 185.973913 
L 325.363939 185.028645 
L 325.349416 185.006065 
L 324.775427 184.083376 
L 324.184894 183.176704 
L 324.160566 183.138107 
L 323.551512 182.192839 
L 323.020372 181.40352 
L 322.918719 181.24757 
L 322.287336 180.302302 
L 321.855851 179.680637 
L 321.638071 179.357033 
L 320.983194 178.411765 
L 320.691329 178.003473 
L 320.318787 177.466496 
L 319.639036 176.521228 
L 319.526807 176.368579 
L 318.960699 175.575959 
L 318.362285 174.770841 
L 318.261031 174.630691 
L 317.563303 173.685422 
L 317.197764 173.206474 
L 316.851487 172.740153 
L 316.125752 171.794885 
L 316.033242 171.676705 
L 315.402717 170.849616 
L 314.86872 170.174365 
L 314.660642 169.904348 
L 313.91343 168.959079 
L 313.704198 168.700764 
L 313.161469 168.013811 
L 312.539677 167.253687 
L 312.391866 167.068542 
L 311.620819 166.123274 
L 311.375155 165.829698 
L 310.842417 165.178005 
L 310.210633 164.430182 
L 310.047582 164.232737 
L 309.249926 163.287468 
L 309.046111 163.051362 
L 308.447155 162.342199 
L 307.88159 161.693069 
L 307.628997 161.396931 
L 306.801507 160.451662 
L 306.717068 160.356712 
L 305.976066 159.506394 
L 305.552546 159.034416 
L 305.13613 158.561125 
L 304.388024 157.734852 
L 304.282324 157.615857 
L 303.428322 156.670588 
L 303.223503 156.448688 
L 302.567821 155.72532 
L 302.058981 155.178823 
L 301.694148 154.780051 
L 300.894459 153.928592 
L 300.807835 153.834783 
L 299.921695 152.889514 
L 299.729938 152.689021 
L 299.028924 151.944246 
L 298.565416 151.463694 
L 298.124038 150.998977 
L 297.400894 150.255516 
L 297.20749 150.053708 
L 296.282693 149.10844 
L 296.236372 149.061628 
L 295.359583 148.163171 
L 295.071851 147.874762 
L 294.425179 147.217903 
L 293.907329 146.703051 
L 293.479864 146.272634 
L 292.742807 145.545778 
L 292.523993 145.327366 
L 291.578285 144.402268 
L 291.557901 144.382097 
L 290.593474 143.436829 
L 290.413764 143.263807 
L 289.620083 142.49156 
L 289.249242 142.137332 
L 288.636614 141.546292 
L 288.08472 141.023257 
L 287.643342 140.601023 
L 286.920198 139.921053 
L 286.640521 139.655754 
L 285.755677 138.830222 
L 285.628384 138.710486 
L 284.608246 137.765217 
L 284.591155 137.749505 
L 283.587306 136.819949 
L 283.426633 136.673363 
L 282.556984 135.87468 
L 282.262111 135.607704 
L 281.517459 134.929412 
L 281.09759 134.552142 
L 280.468895 133.984143 
L 279.933068 133.506313 
L 279.411437 133.038875 
L 278.768546 132.469881 
L 278.345215 132.093606 
L 277.604024 131.442532 
L 277.27034 131.148338 
L 276.439503 130.423973 
L 276.18691 130.203069 
L 275.274981 129.413933 
L 275.095004 129.257801 
L 274.110459 128.41216 
L 273.994688 128.312532 
L 272.945938 127.418421 
L 272.886011 127.367263 
L 271.781416 126.432502 
L 271.769009 126.421995 
L 270.645493 125.476726 
L 270.616894 125.45283 
L 269.513936 124.531458 
L 269.452372 124.48039 
L 268.373498 123.586189 
L 268.287851 123.515656 
L 267.224159 122.640921 
L 267.123329 122.558482 
L 266.065881 121.695652 
L 265.958807 121.608738 
L 264.898609 120.750384 
L 264.794285 120.666308 
L 263.722273 119.805115 
L 263.629764 119.731093 
L 262.536788 118.859847 
L 262.465242 118.803007 
L 261.342047 117.914578 
L 261.30072 117.881979 
L 260.137931 116.969309 
L 260.136198 116.967952 
L 258.971677 116.058599 
L 258.927169 116.024041 
L 257.807155 115.155624 
L 257.707403 115.078772 
L 256.642633 114.259088 
L 256.478358 114.133504 
L 255.478111 113.36898 
L 255.239843 113.188235 
L 254.31359 112.485302 
L 253.991651 112.242967 
L 253.149068 111.608067 
L 252.733555 111.297698 
L 251.984546 110.737303 
L 251.465308 110.35243 
L 250.820024 109.873049 
L 250.186643 109.407161 
L 249.655503 109.015359 
L 248.897269 108.461893 
L 248.490981 108.164296 
L 247.596875 107.516624 
L 247.326459 107.319941 
L 246.285125 106.571355 
L 246.161938 106.482384 
L 244.997416 105.650043 
L 244.963696 105.626087 
L 243.832894 104.818343 
L 243.637823 104.680818 
L 242.668372 103.993218 
L 242.300067 103.73555 
L 241.503851 103.174797 
L 240.950003 102.790281 
L 240.339329 102.363224 
L 239.58718 101.845013 
L 239.174807 101.558655 
L 238.211113 100.899744 
L 238.010285 100.761263 
L 236.845764 99.970104 
L 236.82262 99.954476 
L 235.681242 99.176587 
L 235.431459 99.009207 
L 234.51672 98.390184 
L 234.026105 98.063939 
L 233.352198 97.611107 
L 232.605961 97.11867 
L 232.187677 96.839582 
L 231.170389 96.173402 
L 231.023155 96.075854 
L 229.858633 95.313867 
L 229.725995 95.228133 
L 228.694111 94.552829 
L 228.273213 94.282864 
L 227.52959 93.799658 
L 226.803618 93.337596 
L 226.365068 93.054643 
L 225.316429 92.392327 
L 225.200546 92.318088 
L 224.036024 91.580384 
L 223.822042 91.447059 
L 222.871503 90.845875 
L 222.314953 90.50179 
L 221.706981 90.120011 
L 220.788455 89.556522 
L 220.542459 89.403147 
L 219.377938 88.68978 
L 219.248116 88.611253 
L 218.213416 87.974683 
L 217.699064 87.665985 
L 217.048894 87.268863 
L 216.128412 86.720716 
L 215.884372 86.572728 
L 214.719851 85.878925 
L 214.543526 85.775448 
L 213.555329 85.184444 
L 212.946886 84.830179 
L 212.390807 84.500022 
L 211.326011 83.88491 
L 211.226285 83.82613 
L 210.061764 83.147545 
L 209.696371 82.939642 
L 208.897242 82.475356 
L 208.045157 81.994373 
L 207.73272 81.81418 
L 206.568198 81.156454 
L 206.375025 81.049105 
L 205.403677 80.497176 
L 204.690153 80.103836 
L 204.239155 79.849473 
L 203.074633 79.21005 
L 202.979722 79.158568 
L 201.910111 78.564526 
L 201.257322 78.213299 
L 200.74559 77.931221 
L 199.581068 77.307783 
L 199.505941 77.268031 
L 198.416546 76.677027 
L 197.741505 76.322762 
L 197.252024 76.059228 
L 196.087503 75.449659 
L 195.9476 75.377494 
L 194.922981 74.834871 
L 194.135884 74.432225 
L 193.758459 74.233881 
L 192.593938 73.636244 
L 192.296853 73.486957 
L 191.429416 73.038826 
L 190.431752 72.541688 
L 190.264894 72.456157 
L 189.100372 71.868674 
L 188.543821 71.596419 
L 187.935851 71.290247 
L 186.771329 70.72236 
L 186.622966 70.651151 
L 185.606807 70.148677 
L 184.676257 69.705882 
L 184.442285 69.591112 
L 183.277764 69.030578 
L 182.699129 68.760614 
L 182.113242 68.478614 
L 180.94872 67.935241 
L 180.686464 67.815345 
L 179.784198 67.389481 
L 178.637939 66.870077 
L 178.619677 66.861528 
L 177.455155 66.323193 
L 176.557228 65.924808 
L 176.290633 65.802526 
L 175.126111 65.279378 
L 174.435418 64.97954 
L 173.96159 64.766725 
L 172.797068 64.257814 
L 172.270406 64.034271 
L 171.632546 63.753947 
L 170.468024 63.25842 
L 170.059484 63.089003 
L 169.303503 62.764164 
L 168.138981 62.281258 
L 167.799265 62.143734 
L 166.974459 61.797496 
L 165.809938 61.326537 
L 165.485581 61.198465 
L 164.645416 60.854211 
L 163.480894 60.394607 
L 163.113367 60.253197 
L 162.316372 59.934731 
L 161.151851 59.485975 
L 160.676512 59.307928 
L 159.987329 59.039637 
L 158.822807 58.601298 
L 158.167677 58.36266 
L 157.658285 58.169672 
L 156.493764 57.741399 
L 155.57807 57.417391 
L 155.329242 57.325749 
L 154.16472 56.907271 
L 153.000198 56.506681 
L 152.897449 56.472123 
L 151.835677 56.100093 
L 150.671155 55.708702 
L 150.112508 55.526854 
L 149.506633 55.321237 
L 148.342111 54.939002 
L 147.205925 54.581586 
L 147.17759 54.572286 
L 146.013068 54.199249 
L 144.848546 53.842067 
L 144.153192 53.636317 
L 143.684024 53.491347 
L 142.519503 53.143339 
L 141.354981 52.810147 
L 140.924333 52.691049 
L 140.190459 52.478916 
L 139.025938 52.155153 
L 137.861416 51.845408 
L 137.473056 51.74578 
L 136.696894 51.537483 
L 135.532372 51.237716 
L 134.367851 50.951399 
L 133.727918 50.800512 
L 133.203329 50.671001 
L 132.038807 50.395534 
L 130.874285 50.133185 
L 129.709764 49.883477 
L 129.571966 49.855243 
L 128.545242 49.634755 
L 127.38072 49.397518 
L 126.216198 49.172951 
L 125.051677 48.960746 
L 124.756527 48.909974 
L 123.887155 48.753077 
L 122.722633 48.555746 
L 121.558111 48.371199 
L 120.39359 48.199303 
L 119.229068 48.039987 
L 118.630642 47.964706 
L 118.064546 47.889911 
L 116.900024 47.749778 
L 115.735503 47.623245 
L 114.570981 47.510446 
L 113.406459 47.411583 
L 112.241938 47.326926 
L 111.077416 47.25682 
L 109.912894 47.201685 
L 108.748372 47.162026 
L 107.583851 47.138433 
L 106.419329 47.131588 
L 105.254807 47.142276 
L 104.090285 47.171389 
L 102.925764 47.219934 
L 101.761242 47.289048 
L 100.59672 47.380007 
L 99.432198 47.494237 
L 98.267677 47.633333 
L 97.103155 47.799074 
L 96.106813 47.964706 
L 95.938633 47.992814 
L 94.774111 48.213444 
L 93.60959 48.467336 
L 92.445068 48.757326 
L 91.895179 48.909974 
L 91.280546 49.084054 
L 90.116024 49.451575 
L 88.981621 49.855243 
L 88.951503 49.866284 
L 87.786981 50.329463 
L 86.730458 50.800512 
L 86.622459 50.850626 
L 85.457938 51.435165 
L 84.893786 51.74578 
L 84.293416 52.093607 
L 83.347173 52.691049 
L 83.128894 52.837252 
L 82.023583 53.636317 
L 81.964372 53.682124 
L 80.877517 54.581586 
L 80.799851 54.651017 
L 79.876376 55.526854 
L 79.635329 55.776356 
L 78.996755 56.472123 
L 78.470807 57.10469 
L 78.221979 57.417391 
L 77.538415 58.36266 
L 77.306285 58.718722 
L 76.93481 59.307928 
L 76.403747 60.253197 
L 76.141764 60.778533 
L 75.937237 61.198465 
L 75.52824 62.143734 
L 75.175026 63.089003 
L 74.977242 63.700917 
L 74.870698 64.034271 
L 74.609605 64.97954 
L 74.39203 65.924808 
L 74.214769 66.870077 
L 74.074976 67.815345 
L 73.970126 68.760614 
L 73.897984 69.705882 
L 73.856578 70.651151 
L 73.844175 71.596419 
L 73.859259 72.541688 
L 73.900516 73.486957 
L 73.966813 74.432225 
L 74.05719 75.377494 
L 74.170845 76.322762 
L 74.307123 77.268031 
L 74.46551 78.213299 
L 74.645624 79.158568 
L 74.847211 80.103836 
L 74.977242 80.654562 
L 75.066241 81.049105 
L 75.29988 81.994373 
L 75.553478 82.939642 
L 75.827178 83.88491 
L 76.121235 84.830179 
L 76.141764 84.892025 
L 76.422469 85.775448 
L 76.742306 86.720716 
L 77.082162 87.665985 
L 77.306285 88.255191 
L 77.436107 88.611253 
L 77.799082 89.556522 
L 78.182304 90.50179 
L 78.470807 91.178248 
L 78.580839 91.447059 
L 78.985383 92.392327 
L 79.410923 93.337596 
L 79.635329 93.814631 
L 79.847006 94.282864 
L 80.292834 95.228133 
L 80.760914 96.173402 
L 80.799851 96.249404 
L 81.228375 97.11867 
L 81.716408 98.063939 
L 81.964372 98.525981 
L 82.214155 99.009207 
L 82.721841 99.954476 
L 83.128894 100.68066 
L 83.247289 100.899744 
L 83.774556 101.845013 
L 84.293416 102.733591 
L 84.32536 102.790281 
L 84.872349 103.73555 
L 85.44569 104.680818 
L 85.457938 104.700536 
L 86.013441 105.626087 
L 86.607936 106.571355 
L 86.622459 106.593935 
L 87.196448 107.516624 
L 87.786981 108.423296 
L 87.811309 108.461893 
L 88.420363 109.407161 
L 88.951503 110.19648 
L 89.053156 110.35243 
L 89.684539 111.297698 
L 90.116024 111.919363 
L 90.333804 112.242967 
L 90.988681 113.188235 
L 91.280546 113.596527 
L 91.653088 114.133504 
L 92.332839 115.078772 
L 92.445068 115.231421 
L 93.011176 116.024041 
L 93.60959 116.829159 
L 93.710844 116.969309 
L 94.408572 117.914578 
L 94.774111 118.393526 
L 95.120388 118.859847 
L 95.846123 119.805115 
L 95.938633 119.923295 
L 96.569158 120.750384 
L 97.103155 121.425635 
L 97.311233 121.695652 
L 98.058445 122.640921 
L 98.267677 122.899236 
L 98.810406 123.586189 
L 99.432198 124.346313 
L 99.580009 124.531458 
L 100.351056 125.476726 
L 100.59672 125.770302 
L 101.129458 126.421995 
L 101.761242 127.169818 
L 101.924293 127.367263 
L 102.721949 128.312532 
L 102.925764 128.548638 
L 103.52472 129.257801 
L 104.090285 129.906931 
L 104.342878 130.203069 
L 105.170368 131.148338 
L 105.254807 131.243288 
L 105.995809 132.093606 
L 106.419329 132.565584 
L 106.835745 133.038875 
L 107.583851 133.865148 
L 107.689551 133.984143 
L 108.543553 134.929412 
L 108.748372 135.151312 
L 109.404054 135.87468 
L 109.912894 136.421177 
L 110.277727 136.819949 
L 111.077416 137.671408 
L 111.16404 137.765217 
L 112.05018 138.710486 
L 112.241938 138.910979 
L 112.942951 139.655754 
L 113.406459 140.136306 
L 113.847837 140.601023 
L 114.570981 141.344484 
L 114.764385 141.546292 
L 115.689182 142.49156 
L 115.735503 142.538372 
L 116.612292 143.436829 
L 116.900024 143.725238 
L 117.546696 144.382097 
L 118.064546 144.896949 
L 118.492011 145.327366 
L 119.229068 146.054222 
L 119.447882 146.272634 
L 120.39359 147.197732 
L 120.413974 147.217903 
L 121.378401 148.163171 
L 121.558111 148.336193 
L 122.351792 149.10844 
L 122.722633 149.462668 
L 123.335261 150.053708 
L 123.887155 150.576743 
L 124.328533 150.998977 
L 125.051677 151.678947 
L 125.331354 151.944246 
L 126.216198 152.769778 
L 126.343491 152.889514 
L 127.363629 153.834783 
L 127.38072 153.850495 
L 128.384569 154.780051 
L 128.545242 154.926637 
L 129.414891 155.72532 
L 129.709764 155.992296 
L 130.454416 156.670588 
L 130.874285 157.047858 
L 131.50298 157.615857 
L 132.038807 158.093687 
L 132.560438 158.561125 
L 133.203329 159.130119 
L 133.62666 159.506394 
L 134.367851 160.157468 
L 134.701535 160.451662 
L 135.532372 161.176027 
L 135.784965 161.396931 
L 136.696894 162.186067 
L 136.876871 162.342199 
L 137.861416 163.18784 
L 137.977187 163.287468 
L 139.025938 164.181579 
L 139.085864 164.232737 
L 140.190459 165.167498 
L 140.202866 165.178005 
L 141.326382 166.123274 
L 141.354981 166.14717 
L 142.457939 167.068542 
L 142.519503 167.11961 
L 143.598377 168.013811 
L 143.684024 168.084344 
L 144.747716 168.959079 
L 144.848546 169.041518 
L 145.905994 169.904348 
L 146.013068 169.991262 
L 147.073266 170.849616 
L 147.17759 170.933692 
L 148.249602 171.794885 
L 148.342111 171.868907 
L 149.435087 172.740153 
L 149.506633 172.796993 
L 150.629828 173.685422 
L 150.671155 173.718021 
L 151.833944 174.630691 
L 151.835677 174.632048 
L 153.000198 175.541401 
L 153.044706 175.575959 
L 154.16472 176.444376 
L 154.264472 176.521228 
L 155.329242 177.340912 
L 155.493517 177.466496 
L 156.493764 178.23102 
L 156.732032 178.411765 
L 157.658285 179.114698 
L 157.980224 179.357033 
L 158.822807 179.991933 
L 159.23832 180.302302 
L 159.987329 180.862697 
L 160.506567 181.24757 
L 161.151851 181.726951 
L 161.785232 182.192839 
L 162.316372 182.584641 
L 163.074606 183.138107 
L 163.480894 183.435704 
L 164.375 184.083376 
L 164.645416 184.280059 
L 165.68675 185.028645 
L 165.809938 185.117616 
L 166.974459 185.949957 
L 167.008179 185.973913 
L 168.138981 186.781657 
L 168.334052 186.919182 
L 169.303503 187.606782 
L 169.671808 187.86445 
L 170.468024 188.425203 
L 171.021872 188.809719 
L 171.632546 189.236776 
L 172.384695 189.754987 
L 172.797068 190.041345 
L 173.760762 190.700256 
L 173.96159 190.838737 
L 175.126111 191.629896 
L 175.149255 191.645524 
L 176.290633 192.423413 
L 176.540416 192.590793 
L 177.455155 193.209816 
L 177.94577 193.536061 
L 178.619677 193.988893 
L 179.365914 194.48133 
L 179.784198 194.760418 
L 180.801486 195.426598 
L 180.94872 195.524146 
L 182.113242 196.286133 
L 182.24588 196.371867 
L 183.277764 197.047171 
L 183.698662 197.317136 
L 184.442285 197.800342 
L 185.168257 198.262404 
L 185.606807 198.545357 
L 186.655446 199.207673 
L 186.771329 199.281912 
L 187.935851 200.019616 
L 188.149833 200.152941 
L 189.100372 200.754125 
L 189.656922 201.09821 
L 190.264894 201.479989 
L 191.18342 202.043478 
L 191.429416 202.196853 
L 192.593938 202.91022 
L 192.723759 202.988747 
L 193.758459 203.625317 
L 194.272811 203.934015 
L 194.922981 204.331137 
L 195.843463 204.879284 
L 196.087503 205.027272 
L 197.252024 205.721075 
L 197.428349 205.824552 
L 198.416546 206.415556 
L 199.024989 206.769821 
L 199.581068 207.099978 
L 200.645864 207.71509 
L 200.74559 207.77387 
L 201.910111 208.452455 
L 202.275504 208.660358 
L 203.074633 209.124644 
L 203.926718 209.605627 
L 204.239155 209.78582 
L 205.403677 210.443546 
L 205.59685 210.550895 
L 206.568198 211.102824 
L 207.281722 211.496164 
L 207.73272 211.750527 
L 208.897242 212.38995 
L 208.992153 212.441432 
L 210.061764 213.035474 
L 210.714553 213.386701 
L 211.226285 213.668779 
L 212.390807 214.292217 
L 212.465934 214.331969 
L 213.555329 214.922973 
L 214.23037 215.277238 
L 214.719851 215.540772 
L 215.884372 216.150341 
L 216.024275 216.222506 
L 217.048894 216.765129 
L 217.835991 217.167775 
L 218.213416 217.366119 
L 219.377938 217.963756 
L 219.675022 218.113043 
L 220.542459 218.561174 
L 221.540123 219.058312 
L 221.706981 219.143843 
L 222.871503 219.731326 
L 223.428054 220.003581 
L 224.036024 220.309753 
L 225.200546 220.87764 
L 225.348909 220.948849 
L 226.365068 221.451323 
L 227.295618 221.894118 
L 227.52959 222.008888 
L 228.694111 222.569422 
L 229.272746 222.839386 
L 229.858633 223.121386 
L 231.023155 223.664759 
L 231.285411 223.784655 
L 232.187677 224.210519 
L 233.333936 224.729923 
L 233.352198 224.738472 
L 234.51672 225.276807 
L 235.414647 225.675192 
L 235.681242 225.797474 
L 236.845764 226.320622 
L 237.536457 226.62046 
L 238.010285 226.833275 
L 239.174807 227.342186 
L 239.701469 227.565729 
L 240.339329 227.846053 
L 241.503851 228.34158 
L 241.912391 228.510997 
L 242.668372 228.835836 
L 243.832894 229.318742 
L 244.17261 229.456266 
L 244.997416 229.802504 
L 246.161938 230.273463 
L 246.486294 230.401535 
L 247.326459 230.745789 
L 248.490981 231.205393 
L 248.858508 231.346803 
L 249.655503 231.665269 
L 250.820024 232.114025 
L 251.295363 232.292072 
L 251.984546 232.560363 
L 253.149068 232.998702 
L 253.804198 233.23734 
L 254.31359 233.430328 
L 255.478111 233.858601 
L 256.393805 234.182609 
L 256.642633 234.274251 
L 257.807155 234.692729 
L 258.971677 235.093319 
L 259.074426 235.127877 
L 260.136198 235.499907 
L 261.30072 235.891298 
L 261.859367 236.073146 
L 262.465242 236.278763 
L 263.629764 236.660998 
L 264.76595 237.018414 
L 264.794285 237.027714 
L 265.958807 237.400751 
L 267.123329 237.757933 
L 267.818683 237.963683 
L 268.287851 238.108653 
L 269.452372 238.456661 
L 270.616894 238.789853 
L 271.047542 238.908951 
L 271.781416 239.121084 
L 272.945938 239.444847 
L 274.110459 239.754592 
L 274.498819 239.85422 
L 275.274981 240.062517 
L 276.439503 240.362284 
L 277.604024 240.648601 
L 278.243957 240.799488 
L 278.768546 240.928999 
L 279.933068 241.204466 
L 281.09759 241.466815 
L 282.262111 241.716523 
L 282.399909 241.744757 
L 283.426633 241.965245 
L 284.591155 242.202482 
L 285.755677 242.427049 
L 286.920198 242.639254 
L 287.215348 242.690026 
L 288.08472 242.846923 
L 289.249242 243.044254 
L 290.413764 243.228801 
L 291.578285 243.400697 
L 292.742807 243.560013 
L 293.341233 243.635294 
L 293.907329 243.710089 
z
" clip-path="url(#pa62d2c5972)" style="fill: none; stroke: #1f77b4; stroke-opacity: 0.85; stroke-width: 1.1"/>
    <path d="M 278.768546 218.119611 
L 279.540475 218.113043 
L 279.933068 218.109669 
L 281.09759 218.074316 
L 282.262111 218.011596 
L 283.426633 217.919372 
L 284.591155 217.795218 
L 285.755677 217.636377 
L 286.920198 217.439725 
L 288.08472 217.201712 
L 288.228558 217.167775 
L 289.249242 216.916938 
L 290.413764 216.580605 
L 291.477658 216.222506 
L 291.578285 216.186785 
L 292.742807 215.723168 
L 293.716178 215.277238 
L 293.907329 215.183592 
L 295.071851 214.548107 
L 295.427333 214.331969 
L 296.236372 213.797561 
L 296.798508 213.386701 
L 297.400894 212.902295 
L 297.925531 212.441432 
L 298.565416 211.813977 
L 298.865513 211.496164 
L 299.655632 210.550895 
L 299.729938 210.450743 
L 300.319234 209.605627 
L 300.880652 208.660358 
L 300.894459 208.63381 
L 301.349514 207.71509 
L 301.740195 206.769821 
L 302.058981 205.829673 
L 302.060655 205.824552 
L 302.318176 204.879284 
L 302.518912 203.934015 
L 302.667744 202.988747 
L 302.768927 202.043478 
L 302.826171 201.09821 
L 302.842698 200.152941 
L 302.821303 199.207673 
L 302.764397 198.262404 
L 302.674053 197.317136 
L 302.552035 196.371867 
L 302.399827 195.426598 
L 302.218663 194.48133 
L 302.058981 193.761514 
L 302.01052 193.536061 
L 301.779272 192.590793 
L 301.522655 191.645524 
L 301.241152 190.700256 
L 300.935069 189.754987 
L 300.894459 189.639333 
L 300.611682 188.809719 
L 300.266246 187.86445 
L 299.897718 186.919182 
L 299.729938 186.514746 
L 299.511871 185.973913 
L 299.108231 185.028645 
L 298.682061 184.083376 
L 298.565416 183.837556 
L 298.242434 183.138107 
L 297.784028 182.192839 
L 297.400894 181.439557 
L 297.305782 181.24757 
L 296.816767 180.302302 
L 296.305045 179.357033 
L 296.236372 179.235012 
L 295.78452 178.411765 
L 295.243235 177.466496 
L 295.071851 177.178082 
L 294.690835 176.521228 
L 294.1206 175.575959 
L 293.907329 175.234633 
L 293.538621 174.630691 
L 292.939709 173.685422 
L 292.742807 173.384639 
L 292.3302 172.740153 
L 291.702556 171.794885 
L 291.578285 171.613111 
L 291.067338 170.849616 
L 290.413764 169.908839 
L 290.410708 169.904348 
L 289.75128 168.959079 
L 289.249242 168.264647 
L 289.071457 168.013811 
L 288.382771 167.068542 
L 288.08472 166.671384 
L 287.681077 166.123274 
L 286.96207 165.178005 
L 286.920198 165.124136 
L 286.239653 164.232737 
L 285.755677 163.618749 
L 285.499035 163.287468 
L 284.746802 162.342199 
L 284.591155 162.151068 
L 283.987022 161.396931 
L 283.426633 160.717944 
L 283.210311 160.451662 
L 282.42348 159.506394 
L 282.262111 159.31671 
L 281.628811 158.561125 
L 281.09759 157.944658 
L 280.818273 157.615857 
L 279.994835 156.670588 
L 279.933068 156.600907 
L 279.167212 155.72532 
L 278.768546 155.28109 
L 278.324594 154.780051 
L 277.604024 153.986914 
L 277.467482 153.834783 
L 276.602737 152.889514 
L 276.439503 152.714462 
L 275.729297 151.944246 
L 275.274981 151.462758 
L 274.841996 150.998977 
L 274.110459 150.232741 
L 273.941239 150.053708 
L 273.030755 149.10844 
L 272.945938 149.021713 
L 272.113893 148.163171 
L 271.781416 147.827041 
L 271.18399 147.217903 
L 270.616894 146.651008 
L 270.241362 146.272634 
L 269.452372 145.492726 
L 269.286302 145.327366 
L 268.320366 144.382097 
L 268.287851 144.350655 
L 267.348813 143.436829 
L 267.123329 143.221145 
L 266.364979 142.49156 
L 265.958807 142.107217 
L 265.369078 141.546292 
L 264.794285 141.00821 
L 264.3613 140.601023 
L 263.629764 139.923505 
L 263.341812 139.655754 
L 262.465242 138.852524 
L 262.310758 138.710486 
L 261.30072 137.794729 
L 261.268261 137.765217 
L 260.217599 136.819949 
L 260.136198 136.747559 
L 259.156488 135.87468 
L 258.971677 135.71201 
L 258.083672 134.929412 
L 257.807155 134.688506 
L 256.999198 133.984143 
L 256.642633 133.676657 
L 255.903093 133.038875 
L 255.478111 132.676101 
L 254.795362 132.093606 
L 254.31359 131.686504 
L 253.675989 131.148338 
L 253.149068 130.70756 
L 252.544935 130.203069 
L 251.984546 129.738989 
L 251.402141 129.257801 
L 250.820024 128.780538 
L 250.247524 128.312532 
L 249.655503 127.831975 
L 249.08098 127.367263 
L 248.490981 126.893093 
L 247.902382 126.421995 
L 247.326459 125.963708 
L 246.711581 125.476726 
L 246.161938 125.043655 
L 245.508403 124.531458 
L 244.997416 124.132794 
L 244.29265 123.586189 
L 243.832894 123.231001 
L 243.064102 122.640921 
L 242.668372 122.338176 
L 241.822511 121.695652 
L 241.503851 121.454236 
L 240.567603 120.750384 
L 240.339329 120.579119 
L 239.299078 119.805115 
L 239.174807 119.71278 
L 238.016609 118.859847 
L 238.010285 118.855194 
L 236.845764 118.002775 
L 236.724118 117.914578 
L 235.681242 117.158491 
L 235.417583 116.969309 
L 234.51672 116.322539 
L 234.09637 116.024041 
L 233.352198 115.494951 
L 232.760031 115.078772 
L 232.187677 114.675779 
L 231.408084 114.133504 
L 231.023155 113.865091 
L 230.040012 113.188235 
L 229.858633 113.062976 
L 228.694111 112.268452 
L 228.656467 112.242967 
L 227.52959 111.477155 
L 227.261738 111.297698 
L 226.365068 110.694266 
L 225.849525 110.35243 
L 225.200546 109.919929 
L 224.419159 109.407161 
L 224.036024 109.154302 
L 222.969924 108.461893 
L 222.871503 108.397565 
L 221.706981 107.644285 
L 221.506867 107.516624 
L 220.542459 106.897034 
L 220.026577 106.571355 
L 219.377938 106.158712 
L 218.525396 105.626087 
L 218.213416 105.429553 
L 217.048894 104.70858 
L 217.003614 104.680818 
L 215.884372 103.988387 
L 215.467599 103.73555 
L 214.719851 103.277524 
L 213.90817 102.790281 
L 213.555329 102.576287 
L 212.390807 101.883272 
L 212.325798 101.845013 
L 211.226285 101.190753 
L 210.726505 100.899744 
L 210.061764 100.508154 
L 209.100674 99.954476 
L 208.897242 99.835834 
L 207.73272 99.167027 
L 207.453011 99.009207 
L 206.568198 98.503444 
L 205.780776 98.063939 
L 205.403677 97.850573 
L 204.239155 97.204946 
L 204.081184 97.11867 
L 203.074633 96.560996 
L 202.357118 96.173402 
L 201.910111 95.928291 
L 200.74559 95.303897 
L 200.60211 95.228133 
L 199.581068 94.680442 
L 198.819709 94.282864 
L 198.416546 94.06887 
L 197.252024 93.464037 
L 197.004058 93.337596 
L 196.087503 92.862192 
L 195.155543 92.392327 
L 194.922981 92.272985 
L 193.758459 91.686297 
L 193.271951 91.447059 
L 192.593938 91.107451 
L 191.429416 90.540419 
L 191.348795 90.50179 
L 190.264894 89.972406 
L 189.386667 89.556522 
L 189.100372 89.418239 
L 187.935851 88.867349 
L 187.380091 88.611253 
L 186.771329 88.324921 
L 185.606807 87.791981 
L 185.325484 87.665985 
L 184.442285 87.261936 
L 183.277764 86.746201 
L 183.219143 86.720716 
L 182.113242 86.229254 
L 181.056289 85.775448 
L 180.94872 85.728207 
L 179.784198 85.227047 
L 178.830367 84.830179 
L 178.619677 84.740446 
L 177.455155 84.255696 
L 176.534187 83.88491 
L 176.290633 83.784468 
L 175.126111 83.315787 
L 174.158971 82.939642 
L 173.96159 82.860949 
L 172.797068 82.408127 
L 171.693834 81.994373 
L 171.632546 81.970794 
L 170.468024 81.533747 
L 169.303503 81.112692 
L 169.122696 81.049105 
L 168.138981 80.693917 
L 166.974459 80.288393 
L 166.426934 80.103836 
L 165.809938 79.890158 
L 164.645416 79.500449 
L 163.584437 79.158568 
L 163.480894 79.124263 
L 162.316372 78.750797 
L 161.151851 78.392027 
L 160.549464 78.213299 
L 159.987329 78.041675 
L 158.822807 77.699824 
L 157.658285 77.37219 
L 157.272408 77.268031 
L 156.493764 77.05158 
L 155.329242 76.742017 
L 154.16472 76.446543 
L 153.652863 76.322762 
L 153.000198 76.160091 
L 151.835677 75.884371 
L 150.671155 75.62299 
L 149.514719 75.377494 
L 149.506633 75.375723 
L 148.342111 75.136384 
L 147.17759 74.91206 
L 146.013068 74.702761 
L 144.848546 74.50858 
L 144.348876 74.432225 
L 143.684024 74.327337 
L 142.519503 74.160638 
L 141.354981 74.010668 
L 140.190459 73.877858 
L 139.025938 73.762745 
L 137.861416 73.665989 
L 136.696894 73.588376 
L 135.532372 73.530835 
L 134.367851 73.494449 
L 133.737793 73.486957 
L 133.203329 73.480389 
L 132.4314 73.486957 
L 132.038807 73.490331 
L 130.874285 73.525684 
L 129.709764 73.588404 
L 128.545242 73.680628 
L 127.38072 73.804782 
L 126.216198 73.963623 
L 125.051677 74.160275 
L 123.887155 74.398288 
L 123.743317 74.432225 
L 122.722633 74.683062 
L 121.558111 75.019395 
L 120.494217 75.377494 
L 120.39359 75.413215 
L 119.229068 75.876832 
L 118.255697 76.322762 
L 118.064546 76.416408 
L 116.900024 77.051893 
L 116.544542 77.268031 
L 115.735503 77.802439 
L 115.173367 78.213299 
L 114.570981 78.697705 
L 114.046344 79.158568 
L 113.406459 79.786023 
L 113.106362 80.103836 
L 112.316243 81.049105 
L 112.241938 81.149257 
L 111.652641 81.994373 
L 111.091223 82.939642 
L 111.077416 82.96619 
L 110.622361 83.88491 
L 110.23168 84.830179 
L 109.912894 85.770327 
L 109.91122 85.775448 
L 109.653699 86.720716 
L 109.452963 87.665985 
L 109.304131 88.611253 
L 109.202948 89.556522 
L 109.145704 90.50179 
L 109.129177 91.447059 
L 109.150572 92.392327 
L 109.207478 93.337596 
L 109.297822 94.282864 
L 109.41984 95.228133 
L 109.572048 96.173402 
L 109.753212 97.11867 
L 109.912894 97.838486 
L 109.961355 98.063939 
L 110.192603 99.009207 
L 110.44922 99.954476 
L 110.730723 100.899744 
L 111.036806 101.845013 
L 111.077416 101.960667 
L 111.360193 102.790281 
L 111.705629 103.73555 
L 112.074157 104.680818 
L 112.241938 105.085254 
L 112.460004 105.626087 
L 112.863644 106.571355 
L 113.289814 107.516624 
L 113.406459 107.762444 
L 113.729441 108.461893 
L 114.187847 109.407161 
L 114.570981 110.160443 
L 114.666093 110.35243 
L 115.155108 111.297698 
L 115.66683 112.242967 
L 115.735503 112.364988 
L 116.187355 113.188235 
L 116.72864 114.133504 
L 116.900024 114.421918 
L 117.28104 115.078772 
L 117.851275 116.024041 
L 118.064546 116.365367 
L 118.433254 116.969309 
L 119.032166 117.914578 
L 119.229068 118.215361 
L 119.641675 118.859847 
L 120.269319 119.805115 
L 120.39359 119.986889 
L 120.904537 120.750384 
L 121.558111 121.691161 
L 121.561167 121.695652 
L 122.220595 122.640921 
L 122.722633 123.335353 
L 122.900418 123.586189 
L 123.589104 124.531458 
L 123.887155 124.928616 
L 124.290798 125.476726 
L 125.009805 126.421995 
L 125.051677 126.475864 
L 125.732222 127.367263 
L 126.216198 127.981251 
L 126.47284 128.312532 
L 127.225073 129.257801 
L 127.38072 129.448932 
L 127.984853 130.203069 
L 128.545242 130.882056 
L 128.761564 131.148338 
L 129.548395 132.093606 
L 129.709764 132.28329 
L 130.343064 133.038875 
L 130.874285 133.655342 
L 131.153602 133.984143 
L 131.97704 134.929412 
L 132.038807 134.999093 
L 132.804663 135.87468 
L 133.203329 136.31891 
L 133.647281 136.819949 
L 134.367851 137.613086 
L 134.504393 137.765217 
L 135.369138 138.710486 
L 135.532372 138.885538 
L 136.242578 139.655754 
L 136.696894 140.137242 
L 137.129879 140.601023 
L 137.861416 141.367259 
L 138.030636 141.546292 
L 138.94112 142.49156 
L 139.025938 142.578287 
L 139.857982 143.436829 
L 140.190459 143.772959 
L 140.787885 144.382097 
L 141.354981 144.948992 
L 141.730513 145.327366 
L 142.519503 146.107274 
L 142.685573 146.272634 
L 143.651509 147.217903 
L 143.684024 147.249345 
L 144.623062 148.163171 
L 144.848546 148.378855 
L 145.606896 149.10844 
L 146.013068 149.492783 
L 146.602797 150.053708 
L 147.17759 150.59179 
L 147.610575 150.998977 
L 148.342111 151.676495 
L 148.630063 151.944246 
L 149.506633 152.747476 
L 149.661117 152.889514 
L 150.671155 153.805271 
L 150.703614 153.834783 
L 151.754276 154.780051 
L 151.835677 154.852441 
L 152.815387 155.72532 
L 153.000198 155.88799 
L 153.888203 156.670588 
L 154.16472 156.911494 
L 154.972677 157.615857 
L 155.329242 157.923343 
L 156.068782 158.561125 
L 156.493764 158.923899 
L 157.176513 159.506394 
L 157.658285 159.913496 
L 158.295886 160.451662 
L 158.822807 160.89244 
L 159.42694 161.396931 
L 159.987329 161.861011 
L 160.569734 162.342199 
L 161.151851 162.819462 
L 161.724351 163.287468 
L 162.316372 163.768025 
L 162.890895 164.232737 
L 163.480894 164.706907 
L 164.069493 165.178005 
L 164.645416 165.636292 
L 165.260294 166.123274 
L 165.809938 166.556345 
L 166.463472 167.068542 
L 166.974459 167.467206 
L 167.679225 168.013811 
L 168.138981 168.368999 
L 168.907773 168.959079 
L 169.303503 169.261824 
L 170.149364 169.904348 
L 170.468024 170.145764 
L 171.404272 170.849616 
L 171.632546 171.020881 
L 172.672797 171.794885 
L 172.797068 171.88722 
L 173.955266 172.740153 
L 173.96159 172.744806 
L 175.126111 173.597225 
L 175.247757 173.685422 
L 176.290633 174.441509 
L 176.554292 174.630691 
L 177.455155 175.277461 
L 177.875505 175.575959 
L 178.619677 176.105049 
L 179.211844 176.521228 
L 179.784198 176.924221 
L 180.563791 177.466496 
L 180.94872 177.734909 
L 181.931863 178.411765 
L 182.113242 178.537024 
L 183.277764 179.331548 
L 183.315408 179.357033 
L 184.442285 180.122845 
L 184.710137 180.302302 
L 185.606807 180.905734 
L 186.12235 181.24757 
L 186.771329 181.680071 
L 187.552716 182.192839 
L 187.935851 182.445698 
L 189.001951 183.138107 
L 189.100372 183.202435 
L 190.264894 183.955715 
L 190.465008 184.083376 
L 191.429416 184.702966 
L 191.945298 185.028645 
L 192.593938 185.441288 
L 193.446479 185.973913 
L 193.758459 186.170447 
L 194.922981 186.89142 
L 194.968261 186.919182 
L 196.087503 187.611613 
L 196.504276 187.86445 
L 197.252024 188.322476 
L 198.063705 188.809719 
L 198.416546 189.023713 
L 199.581068 189.716728 
L 199.646077 189.754987 
L 200.74559 190.409247 
L 201.24537 190.700256 
L 201.910111 191.091846 
L 202.871201 191.645524 
L 203.074633 191.764166 
L 204.239155 192.432973 
L 204.518864 192.590793 
L 205.403677 193.096556 
L 206.191099 193.536061 
L 206.568198 193.749427 
L 207.73272 194.395054 
L 207.890691 194.48133 
L 208.897242 195.039004 
L 209.614757 195.426598 
L 210.061764 195.671709 
L 211.226285 196.296103 
L 211.369765 196.371867 
L 212.390807 196.919558 
L 213.152166 197.317136 
L 213.555329 197.53113 
L 214.719851 198.135963 
L 214.967817 198.262404 
L 215.884372 198.737808 
L 216.816332 199.207673 
L 217.048894 199.327015 
L 218.213416 199.913703 
L 218.699924 200.152941 
L 219.377938 200.492549 
L 220.542459 201.059581 
L 220.62308 201.09821 
L 221.706981 201.627594 
L 222.585208 202.043478 
L 222.871503 202.181761 
L 224.036024 202.732651 
L 224.591784 202.988747 
L 225.200546 203.275079 
L 226.365068 203.808019 
L 226.646391 203.934015 
L 227.52959 204.338064 
L 228.694111 204.853799 
L 228.752732 204.879284 
L 229.858633 205.370746 
L 230.915586 205.824552 
L 231.023155 205.871793 
L 232.187677 206.372953 
L 233.141508 206.769821 
L 233.352198 206.859554 
L 234.51672 207.344304 
L 235.437688 207.71509 
L 235.681242 207.815532 
L 236.845764 208.284213 
L 237.812904 208.660358 
L 238.010285 208.739051 
L 239.174807 209.191873 
L 240.278041 209.605627 
L 240.339329 209.629206 
L 241.503851 210.066253 
L 242.668372 210.487308 
L 242.849179 210.550895 
L 243.832894 210.906083 
L 244.997416 211.311607 
L 245.544941 211.496164 
L 246.161938 211.709842 
L 247.326459 212.099551 
L 248.387438 212.441432 
L 248.490981 212.475737 
L 249.655503 212.849203 
L 250.820024 213.207973 
L 251.422411 213.386701 
L 251.984546 213.558325 
L 253.149068 213.900176 
L 254.31359 214.22781 
L 254.699467 214.331969 
L 255.478111 214.54842 
L 256.642633 214.857983 
L 257.807155 215.153457 
L 258.319012 215.277238 
L 258.971677 215.439909 
L 260.136198 215.715629 
L 261.30072 215.97701 
L 262.457156 216.222506 
L 262.465242 216.224277 
L 263.629764 216.463616 
L 264.794285 216.68794 
L 265.958807 216.897239 
L 267.123329 217.09142 
L 267.622999 217.167775 
L 268.287851 217.272663 
L 269.452372 217.439362 
L 270.616894 217.589332 
L 271.781416 217.722142 
L 272.945938 217.837255 
L 274.110459 217.934011 
L 275.274981 218.011624 
L 276.439503 218.069165 
L 277.604024 218.105551 
L 278.234082 218.113043 
L 278.768546 218.119611 
z
" clip-path="url(#pa62d2c5972)" style="fill: none; stroke: #1f77b4; stroke-opacity: 0.85; stroke-width: 1.1"/>
    <path d="M 251.984546 196.420253 
L 253.149068 196.539239 
L 254.31359 196.632285 
L 255.478111 196.697536 
L 256.642633 196.732811 
L 257.807155 196.735559 
L 258.971677 196.702797 
L 260.136198 196.631047 
L 261.30072 196.516249 
L 262.339148 196.371867 
L 262.465242 196.353207 
L 263.629764 196.131205 
L 264.794285 195.846292 
L 265.958807 195.489933 
L 266.134557 195.426598 
L 267.123329 195.036159 
L 268.282569 194.48133 
L 268.287851 194.478516 
L 269.452372 193.764681 
L 269.774845 193.536061 
L 270.616894 192.852551 
L 270.901817 192.590793 
L 271.77791 191.645524 
L 271.781416 191.641087 
L 272.455196 190.700256 
L 272.945938 189.845893 
L 272.993935 189.754987 
L 273.404928 188.809719 
L 273.718546 187.86445 
L 273.946601 186.919182 
L 274.099001 185.973913 
L 274.110459 185.850637 
L 274.183034 185.028645 
L 274.207692 184.083376 
L 274.178642 183.138107 
L 274.110459 182.316115 
L 274.100434 182.192839 
L 273.976401 181.24757 
L 273.810777 180.302302 
L 273.60652 179.357033 
L 273.366082 178.411765 
L 273.091473 177.466496 
L 272.945938 177.022701 
L 272.784443 176.521228 
L 272.447131 175.575959 
L 272.080742 174.630691 
L 271.781416 173.916104 
L 271.68642 173.685422 
L 271.266409 172.740153 
L 270.820418 171.794885 
L 270.616894 171.38929 
L 270.350369 170.849616 
L 269.857113 169.904348 
L 269.452372 169.166499 
L 269.340293 168.959079 
L 268.803019 168.013811 
L 268.287851 167.145835 
L 268.242621 167.068542 
L 267.663864 166.123274 
L 267.123329 165.274504 
L 267.062685 165.178005 
L 266.444338 164.232737 
L 265.958807 163.517227 
L 265.804819 163.287468 
L 265.148191 162.342199 
L 264.794285 161.849855 
L 264.472444 161.396931 
L 263.778302 160.451662 
L 263.629764 160.255606 
L 263.068137 159.506394 
L 262.465242 158.726728 
L 262.338462 158.561125 
L 261.593686 157.615857 
L 261.30072 157.254454 
L 260.831719 156.670588 
L 260.136198 155.828875 
L 260.051355 155.72532 
L 259.257031 154.780051 
L 258.971677 154.449121 
L 258.445968 153.834783 
L 257.807155 153.1072 
L 257.617364 152.889514 
L 256.773526 151.944246 
L 256.642633 151.800819 
L 255.915321 150.998977 
L 255.478111 150.528027 
L 255.040194 150.053708 
L 254.31359 149.284195 
L 254.148447 149.10844 
L 253.24175 148.163171 
L 253.149068 148.068352 
L 252.321118 147.217903 
L 251.984546 146.879078 
L 251.384178 146.272634 
L 250.820024 145.713731 
L 250.431117 145.327366 
L 249.655503 144.571097 
L 249.462091 144.382097 
L 248.490981 143.450053 
L 248.477223 143.436829 
L 247.478892 142.49156 
L 247.326459 142.349561 
L 246.464749 141.546292 
L 246.161938 141.268438 
L 245.434625 140.601023 
L 244.997416 140.205827 
L 244.388537 139.655754 
L 243.832894 139.160948 
L 243.326468 138.710486 
L 242.668372 138.133077 
L 242.248371 137.765217 
L 241.503851 137.121549 
L 241.154169 136.819949 
L 240.339329 136.125751 
L 240.043749 135.87468 
L 239.174807 135.145118 
L 238.916969 134.929412 
L 238.010285 134.179135 
L 237.773655 133.984143 
L 236.845764 133.22733 
L 236.613597 133.038875 
L 235.681242 132.289272 
L 235.436552 132.093606 
L 234.51672 131.364574 
L 234.242244 131.148338 
L 233.352198 130.452884 
L 233.030357 130.203069 
L 232.187677 129.553888 
L 231.800543 129.257801 
L 231.023155 128.667307 
L 230.552412 128.312532 
L 229.858633 127.792895 
L 229.285536 127.367263 
L 228.694111 126.930439 
L 227.999448 126.421995 
L 227.52959 126.079757 
L 226.693635 125.476726 
L 226.365068 125.240698 
L 225.367543 124.531458 
L 225.200546 124.41314 
L 224.036024 123.596837 
L 224.020701 123.586189 
L 222.871503 122.789951 
L 222.653843 122.640921 
L 221.706981 121.994017 
L 221.264787 121.695652 
L 220.542459 121.209004 
L 219.852761 120.750384 
L 219.377938 120.434911 
L 218.416939 119.805115 
L 218.213416 119.671758 
L 217.048894 118.91865 
L 216.956872 118.859847 
L 215.884372 118.174154 
L 215.472107 117.914578 
L 214.719851 117.440379 
L 213.960568 116.969309 
L 213.555329 116.717433 
L 212.421143 116.024041 
L 212.390807 116.005449 
L 211.226285 115.300758 
L 210.853093 115.078772 
L 210.061764 114.606567 
L 209.254469 114.133504 
L 208.897242 113.923369 
L 207.73272 113.250318 
L 207.623645 113.188235 
L 206.568198 112.584781 
L 205.958406 112.242967 
L 205.403677 111.930401 
L 204.257607 111.297698 
L 204.239155 111.287452 
L 203.074633 110.650992 
L 202.516596 110.35243 
L 201.910111 110.02582 
L 200.74559 109.41235 
L 200.735565 109.407161 
L 199.581068 108.805235 
L 198.907094 108.461893 
L 198.416546 108.210016 
L 197.252024 107.625288 
L 197.031045 107.516624 
L 196.087503 107.048658 
L 195.100852 106.571355 
L 194.922981 106.484511 
L 193.758459 105.928344 
L 193.10952 105.626087 
L 192.593938 105.383551 
L 191.429416 104.849351 
L 191.05272 104.680818 
L 190.264894 104.324593 
L 189.100372 103.812258 
L 188.92141 103.73555 
L 187.935851 103.308324 
L 186.771329 102.817952 
L 186.703748 102.790281 
L 185.606807 102.335745 
L 184.442285 101.867642 
L 184.384236 101.845013 
L 183.277764 101.408188 
L 182.113242 100.962878 
L 181.942514 100.899744 
L 180.94872 100.527331 
L 179.784198 100.105563 
L 179.351637 99.954476 
L 178.619677 99.695217 
L 177.455155 99.297986 
L 176.575556 99.009207 
L 176.290633 98.914286 
L 175.126111 98.542846 
L 173.96159 98.186401 
L 173.541857 98.063939 
L 172.797068 97.84329 
L 171.632546 97.515004 
L 170.468024 97.202477 
L 170.136295 97.11867 
L 169.303503 96.904905 
L 168.138981 96.623863 
L 166.974459 96.360065 
L 166.088249 96.173402 
L 165.809938 96.113805 
L 164.645416 95.885964 
L 163.480894 95.677727 
L 162.316372 95.489883 
L 161.151851 95.32341 
L 160.375163 95.228133 
L 159.987329 95.179747 
L 158.822807 95.060761 
L 157.658285 94.967715 
L 156.493764 94.902464 
L 155.329242 94.867189 
L 154.16472 94.864441 
L 153.000198 94.897203 
L 151.835677 94.968953 
L 150.671155 95.083751 
L 149.632727 95.228133 
L 149.506633 95.246793 
L 148.342111 95.468795 
L 147.17759 95.753708 
L 146.013068 96.110067 
L 145.837318 96.173402 
L 144.848546 96.563841 
L 143.689306 97.11867 
L 143.684024 97.121484 
L 142.519503 97.835319 
L 142.19703 98.063939 
L 141.354981 98.747449 
L 141.070058 99.009207 
L 140.193965 99.954476 
L 140.190459 99.958913 
L 139.516679 100.899744 
L 139.025938 101.754107 
L 138.97794 101.845013 
L 138.566947 102.790281 
L 138.253329 103.73555 
L 138.025274 104.680818 
L 137.872874 105.626087 
L 137.861416 105.749363 
L 137.788841 106.571355 
L 137.764183 107.516624 
L 137.793233 108.461893 
L 137.861416 109.283885 
L 137.871441 109.407161 
L 137.995474 110.35243 
L 138.161098 111.297698 
L 138.365355 112.242967 
L 138.605793 113.188235 
L 138.880402 114.133504 
L 139.025938 114.577299 
L 139.187432 115.078772 
L 139.524744 116.024041 
L 139.891133 116.969309 
L 140.190459 117.683896 
L 140.285455 117.914578 
L 140.705466 118.859847 
L 141.151457 119.805115 
L 141.354981 120.21071 
L 141.621506 120.750384 
L 142.114762 121.695652 
L 142.519503 122.433501 
L 142.631582 122.640921 
L 143.168856 123.586189 
L 143.684024 124.454165 
L 143.729254 124.531458 
L 144.308011 125.476726 
L 144.848546 126.325496 
L 144.90919 126.421995 
L 145.527537 127.367263 
L 146.013068 128.082773 
L 146.167056 128.312532 
L 146.823684 129.257801 
L 147.17759 129.750145 
L 147.499431 130.203069 
L 148.193573 131.148338 
L 148.342111 131.344394 
L 148.903738 132.093606 
L 149.506633 132.873272 
L 149.633413 133.038875 
L 150.378189 133.984143 
L 150.671155 134.345546 
L 151.140156 134.929412 
L 151.835677 135.771125 
L 151.92052 135.87468 
L 152.714844 136.819949 
L 153.000198 137.150879 
L 153.525907 137.765217 
L 154.16472 138.4928 
L 154.354511 138.710486 
L 155.198349 139.655754 
L 155.329242 139.799181 
L 156.056554 140.601023 
L 156.493764 141.071973 
L 156.931681 141.546292 
L 157.658285 142.315805 
L 157.823428 142.49156 
L 158.730125 143.436829 
L 158.822807 143.531648 
L 159.650757 144.382097 
L 159.987329 144.720922 
L 160.587697 145.327366 
L 161.151851 145.886269 
L 161.540758 146.272634 
L 162.316372 147.028903 
L 162.509784 147.217903 
L 163.480894 148.149947 
L 163.494652 148.163171 
L 164.492983 149.10844 
L 164.645416 149.250439 
L 165.507126 150.053708 
L 165.809938 150.331562 
L 166.53725 150.998977 
L 166.974459 151.394173 
L 167.583338 151.944246 
L 168.138981 152.439052 
L 168.645407 152.889514 
L 169.303503 153.466923 
L 169.723504 153.834783 
L 170.468024 154.478451 
L 170.817706 154.780051 
L 171.632546 155.474249 
L 171.928126 155.72532 
L 172.797068 156.454882 
L 173.054906 156.670588 
L 173.96159 157.420865 
L 174.19822 157.615857 
L 175.126111 158.37267 
L 175.358278 158.561125 
L 176.290633 159.310728 
L 176.535323 159.506394 
L 177.455155 160.235426 
L 177.729631 160.451662 
L 178.619677 161.147116 
L 178.941518 161.396931 
L 179.784198 162.046112 
L 180.171332 162.342199 
L 180.94872 162.932693 
L 181.419463 163.287468 
L 182.113242 163.807105 
L 182.686339 164.232737 
L 183.277764 164.669561 
L 183.972427 165.178005 
L 184.442285 165.520243 
L 185.27824 166.123274 
L 185.606807 166.359302 
L 186.604332 167.068542 
L 186.771329 167.18686 
L 187.935851 168.003163 
L 187.951174 168.013811 
L 189.100372 168.810049 
L 189.318032 168.959079 
L 190.264894 169.605983 
L 190.707088 169.904348 
L 191.429416 170.390996 
L 192.119114 170.849616 
L 192.593938 171.165089 
L 193.554936 171.794885 
L 193.758459 171.928242 
L 194.922981 172.68135 
L 195.015003 172.740153 
L 196.087503 173.425846 
L 196.499768 173.685422 
L 197.252024 174.159621 
L 198.011307 174.630691 
L 198.416546 174.882567 
L 199.550732 175.575959 
L 199.581068 175.594551 
L 200.74559 176.299242 
L 201.118782 176.521228 
L 201.910111 176.993433 
L 202.717406 177.466496 
L 203.074633 177.676631 
L 204.239155 178.349682 
L 204.34823 178.411765 
L 205.403677 179.015219 
L 206.013469 179.357033 
L 206.568198 179.669599 
L 207.714268 180.302302 
L 207.73272 180.312548 
L 208.897242 180.949008 
L 209.455279 181.24757 
L 210.061764 181.57418 
L 211.226285 182.18765 
L 211.23631 182.192839 
L 212.390807 182.794765 
L 213.064781 183.138107 
L 213.555329 183.389984 
L 214.719851 183.974712 
L 214.94083 184.083376 
L 215.884372 184.551342 
L 216.871023 185.028645 
L 217.048894 185.115489 
L 218.213416 185.671656 
L 218.862355 185.973913 
L 219.377938 186.216449 
L 220.542459 186.750649 
L 220.919155 186.919182 
L 221.706981 187.275407 
L 222.871503 187.787742 
L 223.050465 187.86445 
L 224.036024 188.291676 
L 225.200546 188.782048 
L 225.268127 188.809719 
L 226.365068 189.264255 
L 227.52959 189.732358 
L 227.587639 189.754987 
L 228.694111 190.191812 
L 229.858633 190.637122 
L 230.029361 190.700256 
L 231.023155 191.072669 
L 232.187677 191.494437 
L 232.620238 191.645524 
L 233.352198 191.904783 
L 234.51672 192.302014 
L 235.396319 192.590793 
L 235.681242 192.685714 
L 236.845764 193.057154 
L 238.010285 193.413599 
L 238.430018 193.536061 
L 239.174807 193.75671 
L 240.339329 194.084996 
L 241.503851 194.397523 
L 241.83558 194.48133 
L 242.668372 194.695095 
L 243.832894 194.976137 
L 244.997416 195.239935 
L 245.883626 195.426598 
L 246.161938 195.486195 
L 247.326459 195.714036 
L 248.490981 195.922273 
L 249.655503 196.110117 
L 250.820024 196.27659 
L 251.596712 196.371867 
L 251.984546 196.420253 
z
" clip-path="url(#pa62d2c5972)" style="fill: none; stroke: #1f77b4; stroke-opacity: 0.85; stroke-width: 1.1"/>
    <path d="M 231.023155 175.797911 
L 232.187677 175.991518 
L 233.352198 176.150509 
L 234.51672 176.270651 
L 235.681242 176.34671 
L 236.845764 176.372202 
L 238.010285 176.339061 
L 239.174807 176.23719 
L 240.339329 176.053855 
L 241.503851 175.772843 
L 242.098298 175.575959 
L 242.668372 175.353974 
L 243.832894 174.749398 
L 244.015294 174.630691 
L 244.997416 173.83348 
L 245.146338 173.685422 
L 245.883782 172.740153 
L 246.161938 172.242717 
L 246.377481 171.794885 
L 246.687129 170.849616 
L 246.862855 169.904348 
L 246.927261 168.959079 
L 246.897925 168.013811 
L 246.788645 167.068542 
L 246.610321 166.123274 
L 246.371608 165.178005 
L 246.161938 164.5072 
L 246.076536 164.232737 
L 245.725897 163.287468 
L 245.332403 162.342199 
L 244.997416 161.615719 
L 244.896922 161.396931 
L 244.416044 160.451662 
L 243.902812 159.506394 
L 243.832894 159.387686 
L 243.347595 158.561125 
L 242.763282 157.615857 
L 242.668372 157.471928 
L 242.141242 156.670588 
L 241.503851 155.740953 
L 241.493151 155.72532 
L 240.808528 154.780051 
L 240.339329 154.155899 
L 240.098187 153.834783 
L 239.358721 152.889514 
L 239.174807 152.663599 
L 238.589375 151.944246 
L 238.010285 151.255014 
L 237.795091 150.998977 
L 236.973442 150.053708 
L 236.845764 149.911654 
L 236.123046 149.10844 
L 235.681242 148.630824 
L 235.2479 148.163171 
L 234.51672 147.394839 
L 234.347937 147.217903 
L 233.421731 146.272634 
L 233.352198 146.203545 
L 232.467612 145.327366 
L 232.187677 145.056403 
L 231.48839 144.382097 
L 231.023155 143.943287 
L 230.483806 143.436829 
L 229.858633 142.862084 
L 229.453542 142.49156 
L 228.694111 141.810875 
L 228.397219 141.546292 
L 227.52959 140.787921 
L 227.314395 140.601023 
L 226.365068 139.791639 
L 226.204562 139.655754 
L 225.200546 138.820598 
L 225.067148 138.710486 
L 224.036024 137.8735 
L 223.901508 137.765217 
L 222.871503 136.949169 
L 222.706928 136.819949 
L 221.706981 136.046547 
L 221.482616 135.87468 
L 220.542459 135.164677 
L 220.227702 134.929412 
L 219.377938 134.302703 
L 218.941234 133.984143 
L 218.213416 133.459855 
L 217.622175 133.038875 
L 217.048894 132.635451 
L 216.269393 132.093606 
L 215.884372 131.828883 
L 214.881665 131.148338 
L 214.719851 131.039621 
L 213.555329 130.268559 
L 213.454835 130.203069 
L 212.390807 129.516313 
L 211.984255 129.257801 
L 211.226285 128.780068 
L 210.472827 128.312532 
L 210.061764 128.059499 
L 208.918743 127.367263 
L 208.897242 127.354336 
L 207.73272 126.669047 
L 207.305304 126.421995 
L 206.568198 125.998789 
L 205.642044 125.476726 
L 205.403677 125.343155 
L 204.239155 124.705393 
L 203.914199 124.531458 
L 203.074633 124.084496 
L 202.119135 123.586189 
L 201.910111 123.477681 
L 200.74559 122.889817 
L 200.239955 122.640921 
L 199.581068 122.31791 
L 198.416546 121.761142 
L 198.274766 121.695652 
L 197.252024 121.224927 
L 196.195085 120.750384 
L 196.087503 120.702215 
L 194.922981 120.201558 
L 193.974003 119.805115 
L 193.758459 119.715274 
L 192.593938 119.251323 
L 191.578095 118.859847 
L 191.429416 118.802652 
L 190.264894 118.378491 
L 189.100372 117.97027 
L 188.930883 117.914578 
L 187.935851 117.588161 
L 186.771329 117.22617 
L 185.891354 116.969309 
L 185.606807 116.886352 
L 184.442285 116.575719 
L 183.277764 116.288625 
L 182.113242 116.026988 
L 182.098007 116.024041 
L 180.94872 115.802089 
L 179.784198 115.608482 
L 178.619677 115.449491 
L 177.455155 115.329349 
L 176.290633 115.25329 
L 175.126111 115.227798 
L 173.96159 115.260939 
L 172.797068 115.36281 
L 171.632546 115.546145 
L 170.468024 115.827157 
L 169.873577 116.024041 
L 169.303503 116.246026 
L 168.138981 116.850602 
L 167.956581 116.969309 
L 166.974459 117.76652 
L 166.825537 117.914578 
L 166.088093 118.859847 
L 165.809938 119.357283 
L 165.594394 119.805115 
L 165.284746 120.750384 
L 165.10902 121.695652 
L 165.044614 122.640921 
L 165.07395 123.586189 
L 165.18323 124.531458 
L 165.361554 125.476726 
L 165.600267 126.421995 
L 165.809938 127.0928 
L 165.895339 127.367263 
L 166.245978 128.312532 
L 166.639472 129.257801 
L 166.974459 129.984281 
L 167.074953 130.203069 
L 167.555831 131.148338 
L 168.069063 132.093606 
L 168.138981 132.212314 
L 168.62428 133.038875 
L 169.208593 133.984143 
L 169.303503 134.128072 
L 169.830633 134.929412 
L 170.468024 135.859047 
L 170.478724 135.87468 
L 171.163347 136.819949 
L 171.632546 137.444101 
L 171.873688 137.765217 
L 172.613154 138.710486 
L 172.797068 138.936401 
L 173.3825 139.655754 
L 173.96159 140.344986 
L 174.176784 140.601023 
L 174.998433 141.546292 
L 175.126111 141.688346 
L 175.848829 142.49156 
L 176.290633 142.969176 
L 176.723975 143.436829 
L 177.455155 144.205161 
L 177.623938 144.382097 
L 178.550144 145.327366 
L 178.619677 145.396455 
L 179.504263 146.272634 
L 179.784198 146.543597 
L 180.483485 147.217903 
L 180.94872 147.656713 
L 181.488069 148.163171 
L 182.113242 148.737916 
L 182.518333 149.10844 
L 183.277764 149.789125 
L 183.574656 150.053708 
L 184.442285 150.812079 
L 184.65748 150.998977 
L 185.606807 151.808361 
L 185.767313 151.944246 
L 186.771329 152.779402 
L 186.904727 152.889514 
L 187.935851 153.7265 
L 188.070367 153.834783 
L 189.100372 154.650831 
L 189.264947 154.780051 
L 190.264894 155.553453 
L 190.489259 155.72532 
L 191.429416 156.435323 
L 191.744173 156.670588 
L 192.593938 157.297297 
L 193.030641 157.615857 
L 193.758459 158.140145 
L 194.3497 158.561125 
L 194.922981 158.964549 
L 195.702482 159.506394 
L 196.087503 159.771117 
L 197.09021 160.451662 
L 197.252024 160.560379 
L 198.416546 161.331441 
L 198.51704 161.396931 
L 199.581068 162.083687 
L 199.98762 162.342199 
L 200.74559 162.819932 
L 201.499048 163.287468 
L 201.910111 163.540501 
L 203.053132 164.232737 
L 203.074633 164.245664 
L 204.239155 164.930953 
L 204.666571 165.178005 
L 205.403677 165.601211 
L 206.329831 166.123274 
L 206.568198 166.256845 
L 207.73272 166.894607 
L 208.057676 167.068542 
L 208.897242 167.515504 
L 209.85274 168.013811 
L 210.061764 168.122319 
L 211.226285 168.710183 
L 211.73192 168.959079 
L 212.390807 169.28209 
L 213.555329 169.838858 
L 213.697109 169.904348 
L 214.719851 170.375073 
L 215.77679 170.849616 
L 215.884372 170.897785 
L 217.048894 171.398442 
L 217.997872 171.794885 
L 218.213416 171.884726 
L 219.377938 172.348677 
L 220.39378 172.740153 
L 220.542459 172.797348 
L 221.706981 173.221509 
L 222.871503 173.62973 
L 223.040992 173.685422 
L 224.036024 174.011839 
L 225.200546 174.37383 
L 226.080521 174.630691 
L 226.365068 174.713648 
L 227.52959 175.024281 
L 228.694111 175.311375 
L 229.858633 175.573012 
L 229.873868 175.575959 
L 231.023155 175.797911 
z
" clip-path="url(#pa62d2c5972)" style="fill: none; stroke: #1f77b4; stroke-opacity: 0.85; stroke-width: 1.1"/>
   </g>
   <g id="patch_3">
    <path d="M 21.845938 284.4 
L 21.845938 7.2 
" style="fill: none; stroke: #000000; stroke-width: 0.8; stroke-linejoin: miter; stroke-linecap: square"/>
   </g>
   <g id="patch_4">
    <path d="M 21.845938 284.4 
L 390.125938 284.4 
" style="fill: none; stroke: #000000; stroke-width: 0.8; stroke-linejoin: miter; stroke-linecap: square"/>
   </g>
   <g id="line2d_1">
    <path d="M 66.629189 208.422135 
L 47.8356 217.329671 
" clip-path="url(#pa62d2c5972)" style="fill: none; stroke-dasharray: 1.44,1.98; stroke-dashoffset: 0; stroke: #7f7f7f; stroke-width: 0.9"/>
   </g>
   <g id="line2d_2">
    <defs>
     <path id="m8b2ccf39f1" d="M -3 3 
L 3 -3 
M -3 -3 
L 3 3 
" style="stroke: #7f7f7f; stroke-width: 1.4"/>
    </defs>
    <g clip-path="url(#pa62d2c5972)">
     <use xlink:href="#m8b2ccf39f1" x="47.8356" y="217.329671" style="fill: #7f7f7f; stroke: #7f7f7f; stroke-width: 1.4"/>
    </g>
   </g>
   <g id="line2d_3">
    <path d="M 87.611071 210.098132 
L 19.577793 163.267539 
" clip-path="url(#pa62d2c5972)" style="fill: none; stroke-dasharray: 1.44,1.98; stroke-dashoffset: 0; stroke: #7f7f7f; stroke-width: 0.9"/>
   </g>
   <g id="line2d_4">
    <g clip-path="url(#pa62d2c5972)">
     <use xlink:href="#m8b2ccf39f1" x="19.577793" y="163.267539" style="fill: #7f7f7f; stroke: #7f7f7f; stroke-width: 1.4"/>
    </g>
   </g>
   <g id="line2d_5">
    <path d="M 124.09666 169.034203 
L 68.324945 157.226569 
" clip-path="url(#pa62d2c5972)" style="fill: none; stroke-dasharray: 1.44,1.98; stroke-dashoffset: 0; stroke: #7f7f7f; stroke-width: 0.9"/>
   </g>
   <g id="line2d_6">
    <g clip-path="url(#pa62d2c5972)">
     <use xlink:href="#m8b2ccf39f1" x="68.324945" y="157.226569" style="fill: #7f7f7f; stroke: #7f7f7f; stroke-width: 1.4"/>
    </g>
   </g>
   <g id="line2d_7">
    <path d="M 124.09666 169.034203 
L 53.374357 193.369619 
" clip-path="url(#pa62d2c5972)" style="fill: none; stroke-dasharray: 1.44,1.98; stroke-dashoffset: 0; stroke: #7f7f7f; stroke-width: 0.9"/>
   </g>
   <g id="line2d_8">
    <g clip-path="url(#pa62d2c5972)">
     <use xlink:href="#m8b2ccf39f1" x="53.374357" y="193.369619" style="fill: #7f7f7f; stroke: #7f7f7f; stroke-width: 1.4"/>
    </g>
   </g>
   <g id="line2d_9">
    <path d="M 124.09666 169.034203 
L 80.153399 213.650094 
" clip-path="url(#pa62d2c5972)" style="fill: none; stroke-dasharray: 1.44,1.98; stroke-dashoffset: 0; stroke: #7f7f7f; stroke-width: 0.9"/>
   </g>
   <g id="line2d_10">
    <g clip-path="url(#pa62d2c5972)">
     <use xlink:href="#m8b2ccf39f1" x="80.153399" y="213.650094" style="fill: #7f7f7f; stroke: #7f7f7f; stroke-width: 1.4"/>
    </g>
   </g>
   <g id="line2d_11">
    <path d="M 201.88506 151.395208 
L 171.017047 203.232052 
" clip-path="url(#pa62d2c5972)" style="fill: none; stroke-dasharray: 1.44,1.98; stroke-dashoffset: 0; stroke: #7f7f7f; stroke-width: 0.9"/>
   </g>
   <g id="line2d_12">
    <g clip-path="url(#pa62d2c5972)">
     <use xlink:href="#m8b2ccf39f1" x="171.017047" y="203.232052" style="fill: #7f7f7f; stroke: #7f7f7f; stroke-width: 1.4"/>
    </g>
   </g>
   <g id="line2d_13">
    <path d="M 286.788262 194.54418 
L 308.987327 247.388567 
" clip-path="url(#pa62d2c5972)" style="fill: none; stroke-dasharray: 1.44,1.98; stroke-dashoffset: 0; stroke: #7f7f7f; stroke-width: 0.9"/>
   </g>
   <g id="line2d_14">
    <g clip-path="url(#pa62d2c5972)">
     <use xlink:href="#m8b2ccf39f1" x="308.987327" y="247.388567" style="fill: #7f7f7f; stroke: #7f7f7f; stroke-width: 1.4"/>
    </g>
   </g>
   <g id="line2d_15">
    <path d="M 279.720856 131.59875 
L 273.16455 112.706948 
" clip-path="url(#pa62d2c5972)" style="fill: none; stroke-dasharray: 1.44,1.98; stroke-dashoffset: 0; stroke: #7f7f7f; stroke-width: 0.9"/>
   </g>
   <g id="line2d_16">
    <g clip-path="url(#pa62d2c5972)">
     <use xlink:href="#m8b2ccf39f1" x="273.16455" y="112.706948" style="fill: #7f7f7f; stroke: #7f7f7f; stroke-width: 1.4"/>
    </g>
   </g>
   <g id="line2d_17">
    <path d="M 279.720856 131.59875 
L 345.686268 178.639427 
" clip-path="url(#pa62d2c5972)" style="fill: none; stroke-dasharray: 1.44,1.98; stroke-dashoffset: 0; stroke: #7f7f7f; stroke-width: 0.9"/>
   </g>
   <g id="line2d_18">
    <g clip-path="url(#pa62d2c5972)">
     <use xlink:href="#m8b2ccf39f1" x="345.686268" y="178.639427" style="fill: #7f7f7f; stroke: #7f7f7f; stroke-width: 1.4"/>
    </g>
   </g>
   <g id="line2d_19">
    <path d="M 279.720856 131.59875 
L 296.848399 134.404635 
" clip-path="url(#pa62d2c5972)" style="fill: none; stroke-dasharray: 1.44,1.98; stroke-dashoffset: 0; stroke: #7f7f7f; stroke-width: 0.9"/>
   </g>
   <g id="line2d_20">
    <g clip-path="url(#pa62d2c5972)">
     <use xlink:href="#m8b2ccf39f1" x="296.848399" y="134.404635" style="fill: #7f7f7f; stroke: #7f7f7f; stroke-width: 1.4"/>
    </g>
   </g>
   <g id="line2d_21">
    <path d="M 325.749956 209.842214 
L 398.325937 261.60826 
" clip-path="url(#pa62d2c5972)" style="fill: none; stroke-dasharray: 1.44,1.98; stroke-dashoffset: 0; stroke: #7f7f7f; stroke-width: 0.9"/>
   </g>
   <g id="line2d_22">
    <g clip-path="url(#pa62d2c5972)">
     <use xlink:href="#m8b2ccf39f1" x="400.273477" y="262.997376" style="fill: #7f7f7f; stroke: #7f7f7f; stroke-width: 1.4"/>
    </g>
   </g>
   <g id="line2d_23">
    <path d="M 325.749956 209.842214 
L 351.660114 162.628262 
" clip-path="url(#pa62d2c5972)" style="fill: none; stroke-dasharray: 1.44,1.98; stroke-dashoffset: 0; stroke: #7f7f7f; stroke-width: 0.9"/>
   </g>
   <g id="line2d_24">
    <g clip-path="url(#pa62d2c5972)">
     <use xlink:href="#m8b2ccf39f1" x="351.660114" y="162.628262" style="fill: #7f7f7f; stroke: #7f7f7f; stroke-width: 1.4"/>
    </g>
   </g>
   <g id="line2d_25">
    <path d="M 298.27067 200.959729 
L 290.767307 222.916095 
" clip-path="url(#pa62d2c5972)" style="fill: none; stroke-dasharray: 1.44,1.98; stroke-dashoffset: 0; stroke: #7f7f7f; stroke-width: 0.9"/>
   </g>
   <g id="line2d_26">
    <g clip-path="url(#pa62d2c5972)">
     <use xlink:href="#m8b2ccf39f1" x="290.767307" y="222.916095" style="fill: #7f7f7f; stroke: #7f7f7f; stroke-width: 1.4"/>
    </g>
   </g>
   <g id="line2d_27">
    <path d="M 262.288353 218.2732 
L 255.270474 261.311681 
" clip-path="url(#pa62d2c5972)" style="fill: none; stroke-dasharray: 1.44,1.98; stroke-dashoffset: 0; stroke: #7f7f7f; stroke-width: 0.9"/>
   </g>
   <g id="line2d_28">
    <g clip-path="url(#pa62d2c5972)">
     <use xlink:href="#m8b2ccf39f1" x="255.270474" y="261.311681" style="fill: #7f7f7f; stroke: #7f7f7f; stroke-width: 1.4"/>
    </g>
   </g>
   <g id="text_3">
    <!-- start -->
    <g transform="translate(74.074737 260.146517) scale(0.11 -0.11)">
     <defs>
      <path id="DejaVuSans-73" d="M 2834 3397 
L 2834 2853 
Q 2591 2978 2328 3040 
Q 2066 3103 1784 3103 
Q 1356 3103 1142 2972 
Q 928 2841 928 2578 
Q 928 2378 1081 2264 
Q 1234 2150 1697 2047 
L 1894 2003 
Q 2506 1872 2764 1633 
Q 3022 1394 3022 966 
Q 3022 478 2636 193 
Q 2250 -91 1575 -91 
Q 1294 -91 989 -36 
Q 684 19 347 128 
L 347 722 
Q 666 556 975 473 
Q 1284 391 1588 391 
Q 1994 391 2212 530 
Q 2431 669 2431 922 
Q 2431 1156 2273 1281 
Q 2116 1406 1581 1522 
L 1381 1569 
Q 847 1681 609 1914 
Q 372 2147 372 2553 
Q 372 3047 722 3315 
Q 1072 3584 1716 3584 
Q 2034 3584 2315 3537 
Q 2597 3491 2834 3397 
z
" transform="scale(0.015625)"/>
      <path id="DejaVuSans-74" d="M 1172 4494 
L 1172 3500 
L 2356 3500 
L 2356 3053 
L 1172 3053 
L 1172 1153 
Q 1172 725 1289 603 
Q 1406 481 1766 481 
L 2356 481 
L 2356 0 
L 1766 0 
Q 1100 0 847 248 
Q 594 497 594 1153 
L 594 3053 
L 172 3053 
L 172 3500 
L 594 3500 
L 594 4494 
L 1172 4494 
z
" transform="scale(0.015625)"/>
      <path id="DejaVuSans-61" d="M 2194 1759 
Q 1497 1759 1228 1600 
Q 959 1441 959 1056 
Q 959 750 1161 570 
Q 1363 391 1709 391 
Q 2188 391 2477 730 
Q 2766 1069 2766 1631 
L 2766 1759 
L 2194 1759 
z
M 3341 1997 
L 3341 0 
L 2766 0 
L 2766 531 
Q 2569 213 2275 61 
Q 1981 -91 1556 -91 
Q 1019 -91 701 211 
Q 384 513 384 1019 
Q 384 1609 779 1909 
Q 1175 2209 1959 2209 
L 2766 2209 
L 2766 2266 
Q 2766 2663 2505 2880 
Q 2244 3097 1772 3097 
Q 1472 3097 1187 3025 
Q 903 2953 641 2809 
L 641 3341 
Q 956 3463 1253 3523 
Q 1550 3584 1831 3584 
Q 2591 3584 2966 3190 
Q 3341 2797 3341 1997 
z
" transform="scale(0.015625)"/>
      <path id="DejaVuSans-72" d="M 2631 2963 
Q 2534 3019 2420 3045 
Q 2306 3072 2169 3072 
Q 1681 3072 1420 2755 
Q 1159 2438 1159 1844 
L 1159 0 
L 581 0 
L 581 3500 
L 1159 3500 
L 1159 2956 
Q 1341 3275 1631 3429 
Q 1922 3584 2338 3584 
Q 2397 3584 2469 3576 
Q 2541 3569 2628 3553 
L 2631 2963 
z
" transform="scale(0.015625)"/>
     </defs>
     <use xlink:href="#DejaVuSans-73"/>
     <use xlink:href="#DejaVuSans-74" transform="translate(52.099609 0)"/>
     <use xlink:href="#DejaVuSans-61" transform="translate(91.308594 0)"/>
     <use xlink:href="#DejaVuSans-72" transform="translate(152.587891 0)"/>
     <use xlink:href="#DejaVuSans-74" transform="translate(193.701172 0)"/>
    </g>
   </g>
   <g id="text_4">
    <!-- rejected proposal: -->
    <g style="fill: #7f7f7f" transform="translate(267.015083 39.547904) scale(0.105 -0.105)">
     <defs>
      <path id="DejaVuSans-65" d="M 3597 1894 
L 3597 1613 
L 953 1613 
Q 991 1019 1311 708 
Q 1631 397 2203 397 
Q 2534 397 2845 478 
Q 3156 559 3463 722 
L 3463 178 
Q 3153 47 2828 -22 
Q 2503 -91 2169 -91 
Q 1331 -91 842 396 
Q 353 884 353 1716 
Q 353 2575 817 3079 
Q 1281 3584 2069 3584 
Q 2775 3584 3186 3129 
Q 3597 2675 3597 1894 
z
M 3022 2063 
Q 3016 2534 2758 2815 
Q 2500 3097 2075 3097 
Q 1594 3097 1305 2825 
Q 1016 2553 972 2059 
L 3022 2063 
z
" transform="scale(0.015625)"/>
      <path id="DejaVuSans-6a" d="M 603 3500 
L 1178 3500 
L 1178 -63 
Q 1178 -731 923 -1031 
Q 669 -1331 103 -1331 
L -116 -1331 
L -116 -844 
L 38 -844 
Q 366 -844 484 -692 
Q 603 -541 603 -63 
L 603 3500 
z
M 603 4863 
L 1178 4863 
L 1178 4134 
L 603 4134 
L 603 4863 
z
" transform="scale(0.015625)"/>
      <path id="DejaVuSans-63" d="M 3122 3366 
L 3122 2828 
Q 2878 2963 2633 3030 
Q 2388 3097 2138 3097 
Q 1578 3097 1268 2742 
Q 959 2388 959 1747 
Q 959 1106 1268 751 
Q 1578 397 2138 397 
Q 2388 397 2633 464 
Q 2878 531 3122 666 
L 3122 134 
Q 2881 22 2623 -34 
Q 2366 -91 2075 -91 
Q 1284 -91 818 406 
Q 353 903 353 1747 
Q 353 2603 823 3093 
Q 1294 3584 2113 3584 
Q 2378 3584 2631 3529 
Q 2884 3475 3122 3366 
z
" transform="scale(0.015625)"/>
      <path id="DejaVuSans-64" d="M 2906 2969 
L 2906 4863 
L 3481 4863 
L 3481 0 
L 2906 0 
L 2906 525 
Q 2725 213 2448 61 
Q 2172 -91 1784 -91 
Q 1150 -91 751 415 
Q 353 922 353 1747 
Q 353 2572 751 3078 
Q 1150 3584 1784 3584 
Q 2172 3584 2448 3432 
Q 2725 3281 2906 2969 
z
M 947 1747 
Q 947 1113 1208 752 
Q 1469 391 1925 391 
Q 2381 391 2643 752 
Q 2906 1113 2906 1747 
Q 2906 2381 2643 2742 
Q 2381 3103 1925 3103 
Q 1469 3103 1208 2742 
Q 947 2381 947 1747 
z
" transform="scale(0.015625)"/>
      <path id="DejaVuSans-20" transform="scale(0.015625)"/>
      <path id="DejaVuSans-70" d="M 1159 525 
L 1159 -1331 
L 581 -1331 
L 581 3500 
L 1159 3500 
L 1159 2969 
Q 1341 3281 1617 3432 
Q 1894 3584 2278 3584 
Q 2916 3584 3314 3078 
Q 3713 2572 3713 1747 
Q 3713 922 3314 415 
Q 2916 -91 2278 -91 
Q 1894 -91 1617 61 
Q 1341 213 1159 525 
z
M 3116 1747 
Q 3116 2381 2855 2742 
Q 2594 3103 2138 3103 
Q 1681 3103 1420 2742 
Q 1159 2381 1159 1747 
Q 1159 1113 1420 752 
Q 1681 391 2138 391 
Q 2594 391 2855 752 
Q 3116 1113 3116 1747 
z
" transform="scale(0.015625)"/>
      <path id="DejaVuSans-6f" d="M 1959 3097 
Q 1497 3097 1228 2736 
Q 959 2375 959 1747 
Q 959 1119 1226 758 
Q 1494 397 1959 397 
Q 2419 397 2687 759 
Q 2956 1122 2956 1747 
Q 2956 2369 2687 2733 
Q 2419 3097 1959 3097 
z
M 1959 3584 
Q 2709 3584 3137 3096 
Q 3566 2609 3566 1747 
Q 3566 888 3137 398 
Q 2709 -91 1959 -91 
Q 1206 -91 779 398 
Q 353 888 353 1747 
Q 353 2609 779 3096 
Q 1206 3584 1959 3584 
z
" transform="scale(0.015625)"/>
      <path id="DejaVuSans-6c" d="M 603 4863 
L 1178 4863 
L 1178 0 
L 603 0 
L 603 4863 
z
" transform="scale(0.015625)"/>
      <path id="DejaVuSans-3a" d="M 750 794 
L 1409 794 
L 1409 0 
L 750 0 
L 750 794 
z
M 750 3309 
L 1409 3309 
L 1409 2516 
L 750 2516 
L 750 3309 
z
" transform="scale(0.015625)"/>
     </defs>
     <use xlink:href="#DejaVuSans-72"/>
     <use xlink:href="#DejaVuSans-65" transform="translate(38.863281 0)"/>
     <use xlink:href="#DejaVuSans-6a" transform="translate(100.386719 0)"/>
     <use xlink:href="#DejaVuSans-65" transform="translate(128.169922 0)"/>
     <use xlink:href="#DejaVuSans-63" transform="translate(189.693359 0)"/>
     <use xlink:href="#DejaVuSans-74" transform="translate(244.673828 0)"/>
     <use xlink:href="#DejaVuSans-65" transform="translate(283.882812 0)"/>
     <use xlink:href="#DejaVuSans-64" transform="translate(345.40625 0)"/>
     <use xlink:href="#DejaVuSans-20" transform="translate(408.882812 0)"/>
     <use xlink:href="#DejaVuSans-70" transform="translate(440.669922 0)"/>
     <use xlink:href="#DejaVuSans-72" transform="translate(504.146484 0)"/>
     <use xlink:href="#DejaVuSans-6f" transform="translate(543.009766 0)"/>
     <use xlink:href="#DejaVuSans-70" transform="translate(604.191406 0)"/>
     <use xlink:href="#DejaVuSans-6f" transform="translate(667.667969 0)"/>
     <use xlink:href="#DejaVuSans-73" transform="translate(728.849609 0)"/>
     <use xlink:href="#DejaVuSans-61" transform="translate(780.949219 0)"/>
     <use xlink:href="#DejaVuSans-6c" transform="translate(842.228516 0)"/>
     <use xlink:href="#DejaVuSans-3a" transform="translate(870.011719 0)"/>
    </g>
    <!-- chain repeats its state -->
    <g style="fill: #7f7f7f" transform="translate(255.844067 51.305607) scale(0.105 -0.105)">
     <defs>
      <path id="DejaVuSans-68" d="M 3513 2113 
L 3513 0 
L 2938 0 
L 2938 2094 
Q 2938 2591 2744 2837 
Q 2550 3084 2163 3084 
Q 1697 3084 1428 2787 
Q 1159 2491 1159 1978 
L 1159 0 
L 581 0 
L 581 4863 
L 1159 4863 
L 1159 2956 
Q 1366 3272 1645 3428 
Q 1925 3584 2291 3584 
Q 2894 3584 3203 3211 
Q 3513 2838 3513 2113 
z
" transform="scale(0.015625)"/>
      <path id="DejaVuSans-69" d="M 603 3500 
L 1178 3500 
L 1178 0 
L 603 0 
L 603 3500 
z
M 603 4863 
L 1178 4863 
L 1178 4134 
L 603 4134 
L 603 4863 
z
" transform="scale(0.015625)"/>
      <path id="DejaVuSans-6e" d="M 3513 2113 
L 3513 0 
L 2938 0 
L 2938 2094 
Q 2938 2591 2744 2837 
Q 2550 3084 2163 3084 
Q 1697 3084 1428 2787 
Q 1159 2491 1159 1978 
L 1159 0 
L 581 0 
L 581 3500 
L 1159 3500 
L 1159 2956 
Q 1366 3272 1645 3428 
Q 1925 3584 2291 3584 
Q 2894 3584 3203 3211 
Q 3513 2838 3513 2113 
z
" transform="scale(0.015625)"/>
     </defs>
     <use xlink:href="#DejaVuSans-63"/>
     <use xlink:href="#DejaVuSans-68" transform="translate(54.980469 0)"/>
     <use xlink:href="#DejaVuSans-61" transform="translate(118.359375 0)"/>
     <use xlink:href="#DejaVuSans-69" transform="translate(179.638672 0)"/>
     <use xlink:href="#DejaVuSans-6e" transform="translate(207.421875 0)"/>
     <use xlink:href="#DejaVuSans-20" transform="translate(270.800781 0)"/>
     <use xlink:href="#DejaVuSans-72" transform="translate(302.587891 0)"/>
     <use xlink:href="#DejaVuSans-65" transform="translate(341.451172 0)"/>
     <use xlink:href="#DejaVuSans-70" transform="translate(402.974609 0)"/>
     <use xlink:href="#DejaVuSans-65" transform="translate(466.451172 0)"/>
     <use xlink:href="#DejaVuSans-61" transform="translate(527.974609 0)"/>
     <use xlink:href="#DejaVuSans-74" transform="translate(589.253906 0)"/>
     <use xlink:href="#DejaVuSans-73" transform="translate(628.462891 0)"/>
     <use xlink:href="#DejaVuSans-20" transform="translate(680.5625 0)"/>
     <use xlink:href="#DejaVuSans-69" transform="translate(712.349609 0)"/>
     <use xlink:href="#DejaVuSans-74" transform="translate(740.132812 0)"/>
     <use xlink:href="#DejaVuSans-73" transform="translate(779.341797 0)"/>
     <use xlink:href="#DejaVuSans-20" transform="translate(831.441406 0)"/>
     <use xlink:href="#DejaVuSans-73" transform="translate(863.228516 0)"/>
     <use xlink:href="#DejaVuSans-74" transform="translate(915.328125 0)"/>
     <use xlink:href="#DejaVuSans-61" transform="translate(954.537109 0)"/>
     <use xlink:href="#DejaVuSans-74" transform="translate(1015.816406 0)"/>
     <use xlink:href="#DejaVuSans-65" transform="translate(1055.025391 0)"/>
    </g>
   </g>
   <g id="text_5">
    <!-- posterior contours -->
    <g style="fill: #1f77b4" transform="translate(61.807797 28.941176) scale(0.11 -0.11)">
     <defs>
      <path id="DejaVuSans-75" d="M 544 1381 
L 544 3500 
L 1119 3500 
L 1119 1403 
Q 1119 906 1312 657 
Q 1506 409 1894 409 
Q 2359 409 2629 706 
Q 2900 1003 2900 1516 
L 2900 3500 
L 3475 3500 
L 3475 0 
L 2900 0 
L 2900 538 
Q 2691 219 2414 64 
Q 2138 -91 1772 -91 
Q 1169 -91 856 284 
Q 544 659 544 1381 
z
M 1991 3584 
L 1991 3584 
z
" transform="scale(0.015625)"/>
     </defs>
     <use xlink:href="#DejaVuSans-70"/>
     <use xlink:href="#DejaVuSans-6f" transform="translate(63.476562 0)"/>
     <use xlink:href="#DejaVuSans-73" transform="translate(124.658203 0)"/>
     <use xlink:href="#DejaVuSans-74" transform="translate(176.757812 0)"/>
     <use xlink:href="#DejaVuSans-65" transform="translate(215.966797 0)"/>
     <use xlink:href="#DejaVuSans-72" transform="translate(277.490234 0)"/>
     <use xlink:href="#DejaVuSans-69" transform="translate(318.603516 0)"/>
     <use xlink:href="#DejaVuSans-6f" transform="translate(346.386719 0)"/>
     <use xlink:href="#DejaVuSans-72" transform="translate(407.568359 0)"/>
     <use xlink:href="#DejaVuSans-20" transform="translate(448.681641 0)"/>
     <use xlink:href="#DejaVuSans-63" transform="translate(480.46875 0)"/>
     <use xlink:href="#DejaVuSans-6f" transform="translate(535.449219 0)"/>
     <use xlink:href="#DejaVuSans-6e" transform="translate(596.630859 0)"/>
     <use xlink:href="#DejaVuSans-74" transform="translate(660.009766 0)"/>
     <use xlink:href="#DejaVuSans-6f" transform="translate(699.21875 0)"/>
     <use xlink:href="#DejaVuSans-75" transform="translate(760.400391 0)"/>
     <use xlink:href="#DejaVuSans-72" transform="translate(823.779297 0)"/>
     <use xlink:href="#DejaVuSans-73" transform="translate(864.892578 0)"/>
    </g>
   </g>
   <g id="line2d_29">
    <path d="M 65.369938 249.070588 
L 66.629189 208.422135 
L 66.629189 208.422135 
L 87.611071 210.098132 
L 87.611071 210.098132 
L 112.668049 214.180662 
L 129.72347 189.532558 
L 124.09666 169.034203 
L 124.09666 169.034203 
L 124.09666 169.034203 
L 124.09666 169.034203 
L 157.140556 176.003481 
L 171.319108 154.562349 
L 191.378134 123.386507 
L 161.417984 112.993799 
L 201.88506 151.395208 
L 201.88506 151.395208 
L 221.323034 173.480684 
L 251.592863 154.725818 
L 286.788262 194.54418 
L 286.788262 194.54418 
L 277.565745 171.181248 
L 276.89397 160.932005 
L 298.939088 164.069787 
L 279.720856 131.59875 
L 279.720856 131.59875 
L 279.720856 131.59875 
L 279.720856 131.59875 
L 326.020598 169.317294 
L 373.965793 217.137996 
L 325.749956 209.842214 
L 325.749956 209.842214 
L 325.749956 209.842214 
L 298.27067 200.959729 
L 298.27067 200.959729 
L 309.609261 203.739408 
L 262.288353 218.2732 
L 262.288353 218.2732 
L 281.816968 155.253799 
L 264.825097 198.52986 
L 359.455067 223.070985 
" clip-path="url(#pa62d2c5972)" style="fill: none; stroke: #ff7f0e; stroke-width: 1.6; stroke-linecap: square"/>
   </g>
   <g id="line2d_30">
    <defs>
     <path id="mf1fae3c340" d="M 0 1.75 
C 0.464105 1.75 0.909265 1.565609 1.237437 1.237437 
C 1.565609 0.909265 1.75 0.464105 1.75 0 
C 1.75 -0.464105 1.565609 -0.909265 1.237437 -1.237437 
C 0.909265 -1.565609 0.464105 -1.75 0 -1.75 
C -0.464105 -1.75 -0.909265 -1.565609 -1.237437 -1.237437 
C -1.565609 -0.909265 -1.75 -0.464105 -1.75 0 
C -1.75 0.464105 -1.565609 0.909265 -1.237437 1.237437 
C -0.909265 1.565609 -0.464105 1.75 0 1.75 
z
" style="stroke: #ff7f0e"/>
    </defs>
    <g clip-path="url(#pa62d2c5972)">
     <use xlink:href="#mf1fae3c340" x="65.369938" y="249.070588" style="fill: #ff7f0e; stroke: #ff7f0e"/>
     <use xlink:href="#mf1fae3c340" x="66.629189" y="208.422135" style="fill: #ff7f0e; stroke: #ff7f0e"/>
     <use xlink:href="#mf1fae3c340" x="66.629189" y="208.422135" style="fill: #ff7f0e; stroke: #ff7f0e"/>
     <use xlink:href="#mf1fae3c340" x="87.611071" y="210.098132" style="fill: #ff7f0e; stroke: #ff7f0e"/>
     <use xlink:href="#mf1fae3c340" x="87.611071" y="210.098132" style="fill: #ff7f0e; stroke: #ff7f0e"/>
     <use xlink:href="#mf1fae3c340" x="112.668049" y="214.180662" style="fill: #ff7f0e; stroke: #ff7f0e"/>
     <use xlink:href="#mf1fae3c340" x="129.72347" y="189.532558" style="fill: #ff7f0e; stroke: #ff7f0e"/>
     <use xlink:href="#mf1fae3c340" x="124.09666" y="169.034203" style="fill: #ff7f0e; stroke: #ff7f0e"/>
     <use xlink:href="#mf1fae3c340" x="124.09666" y="169.034203" style="fill: #ff7f0e; stroke: #ff7f0e"/>
     <use xlink:href="#mf1fae3c340" x="124.09666" y="169.034203" style="fill: #ff7f0e; stroke: #ff7f0e"/>
     <use xlink:href="#mf1fae3c340" x="124.09666" y="169.034203" style="fill: #ff7f0e; stroke: #ff7f0e"/>
     <use xlink:href="#mf1fae3c340" x="157.140556" y="176.003481" style="fill: #ff7f0e; stroke: #ff7f0e"/>
     <use xlink:href="#mf1fae3c340" x="171.319108" y="154.562349" style="fill: #ff7f0e; stroke: #ff7f0e"/>
     <use xlink:href="#mf1fae3c340" x="191.378134" y="123.386507" style="fill: #ff7f0e; stroke: #ff7f0e"/>
     <use xlink:href="#mf1fae3c340" x="161.417984" y="112.993799" style="fill: #ff7f0e; stroke: #ff7f0e"/>
     <use xlink:href="#mf1fae3c340" x="201.88506" y="151.395208" style="fill: #ff7f0e; stroke: #ff7f0e"/>
     <use xlink:href="#mf1fae3c340" x="201.88506" y="151.395208" style="fill: #ff7f0e; stroke: #ff7f0e"/>
     <use xlink:href="#mf1fae3c340" x="221.323034" y="173.480684" style="fill: #ff7f0e; stroke: #ff7f0e"/>
     <use xlink:href="#mf1fae3c340" x="251.592863" y="154.725818" style="fill: #ff7f0e; stroke: #ff7f0e"/>
     <use xlink:href="#mf1fae3c340" x="286.788262" y="194.54418" style="fill: #ff7f0e; stroke: #ff7f0e"/>
     <use xlink:href="#mf1fae3c340" x="286.788262" y="194.54418" style="fill: #ff7f0e; stroke: #ff7f0e"/>
     <use xlink:href="#mf1fae3c340" x="277.565745" y="171.181248" style="fill: #ff7f0e; stroke: #ff7f0e"/>
     <use xlink:href="#mf1fae3c340" x="276.89397" y="160.932005" style="fill: #ff7f0e; stroke: #ff7f0e"/>
     <use xlink:href="#mf1fae3c340" x="298.939088" y="164.069787" style="fill: #ff7f0e; stroke: #ff7f0e"/>
     <use xlink:href="#mf1fae3c340" x="279.720856" y="131.59875" style="fill: #ff7f0e; stroke: #ff7f0e"/>
     <use xlink:href="#mf1fae3c340" x="279.720856" y="131.59875" style="fill: #ff7f0e; stroke: #ff7f0e"/>
     <use xlink:href="#mf1fae3c340" x="279.720856" y="131.59875" style="fill: #ff7f0e; stroke: #ff7f0e"/>
     <use xlink:href="#mf1fae3c340" x="279.720856" y="131.59875" style="fill: #ff7f0e; stroke: #ff7f0e"/>
     <use xlink:href="#mf1fae3c340" x="326.020598" y="169.317294" style="fill: #ff7f0e; stroke: #ff7f0e"/>
     <use xlink:href="#mf1fae3c340" x="373.965793" y="217.137996" style="fill: #ff7f0e; stroke: #ff7f0e"/>
     <use xlink:href="#mf1fae3c340" x="325.749956" y="209.842214" style="fill: #ff7f0e; stroke: #ff7f0e"/>
     <use xlink:href="#mf1fae3c340" x="325.749956" y="209.842214" style="fill: #ff7f0e; stroke: #ff7f0e"/>
     <use xlink:href="#mf1fae3c340" x="325.749956" y="209.842214" style="fill: #ff7f0e; stroke: #ff7f0e"/>
     <use xlink:href="#mf1fae3c340" x="298.27067" y="200.959729" style="fill: #ff7f0e; stroke: #ff7f0e"/>
     <use xlink:href="#mf1fae3c340" x="298.27067" y="200.959729" style="fill: #ff7f0e; stroke: #ff7f0e"/>
     <use xlink:href="#mf1fae3c340" x="309.609261" y="203.739408" style="fill: #ff7f0e; stroke: #ff7f0e"/>
     <use xlink:href="#mf1fae3c340" x="262.288353" y="218.2732" style="fill: #ff7f0e; stroke: #ff7f0e"/>
     <use xlink:href="#mf1fae3c340" x="262.288353" y="218.2732" style="fill: #ff7f0e; stroke: #ff7f0e"/>
     <use xlink:href="#mf1fae3c340" x="281.816968" y="155.253799" style="fill: #ff7f0e; stroke: #ff7f0e"/>
     <use xlink:href="#mf1fae3c340" x="264.825097" y="198.52986" style="fill: #ff7f0e; stroke: #ff7f0e"/>
     <use xlink:href="#mf1fae3c340" x="359.455067" y="223.070985" style="fill: #ff7f0e; stroke: #ff7f0e"/>
    </g>
   </g>
   <g id="line2d_31">
    <defs>
     <path id="mf52ff276b9" d="M -3.5 3.5 
L 3.5 3.5 
L 3.5 -3.5 
L -3.5 -3.5 
z
" style="stroke: #000000; stroke-linejoin: miter"/>
    </defs>
    <g clip-path="url(#pa62d2c5972)">
     <use xlink:href="#mf52ff276b9" x="65.369938" y="249.070588" style="stroke: #000000; stroke-linejoin: miter"/>
    </g>
   </g>
  </g>
 </g>
 <defs>
  <clipPath id="pa62d2c5972">
   <rect x="21.845938" y="7.2" width="368.28" height="277.2"/>
  </clipPath>
 </defs>
</svg>
