<?xml version="1.0" encoding="utf-8" standalone="no"?>
<!DOCTYPE svg PUBLIC "-//W3C//DTD SVG 1.1//EN"
  "http://www.w3.org/Graphics/SVG/1.1/DTD/svg11.dtd">
<svg xmlns:xlink="http://www.w3.org/1999/xlink" width="382.576696pt" height="380.304pt" viewBox="0 0 382.576696 380.304" xmlns="http://www.w3.org/2000/svg" version="1.1">
 <metadata>
  <rdf:RDF xmlns:dc="http://purl.org/dc/elements/1.1/" xmlns:cc="http://creativecommons.org/ns#" xmlns:rdf="http://www.w3.org/1999/02/22-rdf-syntax-ns#">
   <cc:Work>
    <dc:type rdf:resource="http://purl.org/dc/dcmitype/StillImage"/>
    <dc:format>image/svg+xml</dc:format>
    <dc:creator>
     <cc:Agent>
      <dc:title>Matplotlib v3.10.8, https://matplotlib.org/</dc:title>
     </cc:Agent>
    </dc:creator>
   </cc:Work>
  </rdf:RDF>
 </metadata>
 <defs>
  <style type="text/css">*{stroke-linejoin: round; stroke-linecap: butt}</style>
 </defs>
 <g id="figure_1">
  <g id="patch_1">
   <path d="M 0 380.304 
L 382.576696 380.304 
L 382.576696 0 
L 0 0 
z
" style="fill: #ffffff"/>
  </g>
  <g id="axes_1">
   <g id="line2d_1">
    <path d="M 67.653704 300.377739 
L 310.3776 300.377739 
" clip-path="url(#pd65b052663)" style="fill: none; stroke: #7f7f7f; stroke-width: 1.4; stroke-linecap: square"/>
   </g>
   <g id="line2d_2">
    <path d="M 67.653704 308.559443 
L 310.3776 308.559443 
" clip-path="url(#pd65b052663)" style="fill: none; stroke: #7f7f7f; stroke-width: 1.4; stroke-linecap: square"/>
   </g>
   <g id="line2d_3">
    <path d="M 67.653704 316.741148 
L 310.3776 316.741148 
" clip-path="url(#pd65b052663)" style="fill: none; stroke: #7f7f7f; stroke-width: 1.4; stroke-linecap: square"/>
   </g>
   <g id="patch_2">
    <path d="M 131.289183 364.922296 
L 160.379687 364.922296 
Q 164.925078 364.922296 164.925078 360.376904 
L 164.925078 340.377183 
Q 164.925078 335.831791 160.379687 335.831791 
L 131.289183 335.831791 
Q 126.743791 335.831791 126.743791 340.377183 
L 126.743791 360.376904 
Q 126.743791 364.922296 131.289183 364.922296 
z
" clip-path="url(#pd65b052663)" style="fill: #1f77b4; opacity: 0.12"/>
   </g>
   <g id="patch_3">
    <path d="M 174.4704 364.922296 
L 203.560904 364.922296 
Q 208.106296 364.922296 208.106296 360.376904 
L 208.106296 340.377183 
Q 208.106296 335.831791 203.560904 335.831791 
L 174.4704 335.831791 
Q 169.925009 335.831791 169.925009 340.377183 
L 169.925009 360.376904 
Q 169.925009 364.922296 174.4704 364.922296 
z
" clip-path="url(#pd65b052663)" style="fill: #1f77b4; opacity: 0.12"/>
   </g>
   <g id="patch_4">
    <path d="M 217.651617 364.922296 
L 246.742122 364.922296 
Q 251.287513 364.922296 251.287513 360.376904 
L 251.287513 340.377183 
Q 251.287513 335.831791 246.742122 335.831791 
L 217.651617 335.831791 
Q 213.106226 335.831791 213.106226 340.377183 
L 213.106226 360.376904 
Q 213.106226 364.922296 217.651617 364.922296 
z
" clip-path="url(#pd65b052663)" style="fill: #1f77b4; opacity: 0.12"/>
   </g>
   <g id="patch_5">
    <path d="M 42.654052 273.105391 
L 149.016209 273.105391 
Q 153.5616 273.105391 153.5616 268.56 
L 153.5616 245.833043 
Q 153.5616 241.287652 149.016209 241.287652 
L 42.654052 241.287652 
Q 38.108661 241.287652 38.108661 245.833043 
L 38.108661 268.56 
Q 38.108661 273.105391 42.654052 273.105391 
z
" clip-path="url(#pd65b052663)" style="fill: #1f77b4; opacity: 0.12"/>
   </g>
   <g id="patch_6">
    <path d="M 42.654052 216.742539 
L 149.016209 216.742539 
Q 153.5616 216.742539 153.5616 212.197148 
L 153.5616 184.015722 
Q 153.5616 179.47033 149.016209 179.47033 
L 42.654052 179.47033 
Q 38.108661 179.47033 38.108661 184.015722 
L 38.108661 212.197148 
Q 38.108661 216.742539 42.654052 216.742539 
z
" clip-path="url(#pd65b052663)" style="fill: #2ca02c; opacity: 0.12"/>
   </g>
   <g id="patch_7">
    <path d="M 229.015096 273.105391 
L 335.377252 273.105391 
Q 339.922643 273.105391 339.922643 268.56 
L 339.922643 245.833043 
Q 339.922643 241.287652 335.377252 241.287652 
L 229.015096 241.287652 
Q 224.469704 241.287652 224.469704 245.833043 
L 224.469704 268.56 
Q 224.469704 273.105391 229.015096 273.105391 
z
" clip-path="url(#pd65b052663)" style="fill: #1f77b4; opacity: 0.12"/>
   </g>
   <g id="patch_8">
    <path d="M 229.015096 216.742539 
L 335.377252 216.742539 
Q 339.922643 216.742539 339.922643 212.197148 
L 339.922643 184.015722 
Q 339.922643 179.47033 335.377252 179.47033 
L 229.015096 179.47033 
Q 224.469704 179.47033 224.469704 184.015722 
L 224.469704 212.197148 
Q 224.469704 216.742539 229.015096 216.742539 
z
" clip-path="url(#pd65b052663)" style="fill: #2ca02c; opacity: 0.12"/>
   </g>
   <g id="patch_9">
    <path d="M 56.290226 154.470678 
L 321.741078 154.470678 
Q 326.28647 154.470678 326.28647 149.925287 
L 326.28647 128.107409 
Q 326.28647 123.562017 321.741078 123.562017 
L 56.290226 123.562017 
Q 51.744835 123.562017 51.744835 128.107409 
L 51.744835 149.925287 
Q 51.744835 154.470678 56.290226 154.470678 
z
" clip-path="url(#pd65b052663)" style="fill: #ff7f0e; opacity: 0.12"/>
   </g>
   <g id="patch_10">
    <path d="M 115.380313 100.380522 
L 262.650991 100.380522 
Q 267.196383 100.380522 267.196383 95.83513 
L 267.196383 73.108174 
Q 267.196383 68.562783 262.650991 68.562783 
L 115.380313 68.562783 
Q 110.834922 68.562783 110.834922 73.108174 
L 110.834922 95.83513 
Q 110.834922 100.380522 115.380313 100.380522 
z
" clip-path="url(#pd65b052663)" style="fill: #1f77b4; opacity: 0.12"/>
   </g>
   <g id="patch_11">
    <path d="M 138.10727 44.472209 
L 239.924035 44.472209 
Q 244.469426 44.472209 244.469426 39.926817 
L 244.469426 19.927096 
Q 244.469426 15.381704 239.924035 15.381704 
L 138.10727 15.381704 
Q 133.561878 15.381704 133.561878 19.927096 
L 133.561878 39.926817 
Q 133.561878 44.472209 138.10727 44.472209 
z
" clip-path="url(#pd65b052663)" style="fill: #7f7f7f; opacity: 0.12"/>
   </g>
   <g id="patch_12">
    <path d="M 131.289183 364.922296 
L 160.379687 364.922296 
Q 164.925078 364.922296 164.925078 360.376904 
L 164.925078 340.377183 
Q 164.925078 335.831791 160.379687 335.831791 
L 131.289183 335.831791 
Q 126.743791 335.831791 126.743791 340.377183 
L 126.743791 360.376904 
Q 126.743791 364.922296 131.289183 364.922296 
L 131.289183 364.922296 
z
" clip-path="url(#pd65b052663)" style="fill: none; stroke: #1f77b4; stroke-width: 1.7; stroke-linejoin: miter"/>
   </g>
   <g id="patch_13">
    <path d="M 145.834435 336.74087 
Q 145.834435 318.559304 145.834435 302.05479 
" style="fill: none; stroke: #7f7f7f; stroke-width: 1.5; stroke-linecap: round"/>
    <path d="M 143.634435 306.45479 
L 145.834435 302.05479 
L 148.034435 306.45479 
" style="fill: none; stroke: #7f7f7f; stroke-width: 1.5; stroke-linecap: round"/>
   </g>
   <g id="patch_14">
    <path d="M 174.4704 364.922296 
L 203.560904 364.922296 
Q 208.106296 364.922296 208.106296 360.376904 
L 208.106296 340.377183 
Q 208.106296 335.831791 203.560904 335.831791 
L 174.4704 335.831791 
Q 169.925009 335.831791 169.925009 340.377183 
L 169.925009 360.376904 
Q 169.925009 364.922296 174.4704 364.922296 
L 174.4704 364.922296 
z
" clip-path="url(#pd65b052663)" style="fill: none; stroke: #1f77b4; stroke-width: 1.7; stroke-linejoin: miter"/>
   </g>
   <g id="patch_15">
    <path d="M 189.015652 336.74087 
Q 189.015652 322.650157 189.015652 310.236494 
" style="fill: none; stroke: #7f7f7f; stroke-width: 1.5; stroke-linecap: round"/>
    <path d="M 186.815652 314.636494 
L 189.015652 310.236494 
L 191.215652 314.636494 
" style="fill: none; stroke: #7f7f7f; stroke-width: 1.5; stroke-linecap: round"/>
   </g>
   <g id="patch_16">
    <path d="M 217.651617 364.922296 
L 246.742122 364.922296 
Q 251.287513 364.922296 251.287513 360.376904 
L 251.287513 340.377183 
Q 251.287513 335.831791 246.742122 335.831791 
L 217.651617 335.831791 
Q 213.106226 335.831791 213.106226 340.377183 
L 213.106226 360.376904 
Q 213.106226 364.922296 217.651617 364.922296 
L 217.651617 364.922296 
z
" clip-path="url(#pd65b052663)" style="fill: none; stroke: #1f77b4; stroke-width: 1.7; stroke-linejoin: miter"/>
   </g>
   <g id="patch_17">
    <path d="M 232.19687 336.74087 
Q 232.19687 326.741009 232.19687 318.418199 
" style="fill: none; stroke: #7f7f7f; stroke-width: 1.5; stroke-linecap: round"/>
    <path d="M 229.99687 322.818199 
L 232.19687 318.418199 
L 234.39687 322.818199 
" style="fill: none; stroke: #7f7f7f; stroke-width: 1.5; stroke-linecap: round"/>
   </g>
   <g id="patch_18">
    <path d="M 67.653704 300.377739 
Q 67.653704 285.605217 67.653704 272.397943 
" style="fill: none; stroke: #7f7f7f; stroke-width: 1.4; stroke-linecap: round"/>
    <path d="M 65.653704 276.397943 
L 67.653704 272.397943 
L 69.653704 276.397943 
" style="fill: none; stroke: #7f7f7f; stroke-width: 1.4; stroke-linecap: round"/>
   </g>
   <g id="patch_19">
    <path d="M 95.83513 308.559443 
Q 95.83513 289.69607 95.83513 272.397943 
" style="fill: none; stroke: #7f7f7f; stroke-width: 1.4; stroke-linecap: round"/>
    <path d="M 93.83513 276.397943 
L 95.83513 272.397943 
L 97.83513 276.397943 
" style="fill: none; stroke: #7f7f7f; stroke-width: 1.4; stroke-linecap: round"/>
   </g>
   <g id="patch_20">
    <path d="M 124.016557 316.741148 
Q 124.016557 293.786922 124.016557 272.397943 
" style="fill: none; stroke: #7f7f7f; stroke-width: 1.4; stroke-linecap: round"/>
    <path d="M 122.016557 276.397943 
L 124.016557 272.397943 
L 126.016557 276.397943 
" style="fill: none; stroke: #7f7f7f; stroke-width: 1.4; stroke-linecap: round"/>
   </g>
   <g id="patch_21">
    <path d="M 42.654052 273.105391 
L 149.016209 273.105391 
Q 153.5616 273.105391 153.5616 268.56 
L 153.5616 245.833043 
Q 153.5616 241.287652 149.016209 241.287652 
L 42.654052 241.287652 
Q 38.108661 241.287652 38.108661 245.833043 
L 38.108661 268.56 
Q 38.108661 273.105391 42.654052 273.105391 
L 42.654052 273.105391 
z
" clip-path="url(#pd65b052663)" style="fill: none; stroke: #1f77b4; stroke-width: 1.7; stroke-linejoin: miter"/>
   </g>
   <g id="patch_22">
    <path d="M 95.83513 242.19673 
Q 95.83513 227.651478 95.83513 215.006884 
" style="fill: none; stroke: #7f7f7f; stroke-width: 1.7; stroke-linecap: round"/>
    <path d="M 93.43513 219.806884 
L 95.83513 215.006884 
L 98.23513 219.806884 
" style="fill: none; stroke: #7f7f7f; stroke-width: 1.7; stroke-linecap: round"/>
   </g>
   <g id="patch_23">
    <path d="M 42.654052 216.742539 
L 149.016209 216.742539 
Q 153.5616 216.742539 153.5616 212.197148 
L 153.5616 184.015722 
Q 153.5616 179.47033 149.016209 179.47033 
L 42.654052 179.47033 
Q 38.108661 179.47033 38.108661 184.015722 
L 38.108661 212.197148 
Q 38.108661 216.742539 42.654052 216.742539 
L 42.654052 216.742539 
z
" clip-path="url(#pd65b052663)" style="fill: none; stroke: #2ca02c; stroke-width: 1.7; stroke-linejoin: miter"/>
   </g>
   <g id="text_1">
    <!-- head 1 -->
    <g transform="translate(75.130443 237.224142) scale(0.12 -0.12)">
     <defs>
      <path id="DejaVuSans-68" d="M 3513 2113 
L 3513 0 
L 2938 0 
L 2938 2094 
Q 2938 2591 2744 2837 
Q 2550 3084 2163 3084 
Q 1697 3084 1428 2787 
Q 1159 2491 1159 1978 
L 1159 0 
L 581 0 
L 581 4863 
L 1159 4863 
L 1159 2956 
Q 1366 3272 1645 3428 
Q 1925 3584 2291 3584 
Q 2894 3584 3203 3211 
Q 3513 2838 3513 2113 
z
" transform="scale(0.015625)"/>
      <path id="DejaVuSans-65" d="M 3597 1894 
L 3597 1613 
L 953 1613 
Q 991 1019 1311 708 
Q 1631 397 2203 397 
Q 2534 397 2845 478 
Q 3156 559 3463 722 
L 3463 178 
Q 3153 47 2828 -22 
Q 2503 -91 2169 -91 
Q 1331 -91 842 396 
Q 353 884 353 1716 
Q 353 2575 817 3079 
Q 1281 3584 2069 3584 
Q 2775 3584 3186 3129 
Q 3597 2675 3597 1894 
z
M 3022 2063 
Q 3016 2534 2758 2815 
Q 2500 3097 2075 3097 
Q 1594 3097 1305 2825 
Q 1016 2553 972 2059 
L 3022 2063 
z
" transform="scale(0.015625)"/>
      <path id="DejaVuSans-61" d="M 2194 1759 
Q 1497 1759 1228 1600 
Q 959 1441 959 1056 
Q 959 750 1161 570 
Q 1363 391 1709 391 
Q 2188 391 2477 730 
Q 2766 1069 2766 1631 
L 2766 1759 
L 2194 1759 
z
M 3341 1997 
L 3341 0 
L 2766 0 
L 2766 531 
Q 2569 213 2275 61 
Q 1981 -91 1556 -91 
Q 1019 -91 701 211 
Q 384 513 384 1019 
Q 384 1609 779 1909 
Q 1175 2209 1959 2209 
L 2766 2209 
L 2766 2266 
Q 2766 2663 2505 2880 
Q 2244 3097 1772 3097 
Q 1472 3097 1187 3025 
Q 903 2953 641 2809 
L 641 3341 
Q 956 3463 1253 3523 
Q 1550 3584 1831 3584 
Q 2591 3584 2966 3190 
Q 3341 2797 3341 1997 
z
" transform="scale(0.015625)"/>
      <path id="DejaVuSans-64" d="M 2906 2969 
L 2906 4863 
L 3481 4863 
L 3481 0 
L 2906 0 
L 2906 525 
Q 2725 213 2448 61 
Q 2172 -91 1784 -91 
Q 1150 -91 751 415 
Q 353 922 353 1747 
Q 353 2572 751 3078 
Q 1150 3584 1784 3584 
Q 2172 3584 2448 3432 
Q 2725 3281 2906 2969 
z
M 947 1747 
Q 947 1113 1208 752 
Q 1469 391 1925 391 
Q 2381 391 2643 752 
Q 2906 1113 2906 1747 
Q 2906 2381 2643 2742 
Q 2381 3103 1925 3103 
Q 1469 3103 1208 2742 
Q 947 2381 947 1747 
z
" transform="scale(0.015625)"/>
      <path id="DejaVuSans-20" transform="scale(0.015625)"/>
      <path id="DejaVuSans-31" d="M 794 531 
L 1825 531 
L 1825 4091 
L 703 3866 
L 703 4441 
L 1819 4666 
L 2450 4666 
L 2450 531 
L 3481 531 
L 3481 0 
L 794 0 
L 794 531 
z
" transform="scale(0.015625)"/>
     </defs>
     <use xlink:href="#DejaVuSans-68"/>
     <use xlink:href="#DejaVuSans-65" transform="translate(63.378906 0)"/>
     <use xlink:href="#DejaVuSans-61" transform="translate(124.902344 0)"/>
     <use xlink:href="#DejaVuSans-64" transform="translate(186.181641 0)"/>
     <use xlink:href="#DejaVuSans-20" transform="translate(249.658203 0)"/>
     <use xlink:href="#DejaVuSans-31" transform="translate(281.445312 0)"/>
    </g>
   </g>
   <g id="patch_24">
    <path d="M 95.83513 180.379409 
Q 95.83513 167.197774 95.83513 155.916797 
" style="fill: none; stroke: #7f7f7f; stroke-width: 1.7; stroke-linecap: round"/>
    <path d="M 93.43513 160.716797 
L 95.83513 155.916797 
L 98.23513 160.716797 
" style="fill: none; stroke: #7f7f7f; stroke-width: 1.7; stroke-linecap: round"/>
   </g>
   <g id="patch_25">
    <path d="M 254.014748 300.377739 
Q 254.014748 285.605217 254.014748 272.397943 
" style="fill: none; stroke: #7f7f7f; stroke-width: 1.4; stroke-linecap: round"/>
    <path d="M 252.014748 276.397943 
L 254.014748 272.397943 
L 256.014748 276.397943 
" style="fill: none; stroke: #7f7f7f; stroke-width: 1.4; stroke-linecap: round"/>
   </g>
   <g id="patch_26">
    <path d="M 282.196174 308.559443 
Q 282.196174 289.69607 282.196174 272.397943 
" style="fill: none; stroke: #7f7f7f; stroke-width: 1.4; stroke-linecap: round"/>
    <path d="M 280.196174 276.397943 
L 282.196174 272.397943 
L 284.196174 276.397943 
" style="fill: none; stroke: #7f7f7f; stroke-width: 1.4; stroke-linecap: round"/>
   </g>
   <g id="patch_27">
    <path d="M 310.3776 316.741148 
Q 310.3776 293.786922 310.3776 272.397943 
" style="fill: none; stroke: #7f7f7f; stroke-width: 1.4; stroke-linecap: round"/>
    <path d="M 308.3776 276.397943 
L 310.3776 272.397943 
L 312.3776 276.397943 
" style="fill: none; stroke: #7f7f7f; stroke-width: 1.4; stroke-linecap: round"/>
   </g>
   <g id="patch_28">
    <path d="M 229.015096 273.105391 
L 335.377252 273.105391 
Q 339.922643 273.105391 339.922643 268.56 
L 339.922643 245.833043 
Q 339.922643 241.287652 335.377252 241.287652 
L 229.015096 241.287652 
Q 224.469704 241.287652 224.469704 245.833043 
L 224.469704 268.56 
Q 224.469704 273.105391 229.015096 273.105391 
L 229.015096 273.105391 
z
" clip-path="url(#pd65b052663)" style="fill: none; stroke: #1f77b4; stroke-width: 1.7; stroke-linejoin: miter"/>
   </g>
   <g id="patch_29">
    <path d="M 282.196174 242.19673 
Q 282.196174 227.651478 282.196174 215.006884 
" style="fill: none; stroke: #7f7f7f; stroke-width: 1.7; stroke-linecap: round"/>
    <path d="M 279.796174 219.806884 
L 282.196174 215.006884 
L 284.596174 219.806884 
" style="fill: none; stroke: #7f7f7f; stroke-width: 1.7; stroke-linecap: round"/>
   </g>
   <g id="patch_30">
    <path d="M 229.015096 216.742539 
L 335.377252 216.742539 
Q 339.922643 216.742539 339.922643 212.197148 
L 339.922643 184.015722 
Q 339.922643 179.47033 335.377252 179.47033 
L 229.015096 179.47033 
Q 224.469704 179.47033 224.469704 184.015722 
L 224.469704 212.197148 
Q 224.469704 216.742539 229.015096 216.742539 
L 229.015096 216.742539 
z
" clip-path="url(#pd65b052663)" style="fill: none; stroke: #2ca02c; stroke-width: 1.7; stroke-linejoin: miter"/>
   </g>
   <g id="text_2">
    <!-- head 2 -->
    <g transform="translate(261.491486 237.224142) scale(0.12 -0.12)">
     <defs>
      <path id="DejaVuSans-32" d="M 1228 531 
L 3431 531 
L 3431 0 
L 469 0 
L 469 531 
Q 828 903 1448 1529 
Q 2069 2156 2228 2338 
Q 2531 2678 2651 2914 
Q 2772 3150 2772 3378 
Q 2772 3750 2511 3984 
Q 2250 4219 1831 4219 
Q 1534 4219 1204 4116 
Q 875 4013 500 3803 
L 500 4441 
Q 881 4594 1212 4672 
Q 1544 4750 1819 4750 
Q 2544 4750 2975 4387 
Q 3406 4025 3406 3419 
Q 3406 3131 3298 2873 
Q 3191 2616 2906 2266 
Q 2828 2175 2409 1742 
Q 1991 1309 1228 531 
z
" transform="scale(0.015625)"/>
     </defs>
     <use xlink:href="#DejaVuSans-68"/>
     <use xlink:href="#DejaVuSans-65" transform="translate(63.378906 0)"/>
     <use xlink:href="#DejaVuSans-61" transform="translate(124.902344 0)"/>
     <use xlink:href="#DejaVuSans-64" transform="translate(186.181641 0)"/>
     <use xlink:href="#DejaVuSans-20" transform="translate(249.658203 0)"/>
     <use xlink:href="#DejaVuSans-32" transform="translate(281.445312 0)"/>
    </g>
   </g>
   <g id="patch_31">
    <path d="M 282.196174 180.379409 
Q 282.196174 167.197774 282.196174 155.916797 
" style="fill: none; stroke: #7f7f7f; stroke-width: 1.7; stroke-linecap: round"/>
    <path d="M 279.796174 160.716797 
L 282.196174 155.916797 
L 284.596174 160.716797 
" style="fill: none; stroke: #7f7f7f; stroke-width: 1.7; stroke-linecap: round"/>
   </g>
   <g id="text_3">
    <!-- $\cdots$ -->
    <g transform="translate(179.715652 203.625185) scale(0.2 -0.2)">
     <defs>
      <path id="STIXGeneral-Regular-22ef" d="M 5235 1619 
Q 5235 1453 5123 1331 
Q 5011 1210 4832 1210 
Q 4646 1210 4534 1322 
Q 4422 1434 4422 1619 
Q 4422 1792 4547 1907 
Q 4672 2022 4832 2022 
Q 4992 2022 5113 1907 
Q 5235 1792 5235 1619 
z
M 3366 1619 
Q 3366 1453 3254 1331 
Q 3142 1210 2963 1210 
Q 2778 1210 2666 1322 
Q 2554 1434 2554 1619 
Q 2554 1792 2678 1907 
Q 2803 2022 2963 2022 
Q 3123 2022 3244 1907 
Q 3366 1792 3366 1619 
z
M 1504 1619 
Q 1504 1453 1392 1331 
Q 1280 1210 1101 1210 
Q 915 1210 803 1322 
Q 691 1434 691 1619 
Q 691 1792 816 1907 
Q 941 2022 1101 2022 
Q 1261 2022 1382 1907 
Q 1504 1792 1504 1619 
z
" transform="scale(0.015625)"/>
     </defs>
     <use xlink:href="#STIXGeneral-Regular-22ef" transform="translate(0 0.40625)"/>
    </g>
   </g>
   <g id="text_4">
    <!-- $h$ heads in parallel -->
    <g transform="translate(131.640652 169.726196) scale(0.125 -0.125)">
     <defs>
      <path id="Cmmi10-68" d="M 341 116 
Q 341 153 347 172 
L 1275 3872 
Q 1300 3981 1306 4044 
Q 1306 4147 891 4147 
Q 825 4147 825 4231 
Q 828 4247 839 4287 
Q 850 4328 867 4350 
Q 884 4372 916 4372 
L 1778 4441 
L 1797 4441 
Q 1797 4434 1819 4423 
Q 1841 4413 1844 4409 
Q 1856 4378 1856 4359 
L 1356 2363 
Q 1750 2828 2291 2828 
Q 2516 2828 2680 2750 
Q 2844 2672 2936 2514 
Q 3028 2356 3028 2138 
Q 3028 1875 2911 1503 
Q 2794 1131 2619 672 
Q 2528 463 2528 288 
Q 2528 97 2675 97 
Q 2925 97 3092 364 
Q 3259 631 3328 941 
Q 3341 978 3378 978 
L 3456 978 
Q 3481 978 3497 961 
Q 3513 944 3513 922 
Q 3513 916 3506 903 
Q 3450 672 3339 448 
Q 3228 225 3059 76 
Q 2891 -72 2663 -72 
Q 2438 -72 2278 83 
Q 2119 238 2119 459 
Q 2119 578 2169 709 
Q 2350 1191 2470 1569 
Q 2591 1947 2591 2234 
Q 2591 2419 2519 2541 
Q 2447 2663 2278 2663 
Q 1934 2663 1678 2452 
Q 1422 2241 1234 1894 
L 800 147 
Q 775 50 703 -11 
Q 631 -72 538 -72 
Q 456 -72 398 -17 
Q 341 38 341 116 
z
" transform="scale(0.015625)"/>
      <path id="DejaVuSans-73" d="M 2834 3397 
L 2834 2853 
Q 2591 2978 2328 3040 
Q 2066 3103 1784 3103 
Q 1356 3103 1142 2972 
Q 928 2841 928 2578 
Q 928 2378 1081 2264 
Q 1234 2150 1697 2047 
L 1894 2003 
Q 2506 1872 2764 1633 
Q 3022 1394 3022 966 
Q 3022 478 2636 193 
Q 2250 -91 1575 -91 
Q 1294 -91 989 -36 
Q 684 19 347 128 
L 347 722 
Q 666 556 975 473 
Q 1284 391 1588 391 
Q 1994 391 2212 530 
Q 2431 669 2431 922 
Q 2431 1156 2273 1281 
Q 2116 1406 1581 1522 
L 1381 1569 
Q 847 1681 609 1914 
Q 372 2147 372 2553 
Q 372 3047 722 3315 
Q 1072 3584 1716 3584 
Q 2034 3584 2315 3537 
Q 2597 3491 2834 3397 
z
" transform="scale(0.015625)"/>
      <path id="DejaVuSans-69" d="M 603 3500 
L 1178 3500 
L 1178 0 
L 603 0 
L 603 3500 
z
M 603 4863 
L 1178 4863 
L 1178 4134 
L 603 4134 
L 603 4863 
z
" transform="scale(0.015625)"/>
      <path id="DejaVuSans-6e" d="M 3513 2113 
L 3513 0 
L 2938 0 
L 2938 2094 
Q 2938 2591 2744 2837 
Q 2550 3084 2163 3084 
Q 1697 3084 1428 2787 
Q 1159 2491 1159 1978 
L 1159 0 
L 581 0 
L 581 3500 
L 1159 3500 
L 1159 2956 
Q 1366 3272 1645 3428 
Q 1925 3584 2291 3584 
Q 2894 3584 3203 3211 
Q 3513 2838 3513 2113 
z
" transform="scale(0.015625)"/>
      <path id="DejaVuSans-70" d="M 1159 525 
L 1159 -1331 
L 581 -1331 
L 581 3500 
L 1159 3500 
L 1159 2969 
Q 1341 3281 1617 3432 
Q 1894 3584 2278 3584 
Q 2916 3584 3314 3078 
Q 3713 2572 3713 1747 
Q 3713 922 3314 415 
Q 2916 -91 2278 -91 
Q 1894 -91 1617 61 
Q 1341 213 1159 525 
z
M 3116 1747 
Q 3116 2381 2855 2742 
Q 2594 3103 2138 3103 
Q 1681 3103 1420 2742 
Q 1159 2381 1159 1747 
Q 1159 1113 1420 752 
Q 1681 391 2138 391 
Q 2594 391 2855 752 
Q 3116 1113 3116 1747 
z
" transform="scale(0.015625)"/>
      <path id="DejaVuSans-72" d="M 2631 2963 
Q 2534 3019 2420 3045 
Q 2306 3072 2169 3072 
Q 1681 3072 1420 2755 
Q 1159 2438 1159 1844 
L 1159 0 
L 581 0 
L 581 3500 
L 1159 3500 
L 1159 2956 
Q 1341 3275 1631 3429 
Q 1922 3584 2338 3584 
Q 2397 3584 2469 3576 
Q 2541 3569 2628 3553 
L 2631 2963 
z
" transform="scale(0.015625)"/>
      <path id="DejaVuSans-6c" d="M 603 4863 
L 1178 4863 
L 1178 0 
L 603 0 
L 603 4863 
z
" transform="scale(0.015625)"/>
     </defs>
     <use xlink:href="#Cmmi10-68" transform="translate(0 0.015625)"/>
     <use xlink:href="#DejaVuSans-20" transform="translate(57.617188 0.015625)"/>
     <use xlink:href="#DejaVuSans-68" transform="translate(89.404297 0.015625)"/>
     <use xlink:href="#DejaVuSans-65" transform="translate(152.783203 0.015625)"/>
     <use xlink:href="#DejaVuSans-61" transform="translate(214.306641 0.015625)"/>
     <use xlink:href="#DejaVuSans-64" transform="translate(275.585938 0.015625)"/>
     <use xlink:href="#DejaVuSans-73" transform="translate(339.0625 0.015625)"/>
     <use xlink:href="#DejaVuSans-20" transform="translate(391.162109 0.015625)"/>
     <use xlink:href="#DejaVuSans-69" transform="translate(422.949219 0.015625)"/>
     <use xlink:href="#DejaVuSans-6e" transform="translate(450.732422 0.015625)"/>
     <use xlink:href="#DejaVuSans-20" transform="translate(514.111328 0.015625)"/>
     <use xlink:href="#DejaVuSans-70" transform="translate(545.898438 0.015625)"/>
     <use xlink:href="#DejaVuSans-61" transform="translate(609.375 0.015625)"/>
     <use xlink:href="#DejaVuSans-72" transform="translate(670.654297 0.015625)"/>
     <use xlink:href="#DejaVuSans-61" transform="translate(711.767578 0.015625)"/>
     <use xlink:href="#DejaVuSans-6c" transform="translate(773.046875 0.015625)"/>
     <use xlink:href="#DejaVuSans-6c" transform="translate(800.830078 0.015625)"/>
     <use xlink:href="#DejaVuSans-65" transform="translate(828.613281 0.015625)"/>
     <use xlink:href="#DejaVuSans-6c" transform="translate(890.136719 0.015625)"/>
    </g>
   </g>
   <g id="patch_32">
    <path d="M 56.290226 154.470678 
L 321.741078 154.470678 
Q 326.28647 154.470678 326.28647 149.925287 
L 326.28647 128.107409 
Q 326.28647 123.562017 321.741078 123.562017 
L 56.290226 123.562017 
Q 51.744835 123.562017 51.744835 128.107409 
L 51.744835 149.925287 
Q 51.744835 154.470678 56.290226 154.470678 
L 56.290226 154.470678 
z
" clip-path="url(#pd65b052663)" style="fill: none; stroke: #ff7f0e; stroke-width: 1.7; stroke-linejoin: miter"/>
   </g>
   <g id="patch_33">
    <path d="M 189.015652 124.471096 
Q 189.015652 111.97127 189.015652 101.595708 
" style="fill: none; stroke: #7f7f7f; stroke-width: 1.9; stroke-linecap: round"/>
    <path d="M 186.415652 106.795708 
L 189.015652 101.595708 
L 191.615652 106.795708 
" style="fill: none; stroke: #7f7f7f; stroke-width: 1.9; stroke-linecap: round"/>
   </g>
   <g id="patch_34">
    <path d="M 115.380313 100.380522 
L 262.650991 100.380522 
Q 267.196383 100.380522 267.196383 95.83513 
L 267.196383 73.108174 
Q 267.196383 68.562783 262.650991 68.562783 
L 115.380313 68.562783 
Q 110.834922 68.562783 110.834922 73.108174 
L 110.834922 95.83513 
Q 110.834922 100.380522 115.380313 100.380522 
L 115.380313 100.380522 
z
" clip-path="url(#pd65b052663)" style="fill: none; stroke: #1f77b4; stroke-width: 1.7; stroke-linejoin: miter"/>
   </g>
   <g id="patch_35">
    <path d="M 189.015652 69.471861 
Q 189.015652 56.517496 189.015652 45.687395 
" style="fill: none; stroke: #7f7f7f; stroke-width: 1.9; stroke-linecap: round"/>
    <path d="M 186.415652 50.887395 
L 189.015652 45.687395 
L 191.615652 50.887395 
" style="fill: none; stroke: #7f7f7f; stroke-width: 1.9; stroke-linecap: round"/>
   </g>
   <g id="patch_36">
    <path d="M 138.10727 44.472209 
L 239.924035 44.472209 
Q 244.469426 44.472209 244.469426 39.926817 
L 244.469426 19.927096 
Q 244.469426 15.381704 239.924035 15.381704 
L 138.10727 15.381704 
Q 133.561878 15.381704 133.561878 19.927096 
L 133.561878 39.926817 
Q 133.561878 44.472209 138.10727 44.472209 
L 138.10727 44.472209 
z
" clip-path="url(#pd65b052663)" style="fill: none; stroke: #7f7f7f; stroke-width: 1.7; stroke-linejoin: miter"/>
   </g>
   <g id="text_5">
    <!-- $\mathbf{Q}$ -->
    <g transform="translate(140.959435 353.964231) scale(0.13 -0.13)">
     <defs>
      <path id="Cmb10-51" d="M 2400 -72 
Q 1919 -72 1541 97 
Q 1163 266 894 577 
Q 625 888 492 1297 
Q 359 1706 359 2169 
Q 359 2803 593 3328 
Q 828 3853 1287 4156 
Q 1747 4459 2400 4459 
Q 3050 4459 3508 4156 
Q 3966 3853 4200 3328 
Q 4434 2803 4434 2169 
Q 4434 1734 4314 1331 
Q 4194 928 3942 614 
Q 3691 300 3297 122 
Q 3406 -47 3515 -142 
Q 3625 -238 3775 -238 
Q 3950 -238 4097 -181 
Q 4244 -125 4244 13 
Q 4266 116 4359 116 
Q 4406 116 4440 77 
Q 4475 38 4475 -13 
Q 4475 -288 4404 -572 
Q 4334 -856 4162 -1048 
Q 3991 -1241 3706 -1241 
Q 3400 -1241 3239 -1055 
Q 3078 -869 3025 -639 
Q 2972 -409 2919 -13 
Q 2647 -72 2400 -72 
z
M 2081 475 
Q 2081 341 2172 277 
Q 2263 213 2400 213 
Q 2644 213 2847 341 
Q 2725 750 2400 750 
Q 2325 750 2250 715 
Q 2175 681 2128 615 
Q 2081 550 2081 475 
z
M 1825 422 
L 1825 475 
Q 1825 619 1904 742 
Q 1984 866 2117 936 
Q 2250 1006 2400 1006 
Q 2797 1006 3072 525 
Q 3209 675 3292 875 
Q 3375 1075 3414 1283 
Q 3453 1491 3461 1691 
Q 3469 1891 3469 2169 
Q 3469 2506 3453 2731 
Q 3438 2956 3386 3189 
Q 3334 3422 3219 3641 
Q 3100 3878 2879 4028 
Q 2659 4178 2400 4178 
Q 2134 4178 1918 4031 
Q 1703 3884 1575 3641 
Q 1416 3341 1370 2998 
Q 1325 2656 1325 2169 
Q 1325 1869 1337 1661 
Q 1350 1453 1397 1217 
Q 1444 981 1550 772 
Q 1656 563 1825 422 
z
" transform="scale(0.015625)"/>
     </defs>
     <use xlink:href="#Cmb10-51" transform="translate(0 0.328125)"/>
    </g>
   </g>
   <g id="text_6">
    <!-- $\mathbf{K}$ -->
    <g transform="translate(183.880652 353.964231) scale(0.13 -0.13)">
     <defs>
      <path id="Cmb10-4b" d="M 219 0 
L 219 325 
L 819 325 
L 819 4063 
L 219 4063 
L 219 4391 
L 2356 4391 
L 2356 4063 
L 1753 4063 
L 1753 2163 
L 3609 4013 
Q 3609 4028 3561 4036 
Q 3513 4044 3488 4044 
Q 3344 4063 3194 4063 
L 3194 4391 
L 4653 4391 
L 4653 4063 
Q 4134 4063 4072 4006 
L 2766 2706 
L 4231 384 
Q 4294 325 4744 325 
L 4744 0 
L 2834 0 
L 2834 325 
Q 3256 325 3256 378 
L 2163 2106 
L 1753 1697 
L 1753 325 
L 2356 325 
L 2356 0 
L 219 0 
z
" transform="scale(0.015625)"/>
     </defs>
     <use xlink:href="#Cmb10-4b" transform="translate(0 0.390625)"/>
    </g>
   </g>
   <g id="text_7">
    <!-- $\mathbf{V}$ -->
    <g transform="translate(227.25687 353.964231) scale(0.13 -0.13)">
     <defs>
      <path id="Cmb10-56" d="M 2175 63 
L 666 4063 
L 141 4063 
L 141 4391 
L 2144 4391 
L 2144 4063 
L 1625 4063 
L 2700 1222 
L 3756 4013 
Q 3756 4028 3700 4036 
Q 3644 4044 3616 4044 
Q 3434 4063 3256 4063 
L 3256 4391 
L 4691 4391 
L 4691 4063 
Q 4522 4063 4340 4053 
Q 4159 4044 4147 4006 
L 2656 63 
Q 2616 -50 2491 -50 
L 2344 -50 
Q 2222 -50 2175 63 
z
" transform="scale(0.015625)"/>
     </defs>
     <use xlink:href="#Cmb10-56" transform="translate(0 0.390625)"/>
    </g>
   </g>
   <g id="text_8">
    <!-- project  $\mathbf{W}_{1}^{Q},\mathbf{W}_{1}^{K},\mathbf{W}_{1}^{V}$ -->
    <g transform="translate(38.22013 261.279022) scale(0.115 -0.115)">
     <defs>
      <path id="DejaVuSans-6f" d="M 1959 3097 
Q 1497 3097 1228 2736 
Q 959 2375 959 1747 
Q 959 1119 1226 758 
Q 1494 397 1959 397 
Q 2419 397 2687 759 
Q 2956 1122 2956 1747 
Q 2956 2369 2687 2733 
Q 2419 3097 1959 3097 
z
M 1959 3584 
Q 2709 3584 3137 3096 
Q 3566 2609 3566 1747 
Q 3566 888 3137 398 
Q 2709 -91 1959 -91 
Q 1206 -91 779 398 
Q 353 888 353 1747 
Q 353 2609 779 3096 
Q 1206 3584 1959 3584 
z
" transform="scale(0.015625)"/>
      <path id="DejaVuSans-6a" d="M 603 3500 
L 1178 3500 
L 1178 -63 
Q 1178 -731 923 -1031 
Q 669 -1331 103 -1331 
L -116 -1331 
L -116 -844 
L 38 -844 
Q 366 -844 484 -692 
Q 603 -541 603 -63 
L 603 3500 
z
M 603 4863 
L 1178 4863 
L 1178 4134 
L 603 4134 
L 603 4863 
z
" transform="scale(0.015625)"/>
      <path id="DejaVuSans-63" d="M 3122 3366 
L 3122 2828 
Q 2878 2963 2633 3030 
Q 2388 3097 2138 3097 
Q 1578 3097 1268 2742 
Q 959 2388 959 1747 
Q 959 1106 1268 751 
Q 1578 397 2138 397 
Q 2388 397 2633 464 
Q 2878 531 3122 666 
L 3122 134 
Q 2881 22 2623 -34 
Q 2366 -91 2075 -91 
Q 1284 -91 818 406 
Q 353 903 353 1747 
Q 353 2603 823 3093 
Q 1294 3584 2113 3584 
Q 2378 3584 2631 3529 
Q 2884 3475 3122 3366 
z
" transform="scale(0.015625)"/>
      <path id="DejaVuSans-74" d="M 1172 4494 
L 1172 3500 
L 2356 3500 
L 2356 3053 
L 1172 3053 
L 1172 1153 
Q 1172 725 1289 603 
Q 1406 481 1766 481 
L 2356 481 
L 2356 0 
L 1766 0 
Q 1100 0 847 248 
Q 594 497 594 1153 
L 594 3053 
L 172 3053 
L 172 3500 
L 594 3500 
L 594 4494 
L 1172 4494 
z
" transform="scale(0.015625)"/>
      <path id="Cmb10-57" d="M 1966 63 
L 622 4063 
L 134 4063 
L 134 4391 
L 2100 4391 
L 2100 4063 
L 1569 4063 
L 2484 1356 
L 3128 3291 
L 2869 4063 
L 2381 4063 
L 2381 4391 
L 4347 4391 
L 4347 4063 
L 3822 4063 
L 4728 1356 
L 5619 4013 
Q 5603 4028 5459 4044 
Q 5259 4063 5050 4063 
L 5050 4391 
L 6472 4391 
L 6472 4063 
Q 6316 4063 6147 4053 
Q 5978 4044 5966 4006 
L 4641 63 
Q 4600 -50 4481 -50 
L 4378 -50 
Q 4250 -50 4219 63 
L 3303 2778 
L 2388 63 
Q 2356 -50 2228 -50 
L 2125 -50 
Q 2006 -50 1966 63 
z
" transform="scale(0.015625)"/>
      <path id="Cmmi10-51" d="M 1947 -141 
Q 1466 -141 1094 79 
Q 722 300 520 692 
Q 319 1084 319 1563 
Q 319 2259 714 2950 
Q 1109 3641 1756 4077 
Q 2403 4513 3109 4513 
Q 3475 4513 3778 4381 
Q 4081 4250 4290 4017 
Q 4500 3784 4614 3471 
Q 4728 3159 4728 2791 
Q 4728 2366 4581 1936 
Q 4434 1506 4171 1136 
Q 3909 766 3559 484 
Q 3209 203 2809 38 
Q 2850 -256 2934 -425 
Q 3019 -594 3256 -594 
Q 3506 -594 3726 -412 
Q 3947 -231 4006 13 
Q 4019 72 4078 72 
Q 4147 72 4147 -13 
Q 4100 -219 4008 -430 
Q 3916 -641 3786 -823 
Q 3656 -1006 3478 -1123 
Q 3300 -1241 3084 -1241 
Q 2547 -1241 2547 -550 
Q 2547 -509 2562 -332 
Q 2578 -156 2578 -44 
Q 2269 -141 1947 -141 
z
M 1709 300 
Q 1709 44 1991 44 
Q 2275 44 2591 184 
L 2591 244 
Q 2591 503 2509 648 
Q 2428 794 2194 794 
Q 2078 794 1964 723 
Q 1850 653 1779 539 
Q 1709 425 1709 300 
z
M 1544 288 
Q 1544 456 1637 612 
Q 1731 769 1881 864 
Q 2031 959 2203 959 
Q 2481 959 2607 771 
Q 2734 584 2778 281 
Q 3188 525 3500 978 
Q 3813 1431 3977 1973 
Q 4141 2516 4141 3003 
Q 4141 3356 4023 3656 
Q 3906 3956 3664 4140 
Q 3422 4325 3066 4325 
Q 2722 4325 2403 4156 
Q 2084 3988 1813 3706 
Q 1550 3434 1342 3032 
Q 1134 2631 1021 2193 
Q 909 1756 909 1356 
Q 909 947 1068 612 
Q 1228 278 1569 128 
Q 1544 194 1544 288 
z
" transform="scale(0.015625)"/>
      <path id="Cmr10-31" d="M 594 0 
L 594 225 
Q 1394 225 1394 428 
L 1394 3788 
Q 1063 3628 556 3628 
L 556 3853 
Q 1341 3853 1741 4263 
L 1831 4263 
Q 1853 4263 1873 4245 
Q 1894 4228 1894 4206 
L 1894 428 
Q 1894 225 2694 225 
L 2694 0 
L 594 0 
z
" transform="scale(0.015625)"/>
      <path id="Cmmi10-3b" d="M 634 -1153 
Q 634 -1125 659 -1100 
Q 891 -878 1019 -587 
Q 1147 -297 1147 25 
L 1147 103 
Q 1044 0 891 0 
Q 744 0 641 103 
Q 538 206 538 353 
Q 538 503 641 603 
Q 744 703 891 703 
Q 1119 703 1216 492 
Q 1313 281 1313 25 
Q 1313 -331 1170 -651 
Q 1028 -972 769 -1228 
Q 744 -1241 728 -1241 
Q 697 -1241 665 -1212 
Q 634 -1184 634 -1153 
z
" transform="scale(0.015625)"/>
      <path id="Cmmi10-4b" d="M 300 0 
Q 238 0 238 84 
Q 241 100 250 139 
Q 259 178 276 201 
Q 294 225 319 225 
Q 709 225 863 269 
Q 947 297 984 441 
L 1863 3956 
Q 1875 4019 1875 4044 
Q 1875 4113 1797 4122 
Q 1678 4147 1338 4147 
Q 1275 4147 1275 4231 
Q 1297 4313 1309 4342 
Q 1322 4372 1381 4372 
L 3103 4372 
Q 3169 4372 3169 4288 
Q 3166 4272 3156 4234 
Q 3147 4197 3131 4172 
Q 3116 4147 3084 4147 
Q 2694 4147 2541 4103 
Q 2456 4072 2419 3928 
L 1900 1856 
L 4409 3794 
Q 4416 3806 4489 3879 
Q 4563 3953 4563 4025 
Q 4563 4147 4347 4147 
Q 4281 4147 4281 4231 
Q 4294 4281 4301 4309 
Q 4309 4338 4329 4355 
Q 4350 4372 4391 4372 
L 5631 4372 
Q 5666 4372 5681 4347 
Q 5697 4322 5697 4288 
Q 5694 4272 5683 4231 
Q 5672 4191 5655 4169 
Q 5638 4147 5606 4147 
Q 5138 4147 4581 3713 
Q 4578 3709 4572 3707 
Q 4566 3706 4559 3704 
Q 4553 3703 4550 3700 
L 3231 2675 
L 4191 428 
Q 4278 288 4378 256 
Q 4478 225 4684 225 
Q 4750 225 4750 141 
Q 4731 66 4712 33 
Q 4694 0 4641 0 
L 3156 0 
Q 3097 0 3097 84 
Q 3106 150 3118 187 
Q 3131 225 3181 225 
Q 3344 225 3458 258 
Q 3572 291 3572 409 
Q 3572 453 3566 475 
L 2772 2322 
L 1838 1600 
L 1544 416 
Q 1528 338 1528 325 
Q 1528 259 1606 250 
Q 1728 225 2069 225 
Q 2131 225 2131 141 
Q 2109 50 2096 25 
Q 2084 0 2022 0 
L 300 0 
z
" transform="scale(0.015625)"/>
      <path id="Cmmi10-56" d="M 1409 -72 
L 897 4006 
Q 850 4147 416 4147 
Q 353 4147 353 4231 
Q 366 4300 384 4336 
Q 403 4372 459 4372 
L 2022 4372 
Q 2056 4372 2072 4347 
Q 2088 4322 2088 4288 
Q 2063 4147 2003 4147 
Q 1503 4147 1472 3975 
L 1894 628 
L 3866 3775 
Q 3922 3881 3922 3944 
Q 3922 4056 3820 4101 
Q 3719 4147 3584 4147 
Q 3519 4147 3519 4231 
Q 3531 4281 3540 4309 
Q 3550 4338 3569 4355 
Q 3588 4372 3628 4372 
L 4863 4372 
Q 4922 4372 4922 4288 
Q 4897 4147 4838 4147 
Q 4356 4147 4084 3725 
Q 4072 3713 4063 3713 
L 1703 -72 
Q 1656 -141 1581 -141 
L 1491 -141 
Q 1419 -141 1409 -72 
z
" transform="scale(0.015625)"/>
     </defs>
     <use xlink:href="#DejaVuSans-70" transform="translate(0 0.448438)"/>
     <use xlink:href="#DejaVuSans-72" transform="translate(63.476562 0.448438)"/>
     <use xlink:href="#DejaVuSans-6f" transform="translate(104.589844 0.448438)"/>
     <use xlink:href="#DejaVuSans-6a" transform="translate(165.771484 0.448438)"/>
     <use xlink:href="#DejaVuSans-65" transform="translate(193.554688 0.448438)"/>
     <use xlink:href="#DejaVuSans-63" transform="translate(255.078125 0.448438)"/>
     <use xlink:href="#DejaVuSans-74" transform="translate(310.058594 0.448438)"/>
     <use xlink:href="#DejaVuSans-20" transform="translate(349.267578 0.448438)"/>
     <use xlink:href="#DejaVuSans-20" transform="translate(381.054688 0.448438)"/>
     <use xlink:href="#Cmb10-57" transform="translate(412.841797 0.448438)"/>
     <use xlink:href="#Cmmi10-51" transform="translate(520.62625 47.639063) scale(0.7)"/>
     <use xlink:href="#Cmr10-31" transform="translate(520.62625 -25.060937) scale(0.7)"/>
     <use xlink:href="#Cmmi10-3b" transform="translate(582.306328 0.448438)"/>
     <use xlink:href="#Cmb10-57" transform="translate(627.550469 0.448438)"/>
     <use xlink:href="#Cmmi10-4b" transform="translate(735.334922 38.7125) scale(0.7)"/>
     <use xlink:href="#Cmr10-31" transform="translate(735.334922 -25.060937) scale(0.7)"/>
     <use xlink:href="#Cmmi10-3b" transform="translate(801.150742 0.448438)"/>
     <use xlink:href="#Cmb10-57" transform="translate(846.394883 0.448438)"/>
     <use xlink:href="#Cmmi10-56" transform="translate(954.179336 38.7125) scale(0.7)"/>
     <use xlink:href="#Cmr10-31" transform="translate(954.179336 -25.060937) scale(0.7)"/>
    </g>
   </g>
   <g id="text_9">
    <!-- scaled dot-product -->
    <g transform="translate(41.930677 194.840974) scale(0.115 -0.115)">
     <defs>
      <path id="DejaVuSans-2d" d="M 313 2009 
L 1997 2009 
L 1997 1497 
L 313 1497 
L 313 2009 
z
" transform="scale(0.015625)"/>
      <path id="DejaVuSans-75" d="M 544 1381 
L 544 3500 
L 1119 3500 
L 1119 1403 
Q 1119 906 1312 657 
Q 1506 409 1894 409 
Q 2359 409 2629 706 
Q 2900 1003 2900 1516 
L 2900 3500 
L 3475 3500 
L 3475 0 
L 2900 0 
L 2900 538 
Q 2691 219 2414 64 
Q 2138 -91 1772 -91 
Q 1169 -91 856 284 
Q 544 659 544 1381 
z
M 1991 3584 
L 1991 3584 
z
" transform="scale(0.015625)"/>
     </defs>
     <use xlink:href="#DejaVuSans-73"/>
     <use xlink:href="#DejaVuSans-63" transform="translate(52.099609 0)"/>
     <use xlink:href="#DejaVuSans-61" transform="translate(107.080078 0)"/>
     <use xlink:href="#DejaVuSans-6c" transform="translate(168.359375 0)"/>
     <use xlink:href="#DejaVuSans-65" transform="translate(196.142578 0)"/>
     <use xlink:href="#DejaVuSans-64" transform="translate(257.666016 0)"/>
     <use xlink:href="#DejaVuSans-20" transform="translate(321.142578 0)"/>
     <use xlink:href="#DejaVuSans-64" transform="translate(352.929688 0)"/>
     <use xlink:href="#DejaVuSans-6f" transform="translate(416.40625 0)"/>
     <use xlink:href="#DejaVuSans-74" transform="translate(477.587891 0)"/>
     <use xlink:href="#DejaVuSans-2d" transform="translate(516.796875 0)"/>
     <use xlink:href="#DejaVuSans-70" transform="translate(552.880859 0)"/>
     <use xlink:href="#DejaVuSans-72" transform="translate(616.357422 0)"/>
     <use xlink:href="#DejaVuSans-6f" transform="translate(655.220703 0)"/>
     <use xlink:href="#DejaVuSans-64" transform="translate(716.402344 0)"/>
     <use xlink:href="#DejaVuSans-75" transform="translate(779.878906 0)"/>
     <use xlink:href="#DejaVuSans-63" transform="translate(843.257812 0)"/>
     <use xlink:href="#DejaVuSans-74" transform="translate(898.238281 0)"/>
    </g>
    <!-- attention -->
    <g transform="translate(69.607044 207.718458) scale(0.115 -0.115)">
     <use xlink:href="#DejaVuSans-61"/>
     <use xlink:href="#DejaVuSans-74" transform="translate(61.279297 0)"/>
     <use xlink:href="#DejaVuSans-74" transform="translate(100.488281 0)"/>
     <use xlink:href="#DejaVuSans-65" transform="translate(139.697266 0)"/>
     <use xlink:href="#DejaVuSans-6e" transform="translate(201.220703 0)"/>
     <use xlink:href="#DejaVuSans-74" transform="translate(264.599609 0)"/>
     <use xlink:href="#DejaVuSans-69" transform="translate(303.808594 0)"/>
     <use xlink:href="#DejaVuSans-6f" transform="translate(331.591797 0)"/>
     <use xlink:href="#DejaVuSans-6e" transform="translate(392.773438 0)"/>
    </g>
   </g>
   <g id="text_10">
    <!-- project  $\mathbf{W}_{2}^{Q},\mathbf{W}_{2}^{K},\mathbf{W}_{2}^{V}$ -->
    <g transform="translate(224.581174 261.279022) scale(0.115 -0.115)">
     <defs>
      <path id="Cmr10-32" d="M 319 0 
L 319 172 
Q 319 188 331 206 
L 1325 1306 
Q 1550 1550 1690 1715 
Q 1831 1881 1968 2097 
Q 2106 2313 2186 2536 
Q 2266 2759 2266 3009 
Q 2266 3272 2169 3511 
Q 2072 3750 1880 3894 
Q 1688 4038 1416 4038 
Q 1138 4038 916 3870 
Q 694 3703 603 3438 
Q 628 3444 672 3444 
Q 816 3444 917 3347 
Q 1019 3250 1019 3097 
Q 1019 2950 917 2848 
Q 816 2747 672 2747 
Q 522 2747 420 2851 
Q 319 2956 319 3097 
Q 319 3338 409 3548 
Q 500 3759 670 3923 
Q 841 4088 1055 4175 
Q 1269 4263 1509 4263 
Q 1875 4263 2190 4108 
Q 2506 3953 2690 3670 
Q 2875 3388 2875 3009 
Q 2875 2731 2753 2481 
Q 2631 2231 2440 2026 
Q 2250 1822 1953 1562 
Q 1656 1303 1563 1216 
L 838 519 
L 1453 519 
Q 1906 519 2211 526 
Q 2516 534 2534 550 
Q 2609 631 2688 1141 
L 2875 1141 
L 2694 0 
L 319 0 
z
" transform="scale(0.015625)"/>
     </defs>
     <use xlink:href="#DejaVuSans-70" transform="translate(0 0.448438)"/>
     <use xlink:href="#DejaVuSans-72" transform="translate(63.476562 0.448438)"/>
     <use xlink:href="#DejaVuSans-6f" transform="translate(104.589844 0.448438)"/>
     <use xlink:href="#DejaVuSans-6a" transform="translate(165.771484 0.448438)"/>
     <use xlink:href="#DejaVuSans-65" transform="translate(193.554688 0.448438)"/>
     <use xlink:href="#DejaVuSans-63" transform="translate(255.078125 0.448438)"/>
     <use xlink:href="#DejaVuSans-74" transform="translate(310.058594 0.448438)"/>
     <use xlink:href="#DejaVuSans-20" transform="translate(349.267578 0.448438)"/>
     <use xlink:href="#DejaVuSans-20" transform="translate(381.054688 0.448438)"/>
     <use xlink:href="#Cmb10-57" transform="translate(412.841797 0.448438)"/>
     <use xlink:href="#Cmmi10-51" transform="translate(520.62625 47.639063) scale(0.7)"/>
     <use xlink:href="#Cmr10-32" transform="translate(520.62625 -25.060937) scale(0.7)"/>
     <use xlink:href="#Cmmi10-3b" transform="translate(582.306328 0.448438)"/>
     <use xlink:href="#Cmb10-57" transform="translate(627.550469 0.448438)"/>
     <use xlink:href="#Cmmi10-4b" transform="translate(735.334922 38.7125) scale(0.7)"/>
     <use xlink:href="#Cmr10-32" transform="translate(735.334922 -25.060937) scale(0.7)"/>
     <use xlink:href="#Cmmi10-3b" transform="translate(801.150742 0.448438)"/>
     <use xlink:href="#Cmb10-57" transform="translate(846.394883 0.448438)"/>
     <use xlink:href="#Cmmi10-56" transform="translate(954.179336 38.7125) scale(0.7)"/>
     <use xlink:href="#Cmr10-32" transform="translate(954.179336 -25.060937) scale(0.7)"/>
    </g>
   </g>
   <g id="text_11">
    <!-- scaled dot-product -->
    <g transform="translate(228.291721 194.840974) scale(0.115 -0.115)">
     <use xlink:href="#DejaVuSans-73"/>
     <use xlink:href="#DejaVuSans-63" transform="translate(52.099609 0)"/>
     <use xlink:href="#DejaVuSans-61" transform="translate(107.080078 0)"/>
     <use xlink:href="#DejaVuSans-6c" transform="translate(168.359375 0)"/>
     <use xlink:href="#DejaVuSans-65" transform="translate(196.142578 0)"/>
     <use xlink:href="#DejaVuSans-64" transform="translate(257.666016 0)"/>
     <use xlink:href="#DejaVuSans-20" transform="translate(321.142578 0)"/>
     <use xlink:href="#DejaVuSans-64" transform="translate(352.929688 0)"/>
     <use xlink:href="#DejaVuSans-6f" transform="translate(416.40625 0)"/>
     <use xlink:href="#DejaVuSans-74" transform="translate(477.587891 0)"/>
     <use xlink:href="#DejaVuSans-2d" transform="translate(516.796875 0)"/>
     <use xlink:href="#DejaVuSans-70" transform="translate(552.880859 0)"/>
     <use xlink:href="#DejaVuSans-72" transform="translate(616.357422 0)"/>
     <use xlink:href="#DejaVuSans-6f" transform="translate(655.220703 0)"/>
     <use xlink:href="#DejaVuSans-64" transform="translate(716.402344 0)"/>
     <use xlink:href="#DejaVuSans-75" transform="translate(779.878906 0)"/>
     <use xlink:href="#DejaVuSans-63" transform="translate(843.257812 0)"/>
     <use xlink:href="#DejaVuSans-74" transform="translate(898.238281 0)"/>
    </g>
    <!-- attention -->
    <g transform="translate(255.968088 207.718458) scale(0.115 -0.115)">
     <use xlink:href="#DejaVuSans-61"/>
     <use xlink:href="#DejaVuSans-74" transform="translate(61.279297 0)"/>
     <use xlink:href="#DejaVuSans-74" transform="translate(100.488281 0)"/>
     <use xlink:href="#DejaVuSans-65" transform="translate(139.697266 0)"/>
     <use xlink:href="#DejaVuSans-6e" transform="translate(201.220703 0)"/>
     <use xlink:href="#DejaVuSans-74" transform="translate(264.599609 0)"/>
     <use xlink:href="#DejaVuSans-69" transform="translate(303.808594 0)"/>
     <use xlink:href="#DejaVuSans-6f" transform="translate(331.591797 0)"/>
     <use xlink:href="#DejaVuSans-6e" transform="translate(392.773438 0)"/>
    </g>
   </g>
   <g id="text_12">
    <!-- concatenate head outputs -->
    <g transform="translate(103.404558 142.603535) scale(0.13 -0.13)">
     <use xlink:href="#DejaVuSans-63"/>
     <use xlink:href="#DejaVuSans-6f" transform="translate(54.980469 0)"/>
     <use xlink:href="#DejaVuSans-6e" transform="translate(116.162109 0)"/>
     <use xlink:href="#DejaVuSans-63" transform="translate(179.541016 0)"/>
     <use xlink:href="#DejaVuSans-61" transform="translate(234.521484 0)"/>
     <use xlink:href="#DejaVuSans-74" transform="translate(295.800781 0)"/>
     <use xlink:href="#DejaVuSans-65" transform="translate(335.009766 0)"/>
     <use xlink:href="#DejaVuSans-6e" transform="translate(396.533203 0)"/>
     <use xlink:href="#DejaVuSans-61" transform="translate(459.912109 0)"/>
     <use xlink:href="#DejaVuSans-74" transform="translate(521.191406 0)"/>
     <use xlink:href="#DejaVuSans-65" transform="translate(560.400391 0)"/>
     <use xlink:href="#DejaVuSans-20" transform="translate(621.923828 0)"/>
     <use xlink:href="#DejaVuSans-68" transform="translate(653.710938 0)"/>
     <use xlink:href="#DejaVuSans-65" transform="translate(717.089844 0)"/>
     <use xlink:href="#DejaVuSans-61" transform="translate(778.613281 0)"/>
     <use xlink:href="#DejaVuSans-64" transform="translate(839.892578 0)"/>
     <use xlink:href="#DejaVuSans-20" transform="translate(903.369141 0)"/>
     <use xlink:href="#DejaVuSans-6f" transform="translate(935.15625 0)"/>
     <use xlink:href="#DejaVuSans-75" transform="translate(996.337891 0)"/>
     <use xlink:href="#DejaVuSans-74" transform="translate(1059.716797 0)"/>
     <use xlink:href="#DejaVuSans-70" transform="translate(1098.925781 0)"/>
     <use xlink:href="#DejaVuSans-75" transform="translate(1162.402344 0)"/>
     <use xlink:href="#DejaVuSans-74" transform="translate(1225.78125 0)"/>
     <use xlink:href="#DejaVuSans-73" transform="translate(1264.990234 0)"/>
    </g>
   </g>
   <g id="text_13">
    <!-- output projection  $\mathbf{W}^{O}$ -->
    <g transform="translate(120.578152 88.659152) scale(0.125 -0.125)">
     <defs>
      <path id="Cmmi10-4f" d="M 1947 -141 
Q 1466 -141 1094 79 
Q 722 300 520 692 
Q 319 1084 319 1563 
Q 319 2259 714 2950 
Q 1109 3641 1756 4077 
Q 2403 4513 3109 4513 
Q 3475 4513 3778 4381 
Q 4081 4250 4290 4017 
Q 4500 3784 4614 3471 
Q 4728 3159 4728 2791 
Q 4728 2263 4503 1739 
Q 4278 1216 3879 786 
Q 3481 356 2984 107 
Q 2488 -141 1947 -141 
z
M 1997 50 
Q 2463 50 2866 345 
Q 3269 641 3553 1108 
Q 3838 1575 3989 2089 
Q 4141 2603 4141 3047 
Q 4141 3394 4022 3683 
Q 3903 3972 3656 4148 
Q 3409 4325 3066 4325 
Q 2728 4325 2409 4162 
Q 2091 4000 1831 3731 
Q 1566 3459 1359 3057 
Q 1153 2656 1047 2214 
Q 941 1772 941 1381 
Q 941 838 1208 444 
Q 1475 50 1997 50 
z
" transform="scale(0.015625)"/>
     </defs>
     <use xlink:href="#DejaVuSans-6f" transform="translate(0 0.375)"/>
     <use xlink:href="#DejaVuSans-75" transform="translate(61.181641 0.375)"/>
     <use xlink:href="#DejaVuSans-74" transform="translate(124.560547 0.375)"/>
     <use xlink:href="#DejaVuSans-70" transform="translate(163.769531 0.375)"/>
     <use xlink:href="#DejaVuSans-75" transform="translate(227.246094 0.375)"/>
     <use xlink:href="#DejaVuSans-74" transform="translate(290.625 0.375)"/>
     <use xlink:href="#DejaVuSans-20" transform="translate(329.833984 0.375)"/>
     <use xlink:href="#DejaVuSans-70" transform="translate(361.621094 0.375)"/>
     <use xlink:href="#DejaVuSans-72" transform="translate(425.097656 0.375)"/>
     <use xlink:href="#DejaVuSans-6f" transform="translate(466.210938 0.375)"/>
     <use xlink:href="#DejaVuSans-6a" transform="translate(527.392578 0.375)"/>
     <use xlink:href="#DejaVuSans-65" transform="translate(555.175781 0.375)"/>
     <use xlink:href="#DejaVuSans-63" transform="translate(616.699219 0.375)"/>
     <use xlink:href="#DejaVuSans-74" transform="translate(671.679688 0.375)"/>
     <use xlink:href="#DejaVuSans-69" transform="translate(710.888672 0.375)"/>
     <use xlink:href="#DejaVuSans-6f" transform="translate(738.671875 0.375)"/>
     <use xlink:href="#DejaVuSans-6e" transform="translate(799.853516 0.375)"/>
     <use xlink:href="#DejaVuSans-20" transform="translate(863.232422 0.375)"/>
     <use xlink:href="#DejaVuSans-20" transform="translate(895.019531 0.375)"/>
     <use xlink:href="#Cmb10-57" transform="translate(926.806641 0.375)"/>
     <use xlink:href="#Cmmi10-4f" transform="translate(1034.591094 38.639063) scale(0.7)"/>
    </g>
   </g>
   <g id="text_14">
    <!-- output -->
    <g transform="translate(167.576824 33.514144) scale(0.13 -0.13)">
     <use xlink:href="#DejaVuSans-6f"/>
     <use xlink:href="#DejaVuSans-75" transform="translate(61.181641 0)"/>
     <use xlink:href="#DejaVuSans-74" transform="translate(124.560547 0)"/>
     <use xlink:href="#DejaVuSans-70" transform="translate(163.769531 0)"/>
     <use xlink:href="#DejaVuSans-75" transform="translate(227.246094 0)"/>
     <use xlink:href="#DejaVuSans-74" transform="translate(290.625 0)"/>
    </g>
   </g>
   <g id="patch_37">
    <path d="M 67.653704 302.650435 
C 68.25643 302.650435 68.834551 302.410969 69.260743 301.984778 
C 69.686934 301.558586 69.9264 300.980465 69.9264 300.377739 
C 69.9264 299.775013 69.686934 299.196892 69.260743 298.770701 
C 68.834551 298.344509 68.25643 298.105043 67.653704 298.105043 
C 67.050978 298.105043 66.472857 298.344509 66.046666 298.770701 
C 65.620474 299.196892 65.381009 299.775013 65.381009 300.377739 
C 65.381009 300.980465 65.620474 301.558586 66.046666 301.984778 
C 66.472857 302.410969 67.050978 302.650435 67.653704 302.650435 
z
" clip-path="url(#pd65b052663)" style="fill: #7f7f7f"/>
   </g>
   <g id="patch_38">
    <path d="M 95.83513 310.832139 
C 96.437856 310.832139 97.015977 310.592674 97.442169 310.166482 
C 97.868361 309.74029 98.107826 309.162169 98.107826 308.559443 
C 98.107826 307.956718 97.868361 307.378597 97.442169 306.952405 
C 97.015977 306.526213 96.437856 306.286748 95.83513 306.286748 
C 95.232405 306.286748 94.654284 306.526213 94.228092 306.952405 
C 93.8019 307.378597 93.562435 307.956718 93.562435 308.559443 
C 93.562435 309.162169 93.8019 309.74029 94.228092 310.166482 
C 94.654284 310.592674 95.232405 310.832139 95.83513 310.832139 
z
" clip-path="url(#pd65b052663)" style="fill: #7f7f7f"/>
   </g>
   <g id="patch_39">
    <path d="M 124.016557 319.013843 
C 124.619282 319.013843 125.197403 318.774378 125.623595 318.348186 
C 126.049787 317.921995 126.289252 317.343874 126.289252 316.741148 
C 126.289252 316.138422 126.049787 315.560301 125.623595 315.134109 
C 125.197403 314.707918 124.619282 314.468452 124.016557 314.468452 
C 123.413831 314.468452 122.83571 314.707918 122.409518 315.134109 
C 121.983326 315.560301 121.743861 316.138422 121.743861 316.741148 
C 121.743861 317.343874 121.983326 317.921995 122.409518 318.348186 
C 122.83571 318.774378 123.413831 319.013843 124.016557 319.013843 
z
" clip-path="url(#pd65b052663)" style="fill: #7f7f7f"/>
   </g>
   <g id="patch_40">
    <path d="M 254.014748 302.650435 
C 254.617474 302.650435 255.195595 302.410969 255.621786 301.984778 
C 256.047978 301.558586 256.287443 300.980465 256.287443 300.377739 
C 256.287443 299.775013 256.047978 299.196892 255.621786 298.770701 
C 255.195595 298.344509 254.617474 298.105043 254.014748 298.105043 
C 253.412022 298.105043 252.833901 298.344509 252.407709 298.770701 
C 251.981518 299.196892 251.742052 299.775013 251.742052 300.377739 
C 251.742052 300.980465 251.981518 301.558586 252.407709 301.984778 
C 252.833901 302.410969 253.412022 302.650435 254.014748 302.650435 
z
" clip-path="url(#pd65b052663)" style="fill: #7f7f7f"/>
   </g>
   <g id="patch_41">
    <path d="M 282.196174 310.832139 
C 282.7989 310.832139 283.377021 310.592674 283.803212 310.166482 
C 284.229404 309.74029 284.46887 309.162169 284.46887 308.559443 
C 284.46887 307.956718 284.229404 307.378597 283.803212 306.952405 
C 283.377021 306.526213 282.7989 306.286748 282.196174 306.286748 
C 281.593448 306.286748 281.015327 306.526213 280.589135 306.952405 
C 280.162944 307.378597 279.923478 307.956718 279.923478 308.559443 
C 279.923478 309.162169 280.162944 309.74029 280.589135 310.166482 
C 281.015327 310.592674 281.593448 310.832139 282.196174 310.832139 
z
" clip-path="url(#pd65b052663)" style="fill: #7f7f7f"/>
   </g>
   <g id="patch_42">
    <path d="M 310.3776 319.013843 
C 310.980326 319.013843 311.558447 318.774378 311.984639 318.348186 
C 312.41083 317.921995 312.650296 317.343874 312.650296 316.741148 
C 312.650296 316.138422 312.41083 315.560301 311.984639 315.134109 
C 311.558447 314.707918 310.980326 314.468452 310.3776 314.468452 
C 309.774874 314.468452 309.196753 314.707918 308.770561 315.134109 
C 308.34437 315.560301 308.104904 316.138422 308.104904 316.741148 
C 308.104904 317.343874 308.34437 317.921995 308.770561 318.348186 
C 309.196753 318.774378 309.774874 319.013843 310.3776 319.013843 
z
" clip-path="url(#pd65b052663)" style="fill: #7f7f7f"/>
   </g>
  </g>
 </g>
 <defs>
  <clipPath id="pd65b052663">
   <rect x="7.2" y="7.2" width="368.176696" height="365.904"/>
  </clipPath>
 </defs>
</svg>
