<?xml version="1.0" encoding="utf-8" standalone="no"?>
<!DOCTYPE svg PUBLIC "-//W3C//DTD SVG 1.1//EN"
  "http://www.w3.org/Graphics/SVG/1.1/DTD/svg11.dtd">
<svg xmlns:xlink="http://www.w3.org/1999/xlink" width="386.165937pt" height="278.108146pt" viewBox="0 0 386.165937 278.108146" xmlns="http://www.w3.org/2000/svg" version="1.1">
 <metadata>
  <rdf:RDF xmlns:dc="http://purl.org/dc/elements/1.1/" xmlns:cc="http://creativecommons.org/ns#" xmlns:rdf="http://www.w3.org/1999/02/22-rdf-syntax-ns#">
   <cc:Work>
    <dc:type rdf:resource="http://purl.org/dc/dcmitype/StillImage"/>
    <dc:format>image/svg+xml</dc:format>
    <dc:creator>
     <cc:Agent>
      <dc:title>Matplotlib v3.10.8, https://matplotlib.org/</dc:title>
     </cc:Agent>
    </dc:creator>
   </cc:Work>
  </rdf:RDF>
 </metadata>
 <defs>
  <style type="text/css">*{stroke-linejoin: round; stroke-linecap: butt}</style>
 </defs>
 <g id="figure_1">
  <g id="patch_1">
   <path d="M 0 278.108146 
L 386.165937 278.108146 
L 386.165937 0 
L 0 0 
z
" style="fill: #ffffff"/>
  </g>
  <g id="axes_1">
   <g id="patch_2">
    <path d="M 21.845938 240.048 
L 378.965938 240.048 
L 378.965938 7.2 
L 21.845938 7.2 
z
" style="fill: #ffffff"/>
   </g>
   <g id="matplotlib.axis_1">
    <g id="text_1">
     <!-- parameter $\theta$ -->
     <g transform="translate(167.020938 252.383938) scale(0.11 -0.11)">
      <defs>
       <path id="DejaVuSans-70" d="M 1159 525 
L 1159 -1331 
L 581 -1331 
L 581 3500 
L 1159 3500 
L 1159 2969 
Q 1341 3281 1617 3432 
Q 1894 3584 2278 3584 
Q 2916 3584 3314 3078 
Q 3713 2572 3713 1747 
Q 3713 922 3314 415 
Q 2916 -91 2278 -91 
Q 1894 -91 1617 61 
Q 1341 213 1159 525 
z
M 3116 1747 
Q 3116 2381 2855 2742 
Q 2594 3103 2138 3103 
Q 1681 3103 1420 2742 
Q 1159 2381 1159 1747 
Q 1159 1113 1420 752 
Q 1681 391 2138 391 
Q 2594 391 2855 752 
Q 3116 1113 3116 1747 
z
" transform="scale(0.015625)"/>
       <path id="DejaVuSans-61" d="M 2194 1759 
Q 1497 1759 1228 1600 
Q 959 1441 959 1056 
Q 959 750 1161 570 
Q 1363 391 1709 391 
Q 2188 391 2477 730 
Q 2766 1069 2766 1631 
L 2766 1759 
L 2194 1759 
z
M 3341 1997 
L 3341 0 
L 2766 0 
L 2766 531 
Q 2569 213 2275 61 
Q 1981 -91 1556 -91 
Q 1019 -91 701 211 
Q 384 513 384 1019 
Q 384 1609 779 1909 
Q 1175 2209 1959 2209 
L 2766 2209 
L 2766 2266 
Q 2766 2663 2505 2880 
Q 2244 3097 1772 3097 
Q 1472 3097 1187 3025 
Q 903 2953 641 2809 
L 641 3341 
Q 956 3463 1253 3523 
Q 1550 3584 1831 3584 
Q 2591 3584 2966 3190 
Q 3341 2797 3341 1997 
z
" transform="scale(0.015625)"/>
       <path id="DejaVuSans-72" d="M 2631 2963 
Q 2534 3019 2420 3045 
Q 2306 3072 2169 3072 
Q 1681 3072 1420 2755 
Q 1159 2438 1159 1844 
L 1159 0 
L 581 0 
L 581 3500 
L 1159 3500 
L 1159 2956 
Q 1341 3275 1631 3429 
Q 1922 3584 2338 3584 
Q 2397 3584 2469 3576 
Q 2541 3569 2628 3553 
L 2631 2963 
z
" transform="scale(0.015625)"/>
       <path id="DejaVuSans-6d" d="M 3328 2828 
Q 3544 3216 3844 3400 
Q 4144 3584 4550 3584 
Q 5097 3584 5394 3201 
Q 5691 2819 5691 2113 
L 5691 0 
L 5113 0 
L 5113 2094 
Q 5113 2597 4934 2840 
Q 4756 3084 4391 3084 
Q 3944 3084 3684 2787 
Q 3425 2491 3425 1978 
L 3425 0 
L 2847 0 
L 2847 2094 
Q 2847 2600 2669 2842 
Q 2491 3084 2119 3084 
Q 1678 3084 1418 2786 
Q 1159 2488 1159 1978 
L 1159 0 
L 581 0 
L 581 3500 
L 1159 3500 
L 1159 2956 
Q 1356 3278 1631 3431 
Q 1906 3584 2284 3584 
Q 2666 3584 2933 3390 
Q 3200 3197 3328 2828 
z
" transform="scale(0.015625)"/>
       <path id="DejaVuSans-65" d="M 3597 1894 
L 3597 1613 
L 953 1613 
Q 991 1019 1311 708 
Q 1631 397 2203 397 
Q 2534 397 2845 478 
Q 3156 559 3463 722 
L 3463 178 
Q 3153 47 2828 -22 
Q 2503 -91 2169 -91 
Q 1331 -91 842 396 
Q 353 884 353 1716 
Q 353 2575 817 3079 
Q 1281 3584 2069 3584 
Q 2775 3584 3186 3129 
Q 3597 2675 3597 1894 
z
M 3022 2063 
Q 3016 2534 2758 2815 
Q 2500 3097 2075 3097 
Q 1594 3097 1305 2825 
Q 1016 2553 972 2059 
L 3022 2063 
z
" transform="scale(0.015625)"/>
       <path id="DejaVuSans-74" d="M 1172 4494 
L 1172 3500 
L 2356 3500 
L 2356 3053 
L 1172 3053 
L 1172 1153 
Q 1172 725 1289 603 
Q 1406 481 1766 481 
L 2356 481 
L 2356 0 
L 1766 0 
Q 1100 0 847 248 
Q 594 497 594 1153 
L 594 3053 
L 172 3053 
L 172 3500 
L 594 3500 
L 594 4494 
L 1172 4494 
z
" transform="scale(0.015625)"/>
       <path id="DejaVuSans-20" transform="scale(0.015625)"/>
       <path id="Cmmi10-b5" d="M 1031 -72 
Q 741 -72 566 140 
Q 391 353 323 653 
Q 256 953 256 1247 
L 256 1253 
Q 256 1572 317 1915 
Q 378 2259 493 2601 
Q 609 2944 744 3213 
Q 838 3400 986 3631 
Q 1134 3863 1317 4064 
Q 1500 4266 1711 4389 
Q 1922 4513 2138 4513 
L 2144 4513 
Q 2375 4513 2529 4384 
Q 2684 4256 2770 4056 
Q 2856 3856 2890 3628 
Q 2925 3400 2925 3194 
Q 2925 2709 2794 2204 
Q 2663 1700 2431 1228 
Q 2344 1050 2189 809 
Q 2034 569 1861 378 
Q 1688 188 1472 58 
Q 1256 -72 1038 -72 
L 1031 -72 
z
M 1044 97 
Q 1256 97 1451 323 
Q 1647 550 1794 873 
Q 1941 1197 2052 1536 
Q 2163 1875 2216 2113 
L 909 2113 
Q 809 1709 753 1417 
Q 697 1125 697 844 
Q 697 97 1044 97 
z
M 959 2338 
L 2272 2338 
Q 2341 2619 2381 2808 
Q 2422 2997 2450 3206 
Q 2478 3416 2478 3597 
Q 2478 4347 2138 4347 
Q 1731 4347 1436 3692 
Q 1141 3038 959 2338 
z
" transform="scale(0.015625)"/>
      </defs>
      <use xlink:href="#DejaVuSans-70" transform="translate(0 0.484375)"/>
      <use xlink:href="#DejaVuSans-61" transform="translate(63.476562 0.484375)"/>
      <use xlink:href="#DejaVuSans-72" transform="translate(124.755859 0.484375)"/>
      <use xlink:href="#DejaVuSans-61" transform="translate(165.869141 0.484375)"/>
      <use xlink:href="#DejaVuSans-6d" transform="translate(227.148438 0.484375)"/>
      <use xlink:href="#DejaVuSans-65" transform="translate(324.560547 0.484375)"/>
      <use xlink:href="#DejaVuSans-74" transform="translate(386.083984 0.484375)"/>
      <use xlink:href="#DejaVuSans-65" transform="translate(425.292969 0.484375)"/>
      <use xlink:href="#DejaVuSans-72" transform="translate(486.816406 0.484375)"/>
      <use xlink:href="#DejaVuSans-20" transform="translate(527.929688 0.484375)"/>
      <use xlink:href="#Cmmi10-b5" transform="translate(559.716797 0.484375)"/>
     </g>
    </g>
   </g>
   <g id="matplotlib.axis_2">
    <g id="text_2">
     <!-- objective -->
     <g transform="translate(15.558281 148.740953) rotate(-90) scale(0.11 -0.11)">
      <defs>
       <path id="DejaVuSans-6f" d="M 1959 3097 
Q 1497 3097 1228 2736 
Q 959 2375 959 1747 
Q 959 1119 1226 758 
Q 1494 397 1959 397 
Q 2419 397 2687 759 
Q 2956 1122 2956 1747 
Q 2956 2369 2687 2733 
Q 2419 3097 1959 3097 
z
M 1959 3584 
Q 2709 3584 3137 3096 
Q 3566 2609 3566 1747 
Q 3566 888 3137 398 
Q 2709 -91 1959 -91 
Q 1206 -91 779 398 
Q 353 888 353 1747 
Q 353 2609 779 3096 
Q 1206 3584 1959 3584 
z
" transform="scale(0.015625)"/>
       <path id="DejaVuSans-62" d="M 3116 1747 
Q 3116 2381 2855 2742 
Q 2594 3103 2138 3103 
Q 1681 3103 1420 2742 
Q 1159 2381 1159 1747 
Q 1159 1113 1420 752 
Q 1681 391 2138 391 
Q 2594 391 2855 752 
Q 3116 1113 3116 1747 
z
M 1159 2969 
Q 1341 3281 1617 3432 
Q 1894 3584 2278 3584 
Q 2916 3584 3314 3078 
Q 3713 2572 3713 1747 
Q 3713 922 3314 415 
Q 2916 -91 2278 -91 
Q 1894 -91 1617 61 
Q 1341 213 1159 525 
L 1159 0 
L 581 0 
L 581 4863 
L 1159 4863 
L 1159 2969 
z
" transform="scale(0.015625)"/>
       <path id="DejaVuSans-6a" d="M 603 3500 
L 1178 3500 
L 1178 -63 
Q 1178 -731 923 -1031 
Q 669 -1331 103 -1331 
L -116 -1331 
L -116 -844 
L 38 -844 
Q 366 -844 484 -692 
Q 603 -541 603 -63 
L 603 3500 
z
M 603 4863 
L 1178 4863 
L 1178 4134 
L 603 4134 
L 603 4863 
z
" transform="scale(0.015625)"/>
       <path id="DejaVuSans-63" d="M 3122 3366 
L 3122 2828 
Q 2878 2963 2633 3030 
Q 2388 3097 2138 3097 
Q 1578 3097 1268 2742 
Q 959 2388 959 1747 
Q 959 1106 1268 751 
Q 1578 397 2138 397 
Q 2388 397 2633 464 
Q 2878 531 3122 666 
L 3122 134 
Q 2881 22 2623 -34 
Q 2366 -91 2075 -91 
Q 1284 -91 818 406 
Q 353 903 353 1747 
Q 353 2603 823 3093 
Q 1294 3584 2113 3584 
Q 2378 3584 2631 3529 
Q 2884 3475 3122 3366 
z
" transform="scale(0.015625)"/>
       <path id="DejaVuSans-69" d="M 603 3500 
L 1178 3500 
L 1178 0 
L 603 0 
L 603 3500 
z
M 603 4863 
L 1178 4863 
L 1178 4134 
L 603 4134 
L 603 4863 
z
" transform="scale(0.015625)"/>
       <path id="DejaVuSans-76" d="M 191 3500 
L 800 3500 
L 1894 563 
L 2988 3500 
L 3597 3500 
L 2284 0 
L 1503 0 
L 191 3500 
z
" transform="scale(0.015625)"/>
      </defs>
      <use xlink:href="#DejaVuSans-6f"/>
      <use xlink:href="#DejaVuSans-62" transform="translate(61.181641 0)"/>
      <use xlink:href="#DejaVuSans-6a" transform="translate(124.658203 0)"/>
      <use xlink:href="#DejaVuSans-65" transform="translate(152.441406 0)"/>
      <use xlink:href="#DejaVuSans-63" transform="translate(213.964844 0)"/>
      <use xlink:href="#DejaVuSans-74" transform="translate(268.945312 0)"/>
      <use xlink:href="#DejaVuSans-69" transform="translate(308.154297 0)"/>
      <use xlink:href="#DejaVuSans-76" transform="translate(335.9375 0)"/>
      <use xlink:href="#DejaVuSans-65" transform="translate(395.117188 0)"/>
     </g>
    </g>
   </g>
   <g id="line2d_1">
    <path d="M 75.755214 -1 
L 81.669556 13.360233 
L 88.175659 28.624237 
L 94.681762 43.330065 
L 101.187865 57.477714 
L 107.693968 71.067187 
L 114.200071 84.098482 
L 120.055564 95.349406 
L 125.911057 106.148206 
L 131.76655 116.494883 
L 137.622042 126.389436 
L 143.477535 135.831865 
L 149.333028 144.82217 
L 154.537911 152.433992 
L 159.742793 159.688581 
L 164.947676 166.585936 
L 170.152558 173.126057 
L 175.357441 179.308945 
L 180.562323 185.1346 
L 185.767205 190.603021 
L 190.972088 195.714208 
L 195.52636 199.893454 
L 200.080632 203.799193 
L 204.634905 207.431425 
L 209.189177 210.79015 
L 213.743449 213.875368 
L 218.297721 216.687079 
L 222.851993 219.225283 
L 227.406265 221.489981 
L 231.960538 223.481171 
L 236.51481 225.198855 
L 241.069082 226.643032 
L 244.972744 227.663208 
L 248.876406 228.482441 
L 252.780068 229.10073 
L 256.683729 229.518074 
L 260.587391 229.734476 
L 264.491053 229.749933 
L 268.394715 229.564446 
L 272.298377 229.178016 
L 276.202039 228.590641 
L 280.105701 227.802323 
L 284.009363 226.813061 
L 287.913024 225.622855 
L 291.816686 224.231705 
L 296.370958 222.354726 
L 300.925231 220.204241 
L 305.479503 217.780248 
L 310.033775 215.082749 
L 314.588047 212.111742 
L 319.142319 208.867229 
L 323.696592 205.349208 
L 328.250864 201.557681 
L 332.805136 197.492647 
L 337.359408 193.154106 
L 341.91368 188.542058 
L 347.118563 182.93624 
L 352.323445 176.973188 
L 357.528328 170.652902 
L 362.73321 163.975383 
L 362.73321 163.975383 
" clip-path="url(#p86a20ccf88)" style="fill: none; stroke: #1f77b4; stroke-width: 2; stroke-linecap: square"/>
   </g>
   <g id="line2d_2">
    <path d="M 38.078665 203.862107 
L 43.283547 207.336546 
L 48.48843 210.560922 
L 53.693312 213.535235 
L 58.898195 216.259484 
L 64.103077 218.73367 
L 69.30796 220.957792 
L 74.512842 222.931851 
L 79.717725 224.655846 
L 84.922607 226.129778 
L 90.12749 227.353646 
L 95.332372 228.327451 
L 100.537255 229.051192 
L 105.742137 229.52487 
L 110.94702 229.748484 
L 116.151902 229.722035 
L 121.356785 229.445523 
L 126.561667 228.918947 
L 131.76655 228.142308 
L 136.971432 227.115605 
L 142.176315 225.838838 
L 147.381197 224.312008 
L 152.58608 222.535115 
L 157.790962 220.508158 
L 162.995845 218.231138 
L 168.200727 215.704054 
L 173.40561 212.926907 
L 178.610492 209.899697 
L 183.815375 206.622423 
L 189.020257 203.095085 
L 194.22514 199.317684 
L 199.430022 195.290219 
L 205.285515 190.460418 
L 211.141008 185.31413 
L 216.9965 179.851355 
L 222.851993 174.072094 
L 228.707486 167.976346 
L 234.562979 161.564111 
L 240.418472 154.83539 
L 246.273964 147.790183 
L 252.780068 139.590986 
L 259.286171 131.001066 
L 265.792274 122.020421 
L 272.298377 112.649052 
L 278.80448 102.886959 
L 285.310583 92.734142 
L 291.816686 82.1906 
L 298.322789 71.256335 
L 305.479503 58.777356 
L 312.636216 45.825601 
L 319.79293 32.40107 
L 326.949643 18.503763 
L 334.106357 4.133679 
L 336.607427 -1 
L 336.607427 -1 
" clip-path="url(#p86a20ccf88)" style="fill: none; stroke-dasharray: 7.4,3.2; stroke-dashoffset: 0; stroke: #ff7f0e; stroke-width: 2"/>
   </g>
   <g id="line2d_3">
    <path d="M 78.054234 -1 
L 82.970776 12.296129 
L 88.175659 25.78032 
L 93.380541 38.657215 
L 98.585424 50.926813 
L 103.790306 62.589113 
L 108.995189 73.644117 
L 113.549461 82.819072 
L 118.103733 91.529065 
L 122.658005 99.774096 
L 127.212277 107.554166 
L 131.76655 114.869274 
L 136.320822 121.71942 
L 140.224484 127.220902 
L 144.128146 132.38078 
L 148.031807 137.199053 
L 151.935469 141.675721 
L 155.839131 145.810785 
L 159.742793 149.604244 
L 163.646455 153.056099 
L 167.550117 156.166349 
L 170.803168 158.497277 
L 174.05622 160.590979 
L 177.309271 162.447455 
L 180.562323 164.066706 
L 183.815375 165.448732 
L 187.068426 166.593532 
L 190.321478 167.501107 
L 193.574529 168.171457 
L 196.827581 168.604581 
L 200.080632 168.80048 
L 203.333684 168.759153 
L 206.586735 168.480601 
L 209.839787 167.964824 
L 213.092839 167.211821 
L 216.34589 166.221593 
L 219.598942 164.994139 
L 222.851993 163.529461 
L 226.105045 161.827556 
L 229.358096 159.888427 
L 232.611148 157.712071 
L 235.864199 155.298491 
L 239.117251 152.647685 
L 243.020913 149.153581 
L 246.924575 145.317871 
L 250.828237 141.140558 
L 254.731899 136.62164 
L 258.63556 131.761117 
L 262.539222 126.558989 
L 266.442884 121.015257 
L 270.346546 115.129921 
L 274.900818 107.831945 
L 279.45509 100.069007 
L 284.009363 91.841107 
L 288.563635 83.148246 
L 293.117907 73.990423 
L 297.672179 64.367638 
L 302.226451 54.279891 
L 307.431334 42.181697 
L 312.636216 29.476206 
L 317.841099 16.163418 
L 323.045981 2.243332 
L 324.226831 -1 
L 324.226831 -1 
" clip-path="url(#p86a20ccf88)" style="fill: none; stroke: #2ca02c; stroke-width: 2.6; stroke-linecap: square"/>
   </g>
   <g id="line2d_4">
    <path d="M 112.998944 240.048 
L 112.998944 7.2 
" clip-path="url(#p86a20ccf88)" style="fill: none; stroke-dasharray: 0.8,1.32; stroke-dashoffset: 0; stroke: #7f7f7f; stroke-width: 0.8"/>
   </g>
   <g id="patch_3">
    <path d="M 21.845938 240.048 
L 21.845938 7.2 
" style="fill: none; stroke: #000000; stroke-width: 0.8; stroke-linejoin: miter; stroke-linecap: square"/>
   </g>
   <g id="patch_4">
    <path d="M 21.845937 240.048 
L 378.965938 240.048 
" style="fill: none; stroke: #000000; stroke-width: 0.8; stroke-linejoin: miter; stroke-linecap: square"/>
   </g>
   <g id="patch_5">
    <path d="M 261.41791 210.373324 
Q 231.990155 181.300523 203.675893 153.327784 
" style="fill: none; stroke: #7f7f7f; stroke-width: 1.4; stroke-linecap: round"/>
    <path d="M 205.259815 157.985164 
L 203.675893 153.327784 
L 208.35215 154.855074 
" style="fill: none; stroke: #7f7f7f; stroke-width: 1.4; stroke-linecap: round"/>
   </g>
   <g id="text_3">
    <!-- shrink toward prior -->
    <g style="fill: #7f7f7f" transform="translate(189.232243 130.262757) scale(0.09 -0.09)">
     <defs>
      <path id="DejaVuSans-73" d="M 2834 3397 
L 2834 2853 
Q 2591 2978 2328 3040 
Q 2066 3103 1784 3103 
Q 1356 3103 1142 2972 
Q 928 2841 928 2578 
Q 928 2378 1081 2264 
Q 1234 2150 1697 2047 
L 1894 2003 
Q 2506 1872 2764 1633 
Q 3022 1394 3022 966 
Q 3022 478 2636 193 
Q 2250 -91 1575 -91 
Q 1294 -91 989 -36 
Q 684 19 347 128 
L 347 722 
Q 666 556 975 473 
Q 1284 391 1588 391 
Q 1994 391 2212 530 
Q 2431 669 2431 922 
Q 2431 1156 2273 1281 
Q 2116 1406 1581 1522 
L 1381 1569 
Q 847 1681 609 1914 
Q 372 2147 372 2553 
Q 372 3047 722 3315 
Q 1072 3584 1716 3584 
Q 2034 3584 2315 3537 
Q 2597 3491 2834 3397 
z
" transform="scale(0.015625)"/>
      <path id="DejaVuSans-68" d="M 3513 2113 
L 3513 0 
L 2938 0 
L 2938 2094 
Q 2938 2591 2744 2837 
Q 2550 3084 2163 3084 
Q 1697 3084 1428 2787 
Q 1159 2491 1159 1978 
L 1159 0 
L 581 0 
L 581 4863 
L 1159 4863 
L 1159 2956 
Q 1366 3272 1645 3428 
Q 1925 3584 2291 3584 
Q 2894 3584 3203 3211 
Q 3513 2838 3513 2113 
z
" transform="scale(0.015625)"/>
      <path id="DejaVuSans-6e" d="M 3513 2113 
L 3513 0 
L 2938 0 
L 2938 2094 
Q 2938 2591 2744 2837 
Q 2550 3084 2163 3084 
Q 1697 3084 1428 2787 
Q 1159 2491 1159 1978 
L 1159 0 
L 581 0 
L 581 3500 
L 1159 3500 
L 1159 2956 
Q 1366 3272 1645 3428 
Q 1925 3584 2291 3584 
Q 2894 3584 3203 3211 
Q 3513 2838 3513 2113 
z
" transform="scale(0.015625)"/>
      <path id="DejaVuSans-6b" d="M 581 4863 
L 1159 4863 
L 1159 1991 
L 2875 3500 
L 3609 3500 
L 1753 1863 
L 3688 0 
L 2938 0 
L 1159 1709 
L 1159 0 
L 581 0 
L 581 4863 
z
" transform="scale(0.015625)"/>
      <path id="DejaVuSans-77" d="M 269 3500 
L 844 3500 
L 1563 769 
L 2278 3500 
L 2956 3500 
L 3675 769 
L 4391 3500 
L 4966 3500 
L 4050 0 
L 3372 0 
L 2619 2869 
L 1863 0 
L 1184 0 
L 269 3500 
z
" transform="scale(0.015625)"/>
      <path id="DejaVuSans-64" d="M 2906 2969 
L 2906 4863 
L 3481 4863 
L 3481 0 
L 2906 0 
L 2906 525 
Q 2725 213 2448 61 
Q 2172 -91 1784 -91 
Q 1150 -91 751 415 
Q 353 922 353 1747 
Q 353 2572 751 3078 
Q 1150 3584 1784 3584 
Q 2172 3584 2448 3432 
Q 2725 3281 2906 2969 
z
M 947 1747 
Q 947 1113 1208 752 
Q 1469 391 1925 391 
Q 2381 391 2643 752 
Q 2906 1113 2906 1747 
Q 2906 2381 2643 2742 
Q 2381 3103 1925 3103 
Q 1469 3103 1208 2742 
Q 947 2381 947 1747 
z
" transform="scale(0.015625)"/>
     </defs>
     <use xlink:href="#DejaVuSans-73"/>
     <use xlink:href="#DejaVuSans-68" transform="translate(52.099609 0)"/>
     <use xlink:href="#DejaVuSans-72" transform="translate(115.478516 0)"/>
     <use xlink:href="#DejaVuSans-69" transform="translate(156.591797 0)"/>
     <use xlink:href="#DejaVuSans-6e" transform="translate(184.375 0)"/>
     <use xlink:href="#DejaVuSans-6b" transform="translate(247.753906 0)"/>
     <use xlink:href="#DejaVuSans-20" transform="translate(305.664062 0)"/>
     <use xlink:href="#DejaVuSans-74" transform="translate(337.451172 0)"/>
     <use xlink:href="#DejaVuSans-6f" transform="translate(376.660156 0)"/>
     <use xlink:href="#DejaVuSans-77" transform="translate(437.841797 0)"/>
     <use xlink:href="#DejaVuSans-61" transform="translate(519.628906 0)"/>
     <use xlink:href="#DejaVuSans-72" transform="translate(580.908203 0)"/>
     <use xlink:href="#DejaVuSans-64" transform="translate(620.271484 0)"/>
     <use xlink:href="#DejaVuSans-20" transform="translate(683.748047 0)"/>
     <use xlink:href="#DejaVuSans-70" transform="translate(715.535156 0)"/>
     <use xlink:href="#DejaVuSans-72" transform="translate(779.011719 0)"/>
     <use xlink:href="#DejaVuSans-69" transform="translate(820.125 0)"/>
     <use xlink:href="#DejaVuSans-6f" transform="translate(847.908203 0)"/>
     <use xlink:href="#DejaVuSans-72" transform="translate(909.089844 0)"/>
    </g>
   </g>
   <g id="text_4">
    <!-- $\hat\theta_{\mathrm{MLE}}$ -->
    <g style="fill: #1f77b4" transform="translate(251.069504 268.62049) scale(0.11 -0.11)">
     <defs>
      <path id="Cmr10-5e" d="M 863 3444 
L 738 3578 
L 1600 4441 
L 2456 3578 
L 2328 3444 
L 1600 4084 
L 863 3444 
z
" transform="scale(0.015625)"/>
      <path id="Cmr10-4d" d="M 225 0 
L 225 225 
Q 884 225 884 603 
L 884 3944 
Q 884 4147 225 4147 
L 225 4372 
L 1434 4372 
Q 1513 4372 1538 4300 
L 2931 678 
L 4325 4300 
Q 4350 4372 4428 4372 
L 5638 4372 
L 5638 4147 
Q 4978 4147 4978 3944 
L 4978 428 
Q 4978 225 5638 225 
L 5638 0 
L 3775 0 
L 3775 225 
Q 4434 225 4434 428 
L 4434 4153 
L 2859 72 
Q 2831 0 2753 0 
Q 2672 0 2644 72 
L 1088 4103 
L 1088 603 
Q 1088 225 1747 225 
L 1747 0 
L 225 0 
z
" transform="scale(0.015625)"/>
      <path id="Cmr10-4c" d="M 197 0 
L 197 225 
Q 856 225 856 428 
L 856 3944 
Q 856 4147 197 4147 
L 197 4372 
L 2272 4372 
L 2272 4147 
Q 1453 4147 1453 3944 
L 1453 428 
Q 1453 291 1531 258 
Q 1609 225 1778 225 
L 2272 225 
Q 2750 225 3009 400 
Q 3269 575 3376 876 
Q 3484 1178 3541 1678 
L 3725 1678 
L 3547 0 
L 197 0 
z
" transform="scale(0.015625)"/>
      <path id="Cmr10-45" d="M 197 0 
L 197 225 
Q 856 225 856 428 
L 856 3944 
Q 856 4147 197 4147 
L 197 4372 
L 3816 4372 
L 3994 2906 
L 3809 2906 
Q 3741 3459 3617 3709 
Q 3494 3959 3222 4053 
Q 2950 4147 2406 4147 
L 1778 4147 
Q 1663 4147 1598 4137 
Q 1534 4128 1493 4083 
Q 1453 4038 1453 3944 
L 1453 2381 
L 1925 2381 
Q 2250 2381 2411 2436 
Q 2572 2491 2633 2645 
Q 2694 2800 2694 3128 
L 2881 3128 
L 2881 1409 
L 2694 1409 
Q 2694 1734 2633 1890 
Q 2572 2047 2411 2101 
Q 2250 2156 1925 2156 
L 1453 2156 
L 1453 428 
Q 1453 291 1531 258 
Q 1609 225 1778 225 
L 2456 225 
Q 2900 225 3173 295 
Q 3447 366 3598 530 
Q 3750 694 3833 955 
Q 3916 1216 3988 1678 
L 4172 1678 
L 3903 0 
L 197 0 
z
" transform="scale(0.015625)"/>
     </defs>
     <use xlink:href="#Cmr10-5e" transform="translate(0.890625 29.609375)"/>
     <use xlink:href="#Cmmi10-b5" transform="translate(0 0.40625)"/>
     <use xlink:href="#Cmr10-4d" transform="translate(51.387969 -16.6) scale(0.7)"/>
     <use xlink:href="#Cmr10-4c" transform="translate(115.509062 -16.6) scale(0.7)"/>
     <use xlink:href="#Cmr10-45" transform="translate(159.259062 -16.6) scale(0.7)"/>
    </g>
   </g>
   <g id="text_5">
    <!-- $\hat\theta_{\mathrm{MAP}}$ -->
    <g style="fill: #2ca02c" transform="translate(188.93045 268.62049) scale(0.11 -0.11)">
     <defs>
      <path id="Cmr10-41" d="M 206 0 
L 206 225 
Q 778 225 909 603 
L 2253 4513 
Q 2272 4581 2356 4581 
L 2438 4581 
Q 2522 4581 2541 4513 
L 3944 428 
Q 4003 294 4170 259 
Q 4338 225 4588 225 
L 4588 0 
L 2803 0 
L 2803 225 
Q 3334 225 3334 397 
L 3334 428 
L 2988 1428 
L 1434 1428 
L 1147 603 
Q 1141 581 1141 538 
Q 1141 378 1292 301 
Q 1444 225 1619 225 
L 1619 0 
L 206 0 
z
M 1509 1650 
L 2913 1650 
L 2209 3694 
L 1509 1650 
z
" transform="scale(0.015625)"/>
      <path id="Cmr10-50" d="M 213 0 
L 213 225 
Q 872 225 872 428 
L 872 3944 
Q 872 4147 213 4147 
L 213 4372 
L 2491 4372 
Q 2841 4372 3191 4228 
Q 3541 4084 3767 3809 
Q 3994 3534 3994 3169 
Q 3994 2813 3766 2544 
Q 3538 2275 3191 2136 
Q 2844 1997 2491 1997 
L 1466 1997 
L 1466 428 
Q 1466 225 2125 225 
L 2125 0 
L 213 0 
z
M 1447 2188 
L 2316 2188 
Q 2669 2188 2887 2289 
Q 3106 2391 3207 2605 
Q 3309 2819 3309 3169 
Q 3309 3691 3079 3919 
Q 2850 4147 2316 4147 
L 1772 4147 
Q 1656 4147 1592 4137 
Q 1528 4128 1487 4083 
Q 1447 4038 1447 3944 
L 1447 2188 
z
" transform="scale(0.015625)"/>
     </defs>
     <use xlink:href="#Cmr10-5e" transform="translate(0.890625 29.609375)"/>
     <use xlink:href="#Cmmi10-b5" transform="translate(0 0.40625)"/>
     <use xlink:href="#Cmr10-4d" transform="translate(51.387969 -16.6) scale(0.7)"/>
     <use xlink:href="#Cmr10-41" transform="translate(115.509062 -16.6) scale(0.7)"/>
     <use xlink:href="#Cmr10-50" transform="translate(168.009062 -16.6) scale(0.7)"/>
    </g>
   </g>
   <g id="text_6">
    <!-- prior mean -->
    <g style="fill: #7f7f7f" transform="translate(88.246835 264.87674) scale(0.09 -0.09)">
     <use xlink:href="#DejaVuSans-70"/>
     <use xlink:href="#DejaVuSans-72" transform="translate(63.476562 0)"/>
     <use xlink:href="#DejaVuSans-69" transform="translate(104.589844 0)"/>
     <use xlink:href="#DejaVuSans-6f" transform="translate(132.373047 0)"/>
     <use xlink:href="#DejaVuSans-72" transform="translate(193.554688 0)"/>
     <use xlink:href="#DejaVuSans-20" transform="translate(234.667969 0)"/>
     <use xlink:href="#DejaVuSans-6d" transform="translate(266.455078 0)"/>
     <use xlink:href="#DejaVuSans-65" transform="translate(363.867188 0)"/>
     <use xlink:href="#DejaVuSans-61" transform="translate(425.390625 0)"/>
     <use xlink:href="#DejaVuSans-6e" transform="translate(486.669922 0)"/>
    </g>
   </g>
   <g id="legend_1">
    <g id="line2d_5">
     <path d="M 131.015938 18.988594 
L 140.015938 18.988594 
L 149.015938 18.988594 
" style="fill: none; stroke: #1f77b4; stroke-width: 2; stroke-linecap: square"/>
    </g>
    <g id="text_7">
     <!-- NLL  (data term) -->
     <g transform="translate(156.215938 22.138594) scale(0.09 -0.09)">
      <defs>
       <path id="DejaVuSans-4e" d="M 628 4666 
L 1478 4666 
L 3547 763 
L 3547 4666 
L 4159 4666 
L 4159 0 
L 3309 0 
L 1241 3903 
L 1241 0 
L 628 0 
L 628 4666 
z
" transform="scale(0.015625)"/>
       <path id="DejaVuSans-4c" d="M 628 4666 
L 1259 4666 
L 1259 531 
L 3531 531 
L 3531 0 
L 628 0 
L 628 4666 
z
" transform="scale(0.015625)"/>
       <path id="DejaVuSans-28" d="M 1984 4856 
Q 1566 4138 1362 3434 
Q 1159 2731 1159 2009 
Q 1159 1288 1364 580 
Q 1569 -128 1984 -844 
L 1484 -844 
Q 1016 -109 783 600 
Q 550 1309 550 2009 
Q 550 2706 781 3412 
Q 1013 4119 1484 4856 
L 1984 4856 
z
" transform="scale(0.015625)"/>
       <path id="DejaVuSans-29" d="M 513 4856 
L 1013 4856 
Q 1481 4119 1714 3412 
Q 1947 2706 1947 2009 
Q 1947 1309 1714 600 
Q 1481 -109 1013 -844 
L 513 -844 
Q 928 -128 1133 580 
Q 1338 1288 1338 2009 
Q 1338 2731 1133 3434 
Q 928 4138 513 4856 
z
" transform="scale(0.015625)"/>
      </defs>
      <use xlink:href="#DejaVuSans-4e"/>
      <use xlink:href="#DejaVuSans-4c" transform="translate(74.804688 0)"/>
      <use xlink:href="#DejaVuSans-4c" transform="translate(130.517578 0)"/>
      <use xlink:href="#DejaVuSans-20" transform="translate(186.230469 0)"/>
      <use xlink:href="#DejaVuSans-20" transform="translate(218.017578 0)"/>
      <use xlink:href="#DejaVuSans-28" transform="translate(249.804688 0)"/>
      <use xlink:href="#DejaVuSans-64" transform="translate(288.818359 0)"/>
      <use xlink:href="#DejaVuSans-61" transform="translate(352.294922 0)"/>
      <use xlink:href="#DejaVuSans-74" transform="translate(413.574219 0)"/>
      <use xlink:href="#DejaVuSans-61" transform="translate(452.783203 0)"/>
      <use xlink:href="#DejaVuSans-20" transform="translate(514.0625 0)"/>
      <use xlink:href="#DejaVuSans-74" transform="translate(545.849609 0)"/>
      <use xlink:href="#DejaVuSans-65" transform="translate(585.058594 0)"/>
      <use xlink:href="#DejaVuSans-72" transform="translate(646.582031 0)"/>
      <use xlink:href="#DejaVuSans-6d" transform="translate(685.945312 0)"/>
      <use xlink:href="#DejaVuSans-29" transform="translate(783.357422 0)"/>
     </g>
    </g>
    <g id="line2d_6">
     <path d="M 131.015938 32.200312 
L 140.015938 32.200312 
L 149.015938 32.200312 
" style="fill: none; stroke-dasharray: 7.4,3.2; stroke-dashoffset: 0; stroke: #ff7f0e; stroke-width: 2"/>
    </g>
    <g id="text_8">
     <!-- $-\log p(\theta)$  (Gaussian prior) -->
     <g transform="translate(156.215938 35.350312) scale(0.09 -0.09)">
      <defs>
       <path id="Cmsy10-a1" d="M 653 1472 
Q 600 1472 565 1512 
Q 531 1553 531 1600 
Q 531 1647 565 1687 
Q 600 1728 653 1728 
L 4325 1728 
Q 4375 1728 4408 1687 
Q 4441 1647 4441 1600 
Q 4441 1553 4408 1512 
Q 4375 1472 4325 1472 
L 653 1472 
z
" transform="scale(0.015625)"/>
       <path id="Cmr10-6c" d="M 197 0 
L 197 225 
Q 416 225 556 259 
Q 697 294 697 428 
L 697 3788 
Q 697 3959 645 4036 
Q 594 4113 497 4130 
Q 400 4147 197 4147 
L 197 4372 
L 1147 4441 
L 1147 428 
Q 1147 294 1287 259 
Q 1428 225 1644 225 
L 1644 0 
L 197 0 
z
" transform="scale(0.015625)"/>
       <path id="Cmr10-6f" d="M 1600 -72 
Q 1216 -72 887 123 
Q 559 319 368 647 
Q 178 975 178 1363 
Q 178 1656 283 1928 
Q 388 2200 583 2414 
Q 778 2628 1037 2748 
Q 1297 2869 1600 2869 
Q 1994 2869 2317 2661 
Q 2641 2453 2828 2104 
Q 3016 1756 3016 1363 
Q 3016 978 2825 648 
Q 2634 319 2307 123 
Q 1981 -72 1600 -72 
z
M 1600 116 
Q 2113 116 2284 487 
Q 2456 859 2456 1434 
Q 2456 1756 2422 1967 
Q 2388 2178 2272 2350 
Q 2200 2456 2089 2536 
Q 1978 2616 1854 2658 
Q 1731 2700 1600 2700 
Q 1400 2700 1220 2609 
Q 1041 2519 922 2350 
Q 803 2169 770 1951 
Q 738 1734 738 1434 
Q 738 1075 800 789 
Q 863 503 1052 309 
Q 1241 116 1600 116 
z
" transform="scale(0.015625)"/>
       <path id="Cmr10-67" d="M 178 -500 
Q 178 -272 343 -101 
Q 509 69 738 141 
Q 609 238 542 384 
Q 475 531 475 697 
Q 475 997 666 1228 
Q 372 1516 372 1888 
Q 372 2088 458 2263 
Q 544 2438 697 2566 
Q 850 2694 1037 2761 
Q 1225 2828 1422 2828 
Q 1803 2828 2106 2606 
Q 2238 2747 2417 2823 
Q 2597 2900 2791 2900 
Q 2928 2900 3015 2801 
Q 3103 2703 3103 2566 
Q 3103 2488 3043 2428 
Q 2984 2369 2906 2369 
Q 2825 2369 2765 2428 
Q 2706 2488 2706 2566 
Q 2706 2684 2784 2731 
Q 2453 2731 2216 2503 
Q 2331 2388 2401 2220 
Q 2472 2053 2472 1888 
Q 2472 1616 2322 1398 
Q 2172 1181 1926 1061 
Q 1681 941 1422 941 
Q 1072 941 781 1131 
Q 691 1006 691 850 
Q 691 681 802 554 
Q 913 428 1081 428 
L 1606 428 
Q 1988 428 2294 359 
Q 2600 291 2808 84 
Q 3016 -122 3016 -500 
Q 3016 -781 2778 -967 
Q 2541 -1153 2211 -1236 
Q 1881 -1319 1600 -1319 
Q 1316 -1319 984 -1236 
Q 653 -1153 415 -967 
Q 178 -781 178 -500 
z
M 538 -500 
Q 538 -716 713 -861 
Q 888 -1006 1134 -1076 
Q 1381 -1147 1600 -1147 
Q 1816 -1147 2062 -1076 
Q 2309 -1006 2482 -861 
Q 2656 -716 2656 -500 
Q 2656 -166 2350 -67 
Q 2044 31 1606 31 
L 1081 31 
Q 934 31 811 -39 
Q 688 -109 613 -236 
Q 538 -363 538 -500 
z
M 1422 1113 
Q 1966 1113 1966 1888 
Q 1966 2222 1850 2439 
Q 1734 2656 1422 2656 
Q 1109 2656 993 2439 
Q 878 2222 878 1888 
Q 878 1675 922 1503 
Q 966 1331 1084 1222 
Q 1203 1113 1422 1113 
z
" transform="scale(0.015625)"/>
       <path id="Cmmi10-70" d="M -159 -1241 
Q -219 -1241 -219 -1159 
Q -197 -1019 -134 -1019 
Q 66 -1019 145 -983 
Q 225 -947 269 -800 
L 991 2081 
Q 1038 2200 1038 2388 
Q 1038 2663 850 2663 
Q 650 2663 553 2423 
Q 456 2184 366 1819 
Q 366 1778 313 1778 
L 238 1778 
Q 222 1778 203 1801 
Q 184 1825 184 1844 
Q 253 2122 317 2315 
Q 381 2509 517 2668 
Q 653 2828 856 2828 
Q 1075 2828 1240 2704 
Q 1406 2581 1453 2369 
Q 1628 2572 1840 2700 
Q 2053 2828 2278 2828 
Q 2547 2828 2745 2684 
Q 2944 2541 3044 2308 
Q 3144 2075 3144 1806 
Q 3144 1394 2933 953 
Q 2722 513 2361 220 
Q 2000 -72 1588 -72 
Q 1400 -72 1248 34 
Q 1097 141 1013 313 
L 722 -825 
Q 706 -919 703 -934 
Q 703 -1019 1125 -1019 
Q 1191 -1019 1191 -1100 
Q 1169 -1184 1155 -1212 
Q 1141 -1241 1081 -1241 
L -159 -1241 
z
M 1594 97 
Q 1816 97 2006 280 
Q 2197 463 2316 691 
Q 2403 863 2479 1111 
Q 2556 1359 2612 1640 
Q 2669 1922 2669 2088 
Q 2669 2234 2630 2362 
Q 2591 2491 2502 2577 
Q 2413 2663 2266 2663 
Q 2031 2663 1823 2495 
Q 1616 2328 1447 2081 
L 1447 2059 
L 1094 647 
Q 1138 419 1263 258 
Q 1388 97 1594 97 
z
" transform="scale(0.015625)"/>
       <path id="Cmr10-28" d="M 1984 -1588 
Q 1628 -1306 1370 -942 
Q 1113 -578 948 -165 
Q 784 247 703 697 
Q 622 1147 622 1600 
Q 622 2059 703 2509 
Q 784 2959 951 3375 
Q 1119 3791 1378 4153 
Q 1638 4516 1984 4788 
Q 1984 4800 2016 4800 
L 2075 4800 
Q 2094 4800 2109 4783 
Q 2125 4766 2125 4744 
Q 2125 4716 2113 4703 
Q 1800 4397 1592 4047 
Q 1384 3697 1257 3301 
Q 1131 2906 1075 2482 
Q 1019 2059 1019 1600 
Q 1019 -434 2106 -1491 
Q 2125 -1509 2125 -1544 
Q 2125 -1559 2108 -1579 
Q 2091 -1600 2075 -1600 
L 2016 -1600 
Q 1984 -1600 1984 -1588 
z
" transform="scale(0.015625)"/>
       <path id="Cmr10-29" d="M 416 -1600 
Q 359 -1600 359 -1544 
Q 359 -1516 372 -1503 
Q 1466 -434 1466 1600 
Q 1466 3634 384 4691 
Q 359 4706 359 4744 
Q 359 4766 376 4783 
Q 394 4800 416 4800 
L 475 4800 
Q 494 4800 506 4788 
Q 966 4425 1272 3906 
Q 1578 3388 1720 2800 
Q 1863 2213 1863 1600 
Q 1863 1147 1786 708 
Q 1709 269 1542 -157 
Q 1375 -584 1119 -945 
Q 863 -1306 506 -1588 
Q 494 -1600 475 -1600 
L 416 -1600 
z
" transform="scale(0.015625)"/>
       <path id="DejaVuSans-47" d="M 3809 666 
L 3809 1919 
L 2778 1919 
L 2778 2438 
L 4434 2438 
L 4434 434 
Q 4069 175 3628 42 
Q 3188 -91 2688 -91 
Q 1594 -91 976 548 
Q 359 1188 359 2328 
Q 359 3472 976 4111 
Q 1594 4750 2688 4750 
Q 3144 4750 3555 4637 
Q 3966 4525 4313 4306 
L 4313 3634 
Q 3963 3931 3569 4081 
Q 3175 4231 2741 4231 
Q 1884 4231 1454 3753 
Q 1025 3275 1025 2328 
Q 1025 1384 1454 906 
Q 1884 428 2741 428 
Q 3075 428 3337 486 
Q 3600 544 3809 666 
z
" transform="scale(0.015625)"/>
       <path id="DejaVuSans-75" d="M 544 1381 
L 544 3500 
L 1119 3500 
L 1119 1403 
Q 1119 906 1312 657 
Q 1506 409 1894 409 
Q 2359 409 2629 706 
Q 2900 1003 2900 1516 
L 2900 3500 
L 3475 3500 
L 3475 0 
L 2900 0 
L 2900 538 
Q 2691 219 2414 64 
Q 2138 -91 1772 -91 
Q 1169 -91 856 284 
Q 544 659 544 1381 
z
M 1991 3584 
L 1991 3584 
z
" transform="scale(0.015625)"/>
      </defs>
      <use xlink:href="#Cmsy10-a1" transform="translate(0 0.015625)"/>
      <use xlink:href="#Cmr10-6c" transform="translate(77.685547 0.015625)"/>
      <use xlink:href="#Cmr10-6f" transform="translate(105.371094 0.015625)"/>
      <use xlink:href="#Cmr10-67" transform="translate(155.371094 0.015625)"/>
      <use xlink:href="#Cmmi10-70" transform="translate(220.003548 0.015625)"/>
      <use xlink:href="#Cmr10-28" transform="translate(270.296517 0.015625)"/>
      <use xlink:href="#Cmmi10-b5" transform="translate(309.114876 0.015625)"/>
      <use xlink:href="#Cmr10-29" transform="translate(356.038704 0.015625)"/>
      <use xlink:href="#DejaVuSans-20" transform="translate(394.857063 0.015625)"/>
      <use xlink:href="#DejaVuSans-20" transform="translate(426.644173 0.015625)"/>
      <use xlink:href="#DejaVuSans-28" transform="translate(458.431282 0.015625)"/>
      <use xlink:href="#DejaVuSans-47" transform="translate(497.444954 0.015625)"/>
      <use xlink:href="#DejaVuSans-61" transform="translate(574.935188 0.015625)"/>
      <use xlink:href="#DejaVuSans-75" transform="translate(636.214485 0.015625)"/>
      <use xlink:href="#DejaVuSans-73" transform="translate(699.593392 0.015625)"/>
      <use xlink:href="#DejaVuSans-73" transform="translate(751.693001 0.015625)"/>
      <use xlink:href="#DejaVuSans-69" transform="translate(803.79261 0.015625)"/>
      <use xlink:href="#DejaVuSans-61" transform="translate(831.575813 0.015625)"/>
      <use xlink:href="#DejaVuSans-6e" transform="translate(892.85511 0.015625)"/>
      <use xlink:href="#DejaVuSans-20" transform="translate(956.234017 0.015625)"/>
      <use xlink:href="#DejaVuSans-70" transform="translate(988.021126 0.015625)"/>
      <use xlink:href="#DejaVuSans-72" transform="translate(1051.497688 0.015625)"/>
      <use xlink:href="#DejaVuSans-69" transform="translate(1092.61097 0.015625)"/>
      <use xlink:href="#DejaVuSans-6f" transform="translate(1120.394173 0.015625)"/>
      <use xlink:href="#DejaVuSans-72" transform="translate(1181.575813 0.015625)"/>
      <use xlink:href="#DejaVuSans-29" transform="translate(1222.689095 0.015625)"/>
     </g>
    </g>
    <g id="line2d_7">
     <path d="M 131.015938 45.788906 
L 140.015938 45.788906 
L 149.015938 45.788906 
" style="fill: none; stroke: #2ca02c; stroke-width: 2.6; stroke-linecap: square"/>
    </g>
    <g id="text_9">
     <!-- MAP objective (sum) -->
     <g transform="translate(156.215938 48.938906) scale(0.09 -0.09)">
      <defs>
       <path id="DejaVuSans-4d" d="M 628 4666 
L 1569 4666 
L 2759 1491 
L 3956 4666 
L 4897 4666 
L 4897 0 
L 4281 0 
L 4281 4097 
L 3078 897 
L 2444 897 
L 1241 4097 
L 1241 0 
L 628 0 
L 628 4666 
z
" transform="scale(0.015625)"/>
       <path id="DejaVuSans-41" d="M 2188 4044 
L 1331 1722 
L 3047 1722 
L 2188 4044 
z
M 1831 4666 
L 2547 4666 
L 4325 0 
L 3669 0 
L 3244 1197 
L 1141 1197 
L 716 0 
L 50 0 
L 1831 4666 
z
" transform="scale(0.015625)"/>
       <path id="DejaVuSans-50" d="M 1259 4147 
L 1259 2394 
L 2053 2394 
Q 2494 2394 2734 2622 
Q 2975 2850 2975 3272 
Q 2975 3691 2734 3919 
Q 2494 4147 2053 4147 
L 1259 4147 
z
M 628 4666 
L 2053 4666 
Q 2838 4666 3239 4311 
Q 3641 3956 3641 3272 
Q 3641 2581 3239 2228 
Q 2838 1875 2053 1875 
L 1259 1875 
L 1259 0 
L 628 0 
L 628 4666 
z
" transform="scale(0.015625)"/>
      </defs>
      <use xlink:href="#DejaVuSans-4d"/>
      <use xlink:href="#DejaVuSans-41" transform="translate(86.279297 0)"/>
      <use xlink:href="#DejaVuSans-50" transform="translate(154.6875 0)"/>
      <use xlink:href="#DejaVuSans-20" transform="translate(214.990234 0)"/>
      <use xlink:href="#DejaVuSans-6f" transform="translate(246.777344 0)"/>
      <use xlink:href="#DejaVuSans-62" transform="translate(307.958984 0)"/>
      <use xlink:href="#DejaVuSans-6a" transform="translate(371.435547 0)"/>
      <use xlink:href="#DejaVuSans-65" transform="translate(399.21875 0)"/>
      <use xlink:href="#DejaVuSans-63" transform="translate(460.742188 0)"/>
      <use xlink:href="#DejaVuSans-74" transform="translate(515.722656 0)"/>
      <use xlink:href="#DejaVuSans-69" transform="translate(554.931641 0)"/>
      <use xlink:href="#DejaVuSans-76" transform="translate(582.714844 0)"/>
      <use xlink:href="#DejaVuSans-65" transform="translate(641.894531 0)"/>
      <use xlink:href="#DejaVuSans-20" transform="translate(703.417969 0)"/>
      <use xlink:href="#DejaVuSans-28" transform="translate(735.205078 0)"/>
      <use xlink:href="#DejaVuSans-73" transform="translate(774.21875 0)"/>
      <use xlink:href="#DejaVuSans-75" transform="translate(826.318359 0)"/>
      <use xlink:href="#DejaVuSans-6d" transform="translate(889.697266 0)"/>
      <use xlink:href="#DejaVuSans-29" transform="translate(987.109375 0)"/>
     </g>
    </g>
   </g>
   <g id="line2d_8">
    <defs>
     <path id="m7e13a6cba3" d="M 0 3.5 
C 0.928211 3.5 1.81853 3.131218 2.474874 2.474874 
C 3.131218 1.81853 3.5 0.928211 3.5 0 
C 3.5 -0.928211 3.131218 -1.81853 2.474874 -2.474874 
C 1.81853 -3.131218 0.928211 -3.5 0 -3.5 
C -0.928211 -3.5 -1.81853 -3.131218 -2.474874 -2.474874 
C -3.131218 -1.81853 -3.5 -0.928211 -3.5 0 
C -3.5 0.928211 -3.131218 1.81853 -2.474874 2.474874 
C -1.81853 3.131218 -0.928211 3.5 0 3.5 
z
" style="stroke: #1f77b4"/>
    </defs>
    <g clip-path="url(#p86a20ccf88)">
     <use xlink:href="#m7e13a6cba3" x="262.839504" y="229.767917" style="fill: #1f77b4; stroke: #1f77b4"/>
    </g>
   </g>
   <g id="line2d_9">
    <defs>
     <path id="mf82da9deea" d="M 0 3.5 
C 0.928211 3.5 1.81853 3.131218 2.474874 2.474874 
C 3.131218 1.81853 3.5 0.928211 3.5 0 
C 3.5 -0.928211 3.131218 -1.81853 2.474874 -2.474874 
C 1.81853 -3.131218 0.928211 -3.5 0 -3.5 
C -0.928211 -3.5 -1.81853 -3.131218 -2.474874 -2.474874 
C -3.131218 -1.81853 -3.5 -0.928211 -3.5 0 
C -3.5 0.928211 -3.131218 1.81853 -2.474874 2.474874 
C -1.81853 3.131218 -0.928211 3.5 0 3.5 
z
" style="stroke: #2ca02c"/>
    </defs>
    <g clip-path="url(#p86a20ccf88)">
     <use xlink:href="#mf82da9deea" x="201.14045" y="168.813069" style="fill: #2ca02c; stroke: #2ca02c"/>
    </g>
   </g>
  </g>
 </g>
 <defs>
  <clipPath id="p86a20ccf88">
   <rect x="21.845938" y="7.2" width="357.12" height="232.848"/>
  </clipPath>
 </defs>
</svg>
