<?xml version="1.0" encoding="utf-8" standalone="no"?>
<!DOCTYPE svg PUBLIC "-//W3C//DTD SVG 1.1//EN"
  "http://www.w3.org/Graphics/SVG/1.1/DTD/svg11.dtd">
<svg xmlns:xlink="http://www.w3.org/1999/xlink" width="572.91917pt" height="216.194674pt" viewBox="0 0 572.91917 216.194674" xmlns="http://www.w3.org/2000/svg" version="1.1">
 <metadata>
  <rdf:RDF xmlns:dc="http://purl.org/dc/elements/1.1/" xmlns:cc="http://creativecommons.org/ns#" xmlns:rdf="http://www.w3.org/1999/02/22-rdf-syntax-ns#">
   <cc:Work>
    <dc:type rdf:resource="http://purl.org/dc/dcmitype/StillImage"/>
    <dc:format>image/svg+xml</dc:format>
    <dc:creator>
     <cc:Agent>
      <dc:title>Matplotlib v3.10.8, https://matplotlib.org/</dc:title>
     </cc:Agent>
    </dc:creator>
   </cc:Work>
  </rdf:RDF>
 </metadata>
 <defs>
  <style type="text/css">*{stroke-linejoin: round; stroke-linecap: butt}</style>
 </defs>
 <g id="figure_1">
  <g id="patch_1">
   <path d="M 0 216.194674 
L 572.91917 216.194674 
L 572.91917 0 
L 0 0 
z
" style="fill: #ffffff"/>
  </g>
  <g id="axes_1">
   <g id="patch_2">
    <path d="M 13.29917 175.223736 
L 165.062906 175.223736 
L 165.062906 23.46 
L 13.29917 23.46 
z
" style="fill: #ffffff"/>
   </g>
   <g id="patch_3">
    <path d="M 138.137082 99.341868 
L 138.112682 97.796397 
L 138.039505 96.252466 
L 137.917626 94.711615 
L 137.747164 93.175379 
L 137.528291 91.645291 
L 137.261225 90.122874 
L 136.946231 88.609647 
L 136.583624 87.107118 
L 136.173764 85.616785 
L 135.717062 84.140134 
L 135.213971 82.678636 
L 134.664993 81.233748 
L 134.070677 79.806911 
L 133.431613 78.399546 
L 132.748439 77.013058 
L 132.021837 75.648827 
L 131.252529 74.308214 
L 130.441284 72.992555 
L 129.58891 71.703162 
L 128.696256 70.441319 
L 127.764213 69.208285 
L 126.793709 68.005289 
L 125.785713 66.83353 
L 124.741227 65.694176 
L 123.661295 64.588363 
L 122.546992 63.517193 
L 121.399429 62.481734 
L 120.21975 61.483017 
L 119.009131 60.522039 
L 117.768778 59.599758 
L 116.499929 58.717092 
L 115.203848 57.874922 
L 113.881827 57.074088 
L 112.535183 56.315386 
L 111.165259 55.599575 
L 109.773421 54.927366 
L 108.361056 54.299431 
L 106.929572 53.716395 
L 105.480396 53.17884 
L 104.014973 52.687301 
L 102.534762 52.242269 
L 101.041241 51.844186 
L 99.535896 51.49345 
L 98.02023 51.19041 
L 96.495753 50.935369 
L 94.963984 50.72858 
L 93.426451 50.57025 
L 91.884686 50.460537 
L 90.340226 50.39955 
L 88.79461 50.387349 
L 87.249379 50.423948 
L 85.706074 50.509309 
L 84.166233 50.643347 
L 82.631391 50.825929 
L 81.103077 51.056873 
L 79.582816 51.335948 
L 78.072123 51.662876 
L 76.572503 52.037333 
L 75.085452 52.458943 
L 73.612451 52.927287 
L 72.15497 53.441898 
L 70.71446 54.002264 
L 69.292359 54.607824 
L 67.890082 55.257977 
L 66.509029 55.952074 
L 65.150577 56.689422 
L 63.816078 57.469287 
L 62.506863 58.290892 
L 61.224238 59.153417 
L 59.969481 60.056003 
L 58.743843 60.99775 
L 57.548545 61.977719 
L 56.384779 62.994934 
L 55.253705 64.04838 
L 54.15645 65.137007 
L 53.094109 66.259731 
L 52.06774 67.415431 
L 51.078366 68.602957 
L 50.126974 69.821124 
L 49.214512 71.068717 
L 48.34189 72.344494 
L 47.509976 73.647183 
L 46.719602 74.975484 
L 45.971553 76.328075 
L 45.266577 77.703606 
L 44.605376 79.100706 
L 43.988609 80.517984 
L 43.416891 81.954025 
L 42.890791 83.407399 
L 42.410835 84.876657 
L 41.9775 86.360334 
L 41.591218 87.856951 
L 41.252375 89.365017 
L 40.961309 90.883028 
L 40.718309 92.409471 
L 40.523617 93.942824 
L 40.377429 95.481559 
L 40.279889 97.024143 
L 40.231094 98.569036 
L 40.231094 100.1147 
L 40.279889 101.659594 
L 40.377429 103.202177 
L 40.523617 104.740912 
L 40.718309 106.274265 
L 40.961309 107.800708 
L 41.252375 109.318719 
L 41.591218 110.826785 
L 41.9775 112.323402 
L 42.410835 113.807079 
L 42.890791 115.276337 
L 43.416891 116.729711 
L 43.988609 118.165753 
L 44.605376 119.58303 
L 45.266577 120.980131 
L 45.971553 122.355662 
L 46.719602 123.708252 
L 47.509976 125.036554 
L 48.34189 126.339242 
L 49.214512 127.615019 
L 50.126974 128.862613 
L 51.078366 130.080779 
L 52.06774 131.268305 
L 53.094109 132.424005 
L 54.15645 133.546729 
L 55.253705 134.635356 
L 56.384779 135.688802 
L 57.548545 136.706017 
L 58.743843 137.685986 
L 59.969481 138.627733 
L 61.224238 139.530319 
L 62.506863 140.392844 
L 63.816078 141.214449 
L 65.150577 141.994314 
L 66.509029 142.731663 
L 67.890082 143.425759 
L 69.292359 144.075912 
L 70.71446 144.681473 
L 72.15497 145.241838 
L 73.612451 145.756449 
L 75.085452 146.224793 
L 76.572503 146.646404 
L 78.072123 147.02086 
L 79.582816 147.347788 
L 81.103077 147.626864 
L 82.631391 147.857807 
L 84.166233 148.040389 
L 85.706074 148.174428 
L 87.249379 148.259789 
L 88.79461 148.296387 
L 90.340226 148.284186 
L 91.884686 148.223199 
L 93.426451 148.113486 
L 94.963984 147.955156 
L 96.495753 147.748368 
L 98.02023 147.493326 
L 99.535896 147.190287 
L 101.041241 146.83955 
L 102.534762 146.441468 
L 104.014973 145.996435 
L 105.480396 145.504896 
L 106.929572 144.967341 
L 108.361056 144.384305 
L 109.773421 143.75637 
L 111.165259 143.084162 
L 112.535183 142.36835 
L 113.881827 141.609649 
L 115.203848 140.808814 
L 116.499929 139.966644 
L 117.768778 139.083978 
L 119.009131 138.161697 
L 120.21975 137.200719 
L 121.399429 136.202003 
L 122.546992 135.166543 
L 123.661295 134.095373 
L 124.741227 132.98956 
L 125.785713 131.850206 
L 126.793709 130.678447 
L 127.764213 129.475451 
L 128.696256 128.242417 
L 129.58891 126.980575 
L 130.441284 125.691181 
L 131.252529 124.375522 
L 132.021837 123.034909 
L 132.748439 121.670679 
L 133.431613 120.28419 
L 134.070677 118.876826 
L 134.664993 117.449988 
L 135.213971 116.005101 
L 135.717062 114.543603 
L 136.173764 113.066951 
L 136.583624 111.576618 
L 136.946231 110.074089 
L 137.261225 108.560862 
L 137.528291 107.038446 
L 137.747164 105.508357 
L 137.917626 103.972121 
L 138.039505 102.43127 
L 138.112682 100.887339 
L 138.137082 99.341868 
z
" clip-path="url(#p4ed2da0373)" style="fill: #1f77b4; opacity: 0.1"/>
   </g>
   <g id="matplotlib.axis_1"/>
   <g id="matplotlib.axis_2"/>
   <g id="line2d_1">
    <path d="M 138.137082 99.341868 
L 138.039505 96.252466 
L 137.747164 93.175379 
L 137.261225 90.122874 
L 136.583624 87.107118 
L 135.717062 84.140134 
L 134.664993 81.233748 
L 133.431613 78.399546 
L 132.021837 75.648827 
L 130.441284 72.992555 
L 128.696256 70.441319 
L 126.793709 68.005289 
L 124.741227 65.694176 
L 122.546992 63.517193 
L 120.21975 61.483017 
L 117.768778 59.599758 
L 115.203848 57.874922 
L 112.535183 56.315386 
L 109.773421 54.927366 
L 106.929572 53.716395 
L 104.014973 52.687301 
L 101.041241 51.844186 
L 98.02023 51.19041 
L 94.963984 50.72858 
L 91.884686 50.460537 
L 88.79461 50.387349 
L 85.706074 50.509309 
L 82.631391 50.825929 
L 79.582816 51.335948 
L 76.572503 52.037333 
L 73.612451 52.927287 
L 70.71446 54.002264 
L 67.890082 55.257977 
L 65.150577 56.689422 
L 62.506863 58.290892 
L 59.969481 60.056003 
L 57.548545 61.977719 
L 55.253705 64.04838 
L 53.094109 66.259731 
L 51.078366 68.602957 
L 49.214512 71.068717 
L 47.509976 73.647183 
L 45.971553 76.328075 
L 44.605376 79.100706 
L 43.416891 81.954025 
L 42.410835 84.876657 
L 41.591218 87.856951 
L 40.961309 90.883028 
L 40.523617 93.942824 
L 40.279889 97.024143 
L 40.231094 100.1147 
L 40.377429 103.202177 
L 40.718309 106.274265 
L 41.252375 109.318719 
L 41.9775 112.323402 
L 42.890791 115.276337 
L 43.988609 118.165753 
L 45.266577 120.980131 
L 46.719602 123.708252 
L 48.34189 126.339242 
L 50.126974 128.862613 
L 52.06774 131.268305 
L 54.15645 133.546729 
L 56.384779 135.688802 
L 58.743843 137.685986 
L 61.224238 139.530319 
L 63.816078 141.214449 
L 66.509029 142.731663 
L 69.292359 144.075912 
L 72.15497 145.241838 
L 75.085452 146.224793 
L 78.072123 147.02086 
L 81.103077 147.626864 
L 84.166233 148.040389 
L 87.249379 148.259789 
L 90.340226 148.284186 
L 93.426451 148.113486 
L 96.495753 147.748368 
L 99.535896 147.190287 
L 102.534762 146.441468 
L 105.480396 145.504896 
L 108.361056 144.384305 
L 111.165259 143.084162 
L 113.881827 141.609649 
L 116.499929 139.966644 
L 119.009131 138.161697 
L 121.399429 136.202003 
L 123.661295 134.095373 
L 125.785713 131.850206 
L 127.764213 129.475451 
L 129.58891 126.980575 
L 131.252529 124.375522 
L 132.748439 121.670679 
L 134.070677 118.876826 
L 135.213971 116.005101 
L 136.173764 113.066951 
L 136.946231 110.074089 
L 137.528291 107.038446 
L 137.917626 103.972121 
L 138.112682 100.887339 
L 138.137082 99.341868 
L 138.137082 99.341868 
" clip-path="url(#p4ed2da0373)" style="fill: none; stroke: #1f77b4; stroke-width: 1.4; stroke-linecap: square"/>
   </g>
   <g id="patch_4">
    <path d="M 89.181038 99.341868 
Q 102.64395 78.535549 114.892115 59.606567 
" style="fill: none; stroke: #7f7f7f; stroke-width: 2; stroke-linecap: round"/>
    <path d="M 109.499112 62.787056 
L 114.892115 59.606567 
L 114.200705 65.829263 
" style="fill: none; stroke: #7f7f7f; stroke-width: 2; stroke-linecap: round"/>
   </g>
   <g id="text_1">
    <!-- $\mathbf{g}$ -->
    <g transform="translate(121.002466 50.662747) scale(0.15 -0.15)">
     <defs>
      <path id="Cmb10-67" d="M 153 -469 
Q 153 -284 281 -139 
Q 409 6 594 72 
Q 347 284 347 666 
Q 347 994 556 1253 
Q 416 1375 336 1556 
Q 256 1738 256 1931 
Q 256 2238 420 2455 
Q 584 2672 848 2776 
Q 1113 2881 1422 2881 
Q 1878 2881 2181 2681 
Q 2428 2913 2759 2913 
Q 2909 2913 3006 2795 
Q 3103 2678 3103 2528 
Q 3103 2406 3020 2323 
Q 2938 2241 2816 2241 
Q 2700 2241 2614 2323 
Q 2528 2406 2528 2528 
Q 2528 2572 2534 2591 
Q 2538 2603 2539 2612 
Q 2541 2622 2541 2625 
Q 2434 2594 2356 2541 
Q 2584 2284 2584 1931 
Q 2584 1688 2487 1509 
Q 2391 1331 2230 1215 
Q 2069 1100 1856 1039 
Q 1644 978 1422 978 
Q 1013 978 738 1131 
Q 678 1041 678 922 
Q 678 766 783 655 
Q 888 544 1044 544 
L 1606 544 
Q 2269 544 2655 344 
Q 3041 144 3041 -469 
Q 3041 -709 2898 -868 
Q 2756 -1028 2537 -1118 
Q 2319 -1209 2070 -1248 
Q 1822 -1288 1600 -1288 
Q 1281 -1288 953 -1216 
Q 625 -1144 389 -959 
Q 153 -775 153 -469 
z
M 728 -469 
Q 728 -672 862 -798 
Q 997 -925 1195 -978 
Q 1394 -1031 1600 -1031 
Q 1928 -1031 2195 -897 
Q 2463 -763 2463 -469 
Q 2463 -228 2209 -162 
Q 1956 -97 1606 -97 
L 1044 -97 
Q 891 -97 809 -201 
Q 728 -306 728 -469 
z
M 1422 1234 
Q 1622 1234 1715 1331 
Q 1809 1428 1829 1565 
Q 1850 1703 1850 1919 
L 1850 1941 
Q 1850 2156 1829 2293 
Q 1809 2431 1715 2528 
Q 1622 2625 1422 2625 
Q 1228 2625 1129 2529 
Q 1031 2434 1011 2296 
Q 991 2159 991 1941 
L 991 1919 
Q 991 1703 1011 1565 
Q 1031 1428 1128 1331 
Q 1225 1234 1422 1234 
z
" transform="scale(0.015625)"/>
     </defs>
     <use xlink:href="#Cmb10-67" transform="translate(0 0.484375)"/>
    </g>
   </g>
   <g id="patch_5">
    <path d="M 89.181038 99.341868 
Q 75.883321 119.892885 64.164775 138.003365 
" style="fill: none; stroke: #ff7f0e; stroke-width: 2.6; stroke-linecap: round"/>
    <path d="M 69.557779 134.822876 
L 64.164775 138.003365 
L 64.856186 131.780668 
" style="fill: none; stroke: #ff7f0e; stroke-width: 2.6; stroke-linecap: round"/>
   </g>
   <g id="text_2">
    <!-- $-\mathbf{g}/\|\mathbf{g}\|_2$ -->
    <g transform="translate(7.2 155.464506) scale(0.135 -0.135)">
     <defs>
      <path id="Cmsy10-a1" d="M 653 1472 
Q 600 1472 565 1512 
Q 531 1553 531 1600 
Q 531 1647 565 1687 
Q 600 1728 653 1728 
L 4325 1728 
Q 4375 1728 4408 1687 
Q 4441 1647 4441 1600 
Q 4441 1553 4408 1512 
Q 4375 1472 4325 1472 
L 653 1472 
z
" transform="scale(0.015625)"/>
      <path id="Cmmi10-3d" d="M 359 -1472 
Q 359 -1453 366 -1447 
L 2591 4722 
Q 2603 4759 2634 4779 
Q 2666 4800 2706 4800 
Q 2763 4800 2798 4765 
Q 2834 4731 2834 4672 
L 2834 4647 
L 609 -1522 
Q 572 -1600 488 -1600 
Q 434 -1600 396 -1562 
Q 359 -1525 359 -1472 
z
" transform="scale(0.015625)"/>
      <path id="Cmsy10-6b" d="M 850 -1484 
L 850 4684 
Q 850 4734 890 4767 
Q 931 4800 978 4800 
Q 1031 4800 1068 4767 
Q 1106 4734 1106 4684 
L 1106 -1484 
Q 1106 -1534 1068 -1567 
Q 1031 -1600 978 -1600 
Q 931 -1600 890 -1567 
Q 850 -1534 850 -1484 
z
M 2094 -1484 
L 2094 4684 
Q 2094 4734 2131 4767 
Q 2169 4800 2222 4800 
Q 2269 4800 2309 4767 
Q 2350 4734 2350 4684 
L 2350 -1484 
Q 2350 -1534 2309 -1567 
Q 2269 -1600 2222 -1600 
Q 2169 -1600 2131 -1567 
Q 2094 -1534 2094 -1484 
z
" transform="scale(0.015625)"/>
      <path id="Cmr10-32" d="M 319 0 
L 319 172 
Q 319 188 331 206 
L 1325 1306 
Q 1550 1550 1690 1715 
Q 1831 1881 1968 2097 
Q 2106 2313 2186 2536 
Q 2266 2759 2266 3009 
Q 2266 3272 2169 3511 
Q 2072 3750 1880 3894 
Q 1688 4038 1416 4038 
Q 1138 4038 916 3870 
Q 694 3703 603 3438 
Q 628 3444 672 3444 
Q 816 3444 917 3347 
Q 1019 3250 1019 3097 
Q 1019 2950 917 2848 
Q 816 2747 672 2747 
Q 522 2747 420 2851 
Q 319 2956 319 3097 
Q 319 3338 409 3548 
Q 500 3759 670 3923 
Q 841 4088 1055 4175 
Q 1269 4263 1509 4263 
Q 1875 4263 2190 4108 
Q 2506 3953 2690 3670 
Q 2875 3388 2875 3009 
Q 2875 2731 2753 2481 
Q 2631 2231 2440 2026 
Q 2250 1822 1953 1562 
Q 1656 1303 1563 1216 
L 838 519 
L 1453 519 
Q 1906 519 2211 526 
Q 2516 534 2534 550 
Q 2609 631 2688 1141 
L 2875 1141 
L 2694 0 
L 319 0 
z
" transform="scale(0.015625)"/>
     </defs>
     <use xlink:href="#Cmsy10-a1"/>
     <use xlink:href="#Cmb10-67" transform="translate(77.685547 0)"/>
     <use xlink:href="#Cmmi10-3d" transform="translate(127.685547 0)"/>
     <use xlink:href="#Cmsy10-6b" transform="translate(177.685547 0)"/>
     <use xlink:href="#Cmb10-67" transform="translate(227.685547 0)"/>
     <use xlink:href="#Cmsy10-6b" transform="translate(277.685547 0)"/>
     <use xlink:href="#Cmr10-32" transform="translate(332.149688 -17.00625) scale(0.7)"/>
    </g>
   </g>
   <g id="patch_6">
    <path d="M 20.192129 99.341868 
Q 89.178001 99.341868 157.157642 99.341868 
" style="fill: none; stroke: #000000; stroke-width: 0.9; stroke-linecap: round"/>
    <path d="M 152.757642 97.141868 
L 157.157642 99.341868 
L 152.757642 101.541868 
" style="fill: none; stroke: #000000; stroke-width: 0.9; stroke-linecap: round"/>
   </g>
   <g id="patch_7">
    <path d="M 89.181038 168.330777 
Q 89.181038 99.344905 89.181038 31.365264 
" style="fill: none; stroke: #000000; stroke-width: 0.9; stroke-linecap: round"/>
    <path d="M 86.981038 35.765264 
L 89.181038 31.365264 
L 91.381038 35.765264 
" style="fill: none; stroke: #000000; stroke-width: 0.9; stroke-linecap: round"/>
   </g>
   <g id="text_3">
    <!-- $\ell_2$: follow the gradient -->
    <g transform="translate(15.403538 17.46) scale(0.135 -0.135)">
     <defs>
      <path id="Cmmi10-60" d="M 153 475 
Q 125 475 94 509 
Q 63 544 63 575 
Q 63 628 594 1113 
Q 594 1141 592 1159 
Q 591 1178 588 1197 
Q 588 1472 631 1758 
Q 675 2044 751 2328 
Q 828 2613 943 2922 
Q 1059 3231 1178 3463 
Q 1384 3884 1628 4198 
Q 1872 4513 2169 4513 
Q 2372 4513 2459 4373 
Q 2547 4234 2547 4025 
Q 2547 2853 991 1269 
Q 966 994 966 878 
Q 966 78 1331 78 
Q 1488 78 1642 161 
Q 1797 244 1908 341 
Q 2019 438 2216 628 
Q 2228 641 2253 641 
Q 2288 641 2319 603 
Q 2350 566 2350 531 
Q 2350 509 2322 488 
Q 2038 209 1809 56 
Q 1581 -97 1319 -97 
Q 981 -97 817 193 
Q 653 484 609 884 
Q 438 713 191 488 
Q 184 475 153 475 
z
M 1044 1575 
Q 1384 1938 1681 2338 
Q 1978 2738 2176 3180 
Q 2375 3622 2375 4044 
Q 2375 4347 2163 4347 
Q 1934 4347 1696 3801 
Q 1459 3256 1290 2622 
Q 1122 1988 1044 1575 
z
" transform="scale(0.015625)"/>
      <path id="DejaVuSans-3a" d="M 750 794 
L 1409 794 
L 1409 0 
L 750 0 
L 750 794 
z
M 750 3309 
L 1409 3309 
L 1409 2516 
L 750 2516 
L 750 3309 
z
" transform="scale(0.015625)"/>
      <path id="DejaVuSans-20" transform="scale(0.015625)"/>
      <path id="DejaVuSans-66" d="M 2375 4863 
L 2375 4384 
L 1825 4384 
Q 1516 4384 1395 4259 
Q 1275 4134 1275 3809 
L 1275 3500 
L 2222 3500 
L 2222 3053 
L 1275 3053 
L 1275 0 
L 697 0 
L 697 3053 
L 147 3053 
L 147 3500 
L 697 3500 
L 697 3744 
Q 697 4328 969 4595 
Q 1241 4863 1831 4863 
L 2375 4863 
z
" transform="scale(0.015625)"/>
      <path id="DejaVuSans-6f" d="M 1959 3097 
Q 1497 3097 1228 2736 
Q 959 2375 959 1747 
Q 959 1119 1226 758 
Q 1494 397 1959 397 
Q 2419 397 2687 759 
Q 2956 1122 2956 1747 
Q 2956 2369 2687 2733 
Q 2419 3097 1959 3097 
z
M 1959 3584 
Q 2709 3584 3137 3096 
Q 3566 2609 3566 1747 
Q 3566 888 3137 398 
Q 2709 -91 1959 -91 
Q 1206 -91 779 398 
Q 353 888 353 1747 
Q 353 2609 779 3096 
Q 1206 3584 1959 3584 
z
" transform="scale(0.015625)"/>
      <path id="DejaVuSans-6c" d="M 603 4863 
L 1178 4863 
L 1178 0 
L 603 0 
L 603 4863 
z
" transform="scale(0.015625)"/>
      <path id="DejaVuSans-77" d="M 269 3500 
L 844 3500 
L 1563 769 
L 2278 3500 
L 2956 3500 
L 3675 769 
L 4391 3500 
L 4966 3500 
L 4050 0 
L 3372 0 
L 2619 2869 
L 1863 0 
L 1184 0 
L 269 3500 
z
" transform="scale(0.015625)"/>
      <path id="DejaVuSans-74" d="M 1172 4494 
L 1172 3500 
L 2356 3500 
L 2356 3053 
L 1172 3053 
L 1172 1153 
Q 1172 725 1289 603 
Q 1406 481 1766 481 
L 2356 481 
L 2356 0 
L 1766 0 
Q 1100 0 847 248 
Q 594 497 594 1153 
L 594 3053 
L 172 3053 
L 172 3500 
L 594 3500 
L 594 4494 
L 1172 4494 
z
" transform="scale(0.015625)"/>
      <path id="DejaVuSans-68" d="M 3513 2113 
L 3513 0 
L 2938 0 
L 2938 2094 
Q 2938 2591 2744 2837 
Q 2550 3084 2163 3084 
Q 1697 3084 1428 2787 
Q 1159 2491 1159 1978 
L 1159 0 
L 581 0 
L 581 4863 
L 1159 4863 
L 1159 2956 
Q 1366 3272 1645 3428 
Q 1925 3584 2291 3584 
Q 2894 3584 3203 3211 
Q 3513 2838 3513 2113 
z
" transform="scale(0.015625)"/>
      <path id="DejaVuSans-65" d="M 3597 1894 
L 3597 1613 
L 953 1613 
Q 991 1019 1311 708 
Q 1631 397 2203 397 
Q 2534 397 2845 478 
Q 3156 559 3463 722 
L 3463 178 
Q 3153 47 2828 -22 
Q 2503 -91 2169 -91 
Q 1331 -91 842 396 
Q 353 884 353 1716 
Q 353 2575 817 3079 
Q 1281 3584 2069 3584 
Q 2775 3584 3186 3129 
Q 3597 2675 3597 1894 
z
M 3022 2063 
Q 3016 2534 2758 2815 
Q 2500 3097 2075 3097 
Q 1594 3097 1305 2825 
Q 1016 2553 972 2059 
L 3022 2063 
z
" transform="scale(0.015625)"/>
      <path id="DejaVuSans-67" d="M 2906 1791 
Q 2906 2416 2648 2759 
Q 2391 3103 1925 3103 
Q 1463 3103 1205 2759 
Q 947 2416 947 1791 
Q 947 1169 1205 825 
Q 1463 481 1925 481 
Q 2391 481 2648 825 
Q 2906 1169 2906 1791 
z
M 3481 434 
Q 3481 -459 3084 -895 
Q 2688 -1331 1869 -1331 
Q 1566 -1331 1297 -1286 
Q 1028 -1241 775 -1147 
L 775 -588 
Q 1028 -725 1275 -790 
Q 1522 -856 1778 -856 
Q 2344 -856 2625 -561 
Q 2906 -266 2906 331 
L 2906 616 
Q 2728 306 2450 153 
Q 2172 0 1784 0 
Q 1141 0 747 490 
Q 353 981 353 1791 
Q 353 2603 747 3093 
Q 1141 3584 1784 3584 
Q 2172 3584 2450 3431 
Q 2728 3278 2906 2969 
L 2906 3500 
L 3481 3500 
L 3481 434 
z
" transform="scale(0.015625)"/>
      <path id="DejaVuSans-72" d="M 2631 2963 
Q 2534 3019 2420 3045 
Q 2306 3072 2169 3072 
Q 1681 3072 1420 2755 
Q 1159 2438 1159 1844 
L 1159 0 
L 581 0 
L 581 3500 
L 1159 3500 
L 1159 2956 
Q 1341 3275 1631 3429 
Q 1922 3584 2338 3584 
Q 2397 3584 2469 3576 
Q 2541 3569 2628 3553 
L 2631 2963 
z
" transform="scale(0.015625)"/>
      <path id="DejaVuSans-61" d="M 2194 1759 
Q 1497 1759 1228 1600 
Q 959 1441 959 1056 
Q 959 750 1161 570 
Q 1363 391 1709 391 
Q 2188 391 2477 730 
Q 2766 1069 2766 1631 
L 2766 1759 
L 2194 1759 
z
M 3341 1997 
L 3341 0 
L 2766 0 
L 2766 531 
Q 2569 213 2275 61 
Q 1981 -91 1556 -91 
Q 1019 -91 701 211 
Q 384 513 384 1019 
Q 384 1609 779 1909 
Q 1175 2209 1959 2209 
L 2766 2209 
L 2766 2266 
Q 2766 2663 2505 2880 
Q 2244 3097 1772 3097 
Q 1472 3097 1187 3025 
Q 903 2953 641 2809 
L 641 3341 
Q 956 3463 1253 3523 
Q 1550 3584 1831 3584 
Q 2591 3584 2966 3190 
Q 3341 2797 3341 1997 
z
" transform="scale(0.015625)"/>
      <path id="DejaVuSans-64" d="M 2906 2969 
L 2906 4863 
L 3481 4863 
L 3481 0 
L 2906 0 
L 2906 525 
Q 2725 213 2448 61 
Q 2172 -91 1784 -91 
Q 1150 -91 751 415 
Q 353 922 353 1747 
Q 353 2572 751 3078 
Q 1150 3584 1784 3584 
Q 2172 3584 2448 3432 
Q 2725 3281 2906 2969 
z
M 947 1747 
Q 947 1113 1208 752 
Q 1469 391 1925 391 
Q 2381 391 2643 752 
Q 2906 1113 2906 1747 
Q 2906 2381 2643 2742 
Q 2381 3103 1925 3103 
Q 1469 3103 1208 2742 
Q 947 2381 947 1747 
z
" transform="scale(0.015625)"/>
      <path id="DejaVuSans-69" d="M 603 3500 
L 1178 3500 
L 1178 0 
L 603 0 
L 603 3500 
z
M 603 4863 
L 1178 4863 
L 1178 4134 
L 603 4134 
L 603 4863 
z
" transform="scale(0.015625)"/>
      <path id="DejaVuSans-6e" d="M 3513 2113 
L 3513 0 
L 2938 0 
L 2938 2094 
Q 2938 2591 2744 2837 
Q 2550 3084 2163 3084 
Q 1697 3084 1428 2787 
Q 1159 2491 1159 1978 
L 1159 0 
L 581 0 
L 581 3500 
L 1159 3500 
L 1159 2956 
Q 1366 3272 1645 3428 
Q 1925 3584 2291 3584 
Q 2894 3584 3203 3211 
Q 3513 2838 3513 2113 
z
" transform="scale(0.015625)"/>
     </defs>
     <use xlink:href="#Cmmi10-60" transform="translate(0 0.015625)"/>
     <use xlink:href="#Cmr10-32" transform="translate(41.601562 -16.990625) scale(0.7)"/>
     <use xlink:href="#DejaVuSans-3a" transform="translate(82.978906 0.015625)"/>
     <use xlink:href="#DejaVuSans-20" transform="translate(116.670312 0.015625)"/>
     <use xlink:href="#DejaVuSans-66" transform="translate(148.457422 0.015625)"/>
     <use xlink:href="#DejaVuSans-6f" transform="translate(183.6625 0.015625)"/>
     <use xlink:href="#DejaVuSans-6c" transform="translate(244.844141 0.015625)"/>
     <use xlink:href="#DejaVuSans-6c" transform="translate(272.627344 0.015625)"/>
     <use xlink:href="#DejaVuSans-6f" transform="translate(300.410547 0.015625)"/>
     <use xlink:href="#DejaVuSans-77" transform="translate(361.592188 0.015625)"/>
     <use xlink:href="#DejaVuSans-20" transform="translate(443.379297 0.015625)"/>
     <use xlink:href="#DejaVuSans-74" transform="translate(475.166406 0.015625)"/>
     <use xlink:href="#DejaVuSans-68" transform="translate(514.375391 0.015625)"/>
     <use xlink:href="#DejaVuSans-65" transform="translate(577.754297 0.015625)"/>
     <use xlink:href="#DejaVuSans-20" transform="translate(639.277734 0.015625)"/>
     <use xlink:href="#DejaVuSans-67" transform="translate(671.064844 0.015625)"/>
     <use xlink:href="#DejaVuSans-72" transform="translate(734.541406 0.015625)"/>
     <use xlink:href="#DejaVuSans-61" transform="translate(775.654688 0.015625)"/>
     <use xlink:href="#DejaVuSans-64" transform="translate(836.933984 0.015625)"/>
     <use xlink:href="#DejaVuSans-69" transform="translate(900.410547 0.015625)"/>
     <use xlink:href="#DejaVuSans-65" transform="translate(928.19375 0.015625)"/>
     <use xlink:href="#DejaVuSans-6e" transform="translate(989.717188 0.015625)"/>
     <use xlink:href="#DejaVuSans-74" transform="translate(1053.096094 0.015625)"/>
    </g>
   </g>
  </g>
  <g id="axes_2">
   <g id="patch_8">
    <path d="M 213.627302 175.223736 
L 365.391038 175.223736 
L 365.391038 23.46 
L 213.627302 23.46 
z
" style="fill: #ffffff"/>
   </g>
   <g id="patch_9">
    <path d="M 240.553126 148.297912 
L 338.465214 148.297912 
L 338.465214 50.385824 
L 240.553126 50.385824 
z
" clip-path="url(#p106d403770)" style="fill: #1f77b4; opacity: 0.1"/>
   </g>
   <g id="matplotlib.axis_3"/>
   <g id="matplotlib.axis_4"/>
   <g id="line2d_2">
    <path d="M 240.553126 148.297912 
L 338.465214 148.297912 
L 338.465214 50.385824 
L 240.553126 50.385824 
L 240.553126 148.297912 
" clip-path="url(#p106d403770)" style="fill: none; stroke: #1f77b4; stroke-width: 1.4; stroke-linecap: square"/>
   </g>
   <g id="patch_10">
    <path d="M 289.50917 99.341868 
Q 302.972082 78.535549 315.220247 59.606567 
" style="fill: none; stroke: #7f7f7f; stroke-width: 2; stroke-linecap: round"/>
    <path d="M 309.827244 62.787056 
L 315.220247 59.606567 
L 314.528836 65.829263 
" style="fill: none; stroke: #7f7f7f; stroke-width: 2; stroke-linecap: round"/>
   </g>
   <g id="text_4">
    <!-- $\mathbf{g}$ -->
    <g transform="translate(321.330598 50.662747) scale(0.15 -0.15)">
     <use xlink:href="#Cmb10-67" transform="translate(0 0.484375)"/>
    </g>
   </g>
   <g id="patch_11">
    <path d="M 289.50917 99.341868 
Q 265.031148 123.81989 242.608606 146.242432 
" style="fill: none; stroke: #ff7f0e; stroke-width: 2.6; stroke-linecap: round"/>
    <path d="M 248.548303 144.262533 
L 242.608606 146.242432 
L 244.588505 140.302735 
" style="fill: none; stroke: #ff7f0e; stroke-width: 2.6; stroke-linecap: round"/>
   </g>
   <g id="text_5">
    <!-- $-\mathrm{sign}(\mathbf{g})$ -->
    <g transform="translate(239.574005 165.276758) scale(0.135 -0.135)">
     <defs>
      <path id="Cmr10-73" d="M 213 -19 
L 213 1025 
Q 213 1075 269 1075 
L 347 1075 
Q 384 1075 397 1025 
Q 575 97 1259 97 
Q 1563 97 1767 234 
Q 1972 372 1972 659 
Q 1972 866 1812 1011 
Q 1653 1156 1434 1209 
L 1006 1294 
Q 791 1341 614 1437 
Q 438 1534 325 1695 
Q 213 1856 213 2069 
Q 213 2350 361 2529 
Q 509 2709 746 2789 
Q 984 2869 1259 2869 
Q 1588 2869 1831 2694 
L 2016 2853 
Q 2016 2869 2047 2869 
L 2094 2869 
Q 2113 2869 2128 2851 
Q 2144 2834 2144 2816 
L 2144 1978 
Q 2144 1919 2094 1919 
L 2016 1919 
Q 1959 1919 1959 1978 
Q 1959 2313 1773 2516 
Q 1588 2719 1253 2719 
Q 966 2719 755 2612 
Q 544 2506 544 2247 
Q 544 2069 695 1955 
Q 847 1841 1050 1791 
L 1484 1709 
Q 1703 1659 1892 1540 
Q 2081 1422 2192 1240 
Q 2303 1059 2303 831 
Q 2303 600 2223 429 
Q 2144 259 2001 146 
Q 1859 34 1665 -19 
Q 1472 -72 1259 -72 
Q 859 -72 575 197 
L 341 -56 
Q 341 -72 306 -72 
L 269 -72 
Q 213 -72 213 -19 
z
" transform="scale(0.015625)"/>
      <path id="Cmr10-69" d="M 197 0 
L 197 225 
Q 416 225 556 259 
Q 697 294 697 428 
L 697 2175 
Q 697 2422 601 2478 
Q 506 2534 225 2534 
L 225 2759 
L 1147 2828 
L 1147 428 
Q 1147 294 1269 259 
Q 1391 225 1594 225 
L 1594 0 
L 197 0 
z
M 469 3928 
Q 469 4069 575 4175 
Q 681 4281 819 4281 
Q 909 4281 993 4234 
Q 1078 4188 1125 4103 
Q 1172 4019 1172 3928 
Q 1172 3791 1065 3684 
Q 959 3578 819 3578 
Q 681 3578 575 3684 
Q 469 3791 469 3928 
z
" transform="scale(0.015625)"/>
      <path id="Cmr10-67" d="M 178 -500 
Q 178 -272 343 -101 
Q 509 69 738 141 
Q 609 238 542 384 
Q 475 531 475 697 
Q 475 997 666 1228 
Q 372 1516 372 1888 
Q 372 2088 458 2263 
Q 544 2438 697 2566 
Q 850 2694 1037 2761 
Q 1225 2828 1422 2828 
Q 1803 2828 2106 2606 
Q 2238 2747 2417 2823 
Q 2597 2900 2791 2900 
Q 2928 2900 3015 2801 
Q 3103 2703 3103 2566 
Q 3103 2488 3043 2428 
Q 2984 2369 2906 2369 
Q 2825 2369 2765 2428 
Q 2706 2488 2706 2566 
Q 2706 2684 2784 2731 
Q 2453 2731 2216 2503 
Q 2331 2388 2401 2220 
Q 2472 2053 2472 1888 
Q 2472 1616 2322 1398 
Q 2172 1181 1926 1061 
Q 1681 941 1422 941 
Q 1072 941 781 1131 
Q 691 1006 691 850 
Q 691 681 802 554 
Q 913 428 1081 428 
L 1606 428 
Q 1988 428 2294 359 
Q 2600 291 2808 84 
Q 3016 -122 3016 -500 
Q 3016 -781 2778 -967 
Q 2541 -1153 2211 -1236 
Q 1881 -1319 1600 -1319 
Q 1316 -1319 984 -1236 
Q 653 -1153 415 -967 
Q 178 -781 178 -500 
z
M 538 -500 
Q 538 -716 713 -861 
Q 888 -1006 1134 -1076 
Q 1381 -1147 1600 -1147 
Q 1816 -1147 2062 -1076 
Q 2309 -1006 2482 -861 
Q 2656 -716 2656 -500 
Q 2656 -166 2350 -67 
Q 2044 31 1606 31 
L 1081 31 
Q 934 31 811 -39 
Q 688 -109 613 -236 
Q 538 -363 538 -500 
z
M 1422 1113 
Q 1966 1113 1966 1888 
Q 1966 2222 1850 2439 
Q 1734 2656 1422 2656 
Q 1109 2656 993 2439 
Q 878 2222 878 1888 
Q 878 1675 922 1503 
Q 966 1331 1084 1222 
Q 1203 1113 1422 1113 
z
" transform="scale(0.015625)"/>
      <path id="Cmr10-6e" d="M 191 0 
L 191 225 
Q 409 225 550 259 
Q 691 294 691 428 
L 691 2175 
Q 691 2347 639 2423 
Q 588 2500 491 2517 
Q 394 2534 191 2534 
L 191 2759 
L 1119 2828 
L 1119 2203 
Q 1247 2478 1498 2653 
Q 1750 2828 2047 2828 
Q 2491 2828 2714 2615 
Q 2938 2403 2938 1966 
L 2938 428 
Q 2938 294 3078 259 
Q 3219 225 3438 225 
L 3438 0 
L 1972 0 
L 1972 225 
Q 2191 225 2331 259 
Q 2472 294 2472 428 
L 2472 1947 
Q 2472 2259 2381 2461 
Q 2291 2663 2009 2663 
Q 1638 2663 1398 2366 
Q 1159 2069 1159 1691 
L 1159 428 
Q 1159 294 1300 259 
Q 1441 225 1656 225 
L 1656 0 
L 191 0 
z
" transform="scale(0.015625)"/>
      <path id="Cmr10-28" d="M 1984 -1588 
Q 1628 -1306 1370 -942 
Q 1113 -578 948 -165 
Q 784 247 703 697 
Q 622 1147 622 1600 
Q 622 2059 703 2509 
Q 784 2959 951 3375 
Q 1119 3791 1378 4153 
Q 1638 4516 1984 4788 
Q 1984 4800 2016 4800 
L 2075 4800 
Q 2094 4800 2109 4783 
Q 2125 4766 2125 4744 
Q 2125 4716 2113 4703 
Q 1800 4397 1592 4047 
Q 1384 3697 1257 3301 
Q 1131 2906 1075 2482 
Q 1019 2059 1019 1600 
Q 1019 -434 2106 -1491 
Q 2125 -1509 2125 -1544 
Q 2125 -1559 2108 -1579 
Q 2091 -1600 2075 -1600 
L 2016 -1600 
Q 1984 -1600 1984 -1588 
z
" transform="scale(0.015625)"/>
      <path id="Cmr10-29" d="M 416 -1600 
Q 359 -1600 359 -1544 
Q 359 -1516 372 -1503 
Q 1466 -434 1466 1600 
Q 1466 3634 384 4691 
Q 359 4706 359 4744 
Q 359 4766 376 4783 
Q 394 4800 416 4800 
L 475 4800 
Q 494 4800 506 4788 
Q 966 4425 1272 3906 
Q 1578 3388 1720 2800 
Q 1863 2213 1863 1600 
Q 1863 1147 1786 708 
Q 1709 269 1542 -157 
Q 1375 -584 1119 -945 
Q 863 -1306 506 -1588 
Q 494 -1600 475 -1600 
L 416 -1600 
z
" transform="scale(0.015625)"/>
     </defs>
     <use xlink:href="#Cmsy10-a1"/>
     <use xlink:href="#Cmr10-73" transform="translate(77.685547 0)"/>
     <use xlink:href="#Cmr10-69" transform="translate(117.089844 0)"/>
     <use xlink:href="#Cmr10-67" transform="translate(144.775391 0)"/>
     <use xlink:href="#Cmr10-6e" transform="translate(194.775391 0)"/>
     <use xlink:href="#Cmr10-28" transform="translate(250.292969 0)"/>
     <use xlink:href="#Cmb10-67" transform="translate(289.111328 0)"/>
     <use xlink:href="#Cmr10-29" transform="translate(339.111328 0)"/>
    </g>
   </g>
   <g id="patch_12">
    <path d="M 220.520261 99.341868 
Q 289.506133 99.341868 357.485774 99.341868 
" style="fill: none; stroke: #000000; stroke-width: 0.9; stroke-linecap: round"/>
    <path d="M 353.085774 97.141868 
L 357.485774 99.341868 
L 353.085774 101.541868 
" style="fill: none; stroke: #000000; stroke-width: 0.9; stroke-linecap: round"/>
   </g>
   <g id="patch_13">
    <path d="M 289.50917 168.330777 
Q 289.50917 99.344905 289.50917 31.365264 
" style="fill: none; stroke: #000000; stroke-width: 0.9; stroke-linecap: round"/>
    <path d="M 287.30917 35.765264 
L 289.50917 31.365264 
L 291.70917 35.765264 
" style="fill: none; stroke: #000000; stroke-width: 0.9; stroke-linecap: round"/>
   </g>
   <g id="text_6">
    <!-- $\ell_\infty$: keep only the signs -->
    <g transform="translate(211.34417 17.46) scale(0.135 -0.135)">
     <defs>
      <path id="Cmsy10-31" d="M 1575 -72 
Q 1213 -72 933 140 
Q 653 353 506 690 
Q 359 1028 359 1381 
Q 359 1653 445 1912 
Q 531 2172 693 2378 
Q 856 2584 1086 2706 
Q 1316 2828 1594 2828 
Q 1881 2828 2150 2718 
Q 2419 2609 2642 2428 
Q 2866 2247 3059 2009 
L 3250 1753 
Q 3441 2056 3672 2295 
Q 3903 2534 4195 2681 
Q 4488 2828 4819 2828 
Q 5097 2828 5325 2704 
Q 5553 2581 5712 2368 
Q 5872 2156 5953 1898 
Q 6034 1641 6034 1381 
Q 6034 1019 5882 683 
Q 5731 347 5451 137 
Q 5172 -72 4800 -72 
Q 4381 -72 4004 153 
Q 3628 378 3334 750 
L 3144 1006 
Q 2850 528 2451 228 
Q 2053 -72 1575 -72 
z
M 1509 153 
Q 2322 153 2963 1241 
L 2625 1672 
Q 2331 2059 2078 2278 
Q 1825 2497 1491 2497 
Q 1206 2497 986 2336 
Q 766 2175 645 1915 
Q 525 1656 525 1375 
Q 525 1159 592 942 
Q 659 725 787 547 
Q 916 369 1098 261 
Q 1281 153 1509 153 
z
M 3769 1088 
Q 4063 700 4316 481 
Q 4569 263 4903 263 
Q 5116 263 5294 356 
Q 5472 450 5601 609 
Q 5731 769 5800 969 
Q 5869 1169 5869 1381 
Q 5869 1678 5750 1961 
Q 5631 2244 5407 2425 
Q 5184 2606 4884 2606 
Q 4072 2606 3431 1516 
L 3769 1088 
z
" transform="scale(0.015625)"/>
      <path id="DejaVuSans-6b" d="M 581 4863 
L 1159 4863 
L 1159 1991 
L 2875 3500 
L 3609 3500 
L 1753 1863 
L 3688 0 
L 2938 0 
L 1159 1709 
L 1159 0 
L 581 0 
L 581 4863 
z
" transform="scale(0.015625)"/>
      <path id="DejaVuSans-70" d="M 1159 525 
L 1159 -1331 
L 581 -1331 
L 581 3500 
L 1159 3500 
L 1159 2969 
Q 1341 3281 1617 3432 
Q 1894 3584 2278 3584 
Q 2916 3584 3314 3078 
Q 3713 2572 3713 1747 
Q 3713 922 3314 415 
Q 2916 -91 2278 -91 
Q 1894 -91 1617 61 
Q 1341 213 1159 525 
z
M 3116 1747 
Q 3116 2381 2855 2742 
Q 2594 3103 2138 3103 
Q 1681 3103 1420 2742 
Q 1159 2381 1159 1747 
Q 1159 1113 1420 752 
Q 1681 391 2138 391 
Q 2594 391 2855 752 
Q 3116 1113 3116 1747 
z
" transform="scale(0.015625)"/>
      <path id="DejaVuSans-79" d="M 2059 -325 
Q 1816 -950 1584 -1140 
Q 1353 -1331 966 -1331 
L 506 -1331 
L 506 -850 
L 844 -850 
Q 1081 -850 1212 -737 
Q 1344 -625 1503 -206 
L 1606 56 
L 191 3500 
L 800 3500 
L 1894 763 
L 2988 3500 
L 3597 3500 
L 2059 -325 
z
" transform="scale(0.015625)"/>
      <path id="DejaVuSans-73" d="M 2834 3397 
L 2834 2853 
Q 2591 2978 2328 3040 
Q 2066 3103 1784 3103 
Q 1356 3103 1142 2972 
Q 928 2841 928 2578 
Q 928 2378 1081 2264 
Q 1234 2150 1697 2047 
L 1894 2003 
Q 2506 1872 2764 1633 
Q 3022 1394 3022 966 
Q 3022 478 2636 193 
Q 2250 -91 1575 -91 
Q 1294 -91 989 -36 
Q 684 19 347 128 
L 347 722 
Q 666 556 975 473 
Q 1284 391 1588 391 
Q 1994 391 2212 530 
Q 2431 669 2431 922 
Q 2431 1156 2273 1281 
Q 2116 1406 1581 1522 
L 1381 1569 
Q 847 1681 609 1914 
Q 372 2147 372 2553 
Q 372 3047 722 3315 
Q 1072 3584 1716 3584 
Q 2034 3584 2315 3537 
Q 2597 3491 2834 3397 
z
" transform="scale(0.015625)"/>
     </defs>
     <use xlink:href="#Cmmi10-60" transform="translate(0 0.015625)"/>
     <use xlink:href="#Cmsy10-31" transform="translate(41.601562 -16.990625) scale(0.7)"/>
     <use xlink:href="#DejaVuSans-3a" transform="translate(117.978906 0.015625)"/>
     <use xlink:href="#DejaVuSans-20" transform="translate(151.670312 0.015625)"/>
     <use xlink:href="#DejaVuSans-6b" transform="translate(183.457422 0.015625)"/>
     <use xlink:href="#DejaVuSans-65" transform="translate(241.367578 0.015625)"/>
     <use xlink:href="#DejaVuSans-65" transform="translate(302.891016 0.015625)"/>
     <use xlink:href="#DejaVuSans-70" transform="translate(364.414453 0.015625)"/>
     <use xlink:href="#DejaVuSans-20" transform="translate(427.891016 0.015625)"/>
     <use xlink:href="#DejaVuSans-6f" transform="translate(459.678125 0.015625)"/>
     <use xlink:href="#DejaVuSans-6e" transform="translate(520.859766 0.015625)"/>
     <use xlink:href="#DejaVuSans-6c" transform="translate(584.238672 0.015625)"/>
     <use xlink:href="#DejaVuSans-79" transform="translate(612.021875 0.015625)"/>
     <use xlink:href="#DejaVuSans-20" transform="translate(671.201563 0.015625)"/>
     <use xlink:href="#DejaVuSans-74" transform="translate(702.988672 0.015625)"/>
     <use xlink:href="#DejaVuSans-68" transform="translate(742.197656 0.015625)"/>
     <use xlink:href="#DejaVuSans-65" transform="translate(805.576563 0.015625)"/>
     <use xlink:href="#DejaVuSans-20" transform="translate(867.1 0.015625)"/>
     <use xlink:href="#DejaVuSans-73" transform="translate(898.887109 0.015625)"/>
     <use xlink:href="#DejaVuSans-69" transform="translate(950.986719 0.015625)"/>
     <use xlink:href="#DejaVuSans-67" transform="translate(978.769922 0.015625)"/>
     <use xlink:href="#DejaVuSans-6e" transform="translate(1042.246484 0.015625)"/>
     <use xlink:href="#DejaVuSans-73" transform="translate(1105.625391 0.015625)"/>
    </g>
   </g>
  </g>
  <g id="axes_3">
   <g id="patch_14">
    <path d="M 413.955433 175.223736 
L 565.71917 175.223736 
L 565.71917 23.46 
L 413.955433 23.46 
z
" style="fill: #ffffff"/>
   </g>
   <g id="patch_15">
    <path d="M 426.780538 162.398632 
L 533.656409 162.398632 
L 533.656409 55.522761 
L 426.780538 55.522761 
z
" clip-path="url(#p79f757b14e)" style="fill: #1f77b4; opacity: 0.1"/>
   </g>
   <g id="matplotlib.axis_5">
    <g id="xtick_1">
     <g id="line2d_3">
      <defs>
       <path id="m0e0d04b24a" d="M 0 0 
L 0 3.5 
" style="stroke: #000000; stroke-width: 0.8"/>
      </defs>
      <g>
       <use xlink:href="#m0e0d04b24a" x="426.780538" y="175.223736" style="stroke: #000000; stroke-width: 0.8"/>
      </g>
     </g>
     <g id="text_7">
      <!-- 0 -->
      <g transform="translate(423.281163 190.582018) scale(0.11 -0.11)">
       <defs>
        <path id="DejaVuSans-30" d="M 2034 4250 
Q 1547 4250 1301 3770 
Q 1056 3291 1056 2328 
Q 1056 1369 1301 889 
Q 1547 409 2034 409 
Q 2525 409 2770 889 
Q 3016 1369 3016 2328 
Q 3016 3291 2770 3770 
Q 2525 4250 2034 4250 
z
M 2034 4750 
Q 2819 4750 3233 4129 
Q 3647 3509 3647 2328 
Q 3647 1150 3233 529 
Q 2819 -91 2034 -91 
Q 1250 -91 836 529 
Q 422 1150 422 2328 
Q 422 3509 836 4129 
Q 1250 4750 2034 4750 
z
" transform="scale(0.015625)"/>
       </defs>
       <use xlink:href="#DejaVuSans-30"/>
      </g>
     </g>
    </g>
    <g id="xtick_2">
     <g id="line2d_4">
      <g>
       <use xlink:href="#m0e0d04b24a" x="533.656409" y="175.223736" style="stroke: #000000; stroke-width: 0.8"/>
      </g>
     </g>
     <g id="text_8">
      <!-- 1 -->
      <g transform="translate(530.157034 190.582018) scale(0.11 -0.11)">
       <defs>
        <path id="DejaVuSans-31" d="M 794 531 
L 1825 531 
L 1825 4091 
L 703 3866 
L 703 4441 
L 1819 4666 
L 2450 4666 
L 2450 531 
L 3481 531 
L 3481 0 
L 794 0 
L 794 531 
z
" transform="scale(0.015625)"/>
       </defs>
       <use xlink:href="#DejaVuSans-31"/>
      </g>
     </g>
    </g>
    <g id="text_9">
     <!-- $\sigma_1$ of the update -->
     <g transform="translate(439.399802 206.369674) scale(0.125 -0.125)">
      <defs>
       <path id="Cmmi10-be" d="M 1197 -72 
Q 913 -72 692 64 
Q 472 200 351 431 
Q 231 663 231 941 
Q 231 1238 365 1566 
Q 500 1894 733 2166 
Q 966 2438 1259 2598 
Q 1553 2759 1863 2759 
L 3475 2759 
Q 3541 2759 3587 2715 
Q 3634 2672 3634 2597 
Q 3634 2503 3567 2433 
Q 3500 2363 3406 2363 
L 2625 2363 
Q 2809 2088 2809 1697 
Q 2809 1375 2684 1062 
Q 2559 750 2337 492 
Q 2116 234 1820 81 
Q 1525 -72 1197 -72 
z
M 1203 97 
Q 1553 97 1823 370 
Q 2094 644 2237 1039 
Q 2381 1434 2381 1772 
Q 2381 2047 2229 2205 
Q 2078 2363 1806 2363 
Q 1434 2363 1173 2113 
Q 913 1863 783 1484 
Q 653 1106 653 756 
Q 653 481 798 289 
Q 944 97 1203 97 
z
" transform="scale(0.015625)"/>
       <path id="Cmr10-31" d="M 594 0 
L 594 225 
Q 1394 225 1394 428 
L 1394 3788 
Q 1063 3628 556 3628 
L 556 3853 
Q 1341 3853 1741 4263 
L 1831 4263 
Q 1853 4263 1873 4245 
Q 1894 4228 1894 4206 
L 1894 428 
Q 1894 225 2694 225 
L 2694 0 
L 594 0 
z
" transform="scale(0.015625)"/>
       <path id="DejaVuSans-75" d="M 544 1381 
L 544 3500 
L 1119 3500 
L 1119 1403 
Q 1119 906 1312 657 
Q 1506 409 1894 409 
Q 2359 409 2629 706 
Q 2900 1003 2900 1516 
L 2900 3500 
L 3475 3500 
L 3475 0 
L 2900 0 
L 2900 538 
Q 2691 219 2414 64 
Q 2138 -91 1772 -91 
Q 1169 -91 856 284 
Q 544 659 544 1381 
z
M 1991 3584 
L 1991 3584 
z
" transform="scale(0.015625)"/>
      </defs>
      <use xlink:href="#Cmmi10-be" transform="translate(0 0.015625)"/>
      <use xlink:href="#Cmr10-31" transform="translate(57.080078 -16.990625) scale(0.7)"/>
      <use xlink:href="#DejaVuSans-20" transform="translate(98.457422 0.015625)"/>
      <use xlink:href="#DejaVuSans-6f" transform="translate(130.244531 0.015625)"/>
      <use xlink:href="#DejaVuSans-66" transform="translate(191.426172 0.015625)"/>
      <use xlink:href="#DejaVuSans-20" transform="translate(226.63125 0.015625)"/>
      <use xlink:href="#DejaVuSans-74" transform="translate(258.418359 0.015625)"/>
      <use xlink:href="#DejaVuSans-68" transform="translate(297.627344 0.015625)"/>
      <use xlink:href="#DejaVuSans-65" transform="translate(361.00625 0.015625)"/>
      <use xlink:href="#DejaVuSans-20" transform="translate(422.529688 0.015625)"/>
      <use xlink:href="#DejaVuSans-75" transform="translate(454.316797 0.015625)"/>
      <use xlink:href="#DejaVuSans-70" transform="translate(517.695703 0.015625)"/>
      <use xlink:href="#DejaVuSans-64" transform="translate(581.172266 0.015625)"/>
      <use xlink:href="#DejaVuSans-61" transform="translate(644.648828 0.015625)"/>
      <use xlink:href="#DejaVuSans-74" transform="translate(705.928125 0.015625)"/>
      <use xlink:href="#DejaVuSans-65" transform="translate(745.137109 0.015625)"/>
     </g>
    </g>
   </g>
   <g id="matplotlib.axis_6">
    <g id="ytick_1">
     <g id="line2d_5">
      <defs>
       <path id="m5d09d475d1" d="M 0 0 
L -3.5 0 
" style="stroke: #000000; stroke-width: 0.8"/>
      </defs>
      <g>
       <use xlink:href="#m5d09d475d1" x="413.955433" y="162.398632" style="stroke: #000000; stroke-width: 0.8"/>
      </g>
     </g>
     <g id="text_10">
      <!-- 0 -->
      <g transform="translate(399.956683 166.577772) scale(0.11 -0.11)">
       <use xlink:href="#DejaVuSans-30"/>
      </g>
     </g>
    </g>
    <g id="ytick_2">
     <g id="line2d_6">
      <g>
       <use xlink:href="#m5d09d475d1" x="413.955433" y="55.522761" style="stroke: #000000; stroke-width: 0.8"/>
      </g>
     </g>
     <g id="text_11">
      <!-- 1 -->
      <g transform="translate(399.956683 59.701902) scale(0.11 -0.11)">
       <use xlink:href="#DejaVuSans-31"/>
      </g>
     </g>
    </g>
    <g id="text_12">
     <!-- $\sigma_2$ of the update -->
     <g transform="translate(393.331683 149.779368) rotate(-90) scale(0.125 -0.125)">
      <use xlink:href="#Cmmi10-be" transform="translate(0 0.015625)"/>
      <use xlink:href="#Cmr10-32" transform="translate(57.080078 -16.990625) scale(0.7)"/>
      <use xlink:href="#DejaVuSans-20" transform="translate(98.457422 0.015625)"/>
      <use xlink:href="#DejaVuSans-6f" transform="translate(130.244531 0.015625)"/>
      <use xlink:href="#DejaVuSans-66" transform="translate(191.426172 0.015625)"/>
      <use xlink:href="#DejaVuSans-20" transform="translate(226.63125 0.015625)"/>
      <use xlink:href="#DejaVuSans-74" transform="translate(258.418359 0.015625)"/>
      <use xlink:href="#DejaVuSans-68" transform="translate(297.627344 0.015625)"/>
      <use xlink:href="#DejaVuSans-65" transform="translate(361.00625 0.015625)"/>
      <use xlink:href="#DejaVuSans-20" transform="translate(422.529688 0.015625)"/>
      <use xlink:href="#DejaVuSans-75" transform="translate(454.316797 0.015625)"/>
      <use xlink:href="#DejaVuSans-70" transform="translate(517.695703 0.015625)"/>
      <use xlink:href="#DejaVuSans-64" transform="translate(581.172266 0.015625)"/>
      <use xlink:href="#DejaVuSans-61" transform="translate(644.648828 0.015625)"/>
      <use xlink:href="#DejaVuSans-74" transform="translate(705.928125 0.015625)"/>
      <use xlink:href="#DejaVuSans-65" transform="translate(745.137109 0.015625)"/>
     </g>
    </g>
   </g>
   <g id="line2d_7">
    <path d="M 426.780538 162.398632 
L 533.656409 162.398632 
L 533.656409 55.522761 
L 426.780538 55.522761 
L 426.780538 162.398632 
" clip-path="url(#p79f757b14e)" style="fill: none; stroke: #1f77b4; stroke-width: 1.4; stroke-linecap: square"/>
   </g>
   <g id="line2d_8">
    <defs>
     <path id="ma4816432b6" d="M 0 4 
C 1.060812 4 2.078319 3.578535 2.828427 2.828427 
C 3.578535 2.078319 4 1.060812 4 0 
C 4 -1.060812 3.578535 -2.078319 2.828427 -2.828427 
C 2.078319 -3.578535 1.060812 -4 0 -4 
C -1.060812 -4 -2.078319 -3.578535 -2.828427 -2.828427 
C -3.578535 -2.078319 -4 -1.060812 -4 0 
C -4 1.060812 -3.578535 2.078319 -2.828427 2.828427 
C -2.078319 3.578535 -1.060812 4 0 4 
z
" style="stroke: #7f7f7f"/>
    </defs>
    <g clip-path="url(#p79f757b14e)">
     <use xlink:href="#ma4816432b6" x="525.106339" y="138.88594" style="fill: #7f7f7f; stroke: #7f7f7f"/>
    </g>
   </g>
   <g id="line2d_9">
    <path d="M 525.106339 138.88594 
L 533.656409 55.522761 
" clip-path="url(#p79f757b14e)" style="fill: none; stroke-dasharray: 1,1.65; stroke-dashoffset: 0; stroke: #7f7f7f"/>
   </g>
   <g id="patch_16">
    <path d="M 413.955433 175.223736 
L 413.955433 23.46 
" style="fill: none; stroke: #000000; stroke-width: 0.8; stroke-linejoin: miter; stroke-linecap: square"/>
   </g>
   <g id="patch_17">
    <path d="M 413.955433 175.223736 
L 565.71917 175.223736 
" style="fill: none; stroke: #000000; stroke-width: 0.8; stroke-linejoin: miter; stroke-linecap: square"/>
   </g>
   <g id="text_13">
    <!-- $\sigma(\mathbf{G})$ -->
    <g transform="translate(491.941304 154.354734) scale(0.135 -0.135)">
     <defs>
      <path id="Cmb10-47" d="M 1606 863 
Q 1706 713 1831 598 
Q 1956 484 2112 407 
Q 2269 331 2436 293 
Q 2603 256 2784 256 
Q 2922 256 3050 323 
Q 3178 391 3253 508 
Q 3328 625 3328 769 
L 3328 1441 
L 2528 1441 
L 2528 1766 
L 4703 1766 
L 4703 1441 
L 4263 1441 
L 4263 84 
Q 4244 0 4172 0 
Q 4166 0 4141 6 
Q 4038 53 3928 100 
Q 3819 147 3723 198 
Q 3628 250 3547 319 
Q 3403 128 3153 28 
Q 2903 -72 2631 -72 
Q 2125 -72 1708 89 
Q 1291 250 987 551 
Q 684 853 521 1270 
Q 359 1688 359 2194 
Q 359 2703 523 3122 
Q 688 3541 984 3837 
Q 1281 4134 1703 4296 
Q 2125 4459 2631 4459 
Q 2906 4459 3164 4359 
Q 3422 4259 3641 4072 
L 4050 4434 
Q 4081 4453 4109 4459 
L 4184 4459 
Q 4247 4444 4263 4384 
L 4263 2797 
Q 4247 2728 4184 2713 
L 3981 2713 
Q 3913 2728 3897 2797 
Q 3897 2975 3809 3223 
Q 3722 3472 3616 3634 
Q 3463 3859 3239 3996 
Q 3016 4134 2759 4134 
Q 2397 4134 2095 3981 
Q 1794 3828 1606 3531 
Q 1450 3269 1406 2951 
Q 1363 2634 1363 2194 
Q 1363 1894 1377 1694 
Q 1391 1494 1447 1266 
Q 1503 1038 1606 863 
z
" transform="scale(0.015625)"/>
     </defs>
     <use xlink:href="#Cmmi10-be"/>
     <use xlink:href="#Cmr10-28" transform="translate(57.080078 0)"/>
     <use xlink:href="#Cmb10-47" transform="translate(95.898438 0)"/>
     <use xlink:href="#Cmr10-29" transform="translate(174.511719 0)"/>
    </g>
   </g>
   <g id="text_14">
    <!-- $\mathbf{U}\mathbf{V}^{\!\top}$ -->
    <g transform="translate(496.810132 46.094662) scale(0.145 -0.145)">
     <defs>
      <path id="Cmb10-55" d="M 819 1453 
L 819 4063 
L 219 4063 
L 219 4391 
L 2356 4391 
L 2356 4063 
L 1753 4063 
L 1753 1453 
Q 1753 1197 1784 987 
Q 1816 778 1902 612 
Q 1988 447 2158 351 
Q 2328 256 2597 256 
Q 2966 256 3222 407 
Q 3478 559 3604 832 
Q 3731 1106 3731 1478 
L 3731 4006 
Q 3731 4028 3672 4039 
Q 3613 4050 3578 4050 
Q 3431 4063 3128 4063 
L 3128 4391 
L 4697 4391 
L 4697 4063 
Q 4397 4063 4250 4050 
Q 4219 4050 4158 4039 
Q 4097 4028 4097 4006 
L 4097 1453 
Q 4097 1122 3990 842 
Q 3884 563 3687 356 
Q 3491 150 3209 39 
Q 2928 -72 2597 -72 
Q 2247 -72 1928 22 
Q 1609 116 1353 314 
Q 1097 513 958 798 
Q 819 1084 819 1453 
z
" transform="scale(0.015625)"/>
      <path id="Cmb10-56" d="M 2175 63 
L 666 4063 
L 141 4063 
L 141 4391 
L 2144 4391 
L 2144 4063 
L 1625 4063 
L 2700 1222 
L 3756 4013 
Q 3756 4028 3700 4036 
Q 3644 4044 3616 4044 
Q 3434 4063 3256 4063 
L 3256 4391 
L 4691 4391 
L 4691 4063 
Q 4522 4063 4340 4053 
Q 4159 4044 4147 4006 
L 2656 63 
Q 2616 -50 2491 -50 
L 2344 -50 
Q 2222 -50 2175 63 
z
" transform="scale(0.015625)"/>
      <path id="Cmsy10-3e" d="M 2363 122 
L 2363 4006 
L 481 4006 
Q 428 4006 393 4047 
Q 359 4088 359 4134 
Q 359 4181 393 4222 
Q 428 4263 481 4263 
L 4506 4263 
Q 4553 4263 4587 4222 
Q 4622 4181 4622 4134 
Q 4622 4088 4587 4047 
Q 4553 4006 4506 4006 
L 2619 4006 
L 2619 122 
Q 2619 69 2578 34 
Q 2538 0 2491 0 
Q 2438 0 2400 34 
Q 2363 69 2363 122 
z
" transform="scale(0.015625)"/>
     </defs>
     <use xlink:href="#Cmb10-55" transform="translate(0 0.109375)"/>
     <use xlink:href="#Cmb10-56" transform="translate(76.904297 0.109375)"/>
     <use xlink:href="#Cmsy10-3e" transform="translate(158.905017 38.373438) scale(0.7)"/>
    </g>
   </g>
   <g id="text_15">
    <!-- spectral: every $\sigma \to 1$ -->
    <g transform="translate(420.717302 17.46) scale(0.135 -0.135)">
     <defs>
      <path id="DejaVuSans-63" d="M 3122 3366 
L 3122 2828 
Q 2878 2963 2633 3030 
Q 2388 3097 2138 3097 
Q 1578 3097 1268 2742 
Q 959 2388 959 1747 
Q 959 1106 1268 751 
Q 1578 397 2138 397 
Q 2388 397 2633 464 
Q 2878 531 3122 666 
L 3122 134 
Q 2881 22 2623 -34 
Q 2366 -91 2075 -91 
Q 1284 -91 818 406 
Q 353 903 353 1747 
Q 353 2603 823 3093 
Q 1294 3584 2113 3584 
Q 2378 3584 2631 3529 
Q 2884 3475 3122 3366 
z
" transform="scale(0.015625)"/>
      <path id="DejaVuSans-76" d="M 191 3500 
L 800 3500 
L 1894 563 
L 2988 3500 
L 3597 3500 
L 2284 0 
L 1503 0 
L 191 3500 
z
" transform="scale(0.015625)"/>
      <path id="Cmsy10-21" d="M 481 1472 
Q 428 1472 393 1512 
Q 359 1553 359 1600 
Q 359 1647 393 1687 
Q 428 1728 481 1728 
L 5338 1728 
Q 5094 1903 4906 2133 
Q 4719 2363 4594 2627 
Q 4469 2891 4416 3188 
Q 4416 3272 4481 3272 
L 4609 3272 
Q 4631 3272 4648 3253 
Q 4666 3234 4672 3213 
Q 4725 2938 4839 2702 
Q 4953 2466 5125 2262 
Q 5297 2059 5509 1912 
Q 5722 1766 5991 1672 
Q 6034 1644 6034 1600 
Q 6034 1550 5991 1538 
Q 5656 1422 5378 1192 
Q 5100 963 4919 652 
Q 4738 341 4672 -13 
Q 4666 -34 4647 -53 
Q 4628 -72 4609 -72 
L 4481 -72 
Q 4416 -72 4416 13 
Q 4497 450 4740 836 
Q 4984 1222 5338 1472 
L 481 1472 
z
" transform="scale(0.015625)"/>
     </defs>
     <use xlink:href="#DejaVuSans-73" transform="translate(0 0.015625)"/>
     <use xlink:href="#DejaVuSans-70" transform="translate(52.099609 0.015625)"/>
     <use xlink:href="#DejaVuSans-65" transform="translate(115.576172 0.015625)"/>
     <use xlink:href="#DejaVuSans-63" transform="translate(177.099609 0.015625)"/>
     <use xlink:href="#DejaVuSans-74" transform="translate(232.080078 0.015625)"/>
     <use xlink:href="#DejaVuSans-72" transform="translate(271.289062 0.015625)"/>
     <use xlink:href="#DejaVuSans-61" transform="translate(312.402344 0.015625)"/>
     <use xlink:href="#DejaVuSans-6c" transform="translate(373.681641 0.015625)"/>
     <use xlink:href="#DejaVuSans-3a" transform="translate(401.464844 0.015625)"/>
     <use xlink:href="#DejaVuSans-20" transform="translate(435.15625 0.015625)"/>
     <use xlink:href="#DejaVuSans-65" transform="translate(466.943359 0.015625)"/>
     <use xlink:href="#DejaVuSans-76" transform="translate(528.466797 0.015625)"/>
     <use xlink:href="#DejaVuSans-65" transform="translate(587.646484 0.015625)"/>
     <use xlink:href="#DejaVuSans-72" transform="translate(649.169922 0.015625)"/>
     <use xlink:href="#DejaVuSans-79" transform="translate(690.283203 0.015625)"/>
     <use xlink:href="#DejaVuSans-20" transform="translate(749.462891 0.015625)"/>
     <use xlink:href="#Cmmi10-be" transform="translate(781.25 0.015625)"/>
     <use xlink:href="#Cmsy10-21" transform="translate(855.888672 0.015625)"/>
     <use xlink:href="#Cmr10-31" transform="translate(973.447266 0.015625)"/>
    </g>
   </g>
   <g id="line2d_10">
    <defs>
     <path id="m1e5da325f4" d="M 0 5 
C 1.326016 5 2.597899 4.473168 3.535534 3.535534 
C 4.473168 2.597899 5 1.326016 5 0 
C 5 -1.326016 4.473168 -2.597899 3.535534 -3.535534 
C 2.597899 -4.473168 1.326016 -5 0 -5 
C -1.326016 -5 -2.597899 -4.473168 -3.535534 -3.535534 
C -4.473168 -2.597899 -5 -1.326016 -5 0 
C -5 1.326016 -4.473168 2.597899 -3.535534 3.535534 
C -2.597899 4.473168 -1.326016 5 0 5 
z
" style="stroke: #ff7f0e"/>
    </defs>
    <g clip-path="url(#p79f757b14e)">
     <use xlink:href="#m1e5da325f4" x="533.656409" y="55.522761" style="fill: #ff7f0e; stroke: #ff7f0e"/>
    </g>
   </g>
  </g>
 </g>
 <defs>
  <clipPath id="p4ed2da0373">
   <rect x="13.29917" y="23.46" width="151.763736" height="151.763736"/>
  </clipPath>
  <clipPath id="p106d403770">
   <rect x="213.627302" y="23.46" width="151.763736" height="151.763736"/>
  </clipPath>
  <clipPath id="p79f757b14e">
   <rect x="413.955433" y="23.46" width="151.763736" height="151.763736"/>
  </clipPath>
 </defs>
</svg>
