<?xml version="1.0" encoding="utf-8" standalone="no"?>
<!DOCTYPE svg PUBLIC "-//W3C//DTD SVG 1.1//EN"
  "http://www.w3.org/Graphics/SVG/1.1/DTD/svg11.dtd">
<svg xmlns:xlink="http://www.w3.org/1999/xlink" width="326.88pt" height="162.117818pt" viewBox="0 0 326.88 162.117818" xmlns="http://www.w3.org/2000/svg" version="1.1">
 <metadata>
  <rdf:RDF xmlns:dc="http://purl.org/dc/elements/1.1/" xmlns:cc="http://creativecommons.org/ns#" xmlns:rdf="http://www.w3.org/1999/02/22-rdf-syntax-ns#">
   <cc:Work>
    <dc:type rdf:resource="http://purl.org/dc/dcmitype/StillImage"/>
    <dc:format>image/svg+xml</dc:format>
    <dc:creator>
     <cc:Agent>
      <dc:title>Matplotlib v3.10.8, https://matplotlib.org/</dc:title>
     </cc:Agent>
    </dc:creator>
   </cc:Work>
  </rdf:RDF>
 </metadata>
 <defs>
  <style type="text/css">*{stroke-linejoin: round; stroke-linecap: butt}</style>
 </defs>
 <g id="figure_1">
  <g id="patch_1">
   <path d="M 0 162.117818 
L 326.88 162.117818 
L 326.88 0 
L 0 0 
z
" style="fill: #ffffff"/>
  </g>
  <g id="axes_1">
   <g id="patch_2">
    <path d="M 51.052588 73.851095 
Q 78.218182 61.173818 104.066689 49.111181 
" style="fill: none; stroke: #7f7f7f; stroke-width: 1.3; stroke-linecap: round"/>
    <path d="M 99.149135 48.978274 
L 104.066689 49.111181 
L 101.009832 52.96548 
" style="fill: none; stroke: #7f7f7f; stroke-width: 1.3; stroke-linecap: round"/>
   </g>
   <g id="patch_3">
    <path d="M 51.052588 88.266723 
Q 78.218182 100.944 104.066689 113.006637 
" style="fill: none; stroke: #7f7f7f; stroke-width: 1.3; stroke-linecap: round"/>
    <path d="M 101.009832 109.152338 
L 104.066689 113.006637 
L 99.149135 113.139544 
" style="fill: none; stroke: #7f7f7f; stroke-width: 1.3; stroke-linecap: round"/>
   </g>
   <g id="patch_4">
    <path d="M 137.873455 41.288727 
Q 163.44 41.288727 187.553101 41.288727 
" style="fill: none; stroke: #7f7f7f; stroke-width: 1.3; stroke-linecap: round"/>
    <path d="M 183.153101 39.088727 
L 187.553101 41.288727 
L 183.153101 43.488727 
" style="fill: none; stroke: #7f7f7f; stroke-width: 1.3; stroke-linecap: round"/>
   </g>
   <g id="patch_5">
    <path d="M 137.873455 120.829091 
Q 163.44 120.829091 187.553101 120.829091 
" style="fill: none; stroke: #7f7f7f; stroke-width: 1.3; stroke-linecap: round"/>
    <path d="M 183.153101 118.629091 
L 187.553101 120.829091 
L 183.153101 123.029091 
" style="fill: none; stroke: #7f7f7f; stroke-width: 1.3; stroke-linecap: round"/>
   </g>
   <g id="patch_6">
    <path d="M 221.496224 48.496541 
Q 248.661818 61.173818 274.510326 73.236455 
" style="fill: none; stroke: #7f7f7f; stroke-width: 1.3; stroke-linecap: round"/>
    <path d="M 271.453468 69.382156 
L 274.510326 73.236455 
L 269.592772 73.369362 
" style="fill: none; stroke: #7f7f7f; stroke-width: 1.3; stroke-linecap: round"/>
   </g>
   <g id="patch_7">
    <path d="M 221.496224 113.621277 
Q 248.661818 100.944 274.510326 88.881363 
" style="fill: none; stroke: #7f7f7f; stroke-width: 1.3; stroke-linecap: round"/>
    <path d="M 269.592772 88.748456 
L 274.510326 88.881363 
L 271.453468 92.735662 
" style="fill: none; stroke: #7f7f7f; stroke-width: 1.3; stroke-linecap: round"/>
   </g>
   <g id="patch_8">
    <path d="M 137.427595 45.161711 
Q 206.050909 61.173818 273.2588 76.855659 
" style="fill: none; stroke: #7f7f7f; stroke-width: 1.3; stroke-linecap: round"/>
    <path d="M 269.473804 73.713398 
L 273.2588 76.855659 
L 268.473993 77.9983 
" style="fill: none; stroke: #7f7f7f; stroke-width: 1.3; stroke-linecap: round"/>
   </g>
   <g id="patch_9">
    <path d="M 35.607273 98.103273 
C 40.127491 98.103273 44.463181 96.307371 47.659458 93.111094 
C 50.855735 89.914817 52.651636 85.579127 52.651636 81.058909 
C 52.651636 76.538691 50.855735 72.203001 47.659458 69.006724 
C 44.463181 65.810447 40.127491 64.014545 35.607273 64.014545 
C 31.087055 64.014545 26.751364 65.810447 23.555088 69.006724 
C 20.358811 72.203001 18.562909 76.538691 18.562909 81.058909 
C 18.562909 85.579127 20.358811 89.914817 23.555088 93.111094 
C 26.751364 96.307371 31.087055 98.103273 35.607273 98.103273 
z
" clip-path="url(#p67500f4e24)" style="fill: #cfcfcf; stroke: #000000; stroke-width: 1.2; stroke-linejoin: miter"/>
   </g>
   <g id="patch_10">
    <path d="M 120.829091 58.333091 
C 125.349309 58.333091 129.684999 56.537189 132.881276 53.340912 
C 136.077553 50.144636 137.873455 45.808945 137.873455 41.288727 
C 137.873455 36.768509 136.077553 32.432819 132.881276 29.236542 
C 129.684999 26.040265 125.349309 24.244364 120.829091 24.244364 
C 116.308873 24.244364 111.973183 26.040265 108.776906 29.236542 
C 105.580629 32.432819 103.784727 36.768509 103.784727 41.288727 
C 103.784727 45.808945 105.580629 50.144636 108.776906 53.340912 
C 111.973183 56.537189 116.308873 58.333091 120.829091 58.333091 
z
" clip-path="url(#p67500f4e24)" style="fill: #cfcfcf; stroke: #000000; stroke-width: 1.2; stroke-linejoin: miter"/>
   </g>
   <g id="patch_11">
    <path d="M 120.829091 137.873455 
C 125.349309 137.873455 129.684999 136.077553 132.881276 132.881276 
C 136.077553 129.684999 137.873455 125.349309 137.873455 120.829091 
C 137.873455 116.308873 136.077553 111.973183 132.881276 108.776906 
C 129.684999 105.580629 125.349309 103.784727 120.829091 103.784727 
C 116.308873 103.784727 111.973183 105.580629 108.776906 108.776906 
C 105.580629 111.973183 103.784727 116.308873 103.784727 120.829091 
C 103.784727 125.349309 105.580629 129.684999 108.776906 132.881276 
C 111.973183 136.077553 116.308873 137.873455 120.829091 137.873455 
z
" clip-path="url(#p67500f4e24)" style="fill: #cfcfcf; stroke: #000000; stroke-width: 1.2; stroke-linejoin: miter"/>
   </g>
   <g id="patch_12">
    <path d="M 206.050909 58.333091 
C 210.571127 58.333091 214.906817 56.537189 218.103094 53.340912 
C 221.299371 50.144636 223.095273 45.808945 223.095273 41.288727 
C 223.095273 36.768509 221.299371 32.432819 218.103094 29.236542 
C 214.906817 26.040265 210.571127 24.244364 206.050909 24.244364 
C 201.530691 24.244364 197.195001 26.040265 193.998724 29.236542 
C 190.802447 32.432819 189.006545 36.768509 189.006545 41.288727 
C 189.006545 45.808945 190.802447 50.144636 193.998724 53.340912 
C 197.195001 56.537189 201.530691 58.333091 206.050909 58.333091 
z
" clip-path="url(#p67500f4e24)" style="fill: #cfcfcf; stroke: #000000; stroke-width: 1.2; stroke-linejoin: miter"/>
   </g>
   <g id="patch_13">
    <path d="M 206.050909 137.873455 
C 210.571127 137.873455 214.906817 136.077553 218.103094 132.881276 
C 221.299371 129.684999 223.095273 125.349309 223.095273 120.829091 
C 223.095273 116.308873 221.299371 111.973183 218.103094 108.776906 
C 214.906817 105.580629 210.571127 103.784727 206.050909 103.784727 
C 201.530691 103.784727 197.195001 105.580629 193.998724 108.776906 
C 190.802447 111.973183 189.006545 116.308873 189.006545 120.829091 
C 189.006545 125.349309 190.802447 129.684999 193.998724 132.881276 
C 197.195001 136.077553 201.530691 137.873455 206.050909 137.873455 
z
" clip-path="url(#p67500f4e24)" style="fill: #cfcfcf; stroke: #000000; stroke-width: 1.2; stroke-linejoin: miter"/>
   </g>
   <g id="patch_14">
    <path d="M 291.272727 98.103273 
C 295.792945 98.103273 300.128636 96.307371 303.324912 93.111094 
C 306.521189 89.914817 308.317091 85.579127 308.317091 81.058909 
C 308.317091 76.538691 306.521189 72.203001 303.324912 69.006724 
C 300.128636 65.810447 295.792945 64.014545 291.272727 64.014545 
C 286.752509 64.014545 282.416819 65.810447 279.220542 69.006724 
C 276.024265 72.203001 274.228364 76.538691 274.228364 81.058909 
C 274.228364 85.579127 276.024265 89.914817 279.220542 93.111094 
C 282.416819 96.307371 286.752509 98.103273 291.272727 98.103273 
z
" clip-path="url(#p67500f4e24)" style="fill: #cfcfcf; stroke: #000000; stroke-width: 1.2; stroke-linejoin: miter"/>
   </g>
   <g id="text_1">
    <!-- $y$ -->
    <g transform="translate(32.857273 84.071878) scale(0.11 -0.11)">
     <defs>
      <path id="Cmmi10-79" d="M 538 -916 
Q 672 -1147 1006 -1147 
Q 1309 -1147 1531 -934 
Q 1753 -722 1889 -420 
Q 2025 -119 2100 197 
Q 1816 -72 1484 -72 
Q 1231 -72 1053 15 
Q 875 103 776 276 
Q 678 450 678 697 
Q 678 906 734 1126 
Q 791 1347 892 1617 
Q 994 1888 1069 2088 
Q 1153 2322 1153 2472 
Q 1153 2663 1013 2663 
Q 759 2663 595 2402 
Q 431 2141 353 1819 
Q 341 1778 300 1778 
L 225 1778 
Q 172 1778 172 1838 
L 172 1856 
Q 275 2238 487 2533 
Q 700 2828 1025 2828 
Q 1253 2828 1411 2678 
Q 1569 2528 1569 2297 
Q 1569 2178 1516 2047 
Q 1488 1969 1388 1706 
Q 1288 1444 1234 1272 
Q 1181 1100 1147 934 
Q 1113 769 1113 603 
Q 1113 391 1203 244 
Q 1294 97 1491 97 
Q 1888 97 2203 581 
L 2688 2553 
Q 2709 2638 2787 2698 
Q 2866 2759 2956 2759 
Q 3034 2759 3092 2709 
Q 3150 2659 3150 2578 
Q 3150 2541 3144 2528 
L 2509 -19 
Q 2425 -347 2200 -647 
Q 1975 -947 1658 -1130 
Q 1341 -1313 997 -1313 
Q 831 -1313 668 -1248 
Q 506 -1184 406 -1056 
Q 306 -928 306 -756 
Q 306 -581 409 -453 
Q 513 -325 684 -325 
Q 788 -325 858 -389 
Q 928 -453 928 -556 
Q 928 -703 818 -812 
Q 709 -922 563 -922 
Q 556 -919 550 -917 
Q 544 -916 538 -916 
z
" transform="scale(0.015625)"/>
     </defs>
     <use xlink:href="#Cmmi10-79" transform="translate(0 0.8125)"/>
    </g>
   </g>
   <g id="text_2">
    <!-- $u$ -->
    <g transform="translate(117.639091 44.32404) scale(0.11 -0.11)">
     <defs>
      <path id="Cmmi10-75" d="M 678 697 
Q 678 906 734 1126 
Q 791 1347 892 1617 
Q 994 1888 1069 2088 
Q 1153 2322 1153 2472 
Q 1153 2663 1013 2663 
Q 759 2663 595 2402 
Q 431 2141 353 1819 
Q 341 1778 300 1778 
L 225 1778 
Q 172 1778 172 1838 
L 172 1856 
Q 275 2238 487 2533 
Q 700 2828 1025 2828 
Q 1253 2828 1411 2678 
Q 1569 2528 1569 2297 
Q 1569 2178 1516 2047 
Q 1488 1969 1388 1706 
Q 1288 1444 1234 1272 
Q 1181 1100 1147 934 
Q 1113 769 1113 603 
Q 1113 391 1203 244 
Q 1294 97 1497 97 
Q 1906 97 2216 603 
Q 2222 628 2226 651 
Q 2231 675 2234 697 
L 2694 2553 
Q 2716 2638 2794 2698 
Q 2872 2759 2963 2759 
Q 3041 2759 3098 2709 
Q 3156 2659 3156 2578 
Q 3156 2541 3150 2528 
L 2688 684 
Q 2644 494 2644 372 
Q 2644 97 2828 97 
Q 3034 97 3136 351 
Q 3238 606 3309 941 
Q 3322 978 3359 978 
L 3438 978 
Q 3463 978 3478 956 
Q 3494 934 3494 916 
Q 3425 641 3361 444 
Q 3297 247 3159 87 
Q 3022 -72 2816 -72 
Q 2613 -72 2452 39 
Q 2291 150 2234 341 
Q 2088 153 1894 40 
Q 1700 -72 1484 -72 
Q 1116 -72 897 129 
Q 678 331 678 697 
z
" transform="scale(0.015625)"/>
     </defs>
     <use xlink:href="#Cmmi10-75" transform="translate(0 0.8125)"/>
    </g>
   </g>
   <g id="text_3">
    <!-- $v$ -->
    <g transform="translate(118.134091 123.864403) scale(0.11 -0.11)">
     <defs>
      <path id="Cmmi10-76" d="M 684 722 
Q 684 866 718 1037 
Q 753 1209 787 1320 
Q 822 1431 944 1753 
Q 1066 2075 1069 2088 
Q 1153 2322 1153 2472 
Q 1153 2663 1013 2663 
Q 759 2663 595 2402 
Q 431 2141 353 1819 
Q 341 1778 300 1778 
L 225 1778 
Q 172 1778 172 1838 
L 172 1856 
Q 275 2238 487 2533 
Q 700 2828 1025 2828 
Q 1253 2828 1411 2678 
Q 1569 2528 1569 2297 
Q 1569 2178 1516 2047 
Q 1391 1722 1319 1526 
Q 1247 1331 1186 1089 
Q 1125 847 1125 641 
Q 1125 400 1236 248 
Q 1347 97 1581 97 
Q 2025 97 2381 781 
Q 2494 1003 2594 1303 
Q 2694 1603 2694 1791 
Q 2694 1984 2631 2092 
Q 2569 2200 2469 2317 
Q 2369 2434 2369 2503 
Q 2369 2628 2472 2731 
Q 2575 2834 2700 2834 
Q 2853 2834 2920 2693 
Q 2988 2553 2988 2375 
Q 2988 2163 2927 1869 
Q 2866 1575 2758 1259 
Q 2650 944 2559 763 
Q 2138 -72 1575 -72 
Q 1172 -72 928 129 
Q 684 331 684 722 
z
" transform="scale(0.015625)"/>
     </defs>
     <use xlink:href="#Cmmi10-76" transform="translate(0 0.71875)"/>
    </g>
   </g>
   <g id="text_4">
    <!-- $a$ -->
    <g transform="translate(203.135909 44.32404) scale(0.11 -0.11)">
     <defs>
      <path id="Cmmi10-61" d="M 1113 -72 
Q 709 -72 476 233 
Q 244 538 244 953 
Q 244 1363 456 1803 
Q 669 2244 1030 2536 
Q 1391 2828 1806 2828 
Q 1997 2828 2147 2725 
Q 2297 2622 2381 2444 
Q 2453 2700 2663 2700 
Q 2744 2700 2798 2651 
Q 2853 2603 2853 2522 
Q 2853 2503 2851 2493 
Q 2850 2484 2847 2472 
L 2400 684 
Q 2356 494 2356 372 
Q 2356 97 2541 97 
Q 2741 97 2845 351 
Q 2950 606 3022 941 
Q 3034 978 3072 978 
L 3150 978 
Q 3175 978 3190 956 
Q 3206 934 3206 916 
Q 3094 469 2961 198 
Q 2828 -72 2528 -72 
Q 2313 -72 2147 54 
Q 1981 181 1941 391 
Q 1528 -72 1113 -72 
z
M 1119 97 
Q 1350 97 1567 270 
Q 1784 444 1941 678 
Q 1947 684 1947 697 
L 2291 2088 
L 2297 2106 
Q 2259 2334 2132 2498 
Q 2006 2663 1791 2663 
Q 1575 2663 1389 2486 
Q 1203 2309 1075 2069 
Q 950 1813 836 1366 
Q 722 919 722 672 
Q 722 450 817 273 
Q 913 97 1119 97 
z
" transform="scale(0.015625)"/>
     </defs>
     <use xlink:href="#Cmmi10-61" transform="translate(0 0.8125)"/>
    </g>
   </g>
   <g id="text_5">
    <!-- $b$ -->
    <g transform="translate(203.685909 123.864403) scale(0.11 -0.11)">
     <defs>
      <path id="Cmmi10-62" d="M 1106 -72 
Q 719 -72 503 231 
Q 288 534 288 941 
Q 288 1000 317 1173 
Q 347 1347 347 1388 
L 966 3872 
Q 991 3981 997 4044 
Q 997 4147 581 4147 
Q 519 4147 519 4231 
Q 522 4247 533 4287 
Q 544 4328 561 4350 
Q 578 4372 609 4372 
L 1472 4441 
Q 1550 4441 1550 4359 
L 1075 2472 
Q 1438 2828 1806 2828 
Q 2078 2828 2273 2684 
Q 2469 2541 2566 2306 
Q 2663 2072 2663 1806 
Q 2663 1497 2542 1167 
Q 2422 838 2209 555 
Q 1997 272 1712 100 
Q 1428 -72 1106 -72 
z
M 1119 97 
Q 1338 97 1528 280 
Q 1719 463 1838 691 
Q 1966 947 2077 1386 
Q 2188 1825 2188 2088 
Q 2188 2316 2092 2489 
Q 1997 2663 1791 2663 
Q 1559 2663 1348 2492 
Q 1138 2322 978 2088 
L 800 1363 
Q 697 959 691 716 
Q 691 475 795 286 
Q 900 97 1119 97 
z
" transform="scale(0.015625)"/>
     </defs>
     <use xlink:href="#Cmmi10-62" transform="translate(0 0.609375)"/>
    </g>
   </g>
   <g id="text_6">
    <!-- $f$ -->
    <g transform="translate(288.577727 84.071878) scale(0.11 -0.11)">
     <defs>
      <path id="Cmmi10-66" d="M 622 -1056 
Q 741 -1147 909 -1147 
Q 1138 -1147 1281 -641 
Q 1341 -397 1606 966 
L 1900 2534 
L 1350 2534 
Q 1288 2534 1288 2619 
Q 1313 2759 1369 2759 
L 1941 2759 
L 2016 3175 
Q 2053 3369 2084 3508 
Q 2116 3647 2152 3765 
Q 2188 3884 2259 4031 
Q 2369 4241 2555 4377 
Q 2741 4513 2956 4513 
Q 3097 4513 3230 4461 
Q 3363 4409 3447 4306 
Q 3531 4203 3531 4063 
Q 3531 3900 3423 3779 
Q 3316 3659 3163 3659 
Q 3059 3659 2986 3723 
Q 2913 3788 2913 3891 
Q 2913 4031 3008 4136 
Q 3103 4241 3244 4256 
Q 3125 4347 2950 4347 
Q 2853 4347 2767 4256 
Q 2681 4166 2656 4063 
Q 2616 3900 2478 3181 
L 2400 2759 
L 3059 2759 
Q 3122 2759 3122 2675 
Q 3119 2659 3109 2620 
Q 3100 2581 3083 2557 
Q 3066 2534 3041 2534 
L 2356 2534 
L 2059 972 
Q 2003 631 1929 279 
Q 1856 -72 1723 -442 
Q 1591 -813 1384 -1063 
Q 1178 -1313 897 -1313 
Q 681 -1313 511 -1189 
Q 341 -1066 341 -863 
Q 341 -700 445 -579 
Q 550 -459 709 -459 
Q 816 -459 887 -523 
Q 959 -588 959 -691 
Q 959 -828 857 -942 
Q 756 -1056 622 -1056 
z
" transform="scale(0.015625)"/>
     </defs>
     <use xlink:href="#Cmmi10-66" transform="translate(0 0.484375)"/>
    </g>
   </g>
  </g>
 </g>
 <defs>
  <clipPath id="p67500f4e24">
   <rect x="7.2" y="7.2" width="312.48" height="147.717818"/>
  </clipPath>
 </defs>
</svg>
