<?xml version="1.0" encoding="utf-8" standalone="no"?>
<!DOCTYPE svg PUBLIC "-//W3C//DTD SVG 1.1//EN"
  "http://www.w3.org/Graphics/SVG/1.1/DTD/svg11.dtd">
<svg xmlns:xlink="http://www.w3.org/1999/xlink" width="527.76pt" height="256.824pt" viewBox="0 0 527.76 256.824" xmlns="http://www.w3.org/2000/svg" version="1.1">
 <metadata>
  <rdf:RDF xmlns:dc="http://purl.org/dc/elements/1.1/" xmlns:cc="http://creativecommons.org/ns#" xmlns:rdf="http://www.w3.org/1999/02/22-rdf-syntax-ns#">
   <cc:Work>
    <dc:type rdf:resource="http://purl.org/dc/dcmitype/StillImage"/>
    <dc:format>image/svg+xml</dc:format>
    <dc:creator>
     <cc:Agent>
      <dc:title>Matplotlib v3.10.8, https://matplotlib.org/</dc:title>
     </cc:Agent>
    </dc:creator>
   </cc:Work>
  </rdf:RDF>
 </metadata>
 <defs>
  <style type="text/css">*{stroke-linejoin: round; stroke-linecap: butt}</style>
 </defs>
 <g id="figure_1">
  <g id="patch_1">
   <path d="M 0 256.824 
L 527.76 256.824 
L 527.76 0 
L 0 0 
z
" style="fill: #ffffff"/>
  </g>
  <g id="axes_1">
   <g id="line2d_1">
    <path d="M 7.2 141.489087 
L 240.545455 141.489087 
" clip-path="url(#pa944f7cf01)" style="fill: none; stroke-dasharray: 6,3.6; stroke-dashoffset: 0; stroke: #7f7f7f; stroke-width: 1.2"/>
   </g>
   <g id="line2d_2">
    <path d="M 24.810978 115.007068 
L 187.712521 196.659961 
" clip-path="url(#pa944f7cf01)" style="fill: none; stroke-dasharray: 3.3,3.3; stroke-dashoffset: 0; stroke: #7f7f7f; stroke-width: 1.1"/>
   </g>
   <g id="line2d_3">
    <path d="M 24.810978 34.567934 
L 30.907085 45.662176 
L 37.003193 56.333333 
L 43.099301 66.581405 
L 49.195408 76.406391 
L 55.291516 85.808291 
L 61.387624 94.787106 
L 67.483731 103.342835 
L 72.902494 110.592745 
L 78.321256 117.508365 
L 83.740018 124.089695 
L 89.158781 130.336736 
L 94.577543 136.249487 
L 99.996306 141.827948 
L 105.415068 147.072119 
L 110.83383 151.982 
L 116.252593 156.557591 
L 120.99401 160.287012 
L 125.735427 163.760492 
L 130.476844 166.978031 
L 135.218261 169.93963 
L 139.959678 172.645288 
L 144.701095 175.095005 
L 149.442512 177.288782 
L 154.183929 179.226618 
L 158.925346 180.908513 
L 163.666763 182.334468 
L 168.40818 183.504483 
L 173.149598 184.418556 
L 177.891015 185.076689 
L 182.632432 185.478882 
L 187.373849 185.625133 
L 192.115266 185.515445 
L 196.856683 185.149815 
L 201.5981 184.528245 
L 206.339517 183.650734 
L 211.080934 182.517283 
L 215.822351 181.127891 
L 220.563768 179.482559 
L 225.305185 177.581285 
L 227.337221 176.688105 
L 227.337221 176.688105 
" clip-path="url(#pa944f7cf01)" style="fill: none; stroke: #1f77b4; stroke-width: 2.2; stroke-linecap: square"/>
   </g>
   <g id="line2d_4">
    <path d="M 24.810978 66.456699 
L 187.712521 229.762485 
" clip-path="url(#pa944f7cf01)" style="fill: none; stroke: #2ca02c; stroke-width: 1.8; stroke-linecap: square"/>
   </g>
   <g id="text_1">
    <!-- $g(\lambda)$ -->
    <g style="fill: #7f7f7f" transform="translate(107.582573 163.245565) scale(0.09 -0.09)">
     <defs>
      <path id="Cmmi10-67" d="M 91 -916 
Q 91 -759 198 -642 
Q 306 -525 459 -525 
Q 563 -525 633 -589 
Q 703 -653 703 -756 
Q 703 -872 637 -964 
Q 572 -1056 469 -1094 
Q 641 -1147 1006 -1147 
Q 1300 -1147 1544 -920 
Q 1788 -694 1863 -397 
L 2047 353 
Q 1700 0 1325 0 
Q 1050 0 854 140 
Q 659 281 556 515 
Q 453 750 453 1013 
Q 453 1306 573 1628 
Q 694 1950 911 2225 
Q 1128 2500 1409 2664 
Q 1691 2828 2003 2828 
Q 2191 2828 2341 2725 
Q 2491 2622 2578 2450 
Q 2641 2700 2853 2700 
Q 2934 2700 2990 2651 
Q 3047 2603 3047 2522 
Q 3047 2503 3045 2493 
Q 3044 2484 3041 2472 
L 2309 -434 
Q 2259 -634 2125 -800 
Q 1991 -966 1809 -1077 
Q 1628 -1188 1412 -1250 
Q 1197 -1313 997 -1313 
Q 631 -1313 361 -1242 
Q 91 -1172 91 -916 
z
M 1338 166 
Q 1747 166 2144 728 
L 2497 2125 
Q 2453 2347 2322 2505 
Q 2191 2663 1991 2663 
Q 1778 2663 1589 2489 
Q 1400 2316 1275 2075 
Q 1156 1844 1045 1411 
Q 934 978 934 728 
Q 934 509 1034 337 
Q 1134 166 1338 166 
z
" transform="scale(0.015625)"/>
      <path id="Cmr10-28" d="M 1984 -1588 
Q 1628 -1306 1370 -942 
Q 1113 -578 948 -165 
Q 784 247 703 697 
Q 622 1147 622 1600 
Q 622 2059 703 2509 
Q 784 2959 951 3375 
Q 1119 3791 1378 4153 
Q 1638 4516 1984 4788 
Q 1984 4800 2016 4800 
L 2075 4800 
Q 2094 4800 2109 4783 
Q 2125 4766 2125 4744 
Q 2125 4716 2113 4703 
Q 1800 4397 1592 4047 
Q 1384 3697 1257 3301 
Q 1131 2906 1075 2482 
Q 1019 2059 1019 1600 
Q 1019 -434 2106 -1491 
Q 2125 -1509 2125 -1544 
Q 2125 -1559 2108 -1579 
Q 2091 -1600 2075 -1600 
L 2016 -1600 
Q 1984 -1600 1984 -1588 
z
" transform="scale(0.015625)"/>
      <path id="Cmmi10-b8" d="M 325 109 
Q 325 203 409 288 
L 2209 2053 
L 1575 3834 
Q 1500 4038 1417 4156 
Q 1334 4275 1178 4275 
Q 1106 4275 1106 4359 
Q 1113 4397 1138 4419 
Q 1163 4441 1203 4441 
Q 1875 4441 2016 4044 
L 3316 416 
Q 3400 144 3488 50 
Q 3519 3 3519 -13 
Q 3519 -72 3469 -72 
L 3122 -72 
Q 2963 -25 2869 206 
L 2284 1844 
L 738 25 
Q 622 -84 531 -84 
Q 450 -84 387 -28 
Q 325 28 325 109 
z
" transform="scale(0.015625)"/>
      <path id="Cmr10-29" d="M 416 -1600 
Q 359 -1600 359 -1544 
Q 359 -1516 372 -1503 
Q 1466 -434 1466 1600 
Q 1466 3634 384 4691 
Q 359 4706 359 4744 
Q 359 4766 376 4783 
Q 394 4800 416 4800 
L 475 4800 
Q 494 4800 506 4788 
Q 966 4425 1272 3906 
Q 1578 3388 1720 2800 
Q 1863 2213 1863 1600 
Q 1863 1147 1786 708 
Q 1709 269 1542 -157 
Q 1375 -584 1119 -945 
Q 863 -1306 506 -1588 
Q 494 -1600 475 -1600 
L 416 -1600 
z
" transform="scale(0.015625)"/>
     </defs>
     <use xlink:href="#Cmmi10-67"/>
     <use xlink:href="#Cmr10-28" transform="translate(47.705078 0)"/>
     <use xlink:href="#Cmmi10-b8" transform="translate(86.523438 0)"/>
     <use xlink:href="#Cmr10-29" transform="translate(144.824219 0)"/>
    </g>
   </g>
   <g id="text_2">
    <!-- $d^\star=p^\star$ -->
    <g transform="translate(107.582573 133.775613) scale(0.095 -0.095)">
     <defs>
      <path id="Cmmi10-64" d="M 1113 -72 
Q 709 -72 476 233 
Q 244 538 244 953 
Q 244 1363 456 1803 
Q 669 2244 1030 2536 
Q 1391 2828 1806 2828 
Q 1994 2828 2145 2723 
Q 2297 2619 2381 2444 
L 2741 3872 
Q 2766 3981 2772 4044 
Q 2772 4147 2356 4147 
Q 2291 4147 2291 4231 
Q 2294 4247 2305 4287 
Q 2316 4328 2333 4350 
Q 2350 4372 2381 4372 
L 3244 4441 
Q 3322 4441 3322 4359 
L 2400 678 
Q 2356 572 2356 372 
Q 2356 97 2541 97 
Q 2741 97 2845 351 
Q 2950 606 3022 941 
Q 3034 978 3072 978 
L 3150 978 
Q 3175 978 3190 956 
Q 3206 934 3206 916 
Q 3094 469 2961 198 
Q 2828 -72 2528 -72 
Q 2313 -72 2147 54 
Q 1981 181 1941 391 
Q 1528 -72 1113 -72 
z
M 1119 97 
Q 1350 97 1567 270 
Q 1784 444 1941 678 
Q 1947 684 1947 703 
L 2297 2113 
Q 2259 2338 2131 2500 
Q 2003 2663 1791 2663 
Q 1575 2663 1389 2486 
Q 1203 2309 1075 2069 
Q 950 1813 836 1366 
Q 722 919 722 672 
Q 722 450 817 273 
Q 913 97 1119 97 
z
" transform="scale(0.015625)"/>
      <path id="STIXGeneral-Regular-22c6" d="M 4256 2336 
L 2810 1459 
L 3494 -83 
L 2240 1062 
L 986 -83 
L 1670 1459 
L 224 2336 
L 1901 2144 
L 2240 3821 
L 2579 2144 
L 4256 2336 
z
" transform="scale(0.015625)"/>
      <path id="Cmr10-3d" d="M 481 850 
Q 428 850 393 890 
Q 359 931 359 978 
Q 359 1031 393 1068 
Q 428 1106 481 1106 
L 4500 1106 
Q 4547 1106 4581 1068 
Q 4616 1031 4616 978 
Q 4616 931 4581 890 
Q 4547 850 4500 850 
L 481 850 
z
M 481 2094 
Q 428 2094 393 2131 
Q 359 2169 359 2222 
Q 359 2269 393 2309 
Q 428 2350 481 2350 
L 4500 2350 
Q 4547 2350 4581 2309 
Q 4616 2269 4616 2222 
Q 4616 2169 4581 2131 
Q 4547 2094 4500 2094 
L 481 2094 
z
" transform="scale(0.015625)"/>
      <path id="Cmmi10-70" d="M -159 -1241 
Q -219 -1241 -219 -1159 
Q -197 -1019 -134 -1019 
Q 66 -1019 145 -983 
Q 225 -947 269 -800 
L 991 2081 
Q 1038 2200 1038 2388 
Q 1038 2663 850 2663 
Q 650 2663 553 2423 
Q 456 2184 366 1819 
Q 366 1778 313 1778 
L 238 1778 
Q 222 1778 203 1801 
Q 184 1825 184 1844 
Q 253 2122 317 2315 
Q 381 2509 517 2668 
Q 653 2828 856 2828 
Q 1075 2828 1240 2704 
Q 1406 2581 1453 2369 
Q 1628 2572 1840 2700 
Q 2053 2828 2278 2828 
Q 2547 2828 2745 2684 
Q 2944 2541 3044 2308 
Q 3144 2075 3144 1806 
Q 3144 1394 2933 953 
Q 2722 513 2361 220 
Q 2000 -72 1588 -72 
Q 1400 -72 1248 34 
Q 1097 141 1013 313 
L 722 -825 
Q 706 -919 703 -934 
Q 703 -1019 1125 -1019 
Q 1191 -1019 1191 -1100 
Q 1169 -1184 1155 -1212 
Q 1141 -1241 1081 -1241 
L -159 -1241 
z
M 1594 97 
Q 1816 97 2006 280 
Q 2197 463 2316 691 
Q 2403 863 2479 1111 
Q 2556 1359 2612 1640 
Q 2669 1922 2669 2088 
Q 2669 2234 2630 2362 
Q 2591 2491 2502 2577 
Q 2413 2663 2266 2663 
Q 2031 2663 1823 2495 
Q 1616 2328 1447 2081 
L 1447 2059 
L 1094 647 
Q 1138 419 1263 258 
Q 1388 97 1594 97 
z
" transform="scale(0.015625)"/>
     </defs>
     <use xlink:href="#Cmmi10-64" transform="translate(0 0.94375)"/>
     <use xlink:href="#STIXGeneral-Regular-22c6" transform="translate(75.888906 39.207812) scale(0.7)"/>
     <use xlink:href="#Cmr10-3d" transform="translate(161.115849 0.94375)"/>
     <use xlink:href="#Cmmi10-70" transform="translate(256.359989 0.94375)"/>
     <use xlink:href="#STIXGeneral-Regular-22c6" transform="translate(325.247255 39.207812) scale(0.7)"/>
    </g>
   </g>
   <g id="text_3">
    <!-- $p^\star$ -->
    <g style="fill: #7f7f7f" transform="translate(24.810978 136.761198) scale(0.1 -0.1)">
     <use xlink:href="#Cmmi10-70" transform="translate(0 0.94375)"/>
     <use xlink:href="#STIXGeneral-Regular-22c6" transform="translate(68.887266 39.207812) scale(0.7)"/>
    </g>
   </g>
   <g id="text_4">
    <!-- feasible: $u\leq0$ -->
    <g style="fill: #ff7f0e" transform="translate(14.598602 53.550806) scale(0.09 -0.09)">
     <defs>
      <path id="DejaVuSans-66" d="M 2375 4863 
L 2375 4384 
L 1825 4384 
Q 1516 4384 1395 4259 
Q 1275 4134 1275 3809 
L 1275 3500 
L 2222 3500 
L 2222 3053 
L 1275 3053 
L 1275 0 
L 697 0 
L 697 3053 
L 147 3053 
L 147 3500 
L 697 3500 
L 697 3744 
Q 697 4328 969 4595 
Q 1241 4863 1831 4863 
L 2375 4863 
z
" transform="scale(0.015625)"/>
      <path id="DejaVuSans-65" d="M 3597 1894 
L 3597 1613 
L 953 1613 
Q 991 1019 1311 708 
Q 1631 397 2203 397 
Q 2534 397 2845 478 
Q 3156 559 3463 722 
L 3463 178 
Q 3153 47 2828 -22 
Q 2503 -91 2169 -91 
Q 1331 -91 842 396 
Q 353 884 353 1716 
Q 353 2575 817 3079 
Q 1281 3584 2069 3584 
Q 2775 3584 3186 3129 
Q 3597 2675 3597 1894 
z
M 3022 2063 
Q 3016 2534 2758 2815 
Q 2500 3097 2075 3097 
Q 1594 3097 1305 2825 
Q 1016 2553 972 2059 
L 3022 2063 
z
" transform="scale(0.015625)"/>
      <path id="DejaVuSans-61" d="M 2194 1759 
Q 1497 1759 1228 1600 
Q 959 1441 959 1056 
Q 959 750 1161 570 
Q 1363 391 1709 391 
Q 2188 391 2477 730 
Q 2766 1069 2766 1631 
L 2766 1759 
L 2194 1759 
z
M 3341 1997 
L 3341 0 
L 2766 0 
L 2766 531 
Q 2569 213 2275 61 
Q 1981 -91 1556 -91 
Q 1019 -91 701 211 
Q 384 513 384 1019 
Q 384 1609 779 1909 
Q 1175 2209 1959 2209 
L 2766 2209 
L 2766 2266 
Q 2766 2663 2505 2880 
Q 2244 3097 1772 3097 
Q 1472 3097 1187 3025 
Q 903 2953 641 2809 
L 641 3341 
Q 956 3463 1253 3523 
Q 1550 3584 1831 3584 
Q 2591 3584 2966 3190 
Q 3341 2797 3341 1997 
z
" transform="scale(0.015625)"/>
      <path id="DejaVuSans-73" d="M 2834 3397 
L 2834 2853 
Q 2591 2978 2328 3040 
Q 2066 3103 1784 3103 
Q 1356 3103 1142 2972 
Q 928 2841 928 2578 
Q 928 2378 1081 2264 
Q 1234 2150 1697 2047 
L 1894 2003 
Q 2506 1872 2764 1633 
Q 3022 1394 3022 966 
Q 3022 478 2636 193 
Q 2250 -91 1575 -91 
Q 1294 -91 989 -36 
Q 684 19 347 128 
L 347 722 
Q 666 556 975 473 
Q 1284 391 1588 391 
Q 1994 391 2212 530 
Q 2431 669 2431 922 
Q 2431 1156 2273 1281 
Q 2116 1406 1581 1522 
L 1381 1569 
Q 847 1681 609 1914 
Q 372 2147 372 2553 
Q 372 3047 722 3315 
Q 1072 3584 1716 3584 
Q 2034 3584 2315 3537 
Q 2597 3491 2834 3397 
z
" transform="scale(0.015625)"/>
      <path id="DejaVuSans-69" d="M 603 3500 
L 1178 3500 
L 1178 0 
L 603 0 
L 603 3500 
z
M 603 4863 
L 1178 4863 
L 1178 4134 
L 603 4134 
L 603 4863 
z
" transform="scale(0.015625)"/>
      <path id="DejaVuSans-62" d="M 3116 1747 
Q 3116 2381 2855 2742 
Q 2594 3103 2138 3103 
Q 1681 3103 1420 2742 
Q 1159 2381 1159 1747 
Q 1159 1113 1420 752 
Q 1681 391 2138 391 
Q 2594 391 2855 752 
Q 3116 1113 3116 1747 
z
M 1159 2969 
Q 1341 3281 1617 3432 
Q 1894 3584 2278 3584 
Q 2916 3584 3314 3078 
Q 3713 2572 3713 1747 
Q 3713 922 3314 415 
Q 2916 -91 2278 -91 
Q 1894 -91 1617 61 
Q 1341 213 1159 525 
L 1159 0 
L 581 0 
L 581 4863 
L 1159 4863 
L 1159 2969 
z
" transform="scale(0.015625)"/>
      <path id="DejaVuSans-6c" d="M 603 4863 
L 1178 4863 
L 1178 0 
L 603 0 
L 603 4863 
z
" transform="scale(0.015625)"/>
      <path id="DejaVuSans-3a" d="M 750 794 
L 1409 794 
L 1409 0 
L 750 0 
L 750 794 
z
M 750 3309 
L 1409 3309 
L 1409 2516 
L 750 2516 
L 750 3309 
z
" transform="scale(0.015625)"/>
      <path id="DejaVuSans-20" transform="scale(0.015625)"/>
      <path id="Cmmi10-75" d="M 678 697 
Q 678 906 734 1126 
Q 791 1347 892 1617 
Q 994 1888 1069 2088 
Q 1153 2322 1153 2472 
Q 1153 2663 1013 2663 
Q 759 2663 595 2402 
Q 431 2141 353 1819 
Q 341 1778 300 1778 
L 225 1778 
Q 172 1778 172 1838 
L 172 1856 
Q 275 2238 487 2533 
Q 700 2828 1025 2828 
Q 1253 2828 1411 2678 
Q 1569 2528 1569 2297 
Q 1569 2178 1516 2047 
Q 1488 1969 1388 1706 
Q 1288 1444 1234 1272 
Q 1181 1100 1147 934 
Q 1113 769 1113 603 
Q 1113 391 1203 244 
Q 1294 97 1497 97 
Q 1906 97 2216 603 
Q 2222 628 2226 651 
Q 2231 675 2234 697 
L 2694 2553 
Q 2716 2638 2794 2698 
Q 2872 2759 2963 2759 
Q 3041 2759 3098 2709 
Q 3156 2659 3156 2578 
Q 3156 2541 3150 2528 
L 2688 684 
Q 2644 494 2644 372 
Q 2644 97 2828 97 
Q 3034 97 3136 351 
Q 3238 606 3309 941 
Q 3322 978 3359 978 
L 3438 978 
Q 3463 978 3478 956 
Q 3494 934 3494 916 
Q 3425 641 3361 444 
Q 3297 247 3159 87 
Q 3022 -72 2816 -72 
Q 2613 -72 2452 39 
Q 2291 150 2234 341 
Q 2088 153 1894 40 
Q 1700 -72 1484 -72 
Q 1116 -72 897 129 
Q 678 331 678 697 
z
" transform="scale(0.015625)"/>
      <path id="Cmsy10-2219" d="M 653 -878 
Q 600 -878 565 -837 
Q 531 -797 531 -750 
Q 531 -697 565 -659 
Q 600 -622 653 -622 
L 4325 -622 
Q 4375 -622 4408 -659 
Q 4441 -697 4441 -750 
Q 4441 -797 4408 -837 
Q 4375 -878 4325 -878 
L 653 -878 
z
M 594 2113 
Q 531 2131 531 2222 
Q 531 2303 616 2338 
L 4269 4063 
Q 4281 4072 4313 4072 
Q 4366 4072 4403 4034 
Q 4441 3997 4441 3944 
Q 4441 3859 4366 3828 
L 959 2222 
L 4384 603 
Q 4441 572 4441 494 
Q 4441 438 4403 402 
Q 4366 366 4313 366 
Q 4281 366 4269 378 
L 594 2113 
z
" transform="scale(0.015625)"/>
      <path id="Cmr10-30" d="M 1600 -141 
Q 816 -141 533 504 
Q 250 1150 250 2041 
Q 250 2597 351 3087 
Q 453 3578 754 3920 
Q 1056 4263 1600 4263 
Q 2022 4263 2290 4056 
Q 2559 3850 2700 3523 
Q 2841 3197 2892 2823 
Q 2944 2450 2944 2041 
Q 2944 1491 2842 1011 
Q 2741 531 2444 195 
Q 2147 -141 1600 -141 
z
M 1600 25 
Q 1956 25 2131 390 
Q 2306 756 2347 1200 
Q 2388 1644 2388 2144 
Q 2388 2625 2347 3031 
Q 2306 3438 2132 3767 
Q 1959 4097 1600 4097 
Q 1238 4097 1063 3765 
Q 888 3434 847 3029 
Q 806 2625 806 2144 
Q 806 1788 823 1472 
Q 841 1156 916 820 
Q 991 484 1158 254 
Q 1325 25 1600 25 
z
" transform="scale(0.015625)"/>
     </defs>
     <use xlink:href="#DejaVuSans-66" transform="translate(0 0.015625)"/>
     <use xlink:href="#DejaVuSans-65" transform="translate(35.205078 0.015625)"/>
     <use xlink:href="#DejaVuSans-61" transform="translate(96.728516 0.015625)"/>
     <use xlink:href="#DejaVuSans-73" transform="translate(158.007812 0.015625)"/>
     <use xlink:href="#DejaVuSans-69" transform="translate(210.107422 0.015625)"/>
     <use xlink:href="#DejaVuSans-62" transform="translate(237.890625 0.015625)"/>
     <use xlink:href="#DejaVuSans-6c" transform="translate(301.367188 0.015625)"/>
     <use xlink:href="#DejaVuSans-65" transform="translate(329.150391 0.015625)"/>
     <use xlink:href="#DejaVuSans-3a" transform="translate(390.673828 0.015625)"/>
     <use xlink:href="#DejaVuSans-20" transform="translate(424.365234 0.015625)"/>
     <use xlink:href="#Cmmi10-75" transform="translate(456.152344 0.015625)"/>
     <use xlink:href="#Cmsy10-2219" transform="translate(530.888672 0.015625)"/>
     <use xlink:href="#Cmr10-30" transform="translate(626.132812 0.015625)"/>
    </g>
   </g>
   <g id="text_5">
    <!-- slope $-\lambda^\star$ -->
    <g style="fill: #2ca02c" transform="translate(148.246236 207.254692) rotate(-321) scale(0.09 -0.09)">
     <defs>
      <path id="DejaVuSans-6f" d="M 1959 3097 
Q 1497 3097 1228 2736 
Q 959 2375 959 1747 
Q 959 1119 1226 758 
Q 1494 397 1959 397 
Q 2419 397 2687 759 
Q 2956 1122 2956 1747 
Q 2956 2369 2687 2733 
Q 2419 3097 1959 3097 
z
M 1959 3584 
Q 2709 3584 3137 3096 
Q 3566 2609 3566 1747 
Q 3566 888 3137 398 
Q 2709 -91 1959 -91 
Q 1206 -91 779 398 
Q 353 888 353 1747 
Q 353 2609 779 3096 
Q 1206 3584 1959 3584 
z
" transform="scale(0.015625)"/>
      <path id="DejaVuSans-70" d="M 1159 525 
L 1159 -1331 
L 581 -1331 
L 581 3500 
L 1159 3500 
L 1159 2969 
Q 1341 3281 1617 3432 
Q 1894 3584 2278 3584 
Q 2916 3584 3314 3078 
Q 3713 2572 3713 1747 
Q 3713 922 3314 415 
Q 2916 -91 2278 -91 
Q 1894 -91 1617 61 
Q 1341 213 1159 525 
z
M 3116 1747 
Q 3116 2381 2855 2742 
Q 2594 3103 2138 3103 
Q 1681 3103 1420 2742 
Q 1159 2381 1159 1747 
Q 1159 1113 1420 752 
Q 1681 391 2138 391 
Q 2594 391 2855 752 
Q 3116 1113 3116 1747 
z
" transform="scale(0.015625)"/>
      <path id="Cmsy10-a1" d="M 653 1472 
Q 600 1472 565 1512 
Q 531 1553 531 1600 
Q 531 1647 565 1687 
Q 600 1728 653 1728 
L 4325 1728 
Q 4375 1728 4408 1687 
Q 4441 1647 4441 1600 
Q 4441 1553 4408 1512 
Q 4375 1472 4325 1472 
L 653 1472 
z
" transform="scale(0.015625)"/>
     </defs>
     <use xlink:href="#DejaVuSans-73" transform="translate(0 0.94375)"/>
     <use xlink:href="#DejaVuSans-6c" transform="translate(52.099609 0.94375)"/>
     <use xlink:href="#DejaVuSans-6f" transform="translate(79.882812 0.94375)"/>
     <use xlink:href="#DejaVuSans-70" transform="translate(141.064453 0.94375)"/>
     <use xlink:href="#DejaVuSans-65" transform="translate(204.541016 0.94375)"/>
     <use xlink:href="#DejaVuSans-20" transform="translate(266.064453 0.94375)"/>
     <use xlink:href="#Cmsy10-a1" transform="translate(297.851562 0.94375)"/>
     <use xlink:href="#Cmmi10-b8" transform="translate(375.537109 0.94375)"/>
     <use xlink:href="#STIXGeneral-Regular-22c6" transform="translate(457.724844 39.207812) scale(0.7)"/>
    </g>
   </g>
   <g id="patch_2">
    <path d="M 9.197479 185.625786 
Q 123.870686 185.625786 237.537663 185.625786 
" style="fill: none; stroke: #7f7f7f; stroke-width: 0.9; stroke-linecap: round"/>
    <path d="M 233.137663 183.425786 
L 237.537663 185.625786 
L 233.137663 187.825786 
" style="fill: none; stroke: #7f7f7f; stroke-width: 0.9; stroke-linecap: round"/>
   </g>
   <g id="patch_3">
    <path d="M 99.657633 241.000386 
Q 99.657633 134.865845 99.657633 29.737535 
" style="fill: none; stroke: #7f7f7f; stroke-width: 0.9; stroke-linecap: round"/>
    <path d="M 97.457633 34.137535 
L 99.657633 29.737535 
L 101.857633 34.137535 
" style="fill: none; stroke: #7f7f7f; stroke-width: 0.9; stroke-linecap: round"/>
   </g>
   <g id="text_6">
    <!-- constraint value $u$ -->
    <g style="fill: #7f7f7f" transform="translate(157.964357 200.408986) scale(0.09 -0.09)">
     <defs>
      <path id="DejaVuSans-63" d="M 3122 3366 
L 3122 2828 
Q 2878 2963 2633 3030 
Q 2388 3097 2138 3097 
Q 1578 3097 1268 2742 
Q 959 2388 959 1747 
Q 959 1106 1268 751 
Q 1578 397 2138 397 
Q 2388 397 2633 464 
Q 2878 531 3122 666 
L 3122 134 
Q 2881 22 2623 -34 
Q 2366 -91 2075 -91 
Q 1284 -91 818 406 
Q 353 903 353 1747 
Q 353 2603 823 3093 
Q 1294 3584 2113 3584 
Q 2378 3584 2631 3529 
Q 2884 3475 3122 3366 
z
" transform="scale(0.015625)"/>
      <path id="DejaVuSans-6e" d="M 3513 2113 
L 3513 0 
L 2938 0 
L 2938 2094 
Q 2938 2591 2744 2837 
Q 2550 3084 2163 3084 
Q 1697 3084 1428 2787 
Q 1159 2491 1159 1978 
L 1159 0 
L 581 0 
L 581 3500 
L 1159 3500 
L 1159 2956 
Q 1366 3272 1645 3428 
Q 1925 3584 2291 3584 
Q 2894 3584 3203 3211 
Q 3513 2838 3513 2113 
z
" transform="scale(0.015625)"/>
      <path id="DejaVuSans-74" d="M 1172 4494 
L 1172 3500 
L 2356 3500 
L 2356 3053 
L 1172 3053 
L 1172 1153 
Q 1172 725 1289 603 
Q 1406 481 1766 481 
L 2356 481 
L 2356 0 
L 1766 0 
Q 1100 0 847 248 
Q 594 497 594 1153 
L 594 3053 
L 172 3053 
L 172 3500 
L 594 3500 
L 594 4494 
L 1172 4494 
z
" transform="scale(0.015625)"/>
      <path id="DejaVuSans-72" d="M 2631 2963 
Q 2534 3019 2420 3045 
Q 2306 3072 2169 3072 
Q 1681 3072 1420 2755 
Q 1159 2438 1159 1844 
L 1159 0 
L 581 0 
L 581 3500 
L 1159 3500 
L 1159 2956 
Q 1341 3275 1631 3429 
Q 1922 3584 2338 3584 
Q 2397 3584 2469 3576 
Q 2541 3569 2628 3553 
L 2631 2963 
z
" transform="scale(0.015625)"/>
      <path id="DejaVuSans-76" d="M 191 3500 
L 800 3500 
L 1894 563 
L 2988 3500 
L 3597 3500 
L 2284 0 
L 1503 0 
L 191 3500 
z
" transform="scale(0.015625)"/>
      <path id="DejaVuSans-75" d="M 544 1381 
L 544 3500 
L 1119 3500 
L 1119 1403 
Q 1119 906 1312 657 
Q 1506 409 1894 409 
Q 2359 409 2629 706 
Q 2900 1003 2900 1516 
L 2900 3500 
L 3475 3500 
L 3475 0 
L 2900 0 
L 2900 538 
Q 2691 219 2414 64 
Q 2138 -91 1772 -91 
Q 1169 -91 856 284 
Q 544 659 544 1381 
z
M 1991 3584 
L 1991 3584 
z
" transform="scale(0.015625)"/>
     </defs>
     <use xlink:href="#DejaVuSans-63" transform="translate(0 0.015625)"/>
     <use xlink:href="#DejaVuSans-6f" transform="translate(54.980469 0.015625)"/>
     <use xlink:href="#DejaVuSans-6e" transform="translate(116.162109 0.015625)"/>
     <use xlink:href="#DejaVuSans-73" transform="translate(179.541016 0.015625)"/>
     <use xlink:href="#DejaVuSans-74" transform="translate(231.640625 0.015625)"/>
     <use xlink:href="#DejaVuSans-72" transform="translate(270.849609 0.015625)"/>
     <use xlink:href="#DejaVuSans-61" transform="translate(311.962891 0.015625)"/>
     <use xlink:href="#DejaVuSans-69" transform="translate(373.242188 0.015625)"/>
     <use xlink:href="#DejaVuSans-6e" transform="translate(401.025391 0.015625)"/>
     <use xlink:href="#DejaVuSans-74" transform="translate(464.404297 0.015625)"/>
     <use xlink:href="#DejaVuSans-20" transform="translate(503.613281 0.015625)"/>
     <use xlink:href="#DejaVuSans-76" transform="translate(535.400391 0.015625)"/>
     <use xlink:href="#DejaVuSans-61" transform="translate(594.580078 0.015625)"/>
     <use xlink:href="#DejaVuSans-6c" transform="translate(655.859375 0.015625)"/>
     <use xlink:href="#DejaVuSans-75" transform="translate(683.642578 0.015625)"/>
     <use xlink:href="#DejaVuSans-65" transform="translate(747.021484 0.015625)"/>
     <use xlink:href="#DejaVuSans-20" transform="translate(808.544922 0.015625)"/>
     <use xlink:href="#Cmmi10-75" transform="translate(840.332031 0.015625)"/>
    </g>
   </g>
   <g id="text_7">
    <!-- objective value -->
    <g style="fill: #7f7f7f" transform="translate(25.829496 35.779099) scale(0.09 -0.09)">
     <defs>
      <path id="DejaVuSans-6a" d="M 603 3500 
L 1178 3500 
L 1178 -63 
Q 1178 -731 923 -1031 
Q 669 -1331 103 -1331 
L -116 -1331 
L -116 -844 
L 38 -844 
Q 366 -844 484 -692 
Q 603 -541 603 -63 
L 603 3500 
z
M 603 4863 
L 1178 4863 
L 1178 4134 
L 603 4134 
L 603 4863 
z
" transform="scale(0.015625)"/>
     </defs>
     <use xlink:href="#DejaVuSans-6f"/>
     <use xlink:href="#DejaVuSans-62" transform="translate(61.181641 0)"/>
     <use xlink:href="#DejaVuSans-6a" transform="translate(124.658203 0)"/>
     <use xlink:href="#DejaVuSans-65" transform="translate(152.441406 0)"/>
     <use xlink:href="#DejaVuSans-63" transform="translate(213.964844 0)"/>
     <use xlink:href="#DejaVuSans-74" transform="translate(268.945312 0)"/>
     <use xlink:href="#DejaVuSans-69" transform="translate(308.154297 0)"/>
     <use xlink:href="#DejaVuSans-76" transform="translate(335.9375 0)"/>
     <use xlink:href="#DejaVuSans-65" transform="translate(395.117188 0)"/>
     <use xlink:href="#DejaVuSans-20" transform="translate(456.640625 0)"/>
     <use xlink:href="#DejaVuSans-76" transform="translate(488.427734 0)"/>
     <use xlink:href="#DejaVuSans-61" transform="translate(547.607422 0)"/>
     <use xlink:href="#DejaVuSans-6c" transform="translate(608.886719 0)"/>
     <use xlink:href="#DejaVuSans-75" transform="translate(636.669922 0)"/>
     <use xlink:href="#DejaVuSans-65" transform="translate(700.048828 0)"/>
    </g>
   </g>
   <g id="text_8">
    <!-- (a) convex $+$ Slater: strong duality -->
    <g transform="translate(20.312727 16.32) scale(0.12 -0.12)">
     <defs>
      <path id="DejaVuSans-28" d="M 1984 4856 
Q 1566 4138 1362 3434 
Q 1159 2731 1159 2009 
Q 1159 1288 1364 580 
Q 1569 -128 1984 -844 
L 1484 -844 
Q 1016 -109 783 600 
Q 550 1309 550 2009 
Q 550 2706 781 3412 
Q 1013 4119 1484 4856 
L 1984 4856 
z
" transform="scale(0.015625)"/>
      <path id="DejaVuSans-29" d="M 513 4856 
L 1013 4856 
Q 1481 4119 1714 3412 
Q 1947 2706 1947 2009 
Q 1947 1309 1714 600 
Q 1481 -109 1013 -844 
L 513 -844 
Q 928 -128 1133 580 
Q 1338 1288 1338 2009 
Q 1338 2731 1133 3434 
Q 928 4138 513 4856 
z
" transform="scale(0.015625)"/>
      <path id="DejaVuSans-78" d="M 3513 3500 
L 2247 1797 
L 3578 0 
L 2900 0 
L 1881 1375 
L 863 0 
L 184 0 
L 1544 1831 
L 300 3500 
L 978 3500 
L 1906 2253 
L 2834 3500 
L 3513 3500 
z
" transform="scale(0.015625)"/>
      <path id="Cmr10-2b" d="M 481 1472 
Q 428 1472 393 1512 
Q 359 1553 359 1600 
Q 359 1647 393 1687 
Q 428 1728 481 1728 
L 2363 1728 
L 2363 3616 
Q 2363 3666 2400 3698 
Q 2438 3731 2491 3731 
Q 2538 3731 2578 3698 
Q 2619 3666 2619 3616 
L 2619 1728 
L 4500 1728 
Q 4547 1728 4581 1687 
Q 4616 1647 4616 1600 
Q 4616 1553 4581 1512 
Q 4547 1472 4500 1472 
L 2619 1472 
L 2619 -416 
Q 2619 -466 2578 -498 
Q 2538 -531 2491 -531 
Q 2438 -531 2400 -498 
Q 2363 -466 2363 -416 
L 2363 1472 
L 481 1472 
z
" transform="scale(0.015625)"/>
      <path id="DejaVuSans-53" d="M 3425 4513 
L 3425 3897 
Q 3066 4069 2747 4153 
Q 2428 4238 2131 4238 
Q 1616 4238 1336 4038 
Q 1056 3838 1056 3469 
Q 1056 3159 1242 3001 
Q 1428 2844 1947 2747 
L 2328 2669 
Q 3034 2534 3370 2195 
Q 3706 1856 3706 1288 
Q 3706 609 3251 259 
Q 2797 -91 1919 -91 
Q 1588 -91 1214 -16 
Q 841 59 441 206 
L 441 856 
Q 825 641 1194 531 
Q 1563 422 1919 422 
Q 2459 422 2753 634 
Q 3047 847 3047 1241 
Q 3047 1584 2836 1778 
Q 2625 1972 2144 2069 
L 1759 2144 
Q 1053 2284 737 2584 
Q 422 2884 422 3419 
Q 422 4038 858 4394 
Q 1294 4750 2059 4750 
Q 2388 4750 2728 4690 
Q 3069 4631 3425 4513 
z
" transform="scale(0.015625)"/>
      <path id="DejaVuSans-67" d="M 2906 1791 
Q 2906 2416 2648 2759 
Q 2391 3103 1925 3103 
Q 1463 3103 1205 2759 
Q 947 2416 947 1791 
Q 947 1169 1205 825 
Q 1463 481 1925 481 
Q 2391 481 2648 825 
Q 2906 1169 2906 1791 
z
M 3481 434 
Q 3481 -459 3084 -895 
Q 2688 -1331 1869 -1331 
Q 1566 -1331 1297 -1286 
Q 1028 -1241 775 -1147 
L 775 -588 
Q 1028 -725 1275 -790 
Q 1522 -856 1778 -856 
Q 2344 -856 2625 -561 
Q 2906 -266 2906 331 
L 2906 616 
Q 2728 306 2450 153 
Q 2172 0 1784 0 
Q 1141 0 747 490 
Q 353 981 353 1791 
Q 353 2603 747 3093 
Q 1141 3584 1784 3584 
Q 2172 3584 2450 3431 
Q 2728 3278 2906 2969 
L 2906 3500 
L 3481 3500 
L 3481 434 
z
" transform="scale(0.015625)"/>
      <path id="DejaVuSans-64" d="M 2906 2969 
L 2906 4863 
L 3481 4863 
L 3481 0 
L 2906 0 
L 2906 525 
Q 2725 213 2448 61 
Q 2172 -91 1784 -91 
Q 1150 -91 751 415 
Q 353 922 353 1747 
Q 353 2572 751 3078 
Q 1150 3584 1784 3584 
Q 2172 3584 2448 3432 
Q 2725 3281 2906 2969 
z
M 947 1747 
Q 947 1113 1208 752 
Q 1469 391 1925 391 
Q 2381 391 2643 752 
Q 2906 1113 2906 1747 
Q 2906 2381 2643 2742 
Q 2381 3103 1925 3103 
Q 1469 3103 1208 2742 
Q 947 2381 947 1747 
z
" transform="scale(0.015625)"/>
      <path id="DejaVuSans-79" d="M 2059 -325 
Q 1816 -950 1584 -1140 
Q 1353 -1331 966 -1331 
L 506 -1331 
L 506 -850 
L 844 -850 
Q 1081 -850 1212 -737 
Q 1344 -625 1503 -206 
L 1606 56 
L 191 3500 
L 800 3500 
L 1894 763 
L 2988 3500 
L 3597 3500 
L 2059 -325 
z
" transform="scale(0.015625)"/>
     </defs>
     <use xlink:href="#DejaVuSans-28" transform="translate(0 0.015625)"/>
     <use xlink:href="#DejaVuSans-61" transform="translate(39.013672 0.015625)"/>
     <use xlink:href="#DejaVuSans-29" transform="translate(100.292969 0.015625)"/>
     <use xlink:href="#DejaVuSans-20" transform="translate(139.306641 0.015625)"/>
     <use xlink:href="#DejaVuSans-63" transform="translate(171.09375 0.015625)"/>
     <use xlink:href="#DejaVuSans-6f" transform="translate(226.074219 0.015625)"/>
     <use xlink:href="#DejaVuSans-6e" transform="translate(287.255859 0.015625)"/>
     <use xlink:href="#DejaVuSans-76" transform="translate(350.634766 0.015625)"/>
     <use xlink:href="#DejaVuSans-65" transform="translate(409.814453 0.015625)"/>
     <use xlink:href="#DejaVuSans-78" transform="translate(471.337891 0.015625)"/>
     <use xlink:href="#DejaVuSans-20" transform="translate(530.517578 0.015625)"/>
     <use xlink:href="#Cmr10-2b" transform="translate(562.304688 0.015625)"/>
     <use xlink:href="#DejaVuSans-20" transform="translate(639.990234 0.015625)"/>
     <use xlink:href="#DejaVuSans-53" transform="translate(671.777344 0.015625)"/>
     <use xlink:href="#DejaVuSans-6c" transform="translate(735.253906 0.015625)"/>
     <use xlink:href="#DejaVuSans-61" transform="translate(763.037109 0.015625)"/>
     <use xlink:href="#DejaVuSans-74" transform="translate(824.316406 0.015625)"/>
     <use xlink:href="#DejaVuSans-65" transform="translate(863.525391 0.015625)"/>
     <use xlink:href="#DejaVuSans-72" transform="translate(925.048828 0.015625)"/>
     <use xlink:href="#DejaVuSans-3a" transform="translate(966.162109 0.015625)"/>
     <use xlink:href="#DejaVuSans-20" transform="translate(999.853516 0.015625)"/>
     <use xlink:href="#DejaVuSans-73" transform="translate(1031.640625 0.015625)"/>
     <use xlink:href="#DejaVuSans-74" transform="translate(1083.740234 0.015625)"/>
     <use xlink:href="#DejaVuSans-72" transform="translate(1122.949219 0.015625)"/>
     <use xlink:href="#DejaVuSans-6f" transform="translate(1164.0625 0.015625)"/>
     <use xlink:href="#DejaVuSans-6e" transform="translate(1225.244141 0.015625)"/>
     <use xlink:href="#DejaVuSans-67" transform="translate(1288.623047 0.015625)"/>
     <use xlink:href="#DejaVuSans-20" transform="translate(1352.099609 0.015625)"/>
     <use xlink:href="#DejaVuSans-64" transform="translate(1383.886719 0.015625)"/>
     <use xlink:href="#DejaVuSans-75" transform="translate(1447.363281 0.015625)"/>
     <use xlink:href="#DejaVuSans-61" transform="translate(1510.742188 0.015625)"/>
     <use xlink:href="#DejaVuSans-6c" transform="translate(1572.021484 0.015625)"/>
     <use xlink:href="#DejaVuSans-69" transform="translate(1599.804688 0.015625)"/>
     <use xlink:href="#DejaVuSans-74" transform="translate(1627.587891 0.015625)"/>
     <use xlink:href="#DejaVuSans-79" transform="translate(1666.796875 0.015625)"/>
    </g>
   </g>
   <g id="line2d_5">
    <path d="M 24.810978 34.567934 
L 25.488323 35.821521 
L 26.165668 37.069884 
L 26.843014 38.313024 
L 27.520359 39.550941 
L 28.197704 40.783635 
L 28.875049 42.011105 
L 29.552395 43.233352 
L 30.22974 44.450376 
L 30.907085 45.662176 
L 31.584431 46.868754 
L 32.261776 48.070108 
L 32.939121 49.266238 
L 33.616467 50.457146 
L 34.293812 51.64283 
L 34.971157 52.823291 
L 35.648502 53.998528 
L 36.325848 55.168542 
L 37.003193 56.333333 
L 37.680538 57.492901 
L 38.357884 58.647246 
L 39.035229 59.796367 
L 39.712574 60.940265 
L 40.38992 62.078939 
L 41.067265 63.21239 
L 41.74461 64.340619 
L 42.421955 65.463623 
L 43.099301 66.581405 
L 43.776646 67.693963 
L 44.453991 68.801298 
L 45.131337 69.90341 
L 45.808682 71.000298 
L 46.486027 72.091963 
L 47.163372 73.178405 
L 47.840718 74.259623 
L 48.518063 75.335619 
L 49.195408 76.406391 
L 49.872754 77.471939 
L 50.550099 78.532265 
L 51.227444 79.587367 
L 51.90479 80.637246 
L 52.582135 81.681901 
L 53.25948 82.721334 
L 53.936825 83.755543 
L 54.614171 84.784529 
L 55.291516 85.808291 
L 55.968861 86.82683 
L 56.646207 87.840146 
L 57.323552 88.848239 
L 58.000897 89.851108 
L 58.678243 90.848754 
L 59.355588 91.841177 
L 60.032933 92.828377 
L 60.710278 93.810353 
L 61.387624 94.787106 
L 62.064969 95.758636 
L 62.742314 96.724942 
L 63.41966 97.686025 
L 64.097005 98.641885 
L 64.77435 99.592522 
L 65.451695 100.537935 
L 66.129041 101.478125 
L 66.806386 102.413092 
L 67.483731 103.342835 
L 68.161077 104.267356 
L 68.838422 105.186652 
L 69.515767 106.100726 
L 70.193113 107.009576 
L 70.870458 107.913204 
L 71.547803 108.811607 
L 72.225148 109.704788 
L 72.902494 110.592745 
L 73.579839 111.475479 
L 74.257184 112.35299 
L 74.93453 113.225277 
L 75.611875 114.092341 
L 76.28922 114.954182 
L 76.966566 115.8108 
L 77.643911 116.662194 
L 78.321256 117.508365 
L 78.998601 118.349313 
L 79.675947 119.185037 
L 80.353292 120.015539 
L 81.030637 120.840817 
L 81.707983 121.660871 
L 82.385328 122.475703 
L 83.062673 123.285311 
L 83.740018 124.089695 
L 84.417364 124.888857 
L 85.094709 125.682795 
L 85.772054 126.47151 
L 86.4494 127.255002 
L 87.126745 128.03327 
L 87.80409 128.806316 
L 88.481436 129.574137 
L 89.158781 130.336736 
L 89.836126 131.094111 
L 90.513471 131.846263 
L 91.190817 132.593192 
L 91.868162 133.334898 
L 92.545507 134.07138 
L 93.222853 134.802639 
L 93.900198 135.528674 
L 94.577543 136.249487 
L 95.254889 136.965076 
L 95.932234 137.675442 
L 96.609579 138.380584 
L 97.286924 139.080503 
L 97.96427 139.775199 
L 98.641615 140.464672 
L 99.31896 141.148921 
" clip-path="url(#pa944f7cf01)" style="fill: none; stroke: #ff7f0e; stroke-width: 3.2; stroke-linecap: square"/>
   </g>
   <g id="line2d_6">
    <defs>
     <path id="m3bd18fc017" d="M 0 2.25 
C 0.596707 2.25 1.169055 2.012926 1.59099 1.59099 
C 2.012926 1.169055 2.25 0.596707 2.25 0 
C 2.25 -0.596707 2.012926 -1.169055 1.59099 -1.59099 
C 1.169055 -2.012926 0.596707 -2.25 0 -2.25 
C -0.596707 -2.25 -1.169055 -2.012926 -1.59099 -1.59099 
C -2.012926 -1.169055 -2.25 -0.596707 -2.25 0 
C -2.25 0.596707 -2.012926 1.169055 -1.59099 1.59099 
C -1.169055 2.012926 -0.596707 2.25 0 2.25 
z
" style="stroke: #7f7f7f"/>
    </defs>
    <g clip-path="url(#pa944f7cf01)">
     <use xlink:href="#m3bd18fc017" x="99.657633" y="152.523262" style="fill: #7f7f7f; stroke: #7f7f7f"/>
    </g>
   </g>
   <g id="line2d_7">
    <defs>
     <path id="m1c2d251369" d="M 0 3 
C 0.795609 3 1.55874 2.683901 2.12132 2.12132 
C 2.683901 1.55874 3 0.795609 3 0 
C 3 -0.795609 2.683901 -1.55874 2.12132 -2.12132 
C 1.55874 -2.683901 0.795609 -3 0 -3 
C -0.795609 -3 -1.55874 -2.683901 -2.12132 -2.12132 
C -2.683901 -1.55874 -3 -0.795609 -3 0 
C -3 0.795609 -2.683901 1.55874 -2.12132 2.12132 
C -1.55874 2.683901 -0.795609 3 0 3 
z
" style="stroke: #000000"/>
    </defs>
    <g clip-path="url(#pa944f7cf01)">
     <use xlink:href="#m1c2d251369" x="99.657633" y="141.489087" style="stroke: #000000"/>
    </g>
   </g>
  </g>
  <g id="axes_2">
   <g id="line2d_8">
    <path d="M 287.214545 114.437937 
L 520.56 114.437937 
" clip-path="url(#p5a0e3e4e0b)" style="fill: none; stroke-dasharray: 6,3.6; stroke-dashoffset: 0; stroke: #7f7f7f; stroke-width: 1.2"/>
   </g>
   <g id="line2d_9">
    <path d="M 312.104727 55.817432 
L 436.555636 247.231326 
" clip-path="url(#p5a0e3e4e0b)" style="fill: none; stroke-dasharray: 3.3,3.3; stroke-dashoffset: 0; stroke: #7f7f7f; stroke-width: 1.1"/>
   </g>
   <g id="line2d_10">
    <path d="M 330.772364 84.529516 
L 335.454881 84.637908 
L 340.137399 84.963083 
L 344.819916 85.505041 
L 349.502434 86.263783 
L 354.184951 87.239309 
L 358.867469 88.431618 
L 363.549986 89.84071 
L 368.232503 91.466586 
L 372.915021 93.309245 
L 378.117818 95.610897 
L 383.320615 98.180182 
L 388.523413 101.017101 
L 393.72621 104.121654 
L 398.929007 107.493841 
L 404.131804 111.133662 
L 409.334601 115.041117 
L 414.537399 119.216205 
L 419.740196 123.658928 
L 425.463273 128.85504 
L 431.18635 134.374988 
L 436.909427 140.218774 
L 442.632503 146.386397 
L 448.35558 152.877857 
L 454.078657 159.693154 
L 459.801734 166.832288 
L 466.045091 174.989769 
L 472.288448 183.532642 
L 478.531804 192.460908 
L 484.775161 201.774568 
L 486.336 204.1632 
L 486.336 204.1632 
" clip-path="url(#p5a0e3e4e0b)" style="fill: none; stroke: #1f77b4; stroke-width: 2.2; stroke-linecap: square"/>
   </g>
   <g id="line2d_11">
    <path d="M 305.882182 65.388126 
L 495.669818 211.341221 
" clip-path="url(#p5a0e3e4e0b)" style="fill: none; stroke: #2ca02c; stroke-width: 1.8; stroke-linecap: square"/>
   </g>
   <g id="text_9">
    <!-- $p^\star$ -->
    <g transform="translate(387.853818 106.974734) scale(0.1 -0.1)">
     <use xlink:href="#Cmmi10-70" transform="translate(0 0.94375)"/>
     <use xlink:href="#STIXGeneral-Regular-22c6" transform="translate(68.887266 39.207812) scale(0.7)"/>
    </g>
   </g>
   <g id="text_10">
    <!-- $d^\star$ -->
    <g style="fill: #2ca02c" transform="translate(387.153818 157.328311) scale(0.1 -0.1)">
     <use xlink:href="#Cmmi10-64" transform="translate(0 0.94375)"/>
     <use xlink:href="#STIXGeneral-Regular-22c6" transform="translate(75.888906 39.207812) scale(0.7)"/>
    </g>
   </g>
   <g id="patch_4">
    <path d="M 415.554545 140.517058 
Q 415.554545 129.390873 415.554545 118.264687 
" style="fill: none; stroke: #7f7f7f; stroke-width: 1.1; stroke-linecap: round"/>
    <path d="M 417.754545 136.117058 
L 415.554545 140.517058 
L 413.354545 136.117058 
" style="fill: none; stroke: #7f7f7f; stroke-width: 1.1; stroke-linecap: round"/>
    <path d="M 413.354545 122.664687 
L 415.554545 118.264687 
L 417.754545 122.664687 
" style="fill: none; stroke: #7f7f7f; stroke-width: 1.1; stroke-linecap: round"/>
   </g>
   <g id="text_11">
    <!-- duality gap -->
    <g style="fill: #7f7f7f" transform="translate(421.777091 132.013554) scale(0.095 -0.095)">
     <use xlink:href="#DejaVuSans-64"/>
     <use xlink:href="#DejaVuSans-75" transform="translate(63.476562 0)"/>
     <use xlink:href="#DejaVuSans-61" transform="translate(126.855469 0)"/>
     <use xlink:href="#DejaVuSans-6c" transform="translate(188.134766 0)"/>
     <use xlink:href="#DejaVuSans-69" transform="translate(215.917969 0)"/>
     <use xlink:href="#DejaVuSans-74" transform="translate(243.701172 0)"/>
     <use xlink:href="#DejaVuSans-79" transform="translate(282.910156 0)"/>
     <use xlink:href="#DejaVuSans-20" transform="translate(342.089844 0)"/>
     <use xlink:href="#DejaVuSans-67" transform="translate(373.876953 0)"/>
     <use xlink:href="#DejaVuSans-61" transform="translate(437.353516 0)"/>
     <use xlink:href="#DejaVuSans-70" transform="translate(498.632812 0)"/>
    </g>
   </g>
   <g id="text_12">
    <!-- feasible: $u\leq0$ -->
    <g style="fill: #ff7f0e" transform="translate(322.086273 70.694429) scale(0.09 -0.09)">
     <use xlink:href="#DejaVuSans-66" transform="translate(0 0.015625)"/>
     <use xlink:href="#DejaVuSans-65" transform="translate(35.205078 0.015625)"/>
     <use xlink:href="#DejaVuSans-61" transform="translate(96.728516 0.015625)"/>
     <use xlink:href="#DejaVuSans-73" transform="translate(158.007812 0.015625)"/>
     <use xlink:href="#DejaVuSans-69" transform="translate(210.107422 0.015625)"/>
     <use xlink:href="#DejaVuSans-62" transform="translate(237.890625 0.015625)"/>
     <use xlink:href="#DejaVuSans-6c" transform="translate(301.367188 0.015625)"/>
     <use xlink:href="#DejaVuSans-65" transform="translate(329.150391 0.015625)"/>
     <use xlink:href="#DejaVuSans-3a" transform="translate(390.673828 0.015625)"/>
     <use xlink:href="#DejaVuSans-20" transform="translate(424.365234 0.015625)"/>
     <use xlink:href="#Cmmi10-75" transform="translate(456.152344 0.015625)"/>
     <use xlink:href="#Cmsy10-2219" transform="translate(530.888672 0.015625)"/>
     <use xlink:href="#Cmr10-30" transform="translate(626.132812 0.015625)"/>
    </g>
   </g>
   <g id="text_13">
    <!-- slope $-\lambda^\star$ -->
    <g style="fill: #2ca02c" transform="translate(439.361579 183.700196) rotate(-323) scale(0.09 -0.09)">
     <use xlink:href="#DejaVuSans-73" transform="translate(0 0.94375)"/>
     <use xlink:href="#DejaVuSans-6c" transform="translate(52.099609 0.94375)"/>
     <use xlink:href="#DejaVuSans-6f" transform="translate(79.882812 0.94375)"/>
     <use xlink:href="#DejaVuSans-70" transform="translate(141.064453 0.94375)"/>
     <use xlink:href="#DejaVuSans-65" transform="translate(204.541016 0.94375)"/>
     <use xlink:href="#DejaVuSans-20" transform="translate(266.064453 0.94375)"/>
     <use xlink:href="#Cmsy10-a1" transform="translate(297.851562 0.94375)"/>
     <use xlink:href="#Cmmi10-b8" transform="translate(375.537109 0.94375)"/>
     <use xlink:href="#STIXGeneral-Regular-22c6" transform="translate(457.724844 39.207812) scale(0.7)"/>
    </g>
   </g>
   <g id="patch_5">
    <path d="M 289.212025 84.529516 
Q 403.885232 84.529516 517.552208 84.529516 
" style="fill: none; stroke: #7f7f7f; stroke-width: 0.9; stroke-linecap: round"/>
    <path d="M 513.152208 82.329516 
L 517.552208 84.529516 
L 513.152208 86.729516 
" style="fill: none; stroke: #7f7f7f; stroke-width: 0.9; stroke-linecap: round"/>
   </g>
   <g id="patch_6">
    <path d="M 408.554182 240.44808 
Q 408.554182 138.364523 408.554182 37.287197 
" style="fill: none; stroke: #7f7f7f; stroke-width: 0.9; stroke-linecap: round"/>
    <path d="M 406.354182 41.687197 
L 408.554182 37.287197 
L 410.754182 41.687197 
" style="fill: none; stroke: #7f7f7f; stroke-width: 0.9; stroke-linecap: round"/>
   </g>
   <g id="text_14">
    <!-- constraint value $u$ -->
    <g style="fill: #7f7f7f" transform="translate(436.628727 97.349794) scale(0.09 -0.09)">
     <use xlink:href="#DejaVuSans-63" transform="translate(0 0.015625)"/>
     <use xlink:href="#DejaVuSans-6f" transform="translate(54.980469 0.015625)"/>
     <use xlink:href="#DejaVuSans-6e" transform="translate(116.162109 0.015625)"/>
     <use xlink:href="#DejaVuSans-73" transform="translate(179.541016 0.015625)"/>
     <use xlink:href="#DejaVuSans-74" transform="translate(231.640625 0.015625)"/>
     <use xlink:href="#DejaVuSans-72" transform="translate(270.849609 0.015625)"/>
     <use xlink:href="#DejaVuSans-61" transform="translate(311.962891 0.015625)"/>
     <use xlink:href="#DejaVuSans-69" transform="translate(373.242188 0.015625)"/>
     <use xlink:href="#DejaVuSans-6e" transform="translate(401.025391 0.015625)"/>
     <use xlink:href="#DejaVuSans-74" transform="translate(464.404297 0.015625)"/>
     <use xlink:href="#DejaVuSans-20" transform="translate(503.613281 0.015625)"/>
     <use xlink:href="#DejaVuSans-76" transform="translate(535.400391 0.015625)"/>
     <use xlink:href="#DejaVuSans-61" transform="translate(594.580078 0.015625)"/>
     <use xlink:href="#DejaVuSans-6c" transform="translate(655.859375 0.015625)"/>
     <use xlink:href="#DejaVuSans-75" transform="translate(683.642578 0.015625)"/>
     <use xlink:href="#DejaVuSans-65" transform="translate(747.021484 0.015625)"/>
     <use xlink:href="#DejaVuSans-20" transform="translate(808.544922 0.015625)"/>
     <use xlink:href="#Cmmi10-75" transform="translate(840.332031 0.015625)"/>
    </g>
   </g>
   <g id="text_15">
    <!-- objective value -->
    <g style="fill: #7f7f7f" transform="translate(336.120247 43.514636) scale(0.09 -0.09)">
     <use xlink:href="#DejaVuSans-6f"/>
     <use xlink:href="#DejaVuSans-62" transform="translate(61.181641 0)"/>
     <use xlink:href="#DejaVuSans-6a" transform="translate(124.658203 0)"/>
     <use xlink:href="#DejaVuSans-65" transform="translate(152.441406 0)"/>
     <use xlink:href="#DejaVuSans-63" transform="translate(213.964844 0)"/>
     <use xlink:href="#DejaVuSans-74" transform="translate(268.945312 0)"/>
     <use xlink:href="#DejaVuSans-69" transform="translate(308.154297 0)"/>
     <use xlink:href="#DejaVuSans-76" transform="translate(335.9375 0)"/>
     <use xlink:href="#DejaVuSans-65" transform="translate(395.117188 0)"/>
     <use xlink:href="#DejaVuSans-20" transform="translate(456.640625 0)"/>
     <use xlink:href="#DejaVuSans-76" transform="translate(488.427734 0)"/>
     <use xlink:href="#DejaVuSans-61" transform="translate(547.607422 0)"/>
     <use xlink:href="#DejaVuSans-6c" transform="translate(608.886719 0)"/>
     <use xlink:href="#DejaVuSans-75" transform="translate(636.669922 0)"/>
     <use xlink:href="#DejaVuSans-65" transform="translate(700.048828 0)"/>
    </g>
   </g>
   <g id="text_16">
    <!-- (b) non-convex: duality gap -->
    <g transform="translate(320.93071 16.32) scale(0.12 -0.12)">
     <defs>
      <path id="DejaVuSans-2d" d="M 313 2009 
L 1997 2009 
L 1997 1497 
L 313 1497 
L 313 2009 
z
" transform="scale(0.015625)"/>
     </defs>
     <use xlink:href="#DejaVuSans-28"/>
     <use xlink:href="#DejaVuSans-62" transform="translate(39.013672 0)"/>
     <use xlink:href="#DejaVuSans-29" transform="translate(102.490234 0)"/>
     <use xlink:href="#DejaVuSans-20" transform="translate(141.503906 0)"/>
     <use xlink:href="#DejaVuSans-6e" transform="translate(173.291016 0)"/>
     <use xlink:href="#DejaVuSans-6f" transform="translate(236.669922 0)"/>
     <use xlink:href="#DejaVuSans-6e" transform="translate(297.851562 0)"/>
     <use xlink:href="#DejaVuSans-2d" transform="translate(361.230469 0)"/>
     <use xlink:href="#DejaVuSans-63" transform="translate(397.314453 0)"/>
     <use xlink:href="#DejaVuSans-6f" transform="translate(452.294922 0)"/>
     <use xlink:href="#DejaVuSans-6e" transform="translate(513.476562 0)"/>
     <use xlink:href="#DejaVuSans-76" transform="translate(576.855469 0)"/>
     <use xlink:href="#DejaVuSans-65" transform="translate(636.035156 0)"/>
     <use xlink:href="#DejaVuSans-78" transform="translate(695.808594 0)"/>
     <use xlink:href="#DejaVuSans-3a" transform="translate(754.988281 0)"/>
     <use xlink:href="#DejaVuSans-20" transform="translate(788.679688 0)"/>
     <use xlink:href="#DejaVuSans-64" transform="translate(820.466797 0)"/>
     <use xlink:href="#DejaVuSans-75" transform="translate(883.943359 0)"/>
     <use xlink:href="#DejaVuSans-61" transform="translate(947.322266 0)"/>
     <use xlink:href="#DejaVuSans-6c" transform="translate(1008.601562 0)"/>
     <use xlink:href="#DejaVuSans-69" transform="translate(1036.384766 0)"/>
     <use xlink:href="#DejaVuSans-74" transform="translate(1064.167969 0)"/>
     <use xlink:href="#DejaVuSans-79" transform="translate(1103.376953 0)"/>
     <use xlink:href="#DejaVuSans-20" transform="translate(1162.556641 0)"/>
     <use xlink:href="#DejaVuSans-67" transform="translate(1194.34375 0)"/>
     <use xlink:href="#DejaVuSans-61" transform="translate(1257.820312 0)"/>
     <use xlink:href="#DejaVuSans-70" transform="translate(1319.099609 0)"/>
    </g>
   </g>
   <g id="line2d_12">
    <path d="M 330.772364 84.529516 
L 335.454881 84.637908 
L 340.137399 84.963083 
L 344.819916 85.505041 
L 349.502434 86.263783 
L 354.184951 87.239309 
L 358.867469 88.431618 
L 363.549986 89.84071 
L 368.232503 91.466586 
L 372.915021 93.309245 
L 378.117818 95.610897 
L 383.320615 98.180182 
L 388.523413 101.017101 
L 393.72621 104.121654 
L 398.929007 107.493841 
L 404.131804 111.133662 
L 408.294042 114.238215 
L 408.294042 114.238215 
" clip-path="url(#p5a0e3e4e0b)" style="fill: none; stroke: #ff7f0e; stroke-width: 3.2; stroke-linecap: square"/>
   </g>
   <g id="line2d_13">
    <g clip-path="url(#p5a0e3e4e0b)">
     <use xlink:href="#m1c2d251369" x="408.554182" y="114.437937" style="stroke: #000000"/>
    </g>
   </g>
   <g id="line2d_14">
    <defs>
     <path id="m4c038252ae" d="M 0 3 
C 0.795609 3 1.55874 2.683901 2.12132 2.12132 
C 2.683901 1.55874 3 0.795609 3 0 
C 3 -0.795609 2.683901 -1.55874 2.12132 -2.12132 
C 1.55874 -2.683901 0.795609 -3 0 -3 
C -0.795609 -3 -1.55874 -2.683901 -2.12132 -2.12132 
C -2.683901 -1.55874 -3 -0.795609 -3 0 
C -3 0.795609 -2.683901 1.55874 -2.12132 2.12132 
C -1.55874 2.683901 -0.795609 3 0 3 
z
" style="stroke: #2ca02c"/>
    </defs>
    <g clip-path="url(#p5a0e3e4e0b)">
     <use xlink:href="#m4c038252ae" x="408.554182" y="144.346358" style="fill: #2ca02c; stroke: #2ca02c"/>
    </g>
   </g>
  </g>
 </g>
 <defs>
  <clipPath id="pa944f7cf01">
   <rect x="7.2" y="22.32" width="233.345455" height="227.304"/>
  </clipPath>
  <clipPath id="p5a0e3e4e0b">
   <rect x="287.214545" y="22.32" width="233.345455" height="227.304"/>
  </clipPath>
 </defs>
</svg>
