<?xml version="1.0" encoding="utf-8" standalone="no"?>
<!DOCTYPE svg PUBLIC "-//W3C//DTD SVG 1.1//EN"
  "http://www.w3.org/Graphics/SVG/1.1/DTD/svg11.dtd">
<svg xmlns:xlink="http://www.w3.org/1999/xlink" width="262.853333pt" height="258.336pt" viewBox="0 0 262.853333 258.336" xmlns="http://www.w3.org/2000/svg" version="1.1">
 <metadata>
  <rdf:RDF xmlns:dc="http://purl.org/dc/elements/1.1/" xmlns:cc="http://creativecommons.org/ns#" xmlns:rdf="http://www.w3.org/1999/02/22-rdf-syntax-ns#">
   <cc:Work>
    <dc:type rdf:resource="http://purl.org/dc/dcmitype/StillImage"/>
    <dc:format>image/svg+xml</dc:format>
    <dc:creator>
     <cc:Agent>
      <dc:title>Matplotlib v3.10.8, https://matplotlib.org/</dc:title>
     </cc:Agent>
    </dc:creator>
   </cc:Work>
  </rdf:RDF>
 </metadata>
 <defs>
  <style type="text/css">*{stroke-linejoin: round; stroke-linecap: butt}</style>
 </defs>
 <g id="figure_1">
  <g id="patch_1">
   <path d="M 0 258.336 
L 262.853333 258.336 
L 262.853333 0 
L 0 0 
z
" style="fill: #ffffff"/>
  </g>
  <g id="axes_1">
   <g id="patch_2">
    <path d="M 70.442667 151.754667 
L 160.789333 151.754667 
L 160.789333 61.408 
L 70.442667 61.408 
z
" clip-path="url(#p732ddc209d)" style="fill: #2ca02c; opacity: 0.16; stroke: #7f7f7f; stroke-width: 1.4; stroke-linejoin: miter"/>
   </g>
   <g id="patch_3">
    <path d="M 160.789333 151.754667 
L 251.136 151.754667 
L 251.136 61.408 
L 160.789333 61.408 
z
" clip-path="url(#p732ddc209d)" style="fill: #ff7f0e; opacity: 0.22; stroke: #7f7f7f; stroke-width: 1.4; stroke-linejoin: miter"/>
   </g>
   <g id="patch_4">
    <path d="M 70.442667 242.101333 
L 160.789333 242.101333 
L 160.789333 151.754667 
L 70.442667 151.754667 
z
" clip-path="url(#p732ddc209d)" style="fill: #ff7f0e; opacity: 0.22; stroke: #7f7f7f; stroke-width: 1.4; stroke-linejoin: miter"/>
   </g>
   <g id="patch_5">
    <path d="M 160.789333 242.101333 
L 251.136 242.101333 
L 251.136 151.754667 
L 160.789333 151.754667 
z
" clip-path="url(#p732ddc209d)" style="fill: #2ca02c; opacity: 0.16; stroke: #7f7f7f; stroke-width: 1.4; stroke-linejoin: miter"/>
   </g>
   <g id="text_1">
    <!-- correct -->
    <g style="fill: #2ca02c" transform="translate(93.532641 100.581979) scale(0.11 -0.11)">
     <defs>
      <path id="DejaVuSans-Bold-63" d="M 3366 3391 
L 3366 2478 
Q 3138 2634 2908 2709 
Q 2678 2784 2431 2784 
Q 1963 2784 1702 2511 
Q 1441 2238 1441 1747 
Q 1441 1256 1702 982 
Q 1963 709 2431 709 
Q 2694 709 2930 787 
Q 3166 866 3366 1019 
L 3366 103 
Q 3103 6 2833 -42 
Q 2563 -91 2291 -91 
Q 1344 -91 809 395 
Q 275 881 275 1747 
Q 275 2613 809 3098 
Q 1344 3584 2291 3584 
Q 2566 3584 2833 3536 
Q 3100 3488 3366 3391 
z
" transform="scale(0.015625)"/>
      <path id="DejaVuSans-Bold-6f" d="M 2203 2784 
Q 1831 2784 1636 2517 
Q 1441 2250 1441 1747 
Q 1441 1244 1636 976 
Q 1831 709 2203 709 
Q 2569 709 2762 976 
Q 2956 1244 2956 1747 
Q 2956 2250 2762 2517 
Q 2569 2784 2203 2784 
z
M 2203 3584 
Q 3106 3584 3614 3096 
Q 4122 2609 4122 1747 
Q 4122 884 3614 396 
Q 3106 -91 2203 -91 
Q 1297 -91 786 396 
Q 275 884 275 1747 
Q 275 2609 786 3096 
Q 1297 3584 2203 3584 
z
" transform="scale(0.015625)"/>
      <path id="DejaVuSans-Bold-72" d="M 3138 2547 
Q 2991 2616 2845 2648 
Q 2700 2681 2553 2681 
Q 2122 2681 1889 2404 
Q 1656 2128 1656 1613 
L 1656 0 
L 538 0 
L 538 3500 
L 1656 3500 
L 1656 2925 
Q 1872 3269 2151 3426 
Q 2431 3584 2822 3584 
Q 2878 3584 2943 3579 
Q 3009 3575 3134 3559 
L 3138 2547 
z
" transform="scale(0.015625)"/>
      <path id="DejaVuSans-Bold-65" d="M 4031 1759 
L 4031 1441 
L 1416 1441 
Q 1456 1047 1700 850 
Q 1944 653 2381 653 
Q 2734 653 3104 758 
Q 3475 863 3866 1075 
L 3866 213 
Q 3469 63 3072 -14 
Q 2675 -91 2278 -91 
Q 1328 -91 801 392 
Q 275 875 275 1747 
Q 275 2603 792 3093 
Q 1309 3584 2216 3584 
Q 3041 3584 3536 3087 
Q 4031 2591 4031 1759 
z
M 2881 2131 
Q 2881 2450 2695 2645 
Q 2509 2841 2209 2841 
Q 1884 2841 1681 2658 
Q 1478 2475 1428 2131 
L 2881 2131 
z
" transform="scale(0.015625)"/>
      <path id="DejaVuSans-Bold-74" d="M 1759 4494 
L 1759 3500 
L 2913 3500 
L 2913 2700 
L 1759 2700 
L 1759 1216 
Q 1759 972 1856 886 
Q 1953 800 2241 800 
L 2816 800 
L 2816 0 
L 1856 0 
Q 1194 0 917 276 
Q 641 553 641 1216 
L 641 2700 
L 84 2700 
L 84 3500 
L 641 3500 
L 641 4494 
L 1759 4494 
z
" transform="scale(0.015625)"/>
     </defs>
     <use xlink:href="#DejaVuSans-Bold-63"/>
     <use xlink:href="#DejaVuSans-Bold-6f" transform="translate(59.277344 0)"/>
     <use xlink:href="#DejaVuSans-Bold-72" transform="translate(127.978516 0)"/>
     <use xlink:href="#DejaVuSans-Bold-72" transform="translate(177.294922 0)"/>
     <use xlink:href="#DejaVuSans-Bold-65" transform="translate(226.611328 0)"/>
     <use xlink:href="#DejaVuSans-Bold-63" transform="translate(294.433594 0)"/>
     <use xlink:href="#DejaVuSans-Bold-74" transform="translate(353.710938 0)"/>
    </g>
   </g>
   <g id="text_2">
    <!-- $1-\alpha$ -->
    <g style="fill: #2ca02c" transform="translate(104.266 123.796175) scale(0.1 -0.1)">
     <defs>
      <path id="Cmr10-31" d="M 594 0 
L 594 225 
Q 1394 225 1394 428 
L 1394 3788 
Q 1063 3628 556 3628 
L 556 3853 
Q 1341 3853 1741 4263 
L 1831 4263 
Q 1853 4263 1873 4245 
Q 1894 4228 1894 4206 
L 1894 428 
Q 1894 225 2694 225 
L 2694 0 
L 594 0 
z
" transform="scale(0.015625)"/>
      <path id="Cmsy10-a1" d="M 653 1472 
Q 600 1472 565 1512 
Q 531 1553 531 1600 
Q 531 1647 565 1687 
Q 600 1728 653 1728 
L 4325 1728 
Q 4375 1728 4408 1687 
Q 4441 1647 4441 1600 
Q 4441 1553 4408 1512 
Q 4375 1472 4325 1472 
L 653 1472 
z
" transform="scale(0.015625)"/>
      <path id="Cmmi10-ae" d="M 1288 -72 
Q 984 -72 748 72 
Q 513 216 384 459 
Q 256 703 256 1013 
Q 256 1447 498 1872 
Q 741 2297 1142 2562 
Q 1544 2828 1984 2828 
Q 2309 2828 2556 2658 
Q 2803 2488 2931 2205 
Q 3059 1922 3059 1600 
L 3066 1172 
Q 3284 1475 3436 1801 
Q 3588 2128 3669 2478 
Q 3681 2516 3719 2516 
L 3794 2516 
Q 3853 2516 3853 2456 
Q 3853 2450 3847 2438 
Q 3772 2144 3659 1873 
Q 3547 1603 3395 1350 
Q 3244 1097 3066 891 
Q 3066 97 3250 97 
Q 3369 97 3445 167 
Q 3522 238 3580 341 
Q 3638 444 3653 447 
L 3731 447 
Q 3781 447 3781 384 
Q 3781 225 3598 76 
Q 3416 -72 3238 -72 
Q 3006 -72 2853 78 
Q 2700 228 2644 469 
Q 2344 213 1994 70 
Q 1644 -72 1288 -72 
z
M 1300 97 
Q 1984 97 2613 659 
Q 2609 697 2603 751 
Q 2597 806 2597 813 
L 2597 1503 
Q 2597 2663 1972 2663 
Q 1597 2663 1315 2342 
Q 1034 2022 892 1576 
Q 750 1131 750 763 
Q 750 484 892 290 
Q 1034 97 1300 97 
z
" transform="scale(0.015625)"/>
     </defs>
     <use xlink:href="#Cmr10-31" transform="translate(0 0.390625)"/>
     <use xlink:href="#Cmsy10-a1" transform="translate(67.558594 0.390625)"/>
     <use xlink:href="#Cmmi10-ae" transform="translate(162.802734 0.390625)"/>
    </g>
   </g>
   <g id="text_3">
    <!-- type I error -->
    <g style="fill: #ff7f0e" transform="translate(170.559854 100.496042) scale(0.11 -0.11)">
     <defs>
      <path id="DejaVuSans-Bold-79" d="M 78 3500 
L 1197 3500 
L 2138 1125 
L 2938 3500 
L 4056 3500 
L 2584 -331 
Q 2363 -916 2067 -1148 
Q 1772 -1381 1288 -1381 
L 641 -1381 
L 641 -647 
L 991 -647 
Q 1275 -647 1404 -556 
Q 1534 -466 1606 -231 
L 1638 -134 
L 78 3500 
z
" transform="scale(0.015625)"/>
      <path id="DejaVuSans-Bold-70" d="M 1656 506 
L 1656 -1331 
L 538 -1331 
L 538 3500 
L 1656 3500 
L 1656 2988 
Q 1888 3294 2169 3439 
Q 2450 3584 2816 3584 
Q 3463 3584 3878 3070 
Q 4294 2556 4294 1747 
Q 4294 938 3878 423 
Q 3463 -91 2816 -91 
Q 2450 -91 2169 54 
Q 1888 200 1656 506 
z
M 2400 2772 
Q 2041 2772 1848 2508 
Q 1656 2244 1656 1747 
Q 1656 1250 1848 986 
Q 2041 722 2400 722 
Q 2759 722 2948 984 
Q 3138 1247 3138 1747 
Q 3138 2247 2948 2509 
Q 2759 2772 2400 2772 
z
" transform="scale(0.015625)"/>
      <path id="DejaVuSans-Bold-20" transform="scale(0.015625)"/>
      <path id="DejaVuSans-Bold-49" d="M 588 4666 
L 1791 4666 
L 1791 0 
L 588 0 
L 588 4666 
z
" transform="scale(0.015625)"/>
     </defs>
     <use xlink:href="#DejaVuSans-Bold-74"/>
     <use xlink:href="#DejaVuSans-Bold-79" transform="translate(47.802734 0)"/>
     <use xlink:href="#DejaVuSans-Bold-70" transform="translate(112.988281 0)"/>
     <use xlink:href="#DejaVuSans-Bold-65" transform="translate(184.570312 0)"/>
     <use xlink:href="#DejaVuSans-Bold-20" transform="translate(252.392578 0)"/>
     <use xlink:href="#DejaVuSans-Bold-49" transform="translate(287.207031 0)"/>
     <use xlink:href="#DejaVuSans-Bold-20" transform="translate(324.414062 0)"/>
     <use xlink:href="#DejaVuSans-Bold-65" transform="translate(359.228516 0)"/>
     <use xlink:href="#DejaVuSans-Bold-72" transform="translate(427.050781 0)"/>
     <use xlink:href="#DejaVuSans-Bold-72" transform="translate(476.367188 0)"/>
     <use xlink:href="#DejaVuSans-Bold-6f" transform="translate(525.683594 0)"/>
     <use xlink:href="#DejaVuSans-Bold-72" transform="translate(594.384766 0)"/>
    </g>
   </g>
   <g id="text_4">
    <!-- $\alpha$  (false positive) -->
    <g style="fill: #ff7f0e" transform="translate(162.562667 123.7868) scale(0.1 -0.1)">
     <defs>
      <path id="DejaVuSans-20" transform="scale(0.015625)"/>
      <path id="DejaVuSans-28" d="M 1984 4856 
Q 1566 4138 1362 3434 
Q 1159 2731 1159 2009 
Q 1159 1288 1364 580 
Q 1569 -128 1984 -844 
L 1484 -844 
Q 1016 -109 783 600 
Q 550 1309 550 2009 
Q 550 2706 781 3412 
Q 1013 4119 1484 4856 
L 1984 4856 
z
" transform="scale(0.015625)"/>
      <path id="DejaVuSans-66" d="M 2375 4863 
L 2375 4384 
L 1825 4384 
Q 1516 4384 1395 4259 
Q 1275 4134 1275 3809 
L 1275 3500 
L 2222 3500 
L 2222 3053 
L 1275 3053 
L 1275 0 
L 697 0 
L 697 3053 
L 147 3053 
L 147 3500 
L 697 3500 
L 697 3744 
Q 697 4328 969 4595 
Q 1241 4863 1831 4863 
L 2375 4863 
z
" transform="scale(0.015625)"/>
      <path id="DejaVuSans-61" d="M 2194 1759 
Q 1497 1759 1228 1600 
Q 959 1441 959 1056 
Q 959 750 1161 570 
Q 1363 391 1709 391 
Q 2188 391 2477 730 
Q 2766 1069 2766 1631 
L 2766 1759 
L 2194 1759 
z
M 3341 1997 
L 3341 0 
L 2766 0 
L 2766 531 
Q 2569 213 2275 61 
Q 1981 -91 1556 -91 
Q 1019 -91 701 211 
Q 384 513 384 1019 
Q 384 1609 779 1909 
Q 1175 2209 1959 2209 
L 2766 2209 
L 2766 2266 
Q 2766 2663 2505 2880 
Q 2244 3097 1772 3097 
Q 1472 3097 1187 3025 
Q 903 2953 641 2809 
L 641 3341 
Q 956 3463 1253 3523 
Q 1550 3584 1831 3584 
Q 2591 3584 2966 3190 
Q 3341 2797 3341 1997 
z
" transform="scale(0.015625)"/>
      <path id="DejaVuSans-6c" d="M 603 4863 
L 1178 4863 
L 1178 0 
L 603 0 
L 603 4863 
z
" transform="scale(0.015625)"/>
      <path id="DejaVuSans-73" d="M 2834 3397 
L 2834 2853 
Q 2591 2978 2328 3040 
Q 2066 3103 1784 3103 
Q 1356 3103 1142 2972 
Q 928 2841 928 2578 
Q 928 2378 1081 2264 
Q 1234 2150 1697 2047 
L 1894 2003 
Q 2506 1872 2764 1633 
Q 3022 1394 3022 966 
Q 3022 478 2636 193 
Q 2250 -91 1575 -91 
Q 1294 -91 989 -36 
Q 684 19 347 128 
L 347 722 
Q 666 556 975 473 
Q 1284 391 1588 391 
Q 1994 391 2212 530 
Q 2431 669 2431 922 
Q 2431 1156 2273 1281 
Q 2116 1406 1581 1522 
L 1381 1569 
Q 847 1681 609 1914 
Q 372 2147 372 2553 
Q 372 3047 722 3315 
Q 1072 3584 1716 3584 
Q 2034 3584 2315 3537 
Q 2597 3491 2834 3397 
z
" transform="scale(0.015625)"/>
      <path id="DejaVuSans-65" d="M 3597 1894 
L 3597 1613 
L 953 1613 
Q 991 1019 1311 708 
Q 1631 397 2203 397 
Q 2534 397 2845 478 
Q 3156 559 3463 722 
L 3463 178 
Q 3153 47 2828 -22 
Q 2503 -91 2169 -91 
Q 1331 -91 842 396 
Q 353 884 353 1716 
Q 353 2575 817 3079 
Q 1281 3584 2069 3584 
Q 2775 3584 3186 3129 
Q 3597 2675 3597 1894 
z
M 3022 2063 
Q 3016 2534 2758 2815 
Q 2500 3097 2075 3097 
Q 1594 3097 1305 2825 
Q 1016 2553 972 2059 
L 3022 2063 
z
" transform="scale(0.015625)"/>
      <path id="DejaVuSans-70" d="M 1159 525 
L 1159 -1331 
L 581 -1331 
L 581 3500 
L 1159 3500 
L 1159 2969 
Q 1341 3281 1617 3432 
Q 1894 3584 2278 3584 
Q 2916 3584 3314 3078 
Q 3713 2572 3713 1747 
Q 3713 922 3314 415 
Q 2916 -91 2278 -91 
Q 1894 -91 1617 61 
Q 1341 213 1159 525 
z
M 3116 1747 
Q 3116 2381 2855 2742 
Q 2594 3103 2138 3103 
Q 1681 3103 1420 2742 
Q 1159 2381 1159 1747 
Q 1159 1113 1420 752 
Q 1681 391 2138 391 
Q 2594 391 2855 752 
Q 3116 1113 3116 1747 
z
" transform="scale(0.015625)"/>
      <path id="DejaVuSans-6f" d="M 1959 3097 
Q 1497 3097 1228 2736 
Q 959 2375 959 1747 
Q 959 1119 1226 758 
Q 1494 397 1959 397 
Q 2419 397 2687 759 
Q 2956 1122 2956 1747 
Q 2956 2369 2687 2733 
Q 2419 3097 1959 3097 
z
M 1959 3584 
Q 2709 3584 3137 3096 
Q 3566 2609 3566 1747 
Q 3566 888 3137 398 
Q 2709 -91 1959 -91 
Q 1206 -91 779 398 
Q 353 888 353 1747 
Q 353 2609 779 3096 
Q 1206 3584 1959 3584 
z
" transform="scale(0.015625)"/>
      <path id="DejaVuSans-69" d="M 603 3500 
L 1178 3500 
L 1178 0 
L 603 0 
L 603 3500 
z
M 603 4863 
L 1178 4863 
L 1178 4134 
L 603 4134 
L 603 4863 
z
" transform="scale(0.015625)"/>
      <path id="DejaVuSans-74" d="M 1172 4494 
L 1172 3500 
L 2356 3500 
L 2356 3053 
L 1172 3053 
L 1172 1153 
Q 1172 725 1289 603 
Q 1406 481 1766 481 
L 2356 481 
L 2356 0 
L 1766 0 
Q 1100 0 847 248 
Q 594 497 594 1153 
L 594 3053 
L 172 3053 
L 172 3500 
L 594 3500 
L 594 4494 
L 1172 4494 
z
" transform="scale(0.015625)"/>
      <path id="DejaVuSans-76" d="M 191 3500 
L 800 3500 
L 1894 563 
L 2988 3500 
L 3597 3500 
L 2284 0 
L 1503 0 
L 191 3500 
z
" transform="scale(0.015625)"/>
      <path id="DejaVuSans-29" d="M 513 4856 
L 1013 4856 
Q 1481 4119 1714 3412 
Q 1947 2706 1947 2009 
Q 1947 1309 1714 600 
Q 1481 -109 1013 -844 
L 513 -844 
Q 928 -128 1133 580 
Q 1338 1288 1338 2009 
Q 1338 2731 1133 3434 
Q 928 4138 513 4856 
z
" transform="scale(0.015625)"/>
     </defs>
     <use xlink:href="#Cmmi10-ae" transform="translate(0 0.015625)"/>
     <use xlink:href="#DejaVuSans-20" transform="translate(63.916016 0.015625)"/>
     <use xlink:href="#DejaVuSans-20" transform="translate(95.703125 0.015625)"/>
     <use xlink:href="#DejaVuSans-28" transform="translate(127.490234 0.015625)"/>
     <use xlink:href="#DejaVuSans-66" transform="translate(166.503906 0.015625)"/>
     <use xlink:href="#DejaVuSans-61" transform="translate(201.708984 0.015625)"/>
     <use xlink:href="#DejaVuSans-6c" transform="translate(262.988281 0.015625)"/>
     <use xlink:href="#DejaVuSans-73" transform="translate(290.771484 0.015625)"/>
     <use xlink:href="#DejaVuSans-65" transform="translate(342.871094 0.015625)"/>
     <use xlink:href="#DejaVuSans-20" transform="translate(404.394531 0.015625)"/>
     <use xlink:href="#DejaVuSans-70" transform="translate(436.181641 0.015625)"/>
     <use xlink:href="#DejaVuSans-6f" transform="translate(499.658203 0.015625)"/>
     <use xlink:href="#DejaVuSans-73" transform="translate(560.839844 0.015625)"/>
     <use xlink:href="#DejaVuSans-69" transform="translate(612.939453 0.015625)"/>
     <use xlink:href="#DejaVuSans-74" transform="translate(640.722656 0.015625)"/>
     <use xlink:href="#DejaVuSans-69" transform="translate(679.931641 0.015625)"/>
     <use xlink:href="#DejaVuSans-76" transform="translate(707.714844 0.015625)"/>
     <use xlink:href="#DejaVuSans-65" transform="translate(766.894531 0.015625)"/>
     <use xlink:href="#DejaVuSans-29" transform="translate(828.417969 0.015625)"/>
    </g>
   </g>
   <g id="text_5">
    <!-- type II error -->
    <g style="fill: #ff7f0e" transform="translate(78.167016 190.842708) scale(0.11 -0.11)">
     <use xlink:href="#DejaVuSans-Bold-74"/>
     <use xlink:href="#DejaVuSans-Bold-79" transform="translate(47.802734 0)"/>
     <use xlink:href="#DejaVuSans-Bold-70" transform="translate(112.988281 0)"/>
     <use xlink:href="#DejaVuSans-Bold-65" transform="translate(184.570312 0)"/>
     <use xlink:href="#DejaVuSans-Bold-20" transform="translate(252.392578 0)"/>
     <use xlink:href="#DejaVuSans-Bold-49" transform="translate(287.207031 0)"/>
     <use xlink:href="#DejaVuSans-Bold-49" transform="translate(324.414062 0)"/>
     <use xlink:href="#DejaVuSans-Bold-20" transform="translate(361.621094 0)"/>
     <use xlink:href="#DejaVuSans-Bold-65" transform="translate(396.435547 0)"/>
     <use xlink:href="#DejaVuSans-Bold-72" transform="translate(464.257812 0)"/>
     <use xlink:href="#DejaVuSans-Bold-72" transform="translate(513.574219 0)"/>
     <use xlink:href="#DejaVuSans-Bold-6f" transform="translate(562.890625 0)"/>
     <use xlink:href="#DejaVuSans-Bold-72" transform="translate(631.591797 0)"/>
    </g>
   </g>
   <g id="text_6">
    <!-- $\beta$  (false negative) -->
    <g style="fill: #ff7f0e" transform="translate(70.316 214.133467) scale(0.1 -0.1)">
     <defs>
      <path id="Cmmi10-af" d="M 172 -1241 
Q 153 -1241 137 -1219 
Q 122 -1197 122 -1178 
L 1106 2778 
Q 1191 3097 1353 3397 
Q 1516 3697 1761 3955 
Q 2006 4213 2300 4363 
Q 2594 4513 2925 4513 
Q 3163 4513 3355 4408 
Q 3547 4303 3658 4114 
Q 3769 3925 3769 3688 
Q 3769 3459 3681 3251 
Q 3594 3044 3437 2864 
Q 3281 2684 3103 2572 
Q 3206 2506 3287 2404 
Q 3369 2303 3419 2192 
Q 3469 2081 3497 1945 
Q 3525 1809 3525 1691 
Q 3525 1363 3384 1044 
Q 3244 725 3001 465 
Q 2759 206 2446 54 
Q 2134 -97 1806 -97 
Q 1447 -97 1159 100 
Q 872 297 763 634 
L 300 -1203 
Q 300 -1241 250 -1241 
L 172 -1241 
z
M 1819 78 
Q 2106 78 2339 267 
Q 2572 456 2723 742 
Q 2875 1028 2954 1348 
Q 3034 1669 3034 1931 
Q 3034 2256 2847 2444 
Q 2628 2363 2419 2363 
Q 1913 2363 1913 2534 
Q 1913 2759 2491 2759 
Q 2697 2759 2869 2694 
Q 3006 2800 3118 3006 
Q 3231 3213 3289 3438 
Q 3347 3663 3347 3859 
Q 3347 4069 3236 4208 
Q 3125 4347 2913 4347 
Q 2522 4347 2186 4106 
Q 1850 3866 1619 3498 
Q 1388 3131 1288 2741 
L 934 1325 
Q 900 1178 891 997 
Q 891 597 1153 337 
Q 1416 78 1819 78 
z
M 2106 2553 
Q 2203 2528 2425 2528 
Q 2534 2528 2644 2566 
Q 2638 2572 2619 2572 
Q 2550 2591 2472 2591 
Q 2181 2591 2106 2553 
z
" transform="scale(0.015625)"/>
      <path id="DejaVuSans-6e" d="M 3513 2113 
L 3513 0 
L 2938 0 
L 2938 2094 
Q 2938 2591 2744 2837 
Q 2550 3084 2163 3084 
Q 1697 3084 1428 2787 
Q 1159 2491 1159 1978 
L 1159 0 
L 581 0 
L 581 3500 
L 1159 3500 
L 1159 2956 
Q 1366 3272 1645 3428 
Q 1925 3584 2291 3584 
Q 2894 3584 3203 3211 
Q 3513 2838 3513 2113 
z
" transform="scale(0.015625)"/>
      <path id="DejaVuSans-67" d="M 2906 1791 
Q 2906 2416 2648 2759 
Q 2391 3103 1925 3103 
Q 1463 3103 1205 2759 
Q 947 2416 947 1791 
Q 947 1169 1205 825 
Q 1463 481 1925 481 
Q 2391 481 2648 825 
Q 2906 1169 2906 1791 
z
M 3481 434 
Q 3481 -459 3084 -895 
Q 2688 -1331 1869 -1331 
Q 1566 -1331 1297 -1286 
Q 1028 -1241 775 -1147 
L 775 -588 
Q 1028 -725 1275 -790 
Q 1522 -856 1778 -856 
Q 2344 -856 2625 -561 
Q 2906 -266 2906 331 
L 2906 616 
Q 2728 306 2450 153 
Q 2172 0 1784 0 
Q 1141 0 747 490 
Q 353 981 353 1791 
Q 353 2603 747 3093 
Q 1141 3584 1784 3584 
Q 2172 3584 2450 3431 
Q 2728 3278 2906 2969 
L 2906 3500 
L 3481 3500 
L 3481 434 
z
" transform="scale(0.015625)"/>
     </defs>
     <use xlink:href="#Cmmi10-af" transform="translate(0 0.015625)"/>
     <use xlink:href="#DejaVuSans-20" transform="translate(56.494141 0.015625)"/>
     <use xlink:href="#DejaVuSans-20" transform="translate(88.28125 0.015625)"/>
     <use xlink:href="#DejaVuSans-28" transform="translate(120.068359 0.015625)"/>
     <use xlink:href="#DejaVuSans-66" transform="translate(159.082031 0.015625)"/>
     <use xlink:href="#DejaVuSans-61" transform="translate(194.287109 0.015625)"/>
     <use xlink:href="#DejaVuSans-6c" transform="translate(255.566406 0.015625)"/>
     <use xlink:href="#DejaVuSans-73" transform="translate(283.349609 0.015625)"/>
     <use xlink:href="#DejaVuSans-65" transform="translate(335.449219 0.015625)"/>
     <use xlink:href="#DejaVuSans-20" transform="translate(396.972656 0.015625)"/>
     <use xlink:href="#DejaVuSans-6e" transform="translate(428.759766 0.015625)"/>
     <use xlink:href="#DejaVuSans-65" transform="translate(492.138672 0.015625)"/>
     <use xlink:href="#DejaVuSans-67" transform="translate(553.662109 0.015625)"/>
     <use xlink:href="#DejaVuSans-61" transform="translate(617.138672 0.015625)"/>
     <use xlink:href="#DejaVuSans-74" transform="translate(678.417969 0.015625)"/>
     <use xlink:href="#DejaVuSans-69" transform="translate(717.626953 0.015625)"/>
     <use xlink:href="#DejaVuSans-76" transform="translate(745.410156 0.015625)"/>
     <use xlink:href="#DejaVuSans-65" transform="translate(804.589844 0.015625)"/>
     <use xlink:href="#DejaVuSans-29" transform="translate(866.113281 0.015625)"/>
    </g>
   </g>
   <g id="text_7">
    <!-- correct -->
    <g style="fill: #2ca02c" transform="translate(183.879307 190.928646) scale(0.11 -0.11)">
     <use xlink:href="#DejaVuSans-Bold-63"/>
     <use xlink:href="#DejaVuSans-Bold-6f" transform="translate(59.277344 0)"/>
     <use xlink:href="#DejaVuSans-Bold-72" transform="translate(127.978516 0)"/>
     <use xlink:href="#DejaVuSans-Bold-72" transform="translate(177.294922 0)"/>
     <use xlink:href="#DejaVuSans-Bold-65" transform="translate(226.611328 0)"/>
     <use xlink:href="#DejaVuSans-Bold-63" transform="translate(294.433594 0)"/>
     <use xlink:href="#DejaVuSans-Bold-74" transform="translate(353.710938 0)"/>
    </g>
   </g>
   <g id="text_8">
    <!-- power $1-\beta$ -->
    <g style="fill: #2ca02c" transform="translate(177.912667 214.122529) scale(0.1 -0.1)">
     <defs>
      <path id="DejaVuSans-77" d="M 269 3500 
L 844 3500 
L 1563 769 
L 2278 3500 
L 2956 3500 
L 3675 769 
L 4391 3500 
L 4966 3500 
L 4050 0 
L 3372 0 
L 2619 2869 
L 1863 0 
L 1184 0 
L 269 3500 
z
" transform="scale(0.015625)"/>
      <path id="DejaVuSans-72" d="M 2631 2963 
Q 2534 3019 2420 3045 
Q 2306 3072 2169 3072 
Q 1681 3072 1420 2755 
Q 1159 2438 1159 1844 
L 1159 0 
L 581 0 
L 581 3500 
L 1159 3500 
L 1159 2956 
Q 1341 3275 1631 3429 
Q 1922 3584 2338 3584 
Q 2397 3584 2469 3576 
Q 2541 3569 2628 3553 
L 2631 2963 
z
" transform="scale(0.015625)"/>
     </defs>
     <use xlink:href="#DejaVuSans-70" transform="translate(0 0.484375)"/>
     <use xlink:href="#DejaVuSans-6f" transform="translate(63.476562 0.484375)"/>
     <use xlink:href="#DejaVuSans-77" transform="translate(124.658203 0.484375)"/>
     <use xlink:href="#DejaVuSans-65" transform="translate(206.445312 0.484375)"/>
     <use xlink:href="#DejaVuSans-72" transform="translate(267.96875 0.484375)"/>
     <use xlink:href="#DejaVuSans-20" transform="translate(309.082031 0.484375)"/>
     <use xlink:href="#Cmr10-31" transform="translate(340.869141 0.484375)"/>
     <use xlink:href="#Cmsy10-a1" transform="translate(408.427734 0.484375)"/>
     <use xlink:href="#Cmmi10-af" transform="translate(503.671875 0.484375)"/>
    </g>
   </g>
   <g id="text_9">
    <!-- fail to reject $H_0$ -->
    <g transform="translate(75.7685 49.840033) scale(0.105 -0.105)">
     <defs>
      <path id="DejaVuSans-6a" d="M 603 3500 
L 1178 3500 
L 1178 -63 
Q 1178 -731 923 -1031 
Q 669 -1331 103 -1331 
L -116 -1331 
L -116 -844 
L 38 -844 
Q 366 -844 484 -692 
Q 603 -541 603 -63 
L 603 3500 
z
M 603 4863 
L 1178 4863 
L 1178 4134 
L 603 4134 
L 603 4863 
z
" transform="scale(0.015625)"/>
      <path id="DejaVuSans-63" d="M 3122 3366 
L 3122 2828 
Q 2878 2963 2633 3030 
Q 2388 3097 2138 3097 
Q 1578 3097 1268 2742 
Q 959 2388 959 1747 
Q 959 1106 1268 751 
Q 1578 397 2138 397 
Q 2388 397 2633 464 
Q 2878 531 3122 666 
L 3122 134 
Q 2881 22 2623 -34 
Q 2366 -91 2075 -91 
Q 1284 -91 818 406 
Q 353 903 353 1747 
Q 353 2603 823 3093 
Q 1294 3584 2113 3584 
Q 2378 3584 2631 3529 
Q 2884 3475 3122 3366 
z
" transform="scale(0.015625)"/>
      <path id="Cmmi10-48" d="M 300 0 
Q 238 0 238 84 
Q 241 100 250 139 
Q 259 178 276 201 
Q 294 225 319 225 
Q 709 225 863 269 
Q 947 297 984 441 
L 1863 3956 
Q 1875 4019 1875 4044 
Q 1875 4113 1797 4122 
Q 1678 4147 1338 4147 
Q 1275 4147 1275 4231 
Q 1297 4313 1309 4342 
Q 1322 4372 1381 4372 
L 3103 4372 
Q 3169 4372 3169 4288 
Q 3166 4272 3156 4234 
Q 3147 4197 3131 4172 
Q 3116 4147 3084 4147 
Q 2694 4147 2541 4103 
Q 2456 4072 2419 3928 
L 2034 2388 
L 3956 2388 
L 4347 3956 
Q 4359 4019 4359 4044 
Q 4359 4113 4281 4122 
Q 4159 4147 3822 4147 
Q 3756 4147 3756 4231 
Q 3778 4313 3790 4342 
Q 3803 4372 3866 4372 
L 5588 4372 
Q 5650 4372 5650 4288 
Q 5647 4272 5637 4233 
Q 5628 4194 5611 4170 
Q 5594 4147 5569 4147 
Q 5178 4147 5025 4103 
Q 4941 4075 4903 3928 
L 4025 416 
Q 4013 353 4013 325 
Q 4013 259 4091 250 
Q 4213 225 4550 225 
Q 4616 225 4616 141 
Q 4597 66 4578 33 
Q 4559 0 4506 0 
L 2784 0 
Q 2719 0 2719 84 
Q 2731 131 2737 153 
Q 2744 175 2761 200 
Q 2778 225 2803 225 
Q 3194 225 3347 269 
Q 3431 297 3469 441 
L 3897 2163 
L 1978 2163 
L 1544 416 
Q 1528 338 1528 325 
Q 1528 259 1606 250 
Q 1728 225 2069 225 
Q 2131 225 2131 141 
Q 2109 56 2095 28 
Q 2081 0 2022 0 
L 300 0 
z
" transform="scale(0.015625)"/>
      <path id="Cmr10-30" d="M 1600 -141 
Q 816 -141 533 504 
Q 250 1150 250 2041 
Q 250 2597 351 3087 
Q 453 3578 754 3920 
Q 1056 4263 1600 4263 
Q 2022 4263 2290 4056 
Q 2559 3850 2700 3523 
Q 2841 3197 2892 2823 
Q 2944 2450 2944 2041 
Q 2944 1491 2842 1011 
Q 2741 531 2444 195 
Q 2147 -141 1600 -141 
z
M 1600 25 
Q 1956 25 2131 390 
Q 2306 756 2347 1200 
Q 2388 1644 2388 2144 
Q 2388 2625 2347 3031 
Q 2306 3438 2132 3767 
Q 1959 4097 1600 4097 
Q 1238 4097 1063 3765 
Q 888 3434 847 3029 
Q 806 2625 806 2144 
Q 806 1788 823 1472 
Q 841 1156 916 820 
Q 991 484 1158 254 
Q 1325 25 1600 25 
z
" transform="scale(0.015625)"/>
     </defs>
     <use xlink:href="#DejaVuSans-66" transform="translate(0 0.015625)"/>
     <use xlink:href="#DejaVuSans-61" transform="translate(35.205078 0.015625)"/>
     <use xlink:href="#DejaVuSans-69" transform="translate(96.484375 0.015625)"/>
     <use xlink:href="#DejaVuSans-6c" transform="translate(124.267578 0.015625)"/>
     <use xlink:href="#DejaVuSans-20" transform="translate(152.050781 0.015625)"/>
     <use xlink:href="#DejaVuSans-74" transform="translate(183.837891 0.015625)"/>
     <use xlink:href="#DejaVuSans-6f" transform="translate(223.046875 0.015625)"/>
     <use xlink:href="#DejaVuSans-20" transform="translate(284.228516 0.015625)"/>
     <use xlink:href="#DejaVuSans-72" transform="translate(316.015625 0.015625)"/>
     <use xlink:href="#DejaVuSans-65" transform="translate(357.128906 0.015625)"/>
     <use xlink:href="#DejaVuSans-6a" transform="translate(418.652344 0.015625)"/>
     <use xlink:href="#DejaVuSans-65" transform="translate(446.435547 0.015625)"/>
     <use xlink:href="#DejaVuSans-63" transform="translate(507.958984 0.015625)"/>
     <use xlink:href="#DejaVuSans-74" transform="translate(562.939453 0.015625)"/>
     <use xlink:href="#DejaVuSans-20" transform="translate(602.148438 0.015625)"/>
     <use xlink:href="#Cmmi10-48" transform="translate(633.935547 0.015625)"/>
     <use xlink:href="#Cmr10-30" transform="translate(717.041016 -16.990625) scale(0.7)"/>
    </g>
   </g>
   <g id="text_10">
    <!-- reject $H_0$ -->
    <g transform="translate(182.705167 49.840033) scale(0.105 -0.105)">
     <use xlink:href="#DejaVuSans-72" transform="translate(0 0.015625)"/>
     <use xlink:href="#DejaVuSans-65" transform="translate(41.113281 0.015625)"/>
     <use xlink:href="#DejaVuSans-6a" transform="translate(102.636719 0.015625)"/>
     <use xlink:href="#DejaVuSans-65" transform="translate(130.419922 0.015625)"/>
     <use xlink:href="#DejaVuSans-63" transform="translate(191.943359 0.015625)"/>
     <use xlink:href="#DejaVuSans-74" transform="translate(246.923828 0.015625)"/>
     <use xlink:href="#DejaVuSans-20" transform="translate(286.132812 0.015625)"/>
     <use xlink:href="#Cmmi10-48" transform="translate(317.919922 0.015625)"/>
     <use xlink:href="#Cmr10-30" transform="translate(401.025391 -16.990625) scale(0.7)"/>
    </g>
   </g>
   <g id="text_11">
    <!-- decision -->
    <g style="fill: #7f7f7f" transform="translate(139.147849 22.745877) scale(0.105 -0.105)">
     <defs>
      <path id="DejaVuSans-Oblique-64" d="M 2675 525 
Q 2444 222 2128 65 
Q 1813 -91 1428 -91 
Q 903 -91 598 267 
Q 294 625 294 1247 
Q 294 1766 478 2236 
Q 663 2706 1013 3078 
Q 1244 3325 1534 3454 
Q 1825 3584 2144 3584 
Q 2481 3584 2739 3421 
Q 2997 3259 3138 2956 
L 3513 4863 
L 4091 4863 
L 3144 0 
L 2566 0 
L 2675 525 
z
M 891 1350 
Q 891 897 1095 644 
Q 1300 391 1663 391 
Q 1931 391 2161 520 
Q 2391 650 2566 903 
Q 2750 1166 2856 1509 
Q 2963 1853 2963 2188 
Q 2963 2622 2758 2865 
Q 2553 3109 2194 3109 
Q 1922 3109 1687 2981 
Q 1453 2853 1288 2613 
Q 1106 2353 998 2009 
Q 891 1666 891 1350 
z
" transform="scale(0.015625)"/>
      <path id="DejaVuSans-Oblique-65" d="M 3078 2063 
Q 3088 2113 3092 2166 
Q 3097 2219 3097 2272 
Q 3097 2653 2873 2875 
Q 2650 3097 2266 3097 
Q 1838 3097 1509 2826 
Q 1181 2556 1013 2059 
L 3078 2063 
z
M 3578 1613 
L 903 1613 
Q 884 1494 878 1425 
Q 872 1356 872 1306 
Q 872 872 1139 634 
Q 1406 397 1894 397 
Q 2269 397 2603 481 
Q 2938 566 3225 728 
L 3116 159 
Q 2806 34 2476 -28 
Q 2147 -91 1806 -91 
Q 1078 -91 686 257 
Q 294 606 294 1247 
Q 294 1794 489 2264 
Q 684 2734 1063 3103 
Q 1306 3334 1642 3459 
Q 1978 3584 2356 3584 
Q 2950 3584 3301 3228 
Q 3653 2872 3653 2272 
Q 3653 2128 3634 1964 
Q 3616 1800 3578 1613 
z
" transform="scale(0.015625)"/>
      <path id="DejaVuSans-Oblique-63" d="M 3431 3366 
L 3316 2797 
Q 3109 2947 2876 3022 
Q 2644 3097 2394 3097 
Q 2119 3097 1870 3000 
Q 1622 2903 1453 2725 
Q 1184 2453 1037 2087 
Q 891 1722 891 1331 
Q 891 859 1127 628 
Q 1363 397 1844 397 
Q 2081 397 2348 469 
Q 2616 541 2906 684 
L 2797 116 
Q 2547 13 2283 -39 
Q 2019 -91 1741 -91 
Q 1044 -91 669 257 
Q 294 606 294 1253 
Q 294 1797 489 2255 
Q 684 2713 1069 3078 
Q 1331 3328 1684 3456 
Q 2038 3584 2456 3584 
Q 2700 3584 2940 3529 
Q 3181 3475 3431 3366 
z
" transform="scale(0.015625)"/>
      <path id="DejaVuSans-Oblique-69" d="M 1172 4863 
L 1747 4863 
L 1606 4134 
L 1031 4134 
L 1172 4863 
z
M 909 3500 
L 1484 3500 
L 800 0 
L 225 0 
L 909 3500 
z
" transform="scale(0.015625)"/>
      <path id="DejaVuSans-Oblique-73" d="M 3200 3397 
L 3091 2853 
Q 2863 2978 2609 3040 
Q 2356 3103 2088 3103 
Q 1634 3103 1373 2948 
Q 1113 2794 1113 2528 
Q 1113 2219 1719 2053 
Q 1766 2041 1788 2034 
L 1972 1978 
Q 2547 1819 2739 1644 
Q 2931 1469 2931 1166 
Q 2931 609 2489 259 
Q 2047 -91 1331 -91 
Q 1053 -91 747 -37 
Q 441 16 72 128 
L 184 722 
Q 500 559 806 475 
Q 1113 391 1394 391 
Q 1816 391 2080 572 
Q 2344 753 2344 1031 
Q 2344 1331 1650 1516 
L 1591 1531 
L 1394 1581 
Q 956 1697 753 1886 
Q 550 2075 550 2369 
Q 550 2928 970 3256 
Q 1391 3584 2113 3584 
Q 2397 3584 2667 3537 
Q 2938 3491 3200 3397 
z
" transform="scale(0.015625)"/>
      <path id="DejaVuSans-Oblique-6f" d="M 1625 -91 
Q 1009 -91 651 289 
Q 294 669 294 1325 
Q 294 1706 417 2101 
Q 541 2497 738 2766 
Q 1047 3184 1428 3384 
Q 1809 3584 2291 3584 
Q 2888 3584 3255 3212 
Q 3622 2841 3622 2241 
Q 3622 1825 3500 1412 
Q 3378 1000 3181 728 
Q 2875 309 2494 109 
Q 2113 -91 1625 -91 
z
M 891 1344 
Q 891 869 1089 633 
Q 1288 397 1691 397 
Q 2269 397 2648 901 
Q 3028 1406 3028 2181 
Q 3028 2634 2825 2865 
Q 2622 3097 2228 3097 
Q 1903 3097 1650 2945 
Q 1397 2794 1197 2484 
Q 1050 2253 970 1956 
Q 891 1659 891 1344 
z
" transform="scale(0.015625)"/>
      <path id="DejaVuSans-Oblique-6e" d="M 3566 2113 
L 3156 0 
L 2578 0 
L 2988 2091 
Q 3016 2238 3031 2350 
Q 3047 2463 3047 2528 
Q 3047 2791 2881 2937 
Q 2716 3084 2419 3084 
Q 1956 3084 1622 2776 
Q 1288 2469 1184 1941 
L 800 0 
L 225 0 
L 903 3500 
L 1478 3500 
L 1363 2950 
Q 1603 3253 1940 3418 
Q 2278 3584 2650 3584 
Q 3113 3584 3367 3334 
Q 3622 3084 3622 2631 
Q 3622 2519 3608 2391 
Q 3594 2263 3566 2113 
z
" transform="scale(0.015625)"/>
     </defs>
     <use xlink:href="#DejaVuSans-Oblique-64"/>
     <use xlink:href="#DejaVuSans-Oblique-65" transform="translate(63.476562 0)"/>
     <use xlink:href="#DejaVuSans-Oblique-63" transform="translate(125 0)"/>
     <use xlink:href="#DejaVuSans-Oblique-69" transform="translate(179.980469 0)"/>
     <use xlink:href="#DejaVuSans-Oblique-73" transform="translate(207.763672 0)"/>
     <use xlink:href="#DejaVuSans-Oblique-69" transform="translate(259.863281 0)"/>
     <use xlink:href="#DejaVuSans-Oblique-6f" transform="translate(287.646484 0)"/>
     <use xlink:href="#DejaVuSans-Oblique-6e" transform="translate(348.828125 0)"/>
    </g>
   </g>
   <g id="text_12">
    <!-- $H_0$ true -->
    <g transform="translate(57.417395 125.586333) rotate(-90) scale(0.105 -0.105)">
     <defs>
      <path id="DejaVuSans-75" d="M 544 1381 
L 544 3500 
L 1119 3500 
L 1119 1403 
Q 1119 906 1312 657 
Q 1506 409 1894 409 
Q 2359 409 2629 706 
Q 2900 1003 2900 1516 
L 2900 3500 
L 3475 3500 
L 3475 0 
L 2900 0 
L 2900 538 
Q 2691 219 2414 64 
Q 2138 -91 1772 -91 
Q 1169 -91 856 284 
Q 544 659 544 1381 
z
M 1991 3584 
L 1991 3584 
z
" transform="scale(0.015625)"/>
     </defs>
     <use xlink:href="#Cmmi10-48" transform="translate(0 0.78125)"/>
     <use xlink:href="#Cmr10-30" transform="translate(83.105469 -16.225) scale(0.7)"/>
     <use xlink:href="#DejaVuSans-20" transform="translate(124.482812 0.78125)"/>
     <use xlink:href="#DejaVuSans-74" transform="translate(156.269922 0.78125)"/>
     <use xlink:href="#DejaVuSans-72" transform="translate(195.478906 0.78125)"/>
     <use xlink:href="#DejaVuSans-75" transform="translate(236.592187 0.78125)"/>
     <use xlink:href="#DejaVuSans-65" transform="translate(299.971094 0.78125)"/>
    </g>
   </g>
   <g id="text_13">
    <!-- $H_0$ false -->
    <g transform="translate(57.417395 217.6655) rotate(-90) scale(0.105 -0.105)">
     <use xlink:href="#Cmmi10-48" transform="translate(0 0.015625)"/>
     <use xlink:href="#Cmr10-30" transform="translate(83.105469 -16.990625) scale(0.7)"/>
     <use xlink:href="#DejaVuSans-20" transform="translate(124.482812 0.015625)"/>
     <use xlink:href="#DejaVuSans-66" transform="translate(156.269922 0.015625)"/>
     <use xlink:href="#DejaVuSans-61" transform="translate(191.475 0.015625)"/>
     <use xlink:href="#DejaVuSans-6c" transform="translate(252.754297 0.015625)"/>
     <use xlink:href="#DejaVuSans-73" transform="translate(280.5375 0.015625)"/>
     <use xlink:href="#DejaVuSans-65" transform="translate(332.637109 0.015625)"/>
    </g>
   </g>
   <g id="text_14">
    <!-- truth -->
    <g style="fill: #7f7f7f" transform="translate(30.313395 164.683612) rotate(-90) scale(0.105 -0.105)">
     <defs>
      <path id="DejaVuSans-Oblique-74" d="M 2706 3500 
L 2619 3053 
L 1472 3053 
L 1100 1153 
Q 1081 1047 1072 975 
Q 1063 903 1063 863 
Q 1063 663 1183 572 
Q 1303 481 1569 481 
L 2150 481 
L 2053 0 
L 1503 0 
Q 991 0 739 200 
Q 488 400 488 806 
Q 488 878 497 964 
Q 506 1050 525 1153 
L 897 3053 
L 409 3053 
L 500 3500 
L 978 3500 
L 1172 4494 
L 1747 4494 
L 1556 3500 
L 2706 3500 
z
" transform="scale(0.015625)"/>
      <path id="DejaVuSans-Oblique-72" d="M 2853 2969 
Q 2766 3016 2653 3041 
Q 2541 3066 2413 3066 
Q 1953 3066 1609 2717 
Q 1266 2369 1153 1784 
L 800 0 
L 225 0 
L 909 3500 
L 1484 3500 
L 1375 2956 
Q 1603 3259 1920 3421 
Q 2238 3584 2597 3584 
Q 2691 3584 2781 3573 
Q 2872 3563 2963 3538 
L 2853 2969 
z
" transform="scale(0.015625)"/>
      <path id="DejaVuSans-Oblique-75" d="M 428 1388 
L 838 3500 
L 1416 3500 
L 1006 1409 
Q 975 1256 961 1147 
Q 947 1038 947 966 
Q 947 700 1109 554 
Q 1272 409 1569 409 
Q 2031 409 2368 721 
Q 2706 1034 2809 1563 
L 3194 3500 
L 3769 3500 
L 3091 0 
L 2516 0 
L 2631 550 
Q 2388 244 2052 76 
Q 1716 -91 1338 -91 
Q 878 -91 622 161 
Q 366 413 366 863 
Q 366 956 381 1097 
Q 397 1238 428 1388 
z
" transform="scale(0.015625)"/>
      <path id="DejaVuSans-Oblique-68" d="M 3566 2113 
L 3156 0 
L 2578 0 
L 2988 2091 
Q 3016 2238 3031 2350 
Q 3047 2463 3047 2528 
Q 3047 2791 2881 2937 
Q 2716 3084 2419 3084 
Q 1956 3084 1617 2771 
Q 1278 2459 1178 1941 
L 800 0 
L 225 0 
L 1172 4863 
L 1747 4863 
L 1375 2950 
Q 1594 3244 1934 3414 
Q 2275 3584 2650 3584 
Q 3113 3584 3367 3334 
Q 3622 3084 3622 2631 
Q 3622 2519 3608 2391 
Q 3594 2263 3566 2113 
z
" transform="scale(0.015625)"/>
     </defs>
     <use xlink:href="#DejaVuSans-Oblique-74"/>
     <use xlink:href="#DejaVuSans-Oblique-72" transform="translate(39.208984 0)"/>
     <use xlink:href="#DejaVuSans-Oblique-75" transform="translate(80.322266 0)"/>
     <use xlink:href="#DejaVuSans-Oblique-74" transform="translate(143.701172 0)"/>
     <use xlink:href="#DejaVuSans-Oblique-68" transform="translate(182.910156 0)"/>
    </g>
   </g>
  </g>
 </g>
 <defs>
  <clipPath id="p732ddc209d">
   <rect x="7.2" y="7.2" width="248.453333" height="243.936"/>
  </clipPath>
 </defs>
</svg>
