<?xml version="1.0" encoding="utf-8" standalone="no"?>
<!DOCTYPE svg PUBLIC "-//W3C//DTD SVG 1.1//EN"
  "http://www.w3.org/Graphics/SVG/1.1/DTD/svg11.dtd">
<svg xmlns:xlink="http://www.w3.org/1999/xlink" width="628.2pt" height="210.047537pt" viewBox="0 0 628.2 210.047537" xmlns="http://www.w3.org/2000/svg" version="1.1">
 <metadata>
  <rdf:RDF xmlns:dc="http://purl.org/dc/elements/1.1/" xmlns:cc="http://creativecommons.org/ns#" xmlns:rdf="http://www.w3.org/1999/02/22-rdf-syntax-ns#">
   <cc:Work>
    <dc:type rdf:resource="http://purl.org/dc/dcmitype/StillImage"/>
    <dc:format>image/svg+xml</dc:format>
    <dc:creator>
     <cc:Agent>
      <dc:title>Matplotlib v3.10.8, https://matplotlib.org/</dc:title>
     </cc:Agent>
    </dc:creator>
   </cc:Work>
  </rdf:RDF>
 </metadata>
 <defs>
  <style type="text/css">*{stroke-linejoin: round; stroke-linecap: butt}</style>
 </defs>
 <g id="figure_1">
  <g id="patch_1">
   <path d="M 0 210.047537 
L 628.2 210.047537 
L 628.2 0 
L 0 0 
z
" style="fill: #ffffff"/>
  </g>
  <g id="axes_1">
   <g id="patch_2">
    <path d="M 42.683367 115.695407 
L 49.711142 163.448971 
L 97.464706 177.946928 
L 137.748087 155.978789 
L 167.18641 115.695407 
L 137.748087 75.412025 
L 97.464706 53.443886 
L 49.711142 67.941843 
z
" clip-path="url(#pbe2c286a9b)" style="fill: #1f77b4; opacity: 0.16; stroke: #1f77b4; stroke-width: 2; stroke-linejoin: miter"/>
   </g>
   <g id="line2d_1">
    <path d="M 53.888641 87.682222 
L 144.153347 143.708592 
" clip-path="url(#pbe2c286a9b)" style="fill: none; stroke: #ff7f0e; stroke-width: 2; stroke-linecap: square"/>
   </g>
   <g id="text_1">
    <!-- (a) convex -->
    <g transform="translate(65.736893 19.430701) scale(0.12 -0.12)">
     <defs>
      <path id="DejaVuSans-28" d="M 1984 4856 
Q 1566 4138 1362 3434 
Q 1159 2731 1159 2009 
Q 1159 1288 1364 580 
Q 1569 -128 1984 -844 
L 1484 -844 
Q 1016 -109 783 600 
Q 550 1309 550 2009 
Q 550 2706 781 3412 
Q 1013 4119 1484 4856 
L 1984 4856 
z
" transform="scale(0.015625)"/>
      <path id="DejaVuSans-61" d="M 2194 1759 
Q 1497 1759 1228 1600 
Q 959 1441 959 1056 
Q 959 750 1161 570 
Q 1363 391 1709 391 
Q 2188 391 2477 730 
Q 2766 1069 2766 1631 
L 2766 1759 
L 2194 1759 
z
M 3341 1997 
L 3341 0 
L 2766 0 
L 2766 531 
Q 2569 213 2275 61 
Q 1981 -91 1556 -91 
Q 1019 -91 701 211 
Q 384 513 384 1019 
Q 384 1609 779 1909 
Q 1175 2209 1959 2209 
L 2766 2209 
L 2766 2266 
Q 2766 2663 2505 2880 
Q 2244 3097 1772 3097 
Q 1472 3097 1187 3025 
Q 903 2953 641 2809 
L 641 3341 
Q 956 3463 1253 3523 
Q 1550 3584 1831 3584 
Q 2591 3584 2966 3190 
Q 3341 2797 3341 1997 
z
" transform="scale(0.015625)"/>
      <path id="DejaVuSans-29" d="M 513 4856 
L 1013 4856 
Q 1481 4119 1714 3412 
Q 1947 2706 1947 2009 
Q 1947 1309 1714 600 
Q 1481 -109 1013 -844 
L 513 -844 
Q 928 -128 1133 580 
Q 1338 1288 1338 2009 
Q 1338 2731 1133 3434 
Q 928 4138 513 4856 
z
" transform="scale(0.015625)"/>
      <path id="DejaVuSans-20" transform="scale(0.015625)"/>
      <path id="DejaVuSans-63" d="M 3122 3366 
L 3122 2828 
Q 2878 2963 2633 3030 
Q 2388 3097 2138 3097 
Q 1578 3097 1268 2742 
Q 959 2388 959 1747 
Q 959 1106 1268 751 
Q 1578 397 2138 397 
Q 2388 397 2633 464 
Q 2878 531 3122 666 
L 3122 134 
Q 2881 22 2623 -34 
Q 2366 -91 2075 -91 
Q 1284 -91 818 406 
Q 353 903 353 1747 
Q 353 2603 823 3093 
Q 1294 3584 2113 3584 
Q 2378 3584 2631 3529 
Q 2884 3475 3122 3366 
z
" transform="scale(0.015625)"/>
      <path id="DejaVuSans-6f" d="M 1959 3097 
Q 1497 3097 1228 2736 
Q 959 2375 959 1747 
Q 959 1119 1226 758 
Q 1494 397 1959 397 
Q 2419 397 2687 759 
Q 2956 1122 2956 1747 
Q 2956 2369 2687 2733 
Q 2419 3097 1959 3097 
z
M 1959 3584 
Q 2709 3584 3137 3096 
Q 3566 2609 3566 1747 
Q 3566 888 3137 398 
Q 2709 -91 1959 -91 
Q 1206 -91 779 398 
Q 353 888 353 1747 
Q 353 2609 779 3096 
Q 1206 3584 1959 3584 
z
" transform="scale(0.015625)"/>
      <path id="DejaVuSans-6e" d="M 3513 2113 
L 3513 0 
L 2938 0 
L 2938 2094 
Q 2938 2591 2744 2837 
Q 2550 3084 2163 3084 
Q 1697 3084 1428 2787 
Q 1159 2491 1159 1978 
L 1159 0 
L 581 0 
L 581 3500 
L 1159 3500 
L 1159 2956 
Q 1366 3272 1645 3428 
Q 1925 3584 2291 3584 
Q 2894 3584 3203 3211 
Q 3513 2838 3513 2113 
z
" transform="scale(0.015625)"/>
      <path id="DejaVuSans-76" d="M 191 3500 
L 800 3500 
L 1894 563 
L 2988 3500 
L 3597 3500 
L 2284 0 
L 1503 0 
L 191 3500 
z
" transform="scale(0.015625)"/>
      <path id="DejaVuSans-65" d="M 3597 1894 
L 3597 1613 
L 953 1613 
Q 991 1019 1311 708 
Q 1631 397 2203 397 
Q 2534 397 2845 478 
Q 3156 559 3463 722 
L 3463 178 
Q 3153 47 2828 -22 
Q 2503 -91 2169 -91 
Q 1331 -91 842 396 
Q 353 884 353 1716 
Q 353 2575 817 3079 
Q 1281 3584 2069 3584 
Q 2775 3584 3186 3129 
Q 3597 2675 3597 1894 
z
M 3022 2063 
Q 3016 2534 2758 2815 
Q 2500 3097 2075 3097 
Q 1594 3097 1305 2825 
Q 1016 2553 972 2059 
L 3022 2063 
z
" transform="scale(0.015625)"/>
      <path id="DejaVuSans-78" d="M 3513 3500 
L 2247 1797 
L 3578 0 
L 2900 0 
L 1881 1375 
L 863 0 
L 184 0 
L 1544 1831 
L 300 3500 
L 978 3500 
L 1906 2253 
L 2834 3500 
L 3513 3500 
z
" transform="scale(0.015625)"/>
     </defs>
     <use xlink:href="#DejaVuSans-28"/>
     <use xlink:href="#DejaVuSans-61" transform="translate(39.013672 0)"/>
     <use xlink:href="#DejaVuSans-29" transform="translate(100.292969 0)"/>
     <use xlink:href="#DejaVuSans-20" transform="translate(139.306641 0)"/>
     <use xlink:href="#DejaVuSans-63" transform="translate(171.09375 0)"/>
     <use xlink:href="#DejaVuSans-6f" transform="translate(226.074219 0)"/>
     <use xlink:href="#DejaVuSans-6e" transform="translate(287.255859 0)"/>
     <use xlink:href="#DejaVuSans-76" transform="translate(350.634766 0)"/>
     <use xlink:href="#DejaVuSans-65" transform="translate(409.814453 0)"/>
     <use xlink:href="#DejaVuSans-78" transform="translate(469.587891 0)"/>
    </g>
   </g>
   <g id="line2d_2">
    <defs>
     <path id="mb4056238e5" d="M 0 2.5 
C 0.663008 2.5 1.29895 2.236584 1.767767 1.767767 
C 2.236584 1.29895 2.5 0.663008 2.5 0 
C 2.5 -0.663008 2.236584 -1.29895 1.767767 -1.767767 
C 1.29895 -2.236584 0.663008 -2.5 0 -2.5 
C -0.663008 -2.5 -1.29895 -2.236584 -1.767767 -1.767767 
C -2.236584 -1.29895 -2.5 -0.663008 -2.5 0 
C -2.5 0.663008 -2.236584 1.29895 -1.767767 1.767767 
C -1.29895 2.236584 -0.663008 2.5 0 2.5 
z
" style="stroke: #ff7f0e"/>
    </defs>
    <g clip-path="url(#pbe2c286a9b)">
     <use xlink:href="#mb4056238e5" x="53.888641" y="87.682222" style="fill: #ff7f0e; stroke: #ff7f0e"/>
     <use xlink:href="#mb4056238e5" x="144.153347" y="143.708592" style="fill: #ff7f0e; stroke: #ff7f0e"/>
    </g>
   </g>
  </g>
  <g id="axes_2">
   <g id="patch_3">
    <path d="M 307.413725 179.445576 
L 309.535142 179.411913 
L 311.654423 179.31096 
L 313.769433 179.142816 
L 315.878044 178.907653 
L 317.978133 178.605706 
L 320.067583 178.237279 
L 322.144292 177.802744 
L 324.206169 177.302538 
L 326.251138 176.737165 
L 328.277138 176.107194 
L 330.282131 175.413259 
L 332.264098 174.656059 
L 334.221042 173.836357 
L 336.150993 172.954978 
L 338.052009 172.012809 
L 339.922174 171.010799 
L 341.759606 169.949957 
L 343.562455 168.831351 
L 345.328905 167.656108 
L 347.057177 166.425411 
L 348.745532 165.140499 
L 350.39227 163.802665 
L 351.995731 162.413258 
L 353.554303 160.973675 
L 355.066414 159.485367 
L 356.530544 157.949833 
L 357.945217 156.368617 
L 359.309009 154.743313 
L 360.620547 153.075557 
L 361.87851 151.367028 
L 363.081631 149.619447 
L 364.2287 147.834573 
L 365.318561 146.014203 
L 366.350117 144.160171 
L 367.322329 142.274344 
L 368.234218 140.358619 
L 369.084866 138.414927 
L 369.873416 136.445223 
L 370.599074 134.451493 
L 371.261111 132.435742 
L 371.858858 130.400002 
L 372.391715 128.34632 
L 372.859144 126.276767 
L 373.260675 124.193425 
L 373.595904 122.098392 
L 373.864493 119.993777 
L 374.066172 117.881701 
L 374.200738 115.764288 
L 374.268054 113.643673 
L 374.268054 111.521989 
L 374.200738 109.401373 
L 374.066172 107.283961 
L 373.864493 105.171885 
L 373.595904 103.06727 
L 373.260675 100.972237 
L 372.859144 98.888895 
L 372.391715 96.819341 
L 371.858858 94.76566 
L 371.261111 92.72992 
L 370.599074 90.714169 
L 369.873416 88.720438 
L 369.084866 86.750735 
L 368.234218 84.807043 
L 367.322329 82.891318 
L 366.350117 81.00549 
L 365.318561 79.151458 
L 364.2287 77.331089 
L 363.081631 75.546215 
L 361.87851 73.798634 
L 360.620547 72.090105 
L 359.309009 70.422349 
L 357.945217 68.797045 
L 356.530544 67.215829 
L 355.066414 65.680294 
L 353.554303 64.191986 
L 351.995731 62.752404 
L 350.39227 61.362997 
L 348.745532 60.025163 
L 347.057177 58.740251 
L 345.328905 57.509554 
L 343.562455 56.33431 
L 341.759606 55.215705 
L 339.922174 54.154863 
L 338.052009 53.152853 
L 336.150993 52.210684 
L 334.221042 51.329305 
L 332.264098 50.509602 
L 330.282131 49.752403 
L 328.277138 49.058468 
L 326.251138 48.428497 
L 324.206169 47.863124 
L 322.144292 47.362918 
L 320.067583 46.928383 
L 317.978133 46.559956 
L 315.878044 46.258009 
L 313.769433 46.022845 
L 311.654423 45.854702 
L 309.535142 45.753748 
L 307.413725 45.720086 
L 354.217647 49.063223 
L 356.232993 49.095202 
L 358.24631 49.191109 
L 360.25557 49.350845 
L 362.25875 49.57425 
L 364.253834 49.8611 
L 366.238812 50.211105 
L 368.211686 50.623913 
L 370.170469 51.099109 
L 372.113189 51.636213 
L 374.037889 52.234686 
L 375.942632 52.893924 
L 377.8255 53.613264 
L 379.684597 54.391981 
L 381.518051 55.229291 
L 383.324016 56.124352 
L 385.100673 57.076261 
L 386.846234 58.084061 
L 388.55894 59.146736 
L 390.237067 60.263217 
L 391.878926 61.43238 
L 393.482863 62.653047 
L 395.047264 63.923988 
L 396.570552 65.243925 
L 398.051195 66.611529 
L 399.487701 68.025421 
L 400.878624 69.484179 
L 402.222564 70.986334 
L 403.518166 72.530373 
L 404.764127 74.114741 
L 405.959192 75.737843 
L 407.102158 77.398046 
L 408.191873 79.093676 
L 409.227241 80.823027 
L 410.207219 82.584357 
L 411.13082 84.375894 
L 411.997115 86.195832 
L 412.80523 88.04234 
L 413.554353 89.913558 
L 414.243728 91.807602 
L 414.872663 93.722565 
L 415.440523 95.656519 
L 415.946737 97.607516 
L 416.390795 99.573592 
L 416.772249 101.552767 
L 417.090717 103.543048 
L 417.345877 105.542432 
L 417.537472 107.548905 
L 417.665309 109.560446 
L 417.72926 111.575031 
L 417.72926 113.590631 
L 417.665309 115.605216 
L 417.537472 117.616757 
L 417.345877 119.62323 
L 417.090717 121.622614 
L 416.772249 123.612895 
L 416.390795 125.59207 
L 415.946737 127.558146 
L 415.440523 129.509143 
L 414.872663 131.443097 
L 414.243728 133.35806 
L 413.554353 135.252104 
L 412.80523 137.123322 
L 411.997115 138.96983 
L 411.13082 140.789768 
L 410.207219 142.581304 
L 409.227241 144.342635 
L 408.191873 146.071986 
L 407.102158 147.767616 
L 405.959192 149.427818 
L 404.764127 151.050921 
L 403.518166 152.635289 
L 402.222564 154.179328 
L 400.878624 155.681483 
L 399.487701 157.140241 
L 398.051195 158.554133 
L 396.570552 159.921736 
L 395.047264 161.241673 
L 393.482863 162.512615 
L 391.878926 163.733282 
L 390.237067 164.902444 
L 388.55894 166.018925 
L 386.846234 167.081601 
L 385.100673 168.089401 
L 383.324016 169.04131 
L 381.518051 169.936371 
L 379.684597 170.773681 
L 377.8255 171.552398 
L 375.942632 172.271738 
L 374.037889 172.930976 
L 372.113189 173.529448 
L 370.170469 174.066553 
L 368.211686 174.541748 
L 366.238812 174.954557 
L 364.253834 175.304562 
L 362.25875 175.591412 
L 360.25557 175.814817 
L 358.24631 175.974553 
L 356.232993 176.070459 
L 354.217647 176.102439 
z
" clip-path="url(#pd343340f3c)" style="fill: #ff7f0e; opacity: 0.16; stroke: #ff7f0e; stroke-width: 2; stroke-linejoin: miter"/>
   </g>
   <g id="line2d_3">
    <path d="M 317.443137 57.75538 
L 317.443137 167.410282 
" clip-path="url(#pd343340f3c)" style="fill: none; stroke: #1f77b4; stroke-width: 2; stroke-linecap: square"/>
   </g>
   <g id="text_2">
    <!-- outside -->
    <g style="fill: #1f77b4" transform="translate(331.484314 114.9283) scale(0.085 -0.085)">
     <defs>
      <path id="DejaVuSans-75" d="M 544 1381 
L 544 3500 
L 1119 3500 
L 1119 1403 
Q 1119 906 1312 657 
Q 1506 409 1894 409 
Q 2359 409 2629 706 
Q 2900 1003 2900 1516 
L 2900 3500 
L 3475 3500 
L 3475 0 
L 2900 0 
L 2900 538 
Q 2691 219 2414 64 
Q 2138 -91 1772 -91 
Q 1169 -91 856 284 
Q 544 659 544 1381 
z
M 1991 3584 
L 1991 3584 
z
" transform="scale(0.015625)"/>
      <path id="DejaVuSans-74" d="M 1172 4494 
L 1172 3500 
L 2356 3500 
L 2356 3053 
L 1172 3053 
L 1172 1153 
Q 1172 725 1289 603 
Q 1406 481 1766 481 
L 2356 481 
L 2356 0 
L 1766 0 
Q 1100 0 847 248 
Q 594 497 594 1153 
L 594 3053 
L 172 3053 
L 172 3500 
L 594 3500 
L 594 4494 
L 1172 4494 
z
" transform="scale(0.015625)"/>
      <path id="DejaVuSans-73" d="M 2834 3397 
L 2834 2853 
Q 2591 2978 2328 3040 
Q 2066 3103 1784 3103 
Q 1356 3103 1142 2972 
Q 928 2841 928 2578 
Q 928 2378 1081 2264 
Q 1234 2150 1697 2047 
L 1894 2003 
Q 2506 1872 2764 1633 
Q 3022 1394 3022 966 
Q 3022 478 2636 193 
Q 2250 -91 1575 -91 
Q 1294 -91 989 -36 
Q 684 19 347 128 
L 347 722 
Q 666 556 975 473 
Q 1284 391 1588 391 
Q 1994 391 2212 530 
Q 2431 669 2431 922 
Q 2431 1156 2273 1281 
Q 2116 1406 1581 1522 
L 1381 1569 
Q 847 1681 609 1914 
Q 372 2147 372 2553 
Q 372 3047 722 3315 
Q 1072 3584 1716 3584 
Q 2034 3584 2315 3537 
Q 2597 3491 2834 3397 
z
" transform="scale(0.015625)"/>
      <path id="DejaVuSans-69" d="M 603 3500 
L 1178 3500 
L 1178 0 
L 603 0 
L 603 3500 
z
M 603 4863 
L 1178 4863 
L 1178 4134 
L 603 4134 
L 603 4863 
z
" transform="scale(0.015625)"/>
      <path id="DejaVuSans-64" d="M 2906 2969 
L 2906 4863 
L 3481 4863 
L 3481 0 
L 2906 0 
L 2906 525 
Q 2725 213 2448 61 
Q 2172 -91 1784 -91 
Q 1150 -91 751 415 
Q 353 922 353 1747 
Q 353 2572 751 3078 
Q 1150 3584 1784 3584 
Q 2172 3584 2448 3432 
Q 2725 3281 2906 2969 
z
M 947 1747 
Q 947 1113 1208 752 
Q 1469 391 1925 391 
Q 2381 391 2643 752 
Q 2906 1113 2906 1747 
Q 2906 2381 2643 2742 
Q 2381 3103 1925 3103 
Q 1469 3103 1208 2742 
Q 947 2381 947 1747 
z
" transform="scale(0.015625)"/>
     </defs>
     <use xlink:href="#DejaVuSans-6f"/>
     <use xlink:href="#DejaVuSans-75" transform="translate(61.181641 0)"/>
     <use xlink:href="#DejaVuSans-74" transform="translate(124.560547 0)"/>
     <use xlink:href="#DejaVuSans-73" transform="translate(163.769531 0)"/>
     <use xlink:href="#DejaVuSans-69" transform="translate(215.869141 0)"/>
     <use xlink:href="#DejaVuSans-64" transform="translate(243.652344 0)"/>
     <use xlink:href="#DejaVuSans-65" transform="translate(307.128906 0)"/>
    </g>
   </g>
   <g id="text_3">
    <!-- (b) non-convex -->
    <g transform="translate(268.799063 23.0044) scale(0.12 -0.12)">
     <defs>
      <path id="DejaVuSans-62" d="M 3116 1747 
Q 3116 2381 2855 2742 
Q 2594 3103 2138 3103 
Q 1681 3103 1420 2742 
Q 1159 2381 1159 1747 
Q 1159 1113 1420 752 
Q 1681 391 2138 391 
Q 2594 391 2855 752 
Q 3116 1113 3116 1747 
z
M 1159 2969 
Q 1341 3281 1617 3432 
Q 1894 3584 2278 3584 
Q 2916 3584 3314 3078 
Q 3713 2572 3713 1747 
Q 3713 922 3314 415 
Q 2916 -91 2278 -91 
Q 1894 -91 1617 61 
Q 1341 213 1159 525 
L 1159 0 
L 581 0 
L 581 4863 
L 1159 4863 
L 1159 2969 
z
" transform="scale(0.015625)"/>
      <path id="DejaVuSans-2d" d="M 313 2009 
L 1997 2009 
L 1997 1497 
L 313 1497 
L 313 2009 
z
" transform="scale(0.015625)"/>
     </defs>
     <use xlink:href="#DejaVuSans-28"/>
     <use xlink:href="#DejaVuSans-62" transform="translate(39.013672 0)"/>
     <use xlink:href="#DejaVuSans-29" transform="translate(102.490234 0)"/>
     <use xlink:href="#DejaVuSans-20" transform="translate(141.503906 0)"/>
     <use xlink:href="#DejaVuSans-6e" transform="translate(173.291016 0)"/>
     <use xlink:href="#DejaVuSans-6f" transform="translate(236.669922 0)"/>
     <use xlink:href="#DejaVuSans-6e" transform="translate(297.851562 0)"/>
     <use xlink:href="#DejaVuSans-2d" transform="translate(361.230469 0)"/>
     <use xlink:href="#DejaVuSans-63" transform="translate(397.314453 0)"/>
     <use xlink:href="#DejaVuSans-6f" transform="translate(452.294922 0)"/>
     <use xlink:href="#DejaVuSans-6e" transform="translate(513.476562 0)"/>
     <use xlink:href="#DejaVuSans-76" transform="translate(576.855469 0)"/>
     <use xlink:href="#DejaVuSans-65" transform="translate(636.035156 0)"/>
     <use xlink:href="#DejaVuSans-78" transform="translate(695.808594 0)"/>
    </g>
   </g>
   <g id="line2d_4">
    <defs>
     <path id="m9a1dc8a108" d="M 0 2.5 
C 0.663008 2.5 1.29895 2.236584 1.767767 1.767767 
C 2.236584 1.29895 2.5 0.663008 2.5 0 
C 2.5 -0.663008 2.236584 -1.29895 1.767767 -1.767767 
C 1.29895 -2.236584 0.663008 -2.5 0 -2.5 
C -0.663008 -2.5 -1.29895 -2.236584 -1.767767 -1.767767 
C -2.236584 -1.29895 -2.5 -0.663008 -2.5 0 
C -2.5 0.663008 -2.236584 1.29895 -1.767767 1.767767 
C -1.29895 2.236584 -0.663008 2.5 0 2.5 
z
" style="stroke: #1f77b4"/>
    </defs>
    <g clip-path="url(#pd343340f3c)">
     <use xlink:href="#m9a1dc8a108" x="317.443137" y="57.75538" style="fill: #1f77b4; stroke: #1f77b4"/>
     <use xlink:href="#m9a1dc8a108" x="317.443137" y="167.410282" style="fill: #1f77b4; stroke: #1f77b4"/>
    </g>
   </g>
   <g id="line2d_5">
    <defs>
     <path id="m624cfaef68" d="M -4.5 4.5 
L 4.5 -4.5 
M -4.5 -4.5 
L 4.5 4.5 
" style="stroke: #1f77b4; stroke-width: 2.2"/>
    </defs>
    <g clip-path="url(#pd343340f3c)">
     <use xlink:href="#m624cfaef68" x="317.443137" y="112.582831" style="fill: #1f77b4; stroke: #1f77b4; stroke-width: 2.2"/>
    </g>
   </g>
  </g>
  <g id="axes_3">
   <g id="patch_4">
    <path d="M 510.676471 132.641654 
L 595.926471 132.641654 
L 510.676471 47.391654 
z
" clip-path="url(#pbc66c20fde)" style="fill: #2ca02c; opacity: 0.18; stroke: #2ca02c; stroke-width: 2; stroke-linejoin: miter"/>
   </g>
   <g id="patch_5">
    <path d="M 557.099211 247.055223 
L 419.063452 49.861281 
L 221.869509 187.89704 
L 359.905269 385.090983 
z
" clip-path="url(#pbc66c20fde)" style="fill: #1f77b4; opacity: 0.1"/>
   </g>
   <g id="line2d_6">
    <path d="M 531.893831 211.047537 
L 419.063452 49.861281 
" clip-path="url(#pbc66c20fde)" style="fill: none; stroke-dasharray: 6.66,2.88; stroke-dashoffset: 0; stroke: #1f77b4; stroke-width: 1.8"/>
   </g>
   <g id="text_4">
    <!-- $\{\mathbf{p}\succeq0,\ \mathbf{1}^\top\mathbf{p}=1\}$ -->
    <g style="fill: #2ca02c" transform="translate(504.112941 110.755625) scale(0.085 -0.085)">
     <defs>
      <path id="Cmex10-a9" d="M 1631 -6425 
L 1631 -4556 
Q 1631 -4338 1503 -4159 
Q 1375 -3981 1184 -3867 
Q 994 -3753 756 -3675 
Q 709 -3650 709 -3622 
L 709 -3547 
Q 709 -3503 756 -3494 
Q 1128 -3366 1379 -3150 
Q 1631 -2934 1631 -2606 
L 1631 -738 
Q 1631 -325 2004 -95 
Q 2378 134 2888 256 
L 2963 256 
Q 2981 256 2998 242 
Q 3016 228 3016 206 
L 3016 128 
Q 3016 91 2975 78 
Q 2619 -31 2359 -232 
Q 2100 -434 2100 -750 
L 2100 -2619 
Q 2100 -2994 1804 -3214 
Q 1509 -3434 1056 -3584 
Q 1497 -3716 1798 -3939 
Q 2100 -4163 2100 -4544 
L 2100 -6413 
Q 2100 -6628 2231 -6790 
Q 2363 -6953 2556 -7059 
Q 2750 -7166 2975 -7238 
Q 3016 -7250 3016 -7291 
L 3016 -7366 
Q 3016 -7384 2998 -7401 
Q 2981 -7419 2963 -7419 
L 2888 -7419 
Q 2559 -7338 2292 -7227 
Q 2025 -7116 1828 -6914 
Q 1631 -6713 1631 -6425 
z
" transform="scale(0.015625)"/>
      <path id="Cmb10-70" d="M 91 -1241 
L 91 -916 
L 531 -916 
L 531 2394 
Q 531 2503 91 2503 
L 91 2828 
L 1247 2881 
L 1247 2619 
Q 1600 2881 2047 2881 
Q 2366 2881 2608 2765 
Q 2850 2650 3011 2453 
Q 3172 2256 3256 1987 
Q 3341 1719 3341 1422 
Q 3341 1000 3170 667 
Q 3000 334 2679 148 
Q 2359 -38 1941 -38 
Q 1566 -38 1288 184 
L 1288 -916 
L 1728 -916 
L 1728 -1241 
L 91 -1241 
z
M 1288 581 
Q 1519 219 1881 219 
Q 2219 219 2358 609 
Q 2497 1000 2497 1422 
Q 2497 1825 2376 2211 
Q 2256 2597 1953 2597 
Q 1763 2597 1588 2508 
Q 1413 2419 1288 2259 
L 1288 581 
z
" transform="scale(0.015625)"/>
      <path id="Cmsy10-ba" d="M 653 -878 
Q 600 -878 565 -837 
Q 531 -797 531 -750 
Q 531 -697 565 -659 
Q 600 -622 653 -622 
L 4325 -622 
Q 4375 -622 4408 -659 
Q 4441 -697 4441 -750 
Q 4441 -797 4408 -837 
Q 4375 -878 4325 -878 
L 653 -878 
z
M 659 366 
Q 600 366 565 406 
Q 531 447 531 506 
Q 584 1019 884 1372 
Q 1184 1725 1626 1920 
Q 2069 2116 2606 2216 
Q 2069 2309 1626 2506 
Q 1184 2703 884 3059 
Q 584 3416 531 3938 
Q 531 3991 565 4031 
Q 600 4072 659 4072 
Q 713 4072 748 4036 
Q 784 4000 788 3956 
Q 859 3253 1446 2897 
Q 2034 2541 2771 2442 
Q 3509 2344 4325 2344 
Q 4375 2344 4408 2303 
Q 4441 2263 4441 2216 
Q 4441 2163 4408 2125 
Q 4375 2088 4325 2088 
Q 3513 2088 2775 1989 
Q 2038 1891 1448 1534 
Q 859 1178 788 488 
Q 784 438 748 402 
Q 713 366 659 366 
z
" transform="scale(0.015625)"/>
      <path id="Cmr10-30" d="M 1600 -141 
Q 816 -141 533 504 
Q 250 1150 250 2041 
Q 250 2597 351 3087 
Q 453 3578 754 3920 
Q 1056 4263 1600 4263 
Q 2022 4263 2290 4056 
Q 2559 3850 2700 3523 
Q 2841 3197 2892 2823 
Q 2944 2450 2944 2041 
Q 2944 1491 2842 1011 
Q 2741 531 2444 195 
Q 2147 -141 1600 -141 
z
M 1600 25 
Q 1956 25 2131 390 
Q 2306 756 2347 1200 
Q 2388 1644 2388 2144 
Q 2388 2625 2347 3031 
Q 2306 3438 2132 3767 
Q 1959 4097 1600 4097 
Q 1238 4097 1063 3765 
Q 888 3434 847 3029 
Q 806 2625 806 2144 
Q 806 1788 823 1472 
Q 841 1156 916 820 
Q 991 484 1158 254 
Q 1325 25 1600 25 
z
" transform="scale(0.015625)"/>
      <path id="Cmmi10-3b" d="M 634 -1153 
Q 634 -1125 659 -1100 
Q 891 -878 1019 -587 
Q 1147 -297 1147 25 
L 1147 103 
Q 1044 0 891 0 
Q 744 0 641 103 
Q 538 206 538 353 
Q 538 503 641 603 
Q 744 703 891 703 
Q 1119 703 1216 492 
Q 1313 281 1313 25 
Q 1313 -331 1170 -651 
Q 1028 -972 769 -1228 
Q 744 -1241 728 -1241 
Q 697 -1241 665 -1212 
Q 634 -1184 634 -1153 
z
" transform="scale(0.015625)"/>
      <path id="Cmr10-31" d="M 594 0 
L 594 225 
Q 1394 225 1394 428 
L 1394 3788 
Q 1063 3628 556 3628 
L 556 3853 
Q 1341 3853 1741 4263 
L 1831 4263 
Q 1853 4263 1873 4245 
Q 1894 4228 1894 4206 
L 1894 428 
Q 1894 225 2694 225 
L 2694 0 
L 594 0 
z
" transform="scale(0.015625)"/>
      <path id="Cmsy10-3e" d="M 2363 122 
L 2363 4006 
L 481 4006 
Q 428 4006 393 4047 
Q 359 4088 359 4134 
Q 359 4181 393 4222 
Q 428 4263 481 4263 
L 4506 4263 
Q 4553 4263 4587 4222 
Q 4622 4181 4622 4134 
Q 4622 4088 4587 4047 
Q 4553 4006 4506 4006 
L 2619 4006 
L 2619 122 
Q 2619 69 2578 34 
Q 2538 0 2491 0 
Q 2438 0 2400 34 
Q 2363 69 2363 122 
z
" transform="scale(0.015625)"/>
      <path id="Cmr10-3d" d="M 481 850 
Q 428 850 393 890 
Q 359 931 359 978 
Q 359 1031 393 1068 
Q 428 1106 481 1106 
L 4500 1106 
Q 4547 1106 4581 1068 
Q 4616 1031 4616 978 
Q 4616 931 4581 890 
Q 4547 850 4500 850 
L 481 850 
z
M 481 2094 
Q 428 2094 393 2131 
Q 359 2169 359 2222 
Q 359 2269 393 2309 
Q 428 2350 481 2350 
L 4500 2350 
Q 4547 2350 4581 2309 
Q 4616 2269 4616 2222 
Q 4616 2169 4581 2131 
Q 4547 2094 4500 2094 
L 481 2094 
z
" transform="scale(0.015625)"/>
      <path id="Cmex10-aa" d="M 709 -7366 
L 709 -7291 
Q 709 -7247 756 -7238 
Q 1631 -6953 1631 -6413 
L 1631 -4544 
Q 1631 -3909 2669 -3584 
Q 2219 -3431 1925 -3209 
Q 1631 -2988 1631 -2619 
L 1631 -750 
Q 1631 -206 756 78 
Q 709 88 709 128 
L 709 206 
Q 709 256 769 256 
L 844 256 
Q 1359 131 1729 -97 
Q 2100 -325 2100 -738 
L 2100 -2606 
Q 2100 -2925 2354 -3142 
Q 2609 -3359 2975 -3494 
Q 3016 -3506 3016 -3547 
L 3016 -3622 
Q 3016 -3641 2975 -3675 
Q 2769 -3744 2566 -3864 
Q 2363 -3984 2231 -4161 
Q 2100 -4338 2100 -4556 
L 2100 -6425 
Q 2100 -6713 1901 -6914 
Q 1703 -7116 1437 -7227 
Q 1172 -7338 844 -7419 
L 769 -7419 
Q 744 -7419 726 -7401 
Q 709 -7384 709 -7366 
z
" transform="scale(0.015625)"/>
     </defs>
     <use xlink:href="#Cmex10-a9" transform="translate(0 94)"/>
     <use xlink:href="#Cmb10-70" transform="translate(58.300781 0.705729)"/>
     <use xlink:href="#Cmsy10-ba" transform="translate(131.376953 0.705729)"/>
     <use xlink:href="#Cmr10-30" transform="translate(226.621094 0.705729)"/>
     <use xlink:href="#Cmmi10-3b" transform="translate(276.621094 0.705729)"/>
     <use xlink:href="#Cmr10-31" transform="translate(351.129265 0.705729)"/>
     <use xlink:href="#Cmsy10-3e" transform="translate(417.884421 38.969792) scale(0.7)"/>
     <use xlink:href="#Cmb10-70" transform="translate(490.932663 0.705729)"/>
     <use xlink:href="#Cmr10-3d" transform="translate(564.008835 0.705729)"/>
     <use xlink:href="#Cmr10-31" transform="translate(659.252976 0.705729)"/>
     <use xlink:href="#Cmex10-aa" transform="translate(709.252976 94)"/>
    </g>
   </g>
   <g id="text_5">
    <!-- $\mathbf{a}^\top\mathbf{x}\leq b$ -->
    <g style="fill: #1f77b4" transform="translate(447.421765 182.864642) scale(0.09 -0.09)">
     <defs>
      <path id="Cmb10-61" d="M 178 716 
Q 178 1081 468 1304 
Q 759 1528 1157 1618 
Q 1556 1709 1925 1709 
L 1925 1947 
Q 1925 2228 1803 2436 
Q 1681 2644 1416 2644 
Q 1244 2644 1050 2613 
Q 1184 2488 1184 2297 
Q 1184 2119 1068 2000 
Q 953 1881 775 1881 
Q 597 1881 478 2000 
Q 359 2119 359 2297 
Q 359 2541 529 2675 
Q 700 2809 937 2854 
Q 1175 2900 1422 2900 
Q 1731 2900 2018 2804 
Q 2306 2709 2493 2498 
Q 2681 2288 2681 1966 
L 2681 453 
Q 2709 325 3003 325 
Q 3084 306 3103 225 
L 3103 103 
Q 3084 19 3003 0 
L 2559 0 
Q 2366 0 2200 100 
Q 2034 200 2034 384 
L 2034 434 
Q 1922 219 1709 90 
Q 1497 -38 1253 -38 
Q 850 -38 514 153 
Q 178 344 178 716 
z
M 1331 219 
Q 1497 219 1633 305 
Q 1769 391 1847 533 
Q 1925 675 1925 838 
L 1925 1478 
Q 1697 1478 1472 1389 
Q 1247 1300 1100 1125 
Q 953 950 953 716 
Q 953 534 1058 376 
Q 1163 219 1331 219 
z
" transform="scale(0.015625)"/>
      <path id="Cmb10-78" d="M 109 0 
L 109 325 
Q 628 325 678 384 
L 1381 1350 
L 588 2516 
L 141 2516 
L 141 2841 
L 1606 2841 
L 1606 2516 
L 1331 2516 
L 1766 1881 
L 2181 2463 
Q 2181 2491 2072 2503 
Q 1963 2516 1888 2516 
L 1888 2841 
L 3156 2841 
L 3156 2516 
Q 2638 2516 2584 2456 
L 1959 1594 
L 2816 325 
L 3272 325 
L 3272 0 
L 1797 0 
L 1797 325 
L 2075 325 
L 1575 1063 
L 1081 378 
Q 1081 356 1193 340 
Q 1306 325 1381 325 
L 1381 0 
L 109 0 
z
" transform="scale(0.015625)"/>
      <path id="Cmsy10-2219" d="M 653 -878 
Q 600 -878 565 -837 
Q 531 -797 531 -750 
Q 531 -697 565 -659 
Q 600 -622 653 -622 
L 4325 -622 
Q 4375 -622 4408 -659 
Q 4441 -697 4441 -750 
Q 4441 -797 4408 -837 
Q 4375 -878 4325 -878 
L 653 -878 
z
M 594 2113 
Q 531 2131 531 2222 
Q 531 2303 616 2338 
L 4269 4063 
Q 4281 4072 4313 4072 
Q 4366 4072 4403 4034 
Q 4441 3997 4441 3944 
Q 4441 3859 4366 3828 
L 959 2222 
L 4384 603 
Q 4441 572 4441 494 
Q 4441 438 4403 402 
Q 4366 366 4313 366 
Q 4281 366 4269 378 
L 594 2113 
z
" transform="scale(0.015625)"/>
      <path id="Cmmi10-62" d="M 1106 -72 
Q 719 -72 503 231 
Q 288 534 288 941 
Q 288 1000 317 1173 
Q 347 1347 347 1388 
L 966 3872 
Q 991 3981 997 4044 
Q 997 4147 581 4147 
Q 519 4147 519 4231 
Q 522 4247 533 4287 
Q 544 4328 561 4350 
Q 578 4372 609 4372 
L 1472 4441 
Q 1550 4441 1550 4359 
L 1075 2472 
Q 1438 2828 1806 2828 
Q 2078 2828 2273 2684 
Q 2469 2541 2566 2306 
Q 2663 2072 2663 1806 
Q 2663 1497 2542 1167 
Q 2422 838 2209 555 
Q 1997 272 1712 100 
Q 1428 -72 1106 -72 
z
M 1119 97 
Q 1338 97 1528 280 
Q 1719 463 1838 691 
Q 1966 947 2077 1386 
Q 2188 1825 2188 2088 
Q 2188 2316 2092 2489 
Q 1997 2663 1791 2663 
Q 1559 2663 1348 2492 
Q 1138 2322 978 2088 
L 800 1363 
Q 697 959 691 716 
Q 691 475 795 286 
Q 900 97 1119 97 
z
" transform="scale(0.015625)"/>
     </defs>
     <use xlink:href="#Cmb10-61" transform="translate(0 0.109375)"/>
     <use xlink:href="#Cmsy10-3e" transform="translate(65.339141 38.373438) scale(0.7)"/>
     <use xlink:href="#Cmb10-78" transform="translate(138.387383 0.109375)"/>
     <use xlink:href="#Cmsy10-2219" transform="translate(208.631523 0.109375)"/>
     <use xlink:href="#Cmmi10-62" transform="translate(303.875664 0.109375)"/>
    </g>
   </g>
   <g id="patch_6">
    <path d="M 442.473226 132.641654 
Q 530.735505 132.641654 617.991554 132.641654 
" style="fill: none; stroke: #7f7f7f; stroke-width: 0.9; stroke-linecap: round"/>
    <path d="M 613.591554 130.441654 
L 617.991554 132.641654 
L 613.591554 134.841654 
" style="fill: none; stroke: #7f7f7f; stroke-width: 0.9; stroke-linecap: round"/>
   </g>
   <g id="patch_7">
    <path d="M 510.676471 200.844899 
Q 510.676471 112.58262 510.676471 25.326571 
" style="fill: none; stroke: #7f7f7f; stroke-width: 0.9; stroke-linecap: round"/>
    <path d="M 508.476471 29.726571 
L 510.676471 25.326571 
L 512.876471 29.726571 
" style="fill: none; stroke: #7f7f7f; stroke-width: 0.9; stroke-linecap: round"/>
   </g>
   <g id="text_6">
    <!-- (c) simplex, half-space -->
    <g transform="translate(463.087169 16.318125) scale(0.12 -0.12)">
     <defs>
      <path id="DejaVuSans-6d" d="M 3328 2828 
Q 3544 3216 3844 3400 
Q 4144 3584 4550 3584 
Q 5097 3584 5394 3201 
Q 5691 2819 5691 2113 
L 5691 0 
L 5113 0 
L 5113 2094 
Q 5113 2597 4934 2840 
Q 4756 3084 4391 3084 
Q 3944 3084 3684 2787 
Q 3425 2491 3425 1978 
L 3425 0 
L 2847 0 
L 2847 2094 
Q 2847 2600 2669 2842 
Q 2491 3084 2119 3084 
Q 1678 3084 1418 2786 
Q 1159 2488 1159 1978 
L 1159 0 
L 581 0 
L 581 3500 
L 1159 3500 
L 1159 2956 
Q 1356 3278 1631 3431 
Q 1906 3584 2284 3584 
Q 2666 3584 2933 3390 
Q 3200 3197 3328 2828 
z
" transform="scale(0.015625)"/>
      <path id="DejaVuSans-70" d="M 1159 525 
L 1159 -1331 
L 581 -1331 
L 581 3500 
L 1159 3500 
L 1159 2969 
Q 1341 3281 1617 3432 
Q 1894 3584 2278 3584 
Q 2916 3584 3314 3078 
Q 3713 2572 3713 1747 
Q 3713 922 3314 415 
Q 2916 -91 2278 -91 
Q 1894 -91 1617 61 
Q 1341 213 1159 525 
z
M 3116 1747 
Q 3116 2381 2855 2742 
Q 2594 3103 2138 3103 
Q 1681 3103 1420 2742 
Q 1159 2381 1159 1747 
Q 1159 1113 1420 752 
Q 1681 391 2138 391 
Q 2594 391 2855 752 
Q 3116 1113 3116 1747 
z
" transform="scale(0.015625)"/>
      <path id="DejaVuSans-6c" d="M 603 4863 
L 1178 4863 
L 1178 0 
L 603 0 
L 603 4863 
z
" transform="scale(0.015625)"/>
      <path id="DejaVuSans-2c" d="M 750 794 
L 1409 794 
L 1409 256 
L 897 -744 
L 494 -744 
L 750 256 
L 750 794 
z
" transform="scale(0.015625)"/>
      <path id="DejaVuSans-68" d="M 3513 2113 
L 3513 0 
L 2938 0 
L 2938 2094 
Q 2938 2591 2744 2837 
Q 2550 3084 2163 3084 
Q 1697 3084 1428 2787 
Q 1159 2491 1159 1978 
L 1159 0 
L 581 0 
L 581 4863 
L 1159 4863 
L 1159 2956 
Q 1366 3272 1645 3428 
Q 1925 3584 2291 3584 
Q 2894 3584 3203 3211 
Q 3513 2838 3513 2113 
z
" transform="scale(0.015625)"/>
      <path id="DejaVuSans-66" d="M 2375 4863 
L 2375 4384 
L 1825 4384 
Q 1516 4384 1395 4259 
Q 1275 4134 1275 3809 
L 1275 3500 
L 2222 3500 
L 2222 3053 
L 1275 3053 
L 1275 0 
L 697 0 
L 697 3053 
L 147 3053 
L 147 3500 
L 697 3500 
L 697 3744 
Q 697 4328 969 4595 
Q 1241 4863 1831 4863 
L 2375 4863 
z
" transform="scale(0.015625)"/>
     </defs>
     <use xlink:href="#DejaVuSans-28"/>
     <use xlink:href="#DejaVuSans-63" transform="translate(39.013672 0)"/>
     <use xlink:href="#DejaVuSans-29" transform="translate(93.994141 0)"/>
     <use xlink:href="#DejaVuSans-20" transform="translate(133.007812 0)"/>
     <use xlink:href="#DejaVuSans-73" transform="translate(164.794922 0)"/>
     <use xlink:href="#DejaVuSans-69" transform="translate(216.894531 0)"/>
     <use xlink:href="#DejaVuSans-6d" transform="translate(244.677734 0)"/>
     <use xlink:href="#DejaVuSans-70" transform="translate(342.089844 0)"/>
     <use xlink:href="#DejaVuSans-6c" transform="translate(405.566406 0)"/>
     <use xlink:href="#DejaVuSans-65" transform="translate(433.349609 0)"/>
     <use xlink:href="#DejaVuSans-78" transform="translate(493.123047 0)"/>
     <use xlink:href="#DejaVuSans-2c" transform="translate(552.302734 0)"/>
     <use xlink:href="#DejaVuSans-20" transform="translate(584.089844 0)"/>
     <use xlink:href="#DejaVuSans-68" transform="translate(615.876953 0)"/>
     <use xlink:href="#DejaVuSans-61" transform="translate(679.255859 0)"/>
     <use xlink:href="#DejaVuSans-6c" transform="translate(740.535156 0)"/>
     <use xlink:href="#DejaVuSans-66" transform="translate(768.318359 0)"/>
     <use xlink:href="#DejaVuSans-2d" transform="translate(798.023438 0)"/>
     <use xlink:href="#DejaVuSans-73" transform="translate(834.107422 0)"/>
     <use xlink:href="#DejaVuSans-70" transform="translate(886.207031 0)"/>
     <use xlink:href="#DejaVuSans-61" transform="translate(949.683594 0)"/>
     <use xlink:href="#DejaVuSans-63" transform="translate(1010.962891 0)"/>
     <use xlink:href="#DejaVuSans-65" transform="translate(1065.943359 0)"/>
    </g>
   </g>
  </g>
 </g>
 <defs>
  <clipPath id="pbe2c286a9b">
   <rect x="7.2" y="25.430701" width="180.529412" height="174.30426"/>
  </clipPath>
  <clipPath id="pd343340f3c">
   <rect x="223.835294" y="29.0044" width="180.529412" height="167.156863"/>
  </clipPath>
  <clipPath id="pbc66c20fde">
   <rect x="440.470588" y="22.318125" width="180.529412" height="180.529412"/>
  </clipPath>
 </defs>
</svg>
