<?xml version="1.0" encoding="utf-8" standalone="no"?>
<!DOCTYPE svg PUBLIC "-//W3C//DTD SVG 1.1//EN"
  "http://www.w3.org/Graphics/SVG/1.1/DTD/svg11.dtd">
<svg xmlns:xlink="http://www.w3.org/1999/xlink" width="594.72pt" height="281.926853pt" viewBox="0 0 594.72 281.926853" xmlns="http://www.w3.org/2000/svg" version="1.1">
 <metadata>
  <rdf:RDF xmlns:dc="http://purl.org/dc/elements/1.1/" xmlns:cc="http://creativecommons.org/ns#" xmlns:rdf="http://www.w3.org/1999/02/22-rdf-syntax-ns#">
   <cc:Work>
    <dc:type rdf:resource="http://purl.org/dc/dcmitype/StillImage"/>
    <dc:format>image/svg+xml</dc:format>
    <dc:creator>
     <cc:Agent>
      <dc:title>Matplotlib v3.10.8, https://matplotlib.org/</dc:title>
     </cc:Agent>
    </dc:creator>
   </cc:Work>
  </rdf:RDF>
 </metadata>
 <defs>
  <style type="text/css">*{stroke-linejoin: round; stroke-linecap: butt}</style>
 </defs>
 <g id="figure_1">
  <g id="patch_1">
   <path d="M 0 281.926853 
L 594.72 281.926853 
L 594.72 0 
L 0 0 
z
" style="fill: #ffffff"/>
  </g>
  <g id="axes_1">
   <g id="FillBetweenPolyCollection_1">
    <defs>
     <path id="m8ed1e3d8fa" d="M 33.2 -259.606853 
L 33.2 -259.725653 
L 33.877483 -258.279827 
L 34.554966 -256.839809 
L 35.232448 -255.405599 
L 35.909931 -253.977197 
L 36.587414 -252.554602 
L 37.264897 -251.137815 
L 37.94238 -249.726835 
L 38.619862 -248.321663 
L 39.297345 -246.922299 
L 39.974828 -245.528742 
L 40.652311 -244.140993 
L 41.329794 -242.759051 
L 42.007276 -241.382918 
L 42.684759 -240.012591 
L 43.362242 -238.648073 
L 44.039725 -237.289362 
L 44.717207 -235.936458 
L 45.39469 -234.589363 
L 46.072173 -233.248075 
L 46.749656 -231.912594 
L 47.427139 -230.582921 
L 48.104621 -229.259056 
L 48.782104 -227.940998 
L 49.459587 -226.628749 
L 50.13707 -225.322306 
L 50.814553 -224.021672 
L 51.492035 -222.726844 
L 52.169518 -221.437825 
L 52.847001 -220.154613 
L 53.524484 -218.877209 
L 54.201967 -217.605612 
L 54.879449 -216.339824 
L 55.556932 -215.079842 
L 56.234415 -213.825669 
L 56.911898 -212.577303 
L 57.589381 -211.334744 
L 58.266863 -210.097993 
L 58.944346 -208.86705 
L 59.621829 -207.641915 
L 60.299312 -206.422587 
L 60.976794 -205.209066 
L 61.654277 -204.001354 
L 62.33176 -202.799449 
L 63.009243 -201.603351 
L 63.686726 -200.413062 
L 64.364208 -199.22858 
L 65.041691 -198.049905 
L 65.719174 -196.877038 
L 66.396657 -195.709979 
L 67.07414 -194.548727 
L 67.751622 -193.393283 
L 68.429105 -192.243647 
L 69.106588 -191.099818 
L 69.784071 -189.961797 
L 70.461554 -188.829584 
L 71.139036 -187.703178 
L 71.816519 -186.582579 
L 72.494002 -185.467789 
L 73.171485 -184.358806 
L 73.848968 -183.255631 
L 74.52645 -182.158263 
L 75.203933 -181.066703 
L 75.881416 -179.98095 
L 76.558899 -178.901005 
L 77.236382 -177.826868 
L 77.913864 -176.758539 
L 78.591347 -175.696017 
L 79.26883 -174.639302 
L 79.946313 -173.588396 
L 80.623795 -172.543297 
L 81.301278 -171.504005 
L 81.978761 -170.470521 
L 82.656244 -169.442845 
L 83.333727 -168.420977 
L 84.011209 -167.404916 
L 84.688692 -166.394662 
L 85.366175 -165.390217 
L 86.043658 -164.391579 
L 86.721141 -163.398748 
L 87.398623 -162.411725 
L 88.076106 -161.43051 
L 88.753589 -160.455103 
L 89.431072 -159.485503 
L 90.108555 -158.521711 
L 90.786037 -157.563726 
L 91.46352 -156.611549 
L 92.141003 -155.665179 
L 92.818486 -154.724618 
L 93.495969 -153.789864 
L 94.173451 -152.860917 
L 94.850934 -151.937778 
L 95.528417 -151.020447 
L 96.2059 -150.108923 
L 96.883382 -149.203207 
L 97.560865 -148.303299 
L 98.238348 -147.409198 
L 98.915831 -146.520905 
L 99.593314 -145.63842 
L 100.270796 -144.761742 
L 100.948279 -143.890871 
L 101.625762 -143.025809 
L 102.303245 -142.166554 
L 102.980728 -141.313107 
L 103.65821 -140.465467 
L 104.335693 -139.623635 
L 105.013176 -138.78761 
L 105.690659 -137.957393 
L 106.368142 -137.132984 
L 107.045624 -136.314383 
L 107.723107 -135.501589 
L 108.40059 -134.694602 
L 109.078073 -133.893424 
L 109.755556 -133.098053 
L 110.433038 -132.308489 
L 111.110521 -131.524733 
L 111.788004 -130.746785 
L 112.465487 -129.974645 
L 113.14297 -129.208312 
L 113.820452 -128.447786 
L 114.497935 -127.693069 
L 115.175418 -126.944159 
L 115.852901 -126.201056 
L 116.530383 -125.463761 
L 117.207866 -124.732274 
L 117.885349 -124.006595 
L 118.562832 -123.286723 
L 119.240315 -122.572659 
L 119.917797 -121.864402 
L 120.59528 -121.161953 
L 121.272763 -120.465311 
L 121.950246 -119.774478 
L 122.627729 -119.089452 
L 123.305211 -118.410233 
L 123.982694 -117.736822 
L 124.660177 -117.069219 
L 125.33766 -116.407423 
L 126.015143 -115.751435 
L 126.692625 -115.101255 
L 127.370108 -114.456882 
L 128.047591 -113.818317 
L 128.725074 -113.18556 
L 129.402557 -112.55861 
L 130.080039 -111.937467 
L 130.757522 -111.322133 
L 131.435005 -110.712606 
L 132.112488 -110.108886 
L 132.789971 -109.510975 
L 133.467453 -108.918871 
L 134.144936 -108.332574 
L 134.822419 -107.752085 
L 135.499902 -107.177404 
L 136.177384 -106.608531 
L 136.854867 -106.045465 
L 137.53235 -105.488206 
L 138.209833 -104.936756 
L 138.887316 -104.391113 
L 139.564798 -103.851277 
L 140.242281 -103.317249 
L 140.919764 -102.789029 
L 141.597247 -102.266617 
L 142.27473 -101.750012 
L 142.952212 -101.239214 
L 143.629695 -100.734225 
L 144.307178 -100.235043 
L 144.984661 -99.741668 
L 145.662144 -99.254101 
L 146.339626 -98.772342 
L 147.017109 -98.296391 
L 147.694592 -97.826247 
L 148.372075 -97.36191 
L 149.049558 -96.903382 
L 149.72704 -96.450661 
L 150.404523 -96.003747 
L 151.082006 -95.562642 
L 151.759489 -95.127343 
L 152.436971 -94.697853 
L 153.114454 -94.27417 
L 153.791937 -93.856295 
L 154.46942 -93.444227 
L 155.146903 -93.037967 
L 155.824385 -92.637515 
L 156.501868 -92.24287 
L 157.179351 -91.854033 
L 157.856834 -91.471003 
L 158.534317 -91.093782 
L 159.211799 -90.722367 
L 159.889282 -90.356761 
L 160.566765 -89.996962 
L 161.244248 -89.64297 
L 161.921731 -89.294787 
L 162.599213 -88.952411 
L 163.276696 -88.615842 
L 163.954179 -88.285081 
L 164.631662 -87.960128 
L 165.309145 -87.640982 
L 165.986627 -87.327644 
L 166.66411 -87.020114 
L 167.341593 -86.718391 
L 168.019076 -86.422476 
L 168.696559 -86.132369 
L 169.374041 -85.848069 
L 170.051524 -85.569577 
L 170.729007 -85.296892 
L 171.40649 -85.030015 
L 172.083972 -84.768946 
L 172.761455 -84.513684 
L 173.438938 -84.26423 
L 174.116421 -84.020584 
L 174.793904 -83.782745 
L 175.471386 -83.550714 
L 176.148869 -83.32449 
L 176.826352 -83.104074 
L 177.503835 -82.889466 
L 178.181318 -82.680666 
L 178.8588 -82.477672 
L 179.536283 -82.280487 
L 180.213766 -82.089109 
L 180.891249 -81.903539 
L 181.568732 -81.723777 
L 182.246214 -81.549822 
L 182.923697 -81.381675 
L 183.60118 -81.219335 
L 184.278663 -81.062803 
L 184.956146 -80.912078 
L 185.633628 -80.767162 
L 186.311111 -80.628053 
L 186.988594 -80.494751 
L 187.666077 -80.367257 
L 188.343559 -80.245571 
L 189.021042 -80.129692 
L 189.698525 -80.019621 
L 190.376008 -79.915358 
L 191.053491 -79.816902 
L 191.730973 -79.724254 
L 192.408456 -79.637414 
L 193.085939 -79.556381 
L 193.763422 -79.481156 
L 194.440905 -79.411738 
L 195.118387 -79.348128 
L 195.79587 -79.290326 
L 196.473353 -79.238331 
L 197.150836 -79.192144 
L 197.828319 -79.151765 
L 198.505801 -79.117193 
L 199.183284 -79.088429 
L 199.860767 -79.065472 
L 200.53825 -79.048323 
L 201.215733 -79.036982 
L 201.893215 -79.031448 
L 202.570698 -79.031722 
L 203.248181 -79.037804 
L 203.925664 -79.049693 
L 204.603147 -79.06739 
L 205.280629 -79.090894 
L 205.958112 -79.120206 
L 206.635595 -79.155326 
L 207.313078 -79.196253 
L 207.99056 -79.242988 
L 208.668043 -79.295531 
L 209.345526 -79.353881 
L 210.023009 -79.418039 
L 210.700492 -79.488004 
L 211.377974 -79.563777 
L 212.055457 -79.645358 
L 212.73294 -79.732747 
L 213.410423 -79.825942 
L 214.087906 -79.924946 
L 214.765388 -80.029757 
L 215.442871 -80.140376 
L 216.120354 -80.256803 
L 216.797837 -80.379037 
L 217.47532 -80.507079 
L 218.152802 -80.640928 
L 218.830285 -80.780585 
L 219.507768 -80.92605 
L 220.185251 -81.077322 
L 220.862734 -81.234402 
L 221.540216 -81.397289 
L 222.217699 -81.565985 
L 222.895182 -81.740487 
L 223.572665 -81.920798 
L 224.250147 -82.106916 
L 224.92763 -82.298841 
L 225.605113 -82.496575 
L 226.282596 -82.700116 
L 226.960079 -82.909464 
L 227.637561 -83.12462 
L 228.315044 -83.345584 
L 228.992527 -83.572356 
L 229.67001 -83.804935 
L 230.347493 -84.043321 
L 231.024975 -84.287516 
L 231.702458 -84.537518 
L 232.379941 -84.793327 
L 233.057424 -85.054944 
L 233.734907 -85.322369 
L 234.412389 -85.595602 
L 235.089872 -85.874642 
L 235.767355 -86.159489 
L 236.444838 -86.450145 
L 237.122321 -86.746608 
L 237.799803 -87.048878 
L 238.477286 -87.356957 
L 239.154769 -87.670842 
L 239.832252 -87.990536 
L 240.509735 -88.316037 
L 241.187217 -88.647346 
L 241.8647 -88.984462 
L 242.542183 -89.327386 
L 243.219666 -89.676118 
L 243.897148 -90.030657 
L 244.574631 -90.391004 
L 245.252114 -90.757158 
L 245.929597 -91.12912 
L 246.60708 -91.50689 
L 247.284562 -91.890468 
L 247.962045 -92.279853 
L 248.639528 -92.675045 
L 249.317011 -93.076045 
L 249.994494 -93.482853 
L 250.671976 -93.895469 
L 251.349459 -94.313892 
L 252.026942 -94.738123 
L 252.704425 -95.168161 
L 253.381908 -95.604007 
L 254.05939 -96.045661 
L 254.736873 -96.493122 
L 255.414356 -96.946391 
L 256.091839 -97.405468 
L 256.769322 -97.870352 
L 257.446804 -98.341044 
L 258.124287 -98.817543 
L 258.80177 -99.29985 
L 259.479253 -99.787965 
L 260.156735 -100.281887 
L 260.834218 -100.781617 
L 261.511701 -101.287155 
L 262.189184 -101.7985 
L 262.866667 -102.315653 
L 262.866667 -259.606853 
L 262.866667 -259.606853 
L 262.189184 -259.606853 
L 261.511701 -259.606853 
L 260.834218 -259.606853 
L 260.156735 -259.606853 
L 259.479253 -259.606853 
L 258.80177 -259.606853 
L 258.124287 -259.606853 
L 257.446804 -259.606853 
L 256.769322 -259.606853 
L 256.091839 -259.606853 
L 255.414356 -259.606853 
L 254.736873 -259.606853 
L 254.05939 -259.606853 
L 253.381908 -259.606853 
L 252.704425 -259.606853 
L 252.026942 -259.606853 
L 251.349459 -259.606853 
L 250.671976 -259.606853 
L 249.994494 -259.606853 
L 249.317011 -259.606853 
L 248.639528 -259.606853 
L 247.962045 -259.606853 
L 247.284562 -259.606853 
L 246.60708 -259.606853 
L 245.929597 -259.606853 
L 245.252114 -259.606853 
L 244.574631 -259.606853 
L 243.897148 -259.606853 
L 243.219666 -259.606853 
L 242.542183 -259.606853 
L 241.8647 -259.606853 
L 241.187217 -259.606853 
L 240.509735 -259.606853 
L 239.832252 -259.606853 
L 239.154769 -259.606853 
L 238.477286 -259.606853 
L 237.799803 -259.606853 
L 237.122321 -259.606853 
L 236.444838 -259.606853 
L 235.767355 -259.606853 
L 235.089872 -259.606853 
L 234.412389 -259.606853 
L 233.734907 -259.606853 
L 233.057424 -259.606853 
L 232.379941 -259.606853 
L 231.702458 -259.606853 
L 231.024975 -259.606853 
L 230.347493 -259.606853 
L 229.67001 -259.606853 
L 228.992527 -259.606853 
L 228.315044 -259.606853 
L 227.637561 -259.606853 
L 226.960079 -259.606853 
L 226.282596 -259.606853 
L 225.605113 -259.606853 
L 224.92763 -259.606853 
L 224.250147 -259.606853 
L 223.572665 -259.606853 
L 222.895182 -259.606853 
L 222.217699 -259.606853 
L 221.540216 -259.606853 
L 220.862734 -259.606853 
L 220.185251 -259.606853 
L 219.507768 -259.606853 
L 218.830285 -259.606853 
L 218.152802 -259.606853 
L 217.47532 -259.606853 
L 216.797837 -259.606853 
L 216.120354 -259.606853 
L 215.442871 -259.606853 
L 214.765388 -259.606853 
L 214.087906 -259.606853 
L 213.410423 -259.606853 
L 212.73294 -259.606853 
L 212.055457 -259.606853 
L 211.377974 -259.606853 
L 210.700492 -259.606853 
L 210.023009 -259.606853 
L 209.345526 -259.606853 
L 208.668043 -259.606853 
L 207.99056 -259.606853 
L 207.313078 -259.606853 
L 206.635595 -259.606853 
L 205.958112 -259.606853 
L 205.280629 -259.606853 
L 204.603147 -259.606853 
L 203.925664 -259.606853 
L 203.248181 -259.606853 
L 202.570698 -259.606853 
L 201.893215 -259.606853 
L 201.215733 -259.606853 
L 200.53825 -259.606853 
L 199.860767 -259.606853 
L 199.183284 -259.606853 
L 198.505801 -259.606853 
L 197.828319 -259.606853 
L 197.150836 -259.606853 
L 196.473353 -259.606853 
L 195.79587 -259.606853 
L 195.118387 -259.606853 
L 194.440905 -259.606853 
L 193.763422 -259.606853 
L 193.085939 -259.606853 
L 192.408456 -259.606853 
L 191.730973 -259.606853 
L 191.053491 -259.606853 
L 190.376008 -259.606853 
L 189.698525 -259.606853 
L 189.021042 -259.606853 
L 188.343559 -259.606853 
L 187.666077 -259.606853 
L 186.988594 -259.606853 
L 186.311111 -259.606853 
L 185.633628 -259.606853 
L 184.956146 -259.606853 
L 184.278663 -259.606853 
L 183.60118 -259.606853 
L 182.923697 -259.606853 
L 182.246214 -259.606853 
L 181.568732 -259.606853 
L 180.891249 -259.606853 
L 180.213766 -259.606853 
L 179.536283 -259.606853 
L 178.8588 -259.606853 
L 178.181318 -259.606853 
L 177.503835 -259.606853 
L 176.826352 -259.606853 
L 176.148869 -259.606853 
L 175.471386 -259.606853 
L 174.793904 -259.606853 
L 174.116421 -259.606853 
L 173.438938 -259.606853 
L 172.761455 -259.606853 
L 172.083972 -259.606853 
L 171.40649 -259.606853 
L 170.729007 -259.606853 
L 170.051524 -259.606853 
L 169.374041 -259.606853 
L 168.696559 -259.606853 
L 168.019076 -259.606853 
L 167.341593 -259.606853 
L 166.66411 -259.606853 
L 165.986627 -259.606853 
L 165.309145 -259.606853 
L 164.631662 -259.606853 
L 163.954179 -259.606853 
L 163.276696 -259.606853 
L 162.599213 -259.606853 
L 161.921731 -259.606853 
L 161.244248 -259.606853 
L 160.566765 -259.606853 
L 159.889282 -259.606853 
L 159.211799 -259.606853 
L 158.534317 -259.606853 
L 157.856834 -259.606853 
L 157.179351 -259.606853 
L 156.501868 -259.606853 
L 155.824385 -259.606853 
L 155.146903 -259.606853 
L 154.46942 -259.606853 
L 153.791937 -259.606853 
L 153.114454 -259.606853 
L 152.436971 -259.606853 
L 151.759489 -259.606853 
L 151.082006 -259.606853 
L 150.404523 -259.606853 
L 149.72704 -259.606853 
L 149.049558 -259.606853 
L 148.372075 -259.606853 
L 147.694592 -259.606853 
L 147.017109 -259.606853 
L 146.339626 -259.606853 
L 145.662144 -259.606853 
L 144.984661 -259.606853 
L 144.307178 -259.606853 
L 143.629695 -259.606853 
L 142.952212 -259.606853 
L 142.27473 -259.606853 
L 141.597247 -259.606853 
L 140.919764 -259.606853 
L 140.242281 -259.606853 
L 139.564798 -259.606853 
L 138.887316 -259.606853 
L 138.209833 -259.606853 
L 137.53235 -259.606853 
L 136.854867 -259.606853 
L 136.177384 -259.606853 
L 135.499902 -259.606853 
L 134.822419 -259.606853 
L 134.144936 -259.606853 
L 133.467453 -259.606853 
L 132.789971 -259.606853 
L 132.112488 -259.606853 
L 131.435005 -259.606853 
L 130.757522 -259.606853 
L 130.080039 -259.606853 
L 129.402557 -259.606853 
L 128.725074 -259.606853 
L 128.047591 -259.606853 
L 127.370108 -259.606853 
L 126.692625 -259.606853 
L 126.015143 -259.606853 
L 125.33766 -259.606853 
L 124.660177 -259.606853 
L 123.982694 -259.606853 
L 123.305211 -259.606853 
L 122.627729 -259.606853 
L 121.950246 -259.606853 
L 121.272763 -259.606853 
L 120.59528 -259.606853 
L 119.917797 -259.606853 
L 119.240315 -259.606853 
L 118.562832 -259.606853 
L 117.885349 -259.606853 
L 117.207866 -259.606853 
L 116.530383 -259.606853 
L 115.852901 -259.606853 
L 115.175418 -259.606853 
L 114.497935 -259.606853 
L 113.820452 -259.606853 
L 113.14297 -259.606853 
L 112.465487 -259.606853 
L 111.788004 -259.606853 
L 111.110521 -259.606853 
L 110.433038 -259.606853 
L 109.755556 -259.606853 
L 109.078073 -259.606853 
L 108.40059 -259.606853 
L 107.723107 -259.606853 
L 107.045624 -259.606853 
L 106.368142 -259.606853 
L 105.690659 -259.606853 
L 105.013176 -259.606853 
L 104.335693 -259.606853 
L 103.65821 -259.606853 
L 102.980728 -259.606853 
L 102.303245 -259.606853 
L 101.625762 -259.606853 
L 100.948279 -259.606853 
L 100.270796 -259.606853 
L 99.593314 -259.606853 
L 98.915831 -259.606853 
L 98.238348 -259.606853 
L 97.560865 -259.606853 
L 96.883382 -259.606853 
L 96.2059 -259.606853 
L 95.528417 -259.606853 
L 94.850934 -259.606853 
L 94.173451 -259.606853 
L 93.495969 -259.606853 
L 92.818486 -259.606853 
L 92.141003 -259.606853 
L 91.46352 -259.606853 
L 90.786037 -259.606853 
L 90.108555 -259.606853 
L 89.431072 -259.606853 
L 88.753589 -259.606853 
L 88.076106 -259.606853 
L 87.398623 -259.606853 
L 86.721141 -259.606853 
L 86.043658 -259.606853 
L 85.366175 -259.606853 
L 84.688692 -259.606853 
L 84.011209 -259.606853 
L 83.333727 -259.606853 
L 82.656244 -259.606853 
L 81.978761 -259.606853 
L 81.301278 -259.606853 
L 80.623795 -259.606853 
L 79.946313 -259.606853 
L 79.26883 -259.606853 
L 78.591347 -259.606853 
L 77.913864 -259.606853 
L 77.236382 -259.606853 
L 76.558899 -259.606853 
L 75.881416 -259.606853 
L 75.203933 -259.606853 
L 74.52645 -259.606853 
L 73.848968 -259.606853 
L 73.171485 -259.606853 
L 72.494002 -259.606853 
L 71.816519 -259.606853 
L 71.139036 -259.606853 
L 70.461554 -259.606853 
L 69.784071 -259.606853 
L 69.106588 -259.606853 
L 68.429105 -259.606853 
L 67.751622 -259.606853 
L 67.07414 -259.606853 
L 66.396657 -259.606853 
L 65.719174 -259.606853 
L 65.041691 -259.606853 
L 64.364208 -259.606853 
L 63.686726 -259.606853 
L 63.009243 -259.606853 
L 62.33176 -259.606853 
L 61.654277 -259.606853 
L 60.976794 -259.606853 
L 60.299312 -259.606853 
L 59.621829 -259.606853 
L 58.944346 -259.606853 
L 58.266863 -259.606853 
L 57.589381 -259.606853 
L 56.911898 -259.606853 
L 56.234415 -259.606853 
L 55.556932 -259.606853 
L 54.879449 -259.606853 
L 54.201967 -259.606853 
L 53.524484 -259.606853 
L 52.847001 -259.606853 
L 52.169518 -259.606853 
L 51.492035 -259.606853 
L 50.814553 -259.606853 
L 50.13707 -259.606853 
L 49.459587 -259.606853 
L 48.782104 -259.606853 
L 48.104621 -259.606853 
L 47.427139 -259.606853 
L 46.749656 -259.606853 
L 46.072173 -259.606853 
L 45.39469 -259.606853 
L 44.717207 -259.606853 
L 44.039725 -259.606853 
L 43.362242 -259.606853 
L 42.684759 -259.606853 
L 42.007276 -259.606853 
L 41.329794 -259.606853 
L 40.652311 -259.606853 
L 39.974828 -259.606853 
L 39.297345 -259.606853 
L 38.619862 -259.606853 
L 37.94238 -259.606853 
L 37.264897 -259.606853 
L 36.587414 -259.606853 
L 35.909931 -259.606853 
L 35.232448 -259.606853 
L 34.554966 -259.606853 
L 33.877483 -259.606853 
L 33.2 -259.606853 
z
"/>
    </defs>
    <g clip-path="url(#pdaca74cea5)">
     <use xlink:href="#m8ed1e3d8fa" x="0" y="281.926853" style="fill: #1f77b4; fill-opacity: 0.08"/>
    </g>
   </g>
   <g id="line2d_1">
    <path d="M 33.2 22.2012 
L 39.974828 36.398111 
L 46.072173 48.678778 
L 52.169518 60.489028 
L 58.266863 71.828859 
L 64.364208 82.698273 
L 70.461554 93.097269 
L 76.558899 103.025847 
L 81.978761 111.456331 
L 87.398623 119.515127 
L 92.818486 127.202235 
L 98.238348 134.517654 
L 103.65821 141.461386 
L 109.078073 148.033429 
L 114.497935 154.233784 
L 119.917797 160.062451 
L 124.660177 164.857634 
L 129.402557 169.368243 
L 134.144936 173.594278 
L 138.887316 177.53574 
L 143.629695 181.192628 
L 148.372075 184.564942 
L 153.114454 187.652683 
L 157.856834 190.455849 
L 162.599213 192.974442 
L 167.341593 195.208461 
L 171.40649 196.896837 
L 175.471386 198.376139 
L 179.536283 199.646366 
L 183.60118 200.707518 
L 187.666077 201.559595 
L 191.730973 202.202598 
L 195.79587 202.636527 
L 199.860767 202.861381 
L 203.925664 202.87716 
L 207.99056 202.683864 
L 212.055457 202.281494 
L 216.120354 201.67005 
L 220.185251 200.849531 
L 224.250147 199.819937 
L 228.315044 198.581268 
L 232.379941 197.133525 
L 236.444838 195.476708 
L 240.509735 193.610816 
L 245.252114 191.169694 
L 249.994494 188.443999 
L 254.736873 185.43373 
L 259.479253 182.138888 
L 262.866667 179.6112 
L 262.866667 179.6112 
" clip-path="url(#pdaca74cea5)" style="fill: none; stroke: #1f77b4; stroke-width: 2; stroke-linecap: square"/>
   </g>
   <g id="line2d_2">
    <path d="M 67.866667 103.104 
L 229.933333 280.8288 
" clip-path="url(#pdaca74cea5)" style="fill: none; stroke: #2ca02c; stroke-width: 2; stroke-linecap: square"/>
   </g>
   <g id="text_1">
    <!-- $d^\star=p^\star$ -->
    <g transform="translate(129.4 144.387344) scale(0.11 -0.11)">
     <defs>
      <path id="Cmmi10-64" d="M 1113 -72 
Q 709 -72 476 233 
Q 244 538 244 953 
Q 244 1363 456 1803 
Q 669 2244 1030 2536 
Q 1391 2828 1806 2828 
Q 1994 2828 2145 2723 
Q 2297 2619 2381 2444 
L 2741 3872 
Q 2766 3981 2772 4044 
Q 2772 4147 2356 4147 
Q 2291 4147 2291 4231 
Q 2294 4247 2305 4287 
Q 2316 4328 2333 4350 
Q 2350 4372 2381 4372 
L 3244 4441 
Q 3322 4441 3322 4359 
L 2400 678 
Q 2356 572 2356 372 
Q 2356 97 2541 97 
Q 2741 97 2845 351 
Q 2950 606 3022 941 
Q 3034 978 3072 978 
L 3150 978 
Q 3175 978 3190 956 
Q 3206 934 3206 916 
Q 3094 469 2961 198 
Q 2828 -72 2528 -72 
Q 2313 -72 2147 54 
Q 1981 181 1941 391 
Q 1528 -72 1113 -72 
z
M 1119 97 
Q 1350 97 1567 270 
Q 1784 444 1941 678 
Q 1947 684 1947 703 
L 2297 2113 
Q 2259 2338 2131 2500 
Q 2003 2663 1791 2663 
Q 1575 2663 1389 2486 
Q 1203 2309 1075 2069 
Q 950 1813 836 1366 
Q 722 919 722 672 
Q 722 450 817 273 
Q 913 97 1119 97 
z
" transform="scale(0.015625)"/>
      <path id="STIXGeneral-Regular-22c6" d="M 4256 2336 
L 2810 1459 
L 3494 -83 
L 2240 1062 
L 986 -83 
L 1670 1459 
L 224 2336 
L 1901 2144 
L 2240 3821 
L 2579 2144 
L 4256 2336 
z
" transform="scale(0.015625)"/>
      <path id="Cmr10-3d" d="M 481 850 
Q 428 850 393 890 
Q 359 931 359 978 
Q 359 1031 393 1068 
Q 428 1106 481 1106 
L 4500 1106 
Q 4547 1106 4581 1068 
Q 4616 1031 4616 978 
Q 4616 931 4581 890 
Q 4547 850 4500 850 
L 481 850 
z
M 481 2094 
Q 428 2094 393 2131 
Q 359 2169 359 2222 
Q 359 2269 393 2309 
Q 428 2350 481 2350 
L 4500 2350 
Q 4547 2350 4581 2309 
Q 4616 2269 4616 2222 
Q 4616 2169 4581 2131 
Q 4547 2094 4500 2094 
L 481 2094 
z
" transform="scale(0.015625)"/>
      <path id="Cmmi10-70" d="M -159 -1241 
Q -219 -1241 -219 -1159 
Q -197 -1019 -134 -1019 
Q 66 -1019 145 -983 
Q 225 -947 269 -800 
L 991 2081 
Q 1038 2200 1038 2388 
Q 1038 2663 850 2663 
Q 650 2663 553 2423 
Q 456 2184 366 1819 
Q 366 1778 313 1778 
L 238 1778 
Q 222 1778 203 1801 
Q 184 1825 184 1844 
Q 253 2122 317 2315 
Q 381 2509 517 2668 
Q 653 2828 856 2828 
Q 1075 2828 1240 2704 
Q 1406 2581 1453 2369 
Q 1628 2572 1840 2700 
Q 2053 2828 2278 2828 
Q 2547 2828 2745 2684 
Q 2944 2541 3044 2308 
Q 3144 2075 3144 1806 
Q 3144 1394 2933 953 
Q 2722 513 2361 220 
Q 2000 -72 1588 -72 
Q 1400 -72 1248 34 
Q 1097 141 1013 313 
L 722 -825 
Q 706 -919 703 -934 
Q 703 -1019 1125 -1019 
Q 1191 -1019 1191 -1100 
Q 1169 -1184 1155 -1212 
Q 1141 -1241 1081 -1241 
L -159 -1241 
z
M 1594 97 
Q 1816 97 2006 280 
Q 2197 463 2316 691 
Q 2403 863 2479 1111 
Q 2556 1359 2612 1640 
Q 2669 1922 2669 2088 
Q 2669 2234 2630 2362 
Q 2591 2491 2502 2577 
Q 2413 2663 2266 2663 
Q 2031 2663 1823 2495 
Q 1616 2328 1447 2081 
L 1447 2059 
L 1094 647 
Q 1138 419 1263 258 
Q 1388 97 1594 97 
z
" transform="scale(0.015625)"/>
     </defs>
     <use xlink:href="#Cmmi10-64" transform="translate(0 0.94375)"/>
     <use xlink:href="#STIXGeneral-Regular-22c6" transform="translate(75.888906 39.207812) scale(0.7)"/>
     <use xlink:href="#Cmr10-3d" transform="translate(161.115849 0.94375)"/>
     <use xlink:href="#Cmmi10-70" transform="translate(256.359989 0.94375)"/>
     <use xlink:href="#STIXGeneral-Regular-22c6" transform="translate(325.247255 39.207812) scale(0.7)"/>
    </g>
   </g>
   <g id="text_2">
    <!-- feasible -->
    <g style="fill: #ff7f0e" transform="translate(16.375677 123.216045) scale(0.095 -0.095)">
     <defs>
      <path id="DejaVuSans-66" d="M 2375 4863 
L 2375 4384 
L 1825 4384 
Q 1516 4384 1395 4259 
Q 1275 4134 1275 3809 
L 1275 3500 
L 2222 3500 
L 2222 3053 
L 1275 3053 
L 1275 0 
L 697 0 
L 697 3053 
L 147 3053 
L 147 3500 
L 697 3500 
L 697 3744 
Q 697 4328 969 4595 
Q 1241 4863 1831 4863 
L 2375 4863 
z
" transform="scale(0.015625)"/>
      <path id="DejaVuSans-65" d="M 3597 1894 
L 3597 1613 
L 953 1613 
Q 991 1019 1311 708 
Q 1631 397 2203 397 
Q 2534 397 2845 478 
Q 3156 559 3463 722 
L 3463 178 
Q 3153 47 2828 -22 
Q 2503 -91 2169 -91 
Q 1331 -91 842 396 
Q 353 884 353 1716 
Q 353 2575 817 3079 
Q 1281 3584 2069 3584 
Q 2775 3584 3186 3129 
Q 3597 2675 3597 1894 
z
M 3022 2063 
Q 3016 2534 2758 2815 
Q 2500 3097 2075 3097 
Q 1594 3097 1305 2825 
Q 1016 2553 972 2059 
L 3022 2063 
z
" transform="scale(0.015625)"/>
      <path id="DejaVuSans-61" d="M 2194 1759 
Q 1497 1759 1228 1600 
Q 959 1441 959 1056 
Q 959 750 1161 570 
Q 1363 391 1709 391 
Q 2188 391 2477 730 
Q 2766 1069 2766 1631 
L 2766 1759 
L 2194 1759 
z
M 3341 1997 
L 3341 0 
L 2766 0 
L 2766 531 
Q 2569 213 2275 61 
Q 1981 -91 1556 -91 
Q 1019 -91 701 211 
Q 384 513 384 1019 
Q 384 1609 779 1909 
Q 1175 2209 1959 2209 
L 2766 2209 
L 2766 2266 
Q 2766 2663 2505 2880 
Q 2244 3097 1772 3097 
Q 1472 3097 1187 3025 
Q 903 2953 641 2809 
L 641 3341 
Q 956 3463 1253 3523 
Q 1550 3584 1831 3584 
Q 2591 3584 2966 3190 
Q 3341 2797 3341 1997 
z
" transform="scale(0.015625)"/>
      <path id="DejaVuSans-73" d="M 2834 3397 
L 2834 2853 
Q 2591 2978 2328 3040 
Q 2066 3103 1784 3103 
Q 1356 3103 1142 2972 
Q 928 2841 928 2578 
Q 928 2378 1081 2264 
Q 1234 2150 1697 2047 
L 1894 2003 
Q 2506 1872 2764 1633 
Q 3022 1394 3022 966 
Q 3022 478 2636 193 
Q 2250 -91 1575 -91 
Q 1294 -91 989 -36 
Q 684 19 347 128 
L 347 722 
Q 666 556 975 473 
Q 1284 391 1588 391 
Q 1994 391 2212 530 
Q 2431 669 2431 922 
Q 2431 1156 2273 1281 
Q 2116 1406 1581 1522 
L 1381 1569 
Q 847 1681 609 1914 
Q 372 2147 372 2553 
Q 372 3047 722 3315 
Q 1072 3584 1716 3584 
Q 2034 3584 2315 3537 
Q 2597 3491 2834 3397 
z
" transform="scale(0.015625)"/>
      <path id="DejaVuSans-69" d="M 603 3500 
L 1178 3500 
L 1178 0 
L 603 0 
L 603 3500 
z
M 603 4863 
L 1178 4863 
L 1178 4134 
L 603 4134 
L 603 4863 
z
" transform="scale(0.015625)"/>
      <path id="DejaVuSans-62" d="M 3116 1747 
Q 3116 2381 2855 2742 
Q 2594 3103 2138 3103 
Q 1681 3103 1420 2742 
Q 1159 2381 1159 1747 
Q 1159 1113 1420 752 
Q 1681 391 2138 391 
Q 2594 391 2855 752 
Q 3116 1113 3116 1747 
z
M 1159 2969 
Q 1341 3281 1617 3432 
Q 1894 3584 2278 3584 
Q 2916 3584 3314 3078 
Q 3713 2572 3713 1747 
Q 3713 922 3314 415 
Q 2916 -91 2278 -91 
Q 1894 -91 1617 61 
Q 1341 213 1159 525 
L 1159 0 
L 581 0 
L 581 4863 
L 1159 4863 
L 1159 2969 
z
" transform="scale(0.015625)"/>
      <path id="DejaVuSans-6c" d="M 603 4863 
L 1178 4863 
L 1178 0 
L 603 0 
L 603 4863 
z
" transform="scale(0.015625)"/>
     </defs>
     <use xlink:href="#DejaVuSans-66"/>
     <use xlink:href="#DejaVuSans-65" transform="translate(35.205078 0)"/>
     <use xlink:href="#DejaVuSans-61" transform="translate(96.728516 0)"/>
     <use xlink:href="#DejaVuSans-73" transform="translate(158.007812 0)"/>
     <use xlink:href="#DejaVuSans-69" transform="translate(210.107422 0)"/>
     <use xlink:href="#DejaVuSans-62" transform="translate(237.890625 0)"/>
     <use xlink:href="#DejaVuSans-6c" transform="translate(301.367188 0)"/>
     <use xlink:href="#DejaVuSans-65" transform="translate(329.150391 0)"/>
    </g>
    <!-- slice $u\leq0$ -->
    <g style="fill: #ff7f0e" transform="translate(12.323333 133.853967) scale(0.095 -0.095)">
     <defs>
      <path id="DejaVuSans-63" d="M 3122 3366 
L 3122 2828 
Q 2878 2963 2633 3030 
Q 2388 3097 2138 3097 
Q 1578 3097 1268 2742 
Q 959 2388 959 1747 
Q 959 1106 1268 751 
Q 1578 397 2138 397 
Q 2388 397 2633 464 
Q 2878 531 3122 666 
L 3122 134 
Q 2881 22 2623 -34 
Q 2366 -91 2075 -91 
Q 1284 -91 818 406 
Q 353 903 353 1747 
Q 353 2603 823 3093 
Q 1294 3584 2113 3584 
Q 2378 3584 2631 3529 
Q 2884 3475 3122 3366 
z
" transform="scale(0.015625)"/>
      <path id="DejaVuSans-20" transform="scale(0.015625)"/>
      <path id="Cmmi10-75" d="M 678 697 
Q 678 906 734 1126 
Q 791 1347 892 1617 
Q 994 1888 1069 2088 
Q 1153 2322 1153 2472 
Q 1153 2663 1013 2663 
Q 759 2663 595 2402 
Q 431 2141 353 1819 
Q 341 1778 300 1778 
L 225 1778 
Q 172 1778 172 1838 
L 172 1856 
Q 275 2238 487 2533 
Q 700 2828 1025 2828 
Q 1253 2828 1411 2678 
Q 1569 2528 1569 2297 
Q 1569 2178 1516 2047 
Q 1488 1969 1388 1706 
Q 1288 1444 1234 1272 
Q 1181 1100 1147 934 
Q 1113 769 1113 603 
Q 1113 391 1203 244 
Q 1294 97 1497 97 
Q 1906 97 2216 603 
Q 2222 628 2226 651 
Q 2231 675 2234 697 
L 2694 2553 
Q 2716 2638 2794 2698 
Q 2872 2759 2963 2759 
Q 3041 2759 3098 2709 
Q 3156 2659 3156 2578 
Q 3156 2541 3150 2528 
L 2688 684 
Q 2644 494 2644 372 
Q 2644 97 2828 97 
Q 3034 97 3136 351 
Q 3238 606 3309 941 
Q 3322 978 3359 978 
L 3438 978 
Q 3463 978 3478 956 
Q 3494 934 3494 916 
Q 3425 641 3361 444 
Q 3297 247 3159 87 
Q 3022 -72 2816 -72 
Q 2613 -72 2452 39 
Q 2291 150 2234 341 
Q 2088 153 1894 40 
Q 1700 -72 1484 -72 
Q 1116 -72 897 129 
Q 678 331 678 697 
z
" transform="scale(0.015625)"/>
      <path id="Cmsy10-2219" d="M 653 -878 
Q 600 -878 565 -837 
Q 531 -797 531 -750 
Q 531 -697 565 -659 
Q 600 -622 653 -622 
L 4325 -622 
Q 4375 -622 4408 -659 
Q 4441 -697 4441 -750 
Q 4441 -797 4408 -837 
Q 4375 -878 4325 -878 
L 653 -878 
z
M 594 2113 
Q 531 2131 531 2222 
Q 531 2303 616 2338 
L 4269 4063 
Q 4281 4072 4313 4072 
Q 4366 4072 4403 4034 
Q 4441 3997 4441 3944 
Q 4441 3859 4366 3828 
L 959 2222 
L 4384 603 
Q 4441 572 4441 494 
Q 4441 438 4403 402 
Q 4366 366 4313 366 
Q 4281 366 4269 378 
L 594 2113 
z
" transform="scale(0.015625)"/>
      <path id="Cmr10-30" d="M 1600 -141 
Q 816 -141 533 504 
Q 250 1150 250 2041 
Q 250 2597 351 3087 
Q 453 3578 754 3920 
Q 1056 4263 1600 4263 
Q 2022 4263 2290 4056 
Q 2559 3850 2700 3523 
Q 2841 3197 2892 2823 
Q 2944 2450 2944 2041 
Q 2944 1491 2842 1011 
Q 2741 531 2444 195 
Q 2147 -141 1600 -141 
z
M 1600 25 
Q 1956 25 2131 390 
Q 2306 756 2347 1200 
Q 2388 1644 2388 2144 
Q 2388 2625 2347 3031 
Q 2306 3438 2132 3767 
Q 1959 4097 1600 4097 
Q 1238 4097 1063 3765 
Q 888 3434 847 3029 
Q 806 2625 806 2144 
Q 806 1788 823 1472 
Q 841 1156 916 820 
Q 991 484 1158 254 
Q 1325 25 1600 25 
z
" transform="scale(0.015625)"/>
     </defs>
     <use xlink:href="#DejaVuSans-73" transform="translate(0 0.015625)"/>
     <use xlink:href="#DejaVuSans-6c" transform="translate(52.099609 0.015625)"/>
     <use xlink:href="#DejaVuSans-69" transform="translate(79.882812 0.015625)"/>
     <use xlink:href="#DejaVuSans-63" transform="translate(107.666016 0.015625)"/>
     <use xlink:href="#DejaVuSans-65" transform="translate(162.646484 0.015625)"/>
     <use xlink:href="#DejaVuSans-20" transform="translate(224.169922 0.015625)"/>
     <use xlink:href="#Cmmi10-75" transform="translate(255.957031 0.015625)"/>
     <use xlink:href="#Cmsy10-2219" transform="translate(330.693359 0.015625)"/>
     <use xlink:href="#Cmr10-30" transform="translate(425.9375 0.015625)"/>
    </g>
   </g>
   <g id="text_3">
    <!-- $G=\{(g(x),f_0(x))\}$ -->
    <g style="fill: #1f77b4" transform="translate(61.8 61.4275) scale(0.095 -0.095)">
     <defs>
      <path id="Cmmi10-47" d="M 934 1403 
Q 934 1006 1092 707 
Q 1250 409 1547 246 
Q 1844 84 2234 84 
Q 2616 84 2959 264 
Q 3303 444 3391 781 
L 3531 1331 
Q 3534 1350 3537 1370 
Q 3541 1391 3541 1403 
Q 3541 1469 3500 1478 
Q 3341 1522 2859 1522 
Q 2797 1522 2797 1606 
Q 2816 1684 2831 1715 
Q 2847 1747 2906 1747 
L 4556 1747 
Q 4622 1747 4622 1663 
Q 4619 1647 4609 1609 
Q 4600 1572 4584 1547 
Q 4569 1522 4538 1522 
Q 4325 1522 4226 1487 
Q 4128 1453 4091 1306 
L 3950 756 
L 3769 44 
Q 3759 0 3713 0 
Q 3659 0 3559 144 
Q 3459 288 3419 384 
Q 3197 122 2825 -9 
Q 2453 -141 2059 -141 
Q 1563 -141 1164 84 
Q 766 309 545 709 
Q 325 1109 325 1613 
Q 325 2150 564 2673 
Q 803 3197 1212 3611 
Q 1622 4025 2142 4269 
Q 2663 4513 3194 4513 
Q 3406 4513 3601 4447 
Q 3797 4381 3964 4251 
Q 4131 4122 4238 3950 
L 4744 4500 
Q 4744 4513 4775 4513 
L 4813 4513 
Q 4838 4513 4855 4492 
Q 4872 4472 4872 4447 
L 4434 2719 
Q 4434 2675 4384 2675 
L 4269 2675 
Q 4219 2675 4219 2747 
Q 4244 2888 4244 3078 
Q 4244 3394 4137 3672 
Q 4031 3950 3806 4119 
Q 3581 4288 3256 4288 
Q 2741 4288 2303 4027 
Q 1866 3766 1562 3337 
Q 1259 2909 1096 2396 
Q 934 1884 934 1403 
z
" transform="scale(0.015625)"/>
      <path id="Cmex10-a9" d="M 1631 -6425 
L 1631 -4556 
Q 1631 -4338 1503 -4159 
Q 1375 -3981 1184 -3867 
Q 994 -3753 756 -3675 
Q 709 -3650 709 -3622 
L 709 -3547 
Q 709 -3503 756 -3494 
Q 1128 -3366 1379 -3150 
Q 1631 -2934 1631 -2606 
L 1631 -738 
Q 1631 -325 2004 -95 
Q 2378 134 2888 256 
L 2963 256 
Q 2981 256 2998 242 
Q 3016 228 3016 206 
L 3016 128 
Q 3016 91 2975 78 
Q 2619 -31 2359 -232 
Q 2100 -434 2100 -750 
L 2100 -2619 
Q 2100 -2994 1804 -3214 
Q 1509 -3434 1056 -3584 
Q 1497 -3716 1798 -3939 
Q 2100 -4163 2100 -4544 
L 2100 -6413 
Q 2100 -6628 2231 -6790 
Q 2363 -6953 2556 -7059 
Q 2750 -7166 2975 -7238 
Q 3016 -7250 3016 -7291 
L 3016 -7366 
Q 3016 -7384 2998 -7401 
Q 2981 -7419 2963 -7419 
L 2888 -7419 
Q 2559 -7338 2292 -7227 
Q 2025 -7116 1828 -6914 
Q 1631 -6713 1631 -6425 
z
" transform="scale(0.015625)"/>
      <path id="Cmr10-28" d="M 1984 -1588 
Q 1628 -1306 1370 -942 
Q 1113 -578 948 -165 
Q 784 247 703 697 
Q 622 1147 622 1600 
Q 622 2059 703 2509 
Q 784 2959 951 3375 
Q 1119 3791 1378 4153 
Q 1638 4516 1984 4788 
Q 1984 4800 2016 4800 
L 2075 4800 
Q 2094 4800 2109 4783 
Q 2125 4766 2125 4744 
Q 2125 4716 2113 4703 
Q 1800 4397 1592 4047 
Q 1384 3697 1257 3301 
Q 1131 2906 1075 2482 
Q 1019 2059 1019 1600 
Q 1019 -434 2106 -1491 
Q 2125 -1509 2125 -1544 
Q 2125 -1559 2108 -1579 
Q 2091 -1600 2075 -1600 
L 2016 -1600 
Q 1984 -1600 1984 -1588 
z
" transform="scale(0.015625)"/>
      <path id="Cmmi10-67" d="M 91 -916 
Q 91 -759 198 -642 
Q 306 -525 459 -525 
Q 563 -525 633 -589 
Q 703 -653 703 -756 
Q 703 -872 637 -964 
Q 572 -1056 469 -1094 
Q 641 -1147 1006 -1147 
Q 1300 -1147 1544 -920 
Q 1788 -694 1863 -397 
L 2047 353 
Q 1700 0 1325 0 
Q 1050 0 854 140 
Q 659 281 556 515 
Q 453 750 453 1013 
Q 453 1306 573 1628 
Q 694 1950 911 2225 
Q 1128 2500 1409 2664 
Q 1691 2828 2003 2828 
Q 2191 2828 2341 2725 
Q 2491 2622 2578 2450 
Q 2641 2700 2853 2700 
Q 2934 2700 2990 2651 
Q 3047 2603 3047 2522 
Q 3047 2503 3045 2493 
Q 3044 2484 3041 2472 
L 2309 -434 
Q 2259 -634 2125 -800 
Q 1991 -966 1809 -1077 
Q 1628 -1188 1412 -1250 
Q 1197 -1313 997 -1313 
Q 631 -1313 361 -1242 
Q 91 -1172 91 -916 
z
M 1338 166 
Q 1747 166 2144 728 
L 2497 2125 
Q 2453 2347 2322 2505 
Q 2191 2663 1991 2663 
Q 1778 2663 1589 2489 
Q 1400 2316 1275 2075 
Q 1156 1844 1045 1411 
Q 934 978 934 728 
Q 934 509 1034 337 
Q 1134 166 1338 166 
z
" transform="scale(0.015625)"/>
      <path id="Cmmi10-78" d="M 500 184 
Q 613 97 819 97 
Q 1019 97 1172 289 
Q 1325 481 1381 709 
L 1672 1844 
Q 1741 2153 1741 2266 
Q 1741 2425 1652 2544 
Q 1563 2663 1403 2663 
Q 1200 2663 1022 2536 
Q 844 2409 722 2214 
Q 600 2019 550 1819 
Q 538 1778 500 1778 
L 422 1778 
Q 372 1778 372 1838 
L 372 1856 
Q 434 2094 584 2320 
Q 734 2547 951 2687 
Q 1169 2828 1416 2828 
Q 1650 2828 1839 2703 
Q 2028 2578 2106 2363 
Q 2216 2559 2386 2693 
Q 2556 2828 2759 2828 
Q 2897 2828 3040 2779 
Q 3184 2731 3275 2631 
Q 3366 2531 3366 2381 
Q 3366 2219 3261 2101 
Q 3156 1984 2994 1984 
Q 2891 1984 2822 2050 
Q 2753 2116 2753 2216 
Q 2753 2350 2845 2451 
Q 2938 2553 3066 2572 
Q 2950 2663 2747 2663 
Q 2541 2663 2389 2472 
Q 2238 2281 2175 2047 
L 1894 916 
Q 1825 659 1825 494 
Q 1825 331 1917 214 
Q 2009 97 2163 97 
Q 2463 97 2698 361 
Q 2934 625 3009 941 
Q 3022 978 3059 978 
L 3138 978 
Q 3163 978 3178 961 
Q 3194 944 3194 922 
Q 3194 916 3188 903 
Q 3097 522 2806 225 
Q 2516 -72 2150 -72 
Q 1916 -72 1727 54 
Q 1538 181 1459 397 
Q 1359 209 1182 68 
Q 1006 -72 806 -72 
Q 669 -72 523 -23 
Q 378 25 287 125 
Q 197 225 197 378 
Q 197 528 301 651 
Q 406 775 563 775 
Q 669 775 741 711 
Q 813 647 813 544 
Q 813 409 723 309 
Q 634 209 500 184 
z
" transform="scale(0.015625)"/>
      <path id="Cmr10-29" d="M 416 -1600 
Q 359 -1600 359 -1544 
Q 359 -1516 372 -1503 
Q 1466 -434 1466 1600 
Q 1466 3634 384 4691 
Q 359 4706 359 4744 
Q 359 4766 376 4783 
Q 394 4800 416 4800 
L 475 4800 
Q 494 4800 506 4788 
Q 966 4425 1272 3906 
Q 1578 3388 1720 2800 
Q 1863 2213 1863 1600 
Q 1863 1147 1786 708 
Q 1709 269 1542 -157 
Q 1375 -584 1119 -945 
Q 863 -1306 506 -1588 
Q 494 -1600 475 -1600 
L 416 -1600 
z
" transform="scale(0.015625)"/>
      <path id="Cmmi10-3b" d="M 634 -1153 
Q 634 -1125 659 -1100 
Q 891 -878 1019 -587 
Q 1147 -297 1147 25 
L 1147 103 
Q 1044 0 891 0 
Q 744 0 641 103 
Q 538 206 538 353 
Q 538 503 641 603 
Q 744 703 891 703 
Q 1119 703 1216 492 
Q 1313 281 1313 25 
Q 1313 -331 1170 -651 
Q 1028 -972 769 -1228 
Q 744 -1241 728 -1241 
Q 697 -1241 665 -1212 
Q 634 -1184 634 -1153 
z
" transform="scale(0.015625)"/>
      <path id="Cmmi10-66" d="M 622 -1056 
Q 741 -1147 909 -1147 
Q 1138 -1147 1281 -641 
Q 1341 -397 1606 966 
L 1900 2534 
L 1350 2534 
Q 1288 2534 1288 2619 
Q 1313 2759 1369 2759 
L 1941 2759 
L 2016 3175 
Q 2053 3369 2084 3508 
Q 2116 3647 2152 3765 
Q 2188 3884 2259 4031 
Q 2369 4241 2555 4377 
Q 2741 4513 2956 4513 
Q 3097 4513 3230 4461 
Q 3363 4409 3447 4306 
Q 3531 4203 3531 4063 
Q 3531 3900 3423 3779 
Q 3316 3659 3163 3659 
Q 3059 3659 2986 3723 
Q 2913 3788 2913 3891 
Q 2913 4031 3008 4136 
Q 3103 4241 3244 4256 
Q 3125 4347 2950 4347 
Q 2853 4347 2767 4256 
Q 2681 4166 2656 4063 
Q 2616 3900 2478 3181 
L 2400 2759 
L 3059 2759 
Q 3122 2759 3122 2675 
Q 3119 2659 3109 2620 
Q 3100 2581 3083 2557 
Q 3066 2534 3041 2534 
L 2356 2534 
L 2059 972 
Q 2003 631 1929 279 
Q 1856 -72 1723 -442 
Q 1591 -813 1384 -1063 
Q 1178 -1313 897 -1313 
Q 681 -1313 511 -1189 
Q 341 -1066 341 -863 
Q 341 -700 445 -579 
Q 550 -459 709 -459 
Q 816 -459 887 -523 
Q 959 -588 959 -691 
Q 959 -828 857 -942 
Q 756 -1056 622 -1056 
z
" transform="scale(0.015625)"/>
      <path id="Cmex10-aa" d="M 709 -7366 
L 709 -7291 
Q 709 -7247 756 -7238 
Q 1631 -6953 1631 -6413 
L 1631 -4544 
Q 1631 -3909 2669 -3584 
Q 2219 -3431 1925 -3209 
Q 1631 -2988 1631 -2619 
L 1631 -750 
Q 1631 -206 756 78 
Q 709 88 709 128 
L 709 206 
Q 709 256 769 256 
L 844 256 
Q 1359 131 1729 -97 
Q 2100 -325 2100 -738 
L 2100 -2606 
Q 2100 -2925 2354 -3142 
Q 2609 -3359 2975 -3494 
Q 3016 -3506 3016 -3547 
L 3016 -3622 
Q 3016 -3641 2975 -3675 
Q 2769 -3744 2566 -3864 
Q 2363 -3984 2231 -4161 
Q 2100 -4338 2100 -4556 
L 2100 -6425 
Q 2100 -6713 1901 -6914 
Q 1703 -7116 1437 -7227 
Q 1172 -7338 844 -7419 
L 769 -7419 
Q 744 -7419 726 -7401 
Q 709 -7384 709 -7366 
z
" transform="scale(0.015625)"/>
     </defs>
     <use xlink:href="#Cmmi10-47" transform="translate(0 0.705729)"/>
     <use xlink:href="#Cmr10-3d" transform="translate(96.171875 0.705729)"/>
     <use xlink:href="#Cmex10-a9" transform="translate(191.416016 94)"/>
     <use xlink:href="#Cmr10-28" transform="translate(249.716797 0.705729)"/>
     <use xlink:href="#Cmmi10-67" transform="translate(288.535156 0.705729)"/>
     <use xlink:href="#Cmr10-28" transform="translate(336.240234 0.705729)"/>
     <use xlink:href="#Cmmi10-78" transform="translate(375.058594 0.705729)"/>
     <use xlink:href="#Cmr10-29" transform="translate(432.138672 0.705729)"/>
     <use xlink:href="#Cmmi10-3b" transform="translate(470.957031 0.705729)"/>
     <use xlink:href="#Cmmi10-66" transform="translate(516.201172 0.705729)"/>
     <use xlink:href="#Cmr10-30" transform="translate(565.078125 -16.300521) scale(0.7)"/>
     <use xlink:href="#Cmr10-28" transform="translate(606.455469 0.705729)"/>
     <use xlink:href="#Cmmi10-78" transform="translate(645.273828 0.705729)"/>
     <use xlink:href="#Cmr10-29" transform="translate(702.353906 0.705729)"/>
     <use xlink:href="#Cmr10-29" transform="translate(741.172266 0.705729)"/>
     <use xlink:href="#Cmex10-aa" transform="translate(779.990625 94)"/>
    </g>
   </g>
   <g id="text_4">
    <!-- slope $-\lambda^\star$ -->
    <g style="fill: #2ca02c" transform="translate(204.960834 247.280351) rotate(-329) scale(0.095 -0.095)">
     <defs>
      <path id="DejaVuSans-6f" d="M 1959 3097 
Q 1497 3097 1228 2736 
Q 959 2375 959 1747 
Q 959 1119 1226 758 
Q 1494 397 1959 397 
Q 2419 397 2687 759 
Q 2956 1122 2956 1747 
Q 2956 2369 2687 2733 
Q 2419 3097 1959 3097 
z
M 1959 3584 
Q 2709 3584 3137 3096 
Q 3566 2609 3566 1747 
Q 3566 888 3137 398 
Q 2709 -91 1959 -91 
Q 1206 -91 779 398 
Q 353 888 353 1747 
Q 353 2609 779 3096 
Q 1206 3584 1959 3584 
z
" transform="scale(0.015625)"/>
      <path id="DejaVuSans-70" d="M 1159 525 
L 1159 -1331 
L 581 -1331 
L 581 3500 
L 1159 3500 
L 1159 2969 
Q 1341 3281 1617 3432 
Q 1894 3584 2278 3584 
Q 2916 3584 3314 3078 
Q 3713 2572 3713 1747 
Q 3713 922 3314 415 
Q 2916 -91 2278 -91 
Q 1894 -91 1617 61 
Q 1341 213 1159 525 
z
M 3116 1747 
Q 3116 2381 2855 2742 
Q 2594 3103 2138 3103 
Q 1681 3103 1420 2742 
Q 1159 2381 1159 1747 
Q 1159 1113 1420 752 
Q 1681 391 2138 391 
Q 2594 391 2855 752 
Q 3116 1113 3116 1747 
z
" transform="scale(0.015625)"/>
      <path id="Cmsy10-a1" d="M 653 1472 
Q 600 1472 565 1512 
Q 531 1553 531 1600 
Q 531 1647 565 1687 
Q 600 1728 653 1728 
L 4325 1728 
Q 4375 1728 4408 1687 
Q 4441 1647 4441 1600 
Q 4441 1553 4408 1512 
Q 4375 1472 4325 1472 
L 653 1472 
z
" transform="scale(0.015625)"/>
      <path id="Cmmi10-b8" d="M 325 109 
Q 325 203 409 288 
L 2209 2053 
L 1575 3834 
Q 1500 4038 1417 4156 
Q 1334 4275 1178 4275 
Q 1106 4275 1106 4359 
Q 1113 4397 1138 4419 
Q 1163 4441 1203 4441 
Q 1875 4441 2016 4044 
L 3316 416 
Q 3400 144 3488 50 
Q 3519 3 3519 -13 
Q 3519 -72 3469 -72 
L 3122 -72 
Q 2963 -25 2869 206 
L 2284 1844 
L 738 25 
Q 622 -84 531 -84 
Q 450 -84 387 -28 
Q 325 28 325 109 
z
" transform="scale(0.015625)"/>
     </defs>
     <use xlink:href="#DejaVuSans-73" transform="translate(0 0.94375)"/>
     <use xlink:href="#DejaVuSans-6c" transform="translate(52.099609 0.94375)"/>
     <use xlink:href="#DejaVuSans-6f" transform="translate(79.882812 0.94375)"/>
     <use xlink:href="#DejaVuSans-70" transform="translate(141.064453 0.94375)"/>
     <use xlink:href="#DejaVuSans-65" transform="translate(204.541016 0.94375)"/>
     <use xlink:href="#DejaVuSans-20" transform="translate(266.064453 0.94375)"/>
     <use xlink:href="#Cmsy10-a1" transform="translate(297.851562 0.94375)"/>
     <use xlink:href="#Cmmi10-b8" transform="translate(375.537109 0.94375)"/>
     <use xlink:href="#STIXGeneral-Regular-22c6" transform="translate(457.724844 39.207812) scale(0.7)"/>
    </g>
   </g>
   <g id="patch_2">
    <path d="M 9.19647 202.896 
Q 141.532613 202.896 272.862526 202.896 
" style="fill: none; stroke: #7f7f7f; stroke-width: 0.9; stroke-linecap: round"/>
    <path d="M 268.462526 200.696 
L 272.862526 202.896 
L 268.462526 205.096 
" style="fill: none; stroke: #7f7f7f; stroke-width: 0.9; stroke-linecap: round"/>
   </g>
   <g id="patch_3">
    <path d="M 115.533333 269.80145 
Q 115.533333 147.059547 115.533333 25.323876 
" style="fill: none; stroke: #7f7f7f; stroke-width: 0.9; stroke-linecap: round"/>
    <path d="M 113.333333 29.723876 
L 115.533333 25.323876 
L 117.733333 29.723876 
" style="fill: none; stroke: #7f7f7f; stroke-width: 0.9; stroke-linecap: round"/>
   </g>
   <g id="text_5">
    <!-- constraint value  $u$ -->
    <g style="fill: #7f7f7f" transform="translate(187.516667 220.093716) scale(0.095 -0.095)">
     <defs>
      <path id="DejaVuSans-6e" d="M 3513 2113 
L 3513 0 
L 2938 0 
L 2938 2094 
Q 2938 2591 2744 2837 
Q 2550 3084 2163 3084 
Q 1697 3084 1428 2787 
Q 1159 2491 1159 1978 
L 1159 0 
L 581 0 
L 581 3500 
L 1159 3500 
L 1159 2956 
Q 1366 3272 1645 3428 
Q 1925 3584 2291 3584 
Q 2894 3584 3203 3211 
Q 3513 2838 3513 2113 
z
" transform="scale(0.015625)"/>
      <path id="DejaVuSans-74" d="M 1172 4494 
L 1172 3500 
L 2356 3500 
L 2356 3053 
L 1172 3053 
L 1172 1153 
Q 1172 725 1289 603 
Q 1406 481 1766 481 
L 2356 481 
L 2356 0 
L 1766 0 
Q 1100 0 847 248 
Q 594 497 594 1153 
L 594 3053 
L 172 3053 
L 172 3500 
L 594 3500 
L 594 4494 
L 1172 4494 
z
" transform="scale(0.015625)"/>
      <path id="DejaVuSans-72" d="M 2631 2963 
Q 2534 3019 2420 3045 
Q 2306 3072 2169 3072 
Q 1681 3072 1420 2755 
Q 1159 2438 1159 1844 
L 1159 0 
L 581 0 
L 581 3500 
L 1159 3500 
L 1159 2956 
Q 1341 3275 1631 3429 
Q 1922 3584 2338 3584 
Q 2397 3584 2469 3576 
Q 2541 3569 2628 3553 
L 2631 2963 
z
" transform="scale(0.015625)"/>
      <path id="DejaVuSans-76" d="M 191 3500 
L 800 3500 
L 1894 563 
L 2988 3500 
L 3597 3500 
L 2284 0 
L 1503 0 
L 191 3500 
z
" transform="scale(0.015625)"/>
      <path id="DejaVuSans-75" d="M 544 1381 
L 544 3500 
L 1119 3500 
L 1119 1403 
Q 1119 906 1312 657 
Q 1506 409 1894 409 
Q 2359 409 2629 706 
Q 2900 1003 2900 1516 
L 2900 3500 
L 3475 3500 
L 3475 0 
L 2900 0 
L 2900 538 
Q 2691 219 2414 64 
Q 2138 -91 1772 -91 
Q 1169 -91 856 284 
Q 544 659 544 1381 
z
M 1991 3584 
L 1991 3584 
z
" transform="scale(0.015625)"/>
     </defs>
     <use xlink:href="#DejaVuSans-63" transform="translate(0 0.015625)"/>
     <use xlink:href="#DejaVuSans-6f" transform="translate(54.980469 0.015625)"/>
     <use xlink:href="#DejaVuSans-6e" transform="translate(116.162109 0.015625)"/>
     <use xlink:href="#DejaVuSans-73" transform="translate(179.541016 0.015625)"/>
     <use xlink:href="#DejaVuSans-74" transform="translate(231.640625 0.015625)"/>
     <use xlink:href="#DejaVuSans-72" transform="translate(270.849609 0.015625)"/>
     <use xlink:href="#DejaVuSans-61" transform="translate(311.962891 0.015625)"/>
     <use xlink:href="#DejaVuSans-69" transform="translate(373.242188 0.015625)"/>
     <use xlink:href="#DejaVuSans-6e" transform="translate(401.025391 0.015625)"/>
     <use xlink:href="#DejaVuSans-74" transform="translate(464.404297 0.015625)"/>
     <use xlink:href="#DejaVuSans-20" transform="translate(503.613281 0.015625)"/>
     <use xlink:href="#DejaVuSans-76" transform="translate(535.400391 0.015625)"/>
     <use xlink:href="#DejaVuSans-61" transform="translate(594.580078 0.015625)"/>
     <use xlink:href="#DejaVuSans-6c" transform="translate(655.859375 0.015625)"/>
     <use xlink:href="#DejaVuSans-75" transform="translate(683.642578 0.015625)"/>
     <use xlink:href="#DejaVuSans-65" transform="translate(747.021484 0.015625)"/>
     <use xlink:href="#DejaVuSans-20" transform="translate(808.544922 0.015625)"/>
     <use xlink:href="#DejaVuSans-20" transform="translate(840.332031 0.015625)"/>
     <use xlink:href="#Cmmi10-75" transform="translate(872.119141 0.015625)"/>
    </g>
   </g>
   <g id="text_6">
    <!-- objective value  $t$ -->
    <g style="fill: #7f7f7f" transform="translate(126.28 29.54) scale(0.095 -0.095)">
     <defs>
      <path id="DejaVuSans-6a" d="M 603 3500 
L 1178 3500 
L 1178 -63 
Q 1178 -731 923 -1031 
Q 669 -1331 103 -1331 
L -116 -1331 
L -116 -844 
L 38 -844 
Q 366 -844 484 -692 
Q 603 -541 603 -63 
L 603 3500 
z
M 603 4863 
L 1178 4863 
L 1178 4134 
L 603 4134 
L 603 4863 
z
" transform="scale(0.015625)"/>
      <path id="Cmmi10-74" d="M 397 519 
Q 397 613 416 697 
L 878 2534 
L 206 2534 
Q 141 2534 141 2619 
Q 166 2759 225 2759 
L 934 2759 
L 1191 3803 
Q 1216 3888 1291 3947 
Q 1366 4006 1459 4006 
Q 1541 4006 1595 3957 
Q 1650 3909 1650 3828 
Q 1650 3809 1648 3798 
Q 1647 3788 1644 3775 
L 1388 2759 
L 2047 2759 
Q 2113 2759 2113 2675 
Q 2109 2659 2100 2621 
Q 2091 2584 2075 2559 
Q 2059 2534 2028 2534 
L 1331 2534 
L 872 684 
Q 825 503 825 372 
Q 825 97 1013 97 
Q 1294 97 1511 361 
Q 1728 625 1844 941 
Q 1869 978 1894 978 
L 1972 978 
Q 1997 978 2012 961 
Q 2028 944 2028 922 
Q 2028 909 2022 903 
Q 1881 516 1612 222 
Q 1344 -72 997 -72 
Q 744 -72 570 93 
Q 397 259 397 519 
z
" transform="scale(0.015625)"/>
     </defs>
     <use xlink:href="#DejaVuSans-6f" transform="translate(0 0.015625)"/>
     <use xlink:href="#DejaVuSans-62" transform="translate(61.181641 0.015625)"/>
     <use xlink:href="#DejaVuSans-6a" transform="translate(124.658203 0.015625)"/>
     <use xlink:href="#DejaVuSans-65" transform="translate(152.441406 0.015625)"/>
     <use xlink:href="#DejaVuSans-63" transform="translate(213.964844 0.015625)"/>
     <use xlink:href="#DejaVuSans-74" transform="translate(268.945312 0.015625)"/>
     <use xlink:href="#DejaVuSans-69" transform="translate(308.154297 0.015625)"/>
     <use xlink:href="#DejaVuSans-76" transform="translate(335.9375 0.015625)"/>
     <use xlink:href="#DejaVuSans-65" transform="translate(395.117188 0.015625)"/>
     <use xlink:href="#DejaVuSans-20" transform="translate(456.640625 0.015625)"/>
     <use xlink:href="#DejaVuSans-76" transform="translate(488.427734 0.015625)"/>
     <use xlink:href="#DejaVuSans-61" transform="translate(547.607422 0.015625)"/>
     <use xlink:href="#DejaVuSans-6c" transform="translate(608.886719 0.015625)"/>
     <use xlink:href="#DejaVuSans-75" transform="translate(636.669922 0.015625)"/>
     <use xlink:href="#DejaVuSans-65" transform="translate(700.048828 0.015625)"/>
     <use xlink:href="#DejaVuSans-20" transform="translate(761.572266 0.015625)"/>
     <use xlink:href="#DejaVuSans-20" transform="translate(793.359375 0.015625)"/>
     <use xlink:href="#Cmmi10-74" transform="translate(825.146484 0.015625)"/>
    </g>
   </g>
   <g id="text_7">
    <!-- (a) convex $+$ Slater: strong duality -->
    <g transform="translate(37.973333 16.32) scale(0.12 -0.12)">
     <defs>
      <path id="DejaVuSans-28" d="M 1984 4856 
Q 1566 4138 1362 3434 
Q 1159 2731 1159 2009 
Q 1159 1288 1364 580 
Q 1569 -128 1984 -844 
L 1484 -844 
Q 1016 -109 783 600 
Q 550 1309 550 2009 
Q 550 2706 781 3412 
Q 1013 4119 1484 4856 
L 1984 4856 
z
" transform="scale(0.015625)"/>
      <path id="DejaVuSans-29" d="M 513 4856 
L 1013 4856 
Q 1481 4119 1714 3412 
Q 1947 2706 1947 2009 
Q 1947 1309 1714 600 
Q 1481 -109 1013 -844 
L 513 -844 
Q 928 -128 1133 580 
Q 1338 1288 1338 2009 
Q 1338 2731 1133 3434 
Q 928 4138 513 4856 
z
" transform="scale(0.015625)"/>
      <path id="DejaVuSans-78" d="M 3513 3500 
L 2247 1797 
L 3578 0 
L 2900 0 
L 1881 1375 
L 863 0 
L 184 0 
L 1544 1831 
L 300 3500 
L 978 3500 
L 1906 2253 
L 2834 3500 
L 3513 3500 
z
" transform="scale(0.015625)"/>
      <path id="Cmr10-2b" d="M 481 1472 
Q 428 1472 393 1512 
Q 359 1553 359 1600 
Q 359 1647 393 1687 
Q 428 1728 481 1728 
L 2363 1728 
L 2363 3616 
Q 2363 3666 2400 3698 
Q 2438 3731 2491 3731 
Q 2538 3731 2578 3698 
Q 2619 3666 2619 3616 
L 2619 1728 
L 4500 1728 
Q 4547 1728 4581 1687 
Q 4616 1647 4616 1600 
Q 4616 1553 4581 1512 
Q 4547 1472 4500 1472 
L 2619 1472 
L 2619 -416 
Q 2619 -466 2578 -498 
Q 2538 -531 2491 -531 
Q 2438 -531 2400 -498 
Q 2363 -466 2363 -416 
L 2363 1472 
L 481 1472 
z
" transform="scale(0.015625)"/>
      <path id="DejaVuSans-53" d="M 3425 4513 
L 3425 3897 
Q 3066 4069 2747 4153 
Q 2428 4238 2131 4238 
Q 1616 4238 1336 4038 
Q 1056 3838 1056 3469 
Q 1056 3159 1242 3001 
Q 1428 2844 1947 2747 
L 2328 2669 
Q 3034 2534 3370 2195 
Q 3706 1856 3706 1288 
Q 3706 609 3251 259 
Q 2797 -91 1919 -91 
Q 1588 -91 1214 -16 
Q 841 59 441 206 
L 441 856 
Q 825 641 1194 531 
Q 1563 422 1919 422 
Q 2459 422 2753 634 
Q 3047 847 3047 1241 
Q 3047 1584 2836 1778 
Q 2625 1972 2144 2069 
L 1759 2144 
Q 1053 2284 737 2584 
Q 422 2884 422 3419 
Q 422 4038 858 4394 
Q 1294 4750 2059 4750 
Q 2388 4750 2728 4690 
Q 3069 4631 3425 4513 
z
" transform="scale(0.015625)"/>
      <path id="DejaVuSans-3a" d="M 750 794 
L 1409 794 
L 1409 0 
L 750 0 
L 750 794 
z
M 750 3309 
L 1409 3309 
L 1409 2516 
L 750 2516 
L 750 3309 
z
" transform="scale(0.015625)"/>
      <path id="DejaVuSans-67" d="M 2906 1791 
Q 2906 2416 2648 2759 
Q 2391 3103 1925 3103 
Q 1463 3103 1205 2759 
Q 947 2416 947 1791 
Q 947 1169 1205 825 
Q 1463 481 1925 481 
Q 2391 481 2648 825 
Q 2906 1169 2906 1791 
z
M 3481 434 
Q 3481 -459 3084 -895 
Q 2688 -1331 1869 -1331 
Q 1566 -1331 1297 -1286 
Q 1028 -1241 775 -1147 
L 775 -588 
Q 1028 -725 1275 -790 
Q 1522 -856 1778 -856 
Q 2344 -856 2625 -561 
Q 2906 -266 2906 331 
L 2906 616 
Q 2728 306 2450 153 
Q 2172 0 1784 0 
Q 1141 0 747 490 
Q 353 981 353 1791 
Q 353 2603 747 3093 
Q 1141 3584 1784 3584 
Q 2172 3584 2450 3431 
Q 2728 3278 2906 2969 
L 2906 3500 
L 3481 3500 
L 3481 434 
z
" transform="scale(0.015625)"/>
      <path id="DejaVuSans-64" d="M 2906 2969 
L 2906 4863 
L 3481 4863 
L 3481 0 
L 2906 0 
L 2906 525 
Q 2725 213 2448 61 
Q 2172 -91 1784 -91 
Q 1150 -91 751 415 
Q 353 922 353 1747 
Q 353 2572 751 3078 
Q 1150 3584 1784 3584 
Q 2172 3584 2448 3432 
Q 2725 3281 2906 2969 
z
M 947 1747 
Q 947 1113 1208 752 
Q 1469 391 1925 391 
Q 2381 391 2643 752 
Q 2906 1113 2906 1747 
Q 2906 2381 2643 2742 
Q 2381 3103 1925 3103 
Q 1469 3103 1208 2742 
Q 947 2381 947 1747 
z
" transform="scale(0.015625)"/>
      <path id="DejaVuSans-79" d="M 2059 -325 
Q 1816 -950 1584 -1140 
Q 1353 -1331 966 -1331 
L 506 -1331 
L 506 -850 
L 844 -850 
Q 1081 -850 1212 -737 
Q 1344 -625 1503 -206 
L 1606 56 
L 191 3500 
L 800 3500 
L 1894 763 
L 2988 3500 
L 3597 3500 
L 2059 -325 
z
" transform="scale(0.015625)"/>
     </defs>
     <use xlink:href="#DejaVuSans-28" transform="translate(0 0.015625)"/>
     <use xlink:href="#DejaVuSans-61" transform="translate(39.013672 0.015625)"/>
     <use xlink:href="#DejaVuSans-29" transform="translate(100.292969 0.015625)"/>
     <use xlink:href="#DejaVuSans-20" transform="translate(139.306641 0.015625)"/>
     <use xlink:href="#DejaVuSans-63" transform="translate(171.09375 0.015625)"/>
     <use xlink:href="#DejaVuSans-6f" transform="translate(226.074219 0.015625)"/>
     <use xlink:href="#DejaVuSans-6e" transform="translate(287.255859 0.015625)"/>
     <use xlink:href="#DejaVuSans-76" transform="translate(350.634766 0.015625)"/>
     <use xlink:href="#DejaVuSans-65" transform="translate(409.814453 0.015625)"/>
     <use xlink:href="#DejaVuSans-78" transform="translate(471.337891 0.015625)"/>
     <use xlink:href="#DejaVuSans-20" transform="translate(530.517578 0.015625)"/>
     <use xlink:href="#Cmr10-2b" transform="translate(562.304688 0.015625)"/>
     <use xlink:href="#DejaVuSans-20" transform="translate(639.990234 0.015625)"/>
     <use xlink:href="#DejaVuSans-53" transform="translate(671.777344 0.015625)"/>
     <use xlink:href="#DejaVuSans-6c" transform="translate(735.253906 0.015625)"/>
     <use xlink:href="#DejaVuSans-61" transform="translate(763.037109 0.015625)"/>
     <use xlink:href="#DejaVuSans-74" transform="translate(824.316406 0.015625)"/>
     <use xlink:href="#DejaVuSans-65" transform="translate(863.525391 0.015625)"/>
     <use xlink:href="#DejaVuSans-72" transform="translate(925.048828 0.015625)"/>
     <use xlink:href="#DejaVuSans-3a" transform="translate(966.162109 0.015625)"/>
     <use xlink:href="#DejaVuSans-20" transform="translate(999.853516 0.015625)"/>
     <use xlink:href="#DejaVuSans-73" transform="translate(1031.640625 0.015625)"/>
     <use xlink:href="#DejaVuSans-74" transform="translate(1083.740234 0.015625)"/>
     <use xlink:href="#DejaVuSans-72" transform="translate(1122.949219 0.015625)"/>
     <use xlink:href="#DejaVuSans-6f" transform="translate(1164.0625 0.015625)"/>
     <use xlink:href="#DejaVuSans-6e" transform="translate(1225.244141 0.015625)"/>
     <use xlink:href="#DejaVuSans-67" transform="translate(1288.623047 0.015625)"/>
     <use xlink:href="#DejaVuSans-20" transform="translate(1352.099609 0.015625)"/>
     <use xlink:href="#DejaVuSans-64" transform="translate(1383.886719 0.015625)"/>
     <use xlink:href="#DejaVuSans-75" transform="translate(1447.363281 0.015625)"/>
     <use xlink:href="#DejaVuSans-61" transform="translate(1510.742188 0.015625)"/>
     <use xlink:href="#DejaVuSans-6c" transform="translate(1572.021484 0.015625)"/>
     <use xlink:href="#DejaVuSans-69" transform="translate(1599.804688 0.015625)"/>
     <use xlink:href="#DejaVuSans-74" transform="translate(1627.587891 0.015625)"/>
     <use xlink:href="#DejaVuSans-79" transform="translate(1666.796875 0.015625)"/>
    </g>
   </g>
   <g id="line2d_3">
    <path d="M 33.2 22.2012 
L 33.877483 23.647025 
L 34.554966 25.087043 
L 35.232448 26.521253 
L 35.909931 27.949656 
L 36.587414 29.372251 
L 37.264897 30.789038 
L 37.94238 32.200018 
L 38.619862 33.60519 
L 39.297345 35.004554 
L 39.974828 36.398111 
L 40.652311 37.78586 
L 41.329794 39.167801 
L 42.007276 40.543935 
L 42.684759 41.914261 
L 43.362242 43.27878 
L 44.039725 44.637491 
L 44.717207 45.990394 
L 45.39469 47.33749 
L 46.072173 48.678778 
L 46.749656 50.014259 
L 47.427139 51.343931 
L 48.104621 52.667797 
L 48.782104 53.985854 
L 49.459587 55.298104 
L 50.13707 56.604546 
L 50.814553 57.905181 
L 51.492035 59.200008 
L 52.169518 60.489028 
L 52.847001 61.772239 
L 53.524484 63.049644 
L 54.201967 64.32124 
L 54.879449 65.587029 
L 55.556932 66.84701 
L 56.234415 68.101184 
L 56.911898 69.34955 
L 57.589381 70.592108 
L 58.266863 71.828859 
L 58.944346 73.059802 
L 59.621829 74.284938 
L 60.299312 75.504266 
L 60.976794 76.717786 
L 61.654277 77.925499 
L 62.33176 79.127404 
L 63.009243 80.323501 
L 63.686726 81.513791 
L 64.364208 82.698273 
L 65.041691 83.876948 
L 65.719174 85.049814 
L 66.396657 86.216874 
L 67.07414 87.378125 
L 67.751622 88.533569 
L 68.429105 89.683206 
L 69.106588 90.827034 
L 69.784071 91.965056 
L 70.461554 93.097269 
L 71.139036 94.223675 
L 71.816519 95.344273 
L 72.494002 96.459064 
L 73.171485 97.568047 
L 73.848968 98.671222 
L 74.52645 99.76859 
L 75.203933 100.86015 
L 75.881416 101.945902 
L 76.558899 103.025847 
L 77.236382 104.099984 
L 77.913864 105.168314 
L 78.591347 106.230836 
L 79.26883 107.28755 
L 79.946313 108.338457 
L 80.623795 109.383556 
L 81.301278 110.422847 
L 81.978761 111.456331 
L 82.656244 112.484007 
L 83.333727 113.505876 
L 84.011209 114.521937 
L 84.688692 115.53219 
L 85.366175 116.536636 
L 86.043658 117.535274 
L 86.721141 118.528104 
L 87.398623 119.515127 
L 88.076106 120.496342 
L 88.753589 121.47175 
L 89.431072 122.44135 
L 90.108555 123.405142 
L 90.786037 124.363127 
L 91.46352 125.315304 
L 92.141003 126.261673 
L 92.818486 127.202235 
L 93.495969 128.136989 
L 94.173451 129.065936 
L 94.850934 129.989074 
L 95.528417 130.906406 
L 96.2059 131.817929 
L 96.883382 132.723645 
L 97.560865 133.623554 
L 98.238348 134.517654 
L 98.915831 135.405948 
L 99.593314 136.288433 
L 100.270796 137.165111 
L 100.948279 138.035981 
L 101.625762 138.901044 
L 102.303245 139.760299 
L 102.980728 140.613746 
L 103.65821 141.461386 
L 104.335693 142.303218 
L 105.013176 143.139242 
L 105.690659 143.969459 
L 106.368142 144.793868 
L 107.045624 145.61247 
L 107.723107 146.425264 
L 108.40059 147.23225 
L 109.078073 148.033429 
L 109.755556 148.8288 
L 110.433038 149.618363 
L 111.110521 150.402119 
L 111.788004 151.180067 
L 112.465487 151.952208 
L 113.14297 152.718541 
L 113.820452 153.479066 
L 114.497935 154.233784 
L 115.175418 154.982694 
" clip-path="url(#pdaca74cea5)" style="fill: none; stroke: #ff7f0e; stroke-width: 3.4; stroke-linecap: square"/>
   </g>
   <g id="line2d_4">
    <defs>
     <path id="m9c1ad6aac4" d="M 0 3.5 
C 0.928211 3.5 1.81853 3.131218 2.474874 2.474874 
C 3.131218 1.81853 3.5 0.928211 3.5 0 
C 3.5 -0.928211 3.131218 -1.81853 2.474874 -2.474874 
C 1.81853 -3.131218 0.928211 -3.5 0 -3.5 
C -0.928211 -3.5 -1.81853 -3.131218 -2.474874 -2.474874 
C -3.131218 -1.81853 -3.5 -0.928211 -3.5 0 
C -3.5 0.928211 -3.131218 1.81853 -2.474874 2.474874 
C -1.81853 3.131218 -0.928211 3.5 0 3.5 
z
" style="stroke: #000000"/>
    </defs>
    <g clip-path="url(#pdaca74cea5)">
     <use xlink:href="#m9c1ad6aac4" x="115.533333" y="155.376" style="stroke: #000000"/>
    </g>
   </g>
  </g>
  <g id="axes_2">
   <g id="FillBetweenPolyCollection_2">
    <defs>
     <path id="mc8ed15e870" d="M 380.17942 -259.606853 
L 380.17942 -172.8312 
L 380.667763 -172.829852 
L 381.156106 -172.825808 
L 381.644449 -172.819068 
L 382.132791 -172.809631 
L 382.621134 -172.797498 
L 383.109477 -172.782669 
L 383.59782 -172.765143 
L 384.086163 -172.744922 
L 384.574505 -172.722004 
L 385.062848 -172.69639 
L 385.551191 -172.66808 
L 386.039534 -172.637074 
L 386.527876 -172.603371 
L 387.016219 -172.566972 
L 387.504562 -172.527877 
L 387.992905 -172.486086 
L 388.481248 -172.441599 
L 388.96959 -172.394415 
L 389.457933 -172.344535 
L 389.946276 -172.291959 
L 390.434619 -172.236687 
L 390.922962 -172.178719 
L 391.411304 -172.118054 
L 391.899647 -172.054693 
L 392.38799 -171.988636 
L 392.876333 -171.919883 
L 393.364675 -171.848433 
L 393.853018 -171.774288 
L 394.341361 -171.697446 
L 394.829704 -171.617908 
L 395.318047 -171.535674 
L 395.806389 -171.450743 
L 396.294732 -171.363116 
L 396.783075 -171.272794 
L 397.271418 -171.179774 
L 397.759761 -171.084059 
L 398.248103 -170.985648 
L 398.736446 -170.88454 
L 399.224789 -170.780736 
L 399.713132 -170.674236 
L 400.201474 -170.56504 
L 400.689817 -170.453147 
L 401.17816 -170.338558 
L 401.666503 -170.221273 
L 402.154846 -170.101292 
L 402.643188 -169.978615 
L 403.131531 -169.853241 
L 403.619874 -169.725172 
L 404.108217 -169.594406 
L 404.59656 -169.460943 
L 405.084902 -169.324785 
L 405.573245 -169.18593 
L 406.061588 -169.04438 
L 406.549931 -168.900133 
L 407.038273 -168.753189 
L 407.526616 -168.60355 
L 408.014959 -168.451214 
L 408.503302 -168.296183 
L 408.991645 -168.138455 
L 409.479987 -167.97803 
L 409.96833 -167.81491 
L 410.456673 -167.649093 
L 410.945016 -167.48058 
L 411.433359 -167.309371 
L 411.921701 -167.135466 
L 412.410044 -166.958865 
L 412.898387 -166.779567 
L 413.38673 -166.597573 
L 413.875072 -166.412883 
L 414.363415 -166.225497 
L 414.851758 -166.035414 
L 415.340101 -165.842635 
L 415.828444 -165.647161 
L 416.316786 -165.448989 
L 416.805129 -165.248122 
L 417.293472 -165.044559 
L 417.781815 -164.838299 
L 418.270158 -164.629343 
L 418.7585 -164.417691 
L 419.246843 -164.203342 
L 419.735186 -163.986298 
L 420.223529 -163.766557 
L 420.711871 -163.54412 
L 421.200214 -163.318987 
L 421.688557 -163.091158 
L 422.1769 -162.860632 
L 422.665243 -162.62741 
L 423.153585 -162.391492 
L 423.641928 -162.152878 
L 424.130271 -161.911568 
L 424.618614 -161.667561 
L 425.106957 -161.420858 
L 425.595299 -161.171459 
L 426.083642 -160.919364 
L 426.571985 -160.664573 
L 427.060328 -160.407085 
L 427.54867 -160.146901 
L 428.037013 -159.884021 
L 428.525356 -159.618445 
L 429.013699 -159.350172 
L 429.502042 -159.079204 
L 429.990384 -158.805539 
L 430.478727 -158.529178 
L 430.96707 -158.25012 
L 431.455413 -157.968367 
L 431.943756 -157.683917 
L 432.432098 -157.396771 
L 432.920441 -157.106929 
L 433.408784 -156.814391 
L 433.897127 -156.519156 
L 434.385469 -156.221226 
L 434.873812 -155.920599 
L 435.362155 -155.617276 
L 435.850498 -155.311256 
L 436.338841 -155.002541 
L 436.827183 -154.691129 
L 437.315526 -154.377021 
L 437.803869 -154.060217 
L 438.292212 -153.740717 
L 438.780555 -153.41852 
L 439.268897 -153.093627 
L 439.75724 -152.766038 
L 440.245583 -152.435753 
L 440.733926 -152.102772 
L 441.222268 -151.767094 
L 441.710611 -151.42872 
L 442.198954 -151.08765 
L 442.687297 -150.743884 
L 443.17564 -150.397422 
L 443.663982 -150.048263 
L 444.152325 -149.696408 
L 444.640668 -149.341857 
L 445.129011 -148.98461 
L 445.617353 -148.624666 
L 446.105696 -148.262027 
L 446.594039 -147.896691 
L 447.082382 -147.528659 
L 447.570725 -147.157931 
L 448.059067 -146.784506 
L 448.54741 -146.408385 
L 449.035753 -146.029569 
L 449.524096 -145.648055 
L 450.012439 -145.263846 
L 450.500781 -144.876941 
L 450.989124 -144.487339 
L 451.477467 -144.095041 
L 451.96581 -143.700047 
L 452.454152 -143.302357 
L 452.942495 -142.90197 
L 453.430838 -142.498887 
L 453.919181 -142.093108 
L 454.407524 -141.684633 
L 454.895866 -141.273462 
L 455.384209 -140.859594 
L 455.872552 -140.44303 
L 456.360895 -140.02377 
L 456.849238 -139.601814 
L 457.33758 -139.177162 
L 457.825923 -138.749813 
L 458.314266 -138.319769 
L 458.802609 -137.887028 
L 459.290951 -137.45159 
L 459.779294 -137.013457 
L 460.267637 -136.572627 
L 460.75598 -136.129101 
L 461.244323 -135.682879 
L 461.732665 -135.233961 
L 462.221008 -134.782347 
L 462.709351 -134.328036 
L 463.197694 -133.871029 
L 463.686037 -133.411326 
L 464.174379 -132.948927 
L 464.662722 -132.483831 
L 465.151065 -132.01604 
L 465.639408 -131.545552 
L 466.12775 -131.072368 
L 466.616093 -130.596488 
L 467.104436 -130.117911 
L 467.592779 -129.636638 
L 468.081122 -129.152669 
L 468.569464 -128.666004 
L 469.057807 -128.176643 
L 469.54615 -127.684585 
L 470.034493 -127.189832 
L 470.522836 -126.692382 
L 471.011178 -126.192236 
L 471.499521 -125.689393 
L 471.987864 -125.183855 
L 472.476207 -124.67562 
L 472.964549 -124.164689 
L 473.452892 -123.651062 
L 473.941235 -123.134739 
L 474.429578 -122.615719 
L 474.917921 -122.094003 
L 475.406263 -121.569591 
L 475.894606 -121.042483 
L 476.382949 -120.512679 
L 476.871292 -119.980178 
L 477.359635 -119.444981 
L 477.847977 -118.907088 
L 478.33632 -118.366499 
L 478.824663 -117.823213 
L 479.313006 -117.277232 
L 479.801348 -116.728554 
L 480.289691 -116.17718 
L 480.778034 -115.62311 
L 481.266377 -115.066343 
L 481.75472 -114.506881 
L 482.243062 -113.944722 
L 482.731405 -113.379867 
L 483.219748 -112.812315 
L 483.708091 -112.242068 
L 484.196434 -111.669124 
L 484.684776 -111.093484 
L 485.173119 -110.515148 
L 485.661462 -109.934116 
L 486.149805 -109.350387 
L 486.638147 -108.763963 
L 487.12649 -108.174842 
L 487.614833 -107.583025 
L 488.103176 -106.988511 
L 488.591519 -106.391302 
L 489.079861 -105.791396 
L 489.568204 -105.188794 
L 490.056547 -104.583496 
L 490.54489 -103.975501 
L 491.033233 -103.364811 
L 491.521575 -102.751424 
L 492.009918 -102.135341 
L 492.498261 -101.516562 
L 492.986604 -100.895086 
L 493.474946 -100.270915 
L 493.963289 -99.644047 
L 494.451632 -99.014483 
L 494.939975 -98.382223 
L 495.428318 -97.747266 
L 495.91666 -97.109614 
L 496.405003 -96.469265 
L 496.893346 -95.82622 
L 497.381689 -95.180479 
L 497.870032 -94.532041 
L 498.358374 -93.880908 
L 498.846717 -93.227078 
L 499.33506 -92.570552 
L 499.823403 -91.911329 
L 500.311745 -91.249411 
L 500.800088 -90.584796 
L 501.288431 -89.917485 
L 501.776774 -89.247478 
L 502.265117 -88.574775 
L 502.753459 -87.899375 
L 503.241802 -87.22128 
L 503.730145 -86.540488 
L 504.218488 -85.857 
L 504.70683 -85.170815 
L 505.195173 -84.481935 
L 505.683516 -83.790358 
L 506.171859 -83.096085 
L 506.660202 -82.399116 
L 507.148544 -81.699451 
L 507.636887 -80.997089 
L 508.12523 -80.292031 
L 508.613573 -79.584277 
L 509.101916 -78.873827 
L 509.590258 -78.160681 
L 510.078601 -77.444838 
L 510.566944 -76.726299 
L 511.055287 -76.005064 
L 511.543629 -75.281133 
L 512.031972 -74.554506 
L 512.520315 -73.825182 
L 513.008658 -73.093162 
L 513.497001 -72.358446 
L 513.985343 -71.621034 
L 514.473686 -70.880926 
L 514.962029 -70.138121 
L 515.450372 -69.39262 
L 515.938715 -68.644423 
L 516.427057 -67.89353 
L 516.9154 -67.13994 
L 517.403743 -66.383655 
L 517.892086 -65.624673 
L 518.380428 -64.862995 
L 518.868771 -64.09862 
L 519.357114 -63.33155 
L 519.845457 -62.561783 
L 520.3338 -61.78932 
L 520.822142 -61.014161 
L 521.310485 -60.236306 
L 521.798828 -59.455754 
L 522.287171 -58.672507 
L 522.775514 -57.886563 
L 523.263856 -57.097922 
L 523.752199 -56.306586 
L 524.240542 -55.512554 
L 524.728885 -54.715825 
L 525.217227 -53.9164 
L 525.70557 -53.114279 
L 526.193913 -52.309461 
L 526.193913 -259.606853 
L 526.193913 -259.606853 
L 525.70557 -259.606853 
L 525.217227 -259.606853 
L 524.728885 -259.606853 
L 524.240542 -259.606853 
L 523.752199 -259.606853 
L 523.263856 -259.606853 
L 522.775514 -259.606853 
L 522.287171 -259.606853 
L 521.798828 -259.606853 
L 521.310485 -259.606853 
L 520.822142 -259.606853 
L 520.3338 -259.606853 
L 519.845457 -259.606853 
L 519.357114 -259.606853 
L 518.868771 -259.606853 
L 518.380428 -259.606853 
L 517.892086 -259.606853 
L 517.403743 -259.606853 
L 516.9154 -259.606853 
L 516.427057 -259.606853 
L 515.938715 -259.606853 
L 515.450372 -259.606853 
L 514.962029 -259.606853 
L 514.473686 -259.606853 
L 513.985343 -259.606853 
L 513.497001 -259.606853 
L 513.008658 -259.606853 
L 512.520315 -259.606853 
L 512.031972 -259.606853 
L 511.543629 -259.606853 
L 511.055287 -259.606853 
L 510.566944 -259.606853 
L 510.078601 -259.606853 
L 509.590258 -259.606853 
L 509.101916 -259.606853 
L 508.613573 -259.606853 
L 508.12523 -259.606853 
L 507.636887 -259.606853 
L 507.148544 -259.606853 
L 506.660202 -259.606853 
L 506.171859 -259.606853 
L 505.683516 -259.606853 
L 505.195173 -259.606853 
L 504.70683 -259.606853 
L 504.218488 -259.606853 
L 503.730145 -259.606853 
L 503.241802 -259.606853 
L 502.753459 -259.606853 
L 502.265117 -259.606853 
L 501.776774 -259.606853 
L 501.288431 -259.606853 
L 500.800088 -259.606853 
L 500.311745 -259.606853 
L 499.823403 -259.606853 
L 499.33506 -259.606853 
L 498.846717 -259.606853 
L 498.358374 -259.606853 
L 497.870032 -259.606853 
L 497.381689 -259.606853 
L 496.893346 -259.606853 
L 496.405003 -259.606853 
L 495.91666 -259.606853 
L 495.428318 -259.606853 
L 494.939975 -259.606853 
L 494.451632 -259.606853 
L 493.963289 -259.606853 
L 493.474946 -259.606853 
L 492.986604 -259.606853 
L 492.498261 -259.606853 
L 492.009918 -259.606853 
L 491.521575 -259.606853 
L 491.033233 -259.606853 
L 490.54489 -259.606853 
L 490.056547 -259.606853 
L 489.568204 -259.606853 
L 489.079861 -259.606853 
L 488.591519 -259.606853 
L 488.103176 -259.606853 
L 487.614833 -259.606853 
L 487.12649 -259.606853 
L 486.638147 -259.606853 
L 486.149805 -259.606853 
L 485.661462 -259.606853 
L 485.173119 -259.606853 
L 484.684776 -259.606853 
L 484.196434 -259.606853 
L 483.708091 -259.606853 
L 483.219748 -259.606853 
L 482.731405 -259.606853 
L 482.243062 -259.606853 
L 481.75472 -259.606853 
L 481.266377 -259.606853 
L 480.778034 -259.606853 
L 480.289691 -259.606853 
L 479.801348 -259.606853 
L 479.313006 -259.606853 
L 478.824663 -259.606853 
L 478.33632 -259.606853 
L 477.847977 -259.606853 
L 477.359635 -259.606853 
L 476.871292 -259.606853 
L 476.382949 -259.606853 
L 475.894606 -259.606853 
L 475.406263 -259.606853 
L 474.917921 -259.606853 
L 474.429578 -259.606853 
L 473.941235 -259.606853 
L 473.452892 -259.606853 
L 472.964549 -259.606853 
L 472.476207 -259.606853 
L 471.987864 -259.606853 
L 471.499521 -259.606853 
L 471.011178 -259.606853 
L 470.522836 -259.606853 
L 470.034493 -259.606853 
L 469.54615 -259.606853 
L 469.057807 -259.606853 
L 468.569464 -259.606853 
L 468.081122 -259.606853 
L 467.592779 -259.606853 
L 467.104436 -259.606853 
L 466.616093 -259.606853 
L 466.12775 -259.606853 
L 465.639408 -259.606853 
L 465.151065 -259.606853 
L 464.662722 -259.606853 
L 464.174379 -259.606853 
L 463.686037 -259.606853 
L 463.197694 -259.606853 
L 462.709351 -259.606853 
L 462.221008 -259.606853 
L 461.732665 -259.606853 
L 461.244323 -259.606853 
L 460.75598 -259.606853 
L 460.267637 -259.606853 
L 459.779294 -259.606853 
L 459.290951 -259.606853 
L 458.802609 -259.606853 
L 458.314266 -259.606853 
L 457.825923 -259.606853 
L 457.33758 -259.606853 
L 456.849238 -259.606853 
L 456.360895 -259.606853 
L 455.872552 -259.606853 
L 455.384209 -259.606853 
L 454.895866 -259.606853 
L 454.407524 -259.606853 
L 453.919181 -259.606853 
L 453.430838 -259.606853 
L 452.942495 -259.606853 
L 452.454152 -259.606853 
L 451.96581 -259.606853 
L 451.477467 -259.606853 
L 450.989124 -259.606853 
L 450.500781 -259.606853 
L 450.012439 -259.606853 
L 449.524096 -259.606853 
L 449.035753 -259.606853 
L 448.54741 -259.606853 
L 448.059067 -259.606853 
L 447.570725 -259.606853 
L 447.082382 -259.606853 
L 446.594039 -259.606853 
L 446.105696 -259.606853 
L 445.617353 -259.606853 
L 445.129011 -259.606853 
L 444.640668 -259.606853 
L 444.152325 -259.606853 
L 443.663982 -259.606853 
L 443.17564 -259.606853 
L 442.687297 -259.606853 
L 442.198954 -259.606853 
L 441.710611 -259.606853 
L 441.222268 -259.606853 
L 440.733926 -259.606853 
L 440.245583 -259.606853 
L 439.75724 -259.606853 
L 439.268897 -259.606853 
L 438.780555 -259.606853 
L 438.292212 -259.606853 
L 437.803869 -259.606853 
L 437.315526 -259.606853 
L 436.827183 -259.606853 
L 436.338841 -259.606853 
L 435.850498 -259.606853 
L 435.362155 -259.606853 
L 434.873812 -259.606853 
L 434.385469 -259.606853 
L 433.897127 -259.606853 
L 433.408784 -259.606853 
L 432.920441 -259.606853 
L 432.432098 -259.606853 
L 431.943756 -259.606853 
L 431.455413 -259.606853 
L 430.96707 -259.606853 
L 430.478727 -259.606853 
L 429.990384 -259.606853 
L 429.502042 -259.606853 
L 429.013699 -259.606853 
L 428.525356 -259.606853 
L 428.037013 -259.606853 
L 427.54867 -259.606853 
L 427.060328 -259.606853 
L 426.571985 -259.606853 
L 426.083642 -259.606853 
L 425.595299 -259.606853 
L 425.106957 -259.606853 
L 424.618614 -259.606853 
L 424.130271 -259.606853 
L 423.641928 -259.606853 
L 423.153585 -259.606853 
L 422.665243 -259.606853 
L 422.1769 -259.606853 
L 421.688557 -259.606853 
L 421.200214 -259.606853 
L 420.711871 -259.606853 
L 420.223529 -259.606853 
L 419.735186 -259.606853 
L 419.246843 -259.606853 
L 418.7585 -259.606853 
L 418.270158 -259.606853 
L 417.781815 -259.606853 
L 417.293472 -259.606853 
L 416.805129 -259.606853 
L 416.316786 -259.606853 
L 415.828444 -259.606853 
L 415.340101 -259.606853 
L 414.851758 -259.606853 
L 414.363415 -259.606853 
L 413.875072 -259.606853 
L 413.38673 -259.606853 
L 412.898387 -259.606853 
L 412.410044 -259.606853 
L 411.921701 -259.606853 
L 411.433359 -259.606853 
L 410.945016 -259.606853 
L 410.456673 -259.606853 
L 409.96833 -259.606853 
L 409.479987 -259.606853 
L 408.991645 -259.606853 
L 408.503302 -259.606853 
L 408.014959 -259.606853 
L 407.526616 -259.606853 
L 407.038273 -259.606853 
L 406.549931 -259.606853 
L 406.061588 -259.606853 
L 405.573245 -259.606853 
L 405.084902 -259.606853 
L 404.59656 -259.606853 
L 404.108217 -259.606853 
L 403.619874 -259.606853 
L 403.131531 -259.606853 
L 402.643188 -259.606853 
L 402.154846 -259.606853 
L 401.666503 -259.606853 
L 401.17816 -259.606853 
L 400.689817 -259.606853 
L 400.201474 -259.606853 
L 399.713132 -259.606853 
L 399.224789 -259.606853 
L 398.736446 -259.606853 
L 398.248103 -259.606853 
L 397.759761 -259.606853 
L 397.271418 -259.606853 
L 396.783075 -259.606853 
L 396.294732 -259.606853 
L 395.806389 -259.606853 
L 395.318047 -259.606853 
L 394.829704 -259.606853 
L 394.341361 -259.606853 
L 393.853018 -259.606853 
L 393.364675 -259.606853 
L 392.876333 -259.606853 
L 392.38799 -259.606853 
L 391.899647 -259.606853 
L 391.411304 -259.606853 
L 390.922962 -259.606853 
L 390.434619 -259.606853 
L 389.946276 -259.606853 
L 389.457933 -259.606853 
L 388.96959 -259.606853 
L 388.481248 -259.606853 
L 387.992905 -259.606853 
L 387.504562 -259.606853 
L 387.016219 -259.606853 
L 386.527876 -259.606853 
L 386.039534 -259.606853 
L 385.551191 -259.606853 
L 385.062848 -259.606853 
L 384.574505 -259.606853 
L 384.086163 -259.606853 
L 383.59782 -259.606853 
L 383.109477 -259.606853 
L 382.621134 -259.606853 
L 382.132791 -259.606853 
L 381.644449 -259.606853 
L 381.156106 -259.606853 
L 380.667763 -259.606853 
L 380.17942 -259.606853 
z
"/>
    </defs>
    <g clip-path="url(#p435e54d257)">
     <use xlink:href="#mc8ed15e870" x="0" y="281.926853" style="fill: #1f77b4; fill-opacity: 0.09"/>
    </g>
   </g>
   <g id="line2d_5">
    <path d="M 380.17942 109.095652 
L 384.574505 109.204849 
L 388.96959 109.532437 
L 393.364675 110.078419 
L 397.759761 110.842793 
L 402.154846 111.82556 
L 406.549931 113.02672 
L 410.945016 114.446272 
L 415.340101 116.084217 
L 419.735186 117.940555 
L 424.618614 120.259292 
L 429.502042 122.847649 
L 434.385469 125.705627 
L 439.268897 128.833225 
L 444.152325 132.230444 
L 449.035753 135.897284 
L 453.919181 139.833744 
L 458.802609 144.039825 
L 464.174379 148.977926 
L 469.54615 154.242267 
L 474.917921 159.832849 
L 480.289691 165.749673 
L 485.661462 171.992737 
L 491.033233 178.562042 
L 496.893346 186.100633 
L 502.753459 194.027477 
L 508.613573 202.342575 
L 514.473686 211.045927 
L 520.3338 220.137532 
L 526.193913 229.617391 
L 526.193913 229.617391 
" clip-path="url(#p435e54d257)" style="fill: none; stroke: #1f77b4; stroke-width: 2; stroke-linecap: square"/>
   </g>
   <g id="line2d_6">
    <path d="M 348.056232 82.58087 
L 567.077971 263.363478 
" clip-path="url(#p435e54d257)" style="fill: none; stroke: #2ca02c; stroke-width: 2; stroke-linecap: square"/>
   </g>
   <g id="patch_4">
    <path d="M 459.757319 164.346724 
Q 459.757319 154.291947 459.757319 144.23717 
" style="fill: none; stroke: #7f7f7f; stroke-width: 1.4; stroke-linecap: round"/>
    <path d="M 461.957319 159.946724 
L 459.757319 164.346724 
L 457.557319 159.946724 
" style="fill: none; stroke: #7f7f7f; stroke-width: 1.4; stroke-linecap: round"/>
    <path d="M 457.557319 148.63717 
L 459.757319 144.23717 
L 461.957319 148.63717 
" style="fill: none; stroke: #7f7f7f; stroke-width: 1.4; stroke-linecap: round"/>
   </g>
   <g id="text_8">
    <!-- duality gap -->
    <g style="fill: #7f7f7f" transform="translate(467.788116 156.774742) scale(0.09 -0.09)">
     <use xlink:href="#DejaVuSans-64"/>
     <use xlink:href="#DejaVuSans-75" transform="translate(63.476562 0)"/>
     <use xlink:href="#DejaVuSans-61" transform="translate(126.855469 0)"/>
     <use xlink:href="#DejaVuSans-6c" transform="translate(188.134766 0)"/>
     <use xlink:href="#DejaVuSans-69" transform="translate(215.917969 0)"/>
     <use xlink:href="#DejaVuSans-74" transform="translate(243.701172 0)"/>
     <use xlink:href="#DejaVuSans-79" transform="translate(282.910156 0)"/>
     <use xlink:href="#DejaVuSans-20" transform="translate(342.089844 0)"/>
     <use xlink:href="#DejaVuSans-67" transform="translate(373.876953 0)"/>
     <use xlink:href="#DejaVuSans-61" transform="translate(437.353516 0)"/>
     <use xlink:href="#DejaVuSans-70" transform="translate(498.632812 0)"/>
    </g>
   </g>
   <g id="text_9">
    <!-- $p^\star$ -->
    <g transform="translate(431.546014 142.493431) scale(0.11 -0.11)">
     <use xlink:href="#Cmmi10-70" transform="translate(0 0.94375)"/>
     <use xlink:href="#STIXGeneral-Regular-22c6" transform="translate(68.887266 39.207812) scale(0.7)"/>
    </g>
   </g>
   <g id="text_10">
    <!-- $d^\star$ -->
    <g style="fill: #2ca02c" transform="translate(430.776014 172.391834) scale(0.11 -0.11)">
     <use xlink:href="#Cmmi10-64" transform="translate(0 0.94375)"/>
     <use xlink:href="#STIXGeneral-Regular-22c6" transform="translate(75.888906 39.207812) scale(0.7)"/>
    </g>
   </g>
   <g id="text_11">
    <!-- feasible slice $u\leq0$ -->
    <g style="fill: #ff7f0e" transform="translate(380.17942 92.571549) scale(0.1 -0.1)">
     <use xlink:href="#DejaVuSans-66" transform="translate(0 0.015625)"/>
     <use xlink:href="#DejaVuSans-65" transform="translate(35.205078 0.015625)"/>
     <use xlink:href="#DejaVuSans-61" transform="translate(96.728516 0.015625)"/>
     <use xlink:href="#DejaVuSans-73" transform="translate(158.007812 0.015625)"/>
     <use xlink:href="#DejaVuSans-69" transform="translate(210.107422 0.015625)"/>
     <use xlink:href="#DejaVuSans-62" transform="translate(237.890625 0.015625)"/>
     <use xlink:href="#DejaVuSans-6c" transform="translate(301.367188 0.015625)"/>
     <use xlink:href="#DejaVuSans-65" transform="translate(329.150391 0.015625)"/>
     <use xlink:href="#DejaVuSans-20" transform="translate(390.673828 0.015625)"/>
     <use xlink:href="#DejaVuSans-73" transform="translate(422.460938 0.015625)"/>
     <use xlink:href="#DejaVuSans-6c" transform="translate(474.560547 0.015625)"/>
     <use xlink:href="#DejaVuSans-69" transform="translate(502.34375 0.015625)"/>
     <use xlink:href="#DejaVuSans-63" transform="translate(530.126953 0.015625)"/>
     <use xlink:href="#DejaVuSans-65" transform="translate(585.107422 0.015625)"/>
     <use xlink:href="#DejaVuSans-20" transform="translate(646.630859 0.015625)"/>
     <use xlink:href="#Cmmi10-75" transform="translate(678.417969 0.015625)"/>
     <use xlink:href="#Cmsy10-2219" transform="translate(753.154297 0.015625)"/>
     <use xlink:href="#Cmr10-30" transform="translate(848.398438 0.015625)"/>
    </g>
   </g>
   <g id="text_12">
    <!-- dented $G$ -->
    <g style="fill: #1f77b4" transform="translate(511.592464 162.336189) scale(0.095 -0.095)">
     <use xlink:href="#DejaVuSans-64" transform="translate(0 0.015625)"/>
     <use xlink:href="#DejaVuSans-65" transform="translate(63.476562 0.015625)"/>
     <use xlink:href="#DejaVuSans-6e" transform="translate(125 0.015625)"/>
     <use xlink:href="#DejaVuSans-74" transform="translate(188.378906 0.015625)"/>
     <use xlink:href="#DejaVuSans-65" transform="translate(227.587891 0.015625)"/>
     <use xlink:href="#DejaVuSans-64" transform="translate(289.111328 0.015625)"/>
     <use xlink:href="#DejaVuSans-20" transform="translate(352.587891 0.015625)"/>
     <use xlink:href="#Cmmi10-47" transform="translate(384.375 0.015625)"/>
    </g>
   </g>
   <g id="text_13">
    <!-- slope $-\lambda^\star$ -->
    <g style="fill: #2ca02c" transform="translate(512.793085 209.945853) rotate(-323) scale(0.095 -0.095)">
     <use xlink:href="#DejaVuSans-73" transform="translate(0 0.94375)"/>
     <use xlink:href="#DejaVuSans-6c" transform="translate(52.099609 0.94375)"/>
     <use xlink:href="#DejaVuSans-6f" transform="translate(79.882812 0.94375)"/>
     <use xlink:href="#DejaVuSans-70" transform="translate(141.064453 0.94375)"/>
     <use xlink:href="#DejaVuSans-65" transform="translate(204.541016 0.94375)"/>
     <use xlink:href="#DejaVuSans-20" transform="translate(266.064453 0.94375)"/>
     <use xlink:href="#Cmsy10-a1" transform="translate(297.851562 0.94375)"/>
     <use xlink:href="#Cmmi10-b8" transform="translate(375.537109 0.94375)"/>
     <use xlink:href="#STIXGeneral-Regular-22c6" transform="translate(457.724844 39.207812) scale(0.7)"/>
    </g>
   </g>
   <g id="patch_5">
    <path d="M 320.849803 109.095652 
Q 453.185946 109.095652 584.515859 109.095652 
" style="fill: none; stroke: #7f7f7f; stroke-width: 0.9; stroke-linecap: round"/>
    <path d="M 580.115859 106.895652 
L 584.515859 109.095652 
L 580.115859 111.295652 
" style="fill: none; stroke: #7f7f7f; stroke-width: 0.9; stroke-linecap: round"/>
   </g>
   <g id="patch_6">
    <path d="M 453.186667 269.80145 
Q 453.186667 147.059547 453.186667 25.323876 
" style="fill: none; stroke: #7f7f7f; stroke-width: 0.9; stroke-linecap: round"/>
    <path d="M 450.986667 29.723876 
L 453.186667 25.323876 
L 455.386667 29.723876 
" style="fill: none; stroke: #7f7f7f; stroke-width: 0.9; stroke-linecap: round"/>
   </g>
   <g id="text_14">
    <!-- constraint value  $u$ -->
    <g style="fill: #7f7f7f" transform="translate(499.17 126.293368) scale(0.095 -0.095)">
     <use xlink:href="#DejaVuSans-63" transform="translate(0 0.015625)"/>
     <use xlink:href="#DejaVuSans-6f" transform="translate(54.980469 0.015625)"/>
     <use xlink:href="#DejaVuSans-6e" transform="translate(116.162109 0.015625)"/>
     <use xlink:href="#DejaVuSans-73" transform="translate(179.541016 0.015625)"/>
     <use xlink:href="#DejaVuSans-74" transform="translate(231.640625 0.015625)"/>
     <use xlink:href="#DejaVuSans-72" transform="translate(270.849609 0.015625)"/>
     <use xlink:href="#DejaVuSans-61" transform="translate(311.962891 0.015625)"/>
     <use xlink:href="#DejaVuSans-69" transform="translate(373.242188 0.015625)"/>
     <use xlink:href="#DejaVuSans-6e" transform="translate(401.025391 0.015625)"/>
     <use xlink:href="#DejaVuSans-74" transform="translate(464.404297 0.015625)"/>
     <use xlink:href="#DejaVuSans-20" transform="translate(503.613281 0.015625)"/>
     <use xlink:href="#DejaVuSans-76" transform="translate(535.400391 0.015625)"/>
     <use xlink:href="#DejaVuSans-61" transform="translate(594.580078 0.015625)"/>
     <use xlink:href="#DejaVuSans-6c" transform="translate(655.859375 0.015625)"/>
     <use xlink:href="#DejaVuSans-75" transform="translate(683.642578 0.015625)"/>
     <use xlink:href="#DejaVuSans-65" transform="translate(747.021484 0.015625)"/>
     <use xlink:href="#DejaVuSans-20" transform="translate(808.544922 0.015625)"/>
     <use xlink:href="#DejaVuSans-20" transform="translate(840.332031 0.015625)"/>
     <use xlink:href="#Cmmi10-75" transform="translate(872.119141 0.015625)"/>
    </g>
   </g>
   <g id="text_15">
    <!-- objective value  $t$ -->
    <g style="fill: #7f7f7f" transform="translate(463.933333 29.54) scale(0.095 -0.095)">
     <use xlink:href="#DejaVuSans-6f" transform="translate(0 0.015625)"/>
     <use xlink:href="#DejaVuSans-62" transform="translate(61.181641 0.015625)"/>
     <use xlink:href="#DejaVuSans-6a" transform="translate(124.658203 0.015625)"/>
     <use xlink:href="#DejaVuSans-65" transform="translate(152.441406 0.015625)"/>
     <use xlink:href="#DejaVuSans-63" transform="translate(213.964844 0.015625)"/>
     <use xlink:href="#DejaVuSans-74" transform="translate(268.945312 0.015625)"/>
     <use xlink:href="#DejaVuSans-69" transform="translate(308.154297 0.015625)"/>
     <use xlink:href="#DejaVuSans-76" transform="translate(335.9375 0.015625)"/>
     <use xlink:href="#DejaVuSans-65" transform="translate(395.117188 0.015625)"/>
     <use xlink:href="#DejaVuSans-20" transform="translate(456.640625 0.015625)"/>
     <use xlink:href="#DejaVuSans-76" transform="translate(488.427734 0.015625)"/>
     <use xlink:href="#DejaVuSans-61" transform="translate(547.607422 0.015625)"/>
     <use xlink:href="#DejaVuSans-6c" transform="translate(608.886719 0.015625)"/>
     <use xlink:href="#DejaVuSans-75" transform="translate(636.669922 0.015625)"/>
     <use xlink:href="#DejaVuSans-65" transform="translate(700.048828 0.015625)"/>
     <use xlink:href="#DejaVuSans-20" transform="translate(761.572266 0.015625)"/>
     <use xlink:href="#DejaVuSans-20" transform="translate(793.359375 0.015625)"/>
     <use xlink:href="#Cmmi10-74" transform="translate(825.146484 0.015625)"/>
    </g>
   </g>
   <g id="text_16">
    <!-- (b) non-convex: duality gap -->
    <g transform="translate(370.230104 16.32) scale(0.12 -0.12)">
     <defs>
      <path id="DejaVuSans-2d" d="M 313 2009 
L 1997 2009 
L 1997 1497 
L 313 1497 
L 313 2009 
z
" transform="scale(0.015625)"/>
     </defs>
     <use xlink:href="#DejaVuSans-28"/>
     <use xlink:href="#DejaVuSans-62" transform="translate(39.013672 0)"/>
     <use xlink:href="#DejaVuSans-29" transform="translate(102.490234 0)"/>
     <use xlink:href="#DejaVuSans-20" transform="translate(141.503906 0)"/>
     <use xlink:href="#DejaVuSans-6e" transform="translate(173.291016 0)"/>
     <use xlink:href="#DejaVuSans-6f" transform="translate(236.669922 0)"/>
     <use xlink:href="#DejaVuSans-6e" transform="translate(297.851562 0)"/>
     <use xlink:href="#DejaVuSans-2d" transform="translate(361.230469 0)"/>
     <use xlink:href="#DejaVuSans-63" transform="translate(397.314453 0)"/>
     <use xlink:href="#DejaVuSans-6f" transform="translate(452.294922 0)"/>
     <use xlink:href="#DejaVuSans-6e" transform="translate(513.476562 0)"/>
     <use xlink:href="#DejaVuSans-76" transform="translate(576.855469 0)"/>
     <use xlink:href="#DejaVuSans-65" transform="translate(636.035156 0)"/>
     <use xlink:href="#DejaVuSans-78" transform="translate(695.808594 0)"/>
     <use xlink:href="#DejaVuSans-3a" transform="translate(754.988281 0)"/>
     <use xlink:href="#DejaVuSans-20" transform="translate(788.679688 0)"/>
     <use xlink:href="#DejaVuSans-64" transform="translate(820.466797 0)"/>
     <use xlink:href="#DejaVuSans-75" transform="translate(883.943359 0)"/>
     <use xlink:href="#DejaVuSans-61" transform="translate(947.322266 0)"/>
     <use xlink:href="#DejaVuSans-6c" transform="translate(1008.601562 0)"/>
     <use xlink:href="#DejaVuSans-69" transform="translate(1036.384766 0)"/>
     <use xlink:href="#DejaVuSans-74" transform="translate(1064.167969 0)"/>
     <use xlink:href="#DejaVuSans-79" transform="translate(1103.376953 0)"/>
     <use xlink:href="#DejaVuSans-20" transform="translate(1162.556641 0)"/>
     <use xlink:href="#DejaVuSans-67" transform="translate(1194.34375 0)"/>
     <use xlink:href="#DejaVuSans-61" transform="translate(1257.820312 0)"/>
     <use xlink:href="#DejaVuSans-70" transform="translate(1319.099609 0)"/>
    </g>
   </g>
   <g id="line2d_7">
    <path d="M 380.17942 109.095652 
L 384.574505 109.204849 
L 388.96959 109.532437 
L 393.364675 110.078419 
L 397.759761 110.842793 
L 402.154846 111.82556 
L 406.549931 113.02672 
L 410.945016 114.446272 
L 415.340101 116.084217 
L 419.735186 117.940555 
L 424.618614 120.259292 
L 429.502042 122.847649 
L 434.385469 125.705627 
L 439.268897 128.833225 
L 444.152325 132.230444 
L 449.035753 135.897284 
L 452.942495 139.024883 
L 452.942495 139.024883 
" clip-path="url(#p435e54d257)" style="fill: none; stroke: #ff7f0e; stroke-width: 3.4; stroke-linecap: square"/>
   </g>
   <g id="line2d_8">
    <g clip-path="url(#p435e54d257)">
     <use xlink:href="#m9c1ad6aac4" x="453.186667" y="139.226087" style="stroke: #000000"/>
    </g>
   </g>
   <g id="line2d_9">
    <defs>
     <path id="mf82da9deea" d="M 0 3.5 
C 0.928211 3.5 1.81853 3.131218 2.474874 2.474874 
C 3.131218 1.81853 3.5 0.928211 3.5 0 
C 3.5 -0.928211 3.131218 -1.81853 2.474874 -2.474874 
C 1.81853 -3.131218 0.928211 -3.5 0 -3.5 
C -0.928211 -3.5 -1.81853 -3.131218 -2.474874 -2.474874 
C -3.131218 -1.81853 -3.5 -0.928211 -3.5 0 
C -3.5 0.928211 -3.131218 1.81853 -2.474874 2.474874 
C -1.81853 3.131218 -0.928211 3.5 0 3.5 
z
" style="stroke: #2ca02c"/>
    </defs>
    <g clip-path="url(#p435e54d257)">
     <use xlink:href="#mf82da9deea" x="453.186667" y="169.356522" style="fill: #2ca02c; stroke: #2ca02c"/>
    </g>
   </g>
  </g>
 </g>
 <defs>
  <clipPath id="pdaca74cea5">
   <rect x="7.2" y="22.32" width="268.666667" height="249.48"/>
  </clipPath>
  <clipPath id="p435e54d257">
   <rect x="318.853333" y="22.32" width="268.666667" height="249.48"/>
  </clipPath>
 </defs>
</svg>
