<?xml version="1.0" encoding="utf-8" standalone="no"?>
<!DOCTYPE svg PUBLIC "-//W3C//DTD SVG 1.1//EN"
  "http://www.w3.org/Graphics/SVG/1.1/DTD/svg11.dtd">
<svg xmlns:xlink="http://www.w3.org/1999/xlink" width="635.328pt" height="247.248pt" viewBox="0 0 635.328 247.248" xmlns="http://www.w3.org/2000/svg" version="1.1">
 <metadata>
  <rdf:RDF xmlns:dc="http://purl.org/dc/elements/1.1/" xmlns:cc="http://creativecommons.org/ns#" xmlns:rdf="http://www.w3.org/1999/02/22-rdf-syntax-ns#">
   <cc:Work>
    <dc:type rdf:resource="http://purl.org/dc/dcmitype/StillImage"/>
    <dc:format>image/svg+xml</dc:format>
    <dc:creator>
     <cc:Agent>
      <dc:title>Matplotlib v3.10.8, https://matplotlib.org/</dc:title>
     </cc:Agent>
    </dc:creator>
   </cc:Work>
  </rdf:RDF>
 </metadata>
 <defs>
  <style type="text/css">*{stroke-linejoin: round; stroke-linecap: butt}</style>
 </defs>
 <g id="figure_1">
  <g id="patch_1">
   <path d="M 0 247.248 
L 635.328 247.248 
L 635.328 0 
L 0 0 
z
" style="fill: #ffffff"/>
  </g>
  <g id="axes_1">
   <g id="patch_2">
    <path d="M 31.455 129.25116 
L 103.2498 129.25116 
Q 107.90676 129.25116 107.90676 124.5942 
L 107.90676 91.6074 
Q 107.90676 86.95044 103.2498 86.95044 
L 31.455 86.95044 
Q 26.79804 86.95044 26.79804 91.6074 
L 26.79804 124.5942 
Q 26.79804 129.25116 31.455 129.25116 
z
" clip-path="url(#padb3da366d)" style="fill: #2ca02c; opacity: 0.12; stroke: #2ca02c; stroke-width: 1.8; stroke-linejoin: miter"/>
   </g>
   <g id="patch_3">
    <path d="M 31.455 129.25116 
L 103.2498 129.25116 
Q 107.90676 129.25116 107.90676 124.5942 
L 107.90676 91.6074 
Q 107.90676 86.95044 103.2498 86.95044 
L 31.455 86.95044 
Q 26.79804 86.95044 26.79804 91.6074 
L 26.79804 124.5942 
Q 26.79804 129.25116 31.455 129.25116 
L 31.455 129.25116 
z
" clip-path="url(#padb3da366d)" style="fill: none; stroke: #2ca02c; stroke-width: 1.8; stroke-linejoin: miter"/>
   </g>
   <g id="patch_4">
    <path d="M 165.3426 129.25116 
L 237.1374 129.25116 
Q 241.79436 129.25116 241.79436 124.5942 
L 241.79436 91.6074 
Q 241.79436 86.95044 237.1374 86.95044 
L 165.3426 86.95044 
Q 160.68564 86.95044 160.68564 91.6074 
L 160.68564 124.5942 
Q 160.68564 129.25116 165.3426 129.25116 
z
" clip-path="url(#padb3da366d)" style="fill: #1f77b4; opacity: 0.12; stroke: #1f77b4; stroke-width: 1.8; stroke-linejoin: miter"/>
   </g>
   <g id="patch_5">
    <path d="M 165.3426 129.25116 
L 237.1374 129.25116 
Q 241.79436 129.25116 241.79436 124.5942 
L 241.79436 91.6074 
Q 241.79436 86.95044 237.1374 86.95044 
L 165.3426 86.95044 
Q 160.68564 86.95044 160.68564 91.6074 
L 160.68564 124.5942 
Q 160.68564 129.25116 165.3426 129.25116 
L 165.3426 129.25116 
z
" clip-path="url(#padb3da366d)" style="fill: none; stroke: #1f77b4; stroke-width: 1.8; stroke-linejoin: miter"/>
   </g>
   <g id="patch_6">
    <path d="M 281.7666 129.25116 
L 353.5614 129.25116 
Q 358.21836 129.25116 358.21836 124.5942 
L 358.21836 91.6074 
Q 358.21836 86.95044 353.5614 86.95044 
L 281.7666 86.95044 
Q 277.10964 86.95044 277.10964 91.6074 
L 277.10964 124.5942 
Q 277.10964 129.25116 281.7666 129.25116 
z
" clip-path="url(#padb3da366d)" style="fill: #1f77b4; opacity: 0.12; stroke: #1f77b4; stroke-width: 1.8; stroke-linejoin: miter"/>
   </g>
   <g id="patch_7">
    <path d="M 281.7666 129.25116 
L 353.5614 129.25116 
Q 358.21836 129.25116 358.21836 124.5942 
L 358.21836 91.6074 
Q 358.21836 86.95044 353.5614 86.95044 
L 281.7666 86.95044 
Q 277.10964 86.95044 277.10964 91.6074 
L 277.10964 124.5942 
Q 277.10964 129.25116 281.7666 129.25116 
L 281.7666 129.25116 
z
" clip-path="url(#padb3da366d)" style="fill: none; stroke: #1f77b4; stroke-width: 1.8; stroke-linejoin: miter"/>
   </g>
   <g id="patch_8">
    <path d="M 398.1906 129.25116 
L 469.9854 129.25116 
Q 474.64236 129.25116 474.64236 124.5942 
L 474.64236 91.6074 
Q 474.64236 86.95044 469.9854 86.95044 
L 398.1906 86.95044 
Q 393.53364 86.95044 393.53364 91.6074 
L 393.53364 124.5942 
Q 393.53364 129.25116 398.1906 129.25116 
z
" clip-path="url(#padb3da366d)" style="fill: #1f77b4; opacity: 0.12; stroke: #1f77b4; stroke-width: 1.8; stroke-linejoin: miter"/>
   </g>
   <g id="patch_9">
    <path d="M 398.1906 129.25116 
L 469.9854 129.25116 
Q 474.64236 129.25116 474.64236 124.5942 
L 474.64236 91.6074 
Q 474.64236 86.95044 469.9854 86.95044 
L 398.1906 86.95044 
Q 393.53364 86.95044 393.53364 91.6074 
L 393.53364 124.5942 
Q 393.53364 129.25116 398.1906 129.25116 
L 398.1906 129.25116 
z
" clip-path="url(#padb3da366d)" style="fill: none; stroke: #1f77b4; stroke-width: 1.8; stroke-linejoin: miter"/>
   </g>
   <g id="patch_10">
    <path d="M 526.257 129.25116 
L 598.0518 129.25116 
Q 602.70876 129.25116 602.70876 124.5942 
L 602.70876 91.6074 
Q 602.70876 86.95044 598.0518 86.95044 
L 526.257 86.95044 
Q 521.60004 86.95044 521.60004 91.6074 
L 521.60004 124.5942 
Q 521.60004 129.25116 526.257 129.25116 
z
" clip-path="url(#padb3da366d)" style="fill: #ff7f0e; opacity: 0.12; stroke: #ff7f0e; stroke-width: 1.8; stroke-linejoin: miter"/>
   </g>
   <g id="patch_11">
    <path d="M 526.257 129.25116 
L 598.0518 129.25116 
Q 602.70876 129.25116 602.70876 124.5942 
L 602.70876 91.6074 
Q 602.70876 86.95044 598.0518 86.95044 
L 526.257 86.95044 
Q 521.60004 86.95044 521.60004 91.6074 
L 521.60004 124.5942 
Q 521.60004 129.25116 526.257 129.25116 
L 526.257 129.25116 
z
" clip-path="url(#padb3da366d)" style="fill: none; stroke: #ff7f0e; stroke-width: 1.8; stroke-linejoin: miter"/>
   </g>
   <g id="line2d_1">
    <path d="M 200.46384 220.83804 
L 200.46384 183.58236 
" clip-path="url(#padb3da366d)" style="fill: none; stroke: #1f77b4; stroke-width: 1.3; stroke-linecap: square"/>
   </g>
   <g id="line2d_2">
    <path d="M 200.46384 183.58236 
L 205.1208 183.58236 
" clip-path="url(#padb3da366d)" style="fill: none; stroke: #1f77b4; stroke-width: 1.3; stroke-linecap: square"/>
   </g>
   <g id="line2d_3">
    <path d="M 200.46384 220.83804 
L 205.1208 220.83804 
" clip-path="url(#padb3da366d)" style="fill: none; stroke: #1f77b4; stroke-width: 1.3; stroke-linecap: square"/>
   </g>
   <g id="line2d_4">
    <path d="M 250.13808 220.83804 
L 250.13808 183.58236 
" clip-path="url(#padb3da366d)" style="fill: none; stroke: #1f77b4; stroke-width: 1.3; stroke-linecap: square"/>
   </g>
   <g id="line2d_5">
    <path d="M 250.13808 183.58236 
L 245.48112 183.58236 
" clip-path="url(#padb3da366d)" style="fill: none; stroke: #1f77b4; stroke-width: 1.3; stroke-linecap: square"/>
   </g>
   <g id="line2d_6">
    <path d="M 250.13808 220.83804 
L 245.48112 220.83804 
" clip-path="url(#padb3da366d)" style="fill: none; stroke: #1f77b4; stroke-width: 1.3; stroke-linecap: square"/>
   </g>
   <g id="text_1">
    <!-- $\mathbf{x}$ -->
    <g style="fill: #2ca02c" transform="translate(63.9074 103.926388) scale(0.13 -0.13)">
     <defs>
      <path id="Cmb10-78" d="M 109 0 
L 109 325 
Q 628 325 678 384 
L 1381 1350 
L 588 2516 
L 141 2516 
L 141 2841 
L 1606 2841 
L 1606 2516 
L 1331 2516 
L 1766 1881 
L 2181 2463 
Q 2181 2491 2072 2503 
Q 1963 2516 1888 2516 
L 1888 2841 
L 3156 2841 
L 3156 2516 
Q 2638 2516 2584 2456 
L 1959 1594 
L 2816 325 
L 3272 325 
L 3272 0 
L 1797 0 
L 1797 325 
L 2075 325 
L 1575 1063 
L 1081 378 
Q 1081 356 1193 340 
Q 1306 325 1381 325 
L 1381 0 
L 109 0 
z
" transform="scale(0.015625)"/>
     </defs>
     <use xlink:href="#Cmb10-78" transform="translate(0 0.609375)"/>
    </g>
   </g>
   <g id="text_2">
    <!-- $[1,\ 2]$ -->
    <g style="fill: #7f7f7f" transform="translate(53.5524 121.57896) scale(0.12 -0.12)">
     <defs>
      <path id="Cmr10-5b" d="M 756 -1600 
L 756 4800 
L 1631 4800 
L 1631 4544 
L 1013 4544 
L 1013 -1344 
L 1631 -1344 
L 1631 -1600 
L 756 -1600 
z
" transform="scale(0.015625)"/>
      <path id="Cmr10-31" d="M 594 0 
L 594 225 
Q 1394 225 1394 428 
L 1394 3788 
Q 1063 3628 556 3628 
L 556 3853 
Q 1341 3853 1741 4263 
L 1831 4263 
Q 1853 4263 1873 4245 
Q 1894 4228 1894 4206 
L 1894 428 
Q 1894 225 2694 225 
L 2694 0 
L 594 0 
z
" transform="scale(0.015625)"/>
      <path id="Cmmi10-3b" d="M 634 -1153 
Q 634 -1125 659 -1100 
Q 891 -878 1019 -587 
Q 1147 -297 1147 25 
L 1147 103 
Q 1044 0 891 0 
Q 744 0 641 103 
Q 538 206 538 353 
Q 538 503 641 603 
Q 744 703 891 703 
Q 1119 703 1216 492 
Q 1313 281 1313 25 
Q 1313 -331 1170 -651 
Q 1028 -972 769 -1228 
Q 744 -1241 728 -1241 
Q 697 -1241 665 -1212 
Q 634 -1184 634 -1153 
z
" transform="scale(0.015625)"/>
      <path id="Cmr10-32" d="M 319 0 
L 319 172 
Q 319 188 331 206 
L 1325 1306 
Q 1550 1550 1690 1715 
Q 1831 1881 1968 2097 
Q 2106 2313 2186 2536 
Q 2266 2759 2266 3009 
Q 2266 3272 2169 3511 
Q 2072 3750 1880 3894 
Q 1688 4038 1416 4038 
Q 1138 4038 916 3870 
Q 694 3703 603 3438 
Q 628 3444 672 3444 
Q 816 3444 917 3347 
Q 1019 3250 1019 3097 
Q 1019 2950 917 2848 
Q 816 2747 672 2747 
Q 522 2747 420 2851 
Q 319 2956 319 3097 
Q 319 3338 409 3548 
Q 500 3759 670 3923 
Q 841 4088 1055 4175 
Q 1269 4263 1509 4263 
Q 1875 4263 2190 4108 
Q 2506 3953 2690 3670 
Q 2875 3388 2875 3009 
Q 2875 2731 2753 2481 
Q 2631 2231 2440 2026 
Q 2250 1822 1953 1562 
Q 1656 1303 1563 1216 
L 838 519 
L 1453 519 
Q 1906 519 2211 526 
Q 2516 534 2534 550 
Q 2609 631 2688 1141 
L 2875 1141 
L 2694 0 
L 319 0 
z
" transform="scale(0.015625)"/>
      <path id="Cmr10-5d" d="M 141 -1600 
L 141 -1344 
L 763 -1344 
L 763 4544 
L 141 4544 
L 141 4800 
L 1019 4800 
L 1019 -1600 
L 141 -1600 
z
" transform="scale(0.015625)"/>
     </defs>
     <use xlink:href="#Cmr10-5b"/>
     <use xlink:href="#Cmr10-31" transform="translate(27.685547 0)"/>
     <use xlink:href="#Cmmi10-3b" transform="translate(77.685547 0)"/>
     <use xlink:href="#Cmr10-32" transform="translate(152.193718 0)"/>
     <use xlink:href="#Cmr10-5d" transform="translate(202.193718 0)"/>
    </g>
   </g>
   <g id="text_3">
    <!-- $\mathbf{z}$ -->
    <g style="fill: #1f77b4" transform="translate(198.315 103.926388) scale(0.13 -0.13)">
     <defs>
      <path id="Cmb10-7a" d="M 294 0 
Q 247 0 212 31 
Q 178 63 178 116 
L 178 184 
Q 178 222 197 250 
L 1684 2584 
L 1409 2584 
Q 947 2584 770 2376 
Q 594 2169 594 1697 
L 269 1697 
L 347 2841 
L 2438 2841 
Q 2491 2841 2522 2809 
Q 2553 2778 2553 2725 
L 2553 2669 
Q 2553 2634 2534 2606 
L 1056 281 
L 1363 281 
Q 1806 281 2009 488 
Q 2122 603 2169 814 
Q 2216 1025 2241 1319 
L 2566 1319 
L 2450 0 
L 294 0 
z
" transform="scale(0.015625)"/>
     </defs>
     <use xlink:href="#Cmb10-7a" transform="translate(0 0.609375)"/>
    </g>
   </g>
   <g id="text_4">
    <!-- $[-1,\ 2]$ -->
    <g style="fill: #7f7f7f" transform="translate(182.76 121.57896) scale(0.12 -0.12)">
     <defs>
      <path id="Cmsy10-a1" d="M 653 1472 
Q 600 1472 565 1512 
Q 531 1553 531 1600 
Q 531 1647 565 1687 
Q 600 1728 653 1728 
L 4325 1728 
Q 4375 1728 4408 1687 
Q 4441 1647 4441 1600 
Q 4441 1553 4408 1512 
Q 4375 1472 4325 1472 
L 653 1472 
z
" transform="scale(0.015625)"/>
     </defs>
     <use xlink:href="#Cmr10-5b"/>
     <use xlink:href="#Cmsy10-a1" transform="translate(27.685547 0)"/>
     <use xlink:href="#Cmr10-31" transform="translate(105.371094 0)"/>
     <use xlink:href="#Cmmi10-3b" transform="translate(155.371094 0)"/>
     <use xlink:href="#Cmr10-32" transform="translate(229.879265 0)"/>
     <use xlink:href="#Cmr10-5d" transform="translate(279.879265 0)"/>
    </g>
   </g>
   <g id="text_5">
    <!-- $\mathbf{h}$ -->
    <g style="fill: #1f77b4" transform="translate(314.024 103.926388) scale(0.13 -0.13)">
     <defs>
      <path id="Cmb10-68" d="M 141 0 
L 141 325 
L 581 325 
L 581 3884 
Q 581 4003 456 4033 
Q 331 4063 141 4063 
L 141 4391 
L 1300 4441 
L 1300 2316 
Q 1450 2575 1694 2728 
Q 1938 2881 2228 2881 
Q 2541 2881 2733 2782 
Q 2925 2684 3017 2482 
Q 3109 2281 3109 1966 
L 3109 325 
L 3553 325 
L 3553 0 
L 1966 0 
L 1966 325 
L 2356 325 
L 2356 1947 
L 2356 1966 
Q 2356 2625 2150 2625 
Q 1969 2625 1817 2545 
Q 1666 2466 1558 2327 
Q 1450 2188 1394 2020 
Q 1338 1853 1338 1672 
L 1338 325 
L 1778 325 
L 1778 0 
L 141 0 
z
" transform="scale(0.015625)"/>
     </defs>
     <use xlink:href="#Cmb10-68" transform="translate(0 0.609375)"/>
    </g>
   </g>
   <g id="text_6">
    <!-- $[0,\ 2]$ -->
    <g style="fill: #7f7f7f" transform="translate(303.864 121.57896) scale(0.12 -0.12)">
     <defs>
      <path id="Cmr10-30" d="M 1600 -141 
Q 816 -141 533 504 
Q 250 1150 250 2041 
Q 250 2597 351 3087 
Q 453 3578 754 3920 
Q 1056 4263 1600 4263 
Q 2022 4263 2290 4056 
Q 2559 3850 2700 3523 
Q 2841 3197 2892 2823 
Q 2944 2450 2944 2041 
Q 2944 1491 2842 1011 
Q 2741 531 2444 195 
Q 2147 -141 1600 -141 
z
M 1600 25 
Q 1956 25 2131 390 
Q 2306 756 2347 1200 
Q 2388 1644 2388 2144 
Q 2388 2625 2347 3031 
Q 2306 3438 2132 3767 
Q 1959 4097 1600 4097 
Q 1238 4097 1063 3765 
Q 888 3434 847 3029 
Q 806 2625 806 2144 
Q 806 1788 823 1472 
Q 841 1156 916 820 
Q 991 484 1158 254 
Q 1325 25 1600 25 
z
" transform="scale(0.015625)"/>
     </defs>
     <use xlink:href="#Cmr10-5b"/>
     <use xlink:href="#Cmr10-30" transform="translate(27.685547 0)"/>
     <use xlink:href="#Cmmi10-3b" transform="translate(77.685547 0)"/>
     <use xlink:href="#Cmr10-32" transform="translate(152.193718 0)"/>
     <use xlink:href="#Cmr10-5d" transform="translate(202.193718 0)"/>
    </g>
   </g>
   <g id="text_7">
    <!-- $o$ -->
    <g style="fill: #1f77b4" transform="translate(430.903 103.926388) scale(0.13 -0.13)">
     <defs>
      <path id="Cmmi10-6f" d="M 1288 -72 
Q 984 -72 748 72 
Q 513 216 384 459 
Q 256 703 256 1013 
Q 256 1447 498 1872 
Q 741 2297 1142 2562 
Q 1544 2828 1984 2828 
Q 2222 2828 2408 2747 
Q 2594 2666 2731 2519 
Q 2869 2372 2942 2175 
Q 3016 1978 3016 1747 
Q 3016 1413 2875 1089 
Q 2734 766 2489 502 
Q 2244 238 1928 83 
Q 1613 -72 1288 -72 
z
M 1300 97 
Q 1584 97 1820 290 
Q 2056 484 2207 779 
Q 2359 1075 2440 1403 
Q 2522 1731 2522 1997 
Q 2522 2275 2383 2469 
Q 2244 2663 1972 2663 
Q 1597 2663 1315 2342 
Q 1034 2022 892 1576 
Q 750 1131 750 763 
Q 750 484 892 290 
Q 1034 97 1300 97 
z
" transform="scale(0.015625)"/>
     </defs>
     <use xlink:href="#Cmmi10-6f" transform="translate(0 0.8125)"/>
    </g>
   </g>
   <g id="text_8">
    <!-- $-2$ -->
    <g style="fill: #7f7f7f" transform="translate(426.408 121.89021) scale(0.12 -0.12)">
     <use xlink:href="#Cmsy10-a1" transform="translate(0 0.390625)"/>
     <use xlink:href="#Cmr10-32" transform="translate(77.685547 0.390625)"/>
    </g>
   </g>
   <g id="text_9">
    <!-- $L$ -->
    <g style="fill: #ff7f0e" transform="translate(557.6694 103.926388) scale(0.13 -0.13)">
     <defs>
      <path id="Cmmi10-4c" d="M 300 0 
Q 238 0 238 84 
Q 241 100 250 139 
Q 259 178 276 201 
Q 294 225 319 225 
Q 709 225 863 269 
Q 947 297 984 441 
L 1863 3956 
Q 1875 4019 1875 4044 
Q 1875 4113 1797 4122 
Q 1678 4147 1338 4147 
Q 1275 4147 1275 4231 
Q 1297 4313 1309 4342 
Q 1322 4372 1381 4372 
L 3272 4372 
Q 3328 4372 3328 4288 
Q 3319 4222 3306 4184 
Q 3294 4147 3244 4147 
Q 2772 4147 2613 4116 
Q 2456 4088 2419 3928 
L 1544 416 
Q 1516 338 1516 275 
Q 1516 225 1734 225 
L 2328 225 
Q 2831 225 3143 425 
Q 3456 625 3606 876 
Q 3756 1128 3857 1398 
Q 3959 1669 4006 1678 
L 4063 1678 
Q 4128 1678 4128 1594 
L 3559 44 
Q 3550 0 3500 0 
L 300 0 
z
" transform="scale(0.015625)"/>
     </defs>
     <use xlink:href="#Cmmi10-4c" transform="translate(0 0.6875)"/>
    </g>
   </g>
   <g id="text_10">
    <!-- $2$ -->
    <g style="fill: #7f7f7f" transform="translate(559.1544 121.89021) scale(0.12 -0.12)">
     <use xlink:href="#Cmr10-32" transform="translate(0 0.390625)"/>
    </g>
   </g>
   <g id="patch_12">
    <path d="M 111.78756 85.7862 
Q 134.2962 85.7862 154.568772 85.7862 
" style="fill: none; stroke: #15181c; stroke-width: 2; stroke-linecap: round"/>
    <path d="M 149.368772 83.1862 
L 154.568772 85.7862 
L 149.368772 88.3862 
" style="fill: none; stroke: #15181c; stroke-width: 2; stroke-linecap: round"/>
   </g>
   <g id="text_11">
    <!-- $\times\,\mathbf{W}^{(1)}$ -->
    <g style="fill: #15181c" transform="translate(117.2762 70.199839) scale(0.115 -0.115)">
     <defs>
      <path id="Cmsy10-a3" d="M 941 184 
Q 941 234 972 275 
L 2303 1600 
L 972 2931 
Q 941 2963 941 3016 
Q 941 3063 978 3103 
Q 1016 3144 1069 3144 
Q 1113 3144 1166 3103 
L 2491 1778 
L 3809 3103 
Q 3863 3144 3903 3144 
Q 3956 3144 3993 3106 
Q 4031 3069 4031 3016 
Q 4031 2963 4000 2931 
L 2669 1600 
L 4000 275 
Q 4031 234 4031 184 
Q 4031 131 3993 93 
Q 3956 56 3903 56 
Q 3856 56 3809 103 
L 2491 1422 
L 1166 103 
Q 1119 56 1069 56 
Q 1016 56 978 97 
Q 941 138 941 184 
z
" transform="scale(0.015625)"/>
      <path id="Cmb10-57" d="M 1966 63 
L 622 4063 
L 134 4063 
L 134 4391 
L 2100 4391 
L 2100 4063 
L 1569 4063 
L 2484 1356 
L 3128 3291 
L 2869 4063 
L 2381 4063 
L 2381 4391 
L 4347 4391 
L 4347 4063 
L 3822 4063 
L 4728 1356 
L 5619 4013 
Q 5603 4028 5459 4044 
Q 5259 4063 5050 4063 
L 5050 4391 
L 6472 4391 
L 6472 4063 
Q 6316 4063 6147 4053 
Q 5978 4044 5966 4006 
L 4641 63 
Q 4600 -50 4481 -50 
L 4378 -50 
Q 4250 -50 4219 63 
L 3303 2778 
L 2388 63 
Q 2356 -50 2228 -50 
L 2125 -50 
Q 2006 -50 1966 63 
z
" transform="scale(0.015625)"/>
      <path id="Cmr10-28" d="M 1984 -1588 
Q 1628 -1306 1370 -942 
Q 1113 -578 948 -165 
Q 784 247 703 697 
Q 622 1147 622 1600 
Q 622 2059 703 2509 
Q 784 2959 951 3375 
Q 1119 3791 1378 4153 
Q 1638 4516 1984 4788 
Q 1984 4800 2016 4800 
L 2075 4800 
Q 2094 4800 2109 4783 
Q 2125 4766 2125 4744 
Q 2125 4716 2113 4703 
Q 1800 4397 1592 4047 
Q 1384 3697 1257 3301 
Q 1131 2906 1075 2482 
Q 1019 2059 1019 1600 
Q 1019 -434 2106 -1491 
Q 2125 -1509 2125 -1544 
Q 2125 -1559 2108 -1579 
Q 2091 -1600 2075 -1600 
L 2016 -1600 
Q 1984 -1600 1984 -1588 
z
" transform="scale(0.015625)"/>
      <path id="Cmr10-29" d="M 416 -1600 
Q 359 -1600 359 -1544 
Q 359 -1516 372 -1503 
Q 1466 -434 1466 1600 
Q 1466 3634 384 4691 
Q 359 4706 359 4744 
Q 359 4766 376 4783 
Q 394 4800 416 4800 
L 475 4800 
Q 494 4800 506 4788 
Q 966 4425 1272 3906 
Q 1578 3388 1720 2800 
Q 1863 2213 1863 1600 
Q 1863 1147 1786 708 
Q 1709 269 1542 -157 
Q 1375 -584 1119 -945 
Q 863 -1306 506 -1588 
Q 494 -1600 475 -1600 
L 416 -1600 
z
" transform="scale(0.015625)"/>
     </defs>
     <use xlink:href="#Cmsy10-a3" transform="translate(0 0.235938)"/>
     <use xlink:href="#Cmb10-57" transform="translate(92.318001 0.235938)"/>
     <use xlink:href="#Cmr10-28" transform="translate(200.102454 38.5) scale(0.7)"/>
     <use xlink:href="#Cmr10-31" transform="translate(227.275306 38.5) scale(0.7)"/>
     <use xlink:href="#Cmr10-29" transform="translate(262.275306 38.5) scale(0.7)"/>
    </g>
   </g>
   <g id="patch_13">
    <path d="M 245.67516 85.7862 
Q 259.452 85.7862 270.992772 85.7862 
" style="fill: none; stroke: #15181c; stroke-width: 2; stroke-linecap: round"/>
    <path d="M 265.792772 83.1862 
L 270.992772 85.7862 
L 265.792772 88.3862 
" style="fill: none; stroke: #15181c; stroke-width: 2; stroke-linecap: round"/>
   </g>
   <g id="text_12">
    <!-- $\phi=\mathrm{ReLU}$ -->
    <g style="fill: #15181c" transform="translate(234.842 70.17648) scale(0.115 -0.115)">
     <defs>
      <path id="Cmmi10-c1" d="M 1241 -1247 
L 1528 -91 
Q 1203 -91 922 61 
Q 641 213 470 484 
Q 300 756 300 1075 
Q 300 1422 472 1737 
Q 644 2053 942 2311 
Q 1241 2569 1584 2708 
Q 1928 2847 2266 2847 
L 2650 4403 
Q 2663 4441 2700 4441 
L 2778 4441 
Q 2803 4441 2818 4419 
Q 2834 4397 2834 4378 
L 2450 2847 
Q 2691 2847 2916 2759 
Q 3141 2672 3314 2514 
Q 3488 2356 3584 2142 
Q 3681 1928 3681 1684 
Q 3681 1338 3509 1022 
Q 3338 706 3047 453 
Q 2756 200 2398 54 
Q 2041 -91 1716 -91 
L 1422 -1275 
Q 1409 -1313 1369 -1313 
L 1294 -1313 
Q 1269 -1313 1255 -1289 
Q 1241 -1266 1241 -1247 
z
M 1569 78 
L 2222 2681 
Q 2059 2681 1881 2615 
Q 1703 2550 1545 2450 
Q 1388 2350 1259 2222 
Q 1103 2066 984 1853 
Q 866 1641 805 1405 
Q 744 1169 744 941 
Q 744 700 847 503 
Q 950 306 1137 192 
Q 1325 78 1569 78 
z
M 1759 78 
Q 2000 78 2272 215 
Q 2544 353 2719 538 
Q 2959 775 3098 1120 
Q 3238 1466 3238 1819 
Q 3238 2056 3134 2254 
Q 3031 2453 2843 2567 
Q 2656 2681 2413 2681 
L 1759 78 
z
" transform="scale(0.015625)"/>
      <path id="Cmr10-3d" d="M 481 850 
Q 428 850 393 890 
Q 359 931 359 978 
Q 359 1031 393 1068 
Q 428 1106 481 1106 
L 4500 1106 
Q 4547 1106 4581 1068 
Q 4616 1031 4616 978 
Q 4616 931 4581 890 
Q 4547 850 4500 850 
L 481 850 
z
M 481 2094 
Q 428 2094 393 2131 
Q 359 2169 359 2222 
Q 359 2269 393 2309 
Q 428 2350 481 2350 
L 4500 2350 
Q 4547 2350 4581 2309 
Q 4616 2269 4616 2222 
Q 4616 2169 4581 2131 
Q 4547 2094 4500 2094 
L 481 2094 
z
" transform="scale(0.015625)"/>
      <path id="Cmr10-52" d="M 213 0 
L 213 225 
Q 872 225 872 428 
L 872 3944 
Q 872 4147 213 4147 
L 213 4372 
L 2222 4372 
Q 2581 4372 2976 4242 
Q 3372 4113 3637 3847 
Q 3903 3581 3903 3213 
Q 3903 2944 3742 2733 
Q 3581 2522 3329 2380 
Q 3078 2238 2816 2175 
Q 3103 2075 3318 1856 
Q 3534 1638 3578 1356 
L 3669 788 
Q 3731 403 3800 214 
Q 3869 25 4103 25 
Q 4303 25 4401 211 
Q 4500 397 4500 616 
Q 4500 638 4520 655 
Q 4541 672 4563 672 
L 4622 672 
Q 4684 672 4684 588 
Q 4684 413 4615 245 
Q 4547 78 4417 -31 
Q 4288 -141 4109 -141 
Q 3647 -141 3314 89 
Q 2981 319 2981 763 
L 2981 1331 
Q 2981 1650 2759 1878 
Q 2538 2106 2216 2106 
L 1447 2106 
L 1447 428 
Q 1447 225 2106 225 
L 2106 0 
L 213 0 
z
M 1447 2272 
L 2131 2272 
Q 2663 2272 2941 2486 
Q 3219 2700 3219 3213 
Q 3219 3722 2944 3934 
Q 2669 4147 2131 4147 
L 1772 4147 
Q 1656 4147 1592 4137 
Q 1528 4128 1487 4083 
Q 1447 4038 1447 3944 
L 1447 2272 
z
" transform="scale(0.015625)"/>
      <path id="Cmr10-65" d="M 1594 -72 
Q 1203 -72 876 133 
Q 550 338 364 680 
Q 178 1022 178 1403 
Q 178 1778 348 2115 
Q 519 2453 823 2661 
Q 1128 2869 1503 2869 
Q 1797 2869 2014 2770 
Q 2231 2672 2372 2497 
Q 2513 2322 2584 2084 
Q 2656 1847 2656 1563 
Q 2656 1478 2591 1478 
L 738 1478 
L 738 1409 
Q 738 878 952 497 
Q 1166 116 1650 116 
Q 1847 116 2014 203 
Q 2181 291 2304 447 
Q 2428 603 2472 781 
Q 2478 803 2495 820 
Q 2513 838 2534 838 
L 2591 838 
Q 2656 838 2656 756 
Q 2566 394 2266 161 
Q 1966 -72 1594 -72 
z
M 744 1638 
L 2203 1638 
Q 2203 1878 2136 2125 
Q 2069 2372 1912 2536 
Q 1756 2700 1503 2700 
Q 1141 2700 942 2361 
Q 744 2022 744 1638 
z
" transform="scale(0.015625)"/>
      <path id="Cmr10-4c" d="M 197 0 
L 197 225 
Q 856 225 856 428 
L 856 3944 
Q 856 4147 197 4147 
L 197 4372 
L 2272 4372 
L 2272 4147 
Q 1453 4147 1453 3944 
L 1453 428 
Q 1453 291 1531 258 
Q 1609 225 1778 225 
L 2272 225 
Q 2750 225 3009 400 
Q 3269 575 3376 876 
Q 3484 1178 3541 1678 
L 3725 1678 
L 3547 0 
L 197 0 
z
" transform="scale(0.015625)"/>
      <path id="Cmr10-55" d="M 856 1447 
L 856 3944 
Q 856 4147 197 4147 
L 197 4372 
L 2113 4372 
L 2113 4147 
Q 1453 4147 1453 3944 
L 1453 1472 
Q 1453 1116 1551 798 
Q 1650 481 1883 282 
Q 2116 84 2491 84 
Q 2856 84 3134 276 
Q 3413 469 3563 787 
Q 3713 1106 3713 1472 
L 3713 3769 
Q 3713 4147 3053 4147 
L 3053 4372 
L 4594 4372 
L 4594 4147 
Q 3938 4147 3938 3769 
L 3938 1447 
Q 3938 1150 3833 865 
Q 3728 581 3529 351 
Q 3331 122 3062 -9 
Q 2794 -141 2491 -141 
Q 2066 -141 1686 71 
Q 1306 284 1081 650 
Q 856 1016 856 1447 
z
" transform="scale(0.015625)"/>
     </defs>
     <use xlink:href="#Cmmi10-c1" transform="translate(0 0.609375)"/>
     <use xlink:href="#Cmr10-3d" transform="translate(77.080078 0.609375)"/>
     <use xlink:href="#Cmr10-52" transform="translate(172.324219 0.609375)"/>
     <use xlink:href="#Cmr10-65" transform="translate(245.908203 0.609375)"/>
     <use xlink:href="#Cmr10-4c" transform="translate(290.292969 0.609375)"/>
     <use xlink:href="#Cmr10-55" transform="translate(352.792969 0.609375)"/>
    </g>
   </g>
   <g id="patch_14">
    <path d="M 362.09916 85.7862 
Q 375.876 85.7862 387.416772 85.7862 
" style="fill: none; stroke: #15181c; stroke-width: 2; stroke-linecap: round"/>
    <path d="M 382.216772 83.1862 
L 387.416772 85.7862 
L 382.216772 88.3862 
" style="fill: none; stroke: #15181c; stroke-width: 2; stroke-linecap: round"/>
   </g>
   <g id="text_13">
    <!-- $\times\,\mathbf{W}^{(2)}$ -->
    <g style="fill: #15181c" transform="translate(358.856 70.199839) scale(0.115 -0.115)">
     <use xlink:href="#Cmsy10-a3" transform="translate(0 0.235938)"/>
     <use xlink:href="#Cmb10-57" transform="translate(92.318001 0.235938)"/>
     <use xlink:href="#Cmr10-28" transform="translate(200.102454 38.5) scale(0.7)"/>
     <use xlink:href="#Cmr10-32" transform="translate(227.275306 38.5) scale(0.7)"/>
     <use xlink:href="#Cmr10-29" transform="translate(262.275306 38.5) scale(0.7)"/>
    </g>
   </g>
   <g id="patch_15">
    <path d="M 478.52316 85.7862 
Q 498.1212 85.7862 515.483172 85.7862 
" style="fill: none; stroke: #15181c; stroke-width: 2; stroke-linecap: round"/>
    <path d="M 510.283172 83.1862 
L 515.483172 85.7862 
L 510.283172 88.3862 
" style="fill: none; stroke: #15181c; stroke-width: 2; stroke-linecap: round"/>
   </g>
   <g id="text_14">
    <!-- $\frac{1}{2}(o-y)^2$ -->
    <g style="fill: #15181c" transform="translate(476.1562 67.87648) scale(0.115 -0.115)">
     <defs>
      <path id="Cmmi10-79" d="M 538 -916 
Q 672 -1147 1006 -1147 
Q 1309 -1147 1531 -934 
Q 1753 -722 1889 -420 
Q 2025 -119 2100 197 
Q 1816 -72 1484 -72 
Q 1231 -72 1053 15 
Q 875 103 776 276 
Q 678 450 678 697 
Q 678 906 734 1126 
Q 791 1347 892 1617 
Q 994 1888 1069 2088 
Q 1153 2322 1153 2472 
Q 1153 2663 1013 2663 
Q 759 2663 595 2402 
Q 431 2141 353 1819 
Q 341 1778 300 1778 
L 225 1778 
Q 172 1778 172 1838 
L 172 1856 
Q 275 2238 487 2533 
Q 700 2828 1025 2828 
Q 1253 2828 1411 2678 
Q 1569 2528 1569 2297 
Q 1569 2178 1516 2047 
Q 1488 1969 1388 1706 
Q 1288 1444 1234 1272 
Q 1181 1100 1147 934 
Q 1113 769 1113 603 
Q 1113 391 1203 244 
Q 1294 97 1491 97 
Q 1888 97 2203 581 
L 2688 2553 
Q 2709 2638 2787 2698 
Q 2866 2759 2956 2759 
Q 3034 2759 3092 2709 
Q 3150 2659 3150 2578 
Q 3150 2541 3144 2528 
L 2509 -19 
Q 2425 -347 2200 -647 
Q 1975 -947 1658 -1130 
Q 1341 -1313 997 -1313 
Q 831 -1313 668 -1248 
Q 506 -1184 406 -1056 
Q 306 -928 306 -756 
Q 306 -581 409 -453 
Q 513 -325 684 -325 
Q 788 -325 858 -389 
Q 928 -453 928 -556 
Q 928 -703 818 -812 
Q 709 -922 563 -922 
Q 556 -919 550 -917 
Q 544 -916 538 -916 
z
" transform="scale(0.015625)"/>
     </defs>
     <use xlink:href="#Cmr10-31" transform="translate(0 37.609375) scale(0.7)"/>
     <use xlink:href="#Cmr10-32" transform="translate(0 -40.267187) scale(0.7)"/>
     <use xlink:href="#Cmr10-28" transform="translate(47.5 0.109375)"/>
     <use xlink:href="#Cmmi10-6f" transform="translate(86.318359 0.109375)"/>
     <use xlink:href="#Cmsy10-a1" transform="translate(152.265625 0.109375)"/>
     <use xlink:href="#Cmmi10-79" transform="translate(247.509766 0.109375)"/>
     <use xlink:href="#Cmr10-29" transform="translate(296.533203 0.109375)"/>
     <use xlink:href="#Cmr10-32" transform="translate(339.815703 38.373438) scale(0.7)"/>
     <path d="M 0 12.609375 
L 0 18.859375 
L 35 18.859375 
L 35 12.609375 
L 0 12.609375 
z
"/>
    </g>
   </g>
   <g id="patch_16">
    <path d="M 156.80484 130.4154 
Q 134.2962 130.4154 114.023628 130.4154 
" style="fill: none; stroke: #1f77b4; stroke-width: 2; stroke-linecap: round"/>
    <path d="M 119.223628 133.0154 
L 114.023628 130.4154 
L 119.223628 127.8154 
" style="fill: none; stroke: #1f77b4; stroke-width: 2; stroke-linecap: round"/>
   </g>
   <g id="text_15">
    <!-- $\frac{\partial L}{\partial \mathbf{z}}=[0,\ 2]$ -->
    <g style="fill: #1f77b4" transform="translate(109.2262 152.0628) scale(0.115 -0.115)">
     <defs>
      <path id="STIXGeneral-Regular-2202" d="M 1248 4000 
L 1184 4128 
Q 1427 4275 1811 4275 
Q 3014 4275 3014 2611 
Q 3014 2298 2963 1965 
Q 2912 1632 2777 1261 
Q 2643 890 2438 598 
Q 2234 307 1894 118 
Q 1555 -70 1126 -70 
Q 685 -70 470 224 
Q 256 518 256 966 
Q 256 1664 739 2224 
Q 1222 2784 1901 2784 
Q 2342 2784 2515 2477 
Q 2560 2726 2560 2925 
Q 2560 3418 2365 3750 
Q 2170 4083 1722 4083 
Q 1510 4083 1248 4000 
z
M 2349 2042 
Q 2349 2323 2230 2457 
Q 2112 2592 1958 2592 
Q 1491 2592 1132 2013 
Q 774 1434 774 749 
Q 774 122 1203 122 
Q 1549 122 1827 499 
Q 2106 877 2253 1414 
Q 2349 1766 2349 2042 
z
" transform="scale(0.015625)"/>
     </defs>
     <use xlink:href="#STIXGeneral-Regular-2202" transform="translate(0 39.18125) scale(0.7)"/>
     <use xlink:href="#Cmmi10-4c" transform="translate(32.969994 39.18125) scale(0.7)"/>
     <use xlink:href="#STIXGeneral-Regular-2202" transform="translate(8 -39.592187) scale(0.7)"/>
     <use xlink:href="#Cmb10-7a" transform="translate(40.969994 -39.592187) scale(0.7)"/>
     <use xlink:href="#Cmr10-3d" transform="translate(110.640892 0.915625)"/>
     <use xlink:href="#Cmr10-5b" transform="translate(205.885033 0.915625)"/>
     <use xlink:href="#Cmr10-30" transform="translate(233.57058 0.915625)"/>
     <use xlink:href="#Cmmi10-3b" transform="translate(283.57058 0.915625)"/>
     <use xlink:href="#Cmr10-32" transform="translate(358.07875 0.915625)"/>
     <use xlink:href="#Cmr10-5d" transform="translate(408.07875 0.915625)"/>
     <path d="M 0 13.415625 
L 0 19.665625 
L 80.582298 19.665625 
L 80.582298 13.415625 
L 0 13.415625 
z
"/>
    </g>
   </g>
   <g id="patch_17">
    <path d="M 273.22884 130.4154 
Q 259.452 130.4154 247.911228 130.4154 
" style="fill: none; stroke: #1f77b4; stroke-width: 2; stroke-linecap: round"/>
    <path d="M 253.111228 133.0154 
L 247.911228 130.4154 
L 253.111228 127.8154 
" style="fill: none; stroke: #1f77b4; stroke-width: 2; stroke-linecap: round"/>
   </g>
   <g id="text_16">
    <!-- $\frac{\partial L}{\partial \mathbf{h}}=[-4,\ 2]$ -->
    <g style="fill: #1f77b4" transform="translate(229.897 152.0628) scale(0.115 -0.115)">
     <defs>
      <path id="Cmr10-34" d="M 178 1056 
L 178 1281 
L 2156 4231 
Q 2178 4263 2222 4263 
L 2316 4263 
Q 2388 4263 2388 4191 
L 2388 1281 
L 3016 1281 
L 3016 1056 
L 2388 1056 
L 2388 428 
Q 2388 297 2575 261 
Q 2763 225 3009 225 
L 3009 0 
L 1247 0 
L 1247 225 
Q 1494 225 1681 261 
Q 1869 297 1869 428 
L 1869 1056 
L 178 1056 
z
M 391 1281 
L 1906 1281 
L 1906 3547 
L 391 1281 
z
" transform="scale(0.015625)"/>
     </defs>
     <use xlink:href="#STIXGeneral-Regular-2202" transform="translate(0 39.18125) scale(0.7)"/>
     <use xlink:href="#Cmmi10-4c" transform="translate(32.969994 39.18125) scale(0.7)"/>
     <use xlink:href="#STIXGeneral-Regular-2202" transform="translate(4 -41.407812) scale(0.7)"/>
     <use xlink:href="#Cmb10-68" transform="translate(36.969994 -41.407812) scale(0.7)"/>
     <use xlink:href="#Cmr10-3d" transform="translate(110.640892 0.915625)"/>
     <use xlink:href="#Cmr10-5b" transform="translate(205.885033 0.915625)"/>
     <use xlink:href="#Cmsy10-a1" transform="translate(233.57058 0.915625)"/>
     <use xlink:href="#Cmr10-34" transform="translate(311.256126 0.915625)"/>
     <use xlink:href="#Cmmi10-3b" transform="translate(361.256126 0.915625)"/>
     <use xlink:href="#Cmr10-32" transform="translate(435.764297 0.915625)"/>
     <use xlink:href="#Cmr10-5d" transform="translate(485.764297 0.915625)"/>
     <path d="M 0 13.415625 
L 0 19.665625 
L 80.582298 19.665625 
L 80.582298 13.415625 
L 0 13.415625 
z
"/>
    </g>
   </g>
   <g id="patch_18">
    <path d="M 389.65284 130.4154 
Q 375.876 130.4154 364.335228 130.4154 
" style="fill: none; stroke: #1f77b4; stroke-width: 2; stroke-linecap: round"/>
    <path d="M 369.535228 133.0154 
L 364.335228 130.4154 
L 369.535228 127.8154 
" style="fill: none; stroke: #1f77b4; stroke-width: 2; stroke-linecap: round"/>
   </g>
   <g id="text_17">
    <!-- $\frac{\partial L}{\partial o}=-2$ -->
    <g style="fill: #1f77b4" transform="translate(356.671 152.0628) scale(0.115 -0.115)">
     <use xlink:href="#STIXGeneral-Regular-2202" transform="translate(0 39.18125) scale(0.7)"/>
     <use xlink:href="#Cmmi10-4c" transform="translate(32.969994 39.18125) scale(0.7)"/>
     <use xlink:href="#STIXGeneral-Regular-2202" transform="translate(7 -39.592187) scale(0.7)"/>
     <use xlink:href="#Cmmi10-6f" transform="translate(39.969994 -39.592187) scale(0.7)"/>
     <use xlink:href="#Cmr10-3d" transform="translate(110.640892 0.915625)"/>
     <use xlink:href="#Cmsy10-a1" transform="translate(205.885033 0.915625)"/>
     <use xlink:href="#Cmr10-32" transform="translate(283.57058 0.915625)"/>
     <path d="M 0 13.415625 
L 0 19.665625 
L 80.582298 19.665625 
L 80.582298 13.415625 
L 0 13.415625 
z
"/>
    </g>
   </g>
   <g id="patch_19">
    <path d="M 517.71924 130.4154 
Q 498.1212 130.4154 480.759228 130.4154 
" style="fill: none; stroke: #1f77b4; stroke-width: 2; stroke-linecap: round"/>
    <path d="M 485.959228 133.0154 
L 480.759228 130.4154 
L 485.959228 127.8154 
" style="fill: none; stroke: #1f77b4; stroke-width: 2; stroke-linecap: round"/>
   </g>
   <g id="text_18">
    <!-- seed $1$ -->
    <g style="fill: #1f77b4" transform="translate(479.6637 150.796003) scale(0.115 -0.115)">
     <defs>
      <path id="DejaVuSans-73" d="M 2834 3397 
L 2834 2853 
Q 2591 2978 2328 3040 
Q 2066 3103 1784 3103 
Q 1356 3103 1142 2972 
Q 928 2841 928 2578 
Q 928 2378 1081 2264 
Q 1234 2150 1697 2047 
L 1894 2003 
Q 2506 1872 2764 1633 
Q 3022 1394 3022 966 
Q 3022 478 2636 193 
Q 2250 -91 1575 -91 
Q 1294 -91 989 -36 
Q 684 19 347 128 
L 347 722 
Q 666 556 975 473 
Q 1284 391 1588 391 
Q 1994 391 2212 530 
Q 2431 669 2431 922 
Q 2431 1156 2273 1281 
Q 2116 1406 1581 1522 
L 1381 1569 
Q 847 1681 609 1914 
Q 372 2147 372 2553 
Q 372 3047 722 3315 
Q 1072 3584 1716 3584 
Q 2034 3584 2315 3537 
Q 2597 3491 2834 3397 
z
" transform="scale(0.015625)"/>
      <path id="DejaVuSans-65" d="M 3597 1894 
L 3597 1613 
L 953 1613 
Q 991 1019 1311 708 
Q 1631 397 2203 397 
Q 2534 397 2845 478 
Q 3156 559 3463 722 
L 3463 178 
Q 3153 47 2828 -22 
Q 2503 -91 2169 -91 
Q 1331 -91 842 396 
Q 353 884 353 1716 
Q 353 2575 817 3079 
Q 1281 3584 2069 3584 
Q 2775 3584 3186 3129 
Q 3597 2675 3597 1894 
z
M 3022 2063 
Q 3016 2534 2758 2815 
Q 2500 3097 2075 3097 
Q 1594 3097 1305 2825 
Q 1016 2553 972 2059 
L 3022 2063 
z
" transform="scale(0.015625)"/>
      <path id="DejaVuSans-64" d="M 2906 2969 
L 2906 4863 
L 3481 4863 
L 3481 0 
L 2906 0 
L 2906 525 
Q 2725 213 2448 61 
Q 2172 -91 1784 -91 
Q 1150 -91 751 415 
Q 353 922 353 1747 
Q 353 2572 751 3078 
Q 1150 3584 1784 3584 
Q 2172 3584 2448 3432 
Q 2725 3281 2906 2969 
z
M 947 1747 
Q 947 1113 1208 752 
Q 1469 391 1925 391 
Q 2381 391 2643 752 
Q 2906 1113 2906 1747 
Q 2906 2381 2643 2742 
Q 2381 3103 1925 3103 
Q 1469 3103 1208 2742 
Q 947 2381 947 1747 
z
" transform="scale(0.015625)"/>
      <path id="DejaVuSans-20" transform="scale(0.015625)"/>
     </defs>
     <use xlink:href="#DejaVuSans-73" transform="translate(0 0.015625)"/>
     <use xlink:href="#DejaVuSans-65" transform="translate(52.099609 0.015625)"/>
     <use xlink:href="#DejaVuSans-65" transform="translate(113.623047 0.015625)"/>
     <use xlink:href="#DejaVuSans-64" transform="translate(175.146484 0.015625)"/>
     <use xlink:href="#DejaVuSans-20" transform="translate(238.623047 0.015625)"/>
     <use xlink:href="#Cmr10-31" transform="translate(270.410156 0.015625)"/>
    </g>
   </g>
   <g id="patch_20">
    <path d="M 201.24 132.3558 
Q 201.24 155.6406 201.24 177.136546 
" style="fill: none; stroke: #1f77b4; stroke-width: 1.6; stroke-linecap: round"/>
    <path d="M 203.64 172.336546 
L 201.24 177.136546 
L 198.84 172.336546 
" style="fill: none; stroke: #1f77b4; stroke-width: 1.6; stroke-linecap: round"/>
   </g>
   <g id="patch_21">
    <path d="M 434.088 132.3558 
Q 434.088 155.6406 434.088 177.136546 
" style="fill: none; stroke: #1f77b4; stroke-width: 1.6; stroke-linecap: round"/>
    <path d="M 436.488 172.336546 
L 434.088 177.136546 
L 431.688 172.336546 
" style="fill: none; stroke: #1f77b4; stroke-width: 1.6; stroke-linecap: round"/>
   </g>
   <g id="text_19">
    <!-- $\frac{\partial L}{\partial \mathbf{W}^{(1)}}=$ -->
    <g style="fill: #1f77b4" transform="translate(150.4676 204.0302) scale(0.13 -0.13)">
     <use xlink:href="#STIXGeneral-Regular-2202" transform="translate(47 39.18125) scale(0.7)"/>
     <use xlink:href="#Cmmi10-4c" transform="translate(79.969994 39.18125) scale(0.7)"/>
     <use xlink:href="#STIXGeneral-Regular-2202" transform="translate(0 -56.369219) scale(0.7)"/>
     <use xlink:href="#Cmb10-57" transform="translate(32.969994 -56.369219) scale(0.7)"/>
     <use xlink:href="#Cmr10-28" transform="translate(108.419111 -29.584375) scale(0.49)"/>
     <use xlink:href="#Cmr10-31" transform="translate(127.440107 -29.584375) scale(0.49)"/>
     <use xlink:href="#Cmr10-29" transform="translate(151.940107 -29.584375) scale(0.49)"/>
     <use xlink:href="#Cmr10-3d" transform="translate(205.483837 0.915625)"/>
     <path d="M 0 13.415625 
L 0 19.665625 
L 175.425244 19.665625 
L 175.425244 13.415625 
L 0 13.415625 
z
"/>
    </g>
   </g>
   <g id="text_20">
    <!-- 0 -->
    <g style="fill: #1f77b4" transform="translate(208.28874 193.87905) scale(0.12 -0.12)">
     <defs>
      <path id="DejaVuSans-30" d="M 2034 4250 
Q 1547 4250 1301 3770 
Q 1056 3291 1056 2328 
Q 1056 1369 1301 889 
Q 1547 409 2034 409 
Q 2525 409 2770 889 
Q 3016 1369 3016 2328 
Q 3016 3291 2770 3770 
Q 2525 4250 2034 4250 
z
M 2034 4750 
Q 2819 4750 3233 4129 
Q 3647 3509 3647 2328 
Q 3647 1150 3233 529 
Q 2819 -91 2034 -91 
Q 1250 -91 836 529 
Q 422 1150 422 2328 
Q 422 3509 836 4129 
Q 1250 4750 2034 4750 
z
" transform="scale(0.015625)"/>
     </defs>
     <use xlink:href="#DejaVuSans-30"/>
    </g>
   </g>
   <g id="text_21">
    <!-- 0 -->
    <g style="fill: #1f77b4" transform="translate(234.67818 193.87905) scale(0.12 -0.12)">
     <use xlink:href="#DejaVuSans-30"/>
    </g>
   </g>
   <g id="text_22">
    <!-- 2 -->
    <g style="fill: #1f77b4" transform="translate(208.28874 217.16385) scale(0.12 -0.12)">
     <defs>
      <path id="DejaVuSans-32" d="M 1228 531 
L 3431 531 
L 3431 0 
L 469 0 
L 469 531 
Q 828 903 1448 1529 
Q 2069 2156 2228 2338 
Q 2531 2678 2651 2914 
Q 2772 3150 2772 3378 
Q 2772 3750 2511 3984 
Q 2250 4219 1831 4219 
Q 1534 4219 1204 4116 
Q 875 4013 500 3803 
L 500 4441 
Q 881 4594 1212 4672 
Q 1544 4750 1819 4750 
Q 2544 4750 2975 4387 
Q 3406 4025 3406 3419 
Q 3406 3131 3298 2873 
Q 3191 2616 2906 2266 
Q 2828 2175 2409 1742 
Q 1991 1309 1228 531 
z
" transform="scale(0.015625)"/>
     </defs>
     <use xlink:href="#DejaVuSans-32"/>
    </g>
   </g>
   <g id="text_23">
    <!-- 4 -->
    <g style="fill: #1f77b4" transform="translate(234.67818 217.16385) scale(0.12 -0.12)">
     <defs>
      <path id="DejaVuSans-34" d="M 2419 4116 
L 825 1625 
L 2419 1625 
L 2419 4116 
z
M 2253 4666 
L 3047 4666 
L 3047 1625 
L 3713 1625 
L 3713 1100 
L 3047 1100 
L 3047 0 
L 2419 0 
L 2419 1100 
L 313 1100 
L 313 1709 
L 2253 4666 
z
" transform="scale(0.015625)"/>
     </defs>
     <use xlink:href="#DejaVuSans-34"/>
    </g>
   </g>
   <g id="text_24">
    <!-- $\frac{\partial L}{\partial \mathbf{W}^{(2)}}=[0,\ -4]$ -->
    <g style="fill: #1f77b4" transform="translate(392.228 201.8778) scale(0.13 -0.13)">
     <use xlink:href="#STIXGeneral-Regular-2202" transform="translate(47 39.18125) scale(0.7)"/>
     <use xlink:href="#Cmmi10-4c" transform="translate(79.969994 39.18125) scale(0.7)"/>
     <use xlink:href="#STIXGeneral-Regular-2202" transform="translate(0 -56.369219) scale(0.7)"/>
     <use xlink:href="#Cmb10-57" transform="translate(32.969994 -56.369219) scale(0.7)"/>
     <use xlink:href="#Cmr10-28" transform="translate(108.419111 -29.584375) scale(0.49)"/>
     <use xlink:href="#Cmr10-32" transform="translate(127.440107 -29.584375) scale(0.49)"/>
     <use xlink:href="#Cmr10-29" transform="translate(151.940107 -29.584375) scale(0.49)"/>
     <use xlink:href="#Cmr10-3d" transform="translate(205.483837 0.915625)"/>
     <use xlink:href="#Cmr10-5b" transform="translate(300.727978 0.915625)"/>
     <use xlink:href="#Cmr10-30" transform="translate(328.413525 0.915625)"/>
     <use xlink:href="#Cmmi10-3b" transform="translate(378.413525 0.915625)"/>
     <use xlink:href="#Cmsy10-a1" transform="translate(470.480289 0.915625)"/>
     <use xlink:href="#Cmr10-34" transform="translate(565.72443 0.915625)"/>
     <use xlink:href="#Cmr10-5d" transform="translate(615.72443 0.915625)"/>
     <path d="M 0 13.415625 
L 0 19.665625 
L 175.425244 19.665625 
L 175.425244 13.415625 
L 0 13.415625 
z
"/>
    </g>
   </g>
   <g id="text_25">
    <!-- forward $\rightarrow$ -->
    <g style="fill: #15181c" transform="translate(27.5742 50.983713) scale(0.11 -0.11)">
     <defs>
      <path id="DejaVuSans-Bold-66" d="M 2841 4863 
L 2841 4128 
L 2222 4128 
Q 1984 4128 1890 4042 
Q 1797 3956 1797 3744 
L 1797 3500 
L 2753 3500 
L 2753 2700 
L 1797 2700 
L 1797 0 
L 678 0 
L 678 2700 
L 122 2700 
L 122 3500 
L 678 3500 
L 678 3744 
Q 678 4316 997 4589 
Q 1316 4863 1984 4863 
L 2841 4863 
z
" transform="scale(0.015625)"/>
      <path id="DejaVuSans-Bold-6f" d="M 2203 2784 
Q 1831 2784 1636 2517 
Q 1441 2250 1441 1747 
Q 1441 1244 1636 976 
Q 1831 709 2203 709 
Q 2569 709 2762 976 
Q 2956 1244 2956 1747 
Q 2956 2250 2762 2517 
Q 2569 2784 2203 2784 
z
M 2203 3584 
Q 3106 3584 3614 3096 
Q 4122 2609 4122 1747 
Q 4122 884 3614 396 
Q 3106 -91 2203 -91 
Q 1297 -91 786 396 
Q 275 884 275 1747 
Q 275 2609 786 3096 
Q 1297 3584 2203 3584 
z
" transform="scale(0.015625)"/>
      <path id="DejaVuSans-Bold-72" d="M 3138 2547 
Q 2991 2616 2845 2648 
Q 2700 2681 2553 2681 
Q 2122 2681 1889 2404 
Q 1656 2128 1656 1613 
L 1656 0 
L 538 0 
L 538 3500 
L 1656 3500 
L 1656 2925 
Q 1872 3269 2151 3426 
Q 2431 3584 2822 3584 
Q 2878 3584 2943 3579 
Q 3009 3575 3134 3559 
L 3138 2547 
z
" transform="scale(0.015625)"/>
      <path id="DejaVuSans-Bold-77" d="M 225 3500 
L 1313 3500 
L 1900 1088 
L 2491 3500 
L 3425 3500 
L 4013 1113 
L 4603 3500 
L 5691 3500 
L 4769 0 
L 3547 0 
L 2956 2406 
L 2369 0 
L 1147 0 
L 225 3500 
z
" transform="scale(0.015625)"/>
      <path id="DejaVuSans-Bold-61" d="M 2106 1575 
Q 1756 1575 1579 1456 
Q 1403 1338 1403 1106 
Q 1403 894 1545 773 
Q 1688 653 1941 653 
Q 2256 653 2472 879 
Q 2688 1106 2688 1447 
L 2688 1575 
L 2106 1575 
z
M 3816 1997 
L 3816 0 
L 2688 0 
L 2688 519 
Q 2463 200 2181 54 
Q 1900 -91 1497 -91 
Q 953 -91 614 226 
Q 275 544 275 1050 
Q 275 1666 698 1953 
Q 1122 2241 2028 2241 
L 2688 2241 
L 2688 2328 
Q 2688 2594 2478 2717 
Q 2269 2841 1825 2841 
Q 1466 2841 1156 2769 
Q 847 2697 581 2553 
L 581 3406 
Q 941 3494 1303 3539 
Q 1666 3584 2028 3584 
Q 2975 3584 3395 3211 
Q 3816 2838 3816 1997 
z
" transform="scale(0.015625)"/>
      <path id="DejaVuSans-Bold-64" d="M 2919 2988 
L 2919 4863 
L 4044 4863 
L 4044 0 
L 2919 0 
L 2919 506 
Q 2688 197 2409 53 
Q 2131 -91 1766 -91 
Q 1119 -91 703 423 
Q 288 938 288 1747 
Q 288 2556 703 3070 
Q 1119 3584 1766 3584 
Q 2128 3584 2408 3439 
Q 2688 3294 2919 2988 
z
M 2181 722 
Q 2541 722 2730 984 
Q 2919 1247 2919 1747 
Q 2919 2247 2730 2509 
Q 2541 2772 2181 2772 
Q 1825 2772 1636 2509 
Q 1447 2247 1447 1747 
Q 1447 1247 1636 984 
Q 1825 722 2181 722 
z
" transform="scale(0.015625)"/>
      <path id="DejaVuSans-Bold-20" transform="scale(0.015625)"/>
      <path id="Cmsy10-21" d="M 481 1472 
Q 428 1472 393 1512 
Q 359 1553 359 1600 
Q 359 1647 393 1687 
Q 428 1728 481 1728 
L 5338 1728 
Q 5094 1903 4906 2133 
Q 4719 2363 4594 2627 
Q 4469 2891 4416 3188 
Q 4416 3272 4481 3272 
L 4609 3272 
Q 4631 3272 4648 3253 
Q 4666 3234 4672 3213 
Q 4725 2938 4839 2702 
Q 4953 2466 5125 2262 
Q 5297 2059 5509 1912 
Q 5722 1766 5991 1672 
Q 6034 1644 6034 1600 
Q 6034 1550 5991 1538 
Q 5656 1422 5378 1192 
Q 5100 963 4919 652 
Q 4738 341 4672 -13 
Q 4666 -34 4647 -53 
Q 4628 -72 4609 -72 
L 4481 -72 
Q 4416 -72 4416 13 
Q 4497 450 4740 836 
Q 4984 1222 5338 1472 
L 481 1472 
z
" transform="scale(0.015625)"/>
     </defs>
     <use xlink:href="#DejaVuSans-Bold-66" transform="translate(0 0.015625)"/>
     <use xlink:href="#DejaVuSans-Bold-6f" transform="translate(43.505859 0.015625)"/>
     <use xlink:href="#DejaVuSans-Bold-72" transform="translate(112.207031 0.015625)"/>
     <use xlink:href="#DejaVuSans-Bold-77" transform="translate(161.523438 0.015625)"/>
     <use xlink:href="#DejaVuSans-Bold-61" transform="translate(253.90625 0.015625)"/>
     <use xlink:href="#DejaVuSans-Bold-72" transform="translate(321.386719 0.015625)"/>
     <use xlink:href="#DejaVuSans-Bold-64" transform="translate(370.703125 0.015625)"/>
     <use xlink:href="#DejaVuSans-Bold-20" transform="translate(442.285156 0.015625)"/>
     <use xlink:href="#Cmsy10-21" transform="translate(494.658203 0.015625)"/>
    </g>
   </g>
   <g id="text_26">
    <!-- $\leftarrow$ backward -->
    <g style="fill: #1f77b4" transform="translate(523.1726 171.288513) scale(0.11 -0.11)">
     <defs>
      <path id="Cmsy10-c3" d="M 1722 -13 
Q 1675 250 1561 494 
Q 1447 738 1275 941 
Q 1103 1144 884 1297 
Q 666 1450 409 1538 
Q 359 1547 359 1600 
Q 359 1647 409 1672 
Q 669 1763 886 1911 
Q 1103 2059 1275 2262 
Q 1447 2466 1561 2709 
Q 1675 2953 1722 3213 
Q 1738 3272 1784 3272 
L 1913 3272 
Q 1978 3272 1978 3188 
Q 1906 2763 1664 2378 
Q 1422 1994 1056 1728 
L 5913 1728 
Q 5966 1728 6000 1687 
Q 6034 1647 6034 1600 
Q 6034 1553 6000 1512 
Q 5966 1472 5913 1472 
L 1056 1472 
Q 1416 1216 1661 827 
Q 1906 438 1978 13 
Q 1978 -72 1913 -72 
L 1784 -72 
Q 1738 -72 1722 -13 
z
" transform="scale(0.015625)"/>
      <path id="DejaVuSans-Bold-62" d="M 2400 722 
Q 2759 722 2948 984 
Q 3138 1247 3138 1747 
Q 3138 2247 2948 2509 
Q 2759 2772 2400 2772 
Q 2041 2772 1848 2508 
Q 1656 2244 1656 1747 
Q 1656 1250 1848 986 
Q 2041 722 2400 722 
z
M 1656 2988 
Q 1888 3294 2169 3439 
Q 2450 3584 2816 3584 
Q 3463 3584 3878 3070 
Q 4294 2556 4294 1747 
Q 4294 938 3878 423 
Q 3463 -91 2816 -91 
Q 2450 -91 2169 54 
Q 1888 200 1656 506 
L 1656 0 
L 538 0 
L 538 4863 
L 1656 4863 
L 1656 2988 
z
" transform="scale(0.015625)"/>
      <path id="DejaVuSans-Bold-63" d="M 3366 3391 
L 3366 2478 
Q 3138 2634 2908 2709 
Q 2678 2784 2431 2784 
Q 1963 2784 1702 2511 
Q 1441 2238 1441 1747 
Q 1441 1256 1702 982 
Q 1963 709 2431 709 
Q 2694 709 2930 787 
Q 3166 866 3366 1019 
L 3366 103 
Q 3103 6 2833 -42 
Q 2563 -91 2291 -91 
Q 1344 -91 809 395 
Q 275 881 275 1747 
Q 275 2613 809 3098 
Q 1344 3584 2291 3584 
Q 2566 3584 2833 3536 
Q 3100 3488 3366 3391 
z
" transform="scale(0.015625)"/>
      <path id="DejaVuSans-Bold-6b" d="M 538 4863 
L 1656 4863 
L 1656 2216 
L 2944 3500 
L 4244 3500 
L 2534 1894 
L 4378 0 
L 3022 0 
L 1656 1459 
L 1656 0 
L 538 0 
L 538 4863 
z
" transform="scale(0.015625)"/>
     </defs>
     <use xlink:href="#Cmsy10-c3" transform="translate(17.558594 0.015625)"/>
     <use xlink:href="#DejaVuSans-Bold-20" transform="translate(135.117188 0.015625)"/>
     <use xlink:href="#DejaVuSans-Bold-62" transform="translate(169.931641 0.015625)"/>
     <use xlink:href="#DejaVuSans-Bold-61" transform="translate(241.513672 0.015625)"/>
     <use xlink:href="#DejaVuSans-Bold-63" transform="translate(308.994141 0.015625)"/>
     <use xlink:href="#DejaVuSans-Bold-6b" transform="translate(368.271484 0.015625)"/>
     <use xlink:href="#DejaVuSans-Bold-77" transform="translate(434.775391 0.015625)"/>
     <use xlink:href="#DejaVuSans-Bold-61" transform="translate(527.158203 0.015625)"/>
     <use xlink:href="#DejaVuSans-Bold-72" transform="translate(594.638672 0.015625)"/>
     <use xlink:href="#DejaVuSans-Bold-64" transform="translate(643.955078 0.015625)"/>
    </g>
   </g>
  </g>
 </g>
 <defs>
  <clipPath id="padb3da366d">
   <rect x="7.2" y="7.2" width="620.928" height="232.848"/>
  </clipPath>
 </defs>
</svg>
