<?xml version="1.0" encoding="utf-8" standalone="no"?>
<!DOCTYPE svg PUBLIC "-//W3C//DTD SVG 1.1//EN"
  "http://www.w3.org/Graphics/SVG/1.1/DTD/svg11.dtd">
<svg xmlns:xlink="http://www.w3.org/1999/xlink" width="590.96pt" height="156.64pt" viewBox="0 0 590.96 156.64" xmlns="http://www.w3.org/2000/svg" version="1.1">
 <metadata>
  <rdf:RDF xmlns:dc="http://purl.org/dc/elements/1.1/" xmlns:cc="http://creativecommons.org/ns#" xmlns:rdf="http://www.w3.org/1999/02/22-rdf-syntax-ns#">
   <cc:Work>
    <dc:type rdf:resource="http://purl.org/dc/dcmitype/StillImage"/>
    <dc:format>image/svg+xml</dc:format>
    <dc:creator>
     <cc:Agent>
      <dc:title>Matplotlib v3.10.8, https://matplotlib.org/</dc:title>
     </cc:Agent>
    </dc:creator>
   </cc:Work>
  </rdf:RDF>
 </metadata>
 <defs>
  <style type="text/css">*{stroke-linejoin: round; stroke-linecap: butt}</style>
 </defs>
 <g id="figure_1">
  <g id="patch_1">
   <path d="M 0 156.64
L 590.96 156.64
L 590.96 0
L 0 0
z
" style="fill: #ffffff"/>
  </g>
  <g id="axes_1">
   <g id="patch_2">
    <path d="M 16.48 52.48
L 100.48 52.48
Q 110.48 52.48 110.48 42.48
L 110.48 16.48
Q 110.48 6.48 100.48 6.48
L 16.48 6.48
Q 6.48 6.48 6.48 16.48
L 6.48 42.48
Q 6.48 52.48 16.48 52.48
z
" clip-path="url(#p214e49f940)" style="fill: #ffffff; stroke: #000000; stroke-width: 1.2; stroke-linejoin: miter"/>
   </g>
   <g id="patch_3">
    <path d="M 154.48 52.48
L 238.48 52.48
Q 248.48 52.48 248.48 42.48
L 248.48 16.48
Q 248.48 6.48 238.48 6.48
L 154.48 6.48
Q 144.48 6.48 144.48 16.48
L 144.48 42.48
Q 144.48 52.48 154.48 52.48
z
" clip-path="url(#p214e49f940)" style="fill: #ffffff; stroke: #000000; stroke-width: 1.2; stroke-linejoin: miter"/>
   </g>
   <g id="patch_4">
    <path d="M 294.48 52.48
L 378.48 52.48
Q 388.48 52.48 388.48 42.48
L 388.48 16.48
Q 388.48 6.48 378.48 6.48
L 294.48 6.48
Q 284.48 6.48 284.48 16.48
L 284.48 42.48
Q 284.48 52.48 294.48 52.48
z
" clip-path="url(#p214e49f940)" style="fill: #3b3b3b; stroke: #3b3b3b; stroke-width: 1.2; stroke-linejoin: miter"/>
   </g>
   <g id="patch_5">
    <path d="M 436.48 52.48
L 520.48 52.48
Q 530.48 52.48 530.48 42.48
L 530.48 16.48
Q 530.48 6.48 520.48 6.48
L 436.48 6.48
Q 426.48 6.48 426.48 16.48
L 426.48 42.48
Q 426.48 52.48 436.48 52.48
z
" clip-path="url(#p214e49f940)" style="fill: #ffffff; stroke: #000000; stroke-width: 1.2; stroke-linejoin: miter"/>
   </g>
   <g id="patch_6">
    <path d="M 201.48 145.48
L 431.48 145.48
Q 441.48 145.48 441.48 135.48
L 441.48 107.48
Q 441.48 97.48 431.48 97.48
L 201.48 97.48
Q 191.48 97.48 191.48 107.48
L 191.48 135.48
Q 191.48 145.48 201.48 145.48
z
" clip-path="url(#p214e49f940)" style="fill: #cde8fa; stroke: #0b6bb2; stroke-width: 1.2; stroke-linejoin: miter"/>
   </g>
   <g id="patch_7">
    <path d="M 518.48 139.48
L 574.48 139.48
Q 584.48 139.48 584.48 129.48
L 584.48 113.48
Q 584.48 103.48 574.48 103.48
L 518.48 103.48
Q 508.48 103.48 508.48 113.48
L 508.48 129.48
Q 508.48 139.48 518.48 139.48
z
" clip-path="url(#p214e49f940)" style="fill: #fbe8d3; stroke: #b45309; stroke-width: 1.2; stroke-linejoin: miter"/>
   </g>
   <g id="patch_8">
    <path d="M 110.48 29.48
Q 127.48 29.48 143.138359 29.48
" style="fill: none; stroke: #000000; stroke-width: 1.2; stroke-linecap: round"/>
    <path d="M 138.738359 27.28
L 143.138359 29.48
L 138.738359 31.68
z
" style="stroke: #000000; stroke-width: 1.2; stroke-linecap: round"/>
   </g>
   <g id="patch_9">
    <path d="M 248.48 29.48
Q 266.48 29.48 283.138359 29.48
" style="fill: none; stroke: #000000; stroke-width: 1.2; stroke-linecap: round"/>
    <path d="M 278.738359 27.28
L 283.138359 29.48
L 278.738359 31.68
z
" style="stroke: #000000; stroke-width: 1.2; stroke-linecap: round"/>
   </g>
   <g id="patch_10">
    <path d="M 388.48 29.48
Q 407.48 29.48 425.138359 29.48
" style="fill: none; stroke: #000000; stroke-width: 1.2; stroke-linecap: round"/>
    <path d="M 420.738359 27.28
L 425.138359 29.48
L 420.738359 31.68
z
" style="stroke: #000000; stroke-width: 1.2; stroke-linecap: round"/>
   </g>
   <g id="line2d_1">
    <path d="M 478.48 52.48
L 478.48 75.48
L 416.48 75.48
" clip-path="url(#p214e49f940)" style="fill: none; stroke: #0b6bb2; stroke-width: 1.2; stroke-linecap: round"/>
   </g>
   <g id="patch_11">
    <path d="M 416.48 75.48
Q 416.48 84.48 416.48 92.138359
" style="fill: none; stroke: #0b6bb2; stroke-width: 1.2; stroke-linecap: round"/>
    <path d="M 418.68 87.738359
L 416.48 92.138359
L 414.28 87.738359
z
" style="fill: #0b6bb2; stroke: #0b6bb2; stroke-width: 1.2; stroke-linecap: round"/>
   </g>
   <g id="patch_12">
    <path d="M 189.48 121.48
Q 137.98 121.48 87.821641 121.48
" style="fill: none; stroke: #0b6bb2; stroke-width: 1.2; stroke-linecap: round"/>
    <path d="M 92.221641 123.68
L 87.821641 121.48
L 92.221641 119.28
z
" style="fill: #0b6bb2; stroke: #0b6bb2; stroke-width: 1.2; stroke-linecap: round"/>
   </g>
   <g id="patch_13">
    <path d="M 443.48 121.48
Q 475.98 121.48 507.138359 121.48
" style="fill: none; stroke: #b45309; stroke-width: 1.2; stroke-linecap: round"/>
    <path d="M 502.738359 119.28
L 507.138359 121.48
L 502.738359 123.68
z
" style="fill: #b45309; stroke: #b45309; stroke-width: 1.2; stroke-linecap: round"/>
   </g>
   <g id="text_1">
    <!-- Provision -->
    <g transform="translate(35.92832 32.39543) scale(0.115 -0.115)">
     <defs>
      <path id="SourceSans3-Regular-50" d="M 576 0
L 576 4198
L 1773 4198
Q 2246 4198 2598 4083
Q 2950 3968 3148 3696
Q 3347 3424 3347 2963
Q 3347 2304 2918 1984
Q 2490 1664 1798 1664
L 1107 1664
L 1107 0
L 576 0
z
M 1107 2099
L 1734 2099
Q 2285 2099 2550 2307
Q 2816 2515 2816 2963
Q 2816 3418 2537 3594
Q 2259 3770 1709 3770
L 1107 3770
L 1107 2099
z
" transform="scale(0.015625)"/>
      <path id="SourceSans3-Regular-72" d="M 525 0
L 525 3110
L 960 3110
L 1005 2547
L 1024 2547
Q 1178 2842 1408 3014
Q 1638 3187 1907 3187
Q 2093 3187 2240 3123
L 2125 2675
Q 2054 2694 1993 2704
Q 1933 2714 1837 2714
Q 1638 2714 1424 2554
Q 1210 2394 1050 1997
L 1050 0
L 525 0
z
" transform="scale(0.015625)"/>
      <path id="SourceSans3-Regular-6f" d="M 1734 -77
Q 1357 -77 1027 115
Q 698 307 496 672
Q 294 1037 294 1549
Q 294 2074 496 2438
Q 698 2803 1027 2995
Q 1357 3187 1734 3187
Q 2118 3187 2444 2995
Q 2771 2803 2972 2438
Q 3174 2074 3174 1549
Q 3174 1037 2972 672
Q 2771 307 2444 115
Q 2118 -77 1734 -77
z
M 1734 358
Q 2138 358 2384 688
Q 2630 1018 2630 1549
Q 2630 2086 2384 2419
Q 2138 2752 1734 2752
Q 1338 2752 1088 2419
Q 838 2086 838 1549
Q 838 1018 1088 688
Q 1338 358 1734 358
z
" transform="scale(0.015625)"/>
      <path id="SourceSans3-Regular-76" d="M 1197 0
L 77 3110
L 621 3110
L 1210 1344
Q 1280 1114 1353 883
Q 1427 653 1498 429
L 1523 429
Q 1594 653 1667 883
Q 1741 1114 1805 1344
L 2394 3110
L 2912 3110
L 1811 0
L 1197 0
z
" transform="scale(0.015625)"/>
      <path id="SourceSans3-Regular-69" d="M 525 0
L 525 3110
L 1050 3110
L 1050 0
L 525 0
z
M 784 3750
Q 630 3750 531 3843
Q 432 3936 432 4096
Q 432 4250 531 4346
Q 630 4442 784 4442
Q 938 4442 1037 4346
Q 1136 4250 1136 4096
Q 1136 3936 1037 3843
Q 938 3750 784 3750
z
" transform="scale(0.015625)"/>
      <path id="SourceSans3-Regular-73" d="M 1338 -77
Q 998 -77 697 41
Q 397 160 179 371
L 422 678
Q 627 512 848 422
Q 1069 333 1357 333
Q 1664 333 1817 477
Q 1971 621 1971 819
Q 1971 979 1868 1084
Q 1766 1190 1606 1264
Q 1446 1338 1267 1402
Q 1037 1485 825 1597
Q 614 1709 483 1878
Q 352 2048 352 2304
Q 352 2682 637 2934
Q 922 3187 1427 3187
Q 1715 3187 1964 3088
Q 2214 2989 2394 2835
L 2150 2534
Q 1990 2650 1814 2714
Q 1638 2778 1427 2778
Q 1133 2778 995 2643
Q 858 2509 858 2330
Q 858 2118 1043 2009
Q 1229 1901 1517 1798
Q 1760 1715 1981 1600
Q 2202 1485 2339 1309
Q 2477 1133 2477 851
Q 2477 602 2345 390
Q 2214 179 1961 51
Q 1709 -77 1338 -77
z
" transform="scale(0.015625)"/>
      <path id="SourceSans3-Regular-6e" d="M 525 0
L 525 3110
L 960 3110
L 1005 2662
L 1024 2662
Q 1248 2886 1497 3036
Q 1747 3187 2067 3187
Q 2560 3187 2787 2876
Q 3014 2566 3014 1971
L 3014 0
L 2490 0
L 2490 1901
Q 2490 2336 2349 2534
Q 2208 2733 1901 2733
Q 1664 2733 1475 2611
Q 1286 2490 1050 2253
L 1050 0
L 525 0
z
" transform="scale(0.015625)"/>
     </defs>
     <use xlink:href="#SourceSans3-Regular-50"/>
     <use xlink:href="#SourceSans3-Regular-72" transform="translate(56.599991 0)"/>
     <use xlink:href="#SourceSans3-Regular-6f" transform="translate(91.299988 0)"/>
     <use xlink:href="#SourceSans3-Regular-76" transform="translate(145.499985 0)"/>
     <use xlink:href="#SourceSans3-Regular-69" transform="translate(192.199982 0)"/>
     <use xlink:href="#SourceSans3-Regular-73" transform="translate(216.799973 0)"/>
     <use xlink:href="#SourceSans3-Regular-69" transform="translate(258.699966 0)"/>
     <use xlink:href="#SourceSans3-Regular-6f" transform="translate(283.299957 0)"/>
     <use xlink:href="#SourceSans3-Regular-6e" transform="translate(337.499954 0)"/>
    </g>
   </g>
   <g id="text_2">
    <!-- Connect -->
    <g transform="translate(176.372969 32.39543) scale(0.115 -0.115)">
     <defs>
      <path id="SourceSans3-Regular-43" d="M 2170 -77
Q 1645 -77 1229 182
Q 813 442 573 928
Q 333 1414 333 2099
Q 333 2778 576 3264
Q 819 3750 1241 4012
Q 1664 4275 2195 4275
Q 2573 4275 2870 4124
Q 3168 3974 3347 3757
L 3059 3430
Q 2893 3610 2678 3709
Q 2464 3808 2202 3808
Q 1811 3808 1513 3600
Q 1216 3392 1049 3014
Q 883 2637 883 2112
Q 883 1587 1046 1200
Q 1210 813 1507 601
Q 1805 390 2208 390
Q 2502 390 2736 502
Q 2970 614 3168 832
L 3443 525
Q 3187 237 2883 80
Q 2579 -77 2170 -77
z
" transform="scale(0.015625)"/>
      <path id="SourceSans3-Regular-65" d="M 1702 2758
Q 1510 2758 1328 2665
Q 1146 2573 1014 2368
Q 883 2163 838 1830
L 2458 1830
Q 2458 2285 2259 2521
Q 2061 2758 1702 2758
z
M 1786 -77
Q 1370 -77 1027 115
Q 685 307 486 675
Q 288 1043 288 1555
Q 288 2061 489 2425
Q 691 2790 1014 2988
Q 1338 3187 1696 3187
Q 2298 3187 2614 2790
Q 2931 2394 2931 1728
Q 2931 1645 2924 1568
Q 2918 1491 2906 1414
L 826 1414
Q 864 890 1161 621
Q 1459 352 1850 352
Q 2074 352 2269 416
Q 2464 480 2624 589
L 2816 243
Q 2611 102 2358 12
Q 2106 -77 1786 -77
z
" transform="scale(0.015625)"/>
      <path id="SourceSans3-Regular-63" d="M 1760 -77
Q 1344 -77 1011 115
Q 678 307 486 672
Q 294 1037 294 1549
Q 294 2074 502 2438
Q 710 2803 1052 2995
Q 1395 3187 1792 3187
Q 2099 3187 2320 3084
Q 2541 2982 2701 2822
L 2438 2502
Q 2317 2611 2166 2681
Q 2016 2752 1811 2752
Q 1536 2752 1315 2601
Q 1094 2451 966 2179
Q 838 1907 838 1549
Q 838 1018 1107 688
Q 1376 358 1805 358
Q 2016 358 2201 441
Q 2387 525 2528 653
L 2758 333
Q 2566 147 2313 35
Q 2061 -77 1760 -77
z
" transform="scale(0.015625)"/>
      <path id="SourceSans3-Regular-74" d="M 1504 -58
Q 1005 -58 809 227
Q 614 512 614 979
L 614 2682
L 154 2682
L 154 3078
L 640 3110
L 704 4109
L 1146 4109
L 1146 3110
L 1984 3110
L 1984 2682
L 1146 2682
L 1146 966
Q 1146 685 1251 528
Q 1357 371 1626 371
Q 1709 371 1798 387
Q 1888 403 1978 448
L 2086 77
Q 1965 13 1814 -22
Q 1664 -58 1504 -58
z
" transform="scale(0.015625)"/>
     </defs>
     <use xlink:href="#SourceSans3-Regular-43"/>
     <use xlink:href="#SourceSans3-Regular-6f" transform="translate(57.099991 0)"/>
     <use xlink:href="#SourceSans3-Regular-6e" transform="translate(111.299988 0)"/>
     <use xlink:href="#SourceSans3-Regular-6e" transform="translate(165.999985 0)"/>
     <use xlink:href="#SourceSans3-Regular-65" transform="translate(220.699982 0)"/>
     <use xlink:href="#SourceSans3-Regular-63" transform="translate(270.299973 0)"/>
     <use xlink:href="#SourceSans3-Regular-74" transform="translate(315.899963 0)"/>
    </g>
   </g>
   <g id="text_3">
    <!-- Compute -->
    <g style="fill: #ffffff" transform="translate(313.273359 32.452031) scale(0.115 -0.115)">
     <defs>
      <path id="SourceSans3-Bold-43" d="M 2259 -77
Q 1728 -77 1280 166
Q 832 410 563 886
Q 294 1363 294 2061
Q 294 2752 566 3241
Q 838 3731 1289 3990
Q 1741 4250 2266 4250
Q 2669 4250 2989 4090
Q 3309 3930 3520 3706
L 3021 3136
Q 2861 3283 2685 3360
Q 2509 3437 2285 3437
Q 2003 3437 1769 3273
Q 1536 3110 1398 2809
Q 1261 2509 1261 2093
Q 1261 1453 1555 1094
Q 1850 736 2323 736
Q 2566 736 2761 835
Q 2957 934 3098 1082
L 3571 525
Q 3034 -77 2259 -77
z
" transform="scale(0.015625)"/>
      <path id="SourceSans3-Bold-6f" d="M 1779 -77
Q 1376 -77 1021 118
Q 666 314 448 688
Q 230 1062 230 1587
Q 230 2118 448 2489
Q 666 2861 1021 3056
Q 1376 3251 1779 3251
Q 2182 3251 2534 3056
Q 2886 2861 3104 2489
Q 3322 2118 3322 1587
Q 3322 1062 3104 688
Q 2886 314 2534 118
Q 2182 -77 1779 -77
z
M 1779 685
Q 2067 685 2214 931
Q 2362 1178 2362 1587
Q 2362 2003 2214 2246
Q 2067 2490 1779 2490
Q 1485 2490 1341 2246
Q 1197 2003 1197 1587
Q 1197 1178 1341 931
Q 1485 685 1779 685
z
" transform="scale(0.015625)"/>
      <path id="SourceSans3-Bold-6d" d="M 416 0
L 416 3174
L 1184 3174
L 1248 2765
L 1274 2765
Q 1472 2963 1696 3107
Q 1920 3251 2234 3251
Q 2573 3251 2781 3113
Q 2989 2976 3110 2720
Q 3322 2938 3558 3094
Q 3795 3251 4109 3251
Q 4621 3251 4861 2908
Q 5101 2566 5101 1971
L 5101 0
L 4160 0
L 4160 1850
Q 4160 2195 4067 2323
Q 3974 2451 3770 2451
Q 3533 2451 3226 2144
L 3226 0
L 2285 0
L 2285 1850
Q 2285 2195 2192 2323
Q 2099 2451 1894 2451
Q 1658 2451 1357 2144
L 1357 0
L 416 0
z
" transform="scale(0.015625)"/>
      <path id="SourceSans3-Bold-70" d="M 416 -1178
L 416 3174
L 1184 3174
L 1248 2861
L 1274 2861
Q 1459 3027 1692 3139
Q 1926 3251 2176 3251
Q 2752 3251 3085 2812
Q 3418 2374 3418 1638
Q 3418 1094 3226 710
Q 3034 326 2730 124
Q 2426 -77 2080 -77
Q 1875 -77 1683 9
Q 1491 96 1325 256
L 1357 -250
L 1357 -1178
L 416 -1178
z
M 1862 691
Q 2106 691 2278 915
Q 2451 1139 2451 1626
Q 2451 2483 1901 2483
Q 1626 2483 1357 2195
L 1357 896
Q 1485 781 1613 736
Q 1741 691 1862 691
z
" transform="scale(0.015625)"/>
      <path id="SourceSans3-Bold-75" d="M 1370 -77
Q 851 -77 617 265
Q 384 608 384 1203
L 384 3174
L 1325 3174
L 1325 1325
Q 1325 986 1421 854
Q 1517 723 1722 723
Q 1901 723 2022 806
Q 2144 890 2285 1075
L 2285 3174
L 3226 3174
L 3226 0
L 2458 0
L 2387 442
L 2368 442
Q 2170 205 1933 64
Q 1696 -77 1370 -77
z
" transform="scale(0.015625)"/>
      <path id="SourceSans3-Bold-74" d="M 1638 -70
Q 1050 -70 797 269
Q 544 608 544 1158
L 544 2438
L 109 2438
L 109 3136
L 595 3174
L 704 4147
L 1485 4147
L 1485 3174
L 2246 3174
L 2246 2438
L 1485 2438
L 1485 1171
Q 1485 902 1597 784
Q 1709 666 1894 666
Q 1971 666 2051 678
Q 2131 691 2195 717
L 2349 58
Q 2227 6 2044 -32
Q 1862 -70 1638 -70
z
" transform="scale(0.015625)"/>
      <path id="SourceSans3-Bold-65" d="M 1747 2528
Q 1562 2528 1386 2403
Q 1210 2278 1146 1952
L 2272 1952
Q 2272 2202 2150 2365
Q 2029 2528 1747 2528
z
M 1837 -77
Q 1382 -77 1017 118
Q 653 314 441 688
Q 230 1062 230 1587
Q 230 2106 444 2477
Q 659 2848 1004 3049
Q 1350 3251 1728 3251
Q 2182 3251 2483 3049
Q 2784 2848 2931 2505
Q 3078 2163 3078 1728
Q 3078 1606 3065 1488
Q 3053 1370 3040 1299
L 1146 1299
Q 1222 928 1459 787
Q 1696 646 1965 646
Q 2317 646 2656 851
L 2963 275
Q 2726 109 2422 16
Q 2118 -77 1837 -77
z
" transform="scale(0.015625)"/>
     </defs>
     <use xlink:href="#SourceSans3-Bold-43"/>
     <use xlink:href="#SourceSans3-Bold-6f" transform="translate(58.199997 0)"/>
     <use xlink:href="#SourceSans3-Bold-6d" transform="translate(113.699982 0)"/>
     <use xlink:href="#SourceSans3-Bold-70" transform="translate(199.399963 0)"/>
     <use xlink:href="#SourceSans3-Bold-75" transform="translate(256.699951 0)"/>
     <use xlink:href="#SourceSans3-Bold-74" transform="translate(313.499939 0)"/>
     <use xlink:href="#SourceSans3-Bold-65" transform="translate(351.799927 0)"/>
    </g>
   </g>
   <g id="text_4">
    <!-- Checkpoint -->
    <g transform="translate(450.938398 32.39543) scale(0.115 -0.115)">
     <defs>
      <path id="SourceSans3-Regular-68" d="M 525 0
L 525 4557
L 1050 4557
L 1050 3315
L 1030 2675
Q 1254 2886 1500 3036
Q 1747 3187 2067 3187
Q 2560 3187 2787 2876
Q 3014 2566 3014 1971
L 3014 0
L 2490 0
L 2490 1901
Q 2490 2336 2349 2534
Q 2208 2733 1901 2733
Q 1664 2733 1475 2611
Q 1286 2490 1050 2253
L 1050 0
L 525 0
z
" transform="scale(0.015625)"/>
      <path id="SourceSans3-Regular-6b" d="M 525 0
L 525 4557
L 1050 4557
L 1050 1478
L 1062 1478
L 2381 3110
L 2970 3110
L 1933 1856
L 3110 0
L 2534 0
L 1626 1498
L 1050 819
L 1050 0
L 525 0
z
" transform="scale(0.015625)"/>
      <path id="SourceSans3-Regular-70" d="M 525 -1312
L 525 3110
L 960 3110
L 1005 2752
L 1024 2752
Q 1235 2931 1488 3059
Q 1741 3187 2016 3187
Q 2618 3187 2931 2755
Q 3245 2323 3245 1600
Q 3245 1075 3056 697
Q 2867 320 2563 121
Q 2259 -77 1901 -77
Q 1683 -77 1468 19
Q 1254 115 1037 282
L 1050 -262
L 1050 -1312
L 525 -1312
z
M 1811 365
Q 2195 365 2448 694
Q 2701 1024 2701 1600
Q 2701 2112 2512 2429
Q 2323 2746 1882 2746
Q 1683 2746 1481 2637
Q 1280 2528 1050 2323
L 1050 691
Q 1261 512 1459 438
Q 1658 365 1811 365
z
" transform="scale(0.015625)"/>
     </defs>
     <use xlink:href="#SourceSans3-Regular-43"/>
     <use xlink:href="#SourceSans3-Regular-68" transform="translate(57.099991 0)"/>
     <use xlink:href="#SourceSans3-Regular-65" transform="translate(111.499985 0)"/>
     <use xlink:href="#SourceSans3-Regular-63" transform="translate(161.099976 0)"/>
     <use xlink:href="#SourceSans3-Regular-6b" transform="translate(206.699966 0)"/>
     <use xlink:href="#SourceSans3-Regular-70" transform="translate(256.199951 0)"/>
     <use xlink:href="#SourceSans3-Regular-6f" transform="translate(311.699936 0)"/>
     <use xlink:href="#SourceSans3-Regular-69" transform="translate(365.899933 0)"/>
     <use xlink:href="#SourceSans3-Regular-6e" transform="translate(390.499924 0)"/>
     <use xlink:href="#SourceSans3-Regular-74" transform="translate(445.199921 0)"/>
    </g>
   </g>
   <g id="text_5">
    <!-- Persistent object storage -->
    <g style="fill: #0b6bb2" transform="translate(252.876016 120.42418) scale(0.115 -0.115)">
     <defs>
      <path id="SourceSans3-Bold-50" d="M 493 0
L 493 4173
L 1926 4173
Q 2387 4173 2761 4048
Q 3136 3923 3360 3628
Q 3584 3334 3584 2829
Q 3584 2342 3360 2028
Q 3136 1715 2765 1564
Q 2394 1414 1952 1414
L 1434 1414
L 1434 0
L 493 0
z
M 1434 2163
L 1894 2163
Q 2662 2163 2662 2829
Q 2662 3155 2457 3289
Q 2253 3424 1869 3424
L 1434 3424
L 1434 2163
z
" transform="scale(0.015625)"/>
      <path id="SourceSans3-Bold-72" d="M 416 0
L 416 3174
L 1184 3174
L 1248 2618
L 1274 2618
Q 1446 2938 1689 3094
Q 1933 3251 2176 3251
Q 2310 3251 2400 3235
Q 2490 3219 2554 3187
L 2374 2387
Q 2291 2406 2224 2416
Q 2157 2426 2054 2426
Q 1875 2426 1680 2294
Q 1485 2163 1357 1843
L 1357 0
L 416 0
z
" transform="scale(0.015625)"/>
      <path id="SourceSans3-Bold-73" d="M 1350 -77
Q 1037 -77 707 44
Q 378 166 134 397
L 531 928
Q 749 755 963 688
Q 1178 621 1376 621
Q 1587 621 1683 694
Q 1779 768 1779 890
Q 1779 1050 1596 1133
Q 1414 1216 1158 1312
Q 934 1395 739 1523
Q 544 1651 425 1833
Q 307 2016 307 2259
Q 307 2701 643 2976
Q 979 3251 1523 3251
Q 1869 3251 2157 3139
Q 2445 3027 2643 2848
L 2240 2323
Q 2067 2451 1894 2502
Q 1722 2554 1555 2554
Q 1370 2554 1280 2483
Q 1190 2413 1190 2304
Q 1190 2163 1334 2086
Q 1478 2010 1779 1914
Q 2144 1792 2400 1568
Q 2656 1344 2656 947
Q 2656 518 2323 220
Q 1990 -77 1350 -77
z
" transform="scale(0.015625)"/>
      <path id="SourceSans3-Bold-69" d="M 416 0
L 416 3174
L 1357 3174
L 1357 0
L 416 0
z
M 880 3642
Q 643 3642 496 3776
Q 349 3910 349 4134
Q 349 4358 496 4492
Q 643 4627 880 4627
Q 1117 4627 1264 4492
Q 1411 4358 1411 4134
Q 1411 3910 1264 3776
Q 1117 3642 880 3642
z
" transform="scale(0.015625)"/>
      <path id="SourceSans3-Bold-6e" d="M 416 0
L 416 3174
L 1184 3174
L 1248 2771
L 1274 2771
Q 1478 2963 1724 3107
Q 1971 3251 2291 3251
Q 2810 3251 3043 2908
Q 3277 2566 3277 1971
L 3277 0
L 2336 0
L 2336 1850
Q 2336 2195 2243 2323
Q 2150 2451 1946 2451
Q 1766 2451 1638 2371
Q 1510 2291 1357 2144
L 1357 0
L 416 0
z
" transform="scale(0.015625)"/>
      <path id="SourceSans3-Bold-20" transform="scale(0.015625)"/>
      <path id="SourceSans3-Bold-62" d="M 2080 -77
Q 1869 -77 1654 28
Q 1440 134 1254 339
L 1229 339
L 1152 0
L 416 0
L 416 4486
L 1357 4486
L 1357 3386
L 1331 2899
Q 1517 3066 1734 3158
Q 1952 3251 2170 3251
Q 2554 3251 2835 3052
Q 3117 2854 3267 2492
Q 3418 2131 3418 1645
Q 3418 1101 3226 713
Q 3034 326 2730 124
Q 2426 -77 2080 -77
z
M 1862 691
Q 2106 691 2278 915
Q 2451 1139 2451 1626
Q 2451 2483 1901 2483
Q 1619 2483 1357 2195
L 1357 896
Q 1485 781 1613 736
Q 1741 691 1862 691
z
" transform="scale(0.015625)"/>
      <path id="SourceSans3-Bold-6a" d="M 230 -1254
Q 32 -1254 -99 -1228
Q -230 -1203 -326 -1165
L -160 -474
Q -96 -493 -35 -505
Q 26 -518 90 -518
Q 275 -518 348 -393
Q 422 -269 422 -6
L 422 3174
L 1363 3174
L 1363 19
Q 1363 -326 1260 -614
Q 1158 -902 912 -1078
Q 666 -1254 230 -1254
z
M 896 3642
Q 659 3642 512 3776
Q 365 3910 365 4134
Q 365 4358 512 4492
Q 659 4627 896 4627
Q 1133 4627 1280 4492
Q 1427 4358 1427 4134
Q 1427 3910 1280 3776
Q 1133 3642 896 3642
z
" transform="scale(0.015625)"/>
      <path id="SourceSans3-Bold-63" d="M 1818 -77
Q 1370 -77 1008 118
Q 646 314 438 688
Q 230 1062 230 1587
Q 230 2118 460 2489
Q 691 2861 1068 3056
Q 1446 3251 1882 3251
Q 2176 3251 2409 3158
Q 2643 3066 2810 2912
L 2368 2330
Q 2285 2400 2182 2445
Q 2080 2490 1939 2490
Q 1606 2490 1401 2246
Q 1197 2003 1197 1587
Q 1197 1178 1398 931
Q 1600 685 1914 685
Q 2227 685 2477 896
L 2848 314
Q 2650 134 2381 28
Q 2112 -77 1818 -77
z
" transform="scale(0.015625)"/>
      <path id="SourceSans3-Bold-61" d="M 1216 -77
Q 781 -77 525 201
Q 269 480 269 883
Q 269 1395 691 1673
Q 1114 1952 2054 2048
Q 2042 2253 1926 2374
Q 1811 2496 1555 2496
Q 1357 2496 1152 2425
Q 947 2355 710 2221
L 378 2835
Q 678 3021 1020 3136
Q 1363 3251 1734 3251
Q 2342 3251 2668 2899
Q 2995 2547 2995 1811
L 2995 0
L 2227 0
L 2163 326
L 2138 326
Q 1933 147 1709 35
Q 1485 -77 1216 -77
z
M 1530 659
Q 1690 659 1811 729
Q 1933 800 2054 922
L 2054 1459
Q 1555 1395 1363 1267
Q 1171 1139 1171 954
Q 1171 806 1270 732
Q 1370 659 1530 659
z
" transform="scale(0.015625)"/>
      <path id="SourceSans3-Bold-67" d="M 1549 -1350
Q 1178 -1350 877 -1267
Q 576 -1184 397 -1005
Q 218 -826 218 -544
Q 218 -160 672 96
L 672 122
Q 550 205 464 333
Q 378 461 378 659
Q 378 832 480 992
Q 582 1152 736 1254
L 736 1280
Q 570 1395 438 1612
Q 307 1830 307 2106
Q 307 2490 492 2742
Q 678 2995 979 3123
Q 1280 3251 1619 3251
Q 1901 3251 2112 3174
L 3270 3174
L 3270 2490
L 2739 2490
L 2739 2464
Q 2867 2298 2867 2061
Q 2867 1702 2700 1468
Q 2534 1235 2252 1120
Q 1971 1005 1619 1005
Q 1434 1005 1235 1069
Q 1120 973 1120 832
Q 1120 710 1229 652
Q 1338 595 1600 595
L 2112 595
Q 2701 595 3011 406
Q 3322 218 3322 -211
Q 3322 -538 3104 -797
Q 2886 -1056 2489 -1203
Q 2093 -1350 1549 -1350
z
M 1619 1574
Q 1805 1574 1929 1708
Q 2054 1843 2054 2106
Q 2054 2362 1929 2490
Q 1805 2618 1619 2618
Q 1434 2618 1309 2490
Q 1184 2362 1184 2106
Q 1184 1843 1309 1708
Q 1434 1574 1619 1574
z
M 1696 -762
Q 2016 -762 2221 -646
Q 2426 -531 2426 -371
Q 2426 -224 2301 -173
Q 2176 -122 1939 -122
L 1613 -122
Q 1453 -122 1347 -112
Q 1242 -102 1165 -83
Q 992 -237 992 -397
Q 992 -576 1187 -669
Q 1382 -762 1696 -762
z
" transform="scale(0.015625)"/>
     </defs>
     <use xlink:href="#SourceSans3-Bold-50"/>
     <use xlink:href="#SourceSans3-Bold-65" transform="translate(59.599991 0)"/>
     <use xlink:href="#SourceSans3-Bold-72" transform="translate(111.399979 0)"/>
     <use xlink:href="#SourceSans3-Bold-73" transform="translate(151.199966 0)"/>
     <use xlink:href="#SourceSans3-Bold-69" transform="translate(195.499954 0)"/>
     <use xlink:href="#SourceSans3-Bold-73" transform="translate(223.099945 0)"/>
     <use xlink:href="#SourceSans3-Bold-74" transform="translate(267.399933 0)"/>
     <use xlink:href="#SourceSans3-Bold-65" transform="translate(305.699921 0)"/>
     <use xlink:href="#SourceSans3-Bold-6e" transform="translate(357.499908 0)"/>
     <use xlink:href="#SourceSans3-Bold-74" transform="translate(414.699905 0)"/>
     <use xlink:href="#SourceSans3-Bold-20" transform="translate(452.999893 0)"/>
     <use xlink:href="#SourceSans3-Bold-6f" transform="translate(472.999878 0)"/>
     <use xlink:href="#SourceSans3-Bold-62" transform="translate(528.499863 0)"/>
     <use xlink:href="#SourceSans3-Bold-6a" transform="translate(585.79985 0)"/>
     <use xlink:href="#SourceSans3-Bold-65" transform="translate(613.599838 0)"/>
     <use xlink:href="#SourceSans3-Bold-63" transform="translate(665.399826 0)"/>
     <use xlink:href="#SourceSans3-Bold-74" transform="translate(712.099823 0)"/>
     <use xlink:href="#SourceSans3-Bold-20" transform="translate(750.399811 0)"/>
     <use xlink:href="#SourceSans3-Bold-73" transform="translate(770.399796 0)"/>
     <use xlink:href="#SourceSans3-Bold-74" transform="translate(814.699783 0)"/>
     <use xlink:href="#SourceSans3-Bold-6f" transform="translate(852.999771 0)"/>
     <use xlink:href="#SourceSans3-Bold-72" transform="translate(908.499756 0)"/>
     <use xlink:href="#SourceSans3-Bold-61" transform="translate(948.299744 0)"/>
     <use xlink:href="#SourceSans3-Bold-67" transform="translate(1000.999741 0)"/>
     <use xlink:href="#SourceSans3-Bold-65" transform="translate(1054.399734 0)"/>
    </g>
   </g>
   <g id="text_6">
    <!-- data · logs · checkpoints -->
    <g style="fill: #6e6e6e" transform="translate(272.421562 134.627062) scale(0.088 -0.088)">
     <defs>
      <path id="SourceSans3-Regular-64" d="M 1587 -77
Q 1005 -77 653 348
Q 301 774 301 1549
Q 301 2054 489 2422
Q 678 2790 988 2988
Q 1299 3187 1651 3187
Q 1920 3187 2118 3091
Q 2317 2995 2522 2829
L 2496 3360
L 2496 4557
L 3027 4557
L 3027 0
L 2592 0
L 2547 365
L 2528 365
Q 2349 186 2105 54
Q 1862 -77 1587 -77
z
M 1702 365
Q 2112 365 2496 794
L 2496 2419
Q 2298 2598 2115 2672
Q 1933 2746 1741 2746
Q 1491 2746 1289 2595
Q 1088 2445 966 2179
Q 845 1914 845 1555
Q 845 998 1069 681
Q 1293 365 1702 365
z
" transform="scale(0.015625)"/>
      <path id="SourceSans3-Regular-61" d="M 1242 -77
Q 851 -77 588 153
Q 326 384 326 806
Q 326 1331 787 1600
Q 1248 1869 2246 1978
Q 2246 2176 2188 2349
Q 2131 2522 1993 2634
Q 1856 2746 1600 2746
Q 1331 2746 1094 2643
Q 858 2541 672 2426
L 467 2784
Q 685 2931 1001 3059
Q 1318 3187 1690 3187
Q 2259 3187 2515 2838
Q 2771 2490 2771 1907
L 2771 0
L 2336 0
L 2291 371
L 2272 371
Q 2042 186 1789 54
Q 1536 -77 1242 -77
z
M 1389 358
Q 1613 358 1817 460
Q 2022 563 2246 762
L 2246 1600
Q 1722 1542 1414 1440
Q 1107 1338 976 1190
Q 845 1043 845 838
Q 845 582 1005 470
Q 1165 358 1389 358
z
" transform="scale(0.015625)"/>
      <path id="SourceSans3-Regular-20" transform="scale(0.015625)"/>
      <path id="SourceSans3-Regular-b7" d="M 800 1651
Q 640 1651 528 1763
Q 416 1875 416 2048
Q 416 2234 528 2346
Q 640 2458 800 2458
Q 954 2458 1066 2346
Q 1178 2234 1178 2048
Q 1178 1875 1066 1763
Q 954 1651 800 1651
z
" transform="scale(0.015625)"/>
      <path id="SourceSans3-Regular-6c" d="M 1082 -58
Q 787 -58 656 124
Q 525 307 525 640
L 525 4557
L 1050 4557
L 1050 602
Q 1050 480 1094 429
Q 1139 378 1203 378
Q 1229 378 1251 381
Q 1274 384 1312 390
L 1382 -6
Q 1267 -58 1082 -58
z
" transform="scale(0.015625)"/>
      <path id="SourceSans3-Regular-67" d="M 1574 -1434
Q 1005 -1434 646 -1216
Q 288 -998 288 -595
Q 288 -397 409 -214
Q 531 -32 742 109
L 742 134
Q 627 205 547 333
Q 467 461 467 640
Q 467 838 576 985
Q 685 1133 806 1216
L 806 1242
Q 653 1370 528 1587
Q 403 1805 403 2080
Q 403 2419 563 2668
Q 723 2918 992 3052
Q 1261 3187 1574 3187
Q 1702 3187 1817 3164
Q 1933 3142 2016 3110
L 3098 3110
L 3098 2707
L 2451 2707
L 2451 2682
Q 2560 2579 2637 2425
Q 2714 2272 2714 2061
Q 2714 1734 2560 1491
Q 2406 1248 2150 1117
Q 1894 986 1574 986
Q 1325 986 1107 1094
Q 1024 1024 966 937
Q 909 851 909 723
Q 909 576 1027 480
Q 1146 384 1459 384
L 2061 384
Q 2605 384 2877 208
Q 3149 32 3149 -358
Q 3149 -646 2957 -889
Q 2765 -1133 2413 -1283
Q 2061 -1434 1574 -1434
z
M 1574 1338
Q 1843 1338 2038 1539
Q 2234 1741 2234 2080
Q 2234 2419 2042 2611
Q 1850 2803 1574 2803
Q 1299 2803 1107 2611
Q 915 2419 915 2080
Q 915 1741 1110 1539
Q 1306 1338 1574 1338
z
M 1651 -1069
Q 2099 -1069 2368 -873
Q 2637 -678 2637 -435
Q 2637 -218 2473 -134
Q 2310 -51 2010 -51
L 1472 -51
Q 1382 -51 1276 -38
Q 1171 -26 1069 0
Q 902 -122 825 -256
Q 749 -390 749 -525
Q 749 -774 989 -921
Q 1229 -1069 1651 -1069
z
" transform="scale(0.015625)"/>
     </defs>
     <use xlink:href="#SourceSans3-Regular-64"/>
     <use xlink:href="#SourceSans3-Regular-61" transform="translate(55.499985 0)"/>
     <use xlink:href="#SourceSans3-Regular-74" transform="translate(105.899979 0)"/>
     <use xlink:href="#SourceSans3-Regular-61" transform="translate(139.699966 0)"/>
     <use xlink:href="#SourceSans3-Regular-20" transform="translate(190.09996 0)"/>
     <use xlink:href="#SourceSans3-Regular-b7" transform="translate(210.099945 0)"/>
     <use xlink:href="#SourceSans3-Regular-20" transform="translate(234.999939 0)"/>
     <use xlink:href="#SourceSans3-Regular-6c" transform="translate(254.999924 0)"/>
     <use xlink:href="#SourceSans3-Regular-6f" transform="translate(280.499908 0)"/>
     <use xlink:href="#SourceSans3-Regular-67" transform="translate(334.699905 0)"/>
     <use xlink:href="#SourceSans3-Regular-73" transform="translate(385.099899 0)"/>
     <use xlink:href="#SourceSans3-Regular-20" transform="translate(426.999893 0)"/>
     <use xlink:href="#SourceSans3-Regular-b7" transform="translate(446.999878 0)"/>
     <use xlink:href="#SourceSans3-Regular-20" transform="translate(471.899872 0)"/>
     <use xlink:href="#SourceSans3-Regular-63" transform="translate(491.899857 0)"/>
     <use xlink:href="#SourceSans3-Regular-68" transform="translate(537.499847 0)"/>
     <use xlink:href="#SourceSans3-Regular-65" transform="translate(591.899841 0)"/>
     <use xlink:href="#SourceSans3-Regular-63" transform="translate(641.499832 0)"/>
     <use xlink:href="#SourceSans3-Regular-6b" transform="translate(687.099823 0)"/>
     <use xlink:href="#SourceSans3-Regular-70" transform="translate(736.599808 0)"/>
     <use xlink:href="#SourceSans3-Regular-6f" transform="translate(792.099792 0)"/>
     <use xlink:href="#SourceSans3-Regular-69" transform="translate(846.299789 0)"/>
     <use xlink:href="#SourceSans3-Regular-6e" transform="translate(870.89978 0)"/>
     <use xlink:href="#SourceSans3-Regular-74" transform="translate(925.599777 0)"/>
     <use xlink:href="#SourceSans3-Regular-73" transform="translate(959.399765 0)"/>
    </g>
   </g>
   <g id="text_7">
    <!-- Delete VM -->
    <g style="fill: #b45309" transform="translate(521.319258 124.452031) scale(0.115 -0.115)">
     <defs>
      <path id="SourceSans3-Bold-44" d="M 493 0
L 493 4173
L 1670 4173
Q 2310 4173 2777 3955
Q 3245 3738 3504 3280
Q 3763 2822 3763 2106
Q 3763 1389 3507 921
Q 3251 454 2793 227
Q 2336 0 1722 0
L 493 0
z
M 1434 762
L 1613 762
Q 1971 762 2236 890
Q 2502 1018 2649 1312
Q 2797 1606 2797 2106
Q 2797 2605 2649 2889
Q 2502 3174 2236 3292
Q 1971 3411 1613 3411
L 1434 3411
L 1434 762
z
" transform="scale(0.015625)"/>
      <path id="SourceSans3-Bold-6c" d="M 1280 -70
Q 794 -70 605 218
Q 416 506 416 992
L 416 4486
L 1357 4486
L 1357 954
Q 1357 800 1411 742
Q 1466 685 1530 685
Q 1555 685 1577 688
Q 1600 691 1638 698
L 1754 6
Q 1677 -26 1558 -48
Q 1440 -70 1280 -70
z
" transform="scale(0.015625)"/>
      <path id="SourceSans3-Bold-56" d="M 1190 0
L -45 4173
L 954 4173
L 1427 2227
Q 1517 1882 1593 1558
Q 1670 1235 1766 890
L 1792 890
Q 1882 1235 1958 1558
Q 2035 1882 2125 2227
L 2643 4173
L 3603 4173
L 2323 0
L 1190 0
z
" transform="scale(0.015625)"/>
      <path id="SourceSans3-Bold-4d" d="M 493 0
L 493 4173
L 1542 4173
L 2208 2317
Q 2272 2131 2326 1942
Q 2381 1754 2438 1549
L 2464 1549
Q 2522 1754 2573 1942
Q 2624 2131 2688 2317
L 3341 4173
L 4390 4173
L 4390 0
L 3526 0
L 3526 1530
Q 3526 1734 3548 2012
Q 3571 2291 3600 2569
Q 3629 2848 3654 3053
L 3629 3053
L 3290 1952
L 2701 358
L 2150 358
L 1568 1952
L 1242 3053
L 1216 3053
Q 1242 2848 1270 2569
Q 1299 2291 1318 2012
Q 1338 1734 1338 1530
L 1338 0
L 493 0
z
" transform="scale(0.015625)"/>
     </defs>
     <use xlink:href="#SourceSans3-Bold-44"/>
     <use xlink:href="#SourceSans3-Bold-65" transform="translate(63.499985 0)"/>
     <use xlink:href="#SourceSans3-Bold-6c" transform="translate(115.299973 0)"/>
     <use xlink:href="#SourceSans3-Bold-65" transform="translate(143.899963 0)"/>
     <use xlink:href="#SourceSans3-Bold-74" transform="translate(195.699951 0)"/>
     <use xlink:href="#SourceSans3-Bold-65" transform="translate(233.999939 0)"/>
     <use xlink:href="#SourceSans3-Bold-20" transform="translate(285.799927 0)"/>
     <use xlink:href="#SourceSans3-Bold-56" transform="translate(305.799911 0)"/>
     <use xlink:href="#SourceSans3-Bold-4d" transform="translate(361.399902 0)"/>
    </g>
   </g>
   <g id="text_8">
    <!-- resume on a new VM -->
    <g style="fill: #0b6bb2" transform="translate(97.970664 147.888398) scale(0.095 -0.095)">
     <defs>
      <path id="SourceSans3-Regular-75" d="M 1434 -77
Q 941 -77 710 233
Q 480 544 480 1139
L 480 3110
L 1011 3110
L 1011 1210
Q 1011 774 1148 576
Q 1286 378 1594 378
Q 1837 378 2025 502
Q 2214 627 2432 902
L 2432 3110
L 2957 3110
L 2957 0
L 2522 0
L 2477 486
L 2458 486
Q 2240 230 1997 76
Q 1754 -77 1434 -77
z
" transform="scale(0.015625)"/>
      <path id="SourceSans3-Regular-6d" d="M 525 0
L 525 3110
L 960 3110
L 1005 2662
L 1024 2662
Q 1229 2886 1472 3036
Q 1715 3187 1990 3187
Q 2349 3187 2550 3030
Q 2752 2874 2848 2592
Q 3091 2854 3340 3020
Q 3590 3187 3872 3187
Q 4352 3187 4585 2876
Q 4819 2566 4819 1971
L 4819 0
L 4294 0
L 4294 1901
Q 4294 2336 4153 2534
Q 4013 2733 3718 2733
Q 3373 2733 2938 2253
L 2938 0
L 2413 0
L 2413 1901
Q 2413 2336 2272 2534
Q 2131 2733 1830 2733
Q 1485 2733 1050 2253
L 1050 0
L 525 0
z
" transform="scale(0.015625)"/>
      <path id="SourceSans3-Regular-77" d="M 1018 0
L 154 3110
L 704 3110
L 1158 1312
Q 1210 1101 1254 889
Q 1299 678 1338 429
L 1363 429
Q 1414 678 1462 889
Q 1510 1101 1562 1312
L 2022 3110
L 2598 3110
L 3066 1312
Q 3123 1101 3174 889
Q 3226 678 3270 429
L 3296 429
Q 3347 678 3392 889
Q 3437 1101 3482 1312
L 3936 3110
L 4448 3110
L 3610 0
L 2925 0
L 2509 1664
Q 2451 1882 2406 2096
Q 2362 2310 2310 2586
L 2285 2586
Q 2240 2310 2192 2092
Q 2144 1875 2086 1664
L 1670 0
L 1018 0
z
" transform="scale(0.015625)"/>
      <path id="SourceSans3-Regular-56" d="M 1318 0
L 0 4198
L 570 4198
L 1216 1933
Q 1325 1555 1421 1238
Q 1517 922 1626 544
L 1651 544
Q 1760 922 1849 1238
Q 1939 1555 2054 1933
L 2752 4198
L 3296 4198
L 1939 0
L 1318 0
z
" transform="scale(0.015625)"/>
      <path id="SourceSans3-Regular-4d" d="M 576 0
L 576 4198
L 1248 4198
L 2042 1952
Q 2112 1734 2182 1526
Q 2253 1318 2323 1082
L 2349 1082
Q 2419 1318 2480 1526
Q 2541 1734 2618 1952
L 3411 4198
L 4077 4198
L 4077 0
L 3578 0
L 3578 2310
Q 3578 2496 3590 2726
Q 3603 2957 3622 3184
Q 3642 3411 3654 3597
L 3629 3597
L 3302 2586
L 2515 416
L 2125 416
L 1338 2586
L 1011 3597
L 986 3597
Q 1005 3411 1024 3184
Q 1043 2957 1052 2726
Q 1062 2496 1062 2310
L 1062 0
L 576 0
z
" transform="scale(0.015625)"/>
     </defs>
     <use xlink:href="#SourceSans3-Regular-72"/>
     <use xlink:href="#SourceSans3-Regular-65" transform="translate(34.699997 0)"/>
     <use xlink:href="#SourceSans3-Regular-73" transform="translate(84.299988 0)"/>
     <use xlink:href="#SourceSans3-Regular-75" transform="translate(126.199982 0)"/>
     <use xlink:href="#SourceSans3-Regular-6d" transform="translate(180.599976 0)"/>
     <use xlink:href="#SourceSans3-Regular-65" transform="translate(263.499969 0)"/>
     <use xlink:href="#SourceSans3-Regular-20" transform="translate(313.09996 0)"/>
     <use xlink:href="#SourceSans3-Regular-6f" transform="translate(333.099945 0)"/>
     <use xlink:href="#SourceSans3-Regular-6e" transform="translate(387.299942 0)"/>
     <use xlink:href="#SourceSans3-Regular-20" transform="translate(441.999939 0)"/>
     <use xlink:href="#SourceSans3-Regular-61" transform="translate(461.999924 0)"/>
     <use xlink:href="#SourceSans3-Regular-20" transform="translate(512.399918 0)"/>
     <use xlink:href="#SourceSans3-Regular-6e" transform="translate(532.399902 0)"/>
     <use xlink:href="#SourceSans3-Regular-65" transform="translate(587.099899 0)"/>
     <use xlink:href="#SourceSans3-Regular-77" transform="translate(636.69989 0)"/>
     <use xlink:href="#SourceSans3-Regular-20" transform="translate(708.599884 0)"/>
     <use xlink:href="#SourceSans3-Regular-56" transform="translate(728.599869 0)"/>
     <use xlink:href="#SourceSans3-Regular-4d" transform="translate(780.099854 0)"/>
    </g>
   </g>
  </g>
 </g>
 <defs>
  <clipPath id="p214e49f940">
   <rect x="-13.52" y="-80.52" width="610" height="256"/>
  </clipPath>
 </defs>
</svg>
