<?xml version="1.0" encoding="utf-8" standalone="no"?>
<!DOCTYPE svg PUBLIC "-//W3C//DTD SVG 1.1//EN"
  "http://www.w3.org/Graphics/SVG/1.1/DTD/svg11.dtd">
<svg xmlns:xlink="http://www.w3.org/1999/xlink" width="552.96pt" height="144.96pt" viewBox="0 0 552.96 144.96" xmlns="http://www.w3.org/2000/svg" version="1.1">
 <metadata>
  <rdf:RDF xmlns:dc="http://purl.org/dc/elements/1.1/" xmlns:cc="http://creativecommons.org/ns#" xmlns:rdf="http://www.w3.org/1999/02/22-rdf-syntax-ns#">
   <cc:Work>
    <dc:type rdf:resource="http://purl.org/dc/dcmitype/StillImage"/>
    <dc:format>image/svg+xml</dc:format>
    <dc:creator>
     <cc:Agent>
      <dc:title>Matplotlib v3.10.8, https://matplotlib.org/</dc:title>
     </cc:Agent>
    </dc:creator>
   </cc:Work>
  </rdf:RDF>
 </metadata>
 <defs>
  <style type="text/css">*{stroke-linejoin: round; stroke-linecap: butt}</style>
 </defs>
 <g id="figure_1">
  <g id="patch_1">
   <path d="M 0 144.96
L 552.96 144.96
L 552.96 0
L 0 0
z
" style="fill: #ffffff"/>
  </g>
  <g id="axes_1">
   <g id="line2d_1">
    <path d="M 6.48 138.48
L 546.48 138.48
" clip-path="url(#p5dcb77d580)" style="fill: none; stroke: #000000; stroke-width: 1.2; stroke-linecap: square"/>
   </g>
   <g id="line2d_2">
    <path d="M 6.48 138.48
L 251.48 138.48
" clip-path="url(#p5dcb77d580)" style="fill: none; stroke: #0b6bb2; stroke-width: 5; stroke-linecap: square"/>
   </g>
   <g id="line2d_3">
    <path d="M 251.48 138.48
L 546.48 138.48
" clip-path="url(#p5dcb77d580)" style="fill: none; stroke: #b45309; stroke-width: 5; stroke-linecap: square"/>
   </g>
   <g id="patch_2">
    <path d="M 16.48 78.48
L 206.48 78.48
Q 216.48 78.48 216.48 68.48
L 216.48 16.48
Q 216.48 6.48 206.48 6.48
L 16.48 6.48
Q 6.48 6.48 6.48 16.48
L 6.48 68.48
Q 6.48 78.48 16.48 78.48
z
" clip-path="url(#p5dcb77d580)" style="fill: #3b3b3b; stroke: #3b3b3b; stroke-width: 1.2; stroke-linejoin: miter"/>
   </g>
   <g id="patch_3">
    <path d="M 346.48 78.48
L 536.48 78.48
Q 546.48 78.48 546.48 68.48
L 546.48 16.48
Q 546.48 6.48 536.48 6.48
L 346.48 6.48
Q 336.48 6.48 336.48 16.48
L 336.48 68.48
Q 336.48 78.48 346.48 78.48
z
" clip-path="url(#p5dcb77d580)" style="fill: #ffffff; stroke: #000000; stroke-width: 1.2; stroke-linejoin: miter"/>
   </g>
   <g id="patch_4">
    <path d="M 216.48 42.48
Q 276.48 42.48 335.138359 42.48
" style="fill: none; stroke: #000000; stroke-width: 1.2; stroke-linecap: round"/>
    <path d="M 330.738359 40.28
L 335.138359 42.48
L 330.738359 44.68
z
" style="stroke: #000000; stroke-width: 1.2; stroke-linecap: round"/>
   </g>
   <g id="text_1">
    <!-- Prefill -->
    <g style="fill: #ffffff" transform="translate(95.951406 41.452031) scale(0.115 -0.115)">
     <defs>
      <path id="SourceSans3-Bold-50" d="M 493 0
L 493 4173
L 1926 4173
Q 2387 4173 2761 4048
Q 3136 3923 3360 3628
Q 3584 3334 3584 2829
Q 3584 2342 3360 2028
Q 3136 1715 2765 1564
Q 2394 1414 1952 1414
L 1434 1414
L 1434 0
L 493 0
z
M 1434 2163
L 1894 2163
Q 2662 2163 2662 2829
Q 2662 3155 2457 3289
Q 2253 3424 1869 3424
L 1434 3424
L 1434 2163
z
" transform="scale(0.015625)"/>
      <path id="SourceSans3-Bold-72" d="M 416 0
L 416 3174
L 1184 3174
L 1248 2618
L 1274 2618
Q 1446 2938 1689 3094
Q 1933 3251 2176 3251
Q 2310 3251 2400 3235
Q 2490 3219 2554 3187
L 2374 2387
Q 2291 2406 2224 2416
Q 2157 2426 2054 2426
Q 1875 2426 1680 2294
Q 1485 2163 1357 1843
L 1357 0
L 416 0
z
" transform="scale(0.015625)"/>
      <path id="SourceSans3-Bold-65" d="M 1747 2528
Q 1562 2528 1386 2403
Q 1210 2278 1146 1952
L 2272 1952
Q 2272 2202 2150 2365
Q 2029 2528 1747 2528
z
M 1837 -77
Q 1382 -77 1017 118
Q 653 314 441 688
Q 230 1062 230 1587
Q 230 2106 444 2477
Q 659 2848 1004 3049
Q 1350 3251 1728 3251
Q 2182 3251 2483 3049
Q 2784 2848 2931 2505
Q 3078 2163 3078 1728
Q 3078 1606 3065 1488
Q 3053 1370 3040 1299
L 1146 1299
Q 1222 928 1459 787
Q 1696 646 1965 646
Q 2317 646 2656 851
L 2963 275
Q 2726 109 2422 16
Q 2118 -77 1837 -77
z
" transform="scale(0.015625)"/>
      <path id="SourceSans3-Bold-66" d="M 576 0
L 576 2438
L 109 2438
L 109 3136
L 576 3168
L 576 3341
Q 576 3680 691 3955
Q 806 4230 1062 4396
Q 1318 4563 1747 4563
Q 1946 4563 2112 4524
Q 2278 4486 2381 4448
L 2195 3776
Q 2118 3802 2038 3811
Q 1958 3821 1882 3821
Q 1709 3821 1613 3715
Q 1517 3610 1517 3366
L 1517 3174
L 2086 3174
L 2086 2438
L 1517 2438
L 1517 0
L 576 0
z
" transform="scale(0.015625)"/>
      <path id="SourceSans3-Bold-69" d="M 416 0
L 416 3174
L 1357 3174
L 1357 0
L 416 0
z
M 880 3642
Q 643 3642 496 3776
Q 349 3910 349 4134
Q 349 4358 496 4492
Q 643 4627 880 4627
Q 1117 4627 1264 4492
Q 1411 4358 1411 4134
Q 1411 3910 1264 3776
Q 1117 3642 880 3642
z
" transform="scale(0.015625)"/>
      <path id="SourceSans3-Bold-6c" d="M 1280 -70
Q 794 -70 605 218
Q 416 506 416 992
L 416 4486
L 1357 4486
L 1357 954
Q 1357 800 1411 742
Q 1466 685 1530 685
Q 1555 685 1577 688
Q 1600 691 1638 698
L 1754 6
Q 1677 -26 1558 -48
Q 1440 -70 1280 -70
z
" transform="scale(0.015625)"/>
     </defs>
     <use xlink:href="#SourceSans3-Bold-50"/>
     <use xlink:href="#SourceSans3-Bold-72" transform="translate(59.599991 0)"/>
     <use xlink:href="#SourceSans3-Bold-65" transform="translate(99.399979 0)"/>
     <use xlink:href="#SourceSans3-Bold-66" transform="translate(151.199966 0)"/>
     <use xlink:href="#SourceSans3-Bold-69" transform="translate(185.299957 0)"/>
     <use xlink:href="#SourceSans3-Bold-6c" transform="translate(212.899948 0)"/>
     <use xlink:href="#SourceSans3-Bold-6c" transform="translate(241.499939 0)"/>
    </g>
   </g>
   <g id="text_2">
    <!-- many prompt tokens in parallel -->
    <g style="fill: #d9d9d9" transform="translate(53.77675 55.693063) scale(0.088 -0.088)">
     <defs>
      <path id="SourceSans3-Regular-6d" d="M 525 0
L 525 3110
L 960 3110
L 1005 2662
L 1024 2662
Q 1229 2886 1472 3036
Q 1715 3187 1990 3187
Q 2349 3187 2550 3030
Q 2752 2874 2848 2592
Q 3091 2854 3340 3020
Q 3590 3187 3872 3187
Q 4352 3187 4585 2876
Q 4819 2566 4819 1971
L 4819 0
L 4294 0
L 4294 1901
Q 4294 2336 4153 2534
Q 4013 2733 3718 2733
Q 3373 2733 2938 2253
L 2938 0
L 2413 0
L 2413 1901
Q 2413 2336 2272 2534
Q 2131 2733 1830 2733
Q 1485 2733 1050 2253
L 1050 0
L 525 0
z
" transform="scale(0.015625)"/>
      <path id="SourceSans3-Regular-61" d="M 1242 -77
Q 851 -77 588 153
Q 326 384 326 806
Q 326 1331 787 1600
Q 1248 1869 2246 1978
Q 2246 2176 2188 2349
Q 2131 2522 1993 2634
Q 1856 2746 1600 2746
Q 1331 2746 1094 2643
Q 858 2541 672 2426
L 467 2784
Q 685 2931 1001 3059
Q 1318 3187 1690 3187
Q 2259 3187 2515 2838
Q 2771 2490 2771 1907
L 2771 0
L 2336 0
L 2291 371
L 2272 371
Q 2042 186 1789 54
Q 1536 -77 1242 -77
z
M 1389 358
Q 1613 358 1817 460
Q 2022 563 2246 762
L 2246 1600
Q 1722 1542 1414 1440
Q 1107 1338 976 1190
Q 845 1043 845 838
Q 845 582 1005 470
Q 1165 358 1389 358
z
" transform="scale(0.015625)"/>
      <path id="SourceSans3-Regular-6e" d="M 525 0
L 525 3110
L 960 3110
L 1005 2662
L 1024 2662
Q 1248 2886 1497 3036
Q 1747 3187 2067 3187
Q 2560 3187 2787 2876
Q 3014 2566 3014 1971
L 3014 0
L 2490 0
L 2490 1901
Q 2490 2336 2349 2534
Q 2208 2733 1901 2733
Q 1664 2733 1475 2611
Q 1286 2490 1050 2253
L 1050 0
L 525 0
z
" transform="scale(0.015625)"/>
      <path id="SourceSans3-Regular-79" d="M 576 -1338
Q 474 -1338 381 -1318
Q 288 -1299 211 -1274
L 326 -864
Q 442 -902 550 -902
Q 813 -902 985 -713
Q 1158 -525 1254 -237
L 1325 -6
L 77 3110
L 621 3110
L 1254 1389
Q 1325 1190 1405 960
Q 1485 730 1555 512
L 1581 512
Q 1651 723 1715 953
Q 1779 1184 1843 1389
L 2400 3110
L 2912 3110
L 1741 -256
Q 1632 -563 1481 -806
Q 1331 -1050 1110 -1194
Q 890 -1338 576 -1338
z
" transform="scale(0.015625)"/>
      <path id="SourceSans3-Regular-20" transform="scale(0.015625)"/>
      <path id="SourceSans3-Regular-70" d="M 525 -1312
L 525 3110
L 960 3110
L 1005 2752
L 1024 2752
Q 1235 2931 1488 3059
Q 1741 3187 2016 3187
Q 2618 3187 2931 2755
Q 3245 2323 3245 1600
Q 3245 1075 3056 697
Q 2867 320 2563 121
Q 2259 -77 1901 -77
Q 1683 -77 1468 19
Q 1254 115 1037 282
L 1050 -262
L 1050 -1312
L 525 -1312
z
M 1811 365
Q 2195 365 2448 694
Q 2701 1024 2701 1600
Q 2701 2112 2512 2429
Q 2323 2746 1882 2746
Q 1683 2746 1481 2637
Q 1280 2528 1050 2323
L 1050 691
Q 1261 512 1459 438
Q 1658 365 1811 365
z
" transform="scale(0.015625)"/>
      <path id="SourceSans3-Regular-72" d="M 525 0
L 525 3110
L 960 3110
L 1005 2547
L 1024 2547
Q 1178 2842 1408 3014
Q 1638 3187 1907 3187
Q 2093 3187 2240 3123
L 2125 2675
Q 2054 2694 1993 2704
Q 1933 2714 1837 2714
Q 1638 2714 1424 2554
Q 1210 2394 1050 1997
L 1050 0
L 525 0
z
" transform="scale(0.015625)"/>
      <path id="SourceSans3-Regular-6f" d="M 1734 -77
Q 1357 -77 1027 115
Q 698 307 496 672
Q 294 1037 294 1549
Q 294 2074 496 2438
Q 698 2803 1027 2995
Q 1357 3187 1734 3187
Q 2118 3187 2444 2995
Q 2771 2803 2972 2438
Q 3174 2074 3174 1549
Q 3174 1037 2972 672
Q 2771 307 2444 115
Q 2118 -77 1734 -77
z
M 1734 358
Q 2138 358 2384 688
Q 2630 1018 2630 1549
Q 2630 2086 2384 2419
Q 2138 2752 1734 2752
Q 1338 2752 1088 2419
Q 838 2086 838 1549
Q 838 1018 1088 688
Q 1338 358 1734 358
z
" transform="scale(0.015625)"/>
      <path id="SourceSans3-Regular-74" d="M 1504 -58
Q 1005 -58 809 227
Q 614 512 614 979
L 614 2682
L 154 2682
L 154 3078
L 640 3110
L 704 4109
L 1146 4109
L 1146 3110
L 1984 3110
L 1984 2682
L 1146 2682
L 1146 966
Q 1146 685 1251 528
Q 1357 371 1626 371
Q 1709 371 1798 387
Q 1888 403 1978 448
L 2086 77
Q 1965 13 1814 -22
Q 1664 -58 1504 -58
z
" transform="scale(0.015625)"/>
      <path id="SourceSans3-Regular-6b" d="M 525 0
L 525 4557
L 1050 4557
L 1050 1478
L 1062 1478
L 2381 3110
L 2970 3110
L 1933 1856
L 3110 0
L 2534 0
L 1626 1498
L 1050 819
L 1050 0
L 525 0
z
" transform="scale(0.015625)"/>
      <path id="SourceSans3-Regular-65" d="M 1702 2758
Q 1510 2758 1328 2665
Q 1146 2573 1014 2368
Q 883 2163 838 1830
L 2458 1830
Q 2458 2285 2259 2521
Q 2061 2758 1702 2758
z
M 1786 -77
Q 1370 -77 1027 115
Q 685 307 486 675
Q 288 1043 288 1555
Q 288 2061 489 2425
Q 691 2790 1014 2988
Q 1338 3187 1696 3187
Q 2298 3187 2614 2790
Q 2931 2394 2931 1728
Q 2931 1645 2924 1568
Q 2918 1491 2906 1414
L 826 1414
Q 864 890 1161 621
Q 1459 352 1850 352
Q 2074 352 2269 416
Q 2464 480 2624 589
L 2816 243
Q 2611 102 2358 12
Q 2106 -77 1786 -77
z
" transform="scale(0.015625)"/>
      <path id="SourceSans3-Regular-73" d="M 1338 -77
Q 998 -77 697 41
Q 397 160 179 371
L 422 678
Q 627 512 848 422
Q 1069 333 1357 333
Q 1664 333 1817 477
Q 1971 621 1971 819
Q 1971 979 1868 1084
Q 1766 1190 1606 1264
Q 1446 1338 1267 1402
Q 1037 1485 825 1597
Q 614 1709 483 1878
Q 352 2048 352 2304
Q 352 2682 637 2934
Q 922 3187 1427 3187
Q 1715 3187 1964 3088
Q 2214 2989 2394 2835
L 2150 2534
Q 1990 2650 1814 2714
Q 1638 2778 1427 2778
Q 1133 2778 995 2643
Q 858 2509 858 2330
Q 858 2118 1043 2009
Q 1229 1901 1517 1798
Q 1760 1715 1981 1600
Q 2202 1485 2339 1309
Q 2477 1133 2477 851
Q 2477 602 2345 390
Q 2214 179 1961 51
Q 1709 -77 1338 -77
z
" transform="scale(0.015625)"/>
      <path id="SourceSans3-Regular-69" d="M 525 0
L 525 3110
L 1050 3110
L 1050 0
L 525 0
z
M 784 3750
Q 630 3750 531 3843
Q 432 3936 432 4096
Q 432 4250 531 4346
Q 630 4442 784 4442
Q 938 4442 1037 4346
Q 1136 4250 1136 4096
Q 1136 3936 1037 3843
Q 938 3750 784 3750
z
" transform="scale(0.015625)"/>
      <path id="SourceSans3-Regular-6c" d="M 1082 -58
Q 787 -58 656 124
Q 525 307 525 640
L 525 4557
L 1050 4557
L 1050 602
Q 1050 480 1094 429
Q 1139 378 1203 378
Q 1229 378 1251 381
Q 1274 384 1312 390
L 1382 -6
Q 1267 -58 1082 -58
z
" transform="scale(0.015625)"/>
     </defs>
     <use xlink:href="#SourceSans3-Regular-6d"/>
     <use xlink:href="#SourceSans3-Regular-61" transform="translate(82.899994 0)"/>
     <use xlink:href="#SourceSans3-Regular-6e" transform="translate(133.299988 0)"/>
     <use xlink:href="#SourceSans3-Regular-79" transform="translate(187.999985 0)"/>
     <use xlink:href="#SourceSans3-Regular-20" transform="translate(234.699982 0)"/>
     <use xlink:href="#SourceSans3-Regular-70" transform="translate(254.699966 0)"/>
     <use xlink:href="#SourceSans3-Regular-72" transform="translate(310.199951 0)"/>
     <use xlink:href="#SourceSans3-Regular-6f" transform="translate(344.899948 0)"/>
     <use xlink:href="#SourceSans3-Regular-6d" transform="translate(399.099945 0)"/>
     <use xlink:href="#SourceSans3-Regular-70" transform="translate(481.999939 0)"/>
     <use xlink:href="#SourceSans3-Regular-74" transform="translate(537.499924 0)"/>
     <use xlink:href="#SourceSans3-Regular-20" transform="translate(571.299911 0)"/>
     <use xlink:href="#SourceSans3-Regular-74" transform="translate(591.299896 0)"/>
     <use xlink:href="#SourceSans3-Regular-6f" transform="translate(625.099884 0)"/>
     <use xlink:href="#SourceSans3-Regular-6b" transform="translate(679.299881 0)"/>
     <use xlink:href="#SourceSans3-Regular-65" transform="translate(728.799866 0)"/>
     <use xlink:href="#SourceSans3-Regular-6e" transform="translate(778.399857 0)"/>
     <use xlink:href="#SourceSans3-Regular-73" transform="translate(833.099854 0)"/>
     <use xlink:href="#SourceSans3-Regular-20" transform="translate(874.999847 0)"/>
     <use xlink:href="#SourceSans3-Regular-69" transform="translate(894.999832 0)"/>
     <use xlink:href="#SourceSans3-Regular-6e" transform="translate(919.599823 0)"/>
     <use xlink:href="#SourceSans3-Regular-20" transform="translate(974.29982 0)"/>
     <use xlink:href="#SourceSans3-Regular-70" transform="translate(994.299805 0)"/>
     <use xlink:href="#SourceSans3-Regular-61" transform="translate(1049.799789 0)"/>
     <use xlink:href="#SourceSans3-Regular-72" transform="translate(1100.199783 0)"/>
     <use xlink:href="#SourceSans3-Regular-61" transform="translate(1134.89978 0)"/>
     <use xlink:href="#SourceSans3-Regular-6c" transform="translate(1185.299774 0)"/>
     <use xlink:href="#SourceSans3-Regular-6c" transform="translate(1210.799759 0)"/>
     <use xlink:href="#SourceSans3-Regular-65" transform="translate(1236.299744 0)"/>
     <use xlink:href="#SourceSans3-Regular-6c" transform="translate(1285.899734 0)"/>
    </g>
   </g>
   <g id="text_3">
    <!-- Decode -->
    <g transform="translate(423.310898 41.39543) scale(0.115 -0.115)">
     <defs>
      <path id="SourceSans3-Regular-44" d="M 576 0
L 576 4198
L 1626 4198
Q 2598 4198 3104 3657
Q 3610 3117 3610 2118
Q 3610 1114 3107 557
Q 2605 0 1651 0
L 576 0
z
M 1107 435
L 1587 435
Q 2323 435 2691 880
Q 3059 1325 3059 2118
Q 3059 2912 2691 3337
Q 2323 3763 1587 3763
L 1107 3763
L 1107 435
z
" transform="scale(0.015625)"/>
      <path id="SourceSans3-Regular-63" d="M 1760 -77
Q 1344 -77 1011 115
Q 678 307 486 672
Q 294 1037 294 1549
Q 294 2074 502 2438
Q 710 2803 1052 2995
Q 1395 3187 1792 3187
Q 2099 3187 2320 3084
Q 2541 2982 2701 2822
L 2438 2502
Q 2317 2611 2166 2681
Q 2016 2752 1811 2752
Q 1536 2752 1315 2601
Q 1094 2451 966 2179
Q 838 1907 838 1549
Q 838 1018 1107 688
Q 1376 358 1805 358
Q 2016 358 2201 441
Q 2387 525 2528 653
L 2758 333
Q 2566 147 2313 35
Q 2061 -77 1760 -77
z
" transform="scale(0.015625)"/>
      <path id="SourceSans3-Regular-64" d="M 1587 -77
Q 1005 -77 653 348
Q 301 774 301 1549
Q 301 2054 489 2422
Q 678 2790 988 2988
Q 1299 3187 1651 3187
Q 1920 3187 2118 3091
Q 2317 2995 2522 2829
L 2496 3360
L 2496 4557
L 3027 4557
L 3027 0
L 2592 0
L 2547 365
L 2528 365
Q 2349 186 2105 54
Q 1862 -77 1587 -77
z
M 1702 365
Q 2112 365 2496 794
L 2496 2419
Q 2298 2598 2115 2672
Q 1933 2746 1741 2746
Q 1491 2746 1289 2595
Q 1088 2445 966 2179
Q 845 1914 845 1555
Q 845 998 1069 681
Q 1293 365 1702 365
z
" transform="scale(0.015625)"/>
     </defs>
     <use xlink:href="#SourceSans3-Regular-44"/>
     <use xlink:href="#SourceSans3-Regular-65" transform="translate(61.499985 0)"/>
     <use xlink:href="#SourceSans3-Regular-63" transform="translate(111.099976 0)"/>
     <use xlink:href="#SourceSans3-Regular-6f" transform="translate(156.699966 0)"/>
     <use xlink:href="#SourceSans3-Regular-64" transform="translate(210.899963 0)"/>
     <use xlink:href="#SourceSans3-Regular-65" transform="translate(266.399948 0)"/>
    </g>
   </g>
   <g id="text_4">
    <!-- one new token per sequence -->
    <g style="fill: #6e6e6e" transform="translate(388.80375 55.710938) scale(0.088 -0.088)">
     <defs>
      <path id="SourceSans3-Regular-77" d="M 1018 0
L 154 3110
L 704 3110
L 1158 1312
Q 1210 1101 1254 889
Q 1299 678 1338 429
L 1363 429
Q 1414 678 1462 889
Q 1510 1101 1562 1312
L 2022 3110
L 2598 3110
L 3066 1312
Q 3123 1101 3174 889
Q 3226 678 3270 429
L 3296 429
Q 3347 678 3392 889
Q 3437 1101 3482 1312
L 3936 3110
L 4448 3110
L 3610 0
L 2925 0
L 2509 1664
Q 2451 1882 2406 2096
Q 2362 2310 2310 2586
L 2285 2586
Q 2240 2310 2192 2092
Q 2144 1875 2086 1664
L 1670 0
L 1018 0
z
" transform="scale(0.015625)"/>
      <path id="SourceSans3-Regular-71" d="M 2496 -1312
L 2496 -205
L 2522 358
Q 2336 179 2096 51
Q 1856 -77 1587 -77
Q 1005 -77 653 348
Q 301 774 301 1549
Q 301 2054 489 2422
Q 678 2790 988 2988
Q 1299 3187 1651 3187
Q 1920 3187 2125 3094
Q 2330 3002 2541 2816
L 2554 2816
L 2605 3110
L 3027 3110
L 3027 -1312
L 2496 -1312
z
M 1702 365
Q 2112 365 2496 794
L 2496 2419
Q 2298 2598 2115 2672
Q 1933 2746 1741 2746
Q 1491 2746 1289 2595
Q 1088 2445 966 2179
Q 845 1914 845 1555
Q 845 998 1069 681
Q 1293 365 1702 365
z
" transform="scale(0.015625)"/>
      <path id="SourceSans3-Regular-75" d="M 1434 -77
Q 941 -77 710 233
Q 480 544 480 1139
L 480 3110
L 1011 3110
L 1011 1210
Q 1011 774 1148 576
Q 1286 378 1594 378
Q 1837 378 2025 502
Q 2214 627 2432 902
L 2432 3110
L 2957 3110
L 2957 0
L 2522 0
L 2477 486
L 2458 486
Q 2240 230 1997 76
Q 1754 -77 1434 -77
z
" transform="scale(0.015625)"/>
     </defs>
     <use xlink:href="#SourceSans3-Regular-6f"/>
     <use xlink:href="#SourceSans3-Regular-6e" transform="translate(54.199997 0)"/>
     <use xlink:href="#SourceSans3-Regular-65" transform="translate(108.899994 0)"/>
     <use xlink:href="#SourceSans3-Regular-20" transform="translate(158.499985 0)"/>
     <use xlink:href="#SourceSans3-Regular-6e" transform="translate(178.499969 0)"/>
     <use xlink:href="#SourceSans3-Regular-65" transform="translate(233.199966 0)"/>
     <use xlink:href="#SourceSans3-Regular-77" transform="translate(282.799957 0)"/>
     <use xlink:href="#SourceSans3-Regular-20" transform="translate(354.699951 0)"/>
     <use xlink:href="#SourceSans3-Regular-74" transform="translate(374.699936 0)"/>
     <use xlink:href="#SourceSans3-Regular-6f" transform="translate(408.499924 0)"/>
     <use xlink:href="#SourceSans3-Regular-6b" transform="translate(462.699921 0)"/>
     <use xlink:href="#SourceSans3-Regular-65" transform="translate(512.199905 0)"/>
     <use xlink:href="#SourceSans3-Regular-6e" transform="translate(561.799896 0)"/>
     <use xlink:href="#SourceSans3-Regular-20" transform="translate(616.499893 0)"/>
     <use xlink:href="#SourceSans3-Regular-70" transform="translate(636.499878 0)"/>
     <use xlink:href="#SourceSans3-Regular-65" transform="translate(691.999863 0)"/>
     <use xlink:href="#SourceSans3-Regular-72" transform="translate(741.599854 0)"/>
     <use xlink:href="#SourceSans3-Regular-20" transform="translate(776.29985 0)"/>
     <use xlink:href="#SourceSans3-Regular-73" transform="translate(796.299835 0)"/>
     <use xlink:href="#SourceSans3-Regular-65" transform="translate(838.199829 0)"/>
     <use xlink:href="#SourceSans3-Regular-71" transform="translate(887.79982 0)"/>
     <use xlink:href="#SourceSans3-Regular-75" transform="translate(943.299805 0)"/>
     <use xlink:href="#SourceSans3-Regular-65" transform="translate(997.699799 0)"/>
     <use xlink:href="#SourceSans3-Regular-6e" transform="translate(1047.299789 0)"/>
     <use xlink:href="#SourceSans3-Regular-63" transform="translate(1101.999786 0)"/>
     <use xlink:href="#SourceSans3-Regular-65" transform="translate(1147.599777 0)"/>
    </g>
   </g>
   <g id="text_5">
    <!-- KV state -->
    <g style="fill: #6e6e6e" transform="translate(260.381953 20.888398) scale(0.095 -0.095)">
     <defs>
      <path id="SourceSans3-Regular-4b" d="M 576 0
L 576 4198
L 1107 4198
L 1107 2093
L 1126 2093
L 2874 4198
L 3475 4198
L 2163 2598
L 3680 0
L 3085 0
L 1830 2182
L 1107 1331
L 1107 0
L 576 0
z
" transform="scale(0.015625)"/>
      <path id="SourceSans3-Regular-56" d="M 1318 0
L 0 4198
L 570 4198
L 1216 1933
Q 1325 1555 1421 1238
Q 1517 922 1626 544
L 1651 544
Q 1760 922 1849 1238
Q 1939 1555 2054 1933
L 2752 4198
L 3296 4198
L 1939 0
L 1318 0
z
" transform="scale(0.015625)"/>
     </defs>
     <use xlink:href="#SourceSans3-Regular-4b"/>
     <use xlink:href="#SourceSans3-Regular-56" transform="translate(57.899994 0)"/>
     <use xlink:href="#SourceSans3-Regular-20" transform="translate(109.399979 0)"/>
     <use xlink:href="#SourceSans3-Regular-73" transform="translate(129.399963 0)"/>
     <use xlink:href="#SourceSans3-Regular-74" transform="translate(171.299957 0)"/>
     <use xlink:href="#SourceSans3-Regular-61" transform="translate(205.099945 0)"/>
     <use xlink:href="#SourceSans3-Regular-74" transform="translate(255.499939 0)"/>
     <use xlink:href="#SourceSans3-Regular-65" transform="translate(289.299927 0)"/>
    </g>
   </g>
   <g id="text_6">
    <!-- compute-heavy · drives TTFT -->
    <g style="fill: #0b6bb2" transform="translate(45.315 109.246328) scale(0.11 -0.11)">
     <defs>
      <path id="SourceSans3-Regular-2d" d="M 262 1402
L 262 1805
L 1734 1805
L 1734 1402
L 262 1402
z
" transform="scale(0.015625)"/>
      <path id="SourceSans3-Regular-68" d="M 525 0
L 525 4557
L 1050 4557
L 1050 3315
L 1030 2675
Q 1254 2886 1500 3036
Q 1747 3187 2067 3187
Q 2560 3187 2787 2876
Q 3014 2566 3014 1971
L 3014 0
L 2490 0
L 2490 1901
Q 2490 2336 2349 2534
Q 2208 2733 1901 2733
Q 1664 2733 1475 2611
Q 1286 2490 1050 2253
L 1050 0
L 525 0
z
" transform="scale(0.015625)"/>
      <path id="SourceSans3-Regular-76" d="M 1197 0
L 77 3110
L 621 3110
L 1210 1344
Q 1280 1114 1353 883
Q 1427 653 1498 429
L 1523 429
Q 1594 653 1667 883
Q 1741 1114 1805 1344
L 2394 3110
L 2912 3110
L 1811 0
L 1197 0
z
" transform="scale(0.015625)"/>
      <path id="SourceSans3-Regular-b7" d="M 800 1651
Q 640 1651 528 1763
Q 416 1875 416 2048
Q 416 2234 528 2346
Q 640 2458 800 2458
Q 954 2458 1066 2346
Q 1178 2234 1178 2048
Q 1178 1875 1066 1763
Q 954 1651 800 1651
z
" transform="scale(0.015625)"/>
      <path id="SourceSans3-Regular-54" d="M 1446 0
L 1446 3750
L 179 3750
L 179 4198
L 3251 4198
L 3251 3750
L 1984 3750
L 1984 0
L 1446 0
z
" transform="scale(0.015625)"/>
      <path id="SourceSans3-Regular-46" d="M 576 0
L 576 4198
L 2995 4198
L 2995 3750
L 1107 3750
L 1107 2330
L 2707 2330
L 2707 1882
L 1107 1882
L 1107 0
L 576 0
z
" transform="scale(0.015625)"/>
     </defs>
     <use xlink:href="#SourceSans3-Regular-63"/>
     <use xlink:href="#SourceSans3-Regular-6f" transform="translate(45.599991 0)"/>
     <use xlink:href="#SourceSans3-Regular-6d" transform="translate(99.799988 0)"/>
     <use xlink:href="#SourceSans3-Regular-70" transform="translate(182.699982 0)"/>
     <use xlink:href="#SourceSans3-Regular-75" transform="translate(238.199966 0)"/>
     <use xlink:href="#SourceSans3-Regular-74" transform="translate(292.59996 0)"/>
     <use xlink:href="#SourceSans3-Regular-65" transform="translate(326.399948 0)"/>
     <use xlink:href="#SourceSans3-Regular-2d" transform="translate(375.999939 0)"/>
     <use xlink:href="#SourceSans3-Regular-68" transform="translate(407.09993 0)"/>
     <use xlink:href="#SourceSans3-Regular-65" transform="translate(461.499924 0)"/>
     <use xlink:href="#SourceSans3-Regular-61" transform="translate(511.099915 0)"/>
     <use xlink:href="#SourceSans3-Regular-76" transform="translate(561.499908 0)"/>
     <use xlink:href="#SourceSans3-Regular-79" transform="translate(608.199905 0)"/>
     <use xlink:href="#SourceSans3-Regular-20" transform="translate(654.899902 0)"/>
     <use xlink:href="#SourceSans3-Regular-b7" transform="translate(674.899887 0)"/>
     <use xlink:href="#SourceSans3-Regular-20" transform="translate(699.799881 0)"/>
     <use xlink:href="#SourceSans3-Regular-64" transform="translate(719.799866 0)"/>
     <use xlink:href="#SourceSans3-Regular-72" transform="translate(775.29985 0)"/>
     <use xlink:href="#SourceSans3-Regular-69" transform="translate(809.999847 0)"/>
     <use xlink:href="#SourceSans3-Regular-76" transform="translate(834.599838 0)"/>
     <use xlink:href="#SourceSans3-Regular-65" transform="translate(881.299835 0)"/>
     <use xlink:href="#SourceSans3-Regular-73" transform="translate(930.899826 0)"/>
     <use xlink:href="#SourceSans3-Regular-20" transform="translate(972.79982 0)"/>
     <use xlink:href="#SourceSans3-Regular-54" transform="translate(992.799805 0)"/>
     <use xlink:href="#SourceSans3-Regular-54" transform="translate(1046.399796 0)"/>
     <use xlink:href="#SourceSans3-Regular-46" transform="translate(1099.999786 0)"/>
     <use xlink:href="#SourceSans3-Regular-54" transform="translate(1149.39978 0)"/>
    </g>
   </g>
   <g id="text_7">
    <!-- memory-heavy · drives TPOT -->
    <g style="fill: #b45309" transform="translate(375.589141 109.246328) scale(0.11 -0.11)">
     <defs>
      <path id="SourceSans3-Regular-50" d="M 576 0
L 576 4198
L 1773 4198
Q 2246 4198 2598 4083
Q 2950 3968 3148 3696
Q 3347 3424 3347 2963
Q 3347 2304 2918 1984
Q 2490 1664 1798 1664
L 1107 1664
L 1107 0
L 576 0
z
M 1107 2099
L 1734 2099
Q 2285 2099 2550 2307
Q 2816 2515 2816 2963
Q 2816 3418 2537 3594
Q 2259 3770 1709 3770
L 1107 3770
L 1107 2099
z
" transform="scale(0.015625)"/>
      <path id="SourceSans3-Regular-4f" d="M 2125 -77
Q 1600 -77 1193 192
Q 787 461 560 953
Q 333 1446 333 2118
Q 333 2790 560 3273
Q 787 3757 1193 4016
Q 1600 4275 2125 4275
Q 2656 4275 3059 4016
Q 3462 3757 3692 3273
Q 3923 2790 3923 2118
Q 3923 1446 3692 953
Q 3462 461 3059 192
Q 2656 -77 2125 -77
z
M 2125 390
Q 2502 390 2780 604
Q 3059 819 3212 1206
Q 3366 1594 3366 2118
Q 3366 2899 3027 3353
Q 2688 3808 2125 3808
Q 1562 3808 1222 3353
Q 883 2899 883 2118
Q 883 1594 1036 1206
Q 1190 819 1472 604
Q 1754 390 2125 390
z
" transform="scale(0.015625)"/>
     </defs>
     <use xlink:href="#SourceSans3-Regular-6d"/>
     <use xlink:href="#SourceSans3-Regular-65" transform="translate(82.899994 0)"/>
     <use xlink:href="#SourceSans3-Regular-6d" transform="translate(132.499985 0)"/>
     <use xlink:href="#SourceSans3-Regular-6f" transform="translate(215.399979 0)"/>
     <use xlink:href="#SourceSans3-Regular-72" transform="translate(269.599976 0)"/>
     <use xlink:href="#SourceSans3-Regular-79" transform="translate(304.299973 0)"/>
     <use xlink:href="#SourceSans3-Regular-2d" transform="translate(350.999969 0)"/>
     <use xlink:href="#SourceSans3-Regular-68" transform="translate(382.09996 0)"/>
     <use xlink:href="#SourceSans3-Regular-65" transform="translate(436.499954 0)"/>
     <use xlink:href="#SourceSans3-Regular-61" transform="translate(486.099945 0)"/>
     <use xlink:href="#SourceSans3-Regular-76" transform="translate(536.499939 0)"/>
     <use xlink:href="#SourceSans3-Regular-79" transform="translate(583.199936 0)"/>
     <use xlink:href="#SourceSans3-Regular-20" transform="translate(629.899933 0)"/>
     <use xlink:href="#SourceSans3-Regular-b7" transform="translate(649.899918 0)"/>
     <use xlink:href="#SourceSans3-Regular-20" transform="translate(674.799911 0)"/>
     <use xlink:href="#SourceSans3-Regular-64" transform="translate(694.799896 0)"/>
     <use xlink:href="#SourceSans3-Regular-72" transform="translate(750.299881 0)"/>
     <use xlink:href="#SourceSans3-Regular-69" transform="translate(784.999878 0)"/>
     <use xlink:href="#SourceSans3-Regular-76" transform="translate(809.599869 0)"/>
     <use xlink:href="#SourceSans3-Regular-65" transform="translate(856.299866 0)"/>
     <use xlink:href="#SourceSans3-Regular-73" transform="translate(905.899857 0)"/>
     <use xlink:href="#SourceSans3-Regular-20" transform="translate(947.79985 0)"/>
     <use xlink:href="#SourceSans3-Regular-54" transform="translate(967.799835 0)"/>
     <use xlink:href="#SourceSans3-Regular-50" transform="translate(1021.399826 0)"/>
     <use xlink:href="#SourceSans3-Regular-4f" transform="translate(1077.999817 0)"/>
     <use xlink:href="#SourceSans3-Regular-54" transform="translate(1144.399811 0)"/>
    </g>
   </g>
  </g>
 </g>
 <defs>
  <clipPath id="p5dcb77d580">
   <rect x="-33.52" y="-62.52" width="620" height="250"/>
  </clipPath>
 </defs>
</svg>
