<?xml version="1.0" encoding="utf-8" standalone="no"?>
<!DOCTYPE svg PUBLIC "-//W3C//DTD SVG 1.1//EN"
  "http://www.w3.org/Graphics/SVG/1.1/DTD/svg11.dtd">
<svg xmlns:xlink="http://www.w3.org/1999/xlink" width="624.96pt" height="187.64pt" viewBox="0 0 624.96 187.64" xmlns="http://www.w3.org/2000/svg" version="1.1">
 <metadata>
  <rdf:RDF xmlns:dc="http://purl.org/dc/elements/1.1/" xmlns:cc="http://creativecommons.org/ns#" xmlns:rdf="http://www.w3.org/1999/02/22-rdf-syntax-ns#">
   <cc:Work>
    <dc:type rdf:resource="http://purl.org/dc/dcmitype/StillImage"/>
    <dc:format>image/svg+xml</dc:format>
    <dc:creator>
     <cc:Agent>
      <dc:title>Matplotlib v3.10.8, https://matplotlib.org/</dc:title>
     </cc:Agent>
    </dc:creator>
   </cc:Work>
  </rdf:RDF>
 </metadata>
 <defs>
  <style type="text/css">*{stroke-linejoin: round; stroke-linecap: butt}</style>
 </defs>
 <g id="figure_1">
  <g id="patch_1">
   <path d="M 0 187.64
L 624.96 187.64
L 624.96 0
L 0 0
z
" style="fill: #ffffff"/>
  </g>
  <g id="axes_1">
   <g id="patch_2">
    <path d="M 16.48 105.16
L 80.48 105.16
Q 90.48 105.16 90.48 95.16
L 90.48 73.16
Q 90.48 63.16 80.48 63.16
L 16.48 63.16
Q 6.48 63.16 6.48 73.16
L 6.48 95.16
Q 6.48 105.16 16.48 105.16
z
" clip-path="url(#p5ac18062b3)" style="fill: #ffffff; stroke: #000000; stroke-width: 1.2; stroke-linejoin: miter"/>
   </g>
   <g id="patch_3">
    <path d="M 120.48 105.16
L 184.48 105.16
Q 194.48 105.16 194.48 95.16
L 194.48 73.16
Q 194.48 63.16 184.48 63.16
L 120.48 63.16
Q 110.48 63.16 110.48 73.16
L 110.48 95.16
Q 110.48 105.16 120.48 105.16
z
" clip-path="url(#p5ac18062b3)" style="fill: #ffffff; stroke: #000000; stroke-width: 1.2; stroke-linejoin: miter"/>
   </g>
   <g id="patch_4">
    <path d="M 226.48 105.16
L 290.48 105.16
Q 300.48 105.16 300.48 95.16
L 300.48 73.16
Q 300.48 63.16 290.48 63.16
L 226.48 63.16
Q 216.48 63.16 216.48 73.16
L 216.48 95.16
Q 216.48 105.16 226.48 105.16
z
" clip-path="url(#p5ac18062b3)" style="fill: #3b3b3b; stroke: #3b3b3b; stroke-width: 1.2; stroke-linejoin: miter"/>
   </g>
   <g id="patch_5">
    <path d="M 332.48 105.16
L 396.48 105.16
Q 406.48 105.16 406.48 95.16
L 406.48 73.16
Q 406.48 63.16 396.48 63.16
L 332.48 63.16
Q 322.48 63.16 322.48 73.16
L 322.48 95.16
Q 322.48 105.16 332.48 105.16
z
" clip-path="url(#p5ac18062b3)" style="fill: #ffffff; stroke: #000000; stroke-width: 1.2; stroke-linejoin: miter"/>
   </g>
   <g id="patch_6">
    <path d="M 438.48 105.16
L 502.48 105.16
Q 512.48 105.16 512.48 95.16
L 512.48 73.16
Q 512.48 63.16 502.48 63.16
L 438.48 63.16
Q 428.48 63.16 428.48 73.16
L 428.48 95.16
Q 428.48 105.16 438.48 105.16
z
" clip-path="url(#p5ac18062b3)" style="fill: #ffffff; stroke: #000000; stroke-width: 1.2; stroke-linejoin: miter"/>
   </g>
   <g id="patch_7">
    <path d="M 544.48 105.16
L 608.48 105.16
Q 618.48 105.16 618.48 95.16
L 618.48 73.16
Q 618.48 63.16 608.48 63.16
L 544.48 63.16
Q 534.48 63.16 534.48 73.16
L 534.48 95.16
Q 534.48 105.16 544.48 105.16
z
" clip-path="url(#p5ac18062b3)" style="fill: #ffffff; stroke: #000000; stroke-width: 1.2; stroke-linejoin: miter"/>
   </g>
   <g id="patch_8">
    <path d="M 260.48 181.16
L 468.48 181.16
Q 478.48 181.16 478.48 171.16
L 478.48 155.16
Q 478.48 145.16 468.48 145.16
L 260.48 145.16
Q 250.48 145.16 250.48 155.16
L 250.48 171.16
Q 250.48 181.16 260.48 181.16
z
" clip-path="url(#p5ac18062b3)" style="fill: #cde8fa; stroke: #0b6bb2; stroke-width: 1.2; stroke-linejoin: miter"/>
   </g>
   <g id="patch_9">
    <path d="M 90.48 84.16
Q 100.48 84.16 109.138359 84.16
" style="fill: none; stroke: #000000; stroke-width: 1.2; stroke-linecap: round"/>
    <path d="M 104.738359 81.96
L 109.138359 84.16
L 104.738359 86.36
z
" style="stroke: #000000; stroke-width: 1.2; stroke-linecap: round"/>
   </g>
   <g id="patch_10">
    <path d="M 194.48 84.16
Q 205.48 84.16 215.138359 84.16
" style="fill: none; stroke: #000000; stroke-width: 1.2; stroke-linecap: round"/>
    <path d="M 210.738359 81.96
L 215.138359 84.16
L 210.738359 86.36
z
" style="stroke: #000000; stroke-width: 1.2; stroke-linecap: round"/>
   </g>
   <g id="patch_11">
    <path d="M 300.48 84.16
Q 311.48 84.16 321.138359 84.16
" style="fill: none; stroke: #000000; stroke-width: 1.2; stroke-linecap: round"/>
    <path d="M 316.738359 81.96
L 321.138359 84.16
L 316.738359 86.36
z
" style="stroke: #000000; stroke-width: 1.2; stroke-linecap: round"/>
   </g>
   <g id="patch_12">
    <path d="M 406.48 84.16
Q 417.48 84.16 427.138359 84.16
" style="fill: none; stroke: #000000; stroke-width: 1.2; stroke-linecap: round"/>
    <path d="M 422.738359 81.96
L 427.138359 84.16
L 422.738359 86.36
z
" style="stroke: #000000; stroke-width: 1.2; stroke-linecap: round"/>
   </g>
   <g id="patch_13">
    <path d="M 512.48 84.16
Q 523.48 84.16 533.138359 84.16
" style="fill: none; stroke: #000000; stroke-width: 1.2; stroke-linecap: round"/>
    <path d="M 528.738359 81.96
L 533.138359 84.16
L 528.738359 86.36
z
" style="stroke: #000000; stroke-width: 1.2; stroke-linecap: round"/>
   </g>
   <g id="patch_14">
    <path d="M 258.48 105.16
Q 258.48 125.16 258.48 143.818359
" style="fill: none; stroke: #0b6bb2; stroke-width: 1.2; stroke-linecap: round"/>
    <path d="M 260.68 139.418359
L 258.48 143.818359
L 256.28 139.418359
z
" style="fill: #0b6bb2; stroke: #0b6bb2; stroke-width: 1.2; stroke-linecap: round"/>
   </g>
   <g id="text_1">
    <!-- Discover -->
    <g transform="translate(29.643164 86.821914) scale(0.105 -0.105)">
     <defs>
      <path id="SourceSans3-Regular-44" d="M 576 0
L 576 4198
L 1626 4198
Q 2598 4198 3104 3657
Q 3610 3117 3610 2118
Q 3610 1114 3107 557
Q 2605 0 1651 0
L 576 0
z
M 1107 435
L 1587 435
Q 2323 435 2691 880
Q 3059 1325 3059 2118
Q 3059 2912 2691 3337
Q 2323 3763 1587 3763
L 1107 3763
L 1107 435
z
" transform="scale(0.015625)"/>
      <path id="SourceSans3-Regular-69" d="M 525 0
L 525 3110
L 1050 3110
L 1050 0
L 525 0
z
M 784 3750
Q 630 3750 531 3843
Q 432 3936 432 4096
Q 432 4250 531 4346
Q 630 4442 784 4442
Q 938 4442 1037 4346
Q 1136 4250 1136 4096
Q 1136 3936 1037 3843
Q 938 3750 784 3750
z
" transform="scale(0.015625)"/>
      <path id="SourceSans3-Regular-73" d="M 1338 -77
Q 998 -77 697 41
Q 397 160 179 371
L 422 678
Q 627 512 848 422
Q 1069 333 1357 333
Q 1664 333 1817 477
Q 1971 621 1971 819
Q 1971 979 1868 1084
Q 1766 1190 1606 1264
Q 1446 1338 1267 1402
Q 1037 1485 825 1597
Q 614 1709 483 1878
Q 352 2048 352 2304
Q 352 2682 637 2934
Q 922 3187 1427 3187
Q 1715 3187 1964 3088
Q 2214 2989 2394 2835
L 2150 2534
Q 1990 2650 1814 2714
Q 1638 2778 1427 2778
Q 1133 2778 995 2643
Q 858 2509 858 2330
Q 858 2118 1043 2009
Q 1229 1901 1517 1798
Q 1760 1715 1981 1600
Q 2202 1485 2339 1309
Q 2477 1133 2477 851
Q 2477 602 2345 390
Q 2214 179 1961 51
Q 1709 -77 1338 -77
z
" transform="scale(0.015625)"/>
      <path id="SourceSans3-Regular-63" d="M 1760 -77
Q 1344 -77 1011 115
Q 678 307 486 672
Q 294 1037 294 1549
Q 294 2074 502 2438
Q 710 2803 1052 2995
Q 1395 3187 1792 3187
Q 2099 3187 2320 3084
Q 2541 2982 2701 2822
L 2438 2502
Q 2317 2611 2166 2681
Q 2016 2752 1811 2752
Q 1536 2752 1315 2601
Q 1094 2451 966 2179
Q 838 1907 838 1549
Q 838 1018 1107 688
Q 1376 358 1805 358
Q 2016 358 2201 441
Q 2387 525 2528 653
L 2758 333
Q 2566 147 2313 35
Q 2061 -77 1760 -77
z
" transform="scale(0.015625)"/>
      <path id="SourceSans3-Regular-6f" d="M 1734 -77
Q 1357 -77 1027 115
Q 698 307 496 672
Q 294 1037 294 1549
Q 294 2074 496 2438
Q 698 2803 1027 2995
Q 1357 3187 1734 3187
Q 2118 3187 2444 2995
Q 2771 2803 2972 2438
Q 3174 2074 3174 1549
Q 3174 1037 2972 672
Q 2771 307 2444 115
Q 2118 -77 1734 -77
z
M 1734 358
Q 2138 358 2384 688
Q 2630 1018 2630 1549
Q 2630 2086 2384 2419
Q 2138 2752 1734 2752
Q 1338 2752 1088 2419
Q 838 2086 838 1549
Q 838 1018 1088 688
Q 1338 358 1734 358
z
" transform="scale(0.015625)"/>
      <path id="SourceSans3-Regular-76" d="M 1197 0
L 77 3110
L 621 3110
L 1210 1344
Q 1280 1114 1353 883
Q 1427 653 1498 429
L 1523 429
Q 1594 653 1667 883
Q 1741 1114 1805 1344
L 2394 3110
L 2912 3110
L 1811 0
L 1197 0
z
" transform="scale(0.015625)"/>
      <path id="SourceSans3-Regular-65" d="M 1702 2758
Q 1510 2758 1328 2665
Q 1146 2573 1014 2368
Q 883 2163 838 1830
L 2458 1830
Q 2458 2285 2259 2521
Q 2061 2758 1702 2758
z
M 1786 -77
Q 1370 -77 1027 115
Q 685 307 486 675
Q 288 1043 288 1555
Q 288 2061 489 2425
Q 691 2790 1014 2988
Q 1338 3187 1696 3187
Q 2298 3187 2614 2790
Q 2931 2394 2931 1728
Q 2931 1645 2924 1568
Q 2918 1491 2906 1414
L 826 1414
Q 864 890 1161 621
Q 1459 352 1850 352
Q 2074 352 2269 416
Q 2464 480 2624 589
L 2816 243
Q 2611 102 2358 12
Q 2106 -77 1786 -77
z
" transform="scale(0.015625)"/>
      <path id="SourceSans3-Regular-72" d="M 525 0
L 525 3110
L 960 3110
L 1005 2547
L 1024 2547
Q 1178 2842 1408 3014
Q 1638 3187 1907 3187
Q 2093 3187 2240 3123
L 2125 2675
Q 2054 2694 1993 2704
Q 1933 2714 1837 2714
Q 1638 2714 1424 2554
Q 1210 2394 1050 1997
L 1050 0
L 525 0
z
" transform="scale(0.015625)"/>
     </defs>
     <use xlink:href="#SourceSans3-Regular-44"/>
     <use xlink:href="#SourceSans3-Regular-69" transform="translate(61.499985 0)"/>
     <use xlink:href="#SourceSans3-Regular-73" transform="translate(86.099976 0)"/>
     <use xlink:href="#SourceSans3-Regular-63" transform="translate(127.999969 0)"/>
     <use xlink:href="#SourceSans3-Regular-6f" transform="translate(173.59996 0)"/>
     <use xlink:href="#SourceSans3-Regular-76" transform="translate(227.799957 0)"/>
     <use xlink:href="#SourceSans3-Regular-65" transform="translate(274.499954 0)"/>
     <use xlink:href="#SourceSans3-Regular-72" transform="translate(324.099945 0)"/>
    </g>
   </g>
   <g id="text_2">
    <!-- Inspect -->
    <g transform="translate(136.341992 86.821914) scale(0.105 -0.105)">
     <defs>
      <path id="SourceSans3-Regular-49" d="M 576 0
L 576 4198
L 1107 4198
L 1107 0
L 576 0
z
" transform="scale(0.015625)"/>
      <path id="SourceSans3-Regular-6e" d="M 525 0
L 525 3110
L 960 3110
L 1005 2662
L 1024 2662
Q 1248 2886 1497 3036
Q 1747 3187 2067 3187
Q 2560 3187 2787 2876
Q 3014 2566 3014 1971
L 3014 0
L 2490 0
L 2490 1901
Q 2490 2336 2349 2534
Q 2208 2733 1901 2733
Q 1664 2733 1475 2611
Q 1286 2490 1050 2253
L 1050 0
L 525 0
z
" transform="scale(0.015625)"/>
      <path id="SourceSans3-Regular-70" d="M 525 -1312
L 525 3110
L 960 3110
L 1005 2752
L 1024 2752
Q 1235 2931 1488 3059
Q 1741 3187 2016 3187
Q 2618 3187 2931 2755
Q 3245 2323 3245 1600
Q 3245 1075 3056 697
Q 2867 320 2563 121
Q 2259 -77 1901 -77
Q 1683 -77 1468 19
Q 1254 115 1037 282
L 1050 -262
L 1050 -1312
L 525 -1312
z
M 1811 365
Q 2195 365 2448 694
Q 2701 1024 2701 1600
Q 2701 2112 2512 2429
Q 2323 2746 1882 2746
Q 1683 2746 1481 2637
Q 1280 2528 1050 2323
L 1050 691
Q 1261 512 1459 438
Q 1658 365 1811 365
z
" transform="scale(0.015625)"/>
      <path id="SourceSans3-Regular-74" d="M 1504 -58
Q 1005 -58 809 227
Q 614 512 614 979
L 614 2682
L 154 2682
L 154 3078
L 640 3110
L 704 4109
L 1146 4109
L 1146 3110
L 1984 3110
L 1984 2682
L 1146 2682
L 1146 966
Q 1146 685 1251 528
Q 1357 371 1626 371
Q 1709 371 1798 387
Q 1888 403 1978 448
L 2086 77
Q 1965 13 1814 -22
Q 1664 -58 1504 -58
z
" transform="scale(0.015625)"/>
     </defs>
     <use xlink:href="#SourceSans3-Regular-49"/>
     <use xlink:href="#SourceSans3-Regular-6e" transform="translate(26.299988 0)"/>
     <use xlink:href="#SourceSans3-Regular-73" transform="translate(80.999985 0)"/>
     <use xlink:href="#SourceSans3-Regular-70" transform="translate(122.899979 0)"/>
     <use xlink:href="#SourceSans3-Regular-65" transform="translate(178.399963 0)"/>
     <use xlink:href="#SourceSans3-Regular-63" transform="translate(227.999954 0)"/>
     <use xlink:href="#SourceSans3-Regular-74" transform="translate(273.599945 0)"/>
    </g>
   </g>
   <g id="text_3">
    <!-- Pin -->
    <g style="fill: #ffffff" transform="translate(250.899492 86.873594) scale(0.105 -0.105)">
     <defs>
      <path id="SourceSans3-Bold-50" d="M 493 0
L 493 4173
L 1926 4173
Q 2387 4173 2761 4048
Q 3136 3923 3360 3628
Q 3584 3334 3584 2829
Q 3584 2342 3360 2028
Q 3136 1715 2765 1564
Q 2394 1414 1952 1414
L 1434 1414
L 1434 0
L 493 0
z
M 1434 2163
L 1894 2163
Q 2662 2163 2662 2829
Q 2662 3155 2457 3289
Q 2253 3424 1869 3424
L 1434 3424
L 1434 2163
z
" transform="scale(0.015625)"/>
      <path id="SourceSans3-Bold-69" d="M 416 0
L 416 3174
L 1357 3174
L 1357 0
L 416 0
z
M 880 3642
Q 643 3642 496 3776
Q 349 3910 349 4134
Q 349 4358 496 4492
Q 643 4627 880 4627
Q 1117 4627 1264 4492
Q 1411 4358 1411 4134
Q 1411 3910 1264 3776
Q 1117 3642 880 3642
z
" transform="scale(0.015625)"/>
      <path id="SourceSans3-Bold-6e" d="M 416 0
L 416 3174
L 1184 3174
L 1248 2771
L 1274 2771
Q 1478 2963 1724 3107
Q 1971 3251 2291 3251
Q 2810 3251 3043 2908
Q 3277 2566 3277 1971
L 3277 0
L 2336 0
L 2336 1850
Q 2336 2195 2243 2323
Q 2150 2451 1946 2451
Q 1766 2451 1638 2371
Q 1510 2291 1357 2144
L 1357 0
L 416 0
z
" transform="scale(0.015625)"/>
     </defs>
     <use xlink:href="#SourceSans3-Bold-50"/>
     <use xlink:href="#SourceSans3-Bold-69" transform="translate(59.599991 0)"/>
     <use xlink:href="#SourceSans3-Bold-6e" transform="translate(87.199982 0)"/>
    </g>
   </g>
   <g id="text_4">
    <!-- Cache -->
    <g transform="translate(350.982578 86.821914) scale(0.105 -0.105)">
     <defs>
      <path id="SourceSans3-Regular-43" d="M 2170 -77
Q 1645 -77 1229 182
Q 813 442 573 928
Q 333 1414 333 2099
Q 333 2778 576 3264
Q 819 3750 1241 4012
Q 1664 4275 2195 4275
Q 2573 4275 2870 4124
Q 3168 3974 3347 3757
L 3059 3430
Q 2893 3610 2678 3709
Q 2464 3808 2202 3808
Q 1811 3808 1513 3600
Q 1216 3392 1049 3014
Q 883 2637 883 2112
Q 883 1587 1046 1200
Q 1210 813 1507 601
Q 1805 390 2208 390
Q 2502 390 2736 502
Q 2970 614 3168 832
L 3443 525
Q 3187 237 2883 80
Q 2579 -77 2170 -77
z
" transform="scale(0.015625)"/>
      <path id="SourceSans3-Regular-61" d="M 1242 -77
Q 851 -77 588 153
Q 326 384 326 806
Q 326 1331 787 1600
Q 1248 1869 2246 1978
Q 2246 2176 2188 2349
Q 2131 2522 1993 2634
Q 1856 2746 1600 2746
Q 1331 2746 1094 2643
Q 858 2541 672 2426
L 467 2784
Q 685 2931 1001 3059
Q 1318 3187 1690 3187
Q 2259 3187 2515 2838
Q 2771 2490 2771 1907
L 2771 0
L 2336 0
L 2291 371
L 2272 371
Q 2042 186 1789 54
Q 1536 -77 1242 -77
z
M 1389 358
Q 1613 358 1817 460
Q 2022 563 2246 762
L 2246 1600
Q 1722 1542 1414 1440
Q 1107 1338 976 1190
Q 845 1043 845 838
Q 845 582 1005 470
Q 1165 358 1389 358
z
" transform="scale(0.015625)"/>
      <path id="SourceSans3-Regular-68" d="M 525 0
L 525 4557
L 1050 4557
L 1050 3315
L 1030 2675
Q 1254 2886 1500 3036
Q 1747 3187 2067 3187
Q 2560 3187 2787 2876
Q 3014 2566 3014 1971
L 3014 0
L 2490 0
L 2490 1901
Q 2490 2336 2349 2534
Q 2208 2733 1901 2733
Q 1664 2733 1475 2611
Q 1286 2490 1050 2253
L 1050 0
L 525 0
z
" transform="scale(0.015625)"/>
     </defs>
     <use xlink:href="#SourceSans3-Regular-43"/>
     <use xlink:href="#SourceSans3-Regular-61" transform="translate(57.099991 0)"/>
     <use xlink:href="#SourceSans3-Regular-63" transform="translate(107.499985 0)"/>
     <use xlink:href="#SourceSans3-Regular-68" transform="translate(153.099976 0)"/>
     <use xlink:href="#SourceSans3-Regular-65" transform="translate(207.499969 0)"/>
    </g>
   </g>
   <g id="text_5">
    <!-- Adapt -->
    <g transform="translate(457.375508 86.821914) scale(0.105 -0.105)">
     <defs>
      <path id="SourceSans3-Regular-41" d="M 1299 2349
L 1101 1709
L 2362 1709
L 2163 2349
Q 2048 2701 1945 3049
Q 1843 3398 1741 3763
L 1715 3763
Q 1619 3398 1516 3049
Q 1414 2701 1299 2349
z
M 19 0
L 1440 4198
L 2042 4198
L 3462 0
L 2893 0
L 2496 1280
L 966 1280
L 563 0
L 19 0
z
" transform="scale(0.015625)"/>
      <path id="SourceSans3-Regular-64" d="M 1587 -77
Q 1005 -77 653 348
Q 301 774 301 1549
Q 301 2054 489 2422
Q 678 2790 988 2988
Q 1299 3187 1651 3187
Q 1920 3187 2118 3091
Q 2317 2995 2522 2829
L 2496 3360
L 2496 4557
L 3027 4557
L 3027 0
L 2592 0
L 2547 365
L 2528 365
Q 2349 186 2105 54
Q 1862 -77 1587 -77
z
M 1702 365
Q 2112 365 2496 794
L 2496 2419
Q 2298 2598 2115 2672
Q 1933 2746 1741 2746
Q 1491 2746 1289 2595
Q 1088 2445 966 2179
Q 845 1914 845 1555
Q 845 998 1069 681
Q 1293 365 1702 365
z
" transform="scale(0.015625)"/>
     </defs>
     <use xlink:href="#SourceSans3-Regular-41"/>
     <use xlink:href="#SourceSans3-Regular-64" transform="translate(54.399994 0)"/>
     <use xlink:href="#SourceSans3-Regular-61" transform="translate(109.899979 0)"/>
     <use xlink:href="#SourceSans3-Regular-70" transform="translate(160.299973 0)"/>
     <use xlink:href="#SourceSans3-Regular-74" transform="translate(215.799957 0)"/>
    </g>
   </g>
   <g id="text_6">
    <!-- Publish -->
    <g transform="translate(560.063086 86.821914) scale(0.105 -0.105)">
     <defs>
      <path id="SourceSans3-Regular-50" d="M 576 0
L 576 4198
L 1773 4198
Q 2246 4198 2598 4083
Q 2950 3968 3148 3696
Q 3347 3424 3347 2963
Q 3347 2304 2918 1984
Q 2490 1664 1798 1664
L 1107 1664
L 1107 0
L 576 0
z
M 1107 2099
L 1734 2099
Q 2285 2099 2550 2307
Q 2816 2515 2816 2963
Q 2816 3418 2537 3594
Q 2259 3770 1709 3770
L 1107 3770
L 1107 2099
z
" transform="scale(0.015625)"/>
      <path id="SourceSans3-Regular-75" d="M 1434 -77
Q 941 -77 710 233
Q 480 544 480 1139
L 480 3110
L 1011 3110
L 1011 1210
Q 1011 774 1148 576
Q 1286 378 1594 378
Q 1837 378 2025 502
Q 2214 627 2432 902
L 2432 3110
L 2957 3110
L 2957 0
L 2522 0
L 2477 486
L 2458 486
Q 2240 230 1997 76
Q 1754 -77 1434 -77
z
" transform="scale(0.015625)"/>
      <path id="SourceSans3-Regular-62" d="M 1901 -77
Q 1683 -77 1449 28
Q 1216 134 1011 320
L 992 320
L 947 0
L 525 0
L 525 4557
L 1050 4557
L 1050 3315
L 1037 2752
Q 1248 2938 1501 3062
Q 1754 3187 2010 3187
Q 2618 3187 2931 2758
Q 3245 2330 3245 1606
Q 3245 1075 3056 697
Q 2867 320 2563 121
Q 2259 -77 1901 -77
z
M 1811 365
Q 2195 365 2448 694
Q 2701 1024 2701 1600
Q 2701 2112 2512 2429
Q 2323 2746 1882 2746
Q 1683 2746 1478 2637
Q 1274 2528 1050 2323
L 1050 691
Q 1254 512 1456 438
Q 1658 365 1811 365
z
" transform="scale(0.015625)"/>
      <path id="SourceSans3-Regular-6c" d="M 1082 -58
Q 787 -58 656 124
Q 525 307 525 640
L 525 4557
L 1050 4557
L 1050 602
Q 1050 480 1094 429
Q 1139 378 1203 378
Q 1229 378 1251 381
Q 1274 384 1312 390
L 1382 -6
Q 1267 -58 1082 -58
z
" transform="scale(0.015625)"/>
     </defs>
     <use xlink:href="#SourceSans3-Regular-50"/>
     <use xlink:href="#SourceSans3-Regular-75" transform="translate(56.599991 0)"/>
     <use xlink:href="#SourceSans3-Regular-62" transform="translate(110.999985 0)"/>
     <use xlink:href="#SourceSans3-Regular-6c" transform="translate(166.299973 0)"/>
     <use xlink:href="#SourceSans3-Regular-69" transform="translate(191.799957 0)"/>
     <use xlink:href="#SourceSans3-Regular-73" transform="translate(216.399948 0)"/>
     <use xlink:href="#SourceSans3-Regular-68" transform="translate(258.299942 0)"/>
    </g>
   </g>
   <g id="text_7">
    <!-- record revision + license -->
    <g style="fill: #0b6bb2" transform="translate(303.084375 166.132031) scale(0.115 -0.115)">
     <defs>
      <path id="SourceSans3-Bold-72" d="M 416 0
L 416 3174
L 1184 3174
L 1248 2618
L 1274 2618
Q 1446 2938 1689 3094
Q 1933 3251 2176 3251
Q 2310 3251 2400 3235
Q 2490 3219 2554 3187
L 2374 2387
Q 2291 2406 2224 2416
Q 2157 2426 2054 2426
Q 1875 2426 1680 2294
Q 1485 2163 1357 1843
L 1357 0
L 416 0
z
" transform="scale(0.015625)"/>
      <path id="SourceSans3-Bold-65" d="M 1747 2528
Q 1562 2528 1386 2403
Q 1210 2278 1146 1952
L 2272 1952
Q 2272 2202 2150 2365
Q 2029 2528 1747 2528
z
M 1837 -77
Q 1382 -77 1017 118
Q 653 314 441 688
Q 230 1062 230 1587
Q 230 2106 444 2477
Q 659 2848 1004 3049
Q 1350 3251 1728 3251
Q 2182 3251 2483 3049
Q 2784 2848 2931 2505
Q 3078 2163 3078 1728
Q 3078 1606 3065 1488
Q 3053 1370 3040 1299
L 1146 1299
Q 1222 928 1459 787
Q 1696 646 1965 646
Q 2317 646 2656 851
L 2963 275
Q 2726 109 2422 16
Q 2118 -77 1837 -77
z
" transform="scale(0.015625)"/>
      <path id="SourceSans3-Bold-63" d="M 1818 -77
Q 1370 -77 1008 118
Q 646 314 438 688
Q 230 1062 230 1587
Q 230 2118 460 2489
Q 691 2861 1068 3056
Q 1446 3251 1882 3251
Q 2176 3251 2409 3158
Q 2643 3066 2810 2912
L 2368 2330
Q 2285 2400 2182 2445
Q 2080 2490 1939 2490
Q 1606 2490 1401 2246
Q 1197 2003 1197 1587
Q 1197 1178 1398 931
Q 1600 685 1914 685
Q 2227 685 2477 896
L 2848 314
Q 2650 134 2381 28
Q 2112 -77 1818 -77
z
" transform="scale(0.015625)"/>
      <path id="SourceSans3-Bold-6f" d="M 1779 -77
Q 1376 -77 1021 118
Q 666 314 448 688
Q 230 1062 230 1587
Q 230 2118 448 2489
Q 666 2861 1021 3056
Q 1376 3251 1779 3251
Q 2182 3251 2534 3056
Q 2886 2861 3104 2489
Q 3322 2118 3322 1587
Q 3322 1062 3104 688
Q 2886 314 2534 118
Q 2182 -77 1779 -77
z
M 1779 685
Q 2067 685 2214 931
Q 2362 1178 2362 1587
Q 2362 2003 2214 2246
Q 2067 2490 1779 2490
Q 1485 2490 1341 2246
Q 1197 2003 1197 1587
Q 1197 1178 1341 931
Q 1485 685 1779 685
z
" transform="scale(0.015625)"/>
      <path id="SourceSans3-Bold-64" d="M 1549 -77
Q 960 -77 605 368
Q 250 813 250 1587
Q 250 2106 438 2480
Q 627 2854 931 3052
Q 1235 3251 1568 3251
Q 1830 3251 2009 3161
Q 2189 3072 2349 2918
L 2310 3405
L 2310 4486
L 3251 4486
L 3251 0
L 2483 0
L 2419 314
L 2394 314
Q 2227 147 2003 35
Q 1779 -77 1549 -77
z
M 1792 691
Q 1946 691 2070 755
Q 2195 819 2310 979
L 2310 2278
Q 2189 2394 2051 2438
Q 1914 2483 1786 2483
Q 1562 2483 1389 2268
Q 1216 2054 1216 1600
Q 1216 1133 1366 912
Q 1517 691 1792 691
z
" transform="scale(0.015625)"/>
      <path id="SourceSans3-Bold-20" transform="scale(0.015625)"/>
      <path id="SourceSans3-Bold-76" d="M 1146 0
L 77 3174
L 1024 3174
L 1434 1677
Q 1498 1440 1558 1193
Q 1619 947 1683 698
L 1709 698
Q 1766 947 1827 1193
Q 1888 1440 1952 1677
L 2368 3174
L 3270 3174
L 2234 0
L 1146 0
z
" transform="scale(0.015625)"/>
      <path id="SourceSans3-Bold-73" d="M 1350 -77
Q 1037 -77 707 44
Q 378 166 134 397
L 531 928
Q 749 755 963 688
Q 1178 621 1376 621
Q 1587 621 1683 694
Q 1779 768 1779 890
Q 1779 1050 1596 1133
Q 1414 1216 1158 1312
Q 934 1395 739 1523
Q 544 1651 425 1833
Q 307 2016 307 2259
Q 307 2701 643 2976
Q 979 3251 1523 3251
Q 1869 3251 2157 3139
Q 2445 3027 2643 2848
L 2240 2323
Q 2067 2451 1894 2502
Q 1722 2554 1555 2554
Q 1370 2554 1280 2483
Q 1190 2413 1190 2304
Q 1190 2163 1334 2086
Q 1478 2010 1779 1914
Q 2144 1792 2400 1568
Q 2656 1344 2656 947
Q 2656 518 2323 220
Q 1990 -77 1350 -77
z
" transform="scale(0.015625)"/>
      <path id="SourceSans3-Bold-2b" d="M 1344 602
L 1344 1779
L 218 1779
L 218 2445
L 1344 2445
L 1344 3622
L 2035 3622
L 2035 2445
L 3162 2445
L 3162 1779
L 2035 1779
L 2035 602
L 1344 602
z
" transform="scale(0.015625)"/>
      <path id="SourceSans3-Bold-6c" d="M 1280 -70
Q 794 -70 605 218
Q 416 506 416 992
L 416 4486
L 1357 4486
L 1357 954
Q 1357 800 1411 742
Q 1466 685 1530 685
Q 1555 685 1577 688
Q 1600 691 1638 698
L 1754 6
Q 1677 -26 1558 -48
Q 1440 -70 1280 -70
z
" transform="scale(0.015625)"/>
     </defs>
     <use xlink:href="#SourceSans3-Bold-72"/>
     <use xlink:href="#SourceSans3-Bold-65" transform="translate(39.799988 0)"/>
     <use xlink:href="#SourceSans3-Bold-63" transform="translate(91.599976 0)"/>
     <use xlink:href="#SourceSans3-Bold-6f" transform="translate(138.299973 0)"/>
     <use xlink:href="#SourceSans3-Bold-72" transform="translate(193.799957 0)"/>
     <use xlink:href="#SourceSans3-Bold-64" transform="translate(233.599945 0)"/>
     <use xlink:href="#SourceSans3-Bold-20" transform="translate(290.899933 0)"/>
     <use xlink:href="#SourceSans3-Bold-72" transform="translate(310.899918 0)"/>
     <use xlink:href="#SourceSans3-Bold-65" transform="translate(350.699905 0)"/>
     <use xlink:href="#SourceSans3-Bold-76" transform="translate(402.499893 0)"/>
     <use xlink:href="#SourceSans3-Bold-69" transform="translate(454.799881 0)"/>
     <use xlink:href="#SourceSans3-Bold-73" transform="translate(482.399872 0)"/>
     <use xlink:href="#SourceSans3-Bold-69" transform="translate(526.69986 0)"/>
     <use xlink:href="#SourceSans3-Bold-6f" transform="translate(554.29985 0)"/>
     <use xlink:href="#SourceSans3-Bold-6e" transform="translate(609.799835 0)"/>
     <use xlink:href="#SourceSans3-Bold-20" transform="translate(666.999832 0)"/>
     <use xlink:href="#SourceSans3-Bold-2b" transform="translate(686.999817 0)"/>
     <use xlink:href="#SourceSans3-Bold-20" transform="translate(739.799805 0)"/>
     <use xlink:href="#SourceSans3-Bold-6c" transform="translate(759.799789 0)"/>
     <use xlink:href="#SourceSans3-Bold-69" transform="translate(788.39978 0)"/>
     <use xlink:href="#SourceSans3-Bold-63" transform="translate(815.999771 0)"/>
     <use xlink:href="#SourceSans3-Bold-65" transform="translate(862.699768 0)"/>
     <use xlink:href="#SourceSans3-Bold-6e" transform="translate(914.499756 0)"/>
     <use xlink:href="#SourceSans3-Bold-73" transform="translate(971.699753 0)"/>
     <use xlink:href="#SourceSans3-Bold-65" transform="translate(1015.999741 0)"/>
    </g>
   </g>
   <g id="text_8">
    <!-- a reproducible workflow preserves identity through every transformation -->
    <g style="fill: #6e6e6e" transform="translate(162.792031 13.535) scale(0.095 -0.095)">
     <defs>
      <path id="SourceSans3-Regular-20" transform="scale(0.015625)"/>
      <path id="SourceSans3-Regular-77" d="M 1018 0
L 154 3110
L 704 3110
L 1158 1312
Q 1210 1101 1254 889
Q 1299 678 1338 429
L 1363 429
Q 1414 678 1462 889
Q 1510 1101 1562 1312
L 2022 3110
L 2598 3110
L 3066 1312
Q 3123 1101 3174 889
Q 3226 678 3270 429
L 3296 429
Q 3347 678 3392 889
Q 3437 1101 3482 1312
L 3936 3110
L 4448 3110
L 3610 0
L 2925 0
L 2509 1664
Q 2451 1882 2406 2096
Q 2362 2310 2310 2586
L 2285 2586
Q 2240 2310 2192 2092
Q 2144 1875 2086 1664
L 1670 0
L 1018 0
z
" transform="scale(0.015625)"/>
      <path id="SourceSans3-Regular-6b" d="M 525 0
L 525 4557
L 1050 4557
L 1050 1478
L 1062 1478
L 2381 3110
L 2970 3110
L 1933 1856
L 3110 0
L 2534 0
L 1626 1498
L 1050 819
L 1050 0
L 525 0
z
" transform="scale(0.015625)"/>
      <path id="SourceSans3-Regular-66" d="M 614 0
L 614 2682
L 154 2682
L 154 3078
L 614 3110
L 614 3603
Q 614 4077 835 4355
Q 1056 4634 1523 4634
Q 1670 4634 1804 4605
Q 1939 4576 2042 4531
L 1926 4147
Q 1734 4205 1574 4205
Q 1139 4205 1139 3603
L 1139 3110
L 1798 3110
L 1798 2682
L 1139 2682
L 1139 0
L 614 0
z
" transform="scale(0.015625)"/>
      <path id="SourceSans3-Regular-79" d="M 576 -1338
Q 474 -1338 381 -1318
Q 288 -1299 211 -1274
L 326 -864
Q 442 -902 550 -902
Q 813 -902 985 -713
Q 1158 -525 1254 -237
L 1325 -6
L 77 3110
L 621 3110
L 1254 1389
Q 1325 1190 1405 960
Q 1485 730 1555 512
L 1581 512
Q 1651 723 1715 953
Q 1779 1184 1843 1389
L 2400 3110
L 2912 3110
L 1741 -256
Q 1632 -563 1481 -806
Q 1331 -1050 1110 -1194
Q 890 -1338 576 -1338
z
" transform="scale(0.015625)"/>
      <path id="SourceSans3-Regular-67" d="M 1574 -1434
Q 1005 -1434 646 -1216
Q 288 -998 288 -595
Q 288 -397 409 -214
Q 531 -32 742 109
L 742 134
Q 627 205 547 333
Q 467 461 467 640
Q 467 838 576 985
Q 685 1133 806 1216
L 806 1242
Q 653 1370 528 1587
Q 403 1805 403 2080
Q 403 2419 563 2668
Q 723 2918 992 3052
Q 1261 3187 1574 3187
Q 1702 3187 1817 3164
Q 1933 3142 2016 3110
L 3098 3110
L 3098 2707
L 2451 2707
L 2451 2682
Q 2560 2579 2637 2425
Q 2714 2272 2714 2061
Q 2714 1734 2560 1491
Q 2406 1248 2150 1117
Q 1894 986 1574 986
Q 1325 986 1107 1094
Q 1024 1024 966 937
Q 909 851 909 723
Q 909 576 1027 480
Q 1146 384 1459 384
L 2061 384
Q 2605 384 2877 208
Q 3149 32 3149 -358
Q 3149 -646 2957 -889
Q 2765 -1133 2413 -1283
Q 2061 -1434 1574 -1434
z
M 1574 1338
Q 1843 1338 2038 1539
Q 2234 1741 2234 2080
Q 2234 2419 2042 2611
Q 1850 2803 1574 2803
Q 1299 2803 1107 2611
Q 915 2419 915 2080
Q 915 1741 1110 1539
Q 1306 1338 1574 1338
z
M 1651 -1069
Q 2099 -1069 2368 -873
Q 2637 -678 2637 -435
Q 2637 -218 2473 -134
Q 2310 -51 2010 -51
L 1472 -51
Q 1382 -51 1276 -38
Q 1171 -26 1069 0
Q 902 -122 825 -256
Q 749 -390 749 -525
Q 749 -774 989 -921
Q 1229 -1069 1651 -1069
z
" transform="scale(0.015625)"/>
      <path id="SourceSans3-Regular-6d" d="M 525 0
L 525 3110
L 960 3110
L 1005 2662
L 1024 2662
Q 1229 2886 1472 3036
Q 1715 3187 1990 3187
Q 2349 3187 2550 3030
Q 2752 2874 2848 2592
Q 3091 2854 3340 3020
Q 3590 3187 3872 3187
Q 4352 3187 4585 2876
Q 4819 2566 4819 1971
L 4819 0
L 4294 0
L 4294 1901
Q 4294 2336 4153 2534
Q 4013 2733 3718 2733
Q 3373 2733 2938 2253
L 2938 0
L 2413 0
L 2413 1901
Q 2413 2336 2272 2534
Q 2131 2733 1830 2733
Q 1485 2733 1050 2253
L 1050 0
L 525 0
z
" transform="scale(0.015625)"/>
     </defs>
     <use xlink:href="#SourceSans3-Regular-61"/>
     <use xlink:href="#SourceSans3-Regular-20" transform="translate(50.399994 0)"/>
     <use xlink:href="#SourceSans3-Regular-72" transform="translate(70.399979 0)"/>
     <use xlink:href="#SourceSans3-Regular-65" transform="translate(105.099976 0)"/>
     <use xlink:href="#SourceSans3-Regular-70" transform="translate(154.699966 0)"/>
     <use xlink:href="#SourceSans3-Regular-72" transform="translate(210.199951 0)"/>
     <use xlink:href="#SourceSans3-Regular-6f" transform="translate(244.899948 0)"/>
     <use xlink:href="#SourceSans3-Regular-64" transform="translate(299.099945 0)"/>
     <use xlink:href="#SourceSans3-Regular-75" transform="translate(354.59993 0)"/>
     <use xlink:href="#SourceSans3-Regular-63" transform="translate(408.999924 0)"/>
     <use xlink:href="#SourceSans3-Regular-69" transform="translate(454.599915 0)"/>
     <use xlink:href="#SourceSans3-Regular-62" transform="translate(479.199905 0)"/>
     <use xlink:href="#SourceSans3-Regular-6c" transform="translate(534.499893 0)"/>
     <use xlink:href="#SourceSans3-Regular-65" transform="translate(559.999878 0)"/>
     <use xlink:href="#SourceSans3-Regular-20" transform="translate(609.599869 0)"/>
     <use xlink:href="#SourceSans3-Regular-77" transform="translate(629.599854 0)"/>
     <use xlink:href="#SourceSans3-Regular-6f" transform="translate(701.499847 0)"/>
     <use xlink:href="#SourceSans3-Regular-72" transform="translate(755.699844 0)"/>
     <use xlink:href="#SourceSans3-Regular-6b" transform="translate(790.399841 0)"/>
     <use xlink:href="#SourceSans3-Regular-66" transform="translate(839.899826 0)"/>
     <use xlink:href="#SourceSans3-Regular-6c" transform="translate(869.099823 0)"/>
     <use xlink:href="#SourceSans3-Regular-6f" transform="translate(894.599808 0)"/>
     <use xlink:href="#SourceSans3-Regular-77" transform="translate(948.799805 0)"/>
     <use xlink:href="#SourceSans3-Regular-20" transform="translate(1020.699799 0)"/>
     <use xlink:href="#SourceSans3-Regular-70" transform="translate(1040.699783 0)"/>
     <use xlink:href="#SourceSans3-Regular-72" transform="translate(1096.199768 0)"/>
     <use xlink:href="#SourceSans3-Regular-65" transform="translate(1130.899765 0)"/>
     <use xlink:href="#SourceSans3-Regular-73" transform="translate(1180.499756 0)"/>
     <use xlink:href="#SourceSans3-Regular-65" transform="translate(1222.39975 0)"/>
     <use xlink:href="#SourceSans3-Regular-72" transform="translate(1271.999741 0)"/>
     <use xlink:href="#SourceSans3-Regular-76" transform="translate(1306.699738 0)"/>
     <use xlink:href="#SourceSans3-Regular-65" transform="translate(1353.399734 0)"/>
     <use xlink:href="#SourceSans3-Regular-73" transform="translate(1402.999725 0)"/>
     <use xlink:href="#SourceSans3-Regular-20" transform="translate(1444.899719 0)"/>
     <use xlink:href="#SourceSans3-Regular-69" transform="translate(1464.899704 0)"/>
     <use xlink:href="#SourceSans3-Regular-64" transform="translate(1489.499695 0)"/>
     <use xlink:href="#SourceSans3-Regular-65" transform="translate(1544.99968 0)"/>
     <use xlink:href="#SourceSans3-Regular-6e" transform="translate(1594.59967 0)"/>
     <use xlink:href="#SourceSans3-Regular-74" transform="translate(1649.299667 0)"/>
     <use xlink:href="#SourceSans3-Regular-69" transform="translate(1683.099655 0)"/>
     <use xlink:href="#SourceSans3-Regular-74" transform="translate(1707.699646 0)"/>
     <use xlink:href="#SourceSans3-Regular-79" transform="translate(1741.499634 0)"/>
     <use xlink:href="#SourceSans3-Regular-20" transform="translate(1788.199631 0)"/>
     <use xlink:href="#SourceSans3-Regular-74" transform="translate(1808.199615 0)"/>
     <use xlink:href="#SourceSans3-Regular-68" transform="translate(1841.999603 0)"/>
     <use xlink:href="#SourceSans3-Regular-72" transform="translate(1896.399597 0)"/>
     <use xlink:href="#SourceSans3-Regular-6f" transform="translate(1931.099594 0)"/>
     <use xlink:href="#SourceSans3-Regular-75" transform="translate(1985.299591 0)"/>
     <use xlink:href="#SourceSans3-Regular-67" transform="translate(2039.699585 0)"/>
     <use xlink:href="#SourceSans3-Regular-68" transform="translate(2090.099579 0)"/>
     <use xlink:href="#SourceSans3-Regular-20" transform="translate(2144.499573 0)"/>
     <use xlink:href="#SourceSans3-Regular-65" transform="translate(2164.499557 0)"/>
     <use xlink:href="#SourceSans3-Regular-76" transform="translate(2214.099548 0)"/>
     <use xlink:href="#SourceSans3-Regular-65" transform="translate(2260.799545 0)"/>
     <use xlink:href="#SourceSans3-Regular-72" transform="translate(2310.399536 0)"/>
     <use xlink:href="#SourceSans3-Regular-79" transform="translate(2345.099533 0)"/>
     <use xlink:href="#SourceSans3-Regular-20" transform="translate(2391.79953 0)"/>
     <use xlink:href="#SourceSans3-Regular-74" transform="translate(2411.799515 0)"/>
     <use xlink:href="#SourceSans3-Regular-72" transform="translate(2445.599503 0)"/>
     <use xlink:href="#SourceSans3-Regular-61" transform="translate(2480.2995 0)"/>
     <use xlink:href="#SourceSans3-Regular-6e" transform="translate(2530.699493 0)"/>
     <use xlink:href="#SourceSans3-Regular-73" transform="translate(2585.39949 0)"/>
     <use xlink:href="#SourceSans3-Regular-66" transform="translate(2627.299484 0)"/>
     <use xlink:href="#SourceSans3-Regular-6f" transform="translate(2656.499481 0)"/>
     <use xlink:href="#SourceSans3-Regular-72" transform="translate(2710.699478 0)"/>
     <use xlink:href="#SourceSans3-Regular-6d" transform="translate(2745.399475 0)"/>
     <use xlink:href="#SourceSans3-Regular-61" transform="translate(2828.299469 0)"/>
     <use xlink:href="#SourceSans3-Regular-74" transform="translate(2878.699463 0)"/>
     <use xlink:href="#SourceSans3-Regular-69" transform="translate(2912.499451 0)"/>
     <use xlink:href="#SourceSans3-Regular-6f" transform="translate(2937.099442 0)"/>
     <use xlink:href="#SourceSans3-Regular-6e" transform="translate(2991.299438 0)"/>
    </g>
   </g>
  </g>
 </g>
 <defs>
  <clipPath id="p5ac18062b3">
   <rect x="-17.52" y="-23.84" width="650" height="230"/>
  </clipPath>
 </defs>
</svg>
